<svg xmlns="http://www.w3.org/2000/svg" width="1400" height="800">
<rect width="1400" height="800" fill="#f8fafc"/>
<text x="700.0" y="42" text-anchor="middle" font-family="monospace" font-size="24" fill="#0f172a">static_50_50_rebalance | weekly | start=2026-01-01 | return=-4.65%</text>
<line x1="90" y1="420" x2="1310" y2="420" stroke="#334155" stroke-width="2"/>
<line x1="90" y1="90" x2="90" y2="420" stroke="#334155" stroke-width="2"/>
<line x1="90.0" y1="420" x2="90.0" y2="90" stroke="#94a3b8" stroke-width="1.2"/>
<line x1="90.0" y1="605" x2="90.0" y2="480" stroke="#94a3b8" stroke-width="1.2"/>
<line x1="90.0" y1="770" x2="90.0" y2="645" stroke="#94a3b8" stroke-width="1.2"/>
<text x="90.0" y="788" text-anchor="middle" font-family="monospace" font-size="11" fill="#334155">2026-01</text>
<line x1="448.8235294117647" y1="420" x2="448.8235294117647" y2="90" stroke="#94a3b8" stroke-width="1.2"/>
<line x1="448.8235294117647" y1="605" x2="448.8235294117647" y2="480" stroke="#94a3b8" stroke-width="1.2"/>
<line x1="448.8235294117647" y1="770" x2="448.8235294117647" y2="645" stroke="#94a3b8" stroke-width="1.2"/>
<text x="448.8235294117647" y="788" text-anchor="middle" font-family="monospace" font-size="11" fill="#334155">2026-02</text>
<line x1="735.8823529411765" y1="420" x2="735.8823529411765" y2="90" stroke="#94a3b8" stroke-width="1.2"/>
<line x1="735.8823529411765" y1="605" x2="735.8823529411765" y2="480" stroke="#94a3b8" stroke-width="1.2"/>
<line x1="735.8823529411765" y1="770" x2="735.8823529411765" y2="645" stroke="#94a3b8" stroke-width="1.2"/>
<text x="735.8823529411765" y="788" text-anchor="middle" font-family="monospace" font-size="11" fill="#334155">2026-03</text>
<line x1="1022.9411764705882" y1="420" x2="1022.9411764705882" y2="90" stroke="#94a3b8" stroke-width="1.2"/>
<line x1="1022.9411764705882" y1="605" x2="1022.9411764705882" y2="480" stroke="#94a3b8" stroke-width="1.2"/>
<line x1="1022.9411764705882" y1="770" x2="1022.9411764705882" y2="645" stroke="#94a3b8" stroke-width="1.2"/>
<text x="1022.9411764705882" y="788" text-anchor="middle" font-family="monospace" font-size="11" fill="#334155">2026-04</text>
<line x1="90" y1="420.0" x2="1310" y2="420.0" stroke="#cbd5e1" stroke-width="1"/>
<text x="78" y="424.0" text-anchor="end" font-family="monospace" font-size="12" fill="#475569">0</text>
<line x1="90" y1="354.0" x2="1310" y2="354.0" stroke="#cbd5e1" stroke-width="1"/>
<text x="78" y="358.0" text-anchor="end" font-family="monospace" font-size="12" fill="#475569">2030</text>
<line x1="90" y1="288.0" x2="1310" y2="288.0" stroke="#cbd5e1" stroke-width="1"/>
<text x="78" y="292.0" text-anchor="end" font-family="monospace" font-size="12" fill="#475569">4060</text>
<line x1="90" y1="222.0" x2="1310" y2="222.0" stroke="#cbd5e1" stroke-width="1"/>
<text x="78" y="226.0" text-anchor="end" font-family="monospace" font-size="12" fill="#475569">6091</text>
<line x1="90" y1="156.0" x2="1310" y2="156.0" stroke="#cbd5e1" stroke-width="1"/>
<text x="78" y="160.0" text-anchor="end" font-family="monospace" font-size="12" fill="#475569">8121</text>
<line x1="90" y1="90.0" x2="1310" y2="90.0" stroke="#cbd5e1" stroke-width="1"/>
<text x="78" y="94.0" text-anchor="end" font-family="monospace" font-size="12" fill="#475569">10151</text>
<polygon points="90.0,127.41762698387811 161.76470588235293,159.92677954122502 233.52941176470588,192.4359320985719 305.29411764705884,224.94508465591875 377.05882352941177,257.4542372132656 448.8235294117647,289.9633897706125 520.5882352941177,322.4725423279594 592.3529411764705,343.4477266146819 664.1176470588235,353.452497924724 735.8823529411765,357.6698122976326 807.6470588235294,359.8307175683869 879.4117647058824,360.6576816142884 951.1764705882354,361.69711486458823 1022.9411764705882,362.53876552124933 1094.705882352941,361.4016289913016 1166.4705882352941,359.40161649146546 1238.235294117647,357.97634357559207 1310.0,357.9916393035235 1310.0,420.0 1238.235294117647,420.0 1166.4705882352941,420.0 1094.705882352941,420.0 1022.9411764705882,420.0 951.1764705882354,420.0 879.4117647058824,420.0 807.6470588235294,420.0 735.8823529411765,420.0 664.1176470588235,420.0 592.3529411764705,420.0 520.5882352941177,420.0 448.8235294117647,420.0 377.05882352941177,420.0 305.29411764705884,420.0 233.52941176470588,420.0 161.76470588235293,420.0 90.0,420.0" fill="#facc15" fill-opacity="0.70" stroke="#facc15" stroke-width="1.2"/>
<polygon points="90.0,111.16305070520468 161.76470588235293,126.85480792595229 233.52941176470588,140.83292287848087 305.29411764705884,162.82047562437526 377.05882352941177,181.84641070980004 448.8235294117647,224.7881383241237 520.5882352941177,236.648961775193 592.3529411764705,244.91364467146875 664.1176470588235,245.62618039745783 735.8823529411765,244.44503059723644 807.6470588235294,245.18236692800772 879.4117647058824,243.04978130000435 951.1764705882354,247.80916492686853 1022.9411764705882,249.0294195939635 1094.705882352941,241.23124412434493 1166.4705882352941,232.37079174479302 1238.235294117647,231.48608022275155 1310.0,234.76875246385217 1310.0,357.9916393035235 1238.235294117647,357.97634357559207 1166.4705882352941,359.40161649146546 1094.705882352941,361.4016289913016 1022.9411764705882,362.53876552124933 951.1764705882354,361.69711486458823 879.4117647058824,360.6576816142884 807.6470588235294,359.8307175683869 735.8823529411765,357.6698122976326 664.1176470588235,353.452497924724 592.3529411764705,343.4477266146819 520.5882352941177,322.4725423279594 448.8235294117647,289.9633897706125 377.05882352941177,257.4542372132656 305.29411764705884,224.94508465591875 233.52941176470588,192.4359320985719 161.76470588235293,159.92677954122502 90.0,127.41762698387811" fill="#2563eb" fill-opacity="0.70" stroke="#2563eb" stroke-width="1.2"/>
<polygon points="90.0,94.90847442653126 161.76470588235293,93.92661503080251 233.52941176470588,90.00000000000006 305.29411764705884,98.9897616758359 377.05882352941177,105.2930769034678 448.8235294117647,151.6565252863001 520.5882352941177,143.2830504961497 592.3529411764705,142.1145545070222 664.1176470588235,137.28634617383068 735.8823529411765,129.43563335270574 807.6470588235294,129.9581141957059 879.4117647058824,127.42322830094935 951.1764705882354,133.6827405744407 1022.9411764705882,136.902080889552 1094.705882352941,121.32246230676924 1166.4705882352941,107.00801995814658 1238.235294117647,102.75535329859338 1310.0,110.03467515727493 1310.0,234.76875246385217 1238.235294117647,231.48608022275155 1166.4705882352941,232.37079174479302 1094.705882352941,241.23124412434493 1022.9411764705882,249.0294195939635 951.1764705882354,247.80916492686853 879.4117647058824,243.04978130000435 807.6470588235294,245.18236692800772 735.8823529411765,244.44503059723644 664.1176470588235,245.62618039745783 592.3529411764705,244.91364467146875 520.5882352941177,236.648961775193 448.8235294117647,224.7881383241237 377.05882352941177,181.84641070980004 305.29411764705884,162.82047562437526 233.52941176470588,140.83292287848087 161.76470588235293,126.85480792595229 90.0,111.16305070520468" fill="#f97316" fill-opacity="0.70" stroke="#f97316" stroke-width="1.2"/>
<rect x="1100" y="76" width="16" height="12" fill="#f97316" fill-opacity="0.70" stroke="#f97316"/>
<text x="1124" y="86" font-family="monospace" font-size="12" fill="#0f172a">BTC</text>
<rect x="1100" y="98" width="16" height="12" fill="#2563eb" fill-opacity="0.70" stroke="#2563eb"/>
<text x="1124" y="108" font-family="monospace" font-size="12" fill="#0f172a">ETH</text>
<rect x="1100" y="120" width="16" height="12" fill="#facc15" fill-opacity="0.70" stroke="#facc15"/>
<text x="1124" y="130" font-family="monospace" font-size="12" fill="#0f172a">DAI</text>
<text x="700.0" y="782" text-anchor="middle" font-family="monospace" font-size="16" fill="#0f172a">time</text>
<text x="24" y="255.0" transform="rotate(-90 24,255.0)" text-anchor="middle" font-family="monospace" font-size="16" fill="#0f172a">asset value split (usd)</text>
<line x1="90" y1="605" x2="1310" y2="605" stroke="#334155" stroke-width="2"/>
<line x1="90" y1="480" x2="90" y2="605" stroke="#334155" stroke-width="2"/>
<line x1="90" y1="542.5" x2="1310" y2="542.5" stroke="#64748b" stroke-width="1.5" stroke-dasharray="6 4"/>
<line x1="90" y1="605.0" x2="1310" y2="605.0" stroke="#e2e8f0" stroke-width="1"/>
<text x="78" y="609.0" text-anchor="end" font-family="monospace" font-size="11" fill="#475569">-500</text>
<line x1="90" y1="542.5" x2="1310" y2="542.5" stroke="#e2e8f0" stroke-width="1"/>
<text x="78" y="546.5" text-anchor="end" font-family="monospace" font-size="11" fill="#475569">0</text>
<line x1="90" y1="480.0" x2="1310" y2="480.0" stroke="#e2e8f0" stroke-width="1"/>
<text x="78" y="484.0" text-anchor="end" font-family="monospace" font-size="11" fill="#475569">500</text>
<rect x="71.36111111111111" y="480.0" width="37.27777777777778" height="62.5" fill="#ea580c" opacity="0.85"><title>2026-01-01 | BTC buy 500.00 usd | reason=static_target_rebalance</title></rect>
<rect x="143.12581699346404" y="480.0" width="37.27777777777778" height="62.5" fill="#ea580c" opacity="0.85"><title>2026-01-08 | BTC buy 500.00 usd | reason=static_target_rebalance</title></rect>
<rect x="214.890522875817" y="480.0" width="37.27777777777778" height="62.5" fill="#ea580c" opacity="0.85"><title>2026-01-15 | BTC buy 500.00 usd | reason=static_target_rebalance</title></rect>
<rect x="286.6552287581699" y="480.0" width="37.27777777777778" height="62.5" fill="#ea580c" opacity="0.85"><title>2026-01-22 | BTC buy 500.00 usd | reason=static_target_rebalance</title></rect>
<rect x="358.41993464052285" y="480.0" width="37.27777777777778" height="62.5" fill="#ea580c" opacity="0.85"><title>2026-01-29 | BTC buy 500.00 usd | reason=static_target_rebalance</title></rect>
<rect x="430.1846405228758" y="480.0" width="37.27777777777778" height="62.5" fill="#ea580c" opacity="0.85"><title>2026-02-05 | BTC buy 500.00 usd | reason=static_target_rebalance</title></rect>
<rect x="501.94934640522877" y="480.0" width="37.27777777777778" height="62.5" fill="#ea580c" opacity="0.85"><title>2026-02-12 | BTC buy 500.00 usd | reason=static_target_rebalance</title></rect>
<rect x="573.7140522875816" y="510.37409323418234" width="37.27777777777778" height="32.12590676581766" fill="#ea580c" opacity="0.85"><title>2026-02-19 | BTC buy 257.01 usd | reason=static_target_rebalance</title></rect>
<rect x="645.4787581699346" y="524.2527260266581" width="37.27777777777778" height="18.247273973341862" fill="#ea580c" opacity="0.85"><title>2026-02-26 | BTC buy 145.98 usd | reason=static_target_rebalance</title></rect>
<rect x="717.2434640522875" y="537.8230501308772" width="37.27777777777778" height="4.676949869122836" fill="#ea580c" opacity="0.85"><title>2026-03-05 | BTC buy 37.42 usd | reason=static_target_rebalance</title></rect>
<rect x="789.0081699346405" y="539.4527751145704" width="37.27777777777778" height="3.047224885429614" fill="#ea580c" opacity="0.85"><title>2026-03-12 | BTC buy 24.38 usd | reason=static_target_rebalance</title></rect>
<rect x="860.7728758169935" y="537.1009217016335" width="37.27777777777778" height="5.399078298366476" fill="#ea580c" opacity="0.85"><title>2026-03-19 | BTC buy 43.19 usd | reason=static_target_rebalance</title></rect>
<rect x="932.5375816993464" y="540.9601282012449" width="37.27777777777778" height="1.5398717987551436" fill="#ea580c" opacity="0.85"><title>2026-03-26 | BTC buy 12.32 usd | reason=static_target_rebalance</title></rect>
<rect x="1004.3022875816993" y="538.2249387776014" width="37.27777777777778" height="4.275061222398563" fill="#ea580c" opacity="0.85"><title>2026-04-02 | BTC buy 34.20 usd | reason=static_target_rebalance</title></rect>
<rect x="1076.066993464052" y="542.5" width="37.27777777777778" height="1.6832442014258504" fill="#dc2626" opacity="0.85"><title>2026-04-09 | BTC sell 13.47 usd | reason=static_target_rebalance</title></rect>
<rect x="1147.8316993464052" y="542.5" width="37.27777777777778" height="1.5" fill="#dc2626" opacity="0.85"><title>2026-04-16 | BTC sell 5.11 usd | reason=static_target_rebalance</title></rect>
<rect x="1219.5964052287582" y="542.5" width="37.27777777777778" height="7.047508545333244" fill="#dc2626" opacity="0.85"><title>2026-04-23 | BTC sell 56.38 usd | reason=static_target_rebalance</title></rect>
<rect x="1291.361111111111" y="542.5" width="37.27777777777778" height="2.8759107460883797" fill="#dc2626" opacity="0.85"><title>2026-04-30 | BTC sell 23.01 usd | reason=static_target_rebalance</title></rect>
<text x="24" y="542.5" transform="rotate(-90 24,542.5)" text-anchor="middle" font-family="monospace" font-size="14" fill="#0f172a">BTC weekly trade usd</text>
<line x1="90" y1="770" x2="1310" y2="770" stroke="#334155" stroke-width="2"/>
<line x1="90" y1="645" x2="90" y2="770" stroke="#334155" stroke-width="2"/>
<line x1="90" y1="707.5" x2="1310" y2="707.5" stroke="#64748b" stroke-width="1.5" stroke-dasharray="6 4"/>
<line x1="90" y1="770.0" x2="1310" y2="770.0" stroke="#e2e8f0" stroke-width="1"/>
<text x="78" y="774.0" text-anchor="end" font-family="monospace" font-size="11" fill="#475569">-500</text>
<line x1="90" y1="707.5" x2="1310" y2="707.5" stroke="#e2e8f0" stroke-width="1"/>
<text x="78" y="711.5" text-anchor="end" font-family="monospace" font-size="11" fill="#475569">0</text>
<line x1="90" y1="645.0" x2="1310" y2="645.0" stroke="#e2e8f0" stroke-width="1"/>
<text x="78" y="649.0" text-anchor="end" font-family="monospace" font-size="11" fill="#475569">500</text>
<rect x="71.36111111111111" y="645.0" width="37.27777777777778" height="62.5" fill="#2563eb" opacity="0.85"><title>2026-01-01 | ETH buy 500.00 usd | reason=static_target_rebalance</title></rect>
<rect x="143.12581699346404" y="645.0" width="37.27777777777778" height="62.5" fill="#2563eb" opacity="0.85"><title>2026-01-08 | ETH buy 500.00 usd | reason=static_target_rebalance</title></rect>
<rect x="214.890522875817" y="645.0" width="37.27777777777778" height="62.5" fill="#2563eb" opacity="0.85"><title>2026-01-15 | ETH buy 500.00 usd | reason=static_target_rebalance</title></rect>
<rect x="286.6552287581699" y="645.0" width="37.27777777777778" height="62.5" fill="#2563eb" opacity="0.85"><title>2026-01-22 | ETH buy 500.00 usd | reason=static_target_rebalance</title></rect>
<rect x="358.41993464052285" y="645.0" width="37.27777777777778" height="62.5" fill="#2563eb" opacity="0.85"><title>2026-01-29 | ETH buy 500.00 usd | reason=static_target_rebalance</title></rect>
<rect x="430.1846405228758" y="645.0" width="37.27777777777778" height="62.5" fill="#2563eb" opacity="0.85"><title>2026-02-05 | ETH buy 500.00 usd | reason=static_target_rebalance</title></rect>
<rect x="501.94934640522877" y="645.0" width="37.27777777777778" height="62.5" fill="#2563eb" opacity="0.85"><title>2026-02-12 | ETH buy 500.00 usd | reason=static_target_rebalance</title></rect>
<rect x="573.7140522875816" y="658.974833772905" width="37.27777777777778" height="48.52516622709504" fill="#2563eb" opacity="0.85"><title>2026-02-19 | ETH buy 388.20 usd | reason=static_target_rebalance</title></rect>
<rect x="645.4787581699346" y="687.2782178652449" width="37.27777777777778" height="20.22178213475513" fill="#2563eb" opacity="0.85"><title>2026-02-26 | ETH buy 161.77 usd | reason=static_target_rebalance</title></rect>
<rect x="717.2434640522875" y="695.9610766413099" width="37.27777777777778" height="11.538923358690113" fill="#2563eb" opacity="0.85"><title>2026-03-05 | ETH buy 92.31 usd | reason=static_target_rebalance</title></rect>
<rect x="789.0081699346405" y="702.2383906773462" width="37.27777777777778" height="5.26160932265384" fill="#2563eb" opacity="0.85"><title>2026-03-12 | ETH buy 42.09 usd | reason=static_target_rebalance</title></rect>
<rect x="860.7728758169935" y="707.5" width="37.27777777777778" height="2.219342820631823" fill="#7c3aed" opacity="0.85"><title>2026-03-19 | ETH sell 17.75 usd | reason=static_target_rebalance</title></rect>
<rect x="932.5375816993464" y="705.043177143049" width="37.27777777777778" height="2.456822856951021" fill="#2563eb" opacity="0.85"><title>2026-03-26 | ETH buy 19.65 usd | reason=static_target_rebalance</title></rect>
<rect x="1004.3022875816993" y="707.5" width="37.27777777777778" height="1.5" fill="#7c3aed" opacity="0.85"><title>2026-04-02 | ETH sell 8.31 usd | reason=static_target_rebalance</title></rect>
<rect x="1076.066993464052" y="707.5" width="37.27777777777778" height="2.6891265022621837" fill="#7c3aed" opacity="0.85"><title>2026-04-09 | ETH sell 21.51 usd | reason=static_target_rebalance</title></rect>
<rect x="1147.8316993464052" y="707.5" width="37.27777777777778" height="7.051986077981269" fill="#7c3aed" opacity="0.85"><title>2026-04-16 | ETH sell 56.42 usd | reason=static_target_rebalance</title></rect>
<rect x="1219.5964052287582" y="705.9327670222902" width="37.27777777777778" height="1.5672329777097502" fill="#2563eb" opacity="0.85"><title>2026-04-23 | ETH buy 12.54 usd | reason=static_target_rebalance</title></rect>
<rect x="1291.361111111111" y="704.5652760938927" width="37.27777777777778" height="2.9347239061072514" fill="#2563eb" opacity="0.85"><title>2026-04-30 | ETH buy 23.48 usd | reason=static_target_rebalance</title></rect>
<text x="24" y="707.5" transform="rotate(-90 24,707.5)" text-anchor="middle" font-family="monospace" font-size="14" fill="#0f172a">ETH weekly trade usd</text>
<rect x="1040" y="478" width="14" height="10" fill="#ea580c" opacity="0.85"/>
<text x="1062" y="488" font-family="monospace" font-size="11" fill="#0f172a">BTC buy</text>
<rect x="1190" y="478" width="14" height="10" fill="#dc2626" opacity="0.85"/>
<text x="1212" y="488" font-family="monospace" font-size="11" fill="#0f172a">BTC sell</text>
<rect x="1040" y="498" width="14" height="10" fill="#2563eb" opacity="0.85"/>
<text x="1062" y="508" font-family="monospace" font-size="11" fill="#0f172a">ETH buy</text>
<rect x="1190" y="498" width="14" height="10" fill="#7c3aed" opacity="0.85"/>
<text x="1212" y="508" font-family="monospace" font-size="11" fill="#0f172a">ETH sell</text>
</svg>