<svg xmlns="http://www.w3.org/2000/svg" width="1400" height="800">
<rect width="1400" height="800" fill="#f8fafc"/>
<text x="700.0" y="42" text-anchor="middle" font-family="monospace" font-size="24" fill="#0f172a">static_50_50_rebalance | weekly | start=2025-10-01 | return=-27.83%</text>
<line x1="90" y1="420" x2="1310" y2="420" stroke="#334155" stroke-width="2"/>
<line x1="90" y1="90" x2="90" y2="420" stroke="#334155" stroke-width="2"/>
<line x1="90.0" y1="420" x2="90.0" y2="90" stroke="#94a3b8" stroke-width="1.2"/>
<line x1="90.0" y1="605" x2="90.0" y2="480" stroke="#94a3b8" stroke-width="1.2"/>
<line x1="90.0" y1="770" x2="90.0" y2="645" stroke="#94a3b8" stroke-width="1.2"/>
<text x="90.0" y="788" text-anchor="middle" font-family="monospace" font-size="11" fill="#334155">2025-10</text>
<line x1="293.3333333333333" y1="420" x2="293.3333333333333" y2="90" stroke="#94a3b8" stroke-width="1.2"/>
<line x1="293.3333333333333" y1="605" x2="293.3333333333333" y2="480" stroke="#94a3b8" stroke-width="1.2"/>
<line x1="293.3333333333333" y1="770" x2="293.3333333333333" y2="645" stroke="#94a3b8" stroke-width="1.2"/>
<text x="293.3333333333333" y="788" text-anchor="middle" font-family="monospace" font-size="11" fill="#334155">2025-11</text>
<line x1="456.0" y1="420" x2="456.0" y2="90" stroke="#94a3b8" stroke-width="1.2"/>
<line x1="456.0" y1="605" x2="456.0" y2="480" stroke="#94a3b8" stroke-width="1.2"/>
<line x1="456.0" y1="770" x2="456.0" y2="645" stroke="#94a3b8" stroke-width="1.2"/>
<text x="456.0" y="788" text-anchor="middle" font-family="monospace" font-size="11" fill="#334155">2025-12</text>
<line x1="659.3333333333334" y1="420" x2="659.3333333333334" y2="90" stroke="#94a3b8" stroke-width="1.2"/>
<line x1="659.3333333333334" y1="605" x2="659.3333333333334" y2="480" stroke="#94a3b8" stroke-width="1.2"/>
<line x1="659.3333333333334" y1="770" x2="659.3333333333334" y2="645" stroke="#94a3b8" stroke-width="1.2"/>
<text x="659.3333333333334" y="788" text-anchor="middle" font-family="monospace" font-size="11" fill="#334155">2026-01</text>
<line x1="822.0" y1="420" x2="822.0" y2="90" stroke="#94a3b8" stroke-width="1.2"/>
<line x1="822.0" y1="605" x2="822.0" y2="480" stroke="#94a3b8" stroke-width="1.2"/>
<line x1="822.0" y1="770" x2="822.0" y2="645" stroke="#94a3b8" stroke-width="1.2"/>
<text x="822.0" y="788" text-anchor="middle" font-family="monospace" font-size="11" fill="#334155">2026-02</text>
<line x1="984.6666666666666" y1="420" x2="984.6666666666666" y2="90" stroke="#94a3b8" stroke-width="1.2"/>
<line x1="984.6666666666666" y1="605" x2="984.6666666666666" y2="480" stroke="#94a3b8" stroke-width="1.2"/>
<line x1="984.6666666666666" y1="770" x2="984.6666666666666" y2="645" stroke="#94a3b8" stroke-width="1.2"/>
<text x="984.6666666666666" y="788" text-anchor="middle" font-family="monospace" font-size="11" fill="#334155">2026-03</text>
<line x1="1147.3333333333333" y1="420" x2="1147.3333333333333" y2="90" stroke="#94a3b8" stroke-width="1.2"/>
<line x1="1147.3333333333333" y1="605" x2="1147.3333333333333" y2="480" stroke="#94a3b8" stroke-width="1.2"/>
<line x1="1147.3333333333333" y1="770" x2="1147.3333333333333" y2="645" stroke="#94a3b8" stroke-width="1.2"/>
<text x="1147.3333333333333" y="788" text-anchor="middle" font-family="monospace" font-size="11" fill="#334155">2026-04</text>
<line x1="90" y1="420.0" x2="1310" y2="420.0" stroke="#cbd5e1" stroke-width="1"/>
<text x="78" y="424.0" text-anchor="end" font-family="monospace" font-size="12" fill="#475569">0</text>
<line x1="90" y1="354.0" x2="1310" y2="354.0" stroke="#cbd5e1" stroke-width="1"/>
<text x="78" y="358.0" text-anchor="end" font-family="monospace" font-size="12" fill="#475569">2008</text>
<line x1="90" y1="288.0" x2="1310" y2="288.0" stroke="#cbd5e1" stroke-width="1"/>
<text x="78" y="292.0" text-anchor="end" font-family="monospace" font-size="12" fill="#475569">4016</text>
<line x1="90" y1="222.0" x2="1310" y2="222.0" stroke="#cbd5e1" stroke-width="1"/>
<text x="78" y="226.0" text-anchor="end" font-family="monospace" font-size="12" fill="#475569">6024</text>
<line x1="90" y1="156.0" x2="1310" y2="156.0" stroke="#cbd5e1" stroke-width="1"/>
<text x="78" y="160.0" text-anchor="end" font-family="monospace" font-size="12" fill="#475569">8032</text>
<line x1="90" y1="90.0" x2="1310" y2="90.0" stroke="#cbd5e1" stroke-width="1"/>
<text x="78" y="94.0" text-anchor="end" font-family="monospace" font-size="12" fill="#475569">10040</text>
<polygon points="90.0,124.18477389601685 130.66666666666666,157.05313235201498 171.33333333333331,189.92149080801312 212.0,222.78984926401122 252.66666666666666,255.65820772000936 293.3333333333333,288.52656617600746 334.0,321.3828909957389 374.6666666666667,342.3303662204283 415.3333333333333,352.9062050620645 456.0,357.25782959850534 496.66666666666663,359.1195680575638 537.3333333333333,362.54285097286294 578.0,363.66214003215816 618.6666666666666,364.15469375149235 659.3333333333334,363.18309890835246 700.0,361.28224493793425 740.6666666666666,362.65618736111253 781.3333333333334,363.26999958999977 822.0,368.8162474810159 862.6666666666666,373.1522632468948 903.3333333333333,375.331446034028 944.0,375.78307945439354 984.6666666666666,375.1112849512658 1025.3333333333335,375.41071007936586 1066.0,374.7800338388406 1106.6666666666667,374.607530734946 1147.3333333333333,375.0455461940306 1188.0,374.67084915931974 1228.6666666666667,373.287902957269 1269.3333333333333,372.10207534788265 1310.0,372.33083554393886 1310.0,420.0 1269.3333333333333,420.0 1228.6666666666667,420.0 1188.0,420.0 1147.3333333333333,420.0 1106.6666666666667,420.0 1066.0,420.0 1025.3333333333335,420.0 984.6666666666666,420.0 944.0,420.0 903.3333333333333,420.0 862.6666666666666,420.0 822.0,420.0 781.3333333333334,420.0 740.6666666666666,420.0 700.0,420.0 659.3333333333334,420.0 618.6666666666666,420.0 578.0,420.0 537.3333333333333,420.0 496.66666666666663,420.0 456.0,420.0 415.3333333333333,420.0 374.6666666666667,420.0 334.0,420.0 293.3333333333333,420.0 252.66666666666666,420.0 212.0,420.0 171.33333333333331,420.0 130.66666666666666,420.0 90.0,420.0" fill="#facc15" fill-opacity="0.70" stroke="#facc15" stroke-width="1.2"/>
<polygon points="90.0,107.75059466801781 130.66666666666666,123.51698379186251 171.33333333333331,143.94953001747905 212.0,162.47517273465826 252.66666666666666,177.35510157801394 293.3333333333333,203.42243610314478 334.0,220.08891594586535 374.6666666666667,240.7610438820635 415.3333333333333,245.5476475624874 456.0,242.2905162009833 496.66666666666663,240.18021892083132 537.3333333333333,257.85275247858664 578.0,254.01340434780818 618.6666666666666,253.57231086077275 659.3333333333334,246.39849691894497 700.0,238.78178603526553 740.6666666666666,252.2866224752881 781.3333333333334,251.4769294662067 822.0,283.32133769544566 862.6666666666666,291.96368477807835 903.3333333333333,291.92210197825983 944.0,288.1223029564653 984.6666666666666,284.23147756716395 1025.3333333333335,287.29042413257343 1066.0,281.6226777143692 1106.6666666666667,283.2140957750088 1147.3333333333333,285.4177268760096 1188.0,283.1055122283916 1228.6666666666667,275.8491498087441 1269.3333333333333,273.9974172010302 1310.0,278.3857065547543 1310.0,372.33083554393886 1269.3333333333333,372.10207534788265 1228.6666666666667,373.287902957269 1188.0,374.67084915931974 1147.3333333333333,375.0455461940306 1106.6666666666667,374.607530734946 1066.0,374.7800338388406 1025.3333333333335,375.41071007936586 984.6666666666666,375.1112849512658 944.0,375.78307945439354 903.3333333333333,375.331446034028 862.6666666666666,373.1522632468948 822.0,368.8162474810159 781.3333333333334,363.26999958999977 740.6666666666666,362.65618736111253 700.0,361.28224493793425 659.3333333333334,363.18309890835246 618.6666666666666,364.15469375149235 578.0,363.66214003215816 537.3333333333333,362.54285097286294 496.66666666666663,359.1195680575638 456.0,357.25782959850534 415.3333333333333,352.9062050620645 374.6666666666667,342.3303662204283 334.0,321.3828909957389 293.3333333333333,288.52656617600746 252.66666666666666,255.65820772000936 212.0,222.78984926401122 171.33333333333331,189.92149080801312 130.66666666666666,157.05313235201498 90.0,124.18477389601685" fill="#2563eb" fill-opacity="0.70" stroke="#2563eb" stroke-width="1.2"/>
<polygon points="90.0,91.31641544001872 130.66666666666666,90.00000000000006 171.33333333333331,97.40571857116578 212.0,100.84897747524423 252.66666666666666,97.89355086360717 293.3333333333333,111.97751400254373 334.0,114.1851025626629 374.6666666666667,136.38920722558856 415.3333333333333,137.41021951850303 456.0,128.04727067473107 496.66666666666663,124.90653258311136 537.3333333333333,149.83066944081037 578.0,143.90714545726706 618.6666666666666,143.2362373541324 659.3333333333334,131.05752032606273 700.0,116.90695483758043 740.6666666666666,140.15064892145386 781.3333333333334,139.419059094435 822.0,191.81247686016061 862.6666666666666,207.44139506386819 903.3333333333333,207.55314410580567 944.0,201.17356437379541 984.6666666666666,192.1974522406905 1025.3333333333335,198.5506760373294 1066.0,190.74678799157718 1106.6666666666667,192.17513815525703 1147.3333333333333,197.41780826557581 1188.0,191.4807606230447 1228.6666666666667,179.52478377609137 1269.3333333333333,174.58123869248115 1310.0,182.79797869997543 1310.0,278.3857065547543 1269.3333333333333,273.9974172010302 1228.6666666666667,275.8491498087441 1188.0,283.1055122283916 1147.3333333333333,285.4177268760096 1106.6666666666667,283.2140957750088 1066.0,281.6226777143692 1025.3333333333335,287.29042413257343 984.6666666666666,284.23147756716395 944.0,288.1223029564653 903.3333333333333,291.92210197825983 862.6666666666666,291.96368477807835 822.0,283.32133769544566 781.3333333333334,251.4769294662067 740.6666666666666,252.2866224752881 700.0,238.78178603526553 659.3333333333334,246.39849691894497 618.6666666666666,253.57231086077275 578.0,254.01340434780818 537.3333333333333,257.85275247858664 496.66666666666663,240.18021892083132 456.0,242.2905162009833 415.3333333333333,245.5476475624874 374.6666666666667,240.7610438820635 334.0,220.08891594586535 293.3333333333333,203.42243610314478 252.66666666666666,177.35510157801394 212.0,162.47517273465826 171.33333333333331,143.94953001747905 130.66666666666666,123.51698379186251 90.0,107.75059466801781" fill="#f97316" fill-opacity="0.70" stroke="#f97316" stroke-width="1.2"/>
<rect x="1100" y="76" width="16" height="12" fill="#f97316" fill-opacity="0.70" stroke="#f97316"/>
<text x="1124" y="86" font-family="monospace" font-size="12" fill="#0f172a">BTC</text>
<rect x="1100" y="98" width="16" height="12" fill="#2563eb" fill-opacity="0.70" stroke="#2563eb"/>
<text x="1124" y="108" font-family="monospace" font-size="12" fill="#0f172a">ETH</text>
<rect x="1100" y="120" width="16" height="12" fill="#facc15" fill-opacity="0.70" stroke="#facc15"/>
<text x="1124" y="130" font-family="monospace" font-size="12" fill="#0f172a">DAI</text>
<text x="700.0" y="782" text-anchor="middle" font-family="monospace" font-size="16" fill="#0f172a">time</text>
<text x="24" y="255.0" transform="rotate(-90 24,255.0)" text-anchor="middle" font-family="monospace" font-size="16" fill="#0f172a">asset value split (usd)</text>
<line x1="90" y1="605" x2="1310" y2="605" stroke="#334155" stroke-width="2"/>
<line x1="90" y1="480" x2="90" y2="605" stroke="#334155" stroke-width="2"/>
<line x1="90" y1="542.5" x2="1310" y2="542.5" stroke="#64748b" stroke-width="1.5" stroke-dasharray="6 4"/>
<line x1="90" y1="605.0" x2="1310" y2="605.0" stroke="#e2e8f0" stroke-width="1"/>
<text x="78" y="609.0" text-anchor="end" font-family="monospace" font-size="11" fill="#475569">-500</text>
<line x1="90" y1="542.5" x2="1310" y2="542.5" stroke="#e2e8f0" stroke-width="1"/>
<text x="78" y="546.5" text-anchor="end" font-family="monospace" font-size="11" fill="#475569">0</text>
<line x1="90" y1="480.0" x2="1310" y2="480.0" stroke="#e2e8f0" stroke-width="1"/>
<text x="78" y="484.0" text-anchor="end" font-family="monospace" font-size="11" fill="#475569">500</text>
<rect x="79.1774193548387" y="480.0" width="21.64516129032258" height="62.5" fill="#ea580c" opacity="0.85"><title>2025-10-01 | BTC buy 500.00 usd | reason=static_target_rebalance</title></rect>
<rect x="119.84408602150536" y="480.0" width="21.64516129032258" height="62.5" fill="#ea580c" opacity="0.85"><title>2025-10-08 | BTC buy 500.00 usd | reason=static_target_rebalance</title></rect>
<rect x="160.51075268817203" y="480.0" width="21.64516129032258" height="62.5" fill="#ea580c" opacity="0.85"><title>2025-10-15 | BTC buy 500.00 usd | reason=static_target_rebalance</title></rect>
<rect x="201.17741935483872" y="480.0" width="21.64516129032258" height="62.5" fill="#ea580c" opacity="0.85"><title>2025-10-22 | BTC buy 500.00 usd | reason=static_target_rebalance</title></rect>
<rect x="241.84408602150538" y="480.0" width="21.64516129032258" height="62.5" fill="#ea580c" opacity="0.85"><title>2025-10-29 | BTC buy 500.00 usd | reason=static_target_rebalance</title></rect>
<rect x="282.51075268817203" y="480.0" width="21.64516129032258" height="62.5" fill="#ea580c" opacity="0.85"><title>2025-11-05 | BTC buy 500.00 usd | reason=static_target_rebalance</title></rect>
<rect x="323.1774193548387" y="480.04576451651377" width="21.64516129032258" height="62.45423548348623" fill="#ea580c" opacity="0.85"><title>2025-11-12 | BTC buy 499.63 usd | reason=static_target_rebalance</title></rect>
<rect x="363.8440860215054" y="507.99690614517897" width="21.64516129032258" height="34.50309385482103" fill="#ea580c" opacity="0.85"><title>2025-11-19 | BTC buy 276.02 usd | reason=static_target_rebalance</title></rect>
<rect x="404.51075268817203" y="523.8708214422536" width="21.64516129032258" height="18.6291785577464" fill="#ea580c" opacity="0.85"><title>2025-11-26 | BTC buy 149.03 usd | reason=static_target_rebalance</title></rect>
<rect x="445.1774193548387" y="532.8484448148937" width="21.64516129032258" height="9.651555185106304" fill="#ea580c" opacity="0.85"><title>2025-12-03 | BTC buy 77.21 usd | reason=static_target_rebalance</title></rect>
<rect x="485.84408602150535" y="531.9895092162295" width="21.64516129032258" height="10.510490783770479" fill="#ea580c" opacity="0.85"><title>2025-12-10 | BTC buy 84.08 usd | reason=static_target_rebalance</title></rect>
<rect x="526.5107526881719" y="542.3263938783226" width="21.64516129032258" height="1.5" fill="#ea580c" opacity="0.85"><title>2025-12-17 | BTC buy 1.39 usd | reason=static_target_rebalance</title></rect>
<rect x="567.1774193548387" y="541.2416357931481" width="21.64516129032258" height="1.5" fill="#ea580c" opacity="0.85"><title>2025-12-24 | BTC buy 10.07 usd | reason=static_target_rebalance</title></rect>
<rect x="607.8440860215053" y="541.0950334567161" width="21.64516129032258" height="1.5" fill="#ea580c" opacity="0.85"><title>2025-12-31 | BTC buy 11.24 usd | reason=static_target_rebalance</title></rect>
<rect x="648.510752688172" y="541.6024221782759" width="21.64516129032258" height="1.5" fill="#ea580c" opacity="0.85"><title>2026-01-07 | BTC buy 7.18 usd | reason=static_target_rebalance</title></rect>
<rect x="689.1774193548387" y="542.5" width="21.64516129032258" height="2.4248744182450537" fill="#dc2626" opacity="0.85"><title>2026-01-14 | BTC sell 19.40 usd | reason=static_target_rebalance</title></rect>
<rect x="729.8440860215053" y="542.5" width="21.64516129032258" height="1.5" fill="#dc2626" opacity="0.85"><title>2026-01-21 | BTC sell 5.97 usd | reason=static_target_rebalance</title></rect>
<rect x="770.510752688172" y="541.8363450494194" width="21.64516129032258" height="1.5" fill="#ea580c" opacity="0.85"><title>2026-01-28 | BTC buy 5.31 usd | reason=static_target_rebalance</title></rect>
<rect x="811.1774193548387" y="542.5" width="21.64516129032258" height="1.5" fill="#dc2626" opacity="0.85"><title>2026-02-04 | BTC sell 7.11 usd | reason=static_target_rebalance</title></rect>
<rect x="851.8440860215053" y="540.594093058703" width="21.64516129032258" height="1.905906941296962" fill="#ea580c" opacity="0.85"><title>2026-02-11 | BTC buy 15.25 usd | reason=static_target_rebalance</title></rect>
<rect x="892.5107526881719" y="540.1809593106092" width="21.64516129032258" height="2.3190406893908175" fill="#ea580c" opacity="0.85"><title>2026-02-18 | BTC buy 18.55 usd | reason=static_target_rebalance</title></rect>
<rect x="933.1774193548387" y="540.2872500516308" width="21.64516129032258" height="2.212749948369151" fill="#ea580c" opacity="0.85"><title>2026-02-25 | BTC buy 17.70 usd | reason=static_target_rebalance</title></rect>
<rect x="973.8440860215053" y="542.5" width="21.64516129032258" height="3.4722080202602683" fill="#dc2626" opacity="0.85"><title>2026-03-04 | BTC sell 27.78 usd | reason=static_target_rebalance</title></rect>
<rect x="1014.5107526881721" y="542.5" width="21.64516129032258" height="1.5" fill="#dc2626" opacity="0.85"><title>2026-03-11 | BTC sell 4.87 usd | reason=static_target_rebalance</title></rect>
<rect x="1055.1774193548388" y="539.360981505655" width="21.64516129032258" height="3.1390184943450095" fill="#ea580c" opacity="0.85"><title>2026-03-18 | BTC buy 25.11 usd | reason=static_target_rebalance</title></rect>
<rect x="1095.8440860215055" y="542.1539714697523" width="21.64516129032258" height="1.5" fill="#ea580c" opacity="0.85"><title>2026-03-25 | BTC buy 2.77 usd | reason=static_target_rebalance</title></rect>
<rect x="1136.510752688172" y="538.571609095117" width="21.64516129032258" height="3.928390904883031" fill="#ea580c" opacity="0.85"><title>2026-04-01 | BTC buy 31.43 usd | reason=static_target_rebalance</title></rect>
<rect x="1177.1774193548388" y="542.5" width="21.64516129032258" height="1.5" fill="#dc2626" opacity="0.85"><title>2026-04-08 | BTC sell 6.60 usd | reason=static_target_rebalance</title></rect>
<rect x="1217.8440860215055" y="542.5" width="21.64516129032258" height="1.5" fill="#dc2626" opacity="0.85"><title>2026-04-15 | BTC sell 4.09 usd | reason=static_target_rebalance</title></rect>
<rect x="1258.510752688172" y="542.5" width="21.64516129032258" height="4.748769197027286" fill="#dc2626" opacity="0.85"><title>2026-04-22 | BTC sell 37.99 usd | reason=static_target_rebalance</title></rect>
<rect x="1299.1774193548388" y="542.5" width="21.64516129032258" height="2.6884493475517957" fill="#dc2626" opacity="0.85"><title>2026-04-29 | BTC sell 21.51 usd | reason=static_target_rebalance</title></rect>
<text x="24" y="542.5" transform="rotate(-90 24,542.5)" text-anchor="middle" font-family="monospace" font-size="14" fill="#0f172a">BTC weekly trade usd</text>
<line x1="90" y1="770" x2="1310" y2="770" stroke="#334155" stroke-width="2"/>
<line x1="90" y1="645" x2="90" y2="770" stroke="#334155" stroke-width="2"/>
<line x1="90" y1="707.5" x2="1310" y2="707.5" stroke="#64748b" stroke-width="1.5" stroke-dasharray="6 4"/>
<line x1="90" y1="770.0" x2="1310" y2="770.0" stroke="#e2e8f0" stroke-width="1"/>
<text x="78" y="774.0" text-anchor="end" font-family="monospace" font-size="11" fill="#475569">-500</text>
<line x1="90" y1="707.5" x2="1310" y2="707.5" stroke="#e2e8f0" stroke-width="1"/>
<text x="78" y="711.5" text-anchor="end" font-family="monospace" font-size="11" fill="#475569">0</text>
<line x1="90" y1="645.0" x2="1310" y2="645.0" stroke="#e2e8f0" stroke-width="1"/>
<text x="78" y="649.0" text-anchor="end" font-family="monospace" font-size="11" fill="#475569">500</text>
<rect x="79.1774193548387" y="645.0" width="21.64516129032258" height="62.5" fill="#2563eb" opacity="0.85"><title>2025-10-01 | ETH buy 500.00 usd | reason=static_target_rebalance</title></rect>
<rect x="119.84408602150536" y="645.0" width="21.64516129032258" height="62.5" fill="#2563eb" opacity="0.85"><title>2025-10-08 | ETH buy 500.00 usd | reason=static_target_rebalance</title></rect>
<rect x="160.51075268817203" y="645.0" width="21.64516129032258" height="62.5" fill="#2563eb" opacity="0.85"><title>2025-10-15 | ETH buy 500.00 usd | reason=static_target_rebalance</title></rect>
<rect x="201.17741935483872" y="645.0" width="21.64516129032258" height="62.5" fill="#2563eb" opacity="0.85"><title>2025-10-22 | ETH buy 500.00 usd | reason=static_target_rebalance</title></rect>
<rect x="241.84408602150538" y="645.0" width="21.64516129032258" height="62.5" fill="#2563eb" opacity="0.85"><title>2025-10-29 | ETH buy 500.00 usd | reason=static_target_rebalance</title></rect>
<rect x="282.51075268817203" y="645.0" width="21.64516129032258" height="62.5" fill="#2563eb" opacity="0.85"><title>2025-11-05 | ETH buy 500.00 usd | reason=static_target_rebalance</title></rect>
<rect x="323.1774193548387" y="645.0" width="21.64516129032258" height="62.5" fill="#2563eb" opacity="0.85"><title>2025-11-12 | ETH buy 500.00 usd | reason=static_target_rebalance</title></rect>
<rect x="363.8440860215054" y="662.3388049737212" width="21.64516129032258" height="45.16119502627885" fill="#2563eb" opacity="0.85"><title>2025-11-19 | ETH buy 361.29 usd | reason=static_target_rebalance</title></rect>
<rect x="404.51075268817203" y="685.9087380701482" width="21.64516129032258" height="21.59126192985184" fill="#2563eb" opacity="0.85"><title>2025-11-26 | ETH buy 172.73 usd | reason=static_target_rebalance</title></rect>
<rect x="445.1774193548387" y="700.6021108986411" width="21.64516129032258" height="6.897889101358942" fill="#2563eb" opacity="0.85"><title>2025-12-03 | ETH buy 55.18 usd | reason=static_target_rebalance</title></rect>
<rect x="485.84408602150535" y="707.5" width="21.64516129032258" height="3.4302069389336793" fill="#7c3aed" opacity="0.85"><title>2025-12-10 | ETH sell 27.44 usd | reason=static_target_rebalance</title></rect>
<rect x="526.5107526881719" y="694.6546911373697" width="21.64516129032258" height="12.845308862630304" fill="#2563eb" opacity="0.85"><title>2025-12-17 | ETH buy 102.76 usd | reason=static_target_rebalance</title></rect>
<rect x="567.1774193548387" y="704.5016523117565" width="21.64516129032258" height="2.9983476882434843" fill="#2563eb" opacity="0.85"><title>2025-12-24 | ETH buy 23.99 usd | reason=static_target_rebalance</title></rect>
<rect x="607.8440860215053" y="707.0317602802089" width="21.64516129032258" height="1.5" fill="#2563eb" opacity="0.85"><title>2025-12-31 | ETH buy 3.75 usd | reason=static_target_rebalance</title></rect>
<rect x="648.510752688172" y="707.5" width="21.64516129032258" height="4.592601275818197" fill="#7c3aed" opacity="0.85"><title>2026-01-07 | ETH sell 36.74 usd | reason=static_target_rebalance</title></rect>
<rect x="689.1774193548387" y="707.5" width="21.64516129032258" height="4.804167659422546" fill="#7c3aed" opacity="0.85"><title>2026-01-14 | ETH sell 38.43 usd | reason=static_target_rebalance</title></rect>
<rect x="729.8440860215053" y="701.5285443989542" width="21.64516129032258" height="5.971455601045818" fill="#2563eb" opacity="0.85"><title>2026-01-21 | ETH buy 47.77 usd | reason=static_target_rebalance</title></rect>
<rect x="770.510752688172" y="705.8292965519518" width="21.64516129032258" height="1.6707034480482434" fill="#2563eb" opacity="0.85"><title>2026-01-28 | ETH buy 13.37 usd | reason=static_target_rebalance</title></rect>
<rect x="811.1774193548387" y="685.5179945778875" width="21.64516129032258" height="21.98200542211248" fill="#2563eb" opacity="0.85"><title>2026-02-04 | ETH buy 175.86 usd | reason=static_target_rebalance</title></rect>
<rect x="851.8440860215053" y="692.9158235846714" width="21.64516129032258" height="14.584176415328557" fill="#2563eb" opacity="0.85"><title>2026-02-11 | ETH buy 116.67 usd | reason=static_target_rebalance</title></rect>
<rect x="892.5107526881719" y="701.5315002952968" width="21.64516129032258" height="5.968499704703163" fill="#2563eb" opacity="0.85"><title>2026-02-18 | ETH buy 47.75 usd | reason=static_target_rebalance</title></rect>
<rect x="933.1774193548387" y="707.5" width="21.64516129032258" height="1.5" fill="#7c3aed" opacity="0.85"><title>2026-02-25 | ETH sell 3.96 usd | reason=static_target_rebalance</title></rect>
<rect x="973.8440860215053" y="706.5826598476737" width="21.64516129032258" height="1.5" fill="#2563eb" opacity="0.85"><title>2026-03-04 | ETH buy 7.34 usd | reason=static_target_rebalance</title></rect>
<rect x="1014.5107526881721" y="705.7527130199896" width="21.64516129032258" height="1.747286980010358" fill="#2563eb" opacity="0.85"><title>2026-03-11 | ETH buy 13.98 usd | reason=static_target_rebalance</title></rect>
<rect x="1055.1774193548388" y="707.5" width="21.64516129032258" height="5.537511566981607" fill="#7c3aed" opacity="0.85"><title>2026-03-18 | ETH sell 44.30 usd | reason=static_target_rebalance</title></rect>
<rect x="1095.8440860215055" y="707.5" width="21.64516129032258" height="1.5" fill="#7c3aed" opacity="0.85"><title>2026-03-25 | ETH sell 8.02 usd | reason=static_target_rebalance</title></rect>
<rect x="1136.510752688172" y="707.5" width="21.64516129032258" height="2.26259635481847" fill="#7c3aed" opacity="0.85"><title>2026-04-01 | ETH sell 18.10 usd | reason=static_target_rebalance</title></rect>
<rect x="1177.1774193548388" y="707.5" width="21.64516129032258" height="1.5" fill="#7c3aed" opacity="0.85"><title>2026-04-08 | ETH sell 4.80 usd | reason=static_target_rebalance</title></rect>
<rect x="1217.8440860215055" y="707.5" width="21.64516129032258" height="4.748741333679277" fill="#7c3aed" opacity="0.85"><title>2026-04-15 | ETH sell 37.99 usd | reason=static_target_rebalance</title></rect>
<rect x="1258.510752688172" y="707.2609921094809" width="21.64516129032258" height="1.5" fill="#2563eb" opacity="0.85"><title>2026-04-22 | ETH buy 1.91 usd | reason=static_target_rebalance</title></rect>
<rect x="1299.1774193548388" y="703.9415642627929" width="21.64516129032258" height="3.5584357372071054" fill="#2563eb" opacity="0.85"><title>2026-04-29 | ETH buy 28.47 usd | reason=static_target_rebalance</title></rect>
<text x="24" y="707.5" transform="rotate(-90 24,707.5)" text-anchor="middle" font-family="monospace" font-size="14" fill="#0f172a">ETH weekly trade usd</text>
<rect x="1040" y="478" width="14" height="10" fill="#ea580c" opacity="0.85"/>
<text x="1062" y="488" font-family="monospace" font-size="11" fill="#0f172a">BTC buy</text>
<rect x="1190" y="478" width="14" height="10" fill="#dc2626" opacity="0.85"/>
<text x="1212" y="488" font-family="monospace" font-size="11" fill="#0f172a">BTC sell</text>
<rect x="1040" y="498" width="14" height="10" fill="#2563eb" opacity="0.85"/>
<text x="1062" y="508" font-family="monospace" font-size="11" fill="#0f172a">ETH buy</text>
<rect x="1190" y="498" width="14" height="10" fill="#7c3aed" opacity="0.85"/>
<text x="1212" y="508" font-family="monospace" font-size="11" fill="#0f172a">ETH sell</text>
</svg>