<svg xmlns="http://www.w3.org/2000/svg" width="1400" height="800">
<rect width="1400" height="800" fill="#f8fafc"/>
<text x="700.0" y="42" text-anchor="middle" font-family="monospace" font-size="24" fill="#0f172a">Portfolio Value Over Time | start=2020-04-01 | interval=7d</text>
<line x1="90" y1="710" x2="1310" y2="710" stroke="#334155" stroke-width="2"/>
<line x1="90" y1="90" x2="90" y2="710" stroke="#334155" stroke-width="2"/>
<line x1="90.0" y1="710" x2="90.0" y2="90" stroke="#cbd5e1" stroke-width="1"/>
<text x="90.0" y="734" text-anchor="middle" font-family="monospace" font-size="11" fill="#475569">2020-04-01</text>
<line x1="90" y1="710.0" x2="1310" y2="710.0" stroke="#cbd5e1" stroke-width="1"/>
<text x="78" y="714.0" text-anchor="end" font-family="monospace" font-size="12" fill="#475569">14014</text>
<line x1="334.0" y1="710" x2="334.0" y2="90" stroke="#cbd5e1" stroke-width="1"/>
<text x="334.0" y="734" text-anchor="middle" font-family="monospace" font-size="11" fill="#475569">2021-06-16</text>
<line x1="90" y1="586.0" x2="1310" y2="586.0" stroke="#cbd5e1" stroke-width="1"/>
<text x="78" y="590.0" text-anchor="end" font-family="monospace" font-size="12" fill="#475569">45941</text>
<line x1="578.0" y1="710" x2="578.0" y2="90" stroke="#cbd5e1" stroke-width="1"/>
<text x="578.0" y="734" text-anchor="middle" font-family="monospace" font-size="11" fill="#475569">2022-09-07</text>
<line x1="90" y1="462.0" x2="1310" y2="462.0" stroke="#cbd5e1" stroke-width="1"/>
<text x="78" y="466.0" text-anchor="end" font-family="monospace" font-size="12" fill="#475569">77868</text>
<line x1="822.0" y1="710" x2="822.0" y2="90" stroke="#cbd5e1" stroke-width="1"/>
<text x="822.0" y="734" text-anchor="middle" font-family="monospace" font-size="11" fill="#475569">2023-11-22</text>
<line x1="90" y1="337.99999999999994" x2="1310" y2="337.99999999999994" stroke="#cbd5e1" stroke-width="1"/>
<text x="78" y="341.99999999999994" text-anchor="end" font-family="monospace" font-size="12" fill="#475569">109794</text>
<line x1="1066.0" y1="710" x2="1066.0" y2="90" stroke="#cbd5e1" stroke-width="1"/>
<text x="1066.0" y="734" text-anchor="middle" font-family="monospace" font-size="11" fill="#475569">2025-02-12</text>
<line x1="90" y1="214.00000000000006" x2="1310" y2="214.00000000000006" stroke="#cbd5e1" stroke-width="1"/>
<text x="78" y="218.00000000000006" text-anchor="end" font-family="monospace" font-size="12" fill="#475569">141721</text>
<line x1="1310.0" y1="710" x2="1310.0" y2="90" stroke="#cbd5e1" stroke-width="1"/>
<text x="1310.0" y="734" text-anchor="middle" font-family="monospace" font-size="11" fill="#475569">2026-04-29</text>
<line x1="90" y1="90.0" x2="1310" y2="90.0" stroke="#cbd5e1" stroke-width="1"/>
<text x="78" y="94.0" text-anchor="end" font-family="monospace" font-size="12" fill="#475569">173648</text>
<text x="700.0" y="782" text-anchor="middle" font-family="monospace" font-size="16" fill="#0f172a">time</text>
<text x="24" y="400.0" transform="rotate(-90 24,400.0)" text-anchor="middle" font-family="monospace" font-size="16" fill="#0f172a">portfolio_value_usd</text>
<line x1="970" y1="80" x2="988" y2="80" stroke="#0f766e" stroke-width="3"/>
<text x="998" y="84" font-family="monospace" font-size="12" fill="#0f172a">static_50_50_rebalance</text>
<line x1="970" y1="104" x2="988" y2="104" stroke="#dc2626" stroke-width="3"/>
<text x="998" y="108" font-family="monospace" font-size="12" fill="#0f172a">target_50_50_with_cash_band</text>
<line x1="970" y1="128" x2="988" y2="128" stroke="#2563eb" stroke-width="3"/>
<text x="998" y="132" font-family="monospace" font-size="12" fill="#0f172a">narrow_cash_band_rebalance</text>
<line x1="970" y1="152" x2="988" y2="152" stroke="#7c3aed" stroke-width="3"/>
<text x="998" y="156" font-family="monospace" font-size="12" fill="#0f172a">drawdown_tilt_rebalance</text>
<line x1="970" y1="176" x2="988" y2="176" stroke="#b45309" stroke-width="3"/>
<text x="998" y="180" font-family="monospace" font-size="12" fill="#0f172a">btc_defensive_eth_aggressive</text>
<polyline points="90.0,710.0 93.84858044164038,707.7628880127161 97.69716088328076,709.7990421702729 101.54574132492114,707.8955743984341 105.39432176656152,703.3571153393681 109.24290220820188,703.0649854859923 113.09148264984228,702.6705273248338 116.94006309148266,701.8887913637436 120.78864353312304,702.6482732527196 124.6372239747634,700.1595588189475 128.48580441640377,699.4702954047041 132.33438485804416,701.1457669633331 136.18296529968455,701.5426951110173 140.03154574132492,701.812994041139 143.8801261829653,700.5558922215753 147.72870662460568,701.624354612428 151.57728706624607,699.4063788998394 155.42586750788644,692.3930412530908 159.2744479495268,686.3122202585031 163.1230283911672,687.5638598862827 166.97160883280756,685.9436274788725 170.82018927444796,687.9243559958321 174.66876971608832,685.0555853733736 178.5173501577287,693.3244559019528 182.3659305993691,690.4846907528764 186.21451104100947,695.1126806596737 190.06309148264984,691.2472578181067 193.9116719242902,692.6707536330866 197.76025236593063,688.2739455696394 201.608832807571,683.7647434455502 205.45741324921136,682.7227420376258 209.30599369085172,679.5331818257823 213.15457413249212,671.6654159202596 217.0031545741325,665.6229401361305 220.85173501577287,657.2782931943302 224.70031545741324,654.1374319088754 228.54889589905363,657.3765407997289 232.397476340694,646.3297189791252 236.2460567823344,645.8792784136576 240.09463722397476,621.6239953201006 243.94321766561512,571.9258366451573 247.79179810725552,576.3403241551418 251.6403785488959,563.6500051640934 255.48895899053628,582.6512261931175 259.33753943217664,541.6622992840913 263.186119873817,522.5344909233445 267.0347003154574,501.1300483389656 270.8832807570978,518.9274838481498 274.7318611987382,520.9333837645529 278.5804416403786,497.0550801075182 282.42902208201895,489.47682718921584 286.2776025236593,516.0906630923217 290.1261829652997,484.18018245219474 293.97476340694004,487.03826169669196 297.8233438485804,446.8536619047956 301.67192429022083,468.56038858702595 305.52050473186125,445.7705259630258 309.36908517350156,402.26363956669525 313.217665615142,404.4047379744883 317.06624605678235,486.52375457991695 320.9148264984227,462.96739772064683 324.7634069400631,473.9726277576651 328.61198738170344,478.3031174987 332.46056782334387,486.6363521264572 336.30914826498423,512.7691474428724 340.1577287066246,496.967113063234 344.006309148265,497.6507157763723 347.8548895899053,513.571540594959 351.70347003154575,514.8750505381201 355.5520504731861,485.5408860412056 359.4006309148265,467.85524982258295 363.24921135646684,436.7720650163338 367.09779179810727,444.8180848624526 370.94637223974763,426.78376383753096 374.794952681388,401.785758479336 378.6435331230284,420.8076568746266 382.4921135646688,411.8181585141776 386.34069400630915,442.65941152216874 390.1892744479495,456.0454003774303 394.03785488958994,397.7065245566478 397.88643533123025,392.0618713957645 401.73501577287067,351.34605567930157 405.58359621451103,377.18156832552705 409.4321766561514,340.44139211645455 413.2807570977918,335.14124295498146 417.1293375394322,357.9957267762861 420.97791798107255,365.67724080947715 424.826498422713,353.6664898393578 428.6750788643533,373.8039695254431 432.52365930599365,392.47151788180906 436.37223974763407,394.5398256311384 440.22082018927443,411.95996555603296 444.06940063091486,422.0582138208817 447.9179810725552,426.98201032082443 451.7665615141956,442.55278609291986 455.615141955836,476.17327967064887 459.4637223974764,467.9877963035144 463.3123028391167,430.10187222685835 467.1608832807571,435.80117109540424 471.00946372239747,471.2204618670554 474.85804416403784,442.1691553453866 478.70662460567826,454.9769414630809 482.5552050473186,455.12374701886586 486.403785488959,441.0292056803239 490.2523659305994,418.07180513704316 494.1009463722397,435.5583838351501 497.9495268138801,442.2178100758459 501.7981072555205,443.27131391449217 505.64668769716087,455.5127642264699 509.4952681388013,452.58165558609437 513.3438485804417,511.61206519892903 517.192429022082,518.6909438048082 521.0410094637225,515.5491899399874 524.8895899053628,519.7399259906891 528.7381703470031,519.7843182601355 532.5867507886435,560.5277289833297 536.435331230284,574.4579958635373 540.2839116719242,572.1196940898897 544.1324921135647,567.4756427257523 547.9810725552051,571.2184972074423 551.8296529968454,546.6640973353345 555.6782334384859,542.5954983820179 559.5268138801262,543.6876249581912 563.3753943217665,530.8227861122634 567.2239747634069,533.2799214637103 571.0725552050474,546.0565014241874 574.9211356466877,553.9570760800306 578.7697160883281,552.7214099588911 582.6182965299685,549.7974820489328 586.4668769716088,571.6913951364048 590.3154574132492,565.0939706498134 594.1640378548896,562.3377746503865 598.01261829653,567.7136117609302 601.8611987381703,568.2295661873931 605.7097791798107,550.9176817815984 609.5583596214511,554.8741554428154 613.4069400630915,586.0556461832929 617.2555205047319,578.6033143721111 621.1041009463722,580.2330494927838 624.9526813880126,573.3669660102847 628.801261829653,577.2877220936964 632.6498422712934,570.842940900447 636.4984227129337,578.2170606997902 640.3470031545742,580.2501059606773 644.1955835962145,576.101951518254 648.0441640378549,566.3076466164014 651.8927444794953,551.9620775144141 655.7413249211356,539.5682254872729 659.589905362776,536.0137465500561 663.4384858044165,538.0151911830787 667.2870662460568,532.5019654162024 671.1356466876971,534.5505083103568 674.9842271293376,535.2029522398075 678.8328075709779,548.0898684058118 682.6813880126183,533.1528046961429 686.5299684542587,519.4142706507644 690.378548895899,513.282164730399 694.2271293375394,507.9748691586735 698.0757097791799,501.7562288654368 701.9242902208201,504.5719522393784 705.7728706624605,509.36656311797356 709.6214511041009,505.2940187964026 713.4700315457413,513.3260395758405 717.3186119873817,515.0978008118607 721.1671924290221,519.9510415737791 725.0157728706624,512.9779762940683 728.8643533123028,518.1580067519649 732.7129337539433,532.0009157133532 736.5615141955836,502.54568449035736 740.410094637224,505.6105150276337 744.2586750788644,499.68932791423504 748.1072555205047,502.17738830343455 751.9558359621451,502.85564198241684 755.8044164037856,505.72505265545135 759.652996845426,508.18855247994713 763.5015772870663,505.96331086036196 767.3501577287066,511.655653394108 771.1987381703469,526.6214342951396 775.0473186119873,522.0671120959295 778.8958990536278,531.6753278238205 782.7444794952681,531.3204801961422 786.5930599369085,527.3319490605805 790.4416403785489,531.4251970457286 794.2902208201892,523.6013257650708 798.1388012618297,531.3797784283613 801.9873817034701,526.4622384398905 805.8359621451104,492.4359062858051 809.6845425867508,485.8930513220872 813.5331230283912,482.87165719010886 817.3817034700315,465.7946589129534 821.230283911672,466.99153258904397 825.0788643533124,467.61139699143575 828.9274447949527,437.1706524687658 832.776025236593,438.2465353265663 836.6246056782334,439.2355000700192 840.4731861198737,429.45188801724134 844.3217665615142,441.0404283954366 848.1703470031546,408.06414877916734 852.0189274447949,423.1625481620897 855.8675078864353,447.4565137019276 859.7160883280757,437.2939144590725 863.5646687697161,423.87140188616524 867.4132492113565,381.19472233461727 871.2618296529969,370.6419966034282 875.1104100946372,315.76017457736964 878.9589905362776,281.81791619734435 882.807570977918,251.5794038694557 886.6561514195585,292.0628069404388 890.5047318611988,288.4908024222125 894.3533123028391,307.7923981279149 898.2018927444794,282.7574888348275 902.0504731861198,337.7143272424916 905.8990536277602,321.4691243263454 909.7476340694006,346.9260001724597 913.596214511041,338.6515010099248 917.4447949526814,321.4136991433008 921.2933753943217,276.56324165424473 925.1419558359621,279.39587017334384 928.9905362776026,264.2502695759809 932.839116719243,288.0707297879595 936.6876971608833,297.14393003682363 940.5362776025237,318.38982422911806 944.384858044164,324.29314546179967 948.2334384858044,341.0354700031876 952.0820189274449,308.31133790539457 955.9305993690853,307.51312141152033 959.7791798107255,315.0559187191117 963.6277602523659,388.2873570341404 967.4763406940062,361.6791407316748 971.3249211356466,356.50083339723767 975.1735015772871,367.70394863236515 979.0220820189274,374.7740132306274 982.8706624605678,382.32892911864525 986.7192429022082,368.66653604706835 990.5678233438485,354.0638258542989 994.416403785489,372.2389113686533 998.2649842271294,372.1111772745418 1002.1135646687698,340.7138145168308 1005.9621451104101,348.11553032521226 1009.8107255520505,326.2143810466944 1013.6593059936909,314.3642179013928 1017.5078864353313,252.64000383313038 1021.3564668769717,250.06618814796377 1025.2050473186118,214.21018154918318 1029.0536277602523,197.59991826673092 1032.9022082018928,192.4820573452555 1036.750788643533,206.54037946421226 1040.5993690851735,215.63134585254585 1044.4479495268138,234.53042030030707 1048.2965299684543,234.58287713146836 1052.1451104100947,215.3552235381573 1055.993690851735,220.17873698730273 1059.8422712933755,227.16433821688332 1063.6908517350157,260.53766962364386 1067.5394321766562,260.7763138211433 1071.3880126182967,264.6544161827139 1075.236593059937,312.3253123511032 1079.0851735015772,304.03617897255214 1082.9337539432177,337.3624293258759 1086.7823343848581,322.2212690638727 1090.6309148264984,324.8453421416612 1094.4794952681386,346.26759991045424 1098.3280757097791,353.31913407999866 1102.1766561514196,355.7854710598105 1106.02523659306,323.80833247178265 1109.8738170347003,323.0812704256248 1113.7223974763406,316.5793548292058 1117.570977917981,257.25461282001595 1121.4195583596213,249.16765652420946 1125.2681388012618,244.95928428473928 1129.1167192429023,255.0762630971654 1132.9652996845425,237.95350585253374 1136.813880126183,259.7996128336309 1140.6624605678232,261.4162987466783 1144.5110410094637,249.53840176896813 1148.3596214511042,233.05128374500453 1152.2082018927445,182.64031540931103 1156.056782334385,166.83611518603107 1159.9053627760252,157.78105824731972 1163.7539432176657,170.79093380688494 1167.602523659306,90.0 1171.4511041009464,131.73111887881248 1175.2996845425869,127.51456793211719 1179.1482649842271,129.69122572851938 1182.9968454258674,131.287639275213 1186.8454258675079,112.59108337022246 1190.6940063091483,143.63937090062643 1194.5425867507886,122.16243632281237 1198.391167192429,102.999836681327 1202.2397476340693,158.19728521740308 1206.0883280757098,174.8515035539034 1209.93690851735,164.46053189809686 1213.7854889589905,204.1297518994195 1217.634069400631,209.04114269881512 1221.4826498422713,251.52962203302638 1225.3312302839117,253.27820779062654 1229.179810725552,237.93106987250957 1233.0283911671925,232.83892395817105 1236.876971608833,273.0700839785634 1240.7255520504732,263.70872773522814 1244.5741324921137,262.65188431898116 1248.422712933754,243.47359628850342 1252.2712933753942,221.0602228037397 1256.1198738170347,258.30899911203085 1259.9684542586751,257.13926272704236 1263.8170347003154,340.5728747914298 1267.6656151419559,364.678519323391 1271.5141955835961,364.9667488825793 1275.3627760252366,355.6498538122079 1279.211356466877,341.9710855750057 1283.0599369085173,351.52619449505227 1286.9085173501578,340.283851752019 1290.757097791798,342.318767968268 1294.6056782334385,350.5227250035743 1298.4542586750788,341.3805984353234 1302.3028391167193,323.26301401028576 1306.1514195583597,315.421887927446 1310.0,328.0722747813796" fill="none" stroke="#0f766e" stroke-width="2.5"><title>static_50_50_rebalance | end=2026-04-29 | return=701.72%</title></polyline>
<polyline points="90.0,710.0 93.84858044164038,707.7628880127161 97.69716088328076,709.7990421702729 101.54574132492114,707.8955743984341 105.39432176656152,703.3571153393681 109.24290220820188,703.0649854859923 113.09148264984228,702.6705273248338 116.94006309148266,701.8903885344617 120.78864353312304,702.6374362949693 124.6372239747634,700.1744991843526 128.48580441640377,699.5064306741933 132.33438485804416,701.1179241032594 136.18296529968455,701.4854743528102 140.03154574132492,701.7470405450421 143.8801261829653,700.5328507068189 147.72870662460568,701.5383850548212 151.57728706624607,699.4188338851399 155.42586750788644,693.8018118666425 159.2744479495268,688.8837127304864 163.1230283911672,689.7454736624658 166.97160883280756,688.6619814101851 170.82018927444796,689.8874777415648 174.66876971608832,687.8891312476608 178.5173501577287,692.711744279865 182.3659305993691,691.1728793995318 186.21451104100947,693.9239290500149 190.06309148264984,691.5646914088067 193.9116719242902,692.4761653280382 197.76025236593063,689.7523885679426 201.608832807571,687.0742017143249 205.45741324921136,686.4573491655626 209.30599369085172,684.3928443463872 213.15457413249212,679.153183848946 217.0031545741325,675.7596864554913 220.85173501577287,671.1377036591397 224.70031545741324,669.5641702193074 228.54889589905363,671.0786674344104 232.397476340694,666.0622940124268 236.2460567823344,665.9422664277404 240.09463722397476,655.3024642166362 243.94321766561512,634.5138828859551 247.79179810725552,636.2262940814473 251.6403785488959,631.5947852686186 255.48895899053628,638.3241526976933 259.33753943217664,623.3862568015642 263.186119873817,616.5609687479118 267.0347003154574,609.4135604382024 270.8832807570978,614.9591907470126 274.7318611987382,615.5689753037458 278.5804416403786,607.8005296304744 282.42902208201895,605.420833075922 286.2776025236593,613.5210997916149 290.1261829652997,603.6877975071035 293.97476340694004,604.5309851404409 297.8233438485804,592.6849361705638 301.67192429022083,598.9561298540093 305.52050473186125,592.1810924425583 309.36908517350156,579.7337236287356 313.217665615142,580.7314626661499 317.06624605678235,605.3077984013413 320.9148264984227,598.1943349751352 324.7634069400631,601.5537020345716 328.61198738170344,602.8821604527559 332.46056782334387,605.4429007233646 336.30914826498423,613.6518808431914 340.1577287066246,608.6567166081151 344.006309148265,608.8953732673459 347.8548895899053,614.0140872368521 351.70347003154575,614.4506858907907 355.5520504731861,604.6874278588516 359.4006309148265,598.8783397777026 363.24921135646684,588.4263329217118 367.09779179810727,591.183505778985 370.94637223974763,584.9246013957786 374.794952681388,576.1855965679619 378.6435331230284,582.9104786166502 382.4921135646688,579.6907632614822 386.34069400630915,590.7825049351884 390.1892744479495,595.6267963103235 394.03785488958994,574.3624940355118 397.88643533123025,572.467645891502 401.73501577287067,559.9778122047961 405.58359621451103,567.5264466347344 409.4321766561514,557.4647690661474 413.2807570977918,555.902222642666 417.1293375394322,562.0799653921736 420.97791798107255,564.3562404792394 424.826498422713,561.3165266644953 428.6750788643533,567.2271120463417 432.52365930599365,572.382554845208 436.37223974763407,572.9664691878521 440.22082018927443,577.9051971436791 444.06940063091486,580.9548360290088 447.9179810725552,582.2730969746469 451.7665615141956,586.8299615502358 455.615141955836,596.7564118561473 459.4637223974764,594.4182450204257 463.3123028391167,582.8024159761804 467.1608832807571,584.5048532056138 471.00946372239747,595.5054493250972 474.85804416403784,586.2755766044113 478.70662460567826,590.2811790096731 482.5552050473186,590.4078112220752 486.403785488959,585.9623364355767 490.2523659305994,578.5342325450991 494.1009463722397,584.3058051969757 497.9495268138801,586.5747351200343 501.7981072555205,586.8790611504133 505.64668769716087,590.9464399126041 509.4952681388013,589.9746215498873 513.3438485804417,609.9372817964013 517.192429022082,612.2492247143737 521.0410094637225,611.1357910735453 524.8895899053628,612.483205107509 528.7381703470031,612.4554889475121 532.5867507886435,626.9868581802536 536.435331230284,632.0228442311802 540.2839116719242,631.1968677255431 544.1324921135647,629.5101325211523 547.9810725552051,630.8846268059042 551.8296529968454,621.6478773449708 555.6782334384859,620.1785884259905 559.5268138801262,620.5982605212994 563.3753943217665,615.6567618610412 567.2239747634069,616.6514834221833 571.0725552050474,621.7344375595949 574.9211356466877,624.9179289058832 578.7697160883281,624.5235412109225 582.6182965299685,623.2705731406928 586.4668769716088,632.1231905775195 590.3154574132492,629.3767234044307 594.1640378548896,628.1754204052129 598.01261829653,630.4850100579903 601.8611987381703,630.700900014592 605.7097791798107,623.3155788247277 609.5583596214511,625.0475898310144 613.4069400630915,638.7256755836839 617.2555205047319,635.4559346628226 621.1041009463722,636.1639646427202 624.9526813880126,633.1090295925719 628.801261829653,634.8678916029519 632.6498422712934,631.8938610632581 636.4984227129337,635.3072633796803 640.3470031545742,636.2587060784882 644.1955835962145,634.3401732096211 648.0441640378549,629.7207431990789 651.8927444794953,622.7456008897702 655.7413249211356,616.6767683204071 659.589905362776,614.927967902343 663.4384858044165,615.9755514823673 667.2870662460568,613.1859652756856 671.1356466876971,614.1741728456948 674.9842271293376,614.5659033265038 678.8328075709779,621.0002674836165 682.6813880126183,613.4351913860302 686.5299684542587,606.369840880298 690.378548895899,603.2448249687436 694.2271293375394,600.6913274799965 698.0757097791799,597.3916947255844 701.9242902208201,598.9391720238981 705.7728706624605,601.3580455893908 709.6214511041009,599.2516230931762 713.4700315457413,603.4520663311446 717.3186119873817,604.2068934133306 721.1671924290221,606.0960007117454 725.0157728706624,603.4105603407955 728.8643533123028,605.2870369210863 732.7129337539433,610.0574670831504 736.5615141955836,599.6236766958241 740.410094637224,600.6377004926134 744.2586750788644,598.6783472290159 748.1072555205047,599.4865401089387 751.9558359621451,599.6961149511494 755.8044164037856,600.6103407035923 759.652996845426,601.3977836574423 763.5015772870663,600.6868880496751 767.3501577287066,602.5013827980345 771.1987381703469,607.2923630792644 775.0473186119873,605.8230115519694 778.8958990536278,608.9518260848618 782.7444794952681,608.83861174349 786.5930599369085,607.5153162824116 790.4416403785489,608.8961386098335 794.2902208201892,606.2308552890477 798.1388012618297,608.9094762063894 801.9873817034701,607.1636754270307 805.8359621451104,594.9772639284704 809.6845425867508,592.587294427371 813.5331230283912,591.5688073465446 817.3817034700315,586.0135832770763 821.230283911672,586.3885814859053 825.0788643533124,586.5768122671738 828.9274447949527,577.3535817127181 832.776025236593,577.6697835195239 836.6246056782334,577.9577860650647 840.4731861198737,575.1141607483755 844.3217665615142,578.4377355446884 848.1703470031546,568.9273105531321 852.0189274447949,573.1800184591824 855.8675078864353,580.0287608759576 859.7160883280757,577.128939084985 863.5646687697161,573.2917267704996 867.4132492113565,561.1815778059579 871.2618296529969,558.2835862000485 875.1104100946372,543.5468720659514 878.9589905362776,534.8078993150389 882.807570977918,527.3129859933343 886.6561514195585,537.0145967228698 890.5047318611988,536.1575473064903 894.3533123028391,540.8177918510505 898.2018927444794,534.7175064845819 902.0504731861198,548.1040788933728 905.8990536277602,544.1208992304701 909.7476340694006,550.3947071162073 913.596214511041,548.3541981446336 917.4447949526814,544.059172128314 921.2933753943217,532.6112300092832 925.1419558359621,533.3242408984975 928.9905362776026,529.5807100795452 932.839116719243,535.3161043006785 936.6876971608833,537.5355627400796 940.5362776025237,542.7233219831425 944.384858044164,544.1689648350232 948.2334384858044,548.3045124112529 952.0820189274449,540.1411850304121 955.9305993690853,539.9263622991774 959.7791798107255,541.8236709708717 963.6277602523659,560.4089534082138 967.4763406940062,553.5660175897365 971.3249211356466,552.179699910202 975.1735015772871,555.1491901628792 979.0220820189274,557.0329373987502 982.8706624605678,559.0431528656115 986.7192429022082,555.222819414783 990.5678233438485,551.237111510901 994.416403785489,556.2931262787658 998.2649842271294,556.2620781404463 1002.1135646687698,547.1744001638907 1005.9621451104101,549.2985442948353 1009.8107255520505,542.6974769295568 1013.6593059936909,539.0333043898968 1017.5078864353313,519.8864318831002 1021.3564668769717,518.7325662954167 1025.2050473186118,508.36671901875985 1029.0536277602523,503.82036617046606 1032.9022082018928,502.50479717646306 1036.750788643533,506.0135230957103 1040.5993690851735,508.2806399639585 1044.4479495268138,512.8739808730438 1048.2965299684543,512.9145122111601 1052.1451104100947,508.19630538634885 1055.993690851735,509.5507268079787 1059.8422712933755,511.36875509924573 1063.6908517350157,520.0388030180798 1067.5394321766562,520.1078758911372 1071.3880126182967,521.1373721749651 1075.236593059937,533.8985168521127 1079.0851735015772,531.6603458306731 1082.9337539432177,540.7569203093269 1086.7823343848581,536.5806391565849 1090.6309148264984,537.305774793033 1094.4794952681386,543.3325001421833 1098.3280757097791,545.3172086862423 1102.1766561514196,545.9960471094361 1106.02523659306,536.5701310520527 1109.8738170347003,536.3428370749871 1113.7223974763406,534.3125870210563 1117.570977917981,516.4583436747466 1121.4195583596213,513.743184828995 1125.2681388012618,512.5806760771732 1129.1167192429023,515.7754002015896 1132.9652996845425,510.4049556788911 1136.813880126183,517.2290190101469 1140.6624605678232,517.6042271869039 1144.5110410094637,513.874265210178 1148.3596214511042,508.65340894385116 1152.2082018927445,492.64255463185964 1156.056782334385,487.7019925626549 1159.9053627760252,485.1657718612829 1163.7539432176657,488.60698657634794 1167.602523659306,468.01449370274634 1171.4511041009464,478.2391782409875 1175.2996845425869,477.40970531377684 1179.1482649842271,477.87829413643914 1182.9968454258674,478.1007517796066 1186.8454258675079,473.6798493766073 1190.6940063091483,480.8904045031003 1194.5425867507886,475.68424630582655 1198.391167192429,471.0652098167466 1202.2397476340693,484.1626417683793 1206.0883280757098,488.11084107851934 1209.93690851735,485.6127242920689 1213.7854889589905,495.0565051408359 1217.634069400631,496.30099291530814 1221.4826498422713,506.7092025093644 1225.3312302839117,507.16700489309125 1229.179810725552,503.3877999804623 1233.0283911671925,502.2370218879014 1236.876971608833,512.1784561567699 1240.7255520504732,509.84662853315353 1244.5741324921137,509.59404491750774 1248.422712933754,504.7094807238716 1252.2712933753942,498.90703341295745 1256.1198738170347,508.5202463251311 1259.9684542586751,508.2368668693466 1263.8170347003154,530.0043853023564 1267.6656151419559,536.4054510990804 1271.5141955835961,536.5067696354156 1275.3627760252366,534.0222864861821 1279.211356466877,530.2389431563477 1283.0599369085173,532.8663594618223 1286.9085173501578,529.8312367412765 1290.757097791798,530.3745055133392 1294.6056782334385,532.7263649392415 1298.4542586750788,530.1109816845266 1302.3028391167193,524.9805749564288 1306.1514195583597,522.6732646399685 1310.0,526.2962030801801" fill="none" stroke="#dc2626" stroke-width="2.5"><title>target_50_50_with_cash_band | end=2026-04-29 | return=337.52%</title></polyline>
<polyline points="90.0,710.0 93.84858044164038,707.7628880127161 97.69716088328076,709.7990421702729 101.54574132492114,707.8955743984341 105.39432176656152,703.3571153393681 109.24290220820188,703.0649854859923 113.09148264984228,702.6705273248338 116.94006309148266,701.8887913637436 120.78864353312304,702.6482732527196 124.6372239747634,700.1595588189475 128.48580441640377,699.4702954047041 132.33438485804416,701.1457669633331 136.18296529968455,701.5426951110173 140.03154574132492,701.812994041139 143.8801261829653,700.5558922215753 147.72870662460568,701.624354612428 151.57728706624607,699.4063788998394 155.42586750788644,692.7248065378932 159.2744479495268,686.8474120496243 163.1230283911672,688.0238273204282 166.97160883280756,686.488720957041 170.82018927444796,688.3295702833238 174.66876971608832,685.4276193562 178.5173501577287,693.1046896620365 182.3659305993691,690.6295449893214 186.21451104100947,694.9329546921438 190.06309148264984,691.2891972384424 193.9116719242902,692.6703796329305 197.76025236593063,688.5155000491794 201.608832807571,684.3659263370029 205.45741324921136,683.3927276845219 209.30599369085172,680.2776534878719 213.15457413249212,672.4881682595353 217.0031545741325,666.8916927449817 220.85173501577287,659.046286368834 224.70031545741324,656.2420116804144 228.54889589905363,659.0161643812681 232.397476340694,649.7841750226507 236.2460567823344,649.5387269116995 240.09463722397476,629.51416852223 243.94321766561512,588.9829263762155 247.79179810725552,592.5585099374858 251.6403785488959,582.5880413476084 255.48895899053628,597.2254999995954 259.33753943217664,564.7298766998318 263.186119873817,549.9409908346048 267.0347003154574,533.6894567126051 270.8832807570978,546.9100828076134 274.7318611987382,548.3827206290306 278.5804416403786,530.2128524800505 282.42902208201895,524.5118091407364 286.2776025236593,544.226225193594 290.1261829652997,520.5034699277309 293.97476340694004,522.589893320868 297.8233438485804,493.44540243962507 301.67192429022083,509.2143793434079 305.52050473186125,492.1248727747475 309.36908517350156,459.9915380413024 313.217665615142,461.5390793402123 317.06624605678235,524.730682384862 320.9148264984227,506.4688917769755 324.7634069400631,514.6373593909807 328.61198738170344,517.8654943731715 332.46056782334387,524.1084554003305 336.30914826498423,543.5764545399484 340.1577287066246,531.7598264068282 344.006309148265,532.2535344788903 347.8548895899053,544.1977934671916 351.70347003154575,545.1684980119596 355.5520504731861,523.1760149941418 359.4006309148265,509.82851449428233 363.24921135646684,486.9620949200503 367.09779179810727,492.9738511008154 370.94637223974763,479.7144677579912 374.794952681388,461.5413323169331 378.6435331230284,476.06686111404673 382.4921135646688,469.178076920751 386.34069400630915,493.1415147999411 390.1892744479495,503.26761305726416 394.03785488958994,459.34132715780606 397.88643533123025,455.10280270821585 401.73501577287067,425.17048924503854 405.58359621451103,444.1899747687113 409.4321766561514,418.23869784395964 413.2807570977918,414.2848706347693 417.1293375394322,430.5968516393092 420.97791798107255,436.3876706850595 424.826498422713,428.217254781033 428.6750788643533,443.23713039058543 432.52365930599365,456.7540852357907 436.37223974763407,458.26392418140824 440.22082018927443,470.97414683678824 444.06940063091486,478.54201163130824 447.9179810725552,481.9842640720625 451.7665615141956,493.36176041072696 455.615141955836,517.9614685161956 459.4637223974764,512.1012252701523 463.3123028391167,484.02644555755217 467.1608832807571,488.1777764016764 471.00946372239747,514.4472528499713 474.85804416403784,492.71031380303737 478.70662460567826,502.181454239347 482.5552050473186,502.39391441800853 486.403785488959,491.9905117586335 490.2523659305994,474.8552704683024 494.1009463722397,488.0174723249643 497.9495268138801,493.1056740080485 501.7981072555205,493.8397087645401 505.64668769716087,503.0100831884731 509.4952681388013,500.82324161705014 513.3438485804417,545.2231471943471 517.192429022082,550.4271039523854 521.0410094637225,548.0203839334204 524.8895899053628,551.0513988804829 528.7381703470031,551.0323863433052 532.5867507886435,581.9986714752549 536.435331230284,592.612257395316 540.2839116719242,590.8659836514987 544.1324921135647,587.3617081024669 547.9810725552051,590.1885416584194 551.8296529968454,571.476406446084 555.6782334384859,568.4683219269316 559.5268138801262,569.3044683163104 563.3753943217665,559.4989579540602 567.2239747634069,561.4281153155646 571.0725552050474,571.3116770860332 574.9211356466877,577.4481813579856 578.7697160883281,576.6154637530494 582.6182965299685,574.274757753496 586.4668769716088,591.1237067287996 590.3154574132492,585.9777991530017 594.1640378548896,583.7750038072146 598.01261829653,588.0173830738806 601.8611987381703,588.4164672018368 605.7097791798107,574.9171748090116 609.5583596214511,578.0419390301519 613.4069400630915,602.6209929596544 617.2555205047319,596.7699761153311 621.1041009463722,598.0372191859251 624.9526813880126,592.6397059718612 628.801261829653,595.7272413828154 632.6498422712934,590.5809176061615 636.4984227129337,596.4623205454528 640.3470031545742,598.0894899625889 644.1955835962145,594.8035880719265 648.0441640378549,586.975518593226 651.8927444794953,575.3265828087801 655.7413249211356,565.242839330684 659.589905362776,562.3485809327707 663.4384858044165,564.038356506135 667.2870662460568,559.4898854373874 671.1356466876971,561.128339336533 674.9842271293376,561.7261147448673 678.8328075709779,572.211455249319 682.6813880126183,559.9762186464 686.5299684542587,548.6367230787688 690.378548895899,543.6119158326154 694.2271293375394,539.4196046619744 698.0757097791799,534.2104477635751 701.9242902208201,536.4716826157388 705.7728706624605,540.2794108215029 709.6214511041009,537.0805823865619 713.4700315457413,543.3234990234193 717.3186119873817,544.6881391966881 721.1671924290221,548.3924311577981 725.0157728706624,543.0692645104806 728.8643533123028,546.9908561739622 732.7129337539433,557.2981091388667 736.5615141955836,535.0833944209797 740.410094637224,537.3286311912088 744.2586750788644,532.9784393517392 748.1072555205047,534.7933760615782 751.9558359621451,535.2710232973686 755.8044164037856,537.3369635133946 759.652996845426,539.1128895319123 763.5015772870663,537.5141826706528 767.3501577287066,541.5975624245726 771.1987381703469,552.3342413763135 775.0473186119873,549.0647552324505 778.8958990536278,555.9788660204845 782.7444794952681,555.7300872856185 786.5930599369085,552.8462851019037 790.4416403785489,555.835352455529 794.2902208201892,550.1042616011669 798.1388012618297,555.8261281174885 801.9873817034701,552.1167571752418 805.8359621451104,527.0466385440083 809.6845425867508,522.1289552860649 813.5331230283912,519.9060204540126 817.3817034700315,507.43897741040735 821.230283911672,508.30370882795114 825.0788643533124,508.74037974821346 828.9274447949527,487.19652680598006 832.776025236593,487.96128416524357 836.6246056782334,488.6432316226658 840.4731861198737,481.8300300992145 844.3217665615142,489.879790543067 848.1703470031546,466.96926967914567 852.0189274447949,477.3738161364936 855.8675078864353,494.1500472184731 859.7160883280757,487.12916431118487 863.5646687697161,477.84355721222823 867.4132492113565,448.44553307510665 871.2618296529969,441.23762269965204 875.1104100946372,404.0158669705864 878.9589905362776,381.2503068572308 882.807570977918,361.2214048770434 886.6561514195585,387.75806276207805 890.5047318611988,385.42222311488035 894.3533123028391,398.0697794812851 898.2018927444794,381.6058415850755 902.0504731861198,417.67933857606175 905.8990536277602,407.0053801876453 909.7476340694006,423.76002957875335 913.596214511041,418.31548743391227 917.4447949526814,406.95117943208254 921.2933753943217,377.15366720970457 925.1419558359621,379.06875399524137 928.9905362776026,369.0098812916273 932.839116719243,384.59955742787224 936.6876971608833,390.6043107508201 940.5362776025237,404.5629913205082 944.384858044164,408.43057283959286 948.2334384858044,419.4300448205157 952.0820189274449,397.85000737128956 955.9305993690853,397.2859169925822 959.7791798107255,402.24798151781795 963.6277602523659,450.5898267623101 967.4763406940062,432.9150531260309 971.3249211356466,429.34692879100766 975.1735015772871,436.92789870479345 979.0220820189274,441.70542910831733 982.8706624605678,446.76525977202004 986.7192429022082,437.161103705261 990.5678233438485,427.2560250244051 994.416403785489,439.76534772413225 998.2649842271294,439.69072815778674 1002.1135646687698,417.3982327585075 1005.9621451104101,422.4435805455914 1009.8107255520505,407.48941756120144 1013.6593059936909,399.4882613748978 1017.5078864353313,358.1833856194384 1021.3564668769717,356.23068111293196 1025.2050473186118,332.01010803794054 1029.0536277602523,320.73795508571413 1032.9022082018928,317.3035308733933 1036.750788643533,326.7182525183611 1040.5993690851735,332.7948424209259 1044.4479495268138,345.2303202480456 1048.2965299684543,345.30448601226897 1052.1451104100947,332.63456401776125 1055.993690851735,336.0134515729792 1059.8422712933755,340.73741235096463 1063.6908517350157,363.5494299645724 1067.5394321766562,363.7296875163693 1071.3880126182967,366.3095689990806 1075.236593059937,397.94048323425807 1079.0851735015772,392.6961497970993 1082.9337539432177,414.96121048308095 1086.7823343848581,404.82540289408394 1090.6309148264984,406.62192885169867 1094.4794952681386,420.99636335149927 1098.3280757097791,425.83802771500154 1102.1766561514196,427.597827430552 1106.02523659306,405.79506988050457 1109.8738170347003,405.3097871866649 1113.7223974763406,400.9605558921994 1117.570977917981,360.30279447043364 1121.4195583596213,355.06225760241733 1125.2681388012618,351.99552524298764 1129.1167192429023,358.7631980614871 1132.9652996845425,347.1918938256003 1136.813880126183,362.0729610336448 1140.6624605678232,363.41886641883883 1144.5110410094637,355.2836880306037 1148.3596214511042,344.0329894781399 1152.2082018927445,309.6077426592862 1156.056782334385,298.5725458345071 1159.9053627760252,292.1941876342987 1163.7539432176657,300.8577359808083 1167.602523659306,246.67722897870368 1171.4511041009464,273.9892794366574 1175.2996845425869,271.23351238450755 1179.1482649842271,272.631557249101 1182.9968454258674,273.61449161650893 1186.8454258675079,261.6366528494396 1190.6940063091483,281.41527079176745 1194.5425867507886,267.6354761325717 1198.391167192429,255.33074493178356 1202.2397476340693,290.7677420922459 1206.0883280757098,301.4544963270062 1209.93690851735,294.76757318684264 1213.7854889589905,320.2316006527657 1217.634069400631,323.42919468313573 1221.4826498422713,350.8641964537197 1225.3312302839117,352.01084947847625 1229.179810725552,342.0963109440368 1233.0283911671925,338.87082841437143 1236.876971608833,364.86432656891634 1240.7255520504732,358.8068909286914 1244.5741324921137,358.12980250525237 1248.422712933754,345.6636132386998 1252.2712933753942,331.0422041801369 1256.1198738170347,355.3155753190994 1259.9684542586751,354.5648669777687 1263.8170347003154,409.0401172421509 1267.6656151419559,424.8402894094381 1271.5141955835961,425.0443306298392 1275.3627760252366,418.9373379703217 1279.211356466877,409.89193990347997 1283.0599369085173,416.19805842579893 1286.9085173501578,408.8170044687939 1290.757097791798,410.1485592011616 1294.6056782334385,415.6150440645883 1298.4542586750788,409.529732242436 1302.3028391167193,397.5086884565778 1306.1514195583597,392.25385194544026 1310.0,400.6655298615288" fill="none" stroke="#2563eb" stroke-width="2.5"><title>narrow_cash_band_rebalance | end=2026-04-29 | return=568.34%</title></polyline>
<polyline points="90.0,710.0 93.84858044164038,707.7628880127161 97.69716088328076,709.7990421702729 101.54574132492114,707.8955743984341 105.39432176656152,703.3571153393681 109.24290220820188,703.0649854859923 113.09148264984228,702.6705273248338 116.94006309148266,701.8887913637436 120.78864353312304,702.6482732527196 124.6372239747634,700.1595588189475 128.48580441640377,699.4702954047041 132.33438485804416,701.1373910987688 136.18296529968455,701.5295443414706 140.03154574132492,701.7980941761031 143.8801261829653,700.5530938903971 147.72870662460568,701.5983793407581 151.57728706624607,699.4222113005449 155.42586750788644,692.9962815989394 159.2744479495268,687.2453813747275 163.1230283911672,688.3853204112951 166.97160883280756,686.8878114767534 170.82018927444796,688.665568549542 174.66876971608832,685.7470880308825 178.5173501577287,692.9642249524654 182.3659305993691,690.6941524283975 186.21451104100947,694.7338843398768 190.06309148264984,691.2998191795083 193.9116719242902,692.6182181788631 197.76025236593063,688.7202149789466 201.608832807571,684.9707376710048 205.45741324921136,684.18514827887 209.30599369085172,681.5039751935536 213.15457413249212,674.5902112253868 217.0031545741325,669.8712865935377 220.85173501577287,662.7661252996904 224.70031545741324,660.2585496594781 228.54889589905363,662.7091464341012 232.397476340694,654.5718243591712 236.2460567823344,654.4309279908807 240.09463722397476,637.0704327690895 243.94321766561512,601.7738517561367 247.79179810725552,604.8679031426822 251.6403785488959,596.1027949589334 255.48895899053628,608.1794460611267 259.33753943217664,581.4818711253652 263.186119873817,569.2357178255511 267.0347003154574,555.7072315215983 270.8832807570978,566.5475414816786 274.7318611987382,567.7246365701603 278.5804416403786,552.7109521022406 282.42902208201895,548.067719449451 286.2776025236593,564.1410559842781 290.1261829652997,544.7390762419569 293.97476340694004,546.4623452902819 297.8233438485804,522.5131338742834 301.67192429022083,535.5238296443813 305.52050473186125,521.5887785615807 309.36908517350156,496.7678851365521 313.217665615142,498.9066228899831 317.06624605678235,546.7347995537057 320.9148264984227,533.0542319541512 324.7634069400631,539.5089389370963 328.61198738170344,542.0178532142743 332.46056782334387,546.7589239154527 336.30914826498423,562.268959301205 340.1577287066246,552.9722891899353 344.006309148265,553.4666193182255 347.8548895899053,562.8633723466065 351.70347003154575,563.6849229236147 355.5520504731861,545.7535153695317 359.4006309148265,535.3442724089659 363.24921135646684,516.4559812336457 367.09779179810727,521.3925398817255 370.94637223974763,510.15241728975064 374.794952681388,494.72162859628384 378.6435331230284,506.50439897568634 382.4921135646688,500.8446650483244 386.34069400630915,520.2274094855362 390.1892744479495,528.6606605397258 394.03785488958994,491.617084274662 397.88643533123025,488.02228571541525 401.73501577287067,462.71905338252964 405.58359621451103,478.6309510116982 409.4321766561514,457.38265074260664 413.2807570977918,454.0913762129744 417.1293375394322,467.4622814498345 420.97791798107255,472.32032764183975 424.826498422713,465.71662855578666 428.6750788643533,478.24928535884374 432.52365930599365,489.2813138536029 436.37223974763407,490.52022779188235 440.22082018927443,500.948456383294 444.06940063091486,507.2764934289478 447.9179810725552,510.07305289807675 451.7665615141956,519.5091075372652 455.615141955836,539.9322381832889 459.4637223974764,535.1119368749138 463.3123028391167,511.650079856493 467.1608832807571,515.0944302327061 471.00946372239747,537.0732765901644 474.85804416403784,518.8086669864176 478.70662460567826,526.7295885059642 482.5552050473186,526.9453251194632 486.403785488959,518.2444101298186 490.2523659305994,503.8381378155623 494.1009463722397,514.947969394444 497.9495268138801,519.2715998487683 501.7981072555205,519.8703858621562 505.64668769716087,527.6037223482031 509.4952681388013,525.7620913541599 513.3438485804417,563.2981502416378 517.192429022082,567.6562382524987 521.0410094637225,565.6035880385854 524.8895899053628,568.1262134998831 528.7381703470031,568.0911408039177 532.5867507886435,594.4558466500591 536.435331230284,603.5081063764202 540.2839116719242,602.0299265708567 544.1324921135647,599.0482327103755 547.9810725552051,601.4562565628262 551.8296529968454,585.4451635632871 555.6782334384859,582.9018686825776 559.5268138801262,583.6194841025482 563.3753943217665,575.2146140686758 567.2239747634069,576.8886724201896 571.0725552050474,585.4194324494308 574.9211356466877,590.7274149368629 578.7697160883281,590.0506914427698 582.6182965299685,587.9995947900305 586.4668769716088,602.5422959913486 590.3154574132492,598.0738393845855 594.1640378548896,596.1415327382892 598.01261829653,599.8465813470375 601.8611987381703,600.1925277313078 605.7097791798107,588.4461101786794 609.5583596214511,591.1801806241489 613.4069400630915,612.6796136133102 617.2555205047319,607.5666982178165 621.1041009463722,608.6703922583814 624.9526813880126,603.946313710144 628.801261829653,606.6518242447544 632.6498422712934,602.1151579770939 636.4984227129337,607.2998171628021 640.3470031545742,608.736881945491 644.1955835962145,605.8452458244379 648.0441640378549,598.9289906211864 651.8927444794953,588.5690533264973 655.7413249211356,579.5911028996295 659.589905362776,577.0125960685357 663.4384858044165,578.5390300722845 667.2870662460568,574.4639326567857 671.1356466876971,575.9148838349317 674.9842271293376,576.4708573114196 678.8328075709779,585.82392636864 682.6813880126183,574.8783919104272 686.5299684542587,564.7019964691817 690.378548895899,560.2037532986401 694.2271293375394,556.503058594955 698.0757097791799,551.7989505322876 701.9242902208201,553.9905732429077 705.7728706624605,557.4520672202176 709.6214511041009,554.4539971840566 713.4700315457413,560.4143814767759 717.3186119873817,561.6399552529596 721.1671924290221,564.937351447331 725.0157728706624,560.2560533310507 728.8643533123028,563.6755628190899 732.7129337539433,572.5297396965254 736.5615141955836,553.259527360071 740.410094637224,555.185742153539 744.2586750788644,551.5279814852479 748.1072555205047,553.0729635141686 751.9558359621451,553.387246168137 755.8044164037856,555.0664003277865 759.652996845426,556.5840051249244 763.5015772870663,555.2661432847431 767.3501577287066,558.6818962561742 771.1987381703469,567.6817676266394 775.0473186119873,564.9825510315031 778.8958990536278,570.7649413450548 782.7444794952681,570.655473677575 786.5930599369085,568.2977058888202 790.4416403785489,570.7816231402784 794.2902208201892,566.0061015474619 798.1388012618297,570.8963811363902 801.9873817034701,567.9255348972899 805.8359621451104,546.3971843411032 809.6845425867508,542.195901895886 813.5331230283912,540.2625305336446 817.3817034700315,529.738036015563 821.230283911672,530.3976988584392 825.0788643533124,530.8507142851726 828.9274447949527,512.9782983081174 832.776025236593,513.5286264958926 836.6246056782334,514.1824925380731 840.4731861198737,508.31791858540333 844.3217665615142,515.0372793271229 848.1703470031546,496.01203485518124 852.0189274447949,504.5588282661157 855.8675078864353,518.2125108863194 859.7160883280757,512.469165378311 863.5646687697161,504.90975229299454 867.4132492113565,480.8703785015001 871.2618296529969,474.95573662301507 875.1104100946372,444.392095311249 878.9589905362776,425.7666300396642 882.807570977918,409.3782668185591 886.6561514195585,430.8882109811999 890.5047318611988,429.0545471976817 894.3533123028391,439.0440305253272 898.2018927444794,426.0421216608066 902.0504731861198,454.3731889342749 905.8990536277602,446.0044659675415 909.7476340694006,459.0146761235153 913.596214511041,454.88255331593086 917.4447949526814,446.14780444162204 921.2933753943217,422.1402634302667 925.1419558359621,423.5484464387999 928.9905362776026,415.6674856744753 932.839116719243,428.2347080716654 936.6876971608833,432.861328546728 940.5362776025237,443.9708715733824 944.384858044164,447.0973281202064 948.2334384858044,455.94485388623036 952.0820189274449,438.7289418266161 955.9305993690853,438.3871150015666 959.7791798107255,442.4204303908935 963.6277602523659,481.5387534365006 967.4763406940062,467.2310711872552 971.3249211356466,464.5126363254667 975.1735015772871,470.6007358888834 979.0220820189274,474.46620638706946 982.8706624605678,478.61501908011337 986.7192429022082,471.05488206738494 990.5678233438485,462.93698781002547 994.416403785489,473.1176909671304 998.2649842271294,473.0499302590472 1002.1135646687698,455.1425478760518 1005.9621451104101,459.30265295848153 1009.8107255520505,447.0006222890493 1013.6593059936909,440.5158196541671 1017.5078864353313,407.01595778716165 1021.3564668769717,405.9089542405678 1025.2050473186118,385.9027014633275 1029.0536277602523,376.9403972565732 1032.9022082018928,374.4333424128401 1036.750788643533,382.2006921430466 1040.5993690851735,387.2078957991601 1044.4479495268138,397.00145605291243 1048.2965299684543,397.1526687189337 1052.1451104100947,387.2194521216775 1055.993690851735,390.4979741410374 1059.8422712933755,394.494480357072 1063.6908517350157,412.6320259059186 1067.5394321766562,412.9180602060123 1071.3880126182967,415.00893414129314 1075.236593059937,441.10382744840274 1079.0851735015772,437.00871584383435 1082.9337539432177,455.5278725174119 1086.7823343848581,447.08021341046447 1090.6309148264984,448.6073366808557 1094.4794952681386,460.5704045659404 1098.3280757097791,464.6934263390334 1102.1766561514196,466.2729407907468 1106.02523659306,448.5808621370333 1109.8738170347003,448.2082483268386 1113.7223974763406,444.76350990649837 1117.570977917981,410.62589986461614 1121.4195583596213,406.7184846151517 1125.2681388012618,403.87625997914745 1129.1167192429023,409.32110965166873 1132.9652996845425,399.8551819519157 1136.813880126183,412.18149047504414 1140.6624605678232,413.6082849784111 1144.5110410094637,406.80894894031957 1148.3596214511042,397.42323424468134 1152.2082018927445,368.69716598289114 1156.056782334385,359.2273349447579 1159.9053627760252,353.60110433738214 1163.7539432176657,360.65666144690925 1167.602523659306,315.860028142841 1171.4511041009464,337.63014905436154 1175.2996845425869,335.2154844527395 1179.1482649842271,336.3451512881661 1182.9968454258674,337.18813302697066 1186.8454258675079,327.75168420774025 1190.6940063091483,343.3656314029588 1194.5425867507886,332.57190302543523 1198.391167192429,322.92544276453424 1202.2397476340693,350.7616181110259 1206.0883280757098,359.17894818100217 1209.93690851735,353.9211494847547 1213.7854889589905,374.0512953410555 1217.634069400631,376.5375349130227 1221.4826498422713,398.15371187795625 1225.3312302839117,399.04095436468924 1229.179810725552,391.1949552805759 1233.0283911671925,388.56870439318243 1236.876971608833,409.23214936162793 1240.7255520504732,404.4137360952667 1244.5741324921137,403.8666506846642 1248.422712933754,393.9604676438511 1252.2712933753942,382.3695873357861 1256.1198738170347,401.6813029762009 1259.9684542586751,401.0704486729703 1263.8170347003154,444.50784728239455 1267.6656151419559,457.0812583656943 1271.5141955835961,457.22773510906575 1275.3627760252366,452.3342487492941 1279.211356466877,445.1509621199987 1283.0599369085173,450.18848519573595 1286.9085173501578,444.2281680605093 1290.757097791798,445.31212644755027 1294.6056782334385,449.65937070782144 1298.4542586750788,444.7970473485121 1302.3028391167193,435.11562824078976 1306.1514195583597,430.9346127356062 1310.0,437.7265620262878" fill="none" stroke="#7c3aed" stroke-width="2.5"><title>drawdown_tilt_rebalance | end=2026-04-29 | return=500.25%</title></polyline>
<polyline points="90.0,710.0 93.84858044164038,707.7628880127161 97.69716088328076,709.7990421702729 101.54574132492114,707.8955743984341 105.39432176656152,703.3571153393681 109.24290220820188,703.0649854859923 113.09148264984228,702.6705273248338 116.94006309148266,701.8887913637436 120.78864353312304,702.6482732527196 124.6372239747634,700.1595588189475 128.48580441640377,699.4702954047041 132.33438485804416,701.1457669633331 136.18296529968455,701.5426951110173 140.03154574132492,701.812994041139 143.8801261829653,700.5558922215753 147.72870662460568,701.624354612428 151.57728706624607,699.4063788998394 155.42586750788644,692.3780075134117 159.2744479495268,686.2447657178333 163.1230283911672,687.5168920844766 166.97160883280756,685.871443342894 170.82018927444796,687.8950075219308 174.66876971608832,685.0366354437741 178.5173501577287,693.4851174710117 182.3659305993691,690.7568526397135 186.21451104100947,695.3148182119193 190.06309148264984,691.6071962882188 193.9116719242902,693.0028888512554 197.76025236593063,688.7620563632968 201.608832807571,684.4649561796026 205.45741324921136,683.4423277247583 209.30599369085172,680.2011249535914 213.15457413249212,672.0975217455948 217.0031545741325,665.5891384989634 220.85173501577287,656.9708526924276 224.70031545741324,653.7179745092255 228.54889589905363,657.1160200325994 232.397476340694,645.279420747811 236.2460567823344,643.5419428575746 240.09463722397476,617.3226788080229 243.94321766561512,566.1351558917247 247.79179810725552,569.6956146168179 251.6403785488959,559.9038316444246 255.48895899053628,581.2792461309862 259.33753943217664,538.4689181439903 263.186119873817,517.4348424153237 267.0347003154574,493.8936213661504 270.8832807570978,513.0278773247899 274.7318611987382,515.1020395781752 278.5804416403786,489.30660221146786 282.42902208201895,481.02094853363104 286.2776025236593,509.80087069794945 290.1261829652997,475.48832126201444 293.97476340694004,478.9240997197352 297.8233438485804,437.3089948337717 301.67192429022083,460.62736410270554 305.52050473186125,437.6182456552691 309.36908517350156,392.01157637892715 313.217665615142,393.42748113983265 317.06624605678235,486.9406924354389 320.9148264984227,462.55838407462863 324.7634069400631,473.9492290869148 328.61198738170344,478.00664416416936 332.46056782334387,484.9552237925535 336.30914826498423,508.9096660004467 340.1577287066246,494.906580598267 344.006309148265,495.9140344542849 347.8548895899053,509.57711437375366 351.70347003154575,510.9312355933015 355.5520504731861,483.3633385316556 359.4006309148265,468.73587561440496 363.24921135646684,440.48581148314804 367.09779179810727,447.67306836981874 370.94637223974763,430.6929387896988 374.794952681388,409.42884401226587 378.6435331230284,427.28682539038005 382.4921135646688,418.5917310750086 386.34069400630915,448.01598470190095 390.1892744479495,460.8055819164257 394.03785488958994,403.97969316958995 397.88643533123025,398.3283730063045 401.73501577287067,358.86590871338524 405.58359621451103,384.39882784232174 409.4321766561514,350.39494612391996 413.2807570977918,345.0661844613193 417.1293375394322,367.3996914488598 420.97791798107255,375.2072662198835 424.826498422713,364.4063490785081 428.6750788643533,384.30502644534744 432.52365930599365,402.15537717542566 436.37223974763407,404.14812966675004 440.22082018927443,420.90577027406 444.06940063091486,430.8991105782456 447.9179810725552,435.4692784564831 451.7665615141956,449.89458882261005 455.615141955836,480.55416582750433 459.4637223974764,473.45212822125575 463.3123028391167,438.1710174386568 467.1608832807571,443.17750294014814 471.00946372239747,475.4784376648977 474.85804416403784,448.47675248133714 478.70662460567826,459.9964557215747 482.5552050473186,460.45322225624983 486.403785488959,447.91355019165985 490.2523659305994,427.05004793327345 494.1009463722397,443.0950908834821 497.9495268138801,449.44422154136237 501.7981072555205,450.1699363954122 505.64668769716087,461.0197274257972 509.4952681388013,458.46582308133407 513.3438485804417,511.09996432735124 517.192429022082,516.9175315737868 521.0410094637225,513.9763100114338 524.8895899053628,517.192949932759 528.7381703470031,517.0305086827362 532.5867507886435,553.6915706172615 536.435331230284,566.2414210887406 540.2839116719242,564.2882896908156 544.1324921135647,560.3014134592994 547.9810725552051,563.5006438905577 551.8296529968454,542.0217380395152 555.6782334384859,538.8453524400579 559.5268138801262,539.8051359107999 563.3753943217665,528.7310426034968 567.2239747634069,531.0542007494199 571.0725552050474,542.5077905452958 574.9211356466877,549.6491074518987 578.7697160883281,549.0221135318328 582.6182965299685,546.1438566247516 586.4668769716088,565.0393622872086 590.3154574132492,559.1226266892401 594.1640378548896,556.4662040849288 598.01261829653,561.4194455730974 601.8611987381703,561.8621681680851 605.7097791798107,546.6854791122997 609.5583596214511,550.2848887326123 613.4069400630915,578.3457742445437 617.2555205047319,571.7656098577531 621.1041009463722,573.1516328917646 624.9526813880126,567.1309627505372 628.801261829653,570.5712619417537 632.6498422712934,564.6877233514324 636.4984227129337,571.3626707814124 640.3470031545742,573.2142085463073 644.1955835962145,569.5772548771242 648.0441640378549,560.7817836826591 651.8927444794953,547.3025820349453 655.7413249211356,535.6305712337359 659.589905362776,532.2860566813563 663.4384858044165,534.3753415676936 667.2870662460568,529.0154517263641 671.1356466876971,530.8154370004881 674.9842271293376,531.6590841647912 678.8328075709779,543.507282692901 682.6813880126183,529.5194559337688 686.5299684542587,516.3870954585194 690.378548895899,510.6824341102262 694.2271293375394,506.3807977171224 698.0757097791799,500.2109115133662 701.9242902208201,503.2103002191514 705.7728706624605,507.3587272919068 709.6214511041009,503.64713338071516 713.4700315457413,511.10622540537383 717.3186119873817,512.6911714263308 721.1671924290221,517.3549271734976 725.0157728706624,511.0737927714604 728.8643533123028,515.8770830514221 732.7129337539433,528.0010887620085 736.5615141955836,501.7121571658229 740.410094637224,504.19102163240177 744.2586750788644,499.13895063371456 748.1072555205047,501.2361282140947 751.9558359621451,502.0078677168983 755.8044164037856,504.62870360038585 759.652996845426,506.7448380088314 763.5015772870663,504.7270594044105 767.3501577287066,509.8277801848744 771.1987381703469,523.2510819474734 775.0473186119873,519.1088943933303 778.8958990536278,527.6327217723172 782.7444794952681,527.0525476842074 786.5930599369085,523.354168206493 790.4416403785489,527.0787753406942 794.2902208201892,519.9718507717058 798.1388012618297,526.7141342070458 801.9873817034701,521.7643359219176 805.8359621451104,490.0992909904581 809.6845425867508,484.1081533582012 813.5331230283912,481.54350992216854 817.3817034700315,465.84542260395324 821.230283911672,467.2684489281877 825.0788643533124,467.30864200350084 828.9274447949527,436.90744008294774 832.776025236593,438.7508985447755 836.6246056782334,438.6553846202129 840.4731861198737,431.0377767107308 844.3217665615142,441.205970615485 848.1703470031546,409.90461465669506 852.0189274447949,426.14760496944575 855.8675078864353,449.14685281988363 859.7160883280757,438.5199648483758 863.5646687697161,425.7206439058978 867.4132492113565,384.04832240645743 871.2618296529969,375.0441839340504 875.1104100946372,320.41733828204815 878.9589905362776,288.3220202437272 882.807570977918,257.56723426737847 886.6561514195585,297.1159254885962 890.5047318611988,293.0939448250602 894.3533123028391,312.3287675572982 898.2018927444794,287.2393992005985 902.0504731861198,341.8758120624197 905.8990536277602,325.5864123263047 909.7476340694006,351.9973736923016 913.596214511041,342.79585923272515 917.4447949526814,324.24819738089366 921.2933753943217,282.48138177856134 925.1419558359621,286.082890478744 928.9905362776026,270.3478981097889 932.839116719243,292.89669515768526 936.6876971608833,302.9696600906797 940.5362776025237,323.92905627895 944.384858044164,329.21855155621745 948.2334384858044,343.9695805208442 952.0820189274449,315.29760081680035 955.9305993690853,314.2767973740745 959.7791798107255,320.6882253978467 963.6277602523659,383.61830448423365 967.4763406940062,360.60917809434 971.3249211356466,355.53718185955125 975.1735015772871,365.53787908045945 979.0220820189274,371.77187145819937 982.8706624605678,378.240993070032 986.7192429022082,365.1721733171587 990.5678233438485,352.49214628012066 994.416403785489,368.6871169550167 998.2649842271294,368.60747745251217 1002.1135646687698,339.1501155690281 1005.9621451104101,345.816190363949 1009.8107255520505,324.4612952530004 1013.6593059936909,312.61871545971417 1017.5078864353313,251.766006656745 1021.3564668769717,246.80582155323702 1025.2050473186118,215.81927261287672 1029.0536277602523,199.8083344855587 1032.9022082018928,193.60372282847834 1036.750788643533,206.1243453121101 1040.5993690851735,214.338939081109 1044.4479495268138,234.21944791598287 1048.2965299684543,233.71418122610652 1052.1451104100947,213.09486100284556 1055.993690851735,214.37206280839052 1059.8422712933755,220.11516524603928 1063.6908517350157,254.55088268905104 1067.5394321766562,253.59538448453213 1071.3880126182967,257.99410484626935 1075.236593059937,309.6220799690111 1079.0851735015772,296.554979192729 1082.9337539432177,330.9572920832109 1086.7823343848581,315.2697926130998 1090.6309148264984,317.41923187300114 1094.4794952681386,339.50115765813035 1098.3280757097791,345.3219548550564 1102.1766561514196,346.33640341383585 1106.02523659306,312.8312138496578 1109.8738170347003,311.89763621912266 1113.7223974763406,304.2563682908992 1117.570977917981,249.3007287816215 1121.4195583596213,237.67345607217482 1125.2681388012618,235.6112772042257 1129.1167192429023,246.53818839936457 1132.9652996845425,229.03943030588397 1136.813880126183,249.96209294438142 1140.6624605678232,249.65970463663763 1144.5110410094637,238.62868141755496 1148.3596214511042,223.0869467173623 1152.2082018927445,176.13037601599171 1156.056782334385,162.71315870527906 1159.9053627760252,155.6066441668662 1163.7539432176657,168.14887665318167 1167.602523659306,95.25119390565317 1171.4511041009464,136.2967800640448 1175.2996845425869,134.05704199326112 1179.1482649842271,135.78188021062465 1182.9968454258674,136.23439754080118 1186.8454258675079,118.23454375226152 1190.6940063091483,147.83125694506657 1194.5425867507886,125.99594976125229 1198.391167192429,106.53506322028431 1202.2397476340693,162.18809758449515 1206.0883280757098,178.73788878799235 1209.93690851735,168.69990960422865 1213.7854889589905,206.27595068265293 1217.634069400631,211.27636706256345 1221.4826498422713,251.7160710664307 1225.3312302839117,253.55035334983074 1229.179810725552,239.2088791270054 1233.0283911671925,235.28683858017718 1236.876971608833,271.3901726903384 1240.7255520504732,262.96978921792254 1244.5741324921137,262.1184040674135 1248.422712933754,244.5157097682013 1252.2712933753942,223.52342492223636 1256.1198738170347,257.51104766107534 1259.9684542586751,256.6185502052391 1263.8170347003154,332.47432657522904 1267.6656151419559,354.92143519409285 1271.5141955835961,355.40256173042116 1275.3627760252366,347.0099124077341 1279.211356466877,333.7333124250319 1283.0599369085173,342.6930239738432 1286.9085173501578,332.8917441792816 1290.757097791798,334.56965930491464 1294.6056782334385,342.6969336595602 1298.4542586750788,333.8666955789278 1302.3028391167193,317.21073412408464 1306.1514195583597,309.3037531212529 1310.0,320.87946156600856" fill="none" stroke="#b45309" stroke-width="2.5"><title>btc_defensive_eth_aggressive | end=2026-04-29 | return=714.93%</title></polyline>
</svg>