<svg xmlns="http://www.w3.org/2000/svg" width="1400" height="800">
<rect width="1400" height="800" fill="#f8fafc"/>
<text x="700.0" y="42" text-anchor="middle" font-family="monospace" font-size="24" fill="#0f172a">static_50_50_rebalance | weekly | start=2025-04-01 | return=0.24%</text>
<line x1="90" y1="420" x2="1310" y2="420" stroke="#334155" stroke-width="2"/>
<line x1="90" y1="90" x2="90" y2="420" stroke="#334155" stroke-width="2"/>
<line x1="90.0" y1="420" x2="90.0" y2="90" stroke="#94a3b8" stroke-width="1.2"/>
<line x1="90.0" y1="605" x2="90.0" y2="480" stroke="#94a3b8" stroke-width="1.2"/>
<line x1="90.0" y1="770" x2="90.0" y2="645" stroke="#94a3b8" stroke-width="1.2"/>
<text x="90.0" y="788" text-anchor="middle" font-family="monospace" font-size="11" fill="#334155">2025-04</text>
<line x1="197.01754385964912" y1="420" x2="197.01754385964912" y2="90" stroke="#94a3b8" stroke-width="1.2"/>
<line x1="197.01754385964912" y1="605" x2="197.01754385964912" y2="480" stroke="#94a3b8" stroke-width="1.2"/>
<line x1="197.01754385964912" y1="770" x2="197.01754385964912" y2="645" stroke="#94a3b8" stroke-width="1.2"/>
<text x="197.01754385964912" y="788" text-anchor="middle" font-family="monospace" font-size="11" fill="#334155">2025-05</text>
<line x1="282.63157894736844" y1="420" x2="282.63157894736844" y2="90" stroke="#94a3b8" stroke-width="1.2"/>
<line x1="282.63157894736844" y1="605" x2="282.63157894736844" y2="480" stroke="#94a3b8" stroke-width="1.2"/>
<line x1="282.63157894736844" y1="770" x2="282.63157894736844" y2="645" stroke="#94a3b8" stroke-width="1.2"/>
<text x="282.63157894736844" y="788" text-anchor="middle" font-family="monospace" font-size="11" fill="#334155">2025-06</text>
<line x1="368.2456140350877" y1="420" x2="368.2456140350877" y2="90" stroke="#94a3b8" stroke-width="1.2"/>
<line x1="368.2456140350877" y1="605" x2="368.2456140350877" y2="480" stroke="#94a3b8" stroke-width="1.2"/>
<line x1="368.2456140350877" y1="770" x2="368.2456140350877" y2="645" stroke="#94a3b8" stroke-width="1.2"/>
<text x="368.2456140350877" y="788" text-anchor="middle" font-family="monospace" font-size="11" fill="#334155">2025-07</text>
<line x1="475.2631578947368" y1="420" x2="475.2631578947368" y2="90" stroke="#94a3b8" stroke-width="1.2"/>
<line x1="475.2631578947368" y1="605" x2="475.2631578947368" y2="480" stroke="#94a3b8" stroke-width="1.2"/>
<line x1="475.2631578947368" y1="770" x2="475.2631578947368" y2="645" stroke="#94a3b8" stroke-width="1.2"/>
<text x="475.2631578947368" y="788" text-anchor="middle" font-family="monospace" font-size="11" fill="#334155">2025-08</text>
<line x1="560.8771929824561" y1="420" x2="560.8771929824561" y2="90" stroke="#94a3b8" stroke-width="1.2"/>
<line x1="560.8771929824561" y1="605" x2="560.8771929824561" y2="480" stroke="#94a3b8" stroke-width="1.2"/>
<line x1="560.8771929824561" y1="770" x2="560.8771929824561" y2="645" stroke="#94a3b8" stroke-width="1.2"/>
<text x="560.8771929824561" y="788" text-anchor="middle" font-family="monospace" font-size="11" fill="#334155">2025-09</text>
<line x1="667.8947368421052" y1="420" x2="667.8947368421052" y2="90" stroke="#94a3b8" stroke-width="1.2"/>
<line x1="667.8947368421052" y1="605" x2="667.8947368421052" y2="480" stroke="#94a3b8" stroke-width="1.2"/>
<line x1="667.8947368421052" y1="770" x2="667.8947368421052" y2="645" stroke="#94a3b8" stroke-width="1.2"/>
<text x="667.8947368421052" y="788" text-anchor="middle" font-family="monospace" font-size="11" fill="#334155">2025-10</text>
<line x1="753.5087719298245" y1="420" x2="753.5087719298245" y2="90" stroke="#94a3b8" stroke-width="1.2"/>
<line x1="753.5087719298245" y1="605" x2="753.5087719298245" y2="480" stroke="#94a3b8" stroke-width="1.2"/>
<line x1="753.5087719298245" y1="770" x2="753.5087719298245" y2="645" stroke="#94a3b8" stroke-width="1.2"/>
<text x="753.5087719298245" y="788" text-anchor="middle" font-family="monospace" font-size="11" fill="#334155">2025-11</text>
<line x1="839.1228070175439" y1="420" x2="839.1228070175439" y2="90" stroke="#94a3b8" stroke-width="1.2"/>
<line x1="839.1228070175439" y1="605" x2="839.1228070175439" y2="480" stroke="#94a3b8" stroke-width="1.2"/>
<line x1="839.1228070175439" y1="770" x2="839.1228070175439" y2="645" stroke="#94a3b8" stroke-width="1.2"/>
<text x="839.1228070175439" y="788" text-anchor="middle" font-family="monospace" font-size="11" fill="#334155">2025-12</text>
<line x1="946.140350877193" y1="420" x2="946.140350877193" y2="90" stroke="#94a3b8" stroke-width="1.2"/>
<line x1="946.140350877193" y1="605" x2="946.140350877193" y2="480" stroke="#94a3b8" stroke-width="1.2"/>
<line x1="946.140350877193" y1="770" x2="946.140350877193" y2="645" stroke="#94a3b8" stroke-width="1.2"/>
<text x="946.140350877193" y="788" text-anchor="middle" font-family="monospace" font-size="11" fill="#334155">2026-01</text>
<line x1="1031.7543859649122" y1="420" x2="1031.7543859649122" y2="90" stroke="#94a3b8" stroke-width="1.2"/>
<line x1="1031.7543859649122" y1="605" x2="1031.7543859649122" y2="480" stroke="#94a3b8" stroke-width="1.2"/>
<line x1="1031.7543859649122" y1="770" x2="1031.7543859649122" y2="645" stroke="#94a3b8" stroke-width="1.2"/>
<text x="1031.7543859649122" y="788" text-anchor="middle" font-family="monospace" font-size="11" fill="#334155">2026-02</text>
<line x1="1117.3684210526314" y1="420" x2="1117.3684210526314" y2="90" stroke="#94a3b8" stroke-width="1.2"/>
<line x1="1117.3684210526314" y1="605" x2="1117.3684210526314" y2="480" stroke="#94a3b8" stroke-width="1.2"/>
<line x1="1117.3684210526314" y1="770" x2="1117.3684210526314" y2="645" stroke="#94a3b8" stroke-width="1.2"/>
<text x="1117.3684210526314" y="788" text-anchor="middle" font-family="monospace" font-size="11" fill="#334155">2026-03</text>
<line x1="1224.3859649122808" y1="420" x2="1224.3859649122808" y2="90" stroke="#94a3b8" stroke-width="1.2"/>
<line x1="1224.3859649122808" y1="605" x2="1224.3859649122808" y2="480" stroke="#94a3b8" stroke-width="1.2"/>
<line x1="1224.3859649122808" y1="770" x2="1224.3859649122808" y2="645" stroke="#94a3b8" stroke-width="1.2"/>
<text x="1224.3859649122808" y="788" text-anchor="middle" font-family="monospace" font-size="11" fill="#334155">2026-04</text>
<line x1="1310.0" y1="420" x2="1310.0" y2="90" stroke="#94a3b8" stroke-width="1.2"/>
<line x1="1310.0" y1="605" x2="1310.0" y2="480" stroke="#94a3b8" stroke-width="1.2"/>
<line x1="1310.0" y1="770" x2="1310.0" y2="645" stroke="#94a3b8" stroke-width="1.2"/>
<text x="1310.0" y="788" text-anchor="middle" font-family="monospace" font-size="11" fill="#334155">2026-05</text>
<line x1="90" y1="420.0" x2="1310" y2="420.0" stroke="#cbd5e1" stroke-width="1"/>
<text x="78" y="424.0" text-anchor="end" font-family="monospace" font-size="12" fill="#475569">0</text>
<line x1="90" y1="354.0" x2="1310" y2="354.0" stroke="#cbd5e1" stroke-width="1"/>
<text x="78" y="358.0" text-anchor="end" font-family="monospace" font-size="12" fill="#475569">17350</text>
<line x1="90" y1="288.0" x2="1310" y2="288.0" stroke="#cbd5e1" stroke-width="1"/>
<text x="78" y="292.0" text-anchor="end" font-family="monospace" font-size="12" fill="#475569">34700</text>
<line x1="90" y1="221.99999999999997" x2="1310" y2="221.99999999999997" stroke="#cbd5e1" stroke-width="1"/>
<text x="78" y="225.99999999999997" text-anchor="end" font-family="monospace" font-size="12" fill="#475569">52050</text>
<line x1="90" y1="156.0" x2="1310" y2="156.0" stroke="#cbd5e1" stroke-width="1"/>
<text x="78" y="160.0" text-anchor="end" font-family="monospace" font-size="12" fill="#475569">69399</text>
<line x1="90" y1="90.0" x2="1310" y2="90.0" stroke="#cbd5e1" stroke-width="1"/>
<text x="78" y="94.0" text-anchor="end" font-family="monospace" font-size="12" fill="#475569">86749</text>
<polygon points="90.0,348.596045302839 111.40350877192982,334.4684847200639 132.80701754385964,325.13757779139075 154.21052631578948,317.77852289582876 175.6140350877193,314.19153047974197 197.01754385964912,311.83630080730023 218.42105263157893,312.0725510790356 239.82456140350877,310.88339202508683 261.2280701754386,310.3971361048666 282.63157894736844,311.14840105263244 304.03508771929825,311.1483077534202 325.43859649122805,311.8009521050865 346.84210526315786,311.5824762437784 368.2456140350877,311.60420918381465 389.64912280701753,311.72560780906406 411.05263157894734,311.55497420572374 432.45614035087715,312.3157875894924 453.859649122807,313.076600973261 475.2631578947368,313.8374143570297 496.66666666666663,314.5982277407983 518.0701754385965,315.35904112456694 539.4736842105262,316.11985450833555 560.8771929824561,316.8806678921042 582.280701754386,317.6414812758728 603.6842105263157,318.4022946596415 625.0877192982456,319.16310804341015 646.4912280701755,319.9239214271788 667.8947368421052,320.6847348109474 689.2982456140351,321.445548194716 710.7017543859649,322.2063615784847 732.1052631578947,322.96717496225335 753.5087719298245,323.727988346022 774.9122807017543,324.4888017297906 796.3157894736843,325.2496151135593 817.719298245614,326.0104284973279 839.1228070175439,326.77124188109656 860.5263157894736,327.5320552648652 881.9298245614035,328.2928686486338 903.3333333333333,329.0536820324025 924.7368421052632,329.8144954161711 946.140350877193,330.57530879993976 967.5438596491229,331.3361221837084 988.9473684210526,332.09693556747703 1010.3508771929825,332.8577489512457 1031.7543859649122,333.6185623350143 1053.157894736842,334.37937571878297 1074.561403508772,335.14018910255163 1095.9649122807018,335.90100248632024 1117.3684210526314,336.6618158700889 1138.7719298245613,337.4226292538575 1160.1754385964912,338.1834426376262 1181.578947368421,338.94425602139484 1202.982456140351,339.7050694051635 1224.3859649122808,340.4658827889321 1245.7894736842104,341.22669617270077 1267.1929824561403,341.9875095564694 1288.5964912280701,342.74832294023804 1310.0,342.67573674172 1310.0,420.0 1288.5964912280701,420.0 1267.1929824561403,420.0 1245.7894736842104,420.0 1224.3859649122808,420.0 1202.982456140351,420.0 1181.578947368421,420.0 1160.1754385964912,420.0 1138.7719298245613,420.0 1117.3684210526314,420.0 1095.9649122807018,420.0 1074.561403508772,420.0 1053.157894736842,420.0 1031.7543859649122,420.0 1010.3508771929825,420.0 988.9473684210526,420.0 967.5438596491229,420.0 946.140350877193,420.0 924.7368421052632,420.0 903.3333333333333,420.0 881.9298245614035,420.0 860.5263157894736,420.0 839.1228070175439,420.0 817.719298245614,420.0 796.3157894736843,420.0 774.9122807017543,420.0 753.5087719298245,420.0 732.1052631578947,420.0 710.7017543859649,420.0 689.2982456140351,420.0 667.8947368421052,420.0 646.4912280701755,420.0 625.0877192982456,420.0 603.6842105263157,420.0 582.280701754386,420.0 560.8771929824561,420.0 539.4736842105262,420.0 518.0701754385965,420.0 496.66666666666663,420.0 475.2631578947368,420.0 453.859649122807,420.0 432.45614035087715,420.0 411.05263157894734,420.0 389.64912280701753,420.0 368.2456140350877,420.0 346.84210526315786,420.0 325.43859649122805,420.0 304.03508771929825,420.0 282.63157894736844,420.0 261.2280701754386,420.0 239.82456140350877,420.0 218.42105263157893,420.0 197.01754385964912,420.0 175.6140350877193,420.0 154.21052631578948,420.0 132.80701754385964,420.0 111.40350877192982,420.0 90.0,420.0" fill="#facc15" fill-opacity="0.70" stroke="#facc15" stroke-width="1.2"/>
<polygon points="90.0,311.9794285654759 111.40350877192982,305.79737721490477 132.80701754385964,293.81292865280614 154.21052631578948,282.753760946307 175.6140350877193,277.96486471827905 197.01754385964912,274.8494770181227 218.42105263157893,257.14235002915467 239.82456140350877,258.746375275662 261.2280701754386,255.05115484311673 282.63157894736844,256.81520561464407 304.03508771929825,251.79769842376518 325.43859649122805,258.51389714621655 346.84210526315786,259.2060694992846 368.2456140350877,259.7998417631301 389.64912280701753,254.99213231819678 411.05263157894734,243.1337295209724 432.45614035087715,230.2003812481001 453.859649122807,229.59985951940098 475.2631578947368,233.9815779365332 496.66666666666663,212.7304605741874 518.0701754385965,224.51835801658507 539.4736842105262,213.1812038459286 560.8771929824561,219.71492427763354 582.280701754386,220.46903068401338 603.6842105263157,216.50321056929232 625.0877192982456,224.52169216541935 646.4912280701755,225.3383611130129 667.8947368421052,218.7877238132217 689.2982456140351,226.57397173994227 710.7017543859649,232.74407848025663 732.1052631578947,230.68437592703228 753.5087719298245,247.15622256424788 774.9122807017543,244.49981839062494 796.3157894736843,251.78216455589055 817.719298245614,256.01204970777405 839.1228070175439,255.48073140252788 860.5263157894736,248.2046700153844 881.9298245614035,257.10887302500475 903.3333333333333,257.4678905839822 924.7368421052632,257.66539755388783 946.140350877193,250.14768810331464 967.5438596491229,249.8498904132342 988.9473684210526,259.7162401352147 1010.3508771929825,257.9914075296805 1031.7543859649122,277.97910517042476 1053.157894736842,283.56729201377937 1074.561403508772,284.7238125621567 1095.9649122807018,288.62151130695133 1117.3684210526314,285.6593130655685 1138.7719298245613,284.6525562135756 1160.1754385964912,277.7467651240781 1181.578947368421,282.36315970034104 1202.982456140351,284.10719716746644 1224.3859649122808,280.8913086927641 1245.7894736842104,279.0400096201336 1267.1929824561403,279.3021224918946 1288.5964912280701,280.724862230716 1310.0,278.3425853102759 1310.0,342.67573674172 1288.5964912280701,342.74832294023804 1267.1929824561403,341.9875095564694 1245.7894736842104,341.22669617270077 1224.3859649122808,340.4658827889321 1202.982456140351,339.7050694051635 1181.578947368421,338.94425602139484 1160.1754385964912,338.1834426376262 1138.7719298245613,337.4226292538575 1117.3684210526314,336.6618158700889 1095.9649122807018,335.90100248632024 1074.561403508772,335.14018910255163 1053.157894736842,334.37937571878297 1031.7543859649122,333.6185623350143 1010.3508771929825,332.8577489512457 988.9473684210526,332.09693556747703 967.5438596491229,331.3361221837084 946.140350877193,330.57530879993976 924.7368421052632,329.8144954161711 903.3333333333333,329.0536820324025 881.9298245614035,328.2928686486338 860.5263157894736,327.5320552648652 839.1228070175439,326.77124188109656 817.719298245614,326.0104284973279 796.3157894736843,325.2496151135593 774.9122807017543,324.4888017297906 753.5087719298245,323.727988346022 732.1052631578947,322.96717496225335 710.7017543859649,322.2063615784847 689.2982456140351,321.445548194716 667.8947368421052,320.6847348109474 646.4912280701755,319.9239214271788 625.0877192982456,319.16310804341015 603.6842105263157,318.4022946596415 582.280701754386,317.6414812758728 560.8771929824561,316.8806678921042 539.4736842105262,316.11985450833555 518.0701754385965,315.35904112456694 496.66666666666663,314.5982277407983 475.2631578947368,313.8374143570297 453.859649122807,313.076600973261 432.45614035087715,312.3157875894924 411.05263157894734,311.55497420572374 389.64912280701753,311.72560780906406 368.2456140350877,311.60420918381465 346.84210526315786,311.5824762437784 325.43859649122805,311.8009521050865 304.03508771929825,311.1483077534202 282.63157894736844,311.14840105263244 261.2280701754386,310.3971361048666 239.82456140350877,310.88339202508683 218.42105263157893,312.0725510790356 197.01754385964912,311.83630080730023 175.6140350877193,314.19153047974197 154.21052631578948,317.77852289582876 132.80701754385964,325.13757779139075 111.40350877192982,334.4684847200639 90.0,348.596045302839" fill="#2563eb" fill-opacity="0.70" stroke="#2563eb" stroke-width="1.2"/>
<polygon points="90.0,183.72622727477113 111.40350877192982,205.4823499004089 132.80701754385964,193.50269172041448 154.21052631578948,178.35716559810118 175.6140350877193,176.66244268384654 197.01754385964912,173.5230677563277 218.42105263157893,148.33032268167614 239.82456140350877,148.6280158830482 261.2280701754386,143.64082038502028 282.63157894736844,148.6434397842093 304.03508771929825,139.0286640544477 325.43859649122805,151.31022467666412 346.84210526315786,151.01197824348674 368.2456140350877,152.40194668547002 389.64912280701753,144.5552070859365 411.05263157894734,124.30448204291292 432.45614035087715,108.72598090758345 453.859649122807,109.86333248022737 475.2631578947368,117.74349664380117 496.66666666666663,90.00000000000006 518.0701754385965,108.82261143154335 539.4736842105262,98.20010687550388 560.8771929824561,104.90891705041463 582.280701754386,104.97159766237087 603.6842105263157,95.1551388719464 625.0877192982456,107.79467430267096 646.4912280701755,106.09422247553914 667.8947368421052,91.50447140320591 689.2982456140351,107.64018752392542 710.7017543859649,118.37974320258542 732.1052631578947,111.14344027878519 753.5087719298245,139.34559058028242 774.9122807017543,134.67124373906563 796.3157894736843,152.33635548723828 817.719298245614,162.1681899497238 839.1228070175439,156.97608929422574 860.5263157894736,147.82875058373043 881.9298245614035,161.58954056434584 903.3333333333333,162.02989592440753 924.7368421052632,160.79012926500445 946.140350877193,147.05685562649956 967.5438596491229,144.55026916481194 988.9473684210526,161.84516090531315 1010.3508771929825,158.84626531467694 1031.7543859649122,193.42314776126884 1053.157894736842,206.29494863132135 1074.561403508772,208.57257090321352 1095.9649122807018,215.92568262888838 1117.3684210526314,207.74073077919277 1138.7719298245613,204.50087981186272 1160.1754385964912,192.66263408002922 1181.578947368421,200.81209029061094 1202.982456140351,204.84844737062315 1224.3859649122808,196.96710262222086 1245.7894736842104,192.0875027383587 1267.1929824561403,189.42607892113256 1288.5964912280701,190.5044219131509 1310.0,183.1493206997893 1310.0,278.3425853102759 1288.5964912280701,280.724862230716 1267.1929824561403,279.3021224918946 1245.7894736842104,279.0400096201336 1224.3859649122808,280.8913086927641 1202.982456140351,284.10719716746644 1181.578947368421,282.36315970034104 1160.1754385964912,277.7467651240781 1138.7719298245613,284.6525562135756 1117.3684210526314,285.6593130655685 1095.9649122807018,288.62151130695133 1074.561403508772,284.7238125621567 1053.157894736842,283.56729201377937 1031.7543859649122,277.97910517042476 1010.3508771929825,257.9914075296805 988.9473684210526,259.7162401352147 967.5438596491229,249.8498904132342 946.140350877193,250.14768810331464 924.7368421052632,257.66539755388783 903.3333333333333,257.4678905839822 881.9298245614035,257.10887302500475 860.5263157894736,248.2046700153844 839.1228070175439,255.48073140252788 817.719298245614,256.01204970777405 796.3157894736843,251.78216455589055 774.9122807017543,244.49981839062494 753.5087719298245,247.15622256424788 732.1052631578947,230.68437592703228 710.7017543859649,232.74407848025663 689.2982456140351,226.57397173994227 667.8947368421052,218.7877238132217 646.4912280701755,225.3383611130129 625.0877192982456,224.52169216541935 603.6842105263157,216.50321056929232 582.280701754386,220.46903068401338 560.8771929824561,219.71492427763354 539.4736842105262,213.1812038459286 518.0701754385965,224.51835801658507 496.66666666666663,212.7304605741874 475.2631578947368,233.9815779365332 453.859649122807,229.59985951940098 432.45614035087715,230.2003812481001 411.05263157894734,243.1337295209724 389.64912280701753,254.99213231819678 368.2456140350877,259.7998417631301 346.84210526315786,259.2060694992846 325.43859649122805,258.51389714621655 304.03508771929825,251.79769842376518 282.63157894736844,256.81520561464407 261.2280701754386,255.05115484311673 239.82456140350877,258.746375275662 218.42105263157893,257.14235002915467 197.01754385964912,274.8494770181227 175.6140350877193,277.96486471827905 154.21052631578948,282.753760946307 132.80701754385964,293.81292865280614 111.40350877192982,305.79737721490477 90.0,311.9794285654759" fill="#f97316" fill-opacity="0.70" stroke="#f97316" stroke-width="1.2"/>
<rect x="1100" y="76" width="16" height="12" fill="#f97316" fill-opacity="0.70" stroke="#f97316"/>
<text x="1124" y="86" font-family="monospace" font-size="12" fill="#0f172a">BTC</text>
<rect x="1100" y="98" width="16" height="12" fill="#2563eb" fill-opacity="0.70" stroke="#2563eb"/>
<text x="1124" y="108" font-family="monospace" font-size="12" fill="#0f172a">ETH</text>
<rect x="1100" y="120" width="16" height="12" fill="#facc15" fill-opacity="0.70" stroke="#facc15"/>
<text x="1124" y="130" font-family="monospace" font-size="12" fill="#0f172a">DAI</text>
<text x="700.0" y="782" text-anchor="middle" font-family="monospace" font-size="16" fill="#0f172a">time</text>
<text x="24" y="255.0" transform="rotate(-90 24,255.0)" text-anchor="middle" font-family="monospace" font-size="16" fill="#0f172a">asset value split (usd)</text>
<line x1="90" y1="605" x2="1310" y2="605" stroke="#334155" stroke-width="2"/>
<line x1="90" y1="480" x2="90" y2="605" stroke="#334155" stroke-width="2"/>
<line x1="90" y1="542.5" x2="1310" y2="542.5" stroke="#64748b" stroke-width="1.5" stroke-dasharray="6 4"/>
<line x1="90" y1="605.0" x2="1310" y2="605.0" stroke="#e2e8f0" stroke-width="1"/>
<text x="78" y="609.0" text-anchor="end" font-family="monospace" font-size="11" fill="#475569">-8870</text>
<line x1="90" y1="542.5" x2="1310" y2="542.5" stroke="#e2e8f0" stroke-width="1"/>
<text x="78" y="546.5" text-anchor="end" font-family="monospace" font-size="11" fill="#475569">0</text>
<line x1="90" y1="480.0" x2="1310" y2="480.0" stroke="#e2e8f0" stroke-width="1"/>
<text x="78" y="484.0" text-anchor="end" font-family="monospace" font-size="11" fill="#475569">8870</text>
<rect x="84.2155172413793" y="542.5" width="11.56896551724138" height="62.5" fill="#dc2626" opacity="0.85"><title>2025-04-01 | BTC sell 8870.43 usd | reason=static_target_rebalance</title></rect>
<rect x="105.61902601330914" y="542.5" width="11.56896551724138" height="26.87162831131252" fill="#dc2626" opacity="0.85"><title>2025-04-08 | BTC sell 3813.80 usd | reason=static_target_rebalance</title></rect>
<rect x="127.02253478523895" y="542.5" width="11.56896551724138" height="17.987275893709466" fill="#dc2626" opacity="0.85"><title>2025-04-15 | BTC sell 2552.88 usd | reason=static_target_rebalance</title></rect>
<rect x="148.42604355716878" y="542.5" width="11.56896551724138" height="14.33501545532124" fill="#dc2626" opacity="0.85"><title>2025-04-22 | BTC sell 2034.52 usd | reason=static_target_rebalance</title></rect>
<rect x="169.8295523290986" y="542.5" width="11.56896551724138" height="7.348408786270625" fill="#dc2626" opacity="0.85"><title>2025-04-29 | BTC sell 1042.94 usd | reason=static_target_rebalance</title></rect>
<rect x="191.23306110102843" y="542.5" width="11.56896551724138" height="5.066940267054406" fill="#dc2626" opacity="0.85"><title>2025-05-06 | BTC sell 719.13 usd | reason=static_target_rebalance</title></rect>
<rect x="212.63656987295823" y="542.5" width="11.56896551724138" height="1.5" fill="#dc2626" opacity="0.85"><title>2025-05-13 | BTC sell 37.90 usd | reason=static_target_rebalance</title></rect>
<rect x="234.04007864488807" y="542.5" width="11.56896551724138" height="2.9071465722053063" fill="#dc2626" opacity="0.85"><title>2025-05-20 | BTC sell 412.60 usd | reason=static_target_rebalance</title></rect>
<rect x="255.44358741681788" y="542.5" width="11.56896551724138" height="1.6052307771924461" fill="#dc2626" opacity="0.85"><title>2025-05-27 | BTC sell 227.83 usd | reason=static_target_rebalance</title></rect>
<rect x="276.84709618874774" y="541.8130970714528" width="11.56896551724138" height="1.5" fill="#ea580c" opacity="0.85"><title>2025-06-03 | BTC buy 97.49 usd | reason=static_target_rebalance</title></rect>
<rect x="298.25060496067755" y="542.5" width="11.56896551724138" height="1.5" fill="#dc2626" opacity="0.85"><title>2025-06-10 | BTC sell 100.02 usd | reason=static_target_rebalance</title></rect>
<rect x="319.65411373260736" y="541.9957619446261" width="11.56896551724138" height="1.5" fill="#ea580c" opacity="0.85"><title>2025-06-17 | BTC buy 71.56 usd | reason=static_target_rebalance</title></rect>
<rect x="341.05762250453716" y="542.5" width="11.56896551724138" height="1.5" fill="#dc2626" opacity="0.85"><title>2025-06-24 | BTC sell 157.43 usd | reason=static_target_rebalance</title></rect>
<rect x="362.46113127646703" y="542.5" width="11.56896551724138" height="1.5" fill="#dc2626" opacity="0.85"><title>2025-07-01 | BTC sell 94.29 usd | reason=static_target_rebalance</title></rect>
<rect x="383.86464004839684" y="542.5" width="11.56896551724138" height="1.5" fill="#dc2626" opacity="0.85"><title>2025-07-08 | BTC sell 68.09 usd | reason=static_target_rebalance</title></rect>
<rect x="405.26814882032664" y="542.5" width="11.56896551724138" height="1.5" fill="#dc2626" opacity="0.85"><title>2025-07-15 | BTC sell 144.86 usd | reason=static_target_rebalance</title></rect>
<rect x="426.67165759225645" y="541.7954114771608" width="11.56896551724138" height="1.5" fill="#ea580c" opacity="0.85"><title>2025-07-22 | BTC buy 100.00 usd | reason=static_target_rebalance</title></rect>
<rect x="448.0751663641863" y="541.7954114771608" width="11.56896551724138" height="1.5" fill="#ea580c" opacity="0.85"><title>2025-07-29 | BTC buy 100.00 usd | reason=static_target_rebalance</title></rect>
<rect x="469.4786751361161" y="541.7954114771608" width="11.56896551724138" height="1.5" fill="#ea580c" opacity="0.85"><title>2025-08-05 | BTC buy 100.00 usd | reason=static_target_rebalance</title></rect>
<rect x="490.88218390804593" y="541.7954114771608" width="11.56896551724138" height="1.5" fill="#ea580c" opacity="0.85"><title>2025-08-12 | BTC buy 100.00 usd | reason=static_target_rebalance</title></rect>
<rect x="512.2856926799758" y="541.7954114771608" width="11.56896551724138" height="1.5" fill="#ea580c" opacity="0.85"><title>2025-08-19 | BTC buy 100.00 usd | reason=static_target_rebalance</title></rect>
<rect x="533.6892014519055" y="541.7954114771608" width="11.56896551724138" height="1.5" fill="#ea580c" opacity="0.85"><title>2025-08-26 | BTC buy 100.00 usd | reason=static_target_rebalance</title></rect>
<rect x="555.0927102238354" y="541.7954114771608" width="11.56896551724138" height="1.5" fill="#ea580c" opacity="0.85"><title>2025-09-02 | BTC buy 100.00 usd | reason=static_target_rebalance</title></rect>
<rect x="576.4962189957653" y="541.7954114771608" width="11.56896551724138" height="1.5" fill="#ea580c" opacity="0.85"><title>2025-09-09 | BTC buy 100.00 usd | reason=static_target_rebalance</title></rect>
<rect x="597.899727767695" y="541.7954114771608" width="11.56896551724138" height="1.5" fill="#ea580c" opacity="0.85"><title>2025-09-16 | BTC buy 100.00 usd | reason=static_target_rebalance</title></rect>
<rect x="619.3032365396249" y="541.7954114771608" width="11.56896551724138" height="1.5" fill="#ea580c" opacity="0.85"><title>2025-09-23 | BTC buy 100.00 usd | reason=static_target_rebalance</title></rect>
<rect x="640.7067453115548" y="541.7954114771608" width="11.56896551724138" height="1.5" fill="#ea580c" opacity="0.85"><title>2025-09-30 | BTC buy 100.00 usd | reason=static_target_rebalance</title></rect>
<rect x="662.1102540834845" y="541.7954114771608" width="11.56896551724138" height="1.5" fill="#ea580c" opacity="0.85"><title>2025-10-07 | BTC buy 100.00 usd | reason=static_target_rebalance</title></rect>
<rect x="683.5137628554144" y="541.7954114771608" width="11.56896551724138" height="1.5" fill="#ea580c" opacity="0.85"><title>2025-10-14 | BTC buy 100.00 usd | reason=static_target_rebalance</title></rect>
<rect x="704.9172716273442" y="541.7954114771608" width="11.56896551724138" height="1.5" fill="#ea580c" opacity="0.85"><title>2025-10-21 | BTC buy 100.00 usd | reason=static_target_rebalance</title></rect>
<rect x="726.320780399274" y="541.7954114771608" width="11.56896551724138" height="1.5" fill="#ea580c" opacity="0.85"><title>2025-10-28 | BTC buy 100.00 usd | reason=static_target_rebalance</title></rect>
<rect x="747.7242891712038" y="541.7954114771608" width="11.56896551724138" height="1.5" fill="#ea580c" opacity="0.85"><title>2025-11-04 | BTC buy 100.00 usd | reason=static_target_rebalance</title></rect>
<rect x="769.1277979431336" y="541.7954114771608" width="11.56896551724138" height="1.5" fill="#ea580c" opacity="0.85"><title>2025-11-11 | BTC buy 100.00 usd | reason=static_target_rebalance</title></rect>
<rect x="790.5313067150636" y="541.7954114771608" width="11.56896551724138" height="1.5" fill="#ea580c" opacity="0.85"><title>2025-11-18 | BTC buy 100.00 usd | reason=static_target_rebalance</title></rect>
<rect x="811.9348154869933" y="541.7954114771608" width="11.56896551724138" height="1.5" fill="#ea580c" opacity="0.85"><title>2025-11-25 | BTC buy 100.00 usd | reason=static_target_rebalance</title></rect>
<rect x="833.3383242589232" y="541.7954114771608" width="11.56896551724138" height="1.5" fill="#ea580c" opacity="0.85"><title>2025-12-02 | BTC buy 100.00 usd | reason=static_target_rebalance</title></rect>
<rect x="854.741833030853" y="541.7954114771608" width="11.56896551724138" height="1.5" fill="#ea580c" opacity="0.85"><title>2025-12-09 | BTC buy 100.00 usd | reason=static_target_rebalance</title></rect>
<rect x="876.1453418027828" y="541.7954114771608" width="11.56896551724138" height="1.5" fill="#ea580c" opacity="0.85"><title>2025-12-16 | BTC buy 100.00 usd | reason=static_target_rebalance</title></rect>
<rect x="897.5488505747126" y="541.7954114771608" width="11.56896551724138" height="1.5" fill="#ea580c" opacity="0.85"><title>2025-12-23 | BTC buy 100.00 usd | reason=static_target_rebalance</title></rect>
<rect x="918.9523593466425" y="541.7954114771608" width="11.56896551724138" height="1.5" fill="#ea580c" opacity="0.85"><title>2025-12-30 | BTC buy 100.00 usd | reason=static_target_rebalance</title></rect>
<rect x="940.3558681185723" y="541.7954114771608" width="11.56896551724138" height="1.5" fill="#ea580c" opacity="0.85"><title>2026-01-06 | BTC buy 100.00 usd | reason=static_target_rebalance</title></rect>
<rect x="961.7593768905022" y="541.7954114771608" width="11.56896551724138" height="1.5" fill="#ea580c" opacity="0.85"><title>2026-01-13 | BTC buy 100.00 usd | reason=static_target_rebalance</title></rect>
<rect x="983.1628856624319" y="541.7954114771608" width="11.56896551724138" height="1.5" fill="#ea580c" opacity="0.85"><title>2026-01-20 | BTC buy 100.00 usd | reason=static_target_rebalance</title></rect>
<rect x="1004.5663944343618" y="541.7954114771608" width="11.56896551724138" height="1.5" fill="#ea580c" opacity="0.85"><title>2026-01-27 | BTC buy 100.00 usd | reason=static_target_rebalance</title></rect>
<rect x="1025.9699032062915" y="541.7954114771608" width="11.56896551724138" height="1.5" fill="#ea580c" opacity="0.85"><title>2026-02-03 | BTC buy 100.00 usd | reason=static_target_rebalance</title></rect>
<rect x="1047.3734119782214" y="541.7954114771608" width="11.56896551724138" height="1.5" fill="#ea580c" opacity="0.85"><title>2026-02-10 | BTC buy 100.00 usd | reason=static_target_rebalance</title></rect>
<rect x="1068.7769207501512" y="541.7954114771608" width="11.56896551724138" height="1.5" fill="#ea580c" opacity="0.85"><title>2026-02-17 | BTC buy 100.00 usd | reason=static_target_rebalance</title></rect>
<rect x="1090.180429522081" y="541.7954114771608" width="11.56896551724138" height="1.5" fill="#ea580c" opacity="0.85"><title>2026-02-24 | BTC buy 100.00 usd | reason=static_target_rebalance</title></rect>
<rect x="1111.5839382940107" y="541.7954114771608" width="11.56896551724138" height="1.5" fill="#ea580c" opacity="0.85"><title>2026-03-03 | BTC buy 100.00 usd | reason=static_target_rebalance</title></rect>
<rect x="1132.9874470659406" y="541.7954114771608" width="11.56896551724138" height="1.5" fill="#ea580c" opacity="0.85"><title>2026-03-10 | BTC buy 100.00 usd | reason=static_target_rebalance</title></rect>
<rect x="1154.3909558378705" y="541.7954114771608" width="11.56896551724138" height="1.5" fill="#ea580c" opacity="0.85"><title>2026-03-17 | BTC buy 100.00 usd | reason=static_target_rebalance</title></rect>
<rect x="1175.7944646098003" y="541.7954114771608" width="11.56896551724138" height="1.5" fill="#ea580c" opacity="0.85"><title>2026-03-24 | BTC buy 100.00 usd | reason=static_target_rebalance</title></rect>
<rect x="1197.1979733817302" y="541.7954114771608" width="11.56896551724138" height="1.5" fill="#ea580c" opacity="0.85"><title>2026-03-31 | BTC buy 100.00 usd | reason=static_target_rebalance</title></rect>
<rect x="1218.60148215366" y="541.7954114771608" width="11.56896551724138" height="1.5" fill="#ea580c" opacity="0.85"><title>2026-04-07 | BTC buy 100.00 usd | reason=static_target_rebalance</title></rect>
<rect x="1240.0049909255897" y="541.7954114771608" width="11.56896551724138" height="1.5" fill="#ea580c" opacity="0.85"><title>2026-04-14 | BTC buy 100.00 usd | reason=static_target_rebalance</title></rect>
<rect x="1261.4084996975196" y="541.7954114771608" width="11.56896551724138" height="1.5" fill="#ea580c" opacity="0.85"><title>2026-04-21 | BTC buy 100.00 usd | reason=static_target_rebalance</title></rect>
<rect x="1282.8120084694494" y="541.7954114771608" width="11.56896551724138" height="1.5" fill="#ea580c" opacity="0.85"><title>2026-04-28 | BTC buy 100.00 usd | reason=static_target_rebalance</title></rect>
<rect x="1304.2155172413793" y="542.5" width="11.56896551724138" height="1.5" fill="#dc2626" opacity="0.85"><title>2026-05-05 | BTC sell 119.08 usd | reason=static_target_rebalance</title></rect>
<text x="24" y="542.5" transform="rotate(-90 24,542.5)" text-anchor="middle" font-family="monospace" font-size="14" fill="#0f172a">BTC weekly trade usd</text>
<line x1="90" y1="770" x2="1310" y2="770" stroke="#334155" stroke-width="2"/>
<line x1="90" y1="645" x2="90" y2="770" stroke="#334155" stroke-width="2"/>
<line x1="90" y1="707.5" x2="1310" y2="707.5" stroke="#64748b" stroke-width="1.5" stroke-dasharray="6 4"/>
<line x1="90" y1="770.0" x2="1310" y2="770.0" stroke="#e2e8f0" stroke-width="1"/>
<text x="78" y="774.0" text-anchor="end" font-family="monospace" font-size="11" fill="#475569">-100</text>
<line x1="90" y1="707.5" x2="1310" y2="707.5" stroke="#e2e8f0" stroke-width="1"/>
<text x="78" y="711.5" text-anchor="end" font-family="monospace" font-size="11" fill="#475569">0</text>
<line x1="90" y1="645.0" x2="1310" y2="645.0" stroke="#e2e8f0" stroke-width="1"/>
<text x="78" y="649.0" text-anchor="end" font-family="monospace" font-size="11" fill="#475569">100</text>
<rect x="84.2155172413793" y="645.0" width="11.56896551724138" height="62.5" fill="#2563eb" opacity="0.85"><title>2025-04-01 | ETH buy 100.00 usd | reason=static_target_rebalance</title></rect>
<rect x="105.61902601330914" y="645.0" width="11.56896551724138" height="62.5" fill="#2563eb" opacity="0.85"><title>2025-04-08 | ETH buy 100.00 usd | reason=static_target_rebalance</title></rect>
<rect x="127.02253478523895" y="645.0" width="11.56896551724138" height="62.5" fill="#2563eb" opacity="0.85"><title>2025-04-15 | ETH buy 100.00 usd | reason=static_target_rebalance</title></rect>
<rect x="148.42604355716878" y="645.0" width="11.56896551724138" height="62.5" fill="#2563eb" opacity="0.85"><title>2025-04-22 | ETH buy 100.00 usd | reason=static_target_rebalance</title></rect>
<rect x="169.8295523290986" y="645.0" width="11.56896551724138" height="62.5" fill="#2563eb" opacity="0.85"><title>2025-04-29 | ETH buy 100.00 usd | reason=static_target_rebalance</title></rect>
<rect x="191.23306110102843" y="645.0" width="11.56896551724138" height="62.5" fill="#2563eb" opacity="0.85"><title>2025-05-06 | ETH buy 100.00 usd | reason=static_target_rebalance</title></rect>
<rect x="212.63656987295823" y="645.0" width="11.56896551724138" height="62.5" fill="#2563eb" opacity="0.85"><title>2025-05-13 | ETH buy 100.00 usd | reason=static_target_rebalance</title></rect>
<rect x="234.04007864488807" y="645.0" width="11.56896551724138" height="62.5" fill="#2563eb" opacity="0.85"><title>2025-05-20 | ETH buy 100.00 usd | reason=static_target_rebalance</title></rect>
<rect x="255.44358741681788" y="645.0" width="11.56896551724138" height="62.5" fill="#2563eb" opacity="0.85"><title>2025-05-27 | ETH buy 100.00 usd | reason=static_target_rebalance</title></rect>
<rect x="276.84709618874774" y="645.0" width="11.56896551724138" height="62.5" fill="#2563eb" opacity="0.85"><title>2025-06-03 | ETH buy 100.00 usd | reason=static_target_rebalance</title></rect>
<rect x="298.25060496067755" y="645.0" width="11.56896551724138" height="62.5" fill="#2563eb" opacity="0.85"><title>2025-06-10 | ETH buy 100.00 usd | reason=static_target_rebalance</title></rect>
<rect x="319.65411373260736" y="645.0" width="11.56896551724138" height="62.5" fill="#2563eb" opacity="0.85"><title>2025-06-17 | ETH buy 100.00 usd | reason=static_target_rebalance</title></rect>
<rect x="341.05762250453716" y="645.0" width="11.56896551724138" height="62.5" fill="#2563eb" opacity="0.85"><title>2025-06-24 | ETH buy 100.00 usd | reason=static_target_rebalance</title></rect>
<rect x="362.46113127646703" y="645.0" width="11.56896551724138" height="62.5" fill="#2563eb" opacity="0.85"><title>2025-07-01 | ETH buy 100.00 usd | reason=static_target_rebalance</title></rect>
<rect x="383.86464004839684" y="645.0" width="11.56896551724138" height="62.5" fill="#2563eb" opacity="0.85"><title>2025-07-08 | ETH buy 100.00 usd | reason=static_target_rebalance</title></rect>
<rect x="405.26814882032664" y="645.0" width="11.56896551724138" height="62.5" fill="#2563eb" opacity="0.85"><title>2025-07-15 | ETH buy 100.00 usd | reason=static_target_rebalance</title></rect>
<rect x="426.67165759225645" y="645.0" width="11.56896551724138" height="62.5" fill="#2563eb" opacity="0.85"><title>2025-07-22 | ETH buy 100.00 usd | reason=static_target_rebalance</title></rect>
<rect x="448.0751663641863" y="645.0" width="11.56896551724138" height="62.5" fill="#2563eb" opacity="0.85"><title>2025-07-29 | ETH buy 100.00 usd | reason=static_target_rebalance</title></rect>
<rect x="469.4786751361161" y="645.0" width="11.56896551724138" height="62.5" fill="#2563eb" opacity="0.85"><title>2025-08-05 | ETH buy 100.00 usd | reason=static_target_rebalance</title></rect>
<rect x="490.88218390804593" y="645.0" width="11.56896551724138" height="62.5" fill="#2563eb" opacity="0.85"><title>2025-08-12 | ETH buy 100.00 usd | reason=static_target_rebalance</title></rect>
<rect x="512.2856926799758" y="645.0" width="11.56896551724138" height="62.5" fill="#2563eb" opacity="0.85"><title>2025-08-19 | ETH buy 100.00 usd | reason=static_target_rebalance</title></rect>
<rect x="533.6892014519055" y="645.0" width="11.56896551724138" height="62.5" fill="#2563eb" opacity="0.85"><title>2025-08-26 | ETH buy 100.00 usd | reason=static_target_rebalance</title></rect>
<rect x="555.0927102238354" y="645.0" width="11.56896551724138" height="62.5" fill="#2563eb" opacity="0.85"><title>2025-09-02 | ETH buy 100.00 usd | reason=static_target_rebalance</title></rect>
<rect x="576.4962189957653" y="645.0" width="11.56896551724138" height="62.5" fill="#2563eb" opacity="0.85"><title>2025-09-09 | ETH buy 100.00 usd | reason=static_target_rebalance</title></rect>
<rect x="597.899727767695" y="645.0" width="11.56896551724138" height="62.5" fill="#2563eb" opacity="0.85"><title>2025-09-16 | ETH buy 100.00 usd | reason=static_target_rebalance</title></rect>
<rect x="619.3032365396249" y="645.0" width="11.56896551724138" height="62.5" fill="#2563eb" opacity="0.85"><title>2025-09-23 | ETH buy 100.00 usd | reason=static_target_rebalance</title></rect>
<rect x="640.7067453115548" y="645.0" width="11.56896551724138" height="62.5" fill="#2563eb" opacity="0.85"><title>2025-09-30 | ETH buy 100.00 usd | reason=static_target_rebalance</title></rect>
<rect x="662.1102540834845" y="645.0" width="11.56896551724138" height="62.5" fill="#2563eb" opacity="0.85"><title>2025-10-07 | ETH buy 100.00 usd | reason=static_target_rebalance</title></rect>
<rect x="683.5137628554144" y="645.0" width="11.56896551724138" height="62.5" fill="#2563eb" opacity="0.85"><title>2025-10-14 | ETH buy 100.00 usd | reason=static_target_rebalance</title></rect>
<rect x="704.9172716273442" y="645.0" width="11.56896551724138" height="62.5" fill="#2563eb" opacity="0.85"><title>2025-10-21 | ETH buy 100.00 usd | reason=static_target_rebalance</title></rect>
<rect x="726.320780399274" y="645.0" width="11.56896551724138" height="62.5" fill="#2563eb" opacity="0.85"><title>2025-10-28 | ETH buy 100.00 usd | reason=static_target_rebalance</title></rect>
<rect x="747.7242891712038" y="645.0" width="11.56896551724138" height="62.5" fill="#2563eb" opacity="0.85"><title>2025-11-04 | ETH buy 100.00 usd | reason=static_target_rebalance</title></rect>
<rect x="769.1277979431336" y="645.0" width="11.56896551724138" height="62.5" fill="#2563eb" opacity="0.85"><title>2025-11-11 | ETH buy 100.00 usd | reason=static_target_rebalance</title></rect>
<rect x="790.5313067150636" y="645.0" width="11.56896551724138" height="62.5" fill="#2563eb" opacity="0.85"><title>2025-11-18 | ETH buy 100.00 usd | reason=static_target_rebalance</title></rect>
<rect x="811.9348154869933" y="645.0" width="11.56896551724138" height="62.5" fill="#2563eb" opacity="0.85"><title>2025-11-25 | ETH buy 100.00 usd | reason=static_target_rebalance</title></rect>
<rect x="833.3383242589232" y="645.0" width="11.56896551724138" height="62.5" fill="#2563eb" opacity="0.85"><title>2025-12-02 | ETH buy 100.00 usd | reason=static_target_rebalance</title></rect>
<rect x="854.741833030853" y="645.0" width="11.56896551724138" height="62.5" fill="#2563eb" opacity="0.85"><title>2025-12-09 | ETH buy 100.00 usd | reason=static_target_rebalance</title></rect>
<rect x="876.1453418027828" y="645.0" width="11.56896551724138" height="62.5" fill="#2563eb" opacity="0.85"><title>2025-12-16 | ETH buy 100.00 usd | reason=static_target_rebalance</title></rect>
<rect x="897.5488505747126" y="645.0" width="11.56896551724138" height="62.5" fill="#2563eb" opacity="0.85"><title>2025-12-23 | ETH buy 100.00 usd | reason=static_target_rebalance</title></rect>
<rect x="918.9523593466425" y="645.0" width="11.56896551724138" height="62.5" fill="#2563eb" opacity="0.85"><title>2025-12-30 | ETH buy 100.00 usd | reason=static_target_rebalance</title></rect>
<rect x="940.3558681185723" y="645.0" width="11.56896551724138" height="62.5" fill="#2563eb" opacity="0.85"><title>2026-01-06 | ETH buy 100.00 usd | reason=static_target_rebalance</title></rect>
<rect x="961.7593768905022" y="645.0" width="11.56896551724138" height="62.5" fill="#2563eb" opacity="0.85"><title>2026-01-13 | ETH buy 100.00 usd | reason=static_target_rebalance</title></rect>
<rect x="983.1628856624319" y="645.0" width="11.56896551724138" height="62.5" fill="#2563eb" opacity="0.85"><title>2026-01-20 | ETH buy 100.00 usd | reason=static_target_rebalance</title></rect>
<rect x="1004.5663944343618" y="645.0" width="11.56896551724138" height="62.5" fill="#2563eb" opacity="0.85"><title>2026-01-27 | ETH buy 100.00 usd | reason=static_target_rebalance</title></rect>
<rect x="1025.9699032062915" y="645.0" width="11.56896551724138" height="62.5" fill="#2563eb" opacity="0.85"><title>2026-02-03 | ETH buy 100.00 usd | reason=static_target_rebalance</title></rect>
<rect x="1047.3734119782214" y="645.0" width="11.56896551724138" height="62.5" fill="#2563eb" opacity="0.85"><title>2026-02-10 | ETH buy 100.00 usd | reason=static_target_rebalance</title></rect>
<rect x="1068.7769207501512" y="645.0" width="11.56896551724138" height="62.5" fill="#2563eb" opacity="0.85"><title>2026-02-17 | ETH buy 100.00 usd | reason=static_target_rebalance</title></rect>
<rect x="1090.180429522081" y="645.0" width="11.56896551724138" height="62.5" fill="#2563eb" opacity="0.85"><title>2026-02-24 | ETH buy 100.00 usd | reason=static_target_rebalance</title></rect>
<rect x="1111.5839382940107" y="645.0" width="11.56896551724138" height="62.5" fill="#2563eb" opacity="0.85"><title>2026-03-03 | ETH buy 100.00 usd | reason=static_target_rebalance</title></rect>
<rect x="1132.9874470659406" y="645.0" width="11.56896551724138" height="62.5" fill="#2563eb" opacity="0.85"><title>2026-03-10 | ETH buy 100.00 usd | reason=static_target_rebalance</title></rect>
<rect x="1154.3909558378705" y="645.0" width="11.56896551724138" height="62.5" fill="#2563eb" opacity="0.85"><title>2026-03-17 | ETH buy 100.00 usd | reason=static_target_rebalance</title></rect>
<rect x="1175.7944646098003" y="645.0" width="11.56896551724138" height="62.5" fill="#2563eb" opacity="0.85"><title>2026-03-24 | ETH buy 100.00 usd | reason=static_target_rebalance</title></rect>
<rect x="1197.1979733817302" y="645.0" width="11.56896551724138" height="62.5" fill="#2563eb" opacity="0.85"><title>2026-03-31 | ETH buy 100.00 usd | reason=static_target_rebalance</title></rect>
<rect x="1218.60148215366" y="645.0" width="11.56896551724138" height="62.5" fill="#2563eb" opacity="0.85"><title>2026-04-07 | ETH buy 100.00 usd | reason=static_target_rebalance</title></rect>
<rect x="1240.0049909255897" y="645.0" width="11.56896551724138" height="62.5" fill="#2563eb" opacity="0.85"><title>2026-04-14 | ETH buy 100.00 usd | reason=static_target_rebalance</title></rect>
<rect x="1261.4084996975196" y="645.0" width="11.56896551724138" height="62.5" fill="#2563eb" opacity="0.85"><title>2026-04-21 | ETH buy 100.00 usd | reason=static_target_rebalance</title></rect>
<rect x="1282.8120084694494" y="645.0" width="11.56896551724138" height="62.5" fill="#2563eb" opacity="0.85"><title>2026-04-28 | ETH buy 100.00 usd | reason=static_target_rebalance</title></rect>
<rect x="1304.2155172413793" y="645.0" width="11.56896551724138" height="62.5" fill="#2563eb" opacity="0.85"><title>2026-05-05 | ETH buy 100.00 usd | reason=static_target_rebalance</title></rect>
<text x="24" y="707.5" transform="rotate(-90 24,707.5)" text-anchor="middle" font-family="monospace" font-size="14" fill="#0f172a">ETH weekly trade usd</text>
<rect x="1040" y="478" width="14" height="10" fill="#ea580c" opacity="0.85"/>
<text x="1062" y="488" font-family="monospace" font-size="11" fill="#0f172a">BTC buy</text>
<rect x="1190" y="478" width="14" height="10" fill="#dc2626" opacity="0.85"/>
<text x="1212" y="488" font-family="monospace" font-size="11" fill="#0f172a">BTC sell</text>
<rect x="1040" y="498" width="14" height="10" fill="#2563eb" opacity="0.85"/>
<text x="1062" y="508" font-family="monospace" font-size="11" fill="#0f172a">ETH buy</text>
<rect x="1190" y="498" width="14" height="10" fill="#7c3aed" opacity="0.85"/>
<text x="1212" y="508" font-family="monospace" font-size="11" fill="#0f172a">ETH sell</text>
</svg>