<svg xmlns="http://www.w3.org/2000/svg" width="1400" height="800">
<rect width="1400" height="800" fill="#f8fafc"/>
<text x="700.0" y="42" text-anchor="middle" font-family="monospace" font-size="24" fill="#0f172a">Portfolio Value Over Time | start=2020-07-01 | interval=7d</text>
<line x1="90" y1="710" x2="1310" y2="710" stroke="#334155" stroke-width="2"/>
<line x1="90" y1="90" x2="90" y2="710" stroke="#334155" stroke-width="2"/>
<line x1="90.0" y1="710" x2="90.0" y2="90" stroke="#cbd5e1" stroke-width="1"/>
<text x="90.0" y="734" text-anchor="middle" font-family="monospace" font-size="11" fill="#475569">2020-07-01</text>
<line x1="90" y1="710.0" x2="1310" y2="710.0" stroke="#cbd5e1" stroke-width="1"/>
<text x="78" y="714.0" text-anchor="end" font-family="monospace" font-size="12" fill="#475569">13043</text>
<line x1="334.0" y1="710" x2="334.0" y2="90" stroke="#cbd5e1" stroke-width="1"/>
<text x="334.0" y="734" text-anchor="middle" font-family="monospace" font-size="11" fill="#475569">2021-09-01</text>
<line x1="90" y1="586.0" x2="1310" y2="586.0" stroke="#cbd5e1" stroke-width="1"/>
<text x="78" y="590.0" text-anchor="end" font-family="monospace" font-size="12" fill="#475569">25582</text>
<line x1="578.0" y1="710" x2="578.0" y2="90" stroke="#cbd5e1" stroke-width="1"/>
<text x="578.0" y="734" text-anchor="middle" font-family="monospace" font-size="11" fill="#475569">2022-11-02</text>
<line x1="90" y1="461.99999999999994" x2="1310" y2="461.99999999999994" stroke="#cbd5e1" stroke-width="1"/>
<text x="78" y="465.99999999999994" text-anchor="end" font-family="monospace" font-size="12" fill="#475569">38122</text>
<line x1="822.0" y1="710" x2="822.0" y2="90" stroke="#cbd5e1" stroke-width="1"/>
<text x="822.0" y="734" text-anchor="middle" font-family="monospace" font-size="11" fill="#475569">2023-12-27</text>
<line x1="90" y1="338.0" x2="1310" y2="338.0" stroke="#cbd5e1" stroke-width="1"/>
<text x="78" y="342.0" text-anchor="end" font-family="monospace" font-size="12" fill="#475569">50662</text>
<line x1="1066.0" y1="710" x2="1066.0" y2="90" stroke="#cbd5e1" stroke-width="1"/>
<text x="1066.0" y="734" text-anchor="middle" font-family="monospace" font-size="11" fill="#475569">2025-02-26</text>
<line x1="90" y1="214.0" x2="1310" y2="214.0" stroke="#cbd5e1" stroke-width="1"/>
<text x="78" y="218.0" text-anchor="end" font-family="monospace" font-size="12" fill="#475569">63202</text>
<line x1="1310.0" y1="710" x2="1310.0" y2="90" stroke="#cbd5e1" stroke-width="1"/>
<text x="1310.0" y="734" text-anchor="middle" font-family="monospace" font-size="11" fill="#475569">2026-04-29</text>
<line x1="90" y1="90.0" x2="1310" y2="90.0" stroke="#cbd5e1" stroke-width="1"/>
<text x="78" y="94.0" text-anchor="end" font-family="monospace" font-size="12" fill="#475569">75741</text>
<text x="700.0" y="782" text-anchor="middle" font-family="monospace" font-size="16" fill="#0f172a">time</text>
<text x="24" y="400.0" transform="rotate(-90 24,400.0)" text-anchor="middle" font-family="monospace" font-size="16" fill="#0f172a">portfolio_value_usd</text>
<line x1="970" y1="80" x2="988" y2="80" stroke="#0f766e" stroke-width="3"/>
<text x="998" y="84" font-family="monospace" font-size="12" fill="#0f172a">budgeted_static_50_50_rebalance</text>
<line x1="970" y1="104" x2="988" y2="104" stroke="#9333ea" stroke-width="3"/>
<text x="998" y="108" font-family="monospace" font-size="12" fill="#0f172a">budgeted_drawdown_tilt_rebalance</text>
<line x1="970" y1="128" x2="988" y2="128" stroke="#92400e" stroke-width="3"/>
<text x="998" y="132" font-family="monospace" font-size="12" fill="#0f172a">budgeted_btc_defensive_eth_aggressive</text>
<polyline points="90.0,690.6439969182325 94.01315789473684,690.5766047830715 98.02631578947368,690.6702658963474 102.03947368421052,690.3454417235524 106.05263157894737,689.1924496590518 110.0657894736842,687.7431636609094 114.07894736842105,688.0556046490836 118.09210526315789,687.5869141120919 122.10526315789474,688.1874284620012 126.11842105263158,687.0464402426213 130.1315789473684,689.9738687417528 134.14473684210526,689.0389518254138 138.1578947368421,690.8902451146482 142.17105263157896,689.2090624091685 146.18421052631578,689.9024034283727 150.19736842105263,687.8230084438708 154.21052631578948,685.8211974700904 158.2236842105263,685.3747282035096 162.23684210526315,683.7050808207314 166.25,679.1771456251648 170.26315789473682,675.7471804955127 174.2763157894737,670.406109053112 178.28947368421052,668.368710324894 182.30263157894737,670.497251699087 186.31578947368422,663.1362305526261 190.32894736842104,662.928930086385 194.34210526315792,645.4714301814981 198.35526315789474,608.816162133208 202.36842105263156,612.2586545639649 206.38157894736844,602.1405645934002 210.39473684210526,617.8897909480203 214.40789473684208,582.3247964131909 218.42105263157893,566.1060122851273 222.4342105263158,547.5451523950535 226.44736842105263,564.4294346563934 230.46052631578948,566.5927938525915 234.4736842105263,543.9545854906552 238.48684210526315,536.916216775601 242.5,562.7632969826705 246.51315789473685,531.3858273174703 250.52631578947367,533.9228838622852 254.53947368421052,493.5490111351719 258.5526315789474,514.841590581274 262.56578947368416,489.93407424543716 266.57894736842104,440.82291559899875 270.5921052631579,440.0131128300093 274.60526315789474,537.3745324335964 278.61842105263156,509.1404162995957 282.63157894736844,521.9250088642248 286.64473684210526,527.0630799530787 290.6578947368421,537.1691170957172 294.67105263157896,567.0588110491744 298.68421052631584,548.5747580894943 302.6973684210526,549.1064244234718 306.7105263157895,567.7838862236508 310.72368421052636,569.2024610644067 314.7368421052631,535.728641670632 318.75,514.5252894266863 322.7631578947369,478.70831272139014 326.77631578947364,488.1068135033206 330.7894736842105,467.33459669540406 334.8026315789474,438.35790209036423 338.81578947368416,460.8087565524812 342.82894736842104,450.241964067425 346.84210526315786,486.4985532317478 350.85526315789474,502.23588459983523 354.8684210526316,433.25536319829394 358.8815789473684,426.52007686335213 362.89473684210526,378.3874038551566 366.90789473684214,409.2162315592262 370.92105263157896,366.31346936663056 374.9342105263158,359.84433922297967 378.9473684210526,387.2945590781963 382.9605263157895,396.8134436141584 386.9736842105263,382.93330186765115 390.9868421052631,407.8395369998641 395.0,430.0461532300592 399.0131578947368,432.5196490837083 403.0263157894737,453.24873055051296 407.0394736842105,465.84320960167497 411.05263157894734,471.38077161613484 415.0657894736842,490.12499349366567 419.07894736842104,530.6850152632385 423.09210526315786,521.1317095385356 427.1052631578948,474.52913852976235 431.1184210526316,481.3599263857792 435.1315789473684,524.9925785336328 439.1447368421052,488.72390693444777 443.15789473684214,504.43456995856775 447.17105263157896,504.8749108524919 451.1842105263158,487.6308462531101 455.19736842105266,459.0649838072179 459.2105263157895,481.1141781574868 463.2236842105263,489.72258680419765 467.2368421052632,490.8711902378559 471.25,506.16650750476913 475.2631578947368,502.5337924337442 479.2763157894737,576.7931346564217 483.2894736842105,585.3071970235944 487.30263157894734,581.2198338894839 491.3157894736842,586.0947461234398 495.32894736842104,585.9826457922311 499.34210526315786,638.1438622287537 503.3552631578948,656.0467018139107 507.3684210526316,653.1417916540448 511.3815789473684,647.2727858695978 515.3947368421052,652.0088147648261 519.4078947368421,620.4772973144134 523.421052631579,615.5140728125588 527.4342105263158,616.9268345047564 531.4473684210527,600.4121390329215 535.4605263157895,603.7318365664506 539.4736842105262,620.4465639404126 543.4868421052631,630.8650024243002 547.5,629.7481635455695 551.5131578947369,625.5957535478851 555.5263157894738,653.3400669992334 559.5394736842105,644.6413445760243 563.5526315789473,640.7858750893388 567.5657894736842,648.0485992373546 571.578947368421,648.720290437698 575.5921052631579,625.7717028256803 579.6052631578948,631.0742805805118 583.6184210526317,672.3111557406172 587.6315789473683,662.5486045583083 591.6447368421052,664.6255922274871 595.6578947368421,655.6949408681556 599.671052631579,660.7520252730421 603.6842105263157,652.2606636603771 607.6973684210526,661.8246294182077 611.7105263157895,664.4582123102614 615.7236842105262,659.2513739558867 619.7368421052632,646.8462733938558 623.75,628.1897256929622 627.7631578947368,612.2456791220253 631.7763157894738,607.7375342724707 635.7894736842105,610.460981890995 639.8026315789474,603.4521830719395 643.8157894736843,605.8399506465381 647.828947368421,606.8219018169513 651.8421052631579,622.1102736473579 655.8552631578948,604.2835110900528 659.8684210526316,587.8404916968614 663.8815789473684,580.6642184330402 667.8947368421052,574.7530007193368 671.9078947368421,567.4694205509685 675.921052631579,570.7924686714543 679.9342105263157,576.1055846078425 683.9473684210526,571.5674443048918 687.9605263157895,580.4931762730621 691.9736842105262,582.4339244638177 695.9868421052632,587.8141168156276 700.0,580.2178274438909 704.0131578947368,585.8756089103028 708.0263157894736,600.699237326985 712.0394736842104,568.5539093777858 716.0526315789474,571.7982053928298 720.0657894736843,565.4315799111096 724.078947368421,568.0825687055061 728.0921052631579,568.815620768026 732.1052631578947,571.8595924696148 736.1184210526316,574.4505163377618 740.1315789473684,572.1158020071205 744.1447368421053,578.0660647566973 748.1578947368421,593.6574794363122 752.171052631579,588.896970899051 756.1842105263157,598.9153151004034 760.1973684210526,598.5479672887527 764.2105263157896,594.3882931133124 768.2236842105264,598.6812401153454 772.2368421052632,590.4939605232101 776.25,598.6710517728844 780.2631578947368,593.5293970602967 784.2763157894736,557.3828713112102 788.2894736842104,550.3144843905019 792.3026315789474,547.0521052922601 796.3157894736843,528.6592816691898 800.328947368421,529.9668908687827 804.3421052631579,530.5953832221363 808.3552631578947,498.0808553748487 812.3684210526316,499.3242741766122 816.3815789473684,500.2538689066596 820.3947368421053,489.99864658031936 824.4078947368421,502.3393861692873 828.421052631579,467.20763912581515 832.4342105263157,483.3211277484776 836.4473684210526,509.55624719067043 840.4605263157896,498.6316875746704 844.4736842105264,484.2505000804131 848.4868421052632,438.83572585103946 852.5,427.6000427036226 856.5131578947368,368.88849427847987 860.5263157894736,332.20452209110834 864.5394736842104,299.5165222945477 868.5526315789474,343.7933677995601 872.5657894736843,339.90239538148455 876.578947368421,361.0312003059998 880.5921052631579,333.6319392683321 884.6052631578947,393.704479004381 888.6184210526316,375.9646123186306 892.6315789473684,403.6353446704998 896.6447368421053,394.7200505951365 900.6578947368421,376.1278099082056 904.671052631579,326.0219624542479 908.6842105263157,329.038806923595 912.6973684210526,312.44068715684807 916.7105263157896,338.57709824980947 920.7236842105264,348.35763856601125 924.7368421052632,371.44647816519597 928.75,377.85431078348853 932.7631578947368,396.038326217065 936.7763157894736,360.3521697444391 940.7894736842104,359.43220202529847 944.8026315789474,367.6046782162715 948.8157894736843,447.09103100218385 952.828947368421,418.06331468053025 956.8421052631579,412.54769227644755 960.8552631578947,424.8269592644633 964.8684210526316,432.62164271693626 968.8815789473684,441.0528605636248 972.8947368421053,426.30707819542835 976.9078947368421,409.81650155220876 980.921052631579,430.27349342710454 984.9342105263157,430.1134459388407 988.9473684210526,395.2210163303108 992.9605263157896,403.67235922906826 996.9736842105264,379.25767592058395 1000.9868421052632,365.9881746836717 1005.0,295.74264240528424 1009.0131578947368,293.4461288681633 1013.0263157894736,250.37542668384827 1017.0394736842104,230.9513888239453 1021.0526315789474,225.28834608915867 1025.0657894736842,241.69107530010444 1029.078947368421,252.29139191955306 1033.092105263158,273.83409264668234 1037.1052631578946,274.0297772687406 1041.1184210526317,252.27251343317891 1045.1315789473683,258.79897577117583 1049.1447368421054,267.2502843591522 1053.157894736842,306.27951284615494 1057.171052631579,306.85098349008024 1061.1842105263158,311.3043352902337 1065.1973684210525,366.64277356890045 1069.2105263157896,358.318203292768 1073.2236842105262,397.7170195886463 1077.2368421052633,379.810312917844 1081.25,383.1495224037517 1085.2631578947367,408.656333101543 1089.2763157894738,417.7537459915069 1093.2894736842104,421.59667949878656 1097.3026315789475,384.36607315771494 1101.3157894736842,383.6082711353198 1105.328947368421,376.3162318768263 1109.342105263158,300.2935969920843 1113.3552631578946,292.358005784125 1117.3684210526314,285.8094584062575 1121.3815789473686,297.8930230311676 1125.3947368421052,276.80297467654805 1129.407894736842,304.3406972723394 1133.421052631579,307.778954348441 1137.4342105263158,292.4313029786187 1141.4473684210525,271.24849655572285 1145.4605263157896,206.6557673529901 1149.4736842105265,185.596713744495 1153.4868421052631,173.33645428542832 1157.5,188.98031306639427 1161.5131578947369,90.0 1165.5263157894735,139.82433657500565 1169.5394736842104,133.86244360436308 1173.5526315789475,136.64840436501356 1177.5657894736842,138.98582715860198 1181.578947368421,117.02199613309074 1185.592105263158,153.39355068491977 1189.6052631578948,128.6059102224101 1193.6184210526314,106.52205196545037 1197.6315789473686,170.03996899243862 1201.6447368421052,189.24931980216445 1205.657894736842,177.267784880053 1209.671052631579,223.1893332535082 1213.6842105263158,228.82285435243728 1217.6973684210525,277.98775842564703 1221.7105263157896,279.99079118629277 1225.7236842105265,262.1541332617194 1229.7368421052631,256.13087670351587 1233.75,303.09184169957865 1237.7631578947369,292.15024529842 1241.7763157894735,290.9024283876399 1245.7894736842104,268.4605449173013 1249.8026315789475,242.24893333341873 1253.8157894736842,285.9377901294971 1257.828947368421,284.5463089818255 1261.842105263158,382.704285382736 1265.8552631578948,411.061713920265 1269.8684210526314,411.37935287226395 1273.8815789473686,400.34633871976564 1277.8947368421052,384.2192590236657 1281.907894736842,395.53792719333853 1285.921052631579,382.1154302302653 1289.9342105263158,384.5598468024467 1293.9473684210525,394.2804233442721 1297.9605263157896,383.40408590961016 1301.9736842105265,361.7182801409064 1305.9868421052631,352.39755754250706 1310.0,367.5927445846457" fill="none" stroke="#0f766e" stroke-width="2.5"><title>budgeted_static_50_50_rebalance | end=2026-04-29 | return=217.79%</title></polyline>
<polyline points="90.0,690.6439969182325 94.01315789473684,690.5766047830715 98.02631578947368,690.6702658963474 102.03947368421052,690.3454417235524 106.05263157894737,689.4660595026512 110.0657894736842,688.5368818417792 114.07894736842105,688.7124326401103 118.09210526315789,688.4768939102047 122.10526315789474,688.7480589946402 126.11842105263158,688.2616089570761 130.1315789473684,689.3711148194859 134.14473684210526,688.9553032679797 138.1578947368421,689.8540252227768 142.17105263157896,688.9130911404409 146.18421052631578,689.3209924399815 150.19736842105263,688.0358558127768 154.21052631578948,686.8739139769174 158.2236842105263,686.6393980343439 162.23684210526315,685.6276748492857 166.25,682.7327270941753 170.26315789473682,680.7835502772494 174.2763157894737,677.4706958116258 178.28947368421052,676.2688215765667 182.30263157894737,677.463214468768 186.31578947368422,673.5322677453812 190.32894736842104,673.7281230227027 194.34210526315792,664.705384369229 198.35526315789474,645.4814446999654 202.36842105263156,647.4746748185443 206.38157894736844,641.6322210068528 210.39473684210526,649.3069729757348 214.40789473684208,630.9410716964893 218.42105263157893,623.2541666891034 222.4342105263158,614.4087990901071 226.44736842105263,623.0597969345649 230.46052631578948,624.3222815260497 234.4736842105263,613.0038866394556 238.48684210526315,609.7266184591143 242.5,622.3948260537043 246.51315789473685,606.7072385033526 250.52631578947367,607.5864955167451 254.53947368421052,587.463404124515 258.5526315789474,597.0714151918671 262.56578947368416,583.8650819963838 266.57894736842104,558.1884190115863 270.5921052631579,556.0066479762729 274.60526315789474,606.312144086302 278.61842105263156,591.1233351453758 282.63157894736844,598.0336125179998 286.64473684210526,601.0356349738989 290.6578947368421,607.500546386071 294.67105263157896,624.2069280469734 298.68421052631584,613.195968668717 302.6973684210526,613.1327788302445 306.7105263157895,624.6222871955124 310.72368421052636,625.2963600375458 314.7368421052631,606.2296520944149 318.75,592.2132882815738 322.7631578947369,570.371101459218 326.77631578947364,576.4922080410447 330.7894736842105,563.797908622592 334.8026315789474,543.2229790771079 338.81578947368416,557.9116205141997 342.82894736842104,551.2561810027562 346.84210526315786,575.3209106631684 350.85526315789474,585.8125800197973 354.8684210526316,541.9362333246663 358.8815789473684,538.0585407143442 362.89473684210526,508.36108513498647 366.90789473684214,526.211182509637 370.92105263157896,499.6874492526773 374.9342105263158,496.1960203723362 378.9473684210526,512.0306424322309 382.9605263157895,516.9618796884643 386.9736842105263,508.3064907944487 390.9868421052631,521.8073294886684 395.0,535.469221302752 399.0131578947368,536.9754931780133 403.0263157894737,549.7832940458521 407.0394736842105,556.9619480501135 411.05263157894734,560.8109586690157 415.0657894736842,572.4706846700187 419.07894736842104,597.8654226949142 423.09210526315786,591.4522130250064 427.1052631578948,562.5636503640812 431.1184210526316,567.0324089740358 435.1315789473684,594.5329085398109 439.1447368421052,571.9330845919048 443.15789473684214,582.116156490991 447.17105263157896,582.1180357487137 451.1842105263158,570.6665143838711 455.19736842105266,552.0594536150685 459.2105263157895,566.2265813785855 463.2236842105263,571.5893387686855 467.2368421052632,572.5176492182776 471.25,582.7404108935963 475.2631578947368,580.2627225979893 479.2763157894737,630.2449808927175 483.2894736842105,636.4383903568337 487.30263157894734,633.7325305246816 491.3157894736842,637.5572131181812 495.32894736842104,637.6463729026996 499.34210526315786,674.6004377449067 503.3552631578948,687.4729422044965 507.3684210526316,685.2159213567928 511.3815789473684,680.6744395297661 515.3947368421052,684.4091952076652 519.4078947368421,659.6259340838128 523.421052631579,655.3074583661324 527.4342105263158,656.4377079398943 531.4473684210527,642.86570154925 535.4605263157895,645.4090647794981 539.4736842105262,659.0159786138848 543.4868421052631,667.5131558856165 547.5,666.0185860951054 551.5131578947369,662.8075563565981 555.5263157894738,687.2171879220248 559.5394736842105,679.754465016976 563.5526315789473,676.5909910551575 567.5657894736842,682.8257318004206 571.578947368421,683.4300527376862 575.5921052631579,662.899380482126 579.6052631578948,667.6430789417583 583.6184210526317,705.238520914545 587.6315789473683,696.2013839437304 591.6447368421052,698.1729703400205 595.6578947368421,689.6765119692666 599.671052631579,694.5286628638667 603.6842105263157,686.373793972191 607.6973684210526,695.610515313527 611.7105263157895,698.1520803003987 615.7236842105262,693.0622938572833 619.7368421052632,680.9397020501343 623.75,662.6371206275173 627.7631578947368,646.896646570217 631.7763157894738,642.4064764087948 635.7894736842105,645.0847310499721 639.8026315789474,638.0447134644098 643.8157894736843,640.5155381798261 647.828947368421,641.4767842079616 651.8421052631579,657.3245223373929 655.8552631578948,638.9008181067229 659.8684210526316,621.8470133063103 663.8815789473684,614.3250844744402 667.8947368421052,608.1454246289551 671.9078947368421,600.3848657659212 675.921052631579,603.9745508783778 679.9342105263157,609.6456407724022 683.9473684210526,604.7674517124989 687.9605263157895,614.4093161754402 691.9736842105262,616.3878623774451 695.9868421052632,621.6482657113153 700.0,614.3740332923659 704.0131578947368,619.5706556854998 708.0263157894736,632.5946133425795 712.0394736842104,604.613515899113 716.0526315789474,607.2876569141525 720.0657894736843,602.1948747863258 724.078947368421,604.2483777861836 728.0921052631579,604.89373249985 732.1052631578947,607.2285282934479 736.1184210526316,609.1165421301512 740.1315789473684,607.3952898781566 744.1447368421053,611.6855270694538 748.1578947368421,622.7750769460885 752.171052631579,619.3672117256814 756.1842105263157,626.5530400913389 760.1973684210526,626.2437799943079 764.2105263157896,623.2044796377812 768.2236842105264,626.3337977632953 772.2368421052632,620.3244355205277 776.25,626.3048824513476 780.2631578947368,622.3884671085096 784.2763157894736,595.129815503992 788.2894736842104,589.8163741725803 792.3026315789474,587.4142622987213 796.3157894736843,574.0076297295909 800.328947368421,574.9541695532746 804.3421052631579,575.3877678399562 808.3552631578947,552.5425603916938 812.3684210526316,553.4530402118677 816.3815789473684,554.024783521477 820.3947368421053,547.1603864163085 824.4078947368421,555.3927274442842 828.421052631579,532.0634325719927 832.4342105263157,542.8252156689947 836.4473684210526,559.929214971012 840.4605263157896,552.7662207497574 844.4736842105264,543.4522788280431 848.4868421052632,514.0997717977792 852.5,506.9436158096998 856.5131578947368,469.4134208877169 860.5263157894736,446.24358031917984 864.5394736842104,425.6425305804793 868.5526315789474,453.17179483802107 872.5657894736843,450.7665023054032 876.578947368421,463.71951797237296 880.5921052631579,446.83858835099505 884.6052631578947,483.57837706990034 888.6184210526316,472.6550493890949 892.6315789473684,489.77082065345826 896.6447368421053,484.22087589005105 900.6578947368421,472.54012052145407 904.671052631579,441.226810255393 908.6842105263157,443.1287543329437 912.6973684210526,432.88708813511596 916.7105263157896,448.9765760358966 920.7236842105264,454.88485852517556 924.7368421052632,468.8586126600133 928.75,472.78531851129173 932.7631578947368,483.9134125908753 936.7763157894736,462.2186631369415 940.7894736842104,461.7696883791622 944.8026315789474,466.8474311676965 948.8157894736843,516.1609899535433 952.828947368421,498.0107030646145 956.8421052631579,494.54727272528 960.8552631578947,502.3478035671824 964.8684210526316,507.32958843075596 968.8815789473684,512.7196964671621 972.8947368421053,502.97834346841194 976.9078947368421,492.22490434974054 980.921052631579,505.7426165840792 984.9342105263157,505.6405221837223 988.9473684210526,482.01631075271337 992.9605263157896,487.750642004153 996.9736842105264,470.8787804281679 1000.9868421052632,461.5999548045968 1005.0,412.14701142063774 1009.0131578947368,410.2998103619672 1013.0263157894736,380.50200721593956 1017.0394736842104,367.2094483474153 1021.0526315789474,363.30184182777856 1025.0657894736842,374.0449407943688 1029.078947368421,380.85201217038485 1033.092105263158,394.7412449646022 1037.1052631578946,394.8159385090496 1041.1184210526317,380.64909402795826 1045.1315789473683,384.501876351004 1049.1447368421054,389.8395296764856 1053.157894736842,415.1434178850837 1057.171052631579,415.40139834540724 1061.1842105263158,418.3831510137416 1065.1973684210525,455.4920381803624 1069.2105263157896,449.49130196581467 1073.2236842105262,476.17405325750593 1077.2368421052633,463.872773448738 1081.25,466.13719693658993 1085.2631578947367,483.96932990124003 1089.2763157894738,490.30094076196235 1093.2894736842104,492.94220241867004 1097.3026315789475,465.64342782965707 1101.3157894736842,465.067137876002 1105.328947368421,459.5232097415156 1109.342105263158,402.19042800101676 1113.3552631578946,395.9892540126505 1117.3684210526314,391.06235063658494 1121.3815789473686,400.3700046200363 1125.3947368421052,384.0737437150019 1129.407894736842,405.4684800141283 1133.421052631579,408.2471579994345 1137.4342105263158,396.189281524478 1141.4473684210525,379.4852102385603 1145.4605263157896,328.1351188902119 1149.4736842105265,311.0778148228052 1153.4868421052631,301.11413446332585 1157.5,313.00961548922254 1161.5131578947369,236.84661328505177 1165.5263157894735,273.42403622772014 1169.5394736842104,268.3006404630227 1173.5526315789475,270.4575551889392 1177.5657894736842,272.4984681610183 1181.578947368421,257.096111477701 1185.592105263158,282.34892245351045 1189.6052631578948,265.67704000121387 1193.6184210526314,250.95992699530393 1197.6315789473686,293.0251638744991 1201.6447368421052,305.8399132946834 1205.657894736842,297.9134183055982 1209.671052631579,328.8084207221754 1213.6842105263158,332.37507006456957 1217.6973684210525,365.092956501239 1221.7105263157896,366.3353999745832 1225.7236842105265,354.2647836439405 1229.7368421052631,349.76637798031254 1233.75,382.09729034383645 1237.7631578947369,374.54307333971934 1241.7763157894735,373.63151993564117 1245.7894736842104,358.18774380095635 1249.8026315789475,340.3149701587721 1253.8157894736842,370.5243537531274 1257.828947368421,369.47909023006656 1261.842105263158,437.9566429397428 1265.8552631578948,457.6274907400492 1269.8684210526314,457.74409401162836 1273.8815789473686,449.8338817656365 1277.8947368421052,438.68914790510553 1281.907894736842,446.72778614574025 1285.921052631579,436.719478278554 1289.9342105263158,438.60882359176406 1293.9473684210525,445.38760174145125 1297.9605263157896,437.62407690625326 1301.9736842105265,421.5441217309771 1305.9868421052631,415.02601233093725 1310.0,426.4509157603728" fill="none" stroke="#9333ea" stroke-width="2.5"><title>budgeted_drawdown_tilt_rebalance | end=2026-04-29 | return=178.11%</title></polyline>
<polyline points="90.0,690.6439969182325 94.01315789473684,690.5766047830715 98.02631578947368,690.6702658963474 102.03947368421052,690.3454417235524 106.05263157894737,689.2608521199517 110.0657894736842,687.9415932061269 114.07894736842105,688.2198116468403 118.09210526315789,687.80940906162 122.10526315789474,688.327586095161 126.11842105263158,687.350232421235 130.1315789473684,689.823180261186 134.14473684210526,689.0249421106694 138.1578947368421,690.6232143604318 142.17105263157896,689.123172111462 146.18421052631578,689.7453430854246 150.19736842105263,687.943976547522 154.21052631578948,686.2924155455912 158.2236842105263,685.9438681233632 162.23684210526315,684.5583263552674 166.25,680.7591773148883 170.26315789473682,677.9439765069827 174.2763157894737,673.4748629683143 178.28947368421052,671.7835033797231 182.30263157894737,673.5412040028373 186.31578947368422,667.4807494411281 190.32894736842104,667.2958883437032 194.34210526315792,652.9831176223802 198.35526315789474,623.0850056275962 202.36842105263156,625.846025317545 206.38157894736844,617.7785045788278 210.39473684210526,630.6423764955647 214.40789473684208,601.6124034534595 218.42105263157893,588.2804343509863 222.4342105263158,573.0569409772324 226.44736842105263,586.7863226337324 230.46052631578948,588.5199161878787 234.4736842105263,570.0744215049551 238.48684210526315,564.3081899362121 242.5,585.3553623699511 246.51315789473685,559.8597833008577 250.52631578947367,561.9887740745055 254.53947368421052,529.2639510394165 258.5526315789474,546.6710005322348 262.56578947368416,526.2288636867801 266.57894736842104,484.9928112943703 270.5921052631579,483.3726677383133 274.60526315789474,569.2239296356668 278.61842105263156,543.8076945736422 282.63157894736844,555.4158008159085 286.64473684210526,560.2923621914982 290.6578947368421,570.3288733919895 294.67105263157896,597.9688355550498 298.68421052631584,580.5783118823044 302.6973684210526,580.9474857472026 306.7105263157895,598.583328123865 310.72368421052636,599.8983586148343 314.7368421052631,568.3326625763383 318.75,548.6389483160657 322.7631578947369,514.6041698380305 326.77631578947364,523.6779208846622 330.7894736842105,503.6299489726633 334.8026315789474,474.8437345470164 338.81578947368416,497.25729128500893 342.82894736842104,486.788200330347 346.84210526315786,523.9168644410644 350.85526315789474,540.0665989619001 354.8684210526316,471.5050509878154 358.8815789473684,465.1694098239376 362.89473684210526,417.4281426896787 366.90789473684214,446.98050116206804 370.92105263157896,403.69630488242 374.9342105263158,397.7194202766103 378.9473684210526,424.7367853102528 382.9605263157895,433.3630111141898 386.9736842105263,418.9449434582059 390.9868421052631,442.0603772361094 395.0,465.2415863157104 399.0131578947368,467.7852646953088 403.0263157894737,489.3558621454257 407.0394736842105,501.13131533118815 411.05263157894734,507.77989388330707 415.0657894736842,527.0987284780907 419.07894736842104,568.916672039342 423.09210526315786,558.3780583978262 427.1052631578948,511.5201545291666 431.1184210526316,518.7198751486695 435.1315789473684,562.967566373427 439.1447368421052,526.6169593730817 443.15789473684214,542.7705319608923 447.17105263157896,542.9658603175567 451.1842105263158,525.120574301468 455.19736842105266,495.8564191605817 459.2105263157895,518.3441426128536 463.2236842105263,527.0676386462006 467.2368421052632,528.3150740956395 471.25,544.1363971573269 475.2631578947368,540.3707190077243 479.2763157894737,617.0841404276337 483.2894736842105,625.8714255444689 487.30263157894734,621.6934335349687 491.3157894736842,626.64513368008 495.32894736842104,626.5328466811234 499.34210526315786,678.578061100171 503.3552631578948,696.2443441105239 507.3684210526316,693.4369802118172 511.3815789473684,687.8218474135833 515.3947368421052,692.2960851477676 519.4078947368421,662.783173760674 523.421052631579,658.2618623060753 527.4342105263158,659.5706920210416 531.4473684210527,644.447613540542 535.4605263157895,647.5794946371074 539.4736842105262,663.1363668750141 543.4868421052631,672.8168857176927 547.5,671.9938727964973 551.5131578947369,668.0387388465587 555.5263157894738,693.3705117574893 559.5394736842105,685.4528920530825 563.5526315789473,681.8819358425338 567.5657894736842,688.4412873364206 571.578947368421,689.0150765245731 575.5921052631579,669.4191630571618 579.6052631578948,674.0698854371734 583.6184210526317,710.0 587.6315789473683,701.6844256963146 591.6447368421052,703.4068288139624 595.6578947368421,695.9380681500196 599.671052631579,700.1728567079683 603.6842105263157,692.9253194385175 607.6973684210526,701.0705680916582 611.7105263157895,703.315030098556 615.7236842105262,698.981105112058 619.7368421052632,688.521261326229 623.75,672.4350482951784 627.7631578947368,658.5842288053213 631.7763157894738,654.6383864569104 635.7894736842105,657.1474941392526 639.8026315789474,650.8395856885887 643.8157894736843,652.9003180056644 647.828947368421,653.9354988222531 651.8421052631579,667.5517058165703 655.8552631578948,651.5150084571728 659.8684210526316,636.4640820071988 663.8815789473684,629.9821535262038 667.8947368421052,625.2019701356427 671.9078947368421,618.1614119147303 675.921052631579,621.5757283974307 679.9342105263157,626.264289172653 683.9473684210526,622.0724350497604 687.9605263157895,630.4714167771597 691.9736842105262,632.2319731019875 695.9868421052632,637.445048873614 700.0,630.5408775083456 704.0131578947368,635.828052495808 708.0263157894736,648.870077157822 712.0394736842104,618.990719163262 716.0526315789474,621.5792087035559 720.0657894736843,616.1512379495837 724.078947368421,618.3548872334941 728.0921052631579,619.3370260969713 732.1052631578947,622.2151320348772 736.1184210526316,624.3970000860108 740.1315789473684,622.227467251673 744.1447368421053,627.5988254067711 748.1578947368421,641.6420223729255 752.171052631579,637.1988782015956 756.1842105263157,646.2513671281968 760.1973684210526,645.5016452818874 764.2105263157896,641.5134998889553 768.2236842105264,645.4643631108408 772.2368421052632,637.9646918715437 776.25,644.9053790698067 780.2631578947368,639.5570714331412 784.2763157894736,606.5890349678385 788.2894736842104,600.445262824579 792.3026315789474,597.900027485419 796.3157894736843,582.1084240562466 800.328947368421,583.6186382328873 804.3421052631579,583.4948813012227 808.3552631578947,553.0232160020965 812.3684210526316,555.0273609940159 816.3815789473684,554.6790866319087 820.3947368421053,547.6562613150612 824.4078947368421,557.1941922790604 828.421052631579,527.3931714510549 832.4342105263157,543.7150682830975 836.4473684210526,565.9207579153792 840.4605263157896,555.3253235160122 844.4736842105264,542.8107683510943 848.4868421052632,501.6469233293973 852.5,493.0338775125824 856.5131578947368,438.8144877893907 860.5263157894736,407.10987827014003 864.5394736842104,376.002368654833 868.5526315789474,415.56714193679863 872.5657894736843,411.35048699517506 876.578947368421,430.84192841534883 880.5921052631579,405.4291554834541 884.6052631578947,460.5433173590584 888.6184210526316,444.1268175627347 892.6315789473684,470.8334342871077 896.6447368421053,461.38884513771285 900.6578947368421,442.5062375502242 904.671052631579,401.3823211731398 908.6842105263157,405.1257444499591 912.6973684210526,389.05909356239323 916.7105263157896,411.89552921624494 920.7236842105264,422.3803393984126 924.7368421052632,443.83980863924035 928.75,449.4629495423331 932.7631578947368,465.86287605104025 936.7763157894736,432.7160398275639 940.7894736842104,431.11948414135185 944.8026315789474,438.28855638422505 948.8157894736843,509.54944903517867 952.828947368421,483.54845616630064 956.8421052631579,477.2213605962189 960.8552631578947,488.6683044373592 964.8684210526316,495.6942047375568 968.8815789473684,502.77966810492535 972.8947368421053,487.3318279230523 976.9078947368421,473.4785752985825 980.921052631579,491.4080403332951 984.9342105263157,491.3451702267772 988.9473684210526,457.968100513645 992.9605263157896,465.3137884237236 996.9736842105264,440.86951955803653 1000.9868421052632,427.26352679285236 1005.0,358.02559796705447 1009.0131578947368,351.6185184358099 1013.0263157894736,317.91671934021946 1017.0394736842104,300.12211758293637 1021.0526315789474,292.8940963600032 1025.0657894736842,306.3079500319158 1029.078947368421,315.1370282257445 1033.092105263158,337.0183224242045 1037.1052631578946,336.38089320300105 1041.1184210526317,313.6256517565712 1045.1315789473683,314.61032020245773 1049.1447368421054,320.7813826196359 1053.157894736842,358.7703763364246 1057.171052631579,357.61581222038376 1061.1842105263158,362.53258237684656 1065.1973684210525,420.19752180429964 1069.2105263157896,405.3857893929126 1073.2236842105262,444.00685806656577 1077.2368421052633,426.3101939751401 1081.25,428.723296879385 1085.2631578947367,453.85624765061 1089.2763157894738,460.5431952087413 1093.2894736842104,461.4724128221096 1097.3026315789475,419.3383854773555 1101.3157894736842,418.1309756789205 1105.328947368421,408.3970530284566 1109.342105263158,340.52848298048093 1113.3552631578946,325.5105821731751 1117.3684210526314,323.19386047395545 1121.3815789473686,336.96164072003813 1125.3947368421052,314.9896156806785 1129.407894736842,341.76079212070584 1133.421052631579,340.89898940089387 1137.4342105263158,326.8245262105179 1141.4473684210525,306.9038142062646 1145.4605263157896,245.79024529995382 1149.4736842105265,228.78552893662243 1153.4868421052631,219.9906354237183 1157.5,236.35695256025144 1161.5131578947369,142.73764509374132 1165.5263157894735,195.30055522346754 1169.5394736842104,192.78074184850914 1173.5526315789475,194.86877298813147 1177.5657894736842,195.2155415576027 1181.578947368421,173.04239738729768 1185.592105263158,209.14858669945897 1189.6052631578948,182.40675289474825 1193.6184210526314,158.69716538553848 1197.6315789473686,226.16439670112362 1201.6447368421052,246.25669611219587 1205.657894736842,233.48533431701742 1209.671052631579,280.790598696544 1213.6842105263158,287.323491783159 1217.6973684210525,339.598336080215 1221.7105263157896,342.00660584131555 1225.7236842105265,323.5147208934116 1229.7368421052631,318.4872477779502 1233.75,365.8665223839118 1237.7631578947369,354.8462725349108 1241.7763157894735,353.72720505879187 1245.7894736842104,330.82917177408837 1249.8026315789475,303.54956931787905 1253.8157894736842,347.9669908477283 1257.828947368421,346.77493091119686 1261.842105263158,445.4828435685118 1265.8552631578948,474.5187695936751 1269.8684210526314,475.1087149939469 1273.8815789473686,464.2861970208976 1277.8947368421052,447.3505625708283 1281.907894736842,458.78430779730684 1285.921052631579,446.22972551549907 1289.9342105263158,448.3834161164181 1293.9473684210525,458.61612409501123 1297.9605263157896,447.50866480844866 1301.9736842105265,426.5393975394129 1305.9868421052631,416.6768491390756 1310.0,431.17362319992964" fill="none" stroke="#92400e" stroke-width="2.5"><title>budgeted_btc_defensive_eth_aggressive | end=2026-04-29 | return=174.93%</title></polyline>
</svg>