<svg xmlns="http://www.w3.org/2000/svg" width="1400" height="800">
<rect width="1400" height="800" fill="#f8fafc"/>
<text x="700.0" y="42" text-anchor="middle" font-family="monospace" font-size="24" fill="#0f172a">budgeted_static_50_50_rebalance | weekly | start=2026-01-01 | return=0.11%</text>
<line x1="90" y1="420" x2="1310" y2="420" stroke="#334155" stroke-width="2"/>
<line x1="90" y1="90" x2="90" y2="420" stroke="#334155" stroke-width="2"/>
<line x1="90.0" y1="420" x2="90.0" y2="90" stroke="#94a3b8" stroke-width="1.2"/>
<line x1="90.0" y1="605" x2="90.0" y2="480" stroke="#94a3b8" stroke-width="1.2"/>
<line x1="90.0" y1="770" x2="90.0" y2="645" stroke="#94a3b8" stroke-width="1.2"/>
<text x="90.0" y="788" text-anchor="middle" font-family="monospace" font-size="11" fill="#334155">2026-01</text>
<line x1="448.8235294117647" y1="420" x2="448.8235294117647" y2="90" stroke="#94a3b8" stroke-width="1.2"/>
<line x1="448.8235294117647" y1="605" x2="448.8235294117647" y2="480" stroke="#94a3b8" stroke-width="1.2"/>
<line x1="448.8235294117647" y1="770" x2="448.8235294117647" y2="645" stroke="#94a3b8" stroke-width="1.2"/>
<text x="448.8235294117647" y="788" text-anchor="middle" font-family="monospace" font-size="11" fill="#334155">2026-02</text>
<line x1="735.8823529411765" y1="420" x2="735.8823529411765" y2="90" stroke="#94a3b8" stroke-width="1.2"/>
<line x1="735.8823529411765" y1="605" x2="735.8823529411765" y2="480" stroke="#94a3b8" stroke-width="1.2"/>
<line x1="735.8823529411765" y1="770" x2="735.8823529411765" y2="645" stroke="#94a3b8" stroke-width="1.2"/>
<text x="735.8823529411765" y="788" text-anchor="middle" font-family="monospace" font-size="11" fill="#334155">2026-03</text>
<line x1="1022.9411764705882" y1="420" x2="1022.9411764705882" y2="90" stroke="#94a3b8" stroke-width="1.2"/>
<line x1="1022.9411764705882" y1="605" x2="1022.9411764705882" y2="480" stroke="#94a3b8" stroke-width="1.2"/>
<line x1="1022.9411764705882" y1="770" x2="1022.9411764705882" y2="645" stroke="#94a3b8" stroke-width="1.2"/>
<text x="1022.9411764705882" y="788" text-anchor="middle" font-family="monospace" font-size="11" fill="#334155">2026-04</text>
<line x1="90" y1="420.0" x2="1310" y2="420.0" stroke="#cbd5e1" stroke-width="1"/>
<text x="78" y="424.0" text-anchor="end" font-family="monospace" font-size="12" fill="#475569">0</text>
<line x1="90" y1="354.0" x2="1310" y2="354.0" stroke="#cbd5e1" stroke-width="1"/>
<text x="78" y="358.0" text-anchor="end" font-family="monospace" font-size="12" fill="#475569">3018</text>
<line x1="90" y1="288.0" x2="1310" y2="288.0" stroke="#cbd5e1" stroke-width="1"/>
<text x="78" y="292.0" text-anchor="end" font-family="monospace" font-size="12" fill="#475569">6037</text>
<line x1="90" y1="222.0" x2="1310" y2="222.0" stroke="#cbd5e1" stroke-width="1"/>
<text x="78" y="226.0" text-anchor="end" font-family="monospace" font-size="12" fill="#475569">9055</text>
<line x1="90" y1="156.0" x2="1310" y2="156.0" stroke="#cbd5e1" stroke-width="1"/>
<text x="78" y="160.0" text-anchor="end" font-family="monospace" font-size="12" fill="#475569">12074</text>
<line x1="90" y1="89.99999999999994" x2="1310" y2="89.99999999999994" stroke="#cbd5e1" stroke-width="1"/>
<text x="78" y="93.99999999999994" text-anchor="end" font-family="monospace" font-size="12" fill="#475569">15092</text>
<polygon points="90.0,95.29057416092883 161.76470588235293,98.57046735122248 233.52941176470588,101.85036054151607 305.29411764705884,105.13025373180977 377.05882352941177,108.41014692210337 448.8235294117647,111.69004011239707 520.5882352941177,114.96993330269066 592.3529411764705,118.24982649298437 664.1176470588235,121.52971968327802 735.8823529411765,124.80961287357161 807.6470588235294,128.08950606386531 879.4117647058824,131.3693992541589 951.1764705882354,134.6492924444526 1022.9411764705882,137.9291856347462 1094.705882352941,141.2090788250399 1166.4705882352941,144.4889720153335 1238.235294117647,147.7688652056272 1310.0,151.0487583959208 1310.0,420.0 1238.235294117647,420.0 1166.4705882352941,420.0 1094.705882352941,420.0 1022.9411764705882,420.0 951.1764705882354,420.0 879.4117647058824,420.0 807.6470588235294,420.0 735.8823529411765,420.0 664.1176470588235,420.0 592.3529411764705,420.0 520.5882352941177,420.0 448.8235294117647,420.0 377.05882352941177,420.0 305.29411764705884,420.0 233.52941176470588,420.0 161.76470588235293,420.0 90.0,420.0" fill="#facc15" fill-opacity="0.70" stroke="#facc15" stroke-width="1.2"/>
<polygon points="90.0,93.65062756578197 161.76470588235293,95.23379057076284 233.52941176470588,96.64406184636948 305.29411764705884,98.86241633577879 377.05882352941177,100.78196913911853 448.8235294117647,105.11441920016557 520.5882352941177,106.31107401913732 592.3529411764705,107.94189951551203 664.1176470588235,109.15993307621426 735.8823529411765,110.52483964073213 807.6470588235294,112.15782642374035 879.4117647058824,113.30630297868697 951.1764705882354,115.61572251037597 1022.9411764705882,117.27378979928244 1094.705882352941,117.57435632335904 1166.4705882352941,117.50430217535302 1238.235294117647,119.345662058485 1310.0,121.89131567774501 1310.0,151.0487583959208 1238.235294117647,147.7688652056272 1166.4705882352941,144.4889720153335 1094.705882352941,141.2090788250399 1022.9411764705882,137.9291856347462 951.1764705882354,134.6492924444526 879.4117647058824,131.3693992541589 807.6470588235294,128.08950606386531 735.8823529411765,124.80961287357161 664.1176470588235,121.52971968327802 592.3529411764705,118.24982649298437 520.5882352941177,114.96993330269066 448.8235294117647,111.69004011239707 377.05882352941177,108.41014692210337 305.29411764705884,105.13025373180977 233.52941176470588,101.85036054151607 161.76470588235293,98.57046735122248 90.0,95.29057416092883" fill="#2563eb" fill-opacity="0.70" stroke="#2563eb" stroke-width="1.2"/>
<polygon points="90.0,92.01068097063518 161.76470588235293,91.91161982346449 233.52941176470588,91.51545822319775 305.29411764705884,92.4224476641229 377.05882352941177,93.05839782169511 448.8235294117647,97.73607000527892 520.5882352941177,96.89125859732655 592.3529411764705,96.77336742711333 664.1176470588235,96.26506951369436 735.8823529411765,95.34097508920166 807.6470588235294,95.41027774235926 879.4117647058824,95.06442480894566 951.1764705882354,96.0337480814216 1022.9411764705882,96.58564393070986 1094.705882352941,93.72977185744571 1166.4705882352941,90.90220623617779 1238.235294117647,90.00000000000006 1310.0,91.64628637590516 1310.0,121.89131567774501 1238.235294117647,119.345662058485 1166.4705882352941,117.50430217535302 1094.705882352941,117.57435632335904 1022.9411764705882,117.27378979928244 951.1764705882354,115.61572251037597 879.4117647058824,113.30630297868697 807.6470588235294,112.15782642374035 735.8823529411765,110.52483964073213 664.1176470588235,109.15993307621426 592.3529411764705,107.94189951551203 520.5882352941177,106.31107401913732 448.8235294117647,105.11441920016557 377.05882352941177,100.78196913911853 305.29411764705884,98.86241633577879 233.52941176470588,96.64406184636948 161.76470588235293,95.23379057076284 90.0,93.65062756578197" fill="#f97316" fill-opacity="0.70" stroke="#f97316" stroke-width="1.2"/>
<rect x="1100" y="76" width="16" height="12" fill="#f97316" fill-opacity="0.70" stroke="#f97316"/>
<text x="1124" y="86" font-family="monospace" font-size="12" fill="#0f172a">BTC</text>
<rect x="1100" y="98" width="16" height="12" fill="#2563eb" fill-opacity="0.70" stroke="#2563eb"/>
<text x="1124" y="108" font-family="monospace" font-size="12" fill="#0f172a">ETH</text>
<rect x="1100" y="120" width="16" height="12" fill="#facc15" fill-opacity="0.70" stroke="#facc15"/>
<text x="1124" y="130" font-family="monospace" font-size="12" fill="#0f172a">DAI</text>
<text x="700.0" y="782" text-anchor="middle" font-family="monospace" font-size="16" fill="#0f172a">time</text>
<text x="24" y="255.0" transform="rotate(-90 24,255.0)" text-anchor="middle" font-family="monospace" font-size="16" fill="#0f172a">asset value split (usd)</text>
<line x1="90" y1="605" x2="1310" y2="605" stroke="#334155" stroke-width="2"/>
<line x1="90" y1="480" x2="90" y2="605" stroke="#334155" stroke-width="2"/>
<line x1="90" y1="542.5" x2="1310" y2="542.5" stroke="#64748b" stroke-width="1.5" stroke-dasharray="6 4"/>
<line x1="90" y1="605.0" x2="1310" y2="605.0" stroke="#e2e8f0" stroke-width="1"/>
<text x="78" y="609.0" text-anchor="end" font-family="monospace" font-size="11" fill="#475569">-75</text>
<line x1="90" y1="542.5" x2="1310" y2="542.5" stroke="#e2e8f0" stroke-width="1"/>
<text x="78" y="546.5" text-anchor="end" font-family="monospace" font-size="11" fill="#475569">0</text>
<line x1="90" y1="480.0" x2="1310" y2="480.0" stroke="#e2e8f0" stroke-width="1"/>
<text x="78" y="484.0" text-anchor="end" font-family="monospace" font-size="11" fill="#475569">75</text>
<rect x="71.36111111111111" y="480.0" width="37.27777777777778" height="62.5" fill="#ea580c" opacity="0.85"><title>2026-01-01 | BTC buy 75.00 usd | reason=budgeted_static_target_rebalance</title></rect>
<rect x="143.12581699346404" y="480.0" width="37.27777777777778" height="62.5" fill="#ea580c" opacity="0.85"><title>2026-01-08 | BTC buy 75.00 usd | reason=budgeted_static_target_rebalance</title></rect>
<rect x="214.890522875817" y="480.0" width="37.27777777777778" height="62.5" fill="#ea580c" opacity="0.85"><title>2026-01-15 | BTC buy 75.00 usd | reason=budgeted_static_target_rebalance</title></rect>
<rect x="286.6552287581699" y="480.0" width="37.27777777777778" height="62.5" fill="#ea580c" opacity="0.85"><title>2026-01-22 | BTC buy 75.00 usd | reason=budgeted_static_target_rebalance</title></rect>
<rect x="358.41993464052285" y="480.0" width="37.27777777777778" height="62.5" fill="#ea580c" opacity="0.85"><title>2026-01-29 | BTC buy 75.00 usd | reason=budgeted_static_target_rebalance</title></rect>
<rect x="430.1846405228758" y="480.0" width="37.27777777777778" height="62.5" fill="#ea580c" opacity="0.85"><title>2026-02-05 | BTC buy 75.00 usd | reason=budgeted_static_target_rebalance</title></rect>
<rect x="501.94934640522877" y="480.0" width="37.27777777777778" height="62.5" fill="#ea580c" opacity="0.85"><title>2026-02-12 | BTC buy 75.00 usd | reason=budgeted_static_target_rebalance</title></rect>
<rect x="573.7140522875816" y="480.0" width="37.27777777777778" height="62.5" fill="#ea580c" opacity="0.85"><title>2026-02-19 | BTC buy 75.00 usd | reason=budgeted_static_target_rebalance</title></rect>
<rect x="645.4787581699346" y="480.0" width="37.27777777777778" height="62.5" fill="#ea580c" opacity="0.85"><title>2026-02-26 | BTC buy 75.00 usd | reason=budgeted_static_target_rebalance</title></rect>
<rect x="717.2434640522875" y="480.0" width="37.27777777777778" height="62.5" fill="#ea580c" opacity="0.85"><title>2026-03-05 | BTC buy 75.00 usd | reason=budgeted_static_target_rebalance</title></rect>
<rect x="789.0081699346405" y="480.0" width="37.27777777777778" height="62.5" fill="#ea580c" opacity="0.85"><title>2026-03-12 | BTC buy 75.00 usd | reason=budgeted_static_target_rebalance</title></rect>
<rect x="860.7728758169935" y="480.0" width="37.27777777777778" height="62.5" fill="#ea580c" opacity="0.85"><title>2026-03-19 | BTC buy 75.00 usd | reason=budgeted_static_target_rebalance</title></rect>
<rect x="932.5375816993464" y="480.0" width="37.27777777777778" height="62.5" fill="#ea580c" opacity="0.85"><title>2026-03-26 | BTC buy 75.00 usd | reason=budgeted_static_target_rebalance</title></rect>
<rect x="1004.3022875816993" y="480.0" width="37.27777777777778" height="62.5" fill="#ea580c" opacity="0.85"><title>2026-04-02 | BTC buy 75.00 usd | reason=budgeted_static_target_rebalance</title></rect>
<rect x="1076.066993464052" y="480.0" width="37.27777777777778" height="62.5" fill="#ea580c" opacity="0.85"><title>2026-04-09 | BTC buy 75.00 usd | reason=budgeted_static_target_rebalance</title></rect>
<rect x="1147.8316993464052" y="480.0" width="37.27777777777778" height="62.5" fill="#ea580c" opacity="0.85"><title>2026-04-16 | BTC buy 75.00 usd | reason=budgeted_static_target_rebalance</title></rect>
<rect x="1219.5964052287582" y="480.0" width="37.27777777777778" height="62.5" fill="#ea580c" opacity="0.85"><title>2026-04-23 | BTC buy 75.00 usd | reason=budgeted_static_target_rebalance</title></rect>
<rect x="1291.361111111111" y="480.0" width="37.27777777777778" height="62.5" fill="#ea580c" opacity="0.85"><title>2026-04-30 | BTC buy 75.00 usd | reason=budgeted_static_target_rebalance</title></rect>
<text x="24" y="542.5" transform="rotate(-90 24,542.5)" text-anchor="middle" font-family="monospace" font-size="14" fill="#0f172a">BTC weekly trade usd</text>
<line x1="90" y1="770" x2="1310" y2="770" stroke="#334155" stroke-width="2"/>
<line x1="90" y1="645" x2="90" y2="770" stroke="#334155" stroke-width="2"/>
<line x1="90" y1="707.5" x2="1310" y2="707.5" stroke="#64748b" stroke-width="1.5" stroke-dasharray="6 4"/>
<line x1="90" y1="770.0" x2="1310" y2="770.0" stroke="#e2e8f0" stroke-width="1"/>
<text x="78" y="774.0" text-anchor="end" font-family="monospace" font-size="11" fill="#475569">-75</text>
<line x1="90" y1="707.5" x2="1310" y2="707.5" stroke="#e2e8f0" stroke-width="1"/>
<text x="78" y="711.5" text-anchor="end" font-family="monospace" font-size="11" fill="#475569">0</text>
<line x1="90" y1="645.0" x2="1310" y2="645.0" stroke="#e2e8f0" stroke-width="1"/>
<text x="78" y="649.0" text-anchor="end" font-family="monospace" font-size="11" fill="#475569">75</text>
<rect x="71.36111111111111" y="645.0" width="37.27777777777778" height="62.5" fill="#2563eb" opacity="0.85"><title>2026-01-01 | ETH buy 75.00 usd | reason=budgeted_static_target_rebalance</title></rect>
<rect x="143.12581699346404" y="645.0" width="37.27777777777778" height="62.5" fill="#2563eb" opacity="0.85"><title>2026-01-08 | ETH buy 75.00 usd | reason=budgeted_static_target_rebalance</title></rect>
<rect x="214.890522875817" y="645.0" width="37.27777777777778" height="62.5" fill="#2563eb" opacity="0.85"><title>2026-01-15 | ETH buy 75.00 usd | reason=budgeted_static_target_rebalance</title></rect>
<rect x="286.6552287581699" y="645.0" width="37.27777777777778" height="62.5" fill="#2563eb" opacity="0.85"><title>2026-01-22 | ETH buy 75.00 usd | reason=budgeted_static_target_rebalance</title></rect>
<rect x="358.41993464052285" y="645.0" width="37.27777777777778" height="62.5" fill="#2563eb" opacity="0.85"><title>2026-01-29 | ETH buy 75.00 usd | reason=budgeted_static_target_rebalance</title></rect>
<rect x="430.1846405228758" y="645.0" width="37.27777777777778" height="62.5" fill="#2563eb" opacity="0.85"><title>2026-02-05 | ETH buy 75.00 usd | reason=budgeted_static_target_rebalance</title></rect>
<rect x="501.94934640522877" y="645.0" width="37.27777777777778" height="62.5" fill="#2563eb" opacity="0.85"><title>2026-02-12 | ETH buy 75.00 usd | reason=budgeted_static_target_rebalance</title></rect>
<rect x="573.7140522875816" y="645.0" width="37.27777777777778" height="62.5" fill="#2563eb" opacity="0.85"><title>2026-02-19 | ETH buy 75.00 usd | reason=budgeted_static_target_rebalance</title></rect>
<rect x="645.4787581699346" y="645.0" width="37.27777777777778" height="62.5" fill="#2563eb" opacity="0.85"><title>2026-02-26 | ETH buy 75.00 usd | reason=budgeted_static_target_rebalance</title></rect>
<rect x="717.2434640522875" y="645.0" width="37.27777777777778" height="62.5" fill="#2563eb" opacity="0.85"><title>2026-03-05 | ETH buy 75.00 usd | reason=budgeted_static_target_rebalance</title></rect>
<rect x="789.0081699346405" y="645.0" width="37.27777777777778" height="62.5" fill="#2563eb" opacity="0.85"><title>2026-03-12 | ETH buy 75.00 usd | reason=budgeted_static_target_rebalance</title></rect>
<rect x="860.7728758169935" y="645.0" width="37.27777777777778" height="62.5" fill="#2563eb" opacity="0.85"><title>2026-03-19 | ETH buy 75.00 usd | reason=budgeted_static_target_rebalance</title></rect>
<rect x="932.5375816993464" y="645.0" width="37.27777777777778" height="62.5" fill="#2563eb" opacity="0.85"><title>2026-03-26 | ETH buy 75.00 usd | reason=budgeted_static_target_rebalance</title></rect>
<rect x="1004.3022875816993" y="645.0" width="37.27777777777778" height="62.5" fill="#2563eb" opacity="0.85"><title>2026-04-02 | ETH buy 75.00 usd | reason=budgeted_static_target_rebalance</title></rect>
<rect x="1076.066993464052" y="645.0" width="37.27777777777778" height="62.5" fill="#2563eb" opacity="0.85"><title>2026-04-09 | ETH buy 75.00 usd | reason=budgeted_static_target_rebalance</title></rect>
<rect x="1147.8316993464052" y="645.0" width="37.27777777777778" height="62.5" fill="#2563eb" opacity="0.85"><title>2026-04-16 | ETH buy 75.00 usd | reason=budgeted_static_target_rebalance</title></rect>
<rect x="1219.5964052287582" y="645.0" width="37.27777777777778" height="62.5" fill="#2563eb" opacity="0.85"><title>2026-04-23 | ETH buy 75.00 usd | reason=budgeted_static_target_rebalance</title></rect>
<rect x="1291.361111111111" y="645.0" width="37.27777777777778" height="62.5" fill="#2563eb" opacity="0.85"><title>2026-04-30 | ETH buy 75.00 usd | reason=budgeted_static_target_rebalance</title></rect>
<text x="24" y="707.5" transform="rotate(-90 24,707.5)" text-anchor="middle" font-family="monospace" font-size="14" fill="#0f172a">ETH weekly trade usd</text>
<rect x="1040" y="478" width="14" height="10" fill="#ea580c" opacity="0.85"/>
<text x="1062" y="488" font-family="monospace" font-size="11" fill="#0f172a">BTC buy</text>
<rect x="1190" y="478" width="14" height="10" fill="#dc2626" opacity="0.85"/>
<text x="1212" y="488" font-family="monospace" font-size="11" fill="#0f172a">BTC sell</text>
<rect x="1040" y="498" width="14" height="10" fill="#2563eb" opacity="0.85"/>
<text x="1062" y="508" font-family="monospace" font-size="11" fill="#0f172a">ETH buy</text>
<rect x="1190" y="498" width="14" height="10" fill="#7c3aed" opacity="0.85"/>
<text x="1212" y="508" font-family="monospace" font-size="11" fill="#0f172a">ETH sell</text>
</svg>