<svg xmlns="http://www.w3.org/2000/svg" width="1400" height="800">
<rect width="1400" height="800" fill="#f8fafc"/>
<text x="700.0" y="42" text-anchor="middle" font-family="monospace" font-size="24" fill="#0f172a">budgeted_drawdown_tilt_rebalance | weekly | start=2024-10-01 | return=4.47%</text>
<line x1="90" y1="420" x2="1310" y2="420" stroke="#334155" stroke-width="2"/>
<line x1="90" y1="90" x2="90" y2="420" stroke="#334155" stroke-width="2"/>
<line x1="90.0" y1="420" x2="90.0" y2="90" stroke="#94a3b8" stroke-width="1.2"/>
<line x1="90.0" y1="605" x2="90.0" y2="480" stroke="#94a3b8" stroke-width="1.2"/>
<line x1="90.0" y1="770" x2="90.0" y2="645" stroke="#94a3b8" stroke-width="1.2"/>
<text x="90.0" y="788" text-anchor="middle" font-family="monospace" font-size="11" fill="#334155">2024-10</text>
<line x1="163.49397590361446" y1="420" x2="163.49397590361446" y2="90" stroke="#94a3b8" stroke-width="1.2"/>
<line x1="163.49397590361446" y1="605" x2="163.49397590361446" y2="480" stroke="#94a3b8" stroke-width="1.2"/>
<line x1="163.49397590361446" y1="770" x2="163.49397590361446" y2="645" stroke="#94a3b8" stroke-width="1.2"/>
<text x="163.49397590361446" y="788" text-anchor="middle" font-family="monospace" font-size="11" fill="#334155">2024-11</text>
<line x1="222.289156626506" y1="420" x2="222.289156626506" y2="90" stroke="#94a3b8" stroke-width="1.2"/>
<line x1="222.289156626506" y1="605" x2="222.289156626506" y2="480" stroke="#94a3b8" stroke-width="1.2"/>
<line x1="222.289156626506" y1="770" x2="222.289156626506" y2="645" stroke="#94a3b8" stroke-width="1.2"/>
<text x="222.289156626506" y="788" text-anchor="middle" font-family="monospace" font-size="11" fill="#334155">2024-12</text>
<line x1="295.7831325301205" y1="420" x2="295.7831325301205" y2="90" stroke="#94a3b8" stroke-width="1.2"/>
<line x1="295.7831325301205" y1="605" x2="295.7831325301205" y2="480" stroke="#94a3b8" stroke-width="1.2"/>
<line x1="295.7831325301205" y1="770" x2="295.7831325301205" y2="645" stroke="#94a3b8" stroke-width="1.2"/>
<text x="295.7831325301205" y="788" text-anchor="middle" font-family="monospace" font-size="11" fill="#334155">2025-01</text>
<line x1="354.578313253012" y1="420" x2="354.578313253012" y2="90" stroke="#94a3b8" stroke-width="1.2"/>
<line x1="354.578313253012" y1="605" x2="354.578313253012" y2="480" stroke="#94a3b8" stroke-width="1.2"/>
<line x1="354.578313253012" y1="770" x2="354.578313253012" y2="645" stroke="#94a3b8" stroke-width="1.2"/>
<text x="354.578313253012" y="788" text-anchor="middle" font-family="monospace" font-size="11" fill="#334155">2025-02</text>
<line x1="413.3734939759036" y1="420" x2="413.3734939759036" y2="90" stroke="#94a3b8" stroke-width="1.2"/>
<line x1="413.3734939759036" y1="605" x2="413.3734939759036" y2="480" stroke="#94a3b8" stroke-width="1.2"/>
<line x1="413.3734939759036" y1="770" x2="413.3734939759036" y2="645" stroke="#94a3b8" stroke-width="1.2"/>
<text x="413.3734939759036" y="788" text-anchor="middle" font-family="monospace" font-size="11" fill="#334155">2025-03</text>
<line x1="472.1686746987952" y1="420" x2="472.1686746987952" y2="90" stroke="#94a3b8" stroke-width="1.2"/>
<line x1="472.1686746987952" y1="605" x2="472.1686746987952" y2="480" stroke="#94a3b8" stroke-width="1.2"/>
<line x1="472.1686746987952" y1="770" x2="472.1686746987952" y2="645" stroke="#94a3b8" stroke-width="1.2"/>
<text x="472.1686746987952" y="788" text-anchor="middle" font-family="monospace" font-size="11" fill="#334155">2025-04</text>
<line x1="545.6626506024096" y1="420" x2="545.6626506024096" y2="90" stroke="#94a3b8" stroke-width="1.2"/>
<line x1="545.6626506024096" y1="605" x2="545.6626506024096" y2="480" stroke="#94a3b8" stroke-width="1.2"/>
<line x1="545.6626506024096" y1="770" x2="545.6626506024096" y2="645" stroke="#94a3b8" stroke-width="1.2"/>
<text x="545.6626506024096" y="788" text-anchor="middle" font-family="monospace" font-size="11" fill="#334155">2025-05</text>
<line x1="604.4578313253012" y1="420" x2="604.4578313253012" y2="90" stroke="#94a3b8" stroke-width="1.2"/>
<line x1="604.4578313253012" y1="605" x2="604.4578313253012" y2="480" stroke="#94a3b8" stroke-width="1.2"/>
<line x1="604.4578313253012" y1="770" x2="604.4578313253012" y2="645" stroke="#94a3b8" stroke-width="1.2"/>
<text x="604.4578313253012" y="788" text-anchor="middle" font-family="monospace" font-size="11" fill="#334155">2025-06</text>
<line x1="663.2530120481928" y1="420" x2="663.2530120481928" y2="90" stroke="#94a3b8" stroke-width="1.2"/>
<line x1="663.2530120481928" y1="605" x2="663.2530120481928" y2="480" stroke="#94a3b8" stroke-width="1.2"/>
<line x1="663.2530120481928" y1="770" x2="663.2530120481928" y2="645" stroke="#94a3b8" stroke-width="1.2"/>
<text x="663.2530120481928" y="788" text-anchor="middle" font-family="monospace" font-size="11" fill="#334155">2025-07</text>
<line x1="736.7469879518072" y1="420" x2="736.7469879518072" y2="90" stroke="#94a3b8" stroke-width="1.2"/>
<line x1="736.7469879518072" y1="605" x2="736.7469879518072" y2="480" stroke="#94a3b8" stroke-width="1.2"/>
<line x1="736.7469879518072" y1="770" x2="736.7469879518072" y2="645" stroke="#94a3b8" stroke-width="1.2"/>
<text x="736.7469879518072" y="788" text-anchor="middle" font-family="monospace" font-size="11" fill="#334155">2025-08</text>
<line x1="795.5421686746988" y1="420" x2="795.5421686746988" y2="90" stroke="#94a3b8" stroke-width="1.2"/>
<line x1="795.5421686746988" y1="605" x2="795.5421686746988" y2="480" stroke="#94a3b8" stroke-width="1.2"/>
<line x1="795.5421686746988" y1="770" x2="795.5421686746988" y2="645" stroke="#94a3b8" stroke-width="1.2"/>
<text x="795.5421686746988" y="788" text-anchor="middle" font-family="monospace" font-size="11" fill="#334155">2025-09</text>
<line x1="869.0361445783132" y1="420" x2="869.0361445783132" y2="90" stroke="#94a3b8" stroke-width="1.2"/>
<line x1="869.0361445783132" y1="605" x2="869.0361445783132" y2="480" stroke="#94a3b8" stroke-width="1.2"/>
<line x1="869.0361445783132" y1="770" x2="869.0361445783132" y2="645" stroke="#94a3b8" stroke-width="1.2"/>
<text x="869.0361445783132" y="788" text-anchor="middle" font-family="monospace" font-size="11" fill="#334155">2025-10</text>
<line x1="927.8313253012049" y1="420" x2="927.8313253012049" y2="90" stroke="#94a3b8" stroke-width="1.2"/>
<line x1="927.8313253012049" y1="605" x2="927.8313253012049" y2="480" stroke="#94a3b8" stroke-width="1.2"/>
<line x1="927.8313253012049" y1="770" x2="927.8313253012049" y2="645" stroke="#94a3b8" stroke-width="1.2"/>
<text x="927.8313253012049" y="788" text-anchor="middle" font-family="monospace" font-size="11" fill="#334155">2025-11</text>
<line x1="986.6265060240964" y1="420" x2="986.6265060240964" y2="90" stroke="#94a3b8" stroke-width="1.2"/>
<line x1="986.6265060240964" y1="605" x2="986.6265060240964" y2="480" stroke="#94a3b8" stroke-width="1.2"/>
<line x1="986.6265060240964" y1="770" x2="986.6265060240964" y2="645" stroke="#94a3b8" stroke-width="1.2"/>
<text x="986.6265060240964" y="788" text-anchor="middle" font-family="monospace" font-size="11" fill="#334155">2025-12</text>
<line x1="1060.120481927711" y1="420" x2="1060.120481927711" y2="90" stroke="#94a3b8" stroke-width="1.2"/>
<line x1="1060.120481927711" y1="605" x2="1060.120481927711" y2="480" stroke="#94a3b8" stroke-width="1.2"/>
<line x1="1060.120481927711" y1="770" x2="1060.120481927711" y2="645" stroke="#94a3b8" stroke-width="1.2"/>
<text x="1060.120481927711" y="788" text-anchor="middle" font-family="monospace" font-size="11" fill="#334155">2026-01</text>
<line x1="1118.9156626506024" y1="420" x2="1118.9156626506024" y2="90" stroke="#94a3b8" stroke-width="1.2"/>
<line x1="1118.9156626506024" y1="605" x2="1118.9156626506024" y2="480" stroke="#94a3b8" stroke-width="1.2"/>
<line x1="1118.9156626506024" y1="770" x2="1118.9156626506024" y2="645" stroke="#94a3b8" stroke-width="1.2"/>
<text x="1118.9156626506024" y="788" text-anchor="middle" font-family="monospace" font-size="11" fill="#334155">2026-02</text>
<line x1="1177.7108433734938" y1="420" x2="1177.7108433734938" y2="90" stroke="#94a3b8" stroke-width="1.2"/>
<line x1="1177.7108433734938" y1="605" x2="1177.7108433734938" y2="480" stroke="#94a3b8" stroke-width="1.2"/>
<line x1="1177.7108433734938" y1="770" x2="1177.7108433734938" y2="645" stroke="#94a3b8" stroke-width="1.2"/>
<text x="1177.7108433734938" y="788" text-anchor="middle" font-family="monospace" font-size="11" fill="#334155">2026-03</text>
<line x1="1251.2048192771083" y1="420" x2="1251.2048192771083" y2="90" stroke="#94a3b8" stroke-width="1.2"/>
<line x1="1251.2048192771083" y1="605" x2="1251.2048192771083" y2="480" stroke="#94a3b8" stroke-width="1.2"/>
<line x1="1251.2048192771083" y1="770" x2="1251.2048192771083" y2="645" stroke="#94a3b8" stroke-width="1.2"/>
<text x="1251.2048192771083" y="788" text-anchor="middle" font-family="monospace" font-size="11" fill="#334155">2026-04</text>
<line x1="1310.0" y1="420" x2="1310.0" y2="90" stroke="#94a3b8" stroke-width="1.2"/>
<line x1="1310.0" y1="605" x2="1310.0" y2="480" stroke="#94a3b8" stroke-width="1.2"/>
<line x1="1310.0" y1="770" x2="1310.0" y2="645" stroke="#94a3b8" stroke-width="1.2"/>
<text x="1310.0" y="788" text-anchor="middle" font-family="monospace" font-size="11" fill="#334155">2026-05</text>
<line x1="90" y1="420.0" x2="1310" y2="420.0" stroke="#cbd5e1" stroke-width="1"/>
<text x="78" y="424.0" text-anchor="end" font-family="monospace" font-size="12" fill="#475569">0</text>
<line x1="90" y1="354.0" x2="1310" y2="354.0" stroke="#cbd5e1" stroke-width="1"/>
<text x="78" y="358.0" text-anchor="end" font-family="monospace" font-size="12" fill="#475569">4090</text>
<line x1="90" y1="288.0" x2="1310" y2="288.0" stroke="#cbd5e1" stroke-width="1"/>
<text x="78" y="292.0" text-anchor="end" font-family="monospace" font-size="12" fill="#475569">8180</text>
<line x1="90" y1="222.0" x2="1310" y2="222.0" stroke="#cbd5e1" stroke-width="1"/>
<text x="78" y="226.0" text-anchor="end" font-family="monospace" font-size="12" fill="#475569">12270</text>
<line x1="90" y1="156.0" x2="1310" y2="156.0" stroke="#cbd5e1" stroke-width="1"/>
<text x="78" y="160.0" text-anchor="end" font-family="monospace" font-size="12" fill="#475569">16360</text>
<line x1="90" y1="90.0" x2="1310" y2="90.0" stroke="#cbd5e1" stroke-width="1"/>
<text x="78" y="94.0" text-anchor="end" font-family="monospace" font-size="12" fill="#475569">20450</text>
<polygon points="90.0,181.17277564515825 104.6987951807229,184.40017056887237 119.3975903614458,187.62756549258643 134.09638554216866,190.85496041630051 148.7951807228916,194.08235534001457 163.49397590361446,197.30975026372866 178.19277108433735,199.1251599083178 192.89156626506025,200.940569552907 207.59036144578315,202.75597919749615 222.289156626506,202.75597919749615 236.9879518072289,202.75597919749615 251.6867469879518,202.75597919749615 266.3855421686747,202.75597919749615 281.08433734939763,204.57138884208533 295.7831325301205,206.3867984866745 310.48192771084337,208.20220813126366 325.1807228915663,210.01761777585284 339.87951807228916,211.833027420442 354.578313253012,215.06042234415608 369.27710843373495,218.28781726787014 383.9759036144578,221.51521219158423 398.6746987951807,224.74260711529828 413.3734939759036,227.9700020390124 428.07228915662654,232.00424569365498 442.7710843373494,236.0384893482976 457.46987951807233,239.26588427201165 472.1686746987952,243.30012792665426 486.86746987951807,247.33437158129686 501.56626506024094,251.36861523593944 516.2650602409639,255.40285889058205 530.9638554216867,259.43710254522466 545.6626506024096,263.47134619986724 560.3614457831326,266.6987411235813 575.0602409638554,269.92613604729536 589.7590361445783,273.15353097100945 604.4578313253012,276.38092589472353 619.156626506024,279.6083208184376 633.8554216867469,282.8357157421517 648.5542168674699,286.0631106658658 663.2530120481928,289.2905055895799 677.9518072289156,292.51790051329397 692.6506024096385,294.33331015788315 707.3493975903614,290.8574844100591 722.0481927710844,287.32424101396015 736.7469879518072,284.8803770168409 751.4457831325301,279.4856882132831 766.1445783132531,276.8152811134349 780.843373493976,271.7407754474557 795.5421686746988,268.74409946720357 810.2409638554217,266.2753193551839 824.9397590361447,263.8066473290587 839.6385542168674,262.78092461675885 854.3373493975904,262.24194738387934 869.0361445783132,261.03410971178437 883.7349397590361,260.5698548642134 898.4337349397591,262.3852645088026 913.1325301204819,264.2006741533918 927.8313253012049,267.4280690771059 942.5301204819277,270.6554640008199 957.2289156626506,273.882858924534 971.9277108433735,277.110253848248 986.6265060240964,280.3376487719621 1001.3253012048192,283.5650436956762 1016.0240963855422,286.7924386193903 1030.7228915662652,290.01983354310437 1045.421686746988,293.24722846681846 1060.120481927711,296.47462339053254 1074.8192771084337,299.70201831424663 1089.5180722891566,302.92941323796066 1104.2168674698796,306.15680816167475 1118.9156626506024,310.1910518163173 1133.6144578313254,314.22529547095996 1148.313253012048,318.25953912560254 1163.012048192771,322.2937827802451 1177.7108433734938,326.32802643488776 1192.4096385542168,330.36227008953034 1207.1084337349398,334.3965137441729 1221.8072289156626,338.43075739881556 1236.5060240963855,342.46500105345814 1251.2048192771083,346.4992447081007 1265.9036144578313,350.5334883627433 1280.6024096385543,354.5677320173859 1295.301204819277,358.6019756720285 1310.0,362.6362193266711 1310.0,420.0 1295.301204819277,420.0 1280.6024096385543,420.0 1265.9036144578313,420.0 1251.2048192771083,420.0 1236.5060240963855,420.0 1221.8072289156626,420.0 1207.1084337349398,420.0 1192.4096385542168,420.0 1177.7108433734938,420.0 1163.012048192771,420.0 1148.313253012048,420.0 1133.6144578313254,420.0 1118.9156626506024,420.0 1104.2168674698796,420.0 1089.5180722891566,420.0 1074.8192771084337,420.0 1060.120481927711,420.0 1045.421686746988,420.0 1030.7228915662652,420.0 1016.0240963855422,420.0 1001.3253012048192,420.0 986.6265060240964,420.0 971.9277108433735,420.0 957.2289156626506,420.0 942.5301204819277,420.0 927.8313253012049,420.0 913.1325301204819,420.0 898.4337349397591,420.0 883.7349397590361,420.0 869.0361445783132,420.0 854.3373493975904,420.0 839.6385542168674,420.0 824.9397590361447,420.0 810.2409638554217,420.0 795.5421686746988,420.0 780.843373493976,420.0 766.1445783132531,420.0 751.4457831325301,420.0 736.7469879518072,420.0 722.0481927710844,420.0 707.3493975903614,420.0 692.6506024096385,420.0 677.9518072289156,420.0 663.2530120481928,420.0 648.5542168674699,420.0 633.8554216867469,420.0 619.156626506024,420.0 604.4578313253012,420.0 589.7590361445783,420.0 575.0602409638554,420.0 560.3614457831326,420.0 545.6626506024096,420.0 530.9638554216867,420.0 516.2650602409639,420.0 501.56626506024094,420.0 486.86746987951807,420.0 472.1686746987952,420.0 457.46987951807233,420.0 442.7710843373494,420.0 428.07228915662654,420.0 413.3734939759036,420.0 398.6746987951807,420.0 383.9759036144578,420.0 369.27710843373495,420.0 354.578313253012,420.0 339.87951807228916,420.0 325.1807228915663,420.0 310.48192771084337,420.0 295.7831325301205,420.0 281.08433734939763,420.0 266.3855421686747,420.0 251.6867469879518,420.0 236.9879518072289,420.0 222.289156626506,420.0 207.59036144578315,420.0 192.89156626506025,420.0 178.19277108433735,420.0 163.49397590361446,420.0 148.7951807228916,420.0 134.09638554216866,420.0 119.3975903614458,420.0 104.6987951807229,420.0 90.0,420.0" fill="#facc15" fill-opacity="0.70" stroke="#facc15" stroke-width="1.2"/>
<polygon points="90.0,179.1890929123508 104.6987951807229,180.40675250263965 119.3975903614458,181.30170243715264 134.09638554216866,182.43429270148195 148.7951807228916,183.43554694515288 163.49397590361446,185.34990186048876 178.19277108433735,182.0089965409976 192.89156626506025,183.41790317278128 207.59036144578315,183.03123199630724 222.289156626506,181.28692594384916 236.9879518072289,181.21125942857685 251.6867469879518,179.64926516821012 266.3855421686747,182.0374190827776 281.08433734939763,183.844518763603 295.7831325301205,184.36674477885614 310.48192771084337,186.1868614056083 325.1807228915663,186.22223112993382 339.87951807228916,188.74908074923664 354.578313253012,192.54189386939134 369.27710843373495,194.8042139249491 383.9759036144578,195.4056864816138 398.6746987951807,198.40435898818959 413.3734939759036,202.9502747752557 428.07228915662654,207.2161961035305 442.7710843373494,208.52890837137647 457.46987951807233,207.71547425310783 472.1686746987952,211.54104996949377 486.86746987951807,220.07174669561698 501.56626506024094,219.13813161654113 516.2650602409639,216.93270057470127 530.9638554216867,217.24066563227933 545.6626506024096,218.00860839138727 560.3614457831326,197.53103874880745 575.0602409638554,202.54415161413513 589.7590361445783,200.00027522449054 604.4578313253012,202.97748530576925 619.156626506024,197.8678226794096 633.8554216867469,207.85693975250163 648.5542168674699,210.7408389685285 663.2530120481928,213.16609525178694 677.9518072289156,207.57568301484807 692.6506024096385,191.37279305220645 707.3493975903614,171.338210195588 722.0481927710844,169.91046529231053 736.7469879518072,175.53848944991782 751.4457831325301,145.9197192127089 766.1445783132531,160.87687983708366 780.843373493976,145.9219584650541 795.5421686746988,153.4429687977505 810.2409638554217,153.88641726023695 824.9397590361447,148.85960507144432 839.6385542168674,157.4757190102738 854.3373493975904,157.96113742999643 869.0361445783132,150.3196445966588 883.7349397590361,158.36633549577408 898.4337349397591,165.45049444853225 913.1325301204819,163.64036652932919 927.8313253012049,182.57364721540992 942.5301204819277,180.63042363355893 957.2289156626506,189.8525564695351 971.9277108433735,195.7274030750944 986.6265060240964,196.10063646868306 1001.3253012048192,188.57659705087352 1016.0240963855422,200.24951516255894 1030.7228915662652,201.69563034485367 1045.421686746988,202.93208538921974 1060.120481927711,194.5471842922263 1074.8192771084337,195.17729913712583 1089.5180722891566,208.7971050465329 1104.2168674698796,207.52921654663885 1118.9156626506024,235.08421025215065 1133.6144578313254,243.8625563250306 1148.313253012048,246.69446491370277 1163.012048192771,253.44134092708603 1177.7108433734938,250.3133450345824 1192.4096385542168,249.9819308226704 1207.1084337349398,240.67264809765845 1221.8072289156626,249.0180764517367 1236.5060240963855,252.96501215923507 1251.2048192771083,248.96499853171923 1265.9036144578313,247.09883930732784 1280.6024096385543,248.65638187905705 1295.301204819277,252.15610901096818 1310.0,250.5391675618952 1310.0,362.6362193266711 1295.301204819277,358.6019756720285 1280.6024096385543,354.5677320173859 1265.9036144578313,350.5334883627433 1251.2048192771083,346.4992447081007 1236.5060240963855,342.46500105345814 1221.8072289156626,338.43075739881556 1207.1084337349398,334.3965137441729 1192.4096385542168,330.36227008953034 1177.7108433734938,326.32802643488776 1163.012048192771,322.2937827802451 1148.313253012048,318.25953912560254 1133.6144578313254,314.22529547095996 1118.9156626506024,310.1910518163173 1104.2168674698796,306.15680816167475 1089.5180722891566,302.92941323796066 1074.8192771084337,299.70201831424663 1060.120481927711,296.47462339053254 1045.421686746988,293.24722846681846 1030.7228915662652,290.01983354310437 1016.0240963855422,286.7924386193903 1001.3253012048192,283.5650436956762 986.6265060240964,280.3376487719621 971.9277108433735,277.110253848248 957.2289156626506,273.882858924534 942.5301204819277,270.6554640008199 927.8313253012049,267.4280690771059 913.1325301204819,264.2006741533918 898.4337349397591,262.3852645088026 883.7349397590361,260.5698548642134 869.0361445783132,261.03410971178437 854.3373493975904,262.24194738387934 839.6385542168674,262.78092461675885 824.9397590361447,263.8066473290587 810.2409638554217,266.2753193551839 795.5421686746988,268.74409946720357 780.843373493976,271.7407754474557 766.1445783132531,276.8152811134349 751.4457831325301,279.4856882132831 736.7469879518072,284.8803770168409 722.0481927710844,287.32424101396015 707.3493975903614,290.8574844100591 692.6506024096385,294.33331015788315 677.9518072289156,292.51790051329397 663.2530120481928,289.2905055895799 648.5542168674699,286.0631106658658 633.8554216867469,282.8357157421517 619.156626506024,279.6083208184376 604.4578313253012,276.38092589472353 589.7590361445783,273.15353097100945 575.0602409638554,269.92613604729536 560.3614457831326,266.6987411235813 545.6626506024096,263.47134619986724 530.9638554216867,259.43710254522466 516.2650602409639,255.40285889058205 501.56626506024094,251.36861523593944 486.86746987951807,247.33437158129686 472.1686746987952,243.30012792665426 457.46987951807233,239.26588427201165 442.7710843373494,236.0384893482976 428.07228915662654,232.00424569365498 413.3734939759036,227.9700020390124 398.6746987951807,224.74260711529828 383.9759036144578,221.51521219158423 369.27710843373495,218.28781726787014 354.578313253012,215.06042234415608 339.87951807228916,211.833027420442 325.1807228915663,210.01761777585284 310.48192771084337,208.20220813126366 295.7831325301205,206.3867984866745 281.08433734939763,204.57138884208533 266.3855421686747,202.75597919749615 251.6867469879518,202.75597919749615 236.9879518072289,202.75597919749615 222.289156626506,202.75597919749615 207.59036144578315,202.75597919749615 192.89156626506025,200.940569552907 178.19277108433735,199.1251599083178 163.49397590361446,197.30975026372866 148.7951807228916,194.08235534001457 134.09638554216866,190.85496041630051 119.3975903614458,187.62756549258643 104.6987951807229,184.40017056887237 90.0,181.17277564515825" fill="#2563eb" fill-opacity="0.70" stroke="#2563eb" stroke-width="1.2"/>
<polygon points="90.0,177.9453807214442 104.6987951807229,177.92466926289953 119.3975903614458,177.45388446609942 134.09638554216866,177.40083731477932 148.7951807228916,176.94695484676117 163.49397590361446,178.11551679537305 178.19277108433735,172.09707362140492 192.89156626506025,172.31590333251512 207.59036144578315,171.18306878703302 222.289156626506,168.92387736630494 236.9879518072289,168.75332196459638 251.6867469879518,165.97000189700148 266.3855421686747,169.3302590981645 281.08433734939763,170.95998634536446 295.7831325301205,170.15381439962238 310.48192771084337,171.2317962619122 325.1807228915663,169.0333651269112 339.87951807228916,171.62031845071203 354.578313253012,174.79277030958676 369.27710843373495,176.23139046988217 383.9759036144578,175.6449521557652 398.6746987951807,178.83904742350992 413.3734939759036,182.53057611885868 428.07228915662654,186.40157247067486 442.7710843373494,186.3504243579134 457.46987951807233,183.15160066327618 472.1686746987952,186.25354070073135 486.86746987951807,196.1229611185869 501.56626506024094,191.64420075047002 516.2650602409639,184.98716962959466 530.9638554216867,183.81765305263207 545.6626506024096,182.46483180932776 560.3614457831326,158.2007146483121 575.0602409638554,161.1573779367671 589.7590361445783,156.69044394983234 604.4578313253012,159.9350231007307 619.156626506024,151.6897903882055 633.8554216867469,162.95517289196584 648.5542168674699,164.10610980331714 663.2530120481928,165.66440267922388 677.9518072289156,157.52156092950804 692.6506024096385,136.53854224632175 707.3493975903614,115.4588828436132 722.0481927710844,115.00556597482591 736.7469879518072,122.41222868041774 751.4457831325301,89.99999999999994 766.1445783132531,108.33571444444203 780.843373493976,93.87809341587712 795.5421686746988,101.65053796049938 810.2409638554217,101.95367638393492 824.9397590361447,94.46720658443417 839.6385542168674,105.32514793896371 854.3373493975904,104.8559385297865 869.0361445783132,93.8036519460469 883.7349397590361,105.72656014437149 898.4337349397591,114.15449742255424 913.1325301204819,109.35933043477587 927.8313253012049,132.39334748637015 942.5301204819277,128.2658605185335 957.2289156626506,141.16548628619864 971.9277108433735,148.49729250914464 986.6265060240964,145.28304092993778 1001.3253012048192,135.46701687123362 1016.0240963855422,148.44453670147652 1030.7228915662652,148.6689600253427 1045.421686746988,147.8560842298674 1060.120481927711,134.6519103309542 1074.8192771084337,132.7301280135161 1089.5180722891566,149.52905832567603 1104.2168674698796,146.24998552513722 1118.9156626506024,181.33262814306923 1133.6144578313254,193.234489879831 1148.313253012048,195.2929976242867 1163.012048192771,202.87487286912634 1177.7108433734938,194.63879892933065 1192.4096385542168,191.24756935290262 1207.1084337349398,176.8134037446992 1221.8072289156626,186.31970401326151 1236.5060240963855,190.5294458598667 1251.2048192771083,181.36470468967443 1265.9036144578313,175.57814463394666 1280.6024096385543,173.28959695449086 1295.301204819277,175.08088824420093 1310.0,167.1345440377308 1310.0,250.5391675618952 1295.301204819277,252.15610901096818 1280.6024096385543,248.65638187905705 1265.9036144578313,247.09883930732784 1251.2048192771083,248.96499853171923 1236.5060240963855,252.96501215923507 1221.8072289156626,249.0180764517367 1207.1084337349398,240.67264809765845 1192.4096385542168,249.9819308226704 1177.7108433734938,250.3133450345824 1163.012048192771,253.44134092708603 1148.313253012048,246.69446491370277 1133.6144578313254,243.8625563250306 1118.9156626506024,235.08421025215065 1104.2168674698796,207.52921654663885 1089.5180722891566,208.7971050465329 1074.8192771084337,195.17729913712583 1060.120481927711,194.5471842922263 1045.421686746988,202.93208538921974 1030.7228915662652,201.69563034485367 1016.0240963855422,200.24951516255894 1001.3253012048192,188.57659705087352 986.6265060240964,196.10063646868306 971.9277108433735,195.7274030750944 957.2289156626506,189.8525564695351 942.5301204819277,180.63042363355893 927.8313253012049,182.57364721540992 913.1325301204819,163.64036652932919 898.4337349397591,165.45049444853225 883.7349397590361,158.36633549577408 869.0361445783132,150.3196445966588 854.3373493975904,157.96113742999643 839.6385542168674,157.4757190102738 824.9397590361447,148.85960507144432 810.2409638554217,153.88641726023695 795.5421686746988,153.4429687977505 780.843373493976,145.9219584650541 766.1445783132531,160.87687983708366 751.4457831325301,145.9197192127089 736.7469879518072,175.53848944991782 722.0481927710844,169.91046529231053 707.3493975903614,171.338210195588 692.6506024096385,191.37279305220645 677.9518072289156,207.57568301484807 663.2530120481928,213.16609525178694 648.5542168674699,210.7408389685285 633.8554216867469,207.85693975250163 619.156626506024,197.8678226794096 604.4578313253012,202.97748530576925 589.7590361445783,200.00027522449054 575.0602409638554,202.54415161413513 560.3614457831326,197.53103874880745 545.6626506024096,218.00860839138727 530.9638554216867,217.24066563227933 516.2650602409639,216.93270057470127 501.56626506024094,219.13813161654113 486.86746987951807,220.07174669561698 472.1686746987952,211.54104996949377 457.46987951807233,207.71547425310783 442.7710843373494,208.52890837137647 428.07228915662654,207.2161961035305 413.3734939759036,202.9502747752557 398.6746987951807,198.40435898818959 383.9759036144578,195.4056864816138 369.27710843373495,194.8042139249491 354.578313253012,192.54189386939134 339.87951807228916,188.74908074923664 325.1807228915663,186.22223112993382 310.48192771084337,186.1868614056083 295.7831325301205,184.36674477885614 281.08433734939763,183.844518763603 266.3855421686747,182.0374190827776 251.6867469879518,179.64926516821012 236.9879518072289,181.21125942857685 222.289156626506,181.28692594384916 207.59036144578315,183.03123199630724 192.89156626506025,183.41790317278128 178.19277108433735,182.0089965409976 163.49397590361446,185.34990186048876 148.7951807228916,183.43554694515288 134.09638554216866,182.43429270148195 119.3975903614458,181.30170243715264 104.6987951807229,180.40675250263965 90.0,179.1890929123508" fill="#f97316" fill-opacity="0.70" stroke="#f97316" stroke-width="1.2"/>
<rect x="1100" y="76" width="16" height="12" fill="#f97316" fill-opacity="0.70" stroke="#f97316"/>
<text x="1124" y="86" font-family="monospace" font-size="12" fill="#0f172a">BTC</text>
<rect x="1100" y="98" width="16" height="12" fill="#2563eb" fill-opacity="0.70" stroke="#2563eb"/>
<text x="1124" y="108" font-family="monospace" font-size="12" fill="#0f172a">ETH</text>
<rect x="1100" y="120" width="16" height="12" fill="#facc15" fill-opacity="0.70" stroke="#facc15"/>
<text x="1124" y="130" font-family="monospace" font-size="12" fill="#0f172a">DAI</text>
<text x="700.0" y="782" text-anchor="middle" font-family="monospace" font-size="16" fill="#0f172a">time</text>
<text x="24" y="255.0" transform="rotate(-90 24,255.0)" text-anchor="middle" font-family="monospace" font-size="16" fill="#0f172a">asset value split (usd)</text>
<line x1="90" y1="605" x2="1310" y2="605" stroke="#334155" stroke-width="2"/>
<line x1="90" y1="480" x2="90" y2="605" stroke="#334155" stroke-width="2"/>
<line x1="90" y1="542.5" x2="1310" y2="542.5" stroke="#64748b" stroke-width="1.5" stroke-dasharray="6 4"/>
<line x1="90" y1="605.0" x2="1310" y2="605.0" stroke="#e2e8f0" stroke-width="1"/>
<text x="78" y="609.0" text-anchor="end" font-family="monospace" font-size="11" fill="#475569">-111</text>
<line x1="90" y1="542.5" x2="1310" y2="542.5" stroke="#e2e8f0" stroke-width="1"/>
<text x="78" y="546.5" text-anchor="end" font-family="monospace" font-size="11" fill="#475569">0</text>
<line x1="90" y1="480.0" x2="1310" y2="480.0" stroke="#e2e8f0" stroke-width="1"/>
<text x="78" y="484.0" text-anchor="end" font-family="monospace" font-size="11" fill="#475569">111</text>
<rect x="86.00595238095238" y="499.1239339678457" width="7.988095238095239" height="43.37606603215431" fill="#ea580c" opacity="0.85"><title>2024-10-01 | BTC buy 77.07 usd | reason=medium_drawdown_eth_tilt</title></rect>
<rect x="100.70474756167528" y="500.26066206436485" width="7.988095238095239" height="42.23933793563515" fill="#ea580c" opacity="0.85"><title>2024-10-08 | BTC buy 75.05 usd | reason=medium_drawdown_eth_tilt</title></rect>
<rect x="115.40354274239817" y="501.74448389933815" width="7.988095238095239" height="40.75551610066185" fill="#ea580c" opacity="0.85"><title>2024-10-15 | BTC buy 72.42 usd | reason=medium_drawdown_eth_tilt</title></rect>
<rect x="130.10233792312104" y="501.7967338275979" width="7.988095238095239" height="40.703266172402095" fill="#ea580c" opacity="0.85"><title>2024-10-22 | BTC buy 72.32 usd | reason=medium_drawdown_eth_tilt</title></rect>
<rect x="144.80113310384397" y="505.67388972890865" width="7.988095238095239" height="36.82611027109135" fill="#ea580c" opacity="0.85"><title>2024-10-29 | BTC buy 65.43 usd | reason=medium_drawdown_eth_tilt</title></rect>
<rect x="159.49992828456683" y="506.08509039728415" width="7.988095238095239" height="36.41490960271585" fill="#ea580c" opacity="0.85"><title>2024-11-05 | BTC buy 64.70 usd | reason=medium_drawdown_eth_tilt</title></rect>
<rect x="174.19872346528973" y="516.9567057240549" width="7.988095238095239" height="25.543294275945073" fill="#ea580c" opacity="0.85"><title>2024-11-12 | BTC buy 45.39 usd | reason=neutral_drawdown_eth_tilt</title></rect>
<rect x="188.89751864601263" y="518.2739377664946" width="7.988095238095239" height="24.226062233505445" fill="#ea580c" opacity="0.85"><title>2024-11-19 | BTC buy 43.05 usd | reason=neutral_drawdown_eth_tilt</title></rect>
<rect x="203.59631382673552" y="514.3555856530253" width="7.988095238095239" height="28.144414346974713" fill="#ea580c" opacity="0.85"><title>2024-11-26 | BTC buy 50.01 usd | reason=neutral_drawdown_eth_tilt</title></rect>
<rect x="218.2951090074584" y="542.5" width="7.988095238095239" height="1.5" fill="#ea580c" opacity="0.85"><title>2024-12-03 | BTC buy 0.00 usd | reason=both_assets_expensive_eth_tilt</title></rect>
<rect x="232.9939041881813" y="542.5" width="7.988095238095239" height="1.5" fill="#ea580c" opacity="0.85"><title>2024-12-10 | BTC buy 0.00 usd | reason=both_assets_expensive_eth_tilt</title></rect>
<rect x="247.6926993689042" y="542.5" width="7.988095238095239" height="1.5" fill="#ea580c" opacity="0.85"><title>2024-12-17 | BTC buy 0.00 usd | reason=both_assets_expensive_eth_tilt</title></rect>
<rect x="262.3914945496271" y="542.5" width="7.988095238095239" height="1.5" fill="#ea580c" opacity="0.85"><title>2024-12-24 | BTC buy 0.00 usd | reason=both_assets_expensive_eth_tilt</title></rect>
<rect x="277.09028973035004" y="512.7591729780247" width="7.988095238095239" height="29.740827021975292" fill="#ea580c" opacity="0.85"><title>2024-12-31 | BTC buy 52.84 usd | reason=neutral_drawdown_eth_tilt</title></rect>
<rect x="291.7890849110729" y="513.4402504527287" width="7.988095238095239" height="29.05974954727128" fill="#ea580c" opacity="0.85"><title>2025-01-07 | BTC buy 51.63 usd | reason=neutral_drawdown_eth_tilt</title></rect>
<rect x="306.4878800917958" y="514.5358744323795" width="7.988095238095239" height="27.9641255676205" fill="#ea580c" opacity="0.85"><title>2025-01-14 | BTC buy 49.69 usd | reason=neutral_drawdown_eth_tilt</title></rect>
<rect x="321.1866752725187" y="516.5932873007213" width="7.988095238095239" height="25.906712699278728" fill="#ea580c" opacity="0.85"><title>2025-01-21 | BTC buy 46.03 usd | reason=neutral_drawdown_eth_tilt</title></rect>
<rect x="335.88547045324157" y="517.0993673614439" width="7.988095238095239" height="25.40063263855609" fill="#ea580c" opacity="0.85"><title>2025-01-28 | BTC buy 45.13 usd | reason=neutral_drawdown_eth_tilt</title></rect>
<rect x="350.58426563396443" y="500.2516022123905" width="7.988095238095239" height="42.24839778760952" fill="#ea580c" opacity="0.85"><title>2025-02-04 | BTC buy 75.07 usd | reason=medium_drawdown_eth_tilt</title></rect>
<rect x="365.28306081468736" y="500.98005886960755" width="7.988095238095239" height="41.51994113039245" fill="#ea580c" opacity="0.85"><title>2025-02-11 | BTC buy 73.77 usd | reason=medium_drawdown_eth_tilt</title></rect>
<rect x="379.9818559954102" y="499.9427660524336" width="7.988095238095239" height="42.557233947566374" fill="#ea580c" opacity="0.85"><title>2025-02-18 | BTC buy 75.62 usd | reason=medium_drawdown_eth_tilt</title></rect>
<rect x="394.6806511761331" y="498.6859245118728" width="7.988095238095239" height="43.81407548812717" fill="#ea580c" opacity="0.85"><title>2025-02-25 | BTC buy 77.85 usd | reason=medium_drawdown_eth_tilt</title></rect>
<rect x="409.379446356856" y="502.42796737177787" width="7.988095238095239" height="40.07203262822213" fill="#ea580c" opacity="0.85"><title>2025-03-04 | BTC buy 71.20 usd | reason=medium_drawdown_eth_tilt</title></rect>
<rect x="424.07824153757895" y="493.339091355178" width="7.988095238095239" height="49.16090864482197" fill="#ea580c" opacity="0.85"><title>2025-03-11 | BTC buy 87.35 usd | reason=deep_drawdown_eth_tilt</title></rect>
<rect x="438.7770367183018" y="493.04466689180686" width="7.988095238095239" height="49.455333108193145" fill="#ea580c" opacity="0.85"><title>2025-03-18 | BTC buy 87.87 usd | reason=deep_drawdown_eth_tilt</title></rect>
<rect x="453.47583189902474" y="503.5391647242636" width="7.988095238095239" height="38.96083527573637" fill="#ea580c" opacity="0.85"><title>2025-03-25 | BTC buy 69.23 usd | reason=medium_drawdown_eth_tilt</title></rect>
<rect x="468.1746270797476" y="495.1411656635557" width="7.988095238095239" height="47.35883433644432" fill="#ea580c" opacity="0.85"><title>2025-04-01 | BTC buy 84.15 usd | reason=deep_drawdown_eth_tilt</title></rect>
<rect x="482.8734222604705" y="496.8367571397308" width="7.988095238095239" height="45.66324286026918" fill="#ea580c" opacity="0.85"><title>2025-04-08 | BTC buy 81.14 usd | reason=deep_drawdown_eth_tilt</title></rect>
<rect x="497.57221744119335" y="499.67711478212254" width="7.988095238095239" height="42.822885217877456" fill="#ea580c" opacity="0.85"><title>2025-04-15 | BTC buy 76.09 usd | reason=deep_drawdown_eth_tilt</title></rect>
<rect x="512.2710126219163" y="500.2901654981727" width="7.988095238095239" height="42.20983450182729" fill="#ea580c" opacity="0.85"><title>2025-04-22 | BTC buy 75.00 usd | reason=deep_drawdown_eth_tilt</title></rect>
<rect x="526.9698078026391" y="500.2901654981727" width="7.988095238095239" height="42.20983450182729" fill="#ea580c" opacity="0.85"><title>2025-04-29 | BTC buy 75.00 usd | reason=deep_drawdown_eth_tilt</title></rect>
<rect x="541.668602983362" y="500.2901654981727" width="7.988095238095239" height="42.20983450182729" fill="#ea580c" opacity="0.85"><title>2025-05-06 | BTC buy 75.00 usd | reason=deep_drawdown_eth_tilt</title></rect>
<rect x="556.367398164085" y="503.7825178454457" width="7.988095238095239" height="38.71748215455432" fill="#ea580c" opacity="0.85"><title>2025-05-13 | BTC buy 68.79 usd | reason=medium_drawdown_eth_tilt</title></rect>
<rect x="571.0661933448079" y="507.03253714062885" width="7.988095238095239" height="35.46746285937115" fill="#ea580c" opacity="0.85"><title>2025-05-20 | BTC buy 63.02 usd | reason=medium_drawdown_eth_tilt</title></rect>
<rect x="585.7649885255307" y="503.7260281474057" width="7.988095238095239" height="38.773971852594286" fill="#ea580c" opacity="0.85"><title>2025-05-27 | BTC buy 68.90 usd | reason=medium_drawdown_eth_tilt</title></rect>
<rect x="600.4637837062536" y="502.88872097810787" width="7.988095238095239" height="39.61127902189213" fill="#ea580c" opacity="0.85"><title>2025-06-03 | BTC buy 70.38 usd | reason=medium_drawdown_eth_tilt</title></rect>
<rect x="615.1625788869765" y="502.2222870472849" width="7.988095238095239" height="40.27771295271509" fill="#ea580c" opacity="0.85"><title>2025-06-10 | BTC buy 71.57 usd | reason=medium_drawdown_eth_tilt</title></rect>
<rect x="629.8613740676993" y="503.64133879035734" width="7.988095238095239" height="38.85866120964266" fill="#ea580c" opacity="0.85"><title>2025-06-17 | BTC buy 69.05 usd | reason=medium_drawdown_eth_tilt</title></rect>
<rect x="644.5601692484223" y="505.2768601009928" width="7.988095238095239" height="37.22313989900721" fill="#ea580c" opacity="0.85"><title>2025-06-24 | BTC buy 66.14 usd | reason=medium_drawdown_eth_tilt</title></rect>
<rect x="659.2589644291452" y="505.6864023084244" width="7.988095238095239" height="36.81359769157558" fill="#ea580c" opacity="0.85"><title>2025-07-01 | BTC buy 65.41 usd | reason=medium_drawdown_eth_tilt</title></rect>
<rect x="673.957759609868" y="504.35512658054506" width="7.988095238095239" height="38.14487341945494" fill="#ea580c" opacity="0.85"><title>2025-07-08 | BTC buy 67.78 usd | reason=medium_drawdown_eth_tilt</title></rect>
<rect x="688.6565547905909" y="517.1566499456078" width="7.988095238095239" height="25.343350054392204" fill="#ea580c" opacity="0.85"><title>2025-07-15 | BTC buy 45.03 usd | reason=neutral_drawdown_eth_tilt</title></rect>
<rect x="703.3553499713138" y="542.5" width="7.988095238095239" height="1.5" fill="#ea580c" opacity="0.85"><title>2025-07-22 | BTC buy 0.00 usd | reason=both_assets_expensive_eth_tilt</title></rect>
<rect x="718.0541451520368" y="542.5" width="7.988095238095239" height="1.5" fill="#ea580c" opacity="0.85"><title>2025-07-29 | BTC buy 0.00 usd | reason=both_assets_expensive_eth_tilt</title></rect>
<rect x="732.7529403327596" y="542.5" width="7.988095238095239" height="1.5" fill="#ea580c" opacity="0.85"><title>2025-08-05 | BTC buy 0.00 usd | reason=both_assets_expensive_eth_tilt</title></rect>
<rect x="747.4517355134825" y="542.5" width="7.988095238095239" height="1.5" fill="#ea580c" opacity="0.85"><title>2025-08-12 | BTC buy 0.00 usd | reason=both_assets_expensive</title></rect>
<rect x="762.1505306942055" y="542.5" width="7.988095238095239" height="1.5" fill="#ea580c" opacity="0.85"><title>2025-08-19 | BTC buy 0.00 usd | reason=both_assets_expensive_eth_tilt</title></rect>
<rect x="776.8493258749284" y="542.5" width="7.988095238095239" height="1.5" fill="#ea580c" opacity="0.85"><title>2025-08-26 | BTC buy 0.00 usd | reason=both_assets_expensive_btc_tilt</title></rect>
<rect x="791.5481210556512" y="542.5" width="7.988095238095239" height="1.5" fill="#ea580c" opacity="0.85"><title>2025-09-02 | BTC buy 0.00 usd | reason=both_assets_expensive_eth_tilt</title></rect>
<rect x="806.2469162363741" y="542.5" width="7.988095238095239" height="1.5" fill="#ea580c" opacity="0.85"><title>2025-09-09 | BTC buy 0.00 usd | reason=both_assets_expensive_eth_tilt</title></rect>
<rect x="820.9457114170971" y="542.5" width="7.988095238095239" height="1.5" fill="#ea580c" opacity="0.85"><title>2025-09-16 | BTC buy 0.00 usd | reason=both_assets_expensive_eth_tilt</title></rect>
<rect x="835.6445065978198" y="542.5" width="7.988095238095239" height="1.5" fill="#ea580c" opacity="0.85"><title>2025-09-23 | BTC buy 0.00 usd | reason=both_assets_expensive_eth_tilt</title></rect>
<rect x="850.3433017785428" y="542.5" width="7.988095238095239" height="1.5" fill="#ea580c" opacity="0.85"><title>2025-09-30 | BTC buy 0.00 usd | reason=both_assets_expensive_eth_tilt</title></rect>
<rect x="865.0420969592656" y="542.5" width="7.988095238095239" height="1.5" fill="#ea580c" opacity="0.85"><title>2025-10-07 | BTC buy 0.00 usd | reason=both_assets_expensive_eth_tilt</title></rect>
<rect x="879.7408921399885" y="542.5" width="7.988095238095239" height="1.5" fill="#ea580c" opacity="0.85"><title>2025-10-14 | BTC buy 0.00 usd | reason=both_assets_expensive_eth_tilt</title></rect>
<rect x="894.4396873207115" y="512.9592752327344" width="7.988095238095239" height="29.5407247672656" fill="#ea580c" opacity="0.85"><title>2025-10-21 | BTC buy 52.49 usd | reason=neutral_drawdown_eth_tilt</title></rect>
<rect x="909.1384825014343" y="513.4203057825614" width="7.988095238095239" height="29.0796942174386" fill="#ea580c" opacity="0.85"><title>2025-10-28 | BTC buy 51.67 usd | reason=neutral_drawdown_eth_tilt</title></rect>
<rect x="923.8372776821573" y="493.72607980778946" width="7.988095238095239" height="48.77392019221054" fill="#ea580c" opacity="0.85"><title>2025-11-04 | BTC buy 86.66 usd | reason=medium_drawdown_eth_tilt</title></rect>
<rect x="938.5360728628801" y="492.9033122169135" width="7.988095238095239" height="49.59668778308651" fill="#ea580c" opacity="0.85"><title>2025-11-11 | BTC buy 88.13 usd | reason=medium_drawdown_eth_tilt</title></rect>
<rect x="953.234868043603" y="491.7821719103133" width="7.988095238095239" height="50.71782808968669" fill="#ea580c" opacity="0.85"><title>2025-11-18 | BTC buy 90.12 usd | reason=medium_drawdown_eth_tilt</title></rect>
<rect x="967.9336632243259" y="491.16538925594807" width="7.988095238095239" height="51.33461074405193" fill="#ea580c" opacity="0.85"><title>2025-11-25 | BTC buy 91.21 usd | reason=medium_drawdown_eth_tilt</title></rect>
<rect x="982.6324584050489" y="492.5138896353311" width="7.988095238095239" height="49.98611036466889" fill="#ea580c" opacity="0.85"><title>2025-12-02 | BTC buy 88.82 usd | reason=medium_drawdown_eth_tilt</title></rect>
<rect x="997.3312535857716" y="489.3883343541479" width="7.988095238095239" height="53.1116656458521" fill="#ea580c" opacity="0.85"><title>2025-12-09 | BTC buy 94.37 usd | reason=medium_drawdown_eth_tilt</title></rect>
<rect x="1012.0300487664946" y="491.3599495905483" width="7.988095238095239" height="51.1400504094517" fill="#ea580c" opacity="0.85"><title>2025-12-16 | BTC buy 90.87 usd | reason=medium_drawdown_eth_tilt</title></rect>
<rect x="1026.7288439472175" y="491.1579410447923" width="7.988095238095239" height="51.342058955207676" fill="#ea580c" opacity="0.85"><title>2025-12-23 | BTC buy 91.23 usd | reason=medium_drawdown_eth_tilt</title></rect>
<rect x="1041.4276391279402" y="491.50664704651547" width="7.988095238095239" height="50.99335295348453" fill="#ea580c" opacity="0.85"><title>2025-12-30 | BTC buy 90.61 usd | reason=medium_drawdown_eth_tilt</title></rect>
<rect x="1056.1264343086632" y="490.12137523910235" width="7.988095238095239" height="52.37862476089765" fill="#ea580c" opacity="0.85"><title>2026-01-06 | BTC buy 93.07 usd | reason=medium_drawdown_eth_tilt</title></rect>
<rect x="1070.825229489386" y="490.54772033193274" width="7.988095238095239" height="51.95227966806726" fill="#ea580c" opacity="0.85"><title>2026-01-13 | BTC buy 92.31 usd | reason=medium_drawdown_eth_tilt</title></rect>
<rect x="1085.524024670109" y="491.8625722798544" width="7.988095238095239" height="50.63742772014558" fill="#ea580c" opacity="0.85"><title>2026-01-20 | BTC buy 89.97 usd | reason=medium_drawdown_eth_tilt</title></rect>
<rect x="1100.222819850832" y="491.23148834831284" width="7.988095238095239" height="51.26851165168716" fill="#ea580c" opacity="0.85"><title>2026-01-27 | BTC buy 91.10 usd | reason=medium_drawdown_eth_tilt</title></rect>
<rect x="1114.9216150315547" y="482.34900230968253" width="7.988095238095239" height="60.15099769031747" fill="#ea580c" opacity="0.85"><title>2026-02-03 | BTC buy 106.88 usd | reason=deep_drawdown_eth_tilt</title></rect>
<rect x="1129.6204102122776" y="481.5207510795876" width="7.988095238095239" height="60.979248920412374" fill="#ea580c" opacity="0.85"><title>2026-02-10 | BTC buy 108.35 usd | reason=deep_drawdown_eth_tilt</title></rect>
<rect x="1144.3192053930004" y="481.21628659098025" width="7.988095238095239" height="61.283713409019754" fill="#ea580c" opacity="0.85"><title>2026-02-17 | BTC buy 108.89 usd | reason=deep_drawdown_eth_tilt</title></rect>
<rect x="1159.0180005737234" y="481.3218349002262" width="7.988095238095239" height="61.17816509977382" fill="#ea580c" opacity="0.85"><title>2026-02-24 | BTC buy 108.70 usd | reason=deep_drawdown_eth_tilt</title></rect>
<rect x="1173.7167957544461" y="481.8225279951986" width="7.988095238095239" height="60.677472004801416" fill="#ea580c" opacity="0.85"><title>2026-03-03 | BTC buy 107.81 usd | reason=deep_drawdown_eth_tilt</title></rect>
<rect x="1188.4155909351691" y="481.9537391956991" width="7.988095238095239" height="60.546260804300914" fill="#ea580c" opacity="0.85"><title>2026-03-10 | BTC buy 107.58 usd | reason=deep_drawdown_eth_tilt</title></rect>
<rect x="1203.114386115892" y="480.09980232904195" width="7.988095238095239" height="62.40019767095805" fill="#ea580c" opacity="0.85"><title>2026-03-17 | BTC buy 110.87 usd | reason=deep_drawdown_eth_tilt</title></rect>
<rect x="1217.8131812966149" y="480.5474398308221" width="7.988095238095239" height="61.9525601691779" fill="#ea580c" opacity="0.85"><title>2026-03-24 | BTC buy 110.08 usd | reason=deep_drawdown_eth_tilt</title></rect>
<rect x="1232.5119764773378" y="480.0" width="7.988095238095239" height="62.5" fill="#ea580c" opacity="0.85"><title>2026-03-31 | BTC buy 111.05 usd | reason=deep_drawdown_eth_tilt</title></rect>
<rect x="1247.2107716580606" y="480.0990812756762" width="7.988095238095239" height="62.40091872432379" fill="#ea580c" opacity="0.85"><title>2026-04-07 | BTC buy 110.88 usd | reason=deep_drawdown_eth_tilt</title></rect>
<rect x="1261.9095668387836" y="480.1571418694566" width="7.988095238095239" height="62.34285813054339" fill="#ea580c" opacity="0.85"><title>2026-04-14 | BTC buy 110.77 usd | reason=deep_drawdown_eth_tilt</title></rect>
<rect x="1276.6083620195066" y="481.31653303388265" width="7.988095238095239" height="61.18346696611735" fill="#ea580c" opacity="0.85"><title>2026-04-21 | BTC buy 108.71 usd | reason=deep_drawdown_eth_tilt</title></rect>
<rect x="1291.3071572002293" y="481.8629510550412" width="7.988095238095239" height="60.63704894495879" fill="#ea580c" opacity="0.85"><title>2026-04-28 | BTC buy 107.74 usd | reason=deep_drawdown_eth_tilt</title></rect>
<rect x="1306.0059523809523" y="483.4149193575045" width="7.988095238095239" height="59.085080642495484" fill="#ea580c" opacity="0.85"><title>2026-05-05 | BTC buy 104.98 usd | reason=deep_drawdown_eth_tilt</title></rect>
<text x="24" y="542.5" transform="rotate(-90 24,542.5)" text-anchor="middle" font-family="monospace" font-size="14" fill="#0f172a">BTC weekly trade usd</text>
<line x1="90" y1="770" x2="1310" y2="770" stroke="#334155" stroke-width="2"/>
<line x1="90" y1="645" x2="90" y2="770" stroke="#334155" stroke-width="2"/>
<line x1="90" y1="707.5" x2="1310" y2="707.5" stroke="#64748b" stroke-width="1.5" stroke-dasharray="6 4"/>
<line x1="90" y1="770.0" x2="1310" y2="770.0" stroke="#e2e8f0" stroke-width="1"/>
<text x="78" y="774.0" text-anchor="end" font-family="monospace" font-size="11" fill="#475569">-334</text>
<line x1="90" y1="707.5" x2="1310" y2="707.5" stroke="#e2e8f0" stroke-width="1"/>
<text x="78" y="711.5" text-anchor="end" font-family="monospace" font-size="11" fill="#475569">0</text>
<line x1="90" y1="645.0" x2="1310" y2="645.0" stroke="#e2e8f0" stroke-width="1"/>
<text x="78" y="649.0" text-anchor="end" font-family="monospace" font-size="11" fill="#475569">334</text>
<rect x="86.00595238095238" y="684.5181051558152" width="7.988095238095239" height="22.981894844184808" fill="#2563eb" opacity="0.85"><title>2024-10-01 | ETH buy 122.93 usd | reason=medium_drawdown_eth_tilt</title></rect>
<rect x="100.70474756167528" y="684.1404982356673" width="7.988095238095239" height="23.359501764332663" fill="#2563eb" opacity="0.85"><title>2024-10-08 | ETH buy 124.95 usd | reason=medium_drawdown_eth_tilt</title></rect>
<rect x="115.40354274239817" y="683.6475910973039" width="7.988095238095239" height="23.852408902696084" fill="#2563eb" opacity="0.85"><title>2024-10-15 | ETH buy 127.58 usd | reason=medium_drawdown_eth_tilt</title></rect>
<rect x="130.10233792312104" y="683.6302343217052" width="7.988095238095239" height="23.86976567829481" fill="#2563eb" opacity="0.85"><title>2024-10-22 | ETH buy 127.68 usd | reason=medium_drawdown_eth_tilt</title></rect>
<rect x="144.80113310384397" y="682.3422914061475" width="7.988095238095239" height="25.157708593852476" fill="#2563eb" opacity="0.85"><title>2024-10-29 | ETH buy 134.57 usd | reason=medium_drawdown_eth_tilt</title></rect>
<rect x="159.49992828456683" y="682.205695664014" width="7.988095238095239" height="25.294304335986" fill="#2563eb" opacity="0.85"><title>2024-11-05 | ETH buy 135.30 usd | reason=medium_drawdown_eth_tilt</title></rect>
<rect x="174.19872346528973" y="694.952792122421" width="7.988095238095239" height="12.547207877579012" fill="#2563eb" opacity="0.85"><title>2024-11-12 | ETH buy 67.11 usd | reason=neutral_drawdown_eth_tilt</title></rect>
<rect x="188.89751864601263" y="694.5152240389111" width="7.988095238095239" height="12.984775961088872" fill="#2563eb" opacity="0.85"><title>2024-11-19 | ETH buy 69.45 usd | reason=neutral_drawdown_eth_tilt</title></rect>
<rect x="203.59631382673552" y="695.8168518232097" width="7.988095238095239" height="11.683148176790269" fill="#2563eb" opacity="0.85"><title>2024-11-26 | ETH buy 62.49 usd | reason=neutral_drawdown_eth_tilt</title></rect>
<rect x="218.2951090074584" y="707.5" width="7.988095238095239" height="1.5" fill="#2563eb" opacity="0.85"><title>2024-12-03 | ETH buy 0.00 usd | reason=both_assets_expensive_eth_tilt</title></rect>
<rect x="232.9939041881813" y="707.5" width="7.988095238095239" height="1.5" fill="#2563eb" opacity="0.85"><title>2024-12-10 | ETH buy 0.00 usd | reason=both_assets_expensive_eth_tilt</title></rect>
<rect x="247.6926993689042" y="707.5" width="7.988095238095239" height="1.5" fill="#2563eb" opacity="0.85"><title>2024-12-17 | ETH buy 0.00 usd | reason=both_assets_expensive_eth_tilt</title></rect>
<rect x="262.3914945496271" y="707.5" width="7.988095238095239" height="1.5" fill="#2563eb" opacity="0.85"><title>2024-12-24 | ETH buy 0.00 usd | reason=both_assets_expensive_eth_tilt</title></rect>
<rect x="277.09028973035004" y="696.3471602367503" width="7.988095238095239" height="11.152839763249744" fill="#2563eb" opacity="0.85"><title>2024-12-31 | ETH buy 59.66 usd | reason=neutral_drawdown_eth_tilt</title></rect>
<rect x="291.7890849110729" y="696.1209147798177" width="7.988095238095239" height="11.379085220182333" fill="#2563eb" opacity="0.85"><title>2025-01-07 | ETH buy 60.87 usd | reason=neutral_drawdown_eth_tilt</title></rect>
<rect x="306.4878800917958" y="695.7569621355019" width="7.988095238095239" height="11.743037864498092" fill="#2563eb" opacity="0.85"><title>2025-01-14 | ETH buy 62.81 usd | reason=neutral_drawdown_eth_tilt</title></rect>
<rect x="321.1866752725187" y="695.0735151976932" width="7.988095238095239" height="12.426484802306845" fill="#2563eb" opacity="0.85"><title>2025-01-21 | ETH buy 66.47 usd | reason=neutral_drawdown_eth_tilt</title></rect>
<rect x="335.88547045324157" y="694.9054017027748" width="7.988095238095239" height="12.594598297225161" fill="#2563eb" opacity="0.85"><title>2025-01-28 | ETH buy 67.37 usd | reason=neutral_drawdown_eth_tilt</title></rect>
<rect x="350.58426563396443" y="684.143507805688" width="7.988095238095239" height="23.356492194311954" fill="#2563eb" opacity="0.85"><title>2025-02-04 | ETH buy 124.93 usd | reason=medium_drawdown_eth_tilt</title></rect>
<rect x="365.28306081468736" y="683.9015235742476" width="7.988095238095239" height="23.598476425752438" fill="#2563eb" opacity="0.85"><title>2025-02-11 | ETH buy 126.23 usd | reason=medium_drawdown_eth_tilt</title></rect>
<rect x="379.9818559954102" y="684.2460993326756" width="7.988095238095239" height="23.253900667324388" fill="#2563eb" opacity="0.85"><title>2025-02-18 | ETH buy 124.38 usd | reason=medium_drawdown_eth_tilt</title></rect>
<rect x="394.6806511761331" y="684.6636064433897" width="7.988095238095239" height="22.836393556610346" fill="#2563eb" opacity="0.85"><title>2025-02-25 | ETH buy 122.15 usd | reason=medium_drawdown_eth_tilt</title></rect>
<rect x="409.379446356856" y="683.4205463978809" width="7.988095238095239" height="24.079453602119088" fill="#2563eb" opacity="0.85"><title>2025-03-04 | ETH buy 128.80 usd | reason=medium_drawdown_eth_tilt</title></rect>
<rect x="424.07824153757895" y="677.0920368690093" width="7.988095238095239" height="30.40796313099065" fill="#2563eb" opacity="0.85"><title>2025-03-11 | ETH buy 162.65 usd | reason=deep_drawdown_eth_tilt</title></rect>
<rect x="438.7770367183018" y="677.1898410098327" width="7.988095238095239" height="30.310158990167338" fill="#2563eb" opacity="0.85"><title>2025-03-18 | ETH buy 162.13 usd | reason=deep_drawdown_eth_tilt</title></rect>
<rect x="453.47583189902474" y="683.051420473015" width="7.988095238095239" height="24.448579526984986" fill="#2563eb" opacity="0.85"><title>2025-03-25 | ETH buy 130.77 usd | reason=medium_drawdown_eth_tilt</title></rect>
<rect x="468.1746270797476" y="676.4934102215745" width="7.988095238095239" height="31.00658977842545" fill="#2563eb" opacity="0.85"><title>2025-04-01 | ETH buy 165.85 usd | reason=deep_drawdown_eth_tilt</title></rect>
<rect x="482.8734222604705" y="675.9301558451691" width="7.988095238095239" height="31.56984415483089" fill="#2563eb" opacity="0.85"><title>2025-04-08 | ETH buy 168.86 usd | reason=deep_drawdown_eth_tilt</title></rect>
<rect x="497.57221744119335" y="674.9866244019449" width="7.988095238095239" height="32.51337559805506" fill="#2563eb" opacity="0.85"><title>2025-04-15 | ETH buy 173.91 usd | reason=deep_drawdown_eth_tilt</title></rect>
<rect x="512.2710126219163" y="674.7829765872292" width="7.988095238095239" height="32.7170234127708" fill="#2563eb" opacity="0.85"><title>2025-04-22 | ETH buy 175.00 usd | reason=deep_drawdown_eth_tilt</title></rect>
<rect x="526.9698078026391" y="674.7829765872292" width="7.988095238095239" height="32.7170234127708" fill="#2563eb" opacity="0.85"><title>2025-04-29 | ETH buy 175.00 usd | reason=deep_drawdown_eth_tilt</title></rect>
<rect x="541.668602983362" y="674.7829765872292" width="7.988095238095239" height="32.7170234127708" fill="#2563eb" opacity="0.85"><title>2025-05-06 | ETH buy 175.00 usd | reason=deep_drawdown_eth_tilt</title></rect>
<rect x="556.367398164085" y="682.9705815961725" width="7.988095238095239" height="24.52941840382755" fill="#2563eb" opacity="0.85"><title>2025-05-13 | ETH buy 131.21 usd | reason=medium_drawdown_eth_tilt</title></rect>
<rect x="571.0661933448079" y="681.8909656526295" width="7.988095238095239" height="25.60903434737054" fill="#2563eb" opacity="0.85"><title>2025-05-20 | ETH buy 136.98 usd | reason=medium_drawdown_eth_tilt</title></rect>
<rect x="585.7649885255307" y="682.9893467705025" width="7.988095238095239" height="24.510653229497507" fill="#2563eb" opacity="0.85"><title>2025-05-27 | ETH buy 131.10 usd | reason=medium_drawdown_eth_tilt</title></rect>
<rect x="600.4637837062536" y="683.2674897867475" width="7.988095238095239" height="24.232510213252453" fill="#2563eb" opacity="0.85"><title>2025-06-03 | ETH buy 129.62 usd | reason=medium_drawdown_eth_tilt</title></rect>
<rect x="615.1625788869765" y="683.488870840731" width="7.988095238095239" height="24.01112915926899" fill="#2563eb" opacity="0.85"><title>2025-06-10 | ETH buy 128.43 usd | reason=medium_drawdown_eth_tilt</title></rect>
<rect x="629.8613740676993" y="683.0174795204382" width="7.988095238095239" height="24.4825204795618" fill="#2563eb" opacity="0.85"><title>2025-06-17 | ETH buy 130.95 usd | reason=medium_drawdown_eth_tilt</title></rect>
<rect x="644.5601692484223" y="682.4741797050854" width="7.988095238095239" height="25.025820294914638" fill="#2563eb" opacity="0.85"><title>2025-06-24 | ETH buy 133.86 usd | reason=medium_drawdown_eth_tilt</title></rect>
<rect x="659.2589644291452" y="682.3381348830277" width="7.988095238095239" height="25.161865116972308" fill="#2563eb" opacity="0.85"><title>2025-07-01 | ETH buy 134.59 usd | reason=medium_drawdown_eth_tilt</title></rect>
<rect x="673.957759609868" y="682.7803681039813" width="7.988095238095239" height="24.719631896018655" fill="#2563eb" opacity="0.85"><title>2025-07-08 | ETH buy 132.22 usd | reason=medium_drawdown_eth_tilt</title></rect>
<rect x="688.6565547905909" y="694.8863731415468" width="7.988095238095239" height="12.613626858453244" fill="#2563eb" opacity="0.85"><title>2025-07-15 | ETH buy 67.47 usd | reason=neutral_drawdown_eth_tilt</title></rect>
<rect x="703.3553499713138" y="707.5" width="7.988095238095239" height="40.269071516364306" fill="#7c3aed" opacity="0.85"><title>2025-07-22 | ETH sell 215.40 usd | reason=both_assets_expensive_eth_tilt</title></rect>
<rect x="718.0541451520368" y="707.5" width="7.988095238095239" height="40.93428190158977" fill="#7c3aed" opacity="0.85"><title>2025-07-29 | ETH sell 218.95 usd | reason=both_assets_expensive_eth_tilt</title></rect>
<rect x="732.7529403327596" y="707.5" width="7.988095238095239" height="28.31331062492768" fill="#7c3aed" opacity="0.85"><title>2025-08-05 | ETH sell 151.44 usd | reason=both_assets_expensive_eth_tilt</title></rect>
<rect x="747.4517355134825" y="707.5" width="7.988095238095239" height="62.5" fill="#7c3aed" opacity="0.85"><title>2025-08-12 | ETH sell 334.31 usd | reason=both_assets_expensive</title></rect>
<rect x="762.1505306942055" y="707.5" width="7.988095238095239" height="30.93791872303052" fill="#7c3aed" opacity="0.85"><title>2025-08-19 | ETH sell 165.48 usd | reason=both_assets_expensive_eth_tilt</title></rect>
<rect x="776.8493258749284" y="707.5" width="7.988095238095239" height="58.790528179221724" fill="#7c3aed" opacity="0.85"><title>2025-08-26 | ETH sell 314.46 usd | reason=both_assets_expensive_btc_tilt</title></rect>
<rect x="791.5481210556512" y="707.5" width="7.988095238095239" height="34.717896728767755" fill="#7c3aed" opacity="0.85"><title>2025-09-02 | ETH sell 185.70 usd | reason=both_assets_expensive_eth_tilt</title></rect>
<rect x="806.2469162363741" y="707.5" width="7.988095238095239" height="28.601975502177083" fill="#7c3aed" opacity="0.85"><title>2025-09-09 | ETH sell 152.99 usd | reason=both_assets_expensive_eth_tilt</title></rect>
<rect x="820.9457114170971" y="707.5" width="7.988095238095239" height="28.600723276394774" fill="#7c3aed" opacity="0.85"><title>2025-09-16 | ETH sell 152.98 usd | reason=both_assets_expensive_eth_tilt</title></rect>
<rect x="835.6445065978198" y="707.5" width="7.988095238095239" height="11.883478705289235" fill="#7c3aed" opacity="0.85"><title>2025-09-23 | ETH sell 63.56 usd | reason=both_assets_expensive_eth_tilt</title></rect>
<rect x="850.3433017785428" y="707.5" width="7.988095238095239" height="6.244304033395565" fill="#7c3aed" opacity="0.85"><title>2025-09-30 | ETH sell 33.40 usd | reason=both_assets_expensive_eth_tilt</title></rect>
<rect x="865.0420969592656" y="707.5" width="7.988095238095239" height="13.993365929866286" fill="#7c3aed" opacity="0.85"><title>2025-10-07 | ETH sell 74.85 usd | reason=both_assets_expensive_eth_tilt</title></rect>
<rect x="879.7408921399885" y="707.5" width="7.988095238095239" height="5.378610153387854" fill="#7c3aed" opacity="0.85"><title>2025-10-14 | ETH sell 28.77 usd | reason=both_assets_expensive_eth_tilt</title></rect>
<rect x="894.4396873207115" y="696.280688759229" width="7.988095238095239" height="11.219311240771049" fill="#2563eb" opacity="0.85"><title>2025-10-21 | ETH buy 60.01 usd | reason=neutral_drawdown_eth_tilt</title></rect>
<rect x="909.1384825014343" y="696.1275401509141" width="7.988095238095239" height="11.372459849085885" fill="#2563eb" opacity="0.85"><title>2025-10-28 | ETH buy 60.83 usd | reason=neutral_drawdown_eth_tilt</title></rect>
<rect x="923.8372776821573" y="686.3112050985613" width="7.988095238095239" height="21.188794901438655" fill="#2563eb" opacity="0.85"><title>2025-11-04 | ETH buy 113.34 usd | reason=medium_drawdown_eth_tilt</title></rect>
<rect x="938.5360728628801" y="686.5845182478884" width="7.988095238095239" height="20.915481752111646" fill="#2563eb" opacity="0.85"><title>2025-11-11 | ETH buy 111.87 usd | reason=medium_drawdown_eth_tilt</title></rect>
<rect x="953.234868043603" y="686.9569470983104" width="7.988095238095239" height="20.543052901689634" fill="#2563eb" opacity="0.85"><title>2025-11-18 | ETH buy 109.88 usd | reason=medium_drawdown_eth_tilt</title></rect>
<rect x="967.9336632243259" y="687.1618346164677" width="7.988095238095239" height="20.338165383532328" fill="#2563eb" opacity="0.85"><title>2025-11-25 | ETH buy 108.79 usd | reason=medium_drawdown_eth_tilt</title></rect>
<rect x="982.6324584050489" y="686.7138795807504" width="7.988095238095239" height="20.78612041924964" fill="#2563eb" opacity="0.85"><title>2025-12-02 | ETH buy 111.18 usd | reason=medium_drawdown_eth_tilt</title></rect>
<rect x="997.3312535857716" y="687.7521501285565" width="7.988095238095239" height="19.747849871443464" fill="#2563eb" opacity="0.85"><title>2025-12-09 | ETH buy 105.63 usd | reason=medium_drawdown_eth_tilt</title></rect>
<rect x="1012.0300487664946" y="687.0972040958037" width="7.988095238095239" height="20.402795904196296" fill="#2563eb" opacity="0.85"><title>2025-12-16 | ETH buy 109.13 usd | reason=medium_drawdown_eth_tilt</title></rect>
<rect x="1026.7288439472175" y="687.1643088194752" width="7.988095238095239" height="20.335691180524805" fill="#2563eb" opacity="0.85"><title>2025-12-23 | ETH buy 108.77 usd | reason=medium_drawdown_eth_tilt</title></rect>
<rect x="1041.4276391279402" y="687.0484730274762" width="7.988095238095239" height="20.451526972523766" fill="#2563eb" opacity="0.85"><title>2025-12-30 | ETH buy 109.39 usd | reason=medium_drawdown_eth_tilt</title></rect>
<rect x="1056.1264343086632" y="687.5086430737404" width="7.988095238095239" height="19.99135692625964" fill="#2563eb" opacity="0.85"><title>2026-01-06 | ETH buy 106.93 usd | reason=medium_drawdown_eth_tilt</title></rect>
<rect x="1070.825229489386" y="687.3670165423677" width="7.988095238095239" height="20.13298345763235" fill="#2563eb" opacity="0.85"><title>2026-01-13 | ETH buy 107.69 usd | reason=medium_drawdown_eth_tilt</title></rect>
<rect x="1085.524024670109" y="686.9302390966219" width="7.988095238095239" height="20.569760903378096" fill="#2563eb" opacity="0.85"><title>2026-01-20 | ETH buy 110.03 usd | reason=medium_drawdown_eth_tilt</title></rect>
<rect x="1100.222819850832" y="687.1398773209905" width="7.988095238095239" height="20.360122679009464" fill="#2563eb" opacity="0.85"><title>2026-01-27 | ETH buy 108.90 usd | reason=medium_drawdown_eth_tilt</title></rect>
<rect x="1114.9216150315547" y="680.7428076112199" width="7.988095238095239" height="26.75719238878014" fill="#2563eb" opacity="0.85"><title>2026-02-03 | ETH buy 143.12 usd | reason=deep_drawdown_eth_tilt</title></rect>
<rect x="1129.6204102122776" y="681.0179423572181" width="7.988095238095239" height="26.48205764278191" fill="#2563eb" opacity="0.85"><title>2026-02-10 | ETH buy 141.65 usd | reason=deep_drawdown_eth_tilt</title></rect>
<rect x="1144.3192053930004" y="681.1190816694156" width="7.988095238095239" height="26.38091833058445" fill="#2563eb" opacity="0.85"><title>2026-02-17 | ETH buy 141.11 usd | reason=deep_drawdown_eth_tilt</title></rect>
<rect x="1159.0180005737234" y="681.0840198352766" width="7.988095238095239" height="26.41598016472335" fill="#2563eb" opacity="0.85"><title>2026-02-24 | ETH buy 141.30 usd | reason=deep_drawdown_eth_tilt</title></rect>
<rect x="1173.7167957544461" y="680.9176958233069" width="7.988095238095239" height="26.58230417669313" fill="#2563eb" opacity="0.85"><title>2026-03-03 | ETH buy 142.19 usd | reason=deep_drawdown_eth_tilt</title></rect>
<rect x="1188.4155909351691" y="680.8741090962244" width="7.988095238095239" height="26.6258909037756" fill="#2563eb" opacity="0.85"><title>2026-03-10 | ETH buy 142.42 usd | reason=deep_drawdown_eth_tilt</title></rect>
<rect x="1203.114386115892" y="681.4899638397737" width="7.988095238095239" height="26.010036160226264" fill="#2563eb" opacity="0.85"><title>2026-03-17 | ETH buy 139.13 usd | reason=deep_drawdown_eth_tilt</title></rect>
<rect x="1217.8131812966149" y="681.3412642352619" width="7.988095238095239" height="26.15873576473814" fill="#2563eb" opacity="0.85"><title>2026-03-24 | ETH buy 139.92 usd | reason=deep_drawdown_eth_tilt</title></rect>
<rect x="1232.5119764773378" y="681.5231169308327" width="7.988095238095239" height="25.976883069167343" fill="#2563eb" opacity="0.85"><title>2026-03-31 | ETH buy 138.95 usd | reason=deep_drawdown_eth_tilt</title></rect>
<rect x="1247.2107716580606" y="681.4902033647239" width="7.988095238095239" height="26.009796635276075" fill="#2563eb" opacity="0.85"><title>2026-04-07 | ETH buy 139.12 usd | reason=deep_drawdown_eth_tilt</title></rect>
<rect x="1261.9095668387836" y="681.4709163583883" width="7.988095238095239" height="26.02908364161169" fill="#2563eb" opacity="0.85"><title>2026-04-14 | ETH buy 139.23 usd | reason=deep_drawdown_eth_tilt</title></rect>
<rect x="1276.6083620195066" y="681.0857810492619" width="7.988095238095239" height="26.41421895073813" fill="#2563eb" opacity="0.85"><title>2026-04-21 | ETH buy 141.29 usd | reason=deep_drawdown_eth_tilt</title></rect>
<rect x="1291.3071572002293" y="680.9042677861387" width="7.988095238095239" height="26.59573221386131" fill="#2563eb" opacity="0.85"><title>2026-04-28 | ETH buy 142.26 usd | reason=deep_drawdown_eth_tilt</title></rect>
<rect x="1306.0059523809523" y="680.3887232397738" width="7.988095238095239" height="27.111276760226247" fill="#2563eb" opacity="0.85"><title>2026-05-05 | ETH buy 145.02 usd | reason=deep_drawdown_eth_tilt</title></rect>
<text x="24" y="707.5" transform="rotate(-90 24,707.5)" text-anchor="middle" font-family="monospace" font-size="14" fill="#0f172a">ETH weekly trade usd</text>
<rect x="1040" y="478" width="14" height="10" fill="#ea580c" opacity="0.85"/>
<text x="1062" y="488" font-family="monospace" font-size="11" fill="#0f172a">BTC buy</text>
<rect x="1190" y="478" width="14" height="10" fill="#dc2626" opacity="0.85"/>
<text x="1212" y="488" font-family="monospace" font-size="11" fill="#0f172a">BTC sell</text>
<rect x="1040" y="498" width="14" height="10" fill="#2563eb" opacity="0.85"/>
<text x="1062" y="508" font-family="monospace" font-size="11" fill="#0f172a">ETH buy</text>
<rect x="1190" y="498" width="14" height="10" fill="#7c3aed" opacity="0.85"/>
<text x="1212" y="508" font-family="monospace" font-size="11" fill="#0f172a">ETH sell</text>
</svg>