<svg xmlns="http://www.w3.org/2000/svg" width="1400" height="800">
<rect width="1400" height="800" fill="#f8fafc"/>
<text x="700.0" y="42" text-anchor="middle" font-family="monospace" font-size="24" fill="#0f172a">budgeted_btc_defensive_eth_aggressive | weekly | start=2024-04-01 | return=-5.28%</text>
<line x1="90" y1="420" x2="1310" y2="420" stroke="#334155" stroke-width="2"/>
<line x1="90" y1="90" x2="90" y2="420" stroke="#334155" stroke-width="2"/>
<line x1="90.0" y1="420" x2="90.0" y2="90" stroke="#94a3b8" stroke-width="1.2"/>
<line x1="90.0" y1="605" x2="90.0" y2="480" stroke="#94a3b8" stroke-width="1.2"/>
<line x1="90.0" y1="770" x2="90.0" y2="645" stroke="#94a3b8" stroke-width="1.2"/>
<text x="90.0" y="788" text-anchor="middle" font-family="monospace" font-size="11" fill="#334155">2024-04</text>
<line x1="145.96330275229357" y1="420" x2="145.96330275229357" y2="90" stroke="#94a3b8" stroke-width="1.2"/>
<line x1="145.96330275229357" y1="605" x2="145.96330275229357" y2="480" stroke="#94a3b8" stroke-width="1.2"/>
<line x1="145.96330275229357" y1="770" x2="145.96330275229357" y2="645" stroke="#94a3b8" stroke-width="1.2"/>
<text x="145.96330275229357" y="788" text-anchor="middle" font-family="monospace" font-size="11" fill="#334155">2024-05</text>
<line x1="190.73394495412845" y1="420" x2="190.73394495412845" y2="90" stroke="#94a3b8" stroke-width="1.2"/>
<line x1="190.73394495412845" y1="605" x2="190.73394495412845" y2="480" stroke="#94a3b8" stroke-width="1.2"/>
<line x1="190.73394495412845" y1="770" x2="190.73394495412845" y2="645" stroke="#94a3b8" stroke-width="1.2"/>
<text x="190.73394495412845" y="788" text-anchor="middle" font-family="monospace" font-size="11" fill="#334155">2024-06</text>
<line x1="235.50458715596332" y1="420" x2="235.50458715596332" y2="90" stroke="#94a3b8" stroke-width="1.2"/>
<line x1="235.50458715596332" y1="605" x2="235.50458715596332" y2="480" stroke="#94a3b8" stroke-width="1.2"/>
<line x1="235.50458715596332" y1="770" x2="235.50458715596332" y2="645" stroke="#94a3b8" stroke-width="1.2"/>
<text x="235.50458715596332" y="788" text-anchor="middle" font-family="monospace" font-size="11" fill="#334155">2024-07</text>
<line x1="291.4678899082569" y1="420" x2="291.4678899082569" y2="90" stroke="#94a3b8" stroke-width="1.2"/>
<line x1="291.4678899082569" y1="605" x2="291.4678899082569" y2="480" stroke="#94a3b8" stroke-width="1.2"/>
<line x1="291.4678899082569" y1="770" x2="291.4678899082569" y2="645" stroke="#94a3b8" stroke-width="1.2"/>
<text x="291.4678899082569" y="788" text-anchor="middle" font-family="monospace" font-size="11" fill="#334155">2024-08</text>
<line x1="336.2385321100918" y1="420" x2="336.2385321100918" y2="90" stroke="#94a3b8" stroke-width="1.2"/>
<line x1="336.2385321100918" y1="605" x2="336.2385321100918" y2="480" stroke="#94a3b8" stroke-width="1.2"/>
<line x1="336.2385321100918" y1="770" x2="336.2385321100918" y2="645" stroke="#94a3b8" stroke-width="1.2"/>
<text x="336.2385321100918" y="788" text-anchor="middle" font-family="monospace" font-size="11" fill="#334155">2024-09</text>
<line x1="392.20183486238534" y1="420" x2="392.20183486238534" y2="90" stroke="#94a3b8" stroke-width="1.2"/>
<line x1="392.20183486238534" y1="605" x2="392.20183486238534" y2="480" stroke="#94a3b8" stroke-width="1.2"/>
<line x1="392.20183486238534" y1="770" x2="392.20183486238534" y2="645" stroke="#94a3b8" stroke-width="1.2"/>
<text x="392.20183486238534" y="788" text-anchor="middle" font-family="monospace" font-size="11" fill="#334155">2024-10</text>
<line x1="436.9724770642202" y1="420" x2="436.9724770642202" y2="90" stroke="#94a3b8" stroke-width="1.2"/>
<line x1="436.9724770642202" y1="605" x2="436.9724770642202" y2="480" stroke="#94a3b8" stroke-width="1.2"/>
<line x1="436.9724770642202" y1="770" x2="436.9724770642202" y2="645" stroke="#94a3b8" stroke-width="1.2"/>
<text x="436.9724770642202" y="788" text-anchor="middle" font-family="monospace" font-size="11" fill="#334155">2024-11</text>
<line x1="481.7431192660551" y1="420" x2="481.7431192660551" y2="90" stroke="#94a3b8" stroke-width="1.2"/>
<line x1="481.7431192660551" y1="605" x2="481.7431192660551" y2="480" stroke="#94a3b8" stroke-width="1.2"/>
<line x1="481.7431192660551" y1="770" x2="481.7431192660551" y2="645" stroke="#94a3b8" stroke-width="1.2"/>
<text x="481.7431192660551" y="788" text-anchor="middle" font-family="monospace" font-size="11" fill="#334155">2024-12</text>
<line x1="537.7064220183486" y1="420" x2="537.7064220183486" y2="90" stroke="#94a3b8" stroke-width="1.2"/>
<line x1="537.7064220183486" y1="605" x2="537.7064220183486" y2="480" stroke="#94a3b8" stroke-width="1.2"/>
<line x1="537.7064220183486" y1="770" x2="537.7064220183486" y2="645" stroke="#94a3b8" stroke-width="1.2"/>
<text x="537.7064220183486" y="788" text-anchor="middle" font-family="monospace" font-size="11" fill="#334155">2025-01</text>
<line x1="582.4770642201836" y1="420" x2="582.4770642201836" y2="90" stroke="#94a3b8" stroke-width="1.2"/>
<line x1="582.4770642201836" y1="605" x2="582.4770642201836" y2="480" stroke="#94a3b8" stroke-width="1.2"/>
<line x1="582.4770642201836" y1="770" x2="582.4770642201836" y2="645" stroke="#94a3b8" stroke-width="1.2"/>
<text x="582.4770642201836" y="788" text-anchor="middle" font-family="monospace" font-size="11" fill="#334155">2025-02</text>
<line x1="627.2477064220184" y1="420" x2="627.2477064220184" y2="90" stroke="#94a3b8" stroke-width="1.2"/>
<line x1="627.2477064220184" y1="605" x2="627.2477064220184" y2="480" stroke="#94a3b8" stroke-width="1.2"/>
<line x1="627.2477064220184" y1="770" x2="627.2477064220184" y2="645" stroke="#94a3b8" stroke-width="1.2"/>
<text x="627.2477064220184" y="788" text-anchor="middle" font-family="monospace" font-size="11" fill="#334155">2025-03</text>
<line x1="683.2110091743119" y1="420" x2="683.2110091743119" y2="90" stroke="#94a3b8" stroke-width="1.2"/>
<line x1="683.2110091743119" y1="605" x2="683.2110091743119" y2="480" stroke="#94a3b8" stroke-width="1.2"/>
<line x1="683.2110091743119" y1="770" x2="683.2110091743119" y2="645" stroke="#94a3b8" stroke-width="1.2"/>
<text x="683.2110091743119" y="788" text-anchor="middle" font-family="monospace" font-size="11" fill="#334155">2025-04</text>
<line x1="727.9816513761467" y1="420" x2="727.9816513761467" y2="90" stroke="#94a3b8" stroke-width="1.2"/>
<line x1="727.9816513761467" y1="605" x2="727.9816513761467" y2="480" stroke="#94a3b8" stroke-width="1.2"/>
<line x1="727.9816513761467" y1="770" x2="727.9816513761467" y2="645" stroke="#94a3b8" stroke-width="1.2"/>
<text x="727.9816513761467" y="788" text-anchor="middle" font-family="monospace" font-size="11" fill="#334155">2025-05</text>
<line x1="772.7522935779816" y1="420" x2="772.7522935779816" y2="90" stroke="#94a3b8" stroke-width="1.2"/>
<line x1="772.7522935779816" y1="605" x2="772.7522935779816" y2="480" stroke="#94a3b8" stroke-width="1.2"/>
<line x1="772.7522935779816" y1="770" x2="772.7522935779816" y2="645" stroke="#94a3b8" stroke-width="1.2"/>
<text x="772.7522935779816" y="788" text-anchor="middle" font-family="monospace" font-size="11" fill="#334155">2025-06</text>
<line x1="828.7155963302753" y1="420" x2="828.7155963302753" y2="90" stroke="#94a3b8" stroke-width="1.2"/>
<line x1="828.7155963302753" y1="605" x2="828.7155963302753" y2="480" stroke="#94a3b8" stroke-width="1.2"/>
<line x1="828.7155963302753" y1="770" x2="828.7155963302753" y2="645" stroke="#94a3b8" stroke-width="1.2"/>
<text x="828.7155963302753" y="788" text-anchor="middle" font-family="monospace" font-size="11" fill="#334155">2025-07</text>
<line x1="873.4862385321102" y1="420" x2="873.4862385321102" y2="90" stroke="#94a3b8" stroke-width="1.2"/>
<line x1="873.4862385321102" y1="605" x2="873.4862385321102" y2="480" stroke="#94a3b8" stroke-width="1.2"/>
<line x1="873.4862385321102" y1="770" x2="873.4862385321102" y2="645" stroke="#94a3b8" stroke-width="1.2"/>
<text x="873.4862385321102" y="788" text-anchor="middle" font-family="monospace" font-size="11" fill="#334155">2025-08</text>
<line x1="918.256880733945" y1="420" x2="918.256880733945" y2="90" stroke="#94a3b8" stroke-width="1.2"/>
<line x1="918.256880733945" y1="605" x2="918.256880733945" y2="480" stroke="#94a3b8" stroke-width="1.2"/>
<line x1="918.256880733945" y1="770" x2="918.256880733945" y2="645" stroke="#94a3b8" stroke-width="1.2"/>
<text x="918.256880733945" y="788" text-anchor="middle" font-family="monospace" font-size="11" fill="#334155">2025-09</text>
<line x1="974.2201834862385" y1="420" x2="974.2201834862385" y2="90" stroke="#94a3b8" stroke-width="1.2"/>
<line x1="974.2201834862385" y1="605" x2="974.2201834862385" y2="480" stroke="#94a3b8" stroke-width="1.2"/>
<line x1="974.2201834862385" y1="770" x2="974.2201834862385" y2="645" stroke="#94a3b8" stroke-width="1.2"/>
<text x="974.2201834862385" y="788" text-anchor="middle" font-family="monospace" font-size="11" fill="#334155">2025-10</text>
<line x1="1018.9908256880734" y1="420" x2="1018.9908256880734" y2="90" stroke="#94a3b8" stroke-width="1.2"/>
<line x1="1018.9908256880734" y1="605" x2="1018.9908256880734" y2="480" stroke="#94a3b8" stroke-width="1.2"/>
<line x1="1018.9908256880734" y1="770" x2="1018.9908256880734" y2="645" stroke="#94a3b8" stroke-width="1.2"/>
<text x="1018.9908256880734" y="788" text-anchor="middle" font-family="monospace" font-size="11" fill="#334155">2025-11</text>
<line x1="1063.761467889908" y1="420" x2="1063.761467889908" y2="90" stroke="#94a3b8" stroke-width="1.2"/>
<line x1="1063.761467889908" y1="605" x2="1063.761467889908" y2="480" stroke="#94a3b8" stroke-width="1.2"/>
<line x1="1063.761467889908" y1="770" x2="1063.761467889908" y2="645" stroke="#94a3b8" stroke-width="1.2"/>
<text x="1063.761467889908" y="788" text-anchor="middle" font-family="monospace" font-size="11" fill="#334155">2025-12</text>
<line x1="1119.724770642202" y1="420" x2="1119.724770642202" y2="90" stroke="#94a3b8" stroke-width="1.2"/>
<line x1="1119.724770642202" y1="605" x2="1119.724770642202" y2="480" stroke="#94a3b8" stroke-width="1.2"/>
<line x1="1119.724770642202" y1="770" x2="1119.724770642202" y2="645" stroke="#94a3b8" stroke-width="1.2"/>
<text x="1119.724770642202" y="788" text-anchor="middle" font-family="monospace" font-size="11" fill="#334155">2026-01</text>
<line x1="1164.4954128440368" y1="420" x2="1164.4954128440368" y2="90" stroke="#94a3b8" stroke-width="1.2"/>
<line x1="1164.4954128440368" y1="605" x2="1164.4954128440368" y2="480" stroke="#94a3b8" stroke-width="1.2"/>
<line x1="1164.4954128440368" y1="770" x2="1164.4954128440368" y2="645" stroke="#94a3b8" stroke-width="1.2"/>
<text x="1164.4954128440368" y="788" text-anchor="middle" font-family="monospace" font-size="11" fill="#334155">2026-02</text>
<line x1="1209.2660550458716" y1="420" x2="1209.2660550458716" y2="90" stroke="#94a3b8" stroke-width="1.2"/>
<line x1="1209.2660550458716" y1="605" x2="1209.2660550458716" y2="480" stroke="#94a3b8" stroke-width="1.2"/>
<line x1="1209.2660550458716" y1="770" x2="1209.2660550458716" y2="645" stroke="#94a3b8" stroke-width="1.2"/>
<text x="1209.2660550458716" y="788" text-anchor="middle" font-family="monospace" font-size="11" fill="#334155">2026-03</text>
<line x1="1265.2293577981652" y1="420" x2="1265.2293577981652" y2="90" stroke="#94a3b8" stroke-width="1.2"/>
<line x1="1265.2293577981652" y1="605" x2="1265.2293577981652" y2="480" stroke="#94a3b8" stroke-width="1.2"/>
<line x1="1265.2293577981652" y1="770" x2="1265.2293577981652" y2="645" stroke="#94a3b8" stroke-width="1.2"/>
<text x="1265.2293577981652" y="788" text-anchor="middle" font-family="monospace" font-size="11" fill="#334155">2026-04</text>
<line x1="1310.0" y1="420" x2="1310.0" y2="90" stroke="#94a3b8" stroke-width="1.2"/>
<line x1="1310.0" y1="605" x2="1310.0" y2="480" stroke="#94a3b8" stroke-width="1.2"/>
<line x1="1310.0" y1="770" x2="1310.0" y2="645" stroke="#94a3b8" stroke-width="1.2"/>
<text x="1310.0" y="788" text-anchor="middle" font-family="monospace" font-size="11" fill="#334155">2026-05</text>
<line x1="90" y1="420.0" x2="1310" y2="420.0" stroke="#cbd5e1" stroke-width="1"/>
<text x="78" y="424.0" text-anchor="end" font-family="monospace" font-size="12" fill="#475569">0</text>
<line x1="90" y1="354.0" x2="1310" y2="354.0" stroke="#cbd5e1" stroke-width="1"/>
<text x="78" y="358.0" text-anchor="end" font-family="monospace" font-size="12" fill="#475569">4431</text>
<line x1="90" y1="288.0" x2="1310" y2="288.0" stroke="#cbd5e1" stroke-width="1"/>
<text x="78" y="292.0" text-anchor="end" font-family="monospace" font-size="12" fill="#475569">8862</text>
<line x1="90" y1="222.0" x2="1310" y2="222.0" stroke="#cbd5e1" stroke-width="1"/>
<text x="78" y="226.0" text-anchor="end" font-family="monospace" font-size="12" fill="#475569">13293</text>
<line x1="90" y1="156.0" x2="1310" y2="156.0" stroke="#cbd5e1" stroke-width="1"/>
<text x="78" y="160.0" text-anchor="end" font-family="monospace" font-size="12" fill="#475569">17724</text>
<line x1="90" y1="90.0" x2="1310" y2="90.0" stroke="#cbd5e1" stroke-width="1"/>
<text x="78" y="94.0" text-anchor="end" font-family="monospace" font-size="12" fill="#475569">22155</text>
<polygon points="90.0,198.24958288163143 101.19266055045871,199.9252787288735 112.38532110091744,201.6009745761156 123.57798165137615,203.27667042335767 134.77064220183487,204.95236627059973 145.96330275229357,206.62806211784184 157.1559633027523,208.3037579650839 168.348623853211,209.979453812326 179.54128440366975,211.65514965956805 190.73394495412845,213.33084550681016 201.92660550458714,215.00654135405222 213.1192660550459,216.68223720129433 224.3119266055046,219.10268675842175 235.50458715596332,220.77838260566384 246.69724770642202,224.129774300148 257.88990825688074,225.80547014739008 269.0825688073395,227.48116599463214 280.27522935779814,229.15686184187425 291.4678899082569,232.5082535363584 302.66055045871565,235.85964523084255 313.8532110091743,239.2110369253267 325.04587155963304,242.56242861981087 336.2385321100918,245.91382031429504 347.4311926605505,249.2652120087792 358.6238532110092,252.61660370326337 369.8165137614679,255.9679953977475 381.00917431192664,259.31938709223164 392.20183486238534,262.6707787867158 403.39449541284404,264.3464746339579 414.5871559633028,266.02217048119996 425.7798165137615,267.69786632844205 436.9724770642202,269.3735621756841 448.16513761467894,271.0492580229262 459.35779816513764,272.7249538701683 470.55045871559633,274.4006497174104 481.7431192660551,276.07634556465246 492.9357798165138,277.75204141189454 504.1284403669725,279.4277372591366 515.3211009174313,281.1034331063787 526.5137614678899,282.7791289536208 537.7064220183486,284.45482480086287 548.8990825688074,286.13052064810495 560.0917431192661,287.80621649534703 571.2844036697247,289.4819123425891 582.4770642201836,291.1576081898312 593.6697247706422,292.8333040370733 604.862385321101,294.50899988431536 616.0550458715596,296.18469573155744 627.2477064220184,297.8603915787995 638.4403669724771,301.2117832732837 649.6330275229358,304.56317496776785 660.8256880733945,306.23887081500993 672.0183486238533,309.5902625094941 683.2110091743119,312.94165420397826 694.4036697247707,316.29304589846237 705.5963302752293,319.64443759294653 716.7889908256881,321.3201334401886 727.9816513761467,322.9958292874307 739.1743119266056,324.6715251346728 750.3669724770642,326.34722098191486 761.559633027523,328.02291682915694 772.7522935779816,329.698612676399 783.9449541284404,331.3743085236411 795.137614678899,333.0500043708832 806.3302752293579,334.72570021812527 817.5229357798165,336.40139606536735 828.7155963302753,338.07709191260943 839.9082568807339,339.7527877598515 851.1009174311927,341.22513967115674 862.2935779816513,342.7104255070336 873.4862385321102,344.2979935369715 884.6788990825688,345.97368938421357 895.8715596330276,347.64938523145565 907.0642201834862,349.32508107869774 918.256880733945,351.0007769259398 929.4495412844036,352.6764727731819 940.6422018348625,354.352168620424 951.8348623853211,356.02786446766606 963.0275229357799,357.65480363519305 974.2201834862385,359.1690018218846 985.4128440366973,360.7840963524333 996.6055045871559,362.4597921996754 1007.7981651376148,364.0273918729068 1018.9908256880734,365.70308772014886 1030.1834862385322,367.37878356739094 1041.3761467889908,369.74674418370046 1052.5688073394494,371.7523998191165 1063.761467889908,372.6606647525165 1074.9541284403672,373.7754599479656 1086.1467889908258,374.7255141836799 1097.3394495412845,374.94936214953174 1108.532110091743,375.0853862253938 1119.724770642202,375.0853862253938 1130.9174311926606,375.0853862253938 1142.1100917431193,375.0853862253938 1153.302752293578,375.0853862253938 1164.4954128440368,375.0853862253938 1175.6880733944954,375.37321451533694 1186.8807339449543,375.37321451533694 1198.073394495413,375.7175451350245 1209.2660550458716,375.7175451350245 1220.4587155963302,375.7175451350245 1231.651376146789,375.75999982144265 1242.8440366972477,375.81473257697075 1254.0366972477066,376.30194475349356 1265.2293577981652,376.4520144161646 1276.4220183486239,376.4520144161646 1287.6146788990825,376.4520144161646 1298.8073394495414,376.4520144161646 1310.0,376.4520144161646 1310.0,420.0 1298.8073394495414,420.0 1287.6146788990825,420.0 1276.4220183486239,420.0 1265.2293577981652,420.0 1254.0366972477066,420.0 1242.8440366972477,420.0 1231.651376146789,420.0 1220.4587155963302,420.0 1209.2660550458716,420.0 1198.073394495413,420.0 1186.8807339449543,420.0 1175.6880733944954,420.0 1164.4954128440368,420.0 1153.302752293578,420.0 1142.1100917431193,420.0 1130.9174311926606,420.0 1119.724770642202,420.0 1108.532110091743,420.0 1097.3394495412845,420.0 1086.1467889908258,420.0 1074.9541284403672,420.0 1063.761467889908,420.0 1052.5688073394494,420.0 1041.3761467889908,420.0 1030.1834862385322,420.0 1018.9908256880734,420.0 1007.7981651376148,420.0 996.6055045871559,420.0 985.4128440366973,420.0 974.2201834862385,420.0 963.0275229357799,420.0 951.8348623853211,420.0 940.6422018348625,420.0 929.4495412844036,420.0 918.256880733945,420.0 907.0642201834862,420.0 895.8715596330276,420.0 884.6788990825688,420.0 873.4862385321102,420.0 862.2935779816513,420.0 851.1009174311927,420.0 839.9082568807339,420.0 828.7155963302753,420.0 817.5229357798165,420.0 806.3302752293579,420.0 795.137614678899,420.0 783.9449541284404,420.0 772.7522935779816,420.0 761.559633027523,420.0 750.3669724770642,420.0 739.1743119266056,420.0 727.9816513761467,420.0 716.7889908256881,420.0 705.5963302752293,420.0 694.4036697247707,420.0 683.2110091743119,420.0 672.0183486238533,420.0 660.8256880733945,420.0 649.6330275229358,420.0 638.4403669724771,420.0 627.2477064220184,420.0 616.0550458715596,420.0 604.862385321101,420.0 593.6697247706422,420.0 582.4770642201836,420.0 571.2844036697247,420.0 560.0917431192661,420.0 548.8990825688074,420.0 537.7064220183486,420.0 526.5137614678899,420.0 515.3211009174313,420.0 504.1284403669725,420.0 492.9357798165138,420.0 481.7431192660551,420.0 470.55045871559633,420.0 459.35779816513764,420.0 448.16513761467894,420.0 436.9724770642202,420.0 425.7798165137615,420.0 414.5871559633028,420.0 403.39449541284404,420.0 392.20183486238534,420.0 381.00917431192664,420.0 369.8165137614679,420.0 358.6238532110092,420.0 347.4311926605505,420.0 336.2385321100918,420.0 325.04587155963304,420.0 313.8532110091743,420.0 302.66055045871565,420.0 291.4678899082569,420.0 280.27522935779814,420.0 269.0825688073395,420.0 257.88990825688074,420.0 246.69724770642202,420.0 235.50458715596332,420.0 224.3119266055046,420.0 213.1192660550459,420.0 201.92660550458714,420.0 190.73394495412845,420.0 179.54128440366975,420.0 168.348623853211,420.0 157.1559633027523,420.0 145.96330275229357,420.0 134.77064220183487,420.0 123.57798165137615,420.0 112.38532110091744,420.0 101.19266055045871,420.0 90.0,420.0" fill="#facc15" fill-opacity="0.70" stroke="#facc15" stroke-width="1.2"/>
<polygon points="90.0,197.41173495801038 101.19266055045871,198.37205347989973 112.38532110091744,199.62611331886092 123.57798165137615,200.56895268596625 134.77064220183487,201.56247012729048 145.96330275229357,202.7290155761443 157.1559633027523,203.87762901845937 168.348623853211,203.81588528030912 179.54128440366975,204.2679125863893 190.73394495412845,205.50996273764648 201.92660550458714,206.55595414162863 213.1192660550459,207.75412987023236 224.3119266055046,209.00567294597468 235.50458715596332,209.57833258469805 246.69724770642202,212.95753458154843 257.88990825688074,212.0654412360286 269.0825688073395,213.07975618061187 280.27522935779814,214.43467544261955 291.4678899082569,220.42689768593308 302.66055045871565,220.92714518046202 313.8532110091743,223.40876797876294 325.04587155963304,225.15822424511722 336.2385321100918,228.09719000685715 347.4311926605505,231.35563354110207 358.6238532110092,233.85888521249686 369.8165137614679,232.9969871778808 381.00917431192664,235.40228489693234 392.20183486238534,239.06434119524826 403.39449541284404,238.05134629250315 414.5871559633028,238.69055616959517 425.7798165137615,240.71823665680768 436.9724770642202,243.49722678990358 448.16513761467894,233.93642003921912 459.35779816513764,236.77308408109027 470.55045871559633,235.4762313234344 481.7431192660551,233.86215694168743 492.9357798165138,234.06777372883602 504.1284403669725,231.8496624298103 515.3211009174313,239.6498341897868 526.5137614678899,241.41274171847377 537.7064220183486,238.3121662894288 548.8990825688074,246.23083917845392 560.0917431192661,245.40010390061386 571.2844036697247,247.6784545595515 582.4770642201836,252.6029996072386 593.6697247706422,256.57326146164536 604.862385321101,256.45854038284045 616.0550458715596,260.6636020477271 627.2477064220184,266.83914170038923 638.4403669724771,272.94385779349784 649.6330275229358,274.0120849052126 660.8256880733945,272.55378668670744 672.0183486238533,278.76534565343013 683.2110091743119,285.3336930886072 694.4036697247707,286.0751209381332 705.5963302752293,288.91358432513425 716.7889908256881,285.62498985238426 727.9816513761467,286.2360329892713 739.1743119266056,273.5953998079809 750.3669724770642,273.92794175960086 761.559633027523,274.1951763473635 772.7522935779816,274.25662684321946 783.9449541284404,272.7267765851076 795.137614678899,276.7073431054132 806.3302752293579,280.6407186714827 817.5229357798165,280.0065520935715 828.7155963302753,279.7364705063134 839.9082568807339,268.90192791355287 851.1009174311927,251.089576532328 862.2935779816513,250.04397131413788 873.4862385321102,251.87260446681879 884.6788990825688,240.16469672928875 895.8715596330276,238.72605634135283 907.0642201834862,238.0078098336563 918.256880733945,240.4290668592957 929.4495412844036,241.49550215597907 940.6422018348625,236.68578725947796 951.8348623853211,245.2587001642999 963.0275229357799,244.8190480703666 974.2201834862385,232.10722309633138 985.4128440366973,244.02068529612134 996.6055045871559,251.29025424929617 1007.7981651376148,247.2810217477349 1018.9908256880734,261.93686931360503 1030.1834862385322,262.98493438593994 1041.3761467889908,281.11812276655814 1052.5688073394494,285.3278661306271 1063.761467889908,290.7523156012629 1074.9541284403672,282.30640462393785 1086.1467889908258,287.9552928979078 1097.3394495412845,286.9120099504345 1108.532110091743,289.19943439888607 1119.724770642202,280.68164516863385 1130.9174311926606,284.58197305499505 1142.1100917431193,281.7845671555613 1153.302752293578,289.4142817286113 1164.4954128440368,306.4422497932399 1175.6880733944954,313.7925254559502 1186.8807339449543,316.91132422737076 1198.073394495413,321.405076844586 1209.2660550458716,316.371385387794 1220.4587155963302,317.3753722283358 1231.651376146789,306.8876733904129 1242.8440366972477,312.8325598462972 1254.0366972477066,317.0403774834982 1265.2293577981652,314.76712147478577 1276.4220183486239,307.07213312172394 1287.6146788990825,308.6963672261456 1298.8073394495414,309.0285902768788 1310.0,307.7550197978125 1310.0,376.4520144161646 1298.8073394495414,376.4520144161646 1287.6146788990825,376.4520144161646 1276.4220183486239,376.4520144161646 1265.2293577981652,376.4520144161646 1254.0366972477066,376.30194475349356 1242.8440366972477,375.81473257697075 1231.651376146789,375.75999982144265 1220.4587155963302,375.7175451350245 1209.2660550458716,375.7175451350245 1198.073394495413,375.7175451350245 1186.8807339449543,375.37321451533694 1175.6880733944954,375.37321451533694 1164.4954128440368,375.0853862253938 1153.302752293578,375.0853862253938 1142.1100917431193,375.0853862253938 1130.9174311926606,375.0853862253938 1119.724770642202,375.0853862253938 1108.532110091743,375.0853862253938 1097.3394495412845,374.94936214953174 1086.1467889908258,374.7255141836799 1074.9541284403672,373.7754599479656 1063.761467889908,372.6606647525165 1052.5688073394494,371.7523998191165 1041.3761467889908,369.74674418370046 1030.1834862385322,367.37878356739094 1018.9908256880734,365.70308772014886 1007.7981651376148,364.0273918729068 996.6055045871559,362.4597921996754 985.4128440366973,360.7840963524333 974.2201834862385,359.1690018218846 963.0275229357799,357.65480363519305 951.8348623853211,356.02786446766606 940.6422018348625,354.352168620424 929.4495412844036,352.6764727731819 918.256880733945,351.0007769259398 907.0642201834862,349.32508107869774 895.8715596330276,347.64938523145565 884.6788990825688,345.97368938421357 873.4862385321102,344.2979935369715 862.2935779816513,342.7104255070336 851.1009174311927,341.22513967115674 839.9082568807339,339.7527877598515 828.7155963302753,338.07709191260943 817.5229357798165,336.40139606536735 806.3302752293579,334.72570021812527 795.137614678899,333.0500043708832 783.9449541284404,331.3743085236411 772.7522935779816,329.698612676399 761.559633027523,328.02291682915694 750.3669724770642,326.34722098191486 739.1743119266056,324.6715251346728 727.9816513761467,322.9958292874307 716.7889908256881,321.3201334401886 705.5963302752293,319.64443759294653 694.4036697247707,316.29304589846237 683.2110091743119,312.94165420397826 672.0183486238533,309.5902625094941 660.8256880733945,306.23887081500993 649.6330275229358,304.56317496776785 638.4403669724771,301.2117832732837 627.2477064220184,297.8603915787995 616.0550458715596,296.18469573155744 604.862385321101,294.50899988431536 593.6697247706422,292.8333040370733 582.4770642201836,291.1576081898312 571.2844036697247,289.4819123425891 560.0917431192661,287.80621649534703 548.8990825688074,286.13052064810495 537.7064220183486,284.45482480086287 526.5137614678899,282.7791289536208 515.3211009174313,281.1034331063787 504.1284403669725,279.4277372591366 492.9357798165138,277.75204141189454 481.7431192660551,276.07634556465246 470.55045871559633,274.4006497174104 459.35779816513764,272.7249538701683 448.16513761467894,271.0492580229262 436.9724770642202,269.3735621756841 425.7798165137615,267.69786632844205 414.5871559633028,266.02217048119996 403.39449541284404,264.3464746339579 392.20183486238534,262.6707787867158 381.00917431192664,259.31938709223164 369.8165137614679,255.9679953977475 358.6238532110092,252.61660370326337 347.4311926605505,249.2652120087792 336.2385321100918,245.91382031429504 325.04587155963304,242.56242861981087 313.8532110091743,239.2110369253267 302.66055045871565,235.85964523084255 291.4678899082569,232.5082535363584 280.27522935779814,229.15686184187425 269.0825688073395,227.48116599463214 257.88990825688074,225.80547014739008 246.69724770642202,224.129774300148 235.50458715596332,220.77838260566384 224.3119266055046,219.10268675842175 213.1192660550459,216.68223720129433 201.92660550458714,215.00654135405222 190.73394495412845,213.33084550681016 179.54128440366975,211.65514965956805 168.348623853211,209.979453812326 157.1559633027523,208.3037579650839 145.96330275229357,206.62806211784184 134.77064220183487,204.95236627059973 123.57798165137615,203.27667042335767 112.38532110091744,201.6009745761156 101.19266055045871,199.9252787288735 90.0,198.24958288163143" fill="#2563eb" fill-opacity="0.70" stroke="#2563eb" stroke-width="1.2"/>
<polygon points="90.0,196.57388703438934 101.19266055045871,196.50545312579948 112.38532110091744,196.96702814956555 123.57798165137615,196.76167356501134 134.77064220183487,196.92142321484857 145.96330275229357,197.13217183788515 157.1559633027523,197.2957366895836 168.348623853211,195.33960894751553 179.54128440366975,195.19864120787125 190.73394495412845,195.5108050046058 201.92660550458714,195.61622131506576 213.1192660550459,196.4512892162543 224.3119266055046,197.91295991694142 235.50458715596332,197.17523564149857 246.69724770642202,199.75384468911355 257.88990825688074,196.14748652906272 269.0825688073395,195.63542511221985 280.27522935779814,196.35564976569793 291.4678899082569,203.78714794923158 302.66055045871565,200.6351454163923 313.8532110091743,201.07383658385652 325.04587155963304,199.53991981021693 336.2385321100918,201.97651779780114 347.4311926605505,204.14543254469436 358.6238532110092,204.08707702395222 369.8165137614679,198.5904609890012 381.00917431192664,199.00535938140888 392.20183486238534,201.28961592039218 403.39449541284404,196.92373353270898 414.5871559633028,195.7603808171507 425.7798165137615,195.13906034514548 436.9724770642202,198.29257888063296 448.16513761467894,173.7509593512877 459.35779816513764,174.39601899127575 470.55045871559633,170.38499353915768 481.7431192660551,165.76175559755586 492.9357798165138,163.92341599303307 504.1284403669725,154.37553125697684 515.3211009174313,169.44729039086812 526.5137614678899,171.79296615832152 537.7064220183486,160.42686340096947 548.8990825688074,173.2591922680908 560.0917431192661,165.52472300387333 571.2844036697247,166.86256806847146 582.4770642201836,171.2585502930408 593.6697247706422,177.44300416196413 604.862385321101,177.67299696859038 616.0550458715596,184.38574570461762 627.2477064220184,194.015069215897 638.4403669724771,204.54638594982373 649.6330275229358,198.8433330021061 660.8256880733945,193.23707716987562 672.0183486238533,201.95926468359875 683.2110091743119,209.675507296951 694.4036697247707,203.19554237360785 705.5963302752293,201.1507525478804 716.7889908256881,189.3155526540583 727.9816513761467,189.23387149081884 739.1743119266056,167.32847507825903 750.3669724770642,163.7446670241083 761.559633027523,158.99194138061483 772.7522935779816,161.7939629283793 783.9449541284404,155.59568560983888 795.137614678899,162.2320934711567 806.3302752293579,166.69632827766537 817.5229357798165,163.16109718794502 828.7155963302753,160.68999863970657 839.9082568807339,137.1075909094331 851.1009174311927,122.1758630766156 862.2935779816513,120.61609771032738 873.4862385321102,125.84197316142723 884.6788990825688,109.33415007010302 895.8715596330276,109.71950960037958 907.0642201834862,114.99612683381719 918.256880733945,117.57051908904134 929.4495412844036,114.6140450132524 940.6422018348625,105.22079696639469 951.8348623853211,116.6115448350775 963.0275229357799,114.36234131068375 974.2201834862385,90.0 985.4128440366973,112.73699157243112 996.6055045871559,125.36611223168296 1007.7981651376148,117.4572447767165 1018.9908256880734,140.6807038027904 1030.1834862385322,142.3871786663447 1041.3761467889908,173.9455703473135 1052.5688073394494,180.61154469772944 1063.761467889908,187.48129636611444 1074.9541284403672,172.68835894020285 1086.1467889908258,182.5097713663258 1097.3394495412845,178.6323307258404 1108.532110091743,182.5517645685076 1119.724770642202,165.75874853244468 1130.9174311926606,172.9425489242177 1142.1100917431193,168.46596227919486 1153.302752293578,181.37187952526062 1164.4954128440368,210.1322839612739 1175.6880733944954,227.68048707429983 1186.8807339449543,232.32722135884063 1198.073394495413,241.67558686203168 1209.2660550458716,231.45262615929292 1220.4587155963302,232.9498997234088 1231.651376146789,214.4570098546183 1242.8440366972477,225.29937996288976 1254.0366972477066,234.1294468150589 1265.2293577981652,229.07677448871337 1276.4220183486239,214.42189195462828 1287.6146788990825,214.28031297060537 1298.8073394495414,212.74628940440104 1310.0,208.37639182231146 1310.0,307.7550197978125 1298.8073394495414,309.0285902768788 1287.6146788990825,308.6963672261456 1276.4220183486239,307.07213312172394 1265.2293577981652,314.76712147478577 1254.0366972477066,317.0403774834982 1242.8440366972477,312.8325598462972 1231.651376146789,306.8876733904129 1220.4587155963302,317.3753722283358 1209.2660550458716,316.371385387794 1198.073394495413,321.405076844586 1186.8807339449543,316.91132422737076 1175.6880733944954,313.7925254559502 1164.4954128440368,306.4422497932399 1153.302752293578,289.4142817286113 1142.1100917431193,281.7845671555613 1130.9174311926606,284.58197305499505 1119.724770642202,280.68164516863385 1108.532110091743,289.19943439888607 1097.3394495412845,286.9120099504345 1086.1467889908258,287.9552928979078 1074.9541284403672,282.30640462393785 1063.761467889908,290.7523156012629 1052.5688073394494,285.3278661306271 1041.3761467889908,281.11812276655814 1030.1834862385322,262.98493438593994 1018.9908256880734,261.93686931360503 1007.7981651376148,247.2810217477349 996.6055045871559,251.29025424929617 985.4128440366973,244.02068529612134 974.2201834862385,232.10722309633138 963.0275229357799,244.8190480703666 951.8348623853211,245.2587001642999 940.6422018348625,236.68578725947796 929.4495412844036,241.49550215597907 918.256880733945,240.4290668592957 907.0642201834862,238.0078098336563 895.8715596330276,238.72605634135283 884.6788990825688,240.16469672928875 873.4862385321102,251.87260446681879 862.2935779816513,250.04397131413788 851.1009174311927,251.089576532328 839.9082568807339,268.90192791355287 828.7155963302753,279.7364705063134 817.5229357798165,280.0065520935715 806.3302752293579,280.6407186714827 795.137614678899,276.7073431054132 783.9449541284404,272.7267765851076 772.7522935779816,274.25662684321946 761.559633027523,274.1951763473635 750.3669724770642,273.92794175960086 739.1743119266056,273.5953998079809 727.9816513761467,286.2360329892713 716.7889908256881,285.62498985238426 705.5963302752293,288.91358432513425 694.4036697247707,286.0751209381332 683.2110091743119,285.3336930886072 672.0183486238533,278.76534565343013 660.8256880733945,272.55378668670744 649.6330275229358,274.0120849052126 638.4403669724771,272.94385779349784 627.2477064220184,266.83914170038923 616.0550458715596,260.6636020477271 604.862385321101,256.45854038284045 593.6697247706422,256.57326146164536 582.4770642201836,252.6029996072386 571.2844036697247,247.6784545595515 560.0917431192661,245.40010390061386 548.8990825688074,246.23083917845392 537.7064220183486,238.3121662894288 526.5137614678899,241.41274171847377 515.3211009174313,239.6498341897868 504.1284403669725,231.8496624298103 492.9357798165138,234.06777372883602 481.7431192660551,233.86215694168743 470.55045871559633,235.4762313234344 459.35779816513764,236.77308408109027 448.16513761467894,233.93642003921912 436.9724770642202,243.49722678990358 425.7798165137615,240.71823665680768 414.5871559633028,238.69055616959517 403.39449541284404,238.05134629250315 392.20183486238534,239.06434119524826 381.00917431192664,235.40228489693234 369.8165137614679,232.9969871778808 358.6238532110092,233.85888521249686 347.4311926605505,231.35563354110207 336.2385321100918,228.09719000685715 325.04587155963304,225.15822424511722 313.8532110091743,223.40876797876294 302.66055045871565,220.92714518046202 291.4678899082569,220.42689768593308 280.27522935779814,214.43467544261955 269.0825688073395,213.07975618061187 257.88990825688074,212.0654412360286 246.69724770642202,212.95753458154843 235.50458715596332,209.57833258469805 224.3119266055046,209.00567294597468 213.1192660550459,207.75412987023236 201.92660550458714,206.55595414162863 190.73394495412845,205.50996273764648 179.54128440366975,204.2679125863893 168.348623853211,203.81588528030912 157.1559633027523,203.87762901845937 145.96330275229357,202.7290155761443 134.77064220183487,201.56247012729048 123.57798165137615,200.56895268596625 112.38532110091744,199.62611331886092 101.19266055045871,198.37205347989973 90.0,197.41173495801038" fill="#f97316" fill-opacity="0.70" stroke="#f97316" stroke-width="1.2"/>
<rect x="1100" y="76" width="16" height="12" fill="#f97316" fill-opacity="0.70" stroke="#f97316"/>
<text x="1124" y="86" font-family="monospace" font-size="12" fill="#0f172a">BTC</text>
<rect x="1100" y="98" width="16" height="12" fill="#2563eb" fill-opacity="0.70" stroke="#2563eb"/>
<text x="1124" y="108" font-family="monospace" font-size="12" fill="#0f172a">ETH</text>
<rect x="1100" y="120" width="16" height="12" fill="#facc15" fill-opacity="0.70" stroke="#facc15"/>
<text x="1124" y="130" font-family="monospace" font-size="12" fill="#0f172a">DAI</text>
<text x="700.0" y="782" text-anchor="middle" font-family="monospace" font-size="16" fill="#0f172a">time</text>
<text x="24" y="255.0" transform="rotate(-90 24,255.0)" text-anchor="middle" font-family="monospace" font-size="16" fill="#0f172a">asset value split (usd)</text>
<line x1="90" y1="605" x2="1310" y2="605" stroke="#334155" stroke-width="2"/>
<line x1="90" y1="480" x2="90" y2="605" stroke="#334155" stroke-width="2"/>
<line x1="90" y1="542.5" x2="1310" y2="542.5" stroke="#64748b" stroke-width="1.5" stroke-dasharray="6 4"/>
<line x1="90" y1="605.0" x2="1310" y2="605.0" stroke="#e2e8f0" stroke-width="1"/>
<text x="78" y="609.0" text-anchor="end" font-family="monospace" font-size="11" fill="#475569">-159</text>
<line x1="90" y1="542.5" x2="1310" y2="542.5" stroke="#e2e8f0" stroke-width="1"/>
<text x="78" y="546.5" text-anchor="end" font-family="monospace" font-size="11" fill="#475569">0</text>
<line x1="90" y1="480.0" x2="1310" y2="480.0" stroke="#e2e8f0" stroke-width="1"/>
<text x="78" y="484.0" text-anchor="end" font-family="monospace" font-size="11" fill="#475569">159</text>
<rect x="86.95" y="520.3858250996051" width="6.1000000000000005" height="22.114174900394914" fill="#ea580c" opacity="0.85"><title>2024-04-01 | BTC buy 56.25 usd | reason=balanced_regime</title></rect>
<rect x="98.14266055045871" y="515.9629901195261" width="6.1000000000000005" height="26.537009880473875" fill="#ea580c" opacity="0.85"><title>2024-04-08 | BTC buy 67.50 usd | reason=btc_defensive_regime</title></rect>
<rect x="109.33532110091744" y="515.9629901195261" width="6.1000000000000005" height="26.537009880473875" fill="#ea580c" opacity="0.85"><title>2024-04-15 | BTC buy 67.50 usd | reason=btc_defensive_regime</title></rect>
<rect x="120.52798165137615" y="515.9629901195261" width="6.1000000000000005" height="26.537009880473875" fill="#ea580c" opacity="0.85"><title>2024-04-22 | BTC buy 67.50 usd | reason=btc_defensive_regime</title></rect>
<rect x="131.72064220183486" y="515.9629901195261" width="6.1000000000000005" height="26.537009880473875" fill="#ea580c" opacity="0.85"><title>2024-04-29 | BTC buy 67.50 usd | reason=btc_defensive_regime</title></rect>
<rect x="142.91330275229356" y="515.9629901195261" width="6.1000000000000005" height="26.537009880473875" fill="#ea580c" opacity="0.85"><title>2024-05-06 | BTC buy 67.50 usd | reason=btc_defensive_regime</title></rect>
<rect x="154.1059633027523" y="515.9629901195261" width="6.1000000000000005" height="26.537009880473875" fill="#ea580c" opacity="0.85"><title>2024-05-13 | BTC buy 67.50 usd | reason=btc_defensive_regime</title></rect>
<rect x="165.29862385321098" y="515.9629901195261" width="6.1000000000000005" height="26.537009880473875" fill="#ea580c" opacity="0.85"><title>2024-05-20 | BTC buy 67.50 usd | reason=btc_defensive_regime</title></rect>
<rect x="176.49128440366974" y="520.3858250996051" width="6.1000000000000005" height="22.114174900394914" fill="#ea580c" opacity="0.85"><title>2024-05-27 | BTC buy 56.25 usd | reason=balanced_regime</title></rect>
<rect x="187.68394495412844" y="515.9629901195261" width="6.1000000000000005" height="26.537009880473875" fill="#ea580c" opacity="0.85"><title>2024-06-03 | BTC buy 67.50 usd | reason=btc_defensive_regime</title></rect>
<rect x="198.87660550458713" y="520.3858250996051" width="6.1000000000000005" height="22.114174900394914" fill="#ea580c" opacity="0.85"><title>2024-06-10 | BTC buy 56.25 usd | reason=balanced_regime</title></rect>
<rect x="210.0692660550459" y="520.3858250996051" width="6.1000000000000005" height="22.114174900394914" fill="#ea580c" opacity="0.85"><title>2024-06-17 | BTC buy 56.25 usd | reason=balanced_regime</title></rect>
<rect x="221.26192660550458" y="520.1401120451562" width="6.1000000000000005" height="22.35988795484377" fill="#ea580c" opacity="0.85"><title>2024-06-24 | BTC buy 56.88 usd | reason=eth_strong_risk_on</title></rect>
<rect x="232.4545871559633" y="520.3858250996051" width="6.1000000000000005" height="22.114174900394914" fill="#ea580c" opacity="0.85"><title>2024-07-01 | BTC buy 56.25 usd | reason=balanced_regime</title></rect>
<rect x="243.647247706422" y="489.42598023905225" width="6.1000000000000005" height="53.07401976094775" fill="#ea580c" opacity="0.85"><title>2024-07-08 | BTC buy 135.00 usd | reason=both_weak_btc_defensive</title></rect>
<rect x="254.83990825688073" y="520.3858250996051" width="6.1000000000000005" height="22.114174900394914" fill="#ea580c" opacity="0.85"><title>2024-07-15 | BTC buy 56.25 usd | reason=balanced_regime</title></rect>
<rect x="266.0325688073395" y="520.3858250996051" width="6.1000000000000005" height="22.114174900394914" fill="#ea580c" opacity="0.85"><title>2024-07-22 | BTC buy 56.25 usd | reason=balanced_regime</title></rect>
<rect x="277.2252293577981" y="520.3858250996051" width="6.1000000000000005" height="22.114174900394914" fill="#ea580c" opacity="0.85"><title>2024-07-29 | BTC buy 56.25 usd | reason=balanced_regime</title></rect>
<rect x="288.4178899082569" y="489.42598023905225" width="6.1000000000000005" height="53.07401976094775" fill="#ea580c" opacity="0.85"><title>2024-08-05 | BTC buy 135.00 usd | reason=both_weak_btc_defensive</title></rect>
<rect x="299.61055045871564" y="489.42598023905225" width="6.1000000000000005" height="53.07401976094775" fill="#ea580c" opacity="0.85"><title>2024-08-12 | BTC buy 135.00 usd | reason=both_weak_btc_defensive</title></rect>
<rect x="310.8032110091743" y="489.42598023905225" width="6.1000000000000005" height="53.07401976094775" fill="#ea580c" opacity="0.85"><title>2024-08-19 | BTC buy 135.00 usd | reason=both_weak_btc_defensive</title></rect>
<rect x="321.99587155963303" y="489.42598023905225" width="6.1000000000000005" height="53.07401976094775" fill="#ea580c" opacity="0.85"><title>2024-08-26 | BTC buy 135.00 usd | reason=both_weak_btc_defensive</title></rect>
<rect x="333.1885321100918" y="489.42598023905225" width="6.1000000000000005" height="53.07401976094775" fill="#ea580c" opacity="0.85"><title>2024-09-02 | BTC buy 135.00 usd | reason=both_weak_btc_defensive</title></rect>
<rect x="344.3811926605505" y="489.42598023905225" width="6.1000000000000005" height="53.07401976094775" fill="#ea580c" opacity="0.85"><title>2024-09-09 | BTC buy 135.00 usd | reason=both_weak_btc_defensive</title></rect>
<rect x="355.5738532110092" y="489.42598023905225" width="6.1000000000000005" height="53.07401976094775" fill="#ea580c" opacity="0.85"><title>2024-09-16 | BTC buy 135.00 usd | reason=both_weak_btc_defensive</title></rect>
<rect x="366.7665137614679" y="489.42598023905225" width="6.1000000000000005" height="53.07401976094775" fill="#ea580c" opacity="0.85"><title>2024-09-23 | BTC buy 135.00 usd | reason=both_weak_btc_defensive</title></rect>
<rect x="377.95917431192663" y="489.42598023905225" width="6.1000000000000005" height="53.07401976094775" fill="#ea580c" opacity="0.85"><title>2024-09-30 | BTC buy 135.00 usd | reason=both_weak_btc_defensive</title></rect>
<rect x="389.15183486238533" y="489.42598023905225" width="6.1000000000000005" height="53.07401976094775" fill="#ea580c" opacity="0.85"><title>2024-10-07 | BTC buy 135.00 usd | reason=both_weak_btc_defensive</title></rect>
<rect x="400.344495412844" y="515.9629901195261" width="6.1000000000000005" height="26.537009880473875" fill="#ea580c" opacity="0.85"><title>2024-10-14 | BTC buy 67.50 usd | reason=btc_defensive_regime</title></rect>
<rect x="411.5371559633028" y="515.9629901195261" width="6.1000000000000005" height="26.537009880473875" fill="#ea580c" opacity="0.85"><title>2024-10-21 | BTC buy 67.50 usd | reason=btc_defensive_regime</title></rect>
<rect x="422.7298165137615" y="515.9629901195261" width="6.1000000000000005" height="26.537009880473875" fill="#ea580c" opacity="0.85"><title>2024-10-28 | BTC buy 67.50 usd | reason=btc_defensive_regime</title></rect>
<rect x="433.9224770642202" y="515.9629901195261" width="6.1000000000000005" height="26.537009880473875" fill="#ea580c" opacity="0.85"><title>2024-11-04 | BTC buy 67.50 usd | reason=btc_defensive_regime</title></rect>
<rect x="445.11513761467893" y="515.9629901195261" width="6.1000000000000005" height="26.537009880473875" fill="#ea580c" opacity="0.85"><title>2024-11-11 | BTC buy 67.50 usd | reason=btc_defensive_regime</title></rect>
<rect x="456.3077981651376" y="515.9629901195261" width="6.1000000000000005" height="26.537009880473875" fill="#ea580c" opacity="0.85"><title>2024-11-18 | BTC buy 67.50 usd | reason=btc_defensive_regime</title></rect>
<rect x="467.5004587155963" y="515.9629901195261" width="6.1000000000000005" height="26.537009880473875" fill="#ea580c" opacity="0.85"><title>2024-11-25 | BTC buy 67.50 usd | reason=btc_defensive_regime</title></rect>
<rect x="478.6931192660551" y="515.9629901195261" width="6.1000000000000005" height="26.537009880473875" fill="#ea580c" opacity="0.85"><title>2024-12-02 | BTC buy 67.50 usd | reason=btc_defensive_regime</title></rect>
<rect x="489.8857798165138" y="515.9629901195261" width="6.1000000000000005" height="26.537009880473875" fill="#ea580c" opacity="0.85"><title>2024-12-09 | BTC buy 67.50 usd | reason=btc_defensive_regime</title></rect>
<rect x="501.0784403669725" y="515.9629901195261" width="6.1000000000000005" height="26.537009880473875" fill="#ea580c" opacity="0.85"><title>2024-12-16 | BTC buy 67.50 usd | reason=btc_defensive_regime</title></rect>
<rect x="512.2711009174313" y="515.9629901195261" width="6.1000000000000005" height="26.537009880473875" fill="#ea580c" opacity="0.85"><title>2024-12-23 | BTC buy 67.50 usd | reason=btc_defensive_regime</title></rect>
<rect x="523.46376146789" y="515.9629901195261" width="6.1000000000000005" height="26.537009880473875" fill="#ea580c" opacity="0.85"><title>2024-12-30 | BTC buy 67.50 usd | reason=btc_defensive_regime</title></rect>
<rect x="534.6564220183486" y="515.9629901195261" width="6.1000000000000005" height="26.537009880473875" fill="#ea580c" opacity="0.85"><title>2025-01-06 | BTC buy 67.50 usd | reason=btc_defensive_regime</title></rect>
<rect x="545.8490825688075" y="515.9629901195261" width="6.1000000000000005" height="26.537009880473875" fill="#ea580c" opacity="0.85"><title>2025-01-13 | BTC buy 67.50 usd | reason=btc_defensive_regime</title></rect>
<rect x="557.0417431192661" y="515.9629901195261" width="6.1000000000000005" height="26.537009880473875" fill="#ea580c" opacity="0.85"><title>2025-01-20 | BTC buy 67.50 usd | reason=btc_defensive_regime</title></rect>
<rect x="568.2344036697248" y="515.9629901195261" width="6.1000000000000005" height="26.537009880473875" fill="#ea580c" opacity="0.85"><title>2025-01-27 | BTC buy 67.50 usd | reason=btc_defensive_regime</title></rect>
<rect x="579.4270642201836" y="515.9629901195261" width="6.1000000000000005" height="26.537009880473875" fill="#ea580c" opacity="0.85"><title>2025-02-03 | BTC buy 67.50 usd | reason=btc_defensive_regime</title></rect>
<rect x="590.6197247706423" y="515.9629901195261" width="6.1000000000000005" height="26.537009880473875" fill="#ea580c" opacity="0.85"><title>2025-02-10 | BTC buy 67.50 usd | reason=btc_defensive_regime</title></rect>
<rect x="601.812385321101" y="515.9629901195261" width="6.1000000000000005" height="26.537009880473875" fill="#ea580c" opacity="0.85"><title>2025-02-17 | BTC buy 67.50 usd | reason=btc_defensive_regime</title></rect>
<rect x="613.0050458715597" y="515.9629901195261" width="6.1000000000000005" height="26.537009880473875" fill="#ea580c" opacity="0.85"><title>2025-02-24 | BTC buy 67.50 usd | reason=btc_defensive_regime</title></rect>
<rect x="624.1977064220184" y="515.9629901195261" width="6.1000000000000005" height="26.537009880473875" fill="#ea580c" opacity="0.85"><title>2025-03-03 | BTC buy 67.50 usd | reason=btc_defensive_regime</title></rect>
<rect x="635.3903669724772" y="489.42598023905225" width="6.1000000000000005" height="53.07401976094775" fill="#ea580c" opacity="0.85"><title>2025-03-10 | BTC buy 135.00 usd | reason=both_weak_btc_defensive</title></rect>
<rect x="646.5830275229358" y="489.42598023905225" width="6.1000000000000005" height="53.07401976094775" fill="#ea580c" opacity="0.85"><title>2025-03-17 | BTC buy 135.00 usd | reason=both_weak_btc_defensive</title></rect>
<rect x="657.7756880733946" y="515.9629901195261" width="6.1000000000000005" height="26.537009880473875" fill="#ea580c" opacity="0.85"><title>2025-03-24 | BTC buy 67.50 usd | reason=btc_defensive_regime</title></rect>
<rect x="668.9683486238533" y="489.42598023905225" width="6.1000000000000005" height="53.07401976094775" fill="#ea580c" opacity="0.85"><title>2025-03-31 | BTC buy 135.00 usd | reason=both_weak_btc_defensive</title></rect>
<rect x="680.161009174312" y="489.42598023905225" width="6.1000000000000005" height="53.07401976094775" fill="#ea580c" opacity="0.85"><title>2025-04-07 | BTC buy 135.00 usd | reason=both_weak_btc_defensive</title></rect>
<rect x="691.3536697247707" y="489.42598023905225" width="6.1000000000000005" height="53.07401976094775" fill="#ea580c" opacity="0.85"><title>2025-04-14 | BTC buy 135.00 usd | reason=both_weak_btc_defensive</title></rect>
<rect x="702.5463302752294" y="489.42598023905225" width="6.1000000000000005" height="53.07401976094775" fill="#ea580c" opacity="0.85"><title>2025-04-21 | BTC buy 135.00 usd | reason=both_weak_btc_defensive</title></rect>
<rect x="713.7389908256881" y="515.9629901195261" width="6.1000000000000005" height="26.537009880473875" fill="#ea580c" opacity="0.85"><title>2025-04-28 | BTC buy 67.50 usd | reason=btc_defensive_regime</title></rect>
<rect x="724.9316513761468" y="515.9629901195261" width="6.1000000000000005" height="26.537009880473875" fill="#ea580c" opacity="0.85"><title>2025-05-05 | BTC buy 67.50 usd | reason=btc_defensive_regime</title></rect>
<rect x="736.1243119266056" y="515.9629901195261" width="6.1000000000000005" height="26.537009880473875" fill="#ea580c" opacity="0.85"><title>2025-05-12 | BTC buy 67.50 usd | reason=btc_defensive_regime</title></rect>
<rect x="747.3169724770643" y="515.9629901195261" width="6.1000000000000005" height="26.537009880473875" fill="#ea580c" opacity="0.85"><title>2025-05-19 | BTC buy 67.50 usd | reason=btc_defensive_regime</title></rect>
<rect x="758.509633027523" y="515.9629901195261" width="6.1000000000000005" height="26.537009880473875" fill="#ea580c" opacity="0.85"><title>2025-05-26 | BTC buy 67.50 usd | reason=btc_defensive_regime</title></rect>
<rect x="769.7022935779817" y="515.9629901195261" width="6.1000000000000005" height="26.537009880473875" fill="#ea580c" opacity="0.85"><title>2025-06-02 | BTC buy 67.50 usd | reason=btc_defensive_regime</title></rect>
<rect x="780.8949541284404" y="542.5" width="6.1000000000000005" height="1.5" fill="#ea580c" opacity="0.85"><title>2025-06-09 | BTC buy 0.00 usd | reason=balanced_regime</title></rect>
<rect x="792.0876146788991" y="515.9629901195261" width="6.1000000000000005" height="26.537009880473875" fill="#ea580c" opacity="0.85"><title>2025-06-16 | BTC buy 67.50 usd | reason=btc_defensive_regime</title></rect>
<rect x="803.2802752293579" y="515.9629901195261" width="6.1000000000000005" height="26.537009880473875" fill="#ea580c" opacity="0.85"><title>2025-06-23 | BTC buy 67.50 usd | reason=btc_defensive_regime</title></rect>
<rect x="814.4729357798166" y="515.9629901195261" width="6.1000000000000005" height="26.537009880473875" fill="#ea580c" opacity="0.85"><title>2025-06-30 | BTC buy 67.50 usd | reason=btc_defensive_regime</title></rect>
<rect x="825.6655963302753" y="515.9629901195261" width="6.1000000000000005" height="26.537009880473875" fill="#ea580c" opacity="0.85"><title>2025-07-07 | BTC buy 67.50 usd | reason=btc_defensive_regime</title></rect>
<rect x="836.858256880734" y="542.5" width="6.1000000000000005" height="1.5" fill="#ea580c" opacity="0.85"><title>2025-07-14 | BTC buy 0.00 usd | reason=balanced_regime</title></rect>
<rect x="848.0509174311927" y="542.5" width="6.1000000000000005" height="5.367063923496289" fill="#dc2626" opacity="0.85"><title>2025-07-21 | BTC sell 13.65 usd | reason=balanced_regime</title></rect>
<rect x="859.2435779816514" y="542.5" width="6.1000000000000005" height="5.025685658941143" fill="#dc2626" opacity="0.85"><title>2025-07-28 | BTC sell 12.78 usd | reason=balanced_regime</title></rect>
<rect x="870.4362385321102" y="542.5" width="6.1000000000000005" height="2.326047377466807" fill="#dc2626" opacity="0.85"><title>2025-08-04 | BTC sell 5.92 usd | reason=balanced_regime</title></rect>
<rect x="881.6288990825689" y="521.3418574064217" width="6.1000000000000005" height="21.158142593578305" fill="#ea580c" opacity="0.85"><title>2025-08-11 | BTC buy 53.82 usd | reason=balanced_regime</title></rect>
<rect x="892.8215596330276" y="520.3858250996051" width="6.1000000000000005" height="22.114174900394914" fill="#ea580c" opacity="0.85"><title>2025-08-18 | BTC buy 56.25 usd | reason=balanced_regime</title></rect>
<rect x="904.0142201834863" y="520.3858250996051" width="6.1000000000000005" height="22.114174900394914" fill="#ea580c" opacity="0.85"><title>2025-08-25 | BTC buy 56.25 usd | reason=balanced_regime</title></rect>
<rect x="915.206880733945" y="520.3858250996051" width="6.1000000000000005" height="22.114174900394914" fill="#ea580c" opacity="0.85"><title>2025-09-01 | BTC buy 56.25 usd | reason=balanced_regime</title></rect>
<rect x="926.3995412844037" y="520.3858250996051" width="6.1000000000000005" height="22.114174900394914" fill="#ea580c" opacity="0.85"><title>2025-09-08 | BTC buy 56.25 usd | reason=balanced_regime</title></rect>
<rect x="937.5922018348625" y="520.3858250996051" width="6.1000000000000005" height="22.114174900394914" fill="#ea580c" opacity="0.85"><title>2025-09-15 | BTC buy 56.25 usd | reason=balanced_regime</title></rect>
<rect x="948.7848623853212" y="537.3454569962723" width="6.1000000000000005" height="5.154543003727667" fill="#ea580c" opacity="0.85"><title>2025-09-22 | BTC buy 13.11 usd | reason=balanced_regime</title></rect>
<rect x="959.9775229357799" y="542.5" width="6.1000000000000005" height="1.5" fill="#dc2626" opacity="0.85"><title>2025-09-29 | BTC sell 3.27 usd | reason=balanced_regime</title></rect>
<rect x="971.1701834862386" y="542.5" width="6.1000000000000005" height="4.2625724916578065" fill="#dc2626" opacity="0.85"><title>2025-10-06 | BTC sell 10.84 usd | reason=balanced_regime</title></rect>
<rect x="982.3628440366973" y="542.5" width="6.1000000000000005" height="1.599512368257706" fill="#dc2626" opacity="0.85"><title>2025-10-13 | BTC sell 4.07 usd | reason=balanced_regime</title></rect>
<rect x="993.555504587156" y="542.5" width="6.1000000000000005" height="1.5" fill="#ea580c" opacity="0.85"><title>2025-10-20 | BTC buy 0.00 usd | reason=balanced_regime</title></rect>
<rect x="1004.7481651376148" y="542.5" width="6.1000000000000005" height="2.85309258487473" fill="#dc2626" opacity="0.85"><title>2025-10-27 | BTC sell 7.26 usd | reason=balanced_regime</title></rect>
<rect x="1015.9408256880735" y="542.5" width="6.1000000000000005" height="1.5" fill="#ea580c" opacity="0.85"><title>2025-11-03 | BTC buy 0.00 usd | reason=balanced_regime</title></rect>
<rect x="1027.1334862385322" y="542.5" width="6.1000000000000005" height="1.5" fill="#ea580c" opacity="0.85"><title>2025-11-10 | BTC buy 0.00 usd | reason=balanced_regime</title></rect>
<rect x="1038.3261467889909" y="480.0" width="6.1000000000000005" height="62.5" fill="#ea580c" opacity="0.85"><title>2025-11-17 | BTC buy 158.98 usd | reason=both_weak_btc_defensive</title></rect>
<rect x="1049.5188073394495" y="489.5626849322905" width="6.1000000000000005" height="52.937315067709505" fill="#ea580c" opacity="0.85"><title>2025-11-24 | BTC buy 134.65 usd | reason=both_weak_btc_defensive</title></rect>
<rect x="1060.7114678899081" y="518.5272371311765" width="6.1000000000000005" height="23.97276286882345" fill="#ea580c" opacity="0.85"><title>2025-12-01 | BTC buy 60.98 usd | reason=both_weak_btc_defensive</title></rect>
<rect x="1071.9041284403672" y="513.076073252367" width="6.1000000000000005" height="29.423926747633004" fill="#ea580c" opacity="0.85"><title>2025-12-08 | BTC buy 74.84 usd | reason=both_weak_btc_defensive</title></rect>
<rect x="1083.0967889908259" y="517.4242494477446" width="6.1000000000000005" height="25.075750552255386" fill="#ea580c" opacity="0.85"><title>2025-12-15 | BTC buy 63.78 usd | reason=both_weak_btc_defensive</title></rect>
<rect x="1094.2894495412845" y="536.5917522996879" width="6.1000000000000005" height="5.908247700312131" fill="#ea580c" opacity="0.85"><title>2025-12-22 | BTC buy 15.03 usd | reason=both_weak_btc_defensive</title></rect>
<rect x="1105.4821100917432" y="538.9097778135219" width="6.1000000000000005" height="3.5902221864780586" fill="#ea580c" opacity="0.85"><title>2025-12-29 | BTC buy 9.13 usd | reason=both_weak_btc_defensive</title></rect>
<rect x="1116.674770642202" y="542.5" width="6.1000000000000005" height="1.5" fill="#ea580c" opacity="0.85"><title>2026-01-05 | BTC buy 0.00 usd | reason=both_weak_btc_defensive</title></rect>
<rect x="1127.8674311926607" y="542.5" width="6.1000000000000005" height="1.5" fill="#ea580c" opacity="0.85"><title>2026-01-12 | BTC buy 0.00 usd | reason=both_weak_btc_defensive</title></rect>
<rect x="1139.0600917431193" y="542.5" width="6.1000000000000005" height="1.5" fill="#ea580c" opacity="0.85"><title>2026-01-19 | BTC buy 0.00 usd | reason=both_weak_btc_defensive</title></rect>
<rect x="1150.252752293578" y="542.5" width="6.1000000000000005" height="1.5" fill="#ea580c" opacity="0.85"><title>2026-01-26 | BTC buy 0.00 usd | reason=both_weak_btc_defensive</title></rect>
<rect x="1161.4454128440368" y="542.5" width="6.1000000000000005" height="1.5" fill="#ea580c" opacity="0.85"><title>2026-02-02 | BTC buy 0.00 usd | reason=both_weak_btc_defensive</title></rect>
<rect x="1172.6380733944954" y="534.903054342398" width="6.1000000000000005" height="7.596945657601964" fill="#ea580c" opacity="0.85"><title>2026-02-09 | BTC buy 19.32 usd | reason=both_weak_btc_defensive</title></rect>
<rect x="1183.8307339449543" y="542.5" width="6.1000000000000005" height="1.5" fill="#ea580c" opacity="0.85"><title>2026-02-16 | BTC buy 0.00 usd | reason=both_weak_btc_defensive</title></rect>
<rect x="1195.023394495413" y="533.4117307178806" width="6.1000000000000005" height="9.088269282119427" fill="#ea580c" opacity="0.85"><title>2026-02-23 | BTC buy 23.12 usd | reason=both_weak_btc_defensive</title></rect>
<rect x="1206.2160550458716" y="542.5" width="6.1000000000000005" height="1.5" fill="#ea580c" opacity="0.85"><title>2026-03-02 | BTC buy 0.00 usd | reason=both_weak_btc_defensive</title></rect>
<rect x="1217.4087155963302" y="542.5" width="6.1000000000000005" height="1.5" fill="#ea580c" opacity="0.85"><title>2026-03-09 | BTC buy 0.00 usd | reason=both_weak_btc_defensive</title></rect>
<rect x="1228.601376146789" y="541.3794501551857" width="6.1000000000000005" height="1.5" fill="#ea580c" opacity="0.85"><title>2026-03-16 | BTC buy 2.85 usd | reason=both_weak_btc_defensive</title></rect>
<rect x="1239.7940366972477" y="541.0553825528405" width="6.1000000000000005" height="1.5" fill="#ea580c" opacity="0.85"><title>2026-03-23 | BTC buy 3.67 usd | reason=both_weak_btc_defensive</title></rect>
<rect x="1250.9866972477066" y="529.6405120410603" width="6.1000000000000005" height="12.859487958939667" fill="#ea580c" opacity="0.85"><title>2026-03-30 | BTC buy 32.71 usd | reason=both_weak_btc_defensive</title></rect>
<rect x="1262.1793577981653" y="538.5390583135805" width="6.1000000000000005" height="3.96094168641946" fill="#ea580c" opacity="0.85"><title>2026-04-06 | BTC buy 10.08 usd | reason=both_weak_btc_defensive</title></rect>
<rect x="1273.372018348624" y="542.5" width="6.1000000000000005" height="1.5" fill="#ea580c" opacity="0.85"><title>2026-04-13 | BTC buy 0.00 usd | reason=both_weak_btc_defensive</title></rect>
<rect x="1284.5646788990825" y="542.5" width="6.1000000000000005" height="1.5" fill="#ea580c" opacity="0.85"><title>2026-04-20 | BTC buy 0.00 usd | reason=both_weak_btc_defensive</title></rect>
<rect x="1295.7573394495414" y="542.5" width="6.1000000000000005" height="1.5" fill="#ea580c" opacity="0.85"><title>2026-04-27 | BTC buy 0.00 usd | reason=both_weak_btc_defensive</title></rect>
<rect x="1306.95" y="542.5" width="6.1000000000000005" height="1.5" fill="#ea580c" opacity="0.85"><title>2026-05-04 | BTC buy 0.00 usd | reason=both_weak_btc_defensive</title></rect>
<text x="24" y="542.5" transform="rotate(-90 24,542.5)" text-anchor="middle" font-family="monospace" font-size="14" fill="#0f172a">BTC weekly trade usd</text>
<line x1="90" y1="770" x2="1310" y2="770" stroke="#334155" stroke-width="2"/>
<line x1="90" y1="645" x2="90" y2="770" stroke="#334155" stroke-width="2"/>
<line x1="90" y1="707.5" x2="1310" y2="707.5" stroke="#64748b" stroke-width="1.5" stroke-dasharray="6 4"/>
<line x1="90" y1="770.0" x2="1310" y2="770.0" stroke="#e2e8f0" stroke-width="1"/>
<text x="78" y="774.0" text-anchor="end" font-family="monospace" font-size="11" fill="#475569">-112</text>
<line x1="90" y1="707.5" x2="1310" y2="707.5" stroke="#e2e8f0" stroke-width="1"/>
<text x="78" y="711.5" text-anchor="end" font-family="monospace" font-size="11" fill="#475569">0</text>
<line x1="90" y1="645.0" x2="1310" y2="645.0" stroke="#e2e8f0" stroke-width="1"/>
<text x="78" y="649.0" text-anchor="end" font-family="monospace" font-size="11" fill="#475569">112</text>
<rect x="86.95" y="676.25" width="6.1000000000000005" height="31.25" fill="#2563eb" opacity="0.85"><title>2024-04-01 | ETH buy 56.25 usd | reason=balanced_regime</title></rect>
<rect x="98.14266055045871" y="682.5" width="6.1000000000000005" height="25.0" fill="#2563eb" opacity="0.85"><title>2024-04-08 | ETH buy 45.00 usd | reason=btc_defensive_regime</title></rect>
<rect x="109.33532110091744" y="682.5" width="6.1000000000000005" height="25.0" fill="#2563eb" opacity="0.85"><title>2024-04-15 | ETH buy 45.00 usd | reason=btc_defensive_regime</title></rect>
<rect x="120.52798165137615" y="682.5" width="6.1000000000000005" height="25.0" fill="#2563eb" opacity="0.85"><title>2024-04-22 | ETH buy 45.00 usd | reason=btc_defensive_regime</title></rect>
<rect x="131.72064220183486" y="682.5" width="6.1000000000000005" height="25.0" fill="#2563eb" opacity="0.85"><title>2024-04-29 | ETH buy 45.00 usd | reason=btc_defensive_regime</title></rect>
<rect x="142.91330275229356" y="682.5" width="6.1000000000000005" height="25.0" fill="#2563eb" opacity="0.85"><title>2024-05-06 | ETH buy 45.00 usd | reason=btc_defensive_regime</title></rect>
<rect x="154.1059633027523" y="682.5" width="6.1000000000000005" height="25.0" fill="#2563eb" opacity="0.85"><title>2024-05-13 | ETH buy 45.00 usd | reason=btc_defensive_regime</title></rect>
<rect x="165.29862385321098" y="682.5" width="6.1000000000000005" height="25.0" fill="#2563eb" opacity="0.85"><title>2024-05-20 | ETH buy 45.00 usd | reason=btc_defensive_regime</title></rect>
<rect x="176.49128440366974" y="676.25" width="6.1000000000000005" height="31.25" fill="#2563eb" opacity="0.85"><title>2024-05-27 | ETH buy 56.25 usd | reason=balanced_regime</title></rect>
<rect x="187.68394495412844" y="682.5" width="6.1000000000000005" height="25.0" fill="#2563eb" opacity="0.85"><title>2024-06-03 | ETH buy 45.00 usd | reason=btc_defensive_regime</title></rect>
<rect x="198.87660550458713" y="676.25" width="6.1000000000000005" height="31.25" fill="#2563eb" opacity="0.85"><title>2024-06-10 | ETH buy 56.25 usd | reason=balanced_regime</title></rect>
<rect x="210.0692660550459" y="676.25" width="6.1000000000000005" height="31.25" fill="#2563eb" opacity="0.85"><title>2024-06-17 | ETH buy 56.25 usd | reason=balanced_regime</title></rect>
<rect x="221.26192660550458" y="648.8194444444445" width="6.1000000000000005" height="58.68055555555554" fill="#2563eb" opacity="0.85"><title>2024-06-24 | ETH buy 105.62 usd | reason=eth_strong_risk_on</title></rect>
<rect x="232.4545871559633" y="676.25" width="6.1000000000000005" height="31.25" fill="#2563eb" opacity="0.85"><title>2024-07-01 | ETH buy 56.25 usd | reason=balanced_regime</title></rect>
<rect x="243.647247706422" y="657.5" width="6.1000000000000005" height="50.0" fill="#2563eb" opacity="0.85"><title>2024-07-08 | ETH buy 90.00 usd | reason=both_weak_btc_defensive</title></rect>
<rect x="254.83990825688073" y="676.25" width="6.1000000000000005" height="31.25" fill="#2563eb" opacity="0.85"><title>2024-07-15 | ETH buy 56.25 usd | reason=balanced_regime</title></rect>
<rect x="266.0325688073395" y="676.25" width="6.1000000000000005" height="31.25" fill="#2563eb" opacity="0.85"><title>2024-07-22 | ETH buy 56.25 usd | reason=balanced_regime</title></rect>
<rect x="277.2252293577981" y="676.25" width="6.1000000000000005" height="31.25" fill="#2563eb" opacity="0.85"><title>2024-07-29 | ETH buy 56.25 usd | reason=balanced_regime</title></rect>
<rect x="288.4178899082569" y="657.5" width="6.1000000000000005" height="50.0" fill="#2563eb" opacity="0.85"><title>2024-08-05 | ETH buy 90.00 usd | reason=both_weak_btc_defensive</title></rect>
<rect x="299.61055045871564" y="657.5" width="6.1000000000000005" height="50.0" fill="#2563eb" opacity="0.85"><title>2024-08-12 | ETH buy 90.00 usd | reason=both_weak_btc_defensive</title></rect>
<rect x="310.8032110091743" y="657.5" width="6.1000000000000005" height="50.0" fill="#2563eb" opacity="0.85"><title>2024-08-19 | ETH buy 90.00 usd | reason=both_weak_btc_defensive</title></rect>
<rect x="321.99587155963303" y="657.5" width="6.1000000000000005" height="50.0" fill="#2563eb" opacity="0.85"><title>2024-08-26 | ETH buy 90.00 usd | reason=both_weak_btc_defensive</title></rect>
<rect x="333.1885321100918" y="657.5" width="6.1000000000000005" height="50.0" fill="#2563eb" opacity="0.85"><title>2024-09-02 | ETH buy 90.00 usd | reason=both_weak_btc_defensive</title></rect>
<rect x="344.3811926605505" y="657.5" width="6.1000000000000005" height="50.0" fill="#2563eb" opacity="0.85"><title>2024-09-09 | ETH buy 90.00 usd | reason=both_weak_btc_defensive</title></rect>
<rect x="355.5738532110092" y="657.5" width="6.1000000000000005" height="50.0" fill="#2563eb" opacity="0.85"><title>2024-09-16 | ETH buy 90.00 usd | reason=both_weak_btc_defensive</title></rect>
<rect x="366.7665137614679" y="657.5" width="6.1000000000000005" height="50.0" fill="#2563eb" opacity="0.85"><title>2024-09-23 | ETH buy 90.00 usd | reason=both_weak_btc_defensive</title></rect>
<rect x="377.95917431192663" y="657.5" width="6.1000000000000005" height="50.0" fill="#2563eb" opacity="0.85"><title>2024-09-30 | ETH buy 90.00 usd | reason=both_weak_btc_defensive</title></rect>
<rect x="389.15183486238533" y="657.5" width="6.1000000000000005" height="50.0" fill="#2563eb" opacity="0.85"><title>2024-10-07 | ETH buy 90.00 usd | reason=both_weak_btc_defensive</title></rect>
<rect x="400.344495412844" y="682.5" width="6.1000000000000005" height="25.0" fill="#2563eb" opacity="0.85"><title>2024-10-14 | ETH buy 45.00 usd | reason=btc_defensive_regime</title></rect>
<rect x="411.5371559633028" y="682.5" width="6.1000000000000005" height="25.0" fill="#2563eb" opacity="0.85"><title>2024-10-21 | ETH buy 45.00 usd | reason=btc_defensive_regime</title></rect>
<rect x="422.7298165137615" y="682.5" width="6.1000000000000005" height="25.0" fill="#2563eb" opacity="0.85"><title>2024-10-28 | ETH buy 45.00 usd | reason=btc_defensive_regime</title></rect>
<rect x="433.9224770642202" y="682.5" width="6.1000000000000005" height="25.0" fill="#2563eb" opacity="0.85"><title>2024-11-04 | ETH buy 45.00 usd | reason=btc_defensive_regime</title></rect>
<rect x="445.11513761467893" y="682.5" width="6.1000000000000005" height="25.0" fill="#2563eb" opacity="0.85"><title>2024-11-11 | ETH buy 45.00 usd | reason=btc_defensive_regime</title></rect>
<rect x="456.3077981651376" y="682.5" width="6.1000000000000005" height="25.0" fill="#2563eb" opacity="0.85"><title>2024-11-18 | ETH buy 45.00 usd | reason=btc_defensive_regime</title></rect>
<rect x="467.5004587155963" y="682.5" width="6.1000000000000005" height="25.0" fill="#2563eb" opacity="0.85"><title>2024-11-25 | ETH buy 45.00 usd | reason=btc_defensive_regime</title></rect>
<rect x="478.6931192660551" y="682.5" width="6.1000000000000005" height="25.0" fill="#2563eb" opacity="0.85"><title>2024-12-02 | ETH buy 45.00 usd | reason=btc_defensive_regime</title></rect>
<rect x="489.8857798165138" y="682.5" width="6.1000000000000005" height="25.0" fill="#2563eb" opacity="0.85"><title>2024-12-09 | ETH buy 45.00 usd | reason=btc_defensive_regime</title></rect>
<rect x="501.0784403669725" y="682.5" width="6.1000000000000005" height="25.0" fill="#2563eb" opacity="0.85"><title>2024-12-16 | ETH buy 45.00 usd | reason=btc_defensive_regime</title></rect>
<rect x="512.2711009174313" y="682.5" width="6.1000000000000005" height="25.0" fill="#2563eb" opacity="0.85"><title>2024-12-23 | ETH buy 45.00 usd | reason=btc_defensive_regime</title></rect>
<rect x="523.46376146789" y="682.5" width="6.1000000000000005" height="25.0" fill="#2563eb" opacity="0.85"><title>2024-12-30 | ETH buy 45.00 usd | reason=btc_defensive_regime</title></rect>
<rect x="534.6564220183486" y="682.5" width="6.1000000000000005" height="25.0" fill="#2563eb" opacity="0.85"><title>2025-01-06 | ETH buy 45.00 usd | reason=btc_defensive_regime</title></rect>
<rect x="545.8490825688075" y="682.5" width="6.1000000000000005" height="25.0" fill="#2563eb" opacity="0.85"><title>2025-01-13 | ETH buy 45.00 usd | reason=btc_defensive_regime</title></rect>
<rect x="557.0417431192661" y="682.5" width="6.1000000000000005" height="25.0" fill="#2563eb" opacity="0.85"><title>2025-01-20 | ETH buy 45.00 usd | reason=btc_defensive_regime</title></rect>
<rect x="568.2344036697248" y="682.5" width="6.1000000000000005" height="25.0" fill="#2563eb" opacity="0.85"><title>2025-01-27 | ETH buy 45.00 usd | reason=btc_defensive_regime</title></rect>
<rect x="579.4270642201836" y="682.5" width="6.1000000000000005" height="25.0" fill="#2563eb" opacity="0.85"><title>2025-02-03 | ETH buy 45.00 usd | reason=btc_defensive_regime</title></rect>
<rect x="590.6197247706423" y="682.5" width="6.1000000000000005" height="25.0" fill="#2563eb" opacity="0.85"><title>2025-02-10 | ETH buy 45.00 usd | reason=btc_defensive_regime</title></rect>
<rect x="601.812385321101" y="682.5" width="6.1000000000000005" height="25.0" fill="#2563eb" opacity="0.85"><title>2025-02-17 | ETH buy 45.00 usd | reason=btc_defensive_regime</title></rect>
<rect x="613.0050458715597" y="682.5" width="6.1000000000000005" height="25.0" fill="#2563eb" opacity="0.85"><title>2025-02-24 | ETH buy 45.00 usd | reason=btc_defensive_regime</title></rect>
<rect x="624.1977064220184" y="682.5" width="6.1000000000000005" height="25.0" fill="#2563eb" opacity="0.85"><title>2025-03-03 | ETH buy 45.00 usd | reason=btc_defensive_regime</title></rect>
<rect x="635.3903669724772" y="657.5" width="6.1000000000000005" height="50.0" fill="#2563eb" opacity="0.85"><title>2025-03-10 | ETH buy 90.00 usd | reason=both_weak_btc_defensive</title></rect>
<rect x="646.5830275229358" y="657.5" width="6.1000000000000005" height="50.0" fill="#2563eb" opacity="0.85"><title>2025-03-17 | ETH buy 90.00 usd | reason=both_weak_btc_defensive</title></rect>
<rect x="657.7756880733946" y="682.5" width="6.1000000000000005" height="25.0" fill="#2563eb" opacity="0.85"><title>2025-03-24 | ETH buy 45.00 usd | reason=btc_defensive_regime</title></rect>
<rect x="668.9683486238533" y="657.5" width="6.1000000000000005" height="50.0" fill="#2563eb" opacity="0.85"><title>2025-03-31 | ETH buy 90.00 usd | reason=both_weak_btc_defensive</title></rect>
<rect x="680.161009174312" y="657.5" width="6.1000000000000005" height="50.0" fill="#2563eb" opacity="0.85"><title>2025-04-07 | ETH buy 90.00 usd | reason=both_weak_btc_defensive</title></rect>
<rect x="691.3536697247707" y="657.5" width="6.1000000000000005" height="50.0" fill="#2563eb" opacity="0.85"><title>2025-04-14 | ETH buy 90.00 usd | reason=both_weak_btc_defensive</title></rect>
<rect x="702.5463302752294" y="657.5" width="6.1000000000000005" height="50.0" fill="#2563eb" opacity="0.85"><title>2025-04-21 | ETH buy 90.00 usd | reason=both_weak_btc_defensive</title></rect>
<rect x="713.7389908256881" y="682.5" width="6.1000000000000005" height="25.0" fill="#2563eb" opacity="0.85"><title>2025-04-28 | ETH buy 45.00 usd | reason=btc_defensive_regime</title></rect>
<rect x="724.9316513761468" y="682.5" width="6.1000000000000005" height="25.0" fill="#2563eb" opacity="0.85"><title>2025-05-05 | ETH buy 45.00 usd | reason=btc_defensive_regime</title></rect>
<rect x="736.1243119266056" y="682.5" width="6.1000000000000005" height="25.0" fill="#2563eb" opacity="0.85"><title>2025-05-12 | ETH buy 45.00 usd | reason=btc_defensive_regime</title></rect>
<rect x="747.3169724770643" y="682.5" width="6.1000000000000005" height="25.0" fill="#2563eb" opacity="0.85"><title>2025-05-19 | ETH buy 45.00 usd | reason=btc_defensive_regime</title></rect>
<rect x="758.509633027523" y="682.5" width="6.1000000000000005" height="25.0" fill="#2563eb" opacity="0.85"><title>2025-05-26 | ETH buy 45.00 usd | reason=btc_defensive_regime</title></rect>
<rect x="769.7022935779817" y="682.5" width="6.1000000000000005" height="25.0" fill="#2563eb" opacity="0.85"><title>2025-06-02 | ETH buy 45.00 usd | reason=btc_defensive_regime</title></rect>
<rect x="780.8949541284404" y="645.0" width="6.1000000000000005" height="62.5" fill="#2563eb" opacity="0.85"><title>2025-06-09 | ETH buy 112.50 usd | reason=balanced_regime</title></rect>
<rect x="792.0876146788991" y="682.5" width="6.1000000000000005" height="25.0" fill="#2563eb" opacity="0.85"><title>2025-06-16 | ETH buy 45.00 usd | reason=btc_defensive_regime</title></rect>
<rect x="803.2802752293579" y="682.5" width="6.1000000000000005" height="25.0" fill="#2563eb" opacity="0.85"><title>2025-06-23 | ETH buy 45.00 usd | reason=btc_defensive_regime</title></rect>
<rect x="814.4729357798166" y="682.5" width="6.1000000000000005" height="25.0" fill="#2563eb" opacity="0.85"><title>2025-06-30 | ETH buy 45.00 usd | reason=btc_defensive_regime</title></rect>
<rect x="825.6655963302753" y="682.5" width="6.1000000000000005" height="25.0" fill="#2563eb" opacity="0.85"><title>2025-07-07 | ETH buy 45.00 usd | reason=btc_defensive_regime</title></rect>
<rect x="836.858256880734" y="645.0" width="6.1000000000000005" height="62.5" fill="#2563eb" opacity="0.85"><title>2025-07-14 | ETH buy 112.50 usd | reason=balanced_regime</title></rect>
<rect x="848.0509174311927" y="645.0" width="6.1000000000000005" height="62.5" fill="#2563eb" opacity="0.85"><title>2025-07-21 | ETH buy 112.50 usd | reason=balanced_regime</title></rect>
<rect x="859.2435779816514" y="645.0" width="6.1000000000000005" height="62.5" fill="#2563eb" opacity="0.85"><title>2025-07-28 | ETH buy 112.50 usd | reason=balanced_regime</title></rect>
<rect x="870.4362385321102" y="645.0" width="6.1000000000000005" height="62.5" fill="#2563eb" opacity="0.85"><title>2025-08-04 | ETH buy 112.50 usd | reason=balanced_regime</title></rect>
<rect x="881.6288990825689" y="674.8990108845308" width="6.1000000000000005" height="32.60098911546925" fill="#2563eb" opacity="0.85"><title>2025-08-11 | ETH buy 58.68 usd | reason=balanced_regime</title></rect>
<rect x="892.8215596330276" y="676.25" width="6.1000000000000005" height="31.25" fill="#2563eb" opacity="0.85"><title>2025-08-18 | ETH buy 56.25 usd | reason=balanced_regime</title></rect>
<rect x="904.0142201834863" y="676.25" width="6.1000000000000005" height="31.25" fill="#2563eb" opacity="0.85"><title>2025-08-25 | ETH buy 56.25 usd | reason=balanced_regime</title></rect>
<rect x="915.206880733945" y="676.25" width="6.1000000000000005" height="31.25" fill="#2563eb" opacity="0.85"><title>2025-09-01 | ETH buy 56.25 usd | reason=balanced_regime</title></rect>
<rect x="926.3995412844037" y="676.25" width="6.1000000000000005" height="31.25" fill="#2563eb" opacity="0.85"><title>2025-09-08 | ETH buy 56.25 usd | reason=balanced_regime</title></rect>
<rect x="937.5922018348625" y="676.25" width="6.1000000000000005" height="31.25" fill="#2563eb" opacity="0.85"><title>2025-09-15 | ETH buy 56.25 usd | reason=balanced_regime</title></rect>
<rect x="948.7848623853212" y="652.2839918103213" width="6.1000000000000005" height="55.216008189678746" fill="#2563eb" opacity="0.85"><title>2025-09-22 | ETH buy 99.39 usd | reason=balanced_regime</title></rect>
<rect x="959.9775229357799" y="645.0" width="6.1000000000000005" height="62.5" fill="#2563eb" opacity="0.85"><title>2025-09-29 | ETH buy 112.50 usd | reason=balanced_regime</title></rect>
<rect x="971.1701834862386" y="645.0" width="6.1000000000000005" height="62.5" fill="#2563eb" opacity="0.85"><title>2025-10-06 | ETH buy 112.50 usd | reason=balanced_regime</title></rect>
<rect x="982.3628440366973" y="645.0" width="6.1000000000000005" height="62.5" fill="#2563eb" opacity="0.85"><title>2025-10-13 | ETH buy 112.50 usd | reason=balanced_regime</title></rect>
<rect x="993.555504587156" y="645.0" width="6.1000000000000005" height="62.5" fill="#2563eb" opacity="0.85"><title>2025-10-20 | ETH buy 112.50 usd | reason=balanced_regime</title></rect>
<rect x="1004.7481651376148" y="645.0" width="6.1000000000000005" height="62.5" fill="#2563eb" opacity="0.85"><title>2025-10-27 | ETH buy 112.50 usd | reason=balanced_regime</title></rect>
<rect x="1015.9408256880735" y="645.0" width="6.1000000000000005" height="62.5" fill="#2563eb" opacity="0.85"><title>2025-11-03 | ETH buy 112.50 usd | reason=balanced_regime</title></rect>
<rect x="1027.1334862385322" y="645.0" width="6.1000000000000005" height="62.5" fill="#2563eb" opacity="0.85"><title>2025-11-10 | ETH buy 112.50 usd | reason=balanced_regime</title></rect>
<rect x="1038.3261467889909" y="707.5" width="6.1000000000000005" height="1.5" fill="#2563eb" opacity="0.85"><title>2025-11-17 | ETH buy 0.00 usd | reason=both_weak_btc_defensive</title></rect>
<rect x="1049.5188073394495" y="707.5" width="6.1000000000000005" height="1.5" fill="#2563eb" opacity="0.85"><title>2025-11-24 | ETH buy 0.00 usd | reason=both_weak_btc_defensive</title></rect>
<rect x="1060.7114678899081" y="707.5" width="6.1000000000000005" height="1.5" fill="#2563eb" opacity="0.85"><title>2025-12-01 | ETH buy 0.00 usd | reason=both_weak_btc_defensive</title></rect>
<rect x="1071.9041284403672" y="707.5" width="6.1000000000000005" height="1.5" fill="#2563eb" opacity="0.85"><title>2025-12-08 | ETH buy 0.00 usd | reason=both_weak_btc_defensive</title></rect>
<rect x="1083.0967889908259" y="707.5" width="6.1000000000000005" height="1.5" fill="#2563eb" opacity="0.85"><title>2025-12-15 | ETH buy 0.00 usd | reason=both_weak_btc_defensive</title></rect>
<rect x="1094.2894495412845" y="707.5" width="6.1000000000000005" height="1.5" fill="#2563eb" opacity="0.85"><title>2025-12-22 | ETH buy 0.00 usd | reason=both_weak_btc_defensive</title></rect>
<rect x="1105.4821100917432" y="707.5" width="6.1000000000000005" height="1.5" fill="#2563eb" opacity="0.85"><title>2025-12-29 | ETH buy 0.00 usd | reason=both_weak_btc_defensive</title></rect>
<rect x="1116.674770642202" y="707.5" width="6.1000000000000005" height="1.5" fill="#2563eb" opacity="0.85"><title>2026-01-05 | ETH buy 0.00 usd | reason=both_weak_btc_defensive</title></rect>
<rect x="1127.8674311926607" y="707.5" width="6.1000000000000005" height="1.5" fill="#2563eb" opacity="0.85"><title>2026-01-12 | ETH buy 0.00 usd | reason=both_weak_btc_defensive</title></rect>
<rect x="1139.0600917431193" y="707.5" width="6.1000000000000005" height="1.5" fill="#2563eb" opacity="0.85"><title>2026-01-19 | ETH buy 0.00 usd | reason=both_weak_btc_defensive</title></rect>
<rect x="1150.252752293578" y="707.5" width="6.1000000000000005" height="1.5" fill="#2563eb" opacity="0.85"><title>2026-01-26 | ETH buy 0.00 usd | reason=both_weak_btc_defensive</title></rect>
<rect x="1161.4454128440368" y="707.5" width="6.1000000000000005" height="1.5" fill="#2563eb" opacity="0.85"><title>2026-02-02 | ETH buy 0.00 usd | reason=both_weak_btc_defensive</title></rect>
<rect x="1172.6380733944954" y="707.5" width="6.1000000000000005" height="1.5" fill="#2563eb" opacity="0.85"><title>2026-02-09 | ETH buy 0.00 usd | reason=both_weak_btc_defensive</title></rect>
<rect x="1183.8307339449543" y="707.5" width="6.1000000000000005" height="1.5" fill="#2563eb" opacity="0.85"><title>2026-02-16 | ETH buy 0.00 usd | reason=both_weak_btc_defensive</title></rect>
<rect x="1195.023394495413" y="707.5" width="6.1000000000000005" height="1.5" fill="#2563eb" opacity="0.85"><title>2026-02-23 | ETH buy 0.00 usd | reason=both_weak_btc_defensive</title></rect>
<rect x="1206.2160550458716" y="707.5" width="6.1000000000000005" height="1.5" fill="#2563eb" opacity="0.85"><title>2026-03-02 | ETH buy 0.00 usd | reason=both_weak_btc_defensive</title></rect>
<rect x="1217.4087155963302" y="707.5" width="6.1000000000000005" height="1.5" fill="#2563eb" opacity="0.85"><title>2026-03-09 | ETH buy 0.00 usd | reason=both_weak_btc_defensive</title></rect>
<rect x="1228.601376146789" y="707.5" width="6.1000000000000005" height="1.5" fill="#2563eb" opacity="0.85"><title>2026-03-16 | ETH buy 0.00 usd | reason=both_weak_btc_defensive</title></rect>
<rect x="1239.7940366972477" y="707.5" width="6.1000000000000005" height="1.5" fill="#2563eb" opacity="0.85"><title>2026-03-23 | ETH buy 0.00 usd | reason=both_weak_btc_defensive</title></rect>
<rect x="1250.9866972477066" y="707.5" width="6.1000000000000005" height="1.5" fill="#2563eb" opacity="0.85"><title>2026-03-30 | ETH buy 0.00 usd | reason=both_weak_btc_defensive</title></rect>
<rect x="1262.1793577981653" y="707.5" width="6.1000000000000005" height="1.5" fill="#2563eb" opacity="0.85"><title>2026-04-06 | ETH buy 0.00 usd | reason=both_weak_btc_defensive</title></rect>
<rect x="1273.372018348624" y="707.5" width="6.1000000000000005" height="1.5" fill="#2563eb" opacity="0.85"><title>2026-04-13 | ETH buy 0.00 usd | reason=both_weak_btc_defensive</title></rect>
<rect x="1284.5646788990825" y="707.5" width="6.1000000000000005" height="1.5" fill="#2563eb" opacity="0.85"><title>2026-04-20 | ETH buy 0.00 usd | reason=both_weak_btc_defensive</title></rect>
<rect x="1295.7573394495414" y="707.5" width="6.1000000000000005" height="1.5" fill="#2563eb" opacity="0.85"><title>2026-04-27 | ETH buy 0.00 usd | reason=both_weak_btc_defensive</title></rect>
<rect x="1306.95" y="707.5" width="6.1000000000000005" height="1.5" fill="#2563eb" opacity="0.85"><title>2026-05-04 | ETH buy 0.00 usd | reason=both_weak_btc_defensive</title></rect>
<text x="24" y="707.5" transform="rotate(-90 24,707.5)" text-anchor="middle" font-family="monospace" font-size="14" fill="#0f172a">ETH weekly trade usd</text>
<rect x="1040" y="478" width="14" height="10" fill="#ea580c" opacity="0.85"/>
<text x="1062" y="488" font-family="monospace" font-size="11" fill="#0f172a">BTC buy</text>
<rect x="1190" y="478" width="14" height="10" fill="#dc2626" opacity="0.85"/>
<text x="1212" y="488" font-family="monospace" font-size="11" fill="#0f172a">BTC sell</text>
<rect x="1040" y="498" width="14" height="10" fill="#2563eb" opacity="0.85"/>
<text x="1062" y="508" font-family="monospace" font-size="11" fill="#0f172a">ETH buy</text>
<rect x="1190" y="498" width="14" height="10" fill="#7c3aed" opacity="0.85"/>
<text x="1212" y="508" font-family="monospace" font-size="11" fill="#0f172a">ETH sell</text>
</svg>