<svg xmlns="http://www.w3.org/2000/svg" width="1400" height="800">
<rect width="1400" height="800" fill="#f8fafc"/>
<text x="700.0" y="42" text-anchor="middle" font-family="monospace" font-size="24" fill="#0f172a">budgeted_drawdown_tilt_rebalance | weekly | start=2024-04-01 | return=12.18%</text>
<line x1="90" y1="420" x2="1310" y2="420" stroke="#334155" stroke-width="2"/>
<line x1="90" y1="90" x2="90" y2="420" stroke="#334155" stroke-width="2"/>
<line x1="90.0" y1="420" x2="90.0" y2="90" stroke="#94a3b8" stroke-width="1.2"/>
<line x1="90.0" y1="605" x2="90.0" y2="480" stroke="#94a3b8" stroke-width="1.2"/>
<line x1="90.0" y1="770" x2="90.0" y2="645" stroke="#94a3b8" stroke-width="1.2"/>
<text x="90.0" y="788" text-anchor="middle" font-family="monospace" font-size="11" fill="#334155">2024-04</text>
<line x1="145.96330275229357" y1="420" x2="145.96330275229357" y2="90" stroke="#94a3b8" stroke-width="1.2"/>
<line x1="145.96330275229357" y1="605" x2="145.96330275229357" y2="480" stroke="#94a3b8" stroke-width="1.2"/>
<line x1="145.96330275229357" y1="770" x2="145.96330275229357" y2="645" stroke="#94a3b8" stroke-width="1.2"/>
<text x="145.96330275229357" y="788" text-anchor="middle" font-family="monospace" font-size="11" fill="#334155">2024-05</text>
<line x1="190.73394495412845" y1="420" x2="190.73394495412845" y2="90" stroke="#94a3b8" stroke-width="1.2"/>
<line x1="190.73394495412845" y1="605" x2="190.73394495412845" y2="480" stroke="#94a3b8" stroke-width="1.2"/>
<line x1="190.73394495412845" y1="770" x2="190.73394495412845" y2="645" stroke="#94a3b8" stroke-width="1.2"/>
<text x="190.73394495412845" y="788" text-anchor="middle" font-family="monospace" font-size="11" fill="#334155">2024-06</text>
<line x1="235.50458715596332" y1="420" x2="235.50458715596332" y2="90" stroke="#94a3b8" stroke-width="1.2"/>
<line x1="235.50458715596332" y1="605" x2="235.50458715596332" y2="480" stroke="#94a3b8" stroke-width="1.2"/>
<line x1="235.50458715596332" y1="770" x2="235.50458715596332" y2="645" stroke="#94a3b8" stroke-width="1.2"/>
<text x="235.50458715596332" y="788" text-anchor="middle" font-family="monospace" font-size="11" fill="#334155">2024-07</text>
<line x1="291.4678899082569" y1="420" x2="291.4678899082569" y2="90" stroke="#94a3b8" stroke-width="1.2"/>
<line x1="291.4678899082569" y1="605" x2="291.4678899082569" y2="480" stroke="#94a3b8" stroke-width="1.2"/>
<line x1="291.4678899082569" y1="770" x2="291.4678899082569" y2="645" stroke="#94a3b8" stroke-width="1.2"/>
<text x="291.4678899082569" y="788" text-anchor="middle" font-family="monospace" font-size="11" fill="#334155">2024-08</text>
<line x1="336.2385321100918" y1="420" x2="336.2385321100918" y2="90" stroke="#94a3b8" stroke-width="1.2"/>
<line x1="336.2385321100918" y1="605" x2="336.2385321100918" y2="480" stroke="#94a3b8" stroke-width="1.2"/>
<line x1="336.2385321100918" y1="770" x2="336.2385321100918" y2="645" stroke="#94a3b8" stroke-width="1.2"/>
<text x="336.2385321100918" y="788" text-anchor="middle" font-family="monospace" font-size="11" fill="#334155">2024-09</text>
<line x1="392.20183486238534" y1="420" x2="392.20183486238534" y2="90" stroke="#94a3b8" stroke-width="1.2"/>
<line x1="392.20183486238534" y1="605" x2="392.20183486238534" y2="480" stroke="#94a3b8" stroke-width="1.2"/>
<line x1="392.20183486238534" y1="770" x2="392.20183486238534" y2="645" stroke="#94a3b8" stroke-width="1.2"/>
<text x="392.20183486238534" y="788" text-anchor="middle" font-family="monospace" font-size="11" fill="#334155">2024-10</text>
<line x1="436.9724770642202" y1="420" x2="436.9724770642202" y2="90" stroke="#94a3b8" stroke-width="1.2"/>
<line x1="436.9724770642202" y1="605" x2="436.9724770642202" y2="480" stroke="#94a3b8" stroke-width="1.2"/>
<line x1="436.9724770642202" y1="770" x2="436.9724770642202" y2="645" stroke="#94a3b8" stroke-width="1.2"/>
<text x="436.9724770642202" y="788" text-anchor="middle" font-family="monospace" font-size="11" fill="#334155">2024-11</text>
<line x1="481.7431192660551" y1="420" x2="481.7431192660551" y2="90" stroke="#94a3b8" stroke-width="1.2"/>
<line x1="481.7431192660551" y1="605" x2="481.7431192660551" y2="480" stroke="#94a3b8" stroke-width="1.2"/>
<line x1="481.7431192660551" y1="770" x2="481.7431192660551" y2="645" stroke="#94a3b8" stroke-width="1.2"/>
<text x="481.7431192660551" y="788" text-anchor="middle" font-family="monospace" font-size="11" fill="#334155">2024-12</text>
<line x1="537.7064220183486" y1="420" x2="537.7064220183486" y2="90" stroke="#94a3b8" stroke-width="1.2"/>
<line x1="537.7064220183486" y1="605" x2="537.7064220183486" y2="480" stroke="#94a3b8" stroke-width="1.2"/>
<line x1="537.7064220183486" y1="770" x2="537.7064220183486" y2="645" stroke="#94a3b8" stroke-width="1.2"/>
<text x="537.7064220183486" y="788" text-anchor="middle" font-family="monospace" font-size="11" fill="#334155">2025-01</text>
<line x1="582.4770642201836" y1="420" x2="582.4770642201836" y2="90" stroke="#94a3b8" stroke-width="1.2"/>
<line x1="582.4770642201836" y1="605" x2="582.4770642201836" y2="480" stroke="#94a3b8" stroke-width="1.2"/>
<line x1="582.4770642201836" y1="770" x2="582.4770642201836" y2="645" stroke="#94a3b8" stroke-width="1.2"/>
<text x="582.4770642201836" y="788" text-anchor="middle" font-family="monospace" font-size="11" fill="#334155">2025-02</text>
<line x1="627.2477064220184" y1="420" x2="627.2477064220184" y2="90" stroke="#94a3b8" stroke-width="1.2"/>
<line x1="627.2477064220184" y1="605" x2="627.2477064220184" y2="480" stroke="#94a3b8" stroke-width="1.2"/>
<line x1="627.2477064220184" y1="770" x2="627.2477064220184" y2="645" stroke="#94a3b8" stroke-width="1.2"/>
<text x="627.2477064220184" y="788" text-anchor="middle" font-family="monospace" font-size="11" fill="#334155">2025-03</text>
<line x1="683.2110091743119" y1="420" x2="683.2110091743119" y2="90" stroke="#94a3b8" stroke-width="1.2"/>
<line x1="683.2110091743119" y1="605" x2="683.2110091743119" y2="480" stroke="#94a3b8" stroke-width="1.2"/>
<line x1="683.2110091743119" y1="770" x2="683.2110091743119" y2="645" stroke="#94a3b8" stroke-width="1.2"/>
<text x="683.2110091743119" y="788" text-anchor="middle" font-family="monospace" font-size="11" fill="#334155">2025-04</text>
<line x1="727.9816513761467" y1="420" x2="727.9816513761467" y2="90" stroke="#94a3b8" stroke-width="1.2"/>
<line x1="727.9816513761467" y1="605" x2="727.9816513761467" y2="480" stroke="#94a3b8" stroke-width="1.2"/>
<line x1="727.9816513761467" y1="770" x2="727.9816513761467" y2="645" stroke="#94a3b8" stroke-width="1.2"/>
<text x="727.9816513761467" y="788" text-anchor="middle" font-family="monospace" font-size="11" fill="#334155">2025-05</text>
<line x1="772.7522935779816" y1="420" x2="772.7522935779816" y2="90" stroke="#94a3b8" stroke-width="1.2"/>
<line x1="772.7522935779816" y1="605" x2="772.7522935779816" y2="480" stroke="#94a3b8" stroke-width="1.2"/>
<line x1="772.7522935779816" y1="770" x2="772.7522935779816" y2="645" stroke="#94a3b8" stroke-width="1.2"/>
<text x="772.7522935779816" y="788" text-anchor="middle" font-family="monospace" font-size="11" fill="#334155">2025-06</text>
<line x1="828.7155963302753" y1="420" x2="828.7155963302753" y2="90" stroke="#94a3b8" stroke-width="1.2"/>
<line x1="828.7155963302753" y1="605" x2="828.7155963302753" y2="480" stroke="#94a3b8" stroke-width="1.2"/>
<line x1="828.7155963302753" y1="770" x2="828.7155963302753" y2="645" stroke="#94a3b8" stroke-width="1.2"/>
<text x="828.7155963302753" y="788" text-anchor="middle" font-family="monospace" font-size="11" fill="#334155">2025-07</text>
<line x1="873.4862385321102" y1="420" x2="873.4862385321102" y2="90" stroke="#94a3b8" stroke-width="1.2"/>
<line x1="873.4862385321102" y1="605" x2="873.4862385321102" y2="480" stroke="#94a3b8" stroke-width="1.2"/>
<line x1="873.4862385321102" y1="770" x2="873.4862385321102" y2="645" stroke="#94a3b8" stroke-width="1.2"/>
<text x="873.4862385321102" y="788" text-anchor="middle" font-family="monospace" font-size="11" fill="#334155">2025-08</text>
<line x1="918.256880733945" y1="420" x2="918.256880733945" y2="90" stroke="#94a3b8" stroke-width="1.2"/>
<line x1="918.256880733945" y1="605" x2="918.256880733945" y2="480" stroke="#94a3b8" stroke-width="1.2"/>
<line x1="918.256880733945" y1="770" x2="918.256880733945" y2="645" stroke="#94a3b8" stroke-width="1.2"/>
<text x="918.256880733945" y="788" text-anchor="middle" font-family="monospace" font-size="11" fill="#334155">2025-09</text>
<line x1="974.2201834862385" y1="420" x2="974.2201834862385" y2="90" stroke="#94a3b8" stroke-width="1.2"/>
<line x1="974.2201834862385" y1="605" x2="974.2201834862385" y2="480" stroke="#94a3b8" stroke-width="1.2"/>
<line x1="974.2201834862385" y1="770" x2="974.2201834862385" y2="645" stroke="#94a3b8" stroke-width="1.2"/>
<text x="974.2201834862385" y="788" text-anchor="middle" font-family="monospace" font-size="11" fill="#334155">2025-10</text>
<line x1="1018.9908256880734" y1="420" x2="1018.9908256880734" y2="90" stroke="#94a3b8" stroke-width="1.2"/>
<line x1="1018.9908256880734" y1="605" x2="1018.9908256880734" y2="480" stroke="#94a3b8" stroke-width="1.2"/>
<line x1="1018.9908256880734" y1="770" x2="1018.9908256880734" y2="645" stroke="#94a3b8" stroke-width="1.2"/>
<text x="1018.9908256880734" y="788" text-anchor="middle" font-family="monospace" font-size="11" fill="#334155">2025-11</text>
<line x1="1063.761467889908" y1="420" x2="1063.761467889908" y2="90" stroke="#94a3b8" stroke-width="1.2"/>
<line x1="1063.761467889908" y1="605" x2="1063.761467889908" y2="480" stroke="#94a3b8" stroke-width="1.2"/>
<line x1="1063.761467889908" y1="770" x2="1063.761467889908" y2="645" stroke="#94a3b8" stroke-width="1.2"/>
<text x="1063.761467889908" y="788" text-anchor="middle" font-family="monospace" font-size="11" fill="#334155">2025-12</text>
<line x1="1119.724770642202" y1="420" x2="1119.724770642202" y2="90" stroke="#94a3b8" stroke-width="1.2"/>
<line x1="1119.724770642202" y1="605" x2="1119.724770642202" y2="480" stroke="#94a3b8" stroke-width="1.2"/>
<line x1="1119.724770642202" y1="770" x2="1119.724770642202" y2="645" stroke="#94a3b8" stroke-width="1.2"/>
<text x="1119.724770642202" y="788" text-anchor="middle" font-family="monospace" font-size="11" fill="#334155">2026-01</text>
<line x1="1164.4954128440368" y1="420" x2="1164.4954128440368" y2="90" stroke="#94a3b8" stroke-width="1.2"/>
<line x1="1164.4954128440368" y1="605" x2="1164.4954128440368" y2="480" stroke="#94a3b8" stroke-width="1.2"/>
<line x1="1164.4954128440368" y1="770" x2="1164.4954128440368" y2="645" stroke="#94a3b8" stroke-width="1.2"/>
<text x="1164.4954128440368" y="788" text-anchor="middle" font-family="monospace" font-size="11" fill="#334155">2026-02</text>
<line x1="1209.2660550458716" y1="420" x2="1209.2660550458716" y2="90" stroke="#94a3b8" stroke-width="1.2"/>
<line x1="1209.2660550458716" y1="605" x2="1209.2660550458716" y2="480" stroke="#94a3b8" stroke-width="1.2"/>
<line x1="1209.2660550458716" y1="770" x2="1209.2660550458716" y2="645" stroke="#94a3b8" stroke-width="1.2"/>
<text x="1209.2660550458716" y="788" text-anchor="middle" font-family="monospace" font-size="11" fill="#334155">2026-03</text>
<line x1="1265.2293577981652" y1="420" x2="1265.2293577981652" y2="90" stroke="#94a3b8" stroke-width="1.2"/>
<line x1="1265.2293577981652" y1="605" x2="1265.2293577981652" y2="480" stroke="#94a3b8" stroke-width="1.2"/>
<line x1="1265.2293577981652" y1="770" x2="1265.2293577981652" y2="645" stroke="#94a3b8" stroke-width="1.2"/>
<text x="1265.2293577981652" y="788" text-anchor="middle" font-family="monospace" font-size="11" fill="#334155">2026-04</text>
<line x1="1310.0" y1="420" x2="1310.0" y2="90" stroke="#94a3b8" stroke-width="1.2"/>
<line x1="1310.0" y1="605" x2="1310.0" y2="480" stroke="#94a3b8" stroke-width="1.2"/>
<line x1="1310.0" y1="770" x2="1310.0" y2="645" stroke="#94a3b8" stroke-width="1.2"/>
<text x="1310.0" y="788" text-anchor="middle" font-family="monospace" font-size="11" fill="#334155">2026-05</text>
<line x1="90" y1="420.0" x2="1310" y2="420.0" stroke="#cbd5e1" stroke-width="1"/>
<text x="78" y="424.0" text-anchor="end" font-family="monospace" font-size="12" fill="#475569">0</text>
<line x1="90" y1="354.0" x2="1310" y2="354.0" stroke="#cbd5e1" stroke-width="1"/>
<text x="78" y="358.0" text-anchor="end" font-family="monospace" font-size="12" fill="#475569">4633</text>
<line x1="90" y1="288.0" x2="1310" y2="288.0" stroke="#cbd5e1" stroke-width="1"/>
<text x="78" y="292.0" text-anchor="end" font-family="monospace" font-size="12" fill="#475569">9267</text>
<line x1="90" y1="222.0" x2="1310" y2="222.0" stroke="#cbd5e1" stroke-width="1"/>
<text x="78" y="226.0" text-anchor="end" font-family="monospace" font-size="12" fill="#475569">13900</text>
<line x1="90" y1="156.0" x2="1310" y2="156.0" stroke="#cbd5e1" stroke-width="1"/>
<text x="78" y="160.0" text-anchor="end" font-family="monospace" font-size="12" fill="#475569">18534</text>
<line x1="90" y1="90.0" x2="1310" y2="90.0" stroke="#cbd5e1" stroke-width="1"/>
<text x="78" y="94.0" text-anchor="end" font-family="monospace" font-size="12" fill="#475569">23167</text>
<polygon points="90.0,206.33348509704442 101.19266055045871,206.33348509704442 112.38532110091744,207.9359839588166 123.57798165137615,209.53848282058874 134.77064220183487,211.14098168236094 145.96330275229357,212.7434805441331 157.1559633027523,215.59236740950584 168.348623853211,215.59236740950584 179.54128440366975,215.59236740950584 190.73394495412845,215.59236740950584 201.92660550458714,215.59236740950584 213.1192660550459,215.59236740950584 224.3119266055046,217.194866271278 235.50458715596332,218.79736513305016 246.69724770642202,221.6462519984229 257.88990825688074,221.6462519984229 269.0825688073395,223.24875086019506 280.27522935779814,224.8512497219672 291.4678899082569,227.70013658733995 302.66055045871565,230.5490234527127 313.8532110091743,233.39791031808545 325.04587155963304,236.2467971834582 336.2385321100918,239.09568404883095 347.4311926605505,241.9445709142037 358.6238532110092,244.7934577795764 369.8165137614679,247.64234464494916 381.00917431192664,250.4912315103219 392.20183486238534,253.34011837569463 403.39449541284404,256.1890052410674 414.5871559633028,259.03789210644015 425.7798165137615,261.8867789718129 436.9724770642202,264.7356658371856 448.16513761467894,266.33816469895777 459.35779816513764,267.94066356072994 470.55045871559633,269.5431624225021 481.7431192660551,269.5431624225021 492.9357798165138,269.5431624225021 504.1284403669725,269.5431624225021 515.3211009174313,271.1456612842743 526.5137614678899,272.7481601460464 537.7064220183486,272.7481601460464 548.8990825688074,274.35065900781865 560.0917431192661,275.95315786959077 571.2844036697247,277.55565673136294 582.4770642201836,280.40454359673566 593.6697247706422,283.25343046210844 604.862385321101,286.10231732748116 616.0550458715596,288.9512041928539 627.2477064220184,291.80009105822666 638.4403669724771,295.3611996399426 649.6330275229358,298.9223082216585 660.8256880733945,301.77119508703123 672.0183486238533,305.33230366874716 683.2110091743119,308.8934122504631 694.4036697247707,312.454520832179 705.5963302752293,316.01562941389494 716.7889908256881,319.57673799561087 727.9816513761467,323.1378465773268 739.1743119266056,325.9867334426996 750.3669724770642,328.8356203080723 761.559633027523,331.684507173445 772.7522935779816,334.53339403881773 783.9449541284404,337.3822809041905 795.137614678899,340.2311677695632 806.3302752293579,343.080054634936 817.5229357798165,345.9289415003087 828.7155963302753,348.77782836568144 839.9082568807339,350.2477568911713 851.1009174311927,342.37217583318113 862.2935779816513,335.39215316645664 873.4862385321102,329.47127927237614 884.6788990825688,322.41772499549563 895.8715596330276,316.436018510174 907.0642201834862,310.31036284244055 918.256880733945,305.23848911668586 929.4495412844036,301.26253738026924 940.6422018348625,297.0974956213618 951.8348623853211,294.8181146660206 963.0275229357799,292.98206729558524 974.2201834862385,290.22630019079196 985.4128440366973,288.8380005134235 996.6055045871559,290.4404993751956 1007.7981651376148,289.5847994630175 1018.9908256880734,292.43368632839025 1030.1834862385322,295.28257319376297 1041.3761467889908,298.13146005913575 1052.5688073394494,300.98034692450847 1063.761467889908,303.8292337898812 1074.9541284403672,306.67812065525396 1086.1467889908258,309.5270075206267 1097.3394495412845,312.3758943859994 1108.532110091743,315.2247812513722 1119.724770642202,318.0736681167449 1130.9174311926606,320.9225549821177 1142.1100917431193,323.7714418474904 1153.302752293578,326.6203287128631 1164.4954128440368,330.18143729457904 1175.6880733944954,333.74254587629497 1186.8807339449543,337.3036544580109 1198.073394495413,340.8647630397268 1209.2660550458716,344.42587162144275 1220.4587155963302,347.9869802031587 1231.651376146789,351.5480887848746 1242.8440366972477,355.10919736659054 1254.0366972477066,358.67030594830646 1265.2293577981652,362.2314145300224 1276.4220183486239,365.7925231117383 1287.6146788990825,369.35363169345425 1298.8073394495414,372.9147402751702 1310.0,376.4758488568861 1310.0,420.0 1298.8073394495414,420.0 1287.6146788990825,420.0 1276.4220183486239,420.0 1265.2293577981652,420.0 1254.0366972477066,420.0 1242.8440366972477,420.0 1231.651376146789,420.0 1220.4587155963302,420.0 1209.2660550458716,420.0 1198.073394495413,420.0 1186.8807339449543,420.0 1175.6880733944954,420.0 1164.4954128440368,420.0 1153.302752293578,420.0 1142.1100917431193,420.0 1130.9174311926606,420.0 1119.724770642202,420.0 1108.532110091743,420.0 1097.3394495412845,420.0 1086.1467889908258,420.0 1074.9541284403672,420.0 1063.761467889908,420.0 1052.5688073394494,420.0 1041.3761467889908,420.0 1030.1834862385322,420.0 1018.9908256880734,420.0 1007.7981651376148,420.0 996.6055045871559,420.0 985.4128440366973,420.0 974.2201834862385,420.0 963.0275229357799,420.0 951.8348623853211,420.0 940.6422018348625,420.0 929.4495412844036,420.0 918.256880733945,420.0 907.0642201834862,420.0 895.8715596330276,420.0 884.6788990825688,420.0 873.4862385321102,420.0 862.2935779816513,420.0 851.1009174311927,420.0 839.9082568807339,420.0 828.7155963302753,420.0 817.5229357798165,420.0 806.3302752293579,420.0 795.137614678899,420.0 783.9449541284404,420.0 772.7522935779816,420.0 761.559633027523,420.0 750.3669724770642,420.0 739.1743119266056,420.0 727.9816513761467,420.0 716.7889908256881,420.0 705.5963302752293,420.0 694.4036697247707,420.0 683.2110091743119,420.0 672.0183486238533,420.0 660.8256880733945,420.0 649.6330275229358,420.0 638.4403669724771,420.0 627.2477064220184,420.0 616.0550458715596,420.0 604.862385321101,420.0 593.6697247706422,420.0 582.4770642201836,420.0 571.2844036697247,420.0 560.0917431192661,420.0 548.8990825688074,420.0 537.7064220183486,420.0 526.5137614678899,420.0 515.3211009174313,420.0 504.1284403669725,420.0 492.9357798165138,420.0 481.7431192660551,420.0 470.55045871559633,420.0 459.35779816513764,420.0 448.16513761467894,420.0 436.9724770642202,420.0 425.7798165137615,420.0 414.5871559633028,420.0 403.39449541284404,420.0 392.20183486238534,420.0 381.00917431192664,420.0 369.8165137614679,420.0 358.6238532110092,420.0 347.4311926605505,420.0 336.2385321100918,420.0 325.04587155963304,420.0 313.8532110091743,420.0 302.66055045871565,420.0 291.4678899082569,420.0 280.27522935779814,420.0 269.0825688073395,420.0 257.88990825688074,420.0 246.69724770642202,420.0 235.50458715596332,420.0 224.3119266055046,420.0 213.1192660550459,420.0 201.92660550458714,420.0 190.73394495412845,420.0 179.54128440366975,420.0 168.348623853211,420.0 157.1559633027523,420.0 145.96330275229357,420.0 134.77064220183487,420.0 123.57798165137615,420.0 112.38532110091744,420.0 101.19266055045871,420.0 90.0,420.0" fill="#facc15" fill-opacity="0.70" stroke="#facc15" stroke-width="1.2"/>
<polygon points="90.0,206.33348509704442 101.19266055045871,206.33348509704442 112.38532110091744,207.05104198459932 123.57798165137615,207.7226072487438 134.77064220183487,208.45003010002665 145.96330275229357,209.29070060120134 157.1559633027523,210.6497182138305 168.348623853211,209.4580214195766 179.54128440366975,209.07403004416645 190.73394495412845,209.28282954293329 201.92660550458714,209.4507503786984 213.1192660550459,209.71262512516597 224.3119266055046,210.780198478651 235.50458715596332,211.40219797776743 246.69724770642202,213.68322844725418 257.88990825688074,212.45021130697802 269.0825688073395,213.30748796549884 280.27522935779814,214.38786461395662 291.4678899082569,218.4375344072347 302.66055045871565,218.50160781652198 313.8532110091743,220.07175163502183 325.04587155963304,220.990951338738 336.2385321100918,222.96612381863878 347.4311926605505,225.23557810350198 358.6238532110092,226.78974323425103 369.8165137614679,225.1504629963062 381.00917431192664,226.63948664121605 392.20183486238534,229.3475151819403 403.39449541284404,228.35465434966198 414.5871559633028,229.01346475928935 425.7798165137615,231.09775855483608 436.9724770642202,234.0652138313603 448.16513761467894,222.2065816846146 459.35779816513764,225.02126339127972 470.55045871559633,222.99442546272337 481.7431192660551,219.86184072565646 492.9357798165138,218.92056580792598 504.1284403669725,215.18504711559157 515.3211009174313,223.7074729993169 526.5137614678899,225.33759281708862 537.7064220183486,220.63165962781162 548.8990825688074,229.14570499283676 560.0917431192661,227.74194575297318 571.2844036697247,229.8470573656669 582.4770642201836,235.39301898135085 593.6697247706422,239.9038208948166 604.862385321101,239.6652093336312 616.0550458715596,244.64709258974102 627.2477064220184,252.11623088580555 638.4403669724771,258.63276330587973 649.6330275229358,258.6355270844401 660.8256880733945,256.3767924868685 672.0183486238533,263.2436742392962 683.2110091743119,270.6096997773399 694.4036697247707,269.932888741417 705.5963302752293,272.1658316959107 716.7889908256881,267.10704651262336 727.9816513761467,267.5956727316136 739.1743119266056,247.88200190378242 750.3669724770642,246.85305218645408 761.559633027523,245.69855078027825 772.7522935779816,245.19243556870848 783.9449541284404,243.29262766634895 795.137614678899,248.32264234830717 806.3302752293579,253.09885102458495 817.5229357798165,250.37107437970423 828.7155963302753,248.2098134468596 839.9082568807339,229.40057469597295 851.1009174311927,199.365668476998 862.2935779816513,198.00884021324796 873.4862385321102,200.8505478677548 884.6788990825688,183.44206905965848 895.8715596330276,180.45199753179983 907.0642201834862,178.5093101392202 918.256880733945,180.38408648049858 929.4495412844036,180.6422007838468 940.6422018348625,174.51515472073962 951.8348623853211,183.24278244536393 963.0275229357799,182.8490421298238 974.2201834862385,170.59933008654826 985.4128440366973,181.87275119461114 996.6055045871559,189.28335779052648 1007.7981651376148,185.73357421579152 1018.9908256880734,200.04032490242676 1030.1834862385322,202.2391055635506 1041.3761467889908,217.5555294073624 1052.5688073394494,220.84624272202896 1063.761467889908,226.2977688954916 1074.9541284403672,218.5583814429772 1086.1467889908258,224.3966412559324 1097.3394495412845,224.45327104709804 1108.532110091743,227.89652525087263 1119.724770642202,220.53895207949182 1130.9174311926606,225.8632385100009 1142.1100917431193,224.23212646528856 1153.302752293578,233.65147884462868 1164.4954128440368,253.65171031486963 1175.6880733944954,263.08069775502395 1186.8807339449543,268.19302416397187 1198.073394495413,274.64003955355724 1209.2660550458716,270.047430210382 1220.4587155963302,272.8439047563894 1231.651376146789,260.85998488057237 1242.8440366972477,270.1776230760672 1254.0366972477066,276.76882035760764 1265.2293577981652,274.9939538330351 1276.4220183486239,265.70266660671984 1287.6146788990825,269.59643703602865 1298.8073394495414,271.610573582809 1310.0,271.2025434904882 1310.0,376.4758488568861 1298.8073394495414,372.9147402751702 1287.6146788990825,369.35363169345425 1276.4220183486239,365.7925231117383 1265.2293577981652,362.2314145300224 1254.0366972477066,358.67030594830646 1242.8440366972477,355.10919736659054 1231.651376146789,351.5480887848746 1220.4587155963302,347.9869802031587 1209.2660550458716,344.42587162144275 1198.073394495413,340.8647630397268 1186.8807339449543,337.3036544580109 1175.6880733944954,333.74254587629497 1164.4954128440368,330.18143729457904 1153.302752293578,326.6203287128631 1142.1100917431193,323.7714418474904 1130.9174311926606,320.9225549821177 1119.724770642202,318.0736681167449 1108.532110091743,315.2247812513722 1097.3394495412845,312.3758943859994 1086.1467889908258,309.5270075206267 1074.9541284403672,306.67812065525396 1063.761467889908,303.8292337898812 1052.5688073394494,300.98034692450847 1041.3761467889908,298.13146005913575 1030.1834862385322,295.28257319376297 1018.9908256880734,292.43368632839025 1007.7981651376148,289.5847994630175 996.6055045871559,290.4404993751956 985.4128440366973,288.8380005134235 974.2201834862385,290.22630019079196 963.0275229357799,292.98206729558524 951.8348623853211,294.8181146660206 940.6422018348625,297.0974956213618 929.4495412844036,301.26253738026924 918.256880733945,305.23848911668586 907.0642201834862,310.31036284244055 895.8715596330276,316.436018510174 884.6788990825688,322.41772499549563 873.4862385321102,329.47127927237614 862.2935779816513,335.39215316645664 851.1009174311927,342.37217583318113 839.9082568807339,350.2477568911713 828.7155963302753,348.77782836568144 817.5229357798165,345.9289415003087 806.3302752293579,343.080054634936 795.137614678899,340.2311677695632 783.9449541284404,337.3822809041905 772.7522935779816,334.53339403881773 761.559633027523,331.684507173445 750.3669724770642,328.8356203080723 739.1743119266056,325.9867334426996 727.9816513761467,323.1378465773268 716.7889908256881,319.57673799561087 705.5963302752293,316.01562941389494 694.4036697247707,312.454520832179 683.2110091743119,308.8934122504631 672.0183486238533,305.33230366874716 660.8256880733945,301.77119508703123 649.6330275229358,298.9223082216585 638.4403669724771,295.3611996399426 627.2477064220184,291.80009105822666 616.0550458715596,288.9512041928539 604.862385321101,286.10231732748116 593.6697247706422,283.25343046210844 582.4770642201836,280.40454359673566 571.2844036697247,277.55565673136294 560.0917431192661,275.95315786959077 548.8990825688074,274.35065900781865 537.7064220183486,272.7481601460464 526.5137614678899,272.7481601460464 515.3211009174313,271.1456612842743 504.1284403669725,269.5431624225021 492.9357798165138,269.5431624225021 481.7431192660551,269.5431624225021 470.55045871559633,269.5431624225021 459.35779816513764,267.94066356072994 448.16513761467894,266.33816469895777 436.9724770642202,264.7356658371856 425.7798165137615,261.8867789718129 414.5871559633028,259.03789210644015 403.39449541284404,256.1890052410674 392.20183486238534,253.34011837569463 381.00917431192664,250.4912315103219 369.8165137614679,247.64234464494916 358.6238532110092,244.7934577795764 347.4311926605505,241.9445709142037 336.2385321100918,239.09568404883095 325.04587155963304,236.2467971834582 313.8532110091743,233.39791031808545 302.66055045871565,230.5490234527127 291.4678899082569,227.70013658733995 280.27522935779814,224.8512497219672 269.0825688073395,223.24875086019506 257.88990825688074,221.6462519984229 246.69724770642202,221.6462519984229 235.50458715596332,218.79736513305016 224.3119266055046,217.194866271278 213.1192660550459,215.59236740950584 201.92660550458714,215.59236740950584 190.73394495412845,215.59236740950584 179.54128440366975,215.59236740950584 168.348623853211,215.59236740950584 157.1559633027523,215.59236740950584 145.96330275229357,212.7434805441331 134.77064220183487,211.14098168236094 123.57798165137615,209.53848282058874 112.38532110091744,207.9359839588166 101.19266055045871,206.33348509704442 90.0,206.33348509704442" fill="#2563eb" fill-opacity="0.70" stroke="#2563eb" stroke-width="1.2"/>
<polygon points="90.0,206.33348509704442 101.19266055045871,206.33348509704442 112.38532110091744,206.33348509704442 123.57798165137615,206.26691525026288 134.77064220183487,206.32456402812323 145.96330275229357,206.47519470625915 157.1559633027523,206.61224773829926 168.348623853211,204.87524029472573 179.54128440366975,204.6236310058751 190.73394495412845,204.86949453771626 201.92660550458714,204.9920746130877 213.1192660550459,205.447437829107 224.3119266055046,206.11272439743587 235.50458715596332,205.74542068304245 246.69724770642202,207.20089035597346 257.88990825688074,205.04664825614734 269.0825688073395,204.84451570268206 280.27522935779814,205.30000710237388 291.4678899082569,209.86394883411293 302.66055045871565,207.86006845763214 313.8532110091743,208.22306396574072 325.04587155963304,207.32755972881847 336.2385321100918,208.94565617902572 347.4311926605505,210.56964577204755 358.6238532110092,210.73219401302018 369.8165137614679,206.5597339446848 381.00917431192664,206.95701091843762 392.20183486238534,208.94604836721678 403.39449541284404,205.6267904069091 414.5871559633028,204.79862947780364 425.7798165137615,204.99454371450423 436.9724770642202,207.80883169888392 448.16513761467894,187.16761951394884 459.35779816513764,188.65461162687 470.55045871559633,184.90993085443424 481.7431192660551,180.60496626575033 492.9357798165138,179.06501953757862 504.1284403669725,171.73604488553266 515.3211009174313,184.1409807587282 526.5137614678899,185.9029375405348 537.7064220183486,177.08466808305545 548.8990825688074,188.20239968694491 560.0917431192661,182.8126447086667 571.2844036697247,184.29634594700102 582.4770642201836,189.0378603300797 593.6697247706422,194.33397569742678 604.862385321101,193.77234650767505 616.0550458715596,199.72361582376337 627.2477064220184,208.79833809828386 638.4403669724771,217.86460114487036 649.6330275229358,213.8024205733511 660.8256880733945,208.67928067240038 672.0183486238533,217.05922946160445 683.2110091743119,225.18148295789442 694.4036697247707,220.29257902232203 705.5963302752293,219.73676886730652 716.7889908256881,209.10458436459632 727.9816513761467,208.7131978300703 739.1743119266056,183.08110551346562 750.3669724770642,180.2770876303403 761.559633027523,176.6968818269125 772.7522935779816,177.43264452847964 783.9449541284404,172.15462543003758 795.137614678899,179.15134552795294 806.3302752293579,184.8558444270334 817.5229357798165,180.99273632338668 828.7155963302753,178.12157441003865 839.9082568807339,151.93964015296314 851.1009174311927,123.47828091278154 862.2935779816513,121.70669468943134 873.4862385321102,126.49923818526469 884.6788990825688,106.73198342677733 895.8715596330276,105.30263744125455 907.0642201834862,107.34016595446559 918.256880733945,109.78828152007816 929.4495412844036,108.21622624295458 940.6422018348625,99.95108286461414 951.8348623853211,110.38769045303246 963.0275229357799,108.94155836116073 974.2201834862385,90.0 985.4128440366973,107.37785951856546 996.6055045871559,117.07859939812556 1007.7981651376148,111.23078739833858 1018.9908256880734,129.18458182610857 1030.1834862385322,130.50251831163263 1041.3761467889908,153.94808168370093 1052.5688073394494,158.6000607345838 1063.761467889908,164.18655699196302 1074.9541284403672,151.98987258577745 1086.1467889908258,159.62747335275276 1097.3394495412845,156.78092538216623 1108.532110091743,160.03450293577959 1119.724770642202,146.10798180993396 1130.9174311926606,152.26424116934305 1142.1100917431193,148.2190045071481 1153.302752293578,159.89810507339195 1164.4954128440368,186.38552650324925 1175.6880733944954,201.58300853310578 1186.8807339449543,206.2529181415933 1198.073394495413,214.9652858924181 1209.2660550458716,204.943576245883 1220.4587155963302,206.58005467155218 1231.651376146789,186.76772241443598 1242.8440366972477,198.4933105687384 1254.0366972477066,207.69488968954255 1265.2293577981652,202.1552366858063 1276.4220183486239,185.3565830210884 1287.6146788990825,186.168451063809 1298.8073394495414,185.00853152315992 1310.0,180.30996175487917 1310.0,271.2025434904882 1298.8073394495414,271.610573582809 1287.6146788990825,269.59643703602865 1276.4220183486239,265.70266660671984 1265.2293577981652,274.9939538330351 1254.0366972477066,276.76882035760764 1242.8440366972477,270.1776230760672 1231.651376146789,260.85998488057237 1220.4587155963302,272.8439047563894 1209.2660550458716,270.047430210382 1198.073394495413,274.64003955355724 1186.8807339449543,268.19302416397187 1175.6880733944954,263.08069775502395 1164.4954128440368,253.65171031486963 1153.302752293578,233.65147884462868 1142.1100917431193,224.23212646528856 1130.9174311926606,225.8632385100009 1119.724770642202,220.53895207949182 1108.532110091743,227.89652525087263 1097.3394495412845,224.45327104709804 1086.1467889908258,224.3966412559324 1074.9541284403672,218.5583814429772 1063.761467889908,226.2977688954916 1052.5688073394494,220.84624272202896 1041.3761467889908,217.5555294073624 1030.1834862385322,202.2391055635506 1018.9908256880734,200.04032490242676 1007.7981651376148,185.73357421579152 996.6055045871559,189.28335779052648 985.4128440366973,181.87275119461114 974.2201834862385,170.59933008654826 963.0275229357799,182.8490421298238 951.8348623853211,183.24278244536393 940.6422018348625,174.51515472073962 929.4495412844036,180.6422007838468 918.256880733945,180.38408648049858 907.0642201834862,178.5093101392202 895.8715596330276,180.45199753179983 884.6788990825688,183.44206905965848 873.4862385321102,200.8505478677548 862.2935779816513,198.00884021324796 851.1009174311927,199.365668476998 839.9082568807339,229.40057469597295 828.7155963302753,248.2098134468596 817.5229357798165,250.37107437970423 806.3302752293579,253.09885102458495 795.137614678899,248.32264234830717 783.9449541284404,243.29262766634895 772.7522935779816,245.19243556870848 761.559633027523,245.69855078027825 750.3669724770642,246.85305218645408 739.1743119266056,247.88200190378242 727.9816513761467,267.5956727316136 716.7889908256881,267.10704651262336 705.5963302752293,272.1658316959107 694.4036697247707,269.932888741417 683.2110091743119,270.6096997773399 672.0183486238533,263.2436742392962 660.8256880733945,256.3767924868685 649.6330275229358,258.6355270844401 638.4403669724771,258.63276330587973 627.2477064220184,252.11623088580555 616.0550458715596,244.64709258974102 604.862385321101,239.6652093336312 593.6697247706422,239.9038208948166 582.4770642201836,235.39301898135085 571.2844036697247,229.8470573656669 560.0917431192661,227.74194575297318 548.8990825688074,229.14570499283676 537.7064220183486,220.63165962781162 526.5137614678899,225.33759281708862 515.3211009174313,223.7074729993169 504.1284403669725,215.18504711559157 492.9357798165138,218.92056580792598 481.7431192660551,219.86184072565646 470.55045871559633,222.99442546272337 459.35779816513764,225.02126339127972 448.16513761467894,222.2065816846146 436.9724770642202,234.0652138313603 425.7798165137615,231.09775855483608 414.5871559633028,229.01346475928935 403.39449541284404,228.35465434966198 392.20183486238534,229.3475151819403 381.00917431192664,226.63948664121605 369.8165137614679,225.1504629963062 358.6238532110092,226.78974323425103 347.4311926605505,225.23557810350198 336.2385321100918,222.96612381863878 325.04587155963304,220.990951338738 313.8532110091743,220.07175163502183 302.66055045871565,218.50160781652198 291.4678899082569,218.4375344072347 280.27522935779814,214.38786461395662 269.0825688073395,213.30748796549884 257.88990825688074,212.45021130697802 246.69724770642202,213.68322844725418 235.50458715596332,211.40219797776743 224.3119266055046,210.780198478651 213.1192660550459,209.71262512516597 201.92660550458714,209.4507503786984 190.73394495412845,209.28282954293329 179.54128440366975,209.07403004416645 168.348623853211,209.4580214195766 157.1559633027523,210.6497182138305 145.96330275229357,209.29070060120134 134.77064220183487,208.45003010002665 123.57798165137615,207.7226072487438 112.38532110091744,207.05104198459932 101.19266055045871,206.33348509704442 90.0,206.33348509704442" fill="#f97316" fill-opacity="0.70" stroke="#f97316" stroke-width="1.2"/>
<rect x="1100" y="76" width="16" height="12" fill="#f97316" fill-opacity="0.70" stroke="#f97316"/>
<text x="1124" y="86" font-family="monospace" font-size="12" fill="#0f172a">BTC</text>
<rect x="1100" y="98" width="16" height="12" fill="#2563eb" fill-opacity="0.70" stroke="#2563eb"/>
<text x="1124" y="108" font-family="monospace" font-size="12" fill="#0f172a">ETH</text>
<rect x="1100" y="120" width="16" height="12" fill="#facc15" fill-opacity="0.70" stroke="#facc15"/>
<text x="1124" y="130" font-family="monospace" font-size="12" fill="#0f172a">DAI</text>
<text x="700.0" y="782" text-anchor="middle" font-family="monospace" font-size="16" fill="#0f172a">time</text>
<text x="24" y="255.0" transform="rotate(-90 24,255.0)" text-anchor="middle" font-family="monospace" font-size="16" fill="#0f172a">asset value split (usd)</text>
<line x1="90" y1="605" x2="1310" y2="605" stroke="#334155" stroke-width="2"/>
<line x1="90" y1="480" x2="90" y2="605" stroke="#334155" stroke-width="2"/>
<line x1="90" y1="542.5" x2="1310" y2="542.5" stroke="#64748b" stroke-width="1.5" stroke-dasharray="6 4"/>
<line x1="90" y1="605.0" x2="1310" y2="605.0" stroke="#e2e8f0" stroke-width="1"/>
<text x="78" y="609.0" text-anchor="end" font-family="monospace" font-size="11" fill="#475569">-112</text>
<line x1="90" y1="542.5" x2="1310" y2="542.5" stroke="#e2e8f0" stroke-width="1"/>
<text x="78" y="546.5" text-anchor="end" font-family="monospace" font-size="11" fill="#475569">0</text>
<line x1="90" y1="480.0" x2="1310" y2="480.0" stroke="#e2e8f0" stroke-width="1"/>
<text x="78" y="484.0" text-anchor="end" font-family="monospace" font-size="11" fill="#475569">112</text>
<rect x="86.95" y="542.5" width="6.1000000000000005" height="1.5" fill="#ea580c" opacity="0.85"><title>2024-04-01 | BTC buy 0.00 usd | reason=both_assets_expensive_eth_tilt</title></rect>
<rect x="98.14266055045871" y="542.5" width="6.1000000000000005" height="1.5" fill="#ea580c" opacity="0.85"><title>2024-04-08 | BTC buy 0.00 usd | reason=both_assets_expensive_eth_tilt</title></rect>
<rect x="109.33532110091744" y="514.3171946542291" width="6.1000000000000005" height="28.18280534577093" fill="#ea580c" opacity="0.85"><title>2024-04-15 | BTC buy 50.37 usd | reason=neutral_drawdown_eth_tilt</title></rect>
<rect x="120.52798165137615" y="515.0222056841767" width="6.1000000000000005" height="27.477794315823303" fill="#ea580c" opacity="0.85"><title>2024-04-22 | BTC buy 49.11 usd | reason=neutral_drawdown_eth_tilt</title></rect>
<rect x="131.72064220183486" y="513.6162544796111" width="6.1000000000000005" height="28.883745520388857" fill="#ea580c" opacity="0.85"><title>2024-04-29 | BTC buy 51.63 usd | reason=neutral_drawdown_eth_tilt</title></rect>
<rect x="142.91330275229356" y="514.5054140957992" width="6.1000000000000005" height="27.99458590420079" fill="#ea580c" opacity="0.85"><title>2024-05-06 | BTC buy 50.04 usd | reason=neutral_drawdown_eth_tilt</title></rect>
<rect x="154.1059633027523" y="494.10360188735706" width="6.1000000000000005" height="48.39639811264294" fill="#ea580c" opacity="0.85"><title>2024-05-13 | BTC buy 86.50 usd | reason=medium_drawdown_eth_tilt</title></rect>
<rect x="165.29862385321098" y="542.5" width="6.1000000000000005" height="1.5" fill="#ea580c" opacity="0.85"><title>2024-05-20 | BTC buy 0.00 usd | reason=both_assets_expensive_eth_tilt</title></rect>
<rect x="176.49128440366974" y="542.5" width="6.1000000000000005" height="1.5" fill="#ea580c" opacity="0.85"><title>2024-05-27 | BTC buy 0.00 usd | reason=both_assets_expensive_btc_tilt</title></rect>
<rect x="187.68394495412844" y="542.5" width="6.1000000000000005" height="1.5" fill="#ea580c" opacity="0.85"><title>2024-06-03 | BTC buy 0.00 usd | reason=both_assets_expensive_eth_tilt</title></rect>
<rect x="198.87660550458713" y="542.5" width="6.1000000000000005" height="1.5" fill="#ea580c" opacity="0.85"><title>2024-06-10 | BTC buy 0.00 usd | reason=both_assets_expensive_eth_tilt</title></rect>
<rect x="210.0692660550459" y="542.5" width="6.1000000000000005" height="1.5" fill="#ea580c" opacity="0.85"><title>2024-06-17 | BTC buy 0.00 usd | reason=both_assets_expensive_eth_tilt</title></rect>
<rect x="221.26192660550458" y="511.0297089926734" width="6.1000000000000005" height="31.47029100732658" fill="#ea580c" opacity="0.85"><title>2024-06-24 | BTC buy 56.25 usd | reason=neutral_drawdown_btc_tilt</title></rect>
<rect x="232.4545871559633" y="511.4532770191628" width="6.1000000000000005" height="31.046722980837217" fill="#ea580c" opacity="0.85"><title>2024-07-01 | BTC buy 55.49 usd | reason=neutral_drawdown_eth_tilt</title></rect>
<rect x="243.647247706422" y="488.39623564070865" width="6.1000000000000005" height="54.10376435929135" fill="#ea580c" opacity="0.85"><title>2024-07-08 | BTC buy 96.71 usd | reason=medium_drawdown_eth_tilt</title></rect>
<rect x="254.83990825688073" y="542.5" width="6.1000000000000005" height="1.5" fill="#ea580c" opacity="0.85"><title>2024-07-15 | BTC buy 0.00 usd | reason=both_assets_expensive_eth_tilt</title></rect>
<rect x="266.0325688073395" y="513.4683425485185" width="6.1000000000000005" height="29.031657451481465" fill="#ea580c" opacity="0.85"><title>2024-07-22 | BTC buy 51.89 usd | reason=neutral_drawdown_eth_tilt</title></rect>
<rect x="277.2252293577981" y="514.085995990084" width="6.1000000000000005" height="28.41400400991597" fill="#ea580c" opacity="0.85"><title>2024-07-29 | BTC buy 50.79 usd | reason=neutral_drawdown_eth_tilt</title></rect>
<rect x="288.4178899082569" y="494.58284120466794" width="6.1000000000000005" height="47.91715879533206" fill="#ea580c" opacity="0.85"><title>2024-08-05 | BTC buy 85.65 usd | reason=medium_drawdown_eth_tilt</title></rect>
<rect x="299.61055045871564" y="494.49604929584484" width="6.1000000000000005" height="48.00395070415516" fill="#ea580c" opacity="0.85"><title>2024-08-12 | BTC buy 85.80 usd | reason=medium_drawdown_eth_tilt</title></rect>
<rect x="310.8032110091743" y="495.74907325829685" width="6.1000000000000005" height="46.750926741703154" fill="#ea580c" opacity="0.85"><title>2024-08-19 | BTC buy 83.56 usd | reason=medium_drawdown_eth_tilt</title></rect>
<rect x="321.99587155963303" y="497.7401354581917" width="6.1000000000000005" height="44.75986454180833" fill="#ea580c" opacity="0.85"><title>2024-08-26 | BTC buy 80.00 usd | reason=medium_drawdown_eth_tilt</title></rect>
<rect x="333.1885321100918" y="496.876566069928" width="6.1000000000000005" height="45.623433930072" fill="#ea580c" opacity="0.85"><title>2024-09-02 | BTC buy 81.55 usd | reason=medium_drawdown_eth_tilt</title></rect>
<rect x="344.3811926605505" y="497.72597221209793" width="6.1000000000000005" height="44.77402778790207" fill="#ea580c" opacity="0.85"><title>2024-09-09 | BTC buy 80.03 usd | reason=medium_drawdown_eth_tilt</title></rect>
<rect x="355.5738532110092" y="499.50221843573587" width="6.1000000000000005" height="42.99778156426413" fill="#ea580c" opacity="0.85"><title>2024-09-16 | BTC buy 76.86 usd | reason=medium_drawdown_eth_tilt</title></rect>
<rect x="366.7665137614679" y="498.5902489238685" width="6.1000000000000005" height="43.9097510761315" fill="#ea580c" opacity="0.85"><title>2024-09-23 | BTC buy 78.49 usd | reason=medium_drawdown_eth_tilt</title></rect>
<rect x="377.95917431192663" y="499.1868119310896" width="6.1000000000000005" height="43.31318806891039" fill="#ea580c" opacity="0.85"><title>2024-09-30 | BTC buy 77.42 usd | reason=medium_drawdown_eth_tilt</title></rect>
<rect x="389.15183486238533" y="500.81555515496" width="6.1000000000000005" height="41.68444484503999" fill="#ea580c" opacity="0.85"><title>2024-10-07 | BTC buy 74.51 usd | reason=medium_drawdown_eth_tilt</title></rect>
<rect x="400.344495412844" y="500.9235538916317" width="6.1000000000000005" height="41.576446108368316" fill="#ea580c" opacity="0.85"><title>2024-10-14 | BTC buy 74.31 usd | reason=medium_drawdown_eth_tilt</title></rect>
<rect x="411.5371559633028" y="501.3993923247664" width="6.1000000000000005" height="41.10060767523362" fill="#ea580c" opacity="0.85"><title>2024-10-21 | BTC buy 73.46 usd | reason=medium_drawdown_eth_tilt</title></rect>
<rect x="422.7298165137615" y="504.7433905756328" width="6.1000000000000005" height="37.756609424367184" fill="#ea580c" opacity="0.85"><title>2024-10-28 | BTC buy 67.49 usd | reason=medium_drawdown_eth_tilt</title></rect>
<rect x="433.9224770642202" y="505.4444957036779" width="6.1000000000000005" height="37.05550429632211" fill="#ea580c" opacity="0.85"><title>2024-11-04 | BTC buy 66.23 usd | reason=medium_drawdown_eth_tilt</title></rect>
<rect x="445.11513761467893" y="516.3735772747208" width="6.1000000000000005" height="26.126422725279213" fill="#ea580c" opacity="0.85"><title>2024-11-11 | BTC buy 46.70 usd | reason=neutral_drawdown_eth_tilt</title></rect>
<rect x="456.3077981651376" y="517.476770322996" width="6.1000000000000005" height="25.023229677003997" fill="#ea580c" opacity="0.85"><title>2024-11-18 | BTC buy 44.73 usd | reason=neutral_drawdown_eth_tilt</title></rect>
<rect x="467.5004587155963" y="514.1577675375146" width="6.1000000000000005" height="28.342232462485413" fill="#ea580c" opacity="0.85"><title>2024-11-25 | BTC buy 50.66 usd | reason=neutral_drawdown_eth_tilt</title></rect>
<rect x="478.6931192660551" y="542.5" width="6.1000000000000005" height="1.5" fill="#ea580c" opacity="0.85"><title>2024-12-02 | BTC buy 0.00 usd | reason=both_assets_expensive_eth_tilt</title></rect>
<rect x="489.8857798165138" y="542.5" width="6.1000000000000005" height="1.5" fill="#ea580c" opacity="0.85"><title>2024-12-09 | BTC buy 0.00 usd | reason=both_assets_expensive_eth_tilt</title></rect>
<rect x="501.0784403669725" y="542.5" width="6.1000000000000005" height="1.5" fill="#ea580c" opacity="0.85"><title>2024-12-16 | BTC buy 0.00 usd | reason=both_assets_expensive_eth_tilt</title></rect>
<rect x="512.2711009174313" y="512.6739344560311" width="6.1000000000000005" height="29.826065543968866" fill="#ea580c" opacity="0.85"><title>2024-12-23 | BTC buy 53.31 usd | reason=neutral_drawdown_eth_tilt</title></rect>
<rect x="523.46376146789" y="512.5216781297763" width="6.1000000000000005" height="29.97832187022368" fill="#ea580c" opacity="0.85"><title>2024-12-30 | BTC buy 53.58 usd | reason=neutral_drawdown_eth_tilt</title></rect>
<rect x="534.6564220183486" y="542.5" width="6.1000000000000005" height="1.5" fill="#ea580c" opacity="0.85"><title>2025-01-06 | BTC buy 0.00 usd | reason=both_assets_expensive_eth_tilt</title></rect>
<rect x="545.8490825688075" y="514.7802170488744" width="6.1000000000000005" height="27.71978295112558" fill="#ea580c" opacity="0.85"><title>2025-01-13 | BTC buy 49.55 usd | reason=neutral_drawdown_eth_tilt</title></rect>
<rect x="557.0417431192661" y="515.9282498747109" width="6.1000000000000005" height="26.5717501252891" fill="#ea580c" opacity="0.85"><title>2025-01-20 | BTC buy 47.49 usd | reason=neutral_drawdown_eth_tilt</title></rect>
<rect x="568.2344036697248" y="516.6593850018437" width="6.1000000000000005" height="25.840614998156298" fill="#ea580c" opacity="0.85"><title>2025-01-27 | BTC buy 46.19 usd | reason=neutral_drawdown_eth_tilt</title></rect>
<rect x="579.4270642201836" y="500.3481690154884" width="6.1000000000000005" height="42.151830984511605" fill="#ea580c" opacity="0.85"><title>2025-02-03 | BTC buy 75.34 usd | reason=medium_drawdown_eth_tilt</title></rect>
<rect x="590.6197247706423" y="501.2828583754606" width="6.1000000000000005" height="41.21714162453941" fill="#ea580c" opacity="0.85"><title>2025-02-10 | BTC buy 73.67 usd | reason=medium_drawdown_eth_tilt</title></rect>
<rect x="601.812385321101" y="499.27526040508525" width="6.1000000000000005" height="43.22473959491475" fill="#ea580c" opacity="0.85"><title>2025-02-17 | BTC buy 77.26 usd | reason=medium_drawdown_eth_tilt</title></rect>
<rect x="613.0050458715597" y="500.1992931908626" width="6.1000000000000005" height="42.30070680913741" fill="#ea580c" opacity="0.85"><title>2025-02-24 | BTC buy 75.61 usd | reason=medium_drawdown_eth_tilt</title></rect>
<rect x="624.1977064220184" y="502.41323677829064" width="6.1000000000000005" height="40.08676322170936" fill="#ea580c" opacity="0.85"><title>2025-03-03 | BTC buy 71.65 usd | reason=medium_drawdown_eth_tilt</title></rect>
<rect x="635.3903669724772" y="492.24845351121746" width="6.1000000000000005" height="50.25154648878254" fill="#ea580c" opacity="0.85"><title>2025-03-10 | BTC buy 89.82 usd | reason=deep_drawdown_eth_tilt</title></rect>
<rect x="646.5830275229358" y="494.28897023515617" width="6.1000000000000005" height="48.21102976484383" fill="#ea580c" opacity="0.85"><title>2025-03-17 | BTC buy 86.17 usd | reason=deep_drawdown_eth_tilt</title></rect>
<rect x="657.7756880733946" y="503.6131127594564" width="6.1000000000000005" height="38.886887240543615" fill="#ea580c" opacity="0.85"><title>2025-03-24 | BTC buy 69.51 usd | reason=medium_drawdown_eth_tilt</title></rect>
<rect x="668.9683486238533" y="495.13549576062223" width="6.1000000000000005" height="47.364504239377766" fill="#ea580c" opacity="0.85"><title>2025-03-31 | BTC buy 84.66 usd | reason=deep_drawdown_eth_tilt</title></rect>
<rect x="680.161009174312" y="497.6013589267311" width="6.1000000000000005" height="44.89864107326889" fill="#ea580c" opacity="0.85"><title>2025-04-07 | BTC buy 80.25 usd | reason=deep_drawdown_eth_tilt</title></rect>
<rect x="691.3536697247707" y="499.9457857035671" width="6.1000000000000005" height="42.55421429643292" fill="#ea580c" opacity="0.85"><title>2025-04-14 | BTC buy 76.06 usd | reason=deep_drawdown_eth_tilt</title></rect>
<rect x="702.5463302752294" y="500.5401087157111" width="6.1000000000000005" height="41.959891284288915" fill="#ea580c" opacity="0.85"><title>2025-04-21 | BTC buy 75.00 usd | reason=deep_drawdown_eth_tilt</title></rect>
<rect x="713.7389908256881" y="500.5401087157111" width="6.1000000000000005" height="41.959891284288915" fill="#ea580c" opacity="0.85"><title>2025-04-28 | BTC buy 75.00 usd | reason=deep_drawdown_eth_tilt</title></rect>
<rect x="724.9316513761468" y="500.5401087157111" width="6.1000000000000005" height="41.959891284288915" fill="#ea580c" opacity="0.85"><title>2025-05-05 | BTC buy 75.00 usd | reason=deep_drawdown_eth_tilt</title></rect>
<rect x="736.1243119266056" y="506.9624549396165" width="6.1000000000000005" height="35.53754506038348" fill="#ea580c" opacity="0.85"><title>2025-05-12 | BTC buy 63.52 usd | reason=medium_drawdown_eth_tilt</title></rect>
<rect x="747.3169724770643" y="542.5" width="6.1000000000000005" height="1.5" fill="#ea580c" opacity="0.85"><title>2025-05-19 | BTC buy 0.00 usd | reason=medium_drawdown_eth_tilt</title></rect>
<rect x="758.509633027523" y="542.5" width="6.1000000000000005" height="1.5" fill="#ea580c" opacity="0.85"><title>2025-05-26 | BTC buy 0.00 usd | reason=medium_drawdown_eth_tilt</title></rect>
<rect x="769.7022935779817" y="503.1530724792937" width="6.1000000000000005" height="39.34692752070629" fill="#ea580c" opacity="0.85"><title>2025-06-02 | BTC buy 70.33 usd | reason=medium_drawdown_eth_tilt</title></rect>
<rect x="780.8949541284404" y="520.2917114463692" width="6.1000000000000005" height="22.208288553630837" fill="#ea580c" opacity="0.85"><title>2025-06-09 | BTC buy 39.70 usd | reason=medium_drawdown_eth_tilt</title></rect>
<rect x="792.0876146788991" y="532.4095409932044" width="6.1000000000000005" height="10.09045900679564" fill="#ea580c" opacity="0.85"><title>2025-06-16 | BTC buy 18.04 usd | reason=medium_drawdown_eth_tilt</title></rect>
<rect x="803.2802752293579" y="542.5" width="6.1000000000000005" height="1.5" fill="#ea580c" opacity="0.85"><title>2025-06-23 | BTC buy 0.00 usd | reason=medium_drawdown_eth_tilt</title></rect>
<rect x="814.4729357798166" y="542.5" width="6.1000000000000005" height="1.5" fill="#ea580c" opacity="0.85"><title>2025-06-30 | BTC buy 0.00 usd | reason=medium_drawdown_eth_tilt</title></rect>
<rect x="825.6655963302753" y="542.5" width="6.1000000000000005" height="1.5" fill="#ea580c" opacity="0.85"><title>2025-07-07 | BTC buy 0.00 usd | reason=medium_drawdown_eth_tilt</title></rect>
<rect x="836.858256880734" y="542.5" width="6.1000000000000005" height="5.206840108245615" fill="#dc2626" opacity="0.85"><title>2025-07-14 | BTC sell 9.31 usd | reason=neutral_drawdown_eth_tilt</title></rect>
<rect x="848.0509174311927" y="542.5" width="6.1000000000000005" height="1.5" fill="#ea580c" opacity="0.85"><title>2025-07-21 | BTC buy 0.00 usd | reason=both_assets_expensive_eth_tilt</title></rect>
<rect x="859.2435779816514" y="542.5" width="6.1000000000000005" height="1.5" fill="#ea580c" opacity="0.85"><title>2025-07-28 | BTC buy 0.00 usd | reason=both_assets_expensive_eth_tilt</title></rect>
<rect x="870.4362385321102" y="542.5" width="6.1000000000000005" height="1.5" fill="#ea580c" opacity="0.85"><title>2025-08-04 | BTC buy 0.00 usd | reason=both_assets_expensive_eth_tilt</title></rect>
<rect x="881.6288990825689" y="542.5" width="6.1000000000000005" height="1.5" fill="#ea580c" opacity="0.85"><title>2025-08-11 | BTC buy 0.00 usd | reason=both_assets_expensive_btc_tilt</title></rect>
<rect x="892.8215596330276" y="542.5" width="6.1000000000000005" height="1.5" fill="#ea580c" opacity="0.85"><title>2025-08-18 | BTC buy 0.00 usd | reason=both_assets_expensive_eth_tilt</title></rect>
<rect x="904.0142201834863" y="542.5" width="6.1000000000000005" height="1.5" fill="#ea580c" opacity="0.85"><title>2025-08-25 | BTC buy 0.00 usd | reason=both_assets_expensive_btc_tilt</title></rect>
<rect x="915.206880733945" y="542.5" width="6.1000000000000005" height="1.5" fill="#ea580c" opacity="0.85"><title>2025-09-01 | BTC buy 0.00 usd | reason=both_assets_expensive_btc_tilt</title></rect>
<rect x="926.3995412844037" y="542.5" width="6.1000000000000005" height="1.5" fill="#ea580c" opacity="0.85"><title>2025-09-08 | BTC buy 0.00 usd | reason=both_assets_expensive_eth_tilt</title></rect>
<rect x="937.5922018348625" y="542.5" width="6.1000000000000005" height="1.5" fill="#ea580c" opacity="0.85"><title>2025-09-15 | BTC buy 0.00 usd | reason=both_assets_expensive_btc_tilt</title></rect>
<rect x="948.7848623853212" y="542.5" width="6.1000000000000005" height="1.5" fill="#ea580c" opacity="0.85"><title>2025-09-22 | BTC buy 0.00 usd | reason=both_assets_expensive_eth_tilt</title></rect>
<rect x="959.9775229357799" y="542.5" width="6.1000000000000005" height="1.5" fill="#ea580c" opacity="0.85"><title>2025-09-29 | BTC buy 0.00 usd | reason=both_assets_expensive_eth_tilt</title></rect>
<rect x="971.1701834862386" y="542.5" width="6.1000000000000005" height="1.5" fill="#ea580c" opacity="0.85"><title>2025-10-06 | BTC buy 0.00 usd | reason=both_assets_expensive_eth_tilt</title></rect>
<rect x="982.3628440366973" y="542.5" width="6.1000000000000005" height="1.5" fill="#ea580c" opacity="0.85"><title>2025-10-13 | BTC buy 0.00 usd | reason=both_assets_expensive_eth_tilt</title></rect>
<rect x="993.555504587156" y="513.0012837556842" width="6.1000000000000005" height="29.4987162443158" fill="#ea580c" opacity="0.85"><title>2025-10-20 | BTC buy 52.73 usd | reason=neutral_drawdown_eth_tilt</title></rect>
<rect x="1004.7481651376148" y="542.5" width="6.1000000000000005" height="1.5" fill="#ea580c" opacity="0.85"><title>2025-10-27 | BTC buy 0.00 usd | reason=both_assets_expensive_eth_tilt</title></rect>
<rect x="1015.9408256880735" y="492.63098227229887" width="6.1000000000000005" height="49.869017727701134" fill="#ea580c" opacity="0.85"><title>2025-11-03 | BTC buy 89.14 usd | reason=medium_drawdown_eth_tilt</title></rect>
<rect x="1027.1334862385322" y="492.79283775882357" width="6.1000000000000005" height="49.707162241176434" fill="#ea580c" opacity="0.85"><title>2025-11-10 | BTC buy 88.85 usd | reason=medium_drawdown_eth_tilt</title></rect>
<rect x="1038.3261467889909" y="492.80421395456676" width="6.1000000000000005" height="49.69578604543324" fill="#ea580c" opacity="0.85"><title>2025-11-17 | BTC buy 88.83 usd | reason=medium_drawdown_eth_tilt</title></rect>
<rect x="1049.5188073394495" y="491.9561774846414" width="6.1000000000000005" height="50.54382251535861" fill="#ea580c" opacity="0.85"><title>2025-11-24 | BTC buy 90.34 usd | reason=medium_drawdown_eth_tilt</title></rect>
<rect x="1060.7114678899081" y="492.8529757101307" width="6.1000000000000005" height="49.64702428986931" fill="#ea580c" opacity="0.85"><title>2025-12-01 | BTC buy 88.74 usd | reason=medium_drawdown_eth_tilt</title></rect>
<rect x="1071.9041284403672" y="491.0315016381586" width="6.1000000000000005" height="51.4684983618414" fill="#ea580c" opacity="0.85"><title>2025-12-08 | BTC buy 92.00 usd | reason=medium_drawdown_eth_tilt</title></rect>
<rect x="1083.0967889908259" y="490.9901321448074" width="6.1000000000000005" height="51.509867855192624" fill="#ea580c" opacity="0.85"><title>2025-12-15 | BTC buy 92.07 usd | reason=medium_drawdown_eth_tilt</title></rect>
<rect x="1094.2894495412845" y="491.44845370904125" width="6.1000000000000005" height="51.051546290958754" fill="#ea580c" opacity="0.85"><title>2025-12-22 | BTC buy 91.25 usd | reason=medium_drawdown_eth_tilt</title></rect>
<rect x="1105.4821100917432" y="491.6509579413795" width="6.1000000000000005" height="50.84904205862051" fill="#ea580c" opacity="0.85"><title>2025-12-29 | BTC buy 90.89 usd | reason=medium_drawdown_eth_tilt</title></rect>
<rect x="1116.674770642202" y="491.3131872759334" width="6.1000000000000005" height="51.18681272406661" fill="#ea580c" opacity="0.85"><title>2026-01-05 | BTC buy 91.49 usd | reason=medium_drawdown_eth_tilt</title></rect>
<rect x="1127.8674311926607" y="491.65317415533457" width="6.1000000000000005" height="50.84682584466543" fill="#ea580c" opacity="0.85"><title>2026-01-12 | BTC buy 90.88 usd | reason=medium_drawdown_eth_tilt</title></rect>
<rect x="1139.0600917431193" y="491.1617127644789" width="6.1000000000000005" height="51.33828723552108" fill="#ea580c" opacity="0.85"><title>2026-01-19 | BTC buy 91.76 usd | reason=medium_drawdown_eth_tilt</title></rect>
<rect x="1150.252752293578" y="492.24698829100873" width="6.1000000000000005" height="50.25301170899127" fill="#ea580c" opacity="0.85"><title>2026-01-26 | BTC buy 89.82 usd | reason=medium_drawdown_eth_tilt</title></rect>
<rect x="1161.4454128440368" y="482.7310592228277" width="6.1000000000000005" height="59.768940777172304" fill="#ea580c" opacity="0.85"><title>2026-02-02 | BTC buy 106.83 usd | reason=deep_drawdown_eth_tilt</title></rect>
<rect x="1172.6380733944954" y="481.4211394328014" width="6.1000000000000005" height="61.0788605671986" fill="#ea580c" opacity="0.85"><title>2026-02-09 | BTC buy 109.17 usd | reason=deep_drawdown_eth_tilt</title></rect>
<rect x="1183.8307339449543" y="482.26601349453284" width="6.1000000000000005" height="60.23398650546716" fill="#ea580c" opacity="0.85"><title>2026-02-16 | BTC buy 107.66 usd | reason=deep_drawdown_eth_tilt</title></rect>
<rect x="1195.023394495413" y="481.94485066528875" width="6.1000000000000005" height="60.555149334711246" fill="#ea580c" opacity="0.85"><title>2026-02-23 | BTC buy 108.24 usd | reason=deep_drawdown_eth_tilt</title></rect>
<rect x="1206.2160550458716" y="481.814071756466" width="6.1000000000000005" height="60.68592824353402" fill="#ea580c" opacity="0.85"><title>2026-03-02 | BTC buy 108.47 usd | reason=deep_drawdown_eth_tilt</title></rect>
<rect x="1217.4087155963302" y="482.0863724075161" width="6.1000000000000005" height="60.41362759248392" fill="#ea580c" opacity="0.85"><title>2026-03-09 | BTC buy 107.98 usd | reason=deep_drawdown_eth_tilt</title></rect>
<rect x="1228.601376146789" y="480.4979806240907" width="6.1000000000000005" height="62.0020193759093" fill="#ea580c" opacity="0.85"><title>2026-03-16 | BTC buy 110.82 usd | reason=deep_drawdown_eth_tilt</title></rect>
<rect x="1239.7940366972477" y="481.1610780389643" width="6.1000000000000005" height="61.33892196103568" fill="#ea580c" opacity="0.85"><title>2026-03-23 | BTC buy 109.64 usd | reason=deep_drawdown_eth_tilt</title></rect>
<rect x="1250.9866972477066" y="480.68129026438083" width="6.1000000000000005" height="61.818709735619166" fill="#ea580c" opacity="0.85"><title>2026-03-30 | BTC buy 110.50 usd | reason=deep_drawdown_eth_tilt</title></rect>
<rect x="1262.1793577981653" y="480.6696150631268" width="6.1000000000000005" height="61.8303849368732" fill="#ea580c" opacity="0.85"><title>2026-04-06 | BTC buy 110.52 usd | reason=deep_drawdown_eth_tilt</title></rect>
<rect x="1273.372018348624" y="480.0" width="6.1000000000000005" height="62.5" fill="#ea580c" opacity="0.85"><title>2026-04-13 | BTC buy 111.71 usd | reason=deep_drawdown_eth_tilt</title></rect>
<rect x="1284.5646788990825" y="481.59881305155227" width="6.1000000000000005" height="60.90118694844773" fill="#ea580c" opacity="0.85"><title>2026-04-20 | BTC buy 108.86 usd | reason=deep_drawdown_eth_tilt</title></rect>
<rect x="1295.7573394495414" y="482.60394106568407" width="6.1000000000000005" height="59.89605893431593" fill="#ea580c" opacity="0.85"><title>2026-04-27 | BTC buy 107.06 usd | reason=deep_drawdown_eth_tilt</title></rect>
<rect x="1306.95" y="483.3691706159011" width="6.1000000000000005" height="59.13082938409889" fill="#ea580c" opacity="0.85"><title>2026-05-04 | BTC buy 105.69 usd | reason=deep_drawdown_eth_tilt</title></rect>
<text x="24" y="542.5" transform="rotate(-90 24,542.5)" text-anchor="middle" font-family="monospace" font-size="14" fill="#0f172a">BTC weekly trade usd</text>
<line x1="90" y1="770" x2="1310" y2="770" stroke="#334155" stroke-width="2"/>
<line x1="90" y1="645" x2="90" y2="770" stroke="#334155" stroke-width="2"/>
<line x1="90" y1="707.5" x2="1310" y2="707.5" stroke="#64748b" stroke-width="1.5" stroke-dasharray="6 4"/>
<line x1="90" y1="770.0" x2="1310" y2="770.0" stroke="#e2e8f0" stroke-width="1"/>
<text x="78" y="774.0" text-anchor="end" font-family="monospace" font-size="11" fill="#475569">-553</text>
<line x1="90" y1="707.5" x2="1310" y2="707.5" stroke="#e2e8f0" stroke-width="1"/>
<text x="78" y="711.5" text-anchor="end" font-family="monospace" font-size="11" fill="#475569">0</text>
<line x1="90" y1="645.0" x2="1310" y2="645.0" stroke="#e2e8f0" stroke-width="1"/>
<text x="78" y="649.0" text-anchor="end" font-family="monospace" font-size="11" fill="#475569">553</text>
<rect x="86.95" y="707.5" width="6.1000000000000005" height="1.5" fill="#2563eb" opacity="0.85"><title>2024-04-01 | ETH buy 0.00 usd | reason=both_assets_expensive_eth_tilt</title></rect>
<rect x="98.14266055045871" y="707.5" width="6.1000000000000005" height="1.5" fill="#2563eb" opacity="0.85"><title>2024-04-08 | ETH buy 0.00 usd | reason=both_assets_expensive_eth_tilt</title></rect>
<rect x="109.33532110091744" y="700.4771691788424" width="6.1000000000000005" height="7.0228308211576405" fill="#2563eb" opacity="0.85"><title>2024-04-15 | ETH buy 62.13 usd | reason=neutral_drawdown_eth_tilt</title></rect>
<rect x="120.52798165137615" y="700.334718199423" width="6.1000000000000005" height="7.165281800576963" fill="#2563eb" opacity="0.85"><title>2024-04-22 | ETH buy 63.39 usd | reason=neutral_drawdown_eth_tilt</title></rect>
<rect x="131.72064220183486" y="700.6187976217279" width="6.1000000000000005" height="6.881202378272064" fill="#2563eb" opacity="0.85"><title>2024-04-29 | ETH buy 60.87 usd | reason=neutral_drawdown_eth_tilt</title></rect>
<rect x="142.91330275229356" y="700.4391385060464" width="6.1000000000000005" height="7.060861493953553" fill="#2563eb" opacity="0.85"><title>2024-05-06 | ETH buy 62.46 usd | reason=neutral_drawdown_eth_tilt</title></rect>
<rect x="154.1059633027523" y="694.6701875143382" width="6.1000000000000005" height="12.829812485661819" fill="#2563eb" opacity="0.85"><title>2024-05-13 | ETH buy 113.50 usd | reason=medium_drawdown_eth_tilt</title></rect>
<rect x="165.29862385321098" y="707.5" width="6.1000000000000005" height="1.5" fill="#2563eb" opacity="0.85"><title>2024-05-20 | ETH buy 0.00 usd | reason=both_assets_expensive_eth_tilt</title></rect>
<rect x="176.49128440366974" y="707.5" width="6.1000000000000005" height="1.5" fill="#2563eb" opacity="0.85"><title>2024-05-27 | ETH buy 0.00 usd | reason=both_assets_expensive_btc_tilt</title></rect>
<rect x="187.68394495412844" y="707.5" width="6.1000000000000005" height="1.5" fill="#2563eb" opacity="0.85"><title>2024-06-03 | ETH buy 0.00 usd | reason=both_assets_expensive_eth_tilt</title></rect>
<rect x="198.87660550458713" y="707.5" width="6.1000000000000005" height="1.5" fill="#2563eb" opacity="0.85"><title>2024-06-10 | ETH buy 0.00 usd | reason=both_assets_expensive_eth_tilt</title></rect>
<rect x="210.0692660550459" y="707.5" width="6.1000000000000005" height="1.5" fill="#2563eb" opacity="0.85"><title>2024-06-17 | ETH buy 0.00 usd | reason=both_assets_expensive_eth_tilt</title></rect>
<rect x="221.26192660550458" y="701.1414219811711" width="6.1000000000000005" height="6.358578018828894" fill="#2563eb" opacity="0.85"><title>2024-06-24 | ETH buy 56.25 usd | reason=neutral_drawdown_btc_tilt</title></rect>
<rect x="232.4545871559633" y="701.0558379581402" width="6.1000000000000005" height="6.44416204185984" fill="#2563eb" opacity="0.85"><title>2024-07-01 | ETH buy 57.01 usd | reason=neutral_drawdown_eth_tilt</title></rect>
<rect x="243.647247706422" y="695.8233892050976" width="6.1000000000000005" height="11.676610794902444" fill="#2563eb" opacity="0.85"><title>2024-07-08 | ETH buy 103.29 usd | reason=medium_drawdown_eth_tilt</title></rect>
<rect x="254.83990825688073" y="707.5" width="6.1000000000000005" height="1.5" fill="#2563eb" opacity="0.85"><title>2024-07-15 | ETH buy 0.00 usd | reason=both_assets_expensive_eth_tilt</title></rect>
<rect x="266.0325688073395" y="700.6486839618799" width="6.1000000000000005" height="6.851316038120103" fill="#2563eb" opacity="0.85"><title>2024-07-22 | ETH buy 60.61 usd | reason=neutral_drawdown_eth_tilt</title></rect>
<rect x="277.2252293577981" y="700.5238840169781" width="6.1000000000000005" height="6.976115983021941" fill="#2563eb" opacity="0.85"><title>2024-07-29 | ETH buy 61.71 usd | reason=neutral_drawdown_eth_tilt</title></rect>
<rect x="288.4178899082569" y="694.5733548305541" width="6.1000000000000005" height="12.92664516944592" fill="#2563eb" opacity="0.85"><title>2024-08-05 | ETH buy 114.35 usd | reason=medium_drawdown_eth_tilt</title></rect>
<rect x="299.61055045871564" y="694.5908915667077" width="6.1000000000000005" height="12.909108433292317" fill="#2563eb" opacity="0.85"><title>2024-08-12 | ETH buy 114.20 usd | reason=medium_drawdown_eth_tilt</title></rect>
<rect x="310.8032110091743" y="694.3377118530507" width="6.1000000000000005" height="13.162288146949322" fill="#2563eb" opacity="0.85"><title>2024-08-19 | ETH buy 116.44 usd | reason=medium_drawdown_eth_tilt</title></rect>
<rect x="321.99587155963303" y="693.9354078486995" width="6.1000000000000005" height="13.56459215130053" fill="#2563eb" opacity="0.85"><title>2024-08-26 | ETH buy 120.00 usd | reason=medium_drawdown_eth_tilt</title></rect>
<rect x="333.1885321100918" y="694.1098963317575" width="6.1000000000000005" height="13.390103668242546" fill="#2563eb" opacity="0.85"><title>2024-09-02 | ETH buy 118.45 usd | reason=medium_drawdown_eth_tilt</title></rect>
<rect x="344.3811926605505" y="693.938269602902" width="6.1000000000000005" height="13.561730397098017" fill="#2563eb" opacity="0.85"><title>2024-09-09 | ETH buy 119.97 usd | reason=medium_drawdown_eth_tilt</title></rect>
<rect x="355.5738532110092" y="693.5793702332485" width="6.1000000000000005" height="13.920629766751517" fill="#2563eb" opacity="0.85"><title>2024-09-16 | ETH buy 123.14 usd | reason=medium_drawdown_eth_tilt</title></rect>
<rect x="366.7665137614679" y="693.7636382016173" width="6.1000000000000005" height="13.736361798382745" fill="#2563eb" opacity="0.85"><title>2024-09-23 | ETH buy 121.51 usd | reason=medium_drawdown_eth_tilt</title></rect>
<rect x="377.95917431192663" y="693.6430996837017" width="6.1000000000000005" height="13.856900316298265" fill="#2563eb" opacity="0.85"><title>2024-09-30 | ETH buy 122.58 usd | reason=medium_drawdown_eth_tilt</title></rect>
<rect x="389.15183486238533" y="693.3140040275953" width="6.1000000000000005" height="14.185995972404726" fill="#2563eb" opacity="0.85"><title>2024-10-07 | ETH buy 125.49 usd | reason=medium_drawdown_eth_tilt</title></rect>
<rect x="400.344495412844" y="693.2921823465699" width="6.1000000000000005" height="14.207817653430084" fill="#2563eb" opacity="0.85"><title>2024-10-14 | ETH buy 125.69 usd | reason=medium_drawdown_eth_tilt</title></rect>
<rect x="411.5371559633028" y="693.1960368283212" width="6.1000000000000005" height="14.303963171678788" fill="#2563eb" opacity="0.85"><title>2024-10-21 | ETH buy 126.54 usd | reason=medium_drawdown_eth_tilt</title></rect>
<rect x="422.7298165137615" y="692.520365376702" width="6.1000000000000005" height="14.979634623298011" fill="#2563eb" opacity="0.85"><title>2024-10-28 | ETH buy 132.51 usd | reason=medium_drawdown_eth_tilt</title></rect>
<rect x="433.9224770642202" y="692.3787036041573" width="6.1000000000000005" height="15.121296395842705" fill="#2563eb" opacity="0.85"><title>2024-11-04 | ETH buy 133.77 usd | reason=medium_drawdown_eth_tilt</title></rect>
<rect x="445.11513761467893" y="700.0616668591529" width="6.1000000000000005" height="7.438333140847135" fill="#2563eb" opacity="0.85"><title>2024-11-11 | ETH buy 65.80 usd | reason=neutral_drawdown_eth_tilt</title></rect>
<rect x="456.3077981651376" y="699.8387612257092" width="6.1000000000000005" height="7.661238774290837" fill="#2563eb" opacity="0.85"><title>2024-11-18 | ETH buy 67.77 usd | reason=neutral_drawdown_eth_tilt</title></rect>
<rect x="467.5004587155963" y="700.5093822194293" width="6.1000000000000005" height="6.9906177805706875" fill="#2563eb" opacity="0.85"><title>2024-11-25 | ETH buy 61.84 usd | reason=neutral_drawdown_eth_tilt</title></rect>
<rect x="478.6931192660551" y="707.5" width="6.1000000000000005" height="1.5" fill="#2563eb" opacity="0.85"><title>2024-12-02 | ETH buy 0.00 usd | reason=both_assets_expensive_eth_tilt</title></rect>
<rect x="489.8857798165138" y="707.5" width="6.1000000000000005" height="1.5" fill="#2563eb" opacity="0.85"><title>2024-12-09 | ETH buy 0.00 usd | reason=both_assets_expensive_eth_tilt</title></rect>
<rect x="501.0784403669725" y="707.5" width="6.1000000000000005" height="1.5" fill="#2563eb" opacity="0.85"><title>2024-12-16 | ETH buy 0.00 usd | reason=both_assets_expensive_eth_tilt</title></rect>
<rect x="512.2711009174313" y="700.8091980616974" width="6.1000000000000005" height="6.69080193830257" fill="#2563eb" opacity="0.85"><title>2024-12-23 | ETH buy 59.19 usd | reason=neutral_drawdown_eth_tilt</title></rect>
<rect x="523.46376146789" y="700.8399622084646" width="6.1000000000000005" height="6.660037791535387" fill="#2563eb" opacity="0.85"><title>2024-12-30 | ETH buy 58.92 usd | reason=neutral_drawdown_eth_tilt</title></rect>
<rect x="534.6564220183486" y="707.5" width="6.1000000000000005" height="1.5" fill="#2563eb" opacity="0.85"><title>2025-01-06 | ETH buy 0.00 usd | reason=both_assets_expensive_eth_tilt</title></rect>
<rect x="545.8490825688075" y="700.38361320481" width="6.1000000000000005" height="7.11638679519001" fill="#2563eb" opacity="0.85"><title>2025-01-13 | ETH buy 62.95 usd | reason=neutral_drawdown_eth_tilt</title></rect>
<rect x="557.0417431192661" y="700.1516474716525" width="6.1000000000000005" height="7.348352528347505" fill="#2563eb" opacity="0.85"><title>2025-01-20 | ETH buy 65.01 usd | reason=neutral_drawdown_eth_tilt</title></rect>
<rect x="568.2344036697248" y="700.0039179886746" width="6.1000000000000005" height="7.49608201132537" fill="#2563eb" opacity="0.85"><title>2025-01-27 | ETH buy 66.31 usd | reason=neutral_drawdown_eth_tilt</title></rect>
<rect x="579.4270642201836" y="693.4084417179386" width="6.1000000000000005" height="14.091558282061442" fill="#2563eb" opacity="0.85"><title>2025-02-03 | ETH buy 124.66 usd | reason=medium_drawdown_eth_tilt</title></rect>
<rect x="590.6197247706423" y="693.219583091442" width="6.1000000000000005" height="14.280416908557982" fill="#2563eb" opacity="0.85"><title>2025-02-10 | ETH buy 126.33 usd | reason=medium_drawdown_eth_tilt</title></rect>
<rect x="601.812385321101" y="693.6252282303292" width="6.1000000000000005" height="13.874771769670815" fill="#2563eb" opacity="0.85"><title>2025-02-17 | ETH buy 122.74 usd | reason=medium_drawdown_eth_tilt</title></rect>
<rect x="613.0050458715597" y="693.4385228175653" width="6.1000000000000005" height="14.061477182434714" fill="#2563eb" opacity="0.85"><title>2025-02-24 | ETH buy 124.39 usd | reason=medium_drawdown_eth_tilt</title></rect>
<rect x="624.1977064220184" y="692.9911845221181" width="6.1000000000000005" height="14.508815477881853" fill="#2563eb" opacity="0.85"><title>2025-03-03 | ETH buy 128.35 usd | reason=medium_drawdown_eth_tilt</title></rect>
<rect x="635.3903669724772" y="689.3928931950663" width="6.1000000000000005" height="18.107106804933665" fill="#2563eb" opacity="0.85"><title>2025-03-10 | ETH buy 160.18 usd | reason=deep_drawdown_eth_tilt</title></rect>
<rect x="646.5830275229358" y="688.9805966585595" width="6.1000000000000005" height="18.519403341440466" fill="#2563eb" opacity="0.85"><title>2025-03-17 | ETH buy 163.83 usd | reason=deep_drawdown_eth_tilt</title></rect>
<rect x="657.7756880733946" y="692.748743621993" width="6.1000000000000005" height="14.751256378007042" fill="#2563eb" opacity="0.85"><title>2025-03-24 | ETH buy 130.49 usd | reason=medium_drawdown_eth_tilt</title></rect>
<rect x="668.9683486238533" y="688.8095519726132" width="6.1000000000000005" height="18.690448027386765" fill="#2563eb" opacity="0.85"><title>2025-03-31 | ETH buy 165.34 usd | reason=deep_drawdown_eth_tilt</title></rect>
<rect x="680.161009174312" y="688.3113120753562" width="6.1000000000000005" height="19.188687924643773" fill="#2563eb" opacity="0.85"><title>2025-04-07 | ETH buy 169.75 usd | reason=deep_drawdown_eth_tilt</title></rect>
<rect x="691.3536697247707" y="687.8376090035591" width="6.1000000000000005" height="19.662390996440877" fill="#2563eb" opacity="0.85"><title>2025-04-14 | ETH buy 173.94 usd | reason=deep_drawdown_eth_tilt</title></rect>
<rect x="702.5463302752294" y="687.717523087772" width="6.1000000000000005" height="19.78247691222805" fill="#2563eb" opacity="0.85"><title>2025-04-21 | ETH buy 175.00 usd | reason=deep_drawdown_eth_tilt</title></rect>
<rect x="713.7389908256881" y="687.717523087772" width="6.1000000000000005" height="19.78247691222805" fill="#2563eb" opacity="0.85"><title>2025-04-28 | ETH buy 175.00 usd | reason=deep_drawdown_eth_tilt</title></rect>
<rect x="724.9316513761468" y="687.717523087772" width="6.1000000000000005" height="19.78247691222805" fill="#2563eb" opacity="0.85"><title>2025-05-05 | ETH buy 175.00 usd | reason=deep_drawdown_eth_tilt</title></rect>
<rect x="736.1243119266056" y="692.0719924029239" width="6.1000000000000005" height="15.428007597076089" fill="#2563eb" opacity="0.85"><title>2025-05-12 | ETH buy 136.48 usd | reason=medium_drawdown_eth_tilt</title></rect>
<rect x="747.3169724770643" y="684.8914549574537" width="6.1000000000000005" height="22.608545042546325" fill="#2563eb" opacity="0.85"><title>2025-05-19 | ETH buy 200.00 usd | reason=medium_drawdown_eth_tilt</title></rect>
<rect x="758.509633027523" y="684.8914549574537" width="6.1000000000000005" height="22.608545042546325" fill="#2563eb" opacity="0.85"><title>2025-05-26 | ETH buy 200.00 usd | reason=medium_drawdown_eth_tilt</title></rect>
<rect x="769.7022935779817" y="692.841697044986" width="6.1000000000000005" height="14.658302955014051" fill="#2563eb" opacity="0.85"><title>2025-06-02 | ETH buy 129.67 usd | reason=medium_drawdown_eth_tilt</title></rect>
<rect x="780.8949541284404" y="689.3787499376837" width="6.1000000000000005" height="18.121250062316335" fill="#2563eb" opacity="0.85"><title>2025-06-09 | ETH buy 160.30 usd | reason=medium_drawdown_eth_tilt</title></rect>
<rect x="792.0876146788991" y="686.9302823051831" width="6.1000000000000005" height="20.56971769481686" fill="#2563eb" opacity="0.85"><title>2025-06-16 | ETH buy 181.96 usd | reason=medium_drawdown_eth_tilt</title></rect>
<rect x="803.2802752293579" y="684.8914549574537" width="6.1000000000000005" height="22.608545042546325" fill="#2563eb" opacity="0.85"><title>2025-06-23 | ETH buy 200.00 usd | reason=medium_drawdown_eth_tilt</title></rect>
<rect x="814.4729357798166" y="684.8914549574537" width="6.1000000000000005" height="22.608545042546325" fill="#2563eb" opacity="0.85"><title>2025-06-30 | ETH buy 200.00 usd | reason=medium_drawdown_eth_tilt</title></rect>
<rect x="825.6655963302753" y="684.8914549574537" width="6.1000000000000005" height="22.608545042546325" fill="#2563eb" opacity="0.85"><title>2025-07-07 | ETH buy 200.00 usd | reason=medium_drawdown_eth_tilt</title></rect>
<rect x="836.858256880734" y="694.7826934135677" width="6.1000000000000005" height="12.7173065864323" fill="#2563eb" opacity="0.85"><title>2025-07-14 | ETH buy 112.50 usd | reason=neutral_drawdown_eth_tilt</title></rect>
<rect x="848.0509174311927" y="707.5" width="6.1000000000000005" height="62.5" fill="#7c3aed" opacity="0.85"><title>2025-07-21 | ETH sell 552.89 usd | reason=both_assets_expensive_eth_tilt</title></rect>
<rect x="859.2435779816514" y="707.5" width="6.1000000000000005" height="55.39291811715657" fill="#7c3aed" opacity="0.85"><title>2025-07-28 | ETH sell 490.02 usd | reason=both_assets_expensive_eth_tilt</title></rect>
<rect x="870.4362385321102" y="707.5" width="6.1000000000000005" height="46.98759566503202" fill="#7c3aed" opacity="0.85"><title>2025-08-04 | ETH sell 415.66 usd | reason=both_assets_expensive_eth_tilt</title></rect>
<rect x="881.6288990825689" y="707.5" width="6.1000000000000005" height="55.97645926807775" fill="#7c3aed" opacity="0.85"><title>2025-08-11 | ETH sell 495.18 usd | reason=both_assets_expensive_btc_tilt</title></rect>
<rect x="892.8215596330276" y="707.5" width="6.1000000000000005" height="47.47035838750037" fill="#7c3aed" opacity="0.85"><title>2025-08-18 | ETH sell 419.93 usd | reason=both_assets_expensive_eth_tilt</title></rect>
<rect x="904.0142201834863" y="707.5" width="6.1000000000000005" height="48.61272792626664" fill="#7c3aed" opacity="0.85"><title>2025-08-25 | ETH sell 430.04 usd | reason=both_assets_expensive_btc_tilt</title></rect>
<rect x="915.206880733945" y="707.5" width="6.1000000000000005" height="40.24999622574717" fill="#7c3aed" opacity="0.85"><title>2025-09-01 | ETH sell 356.06 usd | reason=both_assets_expensive_btc_tilt</title></rect>
<rect x="926.3995412844037" y="707.5" width="6.1000000000000005" height="31.55284438015167" fill="#7c3aed" opacity="0.85"><title>2025-09-08 | ETH sell 279.12 usd | reason=both_assets_expensive_eth_tilt</title></rect>
<rect x="937.5922018348625" y="707.5" width="6.1000000000000005" height="33.05344812210569" fill="#7c3aed" opacity="0.85"><title>2025-09-15 | ETH sell 292.40 usd | reason=both_assets_expensive_btc_tilt</title></rect>
<rect x="948.7848623853212" y="707.5" width="6.1000000000000005" height="18.08899034367596" fill="#7c3aed" opacity="0.85"><title>2025-09-22 | ETH sell 160.02 usd | reason=both_assets_expensive_eth_tilt</title></rect>
<rect x="959.9775229357799" y="707.5" width="6.1000000000000005" height="14.570729423931539" fill="#7c3aed" opacity="0.85"><title>2025-09-29 | ETH sell 128.90 usd | reason=both_assets_expensive_eth_tilt</title></rect>
<rect x="971.1701834862386" y="707.5" width="6.1000000000000005" height="21.86955385023134" fill="#7c3aed" opacity="0.85"><title>2025-10-06 | ETH sell 193.46 usd | reason=both_assets_expensive_eth_tilt</title></rect>
<rect x="982.3628440366973" y="707.5" width="6.1000000000000005" height="11.017438484427771" fill="#7c3aed" opacity="0.85"><title>2025-10-13 | ETH sell 97.46 usd | reason=both_assets_expensive_eth_tilt</title></rect>
<rect x="993.555504587156" y="700.7430555102096" width="6.1000000000000005" height="6.756944489790385" fill="#2563eb" opacity="0.85"><title>2025-10-20 | ETH buy 59.77 usd | reason=neutral_drawdown_eth_tilt</title></rect>
<rect x="1004.7481651376148" y="707.5" width="6.1000000000000005" height="6.790768086485855" fill="#7c3aed" opacity="0.85"><title>2025-10-27 | ETH sell 60.07 usd | reason=both_assets_expensive_eth_tilt</title></rect>
<rect x="1015.9408256880735" y="694.9677376200332" width="6.1000000000000005" height="12.532262379966824" fill="#2563eb" opacity="0.85"><title>2025-11-03 | ETH buy 110.86 usd | reason=medium_drawdown_eth_tilt</title></rect>
<rect x="1027.1334862385322" y="694.9350339152677" width="6.1000000000000005" height="12.564966084732305" fill="#2563eb" opacity="0.85"><title>2025-11-10 | ETH buy 111.15 usd | reason=medium_drawdown_eth_tilt</title></rect>
<rect x="1038.3261467889909" y="694.9327352984278" width="6.1000000000000005" height="12.567264701572185" fill="#2563eb" opacity="0.85"><title>2025-11-17 | ETH buy 111.17 usd | reason=medium_drawdown_eth_tilt</title></rect>
<rect x="1049.5188073394495" y="695.1040852782049" width="6.1000000000000005" height="12.395914721795066" fill="#2563eb" opacity="0.85"><title>2025-11-24 | ETH buy 109.66 usd | reason=medium_drawdown_eth_tilt</title></rect>
<rect x="1060.7114678899081" y="694.9228827435837" width="6.1000000000000005" height="12.577117256416273" fill="#2563eb" opacity="0.85"><title>2025-12-01 | ETH buy 111.26 usd | reason=medium_drawdown_eth_tilt</title></rect>
<rect x="1071.9041284403672" y="695.2909206245777" width="6.1000000000000005" height="12.209079375422334" fill="#2563eb" opacity="0.85"><title>2025-12-08 | ETH buy 108.00 usd | reason=medium_drawdown_eth_tilt</title></rect>
<rect x="1083.0967889908259" y="695.2992795361345" width="6.1000000000000005" height="12.200720463865537" fill="#2563eb" opacity="0.85"><title>2025-12-15 | ETH buy 107.93 usd | reason=medium_drawdown_eth_tilt</title></rect>
<rect x="1094.2894495412845" y="695.2066733882293" width="6.1000000000000005" height="12.29332661177068" fill="#2563eb" opacity="0.85"><title>2025-12-22 | ETH buy 108.75 usd | reason=medium_drawdown_eth_tilt</title></rect>
<rect x="1105.4821100917432" y="695.1657564025259" width="6.1000000000000005" height="12.334243597474142" fill="#2563eb" opacity="0.85"><title>2025-12-29 | ETH buy 109.11 usd | reason=medium_drawdown_eth_tilt</title></rect>
<rect x="1116.674770642202" y="695.2340046427208" width="6.1000000000000005" height="12.265995357279166" fill="#2563eb" opacity="0.85"><title>2026-01-05 | ETH buy 108.51 usd | reason=medium_drawdown_eth_tilt</title></rect>
<rect x="1127.8674311926607" y="695.1653086054914" width="6.1000000000000005" height="12.334691394508582" fill="#2563eb" opacity="0.85"><title>2026-01-12 | ETH buy 109.12 usd | reason=medium_drawdown_eth_tilt</title></rect>
<rect x="1139.0600917431193" y="695.2646108199253" width="6.1000000000000005" height="12.235389180074662" fill="#2563eb" opacity="0.85"><title>2026-01-19 | ETH buy 108.24 usd | reason=medium_drawdown_eth_tilt</title></rect>
<rect x="1150.252752293578" y="695.0453255107218" width="6.1000000000000005" height="12.454674489278204" fill="#2563eb" opacity="0.85"><title>2026-01-26 | ETH buy 110.18 usd | reason=medium_drawdown_eth_tilt</title></rect>
<rect x="1161.4454128440368" y="691.3159299708191" width="6.1000000000000005" height="16.18407002918093" fill="#2563eb" opacity="0.85"><title>2026-02-02 | ETH buy 143.17 usd | reason=deep_drawdown_eth_tilt</title></rect>
<rect x="1172.6380733944954" y="691.5806057689606" width="6.1000000000000005" height="15.919394231039405" fill="#2563eb" opacity="0.85"><title>2026-02-09 | ETH buy 140.83 usd | reason=deep_drawdown_eth_tilt</title></rect>
<rect x="1183.8307339449543" y="691.4098947694624" width="6.1000000000000005" height="16.090105230537574" fill="#2563eb" opacity="0.85"><title>2026-02-16 | ETH buy 142.34 usd | reason=deep_drawdown_eth_tilt</title></rect>
<rect x="1195.023394495413" y="691.4747873138845" width="6.1000000000000005" height="16.025212686115538" fill="#2563eb" opacity="0.85"><title>2026-02-23 | ETH buy 141.76 usd | reason=deep_drawdown_eth_tilt</title></rect>
<rect x="1206.2160550458716" y="691.5012118418108" width="6.1000000000000005" height="15.9987881581892" fill="#2563eb" opacity="0.85"><title>2026-03-02 | ETH buy 141.53 usd | reason=deep_drawdown_eth_tilt</title></rect>
<rect x="1217.4087155963302" y="691.4461921431239" width="6.1000000000000005" height="16.05380785687612" fill="#2563eb" opacity="0.85"><title>2026-03-09 | ETH buy 142.02 usd | reason=deep_drawdown_eth_tilt</title></rect>
<rect x="1228.601376146789" y="691.7671345903184" width="6.1000000000000005" height="15.732865409681608" fill="#2563eb" opacity="0.85"><title>2026-03-16 | ETH buy 139.18 usd | reason=deep_drawdown_eth_tilt</title></rect>
<rect x="1239.7940366972477" y="691.633152464952" width="6.1000000000000005" height="15.86684753504801" fill="#2563eb" opacity="0.85"><title>2026-03-23 | ETH buy 140.36 usd | reason=deep_drawdown_eth_tilt</title></rect>
<rect x="1250.9866972477066" y="691.7300959672514" width="6.1000000000000005" height="15.769904032748627" fill="#2563eb" opacity="0.85"><title>2026-03-30 | ETH buy 139.50 usd | reason=deep_drawdown_eth_tilt</title></rect>
<rect x="1262.1793577981653" y="691.7324549996395" width="6.1000000000000005" height="15.767545000360542" fill="#2563eb" opacity="0.85"><title>2026-04-06 | ETH buy 139.48 usd | reason=deep_drawdown_eth_tilt</title></rect>
<rect x="1273.372018348624" y="691.8677540481996" width="6.1000000000000005" height="15.632245951800428" fill="#2563eb" opacity="0.85"><title>2026-04-13 | ETH buy 138.29 usd | reason=deep_drawdown_eth_tilt</title></rect>
<rect x="1284.5646788990825" y="691.544705932032" width="6.1000000000000005" height="15.955294067967998" fill="#2563eb" opacity="0.85"><title>2026-04-20 | ETH buy 141.14 usd | reason=deep_drawdown_eth_tilt</title></rect>
<rect x="1295.7573394495414" y="691.3416148256907" width="6.1000000000000005" height="16.158385174309274" fill="#2563eb" opacity="0.85"><title>2026-04-27 | ETH buy 142.94 usd | reason=deep_drawdown_eth_tilt</title></rect>
<rect x="1306.95" y="691.1869963952286" width="6.1000000000000005" height="16.31300360477144" fill="#2563eb" opacity="0.85"><title>2026-05-04 | ETH buy 144.31 usd | reason=deep_drawdown_eth_tilt</title></rect>
<text x="24" y="707.5" transform="rotate(-90 24,707.5)" text-anchor="middle" font-family="monospace" font-size="14" fill="#0f172a">ETH weekly trade usd</text>
<rect x="1040" y="478" width="14" height="10" fill="#ea580c" opacity="0.85"/>
<text x="1062" y="488" font-family="monospace" font-size="11" fill="#0f172a">BTC buy</text>
<rect x="1190" y="478" width="14" height="10" fill="#dc2626" opacity="0.85"/>
<text x="1212" y="488" font-family="monospace" font-size="11" fill="#0f172a">BTC sell</text>
<rect x="1040" y="498" width="14" height="10" fill="#2563eb" opacity="0.85"/>
<text x="1062" y="508" font-family="monospace" font-size="11" fill="#0f172a">ETH buy</text>
<rect x="1190" y="498" width="14" height="10" fill="#7c3aed" opacity="0.85"/>
<text x="1212" y="508" font-family="monospace" font-size="11" fill="#0f172a">ETH sell</text>
</svg>