<svg xmlns="http://www.w3.org/2000/svg" width="1400" height="800">
<rect width="1400" height="800" fill="#f8fafc"/>
<text x="700.0" y="42" text-anchor="middle" font-family="monospace" font-size="24" fill="#0f172a">budgeted_btc_defensive_eth_aggressive | weekly | start=2026-01-01 | return=0.27%</text>
<line x1="90" y1="420" x2="1310" y2="420" stroke="#334155" stroke-width="2"/>
<line x1="90" y1="90" x2="90" y2="420" stroke="#334155" stroke-width="2"/>
<line x1="90.0" y1="420" x2="90.0" y2="90" stroke="#94a3b8" stroke-width="1.2"/>
<line x1="90.0" y1="605" x2="90.0" y2="480" stroke="#94a3b8" stroke-width="1.2"/>
<line x1="90.0" y1="770" x2="90.0" y2="645" stroke="#94a3b8" stroke-width="1.2"/>
<text x="90.0" y="788" text-anchor="middle" font-family="monospace" font-size="11" fill="#334155">2026-01</text>
<line x1="448.8235294117647" y1="420" x2="448.8235294117647" y2="90" stroke="#94a3b8" stroke-width="1.2"/>
<line x1="448.8235294117647" y1="605" x2="448.8235294117647" y2="480" stroke="#94a3b8" stroke-width="1.2"/>
<line x1="448.8235294117647" y1="770" x2="448.8235294117647" y2="645" stroke="#94a3b8" stroke-width="1.2"/>
<text x="448.8235294117647" y="788" text-anchor="middle" font-family="monospace" font-size="11" fill="#334155">2026-02</text>
<line x1="735.8823529411765" y1="420" x2="735.8823529411765" y2="90" stroke="#94a3b8" stroke-width="1.2"/>
<line x1="735.8823529411765" y1="605" x2="735.8823529411765" y2="480" stroke="#94a3b8" stroke-width="1.2"/>
<line x1="735.8823529411765" y1="770" x2="735.8823529411765" y2="645" stroke="#94a3b8" stroke-width="1.2"/>
<text x="735.8823529411765" y="788" text-anchor="middle" font-family="monospace" font-size="11" fill="#334155">2026-03</text>
<line x1="1022.9411764705882" y1="420" x2="1022.9411764705882" y2="90" stroke="#94a3b8" stroke-width="1.2"/>
<line x1="1022.9411764705882" y1="605" x2="1022.9411764705882" y2="480" stroke="#94a3b8" stroke-width="1.2"/>
<line x1="1022.9411764705882" y1="770" x2="1022.9411764705882" y2="645" stroke="#94a3b8" stroke-width="1.2"/>
<text x="1022.9411764705882" y="788" text-anchor="middle" font-family="monospace" font-size="11" fill="#334155">2026-04</text>
<line x1="90" y1="420.0" x2="1310" y2="420.0" stroke="#cbd5e1" stroke-width="1"/>
<text x="78" y="424.0" text-anchor="end" font-family="monospace" font-size="12" fill="#475569">0</text>
<line x1="90" y1="354.0" x2="1310" y2="354.0" stroke="#cbd5e1" stroke-width="1"/>
<text x="78" y="358.0" text-anchor="end" font-family="monospace" font-size="12" fill="#475569">3030</text>
<line x1="90" y1="288.0" x2="1310" y2="288.0" stroke="#cbd5e1" stroke-width="1"/>
<text x="78" y="292.0" text-anchor="end" font-family="monospace" font-size="12" fill="#475569">6060</text>
<line x1="90" y1="222.0" x2="1310" y2="222.0" stroke="#cbd5e1" stroke-width="1"/>
<text x="78" y="226.0" text-anchor="end" font-family="monospace" font-size="12" fill="#475569">9090</text>
<line x1="90" y1="156.0" x2="1310" y2="156.0" stroke="#cbd5e1" stroke-width="1"/>
<text x="78" y="160.0" text-anchor="end" font-family="monospace" font-size="12" fill="#475569">12120</text>
<line x1="90" y1="89.99999999999994" x2="1310" y2="89.99999999999994" stroke="#cbd5e1" stroke-width="1"/>
<text x="78" y="93.99999999999994" text-anchor="end" font-family="monospace" font-size="12" fill="#475569">15151</text>
<polygon points="90.0,98.18081574755223 161.76470588235293,103.08161550774179 233.52941176470588,107.98241526793134 305.29411764705884,112.8832150281209 377.05882352941177,117.78401478831046 448.8235294117647,122.68481454850001 520.5882352941177,127.58561430868957 592.3529411764705,132.48641406887913 664.1176470588235,137.38721382906868 735.8823529411765,142.28801358925824 807.6470588235294,147.1888133494478 879.4117647058824,152.08961310963736 951.1764705882354,156.9904128698269 1022.9411764705882,161.89121263001647 1094.705882352941,166.79201239020605 1166.4705882352941,171.69281215039558 1238.235294117647,176.5936119105852 1310.0,181.49441167077472 1310.0,420.0 1238.235294117647,420.0 1166.4705882352941,420.0 1094.705882352941,420.0 1022.9411764705882,420.0 951.1764705882354,420.0 879.4117647058824,420.0 807.6470588235294,420.0 735.8823529411765,420.0 664.1176470588235,420.0 592.3529411764705,420.0 520.5882352941177,420.0 448.8235294117647,420.0 377.05882352941177,420.0 305.29411764705884,420.0 233.52941176470588,420.0 161.76470588235293,420.0 90.0,420.0" fill="#facc15" fill-opacity="0.70" stroke="#facc15" stroke-width="1.2"/>
<polygon points="90.0,96.22049584347639 161.76470588235293,99.09309909778091 233.52941176470588,101.75903519637109 305.29411764705884,105.39091836473455 377.05882352941177,108.66562716272102 448.8235294117647,114.82460703073593 520.5882352941177,117.23519542896884 592.3529411764705,120.16477232548448 664.1176470588235,122.60091592963823 735.8823529411765,125.21262505135417 807.6470588235294,128.14478545468558 879.4117647058824,130.49778367882874 951.1764705882354,134.23852198642345 1022.9411764705882,137.2006625214629 1094.705882352941,138.54010645347307 1166.4705882352941,139.43652676355805 1238.235294117647,142.61776718989472 1310.0,146.64088931733892 1310.0,181.49441167077472 1238.235294117647,176.5936119105852 1166.4705882352941,171.69281215039558 1094.705882352941,166.79201239020605 1022.9411764705882,161.89121263001647 951.1764705882354,156.9904128698269 879.4117647058824,152.08961310963736 807.6470588235294,147.1888133494478 735.8823529411765,142.28801358925824 664.1176470588235,137.38721382906868 592.3529411764705,132.48641406887913 520.5882352941177,127.58561430868957 448.8235294117647,122.68481454850001 377.05882352941177,117.78401478831046 305.29411764705884,112.8832150281209 233.52941176470588,107.98241526793134 161.76470588235293,103.08161550774179 90.0,98.18081574755223" fill="#2563eb" fill-opacity="0.70" stroke="#2563eb" stroke-width="1.2"/>
<polygon points="90.0,93.28001598736262 161.76470588235293,93.13633429220101 233.52941176470588,92.56327498774169 305.29411764705884,93.84383615544328 377.05882352941177,94.81700188226915 448.8235294117647,101.59497672256435 520.5882352941177,100.34514694927168 592.3529411764705,100.13921556315825 664.1176470588235,99.47998829386353 735.8823529411765,97.98744102166484 807.6470588235294,98.11586275523854 879.4117647058824,97.78947753365031 951.1764705882354,99.12737780546337 1022.9411764705882,100.1061154387063 1094.705882352941,95.78595793003086 1166.4705882352941,91.7380666606262 1238.235294117647,90.0 1310.0,92.41052616233179 1310.0,146.64088931733892 1238.235294117647,142.61776718989472 1166.4705882352941,139.43652676355805 1094.705882352941,138.54010645347307 1022.9411764705882,137.2006625214629 951.1764705882354,134.23852198642345 879.4117647058824,130.49778367882874 807.6470588235294,128.14478545468558 735.8823529411765,125.21262505135417 664.1176470588235,122.60091592963823 592.3529411764705,120.16477232548448 520.5882352941177,117.23519542896884 448.8235294117647,114.82460703073593 377.05882352941177,108.66562716272102 305.29411764705884,105.39091836473455 233.52941176470588,101.75903519637109 161.76470588235293,99.09309909778091 90.0,96.22049584347639" fill="#f97316" fill-opacity="0.70" stroke="#f97316" stroke-width="1.2"/>
<rect x="1100" y="76" width="16" height="12" fill="#f97316" fill-opacity="0.70" stroke="#f97316"/>
<text x="1124" y="86" font-family="monospace" font-size="12" fill="#0f172a">BTC</text>
<rect x="1100" y="98" width="16" height="12" fill="#2563eb" fill-opacity="0.70" stroke="#2563eb"/>
<text x="1124" y="108" font-family="monospace" font-size="12" fill="#0f172a">ETH</text>
<rect x="1100" y="120" width="16" height="12" fill="#facc15" fill-opacity="0.70" stroke="#facc15"/>
<text x="1124" y="130" font-family="monospace" font-size="12" fill="#0f172a">DAI</text>
<text x="700.0" y="782" text-anchor="middle" font-family="monospace" font-size="16" fill="#0f172a">time</text>
<text x="24" y="255.0" transform="rotate(-90 24,255.0)" text-anchor="middle" font-family="monospace" font-size="16" fill="#0f172a">asset value split (usd)</text>
<line x1="90" y1="605" x2="1310" y2="605" stroke="#334155" stroke-width="2"/>
<line x1="90" y1="480" x2="90" y2="605" stroke="#334155" stroke-width="2"/>
<line x1="90" y1="542.5" x2="1310" y2="542.5" stroke="#64748b" stroke-width="1.5" stroke-dasharray="6 4"/>
<line x1="90" y1="605.0" x2="1310" y2="605.0" stroke="#e2e8f0" stroke-width="1"/>
<text x="78" y="609.0" text-anchor="end" font-family="monospace" font-size="11" fill="#475569">-135</text>
<line x1="90" y1="542.5" x2="1310" y2="542.5" stroke="#e2e8f0" stroke-width="1"/>
<text x="78" y="546.5" text-anchor="end" font-family="monospace" font-size="11" fill="#475569">0</text>
<line x1="90" y1="480.0" x2="1310" y2="480.0" stroke="#e2e8f0" stroke-width="1"/>
<text x="78" y="484.0" text-anchor="end" font-family="monospace" font-size="11" fill="#475569">135</text>
<rect x="71.36111111111111" y="480.0" width="37.27777777777778" height="62.5" fill="#ea580c" opacity="0.85"><title>2026-01-01 | BTC buy 135.00 usd | reason=both_weak_btc_defensive</title></rect>
<rect x="143.12581699346404" y="480.0" width="37.27777777777778" height="62.5" fill="#ea580c" opacity="0.85"><title>2026-01-08 | BTC buy 135.00 usd | reason=both_weak_btc_defensive</title></rect>
<rect x="214.890522875817" y="480.0" width="37.27777777777778" height="62.5" fill="#ea580c" opacity="0.85"><title>2026-01-15 | BTC buy 135.00 usd | reason=both_weak_btc_defensive</title></rect>
<rect x="286.6552287581699" y="480.0" width="37.27777777777778" height="62.5" fill="#ea580c" opacity="0.85"><title>2026-01-22 | BTC buy 135.00 usd | reason=both_weak_btc_defensive</title></rect>
<rect x="358.41993464052285" y="480.0" width="37.27777777777778" height="62.5" fill="#ea580c" opacity="0.85"><title>2026-01-29 | BTC buy 135.00 usd | reason=both_weak_btc_defensive</title></rect>
<rect x="430.1846405228758" y="480.0" width="37.27777777777778" height="62.5" fill="#ea580c" opacity="0.85"><title>2026-02-05 | BTC buy 135.00 usd | reason=both_weak_btc_defensive</title></rect>
<rect x="501.94934640522877" y="480.0" width="37.27777777777778" height="62.5" fill="#ea580c" opacity="0.85"><title>2026-02-12 | BTC buy 135.00 usd | reason=both_weak_btc_defensive</title></rect>
<rect x="573.7140522875816" y="480.0" width="37.27777777777778" height="62.5" fill="#ea580c" opacity="0.85"><title>2026-02-19 | BTC buy 135.00 usd | reason=both_weak_btc_defensive</title></rect>
<rect x="645.4787581699346" y="480.0" width="37.27777777777778" height="62.5" fill="#ea580c" opacity="0.85"><title>2026-02-26 | BTC buy 135.00 usd | reason=both_weak_btc_defensive</title></rect>
<rect x="717.2434640522875" y="480.0" width="37.27777777777778" height="62.5" fill="#ea580c" opacity="0.85"><title>2026-03-05 | BTC buy 135.00 usd | reason=both_weak_btc_defensive</title></rect>
<rect x="789.0081699346405" y="480.0" width="37.27777777777778" height="62.5" fill="#ea580c" opacity="0.85"><title>2026-03-12 | BTC buy 135.00 usd | reason=both_weak_btc_defensive</title></rect>
<rect x="860.7728758169935" y="480.0" width="37.27777777777778" height="62.5" fill="#ea580c" opacity="0.85"><title>2026-03-19 | BTC buy 135.00 usd | reason=both_weak_btc_defensive</title></rect>
<rect x="932.5375816993464" y="480.0" width="37.27777777777778" height="62.5" fill="#ea580c" opacity="0.85"><title>2026-03-26 | BTC buy 135.00 usd | reason=both_weak_btc_defensive</title></rect>
<rect x="1004.3022875816993" y="480.0" width="37.27777777777778" height="62.5" fill="#ea580c" opacity="0.85"><title>2026-04-02 | BTC buy 135.00 usd | reason=both_weak_btc_defensive</title></rect>
<rect x="1076.066993464052" y="480.0" width="37.27777777777778" height="62.5" fill="#ea580c" opacity="0.85"><title>2026-04-09 | BTC buy 135.00 usd | reason=both_weak_btc_defensive</title></rect>
<rect x="1147.8316993464052" y="480.0" width="37.27777777777778" height="62.5" fill="#ea580c" opacity="0.85"><title>2026-04-16 | BTC buy 135.00 usd | reason=both_weak_btc_defensive</title></rect>
<rect x="1219.5964052287582" y="480.0" width="37.27777777777778" height="62.5" fill="#ea580c" opacity="0.85"><title>2026-04-23 | BTC buy 135.00 usd | reason=both_weak_btc_defensive</title></rect>
<rect x="1291.361111111111" y="480.0" width="37.27777777777778" height="62.5" fill="#ea580c" opacity="0.85"><title>2026-04-30 | BTC buy 135.00 usd | reason=both_weak_btc_defensive</title></rect>
<text x="24" y="542.5" transform="rotate(-90 24,542.5)" text-anchor="middle" font-family="monospace" font-size="14" fill="#0f172a">BTC weekly trade usd</text>
<line x1="90" y1="770" x2="1310" y2="770" stroke="#334155" stroke-width="2"/>
<line x1="90" y1="645" x2="90" y2="770" stroke="#334155" stroke-width="2"/>
<line x1="90" y1="707.5" x2="1310" y2="707.5" stroke="#64748b" stroke-width="1.5" stroke-dasharray="6 4"/>
<line x1="90" y1="770.0" x2="1310" y2="770.0" stroke="#e2e8f0" stroke-width="1"/>
<text x="78" y="774.0" text-anchor="end" font-family="monospace" font-size="11" fill="#475569">-90</text>
<line x1="90" y1="707.5" x2="1310" y2="707.5" stroke="#e2e8f0" stroke-width="1"/>
<text x="78" y="711.5" text-anchor="end" font-family="monospace" font-size="11" fill="#475569">0</text>
<line x1="90" y1="645.0" x2="1310" y2="645.0" stroke="#e2e8f0" stroke-width="1"/>
<text x="78" y="649.0" text-anchor="end" font-family="monospace" font-size="11" fill="#475569">90</text>
<rect x="71.36111111111111" y="645.0" width="37.27777777777778" height="62.5" fill="#2563eb" opacity="0.85"><title>2026-01-01 | ETH buy 90.00 usd | reason=both_weak_btc_defensive</title></rect>
<rect x="143.12581699346404" y="645.0" width="37.27777777777778" height="62.5" fill="#2563eb" opacity="0.85"><title>2026-01-08 | ETH buy 90.00 usd | reason=both_weak_btc_defensive</title></rect>
<rect x="214.890522875817" y="645.0" width="37.27777777777778" height="62.5" fill="#2563eb" opacity="0.85"><title>2026-01-15 | ETH buy 90.00 usd | reason=both_weak_btc_defensive</title></rect>
<rect x="286.6552287581699" y="645.0" width="37.27777777777778" height="62.5" fill="#2563eb" opacity="0.85"><title>2026-01-22 | ETH buy 90.00 usd | reason=both_weak_btc_defensive</title></rect>
<rect x="358.41993464052285" y="645.0" width="37.27777777777778" height="62.5" fill="#2563eb" opacity="0.85"><title>2026-01-29 | ETH buy 90.00 usd | reason=both_weak_btc_defensive</title></rect>
<rect x="430.1846405228758" y="645.0" width="37.27777777777778" height="62.5" fill="#2563eb" opacity="0.85"><title>2026-02-05 | ETH buy 90.00 usd | reason=both_weak_btc_defensive</title></rect>
<rect x="501.94934640522877" y="645.0" width="37.27777777777778" height="62.5" fill="#2563eb" opacity="0.85"><title>2026-02-12 | ETH buy 90.00 usd | reason=both_weak_btc_defensive</title></rect>
<rect x="573.7140522875816" y="645.0" width="37.27777777777778" height="62.5" fill="#2563eb" opacity="0.85"><title>2026-02-19 | ETH buy 90.00 usd | reason=both_weak_btc_defensive</title></rect>
<rect x="645.4787581699346" y="645.0" width="37.27777777777778" height="62.5" fill="#2563eb" opacity="0.85"><title>2026-02-26 | ETH buy 90.00 usd | reason=both_weak_btc_defensive</title></rect>
<rect x="717.2434640522875" y="645.0" width="37.27777777777778" height="62.5" fill="#2563eb" opacity="0.85"><title>2026-03-05 | ETH buy 90.00 usd | reason=both_weak_btc_defensive</title></rect>
<rect x="789.0081699346405" y="645.0" width="37.27777777777778" height="62.5" fill="#2563eb" opacity="0.85"><title>2026-03-12 | ETH buy 90.00 usd | reason=both_weak_btc_defensive</title></rect>
<rect x="860.7728758169935" y="645.0" width="37.27777777777778" height="62.5" fill="#2563eb" opacity="0.85"><title>2026-03-19 | ETH buy 90.00 usd | reason=both_weak_btc_defensive</title></rect>
<rect x="932.5375816993464" y="645.0" width="37.27777777777778" height="62.5" fill="#2563eb" opacity="0.85"><title>2026-03-26 | ETH buy 90.00 usd | reason=both_weak_btc_defensive</title></rect>
<rect x="1004.3022875816993" y="645.0" width="37.27777777777778" height="62.5" fill="#2563eb" opacity="0.85"><title>2026-04-02 | ETH buy 90.00 usd | reason=both_weak_btc_defensive</title></rect>
<rect x="1076.066993464052" y="645.0" width="37.27777777777778" height="62.5" fill="#2563eb" opacity="0.85"><title>2026-04-09 | ETH buy 90.00 usd | reason=both_weak_btc_defensive</title></rect>
<rect x="1147.8316993464052" y="645.0" width="37.27777777777778" height="62.5" fill="#2563eb" opacity="0.85"><title>2026-04-16 | ETH buy 90.00 usd | reason=both_weak_btc_defensive</title></rect>
<rect x="1219.5964052287582" y="645.0" width="37.27777777777778" height="62.5" fill="#2563eb" opacity="0.85"><title>2026-04-23 | ETH buy 90.00 usd | reason=both_weak_btc_defensive</title></rect>
<rect x="1291.361111111111" y="645.0" width="37.27777777777778" height="62.5" fill="#2563eb" opacity="0.85"><title>2026-04-30 | ETH buy 90.00 usd | reason=both_weak_btc_defensive</title></rect>
<text x="24" y="707.5" transform="rotate(-90 24,707.5)" text-anchor="middle" font-family="monospace" font-size="14" fill="#0f172a">ETH weekly trade usd</text>
<rect x="1040" y="478" width="14" height="10" fill="#ea580c" opacity="0.85"/>
<text x="1062" y="488" font-family="monospace" font-size="11" fill="#0f172a">BTC buy</text>
<rect x="1190" y="478" width="14" height="10" fill="#dc2626" opacity="0.85"/>
<text x="1212" y="488" font-family="monospace" font-size="11" fill="#0f172a">BTC sell</text>
<rect x="1040" y="498" width="14" height="10" fill="#2563eb" opacity="0.85"/>
<text x="1062" y="508" font-family="monospace" font-size="11" fill="#0f172a">ETH buy</text>
<rect x="1190" y="498" width="14" height="10" fill="#7c3aed" opacity="0.85"/>
<text x="1212" y="508" font-family="monospace" font-size="11" fill="#0f172a">ETH sell</text>
</svg>