<svg xmlns="http://www.w3.org/2000/svg" width="1400" height="800">
<rect width="1400" height="800" fill="#f8fafc"/>
<text x="700.0" y="42" text-anchor="middle" font-family="monospace" font-size="24" fill="#0f172a">Portfolio Value Over Time | start=2022-01-01 | interval=7d</text>
<line x1="90" y1="710" x2="1310" y2="710" stroke="#334155" stroke-width="2"/>
<line x1="90" y1="90" x2="90" y2="710" stroke="#334155" stroke-width="2"/>
<line x1="90.0" y1="710" x2="90.0" y2="90" stroke="#cbd5e1" stroke-width="1"/>
<text x="90.0" y="734" text-anchor="middle" font-family="monospace" font-size="11" fill="#475569">2022-01-01</text>
<line x1="90" y1="710.0" x2="1310" y2="710.0" stroke="#cbd5e1" stroke-width="1"/>
<text x="78" y="714.0" text-anchor="end" font-family="monospace" font-size="12" fill="#475569">8754</text>
<line x1="334.0" y1="710" x2="334.0" y2="90" stroke="#cbd5e1" stroke-width="1"/>
<text x="334.0" y="734" text-anchor="middle" font-family="monospace" font-size="11" fill="#475569">2022-11-12</text>
<line x1="90" y1="586.0" x2="1310" y2="586.0" stroke="#cbd5e1" stroke-width="1"/>
<text x="78" y="590.0" text-anchor="end" font-family="monospace" font-size="12" fill="#475569">16095</text>
<line x1="578.0" y1="710" x2="578.0" y2="90" stroke="#cbd5e1" stroke-width="1"/>
<text x="578.0" y="734" text-anchor="middle" font-family="monospace" font-size="11" fill="#475569">2023-09-23</text>
<line x1="90" y1="462.0" x2="1310" y2="462.0" stroke="#cbd5e1" stroke-width="1"/>
<text x="78" y="466.0" text-anchor="end" font-family="monospace" font-size="12" fill="#475569">23437</text>
<line x1="822.0" y1="710" x2="822.0" y2="90" stroke="#cbd5e1" stroke-width="1"/>
<text x="822.0" y="734" text-anchor="middle" font-family="monospace" font-size="11" fill="#475569">2024-08-10</text>
<line x1="90" y1="338.0" x2="1310" y2="338.0" stroke="#cbd5e1" stroke-width="1"/>
<text x="78" y="342.0" text-anchor="end" font-family="monospace" font-size="12" fill="#475569">30779</text>
<line x1="1066.0" y1="710" x2="1066.0" y2="90" stroke="#cbd5e1" stroke-width="1"/>
<text x="1066.0" y="734" text-anchor="middle" font-family="monospace" font-size="11" fill="#475569">2025-06-21</text>
<line x1="90" y1="214.00000000000006" x2="1310" y2="214.00000000000006" stroke="#cbd5e1" stroke-width="1"/>
<text x="78" y="218.00000000000006" text-anchor="end" font-family="monospace" font-size="12" fill="#475569">38120</text>
<line x1="1310.0" y1="710" x2="1310.0" y2="90" stroke="#cbd5e1" stroke-width="1"/>
<text x="1310.0" y="734" text-anchor="middle" font-family="monospace" font-size="11" fill="#475569">2026-05-02</text>
<line x1="90" y1="90.0" x2="1310" y2="90.0" stroke="#cbd5e1" stroke-width="1"/>
<text x="78" y="94.0" text-anchor="end" font-family="monospace" font-size="12" fill="#475569">45462</text>
<text x="700.0" y="782" text-anchor="middle" font-family="monospace" font-size="16" fill="#0f172a">time</text>
<text x="24" y="400.0" transform="rotate(-90 24,400.0)" text-anchor="middle" font-family="monospace" font-size="16" fill="#0f172a">portfolio_value_usd</text>
<line x1="970" y1="80" x2="988" y2="80" stroke="#0f766e" stroke-width="3"/>
<text x="998" y="84" font-family="monospace" font-size="12" fill="#0f172a">budgeted_static_50_50_rebalance</text>
<line x1="970" y1="104" x2="988" y2="104" stroke="#9333ea" stroke-width="3"/>
<text x="998" y="108" font-family="monospace" font-size="12" fill="#0f172a">budgeted_drawdown_tilt_rebalance</text>
<line x1="970" y1="128" x2="988" y2="128" stroke="#92400e" stroke-width="3"/>
<text x="998" y="132" font-family="monospace" font-size="12" fill="#0f172a">budgeted_btc_defensive_eth_aggressive</text>
<polyline points="90.0,604.4989347880417 95.39823008849558,605.2809743210004 100.79646017699115,604.749790439504 106.19469026548673,608.2037402627625 111.5929203539823,606.8041800631462 116.99115044247787,604.0460127240143 122.38938053097345,604.2170620864409 127.78761061946904,606.0750772366911 133.1858407079646,606.4405266110705 138.58407079646017,607.1905630311984 143.98230088495575,608.4043341762474 149.38053097345133,602.3119594763028 154.7787610619469,598.522967238835 160.17699115044246,594.069842895303 165.57522123893807,598.9717725570299 170.97345132743362,603.7317380793384 176.3716814159292,606.384447737092 181.76991150442478,611.3180072765286 187.16814159292034,615.1837482831263 192.56637168141594,631.2124175533125 197.9646017699115,633.4496708819952 203.3628318584071,637.4625896651785 208.76106194690266,635.9891882479951 214.15929203539824,644.1625289052067 219.5575221238938,672.0759202183524 224.9557522123894,661.1904228820839 230.35398230088495,670.3432133022745 235.75221238938053,661.0115247509398 241.1504424778761,657.3250513623913 246.5486725663717,647.8424119717347 251.94690265486727,639.6537213191979 257.3451327433628,641.6189699607113 262.7433628318584,626.2983590527157 268.141592920354,651.6580692284873 273.53982300884957,658.282383781652 278.9380530973451,655.9692521281607 284.33628318584067,640.6150807148884 289.7345132743363,659.7545374568992 295.1327433628319,671.015038523708 300.53097345132744,669.9489137525851 305.929203539823,669.3723056649569 311.3274336283186,672.8603301203115 316.7256637168142,670.1585337372892 322.12389380530976,646.6110197336127 327.5221238938053,644.3405558751091 332.92035398230087,682.8683529651717 338.3185840707965,685.4431378615997 343.716814159292,687.0308863313487 349.1150442477876,683.1871350466215 354.5132743362832,680.7568281858984 359.9115044247788,686.6571114303498 365.30973451327435,684.5242199532057 370.7079646017699,687.2281115653386 376.1061946902655,681.6104809227302 381.50442477876106,648.720978481679 386.9026548672566,636.8601463524732 392.3008849557522,638.9307271221154 397.6991150442478,632.4450886046043 403.0973451327434,645.4152591346449 408.49557522123894,625.8802919577109 413.89380530973455,637.0944961039025 419.29203539823004,641.8142149568339 424.69026548672565,653.1930197450622 430.0884955752212,612.6280373050532 435.4867256637168,611.7520993833211 440.8849557522124,603.6189481349555 446.283185840708,603.9812539657652 451.6814159292036,581.5832271689399 457.07964601769913,602.9838168590148 462.4778761061947,595.7549218566212 467.87610619469024,597.5268839829653 473.27433628318585,611.0481556287398 478.6725663716814,608.534752817518 484.070796460177,608.8533750524879 489.46902654867256,604.6828201966014 494.86725663716817,616.8833263302698 500.2654867256637,615.8437106403584 505.6637168141593,592.6036133766809 511.0619469026548,589.7541257102221 516.4601769911504,594.1039229078009 521.858407079646,590.3392445622919 527.2566371681417,595.8185376740804 532.6548672566372,596.6094371911009 538.0530973451328,600.2941030504043 543.4513274336284,598.1617416136232 548.8495575221239,620.0858471032788 554.2477876106195,621.7220609135994 559.646017699115,622.7717230695874 565.0442477876106,622.7596180307714 570.4424778761062,620.3368716073859 575.8407079646017,622.6692028828421 581.2389380530974,616.7995923819987 586.637168141593,615.2536995708471 592.0353982300885,623.968868534324 597.433628318584,608.5948019302602 602.8318584070796,585.0721996475004 608.2300884955752,576.6862176733175 613.6283185840708,557.7214169035556 619.0265486725664,564.9936493431726 624.4247787610619,553.7017486100348 629.8230088495576,543.2272295012745 635.221238938053,518.7085691478526 640.6194690265487,530.3084569310909 646.0176991150443,520.6057970423221 651.4159292035398,526.8262969657458 656.8141592920354,523.7212878435242 662.212389380531,507.57453035969854 667.6106194690266,517.630229323793 673.0088495575221,527.7984597880395 678.4070796460177,523.327227433241 683.8053097345132,496.14826226105424 689.2035398230088,467.1769662178451 694.6017699115044,455.63294908912326 700.0,398.11326397821813 705.3982300884956,350.44585896503673 710.7964601769912,382.3492035431008 716.1946902654868,396.721756986112 721.5929203539823,369.87925223358644 726.9911504424779,380.5891395438014 732.3893805309735,414.20337353383223 737.7876106194691,403.0653733316644 743.1858407079646,402.0122677659166 748.5840707964601,408.413826263194 753.9823008849557,429.1241495271862 759.3805309734513,399.26860993289625 764.7787610619469,355.995769685455 770.1769911504424,356.8490941721995 775.5752212389381,359.6974898207812 780.9734513274336,375.1614387390856 786.3716814159292,384.9201475666556 791.7699115044248,401.4521098906113 797.1681415929204,426.22790989503204 802.566371681416,417.2184380025679 807.9646017699115,374.5424696654975 813.3628318584072,387.35793859322223 818.7610619469027,428.20985692005604 824.1592920353983,444.32800330124894 829.5575221238938,448.22406503685164 834.9557522123894,425.401081649728 840.3539823008849,455.9933364631878 845.7522123893805,484.5940770689481 851.150442477876,458.8559868767302 856.5486725663717,436.8560531954908 861.9469026548672,425.90013353617456 867.3451327433628,453.2450722815717 872.7433628318583,446.12048578573393 878.141592920354,420.7549052751692 883.5398230088496,435.5088022032376 888.9380530973451,428.35730602341386 894.3362831858408,365.9364387465025 899.7345132743363,329.37877050846504 905.1327433628319,293.4114673433129 910.5309734513274,276.0429427818516 915.9292035398231,247.91634143920135 921.3274336283185,252.8791124086049 926.7256637168141,297.8502804567673 932.1238938053096,298.9226685266753 937.5221238938053,274.4126126850574 942.9203539823009,307.78995423797454 948.3185840707964,282.6999222414555 953.716814159292,281.0241494683808 959.1150442477876,304.4642964009385 964.5132743362832,347.8711685189496 969.9115044247787,340.94462393082034 975.3097345132744,338.0744898840552 980.70796460177,402.36977947264074 986.1061946902655,402.9886454873153 991.5044247787611,428.0375092774713 996.9026548672567,425.62959462593136 1002.3008849557523,441.1644515364679 1007.6991150442477,441.23095212473334 1013.0973451327433,451.95915016109495 1018.4955752212389,455.23745060419026 1023.8938053097345,415.6841383436093 1029.29203539823,412.08624479639127 1034.6902654867256,321.71208559284185 1040.0884955752213,335.2243200601929 1045.4867256637167,320.77892223970605 1050.8849557522124,327.24984295166934 1056.283185840708,325.5729994563931 1061.6814159292035,325.3621796410121 1067.0796460176991,352.7761071527607 1072.4778761061948,329.9919306247527 1077.8761061946902,321.1735140260137 1083.274336283186,265.3098064430053 1088.6725663716816,208.31876394369374 1094.070796460177,195.72898758119197 1099.4690265486724,235.66614438161332 1104.867256637168,157.52692243621016 1110.2654867256638,142.79942416097924 1115.6637168141592,120.92144615314601 1121.0619469026549,165.14157603502724 1126.4601769911503,169.0919509583848 1131.858407079646,127.82348935616517 1137.2566371681417,141.15388574969836 1142.654867256637,187.37776746372253 1148.0530973451328,124.35993504646387 1153.4513274336284,202.61049393119964 1158.8495575221239,201.6309440065237 1164.2477876106195,186.39313912562613 1169.6460176991152,195.9415283327769 1175.0442477876106,247.02042951920197 1180.442477876106,279.68081558044935 1185.8407079646017,334.3733225072637 1191.2389380530974,303.2749795569001 1196.6371681415928,303.5111662970531 1202.0353982300885,295.52008986178635 1207.433628318584,310.4194029387931 1212.8318584070796,313.8979503563536 1218.2300884955753,293.82445005081706 1223.6283185840707,297.5086585704504 1229.0265486725664,269.1542572123601 1234.424778761062,310.3963085459222 1239.8230088495575,372.99200840472776 1245.2212389380531,423.738102233042 1250.6194690265488,422.44730811448375 1256.0176991150443,435.99233977029934 1261.41592920354,439.1372285885795 1266.8141592920354,437.9980474894737 1272.212389380531,417.33432366528405 1277.6106194690265,424.1369162301751 1283.0088495575221,438.350973045455 1288.4070796460176,429.82465050541543 1293.8053097345132,396.628832261062 1299.203539823009,384.4542154242588 1304.6017699115043,382.246742971308 1310.0,379.9144128414203" fill="none" stroke="#0f766e" stroke-width="2.5"><title>budgeted_static_50_50_rebalance | end=2026-05-02 | return=88.65%</title></polyline>
<polyline points="90.0,604.4989347880417 95.39823008849558,605.5274702344798 100.79646017699115,604.8321373908067 106.19469026548673,609.3938321195953 111.5929203539823,607.5209171232184 116.99115044247787,603.8565638178995 122.38938053097345,604.0672268017312 127.78761061946904,606.5467813649955 133.1858407079646,607.0404664133473 138.58407079646017,608.0321429579764 143.98230088495575,609.6500282565215 149.38053097345133,601.5171844906183 154.7787610619469,596.4601726288361 160.17699115044246,590.5103310227211 165.57522123893807,597.051241861213 170.97345132743362,603.4016331045444 176.3716814159292,606.9359736422971 181.76991150442478,613.5101285608064 187.16814159292034,618.6768889793386 192.56637168141594,640.0328786106525 197.9646017699115,643.0645999700203 203.3628318584071,648.5837110362075 208.76106194690266,646.5307110278544 214.15929203539824,658.1275482883315 219.5575221238938,697.9869125923423 224.9557522123894,682.1102064317961 230.35398230088495,695.5650658989646 235.75221238938053,681.7450411144406 241.1504424778761,675.9662054993563 246.5486725663717,661.5231531684608 251.94690265486727,649.0318150206476 257.3451327433628,652.0116796620458 262.7433628318584,629.2484969953749 268.141592920354,666.8606942159538 273.53982300884957,676.4551110061677 278.9380530973451,673.5283213837198 284.33628318584067,653.079729065952 289.7345132743363,677.560383630778 295.1327433628319,691.7023354581726 300.53097345132744,690.2384145299991 305.929203539823,689.5270818653454 311.3274336283186,693.5827410225128 316.7256637168142,690.5962767489686 322.12389380530976,664.6596166664292 327.5221238938053,662.067313660925 332.92035398230087,705.2132220027414 338.3185840707965,708.0379961102927 343.716814159292,709.7823709818645 349.1150442477876,705.597370624444 354.5132743362832,702.9560466214801 359.9115044247788,709.3492285264275 365.30973451327435,707.0694809589543 370.7079646017699,710.0 376.1061946902655,703.9546003436819 381.50442477876106,668.3008035598875 386.9026548672566,655.2954381901965 392.3008849557522,657.510885580107 397.6991150442478,650.4082826676731 403.0973451327434,664.8491477980328 408.49557522123894,642.9351285665684 413.89380530973455,655.5673998607555 419.29203539823004,660.938671270766 424.69026548672565,673.8618475141442 430.0884955752212,627.8940877683331 435.4867256637168,626.7865623617708 440.8849557522124,617.5776313891043 446.283185840708,618.194373389612 451.6814159292036,592.7090909387782 457.07964601769913,617.3386107106406 462.4778761061947,608.7402023056067 467.87610619469024,610.8562465573377 473.27433628318585,626.8031878851376 478.6725663716814,623.9214520070196 484.070796460177,624.3652355360067 489.46902654867256,620.0459254585394 494.86725663716817,632.3560558125721 500.2654867256637,631.0843660819716 505.6637168141593,607.4718450471224 511.0619469026548,604.9228706356868 516.4601769911504,608.7881885059214 521.858407079646,605.7107059071166 527.2566371681417,610.3388636541299 532.6548672566372,611.1881716905602 538.0530973451328,614.142255485201 543.4513274336284,612.3739545930259 548.8495575221239,630.0084697833703 554.2477876106195,631.2999102649385 559.646017699115,632.1700534943412 565.0442477876106,632.1584057201432 570.4424778761062,630.0904571433606 575.8407079646017,632.2217717903959 581.2389380530974,626.8071137948374 586.637168141593,625.6877431021068 592.0353982300885,633.6778970886578 597.433628318584,619.6652311689687 602.8318584070796,597.8011916683773 608.2300884955752,589.7210279193496 613.6283185840708,571.884713786035 619.0265486725664,578.6789029261643 624.4247787610619,568.5778585013682 629.8230088495576,559.6965906123687 635.221238938053,539.490251611307 640.6194690265487,549.1514658767569 646.0176991150443,541.3313634425496 651.4159292035398,545.9777913522155 656.8141592920354,544.1837081477615 662.212389380531,530.2630797250795 667.6106194690266,538.0035562784334 673.0088495575221,546.2420794018246 678.4070796460177,542.993094233695 683.8053097345132,523.1718618652754 689.2035398230088,501.8552078691357 694.6017699115044,492.99398341647435 700.0,451.84087673998766 705.3982300884956,417.49636867218464 710.7964601769912,440.53436379190896 716.1946902654868,450.8849961457484 721.5929203539823,431.9001967936763 726.9911504424779,439.6805513599388 732.3893805309735,463.9729175492867 737.7876106194691,455.6979264429157 743.1858407079646,454.61857697465075 748.5840707964601,459.7427291970346 753.9823008849557,475.77295997699787 759.3805309734513,452.52428125864066 764.7787610619469,416.8798767170984 770.1769911504424,417.0991089746842 775.5752212389381,420.0026260218617 780.9734513274336,431.3612001533585 786.3716814159292,438.41457267147865 791.7699115044248,450.1845718355276 797.1681415929204,468.95574658449164 802.566371681416,462.07504612094596 807.9646017699115,430.3548905721341 813.3628318584072,441.0111818183486 818.7610619469027,471.36499641790147 824.1592920353983,484.56858208024437 829.5575221238938,487.3520600825667 834.9557522123894,469.61774008785545 840.3539823008849,494.26412797353294 845.7522123893805,517.8231863692406 851.150442477876,496.8073453498831 856.5486725663717,477.75444104735635 861.9469026548672,468.4191814239597 867.3451327433628,493.8205761861398 872.7433628318583,487.16880036976437 878.141592920354,463.7439230485715 883.5398230088496,479.11053422989244 888.9380530973451,472.99603059977494 894.3362831858408,406.7971933496734 899.7345132743363,376.83482643558676 905.1327433628319,341.4501212662946 910.5309734513274,320.39038252718495 915.9292035398231,291.91172298393593 921.3274336283185,298.54234683192897 926.7256637168141,342.7212742907998 932.1238938053096,342.26727657352285 937.5221238938053,319.02587751190964 942.9203539823009,350.2179343641281 948.3185840707964,331.1432029483018 953.716814159292,329.653091181638 959.1150442477876,350.65897668957797 964.5132743362832,391.58828924699804 969.9115044247787,385.2356811523047 975.3097345132744,381.7820440593348 980.70796460177,442.3769957165108 986.1061946902655,443.13031979489756 991.5044247787611,468.4574778719897 996.9026548672567,465.5836078326113 1002.3008849557523,481.78775644650386 1007.6991150442477,482.40359055701003 1013.0973451327433,495.6266210106792 1018.4955752212389,499.26145000984565 1023.8938053097345,459.266837420716 1029.29203539823,455.7410831076406 1034.6902654867256,349.57195887340447 1040.0884955752213,365.4714071069785 1045.4867256637167,350.7703141900318 1050.8849557522124,356.4587283421096 1056.283185840708,355.1459259179334 1061.6814159292035,354.7094224022419 1067.0796460176991,388.8146978497211 1072.4778761061948,362.88256420196785 1077.8761061946902,351.6701067292679 1083.274336283186,283.9778023161725 1088.6725663716816,204.71017238415448 1094.070796460177,187.54233621732408 1099.4690265486724,233.9137396271015 1104.867256637168,136.064224208499 1110.2654867256638,118.60955404554613 1115.6637168141592,90.0 1121.0619469026549,135.12248202318847 1126.4601769911503,140.8592100697241 1131.858407079646,101.2070735354481 1137.2566371681417,115.02716116998636 1142.654867256637,157.17157317988938 1148.0530973451328,102.90972324200936 1153.4513274336284,172.4446416105527 1158.8495575221239,169.08745123965252 1164.2477876106195,156.98867673998313 1169.6460176991152,165.47279719948176 1175.0442477876106,211.85474858411425 1180.442477876106,240.42655121218394 1185.8407079646017,288.71949428163896 1191.2389380530974,261.11255152191256 1196.6371681415928,260.445983186205 1202.0353982300885,252.82276979785541 1207.433628318584,267.20845761358066 1212.8318584070796,270.5729490698758 1218.2300884955753,250.76671055903086 1223.6283185840707,254.6581747648588 1229.0265486725664,226.25897932426284 1234.424778761062,268.86011298473574 1239.8230088495575,333.319491270476 1245.2212389380531,385.04266060298914 1250.6194690265488,383.88536421373624 1256.0176991150443,398.22003097491137 1261.41592920354,401.3218772333482 1266.8141592920354,400.15158645444967 1272.212389380531,377.9735241849248 1277.6106194690265,385.03247626059783 1283.0088495575221,401.0421402797486 1288.4070796460176,390.9669317334973 1293.8053097345132,351.9059487370186 1299.203539823009,337.52658084697225 1304.6017699115043,335.650285482577 1310.0,333.1218440256645" fill="none" stroke="#9333ea" stroke-width="2.5"><title>budgeted_drawdown_tilt_rebalance | end=2026-05-02 | return=107.12%</title></polyline>
<polyline points="90.0,604.4989347880417 95.39823008849558,605.3916373158628 100.79646017699115,604.7010991474773 106.19469026548673,609.3621472444939 111.5929203539823,607.3694322985625 116.99115044247787,603.5796279237929 122.38938053097345,603.6568612135837 127.78761061946904,606.345759519514 133.1858407079646,607.0153839824313 138.58407079646017,607.857207261232 143.98230088495575,609.5155484866765 149.38053097345133,600.9248054211229 154.7787610619469,595.4403631492634 160.17699115044246,589.5029477788714 165.57522123893807,596.8245568146677 170.97345132743362,603.7479852186719 176.3716814159292,607.4422424020884 181.76991150442478,614.4365031833177 187.16814159292034,620.4305158090744 192.56637168141594,643.3040857579748 197.9646017699115,646.4483633592054 203.3628318584071,651.5925399715335 208.76106194690266,649.1456289502034 214.15929203539824,660.2463323077342 219.5575221238938,702.4648641996148 224.9557522123894,686.8478726850932 230.35398230088495,700.275873259336 235.75221238938053,686.3490531979952 241.1504424778761,682.1914319593565 246.5486725663717,669.949294858333 251.94690265486727,659.6226441985683 257.3451327433628,662.4637627552977 262.7433628318584,645.129782030443 268.141592920354,674.1017280704615 273.53982300884957,681.7230674753241 278.9380530973451,679.8567459599979 284.33628318584067,664.0283873341062 289.7345132743363,682.3420686802584 295.1327433628319,693.1306229063548 300.53097345132744,691.7879233884468 305.929203539823,691.2157629311993 311.3274336283186,694.2256827833896 316.7256637168142,692.1262695622946 322.12389380530976,673.4892424714496 327.5221238938053,671.3140622941507 332.92035398230087,704.1312108745001 338.3185840707965,706.0918412130741 343.716814159292,707.4855031354833 349.1150442477876,704.2599397415837 354.5132743362832,702.262956668592 359.9115044247788,706.8411389960545 365.30973451327435,705.2834359102893 370.7079646017699,707.544037733773 376.1061946902655,703.1211647761627 381.50442477876106,675.2672155599173 386.9026548672566,664.7009370375779 392.3008849557522,665.8920182107206 397.6991150442478,660.8948429658367 403.0973451327434,671.9989504488564 408.49557522123894,654.5424267526697 413.89380530973455,664.4709038534969 419.29203539823004,668.8921994152079 424.69026548672565,679.2919823248027 430.0884955752212,642.0739893892894 435.4867256637168,640.785944047631 440.8849557522124,633.6508284339676 446.283185840708,634.6217638255675 451.6814159292036,615.1560637627567 457.07964601769913,634.199868959738 462.4778761061947,626.954307034537 467.87610619469024,628.7348770952605 473.27433628318585,641.645425456224 478.6725663716814,639.3353082562908 484.070796460177,639.9064918729313 489.46902654867256,636.5136996443431 494.86725663716817,647.2857962573069 500.2654867256637,645.7006115984907 505.6637168141593,622.1214961951862 511.0619469026548,619.7488599066096 516.4601769911504,623.6255216787811 521.858407079646,620.5912041003119 527.2566371681417,625.5922054016302 532.6548672566372,626.763428726629 538.0530973451328,630.0684454897445 543.4513274336284,627.92258138743 548.8495575221239,649.343620600201 554.2477876106195,650.7277935988122 559.646017699115,651.7198821939348 565.0442477876106,651.6722538548773 570.4424778761062,648.9492705454265 575.8407079646017,650.7159307428313 581.2389380530974,645.771887078339 586.637168141593,643.2327630408989 592.0353982300885,651.3254285703968 597.433628318584,635.5338241817476 602.8318584070796,611.9804441060303 608.2300884955752,604.2039093894618 613.6283185840708,586.857888845957 619.0265486725664,593.1668312016151 624.4247787610619,582.8182816510175 629.8230088495576,572.42592875395 635.221238938053,547.6085976492258 640.6194690265487,558.6256894455692 646.0176991150443,549.0493502407195 651.4159292035398,556.0673743532462 656.8141592920354,551.0902781450767 662.212389380531,540.1791268141404 667.6106194690266,549.722192421139 673.0088495575221,557.8536454227996 678.4070796460177,553.1809281497308 683.8053097345132,525.3918941332876 689.2035398230088,496.8799228087661 694.6017699115044,487.0934636526149 700.0,427.445164834524 705.3982300884956,379.2633180515923 710.7964601769912,410.9637983213577 716.1946902654868,425.3182378403316 721.5929203539823,396.4744505231871 726.9911504424779,406.98863332673005 732.3893805309735,441.67874100292437 737.7876106194691,430.8273647928742 743.1858407079646,431.1595348308935 748.5840707964601,436.5715276438861 753.9823008849557,457.9542245288186 759.3805309734513,425.80111124833564 764.7787610619469,385.04380968557166 770.1769911504424,387.2222506107293 775.5752212389381,388.3496348557898 780.9734513274336,404.92403698999925 786.3716814159292,415.3750523613451 791.7699115044248,433.07160965609086 797.1681415929204,458.53779088183694 802.566371681416,449.31390298705116 807.9646017699115,403.2918564348233 813.3628318584072,415.74954122866575 818.7610619469027,459.3176460644577 824.1592920353983,474.55131969851334 829.5575221238938,479.1740637032332 834.9557522123894,454.86088465406647 840.3539823008849,486.60325828449714 845.7522123893805,516.0800297621877 851.150442477876,488.3143459091163 856.5486725663717,466.23838862508336 861.9469026548672,454.36457338682055 867.3451327433628,481.65119514001555 872.7433628318583,474.43262509914996 878.141592920354,447.46891703320256 883.5398230088496,461.3454703210814 888.9380530973451,452.67101879379015 894.3362831858408,392.7696587644925 899.7345132743363,345.5408992050103 905.1327433628319,306.8902447186478 910.5309734513274,294.1907165718826 915.9292035398231,266.50645980811794 921.3274336283185,268.66480690241235 926.7256637168141,310.96342555713017 932.1238938053096,314.64186165668866 937.5221238938053,290.35160829218705 942.9203539823009,322.5468541003183 948.3185840707964,288.64305026676647 953.716814159292,286.85909481730477 959.1150442477876,311.91021063406083 964.5132743362832,353.66307702264487 969.9115044247787,346.3350537729921 975.3097345132744,345.45289099258406 980.70796460177,414.1704897191677 986.1061946902655,414.40183217088037 991.5044247787611,437.8225804941445 996.9026548672567,436.61203420172654 1002.3008849557523,450.95943565984675 1007.6991150442477,449.5339645333215 1013.0973451327433,454.52267057929225 1018.4955752212389,457.336540670386 1023.8938053097345,410.58612020415677 1029.29203539823,405.71605328636286 1034.6902654867256,321.0426035683374 1040.0884955752213,334.4409029472304 1045.4867256637167,315.065377107359 1050.8849557522124,325.619638364246 1056.283185840708,322.6276786888813 1061.6814159292035,322.7090630524327 1067.0796460176991,350.87259380743114 1072.4778761061948,323.41634215031394 1077.8761061946902,314.59084877436334 1083.274336283186,252.68012814583824 1088.6725663716816,203.55332683912292 1094.070796460177,192.46420224601502 1099.4690265486724,235.66337847068138 1104.867256637168,157.62137372590917 1110.2654867256638,142.48924580244886 1115.6637168141592,123.03480620935477 1121.0619469026549,172.53095459237625 1126.4601769911503,175.56467117343936 1131.858407079646,129.84816548924675 1137.2566371681417,143.740767226628 1142.654867256637,194.47438707313574 1148.0530973451328,123.21707347667211 1153.4513274336284,209.69415867949726 1158.8495575221239,210.28577828209558 1164.2477876106195,192.43589683549442 1169.6460176991152,203.1913092168238 1175.0442477876106,260.6451077931945 1180.442477876106,297.792396936908 1185.8407079646017,359.1346918559785 1191.2389380530974,324.66735470884834 1196.6371681415928,325.7889244198412 1202.0353982300885,317.3308129612086 1207.433628318584,333.1492253645055 1212.8318584070796,336.8691732978536 1218.2300884955753,315.5492470111799 1223.6283185840707,319.30803457683646 1229.0265486725664,288.7129082208302 1234.424778761062,332.8955089713918 1239.8230088495575,400.34235613392605 1245.2212389380531,454.81460972853677 1250.6194690265488,453.2493017408409 1256.0176991150443,466.88143698522913 1261.41592920354,470.4368780056388 1266.8141592920354,469.20891035176004 1272.212389380531,448.10864252985584 1277.6106194690265,455.92044706131065 1283.0088495575221,470.3218361112714 1288.4070796460176,462.17793986447674 1293.8053097345132,428.8428033680096 1299.203539823009,416.15855836550844 1304.6017699115043,412.71420197621484 1310.0,409.8533633014635" fill="none" stroke="#92400e" stroke-width="2.5"><title>budgeted_btc_defensive_eth_aggressive | end=2026-05-02 | return=76.83%</title></polyline>
</svg>