<svg xmlns="http://www.w3.org/2000/svg" width="1400" height="800">
<rect width="1400" height="800" fill="#f8fafc"/>
<text x="700.0" y="42" text-anchor="middle" font-family="monospace" font-size="24" fill="#0f172a">Portfolio Value Over Time | start=2020-10-01 | interval=7d</text>
<line x1="90" y1="710" x2="1310" y2="710" stroke="#334155" stroke-width="2"/>
<line x1="90" y1="90" x2="90" y2="710" stroke="#334155" stroke-width="2"/>
<line x1="90.0" y1="710" x2="90.0" y2="90" stroke="#cbd5e1" stroke-width="1"/>
<text x="90.0" y="734" text-anchor="middle" font-family="monospace" font-size="11" fill="#475569">2020-10-01</text>
<line x1="90" y1="710.0" x2="1310" y2="710.0" stroke="#cbd5e1" stroke-width="1"/>
<text x="78" y="714.0" text-anchor="end" font-family="monospace" font-size="12" fill="#475569">10719</text>
<line x1="334.0" y1="710" x2="334.0" y2="90" stroke="#cbd5e1" stroke-width="1"/>
<text x="334.0" y="734" text-anchor="middle" font-family="monospace" font-size="11" fill="#475569">2021-11-11</text>
<line x1="90" y1="586.0" x2="1310" y2="586.0" stroke="#cbd5e1" stroke-width="1"/>
<text x="78" y="590.0" text-anchor="end" font-family="monospace" font-size="12" fill="#475569">22270</text>
<line x1="578.0" y1="710" x2="578.0" y2="90" stroke="#cbd5e1" stroke-width="1"/>
<text x="578.0" y="734" text-anchor="middle" font-family="monospace" font-size="11" fill="#475569">2022-12-22</text>
<line x1="90" y1="462.0" x2="1310" y2="462.0" stroke="#cbd5e1" stroke-width="1"/>
<text x="78" y="466.0" text-anchor="end" font-family="monospace" font-size="12" fill="#475569">33821</text>
<line x1="822.0" y1="710" x2="822.0" y2="90" stroke="#cbd5e1" stroke-width="1"/>
<text x="822.0" y="734" text-anchor="middle" font-family="monospace" font-size="11" fill="#475569">2024-02-08</text>
<line x1="90" y1="338.0" x2="1310" y2="338.0" stroke="#cbd5e1" stroke-width="1"/>
<text x="78" y="342.0" text-anchor="end" font-family="monospace" font-size="12" fill="#475569">45372</text>
<line x1="1066.0" y1="710" x2="1066.0" y2="90" stroke="#cbd5e1" stroke-width="1"/>
<text x="1066.0" y="734" text-anchor="middle" font-family="monospace" font-size="11" fill="#475569">2025-03-20</text>
<line x1="90" y1="214.00000000000006" x2="1310" y2="214.00000000000006" stroke="#cbd5e1" stroke-width="1"/>
<text x="78" y="218.00000000000006" text-anchor="end" font-family="monospace" font-size="12" fill="#475569">56923</text>
<line x1="1310.0" y1="710" x2="1310.0" y2="90" stroke="#cbd5e1" stroke-width="1"/>
<text x="1310.0" y="734" text-anchor="middle" font-family="monospace" font-size="11" fill="#475569">2026-04-30</text>
<line x1="90" y1="90.0" x2="1310" y2="90.0" stroke="#cbd5e1" stroke-width="1"/>
<text x="78" y="94.0" text-anchor="end" font-family="monospace" font-size="12" fill="#475569">68474</text>
<text x="700.0" y="782" text-anchor="middle" font-family="monospace" font-size="16" fill="#0f172a">time</text>
<text x="24" y="400.0" transform="rotate(-90 24,400.0)" text-anchor="middle" font-family="monospace" font-size="16" fill="#0f172a">portfolio_value_usd</text>
<line x1="970" y1="80" x2="988" y2="80" stroke="#0f766e" stroke-width="3"/>
<text x="998" y="84" font-family="monospace" font-size="12" fill="#0f172a">budgeted_static_50_50_rebalance</text>
<line x1="970" y1="104" x2="988" y2="104" stroke="#9333ea" stroke-width="3"/>
<text x="998" y="108" font-family="monospace" font-size="12" fill="#0f172a">budgeted_drawdown_tilt_rebalance</text>
<line x1="970" y1="128" x2="988" y2="128" stroke="#92400e" stroke-width="3"/>
<text x="998" y="132" font-family="monospace" font-size="12" fill="#0f172a">budgeted_btc_defensive_eth_aggressive</text>
<polyline points="90.0,664.0470306652857 94.19243986254295,664.0067171751621 98.38487972508591,663.5903105277904 102.57731958762886,662.4489545063476 106.76975945017182,662.6513245596228 110.96219931271477,660.5510907517786 115.15463917525773,658.8398657503444 119.34707903780068,657.2464721712735 123.53951890034364,656.3226767668548 127.73195876288659,650.4891603080056 131.92439862542955,654.0331484520801 136.1168384879725,644.9425732983229 140.30927835051546,645.1207687761802 144.5017182130584,632.0986295731018 148.69415807560136,593.4738845619224 152.88659793814432,593.8380793096649 157.07903780068727,612.490619279141 161.27147766323026,596.7527104536606 165.46391752577318,577.0107940745398 169.65635738831617,548.4014024771794 173.8487972508591,533.8804213996644 178.04123711340205,567.3571693642043 182.233676975945,561.7895644321515 186.42611683848799,528.1290457612708 190.6185567010309,531.4333785325585 194.8109965635739,554.4732679745972 199.00343642611682,517.2915368582699 203.1958762886598,511.5419976149484 207.38831615120276,474.626777426667 211.5807560137457,504.9333141687861 215.77319587628864,479.76359464036045 219.96563573883162,431.3474617681178 224.15807560137458,433.60153034380454 228.35051546391753,504.23104145118725 232.5429553264605,510.59753101415055 236.73539518900344,503.2699914944857 240.9278350515464,528.8561708061205 245.12027491408935,530.0889515016408 249.3127147766323,558.3491485302291 253.50515463917526,555.4817080339408 257.6975945017182,556.7615991441324 261.89003436426117,569.7680580556389 266.0824742268041,563.030525978992 270.2749140893471,520.9933778354549 274.46735395189,495.41019987560446 278.659793814433,473.3614588965265 282.85223367697597,459.1633000296006 287.04467353951895,463.37932244256854 291.2371134020618,421.7745113057506 295.4295532646048,448.31434508833206 299.6219931271478,437.18185126125337 303.8144329896907,465.6820365412889 308.00687285223364,476.29750748319486 312.1993127147766,416.89933446471383 316.3917525773196,396.1475157390876 320.58419243986253,368.77333816610843 324.7766323024055,363.20533303995285 328.96907216494844,349.320810832615 333.1615120274914,330.61268566260793 337.35395189003435,387.1323783882466 341.5463917525773,357.31208862255426 345.73883161512026,365.5183404419351 349.93127147766324,411.69370318495294 354.12371134020617,417.83476988968295 358.31615120274915,400.57136224420873 362.50859106529214,429.9843353798144 366.70103092783506,456.37452002408315 370.893470790378,465.1078352656192 375.085910652921,482.0829965182892 379.2783505154639,519.5497183922423 383.4707903780069,506.5708953171774 387.6632302405498,467.9844204442845 391.8556701030928,486.51032324395965 396.0481099656357,507.7039566677431 400.2405498281787,482.5945985575411 404.4329896907216,503.534997101807 408.6254295532646,488.4460888703886 412.8178694158076,463.8334553139046 417.0103092783505,450.58868018202406 421.20274914089345,460.0877519673102 425.3951890034364,481.4866088035701 429.5876288659794,481.4863342574634 433.78006872852234,486.239272043274 437.97250859106526,505.9557413880209 442.1649484536082,569.1875811762098 446.35738831615123,561.5204805262144 450.54982817869416,576.5768059390809 454.7422680412371,570.0348052081121 458.93470790378007,573.63129062068 463.12714776632305,646.2953092446706 467.319587628866,639.3663908331531 471.51202749140896,647.6567927615545 475.7044673539519,631.6041182303652 479.8969072164948,638.0506141510918 484.08934707903785,604.8789420945334 488.2817869415808,593.1346398515952 492.4742268041237,604.8119812068454 496.66666666666663,583.6157870576291 500.85910652920967,588.6193761193786 505.0515463917526,603.6670448615172 509.2439862542955,615.5497042516325 513.4364261168384,616.1490717841837 517.6288659793814,623.435246379336 521.8213058419244,632.6989956741068 526.0137457044673,631.3511556342763 530.2061855670104,628.8989843991101 534.3986254295532,635.0582293355047 538.5910652920962,636.6768352724015 542.7835051546392,618.0560468726446 546.9759450171821,617.4542830854459 551.1683848797251,641.7677678915261 555.360824742268,650.8552310188521 559.553264604811,651.0468546659276 563.745704467354,645.1542183349801 567.9381443298969,643.8982244341995 572.1305841924399,644.1373630795142 576.3230240549829,649.2227160887778 580.5154639175257,651.0337193744457 584.7079037800687,647.2473778826169 588.9003436426117,629.2134292570088 593.0927835051546,612.0990438301451 597.2852233676977,601.2245838543108 601.4776632302405,596.8474961574132 605.6701030927835,609.2805045332383 609.8625429553265,597.102550351124 614.0549828178694,594.6553586619358 618.2474226804123,596.7190945979178 622.4398625429553,620.8557514402896 626.6323024054983,588.5880531067743 630.8247422680412,567.5905515484554 635.0171821305843,570.1767030021699 639.2096219931271,565.5959592325244 643.4020618556701,548.6317071670815 647.594501718213,560.8269385274102 651.786941580756,558.0419146006527 655.979381443299,562.1282259238935 660.171821305842,573.7645498986677 664.3642611683848,574.0855536415017 668.5567010309278,575.0715422991209 672.7491408934708,570.5982427642477 676.9415807560138,572.7216516763544 681.1340206185567,586.301832937837 685.3264604810996,558.308511663878 689.5189003436426,557.3457094064358 693.7113402061856,559.7342090091913 697.9037800687286,544.7609221759993 702.0962199312714,557.3677124414197 706.2886597938144,561.2938193534192 710.4810996563574,562.9519639548898 714.6735395189003,561.1286457026378 718.8659793814433,580.9128754488071 723.0584192439864,583.8181508490585 727.2508591065292,585.5205640472407 731.4432989690722,584.1466822059616 735.6357388316152,584.3835895293788 739.828178694158,586.8105534975417 744.020618556701,581.0129150655739 748.2130584192439,582.0563620214112 752.4054982817869,588.7928815765166 756.5979381443299,579.9074778272357 760.7903780068729,545.9697156257546 764.9828178694158,543.3059707119277 769.1752577319588,517.3168024700399 773.3676975945017,529.0240169605094 777.5601374570447,518.9282792160939 781.7525773195877,518.0616461285085 785.9450171821305,480.927144226847 790.1374570446735,484.214504923963 794.3298969072164,485.9230672282945 798.5223367697595,483.8701656186182 802.7147766323025,483.10507454782476 806.9072164948454,455.19387024680816 811.0996563573883,480.3725668673752 815.2920962199313,499.6415761501388 819.4845360824742,484.27613030592636 823.6769759450171,470.16469168515744 827.8694158075601,424.7662889204403 832.061855670103,418.53884482049074 836.2542955326461,365.25589586620356 840.4467353951891,316.3766915811959 844.639175257732,302.23517299344485 848.8316151202749,342.3131168640771 853.0240549828179,322.06271217769796 857.2164948453608,342.00331082962066 861.4089347079038,327.5957372854586 865.6013745704466,371.8775076525692 869.7938144329896,363.81376590811885 873.9862542955327,389.56862732947525 878.1786941580757,374.8959707923132 882.3711340206186,373.8555802254029 886.5635738831616,316.0041438402596 890.7560137457044,316.8364568642645 894.9484536082474,305.83316285960535 899.1408934707904,337.5584445984634 903.3333333333333,340.66420521150513 907.5257731958762,353.93947262552535 911.7182130584193,389.60389503416934 915.9106529209622,386.40436417772645 920.1030927835052,347.6531978473385 924.2955326460482,356.3632196471392 928.487972508591,356.37586925236036 932.680412371134,397.07671867546406 936.8728522336769,416.03480005353356 941.0652920962199,404.52793786659356 945.2577319587629,413.3880598947276 949.450171821306,432.7043731660344 953.6426116838488,427.42735133800386 957.8350515463918,406.8679975304762 962.0274914089347,389.50392455550684 966.2199312714777,420.6748655224856 970.4123711340206,419.6404653645242 974.6048109965635,385.0388389810202 978.7972508591065,387.7769990828507 982.9896907216495,383.56461810332894 987.1821305841925,341.7468819174958 991.3745704467354,300.3525812418658 995.5670103092784,250.7072477575868 999.7594501718213,242.79974587783852 1003.9518900343643,225.04094343618164 1008.1443298969072,211.19568245603847 1012.3367697594501,249.15744049845222 1016.5292096219931,258.9839146500844 1020.721649484536,247.7389351142777 1024.914089347079,274.13550622226495 1029.106529209622,249.975765016399 1033.298969072165,238.3284631098 1037.491408934708,242.71892578546175 1041.683848797251,301.5104004576188 1045.8762886597938,302.15875498959974 1050.0687285223366,293.64291830252455 1054.2611683848797,356.94430087595737 1058.4536082474226,352.71817950621 1062.6460481099657,398.5406667485015 1066.8384879725086,382.31232994607427 1071.0309278350514,374.00140503641774 1075.2233676975945,398.090869441185 1079.4158075601374,430.5501657872343 1083.6082474226805,413.7285436982746 1087.8006872852234,378.4169463166569 1091.9931271477662,367.13863739624713 1096.1855670103091,319.83492186027496 1100.3780068728524,287.49771429850176 1104.5704467353953,260.76088991789425 1108.7628865979382,276.27814802815567 1112.955326460481,303.6525870486529 1117.1477663230241,274.983910618941 1121.340206185567,287.8278611429206 1125.5326460481099,292.0302083106592 1129.725085910653,271.3902476334242 1133.9175257731958,226.95214373326746 1138.1099656357387,174.719143231354 1142.3024054982818,157.26889610972933 1146.4948453608247,163.6861021489359 1150.6872852233678,142.83280814303055 1154.8797250859106,90.81374300079949 1159.0721649484535,128.53268589772745 1163.2646048109966,107.02903626408522 1167.4570446735395,126.60566338324384 1171.6494845360824,104.11400279963493 1175.8419243986255,91.46212063133112 1180.0343642611685,159.47941012830722 1184.2268041237114,90.0 1188.4192439862543,95.35191211587642 1192.6116838487972,160.06829535604095 1196.8041237113403,157.91943191558562 1200.9965635738831,166.02965713924084 1205.189003436426,216.90184056040385 1209.381443298969,226.82492705995628 1213.573883161512,286.7747205096852 1217.766323024055,261.9440409356151 1221.958762886598,251.4339666045601 1226.151202749141,242.8226227984767 1230.343642611684,290.279213056108 1234.5360824742268,280.4322219922036 1238.7285223367696,269.2316929615217 1242.9209621993127,255.7928692061493 1247.1134020618556,228.5452996028601 1251.3058419243985,271.0448198168144 1255.4982817869416,293.19317277495156 1259.6907216494847,422.2098152289073 1263.8831615120275,404.2338233433526 1268.0756013745704,402.1355645323042 1272.2680412371135,394.52351660473187 1276.4604810996564,382.2620095969776 1280.6529209621992,383.08213226366786 1284.8453608247423,379.2973907565512 1289.0378006872852,388.82641742246284 1293.2302405498283,393.7523801122482 1297.4226804123712,369.9920962378095 1301.615120274914,348.10015967905707 1305.8075601374571,341.62480988069353 1310.0,352.8284981441617" fill="none" stroke="#0f766e" stroke-width="2.5"><title>budgeted_static_50_50_rebalance | end=2026-04-30 | return=193.27%</title></polyline>
<polyline points="90.0,664.0470306652857 94.19243986254295,664.0022026801164 98.38487972508591,663.4339558340774 102.57731958762886,662.1483024560449 106.76975945017182,662.4166922804899 110.96219931271477,660.6972052391457 115.15463917525773,659.3711596250088 119.34707903780068,658.4124251107818 123.53951890034364,657.7212543906991 127.73195876288659,654.524991565239 131.92439862542955,656.3427310546792 136.1168384879725,652.2391661536387 140.30927835051546,652.4420976867569 144.5017182130584,647.105780088585 148.69415807560136,631.4001242565778 152.88659793814432,631.509865577487 157.07903780068727,638.27403471038 161.27147766323026,631.8906937637879 165.46391752577318,623.7613069204007 169.65635738831617,612.8864687408889 173.8487972508591,607.2589919820691 178.04123711340205,620.4356576901041 182.233676975945,618.2700862427146 186.42611683848799,605.1509195902316 190.6185567010309,606.5078847506627 194.8109965635739,615.2126718632521 199.00343642611682,600.617880784677 203.1958762886598,598.1728566534883 207.38831615120276,583.6869445693894 211.5807560137457,594.2937822251882 215.77319587628864,583.718629416326 219.96563573883162,562.4271645584572 224.15807560137458,561.4941032656833 228.35051546391753,592.3077867511396 232.5429553264605,594.7674291165929 236.73539518900344,591.1818716661215 240.9278350515464,604.1603074912148 245.12027491408935,605.5548117492859 249.3127147766323,620.4254733286735 253.50515463917526,618.0678867195991 257.6975945017182,618.5092669215323 261.89003436426117,626.289912069433 266.0824742268041,622.078225094055 270.2749140893471,598.3813727563571 274.46735395189,580.8288798451297 278.659793814433,567.3319069300225 282.85223367697597,558.4273070305109 287.04467353951895,561.6057359690731 291.2371134020618,531.7164921591478 295.4295532646048,550.1687269312841 299.6219931271478,542.3347758862913 303.8144329896907,562.721757124308 308.00687285223364,570.4353566703329 312.1993127147766,527.4942254164469 316.3917525773196,512.4960687146389 320.58419243986253,493.33682537786575 324.7766323024055,489.029187865958 328.96907216494844,479.4859915064749 333.1615120274914,467.3540039313824 337.35395189003435,503.74987601394866 341.5463917525773,483.88027173678455 345.73883161512026,488.82555692421863 349.93127147766324,517.7455444254392 354.12371134020617,521.9011499337802 358.31615120274915,510.6885650150018 362.50859106529214,530.1928010024313 366.70103092783506,547.9051103472458 370.893470790378,553.9130884533407 375.085910652921,565.6201355673172 379.2783505154639,591.6774695240466 383.4707903780069,582.6423470852897 387.6632302405498,554.9979960868266 391.8556701030928,568.5875438370549 396.0481099656357,584.3431206697851 400.2405498281787,565.2910664898417 404.4329896907216,581.4973005657556 408.6254295532646,569.5627586835326 412.8178694158076,549.9959968963058 417.0103092783505,539.3657401097645 421.20274914089345,547.0325199329715 425.3951890034364,564.5706669406479 429.5876288659794,564.5835253709661 433.78006872852234,568.5181322968128 437.97250859106526,584.8490993853599 442.1649484536082,637.3740746632043 446.35738831615123,630.9231712711651 450.54982817869416,643.9352297493497 454.7422680412371,638.293279304806 458.93470790378007,641.5147368259704 463.12714776632305,706.2455290080173 467.319587628866,699.9800103961203 471.51202749140896,707.2888644189418 475.7044673539519,693.2862624503557 479.8969072164948,698.7832926250007 484.08934707903785,670.0768585330536 488.2817869415808,659.7724565207153 492.4742268041237,669.839821389113 496.66666666666663,650.8933338520318 500.85910652920967,655.0518954653046 505.0515463917526,668.148682730009 509.2439862542955,678.3634876193407 513.4364261168384,678.0140492297694 517.6288659793814,685.8960094108813 521.8213058419244,694.8595434987549 526.0137457044673,693.759390767769 530.2061855670104,691.7770583714957 534.3986254295532,697.1053205632285 538.5910652920962,698.3332325933832 542.7835051546392,681.8672458047248 546.9759450171821,681.2085689478716 551.1683848797251,701.9999226486045 555.360824742268,709.8611356533464 559.553264604811,709.9477388517372 563.745704467354,704.7274164130218 567.9381443298969,703.7926555897205 572.1305841924399,704.1699376083646 576.3230240549829,708.4673718385993 580.5154639175257,710.0 584.7079037800687,706.5943372789399 588.9003436426117,691.5363605934493 593.0927835051546,677.5185267627832 597.2852233676977,669.0946040269246 601.4776632302405,665.3511033520197 605.6701030927835,675.7151623819836 609.8625429553265,665.5815525438226 614.0549828178694,663.6209395279157 618.2474226804123,665.1678627827671 622.4398625429553,685.8956063850914 626.6323024054983,658.895856662401 630.8247422680412,641.4580025431997 635.0171821305843,643.7049416461009 639.2096219931271,639.2563239547252 643.4020618556701,624.5773095645951 647.594501718213,634.8265204874773 651.786941580756,633.088973556585 655.979381443299,636.6354222038908 660.171821305842,646.6989663108062 664.3642611683848,646.8853577418811 668.5567010309278,647.5712904211707 672.7491408934708,643.6073368263079 676.9415807560138,645.2764190790102 681.1340206185567,656.374999994363 685.3264604810996,635.8108844387122 689.5189003436426,635.4277017950315 693.7113402061856,636.9389619442817 697.9037800687286,626.5802556185545 702.0962199312714,634.8711896121433 706.2886597938144,637.344225747668 710.4810996563574,638.4966172643631 714.6735395189003,637.3797744911737 718.8659793814433,649.2421293725756 723.0584192439864,650.9740658888975 727.2508591065292,652.0286713168574 731.4432989690722,651.2493007440618 735.6357388316152,651.5450849350003 739.828178694158,653.2990355820018 744.020618556701,649.2608302146549 748.2130584192439,650.1963776547382 752.4054982817869,654.8767765521014 756.5979381443299,649.0317390716474 760.7903780068729,625.1173484093711 764.9828178694158,623.4738638618571 769.1752577319588,604.5129472615757 773.3676975945017,612.9556377641169 777.5601374570447,606.1570143566265 781.7525773195877,605.7394783872238 785.9450171821305,582.3761046623201 790.1374570446735,584.517692155483 794.3298969072164,586.0652449175785 798.5223367697595,584.1791411821722 802.7147766323025,584.2660253101526 806.9072164948454,567.3808199376541 811.0996563573883,581.4858722304916 815.2920962199313,592.7348028942808 819.4845360824742,584.1770343310963 823.6769759450171,576.2127422996125 827.8694158075601,550.6591692043596 832.061855670103,546.7824198644449 836.2542955326461,517.7709214591412 840.4467353951891,490.6531576850281 844.639175257732,483.49240991461 848.8316151202749,505.0737504709655 853.0240549828179,494.7705033953197 857.2164948453608,505.43966492425994 861.4089347079038,497.6654250676164 865.6013745704466,521.0942958115284 869.7938144329896,516.7830183281064 873.9862542955327,530.5086777127577 878.1786941580757,522.6110869309985 882.3711340206186,522.1960531735258 886.5635738831616,488.84230806677886 890.7560137457044,489.3737681992061 894.9484536082474,483.43176075784476 899.1408934707904,500.85091022006134 903.3333333333333,502.28698713204085 907.5257731958762,509.1427354778944 911.7182130584193,528.528061564078 915.9106529209622,526.7484852050239 920.1030927835052,505.68786930520184 924.2955326460482,511.30680196603964 928.487972508591,511.20393511613554 932.680412371134,534.7542614202112 936.8728522336769,545.466142429741 941.0652920962199,538.8860274639375 945.2577319587629,544.2035897391773 949.450171821306,555.8401825313173 953.6426116838488,552.82731613533 957.8350515463918,540.3596152480582 962.0274914089347,529.197744301743 966.2199312714777,549.6916547557449 970.4123711340206,548.7947776137298 974.6048109965635,525.9509923798084 978.7972508591065,528.3880989713807 982.9896907216495,526.0467395719209 987.1821305841925,495.42576478115143 991.3745704467354,467.4118330177987 995.5670103092784,432.3840152370891 999.7594501718213,424.64461325383866 1003.9518900343643,411.29291686554905 1008.1443298969072,402.08299359999194 1012.3367697594501,429.2638436919595 1016.5292096219931,435.814741615746 1020.721649484536,428.04285546930987 1024.914089347079,445.77300556719706 1029.106529209622,430.8553171635857 1033.298969072165,423.7618363078123 1037.491408934708,427.2368955840486 1041.683848797251,467.27625303165394 1045.8762886597938,467.7754082567767 1050.0687285223366,461.990080608679 1054.2611683848797,505.22273204529347 1058.4536082474226,503.8802166456913 1062.6460481099657,536.3655567171195 1066.8384879725086,524.6146465425409 1071.0309278350514,519.0797916572933 1075.2233676975945,537.4005280838498 1079.4158075601374,563.3683684748592 1083.6082474226805,551.2584442481598 1087.8006872852234,524.2064487912477 1091.9931271477662,515.2090753252279 1096.1855670103091,474.9974383678646 1100.3780068728524,444.8888141776658 1104.5704467353953,423.9319025375595 1108.7628865979382,435.3065159394927 1112.955326460481,459.418256759304 1117.1477663230241,434.06012748915407 1121.340206185567,446.0164714861624 1125.5326460481099,451.7158253204746 1129.725085910653,432.88137933409087 1133.9175257731958,392.7121770159432 1138.1099656357387,342.1071928516579 1142.3024054982818,324.044910551173 1146.4948453608247,328.1448519091732 1150.6872852233678,310.15485991704594 1154.8797250859106,264.6227606589144 1159.0721649484535,293.1788920098843 1163.2646048109966,275.401840964639 1167.4570446735395,290.06234205408504 1171.6494845360824,275.1314779634977 1175.8419243986255,266.35978091664276 1180.0343642611685,312.539106631988 1184.2268041237114,266.86856158856796 1188.4192439862543,271.26794948621625 1192.6116838487972,311.0925585833754 1196.8041237113403,310.4535659132632 1200.9965635738831,315.40611438122085 1205.189003436426,348.5408543860482 1209.381443298969,354.9035794589208 1213.573883161512,392.35337443069517 1217.766323024055,376.45563668433135 1221.958762886598,369.15380362971507 1226.151202749141,363.0493869624874 1230.343642611684,395.0871669655971 1234.5360824742268,388.5082233890938 1238.7285223367696,380.8021663617396 1242.9209621993127,371.59933808188845 1247.1134020618556,352.6229252220454 1251.3058419243985,383.1440586286174 1255.4982817869416,398.42446370862785 1259.6907216494847,491.22090139954764 1263.8831615120275,478.2830398269308 1268.0756013745704,476.9107785470125 1272.2680412371135,470.9365555496173 1276.4604810996564,462.2138312088878 1280.6529209621992,462.76183093524776 1284.8453608247423,459.45648649828865 1289.0378006872852,467.0642482143536 1293.2302405498283,470.63523025354345 1297.4226804123712,451.7660979979379 1301.615120274914,433.61096912416184 1305.8075601374571,428.91567056424276 1310.0,438.4949678928177" fill="none" stroke="#9333ea" stroke-width="2.5"><title>budgeted_drawdown_tilt_rebalance | end=2026-04-30 | return=140.07%</title></polyline>
<polyline points="90.0,664.0470306652857 94.19243986254295,664.0167955476929 98.38487972508591,663.7044905621642 102.57731958762886,662.8484735460821 106.76975945017182,663.0002510860386 110.96219931271477,661.4049532409388 115.15463917525773,660.1531244565742 119.34707903780068,658.9006283648447 123.53951890034364,658.3562893859521 127.73195876288659,654.0683443415294 131.92439862542955,656.6549959561561 136.1168384879725,649.6685731365959 140.30927835051546,649.5810494539501 144.5017182130584,639.7082148056309 148.69415807560136,611.6289609221633 152.88659793814432,611.9732885668875 157.07903780068727,626.5390959920993 161.27147766323026,615.2617379054642 165.46391752577318,600.8171545699006 169.65635738831617,578.3952916130052 173.8487972508591,567.483780878269 178.04123711340205,591.7525960282492 182.233676975945,587.5774608946367 186.42611683848799,561.7101125924847 190.6185567010309,564.0751198020272 194.8109965635739,581.7791055873913 199.00343642611682,553.4592602753887 203.1958762886598,549.3678938314099 207.38831615120276,521.3546647266492 211.5807560137457,545.1437606370904 215.77319587628864,525.1968580006325 219.96563573883162,485.3330261322834 224.15807560137458,485.9681002250851 228.35051546391753,546.7880903723444 232.5429553264605,551.8246615772742 236.73539518900344,545.0803920737028 240.9278350515464,569.1083104037563 245.12027491408935,571.3561427430556 249.3127147766323,597.8409983164352 253.50515463917526,594.3825898459933 257.6975945017182,595.3814913992621 261.89003436426117,607.9225366077478 266.0824742268041,601.4339177543607 270.2749140893471,561.7049592666322 274.46735395189,536.7771323251873 278.659793814433,515.4908018713757 282.85223367697597,501.59330725972904 287.04467353951895,506.03456923690544 291.2371134020618,462.86636052674316 295.4295532646048,490.61643806425565 299.6219931271478,478.8409602010312 303.8144329896907,510.0248515622581 308.00687285223364,521.8360802452924 312.1993127147766,458.35700212853726 316.3917525773196,436.0394631966705 320.58419243986253,406.8442616217113 324.7766323024055,398.5133301112218 328.96907216494844,382.3769023590884 333.1615120274914,362.3819685327454 337.35395189003435,424.34951982008124 341.5463917525773,389.7846245309367 345.73883161512026,397.9014683230701 349.93127147766324,446.757383783037 354.12371134020617,454.46413632767076 358.31615120274915,436.2827706785324 362.50859106529214,469.5728407997765 366.70103092783506,498.64633937223755 370.893470790378,509.2749504446932 375.085910652921,528.7022115145303 379.2783505154639,571.5986311736694 383.4707903780069,556.1777198916938 387.6632302405498,515.4219530956476 391.8556701030928,535.0477224466184 396.0481099656357,558.4132091304281 400.2405498281787,532.1309092870835 404.4329896907216,554.3157883408782 408.6254295532646,538.0581663449459 412.8178694158076,511.785363526159 417.0103092783505,497.505448272184 421.20274914089345,507.2567480907247 425.3951890034364,529.8660441437623 429.5876288659794,530.2513906972969 433.78006872852234,535.2741759263945 437.97250859106526,555.989105084792 442.1649484536082,624.1447488357312 446.35738831615123,616.3692300727222 450.54982817869416,632.4382600538611 454.7422680412371,626.0494035312925 458.93470790378007,629.6635122192946 463.12714776632305,700.6452814942214 467.319587628866,694.0367248480643 471.51202749140896,701.714270880373 475.7044673539519,687.2638806488451 479.8969072164948,693.0556472086697 484.08934707903785,663.6590731777811 488.2817869415808,653.1769411021853 492.4742268041237,663.5794735978081 496.66666666666663,644.2949572075717 500.85910652920967,648.6653977643908 505.0515463917526,662.2071984743792 509.2439862542955,672.8160534196631 513.4364261168384,672.7077089610566 517.6288659793814,680.4548120239828 521.8213058419244,689.4828710370767 526.0137457044673,688.328298861869 530.2061855670104,686.2420142850689 534.3986254295532,691.7290870051934 538.5910652920962,693.0530219443019 542.7835051546392,676.2617571570853 546.9759450171821,675.6315606043246 551.1683848797251,697.1498343364093 555.360824742268,705.2475381757752 559.553264604811,705.3613682123863 563.745704467354,700.0394734589081 567.9381443298969,699.0345671115335 572.1305841924399,699.3717694001044 576.3230240549829,703.8177063711423 580.5154639175257,705.4016728361298 584.7079037800687,701.946870009246 588.9003436426117,686.3326544060225 593.0927835051546,671.69226691743 597.2852233676977,662.7219944890503 601.4776632302405,658.8459261196653 605.6701030927835,669.6820062819696 609.8625429553265,659.0691351405629 614.0549828178694,656.9876195307899 618.2474226804123,658.6707675934658 622.4398625429553,680.2581961693635 626.6323024054983,651.9477785915982 630.8247422680412,633.5819714563941 635.0171821305843,635.9165649200927 639.2096219931271,631.4750015967167 643.4020618556701,616.1407085950942 647.594501718213,626.9999210168794 651.786941580756,624.9017377039831 655.979381443299,628.623636559917 660.171821305842,639.2125297386531 664.3642611683848,639.4522722746811 668.5567010309278,640.265659288984 672.7491408934708,636.1144621364048 676.9415807560138,638.0289948077306 681.1340206185567,650.3905621372847 685.3264604810996,625.1830561860645 689.5189003436426,624.3606813685701 693.7113402061856,626.5108014317484 697.9037800687286,613.259738452262 702.0962199312714,624.4510556459098 706.2886597938144,627.9442148356922 710.4810996563574,629.3230272439383 714.6735395189003,627.7325531270055 718.8659793814433,644.919242598936 723.0584192439864,647.4566322561728 727.2508591065292,648.9135922730118 731.4432989690722,647.6534561958683 735.6357388316152,647.6899338786286 739.828178694158,649.5350646570131 744.020618556701,644.8369115388871 748.2130584192439,645.38028280562 752.4054982817869,650.9109231936222 756.5979381443299,642.8479523005013 760.7903780068729,613.6610513033911 764.9828178694158,611.0532935511311 769.1752577319588,590.8090884999702 773.3676975945017,599.6889160652956 777.5601374570447,591.424788434029 781.7525773195877,590.4023276164619 785.9450171821305,558.8280949754142 790.1374570446735,561.3929708465903 794.3298969072164,561.7611609124394 798.5223367697595,561.6890931209136 802.7147766323025,559.4690864313968 806.9072164948454,538.1069069474211 811.0996563573883,560.7469452625978 815.2920962199313,575.8458987525021 819.4845360824742,561.965540844389 823.6769759450171,549.7447932856344 827.8694158075601,510.9245373796276 832.061855670103,506.84598241699683 836.2542955326461,459.4261042295578 840.4467353951891,417.7910263275104 844.639175257732,404.088726415647 848.8316151202749,439.33208286191564 853.0240549828179,420.2759694854955 857.2164948453608,437.3401881509842 861.4089347079038,425.1795004075964 865.6013745704466,463.7729375375421 869.7938144329896,456.94855771001926 873.9862542955327,480.50548862748866 878.1786941580757,466.3981300263348 882.3711340206186,463.8897936822649 886.5635738831616,419.1870906692208 890.7560137457044,419.53260086204057 894.9484536082474,409.4105670175842 899.1408934707904,436.39349105078554 903.3333333333333,440.19338745130426 907.5257731958762,452.53359190233977 911.7182130584193,483.29228654847077 915.9106529209622,480.6059349033044 920.1030927835052,446.46205324576505 924.2955326460482,452.54870854654285 928.487972508591,452.8487289475909 932.680412371134,486.88511499474913 936.8728522336769,504.27164811373524 941.0652920962199,493.51608674286416 945.2577319587629,500.85840149409523 949.450171821306,517.5646812580758 953.6426116838488,512.0167283920462 957.8350515463918,493.0898377357272 962.0274914089347,478.99025095854773 966.2199312714777,504.87410130571266 970.4123711340206,504.68259770327074 974.6048109965635,473.6980010518628 978.7972508591065,474.7127509582974 982.9896907216495,469.5912339912837 987.1821305841925,434.789173577124 991.3745704467354,393.61045717481824 995.5670103092784,346.70972035276753 999.7594501718213,344.4002651064318 1003.9518900343643,330.47260204346514 1008.1443298969072,317.3967443854143 1012.3367697594501,346.6628893363586 1016.5292096219931,355.5060456920433 1020.721649484536,346.18902725549754 1024.914089347079,369.863424229817 1029.106529209622,344.03292129073094 1033.298969072165,331.0768658374358 1037.491408934708,333.17180393903845 1041.683848797251,384.8043452099892 1045.8762886597938,385.1854601574465 1050.0687285223366,376.95786238091455 1054.2611683848797,439.55147722813257 1058.4536082474226,429.6548023472625 1062.6460481099657,473.84174488630396 1066.8384879725086,458.22552193604855 1071.0309278350514,448.2643836790282 1075.2233676975945,470.59892281371606 1079.4158075601374,498.0455926776775 1083.6082474226805,478.57210490588955 1087.8006872852234,440.6036357761935 1091.9931271477662,429.03136782069896 1096.1855670103091,386.3381173707163 1100.3780068728524,363.31538222736 1104.5704467353953,332.9298659225426 1108.7628865979382,352.91959823165257 1112.955326460481,378.1442102690094 1117.1477663230241,351.72658324055857 1121.340206185567,362.45890183100784 1125.5326460481099,362.1498201223805 1129.725085910653,343.6174158606361 1133.9175257731958,302.4484565030813 1138.1099656357387,259.8144808564464 1142.3024054982818,247.92080558167197 1146.4948453608247,255.90025920997886 1150.6872852233678,237.45509844351903 1154.8797250859106,194.1855094093155 1159.0721649484535,230.52349896586242 1163.2646048109966,212.25361627033283 1167.4570446735395,230.3549567537636 1171.6494845360824,207.85091494108883 1175.8419243986255,195.88144285946714 1180.0343642611685,260.04175952729213 1184.2268041237114,192.89482699388122 1188.4192439862543,197.22346230958794 1192.6116838487972,260.2123033834452 1196.8041237113403,257.628815691288 1200.9965635738831,265.529511129278 1205.189003436426,313.90277846104703 1209.381443298969,323.36563324321344 1213.573883161512,381.23040903406593 1217.766323024055,357.6737581010773 1221.958762886598,348.24776098619304 1226.151202749141,340.64946817135143 1230.343642611684,384.18789925932913 1234.5360824742268,375.13918693792874 1238.7285223367696,365.05732235062897 1242.9209621993127,352.79925340394124 1247.1134020618556,327.9477294546966 1251.3058419243985,366.4345011576193 1255.4982817869416,387.11696052201063 1259.6907216494847,504.0205163162831 1263.8831615120275,487.733107887849 1268.0756013745704,485.6838634821311 1272.2680412371135,479.3853679133593 1276.4604810996564,468.0246775678594 1280.6529209621992,468.8559220893758 1284.8453608247423,466.3873227737923 1289.0378006872852,474.240528048216 1293.2302405498283,479.0730675443348 1297.4226804123712,458.3953166809207 1301.615120274914,440.01056681212657 1305.8075601374571,433.274668553819 1310.0,442.8929969087243" fill="none" stroke="#92400e" stroke-width="2.5"><title>budgeted_btc_defensive_eth_aggressive | end=2026-04-30 | return=137.34%</title></polyline>
</svg>