<svg xmlns="http://www.w3.org/2000/svg" width="1400" height="800">
<rect width="1400" height="800" fill="#f8fafc"/>
<text x="700.0" y="42" text-anchor="middle" font-family="monospace" font-size="24" fill="#0f172a">Portfolio Value Over Time | start=2021-07-01 | interval=7d</text>
<line x1="90" y1="710" x2="1310" y2="710" stroke="#334155" stroke-width="2"/>
<line x1="90" y1="90" x2="90" y2="710" stroke="#334155" stroke-width="2"/>
<line x1="90.0" y1="710" x2="90.0" y2="90" stroke="#cbd5e1" stroke-width="1"/>
<text x="90.0" y="734" text-anchor="middle" font-family="monospace" font-size="11" fill="#475569">2021-07-01</text>
<line x1="90" y1="710.0" x2="1310" y2="710.0" stroke="#cbd5e1" stroke-width="1"/>
<text x="78" y="714.0" text-anchor="end" font-family="monospace" font-size="12" fill="#475569">6741</text>
<line x1="334.0" y1="710" x2="334.0" y2="90" stroke="#cbd5e1" stroke-width="1"/>
<text x="334.0" y="734" text-anchor="middle" font-family="monospace" font-size="11" fill="#475569">2022-06-16</text>
<line x1="90" y1="586.0" x2="1310" y2="586.0" stroke="#cbd5e1" stroke-width="1"/>
<text x="78" y="590.0" text-anchor="end" font-family="monospace" font-size="12" fill="#475569">12666</text>
<line x1="578.0" y1="710" x2="578.0" y2="90" stroke="#cbd5e1" stroke-width="1"/>
<text x="578.0" y="734" text-anchor="middle" font-family="monospace" font-size="11" fill="#475569">2023-06-08</text>
<line x1="90" y1="462.0" x2="1310" y2="462.0" stroke="#cbd5e1" stroke-width="1"/>
<text x="78" y="466.0" text-anchor="end" font-family="monospace" font-size="12" fill="#475569">18591</text>
<line x1="822.0" y1="710" x2="822.0" y2="90" stroke="#cbd5e1" stroke-width="1"/>
<text x="822.0" y="734" text-anchor="middle" font-family="monospace" font-size="11" fill="#475569">2024-05-23</text>
<line x1="90" y1="338.0" x2="1310" y2="338.0" stroke="#cbd5e1" stroke-width="1"/>
<text x="78" y="342.0" text-anchor="end" font-family="monospace" font-size="12" fill="#475569">24516</text>
<line x1="1066.0" y1="710" x2="1066.0" y2="90" stroke="#cbd5e1" stroke-width="1"/>
<text x="1066.0" y="734" text-anchor="middle" font-family="monospace" font-size="11" fill="#475569">2025-05-15</text>
<line x1="90" y1="214.00000000000006" x2="1310" y2="214.00000000000006" stroke="#cbd5e1" stroke-width="1"/>
<text x="78" y="218.00000000000006" text-anchor="end" font-family="monospace" font-size="12" fill="#475569">30441</text>
<line x1="1310.0" y1="710" x2="1310.0" y2="90" stroke="#cbd5e1" stroke-width="1"/>
<text x="1310.0" y="734" text-anchor="middle" font-family="monospace" font-size="11" fill="#475569">2026-04-30</text>
<line x1="90" y1="90.0" x2="1310" y2="90.0" stroke="#cbd5e1" stroke-width="1"/>
<text x="78" y="94.0" text-anchor="end" font-family="monospace" font-size="12" fill="#475569">36366</text>
<text x="700.0" y="782" text-anchor="middle" font-family="monospace" font-size="16" fill="#0f172a">time</text>
<text x="24" y="400.0" transform="rotate(-90 24,400.0)" text-anchor="middle" font-family="monospace" font-size="16" fill="#0f172a">portfolio_value_usd</text>
<line x1="970" y1="80" x2="988" y2="80" stroke="#0f766e" stroke-width="3"/>
<text x="998" y="84" font-family="monospace" font-size="12" fill="#0f172a">budgeted_static_50_50_rebalance</text>
<line x1="970" y1="104" x2="988" y2="104" stroke="#9333ea" stroke-width="3"/>
<text x="998" y="108" font-family="monospace" font-size="12" fill="#0f172a">budgeted_drawdown_tilt_rebalance</text>
<line x1="970" y1="128" x2="988" y2="128" stroke="#92400e" stroke-width="3"/>
<text x="998" y="132" font-family="monospace" font-size="12" fill="#0f172a">budgeted_btc_defensive_eth_aggressive</text>
<polyline points="90.0,537.1586775617511 94.84126984126983,537.2038282251829 99.68253968253968,537.9855971494808 104.52380952380952,537.3733048215948 109.36507936507937,532.1809757892396 114.2063492063492,528.4524545348235 119.04761904761905,524.6734698248433 123.88888888888889,521.9245426714391 128.73015873015873,522.8314804956976 133.57142857142856,512.9513612424793 138.4126984126984,519.7978674490032 143.25396825396825,516.6917789570939 148.0952380952381,525.2787125270734 152.93650793650792,528.7137077252453 157.77777777777777,508.3313853966929 162.61904761904762,500.7785213530768 167.46031746031747,490.26464874969963 172.3015873015873,487.8785006552695 177.14285714285714,481.91904244056485 181.984126984127,473.6503208837731 186.8253968253968,499.80546280348403 191.66666666666666,485.3463591440333 196.5079365079365,489.3137420445982 201.34920634920633,512.7076669593366 206.1904761904762,516.1398465125205 211.03174603174602,506.8748170848757 215.87301587301585,523.6230613054694 220.7142857142857,538.9453530455226 225.55555555555554,544.347734928565 230.3968253968254,554.8762413727063 235.23809523809524,578.7549400970372 240.07936507936506,570.1856074850782 244.9206349206349,544.5421016104295 249.76190476190476,557.293786636633 254.6031746031746,572.4480070798575 259.44444444444446,554.1313942949115 264.2857142857143,569.8871711029869 269.1269841269841,558.2618394620265 273.968253968254,538.650759436406 278.80952380952385,527.781590458613 283.6507936507936,535.7728389763209 288.4920634920635,553.8244414178894 293.3333333333333,553.7775847752623 298.1746031746032,557.8365184539508 303.015873015873,574.7526723526083 307.8571428571429,629.1220961716283 312.69841269841265,622.4011662160425 317.53968253968253,635.7284679653791 322.3809523809524,629.9862318347432 327.22222222222223,633.1631973003668 332.06349206349205,696.6203530845617 336.9047619047619,690.3366215163285 341.7460317460317,697.7558060897431 346.58730158730157,683.4465056498861 351.4285714285714,689.1089089502165 356.26984126984127,659.86973228578 361.1111111111111,649.5272049225891 365.95238095238096,659.7620915083268 370.7936507936508,641.1709904758065 375.63492063492066,645.5374576079867 380.4761904761905,658.6810007033768 385.3174603174603,669.0470885310369 390.1587301587301,669.5529470994328 395.0,675.9248283439698 399.8412698412698,683.9922549489604 404.6825396825397,682.820350312582 409.5238095238095,680.6890288431438 414.36507936507934,686.0411373562126 419.2063492063492,687.4475986295154 424.0476190476191,671.2711209788406 428.8888888888889,670.7484297405233 433.73015873015873,691.8686267414012 438.57142857142856,699.7623476079647 443.41269841269843,699.9287946998312 448.25396825396825,694.8104186789379 453.0952380952381,693.7194616582282 457.9365079365079,693.9271807071431 462.7777777777778,698.3443142131906 467.61904761904765,699.9173466533806 472.46031746031747,696.6285445903375 477.3015873015873,680.964333983454 482.14285714285717,666.098855604048 486.984126984127,656.6533512739373 491.8253968253968,652.8514331373439 496.66666666666663,663.6506848496981 501.50793650793656,653.0729724312885 506.3492063492064,650.9473535464987 511.1904761904762,652.7399045596085 516.031746031746,673.704885128737 520.8730158730159,645.6773246845785 525.7142857142858,627.4390007388038 530.5555555555555,629.6853187948259 535.3968253968253,625.7065081116191 540.2380952380952,610.9714448355285 545.0793650793651,621.5641609753677 549.9206349206349,619.1451031514894 554.7619047619048,622.6944524062196 559.6031746031747,632.801704272205 564.4444444444445,633.0805265031948 569.2857142857142,633.9369512390491 574.1269841269841,630.0514660776238 578.968253968254,631.8958482292959 583.8095238095239,643.6915243921005 588.6507936507936,619.3766683274779 593.4920634920634,618.5403831960225 598.3333333333334,620.615021767534 603.1746031746031,607.6093012087142 608.015873015873,618.559494921394 612.8571428571428,621.9696913566584 617.6984126984128,623.4099472979879 622.5396825396825,621.826222365663 627.3809523809524,639.0107033945236 632.2222222222222,641.5342107857459 637.063492063492,643.0129182046022 641.9047619047619,641.8195714463074 646.7460317460317,642.0253479387563 651.5873015873016,644.133396459896 656.4285714285714,639.0975972955491 661.2698412698413,640.0039299980067 666.1111111111111,645.8552365160381 670.952380952381,638.137420149782 675.7936507936508,608.6592530409428 680.6349206349206,606.3455377983341 685.4761904761905,583.7714788518125 690.3174603174602,593.9403056317708 695.1587301587301,585.1711993321785 700.0,584.4184462535735 704.8412698412699,552.1636073500656 709.6825396825396,555.0189920805144 714.5238095238095,556.5030405814798 719.3650793650794,554.7199007165996 724.2063492063493,554.0553465157187 729.047619047619,529.8118168538817 733.8888888888889,551.6819042849096 738.7301587301587,568.41886744359 743.5714285714286,555.072519572881 748.4126984126984,542.8153959789179 753.2539682539682,503.3825749455906 758.0952380952382,497.973448770807 762.936507936508,451.69215114164416 767.7777777777778,409.2359236657413 772.6190476190476,396.9526727659095 777.4603174603175,431.7641703471021 782.3015873015872,414.1747721475841 787.1428571428571,431.4950744060938 791.9841269841269,418.9807295284616 796.8253968253969,457.44364935792396 801.6666666666667,450.4371213160562 806.5079365079365,472.8099707939764 811.3492063492064,460.06503278876784 816.1904761904761,459.161661885374 821.031746031746,408.8035576231007 825.8730158730158,409.5297072666664 830.7142857142857,399.9639470499356 835.5555555555557,427.5511491885359 840.3968253968254,430.24650211739646 845.2380952380953,441.78296695073163 850.0793650793651,472.78367575302707 854.9206349206349,470.0032247937338 859.7619047619047,436.3327477347434 864.6031746031746,443.9037972721617 869.4444444444443,443.9091725234628 874.2857142857143,479.32233932247823 879.1269841269842,495.95021138423954 883.968253968254,485.87572143976985 888.8095238095239,493.6902466731499 893.6507936507936,510.62279170615085 898.4920634920635,506.04468820061095 903.3333333333333,488.14831350805764 908.1746031746031,473.0381529263481 913.0158730158731,500.1459600574651 917.8571428571429,499.24592105098077 922.6984126984128,469.2002473103014 927.5396825396825,471.5770055574709 932.3809523809524,467.91915724780756 937.2222222222222,431.62000204515834 942.063492063492,395.68560412961074 946.9047619047618,352.5918317321913 951.7460317460318,345.7302618938827 956.5873015873016,330.3170029572974 961.4285714285714,318.29964424798357 966.2698412698413,351.24644167269264 971.1111111111111,359.7752927997319 975.952380952381,350.0154917623274 980.7936507936507,372.9259346888262 985.6349206349206,351.9561904064367 990.4761904761905,341.8468127833459 995.3174603174604,345.6572044077362 1000.1587301587301,396.7413471101808 1005.0,397.3194630733531 1009.8412698412699,389.7750245723191 1014.6825396825396,445.6944540996367 1019.5238095238095,442.33274135169825 1024.3650793650795,483.62071839400784 1029.2063492063494,468.7874092917293 1034.047619047619,461.46000843407074 1038.888888888889,483.4242411243058 1043.7301587301586,513.4252958102147 1048.5714285714284,498.3442066431125 1053.4126984126983,465.96638907335023 1058.2539682539682,455.60886353955436 1063.095238095238,412.04138720625997 1067.936507936508,381.9025450740871 1072.7777777777778,358.1193655814061 1077.6190476190477,371.7543776560673 1082.4603174603176,396.295250788456 1087.3015873015872,370.71237514621026 1092.142857142857,382.1736326344813 1096.9841269841268,386.0282463601766 1101.8253968253969,367.84102230911355 1106.6666666666667,328.7452108132506 1111.5079365079364,282.7741952166663 1116.3492063492063,267.43058167869737 1121.1904761904761,273.1921940587355 1126.031746031746,254.7502359070026 1130.873015873016,209.01812588591298 1135.7142857142856,242.82058998649268 1140.5555555555557,223.9573643650562 1145.3968253968255,241.4510156135496 1150.2380952380952,220.8642135408125 1155.079365079365,209.53147430452015 1159.920634920635,270.23623844406563 1164.7619047619048,208.19070775025466 1169.6031746031745,212.79254055608294 1174.4444444444443,270.251393054524 1179.2857142857144,268.2936172364174 1184.126984126984,275.43974341528093 1188.968253968254,320.0482974782618 1193.8095238095239,328.8372565805912 1198.6507936507937,381.9882559218214 1203.4920634920634,359.7671889730199 1208.3333333333333,350.34165243079127 1213.1746031746031,342.67719450854145 1218.015873015873,384.60468682361653 1222.857142857143,375.9267240994783 1227.6984126984128,366.09867378685175 1232.5396825396826,354.32491033186346 1237.3809523809523,330.46858700701614 1242.2222222222222,367.6682074574389 1247.063492063492,387.0159156729685 1251.904761904762,499.66775282356616 1256.7460317460318,483.74200753355467 1261.5873015873017,481.90191345122474 1266.4285714285716,474.8952246273233 1271.2698412698412,464.0176873520843 1276.111111111111,464.7314016607522 1280.952380952381,461.3278609312613 1285.7936507936508,469.7540445430285 1290.6349206349205,474.0609882812618 1295.4761904761906,453.223384376912 1300.3174603174602,434.01712235996143 1305.1587301587301,428.36433677109085 1310.0,438.18097795708906" fill="none" stroke="#0f766e" stroke-width="2.5"><title>budgeted_static_50_50_rebalance | end=2026-04-30 | return=31.53%</title></polyline>
<polyline points="90.0,537.1586775617511 94.84126984126983,537.2165872677091 99.68253968253968,538.26792690127 104.52380952380952,537.3648540438129 109.36507936507937,529.5840042334344 114.2063492063492,523.9467589557732 119.04761904761905,518.4440241705756 123.88888888888889,514.4801625445469 128.73015873015873,515.8015985149028 133.57142857142856,501.6113604433586 138.4126984126984,511.0627332020929 143.25396825396825,506.79360616858304 148.0952380952381,518.2435252330687 152.93650793650792,522.8186542634385 157.77777777777777,495.647900058729 162.61904761904762,485.80350194534657 167.46031746031747,472.72707663902264 172.3015873015873,469.91379951672945 177.14285714285714,463.09551895920424 181.984126984127,453.9582696011721 186.8253968253968,481.89743181320625 191.66666666666666,466.61625848571714 196.5079365079365,470.6573311737153 201.34920634920633,494.33984909285846 206.1904761904762,497.8311081727647 211.03174603174602,488.2055843884029 215.87301587301585,505.3562962915157 220.7142857142857,521.2504494859162 225.55555555555554,526.8403752230811 230.3968253968254,537.9211137167258 235.23809523809524,563.2226940828676 240.07936507936506,554.1261380095692 244.9206349206349,526.145684965129 249.76190476190476,540.1568356640546 254.6031746031746,556.8133645662642 259.44444444444446,536.3996106298792 264.2857142857143,554.0315601993351 269.1269841269841,540.9713087791267 273.968253968254,518.7762945298596 278.80952380952385,506.5047428926448 283.6507936507936,515.5463069589218 288.4920634920635,536.0703388958019 293.3333333333333,535.9787411143128 298.1746031746032,540.5892797507196 303.015873015873,559.7694259516526 307.8571428571429,620.9451958455642 312.69841269841265,613.1914156881269 317.53968253968253,629.0244979844804 322.3809523809524,622.1073360773584 327.22222222222223,626.0624218449185 332.06349206349205,705.3771104449514 336.9047619047619,697.7000637574145 341.7460317460317,706.648359357294 346.58730158730157,689.4986306099494 351.4285714285714,696.2248188514673 356.26984126984127,661.0544284814208 361.1111111111111,648.417638977205 365.95238095238096,660.7617216046066 370.7936507936508,637.5268625161946 375.63492063492066,642.6249591019367 380.4761904761905,658.6834507157088 385.3174603174603,671.2076428014659 390.1587301587301,670.7760241314113 395.0,680.4454364372141 399.8412698412698,691.4389790180333 404.6825396825397,690.0902507291457 409.5238095238095,687.6600910540601 414.36507936507934,694.1935628292147 419.2063492063492,695.698476644225 424.0476190476191,675.5059512687923 428.8888888888889,674.697686366731 433.73015873015873,700.1905364586746 438.57142857142856,709.8298646459921 443.41269841269843,709.9357490767154 448.25396825396825,703.5339576819124 453.0952380952381,702.3882894966016 457.9365079365079,702.851550443318 462.7777777777778,708.1207744500109 467.61904761904765,710.0 472.46031746031747,705.8233502502077 477.3015873015873,687.3607229828602 482.14285714285717,670.1747254495964 486.984126984127,659.8490664367812 491.8253968253968,655.2590784320682 496.66666666666663,667.9653667831946 501.50793650793656,655.5418295091895 506.3492063492064,653.1385216745464 511.1904761904762,655.0342212406824 516.031746031746,680.4473918701559 520.8730158730159,647.3468349912328 525.7142857142858,625.9697766984258 530.5555555555555,628.7246969156987 535.3968253968253,623.2680945464516 540.2380952380952,605.2715253237266 545.0793650793651,617.8352223997283 549.9206349206349,615.7085125344917 554.7619047619048,620.0562682170464 559.6031746031747,632.3932899695621 564.4444444444445,632.6213068061624 569.2857142857142,633.4614258693027 574.1269841269841,628.600431764786 578.968253968254,630.6466419546524 583.8095238095239,644.2575772101297 588.6507936507936,619.047658262708 593.4920634920634,618.5796286248802 598.3333333333334,620.4315685923086 603.1746031746031,607.7296340316065 608.015873015873,617.8947941703124 612.8571428571428,620.9265785532258 617.6984126984128,622.340197183304 622.5396825396825,620.9709147524984 627.3809523809524,635.5141865139354 632.2222222222222,637.6653190851945 637.063492063492,638.988930013025 641.9047619047619,637.9664954959254 646.7460317460317,638.2813850782632 651.5873015873016,640.4288525380787 656.4285714285714,635.2966457337023 661.2698412698413,636.4437606423483 666.1111111111111,642.3311092087735 670.952380952381,634.9252273428027 675.7936507936508,604.2591342096924 680.6349206349206,602.205008648019 685.4761904761905,577.9302073397182 690.3174603174602,588.7296748232889 695.1587301587301,580.0987379638123 700.0,579.5936304304805 704.8412698412699,550.1571746390841 709.6825396825396,552.8690919852561 714.5238095238095,554.8972752394994 719.3650793650794,552.40954506059 724.2063492063493,552.6052422262786 729.047619047619,531.3626134366559 733.8888888888889,548.9377416095002 738.7301587301587,563.0426131964764 743.5714285714286,552.291221362837 748.4126984126984,542.2802073267814 753.2539682539682,510.19046862173184 758.0952380952382,505.2687931903995 762.936507936508,468.9875646074589 767.7777777777778,434.9912260747145 772.6190476190476,426.1010893555568 777.4603174603175,453.0894414677715 782.3015873015872,440.2811326447389 787.1428571428571,453.6296221626893 791.9841269841269,443.82376201128034 796.8253968253969,473.26370982785306 801.6666666666667,467.79923998336915 806.5079365079365,485.2054384326003 811.3492063492064,475.11548090576935 816.1904761904761,474.68229257513485 821.031746031746,429.70326590375987 825.8730158730158,430.48371493994614 830.7142857142857,422.84085128357293 835.5555555555557,445.63577020905467 840.3968253968254,447.2641719662024 845.2380952380953,455.9529008145844 850.0793650793651,481.1424639596736 854.9206349206349,478.8079824873033 859.7619047619047,451.20840806002684 864.6031746031746,458.7390954271805 869.4444444444443,458.5582969891169 874.2857142857143,490.43073572574787 879.1269841269842,504.60951860423313 883.968253968254,495.8985817140024 888.8095238095239,503.36179536710586 893.6507936507936,519.5171571282506 898.4920634920635,515.7655270361735 903.3333333333333,498.7912542258132 908.1746031746031,482.55850948481384 913.0158730158731,512.0432445753268 917.8571428571429,510.47615626657324 922.6984126984128,479.1650024386539 927.5396825396825,482.9745762658829 932.3809523809524,480.2066326465508 937.2222222222222,437.3188342263845 942.063492063492,400.4177681056885 946.9047619047618,353.616370282841 951.7460317460318,341.94286687102095 956.5873015873016,323.457362320367 961.4285714285714,311.2713351779894 966.2698412698413,348.7871776308732 971.1111111111111,357.5665761564337 975.952380952381,347.0080088597191 980.7936507936507,370.75303725804827 985.6349206349206,351.42986487189336 990.4761904761905,342.3250224270832 995.3174603174604,347.01118970546264 1000.1587301587301,399.4705416365259 1005.0,400.1484442443419 1009.8412698412699,392.4867192534268 1014.6825396825396,450.0287796965711 1019.5238095238095,449.0945989006836 1024.3650793650795,493.29135678340975 1029.2063492063494,477.1029563223574 1034.047619047619,469.8204727491118 1038.888888888889,495.7630646827298 1043.7301587301586,533.5583753747743 1048.5714285714284,517.0198033362187 1053.4126984126983,479.32491404489065 1058.2539682539682,466.9359776033645 1063.095238095238,412.04007370343965 1067.936507936508,371.08470518591156 1072.7777777777778,343.556678384969 1077.6190476190477,358.2594769335634 1082.4603174603176,390.5949947313224 1087.3015873015872,356.58042560092764 1092.142857142857,372.73573919951616 1096.9841269841268,380.80637422624176 1101.8253968253969,355.7978017044181 1106.6666666666667,302.54716800446005 1111.5079365079364,234.97685222449297 1116.3492063492063,210.68260202855907 1121.1904761904761,215.93370755171918 1126.031746031746,192.1862741978091 1130.873015873016,131.99264952500687 1135.7142857142856,169.32478183714352 1140.5555555555557,145.91912232967184 1145.3968253968255,165.08322120810215 1150.2380952380952,145.7520596799967 1155.079365079365,134.34998314112306 1159.920634920635,194.29784456500443 1164.7619047619048,134.961902338899 1169.6031746031745,140.75649262802528 1174.4444444444443,192.218003137413 1179.2857142857144,191.44858211394057 1184.126984126984,197.89107905218464 1188.968253968254,241.32020726989026 1193.8095238095239,249.7070631293284 1198.6507936507937,299.3022071790907 1203.4920634920634,278.06259863569335 1208.3333333333333,268.19277091479046 1213.1746031746031,259.8832919458573 1218.015873015873,303.6014661087708 1222.857142857143,294.57283953167956 1227.6984126984128,283.9190614629305 1232.5396825396826,271.1345272920515 1237.3809523809523,244.62489202574102 1242.2222222222222,287.50533521097606 1247.063492063492,309.03844810891644 1251.904761904762,440.7310118756053 1256.7460317460318,422.2062577247007 1261.5873015873017,420.23746408227964 1266.4285714285716,411.5078766973984 1271.2698412698412,398.7617813418905 1276.111111111111,399.56226033111653 1280.952380952381,394.5354754390412 1285.7936507936508,405.96715452662875 1290.6349206349205,411.173796490229 1295.4761904761906,383.00156998512284 1300.3174603174602,356.02560177586224 1305.1587301587301,349.46236902836915 1310.0,363.38177403756447" fill="none" stroke="#9333ea" stroke-width="2.5"><title>budgeted_drawdown_tilt_rebalance | end=2026-04-30 | return=55.36%</title></polyline>
<polyline points="90.0,537.1586775617511 94.84126984126983,537.2488346535329 99.68253968253968,538.3012745793271 104.52380952380952,537.4941956197296 109.36507936507937,529.4732760784176 114.2063492063492,524.7629655434529 119.04761904761905,519.4768360102545 123.88888888888889,515.7197492231358 128.73015873015873,516.7118899544539 133.57142857142856,505.470039097411 138.4126984126984,513.6235545860192 143.25396825396825,509.9032207016484 148.0952380952381,520.0615650607313 152.93650793650792,524.1288716802875 157.77777777777777,499.7483080567468 162.61904761904762,490.76406005638717 167.46031746031747,478.46748414351634 172.3015873015873,475.7688349987989 177.14285714285714,469.02438088720965 181.984126984127,459.74083297873625 186.8253968253968,488.7453507387671 191.66666666666666,472.65871751608 196.5079365079365,477.0018337133696 201.34920634920633,502.57237956900593 206.1904761904762,506.41633894280494 211.03174603174602,496.35095082470264 215.87301587301585,514.7960707335868 220.7142857142857,531.5392381391733 225.55555555555554,537.5201427521604 230.3968253968254,549.1945970125453 235.23809523809524,575.3816231295633 240.07936507936506,566.4054895739872 244.9206349206349,536.1419597672428 249.76190476190476,551.0796885462385 254.6031746031746,567.4066389574243 259.44444444444446,546.4930783245557 264.2857142857143,563.5562032642819 269.1269841269841,551.90507273245 273.968253968254,532.2113578418108 278.80952380952385,521.7093781940279 283.6507936507936,530.300984928248 288.4920634920635,548.501262943635 293.3333333333333,547.9740297000684 298.1746031746032,552.006937067576 303.015873015873,568.9231590816435 307.8571428571429,620.6035174241504 312.69841269841265,613.8407260792691 317.53968253968253,625.5035358995649 322.3809523809524,619.5770079957707 327.22222222222223,622.4582376115206 332.06349206349205,683.2932899329273 336.9047619047619,677.4884570671132 341.7460317460317,684.7247613590139 346.58730158730157,671.3142601378647 351.4285714285714,677.1302081575884 356.26984126984127,650.4672054679105 361.1111111111111,641.1687897995081 365.95238095238096,651.1171260567212 370.7936507936508,633.8256099496872 375.63492063492066,638.3935490674029 380.4761904761905,651.6603267185611 385.3174603174603,662.3441082535554 390.1587301587301,663.5057623536222 395.0,669.1348042391849 399.8412698412698,676.9127914340006 404.6825396825397,675.6643819686157 409.5238095238095,673.3776654941936 414.36507936507934,678.762174496332 419.2063492063492,680.3784682975718 424.0476190476191,664.7841946073756 428.8888888888889,664.4225182043209 433.73015873015873,686.1107681302688 438.57142857142856,694.0687699184216 443.41269841269843,694.3121470124833 448.25396825396825,689.3742365970078 453.0952380952381,688.1557490117581 457.9365079365079,688.2091589399024 462.7777777777778,692.6957677779425 467.61904761904765,694.285456745234 472.46031746031747,691.1692573976857 477.3015873015873,675.2038385749346 482.14285714285717,659.6673387918227 486.984126984127,649.2226124093943 491.8253968253968,645.290297942917 496.66666666666663,656.8527001680983 501.50793650793656,645.4332765995646 506.3492063492064,643.0425920559445 511.1904761904762,645.1915691270647 516.031746031746,667.773290157372 520.8730158730159,637.1305869979111 525.7142857142858,616.8158212479492 530.5555555555555,619.2281056365341 535.3968253968253,615.6141360300069 540.2380952380952,599.3231997470787 545.0793650793651,611.6789291751852 549.9206349206349,607.901489496258 554.7619047619048,611.9616945223158 559.6031746031747,623.662022743097 564.4444444444445,624.1362545895333 569.2857142857142,625.373025133702 574.1269841269841,621.3577045584112 578.968253968254,623.4713978702376 583.8095238095239,635.9194154451691 588.6507936507936,606.9372687490704 593.4920634920634,605.5527993987156 598.3333333333334,608.195958380696 603.1746031746031,593.5908061945142 608.015873015873,606.2422730185594 612.8571428571428,610.2573040976783 617.6984126984128,611.7177047727363 622.5396825396825,609.8918596074709 627.3809523809524,629.7567767521193 632.2222222222222,632.7178027127301 637.063492063492,634.3984831710734 641.9047619047619,632.8654676474521 646.7460317460317,632.7630026349661 651.5873015873016,634.7126696428161 656.4285714285714,629.4487645902685 661.2698412698413,629.8154227850705 666.1111111111111,636.0770362736031 670.952380952381,626.3867127765978 675.7936507936508,592.2203924548627 680.6349206349206,589.0124018482597 685.4761904761905,566.0357813017865 690.3174603174602,576.0502315858511 695.1587301587301,566.4333983160345 700.0,565.1235618851221 704.8412698412699,527.7358646431893 709.6825396825396,530.701469179433 714.5238095238095,530.817492398927 719.3650793650794,531.0651897552025 724.2063492063493,528.1039739796286 729.047619047619,502.74551459131453 733.8888888888889,530.1918353605828 738.7301587301587,548.447258302853 743.5714285714286,531.4575888379106 748.4126984126984,516.4932422714437 753.2539682539682,468.9729199196577 758.0952380952382,463.9513575180491 762.936507936508,406.0030092405568 767.7777777777778,354.99125071433406 772.6190476190476,338.2362894093171 777.4603174603175,381.3131983834134 782.3015873015872,358.0456120782219 787.1428571428571,378.89410122385783 791.9841269841269,364.0357445657631 796.8253968253969,411.1686095624589 801.6666666666667,402.8331569319492 806.5079365079365,431.59389953117585 811.3492063492064,414.37468254827166 816.1904761904761,411.3217466958751 821.031746031746,356.69908991089164 825.8730158730158,357.1234140729866 830.7142857142857,344.7749677267387 835.5555555555557,377.70106194230016 840.3968253968254,382.3253210185731 845.2380952380953,397.40239498887263 850.0793650793651,435.41220777594083 854.9206349206349,432.08343674661177 859.7619047619047,390.03228226016955 864.6031746031746,397.71020624845903 869.4444444444443,398.0484145743591 874.2857142857143,440.0576246443494 879.1269841269842,461.3595313524189 883.968253968254,448.1997428600657 888.8095238095239,457.24535675341906 893.6507936507936,477.7672166828767 898.4920634920635,471.0139193727475 903.3333333333333,447.844466019475 908.1746031746031,430.49158338424223 913.0158730158731,462.32336261916487 917.8571428571429,462.0542385946012 922.6984126984128,424.0721900120537 927.5396825396825,425.3681584615614 932.3809523809524,419.1364629695723 937.2222222222222,376.6559300776385 942.063492063492,326.4505423033235 946.9047619047618,269.2837402053812 951.7460317460318,266.46945633708856 956.5873015873016,249.50243701758052 961.4285714285714,233.5741638403893 966.2698412698413,269.2154488404869 971.1111111111111,279.98384156708516 975.952380952381,268.64220288126427 980.7936507936507,297.4661483258701 985.6349206349206,266.0070577851927 990.4761904761905,250.22561021706264 995.3174603174604,252.78244218130868 1000.1587301587301,315.85503502963684 1005.0,316.32997929982866 1009.8412698412699,306.20535168452994 1014.6825396825396,383.258304389277 1019.5238095238095,371.39735635606837 1024.3650793650795,426.13845355376293 1029.2063492063494,406.9089340747047 1034.047619047619,394.74031134851674 1038.888888888889,422.4223809299925 1043.7301587301586,456.3287233876317 1048.5714285714284,432.5646133950009 1053.4126984126983,386.62010765936043 1058.2539682539682,372.6731408974793 1063.095238095238,321.47319639874166 1067.936507936508,294.177185342949 1072.7777777777778,257.41801247537643 1077.6190476190477,281.69503529974355 1082.4603174603176,311.9484230793386 1087.3015873015872,280.26832273786664 1092.142857142857,293.07391227835336 1096.9841269841268,292.4689925009419 1101.8253968253969,270.2765995100014 1106.6666666666667,220.91336886989774 1111.5079365079364,170.1372321571181 1116.3492063492063,156.1487356723153 1121.1904761904761,165.83958131841473 1126.031746031746,143.65008572215254 1130.873015873016,91.66715644111139 1135.7142857142856,135.49071710750616 1140.5555555555557,113.56384353300723 1145.3968253968255,135.34462725645483 1150.2380952380952,108.18453101157263 1155.079365079365,93.77625014140779 1159.920634920635,170.9808633754509 1164.7619047619048,90.0 1169.6031746031745,95.16349945403499 1174.4444444444443,171.2082229993814 1179.2857142857144,168.05670635760873 1184.126984126984,177.6016201421445 1188.968253968254,236.2880296812408 1193.8095238095239,247.76674962454507 1198.6507936507937,317.94341007403466 1203.4920634920634,289.37172615338324 1208.3333333333333,277.9329811562657 1213.1746031746031,268.7112701891504 1218.015873015873,321.52799877593105 1222.857142857143,310.5522241790891 1227.6984126984128,298.3214659558336 1232.5396825396826,283.4526880702386 1237.3809523809523,253.30791161486025 1242.2222222222222,299.9971643189014 1247.063492063492,325.07876536455154 1251.904761904762,466.88080477279965 1256.7460317460318,447.1265250959222 1261.5873015873017,444.64286157660615 1266.4285714285716,436.99943269554404 1271.2698412698412,423.2259289819176 1276.111111111111,424.23314531119826 1280.952380952381,421.2330901464779 1285.7936507936508,430.76053957555627 1290.6349206349205,436.6171483613138 1295.4761904761906,411.54101521126444 1300.3174603174602,389.2403532687838 1305.1587301587301,381.079723286956 1310.0,392.74559425103706" fill="none" stroke="#92400e" stroke-width="2.5"><title>budgeted_btc_defensive_eth_aggressive | end=2026-04-30 | return=46.00%</title></polyline>
</svg>