<svg xmlns="http://www.w3.org/2000/svg" width="1400" height="800">
<rect width="1400" height="800" fill="#f8fafc"/>
<text x="700.0" y="42" text-anchor="middle" font-family="monospace" font-size="24" fill="#0f172a">budgeted_btc_defensive_eth_aggressive | weekly | start=2024-04-01 | return=6.85%</text>
<line x1="90" y1="420" x2="1310" y2="420" stroke="#334155" stroke-width="2"/>
<line x1="90" y1="90" x2="90" y2="420" stroke="#334155" stroke-width="2"/>
<line x1="90.0" y1="420" x2="90.0" y2="90" stroke="#94a3b8" stroke-width="1.2"/>
<line x1="90.0" y1="605" x2="90.0" y2="480" stroke="#94a3b8" stroke-width="1.2"/>
<line x1="90.0" y1="770" x2="90.0" y2="645" stroke="#94a3b8" stroke-width="1.2"/>
<text x="90.0" y="788" text-anchor="middle" font-family="monospace" font-size="11" fill="#334155">2024-04</text>
<line x1="145.96330275229357" y1="420" x2="145.96330275229357" y2="90" stroke="#94a3b8" stroke-width="1.2"/>
<line x1="145.96330275229357" y1="605" x2="145.96330275229357" y2="480" stroke="#94a3b8" stroke-width="1.2"/>
<line x1="145.96330275229357" y1="770" x2="145.96330275229357" y2="645" stroke="#94a3b8" stroke-width="1.2"/>
<text x="145.96330275229357" y="788" text-anchor="middle" font-family="monospace" font-size="11" fill="#334155">2024-05</text>
<line x1="190.73394495412845" y1="420" x2="190.73394495412845" y2="90" stroke="#94a3b8" stroke-width="1.2"/>
<line x1="190.73394495412845" y1="605" x2="190.73394495412845" y2="480" stroke="#94a3b8" stroke-width="1.2"/>
<line x1="190.73394495412845" y1="770" x2="190.73394495412845" y2="645" stroke="#94a3b8" stroke-width="1.2"/>
<text x="190.73394495412845" y="788" text-anchor="middle" font-family="monospace" font-size="11" fill="#334155">2024-06</text>
<line x1="235.50458715596332" y1="420" x2="235.50458715596332" y2="90" stroke="#94a3b8" stroke-width="1.2"/>
<line x1="235.50458715596332" y1="605" x2="235.50458715596332" y2="480" stroke="#94a3b8" stroke-width="1.2"/>
<line x1="235.50458715596332" y1="770" x2="235.50458715596332" y2="645" stroke="#94a3b8" stroke-width="1.2"/>
<text x="235.50458715596332" y="788" text-anchor="middle" font-family="monospace" font-size="11" fill="#334155">2024-07</text>
<line x1="291.4678899082569" y1="420" x2="291.4678899082569" y2="90" stroke="#94a3b8" stroke-width="1.2"/>
<line x1="291.4678899082569" y1="605" x2="291.4678899082569" y2="480" stroke="#94a3b8" stroke-width="1.2"/>
<line x1="291.4678899082569" y1="770" x2="291.4678899082569" y2="645" stroke="#94a3b8" stroke-width="1.2"/>
<text x="291.4678899082569" y="788" text-anchor="middle" font-family="monospace" font-size="11" fill="#334155">2024-08</text>
<line x1="336.2385321100918" y1="420" x2="336.2385321100918" y2="90" stroke="#94a3b8" stroke-width="1.2"/>
<line x1="336.2385321100918" y1="605" x2="336.2385321100918" y2="480" stroke="#94a3b8" stroke-width="1.2"/>
<line x1="336.2385321100918" y1="770" x2="336.2385321100918" y2="645" stroke="#94a3b8" stroke-width="1.2"/>
<text x="336.2385321100918" y="788" text-anchor="middle" font-family="monospace" font-size="11" fill="#334155">2024-09</text>
<line x1="392.20183486238534" y1="420" x2="392.20183486238534" y2="90" stroke="#94a3b8" stroke-width="1.2"/>
<line x1="392.20183486238534" y1="605" x2="392.20183486238534" y2="480" stroke="#94a3b8" stroke-width="1.2"/>
<line x1="392.20183486238534" y1="770" x2="392.20183486238534" y2="645" stroke="#94a3b8" stroke-width="1.2"/>
<text x="392.20183486238534" y="788" text-anchor="middle" font-family="monospace" font-size="11" fill="#334155">2024-10</text>
<line x1="436.9724770642202" y1="420" x2="436.9724770642202" y2="90" stroke="#94a3b8" stroke-width="1.2"/>
<line x1="436.9724770642202" y1="605" x2="436.9724770642202" y2="480" stroke="#94a3b8" stroke-width="1.2"/>
<line x1="436.9724770642202" y1="770" x2="436.9724770642202" y2="645" stroke="#94a3b8" stroke-width="1.2"/>
<text x="436.9724770642202" y="788" text-anchor="middle" font-family="monospace" font-size="11" fill="#334155">2024-11</text>
<line x1="481.7431192660551" y1="420" x2="481.7431192660551" y2="90" stroke="#94a3b8" stroke-width="1.2"/>
<line x1="481.7431192660551" y1="605" x2="481.7431192660551" y2="480" stroke="#94a3b8" stroke-width="1.2"/>
<line x1="481.7431192660551" y1="770" x2="481.7431192660551" y2="645" stroke="#94a3b8" stroke-width="1.2"/>
<text x="481.7431192660551" y="788" text-anchor="middle" font-family="monospace" font-size="11" fill="#334155">2024-12</text>
<line x1="537.7064220183486" y1="420" x2="537.7064220183486" y2="90" stroke="#94a3b8" stroke-width="1.2"/>
<line x1="537.7064220183486" y1="605" x2="537.7064220183486" y2="480" stroke="#94a3b8" stroke-width="1.2"/>
<line x1="537.7064220183486" y1="770" x2="537.7064220183486" y2="645" stroke="#94a3b8" stroke-width="1.2"/>
<text x="537.7064220183486" y="788" text-anchor="middle" font-family="monospace" font-size="11" fill="#334155">2025-01</text>
<line x1="582.4770642201836" y1="420" x2="582.4770642201836" y2="90" stroke="#94a3b8" stroke-width="1.2"/>
<line x1="582.4770642201836" y1="605" x2="582.4770642201836" y2="480" stroke="#94a3b8" stroke-width="1.2"/>
<line x1="582.4770642201836" y1="770" x2="582.4770642201836" y2="645" stroke="#94a3b8" stroke-width="1.2"/>
<text x="582.4770642201836" y="788" text-anchor="middle" font-family="monospace" font-size="11" fill="#334155">2025-02</text>
<line x1="627.2477064220184" y1="420" x2="627.2477064220184" y2="90" stroke="#94a3b8" stroke-width="1.2"/>
<line x1="627.2477064220184" y1="605" x2="627.2477064220184" y2="480" stroke="#94a3b8" stroke-width="1.2"/>
<line x1="627.2477064220184" y1="770" x2="627.2477064220184" y2="645" stroke="#94a3b8" stroke-width="1.2"/>
<text x="627.2477064220184" y="788" text-anchor="middle" font-family="monospace" font-size="11" fill="#334155">2025-03</text>
<line x1="683.2110091743119" y1="420" x2="683.2110091743119" y2="90" stroke="#94a3b8" stroke-width="1.2"/>
<line x1="683.2110091743119" y1="605" x2="683.2110091743119" y2="480" stroke="#94a3b8" stroke-width="1.2"/>
<line x1="683.2110091743119" y1="770" x2="683.2110091743119" y2="645" stroke="#94a3b8" stroke-width="1.2"/>
<text x="683.2110091743119" y="788" text-anchor="middle" font-family="monospace" font-size="11" fill="#334155">2025-04</text>
<line x1="727.9816513761467" y1="420" x2="727.9816513761467" y2="90" stroke="#94a3b8" stroke-width="1.2"/>
<line x1="727.9816513761467" y1="605" x2="727.9816513761467" y2="480" stroke="#94a3b8" stroke-width="1.2"/>
<line x1="727.9816513761467" y1="770" x2="727.9816513761467" y2="645" stroke="#94a3b8" stroke-width="1.2"/>
<text x="727.9816513761467" y="788" text-anchor="middle" font-family="monospace" font-size="11" fill="#334155">2025-05</text>
<line x1="772.7522935779816" y1="420" x2="772.7522935779816" y2="90" stroke="#94a3b8" stroke-width="1.2"/>
<line x1="772.7522935779816" y1="605" x2="772.7522935779816" y2="480" stroke="#94a3b8" stroke-width="1.2"/>
<line x1="772.7522935779816" y1="770" x2="772.7522935779816" y2="645" stroke="#94a3b8" stroke-width="1.2"/>
<text x="772.7522935779816" y="788" text-anchor="middle" font-family="monospace" font-size="11" fill="#334155">2025-06</text>
<line x1="828.7155963302753" y1="420" x2="828.7155963302753" y2="90" stroke="#94a3b8" stroke-width="1.2"/>
<line x1="828.7155963302753" y1="605" x2="828.7155963302753" y2="480" stroke="#94a3b8" stroke-width="1.2"/>
<line x1="828.7155963302753" y1="770" x2="828.7155963302753" y2="645" stroke="#94a3b8" stroke-width="1.2"/>
<text x="828.7155963302753" y="788" text-anchor="middle" font-family="monospace" font-size="11" fill="#334155">2025-07</text>
<line x1="873.4862385321102" y1="420" x2="873.4862385321102" y2="90" stroke="#94a3b8" stroke-width="1.2"/>
<line x1="873.4862385321102" y1="605" x2="873.4862385321102" y2="480" stroke="#94a3b8" stroke-width="1.2"/>
<line x1="873.4862385321102" y1="770" x2="873.4862385321102" y2="645" stroke="#94a3b8" stroke-width="1.2"/>
<text x="873.4862385321102" y="788" text-anchor="middle" font-family="monospace" font-size="11" fill="#334155">2025-08</text>
<line x1="918.256880733945" y1="420" x2="918.256880733945" y2="90" stroke="#94a3b8" stroke-width="1.2"/>
<line x1="918.256880733945" y1="605" x2="918.256880733945" y2="480" stroke="#94a3b8" stroke-width="1.2"/>
<line x1="918.256880733945" y1="770" x2="918.256880733945" y2="645" stroke="#94a3b8" stroke-width="1.2"/>
<text x="918.256880733945" y="788" text-anchor="middle" font-family="monospace" font-size="11" fill="#334155">2025-09</text>
<line x1="974.2201834862385" y1="420" x2="974.2201834862385" y2="90" stroke="#94a3b8" stroke-width="1.2"/>
<line x1="974.2201834862385" y1="605" x2="974.2201834862385" y2="480" stroke="#94a3b8" stroke-width="1.2"/>
<line x1="974.2201834862385" y1="770" x2="974.2201834862385" y2="645" stroke="#94a3b8" stroke-width="1.2"/>
<text x="974.2201834862385" y="788" text-anchor="middle" font-family="monospace" font-size="11" fill="#334155">2025-10</text>
<line x1="1018.9908256880734" y1="420" x2="1018.9908256880734" y2="90" stroke="#94a3b8" stroke-width="1.2"/>
<line x1="1018.9908256880734" y1="605" x2="1018.9908256880734" y2="480" stroke="#94a3b8" stroke-width="1.2"/>
<line x1="1018.9908256880734" y1="770" x2="1018.9908256880734" y2="645" stroke="#94a3b8" stroke-width="1.2"/>
<text x="1018.9908256880734" y="788" text-anchor="middle" font-family="monospace" font-size="11" fill="#334155">2025-11</text>
<line x1="1063.761467889908" y1="420" x2="1063.761467889908" y2="90" stroke="#94a3b8" stroke-width="1.2"/>
<line x1="1063.761467889908" y1="605" x2="1063.761467889908" y2="480" stroke="#94a3b8" stroke-width="1.2"/>
<line x1="1063.761467889908" y1="770" x2="1063.761467889908" y2="645" stroke="#94a3b8" stroke-width="1.2"/>
<text x="1063.761467889908" y="788" text-anchor="middle" font-family="monospace" font-size="11" fill="#334155">2025-12</text>
<line x1="1119.724770642202" y1="420" x2="1119.724770642202" y2="90" stroke="#94a3b8" stroke-width="1.2"/>
<line x1="1119.724770642202" y1="605" x2="1119.724770642202" y2="480" stroke="#94a3b8" stroke-width="1.2"/>
<line x1="1119.724770642202" y1="770" x2="1119.724770642202" y2="645" stroke="#94a3b8" stroke-width="1.2"/>
<text x="1119.724770642202" y="788" text-anchor="middle" font-family="monospace" font-size="11" fill="#334155">2026-01</text>
<line x1="1164.4954128440368" y1="420" x2="1164.4954128440368" y2="90" stroke="#94a3b8" stroke-width="1.2"/>
<line x1="1164.4954128440368" y1="605" x2="1164.4954128440368" y2="480" stroke="#94a3b8" stroke-width="1.2"/>
<line x1="1164.4954128440368" y1="770" x2="1164.4954128440368" y2="645" stroke="#94a3b8" stroke-width="1.2"/>
<text x="1164.4954128440368" y="788" text-anchor="middle" font-family="monospace" font-size="11" fill="#334155">2026-02</text>
<line x1="1209.2660550458716" y1="420" x2="1209.2660550458716" y2="90" stroke="#94a3b8" stroke-width="1.2"/>
<line x1="1209.2660550458716" y1="605" x2="1209.2660550458716" y2="480" stroke="#94a3b8" stroke-width="1.2"/>
<line x1="1209.2660550458716" y1="770" x2="1209.2660550458716" y2="645" stroke="#94a3b8" stroke-width="1.2"/>
<text x="1209.2660550458716" y="788" text-anchor="middle" font-family="monospace" font-size="11" fill="#334155">2026-03</text>
<line x1="1265.2293577981652" y1="420" x2="1265.2293577981652" y2="90" stroke="#94a3b8" stroke-width="1.2"/>
<line x1="1265.2293577981652" y1="605" x2="1265.2293577981652" y2="480" stroke="#94a3b8" stroke-width="1.2"/>
<line x1="1265.2293577981652" y1="770" x2="1265.2293577981652" y2="645" stroke="#94a3b8" stroke-width="1.2"/>
<text x="1265.2293577981652" y="788" text-anchor="middle" font-family="monospace" font-size="11" fill="#334155">2026-04</text>
<line x1="1310.0" y1="420" x2="1310.0" y2="90" stroke="#94a3b8" stroke-width="1.2"/>
<line x1="1310.0" y1="605" x2="1310.0" y2="480" stroke="#94a3b8" stroke-width="1.2"/>
<line x1="1310.0" y1="770" x2="1310.0" y2="645" stroke="#94a3b8" stroke-width="1.2"/>
<text x="1310.0" y="788" text-anchor="middle" font-family="monospace" font-size="11" fill="#334155">2026-05</text>
<line x1="90" y1="420.0" x2="1310" y2="420.0" stroke="#cbd5e1" stroke-width="1"/>
<text x="78" y="424.0" text-anchor="end" font-family="monospace" font-size="12" fill="#475569">0</text>
<line x1="90" y1="354.0" x2="1310" y2="354.0" stroke="#cbd5e1" stroke-width="1"/>
<text x="78" y="358.0" text-anchor="end" font-family="monospace" font-size="12" fill="#475569">5259</text>
<line x1="90" y1="288.0" x2="1310" y2="288.0" stroke="#cbd5e1" stroke-width="1"/>
<text x="78" y="292.0" text-anchor="end" font-family="monospace" font-size="12" fill="#475569">10518</text>
<line x1="90" y1="222.0" x2="1310" y2="222.0" stroke="#cbd5e1" stroke-width="1"/>
<text x="78" y="226.0" text-anchor="end" font-family="monospace" font-size="12" fill="#475569">15778</text>
<line x1="90" y1="156.0" x2="1310" y2="156.0" stroke="#cbd5e1" stroke-width="1"/>
<text x="78" y="160.0" text-anchor="end" font-family="monospace" font-size="12" fill="#475569">21037</text>
<line x1="90" y1="90.0" x2="1310" y2="90.0" stroke="#cbd5e1" stroke-width="1"/>
<text x="78" y="94.0" text-anchor="end" font-family="monospace" font-size="12" fill="#475569">26296</text>
<polygon points="90.0,234.5814861952967 101.19266055045871,237.405118385216 112.38532110091744,240.22875057513534 123.57798165137615,243.0523827650547 134.77064220183487,245.876014954974 145.96330275229357,248.69964714489333 157.1559633027523,251.5232793348127 168.348623853211,254.34691152473204 179.54128440366975,257.1705437146514 190.73394495412845,259.99417590457074 201.92660550458714,262.81780809449003 213.1192660550459,265.6414402844094 224.3119266055046,269.7200201142929 235.50458715596332,272.54365230421223 246.69724770642202,278.1909166840509 257.88990825688074,281.0145488739703 269.0825688073395,283.8381810638896 280.27522935779814,286.66181325380893 291.4678899082569,292.30907763364763 302.66055045871565,297.9563420134863 313.8532110091743,303.603606393325 325.04587155963304,309.2508707731637 336.2385321100918,314.89813515300233 347.4311926605505,320.545399532841 358.6238532110092,326.1926639126797 369.8165137614679,331.8399282925184 381.00917431192664,337.4871926723571 392.20183486238534,343.1344570521957 403.39449541284404,345.9580892421151 414.5871559633028,348.78172143203443 425.7798165137615,351.6053536219538 436.9724770642202,354.4289858118731 448.16513761467894,357.2526180017924 459.35779816513764,360.0762501917118 470.55045871559633,362.89988238163113 481.7431192660551,365.7235145715505 492.9357798165138,368.5471467614698 504.1284403669725,371.3707789513891 515.3211009174313,374.1944111413085 526.5137614678899,377.01804333122783 537.7064220183486,379.5340185509089 548.8990825688074,382.35765074082826 560.0917431192661,385.0836283950952 571.2844036697247,387.3197574947696 582.4770642201836,390.14338968468894 593.6697247706422,392.9670218746083 604.862385321101,393.80939258558686 616.0550458715596,395.21493775429167 627.2477064220184,397.78088438716264 638.4403669724771,397.78088438716264 649.6330275229358,397.78088438716264 660.8256880733945,400.0470613431155 672.0183486238533,400.0470613431155 683.2110091743119,401.47078860772234 694.4036697247707,402.53377129798776 705.5963302752293,403.9987135892456 716.7889908256881,406.82234577916495 727.9816513761467,408.5706567614168 739.1743119266056,408.5706567614168 750.3669724770642,408.5706567614168 761.559633027523,408.5706567614168 772.7522935779816,408.5706567614168 783.9449541284404,411.39428895133614 795.137614678899,411.39428895133614 806.3302752293579,411.39428895133614 817.5229357798165,411.39428895133614 828.7155963302753,411.39428895133614 839.9082568807339,413.63113125141336 851.1009174311927,410.6607452725155 862.2935779816513,407.9030496571012 873.4862385321102,405.4439415184816 884.6788990825688,402.91519266721076 895.8715596330276,400.58550004158184 907.0642201834862,398.5047725834247 918.256880733945,396.62886597206204 929.4495412844036,394.8666908496929 940.6422018348625,393.10978068866996 951.8348623853211,391.66087493504716 963.0275229357799,390.2992801552605 974.2201834862385,388.71533774283967 985.4128440366973,387.5642006731154 996.6055045871559,387.5642006731154 1007.7981651376148,386.5709191022791 1018.9908256880734,386.5709191022791 1030.1834862385322,386.5709191022791 1041.3761467889908,387.5553791983658 1052.5688073394494,388.6661275064761 1063.761467889908,388.92203748619767 1074.9541284403672,389.8980344318292 1086.1467889908258,390.6233476253569 1097.3394495412845,390.75964134323254 1108.532110091743,390.781142819152 1119.724770642202,390.781142819152 1130.9174311926606,390.781142819152 1142.1100917431193,390.8804035834065 1153.302752293578,390.8804035834065 1164.4954128440368,390.8804035834065 1175.6880733944954,390.8804035834065 1186.8807339449543,390.8804035834065 1198.073394495413,390.8804035834065 1209.2660550458716,390.8804035834065 1220.4587155963302,390.8804035834065 1231.651376146789,390.8804035834065 1242.8440366972477,390.8804035834065 1254.0366972477066,390.8804035834065 1265.2293577981652,390.8804035834065 1276.4220183486239,390.8804035834065 1287.6146788990825,390.8804035834065 1298.8073394495414,390.8804035834065 1310.0,390.8804035834065 1310.0,420.0 1298.8073394495414,420.0 1287.6146788990825,420.0 1276.4220183486239,420.0 1265.2293577981652,420.0 1254.0366972477066,420.0 1242.8440366972477,420.0 1231.651376146789,420.0 1220.4587155963302,420.0 1209.2660550458716,420.0 1198.073394495413,420.0 1186.8807339449543,420.0 1175.6880733944954,420.0 1164.4954128440368,420.0 1153.302752293578,420.0 1142.1100917431193,420.0 1130.9174311926606,420.0 1119.724770642202,420.0 1108.532110091743,420.0 1097.3394495412845,420.0 1086.1467889908258,420.0 1074.9541284403672,420.0 1063.761467889908,420.0 1052.5688073394494,420.0 1041.3761467889908,420.0 1030.1834862385322,420.0 1018.9908256880734,420.0 1007.7981651376148,420.0 996.6055045871559,420.0 985.4128440366973,420.0 974.2201834862385,420.0 963.0275229357799,420.0 951.8348623853211,420.0 940.6422018348625,420.0 929.4495412844036,420.0 918.256880733945,420.0 907.0642201834862,420.0 895.8715596330276,420.0 884.6788990825688,420.0 873.4862385321102,420.0 862.2935779816513,420.0 851.1009174311927,420.0 839.9082568807339,420.0 828.7155963302753,420.0 817.5229357798165,420.0 806.3302752293579,420.0 795.137614678899,420.0 783.9449541284404,420.0 772.7522935779816,420.0 761.559633027523,420.0 750.3669724770642,420.0 739.1743119266056,420.0 727.9816513761467,420.0 716.7889908256881,420.0 705.5963302752293,420.0 694.4036697247707,420.0 683.2110091743119,420.0 672.0183486238533,420.0 660.8256880733945,420.0 649.6330275229358,420.0 638.4403669724771,420.0 627.2477064220184,420.0 616.0550458715596,420.0 604.862385321101,420.0 593.6697247706422,420.0 582.4770642201836,420.0 571.2844036697247,420.0 560.0917431192661,420.0 548.8990825688074,420.0 537.7064220183486,420.0 526.5137614678899,420.0 515.3211009174313,420.0 504.1284403669725,420.0 492.9357798165138,420.0 481.7431192660551,420.0 470.55045871559633,420.0 459.35779816513764,420.0 448.16513761467894,420.0 436.9724770642202,420.0 425.7798165137615,420.0 414.5871559633028,420.0 403.39449541284404,420.0 392.20183486238534,420.0 381.00917431192664,420.0 369.8165137614679,420.0 358.6238532110092,420.0 347.4311926605505,420.0 336.2385321100918,420.0 325.04587155963304,420.0 313.8532110091743,420.0 302.66055045871565,420.0 291.4678899082569,420.0 280.27522935779814,420.0 269.0825688073395,420.0 257.88990825688074,420.0 246.69724770642202,420.0 235.50458715596332,420.0 224.3119266055046,420.0 213.1192660550459,420.0 201.92660550458714,420.0 190.73394495412845,420.0 179.54128440366975,420.0 168.348623853211,420.0 157.1559633027523,420.0 145.96330275229357,420.0 134.77064220183487,420.0 123.57798165137615,420.0 112.38532110091744,420.0 101.19266055045871,420.0 90.0,420.0" fill="#facc15" fill-opacity="0.70" stroke="#facc15" stroke-width="1.2"/>
<polygon points="90.0,233.169670100337 101.19266055045871,234.78785534287084 112.38532110091744,236.90100954994486 123.57798165137615,238.48974153329573 134.77064220183487,240.16386863290424 145.96330275229357,242.1295566697927 157.1559633027523,244.06502836940507 168.348623853211,243.96098705018 179.54128440366975,244.72267590575072 190.73394495412845,246.81559318209062 201.92660550458714,248.57814156073817 213.1192660550459,250.5971282175553 224.3119266055046,252.70604155141172 235.50458715596332,253.67100198407508 246.69724770642202,259.3651281288944 257.88990825688074,257.86190575654786 269.0825688073395,259.57107770022446 280.27522935779814,261.8541851324254 291.4678899082569,271.9513824509114 302.66055045871565,272.79432476099896 313.8532110091743,276.9759845938695 325.04587155963304,279.923906817741 336.2385321100918,284.8762126574778 347.4311926605505,290.36685468984376 358.6238532110092,294.58496026697037 369.8165137614679,293.13261851952524 381.00917431192664,297.18566673649815 392.20183486238534,303.3564166743464 403.39449541284404,301.6494690678802 414.5871559633028,302.72657001555035 425.7798165137615,306.1433141126296 436.9724770642202,310.82605293315754 448.16513761467894,294.7156103684987 459.35779816513764,299.4955326400713 470.55045871559633,297.3102702023028 481.7431192660551,294.5904732960051 492.9357798165138,294.9369479739343 504.1284403669725,290.87077581998784 515.3211009174313,303.56807769672713 526.5137614678899,305.8369388425667 537.7064220183486,298.7037350865287 548.8990825688074,310.8140124331089 560.0917431192661,307.52162898607634 571.2844036697247,309.8498603242686 582.4770642201836,317.1127620929851 593.6697247706422,322.7288077815503 604.862385321101,320.5590217495983 616.0550458715596,326.7186088894272 627.2477064220184,336.68830154080666 638.4403669724771,344.7507029528874 649.6330275229358,342.98238542077866 660.8256880733945,338.56329846071156 672.0183486238533,346.2306777166003 683.2110091743119,354.18751464307627 694.4036697247707,352.01344149776503 705.5963302752293,353.3971254626634 716.7889908256881,346.32658226022096 727.9816513761467,345.65820061735167 739.1743119266056,322.30370325866045 750.3669724770642,321.167224639856 761.559633027523,319.93638511383335 772.7522935779816,318.3820224773481 783.9449541284404,315.8933831660975 795.137614678899,320.7380785197923 806.3302752293579,325.44920816567674 817.5229357798165,322.8437864253241 828.7155963302753,320.8410131586114 839.9082568807339,304.02420010724416 851.1009174311927,275.2977108122901 862.2935779816513,272.63455507749575 873.4862385321102,274.2029646632872 884.6788990825688,255.17546807696237 895.8715596330276,250.83199065025752 907.0642201834862,247.65222662549743 918.256880733945,248.96457273111696 929.4495412844036,248.3887548710766 940.6422018348625,240.3570936104785 951.8348623853211,250.50833928012656 963.0275229357799,249.32942601800667 974.2201834862385,232.857869897418 985.4128440366973,246.9700165686394 996.6055045871559,255.72326475243844 1007.7981651376148,250.60009160877664 1018.9908256880734,267.6692965786049 1030.1834862385322,268.8702330637602 1041.3761467889908,287.6294771913026 1052.5688073394494,291.22526307380684 1063.761467889908,296.5730249440099 1074.9541284403672,286.7696351310184 1086.1467889908258,292.79273161561474 1097.3394495412845,291.50037624191646 1108.532110091743,293.947512003599 1119.724770642202,284.34398034159824 1130.9174311926606,288.7414737916381 1142.1100917431193,285.6867499478603 1153.302752293578,294.28900617815964 1164.4954128440368,313.48748902713663 1175.6880733944954,321.45016984984295 1186.8807339449543,324.966514518524 1198.073394495413,329.64485351648005 1209.2660550458716,323.9695293243348 1220.4587155963302,325.1014919910242 1231.651376146789,313.229084721592 1242.8440366972477,319.8700423722601 1254.0366972477066,324.0649046044145 1265.2293577981652,321.33268334566174 1276.4220183486239,312.6568330411141 1287.6146788990825,314.4881044222977 1298.8073394495414,314.8626751589427 1310.0,313.426765665425 1310.0,390.8804035834065 1298.8073394495414,390.8804035834065 1287.6146788990825,390.8804035834065 1276.4220183486239,390.8804035834065 1265.2293577981652,390.8804035834065 1254.0366972477066,390.8804035834065 1242.8440366972477,390.8804035834065 1231.651376146789,390.8804035834065 1220.4587155963302,390.8804035834065 1209.2660550458716,390.8804035834065 1198.073394495413,390.8804035834065 1186.8807339449543,390.8804035834065 1175.6880733944954,390.8804035834065 1164.4954128440368,390.8804035834065 1153.302752293578,390.8804035834065 1142.1100917431193,390.8804035834065 1130.9174311926606,390.781142819152 1119.724770642202,390.781142819152 1108.532110091743,390.781142819152 1097.3394495412845,390.75964134323254 1086.1467889908258,390.6233476253569 1074.9541284403672,389.8980344318292 1063.761467889908,388.92203748619767 1052.5688073394494,388.6661275064761 1041.3761467889908,387.5553791983658 1030.1834862385322,386.5709191022791 1018.9908256880734,386.5709191022791 1007.7981651376148,386.5709191022791 996.6055045871559,387.5642006731154 985.4128440366973,387.5642006731154 974.2201834862385,388.71533774283967 963.0275229357799,390.2992801552605 951.8348623853211,391.66087493504716 940.6422018348625,393.10978068866996 929.4495412844036,394.8666908496929 918.256880733945,396.62886597206204 907.0642201834862,398.5047725834247 895.8715596330276,400.58550004158184 884.6788990825688,402.91519266721076 873.4862385321102,405.4439415184816 862.2935779816513,407.9030496571012 851.1009174311927,410.6607452725155 839.9082568807339,413.63113125141336 828.7155963302753,411.39428895133614 817.5229357798165,411.39428895133614 806.3302752293579,411.39428895133614 795.137614678899,411.39428895133614 783.9449541284404,411.39428895133614 772.7522935779816,408.5706567614168 761.559633027523,408.5706567614168 750.3669724770642,408.5706567614168 739.1743119266056,408.5706567614168 727.9816513761467,408.5706567614168 716.7889908256881,406.82234577916495 705.5963302752293,403.9987135892456 694.4036697247707,402.53377129798776 683.2110091743119,401.47078860772234 672.0183486238533,400.0470613431155 660.8256880733945,400.0470613431155 649.6330275229358,397.78088438716264 638.4403669724771,397.78088438716264 627.2477064220184,397.78088438716264 616.0550458715596,395.21493775429167 604.862385321101,393.80939258558686 593.6697247706422,392.9670218746083 582.4770642201836,390.14338968468894 571.2844036697247,387.3197574947696 560.0917431192661,385.0836283950952 548.8990825688074,382.35765074082826 537.7064220183486,379.5340185509089 526.5137614678899,377.01804333122783 515.3211009174313,374.1944111413085 504.1284403669725,371.3707789513891 492.9357798165138,368.5471467614698 481.7431192660551,365.7235145715505 470.55045871559633,362.89988238163113 459.35779816513764,360.0762501917118 448.16513761467894,357.2526180017924 436.9724770642202,354.4289858118731 425.7798165137615,351.6053536219538 414.5871559633028,348.78172143203443 403.39449541284404,345.9580892421151 392.20183486238534,343.1344570521957 381.00917431192664,337.4871926723571 369.8165137614679,331.8399282925184 358.6238532110092,326.1926639126797 347.4311926605505,320.545399532841 336.2385321100918,314.89813515300233 325.04587155963304,309.2508707731637 313.8532110091743,303.603606393325 302.66055045871565,297.9563420134863 291.4678899082569,292.30907763364763 280.27522935779814,286.66181325380893 269.0825688073395,283.8381810638896 257.88990825688074,281.0145488739703 246.69724770642202,278.1909166840509 235.50458715596332,272.54365230421223 224.3119266055046,269.7200201142929 213.1192660550459,265.6414402844094 201.92660550458714,262.81780809449003 190.73394495412845,259.99417590457074 179.54128440366975,257.1705437146514 168.348623853211,254.34691152473204 157.1559633027523,251.5232793348127 145.96330275229357,248.69964714489333 134.77064220183487,245.876014954974 123.57798165137615,243.0523827650547 112.38532110091744,240.22875057513534 101.19266055045871,237.405118385216 90.0,234.5814861952967" fill="#2563eb" fill-opacity="0.70" stroke="#2563eb" stroke-width="1.2"/>
<polygon points="90.0,231.7578540053773 101.19266055045871,231.64253941084968 112.38532110091744,232.42031665324944 123.57798165137615,232.07428379994312 134.77064220183487,232.34347003344195 145.96330275229357,232.69859211419825 157.1559633027523,232.97420715564814 168.348623853211,229.67803305031256 179.54128440366975,229.44049528470035 190.73394495412845,229.96650705851823 201.92660550458714,230.14413886923566 213.1192660550459,231.55127048589816 224.3119266055046,234.01425948734177 235.50458715596332,232.77115679967105 246.69724770642202,237.1162433641847 257.88990825688074,231.03934760421882 269.0825688073395,230.17649823797325 280.27522935779814,231.39011317822704 291.4678899082569,243.91256319497 302.66055045871565,238.60127962935132 313.8532110091743,239.34049641736448 325.04587155963304,236.7557691317808 336.2385321100918,240.8615598831029 347.4311926605505,244.51629084552542 358.6238532110092,244.41795884386877 369.8165137614679,235.15588303371584 381.00917431192664,235.85500779330525 392.20183486238534,239.7040955046119 403.39449541284404,232.34736303579692 414.5871559633028,230.38705491586762 425.7798165137615,229.34009851987415 436.9724770642202,234.65393662657172 448.16513761467894,193.30006742061573 459.35779816513764,194.38702551440466 470.55045871559633,187.62824491598838 481.7431192660551,179.8378553324321 492.9357798165138,176.74016019170756 504.1284403669725,160.65149187475777 515.3211009174313,186.0599876935295 526.5137614678899,190.00893181396594 537.7064220183486,170.86474487884587 548.8990825688074,192.69044155884532 560.0917431192661,179.85010032229584 571.2844036697247,182.28208582349268 582.4770642201836,190.29770210906912 593.6697247706422,200.9330819772713 604.862385321101,200.8413914633634 616.0550458715596,212.33927465317151 627.2477064220184,228.99558001275736 638.4403669724771,246.57770398315066 649.6330275229358,237.97657299055712 660.8256880733945,229.16756377549044 672.0183486238533,243.07106693787412 683.2110091743119,255.27045046147882 694.4036697247707,246.28398721459732 705.5963302752293,244.00332812177012 716.7889908256881,227.5329152304345 727.9816513761467,227.25022759575603 739.1743119266056,193.81376535681156 750.3669724770642,189.15760705609338 761.559633027523,183.11697901273575 772.7522935779816,186.01148389480016 783.9449541284404,178.0280236108737 795.137614678899,187.18208519251547 806.3302752293579,193.68555831758025 817.5229357798165,188.8880377197348 828.7155963302753,185.51458709155267 839.9082568807339,154.20660095462364 851.1009174311927,130.00871010126662 862.2935779816513,127.93033386557852 873.4862385321102,134.42798616237513 884.6788990825688,112.23053918397483 895.8715596330276,111.96023231232772 907.0642201834862,117.17604543078278 918.256880733945,120.37293294261195 929.4495412844036,117.3445129496468 940.6422018348625,106.03542557937749 951.8348623853211,119.98972512256506 963.0275229357799,117.60626791809398 974.2201834862385,90.0 985.4128440366973,115.50749580857678 996.6055045871559,129.62759616906493 1007.7981651376148,120.98787358441331 1018.9908256880734,146.61072835889837 1030.1834862385322,148.46900170021337 1041.3761467889908,182.01121333715008 1052.5688073394494,188.8934282472223 1063.761467889908,196.28525438834973 1074.9541284403672,180.42478281721034 1086.1467889908258,190.6921843743752 1097.3394495412845,186.7360305795089 1108.532110091743,190.87229857723304 1119.724770642202,173.27074154330285 1130.9174311926606,180.84171857543336 1142.1100917431193,176.06480198953102 1153.302752293578,189.77114166199738 1164.4954128440368,220.31932768400188 1175.6880733944954,238.4257000154105 1186.8807339449543,243.41519568948033 1198.073394495413,253.10606878103005 1209.2660550458716,242.4491454110058 1220.4587155963302,244.0546538931364 1231.651376146789,224.53817210239066 1242.8440366972477,235.93097914918152 1254.0366972477066,245.02550803742565 1265.2293577981652,239.78671772561626 1276.4220183486239,224.48758590142296 1287.6146788990825,224.63844707928303 1298.8073394495414,223.2370315138998 1310.0,218.85454761180145 1310.0,313.426765665425 1298.8073394495414,314.8626751589427 1287.6146788990825,314.4881044222977 1276.4220183486239,312.6568330411141 1265.2293577981652,321.33268334566174 1254.0366972477066,324.0649046044145 1242.8440366972477,319.8700423722601 1231.651376146789,313.229084721592 1220.4587155963302,325.1014919910242 1209.2660550458716,323.9695293243348 1198.073394495413,329.64485351648005 1186.8807339449543,324.966514518524 1175.6880733944954,321.45016984984295 1164.4954128440368,313.48748902713663 1153.302752293578,294.28900617815964 1142.1100917431193,285.6867499478603 1130.9174311926606,288.7414737916381 1119.724770642202,284.34398034159824 1108.532110091743,293.947512003599 1097.3394495412845,291.50037624191646 1086.1467889908258,292.79273161561474 1074.9541284403672,286.7696351310184 1063.761467889908,296.5730249440099 1052.5688073394494,291.22526307380684 1041.3761467889908,287.6294771913026 1030.1834862385322,268.8702330637602 1018.9908256880734,267.6692965786049 1007.7981651376148,250.60009160877664 996.6055045871559,255.72326475243844 985.4128440366973,246.9700165686394 974.2201834862385,232.857869897418 963.0275229357799,249.32942601800667 951.8348623853211,250.50833928012656 940.6422018348625,240.3570936104785 929.4495412844036,248.3887548710766 918.256880733945,248.96457273111696 907.0642201834862,247.65222662549743 895.8715596330276,250.83199065025752 884.6788990825688,255.17546807696237 873.4862385321102,274.2029646632872 862.2935779816513,272.63455507749575 851.1009174311927,275.2977108122901 839.9082568807339,304.02420010724416 828.7155963302753,320.8410131586114 817.5229357798165,322.8437864253241 806.3302752293579,325.44920816567674 795.137614678899,320.7380785197923 783.9449541284404,315.8933831660975 772.7522935779816,318.3820224773481 761.559633027523,319.93638511383335 750.3669724770642,321.167224639856 739.1743119266056,322.30370325866045 727.9816513761467,345.65820061735167 716.7889908256881,346.32658226022096 705.5963302752293,353.3971254626634 694.4036697247707,352.01344149776503 683.2110091743119,354.18751464307627 672.0183486238533,346.2306777166003 660.8256880733945,338.56329846071156 649.6330275229358,342.98238542077866 638.4403669724771,344.7507029528874 627.2477064220184,336.68830154080666 616.0550458715596,326.7186088894272 604.862385321101,320.5590217495983 593.6697247706422,322.7288077815503 582.4770642201836,317.1127620929851 571.2844036697247,309.8498603242686 560.0917431192661,307.52162898607634 548.8990825688074,310.8140124331089 537.7064220183486,298.7037350865287 526.5137614678899,305.8369388425667 515.3211009174313,303.56807769672713 504.1284403669725,290.87077581998784 492.9357798165138,294.9369479739343 481.7431192660551,294.5904732960051 470.55045871559633,297.3102702023028 459.35779816513764,299.4955326400713 448.16513761467894,294.7156103684987 436.9724770642202,310.82605293315754 425.7798165137615,306.1433141126296 414.5871559633028,302.72657001555035 403.39449541284404,301.6494690678802 392.20183486238534,303.3564166743464 381.00917431192664,297.18566673649815 369.8165137614679,293.13261851952524 358.6238532110092,294.58496026697037 347.4311926605505,290.36685468984376 336.2385321100918,284.8762126574778 325.04587155963304,279.923906817741 313.8532110091743,276.9759845938695 302.66055045871565,272.79432476099896 291.4678899082569,271.9513824509114 280.27522935779814,261.8541851324254 269.0825688073395,259.57107770022446 257.88990825688074,257.86190575654786 246.69724770642202,259.3651281288944 235.50458715596332,253.67100198407508 224.3119266055046,252.70604155141172 213.1192660550459,250.5971282175553 201.92660550458714,248.57814156073817 190.73394495412845,246.81559318209062 179.54128440366975,244.72267590575072 168.348623853211,243.96098705018 157.1559633027523,244.06502836940507 145.96330275229357,242.1295566697927 134.77064220183487,240.16386863290424 123.57798165137615,238.48974153329573 112.38532110091744,236.90100954994486 101.19266055045871,234.78785534287084 90.0,233.169670100337" fill="#f97316" fill-opacity="0.70" stroke="#f97316" stroke-width="1.2"/>
<rect x="1100" y="76" width="16" height="12" fill="#f97316" fill-opacity="0.70" stroke="#f97316"/>
<text x="1124" y="86" font-family="monospace" font-size="12" fill="#0f172a">BTC</text>
<rect x="1100" y="98" width="16" height="12" fill="#2563eb" fill-opacity="0.70" stroke="#2563eb"/>
<text x="1124" y="108" font-family="monospace" font-size="12" fill="#0f172a">ETH</text>
<rect x="1100" y="120" width="16" height="12" fill="#facc15" fill-opacity="0.70" stroke="#facc15"/>
<text x="1124" y="130" font-family="monospace" font-size="12" fill="#0f172a">DAI</text>
<text x="700.0" y="782" text-anchor="middle" font-family="monospace" font-size="16" fill="#0f172a">time</text>
<text x="24" y="255.0" transform="rotate(-90 24,255.0)" text-anchor="middle" font-family="monospace" font-size="16" fill="#0f172a">asset value split (usd)</text>
<line x1="90" y1="605" x2="1310" y2="605" stroke="#334155" stroke-width="2"/>
<line x1="90" y1="480" x2="90" y2="605" stroke="#334155" stroke-width="2"/>
<line x1="90" y1="542.5" x2="1310" y2="542.5" stroke="#64748b" stroke-width="1.5" stroke-dasharray="6 4"/>
<line x1="90" y1="605.0" x2="1310" y2="605.0" stroke="#e2e8f0" stroke-width="1"/>
<text x="78" y="609.0" text-anchor="end" font-family="monospace" font-size="11" fill="#475569">-270</text>
<line x1="90" y1="542.5" x2="1310" y2="542.5" stroke="#e2e8f0" stroke-width="1"/>
<text x="78" y="546.5" text-anchor="end" font-family="monospace" font-size="11" fill="#475569">0</text>
<line x1="90" y1="480.0" x2="1310" y2="480.0" stroke="#e2e8f0" stroke-width="1"/>
<text x="78" y="484.0" text-anchor="end" font-family="monospace" font-size="11" fill="#475569">270</text>
<rect x="86.95" y="516.4583333333334" width="6.1000000000000005" height="26.04166666666663" fill="#ea580c" opacity="0.85"><title>2024-04-01 | BTC buy 112.50 usd | reason=balanced_regime</title></rect>
<rect x="98.14266055045871" y="511.25" width="6.1000000000000005" height="31.25" fill="#ea580c" opacity="0.85"><title>2024-04-08 | BTC buy 135.00 usd | reason=btc_defensive_regime</title></rect>
<rect x="109.33532110091744" y="511.25" width="6.1000000000000005" height="31.25" fill="#ea580c" opacity="0.85"><title>2024-04-15 | BTC buy 135.00 usd | reason=btc_defensive_regime</title></rect>
<rect x="120.52798165137615" y="511.25" width="6.1000000000000005" height="31.25" fill="#ea580c" opacity="0.85"><title>2024-04-22 | BTC buy 135.00 usd | reason=btc_defensive_regime</title></rect>
<rect x="131.72064220183486" y="511.25" width="6.1000000000000005" height="31.25" fill="#ea580c" opacity="0.85"><title>2024-04-29 | BTC buy 135.00 usd | reason=btc_defensive_regime</title></rect>
<rect x="142.91330275229356" y="511.25" width="6.1000000000000005" height="31.25" fill="#ea580c" opacity="0.85"><title>2024-05-06 | BTC buy 135.00 usd | reason=btc_defensive_regime</title></rect>
<rect x="154.1059633027523" y="511.25" width="6.1000000000000005" height="31.25" fill="#ea580c" opacity="0.85"><title>2024-05-13 | BTC buy 135.00 usd | reason=btc_defensive_regime</title></rect>
<rect x="165.29862385321098" y="511.25" width="6.1000000000000005" height="31.25" fill="#ea580c" opacity="0.85"><title>2024-05-20 | BTC buy 135.00 usd | reason=btc_defensive_regime</title></rect>
<rect x="176.49128440366974" y="516.4583333333334" width="6.1000000000000005" height="26.04166666666663" fill="#ea580c" opacity="0.85"><title>2024-05-27 | BTC buy 112.50 usd | reason=balanced_regime</title></rect>
<rect x="187.68394495412844" y="511.25" width="6.1000000000000005" height="31.25" fill="#ea580c" opacity="0.85"><title>2024-06-03 | BTC buy 135.00 usd | reason=btc_defensive_regime</title></rect>
<rect x="198.87660550458713" y="516.4583333333334" width="6.1000000000000005" height="26.04166666666663" fill="#ea580c" opacity="0.85"><title>2024-06-10 | BTC buy 112.50 usd | reason=balanced_regime</title></rect>
<rect x="210.0692660550459" y="516.4583333333334" width="6.1000000000000005" height="26.04166666666663" fill="#ea580c" opacity="0.85"><title>2024-06-17 | BTC buy 112.50 usd | reason=balanced_regime</title></rect>
<rect x="221.26192660550458" y="516.1689814814815" width="6.1000000000000005" height="26.331018518518476" fill="#ea580c" opacity="0.85"><title>2024-06-24 | BTC buy 113.75 usd | reason=eth_strong_risk_on</title></rect>
<rect x="232.4545871559633" y="516.4583333333334" width="6.1000000000000005" height="26.04166666666663" fill="#ea580c" opacity="0.85"><title>2024-07-01 | BTC buy 112.50 usd | reason=balanced_regime</title></rect>
<rect x="243.647247706422" y="480.0" width="6.1000000000000005" height="62.5" fill="#ea580c" opacity="0.85"><title>2024-07-08 | BTC buy 270.00 usd | reason=both_weak_btc_defensive</title></rect>
<rect x="254.83990825688073" y="516.4583333333334" width="6.1000000000000005" height="26.04166666666663" fill="#ea580c" opacity="0.85"><title>2024-07-15 | BTC buy 112.50 usd | reason=balanced_regime</title></rect>
<rect x="266.0325688073395" y="516.4583333333334" width="6.1000000000000005" height="26.04166666666663" fill="#ea580c" opacity="0.85"><title>2024-07-22 | BTC buy 112.50 usd | reason=balanced_regime</title></rect>
<rect x="277.2252293577981" y="516.4583333333334" width="6.1000000000000005" height="26.04166666666663" fill="#ea580c" opacity="0.85"><title>2024-07-29 | BTC buy 112.50 usd | reason=balanced_regime</title></rect>
<rect x="288.4178899082569" y="480.0" width="6.1000000000000005" height="62.5" fill="#ea580c" opacity="0.85"><title>2024-08-05 | BTC buy 270.00 usd | reason=both_weak_btc_defensive</title></rect>
<rect x="299.61055045871564" y="480.0" width="6.1000000000000005" height="62.5" fill="#ea580c" opacity="0.85"><title>2024-08-12 | BTC buy 270.00 usd | reason=both_weak_btc_defensive</title></rect>
<rect x="310.8032110091743" y="480.0" width="6.1000000000000005" height="62.5" fill="#ea580c" opacity="0.85"><title>2024-08-19 | BTC buy 270.00 usd | reason=both_weak_btc_defensive</title></rect>
<rect x="321.99587155963303" y="480.0" width="6.1000000000000005" height="62.5" fill="#ea580c" opacity="0.85"><title>2024-08-26 | BTC buy 270.00 usd | reason=both_weak_btc_defensive</title></rect>
<rect x="333.1885321100918" y="480.0" width="6.1000000000000005" height="62.5" fill="#ea580c" opacity="0.85"><title>2024-09-02 | BTC buy 270.00 usd | reason=both_weak_btc_defensive</title></rect>
<rect x="344.3811926605505" y="480.0" width="6.1000000000000005" height="62.5" fill="#ea580c" opacity="0.85"><title>2024-09-09 | BTC buy 270.00 usd | reason=both_weak_btc_defensive</title></rect>
<rect x="355.5738532110092" y="480.0" width="6.1000000000000005" height="62.5" fill="#ea580c" opacity="0.85"><title>2024-09-16 | BTC buy 270.00 usd | reason=both_weak_btc_defensive</title></rect>
<rect x="366.7665137614679" y="480.0" width="6.1000000000000005" height="62.5" fill="#ea580c" opacity="0.85"><title>2024-09-23 | BTC buy 270.00 usd | reason=both_weak_btc_defensive</title></rect>
<rect x="377.95917431192663" y="480.0" width="6.1000000000000005" height="62.5" fill="#ea580c" opacity="0.85"><title>2024-09-30 | BTC buy 270.00 usd | reason=both_weak_btc_defensive</title></rect>
<rect x="389.15183486238533" y="480.0" width="6.1000000000000005" height="62.5" fill="#ea580c" opacity="0.85"><title>2024-10-07 | BTC buy 270.00 usd | reason=both_weak_btc_defensive</title></rect>
<rect x="400.344495412844" y="511.25" width="6.1000000000000005" height="31.25" fill="#ea580c" opacity="0.85"><title>2024-10-14 | BTC buy 135.00 usd | reason=btc_defensive_regime</title></rect>
<rect x="411.5371559633028" y="511.25" width="6.1000000000000005" height="31.25" fill="#ea580c" opacity="0.85"><title>2024-10-21 | BTC buy 135.00 usd | reason=btc_defensive_regime</title></rect>
<rect x="422.7298165137615" y="511.25" width="6.1000000000000005" height="31.25" fill="#ea580c" opacity="0.85"><title>2024-10-28 | BTC buy 135.00 usd | reason=btc_defensive_regime</title></rect>
<rect x="433.9224770642202" y="511.25" width="6.1000000000000005" height="31.25" fill="#ea580c" opacity="0.85"><title>2024-11-04 | BTC buy 135.00 usd | reason=btc_defensive_regime</title></rect>
<rect x="445.11513761467893" y="511.25" width="6.1000000000000005" height="31.25" fill="#ea580c" opacity="0.85"><title>2024-11-11 | BTC buy 135.00 usd | reason=btc_defensive_regime</title></rect>
<rect x="456.3077981651376" y="511.25" width="6.1000000000000005" height="31.25" fill="#ea580c" opacity="0.85"><title>2024-11-18 | BTC buy 135.00 usd | reason=btc_defensive_regime</title></rect>
<rect x="467.5004587155963" y="511.25" width="6.1000000000000005" height="31.25" fill="#ea580c" opacity="0.85"><title>2024-11-25 | BTC buy 135.00 usd | reason=btc_defensive_regime</title></rect>
<rect x="478.6931192660551" y="511.25" width="6.1000000000000005" height="31.25" fill="#ea580c" opacity="0.85"><title>2024-12-02 | BTC buy 135.00 usd | reason=btc_defensive_regime</title></rect>
<rect x="489.8857798165138" y="511.25" width="6.1000000000000005" height="31.25" fill="#ea580c" opacity="0.85"><title>2024-12-09 | BTC buy 135.00 usd | reason=btc_defensive_regime</title></rect>
<rect x="501.0784403669725" y="517.3101339567191" width="6.1000000000000005" height="25.18986604328086" fill="#ea580c" opacity="0.85"><title>2024-12-16 | BTC buy 108.82 usd | reason=btc_defensive_regime</title></rect>
<rect x="512.2711009174313" y="520.3492028280248" width="6.1000000000000005" height="22.150797171975228" fill="#ea580c" opacity="0.85"><title>2024-12-23 | BTC buy 95.69 usd | reason=btc_defensive_regime</title></rect>
<rect x="523.46376146789" y="524.4549091041678" width="6.1000000000000005" height="18.04509089583223" fill="#ea580c" opacity="0.85"><title>2024-12-30 | BTC buy 77.95 usd | reason=btc_defensive_regime</title></rect>
<rect x="534.6564220183486" y="542.5" width="6.1000000000000005" height="1.5" fill="#dc2626" opacity="0.85"><title>2025-01-06 | BTC sell 5.40 usd | reason=btc_defensive_regime</title></rect>
<rect x="545.8490825688075" y="542.5" width="6.1000000000000005" height="1.5" fill="#ea580c" opacity="0.85"><title>2025-01-13 | BTC buy 0.00 usd | reason=btc_defensive_regime</title></rect>
<rect x="557.0417431192661" y="542.5" width="6.1000000000000005" height="1.5" fill="#ea580c" opacity="0.85"><title>2025-01-20 | BTC buy 0.00 usd | reason=btc_defensive_regime</title></rect>
<rect x="568.2344036697248" y="542.5" width="6.1000000000000005" height="1.5" fill="#ea580c" opacity="0.85"><title>2025-01-27 | BTC buy 0.00 usd | reason=btc_defensive_regime</title></rect>
<rect x="579.4270642201836" y="542.5" width="6.1000000000000005" height="1.5" fill="#ea580c" opacity="0.85"><title>2025-02-03 | BTC buy 0.00 usd | reason=btc_defensive_regime</title></rect>
<rect x="590.6197247706423" y="542.5" width="6.1000000000000005" height="1.5" fill="#ea580c" opacity="0.85"><title>2025-02-10 | BTC buy 0.00 usd | reason=btc_defensive_regime</title></rect>
<rect x="601.812385321101" y="542.5" width="6.1000000000000005" height="1.5" fill="#ea580c" opacity="0.85"><title>2025-02-17 | BTC buy 0.00 usd | reason=btc_defensive_regime</title></rect>
<rect x="613.0050458715597" y="542.5" width="6.1000000000000005" height="1.5" fill="#ea580c" opacity="0.85"><title>2025-02-24 | BTC buy 0.00 usd | reason=btc_defensive_regime</title></rect>
<rect x="624.1977064220184" y="542.5" width="6.1000000000000005" height="1.5" fill="#ea580c" opacity="0.85"><title>2025-03-03 | BTC buy 0.00 usd | reason=btc_defensive_regime</title></rect>
<rect x="635.3903669724772" y="542.5" width="6.1000000000000005" height="1.5" fill="#ea580c" opacity="0.85"><title>2025-03-10 | BTC buy 0.00 usd | reason=both_weak_btc_defensive</title></rect>
<rect x="646.5830275229358" y="542.5" width="6.1000000000000005" height="1.5" fill="#ea580c" opacity="0.85"><title>2025-03-17 | BTC buy 0.00 usd | reason=both_weak_btc_defensive</title></rect>
<rect x="657.7756880733946" y="542.5" width="6.1000000000000005" height="1.5" fill="#ea580c" opacity="0.85"><title>2025-03-24 | BTC buy 0.00 usd | reason=btc_defensive_regime</title></rect>
<rect x="668.9683486238533" y="542.5" width="6.1000000000000005" height="1.5" fill="#ea580c" opacity="0.85"><title>2025-03-31 | BTC buy 0.00 usd | reason=both_weak_btc_defensive</title></rect>
<rect x="680.161009174312" y="542.5" width="6.1000000000000005" height="1.5" fill="#ea580c" opacity="0.85"><title>2025-04-07 | BTC buy 0.00 usd | reason=both_weak_btc_defensive</title></rect>
<rect x="691.3536697247707" y="542.5" width="6.1000000000000005" height="1.5" fill="#ea580c" opacity="0.85"><title>2025-04-14 | BTC buy 0.00 usd | reason=both_weak_btc_defensive</title></rect>
<rect x="702.5463302752294" y="542.5" width="6.1000000000000005" height="1.5" fill="#ea580c" opacity="0.85"><title>2025-04-21 | BTC buy 0.00 usd | reason=both_weak_btc_defensive</title></rect>
<rect x="713.7389908256881" y="542.5" width="6.1000000000000005" height="1.5" fill="#ea580c" opacity="0.85"><title>2025-04-28 | BTC buy 0.00 usd | reason=btc_defensive_regime</title></rect>
<rect x="724.9316513761468" y="542.5" width="6.1000000000000005" height="1.5" fill="#ea580c" opacity="0.85"><title>2025-05-05 | BTC buy 0.00 usd | reason=btc_defensive_regime</title></rect>
<rect x="736.1243119266056" y="542.5" width="6.1000000000000005" height="1.5" fill="#ea580c" opacity="0.85"><title>2025-05-12 | BTC buy 0.00 usd | reason=btc_defensive_regime</title></rect>
<rect x="747.3169724770643" y="542.5" width="6.1000000000000005" height="1.5" fill="#ea580c" opacity="0.85"><title>2025-05-19 | BTC buy 0.00 usd | reason=btc_defensive_regime</title></rect>
<rect x="758.509633027523" y="542.5" width="6.1000000000000005" height="1.5" fill="#ea580c" opacity="0.85"><title>2025-05-26 | BTC buy 0.00 usd | reason=btc_defensive_regime</title></rect>
<rect x="769.7022935779817" y="542.5" width="6.1000000000000005" height="1.5" fill="#ea580c" opacity="0.85"><title>2025-06-02 | BTC buy 0.00 usd | reason=btc_defensive_regime</title></rect>
<rect x="780.8949541284404" y="542.5" width="6.1000000000000005" height="1.5" fill="#ea580c" opacity="0.85"><title>2025-06-09 | BTC buy 0.00 usd | reason=balanced_regime</title></rect>
<rect x="792.0876146788991" y="542.5" width="6.1000000000000005" height="1.5" fill="#ea580c" opacity="0.85"><title>2025-06-16 | BTC buy 0.00 usd | reason=btc_defensive_regime</title></rect>
<rect x="803.2802752293579" y="542.5" width="6.1000000000000005" height="1.5" fill="#ea580c" opacity="0.85"><title>2025-06-23 | BTC buy 0.00 usd | reason=btc_defensive_regime</title></rect>
<rect x="814.4729357798166" y="542.5" width="6.1000000000000005" height="1.5" fill="#ea580c" opacity="0.85"><title>2025-06-30 | BTC buy 0.00 usd | reason=btc_defensive_regime</title></rect>
<rect x="825.6655963302753" y="542.5" width="6.1000000000000005" height="1.5" fill="#ea580c" opacity="0.85"><title>2025-07-07 | BTC buy 0.00 usd | reason=btc_defensive_regime</title></rect>
<rect x="836.858256880734" y="542.5" width="6.1000000000000005" height="1.5" fill="#ea580c" opacity="0.85"><title>2025-07-14 | BTC buy 0.00 usd | reason=balanced_regime</title></rect>
<rect x="848.0509174311927" y="542.5" width="6.1000000000000005" height="27.395140843754234" fill="#dc2626" opacity="0.85"><title>2025-07-21 | BTC sell 118.35 usd | reason=balanced_regime</title></rect>
<rect x="859.2435779816514" y="542.5" width="6.1000000000000005" height="25.433549823215003" fill="#dc2626" opacity="0.85"><title>2025-07-28 | BTC sell 109.87 usd | reason=balanced_regime</title></rect>
<rect x="870.4362385321102" y="542.5" width="6.1000000000000005" height="22.679750808850144" fill="#dc2626" opacity="0.85"><title>2025-08-04 | BTC sell 97.98 usd | reason=balanced_regime</title></rect>
<rect x="881.6288990825689" y="542.5" width="6.1000000000000005" height="23.322030009295304" fill="#dc2626" opacity="0.85"><title>2025-08-11 | BTC sell 100.75 usd | reason=balanced_regime</title></rect>
<rect x="892.8215596330276" y="542.5" width="6.1000000000000005" height="21.486183295761748" fill="#dc2626" opacity="0.85"><title>2025-08-18 | BTC sell 92.82 usd | reason=balanced_regime</title></rect>
<rect x="904.0142201834863" y="542.5" width="6.1000000000000005" height="19.19003866118169" fill="#dc2626" opacity="0.85"><title>2025-08-25 | BTC sell 82.90 usd | reason=balanced_regime</title></rect>
<rect x="915.206880733945" y="542.5" width="6.1000000000000005" height="15.37293355476254" fill="#dc2626" opacity="0.85"><title>2025-09-01 | BTC sell 66.41 usd | reason=balanced_regime</title></rect>
<rect x="926.3995412844037" y="542.5" width="6.1000000000000005" height="16.252108652417064" fill="#dc2626" opacity="0.85"><title>2025-09-08 | BTC sell 70.21 usd | reason=balanced_regime</title></rect>
<rect x="937.5922018348625" y="542.5" width="6.1000000000000005" height="10.904049223054699" fill="#dc2626" opacity="0.85"><title>2025-09-15 | BTC sell 47.11 usd | reason=balanced_regime</title></rect>
<rect x="948.7848623853212" y="542.5" width="6.1000000000000005" height="13.362902152046445" fill="#dc2626" opacity="0.85"><title>2025-09-22 | BTC sell 57.73 usd | reason=balanced_regime</title></rect>
<rect x="959.9775229357799" y="542.5" width="6.1000000000000005" height="12.557654469610725" fill="#dc2626" opacity="0.85"><title>2025-09-29 | BTC sell 54.25 usd | reason=balanced_regime</title></rect>
<rect x="971.1701834862386" y="542.5" width="6.1000000000000005" height="14.608312113284683" fill="#dc2626" opacity="0.85"><title>2025-10-06 | BTC sell 63.11 usd | reason=balanced_regime</title></rect>
<rect x="982.3628440366973" y="542.5" width="6.1000000000000005" height="10.61665466360148" fill="#dc2626" opacity="0.85"><title>2025-10-13 | BTC sell 45.86 usd | reason=balanced_regime</title></rect>
<rect x="993.555504587156" y="542.5" width="6.1000000000000005" height="1.5" fill="#ea580c" opacity="0.85"><title>2025-10-20 | BTC buy 0.00 usd | reason=balanced_regime</title></rect>
<rect x="1004.7481651376148" y="542.5" width="6.1000000000000005" height="9.160792140778085" fill="#dc2626" opacity="0.85"><title>2025-10-27 | BTC sell 39.57 usd | reason=balanced_regime</title></rect>
<rect x="1015.9408256880735" y="542.5" width="6.1000000000000005" height="1.5" fill="#ea580c" opacity="0.85"><title>2025-11-03 | BTC buy 0.00 usd | reason=balanced_regime</title></rect>
<rect x="1027.1334862385322" y="542.5" width="6.1000000000000005" height="1.5" fill="#ea580c" opacity="0.85"><title>2025-11-10 | BTC buy 0.00 usd | reason=balanced_regime</title></rect>
<rect x="1038.3261467889909" y="524.3411323114603" width="6.1000000000000005" height="18.158867688539658" fill="#ea580c" opacity="0.85"><title>2025-11-17 | BTC buy 78.45 usd | reason=both_weak_btc_defensive</title></rect>
<rect x="1049.5188073394495" y="522.0116819438172" width="6.1000000000000005" height="20.488318056182834" fill="#ea580c" opacity="0.85"><title>2025-11-24 | BTC buy 88.51 usd | reason=both_weak_btc_defensive</title></rect>
<rect x="1060.7114678899081" y="537.7796101330928" width="6.1000000000000005" height="4.720389866907226" fill="#ea580c" opacity="0.85"><title>2025-12-01 | BTC buy 20.39 usd | reason=both_weak_btc_defensive</title></rect>
<rect x="1071.9041284403672" y="524.4972394304323" width="6.1000000000000005" height="18.002760569567727" fill="#ea580c" opacity="0.85"><title>2025-12-08 | BTC buy 77.77 usd | reason=both_weak_btc_defensive</title></rect>
<rect x="1083.0967889908259" y="529.1212288681099" width="6.1000000000000005" height="13.378771131890062" fill="#ea580c" opacity="0.85"><title>2025-12-15 | BTC buy 57.80 usd | reason=both_weak_btc_defensive</title></rect>
<rect x="1094.2894495412845" y="539.9859929828333" width="6.1000000000000005" height="2.514007017166705" fill="#ea580c" opacity="0.85"><title>2025-12-22 | BTC buy 10.86 usd | reason=both_weak_btc_defensive</title></rect>
<rect x="1105.4821100917432" y="542.1033943296617" width="6.1000000000000005" height="1.5" fill="#ea580c" opacity="0.85"><title>2025-12-29 | BTC buy 1.71 usd | reason=both_weak_btc_defensive</title></rect>
<rect x="1116.674770642202" y="542.5" width="6.1000000000000005" height="1.5" fill="#ea580c" opacity="0.85"><title>2026-01-05 | BTC buy 0.00 usd | reason=both_weak_btc_defensive</title></rect>
<rect x="1127.8674311926607" y="542.5" width="6.1000000000000005" height="1.5" fill="#ea580c" opacity="0.85"><title>2026-01-12 | BTC buy 0.00 usd | reason=both_weak_btc_defensive</title></rect>
<rect x="1139.0600917431193" y="540.669084666889" width="6.1000000000000005" height="1.8309153331109655" fill="#ea580c" opacity="0.85"><title>2026-01-19 | BTC buy 7.91 usd | reason=both_weak_btc_defensive</title></rect>
<rect x="1150.252752293578" y="542.5" width="6.1000000000000005" height="1.5" fill="#ea580c" opacity="0.85"><title>2026-01-26 | BTC buy 0.00 usd | reason=both_weak_btc_defensive</title></rect>
<rect x="1161.4454128440368" y="542.5" width="6.1000000000000005" height="1.5" fill="#ea580c" opacity="0.85"><title>2026-02-02 | BTC buy 0.00 usd | reason=both_weak_btc_defensive</title></rect>
<rect x="1172.6380733944954" y="542.5" width="6.1000000000000005" height="1.5" fill="#ea580c" opacity="0.85"><title>2026-02-09 | BTC buy 0.00 usd | reason=both_weak_btc_defensive</title></rect>
<rect x="1183.8307339449543" y="542.5" width="6.1000000000000005" height="1.5" fill="#ea580c" opacity="0.85"><title>2026-02-16 | BTC buy 0.00 usd | reason=both_weak_btc_defensive</title></rect>
<rect x="1195.023394495413" y="542.5" width="6.1000000000000005" height="1.5" fill="#ea580c" opacity="0.85"><title>2026-02-23 | BTC buy 0.00 usd | reason=both_weak_btc_defensive</title></rect>
<rect x="1206.2160550458716" y="542.5" width="6.1000000000000005" height="1.5" fill="#ea580c" opacity="0.85"><title>2026-03-02 | BTC buy 0.00 usd | reason=both_weak_btc_defensive</title></rect>
<rect x="1217.4087155963302" y="542.5" width="6.1000000000000005" height="1.5" fill="#ea580c" opacity="0.85"><title>2026-03-09 | BTC buy 0.00 usd | reason=both_weak_btc_defensive</title></rect>
<rect x="1228.601376146789" y="542.5" width="6.1000000000000005" height="1.5" fill="#ea580c" opacity="0.85"><title>2026-03-16 | BTC buy 0.00 usd | reason=both_weak_btc_defensive</title></rect>
<rect x="1239.7940366972477" y="542.5" width="6.1000000000000005" height="1.5" fill="#ea580c" opacity="0.85"><title>2026-03-23 | BTC buy 0.00 usd | reason=both_weak_btc_defensive</title></rect>
<rect x="1250.9866972477066" y="542.5" width="6.1000000000000005" height="1.5" fill="#ea580c" opacity="0.85"><title>2026-03-30 | BTC buy 0.00 usd | reason=both_weak_btc_defensive</title></rect>
<rect x="1262.1793577981653" y="542.5" width="6.1000000000000005" height="1.5" fill="#ea580c" opacity="0.85"><title>2026-04-06 | BTC buy 0.00 usd | reason=both_weak_btc_defensive</title></rect>
<rect x="1273.372018348624" y="542.5" width="6.1000000000000005" height="1.5" fill="#ea580c" opacity="0.85"><title>2026-04-13 | BTC buy 0.00 usd | reason=both_weak_btc_defensive</title></rect>
<rect x="1284.5646788990825" y="542.5" width="6.1000000000000005" height="1.5" fill="#ea580c" opacity="0.85"><title>2026-04-20 | BTC buy 0.00 usd | reason=both_weak_btc_defensive</title></rect>
<rect x="1295.7573394495414" y="542.5" width="6.1000000000000005" height="1.5" fill="#ea580c" opacity="0.85"><title>2026-04-27 | BTC buy 0.00 usd | reason=both_weak_btc_defensive</title></rect>
<rect x="1306.95" y="542.5" width="6.1000000000000005" height="1.5" fill="#ea580c" opacity="0.85"><title>2026-05-04 | BTC buy 0.00 usd | reason=both_weak_btc_defensive</title></rect>
<text x="24" y="542.5" transform="rotate(-90 24,542.5)" text-anchor="middle" font-family="monospace" font-size="14" fill="#0f172a">BTC weekly trade usd</text>
<line x1="90" y1="770" x2="1310" y2="770" stroke="#334155" stroke-width="2"/>
<line x1="90" y1="645" x2="90" y2="770" stroke="#334155" stroke-width="2"/>
<line x1="90" y1="707.5" x2="1310" y2="707.5" stroke="#64748b" stroke-width="1.5" stroke-dasharray="6 4"/>
<line x1="90" y1="770.0" x2="1310" y2="770.0" stroke="#e2e8f0" stroke-width="1"/>
<text x="78" y="774.0" text-anchor="end" font-family="monospace" font-size="11" fill="#475569">-225</text>
<line x1="90" y1="707.5" x2="1310" y2="707.5" stroke="#e2e8f0" stroke-width="1"/>
<text x="78" y="711.5" text-anchor="end" font-family="monospace" font-size="11" fill="#475569">0</text>
<line x1="90" y1="645.0" x2="1310" y2="645.0" stroke="#e2e8f0" stroke-width="1"/>
<text x="78" y="649.0" text-anchor="end" font-family="monospace" font-size="11" fill="#475569">225</text>
<rect x="86.95" y="676.25" width="6.1000000000000005" height="31.25" fill="#2563eb" opacity="0.85"><title>2024-04-01 | ETH buy 112.50 usd | reason=balanced_regime</title></rect>
<rect x="98.14266055045871" y="682.5" width="6.1000000000000005" height="25.0" fill="#2563eb" opacity="0.85"><title>2024-04-08 | ETH buy 90.00 usd | reason=btc_defensive_regime</title></rect>
<rect x="109.33532110091744" y="682.5" width="6.1000000000000005" height="25.0" fill="#2563eb" opacity="0.85"><title>2024-04-15 | ETH buy 90.00 usd | reason=btc_defensive_regime</title></rect>
<rect x="120.52798165137615" y="682.5" width="6.1000000000000005" height="25.0" fill="#2563eb" opacity="0.85"><title>2024-04-22 | ETH buy 90.00 usd | reason=btc_defensive_regime</title></rect>
<rect x="131.72064220183486" y="682.5" width="6.1000000000000005" height="25.0" fill="#2563eb" opacity="0.85"><title>2024-04-29 | ETH buy 90.00 usd | reason=btc_defensive_regime</title></rect>
<rect x="142.91330275229356" y="682.5" width="6.1000000000000005" height="25.0" fill="#2563eb" opacity="0.85"><title>2024-05-06 | ETH buy 90.00 usd | reason=btc_defensive_regime</title></rect>
<rect x="154.1059633027523" y="682.5" width="6.1000000000000005" height="25.0" fill="#2563eb" opacity="0.85"><title>2024-05-13 | ETH buy 90.00 usd | reason=btc_defensive_regime</title></rect>
<rect x="165.29862385321098" y="682.5" width="6.1000000000000005" height="25.0" fill="#2563eb" opacity="0.85"><title>2024-05-20 | ETH buy 90.00 usd | reason=btc_defensive_regime</title></rect>
<rect x="176.49128440366974" y="676.25" width="6.1000000000000005" height="31.25" fill="#2563eb" opacity="0.85"><title>2024-05-27 | ETH buy 112.50 usd | reason=balanced_regime</title></rect>
<rect x="187.68394495412844" y="682.5" width="6.1000000000000005" height="25.0" fill="#2563eb" opacity="0.85"><title>2024-06-03 | ETH buy 90.00 usd | reason=btc_defensive_regime</title></rect>
<rect x="198.87660550458713" y="676.25" width="6.1000000000000005" height="31.25" fill="#2563eb" opacity="0.85"><title>2024-06-10 | ETH buy 112.50 usd | reason=balanced_regime</title></rect>
<rect x="210.0692660550459" y="676.25" width="6.1000000000000005" height="31.25" fill="#2563eb" opacity="0.85"><title>2024-06-17 | ETH buy 112.50 usd | reason=balanced_regime</title></rect>
<rect x="221.26192660550458" y="648.8194444444445" width="6.1000000000000005" height="58.68055555555554" fill="#2563eb" opacity="0.85"><title>2024-06-24 | ETH buy 211.25 usd | reason=eth_strong_risk_on</title></rect>
<rect x="232.4545871559633" y="676.25" width="6.1000000000000005" height="31.25" fill="#2563eb" opacity="0.85"><title>2024-07-01 | ETH buy 112.50 usd | reason=balanced_regime</title></rect>
<rect x="243.647247706422" y="657.5" width="6.1000000000000005" height="50.0" fill="#2563eb" opacity="0.85"><title>2024-07-08 | ETH buy 180.00 usd | reason=both_weak_btc_defensive</title></rect>
<rect x="254.83990825688073" y="676.25" width="6.1000000000000005" height="31.25" fill="#2563eb" opacity="0.85"><title>2024-07-15 | ETH buy 112.50 usd | reason=balanced_regime</title></rect>
<rect x="266.0325688073395" y="676.25" width="6.1000000000000005" height="31.25" fill="#2563eb" opacity="0.85"><title>2024-07-22 | ETH buy 112.50 usd | reason=balanced_regime</title></rect>
<rect x="277.2252293577981" y="676.25" width="6.1000000000000005" height="31.25" fill="#2563eb" opacity="0.85"><title>2024-07-29 | ETH buy 112.50 usd | reason=balanced_regime</title></rect>
<rect x="288.4178899082569" y="657.5" width="6.1000000000000005" height="50.0" fill="#2563eb" opacity="0.85"><title>2024-08-05 | ETH buy 180.00 usd | reason=both_weak_btc_defensive</title></rect>
<rect x="299.61055045871564" y="657.5" width="6.1000000000000005" height="50.0" fill="#2563eb" opacity="0.85"><title>2024-08-12 | ETH buy 180.00 usd | reason=both_weak_btc_defensive</title></rect>
<rect x="310.8032110091743" y="657.5" width="6.1000000000000005" height="50.0" fill="#2563eb" opacity="0.85"><title>2024-08-19 | ETH buy 180.00 usd | reason=both_weak_btc_defensive</title></rect>
<rect x="321.99587155963303" y="657.5" width="6.1000000000000005" height="50.0" fill="#2563eb" opacity="0.85"><title>2024-08-26 | ETH buy 180.00 usd | reason=both_weak_btc_defensive</title></rect>
<rect x="333.1885321100918" y="657.5" width="6.1000000000000005" height="50.0" fill="#2563eb" opacity="0.85"><title>2024-09-02 | ETH buy 180.00 usd | reason=both_weak_btc_defensive</title></rect>
<rect x="344.3811926605505" y="657.5" width="6.1000000000000005" height="50.0" fill="#2563eb" opacity="0.85"><title>2024-09-09 | ETH buy 180.00 usd | reason=both_weak_btc_defensive</title></rect>
<rect x="355.5738532110092" y="657.5" width="6.1000000000000005" height="50.0" fill="#2563eb" opacity="0.85"><title>2024-09-16 | ETH buy 180.00 usd | reason=both_weak_btc_defensive</title></rect>
<rect x="366.7665137614679" y="657.5" width="6.1000000000000005" height="50.0" fill="#2563eb" opacity="0.85"><title>2024-09-23 | ETH buy 180.00 usd | reason=both_weak_btc_defensive</title></rect>
<rect x="377.95917431192663" y="657.5" width="6.1000000000000005" height="50.0" fill="#2563eb" opacity="0.85"><title>2024-09-30 | ETH buy 180.00 usd | reason=both_weak_btc_defensive</title></rect>
<rect x="389.15183486238533" y="657.5" width="6.1000000000000005" height="50.0" fill="#2563eb" opacity="0.85"><title>2024-10-07 | ETH buy 180.00 usd | reason=both_weak_btc_defensive</title></rect>
<rect x="400.344495412844" y="682.5" width="6.1000000000000005" height="25.0" fill="#2563eb" opacity="0.85"><title>2024-10-14 | ETH buy 90.00 usd | reason=btc_defensive_regime</title></rect>
<rect x="411.5371559633028" y="682.5" width="6.1000000000000005" height="25.0" fill="#2563eb" opacity="0.85"><title>2024-10-21 | ETH buy 90.00 usd | reason=btc_defensive_regime</title></rect>
<rect x="422.7298165137615" y="682.5" width="6.1000000000000005" height="25.0" fill="#2563eb" opacity="0.85"><title>2024-10-28 | ETH buy 90.00 usd | reason=btc_defensive_regime</title></rect>
<rect x="433.9224770642202" y="682.5" width="6.1000000000000005" height="25.0" fill="#2563eb" opacity="0.85"><title>2024-11-04 | ETH buy 90.00 usd | reason=btc_defensive_regime</title></rect>
<rect x="445.11513761467893" y="682.5" width="6.1000000000000005" height="25.0" fill="#2563eb" opacity="0.85"><title>2024-11-11 | ETH buy 90.00 usd | reason=btc_defensive_regime</title></rect>
<rect x="456.3077981651376" y="682.5" width="6.1000000000000005" height="25.0" fill="#2563eb" opacity="0.85"><title>2024-11-18 | ETH buy 90.00 usd | reason=btc_defensive_regime</title></rect>
<rect x="467.5004587155963" y="682.5" width="6.1000000000000005" height="25.0" fill="#2563eb" opacity="0.85"><title>2024-11-25 | ETH buy 90.00 usd | reason=btc_defensive_regime</title></rect>
<rect x="478.6931192660551" y="682.5" width="6.1000000000000005" height="25.0" fill="#2563eb" opacity="0.85"><title>2024-12-02 | ETH buy 90.00 usd | reason=btc_defensive_regime</title></rect>
<rect x="489.8857798165138" y="682.5" width="6.1000000000000005" height="25.0" fill="#2563eb" opacity="0.85"><title>2024-12-09 | ETH buy 90.00 usd | reason=btc_defensive_regime</title></rect>
<rect x="501.0784403669725" y="675.227839251937" width="6.1000000000000005" height="32.272160748063015" fill="#2563eb" opacity="0.85"><title>2024-12-16 | ETH buy 116.18 usd | reason=btc_defensive_regime</title></rect>
<rect x="512.2711009174313" y="671.5809566063703" width="6.1000000000000005" height="35.91904339362975" fill="#2563eb" opacity="0.85"><title>2024-12-23 | ETH buy 129.31 usd | reason=btc_defensive_regime</title></rect>
<rect x="523.46376146789" y="666.6541090749987" width="6.1000000000000005" height="40.8458909250013" fill="#2563eb" opacity="0.85"><title>2024-12-30 | ETH buy 147.05 usd | reason=btc_defensive_regime</title></rect>
<rect x="534.6564220183486" y="650.3085438640455" width="6.1000000000000005" height="57.19145613595447" fill="#2563eb" opacity="0.85"><title>2025-01-06 | ETH buy 205.89 usd | reason=btc_defensive_regime</title></rect>
<rect x="545.8490825688075" y="645.0" width="6.1000000000000005" height="62.5" fill="#2563eb" opacity="0.85"><title>2025-01-13 | ETH buy 225.00 usd | reason=btc_defensive_regime</title></rect>
<rect x="557.0417431192661" y="647.161545154522" width="6.1000000000000005" height="60.338454845478054" fill="#2563eb" opacity="0.85"><title>2025-01-20 | ETH buy 217.22 usd | reason=btc_defensive_regime</title></rect>
<rect x="568.2344036697248" y="658.0041523366258" width="6.1000000000000005" height="49.49584766337421" fill="#2563eb" opacity="0.85"><title>2025-01-27 | ETH buy 178.19 usd | reason=btc_defensive_regime</title></rect>
<rect x="579.4270642201836" y="645.0" width="6.1000000000000005" height="62.5" fill="#2563eb" opacity="0.85"><title>2025-02-03 | ETH buy 225.00 usd | reason=btc_defensive_regime</title></rect>
<rect x="590.6197247706423" y="645.0" width="6.1000000000000005" height="62.5" fill="#2563eb" opacity="0.85"><title>2025-02-10 | ETH buy 225.00 usd | reason=btc_defensive_regime</title></rect>
<rect x="601.812385321101" y="688.8544520337596" width="6.1000000000000005" height="18.64554796624043" fill="#2563eb" opacity="0.85"><title>2025-02-17 | ETH buy 67.12 usd | reason=btc_defensive_regime</title></rect>
<rect x="613.0050458715597" y="676.3888045129706" width="6.1000000000000005" height="31.111195487029363" fill="#2563eb" opacity="0.85"><title>2025-02-24 | ETH buy 112.00 usd | reason=btc_defensive_regime</title></rect>
<rect x="624.1977064220184" y="650.7037695536333" width="6.1000000000000005" height="56.796230446366735" fill="#2563eb" opacity="0.85"><title>2025-03-03 | ETH buy 204.47 usd | reason=btc_defensive_regime</title></rect>
<rect x="635.3903669724772" y="707.5" width="6.1000000000000005" height="1.5" fill="#2563eb" opacity="0.85"><title>2025-03-10 | ETH buy 0.00 usd | reason=both_weak_btc_defensive</title></rect>
<rect x="646.5830275229358" y="707.5" width="6.1000000000000005" height="1.5" fill="#2563eb" opacity="0.85"><title>2025-03-17 | ETH buy 0.00 usd | reason=both_weak_btc_defensive</title></rect>
<rect x="657.7756880733946" y="657.3390547279107" width="6.1000000000000005" height="50.16094527208929" fill="#2563eb" opacity="0.85"><title>2025-03-24 | ETH buy 180.58 usd | reason=btc_defensive_regime</title></rect>
<rect x="668.9683486238533" y="707.5" width="6.1000000000000005" height="1.5" fill="#2563eb" opacity="0.85"><title>2025-03-31 | ETH buy 0.00 usd | reason=both_weak_btc_defensive</title></rect>
<rect x="680.161009174312" y="675.9863508938572" width="6.1000000000000005" height="31.513649106142793" fill="#2563eb" opacity="0.85"><title>2025-04-07 | ETH buy 113.45 usd | reason=both_weak_btc_defensive</title></rect>
<rect x="691.3536697247707" y="683.9712917005369" width="6.1000000000000005" height="23.52870829946312" fill="#2563eb" opacity="0.85"><title>2025-04-14 | ETH buy 84.70 usd | reason=both_weak_btc_defensive</title></rect>
<rect x="702.5463302752294" y="675.0740723134941" width="6.1000000000000005" height="32.42592768650593" fill="#2563eb" opacity="0.85"><title>2025-04-21 | ETH buy 116.73 usd | reason=both_weak_btc_defensive</title></rect>
<rect x="713.7389908256881" y="645.0" width="6.1000000000000005" height="62.5" fill="#2563eb" opacity="0.85"><title>2025-04-28 | ETH buy 225.00 usd | reason=btc_defensive_regime</title></rect>
<rect x="724.9316513761468" y="668.8018165819025" width="6.1000000000000005" height="38.69818341809753" fill="#2563eb" opacity="0.85"><title>2025-05-05 | ETH buy 139.31 usd | reason=btc_defensive_regime</title></rect>
<rect x="736.1243119266056" y="707.5" width="6.1000000000000005" height="1.5" fill="#2563eb" opacity="0.85"><title>2025-05-12 | ETH buy 0.00 usd | reason=btc_defensive_regime</title></rect>
<rect x="747.3169724770643" y="707.5" width="6.1000000000000005" height="1.5" fill="#2563eb" opacity="0.85"><title>2025-05-19 | ETH buy 0.00 usd | reason=btc_defensive_regime</title></rect>
<rect x="758.509633027523" y="707.5" width="6.1000000000000005" height="1.5" fill="#2563eb" opacity="0.85"><title>2025-05-26 | ETH buy 0.00 usd | reason=btc_defensive_regime</title></rect>
<rect x="769.7022935779817" y="707.5" width="6.1000000000000005" height="1.5" fill="#2563eb" opacity="0.85"><title>2025-06-02 | ETH buy 0.00 usd | reason=btc_defensive_regime</title></rect>
<rect x="780.8949541284404" y="645.0" width="6.1000000000000005" height="62.5" fill="#2563eb" opacity="0.85"><title>2025-06-09 | ETH buy 225.00 usd | reason=balanced_regime</title></rect>
<rect x="792.0876146788991" y="707.5" width="6.1000000000000005" height="1.5" fill="#2563eb" opacity="0.85"><title>2025-06-16 | ETH buy 0.00 usd | reason=btc_defensive_regime</title></rect>
<rect x="803.2802752293579" y="707.5" width="6.1000000000000005" height="1.5" fill="#2563eb" opacity="0.85"><title>2025-06-23 | ETH buy 0.00 usd | reason=btc_defensive_regime</title></rect>
<rect x="814.4729357798166" y="707.5" width="6.1000000000000005" height="1.5" fill="#2563eb" opacity="0.85"><title>2025-06-30 | ETH buy 0.00 usd | reason=btc_defensive_regime</title></rect>
<rect x="825.6655963302753" y="707.5" width="6.1000000000000005" height="1.5" fill="#2563eb" opacity="0.85"><title>2025-07-07 | ETH buy 0.00 usd | reason=btc_defensive_regime</title></rect>
<rect x="836.858256880734" y="657.9883659231768" width="6.1000000000000005" height="49.51163407682316" fill="#2563eb" opacity="0.85"><title>2025-07-14 | ETH buy 178.24 usd | reason=balanced_regime</title></rect>
<rect x="848.0509174311927" y="707.5" width="6.1000000000000005" height="32.87416901250515" fill="#7c3aed" opacity="0.85"><title>2025-07-21 | ETH sell 118.35 usd | reason=balanced_regime</title></rect>
<rect x="859.2435779816514" y="707.5" width="6.1000000000000005" height="30.520259787858095" fill="#7c3aed" opacity="0.85"><title>2025-07-28 | ETH sell 109.87 usd | reason=balanced_regime</title></rect>
<rect x="870.4362385321102" y="707.5" width="6.1000000000000005" height="27.21570097062022" fill="#7c3aed" opacity="0.85"><title>2025-08-04 | ETH sell 97.98 usd | reason=balanced_regime</title></rect>
<rect x="881.6288990825689" y="707.5" width="6.1000000000000005" height="27.98643601115441" fill="#7c3aed" opacity="0.85"><title>2025-08-11 | ETH sell 100.75 usd | reason=balanced_regime</title></rect>
<rect x="892.8215596330276" y="707.5" width="6.1000000000000005" height="25.783419954914052" fill="#7c3aed" opacity="0.85"><title>2025-08-18 | ETH sell 92.82 usd | reason=balanced_regime</title></rect>
<rect x="904.0142201834863" y="707.5" width="6.1000000000000005" height="23.02804639341798" fill="#7c3aed" opacity="0.85"><title>2025-08-25 | ETH sell 82.90 usd | reason=balanced_regime</title></rect>
<rect x="915.206880733945" y="707.5" width="6.1000000000000005" height="23.07494276213197" fill="#7c3aed" opacity="0.85"><title>2025-09-01 | ETH sell 83.07 usd | reason=balanced_regime</title></rect>
<rect x="926.3995412844037" y="707.5" width="6.1000000000000005" height="19.50253038290043" fill="#7c3aed" opacity="0.85"><title>2025-09-08 | ETH sell 70.21 usd | reason=balanced_regime</title></rect>
<rect x="937.5922018348625" y="707.5" width="6.1000000000000005" height="25.803663827048922" fill="#7c3aed" opacity="0.85"><title>2025-09-15 | ETH sell 92.89 usd | reason=balanced_regime</title></rect>
<rect x="948.7848623853212" y="707.5" width="6.1000000000000005" height="16.035482582455757" fill="#7c3aed" opacity="0.85"><title>2025-09-22 | ETH sell 57.73 usd | reason=balanced_regime</title></rect>
<rect x="959.9775229357799" y="707.5" width="6.1000000000000005" height="15.069185363532824" fill="#7c3aed" opacity="0.85"><title>2025-09-29 | ETH sell 54.25 usd | reason=balanced_regime</title></rect>
<rect x="971.1701834862386" y="707.5" width="6.1000000000000005" height="17.52997453594162" fill="#7c3aed" opacity="0.85"><title>2025-10-06 | ETH sell 63.11 usd | reason=balanced_regime</title></rect>
<rect x="982.3628440366973" y="707.5" width="6.1000000000000005" height="12.73998559632173" fill="#7c3aed" opacity="0.85"><title>2025-10-13 | ETH sell 45.86 usd | reason=balanced_regime</title></rect>
<rect x="993.555504587156" y="707.5" width="6.1000000000000005" height="1.5" fill="#2563eb" opacity="0.85"><title>2025-10-20 | ETH buy 0.00 usd | reason=balanced_regime</title></rect>
<rect x="1004.7481651376148" y="707.5" width="6.1000000000000005" height="10.992950568933793" fill="#7c3aed" opacity="0.85"><title>2025-10-27 | ETH sell 39.57 usd | reason=balanced_regime</title></rect>
<rect x="1015.9408256880735" y="707.5" width="6.1000000000000005" height="1.5" fill="#2563eb" opacity="0.85"><title>2025-11-03 | ETH buy 0.00 usd | reason=balanced_regime</title></rect>
<rect x="1027.1334862385322" y="707.5" width="6.1000000000000005" height="1.5" fill="#2563eb" opacity="0.85"><title>2025-11-10 | ETH buy 0.00 usd | reason=balanced_regime</title></rect>
<rect x="1038.3261467889909" y="707.5" width="6.1000000000000005" height="1.5" fill="#2563eb" opacity="0.85"><title>2025-11-17 | ETH buy 0.00 usd | reason=both_weak_btc_defensive</title></rect>
<rect x="1049.5188073394495" y="707.5" width="6.1000000000000005" height="1.5" fill="#2563eb" opacity="0.85"><title>2025-11-24 | ETH buy 0.00 usd | reason=both_weak_btc_defensive</title></rect>
<rect x="1060.7114678899081" y="707.5" width="6.1000000000000005" height="1.5" fill="#2563eb" opacity="0.85"><title>2025-12-01 | ETH buy 0.00 usd | reason=both_weak_btc_defensive</title></rect>
<rect x="1071.9041284403672" y="707.5" width="6.1000000000000005" height="1.5" fill="#2563eb" opacity="0.85"><title>2025-12-08 | ETH buy 0.00 usd | reason=both_weak_btc_defensive</title></rect>
<rect x="1083.0967889908259" y="707.5" width="6.1000000000000005" height="1.5" fill="#2563eb" opacity="0.85"><title>2025-12-15 | ETH buy 0.00 usd | reason=both_weak_btc_defensive</title></rect>
<rect x="1094.2894495412845" y="707.5" width="6.1000000000000005" height="1.5" fill="#2563eb" opacity="0.85"><title>2025-12-22 | ETH buy 0.00 usd | reason=both_weak_btc_defensive</title></rect>
<rect x="1105.4821100917432" y="707.5" width="6.1000000000000005" height="1.5" fill="#2563eb" opacity="0.85"><title>2025-12-29 | ETH buy 0.00 usd | reason=both_weak_btc_defensive</title></rect>
<rect x="1116.674770642202" y="707.5" width="6.1000000000000005" height="1.5" fill="#2563eb" opacity="0.85"><title>2026-01-05 | ETH buy 0.00 usd | reason=both_weak_btc_defensive</title></rect>
<rect x="1127.8674311926607" y="707.5" width="6.1000000000000005" height="1.5" fill="#2563eb" opacity="0.85"><title>2026-01-12 | ETH buy 0.00 usd | reason=both_weak_btc_defensive</title></rect>
<rect x="1139.0600917431193" y="707.5" width="6.1000000000000005" height="1.5" fill="#2563eb" opacity="0.85"><title>2026-01-19 | ETH buy 0.00 usd | reason=both_weak_btc_defensive</title></rect>
<rect x="1150.252752293578" y="707.5" width="6.1000000000000005" height="1.5" fill="#2563eb" opacity="0.85"><title>2026-01-26 | ETH buy 0.00 usd | reason=both_weak_btc_defensive</title></rect>
<rect x="1161.4454128440368" y="707.5" width="6.1000000000000005" height="1.5" fill="#2563eb" opacity="0.85"><title>2026-02-02 | ETH buy 0.00 usd | reason=both_weak_btc_defensive</title></rect>
<rect x="1172.6380733944954" y="707.5" width="6.1000000000000005" height="1.5" fill="#2563eb" opacity="0.85"><title>2026-02-09 | ETH buy 0.00 usd | reason=both_weak_btc_defensive</title></rect>
<rect x="1183.8307339449543" y="707.5" width="6.1000000000000005" height="1.5" fill="#2563eb" opacity="0.85"><title>2026-02-16 | ETH buy 0.00 usd | reason=both_weak_btc_defensive</title></rect>
<rect x="1195.023394495413" y="707.5" width="6.1000000000000005" height="1.5" fill="#2563eb" opacity="0.85"><title>2026-02-23 | ETH buy 0.00 usd | reason=both_weak_btc_defensive</title></rect>
<rect x="1206.2160550458716" y="707.5" width="6.1000000000000005" height="1.5" fill="#2563eb" opacity="0.85"><title>2026-03-02 | ETH buy 0.00 usd | reason=both_weak_btc_defensive</title></rect>
<rect x="1217.4087155963302" y="707.5" width="6.1000000000000005" height="1.5" fill="#2563eb" opacity="0.85"><title>2026-03-09 | ETH buy 0.00 usd | reason=both_weak_btc_defensive</title></rect>
<rect x="1228.601376146789" y="707.5" width="6.1000000000000005" height="1.5" fill="#2563eb" opacity="0.85"><title>2026-03-16 | ETH buy 0.00 usd | reason=both_weak_btc_defensive</title></rect>
<rect x="1239.7940366972477" y="707.5" width="6.1000000000000005" height="1.5" fill="#2563eb" opacity="0.85"><title>2026-03-23 | ETH buy 0.00 usd | reason=both_weak_btc_defensive</title></rect>
<rect x="1250.9866972477066" y="707.5" width="6.1000000000000005" height="1.5" fill="#2563eb" opacity="0.85"><title>2026-03-30 | ETH buy 0.00 usd | reason=both_weak_btc_defensive</title></rect>
<rect x="1262.1793577981653" y="707.5" width="6.1000000000000005" height="1.5" fill="#2563eb" opacity="0.85"><title>2026-04-06 | ETH buy 0.00 usd | reason=both_weak_btc_defensive</title></rect>
<rect x="1273.372018348624" y="707.5" width="6.1000000000000005" height="1.5" fill="#2563eb" opacity="0.85"><title>2026-04-13 | ETH buy 0.00 usd | reason=both_weak_btc_defensive</title></rect>
<rect x="1284.5646788990825" y="707.5" width="6.1000000000000005" height="1.5" fill="#2563eb" opacity="0.85"><title>2026-04-20 | ETH buy 0.00 usd | reason=both_weak_btc_defensive</title></rect>
<rect x="1295.7573394495414" y="707.5" width="6.1000000000000005" height="1.5" fill="#2563eb" opacity="0.85"><title>2026-04-27 | ETH buy 0.00 usd | reason=both_weak_btc_defensive</title></rect>
<rect x="1306.95" y="707.5" width="6.1000000000000005" height="1.5" fill="#2563eb" opacity="0.85"><title>2026-05-04 | ETH buy 0.00 usd | reason=both_weak_btc_defensive</title></rect>
<text x="24" y="707.5" transform="rotate(-90 24,707.5)" text-anchor="middle" font-family="monospace" font-size="14" fill="#0f172a">ETH weekly trade usd</text>
<rect x="1040" y="478" width="14" height="10" fill="#ea580c" opacity="0.85"/>
<text x="1062" y="488" font-family="monospace" font-size="11" fill="#0f172a">BTC buy</text>
<rect x="1190" y="478" width="14" height="10" fill="#dc2626" opacity="0.85"/>
<text x="1212" y="488" font-family="monospace" font-size="11" fill="#0f172a">BTC sell</text>
<rect x="1040" y="498" width="14" height="10" fill="#2563eb" opacity="0.85"/>
<text x="1062" y="508" font-family="monospace" font-size="11" fill="#0f172a">ETH buy</text>
<rect x="1190" y="498" width="14" height="10" fill="#7c3aed" opacity="0.85"/>
<text x="1212" y="508" font-family="monospace" font-size="11" fill="#0f172a">ETH sell</text>
</svg>