<svg xmlns="http://www.w3.org/2000/svg" width="1400" height="800">
<rect width="1400" height="800" fill="#f8fafc"/>
<text x="700.0" y="42" text-anchor="middle" font-family="monospace" font-size="24" fill="#0f172a">budgeted_drawdown_tilt_rebalance | weekly | start=2024-04-01 | return=35.28%</text>
<line x1="90" y1="420" x2="1310" y2="420" stroke="#334155" stroke-width="2"/>
<line x1="90" y1="90" x2="90" y2="420" stroke="#334155" stroke-width="2"/>
<line x1="90.0" y1="420" x2="90.0" y2="90" stroke="#94a3b8" stroke-width="1.2"/>
<line x1="90.0" y1="605" x2="90.0" y2="480" stroke="#94a3b8" stroke-width="1.2"/>
<line x1="90.0" y1="770" x2="90.0" y2="645" stroke="#94a3b8" stroke-width="1.2"/>
<text x="90.0" y="788" text-anchor="middle" font-family="monospace" font-size="11" fill="#334155">2024-04</text>
<line x1="145.96330275229357" y1="420" x2="145.96330275229357" y2="90" stroke="#94a3b8" stroke-width="1.2"/>
<line x1="145.96330275229357" y1="605" x2="145.96330275229357" y2="480" stroke="#94a3b8" stroke-width="1.2"/>
<line x1="145.96330275229357" y1="770" x2="145.96330275229357" y2="645" stroke="#94a3b8" stroke-width="1.2"/>
<text x="145.96330275229357" y="788" text-anchor="middle" font-family="monospace" font-size="11" fill="#334155">2024-05</text>
<line x1="190.73394495412845" y1="420" x2="190.73394495412845" y2="90" stroke="#94a3b8" stroke-width="1.2"/>
<line x1="190.73394495412845" y1="605" x2="190.73394495412845" y2="480" stroke="#94a3b8" stroke-width="1.2"/>
<line x1="190.73394495412845" y1="770" x2="190.73394495412845" y2="645" stroke="#94a3b8" stroke-width="1.2"/>
<text x="190.73394495412845" y="788" text-anchor="middle" font-family="monospace" font-size="11" fill="#334155">2024-06</text>
<line x1="235.50458715596332" y1="420" x2="235.50458715596332" y2="90" stroke="#94a3b8" stroke-width="1.2"/>
<line x1="235.50458715596332" y1="605" x2="235.50458715596332" y2="480" stroke="#94a3b8" stroke-width="1.2"/>
<line x1="235.50458715596332" y1="770" x2="235.50458715596332" y2="645" stroke="#94a3b8" stroke-width="1.2"/>
<text x="235.50458715596332" y="788" text-anchor="middle" font-family="monospace" font-size="11" fill="#334155">2024-07</text>
<line x1="291.4678899082569" y1="420" x2="291.4678899082569" y2="90" stroke="#94a3b8" stroke-width="1.2"/>
<line x1="291.4678899082569" y1="605" x2="291.4678899082569" y2="480" stroke="#94a3b8" stroke-width="1.2"/>
<line x1="291.4678899082569" y1="770" x2="291.4678899082569" y2="645" stroke="#94a3b8" stroke-width="1.2"/>
<text x="291.4678899082569" y="788" text-anchor="middle" font-family="monospace" font-size="11" fill="#334155">2024-08</text>
<line x1="336.2385321100918" y1="420" x2="336.2385321100918" y2="90" stroke="#94a3b8" stroke-width="1.2"/>
<line x1="336.2385321100918" y1="605" x2="336.2385321100918" y2="480" stroke="#94a3b8" stroke-width="1.2"/>
<line x1="336.2385321100918" y1="770" x2="336.2385321100918" y2="645" stroke="#94a3b8" stroke-width="1.2"/>
<text x="336.2385321100918" y="788" text-anchor="middle" font-family="monospace" font-size="11" fill="#334155">2024-09</text>
<line x1="392.20183486238534" y1="420" x2="392.20183486238534" y2="90" stroke="#94a3b8" stroke-width="1.2"/>
<line x1="392.20183486238534" y1="605" x2="392.20183486238534" y2="480" stroke="#94a3b8" stroke-width="1.2"/>
<line x1="392.20183486238534" y1="770" x2="392.20183486238534" y2="645" stroke="#94a3b8" stroke-width="1.2"/>
<text x="392.20183486238534" y="788" text-anchor="middle" font-family="monospace" font-size="11" fill="#334155">2024-10</text>
<line x1="436.9724770642202" y1="420" x2="436.9724770642202" y2="90" stroke="#94a3b8" stroke-width="1.2"/>
<line x1="436.9724770642202" y1="605" x2="436.9724770642202" y2="480" stroke="#94a3b8" stroke-width="1.2"/>
<line x1="436.9724770642202" y1="770" x2="436.9724770642202" y2="645" stroke="#94a3b8" stroke-width="1.2"/>
<text x="436.9724770642202" y="788" text-anchor="middle" font-family="monospace" font-size="11" fill="#334155">2024-11</text>
<line x1="481.7431192660551" y1="420" x2="481.7431192660551" y2="90" stroke="#94a3b8" stroke-width="1.2"/>
<line x1="481.7431192660551" y1="605" x2="481.7431192660551" y2="480" stroke="#94a3b8" stroke-width="1.2"/>
<line x1="481.7431192660551" y1="770" x2="481.7431192660551" y2="645" stroke="#94a3b8" stroke-width="1.2"/>
<text x="481.7431192660551" y="788" text-anchor="middle" font-family="monospace" font-size="11" fill="#334155">2024-12</text>
<line x1="537.7064220183486" y1="420" x2="537.7064220183486" y2="90" stroke="#94a3b8" stroke-width="1.2"/>
<line x1="537.7064220183486" y1="605" x2="537.7064220183486" y2="480" stroke="#94a3b8" stroke-width="1.2"/>
<line x1="537.7064220183486" y1="770" x2="537.7064220183486" y2="645" stroke="#94a3b8" stroke-width="1.2"/>
<text x="537.7064220183486" y="788" text-anchor="middle" font-family="monospace" font-size="11" fill="#334155">2025-01</text>
<line x1="582.4770642201836" y1="420" x2="582.4770642201836" y2="90" stroke="#94a3b8" stroke-width="1.2"/>
<line x1="582.4770642201836" y1="605" x2="582.4770642201836" y2="480" stroke="#94a3b8" stroke-width="1.2"/>
<line x1="582.4770642201836" y1="770" x2="582.4770642201836" y2="645" stroke="#94a3b8" stroke-width="1.2"/>
<text x="582.4770642201836" y="788" text-anchor="middle" font-family="monospace" font-size="11" fill="#334155">2025-02</text>
<line x1="627.2477064220184" y1="420" x2="627.2477064220184" y2="90" stroke="#94a3b8" stroke-width="1.2"/>
<line x1="627.2477064220184" y1="605" x2="627.2477064220184" y2="480" stroke="#94a3b8" stroke-width="1.2"/>
<line x1="627.2477064220184" y1="770" x2="627.2477064220184" y2="645" stroke="#94a3b8" stroke-width="1.2"/>
<text x="627.2477064220184" y="788" text-anchor="middle" font-family="monospace" font-size="11" fill="#334155">2025-03</text>
<line x1="683.2110091743119" y1="420" x2="683.2110091743119" y2="90" stroke="#94a3b8" stroke-width="1.2"/>
<line x1="683.2110091743119" y1="605" x2="683.2110091743119" y2="480" stroke="#94a3b8" stroke-width="1.2"/>
<line x1="683.2110091743119" y1="770" x2="683.2110091743119" y2="645" stroke="#94a3b8" stroke-width="1.2"/>
<text x="683.2110091743119" y="788" text-anchor="middle" font-family="monospace" font-size="11" fill="#334155">2025-04</text>
<line x1="727.9816513761467" y1="420" x2="727.9816513761467" y2="90" stroke="#94a3b8" stroke-width="1.2"/>
<line x1="727.9816513761467" y1="605" x2="727.9816513761467" y2="480" stroke="#94a3b8" stroke-width="1.2"/>
<line x1="727.9816513761467" y1="770" x2="727.9816513761467" y2="645" stroke="#94a3b8" stroke-width="1.2"/>
<text x="727.9816513761467" y="788" text-anchor="middle" font-family="monospace" font-size="11" fill="#334155">2025-05</text>
<line x1="772.7522935779816" y1="420" x2="772.7522935779816" y2="90" stroke="#94a3b8" stroke-width="1.2"/>
<line x1="772.7522935779816" y1="605" x2="772.7522935779816" y2="480" stroke="#94a3b8" stroke-width="1.2"/>
<line x1="772.7522935779816" y1="770" x2="772.7522935779816" y2="645" stroke="#94a3b8" stroke-width="1.2"/>
<text x="772.7522935779816" y="788" text-anchor="middle" font-family="monospace" font-size="11" fill="#334155">2025-06</text>
<line x1="828.7155963302753" y1="420" x2="828.7155963302753" y2="90" stroke="#94a3b8" stroke-width="1.2"/>
<line x1="828.7155963302753" y1="605" x2="828.7155963302753" y2="480" stroke="#94a3b8" stroke-width="1.2"/>
<line x1="828.7155963302753" y1="770" x2="828.7155963302753" y2="645" stroke="#94a3b8" stroke-width="1.2"/>
<text x="828.7155963302753" y="788" text-anchor="middle" font-family="monospace" font-size="11" fill="#334155">2025-07</text>
<line x1="873.4862385321102" y1="420" x2="873.4862385321102" y2="90" stroke="#94a3b8" stroke-width="1.2"/>
<line x1="873.4862385321102" y1="605" x2="873.4862385321102" y2="480" stroke="#94a3b8" stroke-width="1.2"/>
<line x1="873.4862385321102" y1="770" x2="873.4862385321102" y2="645" stroke="#94a3b8" stroke-width="1.2"/>
<text x="873.4862385321102" y="788" text-anchor="middle" font-family="monospace" font-size="11" fill="#334155">2025-08</text>
<line x1="918.256880733945" y1="420" x2="918.256880733945" y2="90" stroke="#94a3b8" stroke-width="1.2"/>
<line x1="918.256880733945" y1="605" x2="918.256880733945" y2="480" stroke="#94a3b8" stroke-width="1.2"/>
<line x1="918.256880733945" y1="770" x2="918.256880733945" y2="645" stroke="#94a3b8" stroke-width="1.2"/>
<text x="918.256880733945" y="788" text-anchor="middle" font-family="monospace" font-size="11" fill="#334155">2025-09</text>
<line x1="974.2201834862385" y1="420" x2="974.2201834862385" y2="90" stroke="#94a3b8" stroke-width="1.2"/>
<line x1="974.2201834862385" y1="605" x2="974.2201834862385" y2="480" stroke="#94a3b8" stroke-width="1.2"/>
<line x1="974.2201834862385" y1="770" x2="974.2201834862385" y2="645" stroke="#94a3b8" stroke-width="1.2"/>
<text x="974.2201834862385" y="788" text-anchor="middle" font-family="monospace" font-size="11" fill="#334155">2025-10</text>
<line x1="1018.9908256880734" y1="420" x2="1018.9908256880734" y2="90" stroke="#94a3b8" stroke-width="1.2"/>
<line x1="1018.9908256880734" y1="605" x2="1018.9908256880734" y2="480" stroke="#94a3b8" stroke-width="1.2"/>
<line x1="1018.9908256880734" y1="770" x2="1018.9908256880734" y2="645" stroke="#94a3b8" stroke-width="1.2"/>
<text x="1018.9908256880734" y="788" text-anchor="middle" font-family="monospace" font-size="11" fill="#334155">2025-11</text>
<line x1="1063.761467889908" y1="420" x2="1063.761467889908" y2="90" stroke="#94a3b8" stroke-width="1.2"/>
<line x1="1063.761467889908" y1="605" x2="1063.761467889908" y2="480" stroke="#94a3b8" stroke-width="1.2"/>
<line x1="1063.761467889908" y1="770" x2="1063.761467889908" y2="645" stroke="#94a3b8" stroke-width="1.2"/>
<text x="1063.761467889908" y="788" text-anchor="middle" font-family="monospace" font-size="11" fill="#334155">2025-12</text>
<line x1="1119.724770642202" y1="420" x2="1119.724770642202" y2="90" stroke="#94a3b8" stroke-width="1.2"/>
<line x1="1119.724770642202" y1="605" x2="1119.724770642202" y2="480" stroke="#94a3b8" stroke-width="1.2"/>
<line x1="1119.724770642202" y1="770" x2="1119.724770642202" y2="645" stroke="#94a3b8" stroke-width="1.2"/>
<text x="1119.724770642202" y="788" text-anchor="middle" font-family="monospace" font-size="11" fill="#334155">2026-01</text>
<line x1="1164.4954128440368" y1="420" x2="1164.4954128440368" y2="90" stroke="#94a3b8" stroke-width="1.2"/>
<line x1="1164.4954128440368" y1="605" x2="1164.4954128440368" y2="480" stroke="#94a3b8" stroke-width="1.2"/>
<line x1="1164.4954128440368" y1="770" x2="1164.4954128440368" y2="645" stroke="#94a3b8" stroke-width="1.2"/>
<text x="1164.4954128440368" y="788" text-anchor="middle" font-family="monospace" font-size="11" fill="#334155">2026-02</text>
<line x1="1209.2660550458716" y1="420" x2="1209.2660550458716" y2="90" stroke="#94a3b8" stroke-width="1.2"/>
<line x1="1209.2660550458716" y1="605" x2="1209.2660550458716" y2="480" stroke="#94a3b8" stroke-width="1.2"/>
<line x1="1209.2660550458716" y1="770" x2="1209.2660550458716" y2="645" stroke="#94a3b8" stroke-width="1.2"/>
<text x="1209.2660550458716" y="788" text-anchor="middle" font-family="monospace" font-size="11" fill="#334155">2026-03</text>
<line x1="1265.2293577981652" y1="420" x2="1265.2293577981652" y2="90" stroke="#94a3b8" stroke-width="1.2"/>
<line x1="1265.2293577981652" y1="605" x2="1265.2293577981652" y2="480" stroke="#94a3b8" stroke-width="1.2"/>
<line x1="1265.2293577981652" y1="770" x2="1265.2293577981652" y2="645" stroke="#94a3b8" stroke-width="1.2"/>
<text x="1265.2293577981652" y="788" text-anchor="middle" font-family="monospace" font-size="11" fill="#334155">2026-04</text>
<line x1="1310.0" y1="420" x2="1310.0" y2="90" stroke="#94a3b8" stroke-width="1.2"/>
<line x1="1310.0" y1="605" x2="1310.0" y2="480" stroke="#94a3b8" stroke-width="1.2"/>
<line x1="1310.0" y1="770" x2="1310.0" y2="645" stroke="#94a3b8" stroke-width="1.2"/>
<text x="1310.0" y="788" text-anchor="middle" font-family="monospace" font-size="11" fill="#334155">2026-05</text>
<line x1="90" y1="420.0" x2="1310" y2="420.0" stroke="#cbd5e1" stroke-width="1"/>
<text x="78" y="424.0" text-anchor="end" font-family="monospace" font-size="12" fill="#475569">0</text>
<line x1="90" y1="354.0" x2="1310" y2="354.0" stroke="#cbd5e1" stroke-width="1"/>
<text x="78" y="358.0" text-anchor="end" font-family="monospace" font-size="12" fill="#475569">5782</text>
<line x1="90" y1="288.0" x2="1310" y2="288.0" stroke="#cbd5e1" stroke-width="1"/>
<text x="78" y="292.0" text-anchor="end" font-family="monospace" font-size="12" fill="#475569">11564</text>
<line x1="90" y1="222.0" x2="1310" y2="222.0" stroke="#cbd5e1" stroke-width="1"/>
<text x="78" y="226.0" text-anchor="end" font-family="monospace" font-size="12" fill="#475569">17346</text>
<line x1="90" y1="156.0" x2="1310" y2="156.0" stroke="#cbd5e1" stroke-width="1"/>
<text x="78" y="160.0" text-anchor="end" font-family="monospace" font-size="12" fill="#475569">23127</text>
<line x1="90" y1="90.0" x2="1310" y2="90.0" stroke="#cbd5e1" stroke-width="1"/>
<text x="78" y="94.0" text-anchor="end" font-family="monospace" font-size="12" fill="#475569">28909</text>
<polygon points="90.0,248.77426153446828 101.19266055045871,248.77426153446828 112.38532110091744,251.34264761145124 123.57798165137615,253.91103368843423 134.77064220183487,256.4794197654172 145.96330275229357,259.0478058424002 157.1559633027523,263.61382553481434 168.348623853211,263.61382553481434 179.54128440366975,263.61382553481434 190.73394495412845,263.61382553481434 201.92660550458714,263.61382553481434 213.1192660550459,263.61382553481434 224.3119266055046,266.18221161179736 235.50458715596332,268.7505976887803 246.69724770642202,273.3166173811945 257.88990825688074,273.3166173811945 269.0825688073395,275.8850034581775 280.27522935779814,278.45338953516045 291.4678899082569,283.0194092275746 302.66055045871565,287.5854289199888 313.8532110091743,292.151448612403 325.04587155963304,296.71746830481715 336.2385321100918,301.2834879972313 347.4311926605505,305.8495076896455 358.6238532110092,310.4155273820597 369.8165137614679,314.98154707447384 381.00917431192664,319.54756676688805 392.20183486238534,324.11358645930227 403.39449541284404,328.67960615171637 414.5871559633028,333.2456258441306 425.7798165137615,337.81164553654475 436.9724770642202,342.37766522895896 448.16513761467894,344.9460513059419 459.35779816513764,347.5144373829249 470.55045871559633,350.0828234599079 481.7431192660551,348.04864962147985 492.9357798165138,346.15768449409563 504.1284403669725,343.9049896095438 515.3211009174313,346.47337568652677 526.5137614678899,349.0417617635098 537.7064220183486,346.8412528546301 548.8990825688074,349.40963893161313 560.0917431192661,351.89897480559415 571.2844036697247,354.22683749288586 582.4770642201836,358.7928571853 593.6697247706422,363.35887687771424 604.862385321101,367.9248965701284 616.0550458715596,372.49091626254256 627.2477064220184,377.05693595495677 638.4403669724771,382.76446057047445 649.6330275229358,388.4719851859922 660.8256880733945,393.03800487840635 672.0183486238533,398.7455294939241 683.2110091743119,404.45305410944184 694.4036697247707,410.1605787249596 705.5963302752293,415.86810334047726 716.7889908256881,420.0 727.9816513761467,420.0 739.1743119266056,420.0 750.3669724770642,420.0 761.559633027523,420.0 772.7522935779816,420.0 783.9449541284404,420.0 795.137614678899,420.0 806.3302752293579,420.0 817.5229357798165,420.0 828.7155963302753,420.0 839.9082568807339,415.7847447386645 851.1009174311927,399.69354352580876 862.2935779816513,385.56367608770705 873.4862385321102,373.5441276434078 884.6788990825688,360.7519171284001 895.8715596330276,349.7307188989649 907.0642201834862,339.20458646239587 918.256880733945,330.36378736385495 929.4495412844036,323.1313172237053 940.6422018348625,316.0520538250136 951.8348623853211,311.37432574838147 963.0275229357799,307.4583372191987 974.2201834862385,302.77190686564876 985.4128440366973,299.8210316577006 996.6055045871559,302.38941773468355 1007.7981651376148,300.13695831141655 1018.9908256880734,304.70297800383076 1030.1834862385322,309.2689976962449 1041.3761467889908,313.8350173886591 1052.5688073394494,318.4010370810733 1063.761467889908,322.96705677348746 1074.9541284403672,327.5330764659016 1086.1467889908258,332.09909615831583 1097.3394495412845,336.66511585073 1108.532110091743,341.23113554314415 1119.724770642202,345.7971552355583 1130.9174311926606,350.3631749279725 1142.1100917431193,354.9291946203867 1153.302752293578,359.4952143128009 1164.4954128440368,365.2027389283186 1175.6880733944954,370.9102635438363 1186.8807339449543,376.61778815935406 1198.073394495413,382.3253127748718 1209.2660550458716,388.0328373903895 1220.4587155963302,393.74036200590723 1231.651376146789,399.44788662142497 1242.8440366972477,403.9689137370882 1254.0366972477066,406.71208037918456 1265.2293577981652,408.06717346213435 1276.4220183486239,409.6807260611013 1287.6146788990825,410.4835512083602 1298.8073394495414,412.1992366595812 1310.0,413.9831276235478 1310.0,420.0 1298.8073394495414,420.0 1287.6146788990825,420.0 1276.4220183486239,420.0 1265.2293577981652,420.0 1254.0366972477066,420.0 1242.8440366972477,420.0 1231.651376146789,420.0 1220.4587155963302,420.0 1209.2660550458716,420.0 1198.073394495413,420.0 1186.8807339449543,420.0 1175.6880733944954,420.0 1164.4954128440368,420.0 1153.302752293578,420.0 1142.1100917431193,420.0 1130.9174311926606,420.0 1119.724770642202,420.0 1108.532110091743,420.0 1097.3394495412845,420.0 1086.1467889908258,420.0 1074.9541284403672,420.0 1063.761467889908,420.0 1052.5688073394494,420.0 1041.3761467889908,420.0 1030.1834862385322,420.0 1018.9908256880734,420.0 1007.7981651376148,420.0 996.6055045871559,420.0 985.4128440366973,420.0 974.2201834862385,420.0 963.0275229357799,420.0 951.8348623853211,420.0 940.6422018348625,420.0 929.4495412844036,420.0 918.256880733945,420.0 907.0642201834862,420.0 895.8715596330276,420.0 884.6788990825688,420.0 873.4862385321102,420.0 862.2935779816513,420.0 851.1009174311927,420.0 839.9082568807339,420.0 828.7155963302753,420.0 817.5229357798165,420.0 806.3302752293579,420.0 795.137614678899,420.0 783.9449541284404,420.0 772.7522935779816,420.0 761.559633027523,420.0 750.3669724770642,420.0 739.1743119266056,420.0 727.9816513761467,420.0 716.7889908256881,420.0 705.5963302752293,420.0 694.4036697247707,420.0 683.2110091743119,420.0 672.0183486238533,420.0 660.8256880733945,420.0 649.6330275229358,420.0 638.4403669724771,420.0 627.2477064220184,420.0 616.0550458715596,420.0 604.862385321101,420.0 593.6697247706422,420.0 582.4770642201836,420.0 571.2844036697247,420.0 560.0917431192661,420.0 548.8990825688074,420.0 537.7064220183486,420.0 526.5137614678899,420.0 515.3211009174313,420.0 504.1284403669725,420.0 492.9357798165138,420.0 481.7431192660551,420.0 470.55045871559633,420.0 459.35779816513764,420.0 448.16513761467894,420.0 436.9724770642202,420.0 425.7798165137615,420.0 414.5871559633028,420.0 403.39449541284404,420.0 392.20183486238534,420.0 381.00917431192664,420.0 369.8165137614679,420.0 358.6238532110092,420.0 347.4311926605505,420.0 336.2385321100918,420.0 325.04587155963304,420.0 313.8532110091743,420.0 302.66055045871565,420.0 291.4678899082569,420.0 280.27522935779814,420.0 269.0825688073395,420.0 257.88990825688074,420.0 246.69724770642202,420.0 235.50458715596332,420.0 224.3119266055046,420.0 213.1192660550459,420.0 201.92660550458714,420.0 190.73394495412845,420.0 179.54128440366975,420.0 168.348623853211,420.0 157.1559633027523,420.0 145.96330275229357,420.0 134.77064220183487,420.0 123.57798165137615,420.0 112.38532110091744,420.0 101.19266055045871,420.0 90.0,420.0" fill="#facc15" fill-opacity="0.70" stroke="#facc15" stroke-width="1.2"/>
<polygon points="90.0,248.77426153446828 101.19266055045871,248.77426153446828 112.38532110091744,249.92431734006252 123.57798165137615,251.00066061578045 134.77064220183487,252.16652897792582 145.96330275229357,253.51390367007355 157.1559633027523,255.69205305783117 168.348623853211,253.7820751306318 179.54128440366975,253.1666375001836 190.73394495412845,253.50128842462846 201.92660550458714,253.77042155595402 213.1192660550459,254.19013820523566 224.3119266055046,255.90117875737482 235.50458715596332,256.89808109005685 246.69724770642202,260.55397566743267 257.88990825688074,258.5777720448825 269.0825688073395,259.9517620590984 280.27522935779814,261.68332294066306 291.4678899082569,268.17388325340585 302.66055045871565,268.27657615150645 313.8532110091743,270.79310556597113 325.04587155963304,272.2663420076999 336.2385321100918,275.43202631365125 347.4311926605505,279.0693672981846 358.6238532110092,281.56028706004577 369.8165137614679,278.9329500678966 381.00917431192664,281.31946508460976 392.20183486238534,285.6597257649681 403.39449541284404,284.0684298215905 414.5871559633028,285.1243304052496 425.7798165137615,288.46490760784684 436.9724770642202,293.22096141737404 448.16513761467894,274.21467915138726 459.35779816513764,278.71269744699373 470.55045871559633,275.4633629728653 481.7431192660551,269.42461922090297 492.9357798165138,267.2599651272736 504.1284403669725,260.9086705921808 515.3211009174313,273.97871294220784 526.5137614678899,276.5267480701426 537.7064220183486,268.2287141145058 548.8990825688074,281.13788239637034 560.0917431192661,277.9170182399086 571.2844036697247,279.89726160519325 582.4770642201836,286.8657542442701 593.6697247706422,292.3969390318542 604.862385321101,290.3411343509765 616.0550458715596,296.86511421033634 627.2477064220184,307.87250709502734 638.4403669724771,317.4751918563302 649.6330275229358,315.29808901784816 660.8256880733945,309.39716442186034 672.0183486238533,319.8276588320383 683.2110091743119,331.49579007993515 694.4036697247707,328.1412332740648 705.5963302752293,330.3876329622823 716.7889908256881,318.44347505834037 727.9816513761467,317.3214375298225 739.1743119266056,279.20488060327824 750.3669724770642,277.3500493344161 761.559633027523,275.34121291458086 772.7522935779816,272.80435883426674 783.9449541284404,268.7426845228897 795.137614678899,276.4158642427994 806.3302752293579,283.87749842565813 817.5229357798165,279.7509501495856 828.7155963302753,276.5788953366866 839.9082568807339,247.83627428773224 851.1009174311927,206.0949902297705 862.2935779816513,204.25815081742869 873.4862385321102,208.0083682775391 884.6788990825688,185.60353721000783 895.8715596330276,181.83520684726906 907.0642201834862,179.43662727750174 918.256880733945,181.70921299537625 929.4495412844036,182.01652992687815 940.6422018348625,174.84844512169215 951.8348623853211,184.90187142340724 963.0275229357799,184.455560369862 974.2201834862385,170.774390760112 985.4128440366973,183.2135889022978 996.6055045871559,191.67720161551017 1007.7981651376148,187.79211352241296 1018.9908256880734,203.93041726342614 1030.1834862385322,206.97664592479043 1041.3761467889908,224.45244828105058 1052.5688073394494,228.73782767337815 1063.761467889908,235.44919809306052 1074.9541284403672,227.33400019928575 1086.1467889908258,234.58326526860634 1097.3394495412845,235.24247364858488 1108.532110091743,239.79597213870807 1119.724770642202,231.82486119566235 1130.9174311926606,238.6085781300365 1142.1100917431193,237.24927257655426 1153.302752293578,248.92327354138385 1164.4954128440368,273.3395171276909 1175.6880733944954,285.28344143954587 1186.8807339449543,292.0780425347973 1198.073394495413,300.54945428852784 1209.2660550458716,295.44686063322195 1220.4587155963302,299.24397575475774 1231.651376146789,284.71848047347424 1242.8440366972477,295.8346539701688 1254.0366972477066,303.3506012018866 1265.2293577981652,299.8710122047326 1276.4220183486239,287.9874480702244 1287.6146788990825,290.83637730884334 1298.8073394495414,291.42303762090603 1310.0,289.14167912223763 1310.0,413.9831276235478 1298.8073394495414,412.1992366595812 1287.6146788990825,410.4835512083602 1276.4220183486239,409.6807260611013 1265.2293577981652,408.06717346213435 1254.0366972477066,406.71208037918456 1242.8440366972477,403.9689137370882 1231.651376146789,399.44788662142497 1220.4587155963302,393.74036200590723 1209.2660550458716,388.0328373903895 1198.073394495413,382.3253127748718 1186.8807339449543,376.61778815935406 1175.6880733944954,370.9102635438363 1164.4954128440368,365.2027389283186 1153.302752293578,359.4952143128009 1142.1100917431193,354.9291946203867 1130.9174311926606,350.3631749279725 1119.724770642202,345.7971552355583 1108.532110091743,341.23113554314415 1097.3394495412845,336.66511585073 1086.1467889908258,332.09909615831583 1074.9541284403672,327.5330764659016 1063.761467889908,322.96705677348746 1052.5688073394494,318.4010370810733 1041.3761467889908,313.8350173886591 1030.1834862385322,309.2689976962449 1018.9908256880734,304.70297800383076 1007.7981651376148,300.13695831141655 996.6055045871559,302.38941773468355 985.4128440366973,299.8210316577006 974.2201834862385,302.77190686564876 963.0275229357799,307.4583372191987 951.8348623853211,311.37432574838147 940.6422018348625,316.0520538250136 929.4495412844036,323.1313172237053 918.256880733945,330.36378736385495 907.0642201834862,339.20458646239587 895.8715596330276,349.7307188989649 884.6788990825688,360.7519171284001 873.4862385321102,373.5441276434078 862.2935779816513,385.56367608770705 851.1009174311927,399.69354352580876 839.9082568807339,415.7847447386645 828.7155963302753,420.0 817.5229357798165,420.0 806.3302752293579,420.0 795.137614678899,420.0 783.9449541284404,420.0 772.7522935779816,420.0 761.559633027523,420.0 750.3669724770642,420.0 739.1743119266056,420.0 727.9816513761467,420.0 716.7889908256881,420.0 705.5963302752293,415.86810334047726 694.4036697247707,410.1605787249596 683.2110091743119,404.45305410944184 672.0183486238533,398.7455294939241 660.8256880733945,393.03800487840635 649.6330275229358,388.4719851859922 638.4403669724771,382.76446057047445 627.2477064220184,377.05693595495677 616.0550458715596,372.49091626254256 604.862385321101,367.9248965701284 593.6697247706422,363.35887687771424 582.4770642201836,358.7928571853 571.2844036697247,354.22683749288586 560.0917431192661,351.89897480559415 548.8990825688074,349.40963893161313 537.7064220183486,346.8412528546301 526.5137614678899,349.0417617635098 515.3211009174313,346.47337568652677 504.1284403669725,343.9049896095438 492.9357798165138,346.15768449409563 481.7431192660551,348.04864962147985 470.55045871559633,350.0828234599079 459.35779816513764,347.5144373829249 448.16513761467894,344.9460513059419 436.9724770642202,342.37766522895896 425.7798165137615,337.81164553654475 414.5871559633028,333.2456258441306 403.39449541284404,328.67960615171637 392.20183486238534,324.11358645930227 381.00917431192664,319.54756676688805 369.8165137614679,314.98154707447384 358.6238532110092,310.4155273820597 347.4311926605505,305.8495076896455 336.2385321100918,301.2834879972313 325.04587155963304,296.71746830481715 313.8532110091743,292.151448612403 302.66055045871565,287.5854289199888 291.4678899082569,283.0194092275746 280.27522935779814,278.45338953516045 269.0825688073395,275.8850034581775 257.88990825688074,273.3166173811945 246.69724770642202,273.3166173811945 235.50458715596332,268.7505976887803 224.3119266055046,266.18221161179736 213.1192660550459,263.61382553481434 201.92660550458714,263.61382553481434 190.73394495412845,263.61382553481434 179.54128440366975,263.61382553481434 168.348623853211,263.61382553481434 157.1559633027523,263.61382553481434 145.96330275229357,259.0478058424002 134.77064220183487,256.4794197654172 123.57798165137615,253.91103368843423 112.38532110091744,251.34264761145124 101.19266055045871,248.77426153446828 90.0,248.77426153446828" fill="#2563eb" fill-opacity="0.70" stroke="#2563eb" stroke-width="1.2"/>
<polygon points="90.0,248.77426153446828 101.19266055045871,248.77426153446828 112.38532110091744,248.77426153446828 123.57798165137615,248.66756750073174 134.77064220183487,248.75996339688103 145.96330275229357,249.0013849327834 157.1559633027523,249.2210450571661 168.348623853211,246.43707694329404 179.54128440366975,246.03381313466397 190.73394495412845,246.42786799927737 201.92660550458714,246.62433176372053 213.1192660550459,247.35415976665635 224.3119266055046,248.42043993699608 235.50458715596332,247.83174825765917 246.69724770642202,250.16448504306496 257.88990825688074,246.71179902397773 269.0825688073395,246.38783346717784 280.27522935779814,247.11786691497713 291.4678899082569,254.43267048806493 302.66055045871565,251.22097494077383 313.8532110091743,251.80276169349733 325.04587155963304,250.36750288061623 336.2385321100918,252.96088780778675 347.4311926605505,255.56371789982805 358.6238532110092,255.82424016846198 369.8165137614679,249.1368791962184 381.00917431192664,249.77361016210764 392.20183486238534,252.96151638276646 403.39449541284404,247.64161498717888 414.5871559633028,246.3142898635508 425.7798165137615,246.6282890867815 436.9724770642202,251.13885583233764 448.16513761467894,218.056397396635 459.35779816513764,220.4396563995067 470.55045871559633,214.43743068508033 481.7431192660551,207.5371727529552 492.9357798165138,205.10375132436127 504.1284403669725,193.67763929909466 515.3211009174313,212.71324521296674 526.5137614678899,215.42395797826467 537.7064220183486,201.85423942952175 548.8990825688074,218.67652797206503 560.0917431192661,210.48594711200596 571.2844036697247,212.76151272792288 582.4770642201836,220.12614030764553 593.6697247706422,228.29887591269852 604.862385321101,227.200382756979 616.0550458715596,236.5398545703732 627.2477064220184,251.0738604610574 638.4403669724771,265.2249792884419 649.6330275229358,259.4112761678689 660.8256880733945,251.1739212561387 672.0183486238533,264.92344231451455 683.2110091743119,278.84956673625214 694.4036697247707,271.86927948883596 705.5963302752293,272.1654209013859 716.7889908256881,255.21840890813868 727.9816513761467,254.30164771960852 739.1743119266056,210.81920797779443 750.3669724770642,207.09111202841086 761.559633027523,202.52238159418573 772.7522935779816,202.35333002545877 783.9449541284404,195.36716968576653 795.137614678899,205.33390571755496 806.3302752293579,213.74947151872672 817.5229357798165,208.4562314590087 828.7155963302753,204.55466665608847 839.9082568807339,170.2070956245614 851.1009174311927,130.04277626851427 862.2935779816513,127.79027804779736 873.4862385321102,133.4955685387497 884.6788990825688,108.72683829081774 895.8715596330276,106.52262334554644 907.0642201834862,108.1129046576093 918.256880733945,110.96007488499203 929.4495412844036,109.43324713202122 940.6422018348625,100.12242109265446 951.8348623853211,111.8885391397107 963.0275229357799,110.38755052888479 974.2201834862385,89.99999999999994 985.4128440366973,108.55689531177137 996.6055045871559,118.86455359470182 1007.7981651376148,112.6620900462948 1018.9908256880734,131.72353165403342 1030.1834862385322,133.13343675296062 1041.3761467889908,158.25161490144438 1052.5688073394494,163.23057425076183 1063.761467889908,169.38831636929947 1074.9541284403672,155.82586552732988 1086.1467889908258,164.3148253491158 1097.3394495412845,161.1512740336393 1108.532110091743,164.83956598192242 1119.724770642202,148.96350198904253 1130.9174311926606,156.03975178970182 1142.1100917431193,151.3435579094962 1153.302752293578,164.96672121732047 1164.4954128440368,196.06090247701732 1175.6880733944954,213.92609733665768 1186.8807339449543,219.52886447072737 1198.073394495413,229.98842156709458 1209.2660550458716,217.8168855562376 1220.4587155963302,219.83415270472196 1231.651376146789,195.2888642903119 1242.8440366972477,209.89227090242005 1254.0366972477066,221.2967921682685 1265.2293577981652,214.46796682590372 1276.4220183486239,194.03429096435795 1287.6146788990825,195.09257495015976 1298.8073394495414,193.78674411065387 1310.0,188.36551567644102 1310.0,289.14167912223763 1298.8073394495414,291.42303762090603 1287.6146788990825,290.83637730884334 1276.4220183486239,287.9874480702244 1265.2293577981652,299.8710122047326 1254.0366972477066,303.3506012018866 1242.8440366972477,295.8346539701688 1231.651376146789,284.71848047347424 1220.4587155963302,299.24397575475774 1209.2660550458716,295.44686063322195 1198.073394495413,300.54945428852784 1186.8807339449543,292.0780425347973 1175.6880733944954,285.28344143954587 1164.4954128440368,273.3395171276909 1153.302752293578,248.92327354138385 1142.1100917431193,237.24927257655426 1130.9174311926606,238.6085781300365 1119.724770642202,231.82486119566235 1108.532110091743,239.79597213870807 1097.3394495412845,235.24247364858488 1086.1467889908258,234.58326526860634 1074.9541284403672,227.33400019928575 1063.761467889908,235.44919809306052 1052.5688073394494,228.73782767337815 1041.3761467889908,224.45244828105058 1030.1834862385322,206.97664592479043 1018.9908256880734,203.93041726342614 1007.7981651376148,187.79211352241296 996.6055045871559,191.67720161551017 985.4128440366973,183.2135889022978 974.2201834862385,170.774390760112 963.0275229357799,184.455560369862 951.8348623853211,184.90187142340724 940.6422018348625,174.84844512169215 929.4495412844036,182.01652992687815 918.256880733945,181.70921299537625 907.0642201834862,179.43662727750174 895.8715596330276,181.83520684726906 884.6788990825688,185.60353721000783 873.4862385321102,208.0083682775391 862.2935779816513,204.25815081742869 851.1009174311927,206.0949902297705 839.9082568807339,247.83627428773224 828.7155963302753,276.5788953366866 817.5229357798165,279.7509501495856 806.3302752293579,283.87749842565813 795.137614678899,276.4158642427994 783.9449541284404,268.7426845228897 772.7522935779816,272.80435883426674 761.559633027523,275.34121291458086 750.3669724770642,277.3500493344161 739.1743119266056,279.20488060327824 727.9816513761467,317.3214375298225 716.7889908256881,318.44347505834037 705.5963302752293,330.3876329622823 694.4036697247707,328.1412332740648 683.2110091743119,331.49579007993515 672.0183486238533,319.8276588320383 660.8256880733945,309.39716442186034 649.6330275229358,315.29808901784816 638.4403669724771,317.4751918563302 627.2477064220184,307.87250709502734 616.0550458715596,296.86511421033634 604.862385321101,290.3411343509765 593.6697247706422,292.3969390318542 582.4770642201836,286.8657542442701 571.2844036697247,279.89726160519325 560.0917431192661,277.9170182399086 548.8990825688074,281.13788239637034 537.7064220183486,268.2287141145058 526.5137614678899,276.5267480701426 515.3211009174313,273.97871294220784 504.1284403669725,260.9086705921808 492.9357798165138,267.2599651272736 481.7431192660551,269.42461922090297 470.55045871559633,275.4633629728653 459.35779816513764,278.71269744699373 448.16513761467894,274.21467915138726 436.9724770642202,293.22096141737404 425.7798165137615,288.46490760784684 414.5871559633028,285.1243304052496 403.39449541284404,284.0684298215905 392.20183486238534,285.6597257649681 381.00917431192664,281.31946508460976 369.8165137614679,278.9329500678966 358.6238532110092,281.56028706004577 347.4311926605505,279.0693672981846 336.2385321100918,275.43202631365125 325.04587155963304,272.2663420076999 313.8532110091743,270.79310556597113 302.66055045871565,268.27657615150645 291.4678899082569,268.17388325340585 280.27522935779814,261.68332294066306 269.0825688073395,259.9517620590984 257.88990825688074,258.5777720448825 246.69724770642202,260.55397566743267 235.50458715596332,256.89808109005685 224.3119266055046,255.90117875737482 213.1192660550459,254.19013820523566 201.92660550458714,253.77042155595402 190.73394495412845,253.50128842462846 179.54128440366975,253.1666375001836 168.348623853211,253.7820751306318 157.1559633027523,255.69205305783117 145.96330275229357,253.51390367007355 134.77064220183487,252.16652897792582 123.57798165137615,251.00066061578045 112.38532110091744,249.92431734006252 101.19266055045871,248.77426153446828 90.0,248.77426153446828" fill="#f97316" fill-opacity="0.70" stroke="#f97316" stroke-width="1.2"/>
<rect x="1100" y="76" width="16" height="12" fill="#f97316" fill-opacity="0.70" stroke="#f97316"/>
<text x="1124" y="86" font-family="monospace" font-size="12" fill="#0f172a">BTC</text>
<rect x="1100" y="98" width="16" height="12" fill="#2563eb" fill-opacity="0.70" stroke="#2563eb"/>
<text x="1124" y="108" font-family="monospace" font-size="12" fill="#0f172a">ETH</text>
<rect x="1100" y="120" width="16" height="12" fill="#facc15" fill-opacity="0.70" stroke="#facc15"/>
<text x="1124" y="130" font-family="monospace" font-size="12" fill="#0f172a">DAI</text>
<text x="700.0" y="782" text-anchor="middle" font-family="monospace" font-size="16" fill="#0f172a">time</text>
<text x="24" y="255.0" transform="rotate(-90 24,255.0)" text-anchor="middle" font-family="monospace" font-size="16" fill="#0f172a">asset value split (usd)</text>
<line x1="90" y1="605" x2="1310" y2="605" stroke="#334155" stroke-width="2"/>
<line x1="90" y1="480" x2="90" y2="605" stroke="#334155" stroke-width="2"/>
<line x1="90" y1="542.5" x2="1310" y2="542.5" stroke="#64748b" stroke-width="1.5" stroke-dasharray="6 4"/>
<line x1="90" y1="605.0" x2="1310" y2="605.0" stroke="#e2e8f0" stroke-width="1"/>
<text x="78" y="609.0" text-anchor="end" font-family="monospace" font-size="11" fill="#475569">-222</text>
<line x1="90" y1="542.5" x2="1310" y2="542.5" stroke="#e2e8f0" stroke-width="1"/>
<text x="78" y="546.5" text-anchor="end" font-family="monospace" font-size="11" fill="#475569">0</text>
<line x1="90" y1="480.0" x2="1310" y2="480.0" stroke="#e2e8f0" stroke-width="1"/>
<text x="78" y="484.0" text-anchor="end" font-family="monospace" font-size="11" fill="#475569">222</text>
<rect x="86.95" y="542.5" width="6.1000000000000005" height="1.5" fill="#ea580c" opacity="0.85"><title>2024-04-01 | BTC buy 0.00 usd | reason=both_assets_expensive_eth_tilt</title></rect>
<rect x="98.14266055045871" y="542.5" width="6.1000000000000005" height="1.5" fill="#ea580c" opacity="0.85"><title>2024-04-08 | BTC buy 0.00 usd | reason=both_assets_expensive_eth_tilt</title></rect>
<rect x="109.33532110091744" y="514.0908392687758" width="6.1000000000000005" height="28.409160731224233" fill="#ea580c" opacity="0.85"><title>2024-04-15 | BTC buy 100.75 usd | reason=neutral_drawdown_eth_tilt</title></rect>
<rect x="120.52798165137615" y="514.8015127244996" width="6.1000000000000005" height="27.698487275500383" fill="#ea580c" opacity="0.85"><title>2024-04-22 | BTC buy 98.23 usd | reason=neutral_drawdown_eth_tilt</title></rect>
<rect x="131.72064220183486" y="513.3842693642052" width="6.1000000000000005" height="29.115730635794762" fill="#ea580c" opacity="0.85"><title>2024-04-29 | BTC buy 103.25 usd | reason=neutral_drawdown_eth_tilt</title></rect>
<rect x="142.91330275229356" y="514.2805704294145" width="6.1000000000000005" height="28.219429570585476" fill="#ea580c" opacity="0.85"><title>2024-05-06 | BTC buy 100.08 usd | reason=neutral_drawdown_eth_tilt</title></rect>
<rect x="154.1059633027523" y="493.7148973132405" width="6.1000000000000005" height="48.7851026867595" fill="#ea580c" opacity="0.85"><title>2024-05-13 | BTC buy 173.01 usd | reason=medium_drawdown_eth_tilt</title></rect>
<rect x="165.29862385321098" y="542.5" width="6.1000000000000005" height="1.5" fill="#ea580c" opacity="0.85"><title>2024-05-20 | BTC buy 0.00 usd | reason=both_assets_expensive_eth_tilt</title></rect>
<rect x="176.49128440366974" y="542.5" width="6.1000000000000005" height="1.5" fill="#ea580c" opacity="0.85"><title>2024-05-27 | BTC buy 0.00 usd | reason=both_assets_expensive_btc_tilt</title></rect>
<rect x="187.68394495412844" y="542.5" width="6.1000000000000005" height="1.5" fill="#ea580c" opacity="0.85"><title>2024-06-03 | BTC buy 0.00 usd | reason=both_assets_expensive_eth_tilt</title></rect>
<rect x="198.87660550458713" y="542.5" width="6.1000000000000005" height="1.5" fill="#ea580c" opacity="0.85"><title>2024-06-10 | BTC buy 0.00 usd | reason=both_assets_expensive_eth_tilt</title></rect>
<rect x="210.0692660550459" y="542.5" width="6.1000000000000005" height="1.5" fill="#ea580c" opacity="0.85"><title>2024-06-17 | BTC buy 0.00 usd | reason=both_assets_expensive_eth_tilt</title></rect>
<rect x="221.26192660550458" y="510.7769495613857" width="6.1000000000000005" height="31.72305043861428" fill="#ea580c" opacity="0.85"><title>2024-06-24 | BTC buy 112.50 usd | reason=neutral_drawdown_btc_tilt</title></rect>
<rect x="232.4545871559633" y="511.20391955239654" width="6.1000000000000005" height="31.296080447603458" fill="#ea580c" opacity="0.85"><title>2024-07-01 | BTC buy 110.99 usd | reason=neutral_drawdown_eth_tilt</title></rect>
<rect x="243.647247706422" y="487.9616913046936" width="6.1000000000000005" height="54.5383086953064" fill="#ea580c" opacity="0.85"><title>2024-07-08 | BTC buy 193.41 usd | reason=medium_drawdown_eth_tilt</title></rect>
<rect x="254.83990825688073" y="542.5" width="6.1000000000000005" height="1.5" fill="#ea580c" opacity="0.85"><title>2024-07-15 | BTC buy 0.00 usd | reason=both_assets_expensive_eth_tilt</title></rect>
<rect x="266.0325688073395" y="513.2351694512291" width="6.1000000000000005" height="29.264830548770874" fill="#ea580c" opacity="0.85"><title>2024-07-22 | BTC buy 103.78 usd | reason=neutral_drawdown_eth_tilt</title></rect>
<rect x="277.2252293577981" y="513.8577836900299" width="6.1000000000000005" height="28.64221630997008" fill="#ea580c" opacity="0.85"><title>2024-07-29 | BTC buy 101.58 usd | reason=neutral_drawdown_eth_tilt</title></rect>
<rect x="288.4178899082569" y="494.197985729286" width="6.1000000000000005" height="48.30201427071398" fill="#ea580c" opacity="0.85"><title>2024-08-05 | BTC buy 171.30 usd | reason=medium_drawdown_eth_tilt</title></rect>
<rect x="299.61055045871564" y="494.11049673528163" width="6.1000000000000005" height="48.38950326471837" fill="#ea580c" opacity="0.85"><title>2024-08-12 | BTC buy 171.61 usd | reason=medium_drawdown_eth_tilt</title></rect>
<rect x="310.8032110091743" y="495.3735845901858" width="6.1000000000000005" height="47.12641540981417" fill="#ea580c" opacity="0.85"><title>2024-08-19 | BTC buy 167.13 usd | reason=medium_drawdown_eth_tilt</title></rect>
<rect x="321.99587155963303" y="497.38063837240145" width="6.1000000000000005" height="45.11936162759855" fill="#ea580c" opacity="0.85"><title>2024-08-26 | BTC buy 160.01 usd | reason=medium_drawdown_eth_tilt</title></rect>
<rect x="333.1885321100918" y="496.51013306773956" width="6.1000000000000005" height="45.98986693226044" fill="#ea580c" opacity="0.85"><title>2024-09-02 | BTC buy 163.10 usd | reason=medium_drawdown_eth_tilt</title></rect>
<rect x="344.3811926605505" y="497.3663613715914" width="6.1000000000000005" height="45.13363862840862" fill="#ea580c" opacity="0.85"><title>2024-09-09 | BTC buy 160.06 usd | reason=medium_drawdown_eth_tilt</title></rect>
<rect x="355.5738532110092" y="499.1568738435207" width="6.1000000000000005" height="43.343126156479286" fill="#ea580c" opacity="0.85"><title>2024-09-16 | BTC buy 153.71 usd | reason=medium_drawdown_eth_tilt</title></rect>
<rect x="366.7665137614679" y="498.23757968075904" width="6.1000000000000005" height="44.26242031924096" fill="#ea580c" opacity="0.85"><title>2024-09-23 | BTC buy 156.97 usd | reason=medium_drawdown_eth_tilt</title></rect>
<rect x="377.95917431192663" y="498.8389340935123" width="6.1000000000000005" height="43.66106590648769" fill="#ea580c" opacity="0.85"><title>2024-09-30 | BTC buy 154.84 usd | reason=medium_drawdown_eth_tilt</title></rect>
<rect x="389.15183486238533" y="500.4807588681979" width="6.1000000000000005" height="42.01924113180212" fill="#ea580c" opacity="0.85"><title>2024-10-07 | BTC buy 149.02 usd | reason=medium_drawdown_eth_tilt</title></rect>
<rect x="400.344495412844" y="500.5896250165898" width="6.1000000000000005" height="41.91037498341018" fill="#ea580c" opacity="0.85"><title>2024-10-14 | BTC buy 148.63 usd | reason=medium_drawdown_eth_tilt</title></rect>
<rect x="411.5371559633028" y="501.0692852336323" width="6.1000000000000005" height="41.430714766367714" fill="#ea580c" opacity="0.85"><title>2024-10-21 | BTC buy 146.93 usd | reason=medium_drawdown_eth_tilt</title></rect>
<rect x="422.7298165137615" y="504.44014142158994" width="6.1000000000000005" height="38.05985857841006" fill="#ea580c" opacity="0.85"><title>2024-10-28 | BTC buy 134.97 usd | reason=medium_drawdown_eth_tilt</title></rect>
<rect x="433.9224770642202" y="505.14687760444144" width="6.1000000000000005" height="37.35312239555856" fill="#ea580c" opacity="0.85"><title>2024-11-04 | BTC buy 132.47 usd | reason=medium_drawdown_eth_tilt</title></rect>
<rect x="445.11513761467893" y="516.1637381045623" width="6.1000000000000005" height="26.3362618954377" fill="#ea580c" opacity="0.85"><title>2024-11-11 | BTC buy 93.40 usd | reason=neutral_drawdown_eth_tilt</title></rect>
<rect x="456.3077981651376" y="517.6013567828234" width="6.1000000000000005" height="24.89864321717664" fill="#ea580c" opacity="0.85"><title>2024-11-18 | BTC buy 88.30 usd | reason=neutral_drawdown_eth_tilt</title></rect>
<rect x="467.5004587155963" y="513.9301316838463" width="6.1000000000000005" height="28.569868316153702" fill="#ea580c" opacity="0.85"><title>2024-11-25 | BTC buy 101.32 usd | reason=neutral_drawdown_eth_tilt</title></rect>
<rect x="478.6931192660551" y="542.5" width="6.1000000000000005" height="25.124507545654183" fill="#dc2626" opacity="0.85"><title>2024-12-02 | BTC sell 89.10 usd | reason=both_assets_expensive_eth_tilt</title></rect>
<rect x="489.8857798165138" y="542.5" width="6.1000000000000005" height="16.674708059096247" fill="#dc2626" opacity="0.85"><title>2024-12-09 | BTC sell 59.13 usd | reason=both_assets_expensive_eth_tilt</title></rect>
<rect x="501.0784403669725" y="542.5" width="6.1000000000000005" height="13.075271298981988" fill="#dc2626" opacity="0.85"><title>2024-12-16 | BTC sell 46.37 usd | reason=both_assets_expensive_eth_tilt</title></rect>
<rect x="512.2711009174313" y="512.434380924013" width="6.1000000000000005" height="30.065619075987" fill="#ea580c" opacity="0.85"><title>2024-12-23 | BTC buy 106.62 usd | reason=neutral_drawdown_eth_tilt</title></rect>
<rect x="523.46376146789" y="512.2809017230658" width="6.1000000000000005" height="30.219098276934233" fill="#ea580c" opacity="0.85"><title>2024-12-30 | BTC buy 107.17 usd | reason=neutral_drawdown_eth_tilt</title></rect>
<rect x="534.6564220183486" y="542.5" width="6.1000000000000005" height="27.178946873169707" fill="#dc2626" opacity="0.85"><title>2025-01-06 | BTC sell 96.39 usd | reason=both_assets_expensive_eth_tilt</title></rect>
<rect x="545.8490825688075" y="514.5575805129582" width="6.1000000000000005" height="27.942419487041775" fill="#ea580c" opacity="0.85"><title>2025-01-13 | BTC buy 99.09 usd | reason=neutral_drawdown_eth_tilt</title></rect>
<rect x="557.0417431192661" y="542.5" width="6.1000000000000005" height="1.952731260511996" fill="#dc2626" opacity="0.85"><title>2025-01-20 | BTC sell 6.93 usd | reason=neutral_drawdown_eth_tilt</title></rect>
<rect x="568.2344036697248" y="542.5" width="6.1000000000000005" height="5.941509624246464" fill="#dc2626" opacity="0.85"><title>2025-01-27 | BTC sell 21.07 usd | reason=neutral_drawdown_eth_tilt</title></rect>
<rect x="579.4270642201836" y="542.5" width="6.1000000000000005" height="1.5" fill="#ea580c" opacity="0.85"><title>2025-02-03 | BTC buy 0.00 usd | reason=medium_drawdown_eth_tilt</title></rect>
<rect x="590.6197247706423" y="542.5" width="6.1000000000000005" height="1.5" fill="#ea580c" opacity="0.85"><title>2025-02-10 | BTC buy 0.00 usd | reason=medium_drawdown_eth_tilt</title></rect>
<rect x="601.812385321101" y="539.1321093898174" width="6.1000000000000005" height="3.3678906101825987" fill="#ea580c" opacity="0.85"><title>2025-02-17 | BTC buy 11.94 usd | reason=medium_drawdown_eth_tilt</title></rect>
<rect x="613.0050458715597" y="542.5" width="6.1000000000000005" height="1.5" fill="#ea580c" opacity="0.85"><title>2025-02-24 | BTC buy 0.00 usd | reason=medium_drawdown_eth_tilt</title></rect>
<rect x="624.1977064220184" y="542.5" width="6.1000000000000005" height="1.5" fill="#ea580c" opacity="0.85"><title>2025-03-03 | BTC buy 0.00 usd | reason=medium_drawdown_eth_tilt</title></rect>
<rect x="635.3903669724772" y="530.8305604396453" width="6.1000000000000005" height="11.669439560354704" fill="#ea580c" opacity="0.85"><title>2025-03-10 | BTC buy 41.38 usd | reason=deep_drawdown_eth_tilt</title></rect>
<rect x="646.5830275229358" y="542.5" width="6.1000000000000005" height="1.5" fill="#ea580c" opacity="0.85"><title>2025-03-17 | BTC buy 0.00 usd | reason=deep_drawdown_eth_tilt</title></rect>
<rect x="657.7756880733946" y="542.5" width="6.1000000000000005" height="1.5" fill="#ea580c" opacity="0.85"><title>2025-03-24 | BTC buy 0.00 usd | reason=medium_drawdown_eth_tilt</title></rect>
<rect x="668.9683486238533" y="542.5" width="6.1000000000000005" height="1.5" fill="#ea580c" opacity="0.85"><title>2025-03-31 | BTC buy 0.00 usd | reason=deep_drawdown_eth_tilt</title></rect>
<rect x="680.161009174312" y="542.5" width="6.1000000000000005" height="1.5" fill="#ea580c" opacity="0.85"><title>2025-04-07 | BTC buy 0.00 usd | reason=deep_drawdown_eth_tilt</title></rect>
<rect x="691.3536697247707" y="542.5" width="6.1000000000000005" height="1.5" fill="#ea580c" opacity="0.85"><title>2025-04-14 | BTC buy 0.00 usd | reason=deep_drawdown_eth_tilt</title></rect>
<rect x="702.5463302752294" y="542.5" width="6.1000000000000005" height="1.5" fill="#ea580c" opacity="0.85"><title>2025-04-21 | BTC buy 0.00 usd | reason=deep_drawdown_eth_tilt</title></rect>
<rect x="713.7389908256881" y="542.5" width="6.1000000000000005" height="1.5" fill="#ea580c" opacity="0.85"><title>2025-04-28 | BTC buy 0.00 usd | reason=deep_drawdown_eth_tilt</title></rect>
<rect x="724.9316513761468" y="542.5" width="6.1000000000000005" height="1.5" fill="#ea580c" opacity="0.85"><title>2025-05-05 | BTC buy 0.00 usd | reason=deep_drawdown_eth_tilt</title></rect>
<rect x="736.1243119266056" y="542.5" width="6.1000000000000005" height="1.5" fill="#ea580c" opacity="0.85"><title>2025-05-12 | BTC buy 0.00 usd | reason=medium_drawdown_eth_tilt</title></rect>
<rect x="747.3169724770643" y="542.5" width="6.1000000000000005" height="1.5" fill="#ea580c" opacity="0.85"><title>2025-05-19 | BTC buy 0.00 usd | reason=medium_drawdown_eth_tilt</title></rect>
<rect x="758.509633027523" y="542.5" width="6.1000000000000005" height="1.5" fill="#ea580c" opacity="0.85"><title>2025-05-26 | BTC buy 0.00 usd | reason=medium_drawdown_eth_tilt</title></rect>
<rect x="769.7022935779817" y="542.5" width="6.1000000000000005" height="1.5" fill="#ea580c" opacity="0.85"><title>2025-06-02 | BTC buy 0.00 usd | reason=medium_drawdown_eth_tilt</title></rect>
<rect x="780.8949541284404" y="542.5" width="6.1000000000000005" height="1.5" fill="#ea580c" opacity="0.85"><title>2025-06-09 | BTC buy 0.00 usd | reason=medium_drawdown_eth_tilt</title></rect>
<rect x="792.0876146788991" y="542.5" width="6.1000000000000005" height="1.5" fill="#ea580c" opacity="0.85"><title>2025-06-16 | BTC buy 0.00 usd | reason=medium_drawdown_eth_tilt</title></rect>
<rect x="803.2802752293579" y="542.5" width="6.1000000000000005" height="1.5" fill="#ea580c" opacity="0.85"><title>2025-06-23 | BTC buy 0.00 usd | reason=medium_drawdown_eth_tilt</title></rect>
<rect x="814.4729357798166" y="542.5" width="6.1000000000000005" height="1.5" fill="#ea580c" opacity="0.85"><title>2025-06-30 | BTC buy 0.00 usd | reason=medium_drawdown_eth_tilt</title></rect>
<rect x="825.6655963302753" y="542.5" width="6.1000000000000005" height="1.5" fill="#ea580c" opacity="0.85"><title>2025-07-07 | BTC buy 0.00 usd | reason=medium_drawdown_eth_tilt</title></rect>
<rect x="836.858256880734" y="542.5" width="6.1000000000000005" height="52.06350146658451" fill="#dc2626" opacity="0.85"><title>2025-07-14 | BTC sell 184.64 usd | reason=neutral_drawdown_eth_tilt</title></rect>
<rect x="848.0509174311927" y="542.5" width="6.1000000000000005" height="1.5" fill="#ea580c" opacity="0.85"><title>2025-07-21 | BTC buy 0.00 usd | reason=both_assets_expensive_eth_tilt</title></rect>
<rect x="859.2435779816514" y="542.5" width="6.1000000000000005" height="1.5" fill="#ea580c" opacity="0.85"><title>2025-07-28 | BTC buy 0.00 usd | reason=both_assets_expensive_eth_tilt</title></rect>
<rect x="870.4362385321102" y="542.5" width="6.1000000000000005" height="1.5" fill="#ea580c" opacity="0.85"><title>2025-08-04 | BTC buy 0.00 usd | reason=both_assets_expensive_eth_tilt</title></rect>
<rect x="881.6288990825689" y="542.5" width="6.1000000000000005" height="1.5" fill="#ea580c" opacity="0.85"><title>2025-08-11 | BTC buy 0.00 usd | reason=both_assets_expensive_btc_tilt</title></rect>
<rect x="892.8215596330276" y="542.5" width="6.1000000000000005" height="1.5" fill="#ea580c" opacity="0.85"><title>2025-08-18 | BTC buy 0.00 usd | reason=both_assets_expensive_eth_tilt</title></rect>
<rect x="904.0142201834863" y="542.5" width="6.1000000000000005" height="1.5" fill="#ea580c" opacity="0.85"><title>2025-08-25 | BTC buy 0.00 usd | reason=both_assets_expensive_btc_tilt</title></rect>
<rect x="915.206880733945" y="542.5" width="6.1000000000000005" height="1.5" fill="#ea580c" opacity="0.85"><title>2025-09-01 | BTC buy 0.00 usd | reason=both_assets_expensive_btc_tilt</title></rect>
<rect x="926.3995412844037" y="542.5" width="6.1000000000000005" height="1.5" fill="#ea580c" opacity="0.85"><title>2025-09-08 | BTC buy 0.00 usd | reason=both_assets_expensive_eth_tilt</title></rect>
<rect x="937.5922018348625" y="542.5" width="6.1000000000000005" height="1.5" fill="#ea580c" opacity="0.85"><title>2025-09-15 | BTC buy 0.00 usd | reason=both_assets_expensive_btc_tilt</title></rect>
<rect x="948.7848623853212" y="542.5" width="6.1000000000000005" height="1.5" fill="#ea580c" opacity="0.85"><title>2025-09-22 | BTC buy 0.00 usd | reason=both_assets_expensive_eth_tilt</title></rect>
<rect x="959.9775229357799" y="542.5" width="6.1000000000000005" height="1.5" fill="#ea580c" opacity="0.85"><title>2025-09-29 | BTC buy 0.00 usd | reason=both_assets_expensive_eth_tilt</title></rect>
<rect x="971.1701834862386" y="542.5" width="6.1000000000000005" height="1.5" fill="#ea580c" opacity="0.85"><title>2025-10-06 | BTC buy 0.00 usd | reason=both_assets_expensive_eth_tilt</title></rect>
<rect x="982.3628440366973" y="542.5" width="6.1000000000000005" height="1.5" fill="#ea580c" opacity="0.85"><title>2025-10-13 | BTC buy 0.00 usd | reason=both_assets_expensive_eth_tilt</title></rect>
<rect x="993.555504587156" y="512.7643593897832" width="6.1000000000000005" height="29.73564061021682" fill="#ea580c" opacity="0.85"><title>2025-10-20 | BTC buy 105.45 usd | reason=neutral_drawdown_eth_tilt</title></rect>
<rect x="1004.7481651376148" y="542.5" width="6.1000000000000005" height="1.5" fill="#ea580c" opacity="0.85"><title>2025-10-27 | BTC buy 0.00 usd | reason=both_assets_expensive_eth_tilt</title></rect>
<rect x="1015.9408256880735" y="492.23045008285084" width="6.1000000000000005" height="50.26954991714916" fill="#ea580c" opacity="0.85"><title>2025-11-03 | BTC buy 178.27 usd | reason=medium_drawdown_eth_tilt</title></rect>
<rect x="1027.1334862385322" y="492.39360554148936" width="6.1000000000000005" height="50.106394458510636" fill="#ea580c" opacity="0.85"><title>2025-11-10 | BTC buy 177.70 usd | reason=medium_drawdown_eth_tilt</title></rect>
<rect x="1038.3261467889909" y="492.4050731072414" width="6.1000000000000005" height="50.09492689275862" fill="#ea580c" opacity="0.85"><title>2025-11-17 | BTC buy 177.65 usd | reason=medium_drawdown_eth_tilt</title></rect>
<rect x="1049.5188073394495" y="491.55022547640874" width="6.1000000000000005" height="50.94977452359126" fill="#ea580c" opacity="0.85"><title>2025-11-24 | BTC buy 180.69 usd | reason=medium_drawdown_eth_tilt</title></rect>
<rect x="1060.7114678899081" y="492.454226501815" width="6.1000000000000005" height="50.045773498184985" fill="#ea580c" opacity="0.85"><title>2025-12-01 | BTC buy 177.48 usd | reason=medium_drawdown_eth_tilt</title></rect>
<rect x="1071.9041284403672" y="490.6181229257678" width="6.1000000000000005" height="51.88187707423219" fill="#ea580c" opacity="0.85"><title>2025-12-08 | BTC buy 183.99 usd | reason=medium_drawdown_eth_tilt</title></rect>
<rect x="1083.0967889908259" y="490.57642116572066" width="6.1000000000000005" height="51.92357883427934" fill="#ea580c" opacity="0.85"><title>2025-12-15 | BTC buy 184.14 usd | reason=medium_drawdown_eth_tilt</title></rect>
<rect x="1094.2894495412845" y="491.0384238239074" width="6.1000000000000005" height="51.46157617609259" fill="#ea580c" opacity="0.85"><title>2025-12-22 | BTC buy 182.50 usd | reason=medium_drawdown_eth_tilt</title></rect>
<rect x="1105.4821100917432" y="491.24255450623906" width="6.1000000000000005" height="51.25744549376094" fill="#ea580c" opacity="0.85"><title>2025-12-29 | BTC buy 181.78 usd | reason=medium_drawdown_eth_tilt</title></rect>
<rect x="1116.674770642202" y="490.90207097355943" width="6.1000000000000005" height="51.59792902644057" fill="#ea580c" opacity="0.85"><title>2026-01-05 | BTC buy 182.98 usd | reason=medium_drawdown_eth_tilt</title></rect>
<rect x="1127.8674311926607" y="491.24478852012413" width="6.1000000000000005" height="51.25521147987587" fill="#ea580c" opacity="0.85"><title>2026-01-12 | BTC buy 181.77 usd | reason=medium_drawdown_eth_tilt</title></rect>
<rect x="1139.0600917431193" y="490.74937986670193" width="6.1000000000000005" height="51.75062013329807" fill="#ea580c" opacity="0.85"><title>2026-01-19 | BTC buy 183.53 usd | reason=medium_drawdown_eth_tilt</title></rect>
<rect x="1150.252752293578" y="491.843371983263" width="6.1000000000000005" height="50.65662801673699" fill="#ea580c" opacity="0.85"><title>2026-01-26 | BTC buy 179.65 usd | reason=medium_drawdown_eth_tilt</title></rect>
<rect x="1161.4454128440368" y="482.2510139802848" width="6.1000000000000005" height="60.248986019715176" fill="#ea580c" opacity="0.85"><title>2026-02-02 | BTC buy 213.66 usd | reason=deep_drawdown_eth_tilt</title></rect>
<rect x="1172.6380733944954" y="480.9305733285009" width="6.1000000000000005" height="61.569426671499116" fill="#ea580c" opacity="0.85"><title>2026-02-09 | BTC buy 218.35 usd | reason=deep_drawdown_eth_tilt</title></rect>
<rect x="1183.8307339449543" y="481.78223315167645" width="6.1000000000000005" height="60.71776684832355" fill="#ea580c" opacity="0.85"><title>2026-02-16 | BTC buy 215.33 usd | reason=deep_drawdown_eth_tilt</title></rect>
<rect x="1195.023394495413" y="481.45849084409036" width="6.1000000000000005" height="61.04150915590964" fill="#ea580c" opacity="0.85"><title>2026-02-23 | BTC buy 216.48 usd | reason=deep_drawdown_eth_tilt</title></rect>
<rect x="1206.2160550458716" y="481.32666156040415" width="6.1000000000000005" height="61.17333843959585" fill="#ea580c" opacity="0.85"><title>2026-03-02 | BTC buy 216.94 usd | reason=deep_drawdown_eth_tilt</title></rect>
<rect x="1217.4087155963302" y="487.3939740803068" width="6.1000000000000005" height="55.106025919693195" fill="#ea580c" opacity="0.85"><title>2026-03-09 | BTC buy 195.43 usd | reason=deep_drawdown_eth_tilt</title></rect>
<rect x="1228.601376146789" y="480.0" width="6.1000000000000005" height="62.5" fill="#ea580c" opacity="0.85"><title>2026-03-16 | BTC buy 221.65 usd | reason=deep_drawdown_eth_tilt</title></rect>
<rect x="1239.7940366972477" y="510.28324626404446" width="6.1000000000000005" height="32.216753735955535" fill="#ea580c" opacity="0.85"><title>2026-03-23 | BTC buy 114.25 usd | reason=deep_drawdown_eth_tilt</title></rect>
<rect x="1250.9866972477066" y="514.63493422834" width="6.1000000000000005" height="27.865065771660056" fill="#ea580c" opacity="0.85"><title>2026-03-30 | BTC buy 98.82 usd | reason=deep_drawdown_eth_tilt</title></rect>
<rect x="1262.1793577981653" y="524.0455263316103" width="6.1000000000000005" height="18.45447366838971" fill="#ea580c" opacity="0.85"><title>2026-04-06 | BTC buy 65.45 usd | reason=deep_drawdown_eth_tilt</title></rect>
<rect x="1273.372018348624" y="502.64134713345294" width="6.1000000000000005" height="39.85865286654706" fill="#ea580c" opacity="0.85"><title>2026-04-13 | BTC buy 141.35 usd | reason=deep_drawdown_eth_tilt</title></rect>
<rect x="1284.5646788990825" y="542.5" width="6.1000000000000005" height="1.5" fill="#ea580c" opacity="0.85"><title>2026-04-20 | BTC buy 0.00 usd | reason=deep_drawdown_eth_tilt</title></rect>
<rect x="1295.7573394495414" y="542.5" width="6.1000000000000005" height="1.5" fill="#ea580c" opacity="0.85"><title>2026-04-27 | BTC buy 0.00 usd | reason=deep_drawdown_eth_tilt</title></rect>
<rect x="1306.95" y="542.5" width="6.1000000000000005" height="1.5" fill="#ea580c" opacity="0.85"><title>2026-05-04 | BTC buy 0.00 usd | reason=deep_drawdown_eth_tilt</title></rect>
<text x="24" y="542.5" transform="rotate(-90 24,542.5)" text-anchor="middle" font-family="monospace" font-size="14" fill="#0f172a">BTC weekly trade usd</text>
<line x1="90" y1="770" x2="1310" y2="770" stroke="#334155" stroke-width="2"/>
<line x1="90" y1="645" x2="90" y2="770" stroke="#334155" stroke-width="2"/>
<line x1="90" y1="707.5" x2="1310" y2="707.5" stroke="#64748b" stroke-width="1.5" stroke-dasharray="6 4"/>
<line x1="90" y1="770.0" x2="1310" y2="770.0" stroke="#e2e8f0" stroke-width="1"/>
<text x="78" y="774.0" text-anchor="end" font-family="monospace" font-size="11" fill="#475569">-1410</text>
<line x1="90" y1="707.5" x2="1310" y2="707.5" stroke="#e2e8f0" stroke-width="1"/>
<text x="78" y="711.5" text-anchor="end" font-family="monospace" font-size="11" fill="#475569">0</text>
<line x1="90" y1="645.0" x2="1310" y2="645.0" stroke="#e2e8f0" stroke-width="1"/>
<text x="78" y="649.0" text-anchor="end" font-family="monospace" font-size="11" fill="#475569">1410</text>
<rect x="86.95" y="707.5" width="6.1000000000000005" height="1.5" fill="#2563eb" opacity="0.85"><title>2024-04-01 | ETH buy 0.00 usd | reason=both_assets_expensive_eth_tilt</title></rect>
<rect x="98.14266055045871" y="707.5" width="6.1000000000000005" height="1.5" fill="#2563eb" opacity="0.85"><title>2024-04-08 | ETH buy 0.00 usd | reason=both_assets_expensive_eth_tilt</title></rect>
<rect x="109.33532110091744" y="701.9910488167301" width="6.1000000000000005" height="5.5089511832699145" fill="#2563eb" opacity="0.85"><title>2024-04-15 | ETH buy 124.25 usd | reason=neutral_drawdown_eth_tilt</title></rect>
<rect x="120.52798165137615" y="701.8793053458115" width="6.1000000000000005" height="5.620694654188469" fill="#2563eb" opacity="0.85"><title>2024-04-22 | ETH buy 126.77 usd | reason=neutral_drawdown_eth_tilt</title></rect>
<rect x="131.72064220183486" y="702.1021470615673" width="6.1000000000000005" height="5.39785293843272" fill="#2563eb" opacity="0.85"><title>2024-04-29 | ETH buy 121.75 usd | reason=neutral_drawdown_eth_tilt</title></rect>
<rect x="142.91330275229356" y="701.9612162427674" width="6.1000000000000005" height="5.538783757232636" fill="#2563eb" opacity="0.85"><title>2024-05-06 | ETH buy 124.92 usd | reason=neutral_drawdown_eth_tilt</title></rect>
<rect x="154.1059633027523" y="697.4358517278981" width="6.1000000000000005" height="10.064148272101875" fill="#2563eb" opacity="0.85"><title>2024-05-13 | ETH buy 226.99 usd | reason=medium_drawdown_eth_tilt</title></rect>
<rect x="165.29862385321098" y="707.5" width="6.1000000000000005" height="1.5" fill="#2563eb" opacity="0.85"><title>2024-05-20 | ETH buy 0.00 usd | reason=both_assets_expensive_eth_tilt</title></rect>
<rect x="176.49128440366974" y="707.5" width="6.1000000000000005" height="1.5" fill="#2563eb" opacity="0.85"><title>2024-05-27 | ETH buy 0.00 usd | reason=both_assets_expensive_btc_tilt</title></rect>
<rect x="187.68394495412844" y="707.5" width="6.1000000000000005" height="1.5" fill="#2563eb" opacity="0.85"><title>2024-06-03 | ETH buy 0.00 usd | reason=both_assets_expensive_eth_tilt</title></rect>
<rect x="198.87660550458713" y="707.5" width="6.1000000000000005" height="1.5" fill="#2563eb" opacity="0.85"><title>2024-06-10 | ETH buy 0.00 usd | reason=both_assets_expensive_eth_tilt</title></rect>
<rect x="210.0692660550459" y="707.5" width="6.1000000000000005" height="1.5" fill="#2563eb" opacity="0.85"><title>2024-06-17 | ETH buy 0.00 usd | reason=both_assets_expensive_eth_tilt</title></rect>
<rect x="221.26192660550458" y="702.5121116693842" width="6.1000000000000005" height="4.98788833061576" fill="#2563eb" opacity="0.85"><title>2024-06-24 | ETH buy 112.50 usd | reason=neutral_drawdown_btc_tilt</title></rect>
<rect x="232.4545871559633" y="702.4449766042015" width="6.1000000000000005" height="5.055023395798457" fill="#2563eb" opacity="0.85"><title>2024-07-01 | ETH buy 114.01 usd | reason=neutral_drawdown_eth_tilt</title></rect>
<rect x="243.647247706422" y="698.3404629851874" width="6.1000000000000005" height="9.1595370148126" fill="#2563eb" opacity="0.85"><title>2024-07-08 | ETH buy 206.59 usd | reason=medium_drawdown_eth_tilt</title></rect>
<rect x="254.83990825688073" y="707.5" width="6.1000000000000005" height="1.5" fill="#2563eb" opacity="0.85"><title>2024-07-15 | ETH buy 0.00 usd | reason=both_assets_expensive_eth_tilt</title></rect>
<rect x="266.0325688073395" y="702.1255909395613" width="6.1000000000000005" height="5.374409060438666" fill="#2563eb" opacity="0.85"><title>2024-07-22 | ETH buy 121.22 usd | reason=neutral_drawdown_eth_tilt</title></rect>
<rect x="277.2252293577981" y="702.027693550083" width="6.1000000000000005" height="5.472306449917028" fill="#2563eb" opacity="0.85"><title>2024-07-29 | ETH buy 123.42 usd | reason=neutral_drawdown_eth_tilt</title></rect>
<rect x="288.4178899082569" y="697.359892824502" width="6.1000000000000005" height="10.140107175497974" fill="#2563eb" opacity="0.85"><title>2024-08-05 | ETH buy 228.70 usd | reason=medium_drawdown_eth_tilt</title></rect>
<rect x="299.61055045871564" y="697.3736492463559" width="6.1000000000000005" height="10.126350753644147" fill="#2563eb" opacity="0.85"><title>2024-08-12 | ETH buy 228.39 usd | reason=medium_drawdown_eth_tilt</title></rect>
<rect x="310.8032110091743" y="697.1750463298612" width="6.1000000000000005" height="10.324953670138825" fill="#2563eb" opacity="0.85"><title>2024-08-19 | ETH buy 232.87 usd | reason=medium_drawdown_eth_tilt</title></rect>
<rect x="321.99587155963303" y="696.859465166475" width="6.1000000000000005" height="10.640534833524953" fill="#2563eb" opacity="0.85"><title>2024-08-26 | ETH buy 239.99 usd | reason=medium_drawdown_eth_tilt</title></rect>
<rect x="333.1885321100918" y="696.996339962364" width="6.1000000000000005" height="10.503660037635996" fill="#2563eb" opacity="0.85"><title>2024-09-02 | ETH buy 236.90 usd | reason=medium_drawdown_eth_tilt</title></rect>
<rect x="344.3811926605505" y="696.8617100253648" width="6.1000000000000005" height="10.6382899746352" fill="#2563eb" opacity="0.85"><title>2024-09-09 | ETH buy 239.94 usd | reason=medium_drawdown_eth_tilt</title></rect>
<rect x="355.5738532110092" y="696.5801769573645" width="6.1000000000000005" height="10.919823042635471" fill="#2563eb" opacity="0.85"><title>2024-09-16 | ETH buy 246.29 usd | reason=medium_drawdown_eth_tilt</title></rect>
<rect x="366.7665137614679" y="696.7247231194799" width="6.1000000000000005" height="10.775276880520096" fill="#2563eb" opacity="0.85"><title>2024-09-23 | ETH buy 243.03 usd | reason=medium_drawdown_eth_tilt</title></rect>
<rect x="377.95917431192663" y="696.6301685405913" width="6.1000000000000005" height="10.869831459408715" fill="#2563eb" opacity="0.85"><title>2024-09-30 | ETH buy 245.16 usd | reason=medium_drawdown_eth_tilt</title></rect>
<rect x="389.15183486238533" y="696.3720145354208" width="6.1000000000000005" height="11.127985464579183" fill="#2563eb" opacity="0.85"><title>2024-10-07 | ETH buy 250.98 usd | reason=medium_drawdown_eth_tilt</title></rect>
<rect x="400.344495412844" y="696.3548968547352" width="6.1000000000000005" height="11.145103145264784" fill="#2563eb" opacity="0.85"><title>2024-10-14 | ETH buy 251.37 usd | reason=medium_drawdown_eth_tilt</title></rect>
<rect x="411.5371559633028" y="696.2794769877313" width="6.1000000000000005" height="11.2205230122687" fill="#2563eb" opacity="0.85"><title>2024-10-21 | ETH buy 253.07 usd | reason=medium_drawdown_eth_tilt</title></rect>
<rect x="422.7298165137615" y="695.7494569519808" width="6.1000000000000005" height="11.750543048019154" fill="#2563eb" opacity="0.85"><title>2024-10-28 | ETH buy 265.03 usd | reason=medium_drawdown_eth_tilt</title></rect>
<rect x="433.9224770642202" y="695.6383325622073" width="6.1000000000000005" height="11.861667437792676" fill="#2563eb" opacity="0.85"><title>2024-11-04 | ETH buy 267.53 usd | reason=medium_drawdown_eth_tilt</title></rect>
<rect x="445.11513761467893" y="701.6651144387" width="6.1000000000000005" height="5.834885561299984" fill="#2563eb" opacity="0.85"><title>2024-11-11 | ETH buy 131.60 usd | reason=neutral_drawdown_eth_tilt</title></rect>
<rect x="456.3077981651376" y="701.4390689888912" width="6.1000000000000005" height="6.060931011108778" fill="#2563eb" opacity="0.85"><title>2024-11-18 | ETH buy 136.70 usd | reason=neutral_drawdown_eth_tilt</title></rect>
<rect x="467.5004587155963" y="702.0163178389488" width="6.1000000000000005" height="5.483682161051206" fill="#2563eb" opacity="0.85"><title>2024-11-25 | ETH buy 123.68 usd | reason=neutral_drawdown_eth_tilt</title></rect>
<rect x="478.6931192660551" y="707.5" width="6.1000000000000005" height="3.9504777555132478" fill="#7c3aed" opacity="0.85"><title>2024-12-02 | ETH sell 89.10 usd | reason=both_assets_expensive_eth_tilt</title></rect>
<rect x="489.8857798165138" y="707.5" width="6.1000000000000005" height="4.722852232333594" fill="#7c3aed" opacity="0.85"><title>2024-12-09 | ETH sell 106.52 usd | reason=both_assets_expensive_eth_tilt</title></rect>
<rect x="501.0784403669725" y="707.5" width="6.1000000000000005" height="6.693811636486771" fill="#7c3aed" opacity="0.85"><title>2024-12-16 | ETH sell 150.97 usd | reason=both_assets_expensive_eth_tilt</title></rect>
<rect x="512.2711009174313" y="702.2515037463254" width="6.1000000000000005" height="5.2484962536746025" fill="#2563eb" opacity="0.85"><title>2024-12-23 | ETH buy 118.38 usd | reason=neutral_drawdown_eth_tilt</title></rect>
<rect x="523.46376146789" y="702.2756362061626" width="6.1000000000000005" height="5.2243637938373695" fill="#2563eb" opacity="0.85"><title>2024-12-30 | ETH buy 117.83 usd | reason=neutral_drawdown_eth_tilt</title></rect>
<rect x="534.6564220183486" y="707.5" width="6.1000000000000005" height="4.2735096337960385" fill="#7c3aed" opacity="0.85"><title>2025-01-06 | ETH sell 96.39 usd | reason=both_assets_expensive_eth_tilt</title></rect>
<rect x="545.8490825688075" y="701.9176602776961" width="6.1000000000000005" height="5.582339722303914" fill="#2563eb" opacity="0.85"><title>2025-01-13 | ETH buy 125.91 usd | reason=neutral_drawdown_eth_tilt</title></rect>
<rect x="557.0417431192661" y="697.5241052431071" width="6.1000000000000005" height="9.975894756892899" fill="#2563eb" opacity="0.85"><title>2025-01-20 | ETH buy 225.00 usd | reason=neutral_drawdown_eth_tilt</title></rect>
<rect x="568.2344036697248" y="697.5241052431071" width="6.1000000000000005" height="9.975894756892899" fill="#2563eb" opacity="0.85"><title>2025-01-27 | ETH buy 225.00 usd | reason=neutral_drawdown_eth_tilt</title></rect>
<rect x="579.4270642201836" y="689.765075987746" width="6.1000000000000005" height="17.734924012254055" fill="#2563eb" opacity="0.85"><title>2025-02-03 | ETH buy 400.00 usd | reason=medium_drawdown_eth_tilt</title></rect>
<rect x="590.6197247706423" y="689.765075987746" width="6.1000000000000005" height="17.734924012254055" fill="#2563eb" opacity="0.85"><title>2025-02-10 | ETH buy 400.00 usd | reason=medium_drawdown_eth_tilt</title></rect>
<rect x="601.812385321101" y="690.2946297278284" width="6.1000000000000005" height="17.20537027217165" fill="#2563eb" opacity="0.85"><title>2025-02-17 | ETH buy 388.06 usd | reason=medium_drawdown_eth_tilt</title></rect>
<rect x="613.0050458715597" y="689.765075987746" width="6.1000000000000005" height="17.734924012254055" fill="#2563eb" opacity="0.85"><title>2025-02-24 | ETH buy 400.00 usd | reason=medium_drawdown_eth_tilt</title></rect>
<rect x="624.1977064220184" y="689.765075987746" width="6.1000000000000005" height="17.734924012254055" fill="#2563eb" opacity="0.85"><title>2025-03-03 | ETH buy 400.00 usd | reason=medium_drawdown_eth_tilt</title></rect>
<rect x="635.3903669724772" y="687.1662013025115" width="6.1000000000000005" height="20.333798697488533" fill="#2563eb" opacity="0.85"><title>2025-03-10 | ETH buy 458.62 usd | reason=deep_drawdown_eth_tilt</title></rect>
<rect x="646.5830275229358" y="685.3313449846825" width="6.1000000000000005" height="22.16865501531754" fill="#2563eb" opacity="0.85"><title>2025-03-17 | ETH buy 500.00 usd | reason=deep_drawdown_eth_tilt</title></rect>
<rect x="657.7756880733946" y="689.765075987746" width="6.1000000000000005" height="17.734924012254055" fill="#2563eb" opacity="0.85"><title>2025-03-24 | ETH buy 400.00 usd | reason=medium_drawdown_eth_tilt</title></rect>
<rect x="668.9683486238533" y="685.3313449846825" width="6.1000000000000005" height="22.16865501531754" fill="#2563eb" opacity="0.85"><title>2025-03-31 | ETH buy 500.00 usd | reason=deep_drawdown_eth_tilt</title></rect>
<rect x="680.161009174312" y="685.3313449846825" width="6.1000000000000005" height="22.16865501531754" fill="#2563eb" opacity="0.85"><title>2025-04-07 | ETH buy 500.00 usd | reason=deep_drawdown_eth_tilt</title></rect>
<rect x="691.3536697247707" y="685.3313449846825" width="6.1000000000000005" height="22.16865501531754" fill="#2563eb" opacity="0.85"><title>2025-04-14 | ETH buy 500.00 usd | reason=deep_drawdown_eth_tilt</title></rect>
<rect x="702.5463302752294" y="685.3313449846825" width="6.1000000000000005" height="22.16865501531754" fill="#2563eb" opacity="0.85"><title>2025-04-21 | ETH buy 500.00 usd | reason=deep_drawdown_eth_tilt</title></rect>
<rect x="713.7389908256881" y="691.4512577212786" width="6.1000000000000005" height="16.04874227872142" fill="#2563eb" opacity="0.85"><title>2025-04-28 | ETH buy 361.97 usd | reason=deep_drawdown_eth_tilt</title></rect>
<rect x="724.9316513761468" y="707.5" width="6.1000000000000005" height="1.5" fill="#2563eb" opacity="0.85"><title>2025-05-05 | ETH buy 0.00 usd | reason=deep_drawdown_eth_tilt</title></rect>
<rect x="736.1243119266056" y="707.5" width="6.1000000000000005" height="1.5" fill="#2563eb" opacity="0.85"><title>2025-05-12 | ETH buy 0.00 usd | reason=medium_drawdown_eth_tilt</title></rect>
<rect x="747.3169724770643" y="707.5" width="6.1000000000000005" height="1.5" fill="#2563eb" opacity="0.85"><title>2025-05-19 | ETH buy 0.00 usd | reason=medium_drawdown_eth_tilt</title></rect>
<rect x="758.509633027523" y="707.5" width="6.1000000000000005" height="1.5" fill="#2563eb" opacity="0.85"><title>2025-05-26 | ETH buy 0.00 usd | reason=medium_drawdown_eth_tilt</title></rect>
<rect x="769.7022935779817" y="707.5" width="6.1000000000000005" height="1.5" fill="#2563eb" opacity="0.85"><title>2025-06-02 | ETH buy 0.00 usd | reason=medium_drawdown_eth_tilt</title></rect>
<rect x="780.8949541284404" y="707.5" width="6.1000000000000005" height="1.5" fill="#2563eb" opacity="0.85"><title>2025-06-09 | ETH buy 0.00 usd | reason=medium_drawdown_eth_tilt</title></rect>
<rect x="792.0876146788991" y="707.5" width="6.1000000000000005" height="1.5" fill="#2563eb" opacity="0.85"><title>2025-06-16 | ETH buy 0.00 usd | reason=medium_drawdown_eth_tilt</title></rect>
<rect x="803.2802752293579" y="707.5" width="6.1000000000000005" height="1.5" fill="#2563eb" opacity="0.85"><title>2025-06-23 | ETH buy 0.00 usd | reason=medium_drawdown_eth_tilt</title></rect>
<rect x="814.4729357798166" y="707.5" width="6.1000000000000005" height="1.5" fill="#2563eb" opacity="0.85"><title>2025-06-30 | ETH buy 0.00 usd | reason=medium_drawdown_eth_tilt</title></rect>
<rect x="825.6655963302753" y="707.5" width="6.1000000000000005" height="1.5" fill="#2563eb" opacity="0.85"><title>2025-07-07 | ETH buy 0.00 usd | reason=medium_drawdown_eth_tilt</title></rect>
<rect x="836.858256880734" y="707.5" width="6.1000000000000005" height="8.186258140349082" fill="#7c3aed" opacity="0.85"><title>2025-07-14 | ETH sell 184.64 usd | reason=neutral_drawdown_eth_tilt</title></rect>
<rect x="848.0509174311927" y="707.5" width="6.1000000000000005" height="62.5" fill="#7c3aed" opacity="0.85"><title>2025-07-21 | ETH sell 1409.65 usd | reason=both_assets_expensive_eth_tilt</title></rect>
<rect x="859.2435779816514" y="707.5" width="6.1000000000000005" height="54.88196332886639" fill="#7c3aed" opacity="0.85"><title>2025-07-28 | ETH sell 1237.83 usd | reason=both_assets_expensive_eth_tilt</title></rect>
<rect x="870.4362385321102" y="707.5" width="6.1000000000000005" height="46.68525163730658" fill="#7c3aed" opacity="0.85"><title>2025-08-04 | ETH sell 1052.96 usd | reason=both_assets_expensive_eth_tilt</title></rect>
<rect x="881.6288990825689" y="707.5" width="6.1000000000000005" height="49.686356326787404" fill="#7c3aed" opacity="0.85"><title>2025-08-11 | ETH sell 1120.64 usd | reason=both_assets_expensive_btc_tilt</title></rect>
<rect x="892.8215596330276" y="707.5" width="6.1000000000000005" height="42.80754930771616" fill="#7c3aed" opacity="0.85"><title>2025-08-18 | ETH sell 965.50 usd | reason=both_assets_expensive_eth_tilt</title></rect>
<rect x="904.0142201834863" y="707.5" width="6.1000000000000005" height="40.884659173857244" fill="#7c3aed" opacity="0.85"><title>2025-08-25 | ETH sell 922.13 usd | reason=both_assets_expensive_btc_tilt</title></rect>
<rect x="915.206880733945" y="707.5" width="6.1000000000000005" height="34.33863863546503" fill="#7c3aed" opacity="0.85"><title>2025-09-01 | ETH sell 774.49 usd | reason=both_assets_expensive_btc_tilt</title></rect>
<rect x="926.3995412844037" y="707.5" width="6.1000000000000005" height="28.091711599393307" fill="#7c3aed" opacity="0.85"><title>2025-09-08 | ETH sell 633.59 usd | reason=both_assets_expensive_eth_tilt</title></rect>
<rect x="937.5922018348625" y="707.5" width="6.1000000000000005" height="27.49663972039218" fill="#7c3aed" opacity="0.85"><title>2025-09-15 | ETH sell 620.17 usd | reason=both_assets_expensive_btc_tilt</title></rect>
<rect x="948.7848623853212" y="707.5" width="6.1000000000000005" height="18.16881169542137" fill="#7c3aed" opacity="0.85"><title>2025-09-22 | ETH sell 409.79 usd | reason=both_assets_expensive_eth_tilt</title></rect>
<rect x="959.9775229357799" y="707.5" width="6.1000000000000005" height="15.210131290781533" fill="#7c3aed" opacity="0.85"><title>2025-09-29 | ETH sell 343.05 usd | reason=both_assets_expensive_eth_tilt</title></rect>
<rect x="971.1701834862386" y="707.5" width="6.1000000000000005" height="18.20261229863104" fill="#7c3aed" opacity="0.85"><title>2025-10-06 | ETH sell 410.55 usd | reason=both_assets_expensive_eth_tilt</title></rect>
<rect x="982.3628440366973" y="707.5" width="6.1000000000000005" height="11.461524721312685" fill="#7c3aed" opacity="0.85"><title>2025-10-13 | ETH sell 258.51 usd | reason=both_assets_expensive_eth_tilt</title></rect>
<rect x="993.555504587156" y="702.1996192432578" width="6.1000000000000005" height="5.300380756742243" fill="#2563eb" opacity="0.85"><title>2025-10-20 | ETH buy 119.55 usd | reason=neutral_drawdown_eth_tilt</title></rect>
<rect x="1004.7481651376148" y="707.5" width="6.1000000000000005" height="8.748800794418912" fill="#7c3aed" opacity="0.85"><title>2025-10-27 | ETH sell 197.32 usd | reason=both_assets_expensive_eth_tilt</title></rect>
<rect x="1015.9408256880735" y="697.6692603132099" width="6.1000000000000005" height="9.830739686790139" fill="#2563eb" opacity="0.85"><title>2025-11-03 | ETH buy 221.73 usd | reason=medium_drawdown_eth_tilt</title></rect>
<rect x="1027.1334862385322" y="697.6436063970536" width="6.1000000000000005" height="9.856393602946355" fill="#2563eb" opacity="0.85"><title>2025-11-10 | ETH buy 222.30 usd | reason=medium_drawdown_eth_tilt</title></rect>
<rect x="1038.3261467889909" y="697.6418032825716" width="6.1000000000000005" height="9.858196717428427" fill="#2563eb" opacity="0.85"><title>2025-11-17 | ETH buy 222.35 usd | reason=medium_drawdown_eth_tilt</title></rect>
<rect x="1049.5188073394495" y="697.7762161280301" width="6.1000000000000005" height="9.723783871969886" fill="#2563eb" opacity="0.85"><title>2025-11-24 | ETH buy 219.31 usd | reason=medium_drawdown_eth_tilt</title></rect>
<rect x="1060.7114678899081" y="697.6340745980782" width="6.1000000000000005" height="9.8659254019218" fill="#2563eb" opacity="0.85"><title>2025-12-01 | ETH buy 222.52 usd | reason=medium_drawdown_eth_tilt</title></rect>
<rect x="1071.9041284403672" y="697.9227762301723" width="6.1000000000000005" height="9.577223769827697" fill="#2563eb" opacity="0.85"><title>2025-12-08 | ETH buy 216.01 usd | reason=medium_drawdown_eth_tilt</title></rect>
<rect x="1083.0967889908259" y="697.9293332492555" width="6.1000000000000005" height="9.570666750744522" fill="#2563eb" opacity="0.85"><title>2025-12-15 | ETH buy 215.86 usd | reason=medium_drawdown_eth_tilt</title></rect>
<rect x="1094.2894495412845" y="697.8566897866588" width="6.1000000000000005" height="9.643310213341238" fill="#2563eb" opacity="0.85"><title>2025-12-22 | ETH buy 217.50 usd | reason=medium_drawdown_eth_tilt</title></rect>
<rect x="1105.4821100917432" y="697.8245930891094" width="6.1000000000000005" height="9.675406910890615" fill="#2563eb" opacity="0.85"><title>2025-12-29 | ETH buy 218.22 usd | reason=medium_drawdown_eth_tilt</title></rect>
<rect x="1116.674770642202" y="697.8781293671649" width="6.1000000000000005" height="9.621870632835112" fill="#2563eb" opacity="0.85"><title>2026-01-05 | ETH buy 217.02 usd | reason=medium_drawdown_eth_tilt</title></rect>
<rect x="1127.8674311926607" y="697.8242418216411" width="6.1000000000000005" height="9.675758178358933" fill="#2563eb" opacity="0.85"><title>2026-01-12 | ETH buy 218.23 usd | reason=medium_drawdown_eth_tilt</title></rect>
<rect x="1139.0600917431193" y="697.9021379102182" width="6.1000000000000005" height="9.597862089781756" fill="#2563eb" opacity="0.85"><title>2026-01-19 | ETH buy 216.47 usd | reason=medium_drawdown_eth_tilt</title></rect>
<rect x="1150.252752293578" y="697.7301229358619" width="6.1000000000000005" height="9.769877064138086" fill="#2563eb" opacity="0.85"><title>2026-01-26 | ETH buy 220.35 usd | reason=medium_drawdown_eth_tilt</title></rect>
<rect x="1161.4454128440368" y="694.8046561980711" width="6.1000000000000005" height="12.695343801928857" fill="#2563eb" opacity="0.85"><title>2026-02-02 | ETH buy 286.34 usd | reason=deep_drawdown_eth_tilt</title></rect>
<rect x="1172.6380733944954" y="695.0122770405043" width="6.1000000000000005" height="12.487722959495727" fill="#2563eb" opacity="0.85"><title>2026-02-09 | ETH buy 281.65 usd | reason=deep_drawdown_eth_tilt</title></rect>
<rect x="1183.8307339449543" y="694.8783654332576" width="6.1000000000000005" height="12.621634566742387" fill="#2563eb" opacity="0.85"><title>2026-02-16 | ETH buy 284.67 usd | reason=deep_drawdown_eth_tilt</title></rect>
<rect x="1195.023394495413" y="694.9292693875864" width="6.1000000000000005" height="12.570730612413627" fill="#2563eb" opacity="0.85"><title>2026-02-23 | ETH buy 283.52 usd | reason=deep_drawdown_eth_tilt</title></rect>
<rect x="1206.2160550458716" y="694.9499977004411" width="6.1000000000000005" height="12.550002299558855" fill="#2563eb" opacity="0.85"><title>2026-03-02 | ETH buy 283.06 usd | reason=deep_drawdown_eth_tilt</title></rect>
<rect x="1217.4087155963302" y="693.9959975831426" width="6.1000000000000005" height="13.504002416857361" fill="#2563eb" opacity="0.85"><title>2026-03-09 | ETH buy 304.57 usd | reason=deep_drawdown_eth_tilt</title></rect>
<rect x="1228.601376146789" y="695.1585966938322" width="6.1000000000000005" height="12.341403306167763" fill="#2563eb" opacity="0.85"><title>2026-03-16 | ETH buy 278.35 usd | reason=deep_drawdown_eth_tilt</title></rect>
<rect x="1239.7940366972477" y="695.0054664889316" width="6.1000000000000005" height="12.494533511068425" fill="#2563eb" opacity="0.85"><title>2026-03-23 | ETH buy 281.81 usd | reason=deep_drawdown_eth_tilt</title></rect>
<rect x="1250.9866972477066" y="701.2266304976137" width="6.1000000000000005" height="6.273369502386345" fill="#2563eb" opacity="0.85"><title>2026-03-30 | ETH buy 141.49 usd | reason=deep_drawdown_eth_tilt</title></rect>
<rect x="1262.1793577981653" y="705.1383771566202" width="6.1000000000000005" height="2.3616228433797914" fill="#2563eb" opacity="0.85"><title>2026-04-06 | ETH buy 53.26 usd | reason=deep_drawdown_eth_tilt</title></rect>
<rect x="1273.372018348624" y="707.5" width="6.1000000000000005" height="1.5" fill="#2563eb" opacity="0.85"><title>2026-04-13 | ETH buy 0.00 usd | reason=deep_drawdown_eth_tilt</title></rect>
<rect x="1284.5646788990825" y="704.3817385949042" width="6.1000000000000005" height="3.1182614050958364" fill="#2563eb" opacity="0.85"><title>2026-04-20 | ETH buy 70.33 usd | reason=deep_drawdown_eth_tilt</title></rect>
<rect x="1295.7573394495414" y="700.836088506827" width="6.1000000000000005" height="6.663911493173032" fill="#2563eb" opacity="0.85"><title>2026-04-27 | ETH buy 150.30 usd | reason=deep_drawdown_eth_tilt</title></rect>
<rect x="1306.95" y="700.5711707738238" width="6.1000000000000005" height="6.928829226176163" fill="#2563eb" opacity="0.85"><title>2026-05-04 | ETH buy 156.28 usd | reason=deep_drawdown_eth_tilt</title></rect>
<text x="24" y="707.5" transform="rotate(-90 24,707.5)" text-anchor="middle" font-family="monospace" font-size="14" fill="#0f172a">ETH weekly trade usd</text>
<rect x="1040" y="478" width="14" height="10" fill="#ea580c" opacity="0.85"/>
<text x="1062" y="488" font-family="monospace" font-size="11" fill="#0f172a">BTC buy</text>
<rect x="1190" y="478" width="14" height="10" fill="#dc2626" opacity="0.85"/>
<text x="1212" y="488" font-family="monospace" font-size="11" fill="#0f172a">BTC sell</text>
<rect x="1040" y="498" width="14" height="10" fill="#2563eb" opacity="0.85"/>
<text x="1062" y="508" font-family="monospace" font-size="11" fill="#0f172a">ETH buy</text>
<rect x="1190" y="498" width="14" height="10" fill="#7c3aed" opacity="0.85"/>
<text x="1212" y="508" font-family="monospace" font-size="11" fill="#0f172a">ETH sell</text>
</svg>