<svg xmlns="http://www.w3.org/2000/svg" width="1400" height="800">
<rect width="1400" height="800" fill="#f8fafc"/>
<text x="700.0" y="42" text-anchor="middle" font-family="monospace" font-size="24" fill="#0f172a">budgeted_btc_defensive_eth_aggressive | weekly | start=2026-01-01 | return=0.53%</text>
<line x1="90" y1="420" x2="1310" y2="420" stroke="#334155" stroke-width="2"/>
<line x1="90" y1="90" x2="90" y2="420" stroke="#334155" stroke-width="2"/>
<line x1="90.0" y1="420" x2="90.0" y2="90" stroke="#94a3b8" stroke-width="1.2"/>
<line x1="90.0" y1="605" x2="90.0" y2="480" stroke="#94a3b8" stroke-width="1.2"/>
<line x1="90.0" y1="770" x2="90.0" y2="645" stroke="#94a3b8" stroke-width="1.2"/>
<text x="90.0" y="788" text-anchor="middle" font-family="monospace" font-size="11" fill="#334155">2026-01</text>
<line x1="448.8235294117647" y1="420" x2="448.8235294117647" y2="90" stroke="#94a3b8" stroke-width="1.2"/>
<line x1="448.8235294117647" y1="605" x2="448.8235294117647" y2="480" stroke="#94a3b8" stroke-width="1.2"/>
<line x1="448.8235294117647" y1="770" x2="448.8235294117647" y2="645" stroke="#94a3b8" stroke-width="1.2"/>
<text x="448.8235294117647" y="788" text-anchor="middle" font-family="monospace" font-size="11" fill="#334155">2026-02</text>
<line x1="735.8823529411765" y1="420" x2="735.8823529411765" y2="90" stroke="#94a3b8" stroke-width="1.2"/>
<line x1="735.8823529411765" y1="605" x2="735.8823529411765" y2="480" stroke="#94a3b8" stroke-width="1.2"/>
<line x1="735.8823529411765" y1="770" x2="735.8823529411765" y2="645" stroke="#94a3b8" stroke-width="1.2"/>
<text x="735.8823529411765" y="788" text-anchor="middle" font-family="monospace" font-size="11" fill="#334155">2026-03</text>
<line x1="1022.9411764705882" y1="420" x2="1022.9411764705882" y2="90" stroke="#94a3b8" stroke-width="1.2"/>
<line x1="1022.9411764705882" y1="605" x2="1022.9411764705882" y2="480" stroke="#94a3b8" stroke-width="1.2"/>
<line x1="1022.9411764705882" y1="770" x2="1022.9411764705882" y2="645" stroke="#94a3b8" stroke-width="1.2"/>
<text x="1022.9411764705882" y="788" text-anchor="middle" font-family="monospace" font-size="11" fill="#334155">2026-04</text>
<line x1="90" y1="420.0" x2="1310" y2="420.0" stroke="#cbd5e1" stroke-width="1"/>
<text x="78" y="424.0" text-anchor="end" font-family="monospace" font-size="12" fill="#475569">0</text>
<line x1="90" y1="354.0" x2="1310" y2="354.0" stroke="#cbd5e1" stroke-width="1"/>
<text x="78" y="358.0" text-anchor="end" font-family="monospace" font-size="12" fill="#475569">3060</text>
<line x1="90" y1="288.0" x2="1310" y2="288.0" stroke="#cbd5e1" stroke-width="1"/>
<text x="78" y="292.0" text-anchor="end" font-family="monospace" font-size="12" fill="#475569">6120</text>
<line x1="90" y1="221.99999999999997" x2="1310" y2="221.99999999999997" stroke="#cbd5e1" stroke-width="1"/>
<text x="78" y="225.99999999999997" text-anchor="end" font-family="monospace" font-size="12" fill="#475569">9181</text>
<line x1="90" y1="156.0" x2="1310" y2="156.0" stroke="#cbd5e1" stroke-width="1"/>
<text x="78" y="160.0" text-anchor="end" font-family="monospace" font-size="12" fill="#475569">12241</text>
<line x1="90" y1="89.99999999999994" x2="1310" y2="89.99999999999994" stroke="#cbd5e1" stroke-width="1"/>
<text x="78" y="93.99999999999994" text-anchor="end" font-family="monospace" font-size="12" fill="#475569">15301</text>
<polygon points="90.0,106.20060650017854 161.76470588235293,115.90574238161628 233.52941176470588,125.61087826305408 305.29411764705884,135.31601414449182 377.05882352941177,145.02115002592961 448.8235294117647,154.7262859073674 520.5882352941177,164.43142178880518 592.3529411764705,174.13655767024295 664.1176470588235,183.84169355168075 735.8823529411765,193.54682943311855 807.6470588235294,203.2519653145563 879.4117647058824,212.95710119599408 951.1764705882354,222.66223707743185 1022.9411764705882,232.36737295886962 1094.705882352941,242.0725088403074 1166.4705882352941,251.7776447217452 1238.235294117647,261.48278060318296 1310.0,271.1879164846207 1310.0,420.0 1238.235294117647,420.0 1166.4705882352941,420.0 1094.705882352941,420.0 1022.9411764705882,420.0 951.1764705882354,420.0 879.4117647058824,420.0 807.6470588235294,420.0 735.8823529411765,420.0 664.1176470588235,420.0 592.3529411764705,420.0 520.5882352941177,420.0 448.8235294117647,420.0 377.05882352941177,420.0 305.29411764705884,420.0 233.52941176470588,420.0 161.76470588235293,420.0 90.0,420.0" fill="#facc15" fill-opacity="0.70" stroke="#facc15" stroke-width="1.2"/>
<polygon points="90.0,102.31855214760338 161.76470588235293,108.0072165045832 233.52941176470588,113.2866144302489 305.29411764705884,120.47889352330685 377.05882352941177,126.9638542260002 448.8235294117647,139.16058525665392 520.5882352941177,143.9343138527724 592.3529411764705,149.7358040680562 664.1176470588235,154.56014006665526 735.8823529411765,159.73215140140593 807.6470588235294,165.53875777852545 879.4117647058824,170.19843958793044 951.1764705882354,177.606286337152 1022.9411764705882,183.4722628714311 1094.705882352941,186.1247861333125 1166.4705882352941,187.89998229352443 1238.235294117647,194.19984601371164 1310.0,202.16690217291983 1310.0,271.1879164846207 1238.235294117647,261.48278060318296 1166.4705882352941,251.7776447217452 1094.705882352941,242.0725088403074 1022.9411764705882,232.36737295886962 951.1764705882354,222.66223707743185 879.4117647058824,212.95710119599408 807.6470588235294,203.2519653145563 735.8823529411765,193.54682943311855 664.1176470588235,183.84169355168075 592.3529411764705,174.13655767024295 520.5882352941177,164.43142178880518 448.8235294117647,154.7262859073674 377.05882352941177,145.02115002592961 305.29411764705884,135.31601414449182 233.52941176470588,125.61087826305408 161.76470588235293,115.90574238161628 90.0,106.20060650017854" fill="#2563eb" fill-opacity="0.70" stroke="#2563eb" stroke-width="1.2"/>
<polygon points="90.0,96.49547061874074 161.76470588235293,96.21093535032469 233.52941176470588,95.07609640769363 305.29411764705884,97.61201314479285 377.05882352941177,99.53918953969986 448.8235294117647,112.96172668565481 520.5882352941177,110.4866678438296 592.3529411764705,110.0788584693845 664.1176470588235,108.77337966218533 735.8823529411765,105.81766329037475 807.6470588235294,106.07197900116682 879.4117647058824,105.42563287804256 951.1764705882354,108.07509920377072 1022.9411764705882,110.01330973831648 1094.705882352941,101.45802943661994 1166.4705882352941,93.44192253056303 1238.235294117647,90.0 1310.0,94.77360534932075 1310.0,202.16690217291983 1238.235294117647,194.19984601371164 1166.4705882352941,187.89998229352443 1094.705882352941,186.1247861333125 1022.9411764705882,183.4722628714311 951.1764705882354,177.606286337152 879.4117647058824,170.19843958793044 807.6470588235294,165.53875777852545 735.8823529411765,159.73215140140593 664.1176470588235,154.56014006665526 592.3529411764705,149.7358040680562 520.5882352941177,143.9343138527724 448.8235294117647,139.16058525665392 377.05882352941177,126.9638542260002 305.29411764705884,120.47889352330685 233.52941176470588,113.2866144302489 161.76470588235293,108.0072165045832 90.0,102.31855214760338" fill="#f97316" fill-opacity="0.70" stroke="#f97316" stroke-width="1.2"/>
<rect x="1100" y="76" width="16" height="12" fill="#f97316" fill-opacity="0.70" stroke="#f97316"/>
<text x="1124" y="86" font-family="monospace" font-size="12" fill="#0f172a">BTC</text>
<rect x="1100" y="98" width="16" height="12" fill="#2563eb" fill-opacity="0.70" stroke="#2563eb"/>
<text x="1124" y="108" font-family="monospace" font-size="12" fill="#0f172a">ETH</text>
<rect x="1100" y="120" width="16" height="12" fill="#facc15" fill-opacity="0.70" stroke="#facc15"/>
<text x="1124" y="130" font-family="monospace" font-size="12" fill="#0f172a">DAI</text>
<text x="700.0" y="782" text-anchor="middle" font-family="monospace" font-size="16" fill="#0f172a">time</text>
<text x="24" y="255.0" transform="rotate(-90 24,255.0)" text-anchor="middle" font-family="monospace" font-size="16" fill="#0f172a">asset value split (usd)</text>
<line x1="90" y1="605" x2="1310" y2="605" stroke="#334155" stroke-width="2"/>
<line x1="90" y1="480" x2="90" y2="605" stroke="#334155" stroke-width="2"/>
<line x1="90" y1="542.5" x2="1310" y2="542.5" stroke="#64748b" stroke-width="1.5" stroke-dasharray="6 4"/>
<line x1="90" y1="605.0" x2="1310" y2="605.0" stroke="#e2e8f0" stroke-width="1"/>
<text x="78" y="609.0" text-anchor="end" font-family="monospace" font-size="11" fill="#475569">-270</text>
<line x1="90" y1="542.5" x2="1310" y2="542.5" stroke="#e2e8f0" stroke-width="1"/>
<text x="78" y="546.5" text-anchor="end" font-family="monospace" font-size="11" fill="#475569">0</text>
<line x1="90" y1="480.0" x2="1310" y2="480.0" stroke="#e2e8f0" stroke-width="1"/>
<text x="78" y="484.0" text-anchor="end" font-family="monospace" font-size="11" fill="#475569">270</text>
<rect x="71.36111111111111" y="480.0" width="37.27777777777778" height="62.5" fill="#ea580c" opacity="0.85"><title>2026-01-01 | BTC buy 270.00 usd | reason=both_weak_btc_defensive</title></rect>
<rect x="143.12581699346404" y="480.0" width="37.27777777777778" height="62.5" fill="#ea580c" opacity="0.85"><title>2026-01-08 | BTC buy 270.00 usd | reason=both_weak_btc_defensive</title></rect>
<rect x="214.890522875817" y="480.0" width="37.27777777777778" height="62.5" fill="#ea580c" opacity="0.85"><title>2026-01-15 | BTC buy 270.00 usd | reason=both_weak_btc_defensive</title></rect>
<rect x="286.6552287581699" y="480.0" width="37.27777777777778" height="62.5" fill="#ea580c" opacity="0.85"><title>2026-01-22 | BTC buy 270.00 usd | reason=both_weak_btc_defensive</title></rect>
<rect x="358.41993464052285" y="480.0" width="37.27777777777778" height="62.5" fill="#ea580c" opacity="0.85"><title>2026-01-29 | BTC buy 270.00 usd | reason=both_weak_btc_defensive</title></rect>
<rect x="430.1846405228758" y="480.0" width="37.27777777777778" height="62.5" fill="#ea580c" opacity="0.85"><title>2026-02-05 | BTC buy 270.00 usd | reason=both_weak_btc_defensive</title></rect>
<rect x="501.94934640522877" y="480.0" width="37.27777777777778" height="62.5" fill="#ea580c" opacity="0.85"><title>2026-02-12 | BTC buy 270.00 usd | reason=both_weak_btc_defensive</title></rect>
<rect x="573.7140522875816" y="480.0" width="37.27777777777778" height="62.5" fill="#ea580c" opacity="0.85"><title>2026-02-19 | BTC buy 270.00 usd | reason=both_weak_btc_defensive</title></rect>
<rect x="645.4787581699346" y="480.0" width="37.27777777777778" height="62.5" fill="#ea580c" opacity="0.85"><title>2026-02-26 | BTC buy 270.00 usd | reason=both_weak_btc_defensive</title></rect>
<rect x="717.2434640522875" y="480.0" width="37.27777777777778" height="62.5" fill="#ea580c" opacity="0.85"><title>2026-03-05 | BTC buy 270.00 usd | reason=both_weak_btc_defensive</title></rect>
<rect x="789.0081699346405" y="480.0" width="37.27777777777778" height="62.5" fill="#ea580c" opacity="0.85"><title>2026-03-12 | BTC buy 270.00 usd | reason=both_weak_btc_defensive</title></rect>
<rect x="860.7728758169935" y="480.0" width="37.27777777777778" height="62.5" fill="#ea580c" opacity="0.85"><title>2026-03-19 | BTC buy 270.00 usd | reason=both_weak_btc_defensive</title></rect>
<rect x="932.5375816993464" y="480.0" width="37.27777777777778" height="62.5" fill="#ea580c" opacity="0.85"><title>2026-03-26 | BTC buy 270.00 usd | reason=both_weak_btc_defensive</title></rect>
<rect x="1004.3022875816993" y="480.0" width="37.27777777777778" height="62.5" fill="#ea580c" opacity="0.85"><title>2026-04-02 | BTC buy 270.00 usd | reason=both_weak_btc_defensive</title></rect>
<rect x="1076.066993464052" y="480.0" width="37.27777777777778" height="62.5" fill="#ea580c" opacity="0.85"><title>2026-04-09 | BTC buy 270.00 usd | reason=both_weak_btc_defensive</title></rect>
<rect x="1147.8316993464052" y="480.0" width="37.27777777777778" height="62.5" fill="#ea580c" opacity="0.85"><title>2026-04-16 | BTC buy 270.00 usd | reason=both_weak_btc_defensive</title></rect>
<rect x="1219.5964052287582" y="480.0" width="37.27777777777778" height="62.5" fill="#ea580c" opacity="0.85"><title>2026-04-23 | BTC buy 270.00 usd | reason=both_weak_btc_defensive</title></rect>
<rect x="1291.361111111111" y="480.0" width="37.27777777777778" height="62.5" fill="#ea580c" opacity="0.85"><title>2026-04-30 | BTC buy 270.00 usd | reason=both_weak_btc_defensive</title></rect>
<text x="24" y="542.5" transform="rotate(-90 24,542.5)" text-anchor="middle" font-family="monospace" font-size="14" fill="#0f172a">BTC weekly trade usd</text>
<line x1="90" y1="770" x2="1310" y2="770" stroke="#334155" stroke-width="2"/>
<line x1="90" y1="645" x2="90" y2="770" stroke="#334155" stroke-width="2"/>
<line x1="90" y1="707.5" x2="1310" y2="707.5" stroke="#64748b" stroke-width="1.5" stroke-dasharray="6 4"/>
<line x1="90" y1="770.0" x2="1310" y2="770.0" stroke="#e2e8f0" stroke-width="1"/>
<text x="78" y="774.0" text-anchor="end" font-family="monospace" font-size="11" fill="#475569">-180</text>
<line x1="90" y1="707.5" x2="1310" y2="707.5" stroke="#e2e8f0" stroke-width="1"/>
<text x="78" y="711.5" text-anchor="end" font-family="monospace" font-size="11" fill="#475569">0</text>
<line x1="90" y1="645.0" x2="1310" y2="645.0" stroke="#e2e8f0" stroke-width="1"/>
<text x="78" y="649.0" text-anchor="end" font-family="monospace" font-size="11" fill="#475569">180</text>
<rect x="71.36111111111111" y="645.0" width="37.27777777777778" height="62.5" fill="#2563eb" opacity="0.85"><title>2026-01-01 | ETH buy 180.00 usd | reason=both_weak_btc_defensive</title></rect>
<rect x="143.12581699346404" y="645.0" width="37.27777777777778" height="62.5" fill="#2563eb" opacity="0.85"><title>2026-01-08 | ETH buy 180.00 usd | reason=both_weak_btc_defensive</title></rect>
<rect x="214.890522875817" y="645.0" width="37.27777777777778" height="62.5" fill="#2563eb" opacity="0.85"><title>2026-01-15 | ETH buy 180.00 usd | reason=both_weak_btc_defensive</title></rect>
<rect x="286.6552287581699" y="645.0" width="37.27777777777778" height="62.5" fill="#2563eb" opacity="0.85"><title>2026-01-22 | ETH buy 180.00 usd | reason=both_weak_btc_defensive</title></rect>
<rect x="358.41993464052285" y="645.0" width="37.27777777777778" height="62.5" fill="#2563eb" opacity="0.85"><title>2026-01-29 | ETH buy 180.00 usd | reason=both_weak_btc_defensive</title></rect>
<rect x="430.1846405228758" y="645.0" width="37.27777777777778" height="62.5" fill="#2563eb" opacity="0.85"><title>2026-02-05 | ETH buy 180.00 usd | reason=both_weak_btc_defensive</title></rect>
<rect x="501.94934640522877" y="645.0" width="37.27777777777778" height="62.5" fill="#2563eb" opacity="0.85"><title>2026-02-12 | ETH buy 180.00 usd | reason=both_weak_btc_defensive</title></rect>
<rect x="573.7140522875816" y="645.0" width="37.27777777777778" height="62.5" fill="#2563eb" opacity="0.85"><title>2026-02-19 | ETH buy 180.00 usd | reason=both_weak_btc_defensive</title></rect>
<rect x="645.4787581699346" y="645.0" width="37.27777777777778" height="62.5" fill="#2563eb" opacity="0.85"><title>2026-02-26 | ETH buy 180.00 usd | reason=both_weak_btc_defensive</title></rect>
<rect x="717.2434640522875" y="645.0" width="37.27777777777778" height="62.5" fill="#2563eb" opacity="0.85"><title>2026-03-05 | ETH buy 180.00 usd | reason=both_weak_btc_defensive</title></rect>
<rect x="789.0081699346405" y="645.0" width="37.27777777777778" height="62.5" fill="#2563eb" opacity="0.85"><title>2026-03-12 | ETH buy 180.00 usd | reason=both_weak_btc_defensive</title></rect>
<rect x="860.7728758169935" y="645.0" width="37.27777777777778" height="62.5" fill="#2563eb" opacity="0.85"><title>2026-03-19 | ETH buy 180.00 usd | reason=both_weak_btc_defensive</title></rect>
<rect x="932.5375816993464" y="645.0" width="37.27777777777778" height="62.5" fill="#2563eb" opacity="0.85"><title>2026-03-26 | ETH buy 180.00 usd | reason=both_weak_btc_defensive</title></rect>
<rect x="1004.3022875816993" y="645.0" width="37.27777777777778" height="62.5" fill="#2563eb" opacity="0.85"><title>2026-04-02 | ETH buy 180.00 usd | reason=both_weak_btc_defensive</title></rect>
<rect x="1076.066993464052" y="645.0" width="37.27777777777778" height="62.5" fill="#2563eb" opacity="0.85"><title>2026-04-09 | ETH buy 180.00 usd | reason=both_weak_btc_defensive</title></rect>
<rect x="1147.8316993464052" y="645.0" width="37.27777777777778" height="62.5" fill="#2563eb" opacity="0.85"><title>2026-04-16 | ETH buy 180.00 usd | reason=both_weak_btc_defensive</title></rect>
<rect x="1219.5964052287582" y="645.0" width="37.27777777777778" height="62.5" fill="#2563eb" opacity="0.85"><title>2026-04-23 | ETH buy 180.00 usd | reason=both_weak_btc_defensive</title></rect>
<rect x="1291.361111111111" y="645.0" width="37.27777777777778" height="62.5" fill="#2563eb" opacity="0.85"><title>2026-04-30 | ETH buy 180.00 usd | reason=both_weak_btc_defensive</title></rect>
<text x="24" y="707.5" transform="rotate(-90 24,707.5)" text-anchor="middle" font-family="monospace" font-size="14" fill="#0f172a">ETH weekly trade usd</text>
<rect x="1040" y="478" width="14" height="10" fill="#ea580c" opacity="0.85"/>
<text x="1062" y="488" font-family="monospace" font-size="11" fill="#0f172a">BTC buy</text>
<rect x="1190" y="478" width="14" height="10" fill="#dc2626" opacity="0.85"/>
<text x="1212" y="488" font-family="monospace" font-size="11" fill="#0f172a">BTC sell</text>
<rect x="1040" y="498" width="14" height="10" fill="#2563eb" opacity="0.85"/>
<text x="1062" y="508" font-family="monospace" font-size="11" fill="#0f172a">ETH buy</text>
<rect x="1190" y="498" width="14" height="10" fill="#7c3aed" opacity="0.85"/>
<text x="1212" y="508" font-family="monospace" font-size="11" fill="#0f172a">ETH sell</text>
</svg>