<svg xmlns="http://www.w3.org/2000/svg" width="1400" height="800">
<rect width="1400" height="800" fill="#f8fafc"/>
<text x="700.0" y="42" text-anchor="middle" font-family="monospace" font-size="24" fill="#0f172a">budgeted_drawdown_tilt_rebalance | weekly | start=2024-07-01 | return=34.89%</text>
<line x1="90" y1="420" x2="1310" y2="420" stroke="#334155" stroke-width="2"/>
<line x1="90" y1="90" x2="90" y2="420" stroke="#334155" stroke-width="2"/>
<line x1="90.0" y1="420" x2="90.0" y2="90" stroke="#94a3b8" stroke-width="1.2"/>
<line x1="90.0" y1="605" x2="90.0" y2="480" stroke="#94a3b8" stroke-width="1.2"/>
<line x1="90.0" y1="770" x2="90.0" y2="645" stroke="#94a3b8" stroke-width="1.2"/>
<text x="90.0" y="788" text-anchor="middle" font-family="monospace" font-size="11" fill="#334155">2024-07</text>
<line x1="153.54166666666669" y1="420" x2="153.54166666666669" y2="90" stroke="#94a3b8" stroke-width="1.2"/>
<line x1="153.54166666666669" y1="605" x2="153.54166666666669" y2="480" stroke="#94a3b8" stroke-width="1.2"/>
<line x1="153.54166666666669" y1="770" x2="153.54166666666669" y2="645" stroke="#94a3b8" stroke-width="1.2"/>
<text x="153.54166666666669" y="788" text-anchor="middle" font-family="monospace" font-size="11" fill="#334155">2024-08</text>
<line x1="204.375" y1="420" x2="204.375" y2="90" stroke="#94a3b8" stroke-width="1.2"/>
<line x1="204.375" y1="605" x2="204.375" y2="480" stroke="#94a3b8" stroke-width="1.2"/>
<line x1="204.375" y1="770" x2="204.375" y2="645" stroke="#94a3b8" stroke-width="1.2"/>
<text x="204.375" y="788" text-anchor="middle" font-family="monospace" font-size="11" fill="#334155">2024-09</text>
<line x1="267.9166666666667" y1="420" x2="267.9166666666667" y2="90" stroke="#94a3b8" stroke-width="1.2"/>
<line x1="267.9166666666667" y1="605" x2="267.9166666666667" y2="480" stroke="#94a3b8" stroke-width="1.2"/>
<line x1="267.9166666666667" y1="770" x2="267.9166666666667" y2="645" stroke="#94a3b8" stroke-width="1.2"/>
<text x="267.9166666666667" y="788" text-anchor="middle" font-family="monospace" font-size="11" fill="#334155">2024-10</text>
<line x1="318.75" y1="420" x2="318.75" y2="90" stroke="#94a3b8" stroke-width="1.2"/>
<line x1="318.75" y1="605" x2="318.75" y2="480" stroke="#94a3b8" stroke-width="1.2"/>
<line x1="318.75" y1="770" x2="318.75" y2="645" stroke="#94a3b8" stroke-width="1.2"/>
<text x="318.75" y="788" text-anchor="middle" font-family="monospace" font-size="11" fill="#334155">2024-11</text>
<line x1="369.5833333333333" y1="420" x2="369.5833333333333" y2="90" stroke="#94a3b8" stroke-width="1.2"/>
<line x1="369.5833333333333" y1="605" x2="369.5833333333333" y2="480" stroke="#94a3b8" stroke-width="1.2"/>
<line x1="369.5833333333333" y1="770" x2="369.5833333333333" y2="645" stroke="#94a3b8" stroke-width="1.2"/>
<text x="369.5833333333333" y="788" text-anchor="middle" font-family="monospace" font-size="11" fill="#334155">2024-12</text>
<line x1="433.125" y1="420" x2="433.125" y2="90" stroke="#94a3b8" stroke-width="1.2"/>
<line x1="433.125" y1="605" x2="433.125" y2="480" stroke="#94a3b8" stroke-width="1.2"/>
<line x1="433.125" y1="770" x2="433.125" y2="645" stroke="#94a3b8" stroke-width="1.2"/>
<text x="433.125" y="788" text-anchor="middle" font-family="monospace" font-size="11" fill="#334155">2025-01</text>
<line x1="483.95833333333337" y1="420" x2="483.95833333333337" y2="90" stroke="#94a3b8" stroke-width="1.2"/>
<line x1="483.95833333333337" y1="605" x2="483.95833333333337" y2="480" stroke="#94a3b8" stroke-width="1.2"/>
<line x1="483.95833333333337" y1="770" x2="483.95833333333337" y2="645" stroke="#94a3b8" stroke-width="1.2"/>
<text x="483.95833333333337" y="788" text-anchor="middle" font-family="monospace" font-size="11" fill="#334155">2025-02</text>
<line x1="534.7916666666666" y1="420" x2="534.7916666666666" y2="90" stroke="#94a3b8" stroke-width="1.2"/>
<line x1="534.7916666666666" y1="605" x2="534.7916666666666" y2="480" stroke="#94a3b8" stroke-width="1.2"/>
<line x1="534.7916666666666" y1="770" x2="534.7916666666666" y2="645" stroke="#94a3b8" stroke-width="1.2"/>
<text x="534.7916666666666" y="788" text-anchor="middle" font-family="monospace" font-size="11" fill="#334155">2025-03</text>
<line x1="598.3333333333334" y1="420" x2="598.3333333333334" y2="90" stroke="#94a3b8" stroke-width="1.2"/>
<line x1="598.3333333333334" y1="605" x2="598.3333333333334" y2="480" stroke="#94a3b8" stroke-width="1.2"/>
<line x1="598.3333333333334" y1="770" x2="598.3333333333334" y2="645" stroke="#94a3b8" stroke-width="1.2"/>
<text x="598.3333333333334" y="788" text-anchor="middle" font-family="monospace" font-size="11" fill="#334155">2025-04</text>
<line x1="649.1666666666666" y1="420" x2="649.1666666666666" y2="90" stroke="#94a3b8" stroke-width="1.2"/>
<line x1="649.1666666666666" y1="605" x2="649.1666666666666" y2="480" stroke="#94a3b8" stroke-width="1.2"/>
<line x1="649.1666666666666" y1="770" x2="649.1666666666666" y2="645" stroke="#94a3b8" stroke-width="1.2"/>
<text x="649.1666666666666" y="788" text-anchor="middle" font-family="monospace" font-size="11" fill="#334155">2025-05</text>
<line x1="700.0" y1="420" x2="700.0" y2="90" stroke="#94a3b8" stroke-width="1.2"/>
<line x1="700.0" y1="605" x2="700.0" y2="480" stroke="#94a3b8" stroke-width="1.2"/>
<line x1="700.0" y1="770" x2="700.0" y2="645" stroke="#94a3b8" stroke-width="1.2"/>
<text x="700.0" y="788" text-anchor="middle" font-family="monospace" font-size="11" fill="#334155">2025-06</text>
<line x1="763.5416666666667" y1="420" x2="763.5416666666667" y2="90" stroke="#94a3b8" stroke-width="1.2"/>
<line x1="763.5416666666667" y1="605" x2="763.5416666666667" y2="480" stroke="#94a3b8" stroke-width="1.2"/>
<line x1="763.5416666666667" y1="770" x2="763.5416666666667" y2="645" stroke="#94a3b8" stroke-width="1.2"/>
<text x="763.5416666666667" y="788" text-anchor="middle" font-family="monospace" font-size="11" fill="#334155">2025-07</text>
<line x1="814.375" y1="420" x2="814.375" y2="90" stroke="#94a3b8" stroke-width="1.2"/>
<line x1="814.375" y1="605" x2="814.375" y2="480" stroke="#94a3b8" stroke-width="1.2"/>
<line x1="814.375" y1="770" x2="814.375" y2="645" stroke="#94a3b8" stroke-width="1.2"/>
<text x="814.375" y="788" text-anchor="middle" font-family="monospace" font-size="11" fill="#334155">2025-08</text>
<line x1="865.2083333333333" y1="420" x2="865.2083333333333" y2="90" stroke="#94a3b8" stroke-width="1.2"/>
<line x1="865.2083333333333" y1="605" x2="865.2083333333333" y2="480" stroke="#94a3b8" stroke-width="1.2"/>
<line x1="865.2083333333333" y1="770" x2="865.2083333333333" y2="645" stroke="#94a3b8" stroke-width="1.2"/>
<text x="865.2083333333333" y="788" text-anchor="middle" font-family="monospace" font-size="11" fill="#334155">2025-09</text>
<line x1="928.75" y1="420" x2="928.75" y2="90" stroke="#94a3b8" stroke-width="1.2"/>
<line x1="928.75" y1="605" x2="928.75" y2="480" stroke="#94a3b8" stroke-width="1.2"/>
<line x1="928.75" y1="770" x2="928.75" y2="645" stroke="#94a3b8" stroke-width="1.2"/>
<text x="928.75" y="788" text-anchor="middle" font-family="monospace" font-size="11" fill="#334155">2025-10</text>
<line x1="979.5833333333333" y1="420" x2="979.5833333333333" y2="90" stroke="#94a3b8" stroke-width="1.2"/>
<line x1="979.5833333333333" y1="605" x2="979.5833333333333" y2="480" stroke="#94a3b8" stroke-width="1.2"/>
<line x1="979.5833333333333" y1="770" x2="979.5833333333333" y2="645" stroke="#94a3b8" stroke-width="1.2"/>
<text x="979.5833333333333" y="788" text-anchor="middle" font-family="monospace" font-size="11" fill="#334155">2025-11</text>
<line x1="1030.4166666666667" y1="420" x2="1030.4166666666667" y2="90" stroke="#94a3b8" stroke-width="1.2"/>
<line x1="1030.4166666666667" y1="605" x2="1030.4166666666667" y2="480" stroke="#94a3b8" stroke-width="1.2"/>
<line x1="1030.4166666666667" y1="770" x2="1030.4166666666667" y2="645" stroke="#94a3b8" stroke-width="1.2"/>
<text x="1030.4166666666667" y="788" text-anchor="middle" font-family="monospace" font-size="11" fill="#334155">2025-12</text>
<line x1="1093.9583333333333" y1="420" x2="1093.9583333333333" y2="90" stroke="#94a3b8" stroke-width="1.2"/>
<line x1="1093.9583333333333" y1="605" x2="1093.9583333333333" y2="480" stroke="#94a3b8" stroke-width="1.2"/>
<line x1="1093.9583333333333" y1="770" x2="1093.9583333333333" y2="645" stroke="#94a3b8" stroke-width="1.2"/>
<text x="1093.9583333333333" y="788" text-anchor="middle" font-family="monospace" font-size="11" fill="#334155">2026-01</text>
<line x1="1144.7916666666667" y1="420" x2="1144.7916666666667" y2="90" stroke="#94a3b8" stroke-width="1.2"/>
<line x1="1144.7916666666667" y1="605" x2="1144.7916666666667" y2="480" stroke="#94a3b8" stroke-width="1.2"/>
<line x1="1144.7916666666667" y1="770" x2="1144.7916666666667" y2="645" stroke="#94a3b8" stroke-width="1.2"/>
<text x="1144.7916666666667" y="788" text-anchor="middle" font-family="monospace" font-size="11" fill="#334155">2026-02</text>
<line x1="1195.625" y1="420" x2="1195.625" y2="90" stroke="#94a3b8" stroke-width="1.2"/>
<line x1="1195.625" y1="605" x2="1195.625" y2="480" stroke="#94a3b8" stroke-width="1.2"/>
<line x1="1195.625" y1="770" x2="1195.625" y2="645" stroke="#94a3b8" stroke-width="1.2"/>
<text x="1195.625" y="788" text-anchor="middle" font-family="monospace" font-size="11" fill="#334155">2026-03</text>
<line x1="1259.1666666666667" y1="420" x2="1259.1666666666667" y2="90" stroke="#94a3b8" stroke-width="1.2"/>
<line x1="1259.1666666666667" y1="605" x2="1259.1666666666667" y2="480" stroke="#94a3b8" stroke-width="1.2"/>
<line x1="1259.1666666666667" y1="770" x2="1259.1666666666667" y2="645" stroke="#94a3b8" stroke-width="1.2"/>
<text x="1259.1666666666667" y="788" text-anchor="middle" font-family="monospace" font-size="11" fill="#334155">2026-04</text>
<line x1="1310.0" y1="420" x2="1310.0" y2="90" stroke="#94a3b8" stroke-width="1.2"/>
<line x1="1310.0" y1="605" x2="1310.0" y2="480" stroke="#94a3b8" stroke-width="1.2"/>
<line x1="1310.0" y1="770" x2="1310.0" y2="645" stroke="#94a3b8" stroke-width="1.2"/>
<text x="1310.0" y="788" text-anchor="middle" font-family="monospace" font-size="11" fill="#334155">2026-05</text>
<line x1="90" y1="420.0" x2="1310" y2="420.0" stroke="#cbd5e1" stroke-width="1"/>
<text x="78" y="424.0" text-anchor="end" font-family="monospace" font-size="12" fill="#475569">0</text>
<line x1="90" y1="354.0" x2="1310" y2="354.0" stroke="#cbd5e1" stroke-width="1"/>
<text x="78" y="358.0" text-anchor="end" font-family="monospace" font-size="12" fill="#475569">5748</text>
<line x1="90" y1="288.0" x2="1310" y2="288.0" stroke="#cbd5e1" stroke-width="1"/>
<text x="78" y="292.0" text-anchor="end" font-family="monospace" font-size="12" fill="#475569">11495</text>
<line x1="90" y1="222.0" x2="1310" y2="222.0" stroke="#cbd5e1" stroke-width="1"/>
<text x="78" y="226.0" text-anchor="end" font-family="monospace" font-size="12" fill="#475569">17243</text>
<line x1="90" y1="156.0" x2="1310" y2="156.0" stroke="#cbd5e1" stroke-width="1"/>
<text x="78" y="160.0" text-anchor="end" font-family="monospace" font-size="12" fill="#475569">22991</text>
<line x1="90" y1="90.0" x2="1310" y2="90.0" stroke="#cbd5e1" stroke-width="1"/>
<text x="78" y="94.0" text-anchor="end" font-family="monospace" font-size="12" fill="#475569">28738</text>
<polygon points="90.0,250.3386876920386 102.70833333333333,254.93188734843014 115.41666666666666,254.93188734843014 128.125,257.5155621551504 140.83333333333331,260.0992369618706 153.54166666666669,264.6924366182621 166.25,269.2856362746536 178.95833333333334,273.8788359310451 191.66666666666666,278.4720355874366 204.375,283.0652352438281 217.08333333333334,287.6584349002196 229.79166666666666,292.2516345566112 242.5,296.8448342130027 255.20833333333331,301.4380338693942 267.9166666666667,306.0312335257857 280.625,310.6244331821772 293.3333333333333,315.2176328385687 306.0416666666667,319.8108324949602 318.75,324.4040321513517 331.4583333333333,326.98770695807195 344.1666666666667,329.57138176479214 356.875,332.1550565715124 369.5833333333333,331.8896948204234 382.2916666666667,331.3784410327876 395.0,330.40076266632155 407.70833333333337,332.9844374730418 420.41666666666663,335.568112279762 433.125,335.0950466941903 445.83333333333337,337.67872150091046 458.54166666666663,340.2623963076307 471.25,342.84607111435093 483.95833333333337,347.43927077074244 496.66666666666663,352.03247042713394 509.375,356.62567008352545 522.0833333333334,361.21886973991695 534.7916666666666,365.81206939630846 547.5,371.55356896679785 560.2083333333334,377.29506853728725 572.9166666666666,381.88826819367875 585.625,387.62976776416815 598.3333333333334,393.3712673346575 611.0416666666666,399.1127669051469 623.75,404.8542664756363 636.4583333333334,410.5957660461257 649.1666666666666,416.33726561661507 661.875,416.33726561661507 674.5833333333334,416.33726561661507 687.2916666666666,416.33726561661507 700.0,416.33726561661507 712.7083333333333,416.33726561661507 725.4166666666667,416.33726561661507 738.125,416.33726561661507 750.8333333333333,416.33726561661507 763.5416666666667,416.33726561661507 776.25,412.35878208860737 788.9583333333333,396.5271824743008 801.6666666666667,382.6229055735614 814.375,370.7972049010981 827.0833333333333,358.18523954033986 839.7916666666667,347.3235058648353 852.5,336.93913732236587 865.2083333333333,328.2202523421735 877.9166666666667,321.0920044978669 890.625,314.1042197360875 903.3333333333333,309.5034082755944 916.0416666666667,305.65339257307966 928.75,301.0229309892693 941.4583333333333,298.1217971854492 954.1666666666667,300.7054719921694 966.875,298.49484385359784 979.5833333333333,303.08804350998935 992.2916666666667,307.68124316638085 1005.0,312.27444282277236 1017.7083333333333,316.86764247916386 1030.4166666666667,321.46084213555537 1043.125,326.05404179194693 1055.8333333333333,330.6472414483384 1068.5416666666667,335.24044110472994 1081.25,339.8336407611214 1093.9583333333333,344.42684041751295 1106.6666666666667,349.02004007390445 1119.375,353.61323973029596 1132.0833333333333,358.20643938668746 1144.7916666666667,363.94793895717686 1157.5,369.68943852766625 1170.2083333333333,375.4309380981556 1182.9166666666667,381.172437668645 1195.625,386.9139372391344 1208.3333333333333,392.6554368096238 1221.0416666666667,398.3969363801132 1233.75,403.3764195771903 1246.4583333333333,406.37180526628106 1259.1666666666667,407.86536225753775 1271.875,409.526873884418 1284.5833333333333,410.36282579198706 1297.2916666666667,412.10038387205503 1310.0,413.89855230386905 1310.0,420.0 1297.2916666666667,420.0 1284.5833333333333,420.0 1271.875,420.0 1259.1666666666667,420.0 1246.4583333333333,420.0 1233.75,420.0 1221.0416666666667,420.0 1208.3333333333333,420.0 1195.625,420.0 1182.9166666666667,420.0 1170.2083333333333,420.0 1157.5,420.0 1144.7916666666667,420.0 1132.0833333333333,420.0 1119.375,420.0 1106.6666666666667,420.0 1093.9583333333333,420.0 1081.25,420.0 1068.5416666666667,420.0 1055.8333333333333,420.0 1043.125,420.0 1030.4166666666667,420.0 1017.7083333333333,420.0 1005.0,420.0 992.2916666666667,420.0 979.5833333333333,420.0 966.875,420.0 954.1666666666667,420.0 941.4583333333333,420.0 928.75,420.0 916.0416666666667,420.0 903.3333333333333,420.0 890.625,420.0 877.9166666666667,420.0 865.2083333333333,420.0 852.5,420.0 839.7916666666667,420.0 827.0833333333333,420.0 814.375,420.0 801.6666666666667,420.0 788.9583333333333,420.0 776.25,420.0 763.5416666666667,420.0 750.8333333333333,420.0 738.125,420.0 725.4166666666667,420.0 712.7083333333333,420.0 700.0,420.0 687.2916666666666,420.0 674.5833333333334,420.0 661.875,420.0 649.1666666666666,420.0 636.4583333333334,420.0 623.75,420.0 611.0416666666666,420.0 598.3333333333334,420.0 585.625,420.0 572.9166666666666,420.0 560.2083333333334,420.0 547.5,420.0 534.7916666666666,420.0 522.0833333333334,420.0 509.375,420.0 496.66666666666663,420.0 483.95833333333337,420.0 471.25,420.0 458.54166666666663,420.0 445.83333333333337,420.0 433.125,420.0 420.41666666666663,420.0 407.70833333333337,420.0 395.0,420.0 382.2916666666667,420.0 369.5833333333333,420.0 356.875,420.0 344.1666666666667,420.0 331.4583333333333,420.0 318.75,420.0 306.0416666666667,420.0 293.3333333333333,420.0 280.625,420.0 267.9166666666667,420.0 255.20833333333331,420.0 242.5,420.0 229.79166666666666,420.0 217.08333333333334,420.0 204.375,420.0 191.66666666666666,420.0 178.95833333333334,420.0 166.25,420.0 153.54166666666669,420.0 140.83333333333331,420.0 128.125,420.0 115.41666666666666,420.0 102.70833333333333,420.0 90.0,420.0" fill="#facc15" fill-opacity="0.70" stroke="#facc15" stroke-width="1.2"/>
<polygon points="90.0,249.0294781511018 102.70833333333333,251.41038572818283 115.41666666666666,250.86510643453593 128.125,252.10908423717734 140.83333333333331,253.46959197384243 153.54166666666669,257.22947193235035 166.25,258.2669010942632 178.95833333333334,260.53341822447953 191.66666666666666,262.15006575616513 204.375,264.893321115556 217.08333333333334,268.00377829107634 229.79166666666666,270.3092303436702 242.5,268.7512560777602 255.20833333333331,271.01168715110543 267.9166666666667,274.82344528755794 280.625,273.8618069131022 293.3333333333333,275.0369966318614 306.0416666666667,278.0897470383591 318.75,282.3535108999489 331.4583333333333,266.255281044247 344.1666666666667,270.2791825127508 356.875,267.64570050411345 369.5833333333333,263.30442214914194 382.2916666666667,262.004988183091 395.0,256.88581518126193 407.70833333333337,268.609042135024 420.41666666666663,271.0159942837582 433.125,264.6086051376262 445.83333333333337,276.30702637880336 458.54166666666663,274.57351598857673 471.25,277.6060988161314 483.95833333333337,284.90156923510074 496.66666666666663,289.8060229761554 509.375,289.65810675418186 522.0833333333334,295.8330879131451 534.7916666666666,305.3500380823892 547.5,315.0051118173871 560.2083333333334,313.1194756478232 572.9166666666666,307.9441965609567 585.625,317.1654480646597 598.3333333333334,327.5837085125396 611.0416666666666,324.5588129641118 623.75,326.6007456077804 636.4583333333334,315.66640697288796 649.1666666666666,314.6175890510507 661.875,276.856991813559 674.5833333333334,275.01948228661024 687.2916666666666,273.0294058190116 700.0,270.5162426977559 712.7083333333333,266.4924992080871 725.4166666666667,274.0940212839864 738.125,281.48597338646545 750.8333333333333,277.39796177161446 763.5416666666667,274.2555298768356 776.25,245.88003132606624 788.9583333333333,204.50402589692442 801.6666666666667,202.68213365610657 814.375,206.40412185047964 827.0833333333333,184.15394902661808 839.7916666666667,180.40965292513522 852.5,178.02509747943012 865.2083333333333,180.28553680130233 877.9166666666667,180.5913655525248 890.625,173.4544771056421 903.3333333333333,183.46846920453604 916.0416666666667,183.02370210690572 928.75,169.38402959354553 941.4583333333333,181.78943255864252 954.1666666666667,190.24308473237346 966.875,186.36676357720685 979.5833333333333,202.48996930847485 992.2916666666667,205.54650998942506 1005.0,223.01058090021738 1017.7083333333333,227.3052857980711 1030.4166666666667,234.0234458458946 1043.125,225.93014210395415 1055.8333333333333,233.18805756941242 1068.5416666666667,233.86049412467736 1081.25,238.42530100841097 1093.9583333333333,230.46928411665132 1106.6666666666667,237.26474336924554 1119.375,235.9178867767993 1132.0833333333333,247.60535658110956 1144.7916666666667,272.04191091774777 1157.5,284.00507609032775 1170.2083333333333,290.8172228085946 1182.9166666666667,299.30859413707606 1195.625,294.21258724078757 1208.3333333333333,298.26083362545637 1221.0416666666667,283.76877005012614 1233.75,295.1387049883586 1246.4583333333333,302.8040789040237 1259.1666666666667,299.3957211179368 1271.875,287.5260002917877 1284.5833333333333,290.3821305699215 1297.2916666666667,290.9704262212637 1310.0,288.68238552674336 1310.0,413.89855230386905 1297.2916666666667,412.10038387205503 1284.5833333333333,410.36282579198706 1271.875,409.526873884418 1259.1666666666667,407.86536225753775 1246.4583333333333,406.37180526628106 1233.75,403.3764195771903 1221.0416666666667,398.3969363801132 1208.3333333333333,392.6554368096238 1195.625,386.9139372391344 1182.9166666666667,381.172437668645 1170.2083333333333,375.4309380981556 1157.5,369.68943852766625 1144.7916666666667,363.94793895717686 1132.0833333333333,358.20643938668746 1119.375,353.61323973029596 1106.6666666666667,349.02004007390445 1093.9583333333333,344.42684041751295 1081.25,339.8336407611214 1068.5416666666667,335.24044110472994 1055.8333333333333,330.6472414483384 1043.125,326.05404179194693 1030.4166666666667,321.46084213555537 1017.7083333333333,316.86764247916386 1005.0,312.27444282277236 992.2916666666667,307.68124316638085 979.5833333333333,303.08804350998935 966.875,298.49484385359784 954.1666666666667,300.7054719921694 941.4583333333333,298.1217971854492 928.75,301.0229309892693 916.0416666666667,305.65339257307966 903.3333333333333,309.5034082755944 890.625,314.1042197360875 877.9166666666667,321.0920044978669 865.2083333333333,328.2202523421735 852.5,336.93913732236587 839.7916666666667,347.3235058648353 827.0833333333333,358.18523954033986 814.375,370.7972049010981 801.6666666666667,382.6229055735614 788.9583333333333,396.5271824743008 776.25,412.35878208860737 763.5416666666667,416.33726561661507 750.8333333333333,416.33726561661507 738.125,416.33726561661507 725.4166666666667,416.33726561661507 712.7083333333333,416.33726561661507 700.0,416.33726561661507 687.2916666666666,416.33726561661507 674.5833333333334,416.33726561661507 661.875,416.33726561661507 649.1666666666666,416.33726561661507 636.4583333333334,410.5957660461257 623.75,404.8542664756363 611.0416666666666,399.1127669051469 598.3333333333334,393.3712673346575 585.625,387.62976776416815 572.9166666666666,381.88826819367875 560.2083333333334,377.29506853728725 547.5,371.55356896679785 534.7916666666666,365.81206939630846 522.0833333333334,361.21886973991695 509.375,356.62567008352545 496.66666666666663,352.03247042713394 483.95833333333337,347.43927077074244 471.25,342.84607111435093 458.54166666666663,340.2623963076307 445.83333333333337,337.67872150091046 433.125,335.0950466941903 420.41666666666663,335.568112279762 407.70833333333337,332.9844374730418 395.0,330.40076266632155 382.2916666666667,331.3784410327876 369.5833333333333,331.8896948204234 356.875,332.1550565715124 344.1666666666667,329.57138176479214 331.4583333333333,326.98770695807195 318.75,324.4040321513517 306.0416666666667,319.8108324949602 293.3333333333333,315.2176328385687 280.625,310.6244331821772 267.9166666666667,306.0312335257857 255.20833333333331,301.4380338693942 242.5,296.8448342130027 229.79166666666666,292.2516345566112 217.08333333333334,287.6584349002196 204.375,283.0652352438281 191.66666666666666,278.4720355874366 178.95833333333334,273.8788359310451 166.25,269.2856362746536 153.54166666666669,264.6924366182621 140.83333333333331,260.0992369618706 128.125,257.5155621551504 115.41666666666666,254.93188734843014 102.70833333333333,254.93188734843014 90.0,250.3386876920386" fill="#2563eb" fill-opacity="0.70" stroke="#2563eb" stroke-width="1.2"/>
<polygon points="90.0,247.75501288531842 102.70833333333333,248.03932262639222 115.41666666666666,247.01497121002393 128.125,246.9006650630445 140.83333333333331,247.1554366628008 153.54166666666669,250.15328330018872 166.25,248.52212942399856 178.95833333333334,248.85411142671785 191.66666666666666,247.96793914970962 204.375,249.67343418051217 217.08333333333334,251.48274438999016 229.79166666666666,251.68873264549373 242.5,246.6871839760011 255.20833333333331,247.18271737661271 267.9166666666667,249.6977791838283 280.625,245.4680236315552 293.3333333333333,244.40570199625398 306.0416666666667,244.73582656552756 318.75,248.48828175430074 331.4583333333333,220.8478454813791 344.1666666666667,222.94961671103982 356.875,217.85614403046054 369.5833333333333,211.9821612657015 382.2916666666667,209.9000569709058 395.0,200.08299890372777 407.70833333333337,216.6504384656601 420.41666666666663,219.00223787394523 433.125,207.17073495201245 445.83333333333337,222.09638513524237 458.54166666666663,214.890247028185 471.25,216.91057736227933 483.95833333333337,223.38504239491937 496.66666666666663,230.62900471820848 509.375,229.71640318215753 522.0833333333334,238.02051625338515 534.7916666666666,250.9171877589658 547.5,263.70808039455744 560.2083333333334,258.2521850858502 572.9166666666666,250.7830983102941 585.625,263.2628286966351 598.3333333333334,275.89789059083546 611.0416666666666,269.3134074493613 623.75,269.44065965188224 636.4583333333334,253.59473212939452 649.1666666666666,252.7474457678171 661.875,209.71885351444897 674.5833333333334,206.04225257605134 687.2916666666666,201.53898128604584 700.0,201.35042573805373 712.7083333333333,194.45554652821545 725.4166666666667,204.30878442340654 738.125,212.6372659253833 750.8333333333333,207.40384605006528 763.5416666666667,203.5452123439968 776.25,169.587075621559 788.9583333333333,129.760890765333 801.6666666666667,127.53049440787174 814.375,133.17390316484398 827.0833333333333,108.60052071071237 839.7916666666667,106.39341707109179 852.5,107.92906266073902 865.2083333333333,110.75419622886375 877.9166666666667,109.25745123683834 890.625,100.01470433723534 903.3333333333333,111.71190779702414 916.0416666666667,110.23061719694527 928.75,90.0 941.4583333333333,108.41779685113738 954.1666666666667,118.65586759547654 966.875,112.5011722235177 979.5833333333333,131.4519569881473 992.2916666666667,132.85375285474834 1005.0,157.79746777980733 1017.7083333333333,162.73235352635595 1030.4166666666667,168.86382603049375 1043.125,155.3564295947922 1055.8333333333333,163.79786090807573 1068.5416666666667,160.6568777859714 1081.25,164.32963356466195 1093.9583333333333,148.52301804338038 1106.6666666666667,155.57251373959588 1119.375,150.88948321235875 1132.0833333333333,164.47306009989032 1144.7916666666667,195.4835268274845 1157.5,213.2747107046291 1170.2083333333333,218.8692671660701 1182.9166666666667,229.29712036692658 1195.625,217.15319844680246 1208.3333333333333,219.16910292550295 1221.0416666666667,194.67218673004257 1233.75,209.24909191680354 1246.4583333333333,220.6566443922839 1259.1666666666667,213.81641604814084 1271.875,193.3343083994713 1284.5833333333333,194.3952472105239 1297.2916666666667,193.0862469226076 1310.0,187.6503645731496 1310.0,288.68238552674336 1297.2916666666667,290.9704262212637 1284.5833333333333,290.3821305699215 1271.875,287.5260002917877 1259.1666666666667,299.3957211179368 1246.4583333333333,302.8040789040237 1233.75,295.1387049883586 1221.0416666666667,283.76877005012614 1208.3333333333333,298.26083362545637 1195.625,294.21258724078757 1182.9166666666667,299.30859413707606 1170.2083333333333,290.8172228085946 1157.5,284.00507609032775 1144.7916666666667,272.04191091774777 1132.0833333333333,247.60535658110956 1119.375,235.9178867767993 1106.6666666666667,237.26474336924554 1093.9583333333333,230.46928411665132 1081.25,238.42530100841097 1068.5416666666667,233.86049412467736 1055.8333333333333,233.18805756941242 1043.125,225.93014210395415 1030.4166666666667,234.0234458458946 1017.7083333333333,227.3052857980711 1005.0,223.01058090021738 992.2916666666667,205.54650998942506 979.5833333333333,202.48996930847485 966.875,186.36676357720685 954.1666666666667,190.24308473237346 941.4583333333333,181.78943255864252 928.75,169.38402959354553 916.0416666666667,183.02370210690572 903.3333333333333,183.46846920453604 890.625,173.4544771056421 877.9166666666667,180.5913655525248 865.2083333333333,180.28553680130233 852.5,178.02509747943012 839.7916666666667,180.40965292513522 827.0833333333333,184.15394902661808 814.375,206.40412185047964 801.6666666666667,202.68213365610657 788.9583333333333,204.50402589692442 776.25,245.88003132606624 763.5416666666667,274.2555298768356 750.8333333333333,277.39796177161446 738.125,281.48597338646545 725.4166666666667,274.0940212839864 712.7083333333333,266.4924992080871 700.0,270.5162426977559 687.2916666666666,273.0294058190116 674.5833333333334,275.01948228661024 661.875,276.856991813559 649.1666666666666,314.6175890510507 636.4583333333334,315.66640697288796 623.75,326.6007456077804 611.0416666666666,324.5588129641118 598.3333333333334,327.5837085125396 585.625,317.1654480646597 572.9166666666666,307.9441965609567 560.2083333333334,313.1194756478232 547.5,315.0051118173871 534.7916666666666,305.3500380823892 522.0833333333334,295.8330879131451 509.375,289.65810675418186 496.66666666666663,289.8060229761554 483.95833333333337,284.90156923510074 471.25,277.6060988161314 458.54166666666663,274.57351598857673 445.83333333333337,276.30702637880336 433.125,264.6086051376262 420.41666666666663,271.0159942837582 407.70833333333337,268.609042135024 395.0,256.88581518126193 382.2916666666667,262.004988183091 369.5833333333333,263.30442214914194 356.875,267.64570050411345 344.1666666666667,270.2791825127508 331.4583333333333,266.255281044247 318.75,282.3535108999489 306.0416666666667,278.0897470383591 293.3333333333333,275.0369966318614 280.625,273.8618069131022 267.9166666666667,274.82344528755794 255.20833333333331,271.01168715110543 242.5,268.7512560777602 229.79166666666666,270.3092303436702 217.08333333333334,268.00377829107634 204.375,264.893321115556 191.66666666666666,262.15006575616513 178.95833333333334,260.53341822447953 166.25,258.2669010942632 153.54166666666669,257.22947193235035 140.83333333333331,253.46959197384243 128.125,252.10908423717734 115.41666666666666,250.86510643453593 102.70833333333333,251.41038572818283 90.0,249.0294781511018" fill="#f97316" fill-opacity="0.70" stroke="#f97316" stroke-width="1.2"/>
<rect x="1100" y="76" width="16" height="12" fill="#f97316" fill-opacity="0.70" stroke="#f97316"/>
<text x="1124" y="86" font-family="monospace" font-size="12" fill="#0f172a">BTC</text>
<rect x="1100" y="98" width="16" height="12" fill="#2563eb" fill-opacity="0.70" stroke="#2563eb"/>
<text x="1124" y="108" font-family="monospace" font-size="12" fill="#0f172a">ETH</text>
<rect x="1100" y="120" width="16" height="12" fill="#facc15" fill-opacity="0.70" stroke="#facc15"/>
<text x="1124" y="130" font-family="monospace" font-size="12" fill="#0f172a">DAI</text>
<text x="700.0" y="782" text-anchor="middle" font-family="monospace" font-size="16" fill="#0f172a">time</text>
<text x="24" y="255.0" transform="rotate(-90 24,255.0)" text-anchor="middle" font-family="monospace" font-size="16" fill="#0f172a">asset value split (usd)</text>
<line x1="90" y1="605" x2="1310" y2="605" stroke="#334155" stroke-width="2"/>
<line x1="90" y1="480" x2="90" y2="605" stroke="#334155" stroke-width="2"/>
<line x1="90" y1="542.5" x2="1310" y2="542.5" stroke="#64748b" stroke-width="1.5" stroke-dasharray="6 4"/>
<line x1="90" y1="605.0" x2="1310" y2="605.0" stroke="#e2e8f0" stroke-width="1"/>
<text x="78" y="609.0" text-anchor="end" font-family="monospace" font-size="11" fill="#475569">-222</text>
<line x1="90" y1="542.5" x2="1310" y2="542.5" stroke="#e2e8f0" stroke-width="1"/>
<text x="78" y="546.5" text-anchor="end" font-family="monospace" font-size="11" fill="#475569">0</text>
<line x1="90" y1="480.0" x2="1310" y2="480.0" stroke="#e2e8f0" stroke-width="1"/>
<text x="78" y="484.0" text-anchor="end" font-family="monospace" font-size="11" fill="#475569">222</text>
<rect x="86.54123711340206" y="511.20391955239654" width="6.917525773195877" height="31.296080447603458" fill="#ea580c" opacity="0.85"><title>2024-07-01 | BTC buy 110.99 usd | reason=neutral_drawdown_eth_tilt</title></rect>
<rect x="99.24957044673539" y="487.9616913046936" width="6.917525773195877" height="54.5383086953064" fill="#ea580c" opacity="0.85"><title>2024-07-08 | BTC buy 193.41 usd | reason=medium_drawdown_eth_tilt</title></rect>
<rect x="111.95790378006872" y="542.5" width="6.917525773195877" height="1.5" fill="#ea580c" opacity="0.85"><title>2024-07-15 | BTC buy 0.00 usd | reason=both_assets_expensive_eth_tilt</title></rect>
<rect x="124.66623711340206" y="513.2351694512291" width="6.917525773195877" height="29.264830548770874" fill="#ea580c" opacity="0.85"><title>2024-07-22 | BTC buy 103.78 usd | reason=neutral_drawdown_eth_tilt</title></rect>
<rect x="137.3745704467354" y="513.8577836900299" width="6.917525773195877" height="28.64221630997008" fill="#ea580c" opacity="0.85"><title>2024-07-29 | BTC buy 101.58 usd | reason=neutral_drawdown_eth_tilt</title></rect>
<rect x="150.08290378006876" y="494.197985729286" width="6.917525773195877" height="48.30201427071398" fill="#ea580c" opacity="0.85"><title>2024-08-05 | BTC buy 171.30 usd | reason=medium_drawdown_eth_tilt</title></rect>
<rect x="162.79123711340208" y="494.11049673528163" width="6.917525773195877" height="48.38950326471837" fill="#ea580c" opacity="0.85"><title>2024-08-12 | BTC buy 171.61 usd | reason=medium_drawdown_eth_tilt</title></rect>
<rect x="175.4995704467354" y="495.3735845901858" width="6.917525773195877" height="47.12641540981417" fill="#ea580c" opacity="0.85"><title>2024-08-19 | BTC buy 167.13 usd | reason=medium_drawdown_eth_tilt</title></rect>
<rect x="188.2079037800687" y="497.38063837240145" width="6.917525773195877" height="45.11936162759855" fill="#ea580c" opacity="0.85"><title>2024-08-26 | BTC buy 160.01 usd | reason=medium_drawdown_eth_tilt</title></rect>
<rect x="200.91623711340208" y="496.51013306773956" width="6.917525773195877" height="45.98986693226044" fill="#ea580c" opacity="0.85"><title>2024-09-02 | BTC buy 163.10 usd | reason=medium_drawdown_eth_tilt</title></rect>
<rect x="213.6245704467354" y="497.3663613715914" width="6.917525773195877" height="45.13363862840862" fill="#ea580c" opacity="0.85"><title>2024-09-09 | BTC buy 160.06 usd | reason=medium_drawdown_eth_tilt</title></rect>
<rect x="226.3329037800687" y="499.1568738435207" width="6.917525773195877" height="43.343126156479286" fill="#ea580c" opacity="0.85"><title>2024-09-16 | BTC buy 153.71 usd | reason=medium_drawdown_eth_tilt</title></rect>
<rect x="239.04123711340208" y="498.23757968075904" width="6.917525773195877" height="44.26242031924096" fill="#ea580c" opacity="0.85"><title>2024-09-23 | BTC buy 156.97 usd | reason=medium_drawdown_eth_tilt</title></rect>
<rect x="251.7495704467354" y="498.8389340935123" width="6.917525773195877" height="43.66106590648769" fill="#ea580c" opacity="0.85"><title>2024-09-30 | BTC buy 154.84 usd | reason=medium_drawdown_eth_tilt</title></rect>
<rect x="264.45790378006876" y="500.4807588681979" width="6.917525773195877" height="42.01924113180212" fill="#ea580c" opacity="0.85"><title>2024-10-07 | BTC buy 149.02 usd | reason=medium_drawdown_eth_tilt</title></rect>
<rect x="277.1662371134021" y="500.5896250165898" width="6.917525773195877" height="41.91037498341018" fill="#ea580c" opacity="0.85"><title>2024-10-14 | BTC buy 148.63 usd | reason=medium_drawdown_eth_tilt</title></rect>
<rect x="289.8745704467354" y="501.0692852336323" width="6.917525773195877" height="41.430714766367714" fill="#ea580c" opacity="0.85"><title>2024-10-21 | BTC buy 146.93 usd | reason=medium_drawdown_eth_tilt</title></rect>
<rect x="302.58290378006876" y="504.44014142158994" width="6.917525773195877" height="38.05985857841006" fill="#ea580c" opacity="0.85"><title>2024-10-28 | BTC buy 134.97 usd | reason=medium_drawdown_eth_tilt</title></rect>
<rect x="315.2912371134021" y="505.14687760444144" width="6.917525773195877" height="37.35312239555856" fill="#ea580c" opacity="0.85"><title>2024-11-04 | BTC buy 132.47 usd | reason=medium_drawdown_eth_tilt</title></rect>
<rect x="327.9995704467354" y="516.1637381045623" width="6.917525773195877" height="26.3362618954377" fill="#ea580c" opacity="0.85"><title>2024-11-11 | BTC buy 93.40 usd | reason=neutral_drawdown_eth_tilt</title></rect>
<rect x="340.70790378006876" y="517.2757916507406" width="6.917525773195877" height="25.224208349259357" fill="#ea580c" opacity="0.85"><title>2024-11-18 | BTC buy 89.45 usd | reason=neutral_drawdown_eth_tilt</title></rect>
<rect x="353.4162371134021" y="513.9301316838463" width="6.917525773195877" height="28.569868316153702" fill="#ea580c" opacity="0.85"><title>2024-11-25 | BTC buy 101.32 usd | reason=neutral_drawdown_eth_tilt</title></rect>
<rect x="366.1245704467354" y="542.5" width="6.917525773195877" height="1.5" fill="#ea580c" opacity="0.85"><title>2024-12-02 | BTC buy 0.00 usd | reason=both_assets_expensive_eth_tilt</title></rect>
<rect x="378.83290378006876" y="542.5" width="6.917525773195877" height="1.5" fill="#ea580c" opacity="0.85"><title>2024-12-09 | BTC buy 0.00 usd | reason=both_assets_expensive_eth_tilt</title></rect>
<rect x="391.5412371134021" y="542.5" width="6.917525773195877" height="1.5" fill="#ea580c" opacity="0.85"><title>2024-12-16 | BTC buy 0.00 usd | reason=both_assets_expensive_eth_tilt</title></rect>
<rect x="404.24957044673545" y="512.434380924013" width="6.917525773195877" height="30.065619075987" fill="#ea580c" opacity="0.85"><title>2024-12-23 | BTC buy 106.62 usd | reason=neutral_drawdown_eth_tilt</title></rect>
<rect x="416.9579037800687" y="512.2809017230658" width="6.917525773195877" height="30.219098276934233" fill="#ea580c" opacity="0.85"><title>2024-12-30 | BTC buy 107.17 usd | reason=neutral_drawdown_eth_tilt</title></rect>
<rect x="429.6662371134021" y="542.5" width="6.917525773195877" height="1.5" fill="#ea580c" opacity="0.85"><title>2025-01-06 | BTC buy 0.00 usd | reason=both_assets_expensive_eth_tilt</title></rect>
<rect x="442.37457044673545" y="514.5575805129582" width="6.917525773195877" height="27.942419487041775" fill="#ea580c" opacity="0.85"><title>2025-01-13 | BTC buy 99.09 usd | reason=neutral_drawdown_eth_tilt</title></rect>
<rect x="455.0829037800687" y="515.7148339756197" width="6.917525773195877" height="26.78516602438026" fill="#ea580c" opacity="0.85"><title>2025-01-20 | BTC buy 94.99 usd | reason=neutral_drawdown_eth_tilt</title></rect>
<rect x="467.7912371134021" y="516.4518413490209" width="6.917525773195877" height="26.048158650979076" fill="#ea580c" opacity="0.85"><title>2025-01-27 | BTC buy 92.38 usd | reason=neutral_drawdown_eth_tilt</title></rect>
<rect x="480.49957044673545" y="513.5447569086737" width="6.917525773195877" height="28.955243091326338" fill="#ea580c" opacity="0.85"><title>2025-02-03 | BTC buy 102.69 usd | reason=medium_drawdown_eth_tilt</title></rect>
<rect x="493.2079037800687" y="540.1594782792889" width="6.917525773195877" height="2.340521720711081" fill="#ea580c" opacity="0.85"><title>2025-02-10 | BTC buy 8.30 usd | reason=medium_drawdown_eth_tilt</title></rect>
<rect x="505.9162371134021" y="498.9280929576973" width="6.917525773195877" height="43.57190704230271" fill="#ea580c" opacity="0.85"><title>2025-02-17 | BTC buy 154.52 usd | reason=medium_drawdown_eth_tilt</title></rect>
<rect x="518.6245704467354" y="529.1484711625561" width="6.917525773195877" height="13.35152883744388" fill="#ea580c" opacity="0.85"><title>2025-02-24 | BTC buy 47.35 usd | reason=medium_drawdown_eth_tilt</title></rect>
<rect x="531.3329037800687" y="542.5" width="6.917525773195877" height="1.5" fill="#ea580c" opacity="0.85"><title>2025-03-03 | BTC buy 0.00 usd | reason=medium_drawdown_eth_tilt</title></rect>
<rect x="544.0412371134021" y="501.34652544377195" width="6.917525773195877" height="41.15347455622805" fill="#ea580c" opacity="0.85"><title>2025-03-10 | BTC buy 145.95 usd | reason=deep_drawdown_eth_tilt</title></rect>
<rect x="556.7495704467354" y="542.5" width="6.917525773195877" height="1.5" fill="#ea580c" opacity="0.85"><title>2025-03-17 | BTC buy 0.00 usd | reason=deep_drawdown_eth_tilt</title></rect>
<rect x="569.4579037800687" y="542.5" width="6.917525773195877" height="1.5" fill="#ea580c" opacity="0.85"><title>2025-03-24 | BTC buy 0.00 usd | reason=medium_drawdown_eth_tilt</title></rect>
<rect x="582.1662371134021" y="542.5" width="6.917525773195877" height="1.5" fill="#ea580c" opacity="0.85"><title>2025-03-31 | BTC buy 0.00 usd | reason=deep_drawdown_eth_tilt</title></rect>
<rect x="594.8745704467354" y="542.5" width="6.917525773195877" height="1.5" fill="#ea580c" opacity="0.85"><title>2025-04-07 | BTC buy 0.00 usd | reason=deep_drawdown_eth_tilt</title></rect>
<rect x="607.5829037800687" y="542.5" width="6.917525773195877" height="1.5" fill="#ea580c" opacity="0.85"><title>2025-04-14 | BTC buy 0.00 usd | reason=deep_drawdown_eth_tilt</title></rect>
<rect x="620.2912371134021" y="542.5" width="6.917525773195877" height="1.5" fill="#ea580c" opacity="0.85"><title>2025-04-21 | BTC buy 0.00 usd | reason=deep_drawdown_eth_tilt</title></rect>
<rect x="632.9995704467354" y="542.5" width="6.917525773195877" height="1.5" fill="#ea580c" opacity="0.85"><title>2025-04-28 | BTC buy 0.00 usd | reason=deep_drawdown_eth_tilt</title></rect>
<rect x="645.7079037800687" y="542.5" width="6.917525773195877" height="1.5" fill="#ea580c" opacity="0.85"><title>2025-05-05 | BTC buy 0.00 usd | reason=deep_drawdown_eth_tilt</title></rect>
<rect x="658.4162371134021" y="542.5" width="6.917525773195877" height="1.5" fill="#ea580c" opacity="0.85"><title>2025-05-12 | BTC buy 0.00 usd | reason=medium_drawdown_eth_tilt</title></rect>
<rect x="671.1245704467354" y="542.5" width="6.917525773195877" height="1.5" fill="#ea580c" opacity="0.85"><title>2025-05-19 | BTC buy 0.00 usd | reason=medium_drawdown_eth_tilt</title></rect>
<rect x="683.8329037800687" y="542.5" width="6.917525773195877" height="1.5" fill="#ea580c" opacity="0.85"><title>2025-05-26 | BTC buy 0.00 usd | reason=medium_drawdown_eth_tilt</title></rect>
<rect x="696.5412371134021" y="542.5" width="6.917525773195877" height="1.5" fill="#ea580c" opacity="0.85"><title>2025-06-02 | BTC buy 0.00 usd | reason=medium_drawdown_eth_tilt</title></rect>
<rect x="709.2495704467353" y="542.5" width="6.917525773195877" height="1.5" fill="#ea580c" opacity="0.85"><title>2025-06-09 | BTC buy 0.00 usd | reason=medium_drawdown_eth_tilt</title></rect>
<rect x="721.9579037800688" y="542.5" width="6.917525773195877" height="1.5" fill="#ea580c" opacity="0.85"><title>2025-06-16 | BTC buy 0.00 usd | reason=medium_drawdown_eth_tilt</title></rect>
<rect x="734.6662371134021" y="542.5" width="6.917525773195877" height="1.5" fill="#ea580c" opacity="0.85"><title>2025-06-23 | BTC buy 0.00 usd | reason=medium_drawdown_eth_tilt</title></rect>
<rect x="747.3745704467353" y="542.5" width="6.917525773195877" height="1.5" fill="#ea580c" opacity="0.85"><title>2025-06-30 | BTC buy 0.00 usd | reason=medium_drawdown_eth_tilt</title></rect>
<rect x="760.0829037800688" y="542.5" width="6.917525773195877" height="1.5" fill="#ea580c" opacity="0.85"><title>2025-07-07 | BTC buy 0.00 usd | reason=medium_drawdown_eth_tilt</title></rect>
<rect x="772.7912371134021" y="542.5" width="6.917525773195877" height="48.84830677415869" fill="#dc2626" opacity="0.85"><title>2025-07-14 | BTC sell 173.23 usd | reason=neutral_drawdown_eth_tilt</title></rect>
<rect x="785.4995704467353" y="542.5" width="6.917525773195877" height="1.5" fill="#ea580c" opacity="0.85"><title>2025-07-21 | BTC buy 0.00 usd | reason=both_assets_expensive_eth_tilt</title></rect>
<rect x="798.2079037800688" y="542.5" width="6.917525773195877" height="1.5" fill="#ea580c" opacity="0.85"><title>2025-07-28 | BTC buy 0.00 usd | reason=both_assets_expensive_eth_tilt</title></rect>
<rect x="810.9162371134021" y="542.5" width="6.917525773195877" height="1.5" fill="#ea580c" opacity="0.85"><title>2025-08-04 | BTC buy 0.00 usd | reason=both_assets_expensive_eth_tilt</title></rect>
<rect x="823.6245704467353" y="542.5" width="6.917525773195877" height="1.5" fill="#ea580c" opacity="0.85"><title>2025-08-11 | BTC buy 0.00 usd | reason=both_assets_expensive_btc_tilt</title></rect>
<rect x="836.3329037800688" y="542.5" width="6.917525773195877" height="1.5" fill="#ea580c" opacity="0.85"><title>2025-08-18 | BTC buy 0.00 usd | reason=both_assets_expensive_eth_tilt</title></rect>
<rect x="849.0412371134021" y="542.5" width="6.917525773195877" height="1.5" fill="#ea580c" opacity="0.85"><title>2025-08-25 | BTC buy 0.00 usd | reason=both_assets_expensive_btc_tilt</title></rect>
<rect x="861.7495704467353" y="542.5" width="6.917525773195877" height="1.5" fill="#ea580c" opacity="0.85"><title>2025-09-01 | BTC buy 0.00 usd | reason=both_assets_expensive_btc_tilt</title></rect>
<rect x="874.4579037800688" y="542.5" width="6.917525773195877" height="1.5" fill="#ea580c" opacity="0.85"><title>2025-09-08 | BTC buy 0.00 usd | reason=both_assets_expensive_eth_tilt</title></rect>
<rect x="887.1662371134021" y="542.5" width="6.917525773195877" height="1.5" fill="#ea580c" opacity="0.85"><title>2025-09-15 | BTC buy 0.00 usd | reason=both_assets_expensive_btc_tilt</title></rect>
<rect x="899.8745704467353" y="542.5" width="6.917525773195877" height="1.5" fill="#ea580c" opacity="0.85"><title>2025-09-22 | BTC buy 0.00 usd | reason=both_assets_expensive_eth_tilt</title></rect>
<rect x="912.5829037800688" y="542.5" width="6.917525773195877" height="1.5" fill="#ea580c" opacity="0.85"><title>2025-09-29 | BTC buy 0.00 usd | reason=both_assets_expensive_eth_tilt</title></rect>
<rect x="925.2912371134021" y="542.5" width="6.917525773195877" height="1.5" fill="#ea580c" opacity="0.85"><title>2025-10-06 | BTC buy 0.00 usd | reason=both_assets_expensive_eth_tilt</title></rect>
<rect x="937.9995704467353" y="542.5" width="6.917525773195877" height="1.5" fill="#ea580c" opacity="0.85"><title>2025-10-13 | BTC buy 0.00 usd | reason=both_assets_expensive_eth_tilt</title></rect>
<rect x="950.7079037800688" y="512.7643593897832" width="6.917525773195877" height="29.73564061021682" fill="#ea580c" opacity="0.85"><title>2025-10-20 | BTC buy 105.45 usd | reason=neutral_drawdown_eth_tilt</title></rect>
<rect x="963.4162371134021" y="542.5" width="6.917525773195877" height="1.5" fill="#ea580c" opacity="0.85"><title>2025-10-27 | BTC buy 0.00 usd | reason=both_assets_expensive_eth_tilt</title></rect>
<rect x="976.1245704467353" y="492.23045008285084" width="6.917525773195877" height="50.26954991714916" fill="#ea580c" opacity="0.85"><title>2025-11-03 | BTC buy 178.27 usd | reason=medium_drawdown_eth_tilt</title></rect>
<rect x="988.8329037800688" y="492.39360554148936" width="6.917525773195877" height="50.106394458510636" fill="#ea580c" opacity="0.85"><title>2025-11-10 | BTC buy 177.70 usd | reason=medium_drawdown_eth_tilt</title></rect>
<rect x="1001.5412371134021" y="492.4050731072414" width="6.917525773195877" height="50.09492689275862" fill="#ea580c" opacity="0.85"><title>2025-11-17 | BTC buy 177.65 usd | reason=medium_drawdown_eth_tilt</title></rect>
<rect x="1014.2495704467353" y="491.55022547640874" width="6.917525773195877" height="50.94977452359126" fill="#ea580c" opacity="0.85"><title>2025-11-24 | BTC buy 180.69 usd | reason=medium_drawdown_eth_tilt</title></rect>
<rect x="1026.9579037800688" y="492.454226501815" width="6.917525773195877" height="50.045773498184985" fill="#ea580c" opacity="0.85"><title>2025-12-01 | BTC buy 177.48 usd | reason=medium_drawdown_eth_tilt</title></rect>
<rect x="1039.666237113402" y="490.6181229257678" width="6.917525773195877" height="51.88187707423219" fill="#ea580c" opacity="0.85"><title>2025-12-08 | BTC buy 183.99 usd | reason=medium_drawdown_eth_tilt</title></rect>
<rect x="1052.3745704467353" y="490.57642116572066" width="6.917525773195877" height="51.92357883427934" fill="#ea580c" opacity="0.85"><title>2025-12-15 | BTC buy 184.14 usd | reason=medium_drawdown_eth_tilt</title></rect>
<rect x="1065.0829037800688" y="491.0384238239074" width="6.917525773195877" height="51.46157617609259" fill="#ea580c" opacity="0.85"><title>2025-12-22 | BTC buy 182.50 usd | reason=medium_drawdown_eth_tilt</title></rect>
<rect x="1077.791237113402" y="491.24255450623906" width="6.917525773195877" height="51.25744549376094" fill="#ea580c" opacity="0.85"><title>2025-12-29 | BTC buy 181.78 usd | reason=medium_drawdown_eth_tilt</title></rect>
<rect x="1090.4995704467353" y="490.90207097355943" width="6.917525773195877" height="51.59792902644057" fill="#ea580c" opacity="0.85"><title>2026-01-05 | BTC buy 182.98 usd | reason=medium_drawdown_eth_tilt</title></rect>
<rect x="1103.2079037800688" y="491.24478852012413" width="6.917525773195877" height="51.25521147987587" fill="#ea580c" opacity="0.85"><title>2026-01-12 | BTC buy 181.77 usd | reason=medium_drawdown_eth_tilt</title></rect>
<rect x="1115.916237113402" y="490.74937986670193" width="6.917525773195877" height="51.75062013329807" fill="#ea580c" opacity="0.85"><title>2026-01-19 | BTC buy 183.53 usd | reason=medium_drawdown_eth_tilt</title></rect>
<rect x="1128.6245704467353" y="491.843371983263" width="6.917525773195877" height="50.65662801673699" fill="#ea580c" opacity="0.85"><title>2026-01-26 | BTC buy 179.65 usd | reason=medium_drawdown_eth_tilt</title></rect>
<rect x="1141.3329037800688" y="482.2510139802848" width="6.917525773195877" height="60.248986019715176" fill="#ea580c" opacity="0.85"><title>2026-02-02 | BTC buy 213.66 usd | reason=deep_drawdown_eth_tilt</title></rect>
<rect x="1154.041237113402" y="480.9305733285009" width="6.917525773195877" height="61.569426671499116" fill="#ea580c" opacity="0.85"><title>2026-02-09 | BTC buy 218.35 usd | reason=deep_drawdown_eth_tilt</title></rect>
<rect x="1166.7495704467353" y="481.78223315167645" width="6.917525773195877" height="60.71776684832355" fill="#ea580c" opacity="0.85"><title>2026-02-16 | BTC buy 215.33 usd | reason=deep_drawdown_eth_tilt</title></rect>
<rect x="1179.4579037800688" y="481.45849084409036" width="6.917525773195877" height="61.04150915590964" fill="#ea580c" opacity="0.85"><title>2026-02-23 | BTC buy 216.48 usd | reason=deep_drawdown_eth_tilt</title></rect>
<rect x="1192.166237113402" y="481.32666156040415" width="6.917525773195877" height="61.17333843959585" fill="#ea580c" opacity="0.85"><title>2026-03-02 | BTC buy 216.94 usd | reason=deep_drawdown_eth_tilt</title></rect>
<rect x="1204.8745704467353" y="481.60114924422373" width="6.917525773195877" height="60.898850755776266" fill="#ea580c" opacity="0.85"><title>2026-03-09 | BTC buy 215.97 usd | reason=deep_drawdown_eth_tilt</title></rect>
<rect x="1217.5829037800688" y="480.0" width="6.917525773195877" height="62.5" fill="#ea580c" opacity="0.85"><title>2026-03-16 | BTC buy 221.65 usd | reason=deep_drawdown_eth_tilt</title></rect>
<rect x="1230.291237113402" y="504.02984325290487" width="6.917525773195877" height="38.47015674709513" fill="#ea580c" opacity="0.85"><title>2026-03-23 | BTC buy 136.43 usd | reason=deep_drawdown_eth_tilt</title></rect>
<rect x="1242.9995704467353" y="511.28054091379187" width="6.917525773195877" height="31.219459086208133" fill="#ea580c" opacity="0.85"><title>2026-03-30 | BTC buy 110.72 usd | reason=deep_drawdown_eth_tilt</title></rect>
<rect x="1255.7079037800688" y="522.1984544058942" width="6.917525773195877" height="20.301545594105846" fill="#ea580c" opacity="0.85"><title>2026-04-06 | BTC buy 72.00 usd | reason=deep_drawdown_eth_tilt</title></rect>
<rect x="1268.416237113402" y="501.6995145450194" width="6.917525773195877" height="40.80048545498062" fill="#ea580c" opacity="0.85"><title>2026-04-13 | BTC buy 144.69 usd | reason=deep_drawdown_eth_tilt</title></rect>
<rect x="1281.1245704467353" y="542.5" width="6.917525773195877" height="1.5" fill="#ea580c" opacity="0.85"><title>2026-04-20 | BTC buy 0.00 usd | reason=deep_drawdown_eth_tilt</title></rect>
<rect x="1293.8329037800688" y="542.5" width="6.917525773195877" height="1.5" fill="#ea580c" opacity="0.85"><title>2026-04-27 | BTC buy 0.00 usd | reason=deep_drawdown_eth_tilt</title></rect>
<rect x="1306.541237113402" y="542.5" width="6.917525773195877" height="1.5" fill="#ea580c" opacity="0.85"><title>2026-05-04 | BTC buy 0.00 usd | reason=deep_drawdown_eth_tilt</title></rect>
<text x="24" y="542.5" transform="rotate(-90 24,542.5)" text-anchor="middle" font-family="monospace" font-size="14" fill="#0f172a">BTC weekly trade usd</text>
<line x1="90" y1="770" x2="1310" y2="770" stroke="#334155" stroke-width="2"/>
<line x1="90" y1="645" x2="90" y2="770" stroke="#334155" stroke-width="2"/>
<line x1="90" y1="707.5" x2="1310" y2="707.5" stroke="#64748b" stroke-width="1.5" stroke-dasharray="6 4"/>
<line x1="90" y1="770.0" x2="1310" y2="770.0" stroke="#e2e8f0" stroke-width="1"/>
<text x="78" y="774.0" text-anchor="end" font-family="monospace" font-size="11" fill="#475569">-1379</text>
<line x1="90" y1="707.5" x2="1310" y2="707.5" stroke="#e2e8f0" stroke-width="1"/>
<text x="78" y="711.5" text-anchor="end" font-family="monospace" font-size="11" fill="#475569">0</text>
<line x1="90" y1="645.0" x2="1310" y2="645.0" stroke="#e2e8f0" stroke-width="1"/>
<text x="78" y="649.0" text-anchor="end" font-family="monospace" font-size="11" fill="#475569">1379</text>
<rect x="86.54123711340206" y="702.3315016611077" width="6.917525773195877" height="5.168498338892277" fill="#2563eb" opacity="0.85"><title>2024-07-01 | ETH buy 114.01 usd | reason=neutral_drawdown_eth_tilt</title></rect>
<rect x="99.24957044673539" y="698.1348501007079" width="6.917525773195877" height="9.365149899292078" fill="#2563eb" opacity="0.85"><title>2024-07-08 | ETH buy 206.59 usd | reason=medium_drawdown_eth_tilt</title></rect>
<rect x="111.95790378006872" y="707.5" width="6.917525773195877" height="1.5" fill="#2563eb" opacity="0.85"><title>2024-07-15 | ETH buy 0.00 usd | reason=both_assets_expensive_eth_tilt</title></rect>
<rect x="124.66623711340206" y="702.0049464411001" width="6.917525773195877" height="5.49505355889994" fill="#2563eb" opacity="0.85"><title>2024-07-22 | ETH buy 121.22 usd | reason=neutral_drawdown_eth_tilt</title></rect>
<rect x="137.3745704467354" y="701.9048514553239" width="6.917525773195877" height="5.595148544676135" fill="#2563eb" opacity="0.85"><title>2024-07-29 | ETH buy 123.42 usd | reason=neutral_drawdown_eth_tilt</title></rect>
<rect x="150.08290378006876" y="697.1322681441372" width="6.917525773195877" height="10.367731855862758" fill="#2563eb" opacity="0.85"><title>2024-08-05 | ETH buy 228.70 usd | reason=medium_drawdown_eth_tilt</title></rect>
<rect x="162.79123711340208" y="697.1463333695444" width="6.917525773195877" height="10.353666630455564" fill="#2563eb" opacity="0.85"><title>2024-08-12 | ETH buy 228.39 usd | reason=medium_drawdown_eth_tilt</title></rect>
<rect x="175.4995704467354" y="696.943272223506" width="6.917525773195877" height="10.556727776493972" fill="#2563eb" opacity="0.85"><title>2024-08-19 | ETH buy 232.87 usd | reason=medium_drawdown_eth_tilt</title></rect>
<rect x="188.2079037800687" y="696.6206069080295" width="6.917525773195877" height="10.879393091970542" fill="#2563eb" opacity="0.85"><title>2024-08-26 | ETH buy 239.99 usd | reason=medium_drawdown_eth_tilt</title></rect>
<rect x="200.91623711340208" y="696.7605542633229" width="6.917525773195877" height="10.739445736677112" fill="#2563eb" opacity="0.85"><title>2024-09-02 | ETH buy 236.90 usd | reason=medium_drawdown_eth_tilt</title></rect>
<rect x="213.6245704467354" y="696.622902159413" width="6.917525773195877" height="10.877097840586998" fill="#2563eb" opacity="0.85"><title>2024-09-09 | ETH buy 239.94 usd | reason=medium_drawdown_eth_tilt</title></rect>
<rect x="226.3329037800687" y="696.3350492494715" width="6.917525773195877" height="11.164950750528533" fill="#2563eb" opacity="0.85"><title>2024-09-16 | ETH buy 246.29 usd | reason=medium_drawdown_eth_tilt</title></rect>
<rect x="239.04123711340208" y="696.4828401774832" width="6.917525773195877" height="11.01715982251676" fill="#2563eb" opacity="0.85"><title>2024-09-23 | ETH buy 243.03 usd | reason=medium_drawdown_eth_tilt</title></rect>
<rect x="251.7495704467354" y="696.3861630415621" width="6.917525773195877" height="11.1138369584379" fill="#2563eb" opacity="0.85"><title>2024-09-30 | ETH buy 245.16 usd | reason=medium_drawdown_eth_tilt</title></rect>
<rect x="264.45790378006876" y="696.1222140066258" width="6.917525773195877" height="11.377785993374232" fill="#2563eb" opacity="0.85"><title>2024-10-07 | ETH buy 250.98 usd | reason=medium_drawdown_eth_tilt</title></rect>
<rect x="277.1662371134021" y="696.1047120689962" width="6.917525773195877" height="11.39528793100385" fill="#2563eb" opacity="0.85"><title>2024-10-14 | ETH buy 251.37 usd | reason=medium_drawdown_eth_tilt</title></rect>
<rect x="289.8745704467354" y="696.0275991801313" width="6.917525773195877" height="11.472400819868653" fill="#2563eb" opacity="0.85"><title>2024-10-21 | ETH buy 253.07 usd | reason=medium_drawdown_eth_tilt</title></rect>
<rect x="302.58290378006876" y="695.4856812779051" width="6.917525773195877" height="12.014318722094913" fill="#2563eb" opacity="0.85"><title>2024-10-28 | ETH buy 265.03 usd | reason=medium_drawdown_eth_tilt</title></rect>
<rect x="315.2912371134021" y="695.3720623727122" width="6.917525773195877" height="12.127937627287793" fill="#2563eb" opacity="0.85"><title>2024-11-04 | ETH buy 267.53 usd | reason=medium_drawdown_eth_tilt</title></rect>
<rect x="327.9995704467354" y="701.5341331839786" width="6.917525773195877" height="5.965866816021389" fill="#2563eb" opacity="0.85"><title>2024-11-11 | ETH buy 131.60 usd | reason=neutral_drawdown_eth_tilt</title></rect>
<rect x="340.70790378006876" y="701.3553531674769" width="6.917525773195877" height="6.144646832523108" fill="#2563eb" opacity="0.85"><title>2024-11-18 | ETH buy 135.55 usd | reason=neutral_drawdown_eth_tilt</title></rect>
<rect x="353.4162371134021" y="701.893220382726" width="6.917525773195877" height="5.6067796172740145" fill="#2563eb" opacity="0.85"><title>2024-11-25 | ETH buy 123.68 usd | reason=neutral_drawdown_eth_tilt</title></rect>
<rect x="366.1245704467354" y="707.5" width="6.917525773195877" height="1.5" fill="#7c3aed" opacity="0.85"><title>2024-12-02 | ETH sell 23.11 usd | reason=both_assets_expensive_eth_tilt</title></rect>
<rect x="378.83290378006876" y="707.5" width="6.917525773195877" height="2.0183280594314965" fill="#7c3aed" opacity="0.85"><title>2024-12-09 | ETH sell 44.52 usd | reason=both_assets_expensive_eth_tilt</title></rect>
<rect x="391.5412371134021" y="707.5" width="6.917525773195877" height="3.859679337071384" fill="#7c3aed" opacity="0.85"><title>2024-12-16 | ETH sell 85.14 usd | reason=both_assets_expensive_eth_tilt</title></rect>
<rect x="404.24957044673545" y="702.1336857330183" width="6.917525773195877" height="5.366314266981703" fill="#2563eb" opacity="0.85"><title>2024-12-23 | ETH buy 118.38 usd | reason=neutral_drawdown_eth_tilt</title></rect>
<rect x="416.9579037800687" y="702.1583599172536" width="6.917525773195877" height="5.34164008274638" fill="#2563eb" opacity="0.85"><title>2024-12-30 | ETH buy 117.83 usd | reason=neutral_drawdown_eth_tilt</title></rect>
<rect x="429.6662371134021" y="707.5" width="6.917525773195877" height="1.8675686486863015" fill="#7c3aed" opacity="0.85"><title>2025-01-06 | ETH sell 41.20 usd | reason=both_assets_expensive_eth_tilt</title></rect>
<rect x="442.37457044673545" y="701.7923481608728" width="6.917525773195877" height="5.707651839127152" fill="#2563eb" opacity="0.85"><title>2025-01-13 | ETH buy 125.91 usd | reason=neutral_drawdown_eth_tilt</title></rect>
<rect x="455.0829037800687" y="701.6063015502016" width="6.917525773195877" height="5.893698449798421" fill="#2563eb" opacity="0.85"><title>2025-01-20 | ETH buy 130.01 usd | reason=neutral_drawdown_eth_tilt</title></rect>
<rect x="467.7912371134021" y="701.487816077239" width="6.917525773195877" height="6.012183922760983" fill="#2563eb" opacity="0.85"><title>2025-01-27 | ETH buy 132.62 usd | reason=neutral_drawdown_eth_tilt</title></rect>
<rect x="480.49957044673545" y="694.0219718076037" width="6.917525773195877" height="13.478028192396323" fill="#2563eb" opacity="0.85"><title>2025-02-03 | ETH buy 297.31 usd | reason=medium_drawdown_eth_tilt</title></rect>
<rect x="493.2079037800687" y="689.7432386996688" width="6.917525773195877" height="17.756761300331164" fill="#2563eb" opacity="0.85"><title>2025-02-10 | ETH buy 391.70 usd | reason=medium_drawdown_eth_tilt</title></rect>
<rect x="505.9162371134021" y="696.371829358382" width="6.917525773195877" height="11.128170641617999" fill="#2563eb" opacity="0.85"><title>2025-02-17 | ETH buy 245.48 usd | reason=medium_drawdown_eth_tilt</title></rect>
<rect x="518.6245704467354" y="691.5134304685779" width="6.917525773195877" height="15.986569531422106" fill="#2563eb" opacity="0.85"><title>2025-02-24 | ETH buy 352.65 usd | reason=medium_drawdown_eth_tilt</title></rect>
<rect x="531.3329037800687" y="689.3669631927119" width="6.917525773195877" height="18.133036807288136" fill="#2563eb" opacity="0.85"><title>2025-03-03 | ETH buy 400.00 usd | reason=medium_drawdown_eth_tilt</title></rect>
<rect x="544.0412371134021" y="691.449769274395" width="6.917525773195877" height="16.050230725605047" fill="#2563eb" opacity="0.85"><title>2025-03-10 | ETH buy 354.05 usd | reason=deep_drawdown_eth_tilt</title></rect>
<rect x="556.7495704467354" y="684.8337039908898" width="6.917525773195877" height="22.66629600911017" fill="#2563eb" opacity="0.85"><title>2025-03-17 | ETH buy 500.00 usd | reason=deep_drawdown_eth_tilt</title></rect>
<rect x="569.4579037800687" y="689.3669631927119" width="6.917525773195877" height="18.133036807288136" fill="#2563eb" opacity="0.85"><title>2025-03-24 | ETH buy 400.00 usd | reason=medium_drawdown_eth_tilt</title></rect>
<rect x="582.1662371134021" y="684.8337039908898" width="6.917525773195877" height="22.66629600911017" fill="#2563eb" opacity="0.85"><title>2025-03-31 | ETH buy 500.00 usd | reason=deep_drawdown_eth_tilt</title></rect>
<rect x="594.8745704467354" y="684.8337039908898" width="6.917525773195877" height="22.66629600911017" fill="#2563eb" opacity="0.85"><title>2025-04-07 | ETH buy 500.00 usd | reason=deep_drawdown_eth_tilt</title></rect>
<rect x="607.5829037800687" y="684.8337039908898" width="6.917525773195877" height="22.66629600911017" fill="#2563eb" opacity="0.85"><title>2025-04-14 | ETH buy 500.00 usd | reason=deep_drawdown_eth_tilt</title></rect>
<rect x="620.2912371134021" y="684.8337039908898" width="6.917525773195877" height="22.66629600911017" fill="#2563eb" opacity="0.85"><title>2025-04-21 | ETH buy 500.00 usd | reason=deep_drawdown_eth_tilt</title></rect>
<rect x="632.9995704467354" y="684.8337039908898" width="6.917525773195877" height="22.66629600911017" fill="#2563eb" opacity="0.85"><title>2025-04-28 | ETH buy 500.00 usd | reason=deep_drawdown_eth_tilt</title></rect>
<rect x="645.7079037800687" y="684.8337039908898" width="6.917525773195877" height="22.66629600911017" fill="#2563eb" opacity="0.85"><title>2025-05-05 | ETH buy 500.00 usd | reason=deep_drawdown_eth_tilt</title></rect>
<rect x="658.4162371134021" y="707.5" width="6.917525773195877" height="1.5" fill="#2563eb" opacity="0.85"><title>2025-05-12 | ETH buy 0.00 usd | reason=medium_drawdown_eth_tilt</title></rect>
<rect x="671.1245704467354" y="707.5" width="6.917525773195877" height="1.5" fill="#2563eb" opacity="0.85"><title>2025-05-19 | ETH buy 0.00 usd | reason=medium_drawdown_eth_tilt</title></rect>
<rect x="683.8329037800687" y="707.5" width="6.917525773195877" height="1.5" fill="#2563eb" opacity="0.85"><title>2025-05-26 | ETH buy 0.00 usd | reason=medium_drawdown_eth_tilt</title></rect>
<rect x="696.5412371134021" y="707.5" width="6.917525773195877" height="1.5" fill="#2563eb" opacity="0.85"><title>2025-06-02 | ETH buy 0.00 usd | reason=medium_drawdown_eth_tilt</title></rect>
<rect x="709.2495704467353" y="707.5" width="6.917525773195877" height="1.5" fill="#2563eb" opacity="0.85"><title>2025-06-09 | ETH buy 0.00 usd | reason=medium_drawdown_eth_tilt</title></rect>
<rect x="721.9579037800688" y="707.5" width="6.917525773195877" height="1.5" fill="#2563eb" opacity="0.85"><title>2025-06-16 | ETH buy 0.00 usd | reason=medium_drawdown_eth_tilt</title></rect>
<rect x="734.6662371134021" y="707.5" width="6.917525773195877" height="1.5" fill="#2563eb" opacity="0.85"><title>2025-06-23 | ETH buy 0.00 usd | reason=medium_drawdown_eth_tilt</title></rect>
<rect x="747.3745704467353" y="707.5" width="6.917525773195877" height="1.5" fill="#2563eb" opacity="0.85"><title>2025-06-30 | ETH buy 0.00 usd | reason=medium_drawdown_eth_tilt</title></rect>
<rect x="760.0829037800688" y="707.5" width="6.917525773195877" height="1.5" fill="#2563eb" opacity="0.85"><title>2025-07-07 | ETH buy 0.00 usd | reason=medium_drawdown_eth_tilt</title></rect>
<rect x="772.7912371134021" y="707.5" width="6.917525773195877" height="7.8531300234431" fill="#7c3aed" opacity="0.85"><title>2025-07-14 | ETH sell 173.23 usd | reason=neutral_drawdown_eth_tilt</title></rect>
<rect x="785.4995704467353" y="707.5" width="6.917525773195877" height="62.5" fill="#7c3aed" opacity="0.85"><title>2025-07-21 | ETH sell 1378.70 usd | reason=both_assets_expensive_eth_tilt</title></rect>
<rect x="798.2079037800688" y="707.5" width="6.917525773195877" height="54.89131404705972" fill="#7c3aed" opacity="0.85"><title>2025-07-28 | ETH sell 1210.86 usd | reason=both_assets_expensive_eth_tilt</title></rect>
<rect x="810.9162371134021" y="707.5" width="6.917525773195877" height="46.68550936325164" fill="#7c3aed" opacity="0.85"><title>2025-08-04 | ETH sell 1029.84 usd | reason=both_assets_expensive_eth_tilt</title></rect>
<rect x="823.6245704467353" y="707.5" width="6.917525773195877" height="49.78952564812653" fill="#7c3aed" opacity="0.85"><title>2025-08-11 | ETH sell 1098.32 usd | reason=both_assets_expensive_btc_tilt</title></rect>
<rect x="836.3329037800688" y="707.5" width="6.917525773195877" height="42.879959780284594" fill="#7c3aed" opacity="0.85"><title>2025-08-18 | ETH sell 945.90 usd | reason=both_assets_expensive_eth_tilt</title></rect>
<rect x="849.0412371134021" y="707.5" width="6.917525773195877" height="40.99541737512334" fill="#7c3aed" opacity="0.85"><title>2025-08-25 | ETH sell 904.33 usd | reason=both_assets_expensive_btc_tilt</title></rect>
<rect x="861.7495704467353" y="707.5" width="6.917525773195877" height="34.420420206280596" fill="#7c3aed" opacity="0.85"><title>2025-09-01 | ETH sell 759.29 usd | reason=both_assets_expensive_btc_tilt</title></rect>
<rect x="874.4579037800688" y="707.5" width="6.917525773195877" height="28.140901811751405" fill="#7c3aed" opacity="0.85"><title>2025-09-08 | ETH sell 620.77 usd | reason=both_assets_expensive_eth_tilt</title></rect>
<rect x="887.1662371134021" y="707.5" width="6.917525773195877" height="27.58638155657684" fill="#7c3aed" opacity="0.85"><title>2025-09-15 | ETH sell 608.53 usd | reason=both_assets_expensive_btc_tilt</title></rect>
<rect x="899.8745704467353" y="707.5" width="6.917525773195877" height="18.16308669282978" fill="#7c3aed" opacity="0.85"><title>2025-09-22 | ETH sell 400.66 usd | reason=both_assets_expensive_eth_tilt</title></rect>
<rect x="912.5829037800688" y="707.5" width="6.917525773195877" height="15.199094675797824" fill="#7c3aed" opacity="0.85"><title>2025-09-29 | ETH sell 335.28 usd | reason=both_assets_expensive_eth_tilt</title></rect>
<rect x="925.2912371134021" y="707.5" width="6.917525773195877" height="18.28013947034276" fill="#7c3aed" opacity="0.85"><title>2025-10-06 | ETH sell 403.24 usd | reason=both_assets_expensive_eth_tilt</title></rect>
<rect x="937.9995704467353" y="707.5" width="6.917525773195877" height="11.453098054280076" fill="#7c3aed" opacity="0.85"><title>2025-10-13 | ETH sell 252.65 usd | reason=both_assets_expensive_eth_tilt</title></rect>
<rect x="950.7079037800688" y="702.0806365289054" width="6.917525773195877" height="5.419363471094584" fill="#2563eb" opacity="0.85"><title>2025-10-20 | ETH buy 119.55 usd | reason=neutral_drawdown_eth_tilt</title></rect>
<rect x="963.4162371134021" y="707.5" width="6.917525773195877" height="8.727119307380008" fill="#7c3aed" opacity="0.85"><title>2025-10-27 | ETH sell 192.51 usd | reason=both_assets_expensive_eth_tilt</title></rect>
<rect x="976.1245704467353" y="697.4485803006395" width="6.917525773195877" height="10.051419699360508" fill="#2563eb" opacity="0.85"><title>2025-11-03 | ETH buy 221.73 usd | reason=medium_drawdown_eth_tilt</title></rect>
<rect x="988.8329037800688" y="697.4223505065005" width="6.917525773195877" height="10.077649493499507" fill="#2563eb" opacity="0.85"><title>2025-11-10 | ETH buy 222.30 usd | reason=medium_drawdown_eth_tilt</title></rect>
<rect x="1001.5412371134021" y="697.4205069157837" width="6.917525773195877" height="10.079493084216324" fill="#2563eb" opacity="0.85"><title>2025-11-17 | ETH buy 222.35 usd | reason=medium_drawdown_eth_tilt</title></rect>
<rect x="1014.2495704467353" y="697.5579370548916" width="6.917525773195877" height="9.942062945108432" fill="#2563eb" opacity="0.85"><title>2025-11-24 | ETH buy 219.31 usd | reason=medium_drawdown_eth_tilt</title></rect>
<rect x="1026.9579037800688" y="697.4126047381203" width="6.917525773195877" height="10.087395261879692" fill="#2563eb" opacity="0.85"><title>2025-12-01 | ETH buy 222.52 usd | reason=medium_drawdown_eth_tilt</title></rect>
<rect x="1039.666237113402" y="697.7077871317675" width="6.917525773195877" height="9.792212868232468" fill="#2563eb" opacity="0.85"><title>2025-12-08 | ETH buy 216.01 usd | reason=medium_drawdown_eth_tilt</title></rect>
<rect x="1052.3745704467353" y="697.714491342527" width="6.917525773195877" height="9.785508657472974" fill="#2563eb" opacity="0.85"><title>2025-12-15 | ETH buy 215.86 usd | reason=medium_drawdown_eth_tilt</title></rect>
<rect x="1065.0829037800688" y="697.6402171826735" width="6.917525773195877" height="9.859782817326504" fill="#2563eb" opacity="0.85"><title>2025-12-22 | ETH buy 217.50 usd | reason=medium_drawdown_eth_tilt</title></rect>
<rect x="1077.791237113402" y="697.6073999798678" width="6.917525773195877" height="9.89260002013225" fill="#2563eb" opacity="0.85"><title>2025-12-29 | ETH buy 218.22 usd | reason=medium_drawdown_eth_tilt</title></rect>
<rect x="1090.4995704467353" y="697.6621380379408" width="6.917525773195877" height="9.83786196205915" fill="#2563eb" opacity="0.85"><title>2026-01-05 | ETH buy 217.02 usd | reason=medium_drawdown_eth_tilt</title></rect>
<rect x="1103.2079037800688" y="697.6070408271627" width="6.917525773195877" height="9.892959172837323" fill="#2563eb" opacity="0.85"><title>2026-01-12 | ETH buy 218.23 usd | reason=medium_drawdown_eth_tilt</title></rect>
<rect x="1115.916237113402" y="697.6866855237138" width="6.917525773195877" height="9.813314476286223" fill="#2563eb" opacity="0.85"><title>2026-01-19 | ETH buy 216.47 usd | reason=medium_drawdown_eth_tilt</title></rect>
<rect x="1128.6245704467353" y="697.5108091647708" width="6.917525773195877" height="9.989190835229238" fill="#2563eb" opacity="0.85"><title>2026-01-26 | ETH buy 220.35 usd | reason=medium_drawdown_eth_tilt</title></rect>
<rect x="1141.3329037800688" y="694.5196716781819" width="6.917525773195877" height="12.980328321818092" fill="#2563eb" opacity="0.85"><title>2026-02-02 | ETH buy 286.34 usd | reason=deep_drawdown_eth_tilt</title></rect>
<rect x="1154.041237113402" y="694.731953184164" width="6.917525773195877" height="12.768046815835987" fill="#2563eb" opacity="0.85"><title>2026-02-09 | ETH buy 281.65 usd | reason=deep_drawdown_eth_tilt</title></rect>
<rect x="1166.7495704467353" y="694.5950355350413" width="6.917525773195877" height="12.904964464958653" fill="#2563eb" opacity="0.85"><title>2026-02-16 | ETH buy 284.67 usd | reason=deep_drawdown_eth_tilt</title></rect>
<rect x="1179.4579037800688" y="694.6470821791005" width="6.917525773195877" height="12.852917820899506" fill="#2563eb" opacity="0.85"><title>2026-02-23 | ETH buy 283.52 usd | reason=deep_drawdown_eth_tilt</title></rect>
<rect x="1192.166237113402" y="694.6682758002115" width="6.917525773195877" height="12.831724199788482" fill="#2563eb" opacity="0.85"><title>2026-03-02 | ETH buy 283.06 usd | reason=deep_drawdown_eth_tilt</title></rect>
<rect x="1204.8745704467353" y="694.6241476079931" width="6.917525773195877" height="12.875852392006891" fill="#2563eb" opacity="0.85"><title>2026-03-09 | ETH buy 284.03 usd | reason=deep_drawdown_eth_tilt</title></rect>
<rect x="1217.5829037800688" y="694.8815574146413" width="6.917525773195877" height="12.618442585358707" fill="#2563eb" opacity="0.85"><title>2026-03-16 | ETH buy 278.35 usd | reason=deep_drawdown_eth_tilt</title></rect>
<rect x="1230.291237113402" y="694.0266727002947" width="6.917525773195877" height="13.47332729970526" fill="#2563eb" opacity="0.85"><title>2026-03-23 | ETH buy 297.21 usd | reason=deep_drawdown_eth_tilt</title></rect>
<rect x="1242.9995704467353" y="700.6938310691796" width="6.917525773195877" height="6.806168930820377" fill="#2563eb" opacity="0.85"><title>2026-03-30 | ETH buy 150.14 usd | reason=deep_drawdown_eth_tilt</title></rect>
<rect x="1255.7079037800688" y="704.8675259386343" width="6.917525773195877" height="2.632474061365656" fill="#2563eb" opacity="0.85"><title>2026-04-06 | ETH buy 58.07 usd | reason=deep_drawdown_eth_tilt</title></rect>
<rect x="1268.416237113402" y="707.5" width="6.917525773195877" height="1.5" fill="#2563eb" opacity="0.85"><title>2026-04-13 | ETH buy 0.00 usd | reason=deep_drawdown_eth_tilt</title></rect>
<rect x="1281.1245704467353" y="704.1998284762174" width="6.917525773195877" height="3.3001715237826375" fill="#2563eb" opacity="0.85"><title>2026-04-20 | ETH buy 72.80 usd | reason=deep_drawdown_eth_tilt</title></rect>
<rect x="1293.8329037800688" y="700.6404669995497" width="6.917525773195877" height="6.859533000450256" fill="#2563eb" opacity="0.85"><title>2026-04-27 | ETH buy 151.32 usd | reason=deep_drawdown_eth_tilt</title></rect>
<rect x="1306.541237113402" y="700.4011894106508" width="6.917525773195877" height="7.0988105893492275" fill="#2563eb" opacity="0.85"><title>2026-05-04 | ETH buy 156.59 usd | reason=deep_drawdown_eth_tilt</title></rect>
<text x="24" y="707.5" transform="rotate(-90 24,707.5)" text-anchor="middle" font-family="monospace" font-size="14" fill="#0f172a">ETH weekly trade usd</text>
<rect x="1040" y="478" width="14" height="10" fill="#ea580c" opacity="0.85"/>
<text x="1062" y="488" font-family="monospace" font-size="11" fill="#0f172a">BTC buy</text>
<rect x="1190" y="478" width="14" height="10" fill="#dc2626" opacity="0.85"/>
<text x="1212" y="488" font-family="monospace" font-size="11" fill="#0f172a">BTC sell</text>
<rect x="1040" y="498" width="14" height="10" fill="#2563eb" opacity="0.85"/>
<text x="1062" y="508" font-family="monospace" font-size="11" fill="#0f172a">ETH buy</text>
<rect x="1190" y="498" width="14" height="10" fill="#7c3aed" opacity="0.85"/>
<text x="1212" y="508" font-family="monospace" font-size="11" fill="#0f172a">ETH sell</text>
</svg>