<svg xmlns="http://www.w3.org/2000/svg" width="1400" height="800">
<rect width="1400" height="800" fill="#f8fafc"/>
<text x="700.0" y="42" text-anchor="middle" font-family="monospace" font-size="24" fill="#0f172a">budgeted_btc_defensive_eth_aggressive | weekly | start=2024-07-01 | return=8.23%</text>
<line x1="90" y1="420" x2="1310" y2="420" stroke="#334155" stroke-width="2"/>
<line x1="90" y1="90" x2="90" y2="420" stroke="#334155" stroke-width="2"/>
<line x1="90.0" y1="420" x2="90.0" y2="90" stroke="#94a3b8" stroke-width="1.2"/>
<line x1="90.0" y1="605" x2="90.0" y2="480" stroke="#94a3b8" stroke-width="1.2"/>
<line x1="90.0" y1="770" x2="90.0" y2="645" stroke="#94a3b8" stroke-width="1.2"/>
<text x="90.0" y="788" text-anchor="middle" font-family="monospace" font-size="11" fill="#334155">2024-07</text>
<line x1="153.54166666666669" y1="420" x2="153.54166666666669" y2="90" stroke="#94a3b8" stroke-width="1.2"/>
<line x1="153.54166666666669" y1="605" x2="153.54166666666669" y2="480" stroke="#94a3b8" stroke-width="1.2"/>
<line x1="153.54166666666669" y1="770" x2="153.54166666666669" y2="645" stroke="#94a3b8" stroke-width="1.2"/>
<text x="153.54166666666669" y="788" text-anchor="middle" font-family="monospace" font-size="11" fill="#334155">2024-08</text>
<line x1="204.375" y1="420" x2="204.375" y2="90" stroke="#94a3b8" stroke-width="1.2"/>
<line x1="204.375" y1="605" x2="204.375" y2="480" stroke="#94a3b8" stroke-width="1.2"/>
<line x1="204.375" y1="770" x2="204.375" y2="645" stroke="#94a3b8" stroke-width="1.2"/>
<text x="204.375" y="788" text-anchor="middle" font-family="monospace" font-size="11" fill="#334155">2024-09</text>
<line x1="267.9166666666667" y1="420" x2="267.9166666666667" y2="90" stroke="#94a3b8" stroke-width="1.2"/>
<line x1="267.9166666666667" y1="605" x2="267.9166666666667" y2="480" stroke="#94a3b8" stroke-width="1.2"/>
<line x1="267.9166666666667" y1="770" x2="267.9166666666667" y2="645" stroke="#94a3b8" stroke-width="1.2"/>
<text x="267.9166666666667" y="788" text-anchor="middle" font-family="monospace" font-size="11" fill="#334155">2024-10</text>
<line x1="318.75" y1="420" x2="318.75" y2="90" stroke="#94a3b8" stroke-width="1.2"/>
<line x1="318.75" y1="605" x2="318.75" y2="480" stroke="#94a3b8" stroke-width="1.2"/>
<line x1="318.75" y1="770" x2="318.75" y2="645" stroke="#94a3b8" stroke-width="1.2"/>
<text x="318.75" y="788" text-anchor="middle" font-family="monospace" font-size="11" fill="#334155">2024-11</text>
<line x1="369.5833333333333" y1="420" x2="369.5833333333333" y2="90" stroke="#94a3b8" stroke-width="1.2"/>
<line x1="369.5833333333333" y1="605" x2="369.5833333333333" y2="480" stroke="#94a3b8" stroke-width="1.2"/>
<line x1="369.5833333333333" y1="770" x2="369.5833333333333" y2="645" stroke="#94a3b8" stroke-width="1.2"/>
<text x="369.5833333333333" y="788" text-anchor="middle" font-family="monospace" font-size="11" fill="#334155">2024-12</text>
<line x1="433.125" y1="420" x2="433.125" y2="90" stroke="#94a3b8" stroke-width="1.2"/>
<line x1="433.125" y1="605" x2="433.125" y2="480" stroke="#94a3b8" stroke-width="1.2"/>
<line x1="433.125" y1="770" x2="433.125" y2="645" stroke="#94a3b8" stroke-width="1.2"/>
<text x="433.125" y="788" text-anchor="middle" font-family="monospace" font-size="11" fill="#334155">2025-01</text>
<line x1="483.95833333333337" y1="420" x2="483.95833333333337" y2="90" stroke="#94a3b8" stroke-width="1.2"/>
<line x1="483.95833333333337" y1="605" x2="483.95833333333337" y2="480" stroke="#94a3b8" stroke-width="1.2"/>
<line x1="483.95833333333337" y1="770" x2="483.95833333333337" y2="645" stroke="#94a3b8" stroke-width="1.2"/>
<text x="483.95833333333337" y="788" text-anchor="middle" font-family="monospace" font-size="11" fill="#334155">2025-02</text>
<line x1="534.7916666666666" y1="420" x2="534.7916666666666" y2="90" stroke="#94a3b8" stroke-width="1.2"/>
<line x1="534.7916666666666" y1="605" x2="534.7916666666666" y2="480" stroke="#94a3b8" stroke-width="1.2"/>
<line x1="534.7916666666666" y1="770" x2="534.7916666666666" y2="645" stroke="#94a3b8" stroke-width="1.2"/>
<text x="534.7916666666666" y="788" text-anchor="middle" font-family="monospace" font-size="11" fill="#334155">2025-03</text>
<line x1="598.3333333333334" y1="420" x2="598.3333333333334" y2="90" stroke="#94a3b8" stroke-width="1.2"/>
<line x1="598.3333333333334" y1="605" x2="598.3333333333334" y2="480" stroke="#94a3b8" stroke-width="1.2"/>
<line x1="598.3333333333334" y1="770" x2="598.3333333333334" y2="645" stroke="#94a3b8" stroke-width="1.2"/>
<text x="598.3333333333334" y="788" text-anchor="middle" font-family="monospace" font-size="11" fill="#334155">2025-04</text>
<line x1="649.1666666666666" y1="420" x2="649.1666666666666" y2="90" stroke="#94a3b8" stroke-width="1.2"/>
<line x1="649.1666666666666" y1="605" x2="649.1666666666666" y2="480" stroke="#94a3b8" stroke-width="1.2"/>
<line x1="649.1666666666666" y1="770" x2="649.1666666666666" y2="645" stroke="#94a3b8" stroke-width="1.2"/>
<text x="649.1666666666666" y="788" text-anchor="middle" font-family="monospace" font-size="11" fill="#334155">2025-05</text>
<line x1="700.0" y1="420" x2="700.0" y2="90" stroke="#94a3b8" stroke-width="1.2"/>
<line x1="700.0" y1="605" x2="700.0" y2="480" stroke="#94a3b8" stroke-width="1.2"/>
<line x1="700.0" y1="770" x2="700.0" y2="645" stroke="#94a3b8" stroke-width="1.2"/>
<text x="700.0" y="788" text-anchor="middle" font-family="monospace" font-size="11" fill="#334155">2025-06</text>
<line x1="763.5416666666667" y1="420" x2="763.5416666666667" y2="90" stroke="#94a3b8" stroke-width="1.2"/>
<line x1="763.5416666666667" y1="605" x2="763.5416666666667" y2="480" stroke="#94a3b8" stroke-width="1.2"/>
<line x1="763.5416666666667" y1="770" x2="763.5416666666667" y2="645" stroke="#94a3b8" stroke-width="1.2"/>
<text x="763.5416666666667" y="788" text-anchor="middle" font-family="monospace" font-size="11" fill="#334155">2025-07</text>
<line x1="814.375" y1="420" x2="814.375" y2="90" stroke="#94a3b8" stroke-width="1.2"/>
<line x1="814.375" y1="605" x2="814.375" y2="480" stroke="#94a3b8" stroke-width="1.2"/>
<line x1="814.375" y1="770" x2="814.375" y2="645" stroke="#94a3b8" stroke-width="1.2"/>
<text x="814.375" y="788" text-anchor="middle" font-family="monospace" font-size="11" fill="#334155">2025-08</text>
<line x1="865.2083333333333" y1="420" x2="865.2083333333333" y2="90" stroke="#94a3b8" stroke-width="1.2"/>
<line x1="865.2083333333333" y1="605" x2="865.2083333333333" y2="480" stroke="#94a3b8" stroke-width="1.2"/>
<line x1="865.2083333333333" y1="770" x2="865.2083333333333" y2="645" stroke="#94a3b8" stroke-width="1.2"/>
<text x="865.2083333333333" y="788" text-anchor="middle" font-family="monospace" font-size="11" fill="#334155">2025-09</text>
<line x1="928.75" y1="420" x2="928.75" y2="90" stroke="#94a3b8" stroke-width="1.2"/>
<line x1="928.75" y1="605" x2="928.75" y2="480" stroke="#94a3b8" stroke-width="1.2"/>
<line x1="928.75" y1="770" x2="928.75" y2="645" stroke="#94a3b8" stroke-width="1.2"/>
<text x="928.75" y="788" text-anchor="middle" font-family="monospace" font-size="11" fill="#334155">2025-10</text>
<line x1="979.5833333333333" y1="420" x2="979.5833333333333" y2="90" stroke="#94a3b8" stroke-width="1.2"/>
<line x1="979.5833333333333" y1="605" x2="979.5833333333333" y2="480" stroke="#94a3b8" stroke-width="1.2"/>
<line x1="979.5833333333333" y1="770" x2="979.5833333333333" y2="645" stroke="#94a3b8" stroke-width="1.2"/>
<text x="979.5833333333333" y="788" text-anchor="middle" font-family="monospace" font-size="11" fill="#334155">2025-11</text>
<line x1="1030.4166666666667" y1="420" x2="1030.4166666666667" y2="90" stroke="#94a3b8" stroke-width="1.2"/>
<line x1="1030.4166666666667" y1="605" x2="1030.4166666666667" y2="480" stroke="#94a3b8" stroke-width="1.2"/>
<line x1="1030.4166666666667" y1="770" x2="1030.4166666666667" y2="645" stroke="#94a3b8" stroke-width="1.2"/>
<text x="1030.4166666666667" y="788" text-anchor="middle" font-family="monospace" font-size="11" fill="#334155">2025-12</text>
<line x1="1093.9583333333333" y1="420" x2="1093.9583333333333" y2="90" stroke="#94a3b8" stroke-width="1.2"/>
<line x1="1093.9583333333333" y1="605" x2="1093.9583333333333" y2="480" stroke="#94a3b8" stroke-width="1.2"/>
<line x1="1093.9583333333333" y1="770" x2="1093.9583333333333" y2="645" stroke="#94a3b8" stroke-width="1.2"/>
<text x="1093.9583333333333" y="788" text-anchor="middle" font-family="monospace" font-size="11" fill="#334155">2026-01</text>
<line x1="1144.7916666666667" y1="420" x2="1144.7916666666667" y2="90" stroke="#94a3b8" stroke-width="1.2"/>
<line x1="1144.7916666666667" y1="605" x2="1144.7916666666667" y2="480" stroke="#94a3b8" stroke-width="1.2"/>
<line x1="1144.7916666666667" y1="770" x2="1144.7916666666667" y2="645" stroke="#94a3b8" stroke-width="1.2"/>
<text x="1144.7916666666667" y="788" text-anchor="middle" font-family="monospace" font-size="11" fill="#334155">2026-02</text>
<line x1="1195.625" y1="420" x2="1195.625" y2="90" stroke="#94a3b8" stroke-width="1.2"/>
<line x1="1195.625" y1="605" x2="1195.625" y2="480" stroke="#94a3b8" stroke-width="1.2"/>
<line x1="1195.625" y1="770" x2="1195.625" y2="645" stroke="#94a3b8" stroke-width="1.2"/>
<text x="1195.625" y="788" text-anchor="middle" font-family="monospace" font-size="11" fill="#334155">2026-03</text>
<line x1="1259.1666666666667" y1="420" x2="1259.1666666666667" y2="90" stroke="#94a3b8" stroke-width="1.2"/>
<line x1="1259.1666666666667" y1="605" x2="1259.1666666666667" y2="480" stroke="#94a3b8" stroke-width="1.2"/>
<line x1="1259.1666666666667" y1="770" x2="1259.1666666666667" y2="645" stroke="#94a3b8" stroke-width="1.2"/>
<text x="1259.1666666666667" y="788" text-anchor="middle" font-family="monospace" font-size="11" fill="#334155">2026-04</text>
<line x1="1310.0" y1="420" x2="1310.0" y2="90" stroke="#94a3b8" stroke-width="1.2"/>
<line x1="1310.0" y1="605" x2="1310.0" y2="480" stroke="#94a3b8" stroke-width="1.2"/>
<line x1="1310.0" y1="770" x2="1310.0" y2="645" stroke="#94a3b8" stroke-width="1.2"/>
<text x="1310.0" y="788" text-anchor="middle" font-family="monospace" font-size="11" fill="#334155">2026-05</text>
<line x1="90" y1="420.0" x2="1310" y2="420.0" stroke="#cbd5e1" stroke-width="1"/>
<text x="78" y="424.0" text-anchor="end" font-family="monospace" font-size="12" fill="#475569">0</text>
<line x1="90" y1="354.0" x2="1310" y2="354.0" stroke="#cbd5e1" stroke-width="1"/>
<text x="78" y="358.0" text-anchor="end" font-family="monospace" font-size="12" fill="#475569">5307</text>
<line x1="90" y1="288.0" x2="1310" y2="288.0" stroke="#cbd5e1" stroke-width="1"/>
<text x="78" y="292.0" text-anchor="end" font-family="monospace" font-size="12" fill="#475569">10613</text>
<line x1="90" y1="222.0" x2="1310" y2="222.0" stroke="#cbd5e1" stroke-width="1"/>
<text x="78" y="226.0" text-anchor="end" font-family="monospace" font-size="12" fill="#475569">15920</text>
<line x1="90" y1="156.0" x2="1310" y2="156.0" stroke="#cbd5e1" stroke-width="1"/>
<text x="78" y="160.0" text-anchor="end" font-family="monospace" font-size="12" fill="#475569">21226</text>
<line x1="90" y1="89.99999999999994" x2="1310" y2="89.99999999999994" stroke="#cbd5e1" stroke-width="1"/>
<text x="78" y="93.99999999999994" text-anchor="end" font-family="monospace" font-size="12" fill="#475569">26533</text>
<polygon points="90.0,236.23817630562058 102.70833333333333,241.8349831186474 115.41666666666666,244.63338652516077 128.125,247.4317899316742 140.83333333333331,250.23019333818755 153.54166666666669,255.82700015121432 166.25,261.4238069642411 178.95833333333334,267.02061377726795 191.66666666666666,272.6174205902947 204.375,278.2142274033215 217.08333333333334,283.8110342163483 229.79166666666666,289.40784102937505 242.5,295.0046478424018 255.20833333333331,300.6014546554286 267.9166666666667,306.19826146845537 280.625,308.9966648749688 293.3333333333333,311.7950682814822 306.0416666666667,314.5934716879956 318.75,317.391875094509 331.4583333333333,320.19027850102236 344.1666666666667,322.98868190753575 356.875,325.78708531404914 369.5833333333333,328.5854887205625 382.2916666666667,331.3838921270759 395.0,334.1822955335893 407.70833333333337,336.9806989401027 420.41666666666663,339.7791023466161 433.125,342.57750575312946 445.83333333333337,345.3759091596429 458.54166666666663,348.1743125661563 471.25,350.9727159726697 483.95833333333337,353.77111937918306 496.66666666666663,356.56952278569645 509.375,359.36792619220984 522.0833333333334,362.1663295987232 534.7916666666666,364.9647330052366 547.5,370.56153981826344 560.2083333333334,375.6859743501359 572.9166666666666,378.4843777566493 585.625,381.29302341063214 598.3333333333334,384.5897696216124 611.0416666666666,386.70482133180235 623.75,388.74803056034807 636.4583333333334,391.54643396686146 649.1666666666666,393.56250295030554 661.875,394.26750768601954 674.5833333333334,394.30677587923543 687.2916666666666,394.30677587923543 700.0,394.83820039857767 712.7083333333333,397.63660380509106 725.4166666666667,397.63660380509106 738.125,397.63660380509106 750.8333333333333,397.63660380509106 763.5416666666667,397.63660380509106 776.25,399.5062133893573 788.9583333333333,397.673122513172 801.6666666666667,395.9625938823135 814.375,394.4629323441295 827.0833333333333,392.8190319727012 839.7916666666667,392.19703524841606 852.5,392.8737216391053 865.2083333333333,392.5911061265871 877.9166666666667,391.1978300399523 890.625,390.06834817145597 903.3333333333333,388.8596510472479 916.0416666666667,387.7193274983053 928.75,386.3417812984409 941.4583333333333,385.37811668196366 954.1666666666667,385.37811668196366 966.875,384.5568481710335 979.5833333333333,384.5568481710335 992.2916666666667,384.5568481710335 1005.0,385.9611170210584 1017.7083333333333,387.3233655890184 1030.4166666666667,387.73541342645206 1043.125,388.79229678806644 1055.8333333333333,389.57370205853385 1068.5416666666667,389.7409012119372 1081.25,389.7845241221608 1093.9583333333333,389.7845241221608 1106.6666666666667,389.7845241221608 1119.375,389.88412961446335 1132.0833333333333,389.88412961446335 1144.7916666666667,389.88412961446335 1157.5,389.88412961446335 1170.2083333333333,389.88412961446335 1182.9166666666667,389.88412961446335 1195.625,389.88412961446335 1208.3333333333333,389.88412961446335 1221.0416666666667,389.88412961446335 1233.75,389.88412961446335 1246.4583333333333,389.88412961446335 1259.1666666666667,389.88412961446335 1271.875,389.88412961446335 1284.5833333333333,389.88412961446335 1297.2916666666667,389.88412961446335 1310.0,389.88412961446335 1310.0,420.0 1297.2916666666667,420.0 1284.5833333333333,420.0 1271.875,420.0 1259.1666666666667,420.0 1246.4583333333333,420.0 1233.75,420.0 1221.0416666666667,420.0 1208.3333333333333,420.0 1195.625,420.0 1182.9166666666667,420.0 1170.2083333333333,420.0 1157.5,420.0 1144.7916666666667,420.0 1132.0833333333333,420.0 1119.375,420.0 1106.6666666666667,420.0 1093.9583333333333,420.0 1081.25,420.0 1068.5416666666667,420.0 1055.8333333333333,420.0 1043.125,420.0 1030.4166666666667,420.0 1017.7083333333333,420.0 1005.0,420.0 992.2916666666667,420.0 979.5833333333333,420.0 966.875,420.0 954.1666666666667,420.0 941.4583333333333,420.0 928.75,420.0 916.0416666666667,420.0 903.3333333333333,420.0 890.625,420.0 877.9166666666667,420.0 865.2083333333333,420.0 852.5,420.0 839.7916666666667,420.0 827.0833333333333,420.0 814.375,420.0 801.6666666666667,420.0 788.9583333333333,420.0 776.25,420.0 763.5416666666667,420.0 750.8333333333333,420.0 738.125,420.0 725.4166666666667,420.0 712.7083333333333,420.0 700.0,420.0 687.2916666666666,420.0 674.5833333333334,420.0 661.875,420.0 649.1666666666666,420.0 636.4583333333334,420.0 623.75,420.0 611.0416666666666,420.0 598.3333333333334,420.0 585.625,420.0 572.9166666666666,420.0 560.2083333333334,420.0 547.5,420.0 534.7916666666666,420.0 522.0833333333334,420.0 509.375,420.0 496.66666666666663,420.0 483.95833333333337,420.0 471.25,420.0 458.54166666666663,420.0 445.83333333333337,420.0 433.125,420.0 420.41666666666663,420.0 407.70833333333337,420.0 395.0,420.0 382.2916666666667,420.0 369.5833333333333,420.0 356.875,420.0 344.1666666666667,420.0 331.4583333333333,420.0 318.75,420.0 306.0416666666667,420.0 293.3333333333333,420.0 280.625,420.0 267.9166666666667,420.0 255.20833333333331,420.0 242.5,420.0 229.79166666666666,420.0 217.08333333333334,420.0 204.375,420.0 191.66666666666666,420.0 178.95833333333334,420.0 166.25,420.0 153.54166666666669,420.0 140.83333333333331,420.0 128.125,420.0 115.41666666666666,420.0 102.70833333333333,420.0 90.0,420.0" fill="#facc15" fill-opacity="0.70" stroke="#facc15" stroke-width="1.2"/>
<polygon points="90.0,234.8389746023639 102.70833333333333,238.368006266819 115.41666666666666,239.23037144613778 128.125,240.69896557799564 140.83333333333331,242.33990406568086 153.54166666666669,247.8317946460916 166.25,250.19020139448634 178.95833333333334,253.90245552936938 191.66666666666666,257.04355762421073 204.375,261.2321640804625 217.08333333333334,265.7794161805038 229.79166666666666,269.6332723518527 242.5,269.9628934075995 255.20833333333331,273.75099946187277 267.9166666666667,278.96282162693984 280.625,278.31316203661703 293.3333333333333,279.56488032887523 306.0416666666667,282.44940286765086 318.75,286.2415147053895 331.4583333333333,275.2007612792673 344.1666666666667,279.09970624446396 356.875,277.9682050741486 369.5833333333333,276.42918570185583 382.2916666666667,277.1200612043698 395.0,274.7948923170851 407.70833333333337,284.95521091424195 420.41666666666663,287.58492525230446 433.125,284.08321700965985 445.83333333333337,294.5260791159647 458.54166666666663,293.86505092189935 471.25,297.1743310447337 483.95833333333337,303.8970403622313 496.66666666666663,309.41139254478765 509.375,309.63363427549103 522.0833333333334,315.49480811480845 534.7916666666666,323.9047661936098 547.5,329.32345892157315 560.2083333333334,327.9483547927948 572.9166666666666,324.7345868319778 585.625,331.4374952524078 598.3333333333334,338.8087134708477 611.0416666666666,336.70371192599305 623.75,338.07317514180215 636.4583333333334,330.9923943248433 649.1666666666666,330.3233688238158 661.875,307.5526060971852 674.5833333333334,306.44949441507276 687.2916666666666,305.2122636559352 700.0,304.1812543859368 712.7083333333333,301.6796926151447 725.4166666666667,306.5475208098034 738.125,311.2811455363694 750.8333333333333,308.6632832187743 763.5416666666667,306.65094694921356 776.25,289.75383562655423 788.9583333333333,261.55984512490363 801.6666666666667,259.41315466917945 814.375,261.48778327793593 827.0833333333333,243.4290397481289 839.7916666666667,241.33622651049174 852.5,241.7932239312026 865.2083333333333,245.375666141525 877.9166666666667,245.74102227948023 890.625,238.77160322170857 903.3333333333333,248.93929291705092 916.0416666666667,247.8753635250947 928.75,231.63223434456168 941.4583333333333,245.72993933237666 954.1666666666667,254.42429011610298 966.875,249.41825374359513 979.5833333333333,266.3829836797034 992.2916666666667,267.5765696245141 1005.0,286.64682885307786 1017.7083333333333,290.4789048913387 1030.4166666666667,295.9516390553687 1043.125,286.2951127672575 1055.8333333333333,292.34187532600345 1068.5416666666667,291.0891696827359 1081.25,293.543580362775 1093.9583333333333,283.998828784322 1106.6666666666667,288.36940661191255 1119.375,285.3343320067829 1132.0833333333333,293.88393663372307 1144.7916666666667,312.9649118338925 1157.5,320.8788556856078 1170.2083333333333,324.37367795600017 1182.9166666666667,329.02338236755173 1195.625,323.38279498285556 1208.3333333333333,324.50782927543617 1221.0416666666667,312.7080891367815 1233.75,319.30839965269945 1246.4583333333333,323.47758650196806 1259.1666666666667,320.7620882779813 1271.875,312.1393400221067 1284.5833333333333,313.95940278873337 1297.2916666666667,314.3316809001266 1310.0,312.90456014006304 1310.0,389.88412961446335 1297.2916666666667,389.88412961446335 1284.5833333333333,389.88412961446335 1271.875,389.88412961446335 1259.1666666666667,389.88412961446335 1246.4583333333333,389.88412961446335 1233.75,389.88412961446335 1221.0416666666667,389.88412961446335 1208.3333333333333,389.88412961446335 1195.625,389.88412961446335 1182.9166666666667,389.88412961446335 1170.2083333333333,389.88412961446335 1157.5,389.88412961446335 1144.7916666666667,389.88412961446335 1132.0833333333333,389.88412961446335 1119.375,389.88412961446335 1106.6666666666667,389.7845241221608 1093.9583333333333,389.7845241221608 1081.25,389.7845241221608 1068.5416666666667,389.7409012119372 1055.8333333333333,389.57370205853385 1043.125,388.79229678806644 1030.4166666666667,387.73541342645206 1017.7083333333333,387.3233655890184 1005.0,385.9611170210584 992.2916666666667,384.5568481710335 979.5833333333333,384.5568481710335 966.875,384.5568481710335 954.1666666666667,385.37811668196366 941.4583333333333,385.37811668196366 928.75,386.3417812984409 916.0416666666667,387.7193274983053 903.3333333333333,388.8596510472479 890.625,390.06834817145597 877.9166666666667,391.1978300399523 865.2083333333333,392.5911061265871 852.5,392.8737216391053 839.7916666666667,392.19703524841606 827.0833333333333,392.8190319727012 814.375,394.4629323441295 801.6666666666667,395.9625938823135 788.9583333333333,397.673122513172 776.25,399.5062133893573 763.5416666666667,397.63660380509106 750.8333333333333,397.63660380509106 738.125,397.63660380509106 725.4166666666667,397.63660380509106 712.7083333333333,397.63660380509106 700.0,394.83820039857767 687.2916666666666,394.30677587923543 674.5833333333334,394.30677587923543 661.875,394.26750768601954 649.1666666666666,393.56250295030554 636.4583333333334,391.54643396686146 623.75,388.74803056034807 611.0416666666666,386.70482133180235 598.3333333333334,384.5897696216124 585.625,381.29302341063214 572.9166666666666,378.4843777566493 560.2083333333334,375.6859743501359 547.5,370.56153981826344 534.7916666666666,364.9647330052366 522.0833333333334,362.1663295987232 509.375,359.36792619220984 496.66666666666663,356.56952278569645 483.95833333333337,353.77111937918306 471.25,350.9727159726697 458.54166666666663,348.1743125661563 445.83333333333337,345.3759091596429 433.125,342.57750575312946 420.41666666666663,339.7791023466161 407.70833333333337,336.9806989401027 395.0,334.1822955335893 382.2916666666667,331.3838921270759 369.5833333333333,328.5854887205625 356.875,325.78708531404914 344.1666666666667,322.98868190753575 331.4583333333333,320.19027850102236 318.75,317.391875094509 306.0416666666667,314.5934716879956 293.3333333333333,311.7950682814822 280.625,308.9966648749688 267.9166666666667,306.19826146845537 255.20833333333331,300.6014546554286 242.5,295.0046478424018 229.79166666666666,289.40784102937505 217.08333333333334,283.8110342163483 204.375,278.2142274033215 191.66666666666666,272.6174205902947 178.95833333333334,267.02061377726795 166.25,261.4238069642411 153.54166666666669,255.82700015121432 140.83333333333331,250.23019333818755 128.125,247.4317899316742 115.41666666666666,244.63338652516077 102.70833333333333,241.8349831186474 90.0,236.23817630562058" fill="#2563eb" fill-opacity="0.70" stroke="#2563eb" stroke-width="1.2"/>
<polygon points="90.0,233.4397728991072 102.70833333333333,233.74724869687446 115.41666666666666,232.55374213420654 128.125,232.33433809149122 140.83333333333331,232.67348771432128 153.54166666666669,236.65198482044048 166.25,234.5494839437233 178.95833333333334,234.87891448365332 191.66666666666666,233.57806171935098 204.375,235.79028879788032 217.08333333333334,237.87682108910664 229.79166666666666,237.80780598120649 242.5,231.97446461834704 255.20833333333331,232.42704973901044 267.9166666666667,234.99951657637877 280.625,229.93876228188196 293.3333333333333,228.57383451232056 306.0416666666667,227.82712081373964 318.75,231.59392375623443 331.4583333333333,201.97936813636713 344.1666666666667,202.75616078019127 356.875,197.85426509449783 369.5833333333333,192.17000398123312 382.2916666666667,189.89687531381702 395.0,178.02844706548186 407.70833333333337,196.84783684002895 420.41666666666663,199.7917542240039 433.125,185.45573077002416 445.83333333333337,201.71497445132184 458.54166666666663,191.8729594009985 471.25,193.58608286713354 483.95833333333337,199.2409733002122 496.66666666666663,207.21856570862727 509.375,207.5053935401881 522.0833333333334,216.241497735528 534.7916666666666,228.8369188816403 547.5,242.65933210050278 560.2083333333334,235.25242881616734 572.9166666666666,227.52745932883474 585.625,239.7716778693378 598.3333333333334,250.91274844255 611.0416666666666,242.75437676301908 623.75,240.86776912878514 636.4583333333334,225.43442928390465 649.1666666666666,225.1081247010124 661.875,192.67370040970664 674.5833333333334,188.3844830712177 687.2916666666666,182.84553743512905 700.0,185.2620227856124 712.7083333333333,177.82401598068247 725.4166666666667,186.56329869988608 738.125,192.90713149533494 750.8333333333333,188.31992830690524 763.5416666666667,185.0762009714521 776.25,155.16048908422943 788.9583333333333,130.61718291360938 801.6666666666667,128.61009751626852 814.375,134.77883103342447 827.0833333333333,112.7611846751733 839.7916666666667,112.20558568763562 852.5,116.88965054561896 865.2083333333333,120.04488753375574 877.9166666666667,117.10007621092552 890.625,105.91380623308936 903.3333333333333,119.73089412569635 916.0416666666667,117.37071123643727 928.75,90.0 941.4583333333333,115.30649061650735 954.1666666666667,129.32527429247676 966.875,120.74840196890835 979.5833333333333,146.20459103806604 992.2916666666667,148.0507345668554 1005.0,181.36951296020942 1017.7083333333333,188.2223231695978 1030.4166666666667,195.58129238458017 1043.125,179.78261419941643 1055.8333333333333,190.0254240576447 1068.5416666666667,186.0726698415291 1081.25,190.19820859656446 1093.9583333333333,172.63446896092813 1106.6666666666667,180.18684801582754 1119.375,175.42498226406667 1132.0833333333333,189.0920519845335 1144.7916666666667,219.5524864878206 1157.5,237.63671611238124 1170.2083333333333,242.60855162775502 1182.9166666666667,252.28393176438578 1195.625,241.64868467406512 1208.3333333333333,243.24850630273926 1221.0416666666667,223.7846507595508 1233.75,235.14926885191957 1246.4583333333333,244.23096807810384 1259.1666666666667,239.00232919353158 1271.875,223.73893480296206 1284.5833333333333,223.87418174403416 1297.2916666666667,222.46581735414568 1310.0,218.08439699215631 1310.0,312.90456014006304 1297.2916666666667,314.3316809001266 1284.5833333333333,313.95940278873337 1271.875,312.1393400221067 1259.1666666666667,320.7620882779813 1246.4583333333333,323.47758650196806 1233.75,319.30839965269945 1221.0416666666667,312.7080891367815 1208.3333333333333,324.50782927543617 1195.625,323.38279498285556 1182.9166666666667,329.02338236755173 1170.2083333333333,324.37367795600017 1157.5,320.8788556856078 1144.7916666666667,312.9649118338925 1132.0833333333333,293.88393663372307 1119.375,285.3343320067829 1106.6666666666667,288.36940661191255 1093.9583333333333,283.998828784322 1081.25,293.543580362775 1068.5416666666667,291.0891696827359 1055.8333333333333,292.34187532600345 1043.125,286.2951127672575 1030.4166666666667,295.9516390553687 1017.7083333333333,290.4789048913387 1005.0,286.64682885307786 992.2916666666667,267.5765696245141 979.5833333333333,266.3829836797034 966.875,249.41825374359513 954.1666666666667,254.42429011610298 941.4583333333333,245.72993933237666 928.75,231.63223434456168 916.0416666666667,247.8753635250947 903.3333333333333,248.93929291705092 890.625,238.77160322170857 877.9166666666667,245.74102227948023 865.2083333333333,245.375666141525 852.5,241.7932239312026 839.7916666666667,241.33622651049174 827.0833333333333,243.4290397481289 814.375,261.48778327793593 801.6666666666667,259.41315466917945 788.9583333333333,261.55984512490363 776.25,289.75383562655423 763.5416666666667,306.65094694921356 750.8333333333333,308.6632832187743 738.125,311.2811455363694 725.4166666666667,306.5475208098034 712.7083333333333,301.6796926151447 700.0,304.1812543859368 687.2916666666666,305.2122636559352 674.5833333333334,306.44949441507276 661.875,307.5526060971852 649.1666666666666,330.3233688238158 636.4583333333334,330.9923943248433 623.75,338.07317514180215 611.0416666666666,336.70371192599305 598.3333333333334,338.8087134708477 585.625,331.4374952524078 572.9166666666666,324.7345868319778 560.2083333333334,327.9483547927948 547.5,329.32345892157315 534.7916666666666,323.9047661936098 522.0833333333334,315.49480811480845 509.375,309.63363427549103 496.66666666666663,309.41139254478765 483.95833333333337,303.8970403622313 471.25,297.1743310447337 458.54166666666663,293.86505092189935 445.83333333333337,294.5260791159647 433.125,284.08321700965985 420.41666666666663,287.58492525230446 407.70833333333337,284.95521091424195 395.0,274.7948923170851 382.2916666666667,277.1200612043698 369.5833333333333,276.42918570185583 356.875,277.9682050741486 344.1666666666667,279.09970624446396 331.4583333333333,275.2007612792673 318.75,286.2415147053895 306.0416666666667,282.44940286765086 293.3333333333333,279.56488032887523 280.625,278.31316203661703 267.9166666666667,278.96282162693984 255.20833333333331,273.75099946187277 242.5,269.9628934075995 229.79166666666666,269.6332723518527 217.08333333333334,265.7794161805038 204.375,261.2321640804625 191.66666666666666,257.04355762421073 178.95833333333334,253.90245552936938 166.25,250.19020139448634 153.54166666666669,247.8317946460916 140.83333333333331,242.33990406568086 128.125,240.69896557799564 115.41666666666666,239.23037144613778 102.70833333333333,238.368006266819 90.0,234.8389746023639" fill="#f97316" fill-opacity="0.70" stroke="#f97316" stroke-width="1.2"/>
<rect x="1100" y="76" width="16" height="12" fill="#f97316" fill-opacity="0.70" stroke="#f97316"/>
<text x="1124" y="86" font-family="monospace" font-size="12" fill="#0f172a">BTC</text>
<rect x="1100" y="98" width="16" height="12" fill="#2563eb" fill-opacity="0.70" stroke="#2563eb"/>
<text x="1124" y="108" font-family="monospace" font-size="12" fill="#0f172a">ETH</text>
<rect x="1100" y="120" width="16" height="12" fill="#facc15" fill-opacity="0.70" stroke="#facc15"/>
<text x="1124" y="130" font-family="monospace" font-size="12" fill="#0f172a">DAI</text>
<text x="700.0" y="782" text-anchor="middle" font-family="monospace" font-size="16" fill="#0f172a">time</text>
<text x="24" y="255.0" transform="rotate(-90 24,255.0)" text-anchor="middle" font-family="monospace" font-size="16" fill="#0f172a">asset value split (usd)</text>
<line x1="90" y1="605" x2="1310" y2="605" stroke="#334155" stroke-width="2"/>
<line x1="90" y1="480" x2="90" y2="605" stroke="#334155" stroke-width="2"/>
<line x1="90" y1="542.5" x2="1310" y2="542.5" stroke="#64748b" stroke-width="1.5" stroke-dasharray="6 4"/>
<line x1="90" y1="605.0" x2="1310" y2="605.0" stroke="#e2e8f0" stroke-width="1"/>
<text x="78" y="609.0" text-anchor="end" font-family="monospace" font-size="11" fill="#475569">-270</text>
<line x1="90" y1="542.5" x2="1310" y2="542.5" stroke="#e2e8f0" stroke-width="1"/>
<text x="78" y="546.5" text-anchor="end" font-family="monospace" font-size="11" fill="#475569">0</text>
<line x1="90" y1="480.0" x2="1310" y2="480.0" stroke="#e2e8f0" stroke-width="1"/>
<text x="78" y="484.0" text-anchor="end" font-family="monospace" font-size="11" fill="#475569">270</text>
<rect x="86.54123711340206" y="516.4583333333334" width="6.917525773195877" height="26.04166666666663" fill="#ea580c" opacity="0.85"><title>2024-07-01 | BTC buy 112.50 usd | reason=balanced_regime</title></rect>
<rect x="99.24957044673539" y="480.0" width="6.917525773195877" height="62.5" fill="#ea580c" opacity="0.85"><title>2024-07-08 | BTC buy 270.00 usd | reason=both_weak_btc_defensive</title></rect>
<rect x="111.95790378006872" y="516.4583333333334" width="6.917525773195877" height="26.04166666666663" fill="#ea580c" opacity="0.85"><title>2024-07-15 | BTC buy 112.50 usd | reason=balanced_regime</title></rect>
<rect x="124.66623711340206" y="516.4583333333334" width="6.917525773195877" height="26.04166666666663" fill="#ea580c" opacity="0.85"><title>2024-07-22 | BTC buy 112.50 usd | reason=balanced_regime</title></rect>
<rect x="137.3745704467354" y="516.4583333333334" width="6.917525773195877" height="26.04166666666663" fill="#ea580c" opacity="0.85"><title>2024-07-29 | BTC buy 112.50 usd | reason=balanced_regime</title></rect>
<rect x="150.08290378006876" y="480.0" width="6.917525773195877" height="62.5" fill="#ea580c" opacity="0.85"><title>2024-08-05 | BTC buy 270.00 usd | reason=both_weak_btc_defensive</title></rect>
<rect x="162.79123711340208" y="480.0" width="6.917525773195877" height="62.5" fill="#ea580c" opacity="0.85"><title>2024-08-12 | BTC buy 270.00 usd | reason=both_weak_btc_defensive</title></rect>
<rect x="175.4995704467354" y="480.0" width="6.917525773195877" height="62.5" fill="#ea580c" opacity="0.85"><title>2024-08-19 | BTC buy 270.00 usd | reason=both_weak_btc_defensive</title></rect>
<rect x="188.2079037800687" y="480.0" width="6.917525773195877" height="62.5" fill="#ea580c" opacity="0.85"><title>2024-08-26 | BTC buy 270.00 usd | reason=both_weak_btc_defensive</title></rect>
<rect x="200.91623711340208" y="480.0" width="6.917525773195877" height="62.5" fill="#ea580c" opacity="0.85"><title>2024-09-02 | BTC buy 270.00 usd | reason=both_weak_btc_defensive</title></rect>
<rect x="213.6245704467354" y="480.0" width="6.917525773195877" height="62.5" fill="#ea580c" opacity="0.85"><title>2024-09-09 | BTC buy 270.00 usd | reason=both_weak_btc_defensive</title></rect>
<rect x="226.3329037800687" y="480.0" width="6.917525773195877" height="62.5" fill="#ea580c" opacity="0.85"><title>2024-09-16 | BTC buy 270.00 usd | reason=both_weak_btc_defensive</title></rect>
<rect x="239.04123711340208" y="480.0" width="6.917525773195877" height="62.5" fill="#ea580c" opacity="0.85"><title>2024-09-23 | BTC buy 270.00 usd | reason=both_weak_btc_defensive</title></rect>
<rect x="251.7495704467354" y="480.0" width="6.917525773195877" height="62.5" fill="#ea580c" opacity="0.85"><title>2024-09-30 | BTC buy 270.00 usd | reason=both_weak_btc_defensive</title></rect>
<rect x="264.45790378006876" y="480.0" width="6.917525773195877" height="62.5" fill="#ea580c" opacity="0.85"><title>2024-10-07 | BTC buy 270.00 usd | reason=both_weak_btc_defensive</title></rect>
<rect x="277.1662371134021" y="511.25" width="6.917525773195877" height="31.25" fill="#ea580c" opacity="0.85"><title>2024-10-14 | BTC buy 135.00 usd | reason=btc_defensive_regime</title></rect>
<rect x="289.8745704467354" y="511.25" width="6.917525773195877" height="31.25" fill="#ea580c" opacity="0.85"><title>2024-10-21 | BTC buy 135.00 usd | reason=btc_defensive_regime</title></rect>
<rect x="302.58290378006876" y="511.25" width="6.917525773195877" height="31.25" fill="#ea580c" opacity="0.85"><title>2024-10-28 | BTC buy 135.00 usd | reason=btc_defensive_regime</title></rect>
<rect x="315.2912371134021" y="511.25" width="6.917525773195877" height="31.25" fill="#ea580c" opacity="0.85"><title>2024-11-04 | BTC buy 135.00 usd | reason=btc_defensive_regime</title></rect>
<rect x="327.9995704467354" y="511.25" width="6.917525773195877" height="31.25" fill="#ea580c" opacity="0.85"><title>2024-11-11 | BTC buy 135.00 usd | reason=btc_defensive_regime</title></rect>
<rect x="340.70790378006876" y="511.25" width="6.917525773195877" height="31.25" fill="#ea580c" opacity="0.85"><title>2024-11-18 | BTC buy 135.00 usd | reason=btc_defensive_regime</title></rect>
<rect x="353.4162371134021" y="511.25" width="6.917525773195877" height="31.25" fill="#ea580c" opacity="0.85"><title>2024-11-25 | BTC buy 135.00 usd | reason=btc_defensive_regime</title></rect>
<rect x="366.1245704467354" y="511.25" width="6.917525773195877" height="31.25" fill="#ea580c" opacity="0.85"><title>2024-12-02 | BTC buy 135.00 usd | reason=btc_defensive_regime</title></rect>
<rect x="378.83290378006876" y="511.25" width="6.917525773195877" height="31.25" fill="#ea580c" opacity="0.85"><title>2024-12-09 | BTC buy 135.00 usd | reason=btc_defensive_regime</title></rect>
<rect x="391.5412371134021" y="511.25" width="6.917525773195877" height="31.25" fill="#ea580c" opacity="0.85"><title>2024-12-16 | BTC buy 135.00 usd | reason=btc_defensive_regime</title></rect>
<rect x="404.24957044673545" y="511.25" width="6.917525773195877" height="31.25" fill="#ea580c" opacity="0.85"><title>2024-12-23 | BTC buy 135.00 usd | reason=btc_defensive_regime</title></rect>
<rect x="416.9579037800687" y="511.25" width="6.917525773195877" height="31.25" fill="#ea580c" opacity="0.85"><title>2024-12-30 | BTC buy 135.00 usd | reason=btc_defensive_regime</title></rect>
<rect x="429.6662371134021" y="511.25" width="6.917525773195877" height="31.25" fill="#ea580c" opacity="0.85"><title>2025-01-06 | BTC buy 135.00 usd | reason=btc_defensive_regime</title></rect>
<rect x="442.37457044673545" y="511.25" width="6.917525773195877" height="31.25" fill="#ea580c" opacity="0.85"><title>2025-01-13 | BTC buy 135.00 usd | reason=btc_defensive_regime</title></rect>
<rect x="455.0829037800687" y="511.25" width="6.917525773195877" height="31.25" fill="#ea580c" opacity="0.85"><title>2025-01-20 | BTC buy 135.00 usd | reason=btc_defensive_regime</title></rect>
<rect x="467.7912371134021" y="511.25" width="6.917525773195877" height="31.25" fill="#ea580c" opacity="0.85"><title>2025-01-27 | BTC buy 135.00 usd | reason=btc_defensive_regime</title></rect>
<rect x="480.49957044673545" y="511.25" width="6.917525773195877" height="31.25" fill="#ea580c" opacity="0.85"><title>2025-02-03 | BTC buy 135.00 usd | reason=btc_defensive_regime</title></rect>
<rect x="493.2079037800687" y="511.25" width="6.917525773195877" height="31.25" fill="#ea580c" opacity="0.85"><title>2025-02-10 | BTC buy 135.00 usd | reason=btc_defensive_regime</title></rect>
<rect x="505.9162371134021" y="511.25" width="6.917525773195877" height="31.25" fill="#ea580c" opacity="0.85"><title>2025-02-17 | BTC buy 135.00 usd | reason=btc_defensive_regime</title></rect>
<rect x="518.6245704467354" y="511.25" width="6.917525773195877" height="31.25" fill="#ea580c" opacity="0.85"><title>2025-02-24 | BTC buy 135.00 usd | reason=btc_defensive_regime</title></rect>
<rect x="531.3329037800687" y="512.4068973685322" width="6.917525773195877" height="30.093102631467787" fill="#ea580c" opacity="0.85"><title>2025-03-03 | BTC buy 130.00 usd | reason=btc_defensive_regime</title></rect>
<rect x="544.0412371134021" y="542.5" width="6.917525773195877" height="1.5" fill="#ea580c" opacity="0.85"><title>2025-03-10 | BTC buy 0.00 usd | reason=both_weak_btc_defensive</title></rect>
<rect x="556.7495704467354" y="542.5" width="6.917525773195877" height="1.5" fill="#ea580c" opacity="0.85"><title>2025-03-17 | BTC buy 0.00 usd | reason=both_weak_btc_defensive</title></rect>
<rect x="569.4579037800687" y="530.6645280685984" width="6.917525773195877" height="11.835471931401571" fill="#ea580c" opacity="0.85"><title>2025-03-24 | BTC buy 51.13 usd | reason=btc_defensive_regime</title></rect>
<rect x="582.1662371134021" y="542.5" width="6.917525773195877" height="1.5" fill="#ea580c" opacity="0.85"><title>2025-03-31 | BTC buy 0.00 usd | reason=both_weak_btc_defensive</title></rect>
<rect x="594.8745704467354" y="542.5" width="6.917525773195877" height="1.5" fill="#ea580c" opacity="0.85"><title>2025-04-07 | BTC buy 0.00 usd | reason=both_weak_btc_defensive</title></rect>
<rect x="607.5829037800687" y="542.5" width="6.917525773195877" height="1.5" fill="#ea580c" opacity="0.85"><title>2025-04-14 | BTC buy 0.00 usd | reason=both_weak_btc_defensive</title></rect>
<rect x="620.2912371134021" y="542.5" width="6.917525773195877" height="1.5" fill="#ea580c" opacity="0.85"><title>2025-04-21 | BTC buy 0.00 usd | reason=both_weak_btc_defensive</title></rect>
<rect x="632.9995704467354" y="542.5" width="6.917525773195877" height="1.5" fill="#ea580c" opacity="0.85"><title>2025-04-28 | BTC buy 0.00 usd | reason=btc_defensive_regime</title></rect>
<rect x="645.7079037800687" y="542.5" width="6.917525773195877" height="1.5" fill="#ea580c" opacity="0.85"><title>2025-05-05 | BTC buy 0.00 usd | reason=btc_defensive_regime</title></rect>
<rect x="658.4162371134021" y="529.3785906398249" width="6.917525773195877" height="13.121409360175107" fill="#ea580c" opacity="0.85"><title>2025-05-12 | BTC buy 56.68 usd | reason=btc_defensive_regime</title></rect>
<rect x="671.1245704467354" y="541.7691481178508" width="6.917525773195877" height="1.5" fill="#ea580c" opacity="0.85"><title>2025-05-19 | BTC buy 3.16 usd | reason=btc_defensive_regime</title></rect>
<rect x="683.8329037800687" y="542.5" width="6.917525773195877" height="1.5" fill="#ea580c" opacity="0.85"><title>2025-05-26 | BTC buy 0.00 usd | reason=btc_defensive_regime</title></rect>
<rect x="696.5412371134021" y="532.6092314574864" width="6.917525773195877" height="9.89076854251357" fill="#ea580c" opacity="0.85"><title>2025-06-02 | BTC buy 42.73 usd | reason=btc_defensive_regime</title></rect>
<rect x="709.2495704467353" y="542.5" width="6.917525773195877" height="1.5" fill="#ea580c" opacity="0.85"><title>2025-06-09 | BTC buy 0.00 usd | reason=balanced_regime</title></rect>
<rect x="721.9579037800688" y="542.5" width="6.917525773195877" height="1.5" fill="#ea580c" opacity="0.85"><title>2025-06-16 | BTC buy 0.00 usd | reason=btc_defensive_regime</title></rect>
<rect x="734.6662371134021" y="542.5" width="6.917525773195877" height="1.5" fill="#ea580c" opacity="0.85"><title>2025-06-23 | BTC buy 0.00 usd | reason=btc_defensive_regime</title></rect>
<rect x="747.3745704467353" y="542.5" width="6.917525773195877" height="1.5" fill="#ea580c" opacity="0.85"><title>2025-06-30 | BTC buy 0.00 usd | reason=btc_defensive_regime</title></rect>
<rect x="760.0829037800688" y="542.5" width="6.917525773195877" height="1.5" fill="#ea580c" opacity="0.85"><title>2025-07-07 | BTC buy 0.00 usd | reason=btc_defensive_regime</title></rect>
<rect x="772.7912371134021" y="542.5" width="6.917525773195877" height="1.5" fill="#ea580c" opacity="0.85"><title>2025-07-14 | BTC buy 0.00 usd | reason=balanced_regime</title></rect>
<rect x="785.4995704467353" y="542.5" width="6.917525773195877" height="17.058563270833588" fill="#dc2626" opacity="0.85"><title>2025-07-21 | BTC sell 73.69 usd | reason=balanced_regime</title></rect>
<rect x="798.2079037800688" y="542.5" width="6.917525773195877" height="15.91801107907736" fill="#dc2626" opacity="0.85"><title>2025-07-28 | BTC sell 68.77 usd | reason=balanced_regime</title></rect>
<rect x="810.9162371134021" y="542.5" width="6.917525773195877" height="13.955702669353855" fill="#dc2626" opacity="0.85"><title>2025-08-04 | BTC sell 60.29 usd | reason=balanced_regime</title></rect>
<rect x="823.6245704467353" y="542.5" width="6.917525773195877" height="1.5" fill="#dc2626" opacity="0.85"><title>2025-08-11 | BTC sell 4.90 usd | reason=balanced_regime</title></rect>
<rect x="836.3329037800688" y="521.6301476289044" width="6.917525773195877" height="20.86985237109559" fill="#ea580c" opacity="0.85"><title>2025-08-18 | BTC buy 90.16 usd | reason=balanced_regime</title></rect>
<rect x="849.0412371134021" y="493.8819359732415" width="6.917525773195877" height="48.618064026758475" fill="#ea580c" opacity="0.85"><title>2025-08-25 | BTC buy 210.03 usd | reason=balanced_regime</title></rect>
<rect x="861.7495704467353" y="515.8212930578256" width="6.917525773195877" height="26.678706942174358" fill="#ea580c" opacity="0.85"><title>2025-09-01 | BTC buy 115.25 usd | reason=balanced_regime</title></rect>
<rect x="874.4579037800688" y="541.3644127200632" width="6.917525773195877" height="1.5" fill="#ea580c" opacity="0.85"><title>2025-09-08 | BTC buy 4.91 usd | reason=balanced_regime</title></rect>
<rect x="887.1662371134021" y="534.6974933489684" width="6.917525773195877" height="7.802506651031649" fill="#ea580c" opacity="0.85"><title>2025-09-15 | BTC buy 33.71 usd | reason=balanced_regime</title></rect>
<rect x="899.8745704467353" y="542.5" width="6.917525773195877" height="11.248016471222058" fill="#dc2626" opacity="0.85"><title>2025-09-22 | BTC sell 48.59 usd | reason=balanced_regime</title></rect>
<rect x="912.5829037800688" y="542.5" width="6.917525773195877" height="10.61173870950654" fill="#dc2626" opacity="0.85"><title>2025-09-29 | BTC sell 45.84 usd | reason=balanced_regime</title></rect>
<rect x="925.2912371134021" y="542.5" width="6.917525773195877" height="12.819309350219328" fill="#dc2626" opacity="0.85"><title>2025-10-06 | BTC sell 55.38 usd | reason=balanced_regime</title></rect>
<rect x="937.9995704467353" y="542.5" width="6.917525773195877" height="8.967768071733076" fill="#dc2626" opacity="0.85"><title>2025-10-13 | BTC sell 38.74 usd | reason=balanced_regime</title></rect>
<rect x="950.7079037800688" y="542.5" width="6.917525773195877" height="1.5" fill="#ea580c" opacity="0.85"><title>2025-10-20 | BTC buy 0.00 usd | reason=balanced_regime</title></rect>
<rect x="963.4162371134021" y="542.5" width="6.917525773195877" height="7.642643928925395" fill="#dc2626" opacity="0.85"><title>2025-10-27 | BTC sell 33.02 usd | reason=balanced_regime</title></rect>
<rect x="976.1245704467353" y="542.5" width="6.917525773195877" height="1.5" fill="#ea580c" opacity="0.85"><title>2025-11-03 | BTC buy 0.00 usd | reason=balanced_regime</title></rect>
<rect x="988.8329037800688" y="542.5" width="6.917525773195877" height="1.5" fill="#ea580c" opacity="0.85"><title>2025-11-10 | BTC buy 0.00 usd | reason=balanced_regime</title></rect>
<rect x="1001.5412371134021" y="516.3640245951573" width="6.917525773195877" height="26.135975404842725" fill="#ea580c" opacity="0.85"><title>2025-11-17 | BTC buy 112.91 usd | reason=both_weak_btc_defensive</title></rect>
<rect x="1014.2495704467353" y="517.1460978132101" width="6.917525773195877" height="25.353902186789924" fill="#ea580c" opacity="0.85"><title>2025-11-24 | BTC buy 109.53 usd | reason=both_weak_btc_defensive</title></rect>
<rect x="1026.9579037800688" y="534.8310467617414" width="6.917525773195877" height="7.668953238258609" fill="#ea580c" opacity="0.85"><title>2025-12-01 | BTC buy 33.13 usd | reason=both_weak_btc_defensive</title></rect>
<rect x="1039.666237113402" y="522.8294949222498" width="6.917525773195877" height="19.67050507775025" fill="#ea580c" opacity="0.85"><title>2025-12-08 | BTC buy 84.98 usd | reason=both_weak_btc_defensive</title></rect>
<rect x="1052.3745704467353" y="527.9566389265212" width="6.917525773195877" height="14.543361073478764" fill="#ea580c" opacity="0.85"><title>2025-12-15 | BTC buy 62.83 usd | reason=both_weak_btc_defensive</title></rect>
<rect x="1065.0829037800688" y="539.388122270188" width="6.917525773195877" height="3.111877729812022" fill="#ea580c" opacity="0.85"><title>2025-12-22 | BTC buy 13.44 usd | reason=both_weak_btc_defensive</title></rect>
<rect x="1077.791237113402" y="541.6880989821346" width="6.917525773195877" height="1.5" fill="#ea580c" opacity="0.85"><title>2025-12-29 | BTC buy 3.51 usd | reason=both_weak_btc_defensive</title></rect>
<rect x="1090.4995704467353" y="542.5" width="6.917525773195877" height="1.5" fill="#ea580c" opacity="0.85"><title>2026-01-05 | BTC buy 0.00 usd | reason=both_weak_btc_defensive</title></rect>
<rect x="1103.2079037800688" y="542.5" width="6.917525773195877" height="1.5" fill="#ea580c" opacity="0.85"><title>2026-01-12 | BTC buy 0.00 usd | reason=both_weak_btc_defensive</title></rect>
<rect x="1115.916237113402" y="540.6461621847129" width="6.917525773195877" height="1.8538378152870791" fill="#ea580c" opacity="0.85"><title>2026-01-19 | BTC buy 8.01 usd | reason=both_weak_btc_defensive</title></rect>
<rect x="1128.6245704467353" y="542.5" width="6.917525773195877" height="1.5" fill="#ea580c" opacity="0.85"><title>2026-01-26 | BTC buy 0.00 usd | reason=both_weak_btc_defensive</title></rect>
<rect x="1141.3329037800688" y="542.5" width="6.917525773195877" height="1.5" fill="#ea580c" opacity="0.85"><title>2026-02-02 | BTC buy 0.00 usd | reason=both_weak_btc_defensive</title></rect>
<rect x="1154.041237113402" y="542.5" width="6.917525773195877" height="1.5" fill="#ea580c" opacity="0.85"><title>2026-02-09 | BTC buy 0.00 usd | reason=both_weak_btc_defensive</title></rect>
<rect x="1166.7495704467353" y="542.5" width="6.917525773195877" height="1.5" fill="#ea580c" opacity="0.85"><title>2026-02-16 | BTC buy 0.00 usd | reason=both_weak_btc_defensive</title></rect>
<rect x="1179.4579037800688" y="542.5" width="6.917525773195877" height="1.5" fill="#ea580c" opacity="0.85"><title>2026-02-23 | BTC buy 0.00 usd | reason=both_weak_btc_defensive</title></rect>
<rect x="1192.166237113402" y="542.5" width="6.917525773195877" height="1.5" fill="#ea580c" opacity="0.85"><title>2026-03-02 | BTC buy 0.00 usd | reason=both_weak_btc_defensive</title></rect>
<rect x="1204.8745704467353" y="542.5" width="6.917525773195877" height="1.5" fill="#ea580c" opacity="0.85"><title>2026-03-09 | BTC buy 0.00 usd | reason=both_weak_btc_defensive</title></rect>
<rect x="1217.5829037800688" y="542.5" width="6.917525773195877" height="1.5" fill="#ea580c" opacity="0.85"><title>2026-03-16 | BTC buy 0.00 usd | reason=both_weak_btc_defensive</title></rect>
<rect x="1230.291237113402" y="542.5" width="6.917525773195877" height="1.5" fill="#ea580c" opacity="0.85"><title>2026-03-23 | BTC buy 0.00 usd | reason=both_weak_btc_defensive</title></rect>
<rect x="1242.9995704467353" y="542.5" width="6.917525773195877" height="1.5" fill="#ea580c" opacity="0.85"><title>2026-03-30 | BTC buy 0.00 usd | reason=both_weak_btc_defensive</title></rect>
<rect x="1255.7079037800688" y="542.5" width="6.917525773195877" height="1.5" fill="#ea580c" opacity="0.85"><title>2026-04-06 | BTC buy 0.00 usd | reason=both_weak_btc_defensive</title></rect>
<rect x="1268.416237113402" y="542.5" width="6.917525773195877" height="1.5" fill="#ea580c" opacity="0.85"><title>2026-04-13 | BTC buy 0.00 usd | reason=both_weak_btc_defensive</title></rect>
<rect x="1281.1245704467353" y="542.5" width="6.917525773195877" height="1.5" fill="#ea580c" opacity="0.85"><title>2026-04-20 | BTC buy 0.00 usd | reason=both_weak_btc_defensive</title></rect>
<rect x="1293.8329037800688" y="542.5" width="6.917525773195877" height="1.5" fill="#ea580c" opacity="0.85"><title>2026-04-27 | BTC buy 0.00 usd | reason=both_weak_btc_defensive</title></rect>
<rect x="1306.541237113402" y="542.5" width="6.917525773195877" height="1.5" fill="#ea580c" opacity="0.85"><title>2026-05-04 | BTC buy 0.00 usd | reason=both_weak_btc_defensive</title></rect>
<text x="24" y="542.5" transform="rotate(-90 24,542.5)" text-anchor="middle" font-family="monospace" font-size="14" fill="#0f172a">BTC weekly trade usd</text>
<line x1="90" y1="770" x2="1310" y2="770" stroke="#334155" stroke-width="2"/>
<line x1="90" y1="645" x2="90" y2="770" stroke="#334155" stroke-width="2"/>
<line x1="90" y1="707.5" x2="1310" y2="707.5" stroke="#64748b" stroke-width="1.5" stroke-dasharray="6 4"/>
<line x1="90" y1="770.0" x2="1310" y2="770.0" stroke="#e2e8f0" stroke-width="1"/>
<text x="78" y="774.0" text-anchor="end" font-family="monospace" font-size="11" fill="#475569">-450</text>
<line x1="90" y1="707.5" x2="1310" y2="707.5" stroke="#e2e8f0" stroke-width="1"/>
<text x="78" y="711.5" text-anchor="end" font-family="monospace" font-size="11" fill="#475569">0</text>
<line x1="90" y1="645.0" x2="1310" y2="645.0" stroke="#e2e8f0" stroke-width="1"/>
<text x="78" y="649.0" text-anchor="end" font-family="monospace" font-size="11" fill="#475569">450</text>
<rect x="86.54123711340206" y="691.875" width="6.917525773195877" height="15.625" fill="#2563eb" opacity="0.85"><title>2024-07-01 | ETH buy 112.50 usd | reason=balanced_regime</title></rect>
<rect x="99.24957044673539" y="682.5" width="6.917525773195877" height="25.0" fill="#2563eb" opacity="0.85"><title>2024-07-08 | ETH buy 180.00 usd | reason=both_weak_btc_defensive</title></rect>
<rect x="111.95790378006872" y="691.875" width="6.917525773195877" height="15.625" fill="#2563eb" opacity="0.85"><title>2024-07-15 | ETH buy 112.50 usd | reason=balanced_regime</title></rect>
<rect x="124.66623711340206" y="691.875" width="6.917525773195877" height="15.625" fill="#2563eb" opacity="0.85"><title>2024-07-22 | ETH buy 112.50 usd | reason=balanced_regime</title></rect>
<rect x="137.3745704467354" y="691.875" width="6.917525773195877" height="15.625" fill="#2563eb" opacity="0.85"><title>2024-07-29 | ETH buy 112.50 usd | reason=balanced_regime</title></rect>
<rect x="150.08290378006876" y="682.5" width="6.917525773195877" height="25.0" fill="#2563eb" opacity="0.85"><title>2024-08-05 | ETH buy 180.00 usd | reason=both_weak_btc_defensive</title></rect>
<rect x="162.79123711340208" y="682.5" width="6.917525773195877" height="25.0" fill="#2563eb" opacity="0.85"><title>2024-08-12 | ETH buy 180.00 usd | reason=both_weak_btc_defensive</title></rect>
<rect x="175.4995704467354" y="682.5" width="6.917525773195877" height="25.0" fill="#2563eb" opacity="0.85"><title>2024-08-19 | ETH buy 180.00 usd | reason=both_weak_btc_defensive</title></rect>
<rect x="188.2079037800687" y="682.5" width="6.917525773195877" height="25.0" fill="#2563eb" opacity="0.85"><title>2024-08-26 | ETH buy 180.00 usd | reason=both_weak_btc_defensive</title></rect>
<rect x="200.91623711340208" y="682.5" width="6.917525773195877" height="25.0" fill="#2563eb" opacity="0.85"><title>2024-09-02 | ETH buy 180.00 usd | reason=both_weak_btc_defensive</title></rect>
<rect x="213.6245704467354" y="682.5" width="6.917525773195877" height="25.0" fill="#2563eb" opacity="0.85"><title>2024-09-09 | ETH buy 180.00 usd | reason=both_weak_btc_defensive</title></rect>
<rect x="226.3329037800687" y="682.5" width="6.917525773195877" height="25.0" fill="#2563eb" opacity="0.85"><title>2024-09-16 | ETH buy 180.00 usd | reason=both_weak_btc_defensive</title></rect>
<rect x="239.04123711340208" y="682.5" width="6.917525773195877" height="25.0" fill="#2563eb" opacity="0.85"><title>2024-09-23 | ETH buy 180.00 usd | reason=both_weak_btc_defensive</title></rect>
<rect x="251.7495704467354" y="682.5" width="6.917525773195877" height="25.0" fill="#2563eb" opacity="0.85"><title>2024-09-30 | ETH buy 180.00 usd | reason=both_weak_btc_defensive</title></rect>
<rect x="264.45790378006876" y="682.5" width="6.917525773195877" height="25.0" fill="#2563eb" opacity="0.85"><title>2024-10-07 | ETH buy 180.00 usd | reason=both_weak_btc_defensive</title></rect>
<rect x="277.1662371134021" y="695.0" width="6.917525773195877" height="12.5" fill="#2563eb" opacity="0.85"><title>2024-10-14 | ETH buy 90.00 usd | reason=btc_defensive_regime</title></rect>
<rect x="289.8745704467354" y="695.0" width="6.917525773195877" height="12.5" fill="#2563eb" opacity="0.85"><title>2024-10-21 | ETH buy 90.00 usd | reason=btc_defensive_regime</title></rect>
<rect x="302.58290378006876" y="695.0" width="6.917525773195877" height="12.5" fill="#2563eb" opacity="0.85"><title>2024-10-28 | ETH buy 90.00 usd | reason=btc_defensive_regime</title></rect>
<rect x="315.2912371134021" y="695.0" width="6.917525773195877" height="12.5" fill="#2563eb" opacity="0.85"><title>2024-11-04 | ETH buy 90.00 usd | reason=btc_defensive_regime</title></rect>
<rect x="327.9995704467354" y="695.0" width="6.917525773195877" height="12.5" fill="#2563eb" opacity="0.85"><title>2024-11-11 | ETH buy 90.00 usd | reason=btc_defensive_regime</title></rect>
<rect x="340.70790378006876" y="695.0" width="6.917525773195877" height="12.5" fill="#2563eb" opacity="0.85"><title>2024-11-18 | ETH buy 90.00 usd | reason=btc_defensive_regime</title></rect>
<rect x="353.4162371134021" y="695.0" width="6.917525773195877" height="12.5" fill="#2563eb" opacity="0.85"><title>2024-11-25 | ETH buy 90.00 usd | reason=btc_defensive_regime</title></rect>
<rect x="366.1245704467354" y="695.0" width="6.917525773195877" height="12.5" fill="#2563eb" opacity="0.85"><title>2024-12-02 | ETH buy 90.00 usd | reason=btc_defensive_regime</title></rect>
<rect x="378.83290378006876" y="695.0" width="6.917525773195877" height="12.5" fill="#2563eb" opacity="0.85"><title>2024-12-09 | ETH buy 90.00 usd | reason=btc_defensive_regime</title></rect>
<rect x="391.5412371134021" y="695.0" width="6.917525773195877" height="12.5" fill="#2563eb" opacity="0.85"><title>2024-12-16 | ETH buy 90.00 usd | reason=btc_defensive_regime</title></rect>
<rect x="404.24957044673545" y="695.0" width="6.917525773195877" height="12.5" fill="#2563eb" opacity="0.85"><title>2024-12-23 | ETH buy 90.00 usd | reason=btc_defensive_regime</title></rect>
<rect x="416.9579037800687" y="695.0" width="6.917525773195877" height="12.5" fill="#2563eb" opacity="0.85"><title>2024-12-30 | ETH buy 90.00 usd | reason=btc_defensive_regime</title></rect>
<rect x="429.6662371134021" y="695.0" width="6.917525773195877" height="12.5" fill="#2563eb" opacity="0.85"><title>2025-01-06 | ETH buy 90.00 usd | reason=btc_defensive_regime</title></rect>
<rect x="442.37457044673545" y="695.0" width="6.917525773195877" height="12.5" fill="#2563eb" opacity="0.85"><title>2025-01-13 | ETH buy 90.00 usd | reason=btc_defensive_regime</title></rect>
<rect x="455.0829037800687" y="695.0" width="6.917525773195877" height="12.5" fill="#2563eb" opacity="0.85"><title>2025-01-20 | ETH buy 90.00 usd | reason=btc_defensive_regime</title></rect>
<rect x="467.7912371134021" y="695.0" width="6.917525773195877" height="12.5" fill="#2563eb" opacity="0.85"><title>2025-01-27 | ETH buy 90.00 usd | reason=btc_defensive_regime</title></rect>
<rect x="480.49957044673545" y="695.0" width="6.917525773195877" height="12.5" fill="#2563eb" opacity="0.85"><title>2025-02-03 | ETH buy 90.00 usd | reason=btc_defensive_regime</title></rect>
<rect x="493.2079037800687" y="695.0" width="6.917525773195877" height="12.5" fill="#2563eb" opacity="0.85"><title>2025-02-10 | ETH buy 90.00 usd | reason=btc_defensive_regime</title></rect>
<rect x="505.9162371134021" y="695.0" width="6.917525773195877" height="12.5" fill="#2563eb" opacity="0.85"><title>2025-02-17 | ETH buy 90.00 usd | reason=btc_defensive_regime</title></rect>
<rect x="518.6245704467354" y="695.0" width="6.917525773195877" height="12.5" fill="#2563eb" opacity="0.85"><title>2025-02-24 | ETH buy 90.00 usd | reason=btc_defensive_regime</title></rect>
<rect x="531.3329037800687" y="694.3058615788807" width="6.917525773195877" height="13.194138421119305" fill="#2563eb" opacity="0.85"><title>2025-03-03 | ETH buy 95.00 usd | reason=btc_defensive_regime</title></rect>
<rect x="544.0412371134021" y="645.0" width="6.917525773195877" height="62.5" fill="#2563eb" opacity="0.85"><title>2025-03-10 | ETH buy 450.00 usd | reason=both_weak_btc_defensive</title></rect>
<rect x="556.7495704467354" y="650.2750199459141" width="6.917525773195877" height="57.224980054085904" fill="#2563eb" opacity="0.85"><title>2025-03-17 | ETH buy 412.02 usd | reason=both_weak_btc_defensive</title></rect>
<rect x="569.4579037800687" y="683.3512831588409" width="6.917525773195877" height="24.148716841159057" fill="#2563eb" opacity="0.85"><title>2025-03-24 | ETH buy 173.87 usd | reason=btc_defensive_regime</title></rect>
<rect x="582.1662371134021" y="676.1356239837772" width="6.917525773195877" height="31.364376016222764" fill="#2563eb" opacity="0.85"><title>2025-03-31 | ETH buy 225.82 usd | reason=both_weak_btc_defensive</title></rect>
<rect x="594.8745704467354" y="670.6849650935454" width="6.917525773195877" height="36.81503490645457" fill="#2563eb" opacity="0.85"><title>2025-04-07 | ETH buy 265.07 usd | reason=both_weak_btc_defensive</title></rect>
<rect x="607.5829037800687" y="683.8810443520767" width="6.917525773195877" height="23.618955647923258" fill="#2563eb" opacity="0.85"><title>2025-04-14 | ETH buy 170.06 usd | reason=both_weak_btc_defensive</title></rect>
<rect x="620.2912371134021" y="684.6833152277335" width="6.917525773195877" height="22.816684772266512" fill="#2563eb" opacity="0.85"><title>2025-04-21 | ETH buy 164.28 usd | reason=both_weak_btc_defensive</title></rect>
<rect x="632.9995704467354" y="676.25" width="6.917525773195877" height="31.25" fill="#2563eb" opacity="0.85"><title>2025-04-28 | ETH buy 225.00 usd | reason=btc_defensive_regime</title></rect>
<rect x="645.7079037800687" y="684.9863925672805" width="6.917525773195877" height="22.513607432719482" fill="#2563eb" opacity="0.85"><title>2025-05-05 | ETH buy 162.10 usd | reason=btc_defensive_regime</title></rect>
<rect x="658.4162371134021" y="707.5" width="6.917525773195877" height="1.5" fill="#2563eb" opacity="0.85"><title>2025-05-12 | ETH buy 0.00 usd | reason=btc_defensive_regime</title></rect>
<rect x="671.1245704467354" y="707.5" width="6.917525773195877" height="1.5" fill="#2563eb" opacity="0.85"><title>2025-05-19 | ETH buy 0.00 usd | reason=btc_defensive_regime</title></rect>
<rect x="683.8329037800687" y="707.5" width="6.917525773195877" height="1.5" fill="#2563eb" opacity="0.85"><title>2025-05-26 | ETH buy 0.00 usd | reason=btc_defensive_regime</title></rect>
<rect x="696.5412371134021" y="707.5" width="6.917525773195877" height="1.5" fill="#2563eb" opacity="0.85"><title>2025-06-02 | ETH buy 0.00 usd | reason=btc_defensive_regime</title></rect>
<rect x="709.2495704467353" y="676.25" width="6.917525773195877" height="31.25" fill="#2563eb" opacity="0.85"><title>2025-06-09 | ETH buy 225.00 usd | reason=balanced_regime</title></rect>
<rect x="721.9579037800688" y="707.5" width="6.917525773195877" height="1.5" fill="#2563eb" opacity="0.85"><title>2025-06-16 | ETH buy 0.00 usd | reason=btc_defensive_regime</title></rect>
<rect x="734.6662371134021" y="707.5" width="6.917525773195877" height="1.5" fill="#2563eb" opacity="0.85"><title>2025-06-23 | ETH buy 0.00 usd | reason=btc_defensive_regime</title></rect>
<rect x="747.3745704467353" y="707.5" width="6.917525773195877" height="1.5" fill="#2563eb" opacity="0.85"><title>2025-06-30 | ETH buy 0.00 usd | reason=btc_defensive_regime</title></rect>
<rect x="760.0829037800688" y="707.5" width="6.917525773195877" height="1.5" fill="#2563eb" opacity="0.85"><title>2025-07-07 | ETH buy 0.00 usd | reason=btc_defensive_regime</title></rect>
<rect x="772.7912371134021" y="686.6219166713655" width="6.917525773195877" height="20.87808332863449" fill="#2563eb" opacity="0.85"><title>2025-07-14 | ETH buy 150.32 usd | reason=balanced_regime</title></rect>
<rect x="785.4995704467353" y="707.5" width="6.917525773195877" height="10.235137962500175" fill="#7c3aed" opacity="0.85"><title>2025-07-21 | ETH sell 73.69 usd | reason=balanced_regime</title></rect>
<rect x="798.2079037800688" y="707.5" width="6.917525773195877" height="9.550806647446393" fill="#7c3aed" opacity="0.85"><title>2025-07-28 | ETH sell 68.77 usd | reason=balanced_regime</title></rect>
<rect x="810.9162371134021" y="707.5" width="6.917525773195877" height="8.373421601612336" fill="#7c3aed" opacity="0.85"><title>2025-08-04 | ETH sell 60.29 usd | reason=balanced_regime</title></rect>
<rect x="823.6245704467353" y="707.5" width="6.917525773195877" height="17.67743105252623" fill="#7c3aed" opacity="0.85"><title>2025-08-11 | ETH sell 127.28 usd | reason=balanced_regime</title></rect>
<rect x="836.3329037800688" y="707.5" width="6.917525773195877" height="19.467799777663572" fill="#7c3aed" opacity="0.85"><title>2025-08-18 | ETH sell 140.17 usd | reason=balanced_regime</title></rect>
<rect x="849.0412371134021" y="707.5" width="6.917525773195877" height="21.614226077812532" fill="#7c3aed" opacity="0.85"><title>2025-08-25 | ETH sell 155.62 usd | reason=balanced_regime</title></rect>
<rect x="861.7495704467353" y="707.5" width="6.917525773195877" height="19.163214736799432" fill="#7c3aed" opacity="0.85"><title>2025-09-01 | ETH sell 137.98 usd | reason=balanced_regime</title></rect>
<rect x="874.4579037800688" y="707.5" width="6.917525773195877" height="16.24018052190047" fill="#7c3aed" opacity="0.85"><title>2025-09-08 | ETH sell 116.93 usd | reason=balanced_regime</title></rect>
<rect x="887.1662371134021" y="707.5" width="6.917525773195877" height="17.294520508664732" fill="#7c3aed" opacity="0.85"><title>2025-09-15 | ETH sell 124.52 usd | reason=balanced_regime</title></rect>
<rect x="899.8745704467353" y="707.5" width="6.917525773195877" height="6.748809882733212" fill="#7c3aed" opacity="0.85"><title>2025-09-22 | ETH sell 48.59 usd | reason=balanced_regime</title></rect>
<rect x="912.5829037800688" y="707.5" width="6.917525773195877" height="6.367043225703924" fill="#7c3aed" opacity="0.85"><title>2025-09-29 | ETH sell 45.84 usd | reason=balanced_regime</title></rect>
<rect x="925.2912371134021" y="707.5" width="6.917525773195877" height="7.691585610131597" fill="#7c3aed" opacity="0.85"><title>2025-10-06 | ETH sell 55.38 usd | reason=balanced_regime</title></rect>
<rect x="937.9995704467353" y="707.5" width="6.917525773195877" height="5.380660843039891" fill="#7c3aed" opacity="0.85"><title>2025-10-13 | ETH sell 38.74 usd | reason=balanced_regime</title></rect>
<rect x="950.7079037800688" y="707.5" width="6.917525773195877" height="1.5" fill="#2563eb" opacity="0.85"><title>2025-10-20 | ETH buy 0.00 usd | reason=balanced_regime</title></rect>
<rect x="963.4162371134021" y="707.5" width="6.917525773195877" height="4.585586357355282" fill="#7c3aed" opacity="0.85"><title>2025-10-27 | ETH sell 33.02 usd | reason=balanced_regime</title></rect>
<rect x="976.1245704467353" y="707.5" width="6.917525773195877" height="1.5" fill="#2563eb" opacity="0.85"><title>2025-11-03 | ETH buy 0.00 usd | reason=balanced_regime</title></rect>
<rect x="988.8329037800688" y="707.5" width="6.917525773195877" height="1.5" fill="#2563eb" opacity="0.85"><title>2025-11-10 | ETH buy 0.00 usd | reason=balanced_regime</title></rect>
<rect x="1001.5412371134021" y="707.5" width="6.917525773195877" height="1.5" fill="#2563eb" opacity="0.85"><title>2025-11-17 | ETH buy 0.00 usd | reason=both_weak_btc_defensive</title></rect>
<rect x="1014.2495704467353" y="707.5" width="6.917525773195877" height="1.5" fill="#2563eb" opacity="0.85"><title>2025-11-24 | ETH buy 0.00 usd | reason=both_weak_btc_defensive</title></rect>
<rect x="1026.9579037800688" y="707.5" width="6.917525773195877" height="1.5" fill="#2563eb" opacity="0.85"><title>2025-12-01 | ETH buy 0.00 usd | reason=both_weak_btc_defensive</title></rect>
<rect x="1039.666237113402" y="707.5" width="6.917525773195877" height="1.5" fill="#2563eb" opacity="0.85"><title>2025-12-08 | ETH buy 0.00 usd | reason=both_weak_btc_defensive</title></rect>
<rect x="1052.3745704467353" y="707.5" width="6.917525773195877" height="1.5" fill="#2563eb" opacity="0.85"><title>2025-12-15 | ETH buy 0.00 usd | reason=both_weak_btc_defensive</title></rect>
<rect x="1065.0829037800688" y="707.5" width="6.917525773195877" height="1.5" fill="#2563eb" opacity="0.85"><title>2025-12-22 | ETH buy 0.00 usd | reason=both_weak_btc_defensive</title></rect>
<rect x="1077.791237113402" y="707.5" width="6.917525773195877" height="1.5" fill="#2563eb" opacity="0.85"><title>2025-12-29 | ETH buy 0.00 usd | reason=both_weak_btc_defensive</title></rect>
<rect x="1090.4995704467353" y="707.5" width="6.917525773195877" height="1.5" fill="#2563eb" opacity="0.85"><title>2026-01-05 | ETH buy 0.00 usd | reason=both_weak_btc_defensive</title></rect>
<rect x="1103.2079037800688" y="707.5" width="6.917525773195877" height="1.5" fill="#2563eb" opacity="0.85"><title>2026-01-12 | ETH buy 0.00 usd | reason=both_weak_btc_defensive</title></rect>
<rect x="1115.916237113402" y="707.5" width="6.917525773195877" height="1.5" fill="#2563eb" opacity="0.85"><title>2026-01-19 | ETH buy 0.00 usd | reason=both_weak_btc_defensive</title></rect>
<rect x="1128.6245704467353" y="707.5" width="6.917525773195877" height="1.5" fill="#2563eb" opacity="0.85"><title>2026-01-26 | ETH buy 0.00 usd | reason=both_weak_btc_defensive</title></rect>
<rect x="1141.3329037800688" y="707.5" width="6.917525773195877" height="1.5" fill="#2563eb" opacity="0.85"><title>2026-02-02 | ETH buy 0.00 usd | reason=both_weak_btc_defensive</title></rect>
<rect x="1154.041237113402" y="707.5" width="6.917525773195877" height="1.5" fill="#2563eb" opacity="0.85"><title>2026-02-09 | ETH buy 0.00 usd | reason=both_weak_btc_defensive</title></rect>
<rect x="1166.7495704467353" y="707.5" width="6.917525773195877" height="1.5" fill="#2563eb" opacity="0.85"><title>2026-02-16 | ETH buy 0.00 usd | reason=both_weak_btc_defensive</title></rect>
<rect x="1179.4579037800688" y="707.5" width="6.917525773195877" height="1.5" fill="#2563eb" opacity="0.85"><title>2026-02-23 | ETH buy 0.00 usd | reason=both_weak_btc_defensive</title></rect>
<rect x="1192.166237113402" y="707.5" width="6.917525773195877" height="1.5" fill="#2563eb" opacity="0.85"><title>2026-03-02 | ETH buy 0.00 usd | reason=both_weak_btc_defensive</title></rect>
<rect x="1204.8745704467353" y="707.5" width="6.917525773195877" height="1.5" fill="#2563eb" opacity="0.85"><title>2026-03-09 | ETH buy 0.00 usd | reason=both_weak_btc_defensive</title></rect>
<rect x="1217.5829037800688" y="707.5" width="6.917525773195877" height="1.5" fill="#2563eb" opacity="0.85"><title>2026-03-16 | ETH buy 0.00 usd | reason=both_weak_btc_defensive</title></rect>
<rect x="1230.291237113402" y="707.5" width="6.917525773195877" height="1.5" fill="#2563eb" opacity="0.85"><title>2026-03-23 | ETH buy 0.00 usd | reason=both_weak_btc_defensive</title></rect>
<rect x="1242.9995704467353" y="707.5" width="6.917525773195877" height="1.5" fill="#2563eb" opacity="0.85"><title>2026-03-30 | ETH buy 0.00 usd | reason=both_weak_btc_defensive</title></rect>
<rect x="1255.7079037800688" y="707.5" width="6.917525773195877" height="1.5" fill="#2563eb" opacity="0.85"><title>2026-04-06 | ETH buy 0.00 usd | reason=both_weak_btc_defensive</title></rect>
<rect x="1268.416237113402" y="707.5" width="6.917525773195877" height="1.5" fill="#2563eb" opacity="0.85"><title>2026-04-13 | ETH buy 0.00 usd | reason=both_weak_btc_defensive</title></rect>
<rect x="1281.1245704467353" y="707.5" width="6.917525773195877" height="1.5" fill="#2563eb" opacity="0.85"><title>2026-04-20 | ETH buy 0.00 usd | reason=both_weak_btc_defensive</title></rect>
<rect x="1293.8329037800688" y="707.5" width="6.917525773195877" height="1.5" fill="#2563eb" opacity="0.85"><title>2026-04-27 | ETH buy 0.00 usd | reason=both_weak_btc_defensive</title></rect>
<rect x="1306.541237113402" y="707.5" width="6.917525773195877" height="1.5" fill="#2563eb" opacity="0.85"><title>2026-05-04 | ETH buy 0.00 usd | reason=both_weak_btc_defensive</title></rect>
<text x="24" y="707.5" transform="rotate(-90 24,707.5)" text-anchor="middle" font-family="monospace" font-size="14" fill="#0f172a">ETH weekly trade usd</text>
<rect x="1040" y="478" width="14" height="10" fill="#ea580c" opacity="0.85"/>
<text x="1062" y="488" font-family="monospace" font-size="11" fill="#0f172a">BTC buy</text>
<rect x="1190" y="478" width="14" height="10" fill="#dc2626" opacity="0.85"/>
<text x="1212" y="488" font-family="monospace" font-size="11" fill="#0f172a">BTC sell</text>
<rect x="1040" y="498" width="14" height="10" fill="#2563eb" opacity="0.85"/>
<text x="1062" y="508" font-family="monospace" font-size="11" fill="#0f172a">ETH buy</text>
<rect x="1190" y="498" width="14" height="10" fill="#7c3aed" opacity="0.85"/>
<text x="1212" y="508" font-family="monospace" font-size="11" fill="#0f172a">ETH sell</text>
</svg>