<svg xmlns="http://www.w3.org/2000/svg" width="1400" height="800">
<rect width="1400" height="800" fill="#f8fafc"/>
<text x="700.0" y="42" text-anchor="middle" font-family="monospace" font-size="24" fill="#0f172a">budgeted_static_50_50_rebalance | weekly | start=2024-07-01 | return=4.46%</text>
<line x1="90" y1="420" x2="1310" y2="420" stroke="#334155" stroke-width="2"/>
<line x1="90" y1="90" x2="90" y2="420" stroke="#334155" stroke-width="2"/>
<line x1="90.0" y1="420" x2="90.0" y2="90" stroke="#94a3b8" stroke-width="1.2"/>
<line x1="90.0" y1="605" x2="90.0" y2="480" stroke="#94a3b8" stroke-width="1.2"/>
<line x1="90.0" y1="770" x2="90.0" y2="645" stroke="#94a3b8" stroke-width="1.2"/>
<text x="90.0" y="788" text-anchor="middle" font-family="monospace" font-size="11" fill="#334155">2024-07</text>
<line x1="153.54166666666669" y1="420" x2="153.54166666666669" y2="90" stroke="#94a3b8" stroke-width="1.2"/>
<line x1="153.54166666666669" y1="605" x2="153.54166666666669" y2="480" stroke="#94a3b8" stroke-width="1.2"/>
<line x1="153.54166666666669" y1="770" x2="153.54166666666669" y2="645" stroke="#94a3b8" stroke-width="1.2"/>
<text x="153.54166666666669" y="788" text-anchor="middle" font-family="monospace" font-size="11" fill="#334155">2024-08</text>
<line x1="204.375" y1="420" x2="204.375" y2="90" stroke="#94a3b8" stroke-width="1.2"/>
<line x1="204.375" y1="605" x2="204.375" y2="480" stroke="#94a3b8" stroke-width="1.2"/>
<line x1="204.375" y1="770" x2="204.375" y2="645" stroke="#94a3b8" stroke-width="1.2"/>
<text x="204.375" y="788" text-anchor="middle" font-family="monospace" font-size="11" fill="#334155">2024-09</text>
<line x1="267.9166666666667" y1="420" x2="267.9166666666667" y2="90" stroke="#94a3b8" stroke-width="1.2"/>
<line x1="267.9166666666667" y1="605" x2="267.9166666666667" y2="480" stroke="#94a3b8" stroke-width="1.2"/>
<line x1="267.9166666666667" y1="770" x2="267.9166666666667" y2="645" stroke="#94a3b8" stroke-width="1.2"/>
<text x="267.9166666666667" y="788" text-anchor="middle" font-family="monospace" font-size="11" fill="#334155">2024-10</text>
<line x1="318.75" y1="420" x2="318.75" y2="90" stroke="#94a3b8" stroke-width="1.2"/>
<line x1="318.75" y1="605" x2="318.75" y2="480" stroke="#94a3b8" stroke-width="1.2"/>
<line x1="318.75" y1="770" x2="318.75" y2="645" stroke="#94a3b8" stroke-width="1.2"/>
<text x="318.75" y="788" text-anchor="middle" font-family="monospace" font-size="11" fill="#334155">2024-11</text>
<line x1="369.5833333333333" y1="420" x2="369.5833333333333" y2="90" stroke="#94a3b8" stroke-width="1.2"/>
<line x1="369.5833333333333" y1="605" x2="369.5833333333333" y2="480" stroke="#94a3b8" stroke-width="1.2"/>
<line x1="369.5833333333333" y1="770" x2="369.5833333333333" y2="645" stroke="#94a3b8" stroke-width="1.2"/>
<text x="369.5833333333333" y="788" text-anchor="middle" font-family="monospace" font-size="11" fill="#334155">2024-12</text>
<line x1="433.125" y1="420" x2="433.125" y2="90" stroke="#94a3b8" stroke-width="1.2"/>
<line x1="433.125" y1="605" x2="433.125" y2="480" stroke="#94a3b8" stroke-width="1.2"/>
<line x1="433.125" y1="770" x2="433.125" y2="645" stroke="#94a3b8" stroke-width="1.2"/>
<text x="433.125" y="788" text-anchor="middle" font-family="monospace" font-size="11" fill="#334155">2025-01</text>
<line x1="483.95833333333337" y1="420" x2="483.95833333333337" y2="90" stroke="#94a3b8" stroke-width="1.2"/>
<line x1="483.95833333333337" y1="605" x2="483.95833333333337" y2="480" stroke="#94a3b8" stroke-width="1.2"/>
<line x1="483.95833333333337" y1="770" x2="483.95833333333337" y2="645" stroke="#94a3b8" stroke-width="1.2"/>
<text x="483.95833333333337" y="788" text-anchor="middle" font-family="monospace" font-size="11" fill="#334155">2025-02</text>
<line x1="534.7916666666666" y1="420" x2="534.7916666666666" y2="90" stroke="#94a3b8" stroke-width="1.2"/>
<line x1="534.7916666666666" y1="605" x2="534.7916666666666" y2="480" stroke="#94a3b8" stroke-width="1.2"/>
<line x1="534.7916666666666" y1="770" x2="534.7916666666666" y2="645" stroke="#94a3b8" stroke-width="1.2"/>
<text x="534.7916666666666" y="788" text-anchor="middle" font-family="monospace" font-size="11" fill="#334155">2025-03</text>
<line x1="598.3333333333334" y1="420" x2="598.3333333333334" y2="90" stroke="#94a3b8" stroke-width="1.2"/>
<line x1="598.3333333333334" y1="605" x2="598.3333333333334" y2="480" stroke="#94a3b8" stroke-width="1.2"/>
<line x1="598.3333333333334" y1="770" x2="598.3333333333334" y2="645" stroke="#94a3b8" stroke-width="1.2"/>
<text x="598.3333333333334" y="788" text-anchor="middle" font-family="monospace" font-size="11" fill="#334155">2025-04</text>
<line x1="649.1666666666666" y1="420" x2="649.1666666666666" y2="90" stroke="#94a3b8" stroke-width="1.2"/>
<line x1="649.1666666666666" y1="605" x2="649.1666666666666" y2="480" stroke="#94a3b8" stroke-width="1.2"/>
<line x1="649.1666666666666" y1="770" x2="649.1666666666666" y2="645" stroke="#94a3b8" stroke-width="1.2"/>
<text x="649.1666666666666" y="788" text-anchor="middle" font-family="monospace" font-size="11" fill="#334155">2025-05</text>
<line x1="700.0" y1="420" x2="700.0" y2="90" stroke="#94a3b8" stroke-width="1.2"/>
<line x1="700.0" y1="605" x2="700.0" y2="480" stroke="#94a3b8" stroke-width="1.2"/>
<line x1="700.0" y1="770" x2="700.0" y2="645" stroke="#94a3b8" stroke-width="1.2"/>
<text x="700.0" y="788" text-anchor="middle" font-family="monospace" font-size="11" fill="#334155">2025-06</text>
<line x1="763.5416666666667" y1="420" x2="763.5416666666667" y2="90" stroke="#94a3b8" stroke-width="1.2"/>
<line x1="763.5416666666667" y1="605" x2="763.5416666666667" y2="480" stroke="#94a3b8" stroke-width="1.2"/>
<line x1="763.5416666666667" y1="770" x2="763.5416666666667" y2="645" stroke="#94a3b8" stroke-width="1.2"/>
<text x="763.5416666666667" y="788" text-anchor="middle" font-family="monospace" font-size="11" fill="#334155">2025-07</text>
<line x1="814.375" y1="420" x2="814.375" y2="90" stroke="#94a3b8" stroke-width="1.2"/>
<line x1="814.375" y1="605" x2="814.375" y2="480" stroke="#94a3b8" stroke-width="1.2"/>
<line x1="814.375" y1="770" x2="814.375" y2="645" stroke="#94a3b8" stroke-width="1.2"/>
<text x="814.375" y="788" text-anchor="middle" font-family="monospace" font-size="11" fill="#334155">2025-08</text>
<line x1="865.2083333333333" y1="420" x2="865.2083333333333" y2="90" stroke="#94a3b8" stroke-width="1.2"/>
<line x1="865.2083333333333" y1="605" x2="865.2083333333333" y2="480" stroke="#94a3b8" stroke-width="1.2"/>
<line x1="865.2083333333333" y1="770" x2="865.2083333333333" y2="645" stroke="#94a3b8" stroke-width="1.2"/>
<text x="865.2083333333333" y="788" text-anchor="middle" font-family="monospace" font-size="11" fill="#334155">2025-09</text>
<line x1="928.75" y1="420" x2="928.75" y2="90" stroke="#94a3b8" stroke-width="1.2"/>
<line x1="928.75" y1="605" x2="928.75" y2="480" stroke="#94a3b8" stroke-width="1.2"/>
<line x1="928.75" y1="770" x2="928.75" y2="645" stroke="#94a3b8" stroke-width="1.2"/>
<text x="928.75" y="788" text-anchor="middle" font-family="monospace" font-size="11" fill="#334155">2025-10</text>
<line x1="979.5833333333333" y1="420" x2="979.5833333333333" y2="90" stroke="#94a3b8" stroke-width="1.2"/>
<line x1="979.5833333333333" y1="605" x2="979.5833333333333" y2="480" stroke="#94a3b8" stroke-width="1.2"/>
<line x1="979.5833333333333" y1="770" x2="979.5833333333333" y2="645" stroke="#94a3b8" stroke-width="1.2"/>
<text x="979.5833333333333" y="788" text-anchor="middle" font-family="monospace" font-size="11" fill="#334155">2025-11</text>
<line x1="1030.4166666666667" y1="420" x2="1030.4166666666667" y2="90" stroke="#94a3b8" stroke-width="1.2"/>
<line x1="1030.4166666666667" y1="605" x2="1030.4166666666667" y2="480" stroke="#94a3b8" stroke-width="1.2"/>
<line x1="1030.4166666666667" y1="770" x2="1030.4166666666667" y2="645" stroke="#94a3b8" stroke-width="1.2"/>
<text x="1030.4166666666667" y="788" text-anchor="middle" font-family="monospace" font-size="11" fill="#334155">2025-12</text>
<line x1="1093.9583333333333" y1="420" x2="1093.9583333333333" y2="90" stroke="#94a3b8" stroke-width="1.2"/>
<line x1="1093.9583333333333" y1="605" x2="1093.9583333333333" y2="480" stroke="#94a3b8" stroke-width="1.2"/>
<line x1="1093.9583333333333" y1="770" x2="1093.9583333333333" y2="645" stroke="#94a3b8" stroke-width="1.2"/>
<text x="1093.9583333333333" y="788" text-anchor="middle" font-family="monospace" font-size="11" fill="#334155">2026-01</text>
<line x1="1144.7916666666667" y1="420" x2="1144.7916666666667" y2="90" stroke="#94a3b8" stroke-width="1.2"/>
<line x1="1144.7916666666667" y1="605" x2="1144.7916666666667" y2="480" stroke="#94a3b8" stroke-width="1.2"/>
<line x1="1144.7916666666667" y1="770" x2="1144.7916666666667" y2="645" stroke="#94a3b8" stroke-width="1.2"/>
<text x="1144.7916666666667" y="788" text-anchor="middle" font-family="monospace" font-size="11" fill="#334155">2026-02</text>
<line x1="1195.625" y1="420" x2="1195.625" y2="90" stroke="#94a3b8" stroke-width="1.2"/>
<line x1="1195.625" y1="605" x2="1195.625" y2="480" stroke="#94a3b8" stroke-width="1.2"/>
<line x1="1195.625" y1="770" x2="1195.625" y2="645" stroke="#94a3b8" stroke-width="1.2"/>
<text x="1195.625" y="788" text-anchor="middle" font-family="monospace" font-size="11" fill="#334155">2026-03</text>
<line x1="1259.1666666666667" y1="420" x2="1259.1666666666667" y2="90" stroke="#94a3b8" stroke-width="1.2"/>
<line x1="1259.1666666666667" y1="605" x2="1259.1666666666667" y2="480" stroke="#94a3b8" stroke-width="1.2"/>
<line x1="1259.1666666666667" y1="770" x2="1259.1666666666667" y2="645" stroke="#94a3b8" stroke-width="1.2"/>
<text x="1259.1666666666667" y="788" text-anchor="middle" font-family="monospace" font-size="11" fill="#334155">2026-04</text>
<line x1="1310.0" y1="420" x2="1310.0" y2="90" stroke="#94a3b8" stroke-width="1.2"/>
<line x1="1310.0" y1="605" x2="1310.0" y2="480" stroke="#94a3b8" stroke-width="1.2"/>
<line x1="1310.0" y1="770" x2="1310.0" y2="645" stroke="#94a3b8" stroke-width="1.2"/>
<text x="1310.0" y="788" text-anchor="middle" font-family="monospace" font-size="11" fill="#334155">2026-05</text>
<line x1="90" y1="420.0" x2="1310" y2="420.0" stroke="#cbd5e1" stroke-width="1"/>
<text x="78" y="424.0" text-anchor="end" font-family="monospace" font-size="12" fill="#475569">0</text>
<line x1="90" y1="354.0" x2="1310" y2="354.0" stroke="#cbd5e1" stroke-width="1"/>
<text x="78" y="358.0" text-anchor="end" font-family="monospace" font-size="12" fill="#475569">4880</text>
<line x1="90" y1="288.0" x2="1310" y2="288.0" stroke="#cbd5e1" stroke-width="1"/>
<text x="78" y="292.0" text-anchor="end" font-family="monospace" font-size="12" fill="#475569">9761</text>
<line x1="90" y1="222.0" x2="1310" y2="222.0" stroke="#cbd5e1" stroke-width="1"/>
<text x="78" y="226.0" text-anchor="end" font-family="monospace" font-size="12" fill="#475569">14641</text>
<line x1="90" y1="156.0" x2="1310" y2="156.0" stroke="#cbd5e1" stroke-width="1"/>
<text x="78" y="160.0" text-anchor="end" font-family="monospace" font-size="12" fill="#475569">19522</text>
<line x1="90" y1="90.0" x2="1310" y2="90.0" stroke="#cbd5e1" stroke-width="1"/>
<text x="78" y="94.0" text-anchor="end" font-family="monospace" font-size="12" fill="#475569">24402</text>
<polygon points="90.0,221.20473448061054 102.70833333333333,225.26178071570016 115.41666666666666,229.3188269507897 128.125,233.3758731858793 140.83333333333331,237.43291942096886 153.54166666666669,241.48996565605844 166.25,245.547011891148 178.95833333333334,249.60405812623762 191.66666666666666,253.6611043613272 204.375,257.71815059641676 217.08333333333334,261.7751968315064 229.79166666666666,265.83224306659594 242.5,269.8892893016855 255.20833333333331,273.9463355367751 267.9166666666667,278.00338177186467 280.625,282.0604280069542 293.3333333333333,286.11747424204384 306.0416666666667,290.1745204771334 318.75,294.231566712223 331.4583333333333,298.2886129473126 344.1666666666667,302.3456591824022 356.875,306.40270541749175 369.5833333333333,310.4597516525813 382.2916666666667,314.5167978876709 395.0,318.5738441227605 407.70833333333337,322.6308903578501 420.41666666666663,326.68793659293965 433.125,330.7449828280292 445.83333333333337,334.8020290631188 458.54166666666663,338.8590752982084 471.25,342.916121533298 483.95833333333337,346.97316776838755 496.66666666666663,351.0302140034771 509.375,355.0872602385667 522.0833333333334,359.1443064736563 534.7916666666666,363.15074382248326 547.5,367.2077900575729 560.2083333333334,370.9361631402817 572.9166666666666,374.7347223838575 585.625,378.4363669082886 598.3333333333334,381.8394572038607 611.0416666666666,384.83537610605237 623.75,386.7219878338407 636.4583333333334,385.7705085357491 649.1666666666666,384.96488288639887 661.875,384.33564603921576 674.5833333333334,382.734618337977 687.2916666666666,380.9009823998582 700.0,380.12866412398466 712.7083333333333,378.5601135232129 725.4166666666667,377.55941160320367 738.125,376.9580176210823 750.8333333333333,376.3086410699574 763.5416666666667,375.66325446940095 776.25,374.4574728595238 788.9583333333333,373.9906700411658 801.6666666666667,374.219304003333 814.375,374.03966226316834 827.0833333333333,373.8003464741569 839.7916666666667,373.1934525436185 852.5,373.28522985297775 865.2083333333333,372.102298275482 877.9166666666667,369.81430183370315 890.625,367.72331803339694 903.3333333333333,366.28226259782997 916.0416666666667,365.0159570331922 928.75,363.08816455238355 941.4583333333333,362.3119848876492 954.1666666666667,362.12199528604856 966.875,361.6888878614743 979.5833333333333,363.68330219967237 992.2916666666667,364.7559721600444 1005.0,367.8255369043928 1017.7083333333333,370.0051897407666 1030.4166666666667,371.8010488374436 1043.125,372.08343860935764 1055.8333333333333,372.6248830993491 1068.5416666666667,372.4702601836483 1081.25,372.5211758728857 1093.9583333333333,371.93572834128383 1106.6666666666667,371.70517401274986 1119.375,371.3767760662941 1132.0833333333333,372.0091597378604 1144.7916666666667,375.635506780655 1157.5,378.6433489064534 1170.2083333333333,380.74022112461654 1182.9166666666667,382.6812616707507 1195.625,382.6536905737425 1208.3333333333333,382.7822850158873 1221.0416666666667,382.37474109709734 1233.75,382.1901809211556 1246.4583333333333,382.61452172129634 1259.1666666666667,382.5643967648185 1271.875,381.96918567956186 1284.5833333333333,381.4026221357268 1297.2916666666667,380.8915831860797 1310.0,380.31900769029903 1310.0,420.0 1297.2916666666667,420.0 1284.5833333333333,420.0 1271.875,420.0 1259.1666666666667,420.0 1246.4583333333333,420.0 1233.75,420.0 1221.0416666666667,420.0 1208.3333333333333,420.0 1195.625,420.0 1182.9166666666667,420.0 1170.2083333333333,420.0 1157.5,420.0 1144.7916666666667,420.0 1132.0833333333333,420.0 1119.375,420.0 1106.6666666666667,420.0 1093.9583333333333,420.0 1081.25,420.0 1068.5416666666667,420.0 1055.8333333333333,420.0 1043.125,420.0 1030.4166666666667,420.0 1017.7083333333333,420.0 1005.0,420.0 992.2916666666667,420.0 979.5833333333333,420.0 966.875,420.0 954.1666666666667,420.0 941.4583333333333,420.0 928.75,420.0 916.0416666666667,420.0 903.3333333333333,420.0 890.625,420.0 877.9166666666667,420.0 865.2083333333333,420.0 852.5,420.0 839.7916666666667,420.0 827.0833333333333,420.0 814.375,420.0 801.6666666666667,420.0 788.9583333333333,420.0 776.25,420.0 763.5416666666667,420.0 750.8333333333333,420.0 738.125,420.0 725.4166666666667,420.0 712.7083333333333,420.0 700.0,420.0 687.2916666666666,420.0 674.5833333333334,420.0 661.875,420.0 649.1666666666666,420.0 636.4583333333334,420.0 623.75,420.0 611.0416666666666,420.0 598.3333333333334,420.0 585.625,420.0 572.9166666666666,420.0 560.2083333333334,420.0 547.5,420.0 534.7916666666666,420.0 522.0833333333334,420.0 509.375,420.0 496.66666666666663,420.0 483.95833333333337,420.0 471.25,420.0 458.54166666666663,420.0 445.83333333333337,420.0 433.125,420.0 420.41666666666663,420.0 407.70833333333337,420.0 395.0,420.0 382.2916666666667,420.0 369.5833333333333,420.0 356.875,420.0 344.1666666666667,420.0 331.4583333333333,420.0 318.75,420.0 306.0416666666667,420.0 293.3333333333333,420.0 280.625,420.0 267.9166666666667,420.0 255.20833333333331,420.0 242.5,420.0 229.79166666666666,420.0 217.08333333333334,420.0 204.375,420.0 191.66666666666666,420.0 178.95833333333334,420.0 166.25,420.0 153.54166666666669,420.0 140.83333333333331,420.0 128.125,420.0 115.41666666666666,420.0 102.70833333333333,420.0 90.0,420.0" fill="#facc15" fill-opacity="0.70" stroke="#facc15" stroke-width="1.2"/>
<polygon points="90.0,219.17621136306576 102.70833333333333,221.45256944986005 115.41666666666666,222.89126349663385 128.125,225.00233760312616 140.83333333333331,227.33150595656912 153.54166666666669,232.09179984832684 166.25,232.9452270431847 178.95833333333334,235.3710557902549 191.66666666666666,237.16415674300222 204.375,240.07242845200236 217.08333333333334,243.33659225276764 229.79166666666666,245.87207738510605 242.5,244.84371340356168 255.20833333333331,247.30232411048868 267.9166666666667,251.17033256098495 280.625,250.9045595000071 293.3333333333333,252.49918031225 306.0416666666667,255.78510216611878 318.75,260.0742986746568 331.4583333333333,248.15519942682445 344.1666666666667,252.65743904547645 356.875,251.50404944296253 369.5833333333333,249.83806433056554 382.2916666666667,250.7180335892797 395.0,248.03874848436257 407.70833333333337,260.1405804252986 420.41666666666663,263.3110016501032 433.125,259.04878330672534 445.83333333333337,271.8190831901695 458.54166666666663,270.949179370779 471.25,275.0162000654406 483.95833333333337,282.5760443208475 496.66666666666663,288.1990333199479 509.375,287.42572531537843 522.0833333333334,293.7175389417299 534.7916666666666,303.1898457252027 547.5,311.47667603816535 560.2083333333334,309.2896214256605 572.9166666666666,304.0598043108266 585.625,312.51797183114115 598.3333333333334,321.61015423722324 611.0416666666666,317.98368343782937 623.75,318.7073467463558 636.4583333333334,308.2963195935125 649.1666666666666,306.96673873775694 661.875,279.9976369900295 674.5833333333334,279.15095604984214 687.2916666666666,277.2311790406769 700.0,276.4821677241914 712.7083333333333,273.5593647632904 725.4166666666667,278.70571556913137 738.125,283.5421468098209 750.8333333333333,280.3855600884052 763.5416666666667,278.0390959593901 776.25,260.3968603205425 788.9583333333333,236.1057089505475 801.6666666666667,238.85451952690684 814.375,244.53998631611347 827.0833333333333,230.89327510499874 839.7916666666667,231.10394140594573 852.5,233.036612378869 865.2083333333333,236.89912750511692 877.9166666666667,237.1313673651555 890.625,230.63551375570546 903.3333333333333,239.67537495309065 916.0416666666667,238.5954367129233 928.75,223.57022718385255 941.4583333333333,236.33834612826234 954.1666666666667,244.08633951150918 966.875,239.72770521511595 979.5833333333333,254.67070736319903 992.2916666666667,255.45599507680438 1005.0,272.3237178256719 1017.7083333333333,275.62663074228163 1030.4166666666667,280.67459158278757 1043.125,270.8144661430895 1055.8333333333333,276.7407341146454 1068.5416666666667,275.28224029668354 1081.25,277.64638747591886 1093.9583333333333,267.9444013843935 1106.6666666666667,272.1255670086151 1119.375,269.0809643754816 1132.0833333333333,277.3581253552247 1144.7916666666667,295.87351223715257 1157.5,304.5167561715351 1170.2083333333333,308.2266802853273 1182.9166666666667,313.6201731517053 1195.625,307.2463255706754 1208.3333333333333,308.4832305935256 1221.0416666666667,295.5514126302259 1233.75,303.05162136215245 1246.4583333333333,308.19217178847043 1259.1666666666667,305.2885401475404 1271.875,295.78870178172747 1284.5833333333333,297.5229685911973 1297.2916666666667,297.6397975432368 1310.0,295.5265607735337 1310.0,380.31900769029903 1297.2916666666667,380.8915831860797 1284.5833333333333,381.4026221357268 1271.875,381.96918567956186 1259.1666666666667,382.5643967648185 1246.4583333333333,382.61452172129634 1233.75,382.1901809211556 1221.0416666666667,382.37474109709734 1208.3333333333333,382.7822850158873 1195.625,382.6536905737425 1182.9166666666667,382.6812616707507 1170.2083333333333,380.74022112461654 1157.5,378.6433489064534 1144.7916666666667,375.635506780655 1132.0833333333333,372.0091597378604 1119.375,371.3767760662941 1106.6666666666667,371.70517401274986 1093.9583333333333,371.93572834128383 1081.25,372.5211758728857 1068.5416666666667,372.4702601836483 1055.8333333333333,372.6248830993491 1043.125,372.08343860935764 1030.4166666666667,371.8010488374436 1017.7083333333333,370.0051897407666 1005.0,367.8255369043928 992.2916666666667,364.7559721600444 979.5833333333333,363.68330219967237 966.875,361.6888878614743 954.1666666666667,362.12199528604856 941.4583333333333,362.3119848876492 928.75,363.08816455238355 916.0416666666667,365.0159570331922 903.3333333333333,366.28226259782997 890.625,367.72331803339694 877.9166666666667,369.81430183370315 865.2083333333333,372.102298275482 852.5,373.28522985297775 839.7916666666667,373.1934525436185 827.0833333333333,373.8003464741569 814.375,374.03966226316834 801.6666666666667,374.219304003333 788.9583333333333,373.9906700411658 776.25,374.4574728595238 763.5416666666667,375.66325446940095 750.8333333333333,376.3086410699574 738.125,376.9580176210823 725.4166666666667,377.55941160320367 712.7083333333333,378.5601135232129 700.0,380.12866412398466 687.2916666666666,380.9009823998582 674.5833333333334,382.734618337977 661.875,384.33564603921576 649.1666666666666,384.96488288639887 636.4583333333334,385.7705085357491 623.75,386.7219878338407 611.0416666666666,384.83537610605237 598.3333333333334,381.8394572038607 585.625,378.4363669082886 572.9166666666666,374.7347223838575 560.2083333333334,370.9361631402817 547.5,367.2077900575729 534.7916666666666,363.15074382248326 522.0833333333334,359.1443064736563 509.375,355.0872602385667 496.66666666666663,351.0302140034771 483.95833333333337,346.97316776838755 471.25,342.916121533298 458.54166666666663,338.8590752982084 445.83333333333337,334.8020290631188 433.125,330.7449828280292 420.41666666666663,326.68793659293965 407.70833333333337,322.6308903578501 395.0,318.5738441227605 382.2916666666667,314.5167978876709 369.5833333333333,310.4597516525813 356.875,306.40270541749175 344.1666666666667,302.3456591824022 331.4583333333333,298.2886129473126 318.75,294.231566712223 306.0416666666667,290.1745204771334 293.3333333333333,286.11747424204384 280.625,282.0604280069542 267.9166666666667,278.00338177186467 255.20833333333331,273.9463355367751 242.5,269.8892893016855 229.79166666666666,265.83224306659594 217.08333333333334,261.7751968315064 204.375,257.71815059641676 191.66666666666666,253.6611043613272 178.95833333333334,249.60405812623762 166.25,245.547011891148 153.54166666666669,241.48996565605844 140.83333333333331,237.43291942096886 128.125,233.3758731858793 115.41666666666666,229.3188269507897 102.70833333333333,225.26178071570016 90.0,221.20473448061054" fill="#2563eb" fill-opacity="0.70" stroke="#2563eb" stroke-width="1.2"/>
<polygon points="90.0,217.14768824552095 102.70833333333333,217.59345797436325 115.41666666666666,216.45519872873058 128.125,216.25935882501417 140.83333333333331,216.6618231054824 153.54166666666669,221.4297428607926 166.25,219.20289672184856 178.95833333333334,219.5784655940843 191.66666666666666,218.44325685032925 204.375,220.42533695285832 217.08333333333334,222.3539532089002 229.79166666666666,222.43619753218087 242.5,217.3138327179528 255.20833333333331,217.76027162701274 267.9166666666667,220.11356851222794 280.625,215.8892828858902 293.3333333333333,214.77670623613884 306.0416666666667,214.58989856965968 318.75,218.0977896013622 331.4583333333333,191.17277810678067 344.1666666666667,192.5234359728073 356.875,187.69421443075694 369.5833333333333,182.03540640708675 382.2916666666667,179.85285428603507 395.0,168.7556994171633 407.70833333333337,187.29927017541536 420.41666666666663,190.0890506025975 433.125,176.16255620280677 445.83333333333337,193.20346324164845 458.54166666666663,183.95051607382572 471.25,186.05971440613322 483.95833333333337,192.95030708006576 496.66666666666663,201.44981994574076 509.375,200.98897770785797 522.0833333333334,210.5328797532565 534.7916666666666,224.9187682927985 547.5,239.7507560348304 560.2083333333334,232.9002704645374 572.9166666666666,224.73537129900774 585.625,238.07084437291905 598.3333333333334,250.87869848963922 611.0416666666666,243.23811490127903 623.75,242.4785810968323 636.4583333333334,226.42481636658542 649.1666666666666,225.83466698302414 661.875,189.97195694460197 674.5833333333334,186.13136891299155 687.2916666666666,181.283493457919 700.0,182.58532391723784 712.7083333333333,175.82758916930243 725.4166666666667,184.20908418722902 738.125,190.6143728125515 750.8333333333333,186.2364723589852 763.5416666666667,183.1035881910313 776.25,154.80764030734264 788.9583333333333,128.6043896890862 801.6666666666667,126.70861202552044 814.375,132.37582956680575 827.0833333333333,111.2900092359817 839.7916666666667,110.64877321483237 852.5,114.99865776648784 865.2083333333333,117.94450947082663 877.9166666666667,115.1401644694439 890.625,104.79906579247154 903.3333333333333,117.44357772221326 916.0416666666667,115.23115399949859 928.75,89.99999999999994 941.4583333333333,113.26426091236499 954.1666666666667,126.13165010679978 966.875,118.23547858526405 979.5833333333333,141.56374952149463 992.2916666666667,143.27896466924108 1005.0,174.47550824370558 1017.7083333333333,180.92421288570193 1030.4166666666667,187.98453967060337 1043.125,172.651708968176 1055.8333333333333,182.44123157917306 1068.5416666666667,178.7066179052931 1081.25,182.6585614248697 1093.9583333333333,165.87880703294712 1106.6666666666667,173.09137517687654 1119.375,168.52384552903177 1132.0833333333333,181.57114741386258 1144.7916666666667,210.7855713324586 1157.5,228.25595516125927 1170.2083333333333,233.36328967853132 1182.9166666666667,243.11151108442465 1195.625,232.12179133249927 1208.3333333333333,233.83388592406732 1221.0416666666667,213.38299804385207 1233.75,225.21076094458692 1246.4583333333333,234.4294920561146 1259.1666666666667,229.04698221329485 1271.875,213.2146223687281 1284.5833333333333,213.65839857395113 1297.2916666666667,212.41199783157285 1310.0,208.09861605095213 1310.0,295.5265607735337 1297.2916666666667,297.6397975432368 1284.5833333333333,297.5229685911973 1271.875,295.78870178172747 1259.1666666666667,305.2885401475404 1246.4583333333333,308.19217178847043 1233.75,303.05162136215245 1221.0416666666667,295.5514126302259 1208.3333333333333,308.4832305935256 1195.625,307.2463255706754 1182.9166666666667,313.6201731517053 1170.2083333333333,308.2266802853273 1157.5,304.5167561715351 1144.7916666666667,295.87351223715257 1132.0833333333333,277.3581253552247 1119.375,269.0809643754816 1106.6666666666667,272.1255670086151 1093.9583333333333,267.9444013843935 1081.25,277.64638747591886 1068.5416666666667,275.28224029668354 1055.8333333333333,276.7407341146454 1043.125,270.8144661430895 1030.4166666666667,280.67459158278757 1017.7083333333333,275.62663074228163 1005.0,272.3237178256719 992.2916666666667,255.45599507680438 979.5833333333333,254.67070736319903 966.875,239.72770521511595 954.1666666666667,244.08633951150918 941.4583333333333,236.33834612826234 928.75,223.57022718385255 916.0416666666667,238.5954367129233 903.3333333333333,239.67537495309065 890.625,230.63551375570546 877.9166666666667,237.1313673651555 865.2083333333333,236.89912750511692 852.5,233.036612378869 839.7916666666667,231.10394140594573 827.0833333333333,230.89327510499874 814.375,244.53998631611347 801.6666666666667,238.85451952690684 788.9583333333333,236.1057089505475 776.25,260.3968603205425 763.5416666666667,278.0390959593901 750.8333333333333,280.3855600884052 738.125,283.5421468098209 725.4166666666667,278.70571556913137 712.7083333333333,273.5593647632904 700.0,276.4821677241914 687.2916666666666,277.2311790406769 674.5833333333334,279.15095604984214 661.875,279.9976369900295 649.1666666666666,306.96673873775694 636.4583333333334,308.2963195935125 623.75,318.7073467463558 611.0416666666666,317.98368343782937 598.3333333333334,321.61015423722324 585.625,312.51797183114115 572.9166666666666,304.0598043108266 560.2083333333334,309.2896214256605 547.5,311.47667603816535 534.7916666666666,303.1898457252027 522.0833333333334,293.7175389417299 509.375,287.42572531537843 496.66666666666663,288.1990333199479 483.95833333333337,282.5760443208475 471.25,275.0162000654406 458.54166666666663,270.949179370779 445.83333333333337,271.8190831901695 433.125,259.04878330672534 420.41666666666663,263.3110016501032 407.70833333333337,260.1405804252986 395.0,248.03874848436257 382.2916666666667,250.7180335892797 369.5833333333333,249.83806433056554 356.875,251.50404944296253 344.1666666666667,252.65743904547645 331.4583333333333,248.15519942682445 318.75,260.0742986746568 306.0416666666667,255.78510216611878 293.3333333333333,252.49918031225 280.625,250.9045595000071 267.9166666666667,251.17033256098495 255.20833333333331,247.30232411048868 242.5,244.84371340356168 229.79166666666666,245.87207738510605 217.08333333333334,243.33659225276764 204.375,240.07242845200236 191.66666666666666,237.16415674300222 178.95833333333334,235.3710557902549 166.25,232.9452270431847 153.54166666666669,232.09179984832684 140.83333333333331,227.33150595656912 128.125,225.00233760312616 115.41666666666666,222.89126349663385 102.70833333333333,221.45256944986005 90.0,219.17621136306576" fill="#f97316" fill-opacity="0.70" stroke="#f97316" stroke-width="1.2"/>
<rect x="1100" y="76" width="16" height="12" fill="#f97316" fill-opacity="0.70" stroke="#f97316"/>
<text x="1124" y="86" font-family="monospace" font-size="12" fill="#0f172a">BTC</text>
<rect x="1100" y="98" width="16" height="12" fill="#2563eb" fill-opacity="0.70" stroke="#2563eb"/>
<text x="1124" y="108" font-family="monospace" font-size="12" fill="#0f172a">ETH</text>
<rect x="1100" y="120" width="16" height="12" fill="#facc15" fill-opacity="0.70" stroke="#facc15"/>
<text x="1124" y="130" font-family="monospace" font-size="12" fill="#0f172a">DAI</text>
<text x="700.0" y="782" text-anchor="middle" font-family="monospace" font-size="16" fill="#0f172a">time</text>
<text x="24" y="255.0" transform="rotate(-90 24,255.0)" text-anchor="middle" font-family="monospace" font-size="16" fill="#0f172a">asset value split (usd)</text>
<line x1="90" y1="605" x2="1310" y2="605" stroke="#334155" stroke-width="2"/>
<line x1="90" y1="480" x2="90" y2="605" stroke="#334155" stroke-width="2"/>
<line x1="90" y1="542.5" x2="1310" y2="542.5" stroke="#64748b" stroke-width="1.5" stroke-dasharray="6 4"/>
<line x1="90" y1="605.0" x2="1310" y2="605.0" stroke="#e2e8f0" stroke-width="1"/>
<text x="78" y="609.0" text-anchor="end" font-family="monospace" font-size="11" fill="#475569">-300</text>
<line x1="90" y1="542.5" x2="1310" y2="542.5" stroke="#e2e8f0" stroke-width="1"/>
<text x="78" y="546.5" text-anchor="end" font-family="monospace" font-size="11" fill="#475569">0</text>
<line x1="90" y1="480.0" x2="1310" y2="480.0" stroke="#e2e8f0" stroke-width="1"/>
<text x="78" y="484.0" text-anchor="end" font-family="monospace" font-size="11" fill="#475569">300</text>
<rect x="86.54123711340206" y="511.25" width="6.917525773195877" height="31.25" fill="#ea580c" opacity="0.85"><title>2024-07-01 | BTC buy 150.00 usd | reason=budgeted_static_target_rebalance</title></rect>
<rect x="99.24957044673539" y="511.25" width="6.917525773195877" height="31.25" fill="#ea580c" opacity="0.85"><title>2024-07-08 | BTC buy 150.00 usd | reason=budgeted_static_target_rebalance</title></rect>
<rect x="111.95790378006872" y="511.25" width="6.917525773195877" height="31.25" fill="#ea580c" opacity="0.85"><title>2024-07-15 | BTC buy 150.00 usd | reason=budgeted_static_target_rebalance</title></rect>
<rect x="124.66623711340206" y="511.25" width="6.917525773195877" height="31.25" fill="#ea580c" opacity="0.85"><title>2024-07-22 | BTC buy 150.00 usd | reason=budgeted_static_target_rebalance</title></rect>
<rect x="137.3745704467354" y="511.25" width="6.917525773195877" height="31.25" fill="#ea580c" opacity="0.85"><title>2024-07-29 | BTC buy 150.00 usd | reason=budgeted_static_target_rebalance</title></rect>
<rect x="150.08290378006876" y="511.25" width="6.917525773195877" height="31.25" fill="#ea580c" opacity="0.85"><title>2024-08-05 | BTC buy 150.00 usd | reason=budgeted_static_target_rebalance</title></rect>
<rect x="162.79123711340208" y="511.25" width="6.917525773195877" height="31.25" fill="#ea580c" opacity="0.85"><title>2024-08-12 | BTC buy 150.00 usd | reason=budgeted_static_target_rebalance</title></rect>
<rect x="175.4995704467354" y="511.25" width="6.917525773195877" height="31.25" fill="#ea580c" opacity="0.85"><title>2024-08-19 | BTC buy 150.00 usd | reason=budgeted_static_target_rebalance</title></rect>
<rect x="188.2079037800687" y="511.25" width="6.917525773195877" height="31.25" fill="#ea580c" opacity="0.85"><title>2024-08-26 | BTC buy 150.00 usd | reason=budgeted_static_target_rebalance</title></rect>
<rect x="200.91623711340208" y="511.25" width="6.917525773195877" height="31.25" fill="#ea580c" opacity="0.85"><title>2024-09-02 | BTC buy 150.00 usd | reason=budgeted_static_target_rebalance</title></rect>
<rect x="213.6245704467354" y="511.25" width="6.917525773195877" height="31.25" fill="#ea580c" opacity="0.85"><title>2024-09-09 | BTC buy 150.00 usd | reason=budgeted_static_target_rebalance</title></rect>
<rect x="226.3329037800687" y="511.25" width="6.917525773195877" height="31.25" fill="#ea580c" opacity="0.85"><title>2024-09-16 | BTC buy 150.00 usd | reason=budgeted_static_target_rebalance</title></rect>
<rect x="239.04123711340208" y="511.25" width="6.917525773195877" height="31.25" fill="#ea580c" opacity="0.85"><title>2024-09-23 | BTC buy 150.00 usd | reason=budgeted_static_target_rebalance</title></rect>
<rect x="251.7495704467354" y="511.25" width="6.917525773195877" height="31.25" fill="#ea580c" opacity="0.85"><title>2024-09-30 | BTC buy 150.00 usd | reason=budgeted_static_target_rebalance</title></rect>
<rect x="264.45790378006876" y="511.25" width="6.917525773195877" height="31.25" fill="#ea580c" opacity="0.85"><title>2024-10-07 | BTC buy 150.00 usd | reason=budgeted_static_target_rebalance</title></rect>
<rect x="277.1662371134021" y="511.25" width="6.917525773195877" height="31.25" fill="#ea580c" opacity="0.85"><title>2024-10-14 | BTC buy 150.00 usd | reason=budgeted_static_target_rebalance</title></rect>
<rect x="289.8745704467354" y="511.25" width="6.917525773195877" height="31.25" fill="#ea580c" opacity="0.85"><title>2024-10-21 | BTC buy 150.00 usd | reason=budgeted_static_target_rebalance</title></rect>
<rect x="302.58290378006876" y="511.25" width="6.917525773195877" height="31.25" fill="#ea580c" opacity="0.85"><title>2024-10-28 | BTC buy 150.00 usd | reason=budgeted_static_target_rebalance</title></rect>
<rect x="315.2912371134021" y="511.25" width="6.917525773195877" height="31.25" fill="#ea580c" opacity="0.85"><title>2024-11-04 | BTC buy 150.00 usd | reason=budgeted_static_target_rebalance</title></rect>
<rect x="327.9995704467354" y="511.25" width="6.917525773195877" height="31.25" fill="#ea580c" opacity="0.85"><title>2024-11-11 | BTC buy 150.00 usd | reason=budgeted_static_target_rebalance</title></rect>
<rect x="340.70790378006876" y="511.25" width="6.917525773195877" height="31.25" fill="#ea580c" opacity="0.85"><title>2024-11-18 | BTC buy 150.00 usd | reason=budgeted_static_target_rebalance</title></rect>
<rect x="353.4162371134021" y="511.25" width="6.917525773195877" height="31.25" fill="#ea580c" opacity="0.85"><title>2024-11-25 | BTC buy 150.00 usd | reason=budgeted_static_target_rebalance</title></rect>
<rect x="366.1245704467354" y="511.25" width="6.917525773195877" height="31.25" fill="#ea580c" opacity="0.85"><title>2024-12-02 | BTC buy 150.00 usd | reason=budgeted_static_target_rebalance</title></rect>
<rect x="378.83290378006876" y="511.25" width="6.917525773195877" height="31.25" fill="#ea580c" opacity="0.85"><title>2024-12-09 | BTC buy 150.00 usd | reason=budgeted_static_target_rebalance</title></rect>
<rect x="391.5412371134021" y="511.25" width="6.917525773195877" height="31.25" fill="#ea580c" opacity="0.85"><title>2024-12-16 | BTC buy 150.00 usd | reason=budgeted_static_target_rebalance</title></rect>
<rect x="404.24957044673545" y="511.25" width="6.917525773195877" height="31.25" fill="#ea580c" opacity="0.85"><title>2024-12-23 | BTC buy 150.00 usd | reason=budgeted_static_target_rebalance</title></rect>
<rect x="416.9579037800687" y="511.25" width="6.917525773195877" height="31.25" fill="#ea580c" opacity="0.85"><title>2024-12-30 | BTC buy 150.00 usd | reason=budgeted_static_target_rebalance</title></rect>
<rect x="429.6662371134021" y="511.25" width="6.917525773195877" height="31.25" fill="#ea580c" opacity="0.85"><title>2025-01-06 | BTC buy 150.00 usd | reason=budgeted_static_target_rebalance</title></rect>
<rect x="442.37457044673545" y="511.25" width="6.917525773195877" height="31.25" fill="#ea580c" opacity="0.85"><title>2025-01-13 | BTC buy 150.00 usd | reason=budgeted_static_target_rebalance</title></rect>
<rect x="455.0829037800687" y="511.25" width="6.917525773195877" height="31.25" fill="#ea580c" opacity="0.85"><title>2025-01-20 | BTC buy 150.00 usd | reason=budgeted_static_target_rebalance</title></rect>
<rect x="467.7912371134021" y="511.25" width="6.917525773195877" height="31.25" fill="#ea580c" opacity="0.85"><title>2025-01-27 | BTC buy 150.00 usd | reason=budgeted_static_target_rebalance</title></rect>
<rect x="480.49957044673545" y="524.1039204079091" width="6.917525773195877" height="18.396079592090928" fill="#ea580c" opacity="0.85"><title>2025-02-03 | BTC buy 88.30 usd | reason=budgeted_static_target_rebalance</title></rect>
<rect x="493.2079037800687" y="532.1652236531365" width="6.917525773195877" height="10.334776346863464" fill="#ea580c" opacity="0.85"><title>2025-02-10 | BTC buy 49.61 usd | reason=budgeted_static_target_rebalance</title></rect>
<rect x="505.9162371134021" y="524.5118313658036" width="6.917525773195877" height="17.988168634196427" fill="#ea580c" opacity="0.85"><title>2025-02-17 | BTC buy 86.34 usd | reason=budgeted_static_target_rebalance</title></rect>
<rect x="518.6245704467354" y="533.2231013135923" width="6.917525773195877" height="9.276898686407662" fill="#ea580c" opacity="0.85"><title>2025-02-24 | BTC buy 44.53 usd | reason=budgeted_static_target_rebalance</title></rect>
<rect x="531.3329037800687" y="542.5" width="6.917525773195877" height="1.5" fill="#dc2626" opacity="0.85"><title>2025-03-03 | BTC sell 3.74 usd | reason=budgeted_static_target_rebalance</title></rect>
<rect x="544.0412371134021" y="536.7418455282182" width="6.917525773195877" height="5.758154471781836" fill="#ea580c" opacity="0.85"><title>2025-03-10 | BTC buy 27.64 usd | reason=budgeted_static_target_rebalance</title></rect>
<rect x="556.7495704467354" y="542.5" width="6.917525773195877" height="5.063307350586911" fill="#dc2626" opacity="0.85"><title>2025-03-17 | BTC sell 24.30 usd | reason=budgeted_static_target_rebalance</title></rect>
<rect x="569.4579037800687" y="542.5" width="6.917525773195877" height="3.9820687351008246" fill="#dc2626" opacity="0.85"><title>2025-03-24 | BTC sell 19.11 usd | reason=budgeted_static_target_rebalance</title></rect>
<rect x="582.1662371134021" y="542.5" width="6.917525773195877" height="5.4750687147792405" fill="#dc2626" opacity="0.85"><title>2025-03-31 | BTC sell 26.28 usd | reason=budgeted_static_target_rebalance</title></rect>
<rect x="594.8745704467354" y="542.5" width="6.917525773195877" height="10.07438511948385" fill="#dc2626" opacity="0.85"><title>2025-04-07 | BTC sell 48.36 usd | reason=budgeted_static_target_rebalance</title></rect>
<rect x="607.5829037800687" y="542.5" width="6.917525773195877" height="13.204533843801755" fill="#dc2626" opacity="0.85"><title>2025-04-14 | BTC sell 63.38 usd | reason=budgeted_static_target_rebalance</title></rect>
<rect x="620.2912371134021" y="542.5" width="6.917525773195877" height="17.058511935613637" fill="#dc2626" opacity="0.85"><title>2025-04-21 | BTC sell 81.88 usd | reason=budgeted_static_target_rebalance</title></rect>
<rect x="632.9995704467354" y="542.5" width="6.917525773195877" height="13.97820847734397" fill="#dc2626" opacity="0.85"><title>2025-04-28 | BTC sell 67.10 usd | reason=budgeted_static_target_rebalance</title></rect>
<rect x="645.7079037800687" y="542.5" width="6.917525773195877" height="7.2961749764263" fill="#dc2626" opacity="0.85"><title>2025-05-05 | BTC sell 35.02 usd | reason=budgeted_static_target_rebalance</title></rect>
<rect x="658.4162371134021" y="511.91221116180037" width="6.917525773195877" height="30.58778883819963" fill="#ea580c" opacity="0.85"><title>2025-05-12 | BTC buy 146.82 usd | reason=budgeted_static_target_rebalance</title></rect>
<rect x="671.1245704467354" y="534.3680785945439" width="6.917525773195877" height="8.131921405456069" fill="#ea580c" opacity="0.85"><title>2025-05-19 | BTC buy 39.03 usd | reason=budgeted_static_target_rebalance</title></rect>
<rect x="683.8329037800687" y="542.5" width="6.917525773195877" height="7.1031197823434695" fill="#dc2626" opacity="0.85"><title>2025-05-26 | BTC sell 34.09 usd | reason=budgeted_static_target_rebalance</title></rect>
<rect x="696.5412371134021" y="526.0313279014237" width="6.917525773195877" height="16.46867209857635" fill="#ea580c" opacity="0.85"><title>2025-06-02 | BTC buy 79.05 usd | reason=budgeted_static_target_rebalance</title></rect>
<rect x="709.2495704467353" y="542.5" width="6.917525773195877" height="1.5" fill="#dc2626" opacity="0.85"><title>2025-06-09 | BTC sell 4.64 usd | reason=budgeted_static_target_rebalance</title></rect>
<rect x="721.9579037800688" y="542.5" width="6.917525773195877" height="2.7770366411356235" fill="#dc2626" opacity="0.85"><title>2025-06-16 | BTC sell 13.33 usd | reason=budgeted_static_target_rebalance</title></rect>
<rect x="734.6662371134021" y="542.5" width="6.917525773195877" height="4.63232629166157" fill="#dc2626" opacity="0.85"><title>2025-06-23 | BTC sell 22.24 usd | reason=budgeted_static_target_rebalance</title></rect>
<rect x="747.3745704467353" y="542.5" width="6.917525773195877" height="5.001919141847225" fill="#dc2626" opacity="0.85"><title>2025-06-30 | BTC sell 24.01 usd | reason=budgeted_static_target_rebalance</title></rect>
<rect x="760.0829037800688" y="542.5" width="6.917525773195877" height="2.7258600610856547" fill="#dc2626" opacity="0.85"><title>2025-07-07 | BTC sell 13.08 usd | reason=budgeted_static_target_rebalance</title></rect>
<rect x="772.7912371134021" y="534.9864692869911" width="6.917525773195877" height="7.51353071300889" fill="#ea580c" opacity="0.85"><title>2025-07-14 | BTC buy 36.06 usd | reason=budgeted_static_target_rebalance</title></rect>
<rect x="785.4995704467353" y="480.0" width="6.917525773195877" height="62.5" fill="#ea580c" opacity="0.85"><title>2025-07-21 | BTC buy 300.00 usd | reason=budgeted_static_target_rebalance</title></rect>
<rect x="798.2079037800688" y="480.0" width="6.917525773195877" height="62.5" fill="#ea580c" opacity="0.85"><title>2025-07-28 | BTC buy 300.00 usd | reason=budgeted_static_target_rebalance</title></rect>
<rect x="810.9162371134021" y="498.0478410775029" width="6.917525773195877" height="44.45215892249712" fill="#ea580c" opacity="0.85"><title>2025-08-04 | BTC buy 213.37 usd | reason=budgeted_static_target_rebalance</title></rect>
<rect x="823.6245704467353" y="482.71619714631214" width="6.917525773195877" height="59.78380285368786" fill="#ea580c" opacity="0.85"><title>2025-08-11 | BTC buy 286.96 usd | reason=budgeted_static_target_rebalance</title></rect>
<rect x="836.3329037800688" y="491.88863257000264" width="6.917525773195877" height="50.61136742999736" fill="#ea580c" opacity="0.85"><title>2025-08-18 | BTC buy 242.93 usd | reason=budgeted_static_target_rebalance</title></rect>
<rect x="849.0412371134021" y="481.4552452170873" width="6.917525773195877" height="61.04475478291272" fill="#ea580c" opacity="0.85"><title>2025-08-25 | BTC buy 293.01 usd | reason=budgeted_static_target_rebalance</title></rect>
<rect x="861.7495704467353" y="513.7294045168517" width="6.917525773195877" height="28.770595483148327" fill="#ea580c" opacity="0.85"><title>2025-09-01 | BTC buy 138.10 usd | reason=budgeted_static_target_rebalance</title></rect>
<rect x="874.4579037800688" y="542.5" width="6.917525773195877" height="1.5" fill="#dc2626" opacity="0.85"><title>2025-09-08 | BTC sell 3.50 usd | reason=budgeted_static_target_rebalance</title></rect>
<rect x="887.1662371134021" y="538.7422519728187" width="6.917525773195877" height="3.7577480271812647" fill="#ea580c" opacity="0.85"><title>2025-09-15 | BTC buy 18.04 usd | reason=budgeted_static_target_rebalance</title></rect>
<rect x="899.8745704467353" y="542.5" width="6.917525773195877" height="11.099943099483653" fill="#dc2626" opacity="0.85"><title>2025-09-22 | BTC sell 53.28 usd | reason=budgeted_static_target_rebalance</title></rect>
<rect x="912.5829037800688" y="542.5" width="6.917525773195877" height="9.753906315553081" fill="#dc2626" opacity="0.85"><title>2025-09-29 | BTC sell 46.82 usd | reason=budgeted_static_target_rebalance</title></rect>
<rect x="925.2912371134021" y="542.5" width="6.917525773195877" height="14.849107339280636" fill="#dc2626" opacity="0.85"><title>2025-10-06 | BTC sell 71.28 usd | reason=budgeted_static_target_rebalance</title></rect>
<rect x="937.9995704467353" y="542.5" width="6.917525773195877" height="5.85077108498524" fill="#dc2626" opacity="0.85"><title>2025-10-13 | BTC sell 28.08 usd | reason=budgeted_static_target_rebalance</title></rect>
<rect x="950.7079037800688" y="542.5" width="6.917525773195877" height="1.5" fill="#dc2626" opacity="0.85"><title>2025-10-20 | BTC sell 7.02 usd | reason=budgeted_static_target_rebalance</title></rect>
<rect x="963.4162371134021" y="542.5" width="6.917525773195877" height="3.336074137110927" fill="#dc2626" opacity="0.85"><title>2025-10-27 | BTC sell 16.01 usd | reason=budgeted_static_target_rebalance</title></rect>
<rect x="976.1245704467353" y="542.5" width="6.917525773195877" height="5.661308058809027" fill="#dc2626" opacity="0.85"><title>2025-11-03 | BTC sell 27.17 usd | reason=budgeted_static_target_rebalance</title></rect>
<rect x="988.8329037800688" y="542.5" width="6.917525773195877" height="4.8644856133321355" fill="#dc2626" opacity="0.85"><title>2025-11-10 | BTC sell 23.35 usd | reason=budgeted_static_target_rebalance</title></rect>
<rect x="1001.5412371134021" y="536.929643212098" width="6.917525773195877" height="5.570356787902028" fill="#ea580c" opacity="0.85"><title>2025-11-17 | BTC buy 26.74 usd | reason=budgeted_static_target_rebalance</title></rect>
<rect x="1014.2495704467353" y="528.2054717987604" width="6.917525773195877" height="14.294528201239586" fill="#ea580c" opacity="0.85"><title>2025-11-24 | BTC buy 68.61 usd | reason=budgeted_static_target_rebalance</title></rect>
<rect x="1026.9579037800688" y="540.7109487289979" width="6.917525773195877" height="1.7890512710021085" fill="#ea580c" opacity="0.85"><title>2025-12-01 | BTC buy 8.59 usd | reason=budgeted_static_target_rebalance</title></rect>
<rect x="1039.666237113402" y="530.5368747233567" width="6.917525773195877" height="11.963125276643268" fill="#ea580c" opacity="0.85"><title>2025-12-08 | BTC buy 57.42 usd | reason=budgeted_static_target_rebalance</title></rect>
<rect x="1052.3745704467353" y="531.3464909119643" width="6.917525773195877" height="11.153509088035662" fill="#ea580c" opacity="0.85"><title>2025-12-15 | BTC buy 53.54 usd | reason=budgeted_static_target_rebalance</title></rect>
<rect x="1065.0829037800688" y="542.5" width="6.917525773195877" height="1.5" fill="#dc2626" opacity="0.85"><title>2025-12-22 | BTC sell 4.31 usd | reason=budgeted_static_target_rebalance</title></rect>
<rect x="1077.791237113402" y="542.5" width="6.917525773195877" height="1.5" fill="#dc2626" opacity="0.85"><title>2025-12-29 | BTC sell 0.80 usd | reason=budgeted_static_target_rebalance</title></rect>
<rect x="1090.4995704467353" y="542.5" width="6.917525773195877" height="4.509496392799633" fill="#dc2626" opacity="0.85"><title>2026-01-05 | BTC sell 21.65 usd | reason=budgeted_static_target_rebalance</title></rect>
<rect x="1103.2079037800688" y="542.5" width="6.917525773195877" height="1.7758788905023266" fill="#dc2626" opacity="0.85"><title>2026-01-12 | BTC sell 8.52 usd | reason=budgeted_static_target_rebalance</title></rect>
<rect x="1115.916237113402" y="541.9863420946331" width="6.917525773195877" height="1.5" fill="#ea580c" opacity="0.85"><title>2026-01-19 | BTC buy 2.47 usd | reason=budgeted_static_target_rebalance</title></rect>
<rect x="1128.6245704467353" y="542.5" width="6.917525773195877" height="1.5" fill="#dc2626" opacity="0.85"><title>2026-01-26 | BTC sell 6.52 usd | reason=budgeted_static_target_rebalance</title></rect>
<rect x="1141.3329037800688" y="542.5" width="6.917525773195877" height="4.5819954882903176" fill="#dc2626" opacity="0.85"><title>2026-02-02 | BTC sell 21.99 usd | reason=budgeted_static_target_rebalance</title></rect>
<rect x="1154.041237113402" y="535.7707057686089" width="6.917525773195877" height="6.729294231391123" fill="#ea580c" opacity="0.85"><title>2026-02-09 | BTC buy 32.30 usd | reason=budgeted_static_target_rebalance</title></rect>
<rect x="1166.7495704467353" y="542.5" width="6.917525773195877" height="1.5" fill="#dc2626" opacity="0.85"><title>2026-02-16 | BTC sell 3.27 usd | reason=budgeted_static_target_rebalance</title></rect>
<rect x="1179.4579037800688" y="538.6989973022819" width="6.917525773195877" height="3.801002697718104" fill="#ea580c" opacity="0.85"><title>2026-02-23 | BTC buy 18.24 usd | reason=budgeted_static_target_rebalance</title></rect>
<rect x="1192.166237113402" y="542.087920199911" width="6.917525773195877" height="1.5" fill="#ea580c" opacity="0.85"><title>2026-03-02 | BTC buy 1.98 usd | reason=budgeted_static_target_rebalance</title></rect>
<rect x="1204.8745704467353" y="542.5" width="6.917525773195877" height="1.5" fill="#dc2626" opacity="0.85"><title>2026-03-09 | BTC sell 2.87 usd | reason=budgeted_static_target_rebalance</title></rect>
<rect x="1217.5829037800688" y="535.130318827344" width="6.917525773195877" height="7.369681172655987" fill="#ea580c" opacity="0.85"><title>2026-03-16 | BTC buy 35.37 usd | reason=budgeted_static_target_rebalance</title></rect>
<rect x="1230.291237113402" y="541.3471414875614" width="6.917525773195877" height="1.5" fill="#ea580c" opacity="0.85"><title>2026-03-23 | BTC buy 5.53 usd | reason=budgeted_static_target_rebalance</title></rect>
<rect x="1242.9995704467353" y="535.3284733180387" width="6.917525773195877" height="7.171526681961268" fill="#ea580c" opacity="0.85"><title>2026-03-30 | BTC buy 34.42 usd | reason=budgeted_static_target_rebalance</title></rect>
<rect x="1255.7079037800688" y="540.3486629750996" width="6.917525773195877" height="2.1513370249003856" fill="#ea580c" opacity="0.85"><title>2026-04-06 | BTC buy 10.33 usd | reason=budgeted_static_target_rebalance</title></rect>
<rect x="1268.416237113402" y="540.3421548678397" width="6.917525773195877" height="2.1578451321603325" fill="#ea580c" opacity="0.85"><title>2026-04-13 | BTC buy 10.36 usd | reason=budgeted_static_target_rebalance</title></rect>
<rect x="1281.1245704467353" y="542.5" width="6.917525773195877" height="4.364039677860319" fill="#dc2626" opacity="0.85"><title>2026-04-20 | BTC sell 20.95 usd | reason=budgeted_static_target_rebalance</title></rect>
<rect x="1293.8329037800688" y="542.5" width="6.917525773195877" height="4.536153846799834" fill="#dc2626" opacity="0.85"><title>2026-04-27 | BTC sell 21.77 usd | reason=budgeted_static_target_rebalance</title></rect>
<rect x="1306.541237113402" y="542.5" width="6.917525773195877" height="8.329368943931854" fill="#dc2626" opacity="0.85"><title>2026-05-04 | BTC sell 39.98 usd | reason=budgeted_static_target_rebalance</title></rect>
<text x="24" y="542.5" transform="rotate(-90 24,542.5)" text-anchor="middle" font-family="monospace" font-size="14" fill="#0f172a">BTC weekly trade usd</text>
<line x1="90" y1="770" x2="1310" y2="770" stroke="#334155" stroke-width="2"/>
<line x1="90" y1="645" x2="90" y2="770" stroke="#334155" stroke-width="2"/>
<line x1="90" y1="707.5" x2="1310" y2="707.5" stroke="#64748b" stroke-width="1.5" stroke-dasharray="6 4"/>
<line x1="90" y1="770.0" x2="1310" y2="770.0" stroke="#e2e8f0" stroke-width="1"/>
<text x="78" y="774.0" text-anchor="end" font-family="monospace" font-size="11" fill="#475569">-335</text>
<line x1="90" y1="707.5" x2="1310" y2="707.5" stroke="#e2e8f0" stroke-width="1"/>
<text x="78" y="711.5" text-anchor="end" font-family="monospace" font-size="11" fill="#475569">0</text>
<line x1="90" y1="645.0" x2="1310" y2="645.0" stroke="#e2e8f0" stroke-width="1"/>
<text x="78" y="649.0" text-anchor="end" font-family="monospace" font-size="11" fill="#475569">335</text>
<rect x="86.54123711340206" y="679.4745965551326" width="6.917525773195877" height="28.02540344486738" fill="#2563eb" opacity="0.85"><title>2024-07-01 | ETH buy 150.00 usd | reason=budgeted_static_target_rebalance</title></rect>
<rect x="99.24957044673539" y="679.4745965551326" width="6.917525773195877" height="28.02540344486738" fill="#2563eb" opacity="0.85"><title>2024-07-08 | ETH buy 150.00 usd | reason=budgeted_static_target_rebalance</title></rect>
<rect x="111.95790378006872" y="679.4745965551326" width="6.917525773195877" height="28.02540344486738" fill="#2563eb" opacity="0.85"><title>2024-07-15 | ETH buy 150.00 usd | reason=budgeted_static_target_rebalance</title></rect>
<rect x="124.66623711340206" y="679.4745965551326" width="6.917525773195877" height="28.02540344486738" fill="#2563eb" opacity="0.85"><title>2024-07-22 | ETH buy 150.00 usd | reason=budgeted_static_target_rebalance</title></rect>
<rect x="137.3745704467354" y="679.4745965551326" width="6.917525773195877" height="28.02540344486738" fill="#2563eb" opacity="0.85"><title>2024-07-29 | ETH buy 150.00 usd | reason=budgeted_static_target_rebalance</title></rect>
<rect x="150.08290378006876" y="679.4745965551326" width="6.917525773195877" height="28.02540344486738" fill="#2563eb" opacity="0.85"><title>2024-08-05 | ETH buy 150.00 usd | reason=budgeted_static_target_rebalance</title></rect>
<rect x="162.79123711340208" y="679.4745965551326" width="6.917525773195877" height="28.02540344486738" fill="#2563eb" opacity="0.85"><title>2024-08-12 | ETH buy 150.00 usd | reason=budgeted_static_target_rebalance</title></rect>
<rect x="175.4995704467354" y="679.4745965551326" width="6.917525773195877" height="28.02540344486738" fill="#2563eb" opacity="0.85"><title>2024-08-19 | ETH buy 150.00 usd | reason=budgeted_static_target_rebalance</title></rect>
<rect x="188.2079037800687" y="679.4745965551326" width="6.917525773195877" height="28.02540344486738" fill="#2563eb" opacity="0.85"><title>2024-08-26 | ETH buy 150.00 usd | reason=budgeted_static_target_rebalance</title></rect>
<rect x="200.91623711340208" y="679.4745965551326" width="6.917525773195877" height="28.02540344486738" fill="#2563eb" opacity="0.85"><title>2024-09-02 | ETH buy 150.00 usd | reason=budgeted_static_target_rebalance</title></rect>
<rect x="213.6245704467354" y="679.4745965551326" width="6.917525773195877" height="28.02540344486738" fill="#2563eb" opacity="0.85"><title>2024-09-09 | ETH buy 150.00 usd | reason=budgeted_static_target_rebalance</title></rect>
<rect x="226.3329037800687" y="679.4745965551326" width="6.917525773195877" height="28.02540344486738" fill="#2563eb" opacity="0.85"><title>2024-09-16 | ETH buy 150.00 usd | reason=budgeted_static_target_rebalance</title></rect>
<rect x="239.04123711340208" y="679.4745965551326" width="6.917525773195877" height="28.02540344486738" fill="#2563eb" opacity="0.85"><title>2024-09-23 | ETH buy 150.00 usd | reason=budgeted_static_target_rebalance</title></rect>
<rect x="251.7495704467354" y="679.4745965551326" width="6.917525773195877" height="28.02540344486738" fill="#2563eb" opacity="0.85"><title>2024-09-30 | ETH buy 150.00 usd | reason=budgeted_static_target_rebalance</title></rect>
<rect x="264.45790378006876" y="679.4745965551326" width="6.917525773195877" height="28.02540344486738" fill="#2563eb" opacity="0.85"><title>2024-10-07 | ETH buy 150.00 usd | reason=budgeted_static_target_rebalance</title></rect>
<rect x="277.1662371134021" y="679.4745965551326" width="6.917525773195877" height="28.02540344486738" fill="#2563eb" opacity="0.85"><title>2024-10-14 | ETH buy 150.00 usd | reason=budgeted_static_target_rebalance</title></rect>
<rect x="289.8745704467354" y="679.4745965551326" width="6.917525773195877" height="28.02540344486738" fill="#2563eb" opacity="0.85"><title>2024-10-21 | ETH buy 150.00 usd | reason=budgeted_static_target_rebalance</title></rect>
<rect x="302.58290378006876" y="679.4745965551326" width="6.917525773195877" height="28.02540344486738" fill="#2563eb" opacity="0.85"><title>2024-10-28 | ETH buy 150.00 usd | reason=budgeted_static_target_rebalance</title></rect>
<rect x="315.2912371134021" y="679.4745965551326" width="6.917525773195877" height="28.02540344486738" fill="#2563eb" opacity="0.85"><title>2024-11-04 | ETH buy 150.00 usd | reason=budgeted_static_target_rebalance</title></rect>
<rect x="327.9995704467354" y="679.4745965551326" width="6.917525773195877" height="28.02540344486738" fill="#2563eb" opacity="0.85"><title>2024-11-11 | ETH buy 150.00 usd | reason=budgeted_static_target_rebalance</title></rect>
<rect x="340.70790378006876" y="679.4745965551326" width="6.917525773195877" height="28.02540344486738" fill="#2563eb" opacity="0.85"><title>2024-11-18 | ETH buy 150.00 usd | reason=budgeted_static_target_rebalance</title></rect>
<rect x="353.4162371134021" y="679.4745965551326" width="6.917525773195877" height="28.02540344486738" fill="#2563eb" opacity="0.85"><title>2024-11-25 | ETH buy 150.00 usd | reason=budgeted_static_target_rebalance</title></rect>
<rect x="366.1245704467354" y="679.4745965551326" width="6.917525773195877" height="28.02540344486738" fill="#2563eb" opacity="0.85"><title>2024-12-02 | ETH buy 150.00 usd | reason=budgeted_static_target_rebalance</title></rect>
<rect x="378.83290378006876" y="679.4745965551326" width="6.917525773195877" height="28.02540344486738" fill="#2563eb" opacity="0.85"><title>2024-12-09 | ETH buy 150.00 usd | reason=budgeted_static_target_rebalance</title></rect>
<rect x="391.5412371134021" y="679.4745965551326" width="6.917525773195877" height="28.02540344486738" fill="#2563eb" opacity="0.85"><title>2024-12-16 | ETH buy 150.00 usd | reason=budgeted_static_target_rebalance</title></rect>
<rect x="404.24957044673545" y="679.4745965551326" width="6.917525773195877" height="28.02540344486738" fill="#2563eb" opacity="0.85"><title>2024-12-23 | ETH buy 150.00 usd | reason=budgeted_static_target_rebalance</title></rect>
<rect x="416.9579037800687" y="679.4745965551326" width="6.917525773195877" height="28.02540344486738" fill="#2563eb" opacity="0.85"><title>2024-12-30 | ETH buy 150.00 usd | reason=budgeted_static_target_rebalance</title></rect>
<rect x="429.6662371134021" y="679.4745965551326" width="6.917525773195877" height="28.02540344486738" fill="#2563eb" opacity="0.85"><title>2025-01-06 | ETH buy 150.00 usd | reason=budgeted_static_target_rebalance</title></rect>
<rect x="442.37457044673545" y="679.4745965551326" width="6.917525773195877" height="28.02540344486738" fill="#2563eb" opacity="0.85"><title>2025-01-13 | ETH buy 150.00 usd | reason=budgeted_static_target_rebalance</title></rect>
<rect x="455.0829037800687" y="679.4745965551326" width="6.917525773195877" height="28.02540344486738" fill="#2563eb" opacity="0.85"><title>2025-01-20 | ETH buy 150.00 usd | reason=budgeted_static_target_rebalance</title></rect>
<rect x="467.7912371134021" y="679.4745965551326" width="6.917525773195877" height="28.02540344486738" fill="#2563eb" opacity="0.85"><title>2025-01-27 | ETH buy 150.00 usd | reason=budgeted_static_target_rebalance</title></rect>
<rect x="480.49957044673545" y="667.9470347861769" width="6.917525773195877" height="39.552965213823086" fill="#2563eb" opacity="0.85"><title>2025-02-03 | ETH buy 211.70 usd | reason=budgeted_static_target_rebalance</title></rect>
<rect x="493.2079037800687" y="660.7175539625315" width="6.917525773195877" height="46.7824460374685" fill="#2563eb" opacity="0.85"><title>2025-02-10 | ETH buy 250.39 usd | reason=budgeted_static_target_rebalance</title></rect>
<rect x="505.9162371134021" y="667.5812149729104" width="6.917525773195877" height="39.9187850270896" fill="#2563eb" opacity="0.85"><title>2025-02-17 | ETH buy 213.66 usd | reason=budgeted_static_target_rebalance</title></rect>
<rect x="518.6245704467354" y="659.7688356191848" width="6.917525773195877" height="47.731164380815244" fill="#2563eb" opacity="0.85"><title>2025-02-24 | ETH buy 255.47 usd | reason=budgeted_static_target_rebalance</title></rect>
<rect x="531.3329037800687" y="651.4491931102652" width="6.917525773195877" height="56.05080688973476" fill="#2563eb" opacity="0.85"><title>2025-03-03 | ETH buy 300.00 usd | reason=budgeted_static_target_rebalance</title></rect>
<rect x="544.0412371134021" y="656.6131803796909" width="6.917525773195877" height="50.8868196203091" fill="#2563eb" opacity="0.85"><title>2025-03-10 | ETH buy 272.36 usd | reason=budgeted_static_target_rebalance</title></rect>
<rect x="556.7495704467354" y="651.4491931102652" width="6.917525773195877" height="56.05080688973476" fill="#2563eb" opacity="0.85"><title>2025-03-17 | ETH buy 300.00 usd | reason=budgeted_static_target_rebalance</title></rect>
<rect x="569.4579037800687" y="651.4491931102652" width="6.917525773195877" height="56.05080688973476" fill="#2563eb" opacity="0.85"><title>2025-03-24 | ETH buy 300.00 usd | reason=budgeted_static_target_rebalance</title></rect>
<rect x="582.1662371134021" y="651.4491931102652" width="6.917525773195877" height="56.05080688973476" fill="#2563eb" opacity="0.85"><title>2025-03-31 | ETH buy 300.00 usd | reason=budgeted_static_target_rebalance</title></rect>
<rect x="594.8745704467354" y="651.4491931102652" width="6.917525773195877" height="56.05080688973476" fill="#2563eb" opacity="0.85"><title>2025-04-07 | ETH buy 300.00 usd | reason=budgeted_static_target_rebalance</title></rect>
<rect x="607.5829037800687" y="654.2673804189899" width="6.917525773195877" height="53.23261958101011" fill="#2563eb" opacity="0.85"><title>2025-04-14 | ETH buy 284.92 usd | reason=budgeted_static_target_rebalance</title></rect>
<rect x="620.2912371134021" y="666.1369035746707" width="6.917525773195877" height="41.36309642532933" fill="#2563eb" opacity="0.85"><title>2025-04-21 | ETH buy 221.39 usd | reason=budgeted_static_target_rebalance</title></rect>
<rect x="632.9995704467354" y="707.5" width="6.917525773195877" height="1.5" fill="#7c3aed" opacity="0.85"><title>2025-04-28 | ETH sell 3.26 usd | reason=budgeted_static_target_rebalance</title></rect>
<rect x="645.7079037800687" y="707.5" width="6.917525773195877" height="4.586953194185753" fill="#7c3aed" opacity="0.85"><title>2025-05-05 | ETH sell 24.55 usd | reason=budgeted_static_target_rebalance</title></rect>
<rect x="658.4162371134021" y="707.5" width="6.917525773195877" height="36.124851771995964" fill="#7c3aed" opacity="0.85"><title>2025-05-12 | ETH sell 193.35 usd | reason=budgeted_static_target_rebalance</title></rect>
<rect x="671.1245704467354" y="707.5" width="6.917525773195877" height="29.412080482232454" fill="#7c3aed" opacity="0.85"><title>2025-05-19 | ETH sell 157.42 usd | reason=budgeted_static_target_rebalance</title></rect>
<rect x="683.8329037800687" y="707.5" width="6.917525773195877" height="18.962737206428983" fill="#7c3aed" opacity="0.85"><title>2025-05-26 | ETH sell 101.49 usd | reason=budgeted_static_target_rebalance</title></rect>
<rect x="696.5412371134021" y="707.5" width="6.917525773195877" height="25.439411221920977" fill="#7c3aed" opacity="0.85"><title>2025-06-02 | ETH sell 136.16 usd | reason=budgeted_static_target_rebalance</title></rect>
<rect x="709.2495704467353" y="707.5" width="6.917525773195877" height="20.80279593319051" fill="#7c3aed" opacity="0.85"><title>2025-06-09 | ETH sell 111.34 usd | reason=budgeted_static_target_rebalance</title></rect>
<rect x="721.9579037800688" y="707.5" width="6.917525773195877" height="11.334883932936577" fill="#7c3aed" opacity="0.85"><title>2025-06-16 | ETH sell 60.67 usd | reason=budgeted_static_target_rebalance</title></rect>
<rect x="734.6662371134021" y="707.5" width="6.917525773195877" height="4.154330022786553" fill="#7c3aed" opacity="0.85"><title>2025-06-23 | ETH sell 22.24 usd | reason=budgeted_static_target_rebalance</title></rect>
<rect x="747.3745704467353" y="707.5" width="6.917525773195877" height="4.485785662364037" fill="#7c3aed" opacity="0.85"><title>2025-06-30 | ETH sell 24.01 usd | reason=budgeted_static_target_rebalance</title></rect>
<rect x="760.0829037800688" y="707.5" width="6.917525773195877" height="6.471860995065072" fill="#7c3aed" opacity="0.85"><title>2025-07-07 | ETH sell 34.64 usd | reason=budgeted_static_target_rebalance</title></rect>
<rect x="772.7912371134021" y="707.5" width="6.917525773195877" height="23.396910652468364" fill="#7c3aed" opacity="0.85"><title>2025-07-14 | ETH sell 125.23 usd | reason=budgeted_static_target_rebalance</title></rect>
<rect x="785.4995704467353" y="707.5" width="6.917525773195877" height="62.5" fill="#7c3aed" opacity="0.85"><title>2025-07-21 | ETH sell 334.52 usd | reason=budgeted_static_target_rebalance</title></rect>
<rect x="798.2079037800688" y="707.5" width="6.917525773195877" height="52.89207580330367" fill="#7c3aed" opacity="0.85"><title>2025-07-28 | ETH sell 283.09 usd | reason=budgeted_static_target_rebalance</title></rect>
<rect x="810.9162371134021" y="707.5" width="6.917525773195877" height="42.34714078543686" fill="#7c3aed" opacity="0.85"><title>2025-08-04 | ETH sell 226.65 usd | reason=budgeted_static_target_rebalance</title></rect>
<rect x="823.6245704467353" y="707.5" width="6.917525773195877" height="56.921193889939104" fill="#7c3aed" opacity="0.85"><title>2025-08-11 | ETH sell 304.66 usd | reason=budgeted_static_target_rebalance</title></rect>
<rect x="836.3329037800688" y="707.5" width="6.917525773195877" height="53.77357322695593" fill="#7c3aed" opacity="0.85"><title>2025-08-18 | ETH sell 287.81 usd | reason=budgeted_static_target_rebalance</title></rect>
<rect x="849.0412371134021" y="707.5" width="6.917525773195877" height="53.4777592865662" fill="#7c3aed" opacity="0.85"><title>2025-08-25 | ETH sell 286.23 usd | reason=budgeted_static_target_rebalance</title></rect>
<rect x="861.7495704467353" y="707.5" width="6.917525773195877" height="42.144832293725926" fill="#7c3aed" opacity="0.85"><title>2025-09-01 | ETH sell 225.57 usd | reason=budgeted_static_target_rebalance</title></rect>
<rect x="874.4579037800688" y="707.5" width="6.917525773195877" height="30.957152468731692" fill="#7c3aed" opacity="0.85"><title>2025-09-08 | ETH sell 165.69 usd | reason=budgeted_static_target_rebalance</title></rect>
<rect x="887.1662371134021" y="707.5" width="6.917525773195877" height="32.25833649202241" fill="#7c3aed" opacity="0.85"><title>2025-09-15 | ETH sell 172.66 usd | reason=budgeted_static_target_rebalance</title></rect>
<rect x="899.8745704467353" y="707.5" width="6.917525773195877" height="9.954572274499242" fill="#7c3aed" opacity="0.85"><title>2025-09-22 | ETH sell 53.28 usd | reason=budgeted_static_target_rebalance</title></rect>
<rect x="912.5829037800688" y="707.5" width="6.917525773195877" height="8.747429109018071" fill="#7c3aed" opacity="0.85"><title>2025-09-29 | ETH sell 46.82 usd | reason=budgeted_static_target_rebalance</title></rect>
<rect x="925.2912371134021" y="707.5" width="6.917525773195877" height="13.316871167343379" fill="#7c3aed" opacity="0.85"><title>2025-10-06 | ETH sell 71.28 usd | reason=budgeted_static_target_rebalance</title></rect>
<rect x="937.9995704467353" y="707.5" width="6.917525773195877" height="5.4763940950474534" fill="#7c3aed" opacity="0.85"><title>2025-10-13 | ETH sell 29.31 usd | reason=budgeted_static_target_rebalance</title></rect>
<rect x="950.7079037800688" y="707.5" width="6.917525773195877" height="1.5" fill="#7c3aed" opacity="0.85"><title>2025-10-20 | ETH sell 7.02 usd | reason=budgeted_static_target_rebalance</title></rect>
<rect x="963.4162371134021" y="707.5" width="6.917525773195877" height="2.9918343556646505" fill="#7c3aed" opacity="0.85"><title>2025-10-27 | ETH sell 16.01 usd | reason=budgeted_static_target_rebalance</title></rect>
<rect x="976.1245704467353" y="674.8686979961119" width="6.917525773195877" height="32.631302003888095" fill="#2563eb" opacity="0.85"><title>2025-11-03 | ETH buy 174.65 usd | reason=budgeted_static_target_rebalance</title></rect>
<rect x="988.8329037800688" y="688.3178136491226" width="6.917525773195877" height="19.182186350877373" fill="#2563eb" opacity="0.85"><title>2025-11-10 | ETH buy 102.67 usd | reason=budgeted_static_target_rebalance</title></rect>
<rect x="1001.5412371134021" y="670.0874781656728" width="6.917525773195877" height="37.41252183432721" fill="#2563eb" opacity="0.85"><title>2025-11-17 | ETH buy 200.24 usd | reason=budgeted_static_target_rebalance</title></rect>
<rect x="1014.2495704467353" y="690.2061558580252" width="6.917525773195877" height="17.293844141974773" fill="#2563eb" opacity="0.85"><title>2025-11-24 | ETH buy 92.56 usd | reason=budgeted_static_target_rebalance</title></rect>
<rect x="1026.9579037800688" y="684.2934498745249" width="6.917525773195877" height="23.206550125475133" fill="#2563eb" opacity="0.85"><title>2025-12-01 | ETH buy 124.21 usd | reason=budgeted_static_target_rebalance</title></rect>
<rect x="1039.666237113402" y="707.5" width="6.917525773195877" height="6.827281647548716" fill="#7c3aed" opacity="0.85"><title>2025-12-08 | ETH sell 36.54 usd | reason=budgeted_static_target_rebalance</title></rect>
<rect x="1052.3745704467353" y="707.5" width="6.917525773195877" height="2.522193224040393" fill="#7c3aed" opacity="0.85"><title>2025-12-15 | ETH sell 13.50 usd | reason=budgeted_static_target_rebalance</title></rect>
<rect x="1065.0829037800688" y="707.5" width="6.917525773195877" height="1.5" fill="#7c3aed" opacity="0.85"><title>2025-12-22 | ETH sell 7.12 usd | reason=budgeted_static_target_rebalance</title></rect>
<rect x="1077.791237113402" y="706.6463708178137" width="6.917525773195877" height="1.5" fill="#2563eb" opacity="0.85"><title>2025-12-29 | ETH buy 4.57 usd | reason=budgeted_static_target_rebalance</title></rect>
<rect x="1090.4995704467353" y="707.5" width="6.917525773195877" height="4.044174583724271" fill="#7c3aed" opacity="0.85"><title>2026-01-05 | ETH sell 21.65 usd | reason=budgeted_static_target_rebalance</title></rect>
<rect x="1103.2079037800688" y="707.5" width="6.917525773195877" height="1.5926311160176283" fill="#7c3aed" opacity="0.85"><title>2026-01-12 | ETH sell 8.52 usd | reason=budgeted_static_target_rebalance</title></rect>
<rect x="1115.916237113402" y="707.5" width="6.917525773195877" height="4.9976922875769105" fill="#7c3aed" opacity="0.85"><title>2026-01-19 | ETH sell 26.75 usd | reason=budgeted_static_target_rebalance</title></rect>
<rect x="1128.6245704467353" y="697.5457187658843" width="6.917525773195877" height="9.954281234115683" fill="#2563eb" opacity="0.85"><title>2026-01-26 | ETH buy 53.28 usd | reason=budgeted_static_target_rebalance</title></rect>
<rect x="1141.3329037800688" y="653.290397773608" width="6.917525773195877" height="54.20960222639201" fill="#2563eb" opacity="0.85"><title>2026-02-02 | ETH buy 290.15 usd | reason=budgeted_static_target_rebalance</title></rect>
<rect x="1154.041237113402" y="671.9795674794527" width="6.917525773195877" height="35.520432520547274" fill="#2563eb" opacity="0.85"><title>2026-02-09 | ETH buy 190.12 usd | reason=budgeted_static_target_rebalance</title></rect>
<rect x="1166.7495704467353" y="677.9186735675551" width="6.917525773195877" height="29.58132643244494" fill="#2563eb" opacity="0.85"><title>2026-02-16 | ETH buy 158.33 usd | reason=budgeted_static_target_rebalance</title></rect>
<rect x="1179.4579037800688" y="684.0920150743437" width="6.917525773195877" height="23.40798492565625" fill="#2563eb" opacity="0.85"><title>2026-02-23 | ETH buy 125.29 usd | reason=budgeted_static_target_rebalance</title></rect>
<rect x="1192.166237113402" y="707.5" width="6.917525773195877" height="1.5" fill="#7c3aed" opacity="0.85"><title>2026-03-02 | ETH sell 4.02 usd | reason=budgeted_static_target_rebalance</title></rect>
<rect x="1204.8745704467353" y="705.1873785183578" width="6.917525773195877" height="2.312621481642168" fill="#2563eb" opacity="0.85"><title>2026-03-09 | ETH buy 12.38 usd | reason=budgeted_static_target_rebalance</title></rect>
<rect x="1217.5829037800688" y="707.5" width="6.917525773195877" height="12.239717003269789" fill="#7c3aed" opacity="0.85"><title>2026-03-16 | ETH sell 65.51 usd | reason=budgeted_static_target_rebalance</title></rect>
<rect x="1230.291237113402" y="707.5" width="6.917525773195877" height="3.58372065298704" fill="#7c3aed" opacity="0.85"><title>2026-03-23 | ETH sell 19.18 usd | reason=budgeted_static_target_rebalance</title></rect>
<rect x="1242.9995704467353" y="707.5" width="6.917525773195877" height="1.5" fill="#7c3aed" opacity="0.85"><title>2026-03-30 | ETH sell 3.05 usd | reason=budgeted_static_target_rebalance</title></rect>
<rect x="1255.7079037800688" y="707.5" width="6.917525773195877" height="2.6218566130329464" fill="#7c3aed" opacity="0.85"><title>2026-04-06 | ETH sell 14.03 usd | reason=budgeted_static_target_rebalance</title></rect>
<rect x="1268.416237113402" y="707.5" width="6.917525773195877" height="10.158422563382373" fill="#7c3aed" opacity="0.85"><title>2026-04-13 | ETH sell 54.37 usd | reason=budgeted_static_target_rebalance</title></rect>
<rect x="1281.1245704467353" y="707.5" width="6.917525773195877" height="3.9137271238862468" fill="#7c3aed" opacity="0.85"><title>2026-04-20 | ETH sell 20.95 usd | reason=budgeted_static_target_rebalance</title></rect>
<rect x="1293.8329037800688" y="707.5" width="6.917525773195877" height="2.99226351433731" fill="#7c3aed" opacity="0.85"><title>2026-04-27 | ETH sell 16.02 usd | reason=budgeted_static_target_rebalance</title></rect>
<rect x="1306.541237113402" y="707.5" width="6.917525773195877" height="1.5" fill="#7c3aed" opacity="0.85"><title>2026-05-04 | ETH sell 2.36 usd | reason=budgeted_static_target_rebalance</title></rect>
<text x="24" y="707.5" transform="rotate(-90 24,707.5)" text-anchor="middle" font-family="monospace" font-size="14" fill="#0f172a">ETH weekly trade usd</text>
<rect x="1040" y="478" width="14" height="10" fill="#ea580c" opacity="0.85"/>
<text x="1062" y="488" font-family="monospace" font-size="11" fill="#0f172a">BTC buy</text>
<rect x="1190" y="478" width="14" height="10" fill="#dc2626" opacity="0.85"/>
<text x="1212" y="488" font-family="monospace" font-size="11" fill="#0f172a">BTC sell</text>
<rect x="1040" y="498" width="14" height="10" fill="#2563eb" opacity="0.85"/>
<text x="1062" y="508" font-family="monospace" font-size="11" fill="#0f172a">ETH buy</text>
<rect x="1190" y="498" width="14" height="10" fill="#7c3aed" opacity="0.85"/>
<text x="1212" y="508" font-family="monospace" font-size="11" fill="#0f172a">ETH sell</text>
</svg>