<svg xmlns="http://www.w3.org/2000/svg" width="1400" height="800">
<rect width="1400" height="800" fill="#f8fafc"/>
<text x="700.0" y="42" text-anchor="middle" font-family="monospace" font-size="24" fill="#0f172a">Portfolio Value Over Time | start=2022-10-01 | interval=7d</text>
<line x1="90" y1="710" x2="1310" y2="710" stroke="#334155" stroke-width="2"/>
<line x1="90" y1="90" x2="90" y2="710" stroke="#334155" stroke-width="2"/>
<line x1="90.0" y1="710" x2="90.0" y2="90" stroke="#cbd5e1" stroke-width="1"/>
<text x="90.0" y="734" text-anchor="middle" font-family="monospace" font-size="11" fill="#475569">2022-10-01</text>
<line x1="90" y1="710.0" x2="1310" y2="710.0" stroke="#cbd5e1" stroke-width="1"/>
<text x="78" y="714.0" text-anchor="end" font-family="monospace" font-size="12" fill="#475569">9786</text>
<line x1="334.0" y1="710" x2="334.0" y2="90" stroke="#cbd5e1" stroke-width="1"/>
<text x="334.0" y="734" text-anchor="middle" font-family="monospace" font-size="11" fill="#475569">2023-06-17</text>
<line x1="90" y1="586.0" x2="1310" y2="586.0" stroke="#cbd5e1" stroke-width="1"/>
<text x="78" y="590.0" text-anchor="end" font-family="monospace" font-size="12" fill="#475569">14742</text>
<line x1="578.0" y1="710" x2="578.0" y2="90" stroke="#cbd5e1" stroke-width="1"/>
<text x="578.0" y="734" text-anchor="middle" font-family="monospace" font-size="11" fill="#475569">2024-03-09</text>
<line x1="90" y1="462.00000000000006" x2="1310" y2="462.00000000000006" stroke="#cbd5e1" stroke-width="1"/>
<text x="78" y="466.00000000000006" text-anchor="end" font-family="monospace" font-size="12" fill="#475569">19699</text>
<line x1="822.0" y1="710" x2="822.0" y2="90" stroke="#cbd5e1" stroke-width="1"/>
<text x="822.0" y="734" text-anchor="middle" font-family="monospace" font-size="11" fill="#475569">2024-11-23</text>
<line x1="90" y1="338.0" x2="1310" y2="338.0" stroke="#cbd5e1" stroke-width="1"/>
<text x="78" y="342.0" text-anchor="end" font-family="monospace" font-size="12" fill="#475569">24656</text>
<line x1="1066.0" y1="710" x2="1066.0" y2="90" stroke="#cbd5e1" stroke-width="1"/>
<text x="1066.0" y="734" text-anchor="middle" font-family="monospace" font-size="11" fill="#475569">2025-08-16</text>
<line x1="90" y1="214.00000000000006" x2="1310" y2="214.00000000000006" stroke="#cbd5e1" stroke-width="1"/>
<text x="78" y="218.00000000000006" text-anchor="end" font-family="monospace" font-size="12" fill="#475569">29613</text>
<line x1="1310.0" y1="710" x2="1310.0" y2="90" stroke="#cbd5e1" stroke-width="1"/>
<text x="1310.0" y="734" text-anchor="middle" font-family="monospace" font-size="11" fill="#475569">2026-05-02</text>
<line x1="90" y1="90.0" x2="1310" y2="90.0" stroke="#cbd5e1" stroke-width="1"/>
<text x="78" y="94.0" text-anchor="end" font-family="monospace" font-size="12" fill="#475569">34570</text>
<text x="700.0" y="782" text-anchor="middle" font-family="monospace" font-size="16" fill="#0f172a">time</text>
<text x="24" y="400.0" transform="rotate(-90 24,400.0)" text-anchor="middle" font-family="monospace" font-size="16" fill="#0f172a">portfolio_value_usd</text>
<line x1="970" y1="80" x2="988" y2="80" stroke="#0f766e" stroke-width="3"/>
<text x="998" y="84" font-family="monospace" font-size="12" fill="#0f172a">static_50_50_rebalance</text>
<line x1="970" y1="104" x2="988" y2="104" stroke="#dc2626" stroke-width="3"/>
<text x="998" y="108" font-family="monospace" font-size="12" fill="#0f172a">target_50_50_with_cash_band</text>
<line x1="970" y1="128" x2="988" y2="128" stroke="#2563eb" stroke-width="3"/>
<text x="998" y="132" font-family="monospace" font-size="12" fill="#0f172a">narrow_cash_band_rebalance</text>
<line x1="970" y1="152" x2="988" y2="152" stroke="#7c3aed" stroke-width="3"/>
<text x="998" y="156" font-family="monospace" font-size="12" fill="#0f172a">drawdown_tilt_rebalance</text>
<line x1="970" y1="176" x2="988" y2="176" stroke="#b45309" stroke-width="3"/>
<text x="998" y="180" font-family="monospace" font-size="12" fill="#0f172a">btc_defensive_eth_aggressive</text>
<polyline points="90.0,704.6342642239238 96.524064171123,704.6132464497073 103.04812834224599,704.8581391358365 109.57219251336899,704.5802234467302 116.09625668449198,701.3912153894883 122.62032085561498,701.0223489413969 129.14438502673798,708.4429122457849 135.66844919786095,709.0312940144596 142.19251336898395,709.4440578018313 148.71657754010695,708.3056505460053 155.24064171122996,707.4980119063351 161.76470588235293,709.6748197146819 168.28877005347596,708.8154840970303 174.81283422459893,710.0 181.3368983957219,707.3328215084373 187.86096256684493,690.5785048426999 194.3850267379679,684.1561682780598 200.9090909090909,685.3562087575837 207.4331550802139,681.4259238382106 213.9572192513369,689.6767365621234 220.48128342245988,676.6505987135178 227.00534759358288,684.4675931467516 233.52941176470588,687.8993697411709 240.05347593582889,696.5118993544584 246.5775401069519,664.6631190643574 253.1016042780749,663.9300991065242 259.62566844919786,657.1030604090018 266.14973262032083,657.4857420115271 272.6737967914438,637.4479161617671 279.1978609625669,657.234874626369 285.72192513368987,650.2718857979299 292.24598930481284,652.0277578688984 298.7700534759358,665.6994116432342 305.29411764705884,663.1065390750033 311.8181818181818,663.4788168412085 318.34224598930484,659.0187056670525 324.8663101604278,672.4690923998548 331.3903743315508,671.2268054733504 337.9144385026738,644.6697857092234 344.4385026737968,641.4279964562663 350.96256684491976,646.423361868509 357.4866310160428,642.0524325639013 364.01069518716577,648.3768469251522 370.5347593582888,649.2684520390477 377.05882352941177,653.5461882675075 383.58288770053474,651.0697266508234 390.10695187165777,676.5701526029233 396.63101604278074,678.4817215523135 403.1550802139038,679.708324626515 409.67914438502675,679.6942863076794 416.2032085561498,676.8608759771897 422.7272727272727,679.590237226136 429.2513368983957,672.7375479746188 435.77540106951875,670.9497072521397 442.2994652406417,681.0631722265194 448.8235294117647,663.2848845902166 455.34759358288767,636.2733597002131 461.8716577540107,626.6550043546769 468.3957219251337,604.9081127791272 474.91978609625664,613.2308002747995 481.4438502673797,600.3132742410253 487.9679144385027,588.4078175109455 494.4919786096257,560.5849634094845 501.0160427807487,573.7658949147846 507.5401069518716,562.742114740503 514.0641711229946,569.7229245381976 520.5882352941177,566.3271247556039 527.1122994652407,547.4378858694697 533.6363636363636,558.7969039286208 540.1604278074866,570.2436879875313 546.6844919786097,565.1497162189692 553.2085561497327,534.0502635999221 559.7326203208556,500.88139330807155 566.2566844919786,487.6064832591127 572.7807486631016,422.29671368793146 579.3048128342245,368.751076980921 585.8288770053476,404.159932480209 592.3529411764705,420.2512854421137 598.8770053475936,390.07464983103114 605.4010695187166,402.2552565250889 611.9251336898395,440.14979973973027 618.4491978609626,427.6114344188152 624.9732620320856,426.29685048595906 631.4973262032086,433.59541725935 638.0213903743315,457.30598796743135 644.5454545454545,423.09258131917477 651.0695187165776,373.23971874171605 657.5935828877006,374.2512674494531 664.1176470588235,377.2988709350847 670.6417112299465,394.7862680611812 677.1657754010695,405.9015019957021 683.6898395721926,424.8260599196465 690.2139037433155,453.0896768821152 696.7379679144385,442.76576760942567 703.2620320855615,393.47035343519855 709.7860962566846,408.22262112086 716.3101604278075,454.6024996767817 722.8342245989304,472.82462783938627 729.3582887700535,477.2095877396439 735.8823529411765,451.7079037380995 742.4064171122996,485.80488390384653 748.9304812834225,517.7398395524759 755.4545454545454,488.7356603388546 761.9786096256685,464.2215282949658 768.5026737967914,451.8792665944292 775.0267379679144,482.82543113236045 781.5508021390375,474.7797368021933 788.0748663101604,445.98788471243563 794.5989304812834,462.8920699839913 801.1229946524064,454.83402967973007 807.6470588235294,383.6822772560286 814.1711229946525,342.0929761524588 820.6951871657753,301.77557476791407 827.2192513368983,281.71787021439985 833.7433155080214,250.2022111639315 840.2673796791444,255.57761904667626 846.7914438502675,305.6942046728829 853.3155080213903,306.9646909050857 859.8395721925133,279.47201726797886 866.3636363636364,317.1123288363882 872.8877005347593,288.64643356035447 879.4117647058824,286.7815663299856 885.9358288770054,312.79108962502244 892.4598930481283,360.7245857688464 898.9839572192514,353.1531684064183 905.5080213903743,350.1690199398332 912.0320855614974,420.1783217812297 918.5561497326204,420.8002534310648 925.0802139037432,447.17856405270595 931.6042780748663,444.8396835924944 938.1283422459893,460.78838874843643 944.6524064171123,460.57568717495604 951.1764705882354,470.41610874803246 957.7005347593582,473.62563430861053 964.2245989304813,432.7242568784439 970.7486631016043,428.89370292976014 977.2727272727273,339.14735065626616 983.7967914438503,353.0111955477197 990.3208556149732,337.2696690446389 996.8449197860962,344.61292517315917 1003.3689839572193,342.67489649729333 1009.8930481283422,342.4667244109522 1016.4171122994653,372.81379415862585 1022.9411764705882,347.2156572995375 1029.4652406417113,337.2830554132095 1035.9893048128342,274.1666588864383 1042.5133689839572,211.11462809831028 1049.0374331550802,197.73040788628725 1055.5614973262032,240.21337698597137 1062.0855614973261,157.28004837762785 1068.609625668449,142.01212462804824 1075.133689839572,120.06569247851019 1081.6577540106953,165.44488604286335 1088.1818181818182,169.35287685342632 1094.705882352941,126.24437204279218 1101.2299465240642,140.20628972996292 1107.7540106951872,188.94830124404268 1114.2780748663101,122.21058980888859 1120.802139037433,206.52475168857194 1127.326203208556,205.3460821352333 1133.850267379679,188.92796309467917 1140.374331550802,199.3883018405989 1146.8983957219252,255.8961561873051 1153.4224598930482,291.9352671655256 1159.9465240641712,352.17879536253326 1166.4705882352941,317.96752921573096 1172.9946524064171,318.39616512694596 1179.51871657754,309.5573801774964 1186.042780748663,326.2085200374167 1192.566844919786,330.12531045993273 1199.090909090909,307.41430045411596 1205.614973262032,311.58255200332235 1212.1390374331552,279.26538401144313 1218.6631016042782,326.1085857089346 1225.1871657754011,397.25170037369156 1231.711229946524,454.50813702152243 1238.235294117647,453.0219555166138 1244.75935828877,468.0161739305822 1251.283422459893,471.57766933508475 1257.8074866310162,470.3012535758836 1264.331550802139,447.3669490440493 1270.855614973262,455.11739428977256 1277.3796791443851,471.0996464885102 1283.903743315508,461.4879423758364 1290.427807486631,423.6695232085815 1296.951871657754,409.79554339897226 1303.475935828877,407.1836467694761 1310.0,404.5245485848625" fill="none" stroke="#0f766e" stroke-width="2.5"><title>static_50_50_rebalance | end=2026-05-02 | return=119.97%</title></polyline>
<polyline points="90.0,704.6342642239238 96.524064171123,704.6132464497073 103.04812834224599,704.8581391358365 109.57219251336899,704.5802234467302 116.09625668449198,701.3912153894883 122.62032085561498,701.0223489413969 129.14438502673798,708.4429122457849 135.66844919786095,709.0312940144596 142.19251336898395,709.4440578018313 148.71657754010695,708.3056505460053 155.24064171122996,707.4980119063351 161.76470588235293,709.6748197146819 168.28877005347596,708.8154840970303 174.81283422459893,710.0 181.3368983957219,707.3328215084373 187.86096256684493,690.5785048426999 194.3850267379679,684.1561682780598 200.9090909090909,685.3562087575837 207.4331550802139,681.4259238382106 213.9572192513369,689.6767365621234 220.48128342245988,676.6505987135178 227.00534759358288,684.4675931467516 233.52941176470588,687.8993697411709 240.05347593582889,696.5118993544584 246.5775401069519,664.6631190643574 253.1016042780749,663.9300991065242 259.62566844919786,657.1030604090018 266.14973262032083,657.4857420115271 272.6737967914438,637.6242699793995 279.1978609625669,657.2246302537554 285.72192513368987,650.5306085761532 292.24598930481284,652.1711171924998 298.7700534759358,665.1395959544666 305.29411764705884,662.6590849032555 311.8181818181818,662.8941225327068 318.34224598930484,659.57015724772 324.8663101604278,667.946339300181 331.3903743315508,667.2047184146552 337.9144385026738,650.1147376290335 344.4385026737968,648.2619300741658 350.96256684491976,650.9081152782608 357.4866310160428,648.6741657340174 364.01069518716577,651.8380259579924 370.5347593582888,652.2813614153283 377.05882352941177,654.4039056725488 383.58288770053474,653.1721673645354 390.10695187165777,665.8448399737592 396.63101604278074,666.8290819119636 403.1550802139038,667.4831205433701 409.67914438502675,667.4755531567243 416.2032085561498,665.8458719700342 422.7272727272727,667.4692305550079 429.2513368983957,663.2515216047752 435.77540106951875,662.052702695411 442.2994652406417,668.7878597957141 448.8235294117647,656.4043938927036 455.34759358288767,636.9208114506239 461.8716577540107,629.9458245731805 468.3957219251337,616.6932861749838 474.91978609625664,621.2283419003309 481.4438502673797,614.5406277833888 487.9679144385027,608.5899797923447 494.4919786096257,595.0586791911771 501.0160427807487,601.2706045159788 507.5401069518716,596.1152479719711 514.0641711229946,599.3453015429482 520.5882352941177,597.7752617515971 527.1122994652407,589.0730812785786 533.6363636363636,594.2681299602169 540.1604278074866,599.4685569919709 546.6844919786097,597.1195279255747 553.2085561497327,582.8125799938787 559.7326203208556,567.850626596641 566.2566844919786,562.0259028382775 572.7807486631016,533.9654621194479 579.3048128342245,511.86464327037197 585.8288770053476,525.8766274055165 592.3529411764705,532.1940431943375 598.8770053475936,519.9583364821541 605.4010695187166,524.7531412186343 611.9251336898395,540.1424332962847 618.4491978609626,534.9652853835441 624.9732620320856,534.5520707796658 631.4973262032086,537.6564731263583 638.0213903743315,548.2567661800931 644.5454545454545,532.4771572658459 651.0695187165776,509.6224876244038 657.5935828877006,510.15501981339685 664.1176470588235,511.2993802937861 670.6417112299465,518.245433627702 677.1657754010695,522.6187669172189 683.6898395721926,530.0670875487446 690.2139037433155,541.4677435781953 696.7379679144385,537.2123906036726 703.2620320855615,516.3726151168846 709.7860962566846,522.3591349240824 716.3101604278075,541.9062353828327 722.8342245989304,549.5558895260849 729.3582887700535,551.6025780129695 735.8823529411765,539.8177348319 742.4064171122996,555.8645682075819 748.9304812834225,571.21616863376 755.4545454545454,556.7025289453511 761.9786096256685,544.42233163724 768.5026737967914,537.885854735985 775.0267379679144,553.9630344406206 781.5508021390375,549.6475913692992 788.0748663101604,533.5103502008789 794.5989304812834,542.5612059823292 801.1229946524064,537.4638663131161 807.6470588235294,497.5946728274498 814.1711229946525,472.48978336644757 820.6951871657753,450.0644417647934 827.2192513368983,439.40593396096284 833.7433155080214,424.8182630268524 840.2673796791444,427.0672359210585 846.7914438502675,447.0531402912836 853.3155080213903,447.6362675839285 859.8395721925133,436.2140564867165 866.3636363636364,451.24631564706937 872.8877005347593,439.377387573623 879.4117647058824,438.58977378738075 885.9358288770054,449.82812518764626 892.4598930481283,470.54080462114325 898.9839572192514,467.1230132038364 905.5080213903743,466.00205818855073 912.0320855614974,498.8433362892033 918.5561497326204,499.0862521520428 925.0802139037432,511.5269880189752 931.6042780748663,510.5556386278706 938.1283422459893,518.4124184342553 944.6524064171123,518.0724514771138 951.1764705882354,522.3780654592165 957.7005347593582,524.0434231710639 964.2245989304813,499.87246465224996 970.7486631016043,497.4576175125908 977.2727272727273,447.32552405218246 983.7967914438503,455.2180451575381 990.3208556149732,445.2881256190547 996.8449197860962,450.18625136343155 1003.3689839572193,448.8583817831443 1009.8930481283422,448.78187088627635 1016.4171122994653,466.6537233808667 1022.9411764705882,450.9236094294522 1029.4652406417113,445.03875263905013 1035.9893048128342,406.4549263127503 1042.5133689839572,370.462768939867 1049.0374331550802,363.92968819325307 1055.5614973262032,383.03111545009443 1062.0855614973261,345.33407683998666 1068.609625668449,338.85297080521644 1075.133689839572,330.2911121905723 1081.6577540106953,348.7511425501584 1088.1818181818182,350.0532384280979 1094.705882352941,332.62240599019367 1101.2299465240642,337.96373380400445 1107.7540106951872,357.1894943790175 1114.2780748663101,329.9694619254643 1120.802139037433,363.0248061945632 1127.326203208556,362.87375233448483 1133.850267379679,356.0712486091638 1140.374331550802,360.35375949402913 1146.8983957219252,383.6970058396732 1153.4224598930482,398.94063053241496 1159.9465240641712,424.74232550895624 1166.4705882352941,409.8678078813976 1172.9946524064171,410.1794779833072 1179.51871657754,406.2818122217316 1186.042780748663,413.7239665238717 1192.566844919786,415.50487907481613 1199.090909090909,405.0411716020046 1205.614973262032,406.9707762410232 1212.1390374331552,391.4425784599319 1218.6631016042782,414.4333776891898 1225.1871657754011,450.03074375999887 1231.711229946524,479.2725921221315 1238.235294117647,478.46595768722 1244.75935828877,486.28580222917606 1251.283422459893,488.26033324020426 1257.8074866310162,487.5496379433664 1264.331550802139,474.7685458660594 1270.855614973262,479.37130912317275 1277.3796791443851,488.53076444782033 1283.903743315508,483.0795904825109 1290.427807486631,460.84000017572964 1296.951871657754,452.35738039598664 1303.475935828877,450.41773448453773 1310.0,448.5867956435876" fill="none" stroke="#dc2626" stroke-width="2.5"><title>target_50_50_with_cash_band | end=2026-05-02 | return=102.35%</title></polyline>
<polyline points="90.0,704.6342642239238 96.524064171123,704.6132464497073 103.04812834224599,704.8581391358365 109.57219251336899,704.5802234467302 116.09625668449198,701.3912153894883 122.62032085561498,701.0223489413969 129.14438502673798,708.4429122457849 135.66844919786095,709.0312940144596 142.19251336898395,709.4440578018313 148.71657754010695,708.3056505460053 155.24064171122996,707.4980119063351 161.76470588235293,709.6748197146819 168.28877005347596,708.8154840970303 174.81283422459893,710.0 181.3368983957219,707.3328215084373 187.86096256684493,690.5785048426999 194.3850267379679,684.1561682780598 200.9090909090909,685.3562087575837 207.4331550802139,681.4259238382106 213.9572192513369,689.6767365621234 220.48128342245988,676.6505987135178 227.00534759358288,684.4675931467516 233.52941176470588,687.8993697411709 240.05347593582889,696.5118993544584 246.5775401069519,664.6631190643574 253.1016042780749,663.9300991065242 259.62566844919786,657.1030604090018 266.14973262032083,657.4857420115271 272.6737967914438,637.6313257986078 279.1978609625669,657.224220382044 285.72192513368987,650.5259303442972 292.24598930481284,652.1711497960943 298.7700534759358,665.1683425194026 305.29411764705884,662.6789221230026 311.8181818181818,662.9710266897611 318.34224598930484,658.7699182490999 324.8663101604278,670.6993536238829 331.3903743315508,669.6794859657367 337.9144385026738,645.9275815462012 344.4385026737968,643.1140901065521 350.96256684491976,647.3201520364462 357.4866310160428,643.7057633334142 364.01069518716577,648.8945558999923 370.5347593582888,649.6245081303173 377.05882352941177,653.107955314498 383.58288770053474,651.0931071614692 390.10695187165777,671.8277726399705 396.63101604278074,673.4100864875215 403.1550802139038,674.444754714871 409.67914438502675,674.43290998362 416.2032085561498,671.9291996723181 422.7272727272727,674.3887671179733 429.2513368983957,668.0779029252953 435.77540106951875,666.2988674113795 442.2994652406417,676.1580990534526 448.8235294117647,658.2087796284942 455.34759358288767,632.3156080519339 461.8716577540107,623.1652770373289 468.3957219251337,603.5223501106881 474.91978609625664,610.8044578803847 481.4438502673797,599.815384889448 487.9679144385027,589.8727940316253 494.4919786096257,566.9000424867708 501.0160427807487,577.6803160351474 507.5401069518716,568.7230447922235 514.0641711229946,574.3685050910375 520.5882352941177,571.6370491632247 527.1122994652407,556.4932684011333 533.6363636363636,565.6553681097718 540.1604278074866,574.8706949148827 546.6844919786097,570.7705912156425 553.2085561497327,545.8005763206439 559.7326203208556,519.3189800797361 566.2566844919786,508.807302885249 572.7807486631016,457.3873247084541 579.3048128342245,415.642777485331 585.8288770053476,442.93267484679734 592.3529411764705,455.2307886577461 598.8770053475936,431.7313069782231 605.4010695187166,441.0262458433423 611.9251336898395,470.52131709987947 618.4491978609626,460.76179188133926 624.9732620320856,460.0494289152874 631.4973262032086,465.71474388347 638.0213903743315,484.98918806004616 644.5454545454545,456.5904916998844 651.0695187165776,416.18296875708086 657.5935828877006,417.2121285090498 664.1176470588235,419.4367718862983 670.6417112299465,433.04111730278504 677.1657754010695,441.5837784398679 683.6898395721926,456.0434984560935 690.2139037433155,477.8639058940016 696.7379679144385,469.83933267888324 703.2620320855615,431.0806280778812 709.7860962566846,442.4871434808434 716.3101604278075,479.31427901860366 722.8342245989304,493.4823500828976 729.3582887700535,497.2477814288207 735.8823529411765,475.93105141238277 742.4064171122996,503.50437533384087 748.9304812834225,529.5700392962036 755.4545454545454,505.4628079163234 761.9786096256685,485.06306320527676 768.5026737967914,474.42092023468274 775.0267379679144,499.79401744418976 781.5508021390375,493.09722457562776 788.0748663101604,468.62804524181615 794.5989304812834,482.48212987004126 801.1229946524064,475.92656500915996 807.6470588235294,418.1599046716887 814.1711229946525,384.7886997079736 820.6951871657753,350.4186800785867 827.2192513368983,333.12460481178334 833.7433155080214,307.1064432206419 840.2673796791444,311.42995319600135 846.7914438502675,350.4377769892089 853.3155080213903,351.5411862515333 859.8395721925133,329.7766734061579 866.3636363636364,358.944781105796 872.8877005347593,336.17468860454665 879.4117647058824,334.6809891323951 885.9358288770054,355.76978133368846 892.4598930481283,394.17280664521223 898.9839572192514,388.10798784285487 905.5080213903743,385.8081256170824 912.0320855614974,440.8112937731129 918.5561497326204,441.3092979767998 925.0802139037432,462.15536999713925 931.6042780748663,460.26850800777356 938.1283422459893,473.0015278074957 944.6524064171123,472.8106483989436 951.1764705882354,480.62905471903025 957.7005347593582,483.25336795805686 964.2245989304813,448.2438230226962 970.7486631016043,445.02494754714706 977.2727272727273,371.49120864373026 983.7967914438503,382.8074030332552 990.3208556149732,370.19636755632274 996.8449197860962,375.90699594348 1003.3689839572193,374.437553250861 1009.8930481283422,374.2356958912092 1016.4171122994653,399.3444644219795 1022.9411764705882,378.599614537741 1029.4652406417113,370.3090267678743 1035.9893048128342,317.87024232229334 1042.5133689839572,261.3565268357225 1049.0374331550802,249.8723419675863 1055.5614973262032,284.2934761232325 1062.0855614973261,215.23203515113573 1068.609625668449,202.84477566138867 1075.133689839572,185.17572535097554 1081.6577540106953,220.73457930573414 1088.1818181818182,223.75900936960164 1094.705882352941,190.49718268894253 1101.2299465240642,201.15371621993307 1107.7540106951872,238.48362936041565 1114.2780748663101,186.9293338840863 1120.802139037433,251.49882965210014 1127.326203208556,250.89528501957096 1133.850267379679,238.07405703751243 1140.374331550802,246.16441552348016 1146.8983957219252,289.90702449107823 1153.4224598930482,318.0302268613251 1159.9465240641712,365.148976684284 1166.4705882352941,338.3041899782898 1172.9946524064171,338.7602290784576 1179.51871657754,331.8313318944917 1186.042780748663,344.92723536782506 1192.566844919786,348.026573873484 1199.090909090909,329.9764935642798 1205.614973262032,333.29396468488255 1212.1390374331552,307.0088361957505 1218.6631016042782,345.6770276207909 1225.1871657754011,404.9845600946648 1231.711229946524,453.19954713564425 1238.235294117647,451.8967276100538 1244.75935828877,464.5588507359705 1251.283422459893,467.70433355487773 1257.8074866310162,466.5803080424555 1264.331550802139,446.50928861963627 1270.855614973262,453.65787507645996 1277.3796791443851,467.8143793244079 1283.903743315508,459.4483514640742 1290.427807486631,425.60502925225256 1296.951871657754,412.7875053624615 1303.475935828877,409.88594472272393 1310.0,407.15546956450214" fill="none" stroke="#2563eb" stroke-width="2.5"><title>narrow_cash_band_rebalance | end=2026-05-02 | return=118.92%</title></polyline>
<polyline points="90.0,704.6342642239238 96.524064171123,704.6132464497073 103.04812834224599,704.8581391358365 109.57219251336899,704.5802234467302 116.09625668449198,701.3912153894883 122.62032085561498,701.0223489413969 129.14438502673798,708.4429122457849 135.66844919786095,709.0312940144596 142.19251336898395,709.4440578018313 148.71657754010695,708.3056505460053 155.24064171122996,707.4980119063351 161.76470588235293,709.6748197146819 168.28877005347596,708.8154840970303 174.81283422459893,710.0 181.3368983957219,707.3328215084373 187.86096256684493,690.5785048426999 194.3850267379679,684.1561682780598 200.9090909090909,685.3562087575837 207.4331550802139,681.4259238382106 213.9572192513369,689.6767365621234 220.48128342245988,676.6505987135178 227.00534759358288,684.4675931467516 233.52941176470588,687.8993697411709 240.05347593582889,696.5118993544584 246.5775401069519,664.6631190643574 253.1016042780749,663.9300991065242 259.62566844919786,657.1030604090018 266.14973262032083,657.4857420115271 272.6737967914438,637.4479161617671 279.1978609625669,657.234874626369 285.72192513368987,650.2718857979299 292.24598930481284,652.0277578688984 298.7700534759358,665.6994116432342 305.29411764705884,663.1065390750033 311.8181818181818,663.435085695778 318.34224598930484,659.3533923854404 324.8663101604278,670.6791228041778 331.3903743315508,669.6003652356208 337.9144385026738,646.7212028854917 344.4385026737968,644.0038448046919 350.96256684491976,648.0201070864749 357.4866310160428,644.4411882974898 364.01069518716577,649.3240508900851 370.5347593582888,649.8629968099856 377.05882352941177,653.1456146194602 383.58288770053474,651.3122244334976 390.10695187165777,670.3488296212636 396.63101604278074,671.8641615401787 403.1550802139038,672.824203247285 409.67914438502675,672.8236975720771 416.2032085561498,670.6194052115086 422.7272727272727,673.0338664894285 429.2513368983957,666.9862916806429 435.77540106951875,665.6170483262274 442.2994652406417,674.6932562194705 448.8235294117647,658.7101992227126 455.34759358288767,634.8661697583964 461.8716577540107,626.1155390586612 468.3957219251337,607.5435053256135 474.91978609625664,614.3770129926006 481.4438502673797,604.2231624502089 487.9679144385027,595.195096693763 494.4919786096257,574.3951727958779 501.0160427807487,584.1536219012577 507.5401069518716,576.0505748675557 514.0641711229946,581.118785680861 520.5882352941177,578.6567049125633 527.1122994652407,564.625141725215 533.6363636363636,572.7357494826343 540.1604278074866,580.6866817609514 546.6844919786097,577.0556894986687 553.2085561497327,554.9671049995761 559.7326203208556,531.316717041079 566.2566844919786,521.8129507177506 572.7807486631016,475.98073144652403 579.3048128342245,438.951052739916 585.8288770053476,463.00896426276927 592.3529411764705,473.9320021802009 598.8770053475936,453.2078500809004 605.4010695187166,461.5285414815129 611.9251336898395,487.515108705375 618.4491978609626,478.7856879328274 624.9732620320856,477.86757184981184 631.4973262032086,483.1283677471853 638.0213903743315,500.23205716790125 644.5454545454545,475.26571219240117 651.0695187165776,438.7904919337169 657.5935828877006,439.4248554515655 664.1176470588235,441.520764493091 670.6417112299465,453.3878660414982 677.1657754010695,460.87353283769596 683.6898395721926,473.5984392616241 690.2139037433155,493.09557623168314 696.7379679144385,485.9140915773627 703.2620320855615,451.5213313569173 709.7860962566846,462.1260419307256 716.3101604278075,494.76364607356277 722.8342245989304,507.86082598249334 729.3582887700535,511.0868483644198 735.8823529411765,492.2000756637731 742.4064171122996,517.6981403464175 748.9304812834225,541.8354479803995 755.4545454545454,519.4855209872295 761.9786096256685,500.89150625172795 768.5026737967914,491.47296682303033 775.0267379679144,514.7708471907988 781.5508021390375,508.72459180860346 788.0748663101604,487.1520885555806 794.5989304812834,499.8659297591982 801.1229946524064,494.10875514097893 807.6470588235294,441.3544523580049 814.1711229946525,413.5567419924039 820.6951871657753,384.0394216248146 827.2192513368983,367.2525037164118 833.7433155080214,344.30189487066247 840.2673796791444,348.4939942386129 846.7914438502675,382.92408091843043 853.3155080213903,383.52615611061987 859.8395721925133,364.40439207030056 866.3636363636364,390.0791557749874 872.8877005347593,371.04889636125614 879.4117647058824,369.7641978487476 885.9358288770054,387.77550107772225 892.4598930481283,421.2946134877845 898.9839572192514,415.9764303164179 905.5080213903743,413.8188008830153 912.0320855614974,463.70787020634333 918.5561497326204,464.1586158978718 925.0802139037432,483.1878200951278 931.6042780748663,481.494922585288 938.1283422459893,493.2158262183617 944.6524064171123,493.0269143544394 951.1764705882354,500.28711609033354 957.7005347593582,502.66421102712263 964.2245989304813,473.1618323172886 970.7486631016043,470.4707072231588 977.2727272727273,404.29369870435244 983.7967914438503,414.4416655263585 990.3208556149732,403.6951399790589 996.8449197860962,408.4021310730726 1003.3689839572193,407.1977970762401 1009.8930481283422,406.9876715537778 1016.4171122994653,429.8850446024331 1022.9411764705882,411.3970347906621 1029.4652406417113,403.8372963179048 1035.9893048128342,356.65211693534104 1042.5133689839572,303.8004621967236 1049.0374331550802,293.19352249261533 1055.5614973262032,323.70888220364077 1062.0855614973261,261.4659684307625 1068.609625668449,250.7293838178494 1075.133689839572,235.25520340412595 1081.6577540106953,265.14427985780424 1088.1818181818182,267.6878109319923 1094.705882352941,239.36049606680297 1101.2299465240642,248.38776515873406 1107.7540106951872,280.31149795784455 1114.2780748663101,236.24706085037377 1120.802139037433,291.51007152234575 1127.326203208556,290.7086006541412 1133.850267379679,279.86263879960626 1140.374331550802,286.81057549794946 1146.8983957219252,324.51124636720675 1153.4224598930482,348.6563611472524 1159.9465240641712,389.2172405651008 1166.4705882352941,366.05895234503225 1172.9946524064171,366.3383664300943 1179.51871657754,360.2924381221865 1186.042780748663,371.7334760316946 1192.566844919786,374.4410714367547 1199.090909090909,358.62919611396103 1205.614973262032,361.5637034621463 1212.1390374331552,338.5205301104217 1218.6631016042782,372.54010697200056 1225.1871657754011,424.69996362059527 1231.711229946524,467.1015832902374 1238.235294117647,465.977148221089 1244.75935828877,477.2061775937293 1251.283422459893,479.95662945429046 1257.8074866310162,478.9669788964217 1264.331550802139,461.16156134691124 1270.855614973262,467.4359858603905 1277.3796791443851,480.05114131703147 1283.903743315508,472.536151539705 1290.427807486631,442.2520673479009 1296.951871657754,430.8074410825137 1303.475935828877,428.32843225765583 1310.0,425.9256733179582" fill="none" stroke="#7c3aed" stroke-width="2.5"><title>drawdown_tilt_rebalance | end=2026-05-02 | return=111.41%</title></polyline>
<polyline points="90.0,704.6342642239238 96.524064171123,704.6132464497073 103.04812834224599,704.8581391358365 109.57219251336899,704.5802234467302 116.09625668449198,701.3912153894883 122.62032085561498,701.0223489413969 129.14438502673798,708.4429122457849 135.66844919786095,709.0312940144596 142.19251336898395,709.4440578018313 148.71657754010695,708.3056505460053 155.24064171122996,707.4980119063351 161.76470588235293,709.6748197146819 168.28877005347596,708.8154840970303 174.81283422459893,710.0 181.3368983957219,707.3328215084373 187.86096256684493,690.5785048426999 194.3850267379679,684.1561682780598 200.9090909090909,685.3562087575837 207.4331550802139,681.4259238382106 213.9572192513369,689.6767365621234 220.48128342245988,676.6505987135178 227.00534759358288,684.4675931467516 233.52941176470588,687.8993697411709 240.05347593582889,696.5118993544584 246.5775401069519,664.6631190643574 253.1016042780749,663.9300991065242 259.62566844919786,657.1030604090018 266.14973262032083,657.4921420598466 272.6737967914438,637.5090746891616 279.1978609625669,657.239109521478 285.72192513368987,650.2851252663344 292.24598930481284,652.0380160454422 298.7700534759358,665.6120253468671 305.29411764705884,663.0592413373433 311.8181818181818,663.4609688023799 318.34224598930484,659.2545593911534 324.8663101604278,671.8897172241088 331.3903743315508,670.7528029847716 337.9144385026738,646.2570089434861 344.4385026737968,643.3766315720179 350.96256684491976,647.8695076316292 357.4866310160428,644.1222647779032 364.01069518716577,649.9165029914997 370.5347593582888,651.0689902059396 377.05882352941177,654.9940376263306 383.58288770053474,652.5072571663327 390.10695187165777,677.8942202433451 396.63101604278074,679.546357836586 403.1550802139038,680.7057064366566 409.67914438502675,680.6501496358381 416.2032085561498,677.4721495763539 422.7272727272727,679.5125963891445 429.2513368983957,673.7731166689811 435.77540106951875,670.8468716647209 442.2994652406417,680.1726642434174 448.8235294117647,662.0727154095905 455.34759358288767,634.5888890914955 461.8716577540107,625.3981711521699 468.3957219251337,604.5534747122582 474.91978609625664,612.2882089199635 481.4438502673797,599.5373231118866 487.9679144385027,586.7993441926192 494.4919786096257,556.3901452957323 501.0160427807487,570.0023653854996 507.5401069518716,558.2259550494049 514.0641711229946,566.6957005334302 520.5882352941177,560.8936868587791 527.1122994652407,546.4990151501601 533.6363636363636,558.0840572637621 540.1604278074866,568.4056382139119 546.6844919786097,563.0441813594582 553.2085561497327,530.8344580637312 559.7326203208556,497.43879860819015 566.2566844919786,485.9398350992999 572.7807486631016,417.5751132633566 579.3048128342245,363.15393034714305 585.8288770053476,399.14212803631574 592.3529411764705,415.3939388269432 598.8770053475936,383.7097441077243 605.4010695187166,395.274508014172 611.9251336898395,433.62403786077 618.4491978609626,421.5340495732524 624.9732620320856,422.0873659821918 631.4973262032086,427.88627189065375 638.0213903743315,452.02435167220517 644.5454545454545,414.99658902268095 651.0695187165776,369.0039625049751 657.5935828877006,371.9051863252392 664.1176470588235,372.49714199407487 670.6417112299465,391.71593891743316 677.1657754010695,403.44884857473727 683.6898395721926,423.0116071318665 690.2139037433155,449.2320254929017 696.7379679144385,439.998620195289 703.2620320855615,396.28018419257916 709.7860962566846,408.79138623246763 716.3101604278075,451.5815164939171 722.8342245989304,466.5400156957505 729.3582887700535,471.09238186503865 735.8823529411765,446.83583104163614 742.4064171122996,478.9388477346017 748.9304812834225,509.02120084560937 755.4545454545454,480.2599780558287 761.9786096256685,457.17712319858924 768.5026737967914,444.77270354729535 775.0267379679144,473.6357978112128 781.5508021390375,466.0033798939654 788.0748663101604,437.64497013075186 794.5989304812834,452.56003173080154 801.1229946524064,443.294371791041 807.6470588235294,377.255329861496 814.1711229946525,325.9929431756181 820.6951871657753,283.5961470317032 827.2192513368983,268.54538001749114 833.7433155080214,237.45638053530712 840.2673796791444,240.31187890593856 846.7914438502675,288.67138889871046 853.3155080213903,292.2968718835845 859.8395721925133,264.77136407378066 866.3636363636364,301.78332262492734 872.8877005347593,265.3191695374197 879.4117647058824,263.3425294201789 885.9358288770054,290.8350082164516 892.4598930481283,337.496264970363 898.9839572192514,329.5889467441256 905.5080213903743,328.1240819114651 912.0320855614974,401.4042729095835 918.5561497326204,401.7426443202882 925.0802139037432,427.02072683269796 931.6042780748663,425.500659353327 938.1283422459893,440.7544561924095 944.6524064171123,439.83387706191183 951.1764705882354,447.21061070726023 957.7005347593582,450.2107897534317 964.2245989304813,406.98481195647526 970.7486631016043,402.6461826216793 977.2727272727273,315.01148391738 983.7967914438503,328.7201303427985 990.3208556149732,310.86108442333585 996.8449197860962,320.05795100073544 1003.3689839572193,317.50664444810064 1009.8930481283422,317.4571073782329 1016.4171122994653,347.274872343758 1022.9411764705882,319.7344600720932 1029.4652406417113,310.0728677933578 1035.9893048128342,245.00985244919673 1042.5133689839572,186.47650879593357 1049.0374331550802,173.10605802978682 1055.5614973262032,219.4635142691277 1062.0855614973261,130.54657695820913 1068.609625668449,113.74498144172526 1075.133689839572,90.0 1081.6577540106953,141.47112174987512 1088.1818181818182,145.55237021355708 1094.705882352941,97.0597028560071 1101.2299465240642,112.50195345014663 1107.7540106951872,167.23450032532003 1114.2780748663101,91.5486724414784 1120.802139037433,186.16784488386952 1127.326203208556,185.34629522647128 1133.850267379679,168.10920325467475 1140.374331550802,179.29604493984993 1146.8983957219252,236.7761309632379 1153.4224598930482,272.08515113301297 1159.9465240641712,329.6471213400859 1166.4705882352941,297.2146968458254 1172.9946524064171,298.35272602817173 1179.51871657754,290.4876926106713 1186.042780748663,305.12988182135985 1192.566844919786,308.60102144011756 1199.090909090909,288.6401102052041 1205.614973262032,292.0673222852171 1212.1390374331552,263.16821688013965 1218.6631016042782,304.49447846777787 1225.1871657754011,368.78922813773147 1231.711229946524,421.76841519636594 1238.235294117647,420.12353000139024 1244.75935828877,433.58416821865444 1251.283422459893,437.3228325828377 1257.8074866310162,436.03122453286124 1264.331550802139,413.8658737054417 1270.855614973262,422.43043206074515 1277.3796791443851,437.92632152787394 1283.903743315508,429.17555822822925 1290.427807486631,392.5925970094836 1296.951871657754,378.5563148609491 1303.475935828877,374.32434170215663 1310.0,371.04189539686666" fill="none" stroke="#b45309" stroke-width="2.5"><title>btc_defensive_eth_aggressive | end=2026-05-02 | return=133.35%</title></polyline>
</svg>