<svg xmlns="http://www.w3.org/2000/svg" width="1400" height="800">
<rect width="1400" height="800" fill="#f8fafc"/>
<text x="700.0" y="42" text-anchor="middle" font-family="monospace" font-size="24" fill="#0f172a">Portfolio Value Over Time | start=2024-01-01 | interval=7d</text>
<line x1="90" y1="710" x2="1310" y2="710" stroke="#334155" stroke-width="2"/>
<line x1="90" y1="90" x2="90" y2="710" stroke="#334155" stroke-width="2"/>
<line x1="90.0" y1="710" x2="90.0" y2="90" stroke="#cbd5e1" stroke-width="1"/>
<text x="90.0" y="734" text-anchor="middle" font-family="monospace" font-size="11" fill="#475569">2024-01-01</text>
<line x1="90" y1="710.0" x2="1310" y2="710.0" stroke="#cbd5e1" stroke-width="1"/>
<text x="78" y="714.0" text-anchor="end" font-family="monospace" font-size="12" fill="#475569">9004</text>
<line x1="334.0" y1="710" x2="334.0" y2="90" stroke="#cbd5e1" stroke-width="1"/>
<text x="334.0" y="734" text-anchor="middle" font-family="monospace" font-size="11" fill="#475569">2024-06-17</text>
<line x1="90" y1="586.0" x2="1310" y2="586.0" stroke="#cbd5e1" stroke-width="1"/>
<text x="78" y="590.0" text-anchor="end" font-family="monospace" font-size="12" fill="#475569">10733</text>
<line x1="578.0" y1="710" x2="578.0" y2="90" stroke="#cbd5e1" stroke-width="1"/>
<text x="578.0" y="734" text-anchor="middle" font-family="monospace" font-size="11" fill="#475569">2024-12-09</text>
<line x1="90" y1="462.0" x2="1310" y2="462.0" stroke="#cbd5e1" stroke-width="1"/>
<text x="78" y="466.0" text-anchor="end" font-family="monospace" font-size="12" fill="#475569">12461</text>
<line x1="822.0" y1="710" x2="822.0" y2="90" stroke="#cbd5e1" stroke-width="1"/>
<text x="822.0" y="734" text-anchor="middle" font-family="monospace" font-size="11" fill="#475569">2025-05-26</text>
<line x1="90" y1="338.0" x2="1310" y2="338.0" stroke="#cbd5e1" stroke-width="1"/>
<text x="78" y="342.0" text-anchor="end" font-family="monospace" font-size="12" fill="#475569">14189</text>
<line x1="1066.0" y1="710" x2="1066.0" y2="90" stroke="#cbd5e1" stroke-width="1"/>
<text x="1066.0" y="734" text-anchor="middle" font-family="monospace" font-size="11" fill="#475569">2025-11-17</text>
<line x1="90" y1="214.0" x2="1310" y2="214.0" stroke="#cbd5e1" stroke-width="1"/>
<text x="78" y="218.0" text-anchor="end" font-family="monospace" font-size="12" fill="#475569">15918</text>
<line x1="1310.0" y1="710" x2="1310.0" y2="90" stroke="#cbd5e1" stroke-width="1"/>
<text x="1310.0" y="734" text-anchor="middle" font-family="monospace" font-size="11" fill="#475569">2026-05-04</text>
<line x1="90" y1="90.0" x2="1310" y2="90.0" stroke="#cbd5e1" stroke-width="1"/>
<text x="78" y="94.0" text-anchor="end" font-family="monospace" font-size="12" fill="#475569">17646</text>
<text x="700.0" y="782" text-anchor="middle" font-family="monospace" font-size="16" fill="#0f172a">time</text>
<text x="24" y="400.0" transform="rotate(-90 24,400.0)" text-anchor="middle" font-family="monospace" font-size="16" fill="#0f172a">portfolio_value_usd</text>
<line x1="970" y1="80" x2="988" y2="80" stroke="#0f766e" stroke-width="3"/>
<text x="998" y="84" font-family="monospace" font-size="12" fill="#0f172a">static_50_50_rebalance</text>
<line x1="970" y1="104" x2="988" y2="104" stroke="#dc2626" stroke-width="3"/>
<text x="998" y="108" font-family="monospace" font-size="12" fill="#0f172a">target_50_50_with_cash_band</text>
<line x1="970" y1="128" x2="988" y2="128" stroke="#2563eb" stroke-width="3"/>
<text x="998" y="132" font-family="monospace" font-size="12" fill="#0f172a">narrow_cash_band_rebalance</text>
<line x1="970" y1="152" x2="988" y2="152" stroke="#7c3aed" stroke-width="3"/>
<text x="998" y="156" font-family="monospace" font-size="12" fill="#0f172a">drawdown_tilt_rebalance</text>
<line x1="970" y1="176" x2="988" y2="176" stroke="#b45309" stroke-width="3"/>
<text x="998" y="180" font-family="monospace" font-size="12" fill="#0f172a">btc_defensive_eth_aggressive</text>
<polyline points="90.0,638.5515907429678 100.0,638.1632485283687 110.0,638.4950642017751 120.0,641.7138301073098 130.0,639.1244464739099 140.0,639.9443307366246 150.0,626.0388048745584 160.0,617.9579337224061 170.0,608.9807471286219 180.0,577.7589911474169 190.0,560.0868684674393 200.0,583.4173951963048 210.0,577.2787398943442 220.0,580.5097544131868 230.0,570.0645230815529 240.0,608.7951530884624 250.0,597.5864640534281 260.0,603.7761032940396 270.0,612.1497874712021 280.0,617.9582711310297 290.0,561.0851650994243 300.0,554.9527384848546 310.0,563.1489579493783 320.0,566.5858459348174 330.0,584.4953980563955 340.0,613.1624258252647 350.0,599.5203492380083 360.0,646.4546657167357 370.0,587.9736515139762 380.0,580.9647283433969 390.0,592.4472770543761 400.0,705.044306985996 410.0,661.5468031977655 420.0,667.7971174735452 429.99999999999994,650.1939427714948 440.0,677.8481268080662 450.0,702.2178438980768 460.0,702.771442249828 470.0,647.5278618308193 480.0,651.9837879845668 489.99999999999994,674.336092390784 500.0,636.5176302663242 510.0,627.1332435278467 520.0,626.4072890664153 530.0,653.6998324271781 540.0,456.65895785301797 550.0,467.57713596625194 560.0,435.02215788292017 570.0,398.57410613758503 580.0,385.3487491121195 590.0,321.34045845493756 600.0,425.7357488072166 610.0,440.8462613845312 620.0,366.7946699737802 630.0,456.62824747873543 640.0,411.3093921319912 650.0,422.6595790259594 660.0,459.00589863911773 670.0,499.4767177334712 680.0,495.5865594952187 690.0,539.068344797363 700.0,603.9242597723569 710.0,667.2091469231632 720.0,639.746299828812 730.0,606.4641893124067 740.0,659.8273647457727 750.0,710.0 760.0000000000001,681.2518535129803 769.9999999999999,678.4584392379325 780.0,619.9207328299035 790.0,617.7029084945744 800.0,483.53658469590096 810.0,469.58237496840025 820.0,451.83871526996217 830.0,457.0908961963396 840.0,432.2921634884222 850.0,462.75082198542793 860.0,486.0323599004946 870.0,469.81915612578433 880.0000000000001,458.1836024320221 889.9999999999999,352.80577730064095 900.0,257.9478880890978 910.0,251.23284544234411 920.0,271.2216348187692 930.0,198.38415562943362 940.0,196.625724072072 950.0,212.19474572267876 960.0,222.18701461179973 970.0,212.46255357873025 980.0,176.52666633273748 990.0,220.7471425730394 1000.0000000000001,212.7184075467287 1009.9999999999999,121.06849418228046 1020.0,205.5901192921903 1030.0,252.71701941108586 1040.0,223.4437145743343 1050.0,310.05981595281736 1060.0,316.405667667457 1070.0,432.2203580388228 1080.0,456.190892198252 1090.0,482.43922478101626 1100.0,425.2918833999404 1110.0,461.81056293347854 1120.0,447.81841199100705 1130.0,462.61330935149005 1140.0,399.6196932914311 1150.0,426.5617777694325 1160.0,409.4873209913184 1170.0,458.22658193532686 1180.0,567.7269277483222 1190.0,632.2997931074033 1200.0,650.9698529867381 1210.0,686.8699720037109 1220.0,646.344306821818 1230.0,652.7075279623974 1240.0,576.0290892598612 1250.0,619.9994633198485 1260.0,654.4918902975825 1270.0,634.2717354203129 1280.0,574.7945708848239 1290.0,576.3136575353954 1300.0,571.6174311190633 1310.0,555.5173560043982" fill="none" stroke="#0f766e" stroke-width="2.5"><title>static_50_50_rebalance | end=2026-05-04 | return=11.57%</title></polyline>
<polyline points="90.0,638.5515907429678 100.0,638.1632485283687 110.0,638.4950642017751 120.0,641.7138301073098 130.0,639.1244464739099 140.0,639.9443307366246 150.0,626.0388048745584 160.0,617.9579337224061 170.0,608.9807471286219 180.0,577.7589911474169 190.0,560.0868684674393 200.0,583.4173951963048 210.0,577.2787398943442 220.0,580.5097544131868 230.0,570.0645230815529 240.0,608.7951530884624 250.0,597.5864640534281 260.0,603.7761032940396 270.0,612.1497874712021 280.0,617.9582711310297 290.0,561.0851650994243 300.0,555.4603290791406 310.0,562.2665726276325 320.0,564.9194951210184 330.0,578.5969021447186 340.0,599.9758149138831 350.0,589.6792023723381 360.0,625.4634335377618 370.0,580.3611180383142 380.0,575.3724659065913 390.0,583.5652739577546 400.0,664.9567879662101 410.0,633.0589865965208 420.0,637.6901699018896 429.99999999999994,624.4851654971812 440.0,645.428908632259 450.0,664.0734892877165 460.0,664.4905763128687 470.0,620.7913091015721 480.0,624.3097808808046 489.99999999999994,642.3791374738518 500.0,610.5248424190705 510.0,602.6517743914358 520.0,601.6828068771626 530.0,624.1199803053652 540.0,461.2141239197273 550.0,469.39018671619203 560.0,445.9164347650281 570.0,420.3879810408858 580.0,412.50968994330566 590.0,377.8734540075526 600.0,430.83412108082075 610.0,438.73835433045593 620.0,398.81100725058286 630.0,444.6605340055527 640.0,420.48664156287276 650.0,426.4879094854833 660.0,446.1406520398692 670.0,469.53989328276384 680.0,468.01296957914155 690.0,494.43348625857584 700.0,534.3027479095728 710.0,575.5446906888337 720.0,555.8515588949689 730.0,533.1783663494977 740.0,569.9187955217949 750.0,604.2856518311123 760.0000000000001,580.9025577411257 769.9999999999999,576.1422174746803 780.0,529.0428173545303 790.0,527.8221598840332 800.0,428.8809557232241 810.0,416.9656491945477 820.0,401.741487589771 830.0,406.39905253346967 840.0,385.0111028023933 850.0,409.2399850136624 860.0,428.2142930121036 870.0,414.8072089365761 880.0000000000001,405.00500998693207 889.9999999999999,314.57181789844975 900.0,239.282103542384 910.0,234.83530873802545 920.0,246.71912227099176 930.0,206.38064992523624 940.0,205.68121060027704 950.0,214.34356697256487 960.0,219.5264716712789 970.0,214.1927125641527 980.0,195.7721039859075 990.0,217.97855053107276 1000.0000000000001,213.89422277833933 1009.9999999999999,167.89204795770888 1020.0,209.43721734830092 1030.0,232.7596954680855 1040.0,217.91655417909953 1050.0,261.58790488939195 1060.0,264.8704723236977 1070.0,326.554663820611 1080.0,339.73110959229655 1090.0,354.17157596604875 1100.0,322.00355395879797 1110.0,343.5155699618021 1120.0,334.9666764308045 1130.0,344.1855902447746 1140.0,303.69027677197505 1150.0,321.6110726927908 1160.0,309.9715992743652 1170.0,344.2731875224966 1180.0,422.92868972060137 1190.0,470.9949124065863 1200.0,484.78005955072723 1210.0,512.3881712799964 1220.0,480.85630589355515 1230.0,485.7969911466058 1240.0,423.98871433924603 1250.0,461.0274120603244 1260.0,491.27129766742166 1270.0,473.27663909274213 1280.0,419.1215257958031 1290.0,420.0306016571513 1300.0,415.0834643145654 1310.0,398.66944974378544" fill="none" stroke="#dc2626" stroke-width="2.5"><title>target_50_50_with_cash_band | end=2026-05-04 | return=33.44%</title></polyline>
<polyline points="90.0,638.5515907429678 100.0,638.1632485283687 110.0,638.4950642017751 120.0,641.7138301073098 130.0,639.1244464739099 140.0,639.9443307366246 150.0,626.0388048745584 160.0,617.9579337224061 170.0,608.9807471286219 180.0,577.7589911474169 190.0,560.0868684674393 200.0,583.4173951963048 210.0,577.2787398943442 220.0,580.5097544131868 230.0,570.0645230815529 240.0,608.7951530884624 250.0,597.5864640534281 260.0,603.7761032940396 270.0,612.1497874712021 280.0,617.9582711310297 290.0,561.0851650994243 300.0,554.9527384848546 310.0,563.1489579493783 320.0,566.5858459348174 330.0,584.4953980563955 340.0,613.1624258252647 350.0,599.5203492380083 360.0,646.4546657167357 370.0,587.9736515139762 380.0,580.9647283433969 390.0,592.4472770543761 400.0,705.044306985996 410.0,661.5468031977655 420.0,667.7971174735452 429.99999999999994,650.1939427714948 440.0,677.8481268080662 450.0,702.2178438980768 460.0,702.7305523020847 470.0,646.661761644804 480.0,651.1283177457868 489.99999999999994,673.9185714539386 500.0,634.2940216107655 510.0,624.9825856577849 520.0,625.2113198022117 530.0,651.3707663445624 540.0,467.65793114825647 550.0,479.40527881612064 560.0,447.7546269549578 570.0,412.0657300055293 580.0,400.0635749408323 590.0,344.75996159486374 600.0,432.4056701028632 610.0,445.2719560240339 620.0,381.16390730482124 630.0,456.5696314732461 640.0,417.4419049711079 650.0,427.02989270900406 660.0,458.00087366756406 670.0,493.02851064120273 680.0,489.77044960814897 690.0,526.7242464449964 700.0,581.8546010271053 710.0,635.5313572713517 720.0,611.9047552880677 730.0,582.626374668527 740.0,629.162863030111 750.0,673.4729477837559 760.0000000000001,646.8866669217541 769.9999999999999,643.332096086145 780.0,587.4945222081503 790.0,585.5830770919483 800.0,463.04316311310026 810.0,450.14051729927996 820.0,433.93776965362156 830.0,436.74507096479726 840.0,413.185295105561 850.0,443.5225563891387 860.0,467.9118247160743 870.0,451.5916555508056 880.0000000000001,439.5995027722209 889.9999999999999,331.16298681016093 900.0,223.99452730014832 910.0,217.51496876709848 920.0,235.4893438583515 930.0,169.54486900740653 940.0,167.56826671062822 950.0,180.60430622274635 960.0,189.2031653601556 970.0,180.89800399266346 980.0,150.32570307800074 990.0,187.70385157553665 1000.0000000000001,180.93259264601795 1009.9999999999999,104.18299031762206 1020.0,174.5913486770295 1030.0,213.82212774925966 1040.0,189.1832085310042 1050.0,261.80840433158875 1060.0,267.1937048375088 1070.0,366.9552328323673 1080.0,387.99839677007776 1090.0,410.6719944961123 1100.0,360.84393788231966 1110.0,393.8389066546799 1120.0,380.85488469477366 1130.0,394.66849674617526 1140.0,334.5930651933555 1150.0,360.924939556956 1160.0,343.9940467439569 1170.0,393.4913367781132 1180.0,506.01341725279747 1190.0,574.289491174141 1200.0,593.5909137787103 1210.0,631.9990632696242 1220.0,588.6117587727093 1230.0,595.3228265798361 1240.0,512.2927201537307 1250.0,561.5591116934511 1260.0,601.1895214482977 1270.0,577.9104795904894 1280.0,508.68249101379814 1290.0,510.2247392447379 1300.0,504.46266045401865 1310.0,484.9015949121788" fill="none" stroke="#2563eb" stroke-width="2.5"><title>narrow_cash_band_rebalance | end=2026-05-04 | return=21.42%</title></polyline>
<polyline points="90.0,638.5515907429678 100.0,638.1632485283687 110.0,638.4950642017751 120.0,641.7138301073098 130.0,639.1244464739099 140.0,639.9443307366246 150.0,626.0388048745584 160.0,617.9579337224061 170.0,608.9807471286219 180.0,577.7589911474169 190.0,560.0868684674393 200.0,583.4173951963048 210.0,577.2787398943442 220.0,580.5097544131868 230.0,570.0645230815529 240.0,608.7951530884624 250.0,597.5864640534281 260.0,603.7761032940396 270.0,612.1497874712021 280.0,617.9582711310297 290.0,561.0851650994243 300.0,554.9527384848546 310.0,563.1489579493783 320.0,566.5858459348174 330.0,584.4953980563955 340.0,613.1624258252647 350.0,599.5203492380083 360.0,646.4546657167357 370.0,587.9736515139762 380.0,581.2495493023231 390.0,592.5330369847471 400.0,702.8715496784462 410.0,660.2551795781926 420.0,666.4412660950063 429.99999999999994,649.3901521141958 440.0,675.6152912274468 450.0,698.8959762765684 460.0,700.0337656791269 470.0,648.5275894326695 480.0,652.9172923509634 489.99999999999994,674.2948766368587 500.0,639.8088013629546 510.0,631.5634075808697 520.0,633.0942818551595 530.0,658.0493785209222 540.0,485.41011053639374 550.0,498.63362833313863 560.0,467.8989247503961 570.0,433.73038244011724 580.0,422.78843505122575 590.0,373.64924614254596 600.0,452.3381758085717 610.0,463.7592536496635 620.0,406.4464767185263 630.0,474.9491016157798 640.0,440.4911778543606 650.0,449.5077516281393 660.0,478.4643292656408 670.0,510.47725292430925 680.0,507.11460166315044 690.0,542.0725967361685 700.0,594.6025093475764 710.0,645.5944529359447 720.0,623.146003305209 730.0,595.5484936397866 740.0,639.3839359932961 750.0,681.1685899830109 760.0000000000001,657.6022991184284 769.9999999999999,655.877851606129 780.0,608.0462429185366 790.0,606.0265375114585 800.0,491.5732181022756 810.0,480.2797269870465 820.0,466.2130276543881 830.0,467.5860378420351 840.0,446.2145811042061 850.0,475.5785411020347 860.0,499.96282087120517 870.0,484.05894927761483 880.0000000000001,472.2777218548936 889.9999999999999,366.5172246272588 900.0,251.44552773157653 910.0,245.2824045619305 920.0,261.4706131020057 930.0,200.64431975153047 940.0,198.35322605484942 950.0,209.04290734750236 960.0,216.6418760290918 970.0,209.5659250701944 980.0,182.44701282064602 990.0,215.74458131009288 1000.0000000000001,209.8308623673732 1009.9999999999999,141.13142447101256 1020.0,204.19478480089424 1030.0,239.64503757983937 1040.0,217.48055172507242 1050.0,283.7844925398436 1060.0,288.701155598899 1070.0,379.1097790161642 1080.0,397.9194407847068 1090.0,418.88751566685863 1100.0,372.7539820268933 1110.0,402.91253441873914 1120.0,391.1807160579636 1130.0,403.9369769011485 1140.0,348.5534272729707 1150.0,372.93882857258006 1160.0,357.1341472073951 1170.0,403.2817257971969 1180.0,508.3450917676107 1190.0,571.2837195125472 1200.0,589.4690034934746 1210.0,625.1322011657508 1220.0,584.6211354403717 1230.0,590.9777965204413 1240.0,512.5220958352553 1250.0,559.2075857342726 1260.0,596.6540585894867 1270.0,574.5023502472467 1280.0,508.3819668296308 1290.0,510.1520858208729 1300.0,504.88500826506686 1310.0,486.4708140244635" fill="none" stroke="#7c3aed" stroke-width="2.5"><title>drawdown_tilt_rebalance | end=2026-05-04 | return=21.20%</title></polyline>
<polyline points="90.0,638.5515907429678 100.0,638.1632485283687 110.0,638.4950642017751 120.0,641.7138301073098 130.0,639.1244464739099 140.0,639.9443307366246 150.0,626.0388048745584 160.0,617.9579337224061 170.0,608.9807471286219 180.0,577.7589911474169 190.0,560.0868684674393 200.0,583.4173951963048 210.0,577.2787398943442 220.0,580.5097544131868 230.0,570.0645230815529 240.0,608.7951530884624 250.0,597.5864640534281 260.0,603.7761032940396 270.0,612.1497874712021 280.0,617.9582711310297 290.0,561.0851650994243 300.0,554.9527384848546 310.0,563.1489579493783 320.0,566.5858459348174 330.0,584.4953980563955 340.0,613.1624258252647 350.0,599.5203492380083 360.0,646.4546657167357 370.0,587.9736515139762 380.0,580.9647283433969 390.0,592.4472770543761 400.0,705.044306985996 410.0,661.5468031977655 420.0,667.6365145126986 429.99999999999994,650.1822445842643 440.0,677.1056631470113 450.0,700.258945791542 460.0,700.2532545706428 470.0,647.3600673864327 480.0,651.2516175966427 489.99999999999994,671.245000218843 500.0,635.1550898344558 510.0,625.6099591413625 520.0,621.2221102399817 530.0,647.6138698083854 540.0,445.32790539484785 550.0,451.6570427417775 560.0,419.43826859253545 570.0,383.08915242300515 580.0,369.13735782682875 590.0,298.6387446468111 600.0,408.71526945517064 610.0,425.4597107811796 620.0,344.97708851448596 630.0,436.01297276490783 640.0,383.74431217703165 650.0,393.7636572209252 660.0,426.44688033063494 670.0,468.4166176709248 680.0,467.68294699537955 690.0,512.5955529885052 700.0,578.0253519301665 710.0,645.6994213935728 720.0,614.4033300521783 730.0,581.71679792142 740.0,633.9042555034258 750.0,679.9210228358712 760.0000000000001,649.1225083048136 769.9999999999999,643.2057422063326 780.0,585.8234659395212 790.0,584.3672590436358 800.0,459.3067605756539 810.0,443.59630879253206 820.0,423.2161794931823 830.0,432.40977688377893 840.0,404.82673681678665 850.0,435.87680512612167 860.0,458.2740298308999 870.0,441.8071181176207 880.0000000000001,430.1333362705632 889.9999999999999,321.6779260954279 900.0,236.2344858429667 910.0,229.1115854232172 920.0,251.27066965987882 930.0,172.79869621724265 940.0,171.52976852770598 950.0,189.84494931094468 960.0,200.94289403557474 970.0,189.7644223639868 980.0,150.0376121361245 990.0,198.61398456377697 1000.0000000000001,189.7663571554716 1009.9999999999999,90.0 1020.0,182.14588021003692 1030.0,233.33380281347075 1040.0,201.6451251058844 1050.0,295.3477655735565 1060.0,302.2038012041212 1070.0,427.2088515314757 1080.0,452.13911731431887 1090.0,476.7750913235009 1100.0,424.69467328407205 1110.0,459.2456412269106 1120.0,445.37250309482175 1130.0,458.82850301403414 1140.0,400.79801451966443 1150.0,425.244671238277 1160.0,410.27665633680584 1170.0,453.5462828682539 1180.0,550.5535320081958 1190.0,612.6649270301706 1200.0,628.8576282076853 1210.0,663.0856886497678 1220.0,625.0579426080803 1230.0,630.6049960096427 1240.0,561.2131288496976 1250.0,601.4723098472098 1260.0,634.5926620767624 1270.0,615.6491258129408 1280.0,560.9090885978853 1290.0,559.8262565340835 1300.0,553.8346967879091 1310.0,537.5393903609169" fill="none" stroke="#b45309" stroke-width="2.5"><title>btc_defensive_eth_aggressive | end=2026-05-04 | return=14.08%</title></polyline>
</svg>