<svg xmlns="http://www.w3.org/2000/svg" width="1400" height="800">
<rect width="1400" height="800" fill="#f8fafc"/>
<text x="700.0" y="42" text-anchor="middle" font-family="monospace" font-size="24" fill="#0f172a">Portfolio Value Over Time | start=2020-07-01 | interval=7d</text>
<line x1="90" y1="710" x2="1310" y2="710" stroke="#334155" stroke-width="2"/>
<line x1="90" y1="90" x2="90" y2="710" stroke="#334155" stroke-width="2"/>
<line x1="90.0" y1="710" x2="90.0" y2="90" stroke="#cbd5e1" stroke-width="1"/>
<text x="90.0" y="734" text-anchor="middle" font-family="monospace" font-size="11" fill="#475569">2020-07-01</text>
<line x1="90" y1="710.0" x2="1310" y2="710.0" stroke="#cbd5e1" stroke-width="1"/>
<text x="78" y="714.0" text-anchor="end" font-family="monospace" font-size="12" fill="#475569">9967</text>
<line x1="334.0" y1="710" x2="334.0" y2="90" stroke="#cbd5e1" stroke-width="1"/>
<text x="334.0" y="734" text-anchor="middle" font-family="monospace" font-size="11" fill="#475569">2021-09-01</text>
<line x1="90" y1="586.0" x2="1310" y2="586.0" stroke="#cbd5e1" stroke-width="1"/>
<text x="78" y="590.0" text-anchor="end" font-family="monospace" font-size="12" fill="#475569">23522</text>
<line x1="578.0" y1="710" x2="578.0" y2="90" stroke="#cbd5e1" stroke-width="1"/>
<text x="578.0" y="734" text-anchor="middle" font-family="monospace" font-size="11" fill="#475569">2022-11-02</text>
<line x1="90" y1="461.99999999999994" x2="1310" y2="461.99999999999994" stroke="#cbd5e1" stroke-width="1"/>
<text x="78" y="465.99999999999994" text-anchor="end" font-family="monospace" font-size="12" fill="#475569">37078</text>
<line x1="822.0" y1="710" x2="822.0" y2="90" stroke="#cbd5e1" stroke-width="1"/>
<text x="822.0" y="734" text-anchor="middle" font-family="monospace" font-size="11" fill="#475569">2023-12-27</text>
<line x1="90" y1="337.99999999999994" x2="1310" y2="337.99999999999994" stroke="#cbd5e1" stroke-width="1"/>
<text x="78" y="341.99999999999994" text-anchor="end" font-family="monospace" font-size="12" fill="#475569">50633</text>
<line x1="1066.0" y1="710" x2="1066.0" y2="90" stroke="#cbd5e1" stroke-width="1"/>
<text x="1066.0" y="734" text-anchor="middle" font-family="monospace" font-size="11" fill="#475569">2025-02-26</text>
<line x1="90" y1="214.0" x2="1310" y2="214.0" stroke="#cbd5e1" stroke-width="1"/>
<text x="78" y="218.0" text-anchor="end" font-family="monospace" font-size="12" fill="#475569">64189</text>
<line x1="1310.0" y1="710" x2="1310.0" y2="90" stroke="#cbd5e1" stroke-width="1"/>
<text x="1310.0" y="734" text-anchor="middle" font-family="monospace" font-size="11" fill="#475569">2026-04-29</text>
<line x1="90" y1="90.0" x2="1310" y2="90.0" stroke="#cbd5e1" stroke-width="1"/>
<text x="78" y="94.0" text-anchor="end" font-family="monospace" font-size="12" fill="#475569">77744</text>
<text x="700.0" y="782" text-anchor="middle" font-family="monospace" font-size="16" fill="#0f172a">time</text>
<text x="24" y="400.0" transform="rotate(-90 24,400.0)" text-anchor="middle" font-family="monospace" font-size="16" fill="#0f172a">portfolio_value_usd</text>
<line x1="970" y1="80" x2="988" y2="80" stroke="#0f766e" stroke-width="3"/>
<text x="998" y="84" font-family="monospace" font-size="12" fill="#0f172a">static_50_50_rebalance</text>
<line x1="970" y1="104" x2="988" y2="104" stroke="#dc2626" stroke-width="3"/>
<text x="998" y="108" font-family="monospace" font-size="12" fill="#0f172a">target_50_50_with_cash_band</text>
<line x1="970" y1="128" x2="988" y2="128" stroke="#2563eb" stroke-width="3"/>
<text x="998" y="132" font-family="monospace" font-size="12" fill="#0f172a">narrow_cash_band_rebalance</text>
<line x1="970" y1="152" x2="988" y2="152" stroke="#7c3aed" stroke-width="3"/>
<text x="998" y="156" font-family="monospace" font-size="12" fill="#0f172a">drawdown_tilt_rebalance</text>
<line x1="970" y1="176" x2="988" y2="176" stroke="#b45309" stroke-width="3"/>
<text x="998" y="180" font-family="monospace" font-size="12" fill="#0f172a">btc_defensive_eth_aggressive</text>
<polyline points="90.0,709.6962722349949 94.01315789473684,709.6131493415513 98.02631578947368,709.72867295154 102.03947368421052,709.3280279053686 106.05263157894737,707.9059029602257 110.0657894736842,706.1183227729351 114.07894736842105,706.5036941357121 118.09210526315789,705.925601254824 122.10526315789474,706.6662884314458 126.11842105263158,705.2589692842865 130.1315789473684,708.869721883473 134.14473684210526,707.7165754661665 138.1578947368421,710.0 142.17105263157896,707.9263934796975 146.18421052631578,708.7815750453469 150.19736842105263,706.216805027137 154.21052631578948,703.7477287785447 158.2236842105263,703.1970440853944 162.23684210526315,701.1376654775548 166.25,695.5528138642052 170.26315789473682,691.3222218922117 174.2763157894737,684.734430730511 178.28947368421052,682.2214597883768 182.30263157894737,684.8468480093441 186.31578947368422,675.7676079031771 190.32894736842104,675.5119190972799 194.34210526315792,653.9794672626508 198.35526315789474,608.7680797194505 202.36842105263156,612.9099487843515 206.38157894736844,600.7310031076161 210.39473684210526,619.4032903835957 214.40789473684208,578.7835545159993 218.42105263157893,559.6794974784523 222.4342105263158,538.2107313306325 226.44736842105263,556.0049550067637 230.46052631578948,558.025031016803 234.4736842105263,534.0162907653219 238.48684210526315,526.4156255427378 242.5,553.3067024964251 246.51315789473685,520.9019470088192 250.52631578947367,523.7160430866334 254.53947368421052,483.25458045982464 258.5526315789474,505.13351116046863 262.56578947368416,482.2573986566837 266.57894736842104,438.5849396835613 270.5921052631579,441.0673410911787 274.60526315789474,523.9526528707539 278.61842105263156,500.10320499518264 282.63157894736844,511.27003304371067 286.64473684210526,515.6455959971818 290.6578947368421,523.9939887208953 294.67105263157896,550.998038561209 298.68421052631584,534.6986672045485 302.6973684210526,535.5177122061261 306.7105263157895,552.0867915966026 310.72368421052636,553.5145110562264 314.7368421052631,521.9695153659119 318.75,503.4179712487565 322.7631578947369,470.46147930144565 326.77631578947364,478.8303985221373 330.7894736842105,459.5863370340503 334.8026315789474,434.306138586933 338.81578947368416,454.2533794019149 342.82894736842104,444.61569185538815 346.84210526315786,477.05095109632913 350.85526315789474,491.21076420617015 354.8684210526316,427.8454276704947 358.8815789473684,421.4976258964881 362.89473684210526,377.2294803258804 366.90789473684214,405.9599412975159 370.92105263157896,366.9765063062501 374.9342105263158,360.9283959857193 378.9473684210526,385.80900887401583 382.9605263157895,394.729442155997 386.9736842105263,382.4343528471222 390.9868421052631,405.37587059701855 395.0,424.97329351417005 399.0131578947368,427.1883566377878 403.0263157894737,445.8418765854087 407.0394736842105,457.38385381557873 411.05263157894734,462.27956481934217 415.0657894736842,479.28573931941514 419.07894736842104,516.1617005522528 423.09210526315786,507.56322588755745 427.1052631578948,464.78106472594914 431.1184210526316,471.00394744989484 435.1315789473684,511.1773266739823 439.1447368421052,477.58739783061986 443.15789473684214,492.0706004309517 447.17105263157896,492.5574851125826 451.1842105263158,476.63332693169787 455.19736842105266,450.07465720607445 459.2105263157895,470.6615513271453 463.2236842105263,478.74483930027145 467.2368421052632,479.78735596855165 471.25,494.01887240964265 475.2631578947368,490.6375725981567 479.2763157894737,559.8968115732165 483.2894736842105,567.798538960618 487.30263157894734,563.950934498986 491.3157894736842,568.4709570737666 495.32894736842104,568.3630385095115 499.34210526315786,616.7524304201568 503.3552631578948,633.4211275034331 507.3684210526316,630.7028287835981 511.3815789473684,625.190291154661 515.3947368421052,629.6556279705418 519.4078947368421,599.8277253897238 523.421052631579,595.1068928089783 527.4342105263158,596.4505292339979 531.4473684210527,580.7221025171812 535.4605263157895,583.8459815918231 539.4736842105262,599.3823195355211 543.4868421052631,609.0752501164548 547.5,608.0950585313835 551.5131578947369,604.2216284787186 555.5263157894738,629.711506297059 559.5394736842105,621.7255358359471 563.5526315789473,618.1771631452724 567.5657894736842,624.7860013270247 571.578947368421,625.3898941507533 575.5921052631579,604.7819528142844 579.6052631578948,609.5627995140725 583.6184210526317,646.7808159262287 587.6315789473683,637.9630012051981 591.6447368421052,639.8444245460788 595.6578947368421,631.6916306168347 599.671052631579,636.3043347715011 603.6842105263157,628.4933663198162 607.6973684210526,637.2742149064974 611.7105263157895,639.7007181302129 615.7236842105262,634.8949470977095 619.7368421052632,623.4785687851457 623.75,606.3562322472743 627.7631578947368,591.865354178917 631.7763157894738,587.8115382904568 635.7894736842105,590.196005625325 639.8026315789474,583.9360630296278 643.8157894736843,586.1108727176802 647.828947368421,586.9377756609528 651.8421052631579,600.7963307825555 655.8552631578948,584.5342583757842 659.8684210526316,569.6170050231242 663.8815789473684,563.1432710229965 667.8947368421052,557.6659811074582 671.9078947368421,551.1680060704458 675.921052631579,554.081318825407 679.9342105263157,558.8998078260956 683.9473684210526,554.7843679384913 687.9605263157895,562.8778347772152 691.9736842105262,564.6522860386622 695.9868421052632,569.5668111015168 700.0,562.5976115305753 704.0131578947368,567.7877764973235 708.0263157894736,581.3735843087377 712.0394736842104,551.9487401059184 716.0526315789474,554.9198375686549 720.0657894736843,549.1421644650777 724.078947368421,551.5617750593299 728.0921052631579,552.1935449899462 732.1052631578947,554.9517838317479 736.1184210526316,557.3230244712149 740.1315789473684,555.1893284376373 744.1447368421053,560.6381963404594 748.1578947368421,574.9479264193865 752.171052631579,570.5756513289904 756.1842105263157,579.7881681241511 760.1973684210526,579.4531206742057 764.2105263157896,575.6310070299115 768.2236842105264,579.5628716129396 772.2368421052632,572.0529004059566 776.25,579.5531435417952 780.2631578947368,574.8789859639593 784.2763157894736,542.0857589630884 788.2894736842104,535.7269122005034 792.3026315789474,532.762458996101 796.3157894736843,516.2068703424776 800.328947368421,517.3443425168098 804.3421052631579,517.9501124329113 808.3552631578947,488.83975128909714 812.3684210526316,489.8586447980059 816.3815789473684,490.8105647113354 820.3947368421053,481.40501399070985 824.4078947368421,492.50604444359305 828.421052631579,460.8440115562371 832.4342105263157,475.3124771018918 836.4473684210526,498.60161333121573 840.4605263157896,488.7912913123412 844.4736842105264,475.85134233831195 848.4868421052632,434.8413438722269 852.5,424.71286092846844 856.5131578947368,372.1191943275543 860.5263157894736,339.62884130190423 864.5394736842104,310.6950234841635 868.5526315789474,349.42123873467125 872.5657894736843,346.0072923448803 876.578947368421,364.5271866686375 880.5921052631579,340.4721046416834 884.6052631578947,393.38918400367464 888.6184210526316,377.700095299752 892.6315789473684,402.23950139383226 896.6447368421053,394.28189209148735 900.6578947368421,377.6685088341186 904.671052631579,333.6833410811396 908.6842105263157,336.3892338932426 912.6973684210526,321.7861674278495 916.7105263157896,344.7329859492906 920.7236842105264,353.52749151973944 924.7368421052632,374.1042728199382 928.75,379.8264946966474 932.7631578947368,396.1214812896638 936.7763157894736,364.121739892773 940.7894736842104,363.32437809416274 944.8026315789474,370.6916887926169 948.8157894736843,442.1484547654736 952.828947368421,416.16412833940853 956.8421052631579,411.2573320771077 960.8552631578947,422.1797111278853 964.8684210526316,429.1135097726063 968.8815789473684,436.605439960258 972.8947368421053,423.46688547927175 976.9078947368421,408.9140261753118 980.921052631579,426.95913089763314 984.9342105263157,426.8203682217803 988.9473684210526,395.9641895970869 992.9605263157896,403.37518919419017 996.9736842105264,381.8988356782173 1000.9868421052632,370.2903578630347 1005.0,309.1917030887335 1009.0131578947368,307.25131627861776 1013.0263157894736,270.17079131235636 1017.0394736842104,253.34044452010835 1021.0526315789474,248.436943684095 1025.0657894736842,262.83221522067976 1029.078947368421,272.1403159475346 1033.092105263158,290.9699910386985 1037.1052631578946,291.1385702680373 1041.1184210526317,272.0221663482927 1045.1315789473683,277.67680072863493 1049.1447368421054,285.0405947074018 1053.157894736842,318.84674502436957 1057.171052631579,319.35237823486375 1061.1842105263158,323.20419704706256 1065.1973684210525,371.1657089032948 1069.2105263157896,363.76716429730203 1073.2236842105262,397.8308011231852 1077.2368421052633,382.3639297518824 1081.25,385.2134848866494 1085.2631578947367,407.21878403223207 1089.2763157894738,414.9357312485434 1093.2894736842104,418.0773194908775 1097.3026315789475,385.9741664467638 1101.3157894736842,385.31043199072593 1105.328947368421,379.0144519764504 1109.342105263158,315.0099842322378 1113.3552631578946,307.9655243886146 1117.3684210526314,302.6452584980135 1121.3815789473686,313.0204790858147 1125.3947368421052,295.00158538385335 1129.407894736842,318.45290583299965 1133.421052631579,321.09566601408306 1137.4342105263158,308.1054187513882 1141.4473684210525,290.1474285232152 1145.4605263157896,235.13123642223508 1149.4736842105265,217.39821857419855 1153.4868421052631,207.27446120769042 1157.5,220.56177242980914 1161.5131578947369,137.21162568683428 1165.5263157894735,178.86920835118417 1169.5394736842104,174.5048073952869 1173.5526315789475,176.67888230362382 1177.5657894736842,178.29170566213372 1181.578947368421,159.81722131131926 1185.592105263158,190.44876302622822 1189.6052631578948,169.22519641677889 1193.6184210526314,150.24591625254118 1197.6315789473686,205.03620430917977 1201.6447368421052,221.6091081744625 1205.657894736842,211.24476409856965 1209.671052631579,250.9168688778858 1213.6842105263158,255.83707143608103 1217.6973684210525,298.5426052711894 1221.7105263157896,300.3034536691048 1225.7236842105265,284.78476089306224 1229.7368421052631,279.6136224307597 1233.75,320.5245227017823 1237.7631578947369,310.97598710569804 1241.7763157894735,309.89403463763523 1245.7894736842104,290.2204884066008 1249.8026315789475,267.1691112574513 1253.8157894736842,305.5812982233588 1257.828947368421,304.37042216807254 1261.842105263158,390.89468842333804 1265.8552631578948,415.98031242512945 1269.8684210526314,416.2787508706251 1273.8815789473686,406.5024281745346 1277.8947368421052,392.1115993848753 1281.907894736842,402.20480650585176 1285.921052631579,390.269739031791 1289.9342105263158,392.43995584287836 1293.9473684210525,401.1849509000518 1297.9605263157896,391.40037646832826 1301.9736842105265,371.92109869810207 1305.9868421052631,363.4855426285429 1310.0,377.1721809729897" fill="none" stroke="#0f766e" stroke-width="2.5"><title>static_50_50_rebalance | end=2026-04-29 | return=363.51%</title></polyline>
<polyline points="90.0,709.6962722349949 94.01315789473684,709.6131493415513 98.02631578947368,709.72867295154 102.03947368421052,709.3280279053686 106.05263157894737,707.9059029602257 110.0657894736842,706.1183227729351 114.07894736842105,706.5036941357121 118.09210526315789,705.925601254824 122.10526315789474,706.6662884314458 126.11842105263158,705.2589692842865 130.1315789473684,708.869721883473 134.14473684210526,707.7165754661665 138.1578947368421,710.0 142.17105263157896,707.9263934796975 146.18421052631578,708.7815750453469 150.19736842105263,706.216805027137 154.21052631578948,703.7477287785447 158.2236842105263,703.1970440853944 162.23684210526315,701.1376654775548 166.25,695.5528138642052 170.26315789473682,691.770665325643 174.2763157894737,686.268522157398 178.28947368421052,684.36949439074 182.30263157894737,686.2127159080248 186.31578947368422,680.0750296431195 190.32894736842104,679.9331390955447 194.34210526315792,666.8240989262886 198.35526315789474,641.2069127641016 202.36842105263156,643.3186131806317 206.38157894736844,637.610892381963 210.39473684210526,645.8971167336969 214.40789473684208,627.2466230418088 218.42105263157893,618.7722554110484 222.4342105263158,609.9249749590329 226.44736842105263,616.7786030765689 230.46052631578948,617.5420398936583 234.4736842105263,607.7210361574159 238.48684210526315,604.7464249415048 242.5,614.8156945316215 246.51315789473685,602.4457359910509 250.52631578947367,603.4967545096634 254.53947368421052,588.7839857047458 258.5526315789474,596.5558129487381 262.56578947368416,588.0760620841562 266.57894736842104,572.5450820109565 270.5921052631579,573.9596317632438 274.60526315789474,605.0305186170716 278.61842105263156,595.9577338123552 282.63157894736844,600.3021729550018 286.64473684210526,602.0205711760982 290.6578947368421,605.3148880116369 294.67105263157896,616.2978821396139 298.68421052631584,609.5960495833097 302.6973684210526,609.9714176226541 306.7105263157895,616.9605073894236 310.72368421052636,617.5936906670702 314.7368421052631,603.6631387620955 318.75,595.580605204364 322.7631578947369,580.5671700096623 326.77631578947364,584.5114236996667 330.7894736842105,575.3537845881344 334.8026315789474,562.8845757382867 338.81578947368416,572.326350018463 342.82894736842104,567.6770444870547 346.84210526315786,583.0280267858968 350.85526315789474,589.7915094456678 354.8684210526316,559.0096712338232 358.8815789473684,556.3548002340685 362.89473684210526,539.8361404271959 366.90789473684214,549.7072787586427 370.92105263157896,536.7640272261401 374.9342105263158,534.7539115397808 378.9473684210526,542.6655055258991 382.9605263157895,545.5897351124956 386.9736842105263,541.6728725009111 390.9868421052631,549.384415948877 395.0,556.137506403297 399.0131578947368,556.9094529627016 403.0263157894737,563.4900012862201 407.0394736842105,567.6065858371369 411.05263157894734,569.38082924688 415.0657894736842,575.6138863052123 419.07894736842104,589.3132740753302 423.09210526315786,586.0655585902366 427.1052631578948,569.6887581295018 431.1184210526316,572.0999488258086 435.1315789473684,587.841047863225 439.1447368421052,574.5037356264332 443.15789473684214,580.3229296825943 447.17105263157896,580.5169947666429 451.1842105263158,573.9658161373859 455.19736842105266,562.9329824116576 459.2105263157895,571.5628772684223 463.2236842105263,574.9818497297664 467.2368421052632,575.4373473524454 471.25,581.6240684757095 475.2631578947368,580.1378204880662 479.2763157894737,610.875968033477 483.2894736842105,614.4522847042849 487.30263157894734,612.7071604789023 491.3157894736842,614.8200799633158 495.32894736842104,614.7723780255063 499.34210526315786,638.0241989008064 503.3552631578948,646.1606072258238 507.3684210526316,644.811793265152 511.3815789473684,642.029128082792 515.3947368421052,644.3176141355078 519.4078947368421,628.8067313132452 523.421052631579,626.315324018917 527.4342105263158,627.0289900516387 531.4473684210527,618.5715205407064 535.4605263157895,620.2792288795375 539.4736842105262,629.0605469412254 543.4868421052631,634.5897665293976 547.5,633.8964335881165 551.5131578947369,631.6972858915639 555.5263157894738,647.3241650842943 559.5394736842105,642.4479039929885 563.5526315789473,640.3042252864718 567.5657894736842,644.4468538343546 571.578947368421,644.8361841983094 575.5921052631579,631.453556121273 579.6052631578948,634.6042495630398 583.6184210526317,659.5885274246543 587.6315789473683,653.5845049388096 591.6447368421052,654.8907013870012 595.6578947368421,649.2295097844786 599.671052631579,652.5021499541236 603.6842105263157,646.9454517368996 607.6973684210526,653.3469160515488 611.7105263157895,655.1382047230642 615.7236842105262,651.5129181155438 619.7368421052632,642.7522301166379 623.75,629.4781989110403 627.7631578947368,617.8966548331814 631.7763157894738,614.5510898896611 635.7894736842105,616.5613801394427 639.8026315789474,611.1983215263625 643.8157894736843,613.1009957564594 647.828947368421,613.8587757250573 651.8421052631579,626.3052880889381 655.8552631578948,611.6364215308034 659.8684210526316,597.9071199329272 663.8815789473684,591.8505034681598 667.8947368421052,586.8621030327913 671.9078947368421,580.5312975143939 675.921052631579,582.9001997247906 679.9342105263157,587.313082445258 683.9473684210526,583.791391530516 687.9605263157895,590.5004109226113 691.9736842105262,591.6683118763746 695.9868421052632,594.2619933161429 700.0,590.3811018597355 704.0131578947368,592.9468507271542 708.0263157894736,599.4043585814999 712.0394736842104,585.2989701991615 716.0526315789474,586.6679498983963 720.0657894736843,584.0713558561002 724.078947368421,585.1367214751763 728.0921052631579,585.410493020225 732.1052631578947,586.6090577470716 736.1184210526316,587.6411931576835 740.1315789473684,586.7098490372697 744.1447368421053,589.0867531652539 748.1578947368421,595.3622578878196 752.171052631579,593.4177936529287 756.1842105263157,597.598417640965 760.1973684210526,597.4456389256775 764.2105263157896,595.6432338165893 768.2236842105264,597.5408027860294 772.2368421052632,593.8457244956642 776.25,597.590839287463 780.2631578947368,595.1325438690992 784.2763157894736,577.8262344549541 788.2894736842104,574.4299233045333 792.3026315789474,573.0278592454682 796.3157894736843,565.5361414013707 800.328947368421,566.0363952471471 804.3421052631579,566.2868176473985 808.3552631578947,554.0717047033874 812.3684210526316,554.4898622282042 816.3815789473684,554.8706067344673 820.3947368421053,551.1131666455258 824.4078947368421,555.503998469328 828.421052631579,542.9216025910174 832.4342105263157,548.540801067888 836.4473684210526,557.6166113057865 840.4605263157896,553.7288757326442 844.4736842105264,548.5897589840033 848.4868421052632,532.4877088370874 852.5,528.640203438041 856.5131578947368,509.12882574548854 860.5263157894736,497.5638553322593 864.5394736842104,487.6505912676559 868.5526315789474,500.48131819379046 872.5657894736843,499.35005944854197 876.578947368421,505.5557662611442 880.5921052631579,497.3785788461365 884.6052631578947,515.2190037434116 888.6184210526316,509.87236515536324 892.6315789473684,518.3417722092955 896.6447368421053,515.5746903080146 900.6578947368421,509.7025009109884 904.671052631579,493.85810433423205 908.6842105263157,494.8181219429735 912.6973684210526,489.804876045672 916.7105263157896,497.4517200444816 920.7236842105264,500.4008599155919 924.7368421052632,507.3379053083848 928.75,509.28404921675065 932.7631578947368,514.8906097472567 936.7763157894736,503.74277880081524 940.7894736842104,503.4463365435305 944.8026315789474,506.069040217199 948.8157894736843,531.9208616829204 952.828947368421,522.327539852297 956.8421052631579,520.375164176084 960.8552631578947,524.5922144301373 964.8684210526316,527.2862141545471 968.8815789473684,530.1838679906995 972.8947368421053,524.6675526444144 976.9078947368421,518.8455728454662 980.921052631579,526.2650294369696 984.9342105263157,526.218192068314 988.9473684210526,512.7651310036213 992.9605263157896,515.9364952751041 996.9736842105264,506.08202366368096 1000.9868421052632,500.59165668701417 1005.0,471.72706440651484 1009.0131578947368,470.2840288368112 1013.0263157894736,454.5055023760616 1017.0394736842104,448.0451743718737 1021.0526315789474,446.25418976434497 1025.0657894736842,451.0873641752629 1029.078947368421,454.1933229773115 1033.092105263158,460.47124315479516 1037.1052631578946,460.5360136363772 1041.1184210526317,454.0201012799297 1045.1315789473683,455.96412774052726 1049.1447368421054,458.53160190583606 1053.157894736842,470.73301751288295 1057.171052631579,470.8512858552624 1061.1842105263158,472.30964342163793 1065.1973684210525,490.5300784584149 1069.2105263157896,487.39956543373717 1073.2236842105262,500.583259565141 1077.2368421052633,494.4909152836557 1081.25,495.5708964937462 1085.2631578947367,504.4745968341993 1089.2763157894738,507.4735767503488 1093.2894736842104,508.5546494814106 1097.3026315789475,494.4598845532642 1101.3157894736842,494.1265786396532 1105.328947368421,491.0940093202248 1109.342105263158,463.4639964967677 1113.3552631578946,459.48581390200627 1117.3684210526314,457.56187549946816 1121.3815789473686,462.471389452493 1125.3947368421052,454.1277099136804 1129.407894736842,464.6897575436212 1133.421052631579,465.51201746735273 1137.4342105263158,459.645130952014 1141.4473684210525,451.43258613965804 1145.4605263157896,426.4299792738192 1149.4736842105265,418.4737096438735 1153.4868421052631,414.578260451911 1157.5,419.48475325816736 1161.5131578947369,390.39788560038943 1165.5263157894735,404.6748663795865 1169.5394736842104,403.5142174768867 1173.5526315789475,404.16349223093175 1177.5657894736842,404.45203675120456 1181.578947368421,398.30995458911565 1185.592105263158,408.31228022386523 1189.6052631578948,401.07253978157246 1193.6184210526314,394.64515901849774 1197.6315789473686,412.83495114343214 1201.6447368421052,418.34740072096736 1205.657894736842,414.8424744880263 1209.671052631579,428.1661776657905 1213.6842105263158,429.92706119410525 1217.6973684210525,444.7586035558183 1221.7105263157896,445.4125612833505 1225.7236842105265,439.96224691610416 1229.7368421052631,438.2827080031468 1233.75,452.7803754050768 1237.7631578947369,449.36054242684827 1241.7763157894735,448.9865955506868 1245.7894736842104,441.75152711723723 1249.8026315789475,433.1229086361892 1253.8157894736842,447.49350010474154 1257.828947368421,447.06488243022545 1261.842105263158,479.92317875088656 1265.8552631578948,489.63454962906223 1269.8684210526314,489.78429322802543 1273.8815789473686,485.9594705491073 1277.8947368421052,480.1276448724344 1281.907894736842,484.2084681910757 1285.921052631579,479.4438602509201 1289.9342105263158,480.304706101638 1293.9473684210525,483.99838348809567 1297.9605263157896,479.8621034170062 1301.9736842105265,471.67644827087076 1305.9868421052631,468.00852748003337 1310.0,473.8411174852372" fill="none" stroke="#dc2626" stroke-width="2.5"><title>target_50_50_with_cash_band | end=2026-04-29 | return=257.83%</title></polyline>
<polyline points="90.0,709.6962722349949 94.01315789473684,709.6131493415513 98.02631578947368,709.72867295154 102.03947368421052,709.3280279053686 106.05263157894737,707.9059029602257 110.0657894736842,706.1183227729351 114.07894736842105,706.5036941357121 118.09210526315789,705.925601254824 122.10526315789474,706.6662884314458 126.11842105263158,705.2589692842865 130.1315789473684,708.869721883473 134.14473684210526,707.7165754661665 138.1578947368421,710.0 142.17105263157896,707.9263934796975 146.18421052631578,708.7815750453469 150.19736842105263,706.216805027137 154.21052631578948,703.7477287785447 158.2236842105263,703.1970440853944 162.23684210526315,701.1376654775548 166.25,695.5528138642052 170.26315789473682,691.3222218922117 174.2763157894737,684.734430730511 178.28947368421052,682.2214597883768 182.30263157894737,684.8468480093441 186.31578947368422,675.7676079031771 190.32894736842104,675.5414682943522 194.34210526315792,654.5782638178233 198.35526315789474,611.5459856445154 202.36842105263156,615.3631838695018 206.38157894736844,604.6690131677038 210.39473684210526,620.4723094595079 214.40789473684208,585.1448382844436 218.42105263157893,568.9180545689737 222.4342105263158,551.1897094040954 226.44736842105263,565.5352285527765 230.46052631578948,567.1350956400393 234.4736842105263,547.146254889653 238.48684210526315,540.9021169638174 242.5,562.4019601382194 246.51315789473685,536.3693361394901 250.52631578947367,538.6528757585835 254.53947368421052,506.8886518317258 258.5526315789474,524.0533551494675 262.56578947368416,505.3616856969346 266.57894736842104,470.26428658792753 270.5921052631579,472.15167604751264 274.60526315789474,541.3970531021635 278.61842105263156,521.3032998013423 282.63157894736844,530.3161590596396 286.64473684210526,533.8678425967926 290.6578947368421,540.6880892570936 294.67105263157896,562.6146405894938 298.68421052631584,549.3137009245567 302.6973684210526,549.9600918034849 306.7105263157895,563.5455688964847 310.72368421052636,564.7077781274418 314.7368421052631,538.8297170051426 318.75,523.4937895818821 322.7631578947369,496.8912351954275 326.77631578947364,503.8214503189455 330.7894736842105,488.2426496587418 334.8026315789474,467.8492352499132 338.81578947368416,484.70219520492174 342.82894736842104,476.53090354191863 346.84210526315786,504.56886125161486 350.85526315789474,516.3578027920817 354.8684210526316,464.18810734529575 358.8815789473684,459.052750401796 362.89473684210526,424.3918963958386 366.90789473684214,446.3414065424324 370.92105263157896,417.03529833174736 374.9342105263158,412.3970314116748 378.9473684210526,431.0132101580297 382.9605263157895,437.8255660573068 386.9736842105263,428.7197467712477 390.9868421052631,446.3435355474956 395.0,461.7154904334763 399.0131578947368,463.4519512157732 403.0263157894737,478.1087364151415 407.0394736842105,487.0690879983363 411.05263157894734,490.80248623639255 415.0657894736842,503.9278962031941 419.07894736842104,532.4550878970797 423.09210526315786,525.8185627369493 427.1052631578948,492.4819930465105 431.1184210526316,497.3226626062487 435.1315789473684,528.7460502902827 439.1447368421052,502.3708491467373 443.15789473684214,513.7381164834449 447.17105263157896,514.1450444560521 451.1842105263158,501.60337150904786 455.19736842105266,480.6061126048628 459.2105263157895,496.9379672827762 463.2236842105263,503.3784542127156 467.2368421052632,504.2092919285642 471.25,515.6231921506084 475.2631578947368,512.9062462070314 479.2763157894737,568.757572171518 483.2894736842105,575.1530704104933 487.30263157894734,572.037078758224 491.3157894736842,575.7185311791605 495.32894736842104,575.6177901671392 499.34210526315786,615.8255881450303 503.3552631578948,629.7179558986751 507.3684210526316,627.4671112224587 511.3815789473684,622.8716139623241 515.3947368421052,626.6030724581924 519.4078947368421,601.5351250082579 523.421052631579,597.6106684618402 527.4342105263158,598.7452578761367 531.4473684210527,585.4460870975528 535.4605263157895,588.1475925423979 539.4736842105262,601.8421624232213 543.4868421052631,610.4102178328341 547.5,609.4161030050554 551.5131578947369,606.0266988999473 555.5263157894738,629.5967295531041 559.5394736842105,622.2706143459834 563.5526315789473,619.048544533548 567.5657894736842,625.2026640760268 571.578947368421,625.7725948848524 575.5921052631579,606.2689689739697 579.6052631578948,610.8532053184957 583.6184210526317,646.9589582387997 587.6315789473683,638.3618157524315 591.6447368421052,640.2131969166423 595.6578947368421,632.2150101495646 599.671052631579,636.8128687283514 603.6842105263157,629.0215678828988 607.6973684210526,637.943179777801 611.7105263157895,640.4274794368642 615.7236842105262,635.4434553204904 619.7368421052632,623.4335552804056 623.75,605.2939683515607 627.7631578947368,589.5379911513631 631.7763157894738,585.0334065226652 635.7894736842105,587.7096978022034 639.8026315789474,580.6354204256736 643.8157894736843,583.1075138543067 647.828947368421,584.0554154303974 651.8421052631579,599.8451739665668 655.8552631578948,581.4078386737768 659.8684210526316,564.4229868696927 663.8815789473684,557.0183893659195 667.8947368421052,550.78090475047 671.9078947368421,543.274046175733 675.921052631579,546.163861154967 679.9342105263157,551.5376342754807 683.9473684210526,547.2642318137679 687.9605263157895,555.3600777085236 691.9736842105262,557.0801861983367 695.9868421052632,561.3857125312575 700.0,554.9700722152106 704.0131578947368,559.522546088946 708.0263157894736,571.4237733783764 712.0394736842104,545.8107574345172 716.0526315789474,548.3935646133912 720.0657894736843,543.4546082207438 724.078947368421,545.5009122739898 728.0921052631579,546.0304064407474 732.1052631578947,548.3372963077734 736.1184210526316,550.319589088333 740.1315789473684,548.5376771910738 744.1447368421053,553.0872612162614 748.1578947368421,565.04613561565 752.171052631579,561.3811244873167 756.1842105263157,569.1799382836923 760.1973684210526,568.8979452072947 764.2105263157896,565.6041438186442 768.2236842105264,569.0388699491087 772.2368421052632,562.4134719887443 776.25,569.0677741881719 780.2631578947368,564.7331530070123 784.2763157894736,535.6762818616917 788.2894736842104,529.9277134948904 792.3026315789474,527.3620323436946 796.3157894736843,513.1680770778269 800.328947368421,514.1424495105102 804.3421052631579,514.6390134191976 808.3552631578947,490.4185967609227 812.3684210526316,491.27555850574197 816.3815789473684,492.0424190615105 820.3947368421053,484.3982801360901 824.4078947368421,493.42608865792715 828.421052631579,467.7046601463694 832.4342105263157,479.37245161618057 836.4473684210526,498.2200055022863 840.4605263157896,490.2798508175954 844.4736842105264,479.7792141143196 848.4868421052632,446.65692099842903 852.5,438.5416704110844 856.5131578947368,396.7157814439241 860.5263157894736,371.14262681691383 864.5394736842104,348.6550406899213 868.5526315789474,378.44686726267213 872.5657894736843,375.82765738603587 876.578947368421,390.0764051767405 880.5921052631579,371.46351890939513 884.6052631578947,412.29761911497945 888.6184210526316,400.17271844089004 892.6315789473684,419.2418017563838 896.6447368421053,413.04523136244705 900.6578947368421,400.03779445718874 904.671052631579,365.5312681995266 908.6842105263157,367.7013881219455 912.6973684210526,356.2711290205144 916.7105263157896,373.92529489321026 920.7236842105264,380.70308168755497 924.7368421052632,396.51651938110547 928.75,400.9143913147646 932.7631578947368,413.46854917305456 936.7763157894736,388.74275662741763 940.7894736842104,388.0944338806589 944.8026315789474,393.8197217483208 948.8157894736843,449.7923864445262 952.828947368421,429.2347631127405 956.8421052631579,425.0764004170771 960.8552631578947,433.9604583712915 964.8684210526316,439.5834469675198 968.8815789473684,445.56854916893275 972.8947368421053,434.2012701206182 976.9078947368421,422.38671450972475 980.921052631579,437.3505382529445 984.9342105263157,437.2595008697086 988.9473684210526,410.4439947088014 992.9605263157896,416.49552169345856 996.9736842105264,398.90928260372704 1000.9868421052632,389.56159414948115 1005.0,341.00108628529455 1009.0131578947368,339.1750753618613 1013.0263157894736,309.46583906562284 1017.0394736842104,296.1244555870249 1021.0526315789474,292.2214262010206 1025.0657894736842,303.18833027093757 1029.078947368421,310.27752345641125 1033.092105263158,324.6356090689835 1037.1052631578946,324.7597538687015 1041.1184210526317,310.0669585320146 1045.1315789473683,314.2595847536111 1049.1447368421054,319.8915423720894 1053.157894736842,346.73163818547954 1057.171052631579,347.03851199605856 1061.1842105263158,350.03906991033693 1065.1973684210525,387.0687278142894 1069.2105263157896,381.3264161624134 1073.2236842105262,407.69368196380606 1077.2368421052633,395.6815864662891 1081.25,397.8961192088282 1085.2631578947367,415.0238834432946 1089.2763157894738,421.04627513441113 1093.2894736842104,423.4506700021861 1097.3026315789475,397.5657214730448 1101.3157894736842,397.0252311339568 1105.328947368421,392.0072881971721 1109.342105263158,341.4512634664631 1113.3552631578946,335.8547278443818 1117.3684210526314,331.5978312141314 1121.3815789473686,339.730622893711 1125.3947368421052,325.54811835582103 1129.407894736842,344.07123436843165 1133.421052631579,346.2856179151573 1137.4342105263158,336.0117127970391 1141.4473684210525,321.8363277845805 1145.4605263157896,278.36015543913504 1149.4736842105265,263.9429350833377 1153.4868421052631,255.86934754706743 1157.5,266.1548330677532 1161.5131578947369,202.11557553069525 1165.5263157894735,234.0395824321618 1169.5394736842104,230.7858685466589 1173.5526315789475,232.41377918548773 1177.5657894736842,233.53875921627036 1181.578947368421,219.61825145496937 1185.592105263158,242.58695792590743 1189.6052631578948,226.48126496747346 1193.6184210526314,212.0636245641433 1197.6315789473686,253.55802761823315 1201.6447368421052,266.09094300095455 1205.657894736842,258.2147115825973 1209.671052631579,288.20465033156177 1213.6842105263158,292.02147436579935 1217.6973684210525,324.6254501237207 1221.7105263157896,326.0078863672396 1225.7236842105265,314.16466887479123 1229.7368421052631,310.36285337757204 1233.75,341.5541708279005 1237.7631578947369,334.2590549903678 1241.7763157894735,333.44795437984834 1245.7894736842104,318.31145751577446 1249.8026315789475,300.471095009476 1253.8157894736842,330.12477073462037 1257.828947368421,329.2161859207711 1261.842105263158,396.15941960702247 1265.8552631578948,415.6872849098601 1269.8684210526314,415.9531042214995 1273.8815789473686,408.3567810741571 1277.8947368421052,397.00729903514264 1281.907894736842,404.93242408424703 1285.921052631579,395.6569817372501 1289.9342105263158,397.33204111382 1293.9473684210525,404.2983577528058 1297.9605263157896,396.5255442000121 1301.9736842105265,381.15349510313666 1305.9868421052631,374.3827448787431 1310.0,385.20716053154496" fill="none" stroke="#2563eb" stroke-width="2.5"><title>narrow_cash_band_rebalance | end=2026-04-29 | return=354.73%</title></polyline>
<polyline points="90.0,709.6962722349949 94.01315789473684,709.6131493415513 98.02631578947368,709.72867295154 102.03947368421052,709.3280279053686 106.05263157894737,707.9059029602257 110.0657894736842,706.1183227729351 114.07894736842105,706.5036941357121 118.09210526315789,705.925601254824 122.10526315789474,706.6662884314458 126.11842105263158,705.2589692842865 130.1315789473684,708.869721883473 134.14473684210526,707.7165754661665 138.1578947368421,710.0 142.17105263157896,707.9263934796975 146.18421052631578,708.7815750453469 150.19736842105263,706.216805027137 154.21052631578948,703.7477287785447 158.2236842105263,703.1970440853944 162.23684210526315,701.1376654775548 166.25,695.5528138642052 170.26315789473682,691.3222218922117 174.2763157894737,684.734430730511 178.28947368421052,682.2257358889239 182.30263157894737,684.8404127428663 186.31578947368422,675.8558785636852 190.32894736842104,675.6508610919592 194.34210526315792,656.0459895168345 198.35526315789474,616.0515421132154 202.36842105263156,619.5593951689777 206.38157894736844,609.6055964333083 210.39473684210526,623.4057449521644 214.40789473684208,592.6781579525623 218.42105263157893,578.4358185340593 222.4342105263158,562.846049842524 226.44736842105263,575.2527997339582 230.46052631578948,576.6019434796256 234.4736842105263,559.1588584696909 238.48684210526315,553.7807617371527 242.5,572.4737879090087 246.51315789473685,549.7143778781949 250.52631578947367,551.6793185312991 254.53947368421052,523.9861332106357 258.5526315789474,538.9684014347888 262.56578947368416,522.8279844599838 266.57894736842104,494.1521490743851 270.5921052631579,496.8191121931925 274.60526315789474,552.2582099439951 278.61842105263156,536.3234113945764 282.63157894736844,543.9121116682261 286.64473684210526,546.8583849857921 290.6578947368421,552.3958471597443 294.67105263157896,571.043201362666 298.68421052631584,559.8526721472356 302.6973684210526,560.5163155871174 306.7105263157895,571.9637175188876 310.72368421052636,573.0095085001963 314.7368421052631,550.4519598836434 318.75,537.603830167662 322.7631578947369,513.725658015002 326.77631578947364,519.9470784813338 330.7894736842105,505.53891036899086 334.8026315789474,486.13125056046687 338.81578947368416,500.89585353903874 342.82894736842104,493.66704552096405 346.84210526315786,517.7572219092224 350.85526315789474,528.3047135919787 354.8684210526316,480.8182226280775 358.8815789473684,476.24892857605107 362.89473684210526,445.5879642053518 366.90789473684214,464.71905119966993 370.92105263157896,439.4017848369357 374.9342105263158,435.4002741466175 378.9473684210526,451.39664699136506 382.9605263157895,457.3114978107267 386.9736842105263,449.45836215013077 390.9868421052631,464.77545010236213 395.0,478.08672057225453 399.0131578947368,479.5937963947281 403.0263157894737,492.32756360816734 407.0394736842105,500.19680831273183 411.05263157894734,503.5811507585379 415.0657894736842,515.2986626550387 419.07894736842104,540.7969161157894 423.09210526315786,534.806090689479 427.1052631578948,505.0234350177326 431.1184210526316,509.38017635398853 435.1315789473684,537.5310640303125 439.1447368421052,513.9282078908213 443.15789473684214,524.1553246485945 447.17105263157896,524.4843085963932 451.1842105263158,513.1580919673617 455.19736842105266,494.23867053408765 459.2105263157895,508.93341925416684 463.2236842105263,514.7095447063778 467.2368421052632,515.4798013394112 471.25,525.8066789462748 475.2631578947368,523.3419190771388 479.2763157894737,573.9489138153647 483.2894736842105,579.7967475670433 487.30263157894734,576.9782638840079 491.3157894736842,580.3755893349512 495.32894736842104,580.3025772872302 499.34210526315786,616.9516360003707 503.3552631578948,629.6355286582434 507.3684210526316,627.5613064742121 511.3815789473684,623.3296073564276 515.3947368421052,626.7730423794228 519.4078947368421,603.6524060083582 523.421052631579,599.9873641776832 527.4342105263158,601.0359526965026 531.4473684210527,588.7057238672587 535.4605263157895,591.1906924443283 539.4736842105262,603.8646495468306 543.4868421052631,611.7969983781827 547.5,610.8254831469621 551.5131578947369,607.704097771154 555.5263157894738,629.6890882389387 559.5394736842105,622.8702843091575 563.5526315789473,619.8866303707766 567.5657894736842,625.6139132586643 571.578947368421,626.1481878892243 575.5921052631579,607.879249741898 579.6052631578948,612.1635135410429 583.6184210526317,645.9685583183247 587.6315789473683,637.8969313345973 591.6447368421052,639.6423874052648 595.6578947368421,632.1133218945135 599.671052631579,636.445240003746 603.6842105263157,629.1211839144601 607.6973684210526,637.5208491257448 611.7105263157895,639.8608066127314 615.7236842105262,635.1480443653636 619.7368421052632,623.8037263884337 623.75,606.673122741773 627.7631578947368,591.7751368963259 631.7763157894738,587.4840247486629 635.7894736842105,590.0569735150251 639.8026315789474,583.2147103584198 643.8157894736843,585.6345018118599 647.828947368421,586.5795307975105 651.8421052631579,602.2682225764428 655.8552631578948,583.8394914363465 659.8684210526316,566.8544074088595 663.8815789473684,559.5177605703175 667.8947368421052,553.1690922060075 671.9078947368421,546.3517720519433 675.921052631579,549.1711900953997 679.9342105263157,554.5605794427806 683.9473684210526,550.108962467417 687.9605263157895,558.7439670353131 691.9736842105262,560.4235619275388 695.9868421052632,564.57211103692 700.0,558.5100753352724 704.0131578947368,562.7531286776104 708.0263157894736,573.6043146039813 712.0394736842104,549.9964178687677 716.0526315789474,552.4120477036552 720.0657894736843,547.8654837339406 724.078947368421,549.7870915429123 728.0921052631579,550.1222363229026 732.1052631578947,552.1572242284486 736.1184210526316,554.0032201609107 740.1315789473684,552.4104128753215 744.1447368421053,556.527399854107 748.1578947368421,567.362165136351 752.171052631579,564.096972100131 756.1842105263157,571.1453317621914 760.1973684210526,571.0224576299329 764.2105263157896,568.117659926636 768.2236842105264,571.200984621259 772.2368421052632,565.2355565733193 776.25,571.3913132569232 780.2631578947368,567.6487480906928 784.2763157894736,540.2838019049258 788.2894736842104,534.9823393531262 792.3026315789474,532.5293809756988 796.3157894736843,519.4747311568954 800.328947368421,520.266098982242 804.3421052631579,520.8233223465357 808.3552631578947,499.22424975218075 812.3684210526316,499.88521737813903 816.3815789473684,500.67387773952936 820.3947368421053,493.5767335309349 824.4078947368421,501.6823786633945 828.421052631579,478.67010654799003 832.4342105263157,489.00348282349876 836.4473684210526,505.5029092749577 840.4605263157896,498.5007237571127 844.4736842105264,489.31202630336986 848.4868421052632,460.106228030273 852.5,452.9244558306621 856.5131578947368,416.05020689745976 860.5263157894736,393.58997671626764 864.5394736842104,373.8537070906017 868.5526315789474,399.7568822510991 872.5657894736843,397.5525165346139 876.578947368421,409.62839323888835 880.5921052631579,393.85071090412157 884.6052631578947,428.2898580453157 888.6184210526316,418.07767543311127 892.6315789473684,433.9874151328904 896.6447368421053,428.93472010207955 900.6578947368421,418.18539763126205 904.671052631579,388.27358689273746 908.6842105263157,390.0203674578305 912.6973684210526,380.3013151625599 916.7105263157896,395.6439973352365 920.7236842105264,401.300668355928 924.7368421052632,414.8805928387814 928.75,418.70999662451914 932.7631578947368,429.5985190730039 936.7763157894736,408.2954849346743 940.7894736842104,407.8512625471951 944.8026315789474,412.86681379822113 948.8157894736843,461.7303819206097 952.828947368421,443.77072696988887 956.8421052631579,440.317142528552 960.8552631578947,448.0323051758599 964.8684210526316,452.9479781167199 968.8815789473684,458.24076010587646 972.8947368421053,448.52118195396366 976.9078947368421,438.1574848781973 980.921052631579,451.155992566762 984.9342105263157,451.06345353814066 988.9473684210526,428.48323976940384 992.9605263157896,433.79636055515715 996.9736842105264,418.4546031350802 1000.9868421052632,410.38778560515397 1005.0,368.25079978297555 1009.0131578947368,367.3454313838821 1013.0263157894736,340.9289669755849 1017.0394736842104,329.4847353283754 1021.0526315789474,326.4555295812404 1025.0657894736842,336.20581182095526 1029.078947368421,342.5007834514209 1033.092105263158,354.64912441608817 1037.1052631578946,354.87948447564736 1041.1184210526317,342.5030693321151 1045.1315789473683,346.8866664717827 1049.1447368421054,352.02940562447424 1053.157894736842,374.90446484924104 1057.171052631579,375.3645162770443 1061.1842105263158,377.9890959302298 1065.1973684210525,411.0662522045078 1069.2105263157896,406.199366258489 1073.2236842105262,429.86576454017523 1077.2368421052633,419.02794024534717 1081.25,421.05952344303984 1085.2631578947367,436.4270202726429 1089.2763157894738,441.961988753882 1093.2894736842104,444.2895816988921 1097.3026315789475,421.8322813609688 1101.3157894736842,421.3946975397261 1105.328947368421,417.1510466277709 1109.342105263158,371.3785214996143 1113.3552631578946,367.0104032921538 1117.3684210526314,362.78907417113174 1121.3815789473686,369.83959516305515 1125.3947368421052,357.31993552070014 1129.407894736842,373.88310334107405 1133.421052631579,376.27160185506256 1137.4342105263158,366.9954275386245 1141.4473684210525,354.22344790218466 1145.4605263157896,315.040390344866 1149.4736842105265,301.69789420368 1153.4868421052631,294.1167283572198 1157.5,303.0679383994818 1161.5131578947369,246.6271007233114 1165.5263157894735,273.808580819059 1169.5394736842104,270.80008562799935 1173.5526315789475,272.1986444531522 1177.5657894736842,273.2120980293086 1181.578947368421,261.45308134987056 1185.592105263158,280.87182054946 1189.6052631578948,267.3416453359769 1193.6184210526314,255.21634760789175 1197.6315789473686,290.27973268524426 1201.6447368421052,300.90199949803 1205.657894736842,294.23654265456236 1209.671052631579,319.76114597246317 1213.6842105263158,322.95700651343645 1217.6973684210525,350.6272579542859 1221.7105263157896,351.78000229258345 1225.7236842105265,341.679241346828 1229.7368421052631,338.3409497390429 1233.75,365.07614470846056 1237.7631578947369,358.81770891555516 1241.7763157894735,358.11072049832734 1245.7894736842104,345.13225507657893 1249.8026315789475,329.8682221780711 1253.8157894736842,355.33459587897346 1257.828947368421,354.53653425744704 1261.842105263158,412.1776452531751 1265.8552631578948,428.96362109955 1269.8684210526314,429.1715166702322 1273.8815789473686,422.5941826124018 1277.8947368421052,412.84947228058445 1281.907894736842,419.69433421683306 1285.921052631579,411.5973571891694 1289.9342105263158,413.0713284116982 1293.9473684210525,419.06639778739134 1297.9605263157896,412.3456246133102 1301.9736842105265,398.9511440732217 1305.9868421052631,393.11787305762755 1310.0,402.5757552502564" fill="none" stroke="#7c3aed" stroke-width="2.5"><title>drawdown_tilt_rebalance | end=2026-04-29 | return=335.74%</title></polyline>
<polyline points="90.0,709.6962722349949 94.01315789473684,709.6131493415513 98.02631578947368,709.72867295154 102.03947368421052,709.3280279053686 106.05263157894737,707.9059029602257 110.0657894736842,706.1183227729351 114.07894736842105,706.5036941357121 118.09210526315789,705.925601254824 122.10526315789474,706.6662884314458 126.11842105263158,705.2589692842865 130.1315789473684,708.869721883473 134.14473684210526,707.7165754661665 138.1578947368421,710.0 142.17105263157896,707.9263934796975 146.18421052631578,708.7815750453469 150.19736842105263,706.216805027137 154.21052631578948,703.7477287785447 158.2236842105263,703.1970440853944 162.23684210526315,701.1376654775548 166.25,695.5528138642052 170.26315789473682,691.3222218922117 174.2763157894737,684.734430730511 178.28947368421052,682.2214597883768 182.30263157894737,684.8468480093441 186.31578947368422,675.7676079031771 190.32894736842104,675.5119190972799 194.34210526315792,653.9794672626508 198.35526315789474,608.7680797194505 202.36842105263156,612.6090821978677 206.38157894736844,601.912438565419 210.39473684210526,620.3529223557168 214.40789473684208,580.2629618206349 218.42105263157893,561.623478101985 222.4342105263158,540.5051338388829 226.44736842105263,558.8311518204492 230.46052631578948,560.9827593744685 234.4736842105263,536.0106221533879 238.48684210526315,528.0676858230091 242.5,556.2770602641974 246.51315789473685,522.3307825542704 250.52631578947367,525.5494631440238 254.53947368421052,484.46338751755894 258.5526315789474,507.152775353238 262.56578947368416,484.36424571806606 266.57894736842104,439.5556372218468 270.5921052631579,440.93815958523663 274.60526315789474,532.8116131281199 278.61842105263156,508.91265335490357 282.63157894736844,520.1497840808607 286.64473684210526,524.1230646760695 290.6578947368421,530.8122887769644 294.67105263157896,554.5261995515883 298.68421052631584,540.6893372254625 302.6973684210526,541.8155305275118 306.7105263157895,555.2323100381251 310.72368421052636,556.6562166531035 314.7368421052631,528.3240751406831 318.75,513.9875190348218 322.7631578947369,485.07820610315355 326.77631578947364,492.3161678976541 330.7894736842105,474.8680670165081 334.8026315789474,453.83032308981984 338.81578947368416,471.89939404965384 342.82894736842104,463.0265887002565 346.84210526315786,492.7815774837849 350.85526315789474,505.7308930425969 354.8684210526316,448.0018905734241 358.8815789473684,442.22679007186014 362.89473684210526,401.83046370028603 366.90789473684214,428.089277907453 370.92105263157896,393.5483175913949 374.9342105263158,388.0390455385894 378.9473684210526,410.9753451203938 382.9605263157895,419.1229972879461 386.9736842105263,408.26814476795045 390.9868421052631,428.55162639813176 395.0,446.6613742405864 399.0131578947368,448.687975969279 403.0263157894737,465.7491675077682 407.0394736842105,475.8809154851704 411.05263157894734,480.5897770907585 415.0657894736842,495.19453668182757 419.07894736842104,526.0291393841732 423.09210526315786,518.9124339554329 427.1052631578948,483.08999759208126 431.1184210526316,488.09680635630264 435.1315789473684,520.8250179030072 439.1447368421052,493.1257988834418 443.15789473684214,504.84846789257097 447.17105263157896,505.4336322151489 451.1842105263158,492.6077898035678 455.19736842105266,471.1249763243944 459.2105263157895,487.79857998871506 463.2236842105263,494.5193787412028 467.2368421052632,495.16859111443335 471.25,506.358857085894 475.2631578947368,503.73349773219604 479.2763157894737,558.5222990627942 483.2894736842105,564.3627883613792 487.30263157894734,561.1855932821879 491.3157894736842,564.3398291757577 495.32894736842104,564.0646068202885 499.34210526315786,603.7445303927017 503.3552631578948,617.4620326024344 507.3684210526316,615.3740109742237 511.3815789473684,611.0119748747568 515.3947368421052,614.541139359413 519.4078947368421,590.3919254092583 523.421052631579,586.9509557719587 527.4342105263158,588.0475767390798 531.4473684210527,575.4004583681451 535.4605263157895,578.1312719484154 539.4736842105262,591.1673482311103 543.4868421052631,599.3696494156363 547.5,598.9999747503746 551.5131578947369,595.4853091706864 555.5263157894738,616.3838352522855 559.5394736842105,609.5671639059435 563.5526315789473,606.3118289331428 567.5657894736842,612.2232775295874 571.578947368421,612.725949881787 575.5921052631579,595.0550104506475 579.6052631578948,599.3324272073394 583.6184210526317,632.1932299386863 587.6315789473683,624.5769963800749 591.6447368421052,626.1285122114782 595.6578947368421,619.1065043434611 599.671052631579,623.0933848631884 603.6842105263157,615.9471698796877 607.6973684210526,623.9506560924759 611.7105263157895,626.19438353421 615.7236842105262,621.9935119063468 619.7368421052632,611.5701810689919 623.75,594.6760363287656 627.7631578947368,580.0426821862936 631.7763157894738,575.8973155781418 635.7894736842105,578.8662570974006 639.8026315789474,571.9669203147107 643.8157894736843,573.8972671720244 647.828947368421,575.3397085398966 651.8421052631579,589.0686109621826 655.8552631578948,572.3531173822497 659.8684210526316,556.324180872326 663.8815789473684,549.737570659604 667.8947368421052,545.6629231507752 671.9078947368421,538.1374596141145 675.921052631579,542.0249596670013 679.9342105263157,546.4864723346689 683.9473684210526,542.2511131387546 687.9605263157895,550.955733609823 691.9736842105262,552.746421307969 695.9868421052632,558.4072659909241 700.0,551.1971295612536 704.0131578947368,556.8816225912667 708.0263157894736,570.2518402874875 712.0394736842104,541.3931071463649 716.0526315789474,543.9750620485231 720.0657894736843,538.5202222711748 724.078947368421,540.762019456531 728.0921052631579,541.723839997323 732.1052631578947,544.6663925067035 736.1184210526316,546.938006434349 740.1315789473684,544.6783237748202 744.1447368421053,550.335782880837 748.1578947368421,565.2542203487482 752.171052631579,560.5773026005277 756.1842105263157,569.9949582301624 760.1973684210526,569.1214047662345 764.2105263157896,564.9232961739789 768.2236842105264,569.0308837420284 772.2368421052632,561.2372085449206 776.25,568.3386358808059 780.2631578947368,562.7500214700684 784.2763157894736,528.3485776940453 788.2894736842104,521.9213350789389 792.3026315789474,519.252646973541 796.3157894736843,502.3873886790293 800.328947368421,504.0263347172024 804.3421052631579,503.8912465706212 808.3552631578947,470.52148295222514 812.3684210526316,472.6601551886167 816.3815789473684,472.3855294368137 820.3947368421053,464.4758779650833 824.4078947368421,475.11267578158936 828.421052631579,441.9924748944477 832.4342105263157,459.11917203072477 836.4473684210526,483.1308756271957 840.4605263157896,472.16091095367284 844.4736842105264,458.8533692687178 848.4868421052632,415.7402923097747 852.5,406.3539585626332 856.5131578947368,350.21295956589324 860.5263157894736,316.91021001464856 864.5394736842104,285.3263717513169 868.5526315789474,326.43193944995045 872.5657894736843,322.3467115720202 876.578947368421,342.07762007208464 880.5921052631579,316.37269237156937 884.6052631578947,372.3311365746349 888.6184210526316,355.5922001168851 892.6315789473684,382.8263831746753 896.6447368421053,373.30227673052366 900.6578947368421,354.0700054966684 904.671052631579,310.80164571472164 908.6842105263157,314.5748654193331 912.6973684210526,298.22767179160957 916.7105263157896,321.49540906703254 920.7236842105264,331.9296581977712 924.7368421052632,353.4807459996707 928.75,358.92382738658443 932.7631578947368,374.1071562510258 936.7763157894736,344.68594074892786 940.7894736842104,343.64376827891044 944.8026315789474,350.2712856920896 948.8157894736843,415.5190057505172 952.828947368421,391.56114884853764 956.8421052631579,386.2873979813794 960.8552631578947,396.7612879043011 964.8684210526316,403.31924682756653 968.8815789473684,410.1626101881119 972.8947368421053,396.3665606476784 976.9078947368421,382.84616019366644 980.921052631579,400.15170278341213 984.9342105263157,400.0636934690501 988.9473684210526,368.4569628405267 992.9605263157896,375.6590357019701 996.9736842105264,352.63657084410346 1000.9868421052632,339.8422249896345 1005.0,273.79512271705005 1009.0131578947368,268.56891650019475 1013.0263157894736,234.39849756905346 1017.0394736842104,216.85967338835104 1021.0526315789474,210.1632480072862 1025.0657894736842,224.0338003953974 1029.078947368421,233.14545960682835 1033.092105263158,254.9246418831682 1037.1052631578946,254.42523960990496 1041.1184210526317,231.81403221553518 1045.1315789473683,233.70931399999967 1049.1447368421054,240.23317618206187 1053.157894736842,277.6660637819724 1057.171052631579,276.9087873436866 1061.1842105263158,281.57813073295154 1065.1973684210525,336.90825866172906 1069.2105263157896,323.9222439270481 1073.2236842105262,361.3225535902636 1077.2368421052633,344.29099857870887 1081.25,346.81506560482313 1085.2631578947367,370.8876780208141 1089.2763157894738,377.7732695707901 1093.2894736842104,379.55173383245454 1097.3026315789475,343.76757600254155 1101.3157894736842,342.839253424319 1105.328947368421,334.9134615173629 1109.342105263158,271.6378343265925 1113.3552631578946,260.3043079555449 1117.3684210526314,256.9808535116971 1121.3815789473686,268.86900139092694 1125.3947368421052,249.34444360160938 1129.407894736842,273.2357033494699 1133.421052631579,273.94747061726804 1137.4342105263158,261.0730864258941 1141.4473684210525,243.02158285678837 1145.4605263157896,188.3644660056475 1149.4736842105265,171.84463340398293 1153.4868421052631,162.63195964907106 1157.5,176.98860997305587 1161.5131578947369,90.0 1165.5263157894735,137.05073039835452 1169.5394736842104,133.01412964006454 1173.5526315789475,135.33438786373313 1177.5657894736842,136.7436505773037 1181.578947368421,115.55247724623257 1185.592105263158,150.67917395603752 1189.6052631578948,125.83144332766858 1193.6184210526314,103.631789406915 1197.6315789473686,167.530214898694 1201.6447368421052,186.75417759505706 1205.657894736842,175.2130553690929 1209.671052631579,219.5548906403332 1213.6842105263158,224.96607866299632 1217.6973684210525,270.0512867049392 1221.7105263157896,272.0046764014126 1225.7236842105265,256.5455204590267 1229.7368421052631,252.3986294248744 1233.75,290.7220405213845 1237.7631578947369,281.75363106693175 1241.7763157894735,280.85606210358253 1245.7894736842104,262.01720073718235 1249.8026315789475,239.5343145508229 1253.8157894736842,275.7663857159267 1257.828947368421,274.84875731979577 1261.842105263158,356.11909192638154 1265.8552631578948,380.36517797562567 1269.8684210526314,380.92692618682486 1273.8815789473686,371.84221608728745 1277.8947368421052,357.2417374050621 1281.907894736842,367.0757441062767 1285.921052631579,356.3994174875655 1289.9342105263158,358.21785536973135 1293.9473684210525,367.2953024705022 1297.9605263157896,357.43276701620016 1301.9736842105265,338.88626024727085 1305.9868421052631,329.957347705567 1310.0,342.91968406260514" fill="none" stroke="#b45309" stroke-width="2.5"><title>btc_defensive_eth_aggressive | end=2026-04-29 | return=400.95%</title></polyline>
</svg>