<svg xmlns="http://www.w3.org/2000/svg" width="1400" height="800">
<rect width="1400" height="800" fill="#f8fafc"/>
<text x="700.0" y="42" text-anchor="middle" font-family="monospace" font-size="24" fill="#0f172a">Portfolio Value Over Time | start=2023-10-01 | interval=7d</text>
<line x1="90" y1="710" x2="1310" y2="710" stroke="#334155" stroke-width="2"/>
<line x1="90" y1="90" x2="90" y2="710" stroke="#334155" stroke-width="2"/>
<line x1="90.0" y1="710" x2="90.0" y2="90" stroke="#cbd5e1" stroke-width="1"/>
<text x="90.0" y="734" text-anchor="middle" font-family="monospace" font-size="11" fill="#475569">2023-10-01</text>
<line x1="90" y1="710.0" x2="1310" y2="710.0" stroke="#cbd5e1" stroke-width="1"/>
<text x="78" y="714.0" text-anchor="end" font-family="monospace" font-size="12" fill="#475569">9980</text>
<line x1="334.0" y1="710" x2="334.0" y2="90" stroke="#cbd5e1" stroke-width="1"/>
<text x="334.0" y="734" text-anchor="middle" font-family="monospace" font-size="11" fill="#475569">2024-04-07</text>
<line x1="90" y1="586.0" x2="1310" y2="586.0" stroke="#cbd5e1" stroke-width="1"/>
<text x="78" y="590.0" text-anchor="end" font-family="monospace" font-size="12" fill="#475569">12137</text>
<line x1="578.0" y1="710" x2="578.0" y2="90" stroke="#cbd5e1" stroke-width="1"/>
<text x="578.0" y="734" text-anchor="middle" font-family="monospace" font-size="11" fill="#475569">2024-10-13</text>
<line x1="90" y1="462.0" x2="1310" y2="462.0" stroke="#cbd5e1" stroke-width="1"/>
<text x="78" y="466.0" text-anchor="end" font-family="monospace" font-size="12" fill="#475569">14293</text>
<line x1="822.0" y1="710" x2="822.0" y2="90" stroke="#cbd5e1" stroke-width="1"/>
<text x="822.0" y="734" text-anchor="middle" font-family="monospace" font-size="11" fill="#475569">2025-04-20</text>
<line x1="90" y1="337.99999999999994" x2="1310" y2="337.99999999999994" stroke="#cbd5e1" stroke-width="1"/>
<text x="78" y="341.99999999999994" text-anchor="end" font-family="monospace" font-size="12" fill="#475569">16450</text>
<line x1="1066.0" y1="710" x2="1066.0" y2="90" stroke="#cbd5e1" stroke-width="1"/>
<text x="1066.0" y="734" text-anchor="middle" font-family="monospace" font-size="11" fill="#475569">2025-10-26</text>
<line x1="90" y1="214.0" x2="1310" y2="214.0" stroke="#cbd5e1" stroke-width="1"/>
<text x="78" y="218.0" text-anchor="end" font-family="monospace" font-size="12" fill="#475569">18607</text>
<line x1="1310.0" y1="710" x2="1310.0" y2="90" stroke="#cbd5e1" stroke-width="1"/>
<text x="1310.0" y="734" text-anchor="middle" font-family="monospace" font-size="11" fill="#475569">2026-05-03</text>
<line x1="90" y1="90.0" x2="1310" y2="90.0" stroke="#cbd5e1" stroke-width="1"/>
<text x="78" y="94.0" text-anchor="end" font-family="monospace" font-size="12" fill="#475569">20764</text>
<text x="700.0" y="782" text-anchor="middle" font-family="monospace" font-size="16" fill="#0f172a">time</text>
<text x="24" y="400.0" transform="rotate(-90 24,400.0)" text-anchor="middle" font-family="monospace" font-size="16" fill="#0f172a">portfolio_value_usd</text>
<line x1="970" y1="80" x2="988" y2="80" stroke="#0f766e" stroke-width="3"/>
<text x="998" y="84" font-family="monospace" font-size="12" fill="#0f172a">static_50_50_rebalance</text>
<line x1="970" y1="104" x2="988" y2="104" stroke="#dc2626" stroke-width="3"/>
<text x="998" y="108" font-family="monospace" font-size="12" fill="#0f172a">target_50_50_with_cash_band</text>
<line x1="970" y1="128" x2="988" y2="128" stroke="#2563eb" stroke-width="3"/>
<text x="998" y="132" font-family="monospace" font-size="12" fill="#0f172a">narrow_cash_band_rebalance</text>
<line x1="970" y1="152" x2="988" y2="152" stroke="#7c3aed" stroke-width="3"/>
<text x="998" y="156" font-family="monospace" font-size="12" fill="#0f172a">drawdown_tilt_rebalance</text>
<line x1="970" y1="176" x2="988" y2="176" stroke="#b45309" stroke-width="3"/>
<text x="998" y="180" font-family="monospace" font-size="12" fill="#0f172a">btc_defensive_eth_aggressive</text>
<polyline points="90.0,708.8316162761485 99.03703703703704,709.1747405232642 108.07407407407408,710.0 117.11111111111111,707.1252056100956 126.14814814814815,701.6006194293359 135.1851851851852,699.4355110600019 144.22222222222223,693.9965242229852 153.25925925925927,694.3775188541254 162.2962962962963,692.958473332554 171.33333333333331,685.1482215082752 180.37037037037038,673.5302414136554 189.40740740740742,683.4451706993254 198.44444444444446,677.4928146164307 207.48148148148147,678.468657604569 216.51851851851853,677.0786590679675 225.55555555555554,671.623515704894 234.5925925925926,672.6916328040999 243.62962962962962,681.0808240557429 252.66666666666666,677.9124619532743 261.7037037037037,649.0616161220469 270.74074074074076,616.2605722674505 279.77777777777777,604.2045197264932 288.81481481481484,543.8630303589534 297.85185185185185,499.7347150923883 306.8888888888889,517.3106177696603 315.9259259259259,533.4066270748373 324.96296296296293,505.84575882477736 334.0,526.0924103131902 343.03703703703707,560.2712809813709 352.0740740740741,564.1995628314108 361.1111111111111,563.1908670610982 370.14814814814815,568.8647679753042 379.1851851851852,595.6438975847925 388.22222222222223,563.8580993956795 397.25925925925924,493.68004003232875 406.2962962962963,500.5892415275807 415.3333333333333,498.0470915064819 424.3703703703704,518.6013396730216 433.40740740740745,551.4224373824193 442.4444444444444,552.5485686343433 451.48148148148147,626.7411895970318 460.51851851851853,576.1642242101184 469.55555555555554,516.5609705397577 478.5925925925926,539.416139567709 487.6296296296297,636.2310852426692 496.66666666666663,645.64674317209 505.7037037037037,641.5854457778328 514.7407407407408,603.1492172406712 523.7777777777778,664.4376896705601 532.8148148148148,687.671054970704 541.8518518518518,667.3733216295789 550.8888888888889,620.9045481443064 559.9259259259259,604.4306383981152 568.962962962963,638.4979520462507 578.0,635.4526218067424 587.037037037037,580.7818762004999 596.0740740740741,610.1889186659103 605.1111111111111,612.060482909231 614.1481481481482,487.2331798771278 623.1851851851852,461.05396074313745 632.2222222222222,399.6261064422381 641.2592592592592,366.1564311699883 650.2962962962963,321.25253566709836 659.3333333333334,313.76183197384836 668.3703703703704,415.73824455428814 677.4074074074074,414.18992337322624 686.4444444444445,367.35872632738506 695.4814814814815,419.08920343535465 704.5185185185185,400.1481060535408 713.5555555555555,393.0426755874219 722.5925925925926,448.9729269443951 731.6296296296296,479.3986148133158 740.6666666666666,476.8782902611833 749.7037037037037,458.49937098348335 758.7407407407408,499.981530251648 767.7777777777778,604.1347196245482 776.8148148148149,613.8761999829762 785.851851851852,587.5142251645303 794.8888888888888,624.715123001546 803.9259259259259,667.110090907637 812.9629629629629,647.7013675123036 822.0,644.5299593195887 831.0370370370371,589.5440812862098 840.074074074074,585.608661115939 849.1111111111111,452.71037511020427 858.1481481481482,447.91335665531653 867.1851851851852,432.5669964629667 876.2222222222223,444.58766228819735 885.2592592592594,448.26962096902514 894.2962962962962,443.8861699717612 903.3333333333333,500.82768348999764 912.3703703703703,440.8771275055479 921.4074074074074,428.811148809012 930.4444444444445,343.87463779605946 939.4814814814815,247.33150225682516 948.5185185185186,226.595174602437 957.5555555555555,286.7958437659494 966.5925925925926,183.74357899840822 975.6296296296297,165.4678300920757 984.6666666666666,147.2562434997235 993.7037037037037,203.9361695715795 1002.7407407407406,202.43428104352517 1011.7777777777777,157.65151342360048 1020.8148148148148,173.4615585786687 1029.8518518518517,214.86464740593726 1038.888888888889,135.57802024201806 1047.925925925926,203.2511260764308 1056.962962962963,244.7732010142003 1066.0,204.49868202457117 1075.037037037037,245.83819336389945 1084.074074074074,301.73401439011525 1093.111111111111,393.524299157837 1102.1481481481483,452.89012755704164 1111.1851851851852,418.28664304405953 1120.2222222222222,410.39491306589997 1129.2592592592594,418.69931121991294 1138.2962962962963,423.8804294968168 1147.3333333333333,432.8176567479741 1156.3703703703704,396.5300319026476 1165.4074074074074,401.728416996685 1174.4444444444443,372.41845727037327 1183.4814814814815,452.46757594461485 1192.5185185185185,552.2347804129375 1201.5555555555554,598.6066036859436 1210.5925925925926,619.0739584468298 1219.6296296296296,624.656436909108 1228.6666666666667,633.9876319972525 1237.7037037037037,633.5512232302893 1246.7407407407409,574.8449267131604 1255.7777777777778,610.7115289420219 1264.8148148148148,627.3840663734832 1273.8518518518517,598.6867305426347 1282.888888888889,580.9474594323717 1291.9259259259259,559.4327348728394 1300.962962962963,526.5647586459884 1310.0,533.165487564107" fill="none" stroke="#0f766e" stroke-width="2.5"><title>static_50_50_rebalance | end=2026-05-03 | return=30.55%</title></polyline>
<polyline points="90.0,708.8316162761485 99.03703703703704,709.1747405232642 108.07407407407408,710.0 117.11111111111111,707.1252056100956 126.14814814814815,701.6006194293359 135.1851851851852,699.4355110600019 144.22222222222223,693.9965242229852 153.25925925925927,694.3775188541254 162.2962962962963,692.958473332554 171.33333333333331,685.1482215082752 180.37037037037038,673.5302414136554 189.40740740740742,683.4451706993254 198.44444444444446,677.4928146164307 207.48148148148147,678.468657604569 216.51851851851853,677.0786590679675 225.55555555555554,671.623515704894 234.5925925925926,672.6916328040999 243.62962962962962,680.957431583949 252.66666666666666,677.8366743710026 261.7037037037037,650.3047354185737 270.74074074074076,620.748770719501 279.77777777777777,610.6342974487251 288.81481481481484,563.4672773304675 297.85185185185185,531.9663146280145 306.8888888888889,543.4770864869174 315.9259259259259,553.6518566720904 324.96296296296293,536.0307321265445 334.0,548.3355669826068 343.03703703703707,569.3828276342922 352.0740740740741,571.7968305589558 361.1111111111111,570.9579450287669 370.14814814814815,574.7563633176944 379.1851851851852,592.178956826791 388.22222222222223,571.4405180193564 397.25925925925924,524.1106352522607 406.2962962962963,528.093525269091 415.3333333333333,526.7326456474457 424.3703703703704,537.1345595499508 433.40740740740745,553.4402828796048 442.4444444444444,554.0171489752947 451.48148148148147,593.261663003085 460.51851851851853,565.8119215889823 469.55555555555554,532.210886696914 478.5925925925926,544.2127558880753 487.6296296296297,597.1355426273257 496.66666666666663,602.1717812755352 505.7037037037037,599.9830512306588 514.7407407407408,576.4127644076439 523.7777777777778,614.555104168938 532.8148148148148,629.2955536223898 541.8518518518518,615.0137076692047 550.8888888888889,584.0025293015424 559.9259259259259,572.3072389199657 568.962962962963,596.5020299083424 578.0,594.4292125838276 587.037037037037,552.3002446214467 596.0740740740741,574.044806212867 605.1111111111111,575.036896728102 614.1481481481482,478.015313226039 623.1851851851852,457.25974519723275 632.2222222222222,413.15517521728367 641.2592592592592,390.0903872737628 650.2962962962963,363.4668062187884 659.3333333333334,359.453373133395 668.3703703703704,411.11935175123443 677.4074074074074,410.39978813220415 686.4444444444445,385.51354694481904 695.4814814814815,411.8818141162786 704.5185185185185,401.5671489154648 713.5555555555555,397.63007790376486 722.5925925925926,428.4274184735428 731.6296296296296,445.1953395784614 740.6666666666666,443.93381176192753 749.7037037037037,433.6249957484746 758.7407407407408,457.9154830876211 767.7777777777778,524.0083487314126 776.8148148148149,528.7726771945491 785.851851851852,511.0829522892993 794.8888888888888,535.8804358559529 803.9259259259259,564.6526487857055 812.9629629629629,548.4941560726497 822.0,545.2706771202218 831.0370370370371,502.01951542795075 840.074074074074,499.05490422137086 849.1111111111111,404.0474777605845 858.1481481481482,399.3511896209103 867.1851851851852,386.9652944996404 876.2222222222223,397.10700412016195 885.2592592592594,400.0049909068117 894.2962962962962,396.4768669598681 903.3333333333333,444.04725573869746 912.3703703703703,393.59668265556 921.4074074074074,383.31714373364275 930.4444444444445,309.86451157791316 939.4814814814815,232.86814803591204 948.5185185185186,219.10204980353654 957.5555555555555,254.72263707013428 966.5925925925926,197.53583751607118 975.6296296296297,188.1349178243678 984.6666666666666,179.43836216715624 993.7037037037037,208.6341833145156 1002.7407407407406,207.28847152848408 1011.7777777777777,184.25553511680823 1020.8148148148148,192.05437994809836 1029.8518518518517,212.79615065977464 1038.888888888889,172.46767796095924 1047.925925925926,206.01117702098236 1056.962962962963,226.67746398228343 1066.0,206.28496004103386 1075.037037037037,227.05962508239935 1084.074074074074,255.73991720621427 1093.111111111111,303.8639311650425 1102.1481481481483,335.6928329331689 1111.1851851851852,316.83742367772777 1120.2222222222222,312.5542604648703 1129.2592592592594,317.4518361922971 1138.2962962962963,320.36620301374944 1147.3333333333333,325.68646078573755 1156.3703703703704,303.4881961691558 1165.4074074074074,306.7786735580599 1174.4444444444443,287.8092482443769 1183.4814814814815,341.1476042971966 1192.5185185185185,408.86092203564175 1201.5555555555554,441.4065045189151 1210.5925925925926,455.6765738822529 1219.6296296296296,459.8575385169711 1228.6666666666667,466.9650348193486 1237.7037037037037,466.5835983386206 1246.7407407407409,422.05932010867394 1255.7777777777778,450.43845298925754 1264.8148148148148,463.7577849031944 1273.8518518518517,440.39935013715586 1282.888888888889,425.59595594815124 1291.9259259259259,406.77640790449954 1300.962962962963,377.1621234671005 1310.0,382.9574532324911" fill="none" stroke="#dc2626" stroke-width="2.5"><title>target_50_50_with_cash_band | end=2026-05-03 | return=56.68%</title></polyline>
<polyline points="90.0,708.8316162761485 99.03703703703704,709.1747405232642 108.07407407407408,710.0 117.11111111111111,707.1252056100956 126.14814814814815,701.6006194293359 135.1851851851852,699.4355110600019 144.22222222222223,693.9965242229852 153.25925925925927,694.3775188541254 162.2962962962963,692.958473332554 171.33333333333331,685.1482215082752 180.37037037037038,673.5302414136554 189.40740740740742,683.4451706993254 198.44444444444446,677.4928146164307 207.48148148148147,678.468657604569 216.51851851851853,677.0786590679675 225.55555555555554,671.623515704894 234.5925925925926,672.6916328040999 243.62962962962962,681.0808240557429 252.66666666666666,677.9124619532743 261.7037037037037,649.0616161220469 270.74074074074076,616.2605722674505 279.77777777777777,604.2045197264932 288.81481481481484,543.8630303589534 297.85185185185185,499.7347150923883 306.8888888888889,517.3106177696603 315.9259259259259,533.3838951485598 324.96296296296293,505.9045546842922 334.0,525.824284565683 343.03703703703707,559.4198049926079 352.0740740740741,563.2328897450731 361.1111111111111,562.0118925206342 370.14814814814815,567.768200946552 379.1851851851852,594.1288451282192 388.22222222222223,563.0434496280905 397.25925925925924,493.31007666878935 406.2962962962963,499.6580045123365 415.3333333333333,497.4193397795199 424.3703703703704,514.8777755022937 433.40740740740745,542.2623419805616 442.4444444444444,543.2162036817215 451.48148148148147,607.1345910034956 460.51851851851853,563.1364908360124 469.55555555555554,510.0054242205699 478.5925925925926,529.6498011769606 487.6296296296297,615.2405577204198 496.66666666666663,623.2145532893627 505.7037037037037,619.8089195392828 514.7407407407408,583.259093845551 523.7777777777778,638.5435698023083 532.8148148148148,659.726978915017 541.8518518518518,640.1442713164797 550.8888888888889,596.4497846270426 559.9259259259259,580.2509117392143 568.962962962963,612.5815883675183 578.0,609.6774041730068 587.037037037037,555.4769458307321 596.0740740740741,584.6694014921336 605.1111111111111,586.8769942431193 614.1481481481482,467.15495730522514 623.1851851851852,445.1420165815717 632.2222222222222,384.7825163743173 641.2592592592592,350.61694719620556 650.2962962962963,308.4586161939471 659.3333333333334,302.0280429575097 668.3703703703704,390.54988125693933 677.4074074074074,389.2377674467653 686.4444444444445,347.75568977925747 695.4814814814815,392.39224592888576 704.5185185185185,375.28482104168563 713.5555555555555,368.8046329425007 722.5925925925926,418.9915384256864 731.6296296296296,445.6341556568589 740.6666666666666,443.4540653489573 749.7037037037037,427.385907188447 758.7407407407408,463.59185866849185 767.7777777777778,553.7297181163924 776.8148148148149,562.4148416539012 785.851851851852,538.844716115419 794.8888888888888,571.8725304226228 803.9259259259259,609.9984426096955 812.9629629629629,591.6113980936708 822.0,588.3024410400417 831.0370370370371,535.1413725870177 840.074074074074,531.4866097825031 849.1111111111111,410.59822938618646 858.1481481481482,406.4243926847688 867.1851851851852,392.06315013245916 876.2222222222223,402.6601571922543 885.2592592592594,406.61872960728925 894.2962962962962,401.7543845141953 903.3333333333333,460.7040608638582 912.3703703703703,400.70859429792125 921.4074074074074,387.93378957482435 930.4444444444445,300.2298008948691 939.4814814814815,191.36554423720645 948.5185185185186,171.12225957765804 957.5555555555555,227.91233075184851 966.5925925925926,133.14294117693123 975.6296296296297,116.21515482119776 984.6666666666666,99.50216562611979 993.7037037037037,149.26853009153638 1002.7407407407406,148.02670274957643 1011.7777777777777,109.26513639433836 1020.8148148148148,122.85076467623696 1029.8518518518517,158.42298845105665 1038.888888888889,90.0 1047.925925925926,147.8216565948336 1056.962962962963,183.24954432764446 1066.0,148.69160031077115 1075.037037037037,184.08921481003813 1084.074074074074,232.4084137671818 1093.111111111111,312.5034391932433 1102.1481481481483,364.8234488445879 1111.1851851851852,334.24036794415645 1120.2222222222222,327.38919198575303 1129.2592592592594,335.18384884557395 1138.2962962962963,339.73278267507254 1147.3333333333333,347.9900772303929 1156.3703703703704,313.86360411688736 1165.4074074074074,318.87992760009627 1174.4444444444443,290.2327587329298 1183.4814814814815,370.1274302298125 1192.5185185185185,470.70791265658113 1201.5555555555554,518.6620272481326 1210.5925925925926,539.41512719014 1219.6296296296296,545.4762954572202 1228.6666666666667,555.6816346056314 1237.7037037037037,555.1312884377173 1246.7407407407409,492.60928324689974 1255.7777777777778,532.2232989622036 1264.8148148148148,550.6422127906718 1273.8518518518517,518.5973489527573 1282.888888888889,498.44955109368414 1291.9259259259259,473.0168325879423 1300.962962962963,433.5559221065118 1310.0,441.23316541271964" fill="none" stroke="#2563eb" stroke-width="2.5"><title>narrow_cash_band_rebalance | end=2026-05-03 | return=46.55%</title></polyline>
<polyline points="90.0,708.8316162761485 99.03703703703704,709.1747405232642 108.07407407407408,710.0 117.11111111111111,707.1252056100956 126.14814814814815,701.6006194293359 135.1851851851852,699.4355110600019 144.22222222222223,693.9965242229852 153.25925925925927,694.3775188541254 162.2962962962963,692.958473332554 171.33333333333331,685.1482215082752 180.37037037037038,673.5302414136554 189.40740740740742,683.4451706993254 198.44444444444446,677.4928146164307 207.48148148148147,678.468657604569 216.51851851851853,677.0786590679675 225.55555555555554,671.623515704894 234.5925925925926,672.6916328040999 243.62962962962962,681.0808240557429 252.66666666666666,677.9124619532743 261.7037037037037,649.0616161220469 270.74074074074076,616.2605722674505 279.77777777777777,604.2045197264932 288.81481481481484,543.8630303589534 297.85185185185185,499.7347150923883 306.8888888888889,516.8430228591624 315.9259259259259,532.3450908590233 324.96296296296293,506.1143909167232 334.0,525.0634240281382 343.03703703703707,556.9475113238643 352.0740740740741,560.4440645569114 361.1111111111111,558.6985341330601 370.14814814814815,564.6224968748561 379.1851851851852,589.7494610149447 388.22222222222223,560.6386149271351 397.25925925925924,493.2131827427087 406.2962962962963,499.04281660932486 415.3333333333333,497.20184317519124 424.3703703703704,513.0587696355417 433.40740740740745,538.2628941744395 442.4444444444444,539.0762008744757 451.48148148148147,598.2909382697098 460.51851851851853,557.5136249800003 469.55555555555554,508.4463030939232 478.5925925925926,527.2994924140156 487.6296296296297,606.0517874840322 496.66666666666663,613.9120189581035 505.7037037037037,610.5403010600876 514.7407407407408,577.3071568919823 523.7777777777778,630.1292672194696 532.8148148148148,650.3181459755094 541.8518518518518,632.0358094745066 550.8888888888889,591.6096397469786 559.9259259259259,577.1456873057743 568.962962962963,607.5734008813088 578.0,604.7761390417052 587.037037037037,555.9558341375947 596.0740740740741,583.8811884929107 605.1111111111111,586.2788275428469 614.1481481481482,473.7682972219595 623.1851851851852,456.9753399598324 632.2222222222222,402.35077957114663 641.2592592592592,366.34577815497073 650.2962962962963,326.97361391558974 659.3333333333334,322.12275511812703 668.3703703703704,402.61955957751474 677.4074074074074,400.95818681019057 686.4444444444445,363.2516907523155 695.4814814814815,404.13924244597865 704.5185185185185,389.6908839268526 713.5555555555555,384.0568103321349 722.5925925925926,429.13536409591586 731.6296296296296,454.024900798942 740.6666666666666,451.94328506919715 749.7037037037037,436.7765173981068 758.7407407407408,471.1653536441132 767.7777777777778,557.2780605150145 776.8148148148149,565.3973748042246 785.851851851852,543.0071569193144 794.8888888888888,574.1788555032216 803.9259259259259,610.060161739516 812.9629629629629,593.5948833172467 822.0,591.0297702643056 831.0370370370371,545.2837885406335 840.074074074074,542.0056483540745 849.1111111111111,429.70587516720826 858.1481481481482,426.5112226177384 867.1851851851852,413.69603508562653 876.2222222222223,422.75507824680835 885.2592592592594,426.5827719446309 894.2962962962962,421.8596714489984 903.3333333333333,477.5723985211672 912.3703703703703,421.7159894008477 921.4074074074074,409.64287509366426 930.4444444444445,327.8555701756768 939.4814814814815,214.59596938752816 948.5185185185186,195.43600036939472 957.5555555555555,248.04694658359153 966.5925925925926,158.94403335411926 975.6296296296297,143.04635781644902 984.6666666666666,127.3617407420029 993.7037037037037,170.87912253026911 1002.7407407407406,169.77105792603436 1011.7777777777777,135.39223607198028 1020.8148148148148,147.44306311616276 1029.8518518518517,179.28624926600116 1038.888888888889,118.6347536884681 1047.925925925926,170.1064353455066 1056.962962962963,201.3935753041199 1066.0,170.75190774885198 1075.037037037037,202.891941260976 1084.074074074074,246.7127134281875 1093.111111111111,319.2526951190272 1102.1481481481483,366.55431785948343 1111.1851851851852,338.6614184905875 1120.2222222222222,332.19335580584163 1129.2592592592594,338.9509970094235 1138.2962962962963,343.39095051236177 1147.3333333333333,351.0101468437588 1156.3703703703704,319.6183629506356 1165.4074074074074,324.2118023573361 1174.4444444444443,297.73572480972564 1183.4814814814815,371.812347725892 1192.5185185185185,464.9400966814579 1201.5555555555554,508.8255836821553 1210.5925925925926,528.224255955794 1219.6296296296296,533.6878589025275 1228.6666666666667,542.9321738329927 1237.7037037037037,542.4620030163871 1246.7407407407409,484.45285146431826 1255.7777777777778,521.0559118053333 1264.8148148148148,538.2114553660135 1273.8518518518517,508.2722806167433 1282.888888888889,489.3764455190035 1291.9259259259259,465.65026201399337 1300.962962962963,428.6163186333055 1310.0,435.9917707710212" fill="none" stroke="#7c3aed" stroke-width="2.5"><title>drawdown_tilt_rebalance | end=2026-05-03 | return=47.46%</title></polyline>
<polyline points="90.0,708.8316162761485 99.03703703703704,709.1747405232642 108.07407407407408,710.0 117.11111111111111,707.1252056100956 126.14814814814815,701.6006194293359 135.1851851851852,699.4355110600019 144.22222222222223,693.9965242229852 153.25925925925927,694.3775188541254 162.2962962962963,692.958473332554 171.33333333333331,685.1482215082752 180.37037037037038,673.5302414136554 189.40740740740742,683.4451706993254 198.44444444444446,677.4928146164307 207.48148148148147,678.468657604569 216.51851851851853,677.0786590679675 225.55555555555554,671.623515704894 234.5925925925926,672.6916328040999 243.62962962962962,681.0808240557429 252.66666666666666,677.9124619532743 261.7037037037037,649.0616161220469 270.74074074074076,616.2605722674505 279.77777777777777,604.2045197264932 288.81481481481484,543.8630303589534 297.85185185185185,499.7347150923883 306.8888888888889,517.3106177696603 315.9259259259259,533.4066270748373 324.96296296296293,505.84575882477736 334.0,526.0924103131902 343.03703703703707,560.2712809813709 352.0740740740741,564.1995628314108 361.1111111111111,563.1908670610982 370.14814814814815,568.7422608862821 379.1851851851852,595.2341582900453 388.22222222222223,563.6618661852478 397.25925925925924,495.1467440515371 406.2962962962963,502.00619019198444 415.3333333333333,498.9163011637408 424.3703703703704,519.036589207612 433.40740740740745,550.7314303332041 442.4444444444444,552.0551413143354 451.48148148148147,624.9225385668674 460.51851851851853,576.8266695859152 469.55555555555554,521.9707766528117 478.5925925925926,542.4411131083217 487.6296296296297,634.1870497549179 496.66666666666663,641.4318621058104 505.7037037037037,638.4850306652993 514.7407407407408,600.1012633457807 523.7777777777778,659.3155305613442 532.8148148148148,681.1463304970357 541.8518518518518,658.7406552660728 550.8888888888889,616.1616566689104 559.9259259259259,600.3979188196786 568.962962962963,631.633268327818 578.0,629.229006129238 587.037037037037,577.559728274888 596.0740740740741,602.5995390103469 605.1111111111111,602.7482537149036 614.1481481481482,481.22541444212334 623.1851851851852,443.1672999653054 632.2222222222222,377.6652138974888 641.2592592592592,350.46441133139786 650.2962962962963,305.37677042771264 659.3333333333334,294.8364372857778 668.3703703703704,397.5283251030803 677.4074074074074,398.2494368871524 686.4444444444445,350.08198978173846 695.4814814814815,401.1525647018274 704.5185185185185,374.2183800459693 713.5555555555555,365.90283587900154 722.5925925925926,422.4641927063975 731.6296296296296,451.02498225389456 740.6666666666666,449.3440199461603 749.7037037037037,432.8990618034113 758.7407407407408,472.2936291013446 767.7777777777778,584.1152900921495 776.8148148148149,590.021373805343 785.851851851852,563.0619137360268 794.8888888888888,600.0221454311636 803.9259259259259,641.1398518797525 812.9629629629629,618.4929725556422 822.0,614.2351254136084 831.0370370370371,557.8947137307681 840.074074074074,553.9291458073301 849.1111111111111,426.3715846405881 858.1481481481482,419.4434903418913 867.1851851851852,402.8823445224461 876.2222222222223,417.52680024978355 885.2592592592594,420.67559513461174 894.2962962962962,417.0460478902826 903.3333333333333,473.2747504792479 912.3703703703703,410.4689738328475 921.4074074074074,398.6993443763924 930.4444444444445,310.28254978563507 939.4814814814815,222.89046794094344 948.5185185185186,200.7446018254861 957.5555555555555,266.0116163299157 966.5925925925926,155.04151109390477 975.6296296296297,135.74605958290533 984.6666666666666,116.68064363392193 993.7037037037037,180.1813748054068 1002.7407407407406,177.96922465734008 1011.7777777777777,128.18204862623634 1020.8148148148148,145.47595507180677 1029.8518518518517,191.19994949690033 1038.888888888889,103.39423407242157 1047.925925925926,177.77311244189877 1056.962962962963,223.18712204590048 1066.0,179.38781996472358 1075.037037037037,224.30122400545343 1084.074074074074,282.32186718630743 1093.111111111111,377.6470826620416 1102.1481481481483,437.25376254098063 1111.1851851851852,403.8969720950432 1120.2222222222222,397.3581090169536 1129.2592592592594,406.84687072890154 1138.2962962962963,410.26535308040656 1147.3333333333333,418.252994750967 1156.3703703703704,385.1654208481697 1165.4074074074074,390.0485728706459 1174.4444444444443,363.631391836703 1183.4814814814815,435.00492633027505 1192.5185185185185,525.5368629534561 1201.5555555555554,571.0165166164032 1210.5925925925926,589.1085355173557 1219.6296296296296,595.214935182072 1228.6666666666667,605.2970715391677 1237.7037037037037,604.6524944318707 1246.7407407407409,548.2477246647979 1255.7777777777778,583.8609310351416 1264.8148148148148,599.7616508892125 1273.8518518518517,572.681305389973 1282.888888888889,556.1452391979623 1291.9259259259259,534.6531033163992 1300.962962962963,501.6210336439067 1310.0,506.93211667924817" fill="none" stroke="#b45309" stroke-width="2.5"><title>btc_defensive_eth_aggressive | end=2026-05-03 | return=35.12%</title></polyline>
</svg>