<svg xmlns="http://www.w3.org/2000/svg" width="1400" height="800">
<rect width="1400" height="800" fill="#f8fafc"/>
<text x="700.0" y="42" text-anchor="middle" font-family="monospace" font-size="24" fill="#0f172a">narrow_cash_band_rebalance | weekly | start=2024-07-01 | return=8.82%</text>
<line x1="90" y1="420" x2="1310" y2="420" stroke="#334155" stroke-width="2"/>
<line x1="90" y1="90" x2="90" y2="420" stroke="#334155" stroke-width="2"/>
<line x1="90.0" y1="420" x2="90.0" y2="90" stroke="#94a3b8" stroke-width="1.2"/>
<line x1="90.0" y1="605" x2="90.0" y2="480" stroke="#94a3b8" stroke-width="1.2"/>
<line x1="90.0" y1="770" x2="90.0" y2="645" stroke="#94a3b8" stroke-width="1.2"/>
<text x="90.0" y="788" text-anchor="middle" font-family="monospace" font-size="11" fill="#334155">2024-07</text>
<line x1="153.54166666666669" y1="420" x2="153.54166666666669" y2="90" stroke="#94a3b8" stroke-width="1.2"/>
<line x1="153.54166666666669" y1="605" x2="153.54166666666669" y2="480" stroke="#94a3b8" stroke-width="1.2"/>
<line x1="153.54166666666669" y1="770" x2="153.54166666666669" y2="645" stroke="#94a3b8" stroke-width="1.2"/>
<text x="153.54166666666669" y="788" text-anchor="middle" font-family="monospace" font-size="11" fill="#334155">2024-08</text>
<line x1="204.375" y1="420" x2="204.375" y2="90" stroke="#94a3b8" stroke-width="1.2"/>
<line x1="204.375" y1="605" x2="204.375" y2="480" stroke="#94a3b8" stroke-width="1.2"/>
<line x1="204.375" y1="770" x2="204.375" y2="645" stroke="#94a3b8" stroke-width="1.2"/>
<text x="204.375" y="788" text-anchor="middle" font-family="monospace" font-size="11" fill="#334155">2024-09</text>
<line x1="267.9166666666667" y1="420" x2="267.9166666666667" y2="90" stroke="#94a3b8" stroke-width="1.2"/>
<line x1="267.9166666666667" y1="605" x2="267.9166666666667" y2="480" stroke="#94a3b8" stroke-width="1.2"/>
<line x1="267.9166666666667" y1="770" x2="267.9166666666667" y2="645" stroke="#94a3b8" stroke-width="1.2"/>
<text x="267.9166666666667" y="788" text-anchor="middle" font-family="monospace" font-size="11" fill="#334155">2024-10</text>
<line x1="318.75" y1="420" x2="318.75" y2="90" stroke="#94a3b8" stroke-width="1.2"/>
<line x1="318.75" y1="605" x2="318.75" y2="480" stroke="#94a3b8" stroke-width="1.2"/>
<line x1="318.75" y1="770" x2="318.75" y2="645" stroke="#94a3b8" stroke-width="1.2"/>
<text x="318.75" y="788" text-anchor="middle" font-family="monospace" font-size="11" fill="#334155">2024-11</text>
<line x1="369.5833333333333" y1="420" x2="369.5833333333333" y2="90" stroke="#94a3b8" stroke-width="1.2"/>
<line x1="369.5833333333333" y1="605" x2="369.5833333333333" y2="480" stroke="#94a3b8" stroke-width="1.2"/>
<line x1="369.5833333333333" y1="770" x2="369.5833333333333" y2="645" stroke="#94a3b8" stroke-width="1.2"/>
<text x="369.5833333333333" y="788" text-anchor="middle" font-family="monospace" font-size="11" fill="#334155">2024-12</text>
<line x1="433.125" y1="420" x2="433.125" y2="90" stroke="#94a3b8" stroke-width="1.2"/>
<line x1="433.125" y1="605" x2="433.125" y2="480" stroke="#94a3b8" stroke-width="1.2"/>
<line x1="433.125" y1="770" x2="433.125" y2="645" stroke="#94a3b8" stroke-width="1.2"/>
<text x="433.125" y="788" text-anchor="middle" font-family="monospace" font-size="11" fill="#334155">2025-01</text>
<line x1="483.95833333333337" y1="420" x2="483.95833333333337" y2="90" stroke="#94a3b8" stroke-width="1.2"/>
<line x1="483.95833333333337" y1="605" x2="483.95833333333337" y2="480" stroke="#94a3b8" stroke-width="1.2"/>
<line x1="483.95833333333337" y1="770" x2="483.95833333333337" y2="645" stroke="#94a3b8" stroke-width="1.2"/>
<text x="483.95833333333337" y="788" text-anchor="middle" font-family="monospace" font-size="11" fill="#334155">2025-02</text>
<line x1="534.7916666666666" y1="420" x2="534.7916666666666" y2="90" stroke="#94a3b8" stroke-width="1.2"/>
<line x1="534.7916666666666" y1="605" x2="534.7916666666666" y2="480" stroke="#94a3b8" stroke-width="1.2"/>
<line x1="534.7916666666666" y1="770" x2="534.7916666666666" y2="645" stroke="#94a3b8" stroke-width="1.2"/>
<text x="534.7916666666666" y="788" text-anchor="middle" font-family="monospace" font-size="11" fill="#334155">2025-03</text>
<line x1="598.3333333333334" y1="420" x2="598.3333333333334" y2="90" stroke="#94a3b8" stroke-width="1.2"/>
<line x1="598.3333333333334" y1="605" x2="598.3333333333334" y2="480" stroke="#94a3b8" stroke-width="1.2"/>
<line x1="598.3333333333334" y1="770" x2="598.3333333333334" y2="645" stroke="#94a3b8" stroke-width="1.2"/>
<text x="598.3333333333334" y="788" text-anchor="middle" font-family="monospace" font-size="11" fill="#334155">2025-04</text>
<line x1="649.1666666666666" y1="420" x2="649.1666666666666" y2="90" stroke="#94a3b8" stroke-width="1.2"/>
<line x1="649.1666666666666" y1="605" x2="649.1666666666666" y2="480" stroke="#94a3b8" stroke-width="1.2"/>
<line x1="649.1666666666666" y1="770" x2="649.1666666666666" y2="645" stroke="#94a3b8" stroke-width="1.2"/>
<text x="649.1666666666666" y="788" text-anchor="middle" font-family="monospace" font-size="11" fill="#334155">2025-05</text>
<line x1="700.0" y1="420" x2="700.0" y2="90" stroke="#94a3b8" stroke-width="1.2"/>
<line x1="700.0" y1="605" x2="700.0" y2="480" stroke="#94a3b8" stroke-width="1.2"/>
<line x1="700.0" y1="770" x2="700.0" y2="645" stroke="#94a3b8" stroke-width="1.2"/>
<text x="700.0" y="788" text-anchor="middle" font-family="monospace" font-size="11" fill="#334155">2025-06</text>
<line x1="763.5416666666667" y1="420" x2="763.5416666666667" y2="90" stroke="#94a3b8" stroke-width="1.2"/>
<line x1="763.5416666666667" y1="605" x2="763.5416666666667" y2="480" stroke="#94a3b8" stroke-width="1.2"/>
<line x1="763.5416666666667" y1="770" x2="763.5416666666667" y2="645" stroke="#94a3b8" stroke-width="1.2"/>
<text x="763.5416666666667" y="788" text-anchor="middle" font-family="monospace" font-size="11" fill="#334155">2025-07</text>
<line x1="814.375" y1="420" x2="814.375" y2="90" stroke="#94a3b8" stroke-width="1.2"/>
<line x1="814.375" y1="605" x2="814.375" y2="480" stroke="#94a3b8" stroke-width="1.2"/>
<line x1="814.375" y1="770" x2="814.375" y2="645" stroke="#94a3b8" stroke-width="1.2"/>
<text x="814.375" y="788" text-anchor="middle" font-family="monospace" font-size="11" fill="#334155">2025-08</text>
<line x1="865.2083333333333" y1="420" x2="865.2083333333333" y2="90" stroke="#94a3b8" stroke-width="1.2"/>
<line x1="865.2083333333333" y1="605" x2="865.2083333333333" y2="480" stroke="#94a3b8" stroke-width="1.2"/>
<line x1="865.2083333333333" y1="770" x2="865.2083333333333" y2="645" stroke="#94a3b8" stroke-width="1.2"/>
<text x="865.2083333333333" y="788" text-anchor="middle" font-family="monospace" font-size="11" fill="#334155">2025-09</text>
<line x1="928.75" y1="420" x2="928.75" y2="90" stroke="#94a3b8" stroke-width="1.2"/>
<line x1="928.75" y1="605" x2="928.75" y2="480" stroke="#94a3b8" stroke-width="1.2"/>
<line x1="928.75" y1="770" x2="928.75" y2="645" stroke="#94a3b8" stroke-width="1.2"/>
<text x="928.75" y="788" text-anchor="middle" font-family="monospace" font-size="11" fill="#334155">2025-10</text>
<line x1="979.5833333333333" y1="420" x2="979.5833333333333" y2="90" stroke="#94a3b8" stroke-width="1.2"/>
<line x1="979.5833333333333" y1="605" x2="979.5833333333333" y2="480" stroke="#94a3b8" stroke-width="1.2"/>
<line x1="979.5833333333333" y1="770" x2="979.5833333333333" y2="645" stroke="#94a3b8" stroke-width="1.2"/>
<text x="979.5833333333333" y="788" text-anchor="middle" font-family="monospace" font-size="11" fill="#334155">2025-11</text>
<line x1="1030.4166666666667" y1="420" x2="1030.4166666666667" y2="90" stroke="#94a3b8" stroke-width="1.2"/>
<line x1="1030.4166666666667" y1="605" x2="1030.4166666666667" y2="480" stroke="#94a3b8" stroke-width="1.2"/>
<line x1="1030.4166666666667" y1="770" x2="1030.4166666666667" y2="645" stroke="#94a3b8" stroke-width="1.2"/>
<text x="1030.4166666666667" y="788" text-anchor="middle" font-family="monospace" font-size="11" fill="#334155">2025-12</text>
<line x1="1093.9583333333333" y1="420" x2="1093.9583333333333" y2="90" stroke="#94a3b8" stroke-width="1.2"/>
<line x1="1093.9583333333333" y1="605" x2="1093.9583333333333" y2="480" stroke="#94a3b8" stroke-width="1.2"/>
<line x1="1093.9583333333333" y1="770" x2="1093.9583333333333" y2="645" stroke="#94a3b8" stroke-width="1.2"/>
<text x="1093.9583333333333" y="788" text-anchor="middle" font-family="monospace" font-size="11" fill="#334155">2026-01</text>
<line x1="1144.7916666666667" y1="420" x2="1144.7916666666667" y2="90" stroke="#94a3b8" stroke-width="1.2"/>
<line x1="1144.7916666666667" y1="605" x2="1144.7916666666667" y2="480" stroke="#94a3b8" stroke-width="1.2"/>
<line x1="1144.7916666666667" y1="770" x2="1144.7916666666667" y2="645" stroke="#94a3b8" stroke-width="1.2"/>
<text x="1144.7916666666667" y="788" text-anchor="middle" font-family="monospace" font-size="11" fill="#334155">2026-02</text>
<line x1="1195.625" y1="420" x2="1195.625" y2="90" stroke="#94a3b8" stroke-width="1.2"/>
<line x1="1195.625" y1="605" x2="1195.625" y2="480" stroke="#94a3b8" stroke-width="1.2"/>
<line x1="1195.625" y1="770" x2="1195.625" y2="645" stroke="#94a3b8" stroke-width="1.2"/>
<text x="1195.625" y="788" text-anchor="middle" font-family="monospace" font-size="11" fill="#334155">2026-03</text>
<line x1="1259.1666666666667" y1="420" x2="1259.1666666666667" y2="90" stroke="#94a3b8" stroke-width="1.2"/>
<line x1="1259.1666666666667" y1="605" x2="1259.1666666666667" y2="480" stroke="#94a3b8" stroke-width="1.2"/>
<line x1="1259.1666666666667" y1="770" x2="1259.1666666666667" y2="645" stroke="#94a3b8" stroke-width="1.2"/>
<text x="1259.1666666666667" y="788" text-anchor="middle" font-family="monospace" font-size="11" fill="#334155">2026-04</text>
<line x1="1310.0" y1="420" x2="1310.0" y2="90" stroke="#94a3b8" stroke-width="1.2"/>
<line x1="1310.0" y1="605" x2="1310.0" y2="480" stroke="#94a3b8" stroke-width="1.2"/>
<line x1="1310.0" y1="770" x2="1310.0" y2="645" stroke="#94a3b8" stroke-width="1.2"/>
<text x="1310.0" y="788" text-anchor="middle" font-family="monospace" font-size="11" fill="#334155">2026-05</text>
<line x1="90" y1="420.0" x2="1310" y2="420.0" stroke="#cbd5e1" stroke-width="1"/>
<text x="78" y="424.0" text-anchor="end" font-family="monospace" font-size="12" fill="#475569">0</text>
<line x1="90" y1="354.0" x2="1310" y2="354.0" stroke="#cbd5e1" stroke-width="1"/>
<text x="78" y="358.0" text-anchor="end" font-family="monospace" font-size="12" fill="#475569">3145</text>
<line x1="90" y1="288.0" x2="1310" y2="288.0" stroke="#cbd5e1" stroke-width="1"/>
<text x="78" y="292.0" text-anchor="end" font-family="monospace" font-size="12" fill="#475569">6291</text>
<line x1="90" y1="222.0" x2="1310" y2="222.0" stroke="#cbd5e1" stroke-width="1"/>
<text x="78" y="226.0" text-anchor="end" font-family="monospace" font-size="12" fill="#475569">9436</text>
<line x1="90" y1="156.0" x2="1310" y2="156.0" stroke="#cbd5e1" stroke-width="1"/>
<text x="78" y="160.0" text-anchor="end" font-family="monospace" font-size="12" fill="#475569">12582</text>
<line x1="90" y1="90.0" x2="1310" y2="90.0" stroke="#cbd5e1" stroke-width="1"/>
<text x="78" y="94.0" text-anchor="end" font-family="monospace" font-size="12" fill="#475569">15727</text>
<polygon points="90.0,214.37196005297847 102.70833333333333,218.56845066414215 115.41666666666666,222.76494127530586 128.125,226.96143188646957 140.83333333333331,231.15792249763328 153.54166666666669,235.354413108797 166.25,239.55090371996067 178.95833333333334,243.74739433112438 191.66666666666666,247.9438849422881 204.375,252.1403755534518 217.08333333333334,256.33686616461546 229.79166666666666,260.5333567757792 242.5,264.7298473869429 255.20833333333331,268.92633799810665 267.9166666666667,273.1228286092703 280.625,277.319319220434 293.3333333333333,281.5158098315977 306.0416666666667,285.71230044276143 318.75,289.90879105392514 331.4583333333333,294.10528166508885 344.1666666666667,298.30177227625256 356.875,302.4982628874163 369.5833333333333,306.69475349858 382.2916666666667,310.89124410974364 395.0,314.80992915166007 407.70833333333337,319.0064197628237 420.41666666666663,323.20291037398744 433.125,324.7432209470105 445.83333333333337,328.93971155817417 458.54166666666663,333.13620216933793 471.25,337.3326927805016 483.95833333333337,334.0682730722317 496.66666666666663,333.1975498050073 509.375,334.1197906709302 522.0833333333334,335.6961974767176 534.7916666666666,337.4247628914074 547.5,341.6212535025711 560.2083333333334,345.8177441137348 572.9166666666666,345.47434716626344 585.625,349.67083777742715 598.3333333333334,353.86732838859086 611.0416666666666,358.0638189997546 623.75,362.2603096109183 636.4583333333334,356.6455184571102 649.1666666666666,354.27481892677037 661.875,355.20176040001377 674.5833333333334,356.17965961727344 687.2916666666666,357.0050158656072 700.0,359.27251786821364 712.7083333333333,358.17779949058973 725.4166666666667,359.0593745273746 738.125,360.04282689898315 750.8333333333333,361.5050239704532 763.5416666666667,363.3045639581203 776.25,357.68026757581674 788.9583333333333,338.7595212358994 801.6666666666667,327.9801354779697 814.375,322.7011279323622 827.0833333333333,316.8355939737188 839.7916666666667,313.2416743395217 852.5,310.83681401543686 865.2083333333333,310.548200387981 877.9166666666667,310.9680636334898 890.625,310.08601421060985 903.3333333333333,310.93885762689916 916.0416666666667,311.1996230983649 928.75,308.5197738590189 941.4583333333333,309.51246465600565 954.1666666666667,313.70895526716936 966.875,313.16271031416613 979.5833333333333,317.35920092532984 992.2916666666667,320.9024882969365 1005.0,325.0989789081002 1017.7083333333333,329.2954695192639 1030.4166666666667,333.49196013042763 1043.125,337.6884507415913 1055.8333333333333,341.88494135275505 1068.5416666666667,346.0814319639187 1081.25,350.2779225750824 1093.9583333333333,354.4744131862461 1106.6666666666667,358.67090379740984 1119.375,362.86739440857355 1132.0833333333333,367.06388501973726 1144.7916666666667,371.26037563090097 1157.5,375.4568662420647 1170.2083333333333,379.23778238477064 1182.9166666666667,382.6123571507691 1195.625,385.427993107066 1208.3333333333333,387.8366712107892 1221.0416666666667,390.79700391789873 1233.75,393.1273318504782 1246.4583333333333,395.6279448516219 1259.1666666666667,397.2345910921962 1271.875,397.4552883829784 1284.5833333333333,397.6061505046031 1297.2916666666667,397.6365476228322 1310.0,397.4490836256368 1310.0,420.0 1297.2916666666667,420.0 1284.5833333333333,420.0 1271.875,420.0 1259.1666666666667,420.0 1246.4583333333333,420.0 1233.75,420.0 1221.0416666666667,420.0 1208.3333333333333,420.0 1195.625,420.0 1182.9166666666667,420.0 1170.2083333333333,420.0 1157.5,420.0 1144.7916666666667,420.0 1132.0833333333333,420.0 1119.375,420.0 1106.6666666666667,420.0 1093.9583333333333,420.0 1081.25,420.0 1068.5416666666667,420.0 1055.8333333333333,420.0 1043.125,420.0 1030.4166666666667,420.0 1017.7083333333333,420.0 1005.0,420.0 992.2916666666667,420.0 979.5833333333333,420.0 966.875,420.0 954.1666666666667,420.0 941.4583333333333,420.0 928.75,420.0 916.0416666666667,420.0 903.3333333333333,420.0 890.625,420.0 877.9166666666667,420.0 865.2083333333333,420.0 852.5,420.0 839.7916666666667,420.0 827.0833333333333,420.0 814.375,420.0 801.6666666666667,420.0 788.9583333333333,420.0 776.25,420.0 763.5416666666667,420.0 750.8333333333333,420.0 738.125,420.0 725.4166666666667,420.0 712.7083333333333,420.0 700.0,420.0 687.2916666666666,420.0 674.5833333333334,420.0 661.875,420.0 649.1666666666666,420.0 636.4583333333334,420.0 623.75,420.0 611.0416666666666,420.0 598.3333333333334,420.0 585.625,420.0 572.9166666666666,420.0 560.2083333333334,420.0 547.5,420.0 534.7916666666666,420.0 522.0833333333334,420.0 509.375,420.0 496.66666666666663,420.0 483.95833333333337,420.0 471.25,420.0 458.54166666666663,420.0 445.83333333333337,420.0 433.125,420.0 420.41666666666663,420.0 407.70833333333337,420.0 395.0,420.0 382.2916666666667,420.0 369.5833333333333,420.0 356.875,420.0 344.1666666666667,420.0 331.4583333333333,420.0 318.75,420.0 306.0416666666667,420.0 293.3333333333333,420.0 280.625,420.0 267.9166666666667,420.0 255.20833333333331,420.0 242.5,420.0 229.79166666666666,420.0 217.08333333333334,420.0 204.375,420.0 191.66666666666666,420.0 178.95833333333334,420.0 166.25,420.0 153.54166666666669,420.0 140.83333333333331,420.0 128.125,420.0 115.41666666666666,420.0 102.70833333333333,420.0 90.0,420.0" fill="#facc15" fill-opacity="0.70" stroke="#facc15" stroke-width="1.2"/>
<polygon points="90.0,212.2737147473966 102.70833333333333,214.62831333596014 115.41666666666666,216.11645660812815 128.125,218.30009025537208 140.83333333333331,220.70931424757217 153.54166666666669,225.63322377819654 166.25,226.51598404342522 178.95833333333334,229.0251907350631 191.66666666666666,230.87992220151557 204.375,233.88815385930994 217.08333333333334,237.26450994436937 229.79166666666666,239.88714201116122 242.5,238.8234322224768 255.20833333333331,241.36654761980427 267.9166666666667,245.36750304545802 280.625,245.09259512218924 293.3333333333333,246.74202450484347 306.0416666666667,250.14088648711848 318.75,254.57750658817548 331.4583333333333,242.2487370379432 344.1666666666667,246.9057227349438 356.875,245.71269008076789 369.5833333333333,243.98944354193264 382.2916666666667,244.89965814593887 395.0,241.85047800122595 407.70833333333337,254.36826093373858 420.41666666666663,257.64765242507883 433.125,250.58275771516168 445.83333333333337,263.7919844425064 458.54166666666663,262.8921812361456 471.25,267.09898913814595 483.95833333333337,268.32082351100325 496.66666666666663,270.4078251909358 509.375,267.2921320906678 522.0833333333334,272.3897980613357 534.7916666666666,281.2344126515684 547.5,290.74811066862475 560.2083333333334,291.1499659571701 572.9166666666666,284.2997783945872 585.625,294.0268446701057 598.3333333333334,304.35214183717244 611.0416666666666,304.17369121330137 623.75,307.74791472368327 636.4583333333334,292.41787932436637 649.1666666666666,287.2393215756709 661.875,261.18295615489694 674.5833333333334,258.82400876617385 687.2916666666666,256.18013026102244 700.0,254.58123980572668 712.7083333333333,253.79066400652556 725.4166666666667,257.8694814203524 738.125,262.01322182911514 750.8333333333333,258.4054099767435 763.5416666666667,255.77486977562938 776.25,237.90358058665768 788.9583333333333,210.2329765439107 801.6666666666667,211.11177770178057 814.375,215.62738869554724 827.0833333333333,203.23348409611964 839.7916666666667,202.88757159606035 852.5,203.40928222810683 865.2083333333333,207.0356078552497 877.9166666666667,208.72525189811404 890.625,204.30758153778513 903.3333333333333,211.9572623304565 916.0416666666667,211.33480215442344 928.75,199.03631197945117 941.4583333333333,209.52774026182445 954.1666666666667,217.85093087923124 966.875,213.6428404340236 979.5833333333333,228.23439102331398 992.2916666666667,231.23281946914312 1005.0,246.87269355558504 1017.7083333333333,250.91633294319908 1030.4166666666667,257.11034399421834 1043.125,250.29298794234387 1055.8333333333333,256.88080378011784 1068.5416666666667,257.737708809246 1081.25,261.9948413844163 1093.9583333333333,255.33756076070114 1106.6666666666667,261.5316843201855 1119.375,260.6274149568416 1132.0833333333333,271.0863785170763 1144.7916666666667,292.2610898639168 1157.5,302.48728979416785 1170.2083333333333,307.8655578851212 1182.9166666666667,314.20764004173975 1195.625,308.585266528641 1208.3333333333333,310.1956838010041 1221.0416666666667,297.0443830053855 1233.75,305.2944516015217 1246.4583333333333,310.8854541077434 1259.1666666666667,307.67013007600696 1271.875,297.02828965518484 1284.5833333333333,298.8589918944243 1297.2916666666667,298.50661975216053 1310.0,295.74983720207564 1310.0,397.4490836256368 1297.2916666666667,397.6365476228322 1284.5833333333333,397.6061505046031 1271.875,397.4552883829784 1259.1666666666667,397.2345910921962 1246.4583333333333,395.6279448516219 1233.75,393.1273318504782 1221.0416666666667,390.79700391789873 1208.3333333333333,387.8366712107892 1195.625,385.427993107066 1182.9166666666667,382.6123571507691 1170.2083333333333,379.23778238477064 1157.5,375.4568662420647 1144.7916666666667,371.26037563090097 1132.0833333333333,367.06388501973726 1119.375,362.86739440857355 1106.6666666666667,358.67090379740984 1093.9583333333333,354.4744131862461 1081.25,350.2779225750824 1068.5416666666667,346.0814319639187 1055.8333333333333,341.88494135275505 1043.125,337.6884507415913 1030.4166666666667,333.49196013042763 1017.7083333333333,329.2954695192639 1005.0,325.0989789081002 992.2916666666667,320.9024882969365 979.5833333333333,317.35920092532984 966.875,313.16271031416613 954.1666666666667,313.70895526716936 941.4583333333333,309.51246465600565 928.75,308.5197738590189 916.0416666666667,311.1996230983649 903.3333333333333,310.93885762689916 890.625,310.08601421060985 877.9166666666667,310.9680636334898 865.2083333333333,310.548200387981 852.5,310.83681401543686 839.7916666666667,313.2416743395217 827.0833333333333,316.8355939737188 814.375,322.7011279323622 801.6666666666667,327.9801354779697 788.9583333333333,338.7595212358994 776.25,357.68026757581674 763.5416666666667,363.3045639581203 750.8333333333333,361.5050239704532 738.125,360.04282689898315 725.4166666666667,359.0593745273746 712.7083333333333,358.17779949058973 700.0,359.27251786821364 687.2916666666666,357.0050158656072 674.5833333333334,356.17965961727344 661.875,355.20176040001377 649.1666666666666,354.27481892677037 636.4583333333334,356.6455184571102 623.75,362.2603096109183 611.0416666666666,358.0638189997546 598.3333333333334,353.86732838859086 585.625,349.67083777742715 572.9166666666666,345.47434716626344 560.2083333333334,345.8177441137348 547.5,341.6212535025711 534.7916666666666,337.4247628914074 522.0833333333334,335.6961974767176 509.375,334.1197906709302 496.66666666666663,333.1975498050073 483.95833333333337,334.0682730722317 471.25,337.3326927805016 458.54166666666663,333.13620216933793 445.83333333333337,328.93971155817417 433.125,324.7432209470105 420.41666666666663,323.20291037398744 407.70833333333337,319.0064197628237 395.0,314.80992915166007 382.2916666666667,310.89124410974364 369.5833333333333,306.69475349858 356.875,302.4982628874163 344.1666666666667,298.30177227625256 331.4583333333333,294.10528166508885 318.75,289.90879105392514 306.0416666666667,285.71230044276143 293.3333333333333,281.5158098315977 280.625,277.319319220434 267.9166666666667,273.1228286092703 255.20833333333331,268.92633799810665 242.5,264.7298473869429 229.79166666666666,260.5333567757792 217.08333333333334,256.33686616461546 204.375,252.1403755534518 191.66666666666666,247.9438849422881 178.95833333333334,243.74739433112438 166.25,239.55090371996067 153.54166666666669,235.354413108797 140.83333333333331,231.15792249763328 128.125,226.96143188646957 115.41666666666666,222.76494127530586 102.70833333333333,218.56845066414215 90.0,214.37196005297847" fill="#2563eb" fill-opacity="0.70" stroke="#2563eb" stroke-width="1.2"/>
<polygon points="90.0,210.17546944181476 102.70833333333333,210.63656068244399 115.41666666666666,209.45917842930277 128.125,209.25660732963698 140.83333333333331,209.67290467416953 153.54166666666669,214.60470217622574 166.25,212.30131730627772 178.95833333333334,212.68979482288847 191.66666666666666,211.51556792015424 204.375,213.56577392197315 217.08333333333334,215.56067847618237 229.79166666666666,215.64574961179912 242.5,210.34732445116288 255.20833333333331,210.8091078723436 267.9166666666667,213.24328971594002 280.625,208.87381154325445 293.3333333333333,207.72299462021817 306.0416666666667,207.5297662040141 318.75,211.15822664703393 331.4583333333333,183.3077779720285 344.1666666666667,184.70485917969432 356.875,179.70965289262668 369.5833333333333,173.85634648060707 382.2916666666667,171.59877805430924 395.0,160.1202038603373 407.70833333333337,179.2714544842613 420.41666666666663,182.15150887480343 433.125,167.77163795010884 445.83333333333337,185.1760416891198 458.54166666666663,175.82344685389157 471.25,178.0027671498085 483.95833333333337,185.11297939739057 496.66666666666663,193.4623122525389 509.375,192.83547857526364 522.0833333333334,201.77505928182947 534.7916666666666,215.11748943416228 547.5,228.37748536553323 560.2083333333334,222.34011715100695 572.9166666666666,215.05487502206964 585.625,226.6310144004142 598.3333333333334,237.62979008106566 611.0416666666666,230.7579447462248 623.75,229.6894997085302 636.4583333333334,215.36518328717875 649.1666666666666,214.90574164968874 661.875,183.8617653035136 674.5833333333334,180.5051318142508 687.2916666666666,176.2805833458094 700.0,177.11047772244632 712.7083333333333,171.00577510186122 725.4166666666667,178.88893531934826 738.125,185.20740062964003 750.8333333333333,180.95784944937614 763.5416666666667,177.83354676287843 776.25,149.5178138566726 788.9583333333333,121.54443931156965 801.6666666666667,119.84027328947144 814.375,124.59120012298126 827.0833333333333,107.21095082688885 839.7916666666667,106.72044512679088 852.5,110.23731279129265 865.2083333333333,112.51598728253924 877.9166666666667,110.2795957192941 890.625,102.17982878939978 903.3333333333333,112.05177928952315 916.0416666666667,110.25934658732416 928.75,90.0 941.4583333333333,108.57571671853066 954.1666666666667,118.92194758126448 966.875,112.40955109903246 979.5833333333333,131.58366255012135 992.2916666666667,133.0086502286547 1005.0,159.41345706897783 1017.7083333333333,165.00001848742528 1030.4166666666667,171.02680903363515 1043.125,157.74978115654966 1055.8333333333333,166.56400305492818 1068.5416666666667,163.08686537300247 1081.25,166.7912490862888 1093.9583333333333,150.64848890941778 1106.6666666666667,157.7354481324066 1119.375,153.17172296254728 1132.0833333333333,166.53566209120953 1144.7916666666667,196.96539872840017 1157.5,215.4686798492866 1170.2083333333333,220.7082984378316 1182.9166666666667,231.13115314975397 1195.625,219.38427728129727 1208.3333333333333,221.20242363312016 1221.0416666666667,198.79548019577652 1233.75,212.07741007639643 1246.4583333333333,222.70728300197501 1259.1666666666667,216.44560453057548 1271.875,197.86334319151743 1284.5833333333333,198.32443687040043 1297.2916666666667,196.82143300175997 1310.0,191.67887629843523 1310.0,295.74983720207564 1297.2916666666667,298.50661975216053 1284.5833333333333,298.8589918944243 1271.875,297.02828965518484 1259.1666666666667,307.67013007600696 1246.4583333333333,310.8854541077434 1233.75,305.2944516015217 1221.0416666666667,297.0443830053855 1208.3333333333333,310.1956838010041 1195.625,308.585266528641 1182.9166666666667,314.20764004173975 1170.2083333333333,307.8655578851212 1157.5,302.48728979416785 1144.7916666666667,292.2610898639168 1132.0833333333333,271.0863785170763 1119.375,260.6274149568416 1106.6666666666667,261.5316843201855 1093.9583333333333,255.33756076070114 1081.25,261.9948413844163 1068.5416666666667,257.737708809246 1055.8333333333333,256.88080378011784 1043.125,250.29298794234387 1030.4166666666667,257.11034399421834 1017.7083333333333,250.91633294319908 1005.0,246.87269355558504 992.2916666666667,231.23281946914312 979.5833333333333,228.23439102331398 966.875,213.6428404340236 954.1666666666667,217.85093087923124 941.4583333333333,209.52774026182445 928.75,199.03631197945117 916.0416666666667,211.33480215442344 903.3333333333333,211.9572623304565 890.625,204.30758153778513 877.9166666666667,208.72525189811404 865.2083333333333,207.0356078552497 852.5,203.40928222810683 839.7916666666667,202.88757159606035 827.0833333333333,203.23348409611964 814.375,215.62738869554724 801.6666666666667,211.11177770178057 788.9583333333333,210.2329765439107 776.25,237.90358058665768 763.5416666666667,255.77486977562938 750.8333333333333,258.4054099767435 738.125,262.01322182911514 725.4166666666667,257.8694814203524 712.7083333333333,253.79066400652556 700.0,254.58123980572668 687.2916666666666,256.18013026102244 674.5833333333334,258.82400876617385 661.875,261.18295615489694 649.1666666666666,287.2393215756709 636.4583333333334,292.41787932436637 623.75,307.74791472368327 611.0416666666666,304.17369121330137 598.3333333333334,304.35214183717244 585.625,294.0268446701057 572.9166666666666,284.2997783945872 560.2083333333334,291.1499659571701 547.5,290.74811066862475 534.7916666666666,281.2344126515684 522.0833333333334,272.3897980613357 509.375,267.2921320906678 496.66666666666663,270.4078251909358 483.95833333333337,268.32082351100325 471.25,267.09898913814595 458.54166666666663,262.8921812361456 445.83333333333337,263.7919844425064 433.125,250.58275771516168 420.41666666666663,257.64765242507883 407.70833333333337,254.36826093373858 395.0,241.85047800122595 382.2916666666667,244.89965814593887 369.5833333333333,243.98944354193264 356.875,245.71269008076789 344.1666666666667,246.9057227349438 331.4583333333333,242.2487370379432 318.75,254.57750658817548 306.0416666666667,250.14088648711848 293.3333333333333,246.74202450484347 280.625,245.09259512218924 267.9166666666667,245.36750304545802 255.20833333333331,241.36654761980427 242.5,238.8234322224768 229.79166666666666,239.88714201116122 217.08333333333334,237.26450994436937 204.375,233.88815385930994 191.66666666666666,230.87992220151557 178.95833333333334,229.0251907350631 166.25,226.51598404342522 153.54166666666669,225.63322377819654 140.83333333333331,220.70931424757217 128.125,218.30009025537208 115.41666666666666,216.11645660812815 102.70833333333333,214.62831333596014 90.0,212.2737147473966" fill="#f97316" fill-opacity="0.70" stroke="#f97316" stroke-width="1.2"/>
<rect x="1100" y="76" width="16" height="12" fill="#f97316" fill-opacity="0.70" stroke="#f97316"/>
<text x="1124" y="86" font-family="monospace" font-size="12" fill="#0f172a">BTC</text>
<rect x="1100" y="98" width="16" height="12" fill="#2563eb" fill-opacity="0.70" stroke="#2563eb"/>
<text x="1124" y="108" font-family="monospace" font-size="12" fill="#0f172a">ETH</text>
<rect x="1100" y="120" width="16" height="12" fill="#facc15" fill-opacity="0.70" stroke="#facc15"/>
<text x="1124" y="130" font-family="monospace" font-size="12" fill="#0f172a">DAI</text>
<text x="700.0" y="782" text-anchor="middle" font-family="monospace" font-size="16" fill="#0f172a">time</text>
<text x="24" y="255.0" transform="rotate(-90 24,255.0)" text-anchor="middle" font-family="monospace" font-size="16" fill="#0f172a">asset value split (usd)</text>
<line x1="90" y1="605" x2="1310" y2="605" stroke="#334155" stroke-width="2"/>
<line x1="90" y1="480" x2="90" y2="605" stroke="#334155" stroke-width="2"/>
<line x1="90" y1="542.5" x2="1310" y2="542.5" stroke="#64748b" stroke-width="1.5" stroke-dasharray="6 4"/>
<line x1="90" y1="605.0" x2="1310" y2="605.0" stroke="#e2e8f0" stroke-width="1"/>
<text x="78" y="609.0" text-anchor="end" font-family="monospace" font-size="11" fill="#475569">-368</text>
<line x1="90" y1="542.5" x2="1310" y2="542.5" stroke="#e2e8f0" stroke-width="1"/>
<text x="78" y="546.5" text-anchor="end" font-family="monospace" font-size="11" fill="#475569">0</text>
<line x1="90" y1="480.0" x2="1310" y2="480.0" stroke="#e2e8f0" stroke-width="1"/>
<text x="78" y="484.0" text-anchor="end" font-family="monospace" font-size="11" fill="#475569">368</text>
<rect x="86.54123711340206" y="525.4975740048247" width="6.917525773195877" height="17.00242599517526" fill="#ea580c" opacity="0.85"><title>2024-07-01 | BTC buy 100.00 usd | reason=mixed_regime</title></rect>
<rect x="99.24957044673539" y="525.4975740048247" width="6.917525773195877" height="17.00242599517526" fill="#ea580c" opacity="0.85"><title>2024-07-08 | BTC buy 100.00 usd | reason=both_assets_cheap</title></rect>
<rect x="111.95790378006872" y="525.4975740048247" width="6.917525773195877" height="17.00242599517526" fill="#ea580c" opacity="0.85"><title>2024-07-15 | BTC buy 100.00 usd | reason=both_assets_expensive</title></rect>
<rect x="124.66623711340206" y="525.4975740048247" width="6.917525773195877" height="17.00242599517526" fill="#ea580c" opacity="0.85"><title>2024-07-22 | BTC buy 100.00 usd | reason=mixed_regime</title></rect>
<rect x="137.3745704467354" y="525.4975740048247" width="6.917525773195877" height="17.00242599517526" fill="#ea580c" opacity="0.85"><title>2024-07-29 | BTC buy 100.00 usd | reason=mixed_regime</title></rect>
<rect x="150.08290378006876" y="525.4975740048247" width="6.917525773195877" height="17.00242599517526" fill="#ea580c" opacity="0.85"><title>2024-08-05 | BTC buy 100.00 usd | reason=both_assets_cheap</title></rect>
<rect x="162.79123711340208" y="525.4975740048247" width="6.917525773195877" height="17.00242599517526" fill="#ea580c" opacity="0.85"><title>2024-08-12 | BTC buy 100.00 usd | reason=both_assets_cheap</title></rect>
<rect x="175.4995704467354" y="525.4975740048247" width="6.917525773195877" height="17.00242599517526" fill="#ea580c" opacity="0.85"><title>2024-08-19 | BTC buy 100.00 usd | reason=both_assets_cheap</title></rect>
<rect x="188.2079037800687" y="525.4975740048247" width="6.917525773195877" height="17.00242599517526" fill="#ea580c" opacity="0.85"><title>2024-08-26 | BTC buy 100.00 usd | reason=both_assets_cheap</title></rect>
<rect x="200.91623711340208" y="525.4975740048247" width="6.917525773195877" height="17.00242599517526" fill="#ea580c" opacity="0.85"><title>2024-09-02 | BTC buy 100.00 usd | reason=both_assets_cheap</title></rect>
<rect x="213.6245704467354" y="525.4975740048247" width="6.917525773195877" height="17.00242599517526" fill="#ea580c" opacity="0.85"><title>2024-09-09 | BTC buy 100.00 usd | reason=both_assets_cheap</title></rect>
<rect x="226.3329037800687" y="525.4975740048247" width="6.917525773195877" height="17.00242599517526" fill="#ea580c" opacity="0.85"><title>2024-09-16 | BTC buy 100.00 usd | reason=both_assets_cheap</title></rect>
<rect x="239.04123711340208" y="525.4975740048247" width="6.917525773195877" height="17.00242599517526" fill="#ea580c" opacity="0.85"><title>2024-09-23 | BTC buy 100.00 usd | reason=both_assets_cheap</title></rect>
<rect x="251.7495704467354" y="525.4975740048247" width="6.917525773195877" height="17.00242599517526" fill="#ea580c" opacity="0.85"><title>2024-09-30 | BTC buy 100.00 usd | reason=both_assets_cheap</title></rect>
<rect x="264.45790378006876" y="525.4975740048247" width="6.917525773195877" height="17.00242599517526" fill="#ea580c" opacity="0.85"><title>2024-10-07 | BTC buy 100.00 usd | reason=both_assets_cheap</title></rect>
<rect x="277.1662371134021" y="525.4975740048247" width="6.917525773195877" height="17.00242599517526" fill="#ea580c" opacity="0.85"><title>2024-10-14 | BTC buy 100.00 usd | reason=mixed_regime_eth_tilt</title></rect>
<rect x="289.8745704467354" y="525.4975740048247" width="6.917525773195877" height="17.00242599517526" fill="#ea580c" opacity="0.85"><title>2024-10-21 | BTC buy 100.00 usd | reason=mixed_regime_eth_tilt</title></rect>
<rect x="302.58290378006876" y="525.4975740048247" width="6.917525773195877" height="17.00242599517526" fill="#ea580c" opacity="0.85"><title>2024-10-28 | BTC buy 100.00 usd | reason=mixed_regime_eth_tilt</title></rect>
<rect x="315.2912371134021" y="525.4975740048247" width="6.917525773195877" height="17.00242599517526" fill="#ea580c" opacity="0.85"><title>2024-11-04 | BTC buy 100.00 usd | reason=mixed_regime_eth_tilt</title></rect>
<rect x="327.9995704467354" y="525.4975740048247" width="6.917525773195877" height="17.00242599517526" fill="#ea580c" opacity="0.85"><title>2024-11-11 | BTC buy 100.00 usd | reason=mixed_regime</title></rect>
<rect x="340.70790378006876" y="525.4975740048247" width="6.917525773195877" height="17.00242599517526" fill="#ea580c" opacity="0.85"><title>2024-11-18 | BTC buy 100.00 usd | reason=mixed_regime</title></rect>
<rect x="353.4162371134021" y="525.4975740048247" width="6.917525773195877" height="17.00242599517526" fill="#ea580c" opacity="0.85"><title>2024-11-25 | BTC buy 100.00 usd | reason=mixed_regime</title></rect>
<rect x="366.1245704467354" y="525.4975740048247" width="6.917525773195877" height="17.00242599517526" fill="#ea580c" opacity="0.85"><title>2024-12-02 | BTC buy 100.00 usd | reason=both_assets_expensive</title></rect>
<rect x="378.83290378006876" y="525.4975740048247" width="6.917525773195877" height="17.00242599517526" fill="#ea580c" opacity="0.85"><title>2024-12-09 | BTC buy 100.00 usd | reason=both_assets_expensive</title></rect>
<rect x="391.5412371134021" y="527.7486781152974" width="6.917525773195877" height="14.751321884702634" fill="#ea580c" opacity="0.85"><title>2024-12-16 | BTC buy 86.76 usd | reason=both_assets_expensive</title></rect>
<rect x="404.24957044673545" y="525.4975740048247" width="6.917525773195877" height="17.00242599517526" fill="#ea580c" opacity="0.85"><title>2024-12-23 | BTC buy 100.00 usd | reason=mixed_regime</title></rect>
<rect x="416.9579037800687" y="525.4975740048247" width="6.917525773195877" height="17.00242599517526" fill="#ea580c" opacity="0.85"><title>2024-12-30 | BTC buy 100.00 usd | reason=mixed_regime</title></rect>
<rect x="429.6662371134021" y="542.5" width="6.917525773195877" height="4.521036684906676" fill="#dc2626" opacity="0.85"><title>2025-01-06 | BTC sell 26.59 usd | reason=both_assets_expensive</title></rect>
<rect x="442.37457044673545" y="525.4975740048247" width="6.917525773195877" height="17.00242599517526" fill="#ea580c" opacity="0.85"><title>2025-01-13 | BTC buy 100.00 usd | reason=mixed_regime</title></rect>
<rect x="455.0829037800687" y="525.4975740048247" width="6.917525773195877" height="17.00242599517526" fill="#ea580c" opacity="0.85"><title>2025-01-20 | BTC buy 100.00 usd | reason=mixed_regime</title></rect>
<rect x="467.7912371134021" y="525.4975740048247" width="6.917525773195877" height="17.00242599517526" fill="#ea580c" opacity="0.85"><title>2025-01-27 | BTC buy 100.00 usd | reason=mixed_regime</title></rect>
<rect x="480.49957044673545" y="542.5" width="6.917525773195877" height="43.45455452342662" fill="#dc2626" opacity="0.85"><title>2025-02-03 | BTC sell 255.58 usd | reason=mixed_regime_eth_tilt</title></rect>
<rect x="493.2079037800687" y="542.5" width="6.917525773195877" height="24.05803949940946" fill="#dc2626" opacity="0.85"><title>2025-02-10 | BTC sell 141.50 usd | reason=mixed_regime_eth_tilt</title></rect>
<rect x="505.9162371134021" y="542.5" width="6.917525773195877" height="9.529356935582655" fill="#dc2626" opacity="0.85"><title>2025-02-17 | BTC sell 56.05 usd | reason=mixed_regime_eth_tilt</title></rect>
<rect x="518.6245704467354" y="542.5" width="6.917525773195877" height="4.228542988079084" fill="#dc2626" opacity="0.85"><title>2025-02-24 | BTC sell 24.87 usd | reason=mixed_regime_eth_tilt</title></rect>
<rect x="531.3329037800687" y="542.5" width="6.917525773195877" height="2.9955768136716188" fill="#dc2626" opacity="0.85"><title>2025-03-03 | BTC sell 17.62 usd | reason=mixed_regime_eth_tilt</title></rect>
<rect x="544.0412371134021" y="525.4975740048247" width="6.917525773195877" height="17.00242599517526" fill="#ea580c" opacity="0.85"><title>2025-03-10 | BTC buy 100.00 usd | reason=both_assets_cheap</title></rect>
<rect x="556.7495704467354" y="525.4975740048247" width="6.917525773195877" height="17.00242599517526" fill="#ea580c" opacity="0.85"><title>2025-03-17 | BTC buy 100.00 usd | reason=both_assets_cheap</title></rect>
<rect x="569.4579037800687" y="542.5" width="6.917525773195877" height="19.785027805754453" fill="#dc2626" opacity="0.85"><title>2025-03-24 | BTC sell 116.37 usd | reason=mixed_regime_eth_tilt</title></rect>
<rect x="582.1662371134021" y="525.4975740048247" width="6.917525773195877" height="17.00242599517526" fill="#ea580c" opacity="0.85"><title>2025-03-31 | BTC buy 100.00 usd | reason=both_assets_cheap</title></rect>
<rect x="594.8745704467354" y="525.4975740048247" width="6.917525773195877" height="17.00242599517526" fill="#ea580c" opacity="0.85"><title>2025-04-07 | BTC buy 100.00 usd | reason=both_assets_cheap</title></rect>
<rect x="607.5829037800687" y="525.4975740048247" width="6.917525773195877" height="17.00242599517526" fill="#ea580c" opacity="0.85"><title>2025-04-14 | BTC buy 100.00 usd | reason=both_assets_cheap</title></rect>
<rect x="620.2912371134021" y="525.4975740048247" width="6.917525773195877" height="17.00242599517526" fill="#ea580c" opacity="0.85"><title>2025-04-21 | BTC buy 100.00 usd | reason=both_assets_cheap</title></rect>
<rect x="632.9995704467354" y="542.5" width="6.917525773195877" height="62.5" fill="#dc2626" opacity="0.85"><title>2025-04-28 | BTC sell 367.59 usd | reason=mixed_regime_eth_tilt</title></rect>
<rect x="645.7079037800687" y="542.5" width="6.917525773195877" height="36.21259327836731" fill="#dc2626" opacity="0.85"><title>2025-05-05 | BTC sell 212.98 usd | reason=mixed_regime_eth_tilt</title></rect>
<rect x="658.4162371134021" y="542.5" width="6.917525773195877" height="9.491267143179357" fill="#dc2626" opacity="0.85"><title>2025-05-12 | BTC sell 55.82 usd | reason=mixed_regime_eth_tilt</title></rect>
<rect x="671.1245704467354" y="542.5" width="6.917525773195877" height="9.078348182173158" fill="#dc2626" opacity="0.85"><title>2025-05-19 | BTC sell 53.39 usd | reason=mixed_regime_eth_tilt</title></rect>
<rect x="683.8329037800687" y="542.5" width="6.917525773195877" height="10.314428888917291" fill="#dc2626" opacity="0.85"><title>2025-05-26 | BTC sell 60.66 usd | reason=mixed_regime_eth_tilt</title></rect>
<rect x="696.5412371134021" y="541.128485212052" width="6.917525773195877" height="1.5" fill="#ea580c" opacity="0.85"><title>2025-06-02 | BTC buy 8.07 usd | reason=mixed_regime_eth_tilt</title></rect>
<rect x="709.2495704467353" y="525.4975740048247" width="6.917525773195877" height="17.00242599517526" fill="#ea580c" opacity="0.85"><title>2025-06-09 | BTC buy 100.00 usd | reason=mixed_regime</title></rect>
<rect x="721.9579037800688" y="542.5" width="6.917525773195877" height="9.858878821613644" fill="#dc2626" opacity="0.85"><title>2025-06-16 | BTC sell 57.99 usd | reason=mixed_regime_eth_tilt</title></rect>
<rect x="734.6662371134021" y="542.5" width="6.917525773195877" height="9.033350061311694" fill="#dc2626" opacity="0.85"><title>2025-06-23 | BTC sell 53.13 usd | reason=mixed_regime_eth_tilt</title></rect>
<rect x="747.3745704467353" y="542.5" width="6.917525773195877" height="5.1540032050015725" fill="#dc2626" opacity="0.85"><title>2025-06-30 | BTC sell 30.31 usd | reason=mixed_regime_eth_tilt</title></rect>
<rect x="760.0829037800688" y="542.5" width="6.917525773195877" height="2.4204582031945847" fill="#dc2626" opacity="0.85"><title>2025-07-07 | BTC sell 14.24 usd | reason=mixed_regime_eth_tilt</title></rect>
<rect x="772.7912371134021" y="525.4975740048247" width="6.917525773195877" height="17.00242599517526" fill="#ea580c" opacity="0.85"><title>2025-07-14 | BTC buy 100.00 usd | reason=mixed_regime</title></rect>
<rect x="785.4995704467353" y="525.4975740048247" width="6.917525773195877" height="17.00242599517526" fill="#ea580c" opacity="0.85"><title>2025-07-21 | BTC buy 100.00 usd | reason=both_assets_expensive</title></rect>
<rect x="798.2079037800688" y="525.4975740048247" width="6.917525773195877" height="17.00242599517526" fill="#ea580c" opacity="0.85"><title>2025-07-28 | BTC buy 100.00 usd | reason=both_assets_expensive</title></rect>
<rect x="810.9162371134021" y="525.4975740048247" width="6.917525773195877" height="17.00242599517526" fill="#ea580c" opacity="0.85"><title>2025-08-04 | BTC buy 100.00 usd | reason=both_assets_expensive</title></rect>
<rect x="823.6245704467353" y="525.4975740048247" width="6.917525773195877" height="17.00242599517526" fill="#ea580c" opacity="0.85"><title>2025-08-11 | BTC buy 100.00 usd | reason=both_assets_expensive</title></rect>
<rect x="836.3329037800688" y="525.4975740048247" width="6.917525773195877" height="17.00242599517526" fill="#ea580c" opacity="0.85"><title>2025-08-18 | BTC buy 100.00 usd | reason=both_assets_expensive</title></rect>
<rect x="849.0412371134021" y="525.4975740048247" width="6.917525773195877" height="17.00242599517526" fill="#ea580c" opacity="0.85"><title>2025-08-25 | BTC buy 100.00 usd | reason=both_assets_expensive</title></rect>
<rect x="861.7495704467353" y="525.4975740048247" width="6.917525773195877" height="17.00242599517526" fill="#ea580c" opacity="0.85"><title>2025-09-01 | BTC buy 100.00 usd | reason=both_assets_expensive</title></rect>
<rect x="874.4579037800688" y="530.5425647751068" width="6.917525773195877" height="11.957435224893175" fill="#ea580c" opacity="0.85"><title>2025-09-08 | BTC buy 70.33 usd | reason=both_assets_expensive</title></rect>
<rect x="887.1662371134021" y="536.2130094549052" width="6.917525773195877" height="6.286990545094795" fill="#ea580c" opacity="0.85"><title>2025-09-15 | BTC buy 36.98 usd | reason=both_assets_expensive</title></rect>
<rect x="899.8745704467353" y="541.5401062597763" width="6.917525773195877" height="1.5" fill="#ea580c" opacity="0.85"><title>2025-09-22 | BTC buy 5.65 usd | reason=both_assets_expensive</title></rect>
<rect x="912.5829037800688" y="542.5" width="6.917525773195877" height="2.2134776304648085" fill="#dc2626" opacity="0.85"><title>2025-09-29 | BTC sell 13.02 usd | reason=both_assets_expensive</title></rect>
<rect x="925.2912371134021" y="542.5" width="6.917525773195877" height="9.649852713953578" fill="#dc2626" opacity="0.85"><title>2025-10-06 | BTC sell 56.76 usd | reason=both_assets_expensive</title></rect>
<rect x="937.9995704467353" y="541.0907597018952" width="6.917525773195877" height="1.5" fill="#ea580c" opacity="0.85"><title>2025-10-13 | BTC buy 8.29 usd | reason=both_assets_expensive</title></rect>
<rect x="950.7079037800688" y="525.4975740048247" width="6.917525773195877" height="17.00242599517526" fill="#ea580c" opacity="0.85"><title>2025-10-20 | BTC buy 100.00 usd | reason=mixed_regime</title></rect>
<rect x="963.4162371134021" y="542.5" width="6.917525773195877" height="6.841195902787604" fill="#dc2626" opacity="0.85"><title>2025-10-27 | BTC sell 40.24 usd | reason=both_assets_expensive</title></rect>
<rect x="976.1245704467353" y="525.4975740048247" width="6.917525773195877" height="17.00242599517526" fill="#ea580c" opacity="0.85"><title>2025-11-03 | BTC buy 100.00 usd | reason=mixed_regime_btc_tilt</title></rect>
<rect x="988.8329037800688" y="525.4975740048247" width="6.917525773195877" height="17.00242599517526" fill="#ea580c" opacity="0.85"><title>2025-11-10 | BTC buy 100.00 usd | reason=mixed_regime_btc_tilt</title></rect>
<rect x="1001.5412371134021" y="525.4975740048247" width="6.917525773195877" height="17.00242599517526" fill="#ea580c" opacity="0.85"><title>2025-11-17 | BTC buy 100.00 usd | reason=both_assets_cheap</title></rect>
<rect x="1014.2495704467353" y="525.4975740048247" width="6.917525773195877" height="17.00242599517526" fill="#ea580c" opacity="0.85"><title>2025-11-24 | BTC buy 100.00 usd | reason=both_assets_cheap</title></rect>
<rect x="1026.9579037800688" y="525.4975740048247" width="6.917525773195877" height="17.00242599517526" fill="#ea580c" opacity="0.85"><title>2025-12-01 | BTC buy 100.00 usd | reason=both_assets_cheap</title></rect>
<rect x="1039.666237113402" y="525.4975740048247" width="6.917525773195877" height="17.00242599517526" fill="#ea580c" opacity="0.85"><title>2025-12-08 | BTC buy 100.00 usd | reason=both_assets_cheap</title></rect>
<rect x="1052.3745704467353" y="525.4975740048247" width="6.917525773195877" height="17.00242599517526" fill="#ea580c" opacity="0.85"><title>2025-12-15 | BTC buy 100.00 usd | reason=both_assets_cheap</title></rect>
<rect x="1065.0829037800688" y="525.4975740048247" width="6.917525773195877" height="17.00242599517526" fill="#ea580c" opacity="0.85"><title>2025-12-22 | BTC buy 100.00 usd | reason=both_assets_cheap</title></rect>
<rect x="1077.791237113402" y="525.4975740048247" width="6.917525773195877" height="17.00242599517526" fill="#ea580c" opacity="0.85"><title>2025-12-29 | BTC buy 100.00 usd | reason=both_assets_cheap</title></rect>
<rect x="1090.4995704467353" y="525.4975740048247" width="6.917525773195877" height="17.00242599517526" fill="#ea580c" opacity="0.85"><title>2026-01-05 | BTC buy 100.00 usd | reason=both_assets_cheap</title></rect>
<rect x="1103.2079037800688" y="525.4975740048247" width="6.917525773195877" height="17.00242599517526" fill="#ea580c" opacity="0.85"><title>2026-01-12 | BTC buy 100.00 usd | reason=both_assets_cheap</title></rect>
<rect x="1115.916237113402" y="525.4975740048247" width="6.917525773195877" height="17.00242599517526" fill="#ea580c" opacity="0.85"><title>2026-01-19 | BTC buy 100.00 usd | reason=both_assets_cheap</title></rect>
<rect x="1128.6245704467353" y="525.4975740048247" width="6.917525773195877" height="17.00242599517526" fill="#ea580c" opacity="0.85"><title>2026-01-26 | BTC buy 100.00 usd | reason=both_assets_cheap</title></rect>
<rect x="1141.3329037800688" y="525.4975740048247" width="6.917525773195877" height="17.00242599517526" fill="#ea580c" opacity="0.85"><title>2026-02-02 | BTC buy 100.00 usd | reason=both_assets_cheap</title></rect>
<rect x="1154.041237113402" y="525.4975740048247" width="6.917525773195877" height="17.00242599517526" fill="#ea580c" opacity="0.85"><title>2026-02-09 | BTC buy 100.00 usd | reason=both_assets_cheap</title></rect>
<rect x="1166.7495704467353" y="528.8650421109797" width="6.917525773195877" height="13.634957889020257" fill="#ea580c" opacity="0.85"><title>2026-02-16 | BTC buy 80.19 usd | reason=both_assets_cheap</title></rect>
<rect x="1179.4579037800688" y="532.1576929597001" width="6.917525773195877" height="10.342307040299943" fill="#ea580c" opacity="0.85"><title>2026-02-23 | BTC buy 60.83 usd | reason=both_assets_cheap</title></rect>
<rect x="1192.166237113402" y="536.6868658464458" width="6.917525773195877" height="5.813134153554188" fill="#ea580c" opacity="0.85"><title>2026-03-02 | BTC buy 34.19 usd | reason=both_assets_cheap</title></rect>
<rect x="1204.8745704467353" y="539.9845121002621" width="6.917525773195877" height="2.5154878997378773" fill="#ea580c" opacity="0.85"><title>2026-03-09 | BTC buy 14.79 usd | reason=both_assets_cheap</title></rect>
<rect x="1217.5829037800688" y="535.5143643324947" width="6.917525773195877" height="6.985635667505335" fill="#ea580c" opacity="0.85"><title>2026-03-16 | BTC buy 41.09 usd | reason=both_assets_cheap</title></rect>
<rect x="1230.291237113402" y="540.6193963928837" width="6.917525773195877" height="1.8806036071163135" fill="#ea580c" opacity="0.85"><title>2026-03-23 | BTC buy 11.06 usd | reason=both_assets_cheap</title></rect>
<rect x="1242.9995704467353" y="539.2395485416118" width="6.917525773195877" height="3.260451458388161" fill="#ea580c" opacity="0.85"><title>2026-03-30 | BTC buy 19.18 usd | reason=both_assets_cheap</title></rect>
<rect x="1255.7079037800688" y="540.4744660345305" width="6.917525773195877" height="2.025533965469549" fill="#ea580c" opacity="0.85"><title>2026-04-06 | BTC buy 11.91 usd | reason=both_assets_cheap</title></rect>
<rect x="1268.416237113402" y="538.1969546281389" width="6.917525773195877" height="4.303045371861117" fill="#ea580c" opacity="0.85"><title>2026-04-13 | BTC buy 25.31 usd | reason=both_assets_cheap</title></rect>
<rect x="1281.1245704467353" y="542.5" width="6.917525773195877" height="4.216625210953907" fill="#dc2626" opacity="0.85"><title>2026-04-20 | BTC sell 24.80 usd | reason=both_assets_cheap</title></rect>
<rect x="1293.8329037800688" y="542.5" width="6.917525773195877" height="6.778737573065428" fill="#dc2626" opacity="0.85"><title>2026-04-27 | BTC sell 39.87 usd | reason=both_assets_cheap</title></rect>
<rect x="1306.541237113402" y="542.5" width="6.917525773195877" height="7.1656562935158945" fill="#dc2626" opacity="0.85"><title>2026-05-04 | BTC sell 42.14 usd | reason=both_assets_cheap</title></rect>
<text x="24" y="542.5" transform="rotate(-90 24,542.5)" text-anchor="middle" font-family="monospace" font-size="14" fill="#0f172a">BTC weekly trade usd</text>
<line x1="90" y1="770" x2="1310" y2="770" stroke="#334155" stroke-width="2"/>
<line x1="90" y1="645" x2="90" y2="770" stroke="#334155" stroke-width="2"/>
<line x1="90" y1="707.5" x2="1310" y2="707.5" stroke="#64748b" stroke-width="1.5" stroke-dasharray="6 4"/>
<line x1="90" y1="770.0" x2="1310" y2="770.0" stroke="#e2e8f0" stroke-width="1"/>
<text x="78" y="774.0" text-anchor="end" font-family="monospace" font-size="11" fill="#475569">-1002</text>
<line x1="90" y1="707.5" x2="1310" y2="707.5" stroke="#e2e8f0" stroke-width="1"/>
<text x="78" y="711.5" text-anchor="end" font-family="monospace" font-size="11" fill="#475569">0</text>
<line x1="90" y1="645.0" x2="1310" y2="645.0" stroke="#e2e8f0" stroke-width="1"/>
<text x="78" y="649.0" text-anchor="end" font-family="monospace" font-size="11" fill="#475569">1002</text>
<rect x="86.54123711340206" y="701.2608647545684" width="6.917525773195877" height="6.239135245431612" fill="#2563eb" opacity="0.85"><title>2024-07-01 | ETH buy 100.00 usd | reason=mixed_regime</title></rect>
<rect x="99.24957044673539" y="701.2608647545684" width="6.917525773195877" height="6.239135245431612" fill="#2563eb" opacity="0.85"><title>2024-07-08 | ETH buy 100.00 usd | reason=both_assets_cheap</title></rect>
<rect x="111.95790378006872" y="701.2608647545684" width="6.917525773195877" height="6.239135245431612" fill="#2563eb" opacity="0.85"><title>2024-07-15 | ETH buy 100.00 usd | reason=both_assets_expensive</title></rect>
<rect x="124.66623711340206" y="701.2608647545684" width="6.917525773195877" height="6.239135245431612" fill="#2563eb" opacity="0.85"><title>2024-07-22 | ETH buy 100.00 usd | reason=mixed_regime</title></rect>
<rect x="137.3745704467354" y="701.2608647545684" width="6.917525773195877" height="6.239135245431612" fill="#2563eb" opacity="0.85"><title>2024-07-29 | ETH buy 100.00 usd | reason=mixed_regime</title></rect>
<rect x="150.08290378006876" y="701.2608647545684" width="6.917525773195877" height="6.239135245431612" fill="#2563eb" opacity="0.85"><title>2024-08-05 | ETH buy 100.00 usd | reason=both_assets_cheap</title></rect>
<rect x="162.79123711340208" y="701.2608647545684" width="6.917525773195877" height="6.239135245431612" fill="#2563eb" opacity="0.85"><title>2024-08-12 | ETH buy 100.00 usd | reason=both_assets_cheap</title></rect>
<rect x="175.4995704467354" y="701.2608647545684" width="6.917525773195877" height="6.239135245431612" fill="#2563eb" opacity="0.85"><title>2024-08-19 | ETH buy 100.00 usd | reason=both_assets_cheap</title></rect>
<rect x="188.2079037800687" y="701.2608647545684" width="6.917525773195877" height="6.239135245431612" fill="#2563eb" opacity="0.85"><title>2024-08-26 | ETH buy 100.00 usd | reason=both_assets_cheap</title></rect>
<rect x="200.91623711340208" y="701.2608647545684" width="6.917525773195877" height="6.239135245431612" fill="#2563eb" opacity="0.85"><title>2024-09-02 | ETH buy 100.00 usd | reason=both_assets_cheap</title></rect>
<rect x="213.6245704467354" y="701.2608647545684" width="6.917525773195877" height="6.239135245431612" fill="#2563eb" opacity="0.85"><title>2024-09-09 | ETH buy 100.00 usd | reason=both_assets_cheap</title></rect>
<rect x="226.3329037800687" y="701.2608647545684" width="6.917525773195877" height="6.239135245431612" fill="#2563eb" opacity="0.85"><title>2024-09-16 | ETH buy 100.00 usd | reason=both_assets_cheap</title></rect>
<rect x="239.04123711340208" y="701.2608647545684" width="6.917525773195877" height="6.239135245431612" fill="#2563eb" opacity="0.85"><title>2024-09-23 | ETH buy 100.00 usd | reason=both_assets_cheap</title></rect>
<rect x="251.7495704467354" y="701.2608647545684" width="6.917525773195877" height="6.239135245431612" fill="#2563eb" opacity="0.85"><title>2024-09-30 | ETH buy 100.00 usd | reason=both_assets_cheap</title></rect>
<rect x="264.45790378006876" y="701.2608647545684" width="6.917525773195877" height="6.239135245431612" fill="#2563eb" opacity="0.85"><title>2024-10-07 | ETH buy 100.00 usd | reason=both_assets_cheap</title></rect>
<rect x="277.1662371134021" y="701.2608647545684" width="6.917525773195877" height="6.239135245431612" fill="#2563eb" opacity="0.85"><title>2024-10-14 | ETH buy 100.00 usd | reason=mixed_regime_eth_tilt</title></rect>
<rect x="289.8745704467354" y="701.2608647545684" width="6.917525773195877" height="6.239135245431612" fill="#2563eb" opacity="0.85"><title>2024-10-21 | ETH buy 100.00 usd | reason=mixed_regime_eth_tilt</title></rect>
<rect x="302.58290378006876" y="701.2608647545684" width="6.917525773195877" height="6.239135245431612" fill="#2563eb" opacity="0.85"><title>2024-10-28 | ETH buy 100.00 usd | reason=mixed_regime_eth_tilt</title></rect>
<rect x="315.2912371134021" y="701.2608647545684" width="6.917525773195877" height="6.239135245431612" fill="#2563eb" opacity="0.85"><title>2024-11-04 | ETH buy 100.00 usd | reason=mixed_regime_eth_tilt</title></rect>
<rect x="327.9995704467354" y="701.2608647545684" width="6.917525773195877" height="6.239135245431612" fill="#2563eb" opacity="0.85"><title>2024-11-11 | ETH buy 100.00 usd | reason=mixed_regime</title></rect>
<rect x="340.70790378006876" y="701.2608647545684" width="6.917525773195877" height="6.239135245431612" fill="#2563eb" opacity="0.85"><title>2024-11-18 | ETH buy 100.00 usd | reason=mixed_regime</title></rect>
<rect x="353.4162371134021" y="701.2608647545684" width="6.917525773195877" height="6.239135245431612" fill="#2563eb" opacity="0.85"><title>2024-11-25 | ETH buy 100.00 usd | reason=mixed_regime</title></rect>
<rect x="366.1245704467354" y="701.2608647545684" width="6.917525773195877" height="6.239135245431612" fill="#2563eb" opacity="0.85"><title>2024-12-02 | ETH buy 100.00 usd | reason=both_assets_expensive</title></rect>
<rect x="378.83290378006876" y="701.2608647545684" width="6.917525773195877" height="6.239135245431612" fill="#2563eb" opacity="0.85"><title>2024-12-09 | ETH buy 100.00 usd | reason=both_assets_expensive</title></rect>
<rect x="391.5412371134021" y="701.2608647545684" width="6.917525773195877" height="6.239135245431612" fill="#2563eb" opacity="0.85"><title>2024-12-16 | ETH buy 100.00 usd | reason=both_assets_expensive</title></rect>
<rect x="404.24957044673545" y="701.2608647545684" width="6.917525773195877" height="6.239135245431612" fill="#2563eb" opacity="0.85"><title>2024-12-23 | ETH buy 100.00 usd | reason=mixed_regime</title></rect>
<rect x="416.9579037800687" y="701.2608647545684" width="6.917525773195877" height="6.239135245431612" fill="#2563eb" opacity="0.85"><title>2024-12-30 | ETH buy 100.00 usd | reason=mixed_regime</title></rect>
<rect x="429.6662371134021" y="701.2608647545684" width="6.917525773195877" height="6.239135245431612" fill="#2563eb" opacity="0.85"><title>2025-01-06 | ETH buy 100.00 usd | reason=both_assets_expensive</title></rect>
<rect x="442.37457044673545" y="701.2608647545684" width="6.917525773195877" height="6.239135245431612" fill="#2563eb" opacity="0.85"><title>2025-01-13 | ETH buy 100.00 usd | reason=mixed_regime</title></rect>
<rect x="455.0829037800687" y="701.2608647545684" width="6.917525773195877" height="6.239135245431612" fill="#2563eb" opacity="0.85"><title>2025-01-20 | ETH buy 100.00 usd | reason=mixed_regime</title></rect>
<rect x="467.7912371134021" y="701.2608647545684" width="6.917525773195877" height="6.239135245431612" fill="#2563eb" opacity="0.85"><title>2025-01-27 | ETH buy 100.00 usd | reason=mixed_regime</title></rect>
<rect x="480.49957044673545" y="701.2608647545684" width="6.917525773195877" height="6.239135245431612" fill="#2563eb" opacity="0.85"><title>2025-02-03 | ETH buy 100.00 usd | reason=mixed_regime_eth_tilt</title></rect>
<rect x="493.2079037800687" y="701.2608647545684" width="6.917525773195877" height="6.239135245431612" fill="#2563eb" opacity="0.85"><title>2025-02-10 | ETH buy 100.00 usd | reason=mixed_regime_eth_tilt</title></rect>
<rect x="505.9162371134021" y="701.2608647545684" width="6.917525773195877" height="6.239135245431612" fill="#2563eb" opacity="0.85"><title>2025-02-17 | ETH buy 100.00 usd | reason=mixed_regime_eth_tilt</title></rect>
<rect x="518.6245704467354" y="701.2608647545684" width="6.917525773195877" height="6.239135245431612" fill="#2563eb" opacity="0.85"><title>2025-02-24 | ETH buy 100.00 usd | reason=mixed_regime_eth_tilt</title></rect>
<rect x="531.3329037800687" y="701.2608647545684" width="6.917525773195877" height="6.239135245431612" fill="#2563eb" opacity="0.85"><title>2025-03-03 | ETH buy 100.00 usd | reason=mixed_regime_eth_tilt</title></rect>
<rect x="544.0412371134021" y="701.2608647545684" width="6.917525773195877" height="6.239135245431612" fill="#2563eb" opacity="0.85"><title>2025-03-10 | ETH buy 100.00 usd | reason=both_assets_cheap</title></rect>
<rect x="556.7495704467354" y="701.2608647545684" width="6.917525773195877" height="6.239135245431612" fill="#2563eb" opacity="0.85"><title>2025-03-17 | ETH buy 100.00 usd | reason=both_assets_cheap</title></rect>
<rect x="569.4579037800687" y="701.2608647545684" width="6.917525773195877" height="6.239135245431612" fill="#2563eb" opacity="0.85"><title>2025-03-24 | ETH buy 100.00 usd | reason=mixed_regime_eth_tilt</title></rect>
<rect x="582.1662371134021" y="701.2608647545684" width="6.917525773195877" height="6.239135245431612" fill="#2563eb" opacity="0.85"><title>2025-03-31 | ETH buy 100.00 usd | reason=both_assets_cheap</title></rect>
<rect x="594.8745704467354" y="701.2608647545684" width="6.917525773195877" height="6.239135245431612" fill="#2563eb" opacity="0.85"><title>2025-04-07 | ETH buy 100.00 usd | reason=both_assets_cheap</title></rect>
<rect x="607.5829037800687" y="701.2608647545684" width="6.917525773195877" height="6.239135245431612" fill="#2563eb" opacity="0.85"><title>2025-04-14 | ETH buy 100.00 usd | reason=both_assets_cheap</title></rect>
<rect x="620.2912371134021" y="701.2608647545684" width="6.917525773195877" height="6.239135245431612" fill="#2563eb" opacity="0.85"><title>2025-04-21 | ETH buy 100.00 usd | reason=both_assets_cheap</title></rect>
<rect x="632.9995704467354" y="701.2608647545684" width="6.917525773195877" height="6.239135245431612" fill="#2563eb" opacity="0.85"><title>2025-04-28 | ETH buy 100.00 usd | reason=mixed_regime_eth_tilt</title></rect>
<rect x="645.7079037800687" y="701.2608647545684" width="6.917525773195877" height="6.239135245431612" fill="#2563eb" opacity="0.85"><title>2025-05-05 | ETH buy 100.00 usd | reason=mixed_regime_eth_tilt</title></rect>
<rect x="658.4162371134021" y="701.2608647545684" width="6.917525773195877" height="6.239135245431612" fill="#2563eb" opacity="0.85"><title>2025-05-12 | ETH buy 100.00 usd | reason=mixed_regime_eth_tilt</title></rect>
<rect x="671.1245704467354" y="701.2608647545684" width="6.917525773195877" height="6.239135245431612" fill="#2563eb" opacity="0.85"><title>2025-05-19 | ETH buy 100.00 usd | reason=mixed_regime_eth_tilt</title></rect>
<rect x="683.8329037800687" y="701.2608647545684" width="6.917525773195877" height="6.239135245431612" fill="#2563eb" opacity="0.85"><title>2025-05-26 | ETH buy 100.00 usd | reason=mixed_regime_eth_tilt</title></rect>
<rect x="696.5412371134021" y="701.2608647545684" width="6.917525773195877" height="6.239135245431612" fill="#2563eb" opacity="0.85"><title>2025-06-02 | ETH buy 100.00 usd | reason=mixed_regime_eth_tilt</title></rect>
<rect x="709.2495704467353" y="707.5" width="6.917525773195877" height="9.494281817419733" fill="#7c3aed" opacity="0.85"><title>2025-06-09 | ETH sell 152.17 usd | reason=mixed_regime</title></rect>
<rect x="721.9579037800688" y="701.2608647545684" width="6.917525773195877" height="6.239135245431612" fill="#2563eb" opacity="0.85"><title>2025-06-16 | ETH buy 100.00 usd | reason=mixed_regime_eth_tilt</title></rect>
<rect x="734.6662371134021" y="701.2608647545684" width="6.917525773195877" height="6.239135245431612" fill="#2563eb" opacity="0.85"><title>2025-06-23 | ETH buy 100.00 usd | reason=mixed_regime_eth_tilt</title></rect>
<rect x="747.3745704467353" y="701.2608647545684" width="6.917525773195877" height="6.239135245431612" fill="#2563eb" opacity="0.85"><title>2025-06-30 | ETH buy 100.00 usd | reason=mixed_regime_eth_tilt</title></rect>
<rect x="760.0829037800688" y="701.2608647545684" width="6.917525773195877" height="6.239135245431612" fill="#2563eb" opacity="0.85"><title>2025-07-07 | ETH buy 100.00 usd | reason=mixed_regime_eth_tilt</title></rect>
<rect x="772.7912371134021" y="707.5" width="6.917525773195877" height="22.962988122039178" fill="#7c3aed" opacity="0.85"><title>2025-07-14 | ETH sell 368.05 usd | reason=mixed_regime</title></rect>
<rect x="785.4995704467353" y="707.5" width="6.917525773195877" height="62.5" fill="#7c3aed" opacity="0.85"><title>2025-07-21 | ETH sell 1001.74 usd | reason=both_assets_expensive</title></rect>
<rect x="798.2079037800688" y="707.5" width="6.917525773195877" height="38.291653331610405" fill="#7c3aed" opacity="0.85"><title>2025-07-28 | ETH sell 613.73 usd | reason=both_assets_expensive</title></rect>
<rect x="810.9162371134021" y="707.5" width="6.917525773195877" height="21.936271300534145" fill="#7c3aed" opacity="0.85"><title>2025-08-04 | ETH sell 351.59 usd | reason=both_assets_expensive</title></rect>
<rect x="823.6245704467353" y="707.5" width="6.917525773195877" height="23.680308380571773" fill="#7c3aed" opacity="0.85"><title>2025-08-11 | ETH sell 379.54 usd | reason=both_assets_expensive</title></rect>
<rect x="836.3329037800688" y="707.5" width="6.917525773195877" height="16.925660123774833" fill="#7c3aed" opacity="0.85"><title>2025-08-18 | ETH sell 271.28 usd | reason=both_assets_expensive</title></rect>
<rect x="849.0412371134021" y="707.5" width="6.917525773195877" height="13.389990661823049" fill="#7c3aed" opacity="0.85"><title>2025-08-25 | ETH sell 214.61 usd | reason=both_assets_expensive</title></rect>
<rect x="861.7495704467353" y="707.5" width="6.917525773195877" height="7.097328255839443" fill="#7c3aed" opacity="0.85"><title>2025-09-01 | ETH sell 113.75 usd | reason=both_assets_expensive</title></rect>
<rect x="874.4579037800688" y="707.5" width="6.917525773195877" height="3.139383759174052" fill="#7c3aed" opacity="0.85"><title>2025-09-08 | ETH sell 50.32 usd | reason=both_assets_expensive</title></rect>
<rect x="887.1662371134021" y="707.5" width="6.917525773195877" height="4.9298214667848015" fill="#7c3aed" opacity="0.85"><title>2025-09-15 | ETH sell 79.01 usd | reason=both_assets_expensive</title></rect>
<rect x="899.8745704467353" y="705.3163073245037" width="6.917525773195877" height="2.1836926754963315" fill="#2563eb" opacity="0.85"><title>2025-09-22 | ETH buy 35.00 usd | reason=both_assets_expensive</title></rect>
<rect x="912.5829037800688" y="705.9123655313612" width="6.917525773195877" height="1.5876344686388393" fill="#2563eb" opacity="0.85"><title>2025-09-29 | ETH buy 25.45 usd | reason=both_assets_expensive</title></rect>
<rect x="925.2912371134021" y="707.5" width="6.917525773195877" height="4.427467940336783" fill="#7c3aed" opacity="0.85"><title>2025-10-06 | ETH sell 70.96 usd | reason=both_assets_expensive</title></rect>
<rect x="937.9995704467353" y="705.0653611802398" width="6.917525773195877" height="2.4346388197601527" fill="#2563eb" opacity="0.85"><title>2025-10-13 | ETH buy 39.02 usd | reason=both_assets_expensive</title></rect>
<rect x="950.7079037800688" y="701.2608647545684" width="6.917525773195877" height="6.239135245431612" fill="#2563eb" opacity="0.85"><title>2025-10-20 | ETH buy 100.00 usd | reason=mixed_regime</title></rect>
<rect x="963.4162371134021" y="706.6138450323654" width="6.917525773195877" height="1.5" fill="#2563eb" opacity="0.85"><title>2025-10-27 | ETH buy 14.20 usd | reason=both_assets_expensive</title></rect>
<rect x="976.1245704467353" y="701.2608647545684" width="6.917525773195877" height="6.239135245431612" fill="#2563eb" opacity="0.85"><title>2025-11-03 | ETH buy 100.00 usd | reason=mixed_regime_btc_tilt</title></rect>
<rect x="988.8329037800688" y="703.2031654681738" width="6.917525773195877" height="4.296834531826221" fill="#2563eb" opacity="0.85"><title>2025-11-10 | ETH buy 68.87 usd | reason=mixed_regime_btc_tilt</title></rect>
<rect x="1001.5412371134021" y="701.2608647545684" width="6.917525773195877" height="6.239135245431612" fill="#2563eb" opacity="0.85"><title>2025-11-17 | ETH buy 100.00 usd | reason=both_assets_cheap</title></rect>
<rect x="1014.2495704467353" y="701.2608647545684" width="6.917525773195877" height="6.239135245431612" fill="#2563eb" opacity="0.85"><title>2025-11-24 | ETH buy 100.00 usd | reason=both_assets_cheap</title></rect>
<rect x="1026.9579037800688" y="701.2608647545684" width="6.917525773195877" height="6.239135245431612" fill="#2563eb" opacity="0.85"><title>2025-12-01 | ETH buy 100.00 usd | reason=both_assets_cheap</title></rect>
<rect x="1039.666237113402" y="701.2608647545684" width="6.917525773195877" height="6.239135245431612" fill="#2563eb" opacity="0.85"><title>2025-12-08 | ETH buy 100.00 usd | reason=both_assets_cheap</title></rect>
<rect x="1052.3745704467353" y="701.2608647545684" width="6.917525773195877" height="6.239135245431612" fill="#2563eb" opacity="0.85"><title>2025-12-15 | ETH buy 100.00 usd | reason=both_assets_cheap</title></rect>
<rect x="1065.0829037800688" y="701.2608647545684" width="6.917525773195877" height="6.239135245431612" fill="#2563eb" opacity="0.85"><title>2025-12-22 | ETH buy 100.00 usd | reason=both_assets_cheap</title></rect>
<rect x="1077.791237113402" y="701.2608647545684" width="6.917525773195877" height="6.239135245431612" fill="#2563eb" opacity="0.85"><title>2025-12-29 | ETH buy 100.00 usd | reason=both_assets_cheap</title></rect>
<rect x="1090.4995704467353" y="701.2608647545684" width="6.917525773195877" height="6.239135245431612" fill="#2563eb" opacity="0.85"><title>2026-01-05 | ETH buy 100.00 usd | reason=both_assets_cheap</title></rect>
<rect x="1103.2079037800688" y="701.2608647545684" width="6.917525773195877" height="6.239135245431612" fill="#2563eb" opacity="0.85"><title>2026-01-12 | ETH buy 100.00 usd | reason=both_assets_cheap</title></rect>
<rect x="1115.916237113402" y="701.2608647545684" width="6.917525773195877" height="6.239135245431612" fill="#2563eb" opacity="0.85"><title>2026-01-19 | ETH buy 100.00 usd | reason=both_assets_cheap</title></rect>
<rect x="1128.6245704467353" y="701.2608647545684" width="6.917525773195877" height="6.239135245431612" fill="#2563eb" opacity="0.85"><title>2026-01-26 | ETH buy 100.00 usd | reason=both_assets_cheap</title></rect>
<rect x="1141.3329037800688" y="701.2608647545684" width="6.917525773195877" height="6.239135245431612" fill="#2563eb" opacity="0.85"><title>2026-02-02 | ETH buy 100.00 usd | reason=both_assets_cheap</title></rect>
<rect x="1154.041237113402" y="701.2608647545684" width="6.917525773195877" height="6.239135245431612" fill="#2563eb" opacity="0.85"><title>2026-02-09 | ETH buy 100.00 usd | reason=both_assets_cheap</title></rect>
<rect x="1166.7495704467353" y="701.2608647545684" width="6.917525773195877" height="6.239135245431612" fill="#2563eb" opacity="0.85"><title>2026-02-16 | ETH buy 100.00 usd | reason=both_assets_cheap</title></rect>
<rect x="1179.4579037800688" y="701.2608647545684" width="6.917525773195877" height="6.239135245431612" fill="#2563eb" opacity="0.85"><title>2026-02-23 | ETH buy 100.00 usd | reason=both_assets_cheap</title></rect>
<rect x="1192.166237113402" y="701.2608647545684" width="6.917525773195877" height="6.239135245431612" fill="#2563eb" opacity="0.85"><title>2026-03-02 | ETH buy 100.00 usd | reason=both_assets_cheap</title></rect>
<rect x="1204.8745704467353" y="701.2608647545684" width="6.917525773195877" height="6.239135245431612" fill="#2563eb" opacity="0.85"><title>2026-03-09 | ETH buy 100.00 usd | reason=both_assets_cheap</title></rect>
<rect x="1217.5829037800688" y="701.2608647545684" width="6.917525773195877" height="6.239135245431612" fill="#2563eb" opacity="0.85"><title>2026-03-16 | ETH buy 100.00 usd | reason=both_assets_cheap</title></rect>
<rect x="1230.291237113402" y="701.2608647545684" width="6.917525773195877" height="6.239135245431612" fill="#2563eb" opacity="0.85"><title>2026-03-23 | ETH buy 100.00 usd | reason=both_assets_cheap</title></rect>
<rect x="1242.9995704467353" y="701.2608647545684" width="6.917525773195877" height="6.239135245431612" fill="#2563eb" opacity="0.85"><title>2026-03-30 | ETH buy 100.00 usd | reason=both_assets_cheap</title></rect>
<rect x="1255.7079037800688" y="703.4659162465746" width="6.917525773195877" height="4.034083753425421" fill="#2563eb" opacity="0.85"><title>2026-04-06 | ETH buy 64.66 usd | reason=both_assets_cheap</title></rect>
<rect x="1268.416237113402" y="707.5" width="6.917525773195877" height="1.5" fill="#7c3aed" opacity="0.85"><title>2026-04-13 | ETH sell 14.79 usd | reason=both_assets_cheap</title></rect>
<rect x="1281.1245704467353" y="705.5040970900621" width="6.917525773195877" height="1.995902909937854" fill="#2563eb" opacity="0.85"><title>2026-04-20 | ETH buy 31.99 usd | reason=both_assets_cheap</title></rect>
<rect x="1293.8329037800688" y="704.92211848918" width="6.917525773195877" height="2.5778815108200206" fill="#2563eb" opacity="0.85"><title>2026-04-27 | ETH buy 41.32 usd | reason=both_assets_cheap</title></rect>
<rect x="1306.541237113402" y="705.4279468227035" width="6.917525773195877" height="2.0720531772965387" fill="#2563eb" opacity="0.85"><title>2026-05-04 | ETH buy 33.21 usd | reason=both_assets_cheap</title></rect>
<text x="24" y="707.5" transform="rotate(-90 24,707.5)" text-anchor="middle" font-family="monospace" font-size="14" fill="#0f172a">ETH weekly trade usd</text>
<rect x="1040" y="478" width="14" height="10" fill="#ea580c" opacity="0.85"/>
<text x="1062" y="488" font-family="monospace" font-size="11" fill="#0f172a">BTC buy</text>
<rect x="1190" y="478" width="14" height="10" fill="#dc2626" opacity="0.85"/>
<text x="1212" y="488" font-family="monospace" font-size="11" fill="#0f172a">BTC sell</text>
<rect x="1040" y="498" width="14" height="10" fill="#2563eb" opacity="0.85"/>
<text x="1062" y="508" font-family="monospace" font-size="11" fill="#0f172a">ETH buy</text>
<rect x="1190" y="498" width="14" height="10" fill="#7c3aed" opacity="0.85"/>
<text x="1212" y="508" font-family="monospace" font-size="11" fill="#0f172a">ETH sell</text>
</svg>