<svg xmlns="http://www.w3.org/2000/svg" width="1400" height="800">
<rect width="1400" height="800" fill="#f8fafc"/>
<text x="700.0" y="42" text-anchor="middle" font-family="monospace" font-size="24" fill="#0f172a">static_50_50_rebalance | weekly | start=2024-04-01 | return=4.27%</text>
<line x1="90" y1="420" x2="1310" y2="420" stroke="#334155" stroke-width="2"/>
<line x1="90" y1="90" x2="90" y2="420" stroke="#334155" stroke-width="2"/>
<line x1="90.0" y1="420" x2="90.0" y2="90" stroke="#94a3b8" stroke-width="1.2"/>
<line x1="90.0" y1="605" x2="90.0" y2="480" stroke="#94a3b8" stroke-width="1.2"/>
<line x1="90.0" y1="770" x2="90.0" y2="645" stroke="#94a3b8" stroke-width="1.2"/>
<text x="90.0" y="788" text-anchor="middle" font-family="monospace" font-size="11" fill="#334155">2024-04</text>
<line x1="145.96330275229357" y1="420" x2="145.96330275229357" y2="90" stroke="#94a3b8" stroke-width="1.2"/>
<line x1="145.96330275229357" y1="605" x2="145.96330275229357" y2="480" stroke="#94a3b8" stroke-width="1.2"/>
<line x1="145.96330275229357" y1="770" x2="145.96330275229357" y2="645" stroke="#94a3b8" stroke-width="1.2"/>
<text x="145.96330275229357" y="788" text-anchor="middle" font-family="monospace" font-size="11" fill="#334155">2024-05</text>
<line x1="190.73394495412845" y1="420" x2="190.73394495412845" y2="90" stroke="#94a3b8" stroke-width="1.2"/>
<line x1="190.73394495412845" y1="605" x2="190.73394495412845" y2="480" stroke="#94a3b8" stroke-width="1.2"/>
<line x1="190.73394495412845" y1="770" x2="190.73394495412845" y2="645" stroke="#94a3b8" stroke-width="1.2"/>
<text x="190.73394495412845" y="788" text-anchor="middle" font-family="monospace" font-size="11" fill="#334155">2024-06</text>
<line x1="235.50458715596332" y1="420" x2="235.50458715596332" y2="90" stroke="#94a3b8" stroke-width="1.2"/>
<line x1="235.50458715596332" y1="605" x2="235.50458715596332" y2="480" stroke="#94a3b8" stroke-width="1.2"/>
<line x1="235.50458715596332" y1="770" x2="235.50458715596332" y2="645" stroke="#94a3b8" stroke-width="1.2"/>
<text x="235.50458715596332" y="788" text-anchor="middle" font-family="monospace" font-size="11" fill="#334155">2024-07</text>
<line x1="291.4678899082569" y1="420" x2="291.4678899082569" y2="90" stroke="#94a3b8" stroke-width="1.2"/>
<line x1="291.4678899082569" y1="605" x2="291.4678899082569" y2="480" stroke="#94a3b8" stroke-width="1.2"/>
<line x1="291.4678899082569" y1="770" x2="291.4678899082569" y2="645" stroke="#94a3b8" stroke-width="1.2"/>
<text x="291.4678899082569" y="788" text-anchor="middle" font-family="monospace" font-size="11" fill="#334155">2024-08</text>
<line x1="336.2385321100918" y1="420" x2="336.2385321100918" y2="90" stroke="#94a3b8" stroke-width="1.2"/>
<line x1="336.2385321100918" y1="605" x2="336.2385321100918" y2="480" stroke="#94a3b8" stroke-width="1.2"/>
<line x1="336.2385321100918" y1="770" x2="336.2385321100918" y2="645" stroke="#94a3b8" stroke-width="1.2"/>
<text x="336.2385321100918" y="788" text-anchor="middle" font-family="monospace" font-size="11" fill="#334155">2024-09</text>
<line x1="392.20183486238534" y1="420" x2="392.20183486238534" y2="90" stroke="#94a3b8" stroke-width="1.2"/>
<line x1="392.20183486238534" y1="605" x2="392.20183486238534" y2="480" stroke="#94a3b8" stroke-width="1.2"/>
<line x1="392.20183486238534" y1="770" x2="392.20183486238534" y2="645" stroke="#94a3b8" stroke-width="1.2"/>
<text x="392.20183486238534" y="788" text-anchor="middle" font-family="monospace" font-size="11" fill="#334155">2024-10</text>
<line x1="436.9724770642202" y1="420" x2="436.9724770642202" y2="90" stroke="#94a3b8" stroke-width="1.2"/>
<line x1="436.9724770642202" y1="605" x2="436.9724770642202" y2="480" stroke="#94a3b8" stroke-width="1.2"/>
<line x1="436.9724770642202" y1="770" x2="436.9724770642202" y2="645" stroke="#94a3b8" stroke-width="1.2"/>
<text x="436.9724770642202" y="788" text-anchor="middle" font-family="monospace" font-size="11" fill="#334155">2024-11</text>
<line x1="481.7431192660551" y1="420" x2="481.7431192660551" y2="90" stroke="#94a3b8" stroke-width="1.2"/>
<line x1="481.7431192660551" y1="605" x2="481.7431192660551" y2="480" stroke="#94a3b8" stroke-width="1.2"/>
<line x1="481.7431192660551" y1="770" x2="481.7431192660551" y2="645" stroke="#94a3b8" stroke-width="1.2"/>
<text x="481.7431192660551" y="788" text-anchor="middle" font-family="monospace" font-size="11" fill="#334155">2024-12</text>
<line x1="537.7064220183486" y1="420" x2="537.7064220183486" y2="90" stroke="#94a3b8" stroke-width="1.2"/>
<line x1="537.7064220183486" y1="605" x2="537.7064220183486" y2="480" stroke="#94a3b8" stroke-width="1.2"/>
<line x1="537.7064220183486" y1="770" x2="537.7064220183486" y2="645" stroke="#94a3b8" stroke-width="1.2"/>
<text x="537.7064220183486" y="788" text-anchor="middle" font-family="monospace" font-size="11" fill="#334155">2025-01</text>
<line x1="582.4770642201836" y1="420" x2="582.4770642201836" y2="90" stroke="#94a3b8" stroke-width="1.2"/>
<line x1="582.4770642201836" y1="605" x2="582.4770642201836" y2="480" stroke="#94a3b8" stroke-width="1.2"/>
<line x1="582.4770642201836" y1="770" x2="582.4770642201836" y2="645" stroke="#94a3b8" stroke-width="1.2"/>
<text x="582.4770642201836" y="788" text-anchor="middle" font-family="monospace" font-size="11" fill="#334155">2025-02</text>
<line x1="627.2477064220184" y1="420" x2="627.2477064220184" y2="90" stroke="#94a3b8" stroke-width="1.2"/>
<line x1="627.2477064220184" y1="605" x2="627.2477064220184" y2="480" stroke="#94a3b8" stroke-width="1.2"/>
<line x1="627.2477064220184" y1="770" x2="627.2477064220184" y2="645" stroke="#94a3b8" stroke-width="1.2"/>
<text x="627.2477064220184" y="788" text-anchor="middle" font-family="monospace" font-size="11" fill="#334155">2025-03</text>
<line x1="683.2110091743119" y1="420" x2="683.2110091743119" y2="90" stroke="#94a3b8" stroke-width="1.2"/>
<line x1="683.2110091743119" y1="605" x2="683.2110091743119" y2="480" stroke="#94a3b8" stroke-width="1.2"/>
<line x1="683.2110091743119" y1="770" x2="683.2110091743119" y2="645" stroke="#94a3b8" stroke-width="1.2"/>
<text x="683.2110091743119" y="788" text-anchor="middle" font-family="monospace" font-size="11" fill="#334155">2025-04</text>
<line x1="727.9816513761467" y1="420" x2="727.9816513761467" y2="90" stroke="#94a3b8" stroke-width="1.2"/>
<line x1="727.9816513761467" y1="605" x2="727.9816513761467" y2="480" stroke="#94a3b8" stroke-width="1.2"/>
<line x1="727.9816513761467" y1="770" x2="727.9816513761467" y2="645" stroke="#94a3b8" stroke-width="1.2"/>
<text x="727.9816513761467" y="788" text-anchor="middle" font-family="monospace" font-size="11" fill="#334155">2025-05</text>
<line x1="772.7522935779816" y1="420" x2="772.7522935779816" y2="90" stroke="#94a3b8" stroke-width="1.2"/>
<line x1="772.7522935779816" y1="605" x2="772.7522935779816" y2="480" stroke="#94a3b8" stroke-width="1.2"/>
<line x1="772.7522935779816" y1="770" x2="772.7522935779816" y2="645" stroke="#94a3b8" stroke-width="1.2"/>
<text x="772.7522935779816" y="788" text-anchor="middle" font-family="monospace" font-size="11" fill="#334155">2025-06</text>
<line x1="828.7155963302753" y1="420" x2="828.7155963302753" y2="90" stroke="#94a3b8" stroke-width="1.2"/>
<line x1="828.7155963302753" y1="605" x2="828.7155963302753" y2="480" stroke="#94a3b8" stroke-width="1.2"/>
<line x1="828.7155963302753" y1="770" x2="828.7155963302753" y2="645" stroke="#94a3b8" stroke-width="1.2"/>
<text x="828.7155963302753" y="788" text-anchor="middle" font-family="monospace" font-size="11" fill="#334155">2025-07</text>
<line x1="873.4862385321102" y1="420" x2="873.4862385321102" y2="90" stroke="#94a3b8" stroke-width="1.2"/>
<line x1="873.4862385321102" y1="605" x2="873.4862385321102" y2="480" stroke="#94a3b8" stroke-width="1.2"/>
<line x1="873.4862385321102" y1="770" x2="873.4862385321102" y2="645" stroke="#94a3b8" stroke-width="1.2"/>
<text x="873.4862385321102" y="788" text-anchor="middle" font-family="monospace" font-size="11" fill="#334155">2025-08</text>
<line x1="918.256880733945" y1="420" x2="918.256880733945" y2="90" stroke="#94a3b8" stroke-width="1.2"/>
<line x1="918.256880733945" y1="605" x2="918.256880733945" y2="480" stroke="#94a3b8" stroke-width="1.2"/>
<line x1="918.256880733945" y1="770" x2="918.256880733945" y2="645" stroke="#94a3b8" stroke-width="1.2"/>
<text x="918.256880733945" y="788" text-anchor="middle" font-family="monospace" font-size="11" fill="#334155">2025-09</text>
<line x1="974.2201834862385" y1="420" x2="974.2201834862385" y2="90" stroke="#94a3b8" stroke-width="1.2"/>
<line x1="974.2201834862385" y1="605" x2="974.2201834862385" y2="480" stroke="#94a3b8" stroke-width="1.2"/>
<line x1="974.2201834862385" y1="770" x2="974.2201834862385" y2="645" stroke="#94a3b8" stroke-width="1.2"/>
<text x="974.2201834862385" y="788" text-anchor="middle" font-family="monospace" font-size="11" fill="#334155">2025-10</text>
<line x1="1018.9908256880734" y1="420" x2="1018.9908256880734" y2="90" stroke="#94a3b8" stroke-width="1.2"/>
<line x1="1018.9908256880734" y1="605" x2="1018.9908256880734" y2="480" stroke="#94a3b8" stroke-width="1.2"/>
<line x1="1018.9908256880734" y1="770" x2="1018.9908256880734" y2="645" stroke="#94a3b8" stroke-width="1.2"/>
<text x="1018.9908256880734" y="788" text-anchor="middle" font-family="monospace" font-size="11" fill="#334155">2025-11</text>
<line x1="1063.761467889908" y1="420" x2="1063.761467889908" y2="90" stroke="#94a3b8" stroke-width="1.2"/>
<line x1="1063.761467889908" y1="605" x2="1063.761467889908" y2="480" stroke="#94a3b8" stroke-width="1.2"/>
<line x1="1063.761467889908" y1="770" x2="1063.761467889908" y2="645" stroke="#94a3b8" stroke-width="1.2"/>
<text x="1063.761467889908" y="788" text-anchor="middle" font-family="monospace" font-size="11" fill="#334155">2025-12</text>
<line x1="1119.724770642202" y1="420" x2="1119.724770642202" y2="90" stroke="#94a3b8" stroke-width="1.2"/>
<line x1="1119.724770642202" y1="605" x2="1119.724770642202" y2="480" stroke="#94a3b8" stroke-width="1.2"/>
<line x1="1119.724770642202" y1="770" x2="1119.724770642202" y2="645" stroke="#94a3b8" stroke-width="1.2"/>
<text x="1119.724770642202" y="788" text-anchor="middle" font-family="monospace" font-size="11" fill="#334155">2026-01</text>
<line x1="1164.4954128440368" y1="420" x2="1164.4954128440368" y2="90" stroke="#94a3b8" stroke-width="1.2"/>
<line x1="1164.4954128440368" y1="605" x2="1164.4954128440368" y2="480" stroke="#94a3b8" stroke-width="1.2"/>
<line x1="1164.4954128440368" y1="770" x2="1164.4954128440368" y2="645" stroke="#94a3b8" stroke-width="1.2"/>
<text x="1164.4954128440368" y="788" text-anchor="middle" font-family="monospace" font-size="11" fill="#334155">2026-02</text>
<line x1="1209.2660550458716" y1="420" x2="1209.2660550458716" y2="90" stroke="#94a3b8" stroke-width="1.2"/>
<line x1="1209.2660550458716" y1="605" x2="1209.2660550458716" y2="480" stroke="#94a3b8" stroke-width="1.2"/>
<line x1="1209.2660550458716" y1="770" x2="1209.2660550458716" y2="645" stroke="#94a3b8" stroke-width="1.2"/>
<text x="1209.2660550458716" y="788" text-anchor="middle" font-family="monospace" font-size="11" fill="#334155">2026-03</text>
<line x1="1265.2293577981652" y1="420" x2="1265.2293577981652" y2="90" stroke="#94a3b8" stroke-width="1.2"/>
<line x1="1265.2293577981652" y1="605" x2="1265.2293577981652" y2="480" stroke="#94a3b8" stroke-width="1.2"/>
<line x1="1265.2293577981652" y1="770" x2="1265.2293577981652" y2="645" stroke="#94a3b8" stroke-width="1.2"/>
<text x="1265.2293577981652" y="788" text-anchor="middle" font-family="monospace" font-size="11" fill="#334155">2026-04</text>
<line x1="1310.0" y1="420" x2="1310.0" y2="90" stroke="#94a3b8" stroke-width="1.2"/>
<line x1="1310.0" y1="605" x2="1310.0" y2="480" stroke="#94a3b8" stroke-width="1.2"/>
<line x1="1310.0" y1="770" x2="1310.0" y2="645" stroke="#94a3b8" stroke-width="1.2"/>
<text x="1310.0" y="788" text-anchor="middle" font-family="monospace" font-size="11" fill="#334155">2026-05</text>
<line x1="90" y1="420.0" x2="1310" y2="420.0" stroke="#cbd5e1" stroke-width="1"/>
<text x="78" y="424.0" text-anchor="end" font-family="monospace" font-size="12" fill="#475569">0</text>
<line x1="90" y1="354.0" x2="1310" y2="354.0" stroke="#cbd5e1" stroke-width="1"/>
<text x="78" y="358.0" text-anchor="end" font-family="monospace" font-size="12" fill="#475569">3218</text>
<line x1="90" y1="288.0" x2="1310" y2="288.0" stroke="#cbd5e1" stroke-width="1"/>
<text x="78" y="292.0" text-anchor="end" font-family="monospace" font-size="12" fill="#475569">6436</text>
<line x1="90" y1="222.0" x2="1310" y2="222.0" stroke="#cbd5e1" stroke-width="1"/>
<text x="78" y="226.0" text-anchor="end" font-family="monospace" font-size="12" fill="#475569">9653</text>
<line x1="90" y1="156.0" x2="1310" y2="156.0" stroke="#cbd5e1" stroke-width="1"/>
<text x="78" y="160.0" text-anchor="end" font-family="monospace" font-size="12" fill="#475569">12871</text>
<line x1="90" y1="90.0" x2="1310" y2="90.0" stroke="#cbd5e1" stroke-width="1"/>
<text x="78" y="94.0" text-anchor="end" font-family="monospace" font-size="12" fill="#475569">16089</text>
<polygon points="90.0,218.99156031115106 101.19266055045871,223.09377336602552 112.38532110091744,227.19598642090003 123.57798165137615,231.29819947577445 134.77064220183487,235.40041253064896 145.96330275229357,239.5026255855234 157.1559633027523,243.6048386403979 168.348623853211,247.70705169527233 179.54128440366975,251.80926475014684 190.73394495412845,255.9114778050213 201.92660550458714,260.01369085989575 213.1192660550459,264.11590391477023 224.3119266055046,268.2181169696447 235.50458715596332,272.3203300245192 246.69724770642202,276.4225430793936 257.88990825688074,280.5247561342681 269.0825688073395,284.6269691891425 280.27522935779814,288.729182244017 291.4678899082569,292.8313952988915 302.66055045871565,296.933608353766 313.8532110091743,301.03582140864046 325.04587155963304,305.1380344635149 336.2385321100918,309.24024751838937 347.4311926605505,313.3424605732638 358.6238532110092,317.4446736281383 369.8165137614679,321.54688668301276 381.00917431192664,325.64909973788724 392.20183486238534,329.7513127927617 403.39449541284404,333.85352584763615 414.5871559633028,337.95573890251063 425.7798165137615,342.0579519573851 436.9724770642202,346.1601650122596 448.16513761467894,350.262378067134 459.35779816513764,352.4174691732514 470.55045871559633,354.7041494922236 481.7431192660551,357.0753511005606 492.9357798165138,359.1634390359529 504.1284403669725,359.83122965924406 515.3211009174313,361.81228673967547 526.5137614678899,364.17069541577627 537.7064220183486,365.13628975399695 548.8990825688074,366.0227753287207 560.0917431192661,365.9575011176974 571.2844036697247,366.40890004181347 582.4770642201836,366.08391302412844 593.6697247706422,366.7724941715423 604.862385321101,369.12423798400937 616.0550458715596,371.0868185822153 627.2477064220184,372.2473304050878 638.4403669724771,374.1114747450448 649.6330275229358,374.95737027585494 660.8256880733945,376.5363330649598 672.0183486238533,377.8298834485385 683.2110091743119,378.3989750930405 694.4036697247707,378.8077680723305 705.5963302752293,378.91216395214013 716.7889908256881,379.7834735797089 727.9816513761467,380.16020991718597 739.1743119266056,375.1725233408178 750.3669724770642,373.79001306790724 761.559633027523,372.735247881992 772.7522935779816,372.34875920859554 783.9449541284404,371.4925883836209 795.137614678899,371.8784856176995 806.3302752293579,372.69355603557653 817.5229357798165,372.6678423973883 828.7155963302753,372.3440652741289 839.9082568807339,369.3663246377488 851.1009174311927,360.9866472382559 862.2935779816513,357.5751393934116 873.4862385321102,357.10300994720393 884.6788990825688,353.77073918889056 895.8715596330276,351.83297129934516 907.0642201834862,350.1369013226925 918.256880733945,350.67520667857207 929.4495412844036,352.6210611112907 940.6422018348625,353.4394637073731 951.8348623853211,356.3872589614639 963.0275229357799,357.6456489939615 974.2201834862385,355.82282449698073 985.4128440366973,357.1713823527249 996.6055045871559,359.1053248134969 1007.7981651376148,359.2899349660089 1018.9908256880734,360.5876853103973 1030.1834862385322,362.22824609511065 1041.3761467889908,365.1788474946442 1052.5688073394494,368.4331312881578 1063.761467889908,370.7450418813118 1074.9541284403672,370.5044136535432 1086.1467889908258,371.36156907863426 1097.3394495412845,371.4160616164305 1108.532110091743,371.83881000631357 1119.724770642202,370.36667494877315 1130.9174311926606,370.35056345149223 1142.1100917431193,369.8862619252545 1153.302752293578,370.95642431381316 1164.4954128440368,372.2732932043595 1175.6880733944954,375.1298094720392 1186.8807339449543,377.262308911188 1198.073394495413,379.74315675740763 1209.2660550458716,380.9121831434839 1220.4587155963302,381.66715546426286 1231.651376146789,379.99365131870826 1242.8440366972477,380.3323862312558 1254.0366972477066,381.42356259919853 1265.2293577981652,381.428820968025 1276.4220183486239,379.842168955372 1287.6146788990825,379.0894432275926 1298.8073394495414,378.5876022220531 1310.0,377.9064981978419 1310.0,420.0 1298.8073394495414,420.0 1287.6146788990825,420.0 1276.4220183486239,420.0 1265.2293577981652,420.0 1254.0366972477066,420.0 1242.8440366972477,420.0 1231.651376146789,420.0 1220.4587155963302,420.0 1209.2660550458716,420.0 1198.073394495413,420.0 1186.8807339449543,420.0 1175.6880733944954,420.0 1164.4954128440368,420.0 1153.302752293578,420.0 1142.1100917431193,420.0 1130.9174311926606,420.0 1119.724770642202,420.0 1108.532110091743,420.0 1097.3394495412845,420.0 1086.1467889908258,420.0 1074.9541284403672,420.0 1063.761467889908,420.0 1052.5688073394494,420.0 1041.3761467889908,420.0 1030.1834862385322,420.0 1018.9908256880734,420.0 1007.7981651376148,420.0 996.6055045871559,420.0 985.4128440366973,420.0 974.2201834862385,420.0 963.0275229357799,420.0 951.8348623853211,420.0 940.6422018348625,420.0 929.4495412844036,420.0 918.256880733945,420.0 907.0642201834862,420.0 895.8715596330276,420.0 884.6788990825688,420.0 873.4862385321102,420.0 862.2935779816513,420.0 851.1009174311927,420.0 839.9082568807339,420.0 828.7155963302753,420.0 817.5229357798165,420.0 806.3302752293579,420.0 795.137614678899,420.0 783.9449541284404,420.0 772.7522935779816,420.0 761.559633027523,420.0 750.3669724770642,420.0 739.1743119266056,420.0 727.9816513761467,420.0 716.7889908256881,420.0 705.5963302752293,420.0 694.4036697247707,420.0 683.2110091743119,420.0 672.0183486238533,420.0 660.8256880733945,420.0 649.6330275229358,420.0 638.4403669724771,420.0 627.2477064220184,420.0 616.0550458715596,420.0 604.862385321101,420.0 593.6697247706422,420.0 582.4770642201836,420.0 571.2844036697247,420.0 560.0917431192661,420.0 548.8990825688074,420.0 537.7064220183486,420.0 526.5137614678899,420.0 515.3211009174313,420.0 504.1284403669725,420.0 492.9357798165138,420.0 481.7431192660551,420.0 470.55045871559633,420.0 459.35779816513764,420.0 448.16513761467894,420.0 436.9724770642202,420.0 425.7798165137615,420.0 414.5871559633028,420.0 403.39449541284404,420.0 392.20183486238534,420.0 381.00917431192664,420.0 369.8165137614679,420.0 358.6238532110092,420.0 347.4311926605505,420.0 336.2385321100918,420.0 325.04587155963304,420.0 313.8532110091743,420.0 302.66055045871565,420.0 291.4678899082569,420.0 280.27522935779814,420.0 269.0825688073395,420.0 257.88990825688074,420.0 246.69724770642202,420.0 235.50458715596332,420.0 224.3119266055046,420.0 213.1192660550459,420.0 201.92660550458714,420.0 190.73394495412845,420.0 179.54128440366975,420.0 168.348623853211,420.0 157.1559633027523,420.0 145.96330275229357,420.0 134.77064220183487,420.0 123.57798165137615,420.0 112.38532110091744,420.0 101.19266055045871,420.0 90.0,420.0" fill="#facc15" fill-opacity="0.70" stroke="#facc15" stroke-width="1.2"/>
<polygon points="90.0,216.94045378371385 101.19266055045871,218.88115504201727 112.38532110091744,221.6066230239628 123.57798165137615,223.4806173766536 134.77064220183487,225.49736664829678 145.96330275229357,228.01918299111705 157.1559633027523,230.492029107941 168.348623853211,229.38157339115432 179.54128440366975,230.28556079120625 190.73394495412845,233.02612819591116 201.92660550458714,235.68630104712742 213.1192660550459,238.7747124093466 224.3119266055046,241.97361161724209 235.50458715596332,243.33543163961264 246.69724770642202,248.92777037574095 257.88990825688074,246.72150835544545 269.0825688073395,249.20675941582795 280.27522935779814,252.52960082963668 291.4678899082569,264.3703233246867 302.66055045871565,262.8628110411349 313.8532110091743,265.98809235714697 325.04587155963304,267.45948899275925 336.2385321100918,271.5199155515678 347.4311926605505,276.2123861660816 358.6238532110092,279.2843691514156 369.8165137614679,275.49124851592967 381.00917431192664,278.33323158289284 392.20183486238534,283.6509950747956 403.39449541284404,281.76040336519 414.5871559633028,283.08601813076325 425.7798165137615,287.18937388015456 436.9724770642202,292.8474019710514 448.16513761467894,273.12901904939656 459.35779816513764,277.03896954160916 470.55045871559633,272.44748762183235 481.7431192660551,267.2319660495904 492.9357798165138,265.5667519042848 504.1284403669725,257.27679355777445 515.3211009174313,271.8528220200536 526.5137614678899,273.80397171250956 537.7064220183486,263.74873424388926 548.8990825688074,277.7743534350233 560.0917431192661,271.59684790137305 571.2844036697247,272.82962826360836 582.4770642201836,279.22671092417147 593.6697247706422,284.54349299993817 604.862385321101,282.3039270570339 616.0550458715596,289.51607775999514 627.2477064220184,300.4981662899917 638.4403669724771,309.77995685654025 649.6330275229358,306.42957969467193 660.8256880733945,300.43118484597085 672.0183486238533,309.1643788996351 683.2110091743119,317.83466681655995 694.4036697247707,313.4076214774901 705.5963302752293,313.25213298742034 716.7889908256881,303.02091408034664 727.9816513761467,301.89182453287333 739.1743119266056,274.887972602781 750.3669724770642,275.6179330472453 761.559633027523,274.63844725206764 772.7522935779816,274.4024768105305 783.9449541284404,271.8045139289019 795.137614678899,276.82738501424467 806.3302752293579,281.14639159923536 817.5229357798165,278.14876459558354 828.7155963302753,276.03593136242125 839.9082568807339,258.65806258918394 851.1009174311927,233.1941521514473 862.2935779816513,234.03277910411205 873.4862385321102,238.6392998470262 884.6788990825688,224.65665377263903 895.8715596330276,223.92986119214268 907.0642201834862,224.15372538853785 918.256880733945,227.9968530933196 929.4495412844036,230.30157532915788 940.6422018348625,226.1393255938756 951.8348623853211,236.60400704217633 963.0275229357799,236.44670936090822 974.2201834862385,222.48308713481697 985.4128440366973,235.30429715705986 996.6055045871559,243.00470869763268 1007.7981651376148,238.67708372196356 1018.9908256880734,253.06495685869947 1030.1834862385322,253.74041789065507 1041.3761467889908,271.0234002450995 1052.5688073394494,274.5681107828241 1063.761467889908,279.73390809642416 1074.9541284403672,269.9510203818214 1086.1467889908258,275.88634859564115 1097.3394495412845,274.4518792481749 1108.532110091743,276.80305148103366 1119.724770642202,267.0307222614497 1130.9174311926606,271.1517219327541 1142.1100917431193,268.1757133930836 1153.302752293578,276.28644865694787 1164.4954128440368,294.3687925458013 1175.6880733944954,303.18951837735585 1186.8807339449543,306.9143796378116 1198.073394495413,312.33717273390806 1209.2660550458716,306.1667999799433 1220.4587155963302,307.3488430331414 1231.651376146789,294.4478022617777 1242.8440366972477,301.8886428068405 1254.0366972477066,307.0334205793408 1265.2293577981652,304.1468474077046 1276.4220183486239,294.6363625809651 1287.6146788990825,295.8206228716644 1298.8073394495414,295.24309728901113 1310.0,292.67248690560365 1310.0,377.9064981978419 1298.8073394495414,378.5876022220531 1287.6146788990825,379.0894432275926 1276.4220183486239,379.842168955372 1265.2293577981652,381.428820968025 1254.0366972477066,381.42356259919853 1242.8440366972477,380.3323862312558 1231.651376146789,379.99365131870826 1220.4587155963302,381.66715546426286 1209.2660550458716,380.9121831434839 1198.073394495413,379.74315675740763 1186.8807339449543,377.262308911188 1175.6880733944954,375.1298094720392 1164.4954128440368,372.2732932043595 1153.302752293578,370.95642431381316 1142.1100917431193,369.8862619252545 1130.9174311926606,370.35056345149223 1119.724770642202,370.36667494877315 1108.532110091743,371.83881000631357 1097.3394495412845,371.4160616164305 1086.1467889908258,371.36156907863426 1074.9541284403672,370.5044136535432 1063.761467889908,370.7450418813118 1052.5688073394494,368.4331312881578 1041.3761467889908,365.1788474946442 1030.1834862385322,362.22824609511065 1018.9908256880734,360.5876853103973 1007.7981651376148,359.2899349660089 996.6055045871559,359.1053248134969 985.4128440366973,357.1713823527249 974.2201834862385,355.82282449698073 963.0275229357799,357.6456489939615 951.8348623853211,356.3872589614639 940.6422018348625,353.4394637073731 929.4495412844036,352.6210611112907 918.256880733945,350.67520667857207 907.0642201834862,350.1369013226925 895.8715596330276,351.83297129934516 884.6788990825688,353.77073918889056 873.4862385321102,357.10300994720393 862.2935779816513,357.5751393934116 851.1009174311927,360.9866472382559 839.9082568807339,369.3663246377488 828.7155963302753,372.3440652741289 817.5229357798165,372.6678423973883 806.3302752293579,372.69355603557653 795.137614678899,371.8784856176995 783.9449541284404,371.4925883836209 772.7522935779816,372.34875920859554 761.559633027523,372.735247881992 750.3669724770642,373.79001306790724 739.1743119266056,375.1725233408178 727.9816513761467,380.16020991718597 716.7889908256881,379.7834735797089 705.5963302752293,378.91216395214013 694.4036697247707,378.8077680723305 683.2110091743119,378.3989750930405 672.0183486238533,377.8298834485385 660.8256880733945,376.5363330649598 649.6330275229358,374.95737027585494 638.4403669724771,374.1114747450448 627.2477064220184,372.2473304050878 616.0550458715596,371.0868185822153 604.862385321101,369.12423798400937 593.6697247706422,366.7724941715423 582.4770642201836,366.08391302412844 571.2844036697247,366.40890004181347 560.0917431192661,365.9575011176974 548.8990825688074,366.0227753287207 537.7064220183486,365.13628975399695 526.5137614678899,364.17069541577627 515.3211009174313,361.81228673967547 504.1284403669725,359.83122965924406 492.9357798165138,359.1634390359529 481.7431192660551,357.0753511005606 470.55045871559633,354.7041494922236 459.35779816513764,352.4174691732514 448.16513761467894,350.262378067134 436.9724770642202,346.1601650122596 425.7798165137615,342.0579519573851 414.5871559633028,337.95573890251063 403.39449541284404,333.85352584763615 392.20183486238534,329.7513127927617 381.00917431192664,325.64909973788724 369.8165137614679,321.54688668301276 358.6238532110092,317.4446736281383 347.4311926605505,313.3424605732638 336.2385321100918,309.24024751838937 325.04587155963304,305.1380344635149 313.8532110091743,301.03582140864046 302.66055045871565,296.933608353766 291.4678899082569,292.8313952988915 280.27522935779814,288.729182244017 269.0825688073395,284.6269691891425 257.88990825688074,280.5247561342681 246.69724770642202,276.4225430793936 235.50458715596332,272.3203300245192 224.3119266055046,268.2181169696447 213.1192660550459,264.11590391477023 201.92660550458714,260.01369085989575 190.73394495412845,255.9114778050213 179.54128440366975,251.80926475014684 168.348623853211,247.70705169527233 157.1559633027523,243.6048386403979 145.96330275229357,239.5026255855234 134.77064220183487,235.40041253064896 123.57798165137615,231.29819947577445 112.38532110091744,227.19598642090003 101.19266055045871,223.09377336602552 90.0,218.99156031115106" fill="#2563eb" fill-opacity="0.70" stroke="#2563eb" stroke-width="1.2"/>
<polygon points="90.0,214.88934725627658 101.19266055045871,214.72181657123284 112.38532110091744,215.87065513615283 123.57798165137615,215.38555692792278 134.77064220183487,215.7161623632871 145.96330275229357,216.2914498831677 157.1559633027523,216.7558708912236 168.348623853211,211.7390694813612 179.54128440366975,211.10158662419786 190.73394495412845,211.95081642261277 201.92660550458714,212.34336379639043 213.1192660550459,214.3936575635194 224.3119266055046,217.82209133491338 235.50458715596332,216.10397964254477 246.69724770642202,222.30234247882524 257.88990825688074,214.26115266291018 269.0825688073395,213.2912300021099 280.27522935779814,214.98123021691708 291.4678899082569,231.93638968118265 302.66055045871565,225.17835102433202 313.8532110091743,226.19291889458785 325.04587155963304,223.3458695388678 336.2385321100918,227.95270534513895 347.4311926605505,232.13073517484443 358.6238532110092,232.25933792932682 369.8165137614679,222.27064703589818 381.00917431192664,223.09313384929976 392.20183486238534,227.32055683974045 403.39449541284404,219.878263652954 414.5871559633028,217.9533576735425 425.7798165137615,217.51200042965002 436.9724770642202,223.22846003974828 448.16513761467894,179.93569197240657 459.35779816513764,181.90492353381546 470.55045871559633,174.47176902227892 481.7431192660551,165.92010188415028 492.9357798165138,162.672888853733 504.1284403669725,146.48912942271397 515.3211009174313,172.97128762174643 526.5137614678899,176.8521231019552 537.7064220183486,157.77203675778782 548.8990825688074,181.01622080384954 560.0917431192661,169.1341119381876 571.2844036697247,172.04986776714532 582.4770642201836,181.41769563174867 593.6697247706422,191.96827936652463 604.862385321101,191.00760723677303 616.0550458715596,202.37925305127303 627.2477064220184,219.34595264237822 638.4403669724771,235.98832444843333 649.6330275229358,228.70728116340806 660.8256880733945,219.93173517939752 672.0183486238533,234.0113712596275 683.2110091743119,247.25441988937456 694.4036697247707,239.60884654890478 705.5963302752293,238.84237056632122 716.7889908256881,223.27391603638867 727.9816513761467,222.68473127331475 739.1743119266056,186.88560591442152 750.3669724770642,183.15384194921447 761.559633027523,178.40241348038347 772.7522935779816,179.8113526759952 783.9449541284404,173.18208779323137 795.137614678899,181.3219142588901 806.3302752293579,187.54313226726833 817.5229357798165,183.21064379600054 828.7155963302753,180.10144075434755 839.9082568807339,151.9429200068435 851.1009174311927,126.5957221003037 862.2935779816513,124.80063520745517 873.4862385321102,130.14881468366792 884.6788990825688,110.67322967374753 895.8715596330276,110.21441077445053 907.0642201834862,114.41000142483801 918.256880733945,117.08611896576315 929.4495412844036,114.46441578146431 940.6422018348625,104.83141454464334 951.8348623853211,116.67527107777363 963.0275229357799,114.52019513229527 974.2201834862385,90.0 985.4128440366973,112.59970104234509 996.6055045871559,125.19633637134478 1007.7981651376148,117.3727255926047 1018.9908256880734,140.51933445941773 1030.1834862385322,142.21645357988518 1041.3761467889908,173.20482519532626 1052.5688073394494,179.61881341483416 1063.761467889908,186.65785360356816 1074.9541284403672,171.3189271288735 1086.1467889908258,181.09362251862657 1097.3394495412845,177.3527707711338 1108.532110091743,181.30779198098324 1119.724770642202,164.4726994561637 1130.9174311926606,171.6722597710563 1142.1100917431193,167.1098019950837 1153.302752293578,180.1329335118594 1164.4954128440368,209.390924848184 1175.6880733944954,226.6582135293305 1186.8807339449543,231.65962091587184 1198.073394495413,241.27819008781745 1209.2660550458716,230.40604764780116 1220.4587155963302,232.11063892520892 1231.651376146789,211.6007358657682 1242.8440366972477,223.35560571901624 1254.0366972477066,232.57369483570642 1265.2293577981652,227.1703966842571 1276.4220183486239,211.27758471359522 1287.6146788990825,211.6835874990659 1298.8073394495414,210.4288060825679 1310.0,206.12697086815382 1310.0,292.67248690560365 1298.8073394495414,295.24309728901113 1287.6146788990825,295.8206228716644 1276.4220183486239,294.6363625809651 1265.2293577981652,304.1468474077046 1254.0366972477066,307.0334205793408 1242.8440366972477,301.8886428068405 1231.651376146789,294.4478022617777 1220.4587155963302,307.3488430331414 1209.2660550458716,306.1667999799433 1198.073394495413,312.33717273390806 1186.8807339449543,306.9143796378116 1175.6880733944954,303.18951837735585 1164.4954128440368,294.3687925458013 1153.302752293578,276.28644865694787 1142.1100917431193,268.1757133930836 1130.9174311926606,271.1517219327541 1119.724770642202,267.0307222614497 1108.532110091743,276.80305148103366 1097.3394495412845,274.4518792481749 1086.1467889908258,275.88634859564115 1074.9541284403672,269.9510203818214 1063.761467889908,279.73390809642416 1052.5688073394494,274.5681107828241 1041.3761467889908,271.0234002450995 1030.1834862385322,253.74041789065507 1018.9908256880734,253.06495685869947 1007.7981651376148,238.67708372196356 996.6055045871559,243.00470869763268 985.4128440366973,235.30429715705986 974.2201834862385,222.48308713481697 963.0275229357799,236.44670936090822 951.8348623853211,236.60400704217633 940.6422018348625,226.1393255938756 929.4495412844036,230.30157532915788 918.256880733945,227.9968530933196 907.0642201834862,224.15372538853785 895.8715596330276,223.92986119214268 884.6788990825688,224.65665377263903 873.4862385321102,238.6392998470262 862.2935779816513,234.03277910411205 851.1009174311927,233.1941521514473 839.9082568807339,258.65806258918394 828.7155963302753,276.03593136242125 817.5229357798165,278.14876459558354 806.3302752293579,281.14639159923536 795.137614678899,276.82738501424467 783.9449541284404,271.8045139289019 772.7522935779816,274.4024768105305 761.559633027523,274.63844725206764 750.3669724770642,275.6179330472453 739.1743119266056,274.887972602781 727.9816513761467,301.89182453287333 716.7889908256881,303.02091408034664 705.5963302752293,313.25213298742034 694.4036697247707,313.4076214774901 683.2110091743119,317.83466681655995 672.0183486238533,309.1643788996351 660.8256880733945,300.43118484597085 649.6330275229358,306.42957969467193 638.4403669724771,309.77995685654025 627.2477064220184,300.4981662899917 616.0550458715596,289.51607775999514 604.862385321101,282.3039270570339 593.6697247706422,284.54349299993817 582.4770642201836,279.22671092417147 571.2844036697247,272.82962826360836 560.0917431192661,271.59684790137305 548.8990825688074,277.7743534350233 537.7064220183486,263.74873424388926 526.5137614678899,273.80397171250956 515.3211009174313,271.8528220200536 504.1284403669725,257.27679355777445 492.9357798165138,265.5667519042848 481.7431192660551,267.2319660495904 470.55045871559633,272.44748762183235 459.35779816513764,277.03896954160916 448.16513761467894,273.12901904939656 436.9724770642202,292.8474019710514 425.7798165137615,287.18937388015456 414.5871559633028,283.08601813076325 403.39449541284404,281.76040336519 392.20183486238534,283.6509950747956 381.00917431192664,278.33323158289284 369.8165137614679,275.49124851592967 358.6238532110092,279.2843691514156 347.4311926605505,276.2123861660816 336.2385321100918,271.5199155515678 325.04587155963304,267.45948899275925 313.8532110091743,265.98809235714697 302.66055045871565,262.8628110411349 291.4678899082569,264.3703233246867 280.27522935779814,252.52960082963668 269.0825688073395,249.20675941582795 257.88990825688074,246.72150835544545 246.69724770642202,248.92777037574095 235.50458715596332,243.33543163961264 224.3119266055046,241.97361161724209 213.1192660550459,238.7747124093466 201.92660550458714,235.68630104712742 190.73394495412845,233.02612819591116 179.54128440366975,230.28556079120625 168.348623853211,229.38157339115432 157.1559633027523,230.492029107941 145.96330275229357,228.01918299111705 134.77064220183487,225.49736664829678 123.57798165137615,223.4806173766536 112.38532110091744,221.6066230239628 101.19266055045871,218.88115504201727 90.0,216.94045378371385" fill="#f97316" fill-opacity="0.70" stroke="#f97316" stroke-width="1.2"/>
<rect x="1100" y="76" width="16" height="12" fill="#f97316" fill-opacity="0.70" stroke="#f97316"/>
<text x="1124" y="86" font-family="monospace" font-size="12" fill="#0f172a">BTC</text>
<rect x="1100" y="98" width="16" height="12" fill="#2563eb" fill-opacity="0.70" stroke="#2563eb"/>
<text x="1124" y="108" font-family="monospace" font-size="12" fill="#0f172a">ETH</text>
<rect x="1100" y="120" width="16" height="12" fill="#facc15" fill-opacity="0.70" stroke="#facc15"/>
<text x="1124" y="130" font-family="monospace" font-size="12" fill="#0f172a">DAI</text>
<text x="700.0" y="782" text-anchor="middle" font-family="monospace" font-size="16" fill="#0f172a">time</text>
<text x="24" y="255.0" transform="rotate(-90 24,255.0)" text-anchor="middle" font-family="monospace" font-size="16" fill="#0f172a">asset value split (usd)</text>
<line x1="90" y1="605" x2="1310" y2="605" stroke="#334155" stroke-width="2"/>
<line x1="90" y1="480" x2="90" y2="605" stroke="#334155" stroke-width="2"/>
<line x1="90" y1="542.5" x2="1310" y2="542.5" stroke="#64748b" stroke-width="1.5" stroke-dasharray="6 4"/>
<line x1="90" y1="605.0" x2="1310" y2="605.0" stroke="#e2e8f0" stroke-width="1"/>
<text x="78" y="609.0" text-anchor="end" font-family="monospace" font-size="11" fill="#475569">-116</text>
<line x1="90" y1="542.5" x2="1310" y2="542.5" stroke="#e2e8f0" stroke-width="1"/>
<text x="78" y="546.5" text-anchor="end" font-family="monospace" font-size="11" fill="#475569">0</text>
<line x1="90" y1="480.0" x2="1310" y2="480.0" stroke="#e2e8f0" stroke-width="1"/>
<text x="78" y="484.0" text-anchor="end" font-family="monospace" font-size="11" fill="#475569">116</text>
<rect x="86.95" y="488.54835393455414" width="6.1000000000000005" height="53.95164606544586" fill="#ea580c" opacity="0.85"><title>2024-04-01 | BTC buy 100.00 usd | reason=static_target_rebalance</title></rect>
<rect x="98.14266055045871" y="488.54835393455414" width="6.1000000000000005" height="53.95164606544586" fill="#ea580c" opacity="0.85"><title>2024-04-08 | BTC buy 100.00 usd | reason=static_target_rebalance</title></rect>
<rect x="109.33532110091744" y="488.54835393455414" width="6.1000000000000005" height="53.95164606544586" fill="#ea580c" opacity="0.85"><title>2024-04-15 | BTC buy 100.00 usd | reason=static_target_rebalance</title></rect>
<rect x="120.52798165137615" y="488.54835393455414" width="6.1000000000000005" height="53.95164606544586" fill="#ea580c" opacity="0.85"><title>2024-04-22 | BTC buy 100.00 usd | reason=static_target_rebalance</title></rect>
<rect x="131.72064220183486" y="488.54835393455414" width="6.1000000000000005" height="53.95164606544586" fill="#ea580c" opacity="0.85"><title>2024-04-29 | BTC buy 100.00 usd | reason=static_target_rebalance</title></rect>
<rect x="142.91330275229356" y="488.54835393455414" width="6.1000000000000005" height="53.95164606544586" fill="#ea580c" opacity="0.85"><title>2024-05-06 | BTC buy 100.00 usd | reason=static_target_rebalance</title></rect>
<rect x="154.1059633027523" y="488.54835393455414" width="6.1000000000000005" height="53.95164606544586" fill="#ea580c" opacity="0.85"><title>2024-05-13 | BTC buy 100.00 usd | reason=static_target_rebalance</title></rect>
<rect x="165.29862385321098" y="488.54835393455414" width="6.1000000000000005" height="53.95164606544586" fill="#ea580c" opacity="0.85"><title>2024-05-20 | BTC buy 100.00 usd | reason=static_target_rebalance</title></rect>
<rect x="176.49128440366974" y="488.54835393455414" width="6.1000000000000005" height="53.95164606544586" fill="#ea580c" opacity="0.85"><title>2024-05-27 | BTC buy 100.00 usd | reason=static_target_rebalance</title></rect>
<rect x="187.68394495412844" y="488.54835393455414" width="6.1000000000000005" height="53.95164606544586" fill="#ea580c" opacity="0.85"><title>2024-06-03 | BTC buy 100.00 usd | reason=static_target_rebalance</title></rect>
<rect x="198.87660550458713" y="488.54835393455414" width="6.1000000000000005" height="53.95164606544586" fill="#ea580c" opacity="0.85"><title>2024-06-10 | BTC buy 100.00 usd | reason=static_target_rebalance</title></rect>
<rect x="210.0692660550459" y="488.54835393455414" width="6.1000000000000005" height="53.95164606544586" fill="#ea580c" opacity="0.85"><title>2024-06-17 | BTC buy 100.00 usd | reason=static_target_rebalance</title></rect>
<rect x="221.26192660550458" y="488.54835393455414" width="6.1000000000000005" height="53.95164606544586" fill="#ea580c" opacity="0.85"><title>2024-06-24 | BTC buy 100.00 usd | reason=static_target_rebalance</title></rect>
<rect x="232.4545871559633" y="488.54835393455414" width="6.1000000000000005" height="53.95164606544586" fill="#ea580c" opacity="0.85"><title>2024-07-01 | BTC buy 100.00 usd | reason=static_target_rebalance</title></rect>
<rect x="243.647247706422" y="488.54835393455414" width="6.1000000000000005" height="53.95164606544586" fill="#ea580c" opacity="0.85"><title>2024-07-08 | BTC buy 100.00 usd | reason=static_target_rebalance</title></rect>
<rect x="254.83990825688073" y="488.54835393455414" width="6.1000000000000005" height="53.95164606544586" fill="#ea580c" opacity="0.85"><title>2024-07-15 | BTC buy 100.00 usd | reason=static_target_rebalance</title></rect>
<rect x="266.0325688073395" y="488.54835393455414" width="6.1000000000000005" height="53.95164606544586" fill="#ea580c" opacity="0.85"><title>2024-07-22 | BTC buy 100.00 usd | reason=static_target_rebalance</title></rect>
<rect x="277.2252293577981" y="488.54835393455414" width="6.1000000000000005" height="53.95164606544586" fill="#ea580c" opacity="0.85"><title>2024-07-29 | BTC buy 100.00 usd | reason=static_target_rebalance</title></rect>
<rect x="288.4178899082569" y="488.54835393455414" width="6.1000000000000005" height="53.95164606544586" fill="#ea580c" opacity="0.85"><title>2024-08-05 | BTC buy 100.00 usd | reason=static_target_rebalance</title></rect>
<rect x="299.61055045871564" y="488.54835393455414" width="6.1000000000000005" height="53.95164606544586" fill="#ea580c" opacity="0.85"><title>2024-08-12 | BTC buy 100.00 usd | reason=static_target_rebalance</title></rect>
<rect x="310.8032110091743" y="488.54835393455414" width="6.1000000000000005" height="53.95164606544586" fill="#ea580c" opacity="0.85"><title>2024-08-19 | BTC buy 100.00 usd | reason=static_target_rebalance</title></rect>
<rect x="321.99587155963303" y="488.54835393455414" width="6.1000000000000005" height="53.95164606544586" fill="#ea580c" opacity="0.85"><title>2024-08-26 | BTC buy 100.00 usd | reason=static_target_rebalance</title></rect>
<rect x="333.1885321100918" y="488.54835393455414" width="6.1000000000000005" height="53.95164606544586" fill="#ea580c" opacity="0.85"><title>2024-09-02 | BTC buy 100.00 usd | reason=static_target_rebalance</title></rect>
<rect x="344.3811926605505" y="488.54835393455414" width="6.1000000000000005" height="53.95164606544586" fill="#ea580c" opacity="0.85"><title>2024-09-09 | BTC buy 100.00 usd | reason=static_target_rebalance</title></rect>
<rect x="355.5738532110092" y="488.54835393455414" width="6.1000000000000005" height="53.95164606544586" fill="#ea580c" opacity="0.85"><title>2024-09-16 | BTC buy 100.00 usd | reason=static_target_rebalance</title></rect>
<rect x="366.7665137614679" y="488.54835393455414" width="6.1000000000000005" height="53.95164606544586" fill="#ea580c" opacity="0.85"><title>2024-09-23 | BTC buy 100.00 usd | reason=static_target_rebalance</title></rect>
<rect x="377.95917431192663" y="488.54835393455414" width="6.1000000000000005" height="53.95164606544586" fill="#ea580c" opacity="0.85"><title>2024-09-30 | BTC buy 100.00 usd | reason=static_target_rebalance</title></rect>
<rect x="389.15183486238533" y="488.54835393455414" width="6.1000000000000005" height="53.95164606544586" fill="#ea580c" opacity="0.85"><title>2024-10-07 | BTC buy 100.00 usd | reason=static_target_rebalance</title></rect>
<rect x="400.344495412844" y="488.54835393455414" width="6.1000000000000005" height="53.95164606544586" fill="#ea580c" opacity="0.85"><title>2024-10-14 | BTC buy 100.00 usd | reason=static_target_rebalance</title></rect>
<rect x="411.5371559633028" y="488.54835393455414" width="6.1000000000000005" height="53.95164606544586" fill="#ea580c" opacity="0.85"><title>2024-10-21 | BTC buy 100.00 usd | reason=static_target_rebalance</title></rect>
<rect x="422.7298165137615" y="488.54835393455414" width="6.1000000000000005" height="53.95164606544586" fill="#ea580c" opacity="0.85"><title>2024-10-28 | BTC buy 100.00 usd | reason=static_target_rebalance</title></rect>
<rect x="433.9224770642202" y="488.54835393455414" width="6.1000000000000005" height="53.95164606544586" fill="#ea580c" opacity="0.85"><title>2024-11-04 | BTC buy 100.00 usd | reason=static_target_rebalance</title></rect>
<rect x="445.11513761467893" y="488.54835393455414" width="6.1000000000000005" height="53.95164606544586" fill="#ea580c" opacity="0.85"><title>2024-11-11 | BTC buy 100.00 usd | reason=static_target_rebalance</title></rect>
<rect x="456.3077981651376" y="539.7648231039349" width="6.1000000000000005" height="2.735176896065127" fill="#ea580c" opacity="0.85"><title>2024-11-18 | BTC buy 5.07 usd | reason=static_target_rebalance</title></rect>
<rect x="467.5004587155963" y="536.303542793523" width="6.1000000000000005" height="6.196457206477021" fill="#ea580c" opacity="0.85"><title>2024-11-25 | BTC buy 11.49 usd | reason=static_target_rebalance</title></rect>
<rect x="478.6931192660551" y="534.0803219964538" width="6.1000000000000005" height="8.41967800354621" fill="#ea580c" opacity="0.85"><title>2024-12-02 | BTC buy 15.61 usd | reason=static_target_rebalance</title></rect>
<rect x="489.8857798165138" y="541.5272529455191" width="6.1000000000000005" height="1.5" fill="#ea580c" opacity="0.85"><title>2024-12-09 | BTC buy 1.80 usd | reason=static_target_rebalance</title></rect>
<rect x="501.0784403669725" y="542.5" width="6.1000000000000005" height="36.38629640091801" fill="#dc2626" opacity="0.85"><title>2024-12-16 | BTC sell 67.44 usd | reason=static_target_rebalance</title></rect>
<rect x="512.2711009174313" y="542.5" width="6.1000000000000005" height="1.8425581126003863" fill="#dc2626" opacity="0.85"><title>2024-12-23 | BTC sell 3.42 usd | reason=static_target_rebalance</title></rect>
<rect x="523.46376146789" y="534.4168231693152" width="6.1000000000000005" height="8.083176830684806" fill="#ea580c" opacity="0.85"><title>2024-12-30 | BTC buy 14.98 usd | reason=static_target_rebalance</title></rect>
<rect x="534.6564220183486" y="542.5" width="6.1000000000000005" height="28.552963314642284" fill="#dc2626" opacity="0.85"><title>2025-01-06 | BTC sell 52.92 usd | reason=static_target_rebalance</title></rect>
<rect x="545.8490825688075" y="542.5" width="6.1000000000000005" height="30.633814772999358" fill="#dc2626" opacity="0.85"><title>2025-01-13 | BTC sell 56.78 usd | reason=static_target_rebalance</title></rect>
<rect x="557.0417431192661" y="542.5" width="6.1000000000000005" height="55.66859790740057" fill="#dc2626" opacity="0.85"><title>2025-01-20 | BTC sell 103.18 usd | reason=static_target_rebalance</title></rect>
<rect x="568.2344036697248" y="542.5" width="6.1000000000000005" height="42.07819402262976" fill="#dc2626" opacity="0.85"><title>2025-01-27 | BTC sell 77.99 usd | reason=static_target_rebalance</title></rect>
<rect x="579.4270642201836" y="542.5" width="6.1000000000000005" height="62.5" fill="#dc2626" opacity="0.85"><title>2025-02-03 | BTC sell 115.84 usd | reason=static_target_rebalance</title></rect>
<rect x="590.6197247706423" y="542.5" width="6.1000000000000005" height="35.839429144647056" fill="#dc2626" opacity="0.85"><title>2025-02-10 | BTC sell 66.43 usd | reason=static_target_rebalance</title></rect>
<rect x="601.812385321101" y="534.592133597627" width="6.1000000000000005" height="7.907866402372974" fill="#ea580c" opacity="0.85"><title>2025-02-17 | BTC buy 14.66 usd | reason=static_target_rebalance</title></rect>
<rect x="613.0050458715597" y="542.5" width="6.1000000000000005" height="2.3285575554531306" fill="#dc2626" opacity="0.85"><title>2025-02-24 | BTC sell 4.32 usd | reason=static_target_rebalance</title></rect>
<rect x="624.1977064220184" y="542.5" width="6.1000000000000005" height="23.42591652149474" fill="#dc2626" opacity="0.85"><title>2025-03-03 | BTC sell 43.42 usd | reason=static_target_rebalance</title></rect>
<rect x="635.3903669724772" y="542.5" width="6.1000000000000005" height="4.917793216307359" fill="#dc2626" opacity="0.85"><title>2025-03-10 | BTC sell 9.12 usd | reason=static_target_rebalance</title></rect>
<rect x="646.5830275229358" y="542.5" width="6.1000000000000005" height="31.701482226499138" fill="#dc2626" opacity="0.85"><title>2025-03-17 | BTC sell 58.76 usd | reason=static_target_rebalance</title></rect>
<rect x="657.7756880733946" y="542.5" width="6.1000000000000005" height="12.419116960420183" fill="#dc2626" opacity="0.85"><title>2025-03-24 | BTC sell 23.02 usd | reason=static_target_rebalance</title></rect>
<rect x="668.9683486238533" y="542.5" width="6.1000000000000005" height="19.926513031591753" fill="#dc2626" opacity="0.85"><title>2025-03-31 | BTC sell 36.93 usd | reason=static_target_rebalance</title></rect>
<rect x="680.161009174312" y="542.5" width="6.1000000000000005" height="38.98244257832232" fill="#dc2626" opacity="0.85"><title>2025-04-07 | BTC sell 72.25 usd | reason=static_target_rebalance</title></rect>
<rect x="691.3536697247707" y="542.5" width="6.1000000000000005" height="43.19888708502981" fill="#dc2626" opacity="0.85"><title>2025-04-14 | BTC sell 80.07 usd | reason=static_target_rebalance</title></rect>
<rect x="702.5463302752294" y="542.5" width="6.1000000000000005" height="51.205650436823476" fill="#dc2626" opacity="0.85"><title>2025-04-21 | BTC sell 94.91 usd | reason=static_target_rebalance</title></rect>
<rect x="713.7389908256881" y="542.5" width="6.1000000000000005" height="27.79153152141248" fill="#dc2626" opacity="0.85"><title>2025-04-28 | BTC sell 51.51 usd | reason=static_target_rebalance</title></rect>
<rect x="724.9316513761468" y="542.5" width="6.1000000000000005" height="7.3909592454101585" fill="#dc2626" opacity="0.85"><title>2025-05-05 | BTC sell 13.70 usd | reason=static_target_rebalance</title></rect>
<rect x="736.1243119266056" y="488.54835393455414" width="6.1000000000000005" height="53.95164606544586" fill="#ea580c" opacity="0.85"><title>2025-05-12 | BTC buy 100.00 usd | reason=static_target_rebalance</title></rect>
<rect x="747.3169724770643" y="488.54835393455414" width="6.1000000000000005" height="53.95164606544586" fill="#ea580c" opacity="0.85"><title>2025-05-19 | BTC buy 100.00 usd | reason=static_target_rebalance</title></rect>
<rect x="758.509633027523" y="531.899595688538" width="6.1000000000000005" height="10.600404311461944" fill="#ea580c" opacity="0.85"><title>2025-05-26 | BTC buy 19.65 usd | reason=static_target_rebalance</title></rect>
<rect x="769.7022935779817" y="503.45653519950565" width="6.1000000000000005" height="39.04346480049435" fill="#ea580c" opacity="0.85"><title>2025-06-02 | BTC buy 72.37 usd | reason=static_target_rebalance</title></rect>
<rect x="780.8949541284404" y="539.7449857021641" width="6.1000000000000005" height="2.7550142978359418" fill="#ea580c" opacity="0.85"><title>2025-06-09 | BTC buy 5.11 usd | reason=static_target_rebalance</title></rect>
<rect x="792.0876146788991" y="542.5" width="6.1000000000000005" height="1.5" fill="#dc2626" opacity="0.85"><title>2025-06-16 | BTC sell 1.67 usd | reason=static_target_rebalance</title></rect>
<rect x="803.2802752293579" y="542.5" width="6.1000000000000005" height="16.321754254692564" fill="#dc2626" opacity="0.85"><title>2025-06-23 | BTC sell 30.25 usd | reason=static_target_rebalance</title></rect>
<rect x="814.4729357798166" y="542.5" width="6.1000000000000005" height="5.849367716385132" fill="#dc2626" opacity="0.85"><title>2025-06-30 | BTC sell 10.84 usd | reason=static_target_rebalance</title></rect>
<rect x="825.6655963302753" y="541.8441680190143" width="6.1000000000000005" height="1.5" fill="#ea580c" opacity="0.85"><title>2025-07-07 | BTC buy 1.22 usd | reason=static_target_rebalance</title></rect>
<rect x="836.858256880734" y="529.1459010009213" width="6.1000000000000005" height="13.354098999078701" fill="#ea580c" opacity="0.85"><title>2025-07-14 | BTC buy 24.75 usd | reason=static_target_rebalance</title></rect>
<rect x="848.0509174311927" y="488.54835393455414" width="6.1000000000000005" height="53.95164606544586" fill="#ea580c" opacity="0.85"><title>2025-07-21 | BTC buy 100.00 usd | reason=static_target_rebalance</title></rect>
<rect x="859.2435779816514" y="488.54835393455414" width="6.1000000000000005" height="53.95164606544586" fill="#ea580c" opacity="0.85"><title>2025-07-28 | BTC buy 100.00 usd | reason=static_target_rebalance</title></rect>
<rect x="870.4362385321102" y="488.54835393455414" width="6.1000000000000005" height="53.95164606544586" fill="#ea580c" opacity="0.85"><title>2025-08-04 | BTC buy 100.00 usd | reason=static_target_rebalance</title></rect>
<rect x="881.6288990825689" y="488.54835393455414" width="6.1000000000000005" height="53.95164606544586" fill="#ea580c" opacity="0.85"><title>2025-08-11 | BTC buy 100.00 usd | reason=static_target_rebalance</title></rect>
<rect x="892.8215596330276" y="488.54835393455414" width="6.1000000000000005" height="53.95164606544586" fill="#ea580c" opacity="0.85"><title>2025-08-18 | BTC buy 100.00 usd | reason=static_target_rebalance</title></rect>
<rect x="904.0142201834863" y="488.54835393455414" width="6.1000000000000005" height="53.95164606544586" fill="#ea580c" opacity="0.85"><title>2025-08-25 | BTC buy 100.00 usd | reason=static_target_rebalance</title></rect>
<rect x="915.206880733945" y="488.54835393455414" width="6.1000000000000005" height="53.95164606544586" fill="#ea580c" opacity="0.85"><title>2025-09-01 | BTC buy 100.00 usd | reason=static_target_rebalance</title></rect>
<rect x="926.3995412844037" y="488.54835393455414" width="6.1000000000000005" height="53.95164606544586" fill="#ea580c" opacity="0.85"><title>2025-09-08 | BTC buy 100.00 usd | reason=static_target_rebalance</title></rect>
<rect x="937.5922018348625" y="488.54835393455414" width="6.1000000000000005" height="53.95164606544586" fill="#ea580c" opacity="0.85"><title>2025-09-15 | BTC buy 100.00 usd | reason=static_target_rebalance</title></rect>
<rect x="948.7848623853212" y="505.6444538619868" width="6.1000000000000005" height="36.85554613801321" fill="#ea580c" opacity="0.85"><title>2025-09-22 | BTC buy 68.31 usd | reason=static_target_rebalance</title></rect>
<rect x="959.9775229357799" y="535.5188007798088" width="6.1000000000000005" height="6.981199220191229" fill="#ea580c" opacity="0.85"><title>2025-09-29 | BTC buy 12.94 usd | reason=static_target_rebalance</title></rect>
<rect x="971.1701834862386" y="542.5" width="6.1000000000000005" height="12.706968540040293" fill="#dc2626" opacity="0.85"><title>2025-10-06 | BTC sell 23.55 usd | reason=static_target_rebalance</title></rect>
<rect x="982.3628440366973" y="535.7787929143265" width="6.1000000000000005" height="6.721207085673541" fill="#ea580c" opacity="0.85"><title>2025-10-13 | BTC buy 12.46 usd | reason=static_target_rebalance</title></rect>
<rect x="993.555504587156" y="539.5252348280235" width="6.1000000000000005" height="2.9747651719765145" fill="#ea580c" opacity="0.85"><title>2025-10-20 | BTC buy 5.51 usd | reason=static_target_rebalance</title></rect>
<rect x="1004.7481651376148" y="542.5" width="6.1000000000000005" height="6.666624271828823" fill="#dc2626" opacity="0.85"><title>2025-10-27 | BTC sell 12.36 usd | reason=static_target_rebalance</title></rect>
<rect x="1015.9408256880735" y="542.5" width="6.1000000000000005" height="19.81603861397184" fill="#dc2626" opacity="0.85"><title>2025-11-03 | BTC sell 36.73 usd | reason=static_target_rebalance</title></rect>
<rect x="1027.1334862385322" y="542.5" width="6.1000000000000005" height="10.798863105756027" fill="#dc2626" opacity="0.85"><title>2025-11-10 | BTC sell 20.02 usd | reason=static_target_rebalance</title></rect>
<rect x="1038.3261467889909" y="518.8399763357696" width="6.1000000000000005" height="23.66002366423038" fill="#ea580c" opacity="0.85"><title>2025-11-17 | BTC buy 43.85 usd | reason=static_target_rebalance</title></rect>
<rect x="1049.5188073394495" y="510.85201236746445" width="6.1000000000000005" height="31.647987632535546" fill="#ea580c" opacity="0.85"><title>2025-11-24 | BTC buy 58.66 usd | reason=static_target_rebalance</title></rect>
<rect x="1060.7114678899081" y="535.6398937803782" width="6.1000000000000005" height="6.860106219621798" fill="#ea580c" opacity="0.85"><title>2025-12-01 | BTC buy 12.72 usd | reason=static_target_rebalance</title></rect>
<rect x="1071.9041284403672" y="520.3960750191279" width="6.1000000000000005" height="22.10392498087208" fill="#ea580c" opacity="0.85"><title>2025-12-08 | BTC buy 40.97 usd | reason=static_target_rebalance</title></rect>
<rect x="1083.0967889908259" y="522.2507731462447" width="6.1000000000000005" height="20.249226853755317" fill="#ea580c" opacity="0.85"><title>2025-12-15 | BTC buy 37.53 usd | reason=static_target_rebalance</title></rect>
<rect x="1094.2894495412845" y="542.5" width="6.1000000000000005" height="1.5" fill="#dc2626" opacity="0.85"><title>2025-12-22 | BTC sell 1.96 usd | reason=static_target_rebalance</title></rect>
<rect x="1105.4821100917432" y="542.5" width="6.1000000000000005" height="1.5" fill="#dc2626" opacity="0.85"><title>2025-12-29 | BTC sell 0.90 usd | reason=static_target_rebalance</title></rect>
<rect x="1116.674770642202" y="542.5" width="6.1000000000000005" height="9.130074772940134" fill="#dc2626" opacity="0.85"><title>2026-01-05 | BTC sell 16.92 usd | reason=static_target_rebalance</title></rect>
<rect x="1127.8674311926607" y="542.5" width="6.1000000000000005" height="3.9025733652442796" fill="#dc2626" opacity="0.85"><title>2026-01-12 | BTC sell 7.23 usd | reason=static_target_rebalance</title></rect>
<rect x="1139.0600917431193" y="540.1282550998524" width="6.1000000000000005" height="2.3717449001476325" fill="#ea580c" opacity="0.85"><title>2026-01-19 | BTC buy 4.40 usd | reason=static_target_rebalance</title></rect>
<rect x="1150.252752293578" y="542.5" width="6.1000000000000005" height="5.436669103803297" fill="#dc2626" opacity="0.85"><title>2026-01-26 | BTC sell 10.08 usd | reason=static_target_rebalance</title></rect>
<rect x="1161.4454128440368" y="542.5" width="6.1000000000000005" height="19.3131505280528" fill="#dc2626" opacity="0.85"><title>2026-02-02 | BTC sell 35.80 usd | reason=static_target_rebalance</title></rect>
<rect x="1172.6380733944954" y="521.3147613680912" width="6.1000000000000005" height="21.18523863190876" fill="#ea580c" opacity="0.85"><title>2026-02-09 | BTC buy 39.27 usd | reason=static_target_rebalance</title></rect>
<rect x="1183.8307339449543" y="540.3590670420306" width="6.1000000000000005" height="2.140932957969426" fill="#ea580c" opacity="0.85"><title>2026-02-16 | BTC buy 3.97 usd | reason=static_target_rebalance</title></rect>
<rect x="1195.023394495413" y="531.1962226386086" width="6.1000000000000005" height="11.30377736139144" fill="#ea580c" opacity="0.85"><title>2026-02-23 | BTC buy 20.95 usd | reason=static_target_rebalance</title></rect>
<rect x="1206.2160550458716" y="540.4791249986997" width="6.1000000000000005" height="2.0208750013002827" fill="#ea580c" opacity="0.85"><title>2026-03-02 | BTC buy 3.75 usd | reason=static_target_rebalance</title></rect>
<rect x="1217.4087155963302" y="542.5" width="6.1000000000000005" height="2.1689928355651773" fill="#dc2626" opacity="0.85"><title>2026-03-09 | BTC sell 4.02 usd | reason=static_target_rebalance</title></rect>
<rect x="1228.601376146789" y="529.015701929761" width="6.1000000000000005" height="13.484298070238992" fill="#ea580c" opacity="0.85"><title>2026-03-16 | BTC buy 24.99 usd | reason=static_target_rebalance</title></rect>
<rect x="1239.7940366972477" y="539.2193888255873" width="6.1000000000000005" height="3.280611174412684" fill="#ea580c" opacity="0.85"><title>2026-03-23 | BTC buy 6.08 usd | reason=static_target_rebalance</title></rect>
<rect x="1250.9866972477066" y="529.064177914744" width="6.1000000000000005" height="13.43582208525595" fill="#ea580c" opacity="0.85"><title>2026-03-30 | BTC buy 24.90 usd | reason=static_target_rebalance</title></rect>
<rect x="1262.1793577981653" y="538.4126555862927" width="6.1000000000000005" height="4.087344413707342" fill="#ea580c" opacity="0.85"><title>2026-04-06 | BTC buy 7.58 usd | reason=static_target_rebalance</title></rect>
<rect x="1273.372018348624" y="539.075570239562" width="6.1000000000000005" height="3.424429760437988" fill="#ea580c" opacity="0.85"><title>2026-04-13 | BTC buy 6.35 usd | reason=static_target_rebalance</title></rect>
<rect x="1284.5646788990825" y="542.5" width="6.1000000000000005" height="21.318351867096226" fill="#dc2626" opacity="0.85"><title>2026-04-20 | BTC sell 39.51 usd | reason=static_target_rebalance</title></rect>
<rect x="1295.7573394495414" y="542.5" width="6.1000000000000005" height="25.930524744441755" fill="#dc2626" opacity="0.85"><title>2026-04-27 | BTC sell 48.06 usd | reason=static_target_rebalance</title></rect>
<rect x="1306.95" y="542.5" width="6.1000000000000005" height="26.206469931408037" fill="#dc2626" opacity="0.85"><title>2026-05-04 | BTC sell 48.57 usd | reason=static_target_rebalance</title></rect>
<text x="24" y="542.5" transform="rotate(-90 24,542.5)" text-anchor="middle" font-family="monospace" font-size="14" fill="#0f172a">BTC weekly trade usd</text>
<line x1="90" y1="770" x2="1310" y2="770" stroke="#334155" stroke-width="2"/>
<line x1="90" y1="645" x2="90" y2="770" stroke="#334155" stroke-width="2"/>
<line x1="90" y1="707.5" x2="1310" y2="707.5" stroke="#64748b" stroke-width="1.5" stroke-dasharray="6 4"/>
<line x1="90" y1="770.0" x2="1310" y2="770.0" stroke="#e2e8f0" stroke-width="1"/>
<text x="78" y="774.0" text-anchor="end" font-family="monospace" font-size="11" fill="#475569">-509</text>
<line x1="90" y1="707.5" x2="1310" y2="707.5" stroke="#e2e8f0" stroke-width="1"/>
<text x="78" y="711.5" text-anchor="end" font-family="monospace" font-size="11" fill="#475569">0</text>
<line x1="90" y1="645.0" x2="1310" y2="645.0" stroke="#e2e8f0" stroke-width="1"/>
<text x="78" y="649.0" text-anchor="end" font-family="monospace" font-size="11" fill="#475569">509</text>
<rect x="86.95" y="695.2100169207938" width="6.1000000000000005" height="12.289983079206195" fill="#2563eb" opacity="0.85"><title>2024-04-01 | ETH buy 100.00 usd | reason=static_target_rebalance</title></rect>
<rect x="98.14266055045871" y="695.2100169207938" width="6.1000000000000005" height="12.289983079206195" fill="#2563eb" opacity="0.85"><title>2024-04-08 | ETH buy 100.00 usd | reason=static_target_rebalance</title></rect>
<rect x="109.33532110091744" y="695.2100169207938" width="6.1000000000000005" height="12.289983079206195" fill="#2563eb" opacity="0.85"><title>2024-04-15 | ETH buy 100.00 usd | reason=static_target_rebalance</title></rect>
<rect x="120.52798165137615" y="695.2100169207938" width="6.1000000000000005" height="12.289983079206195" fill="#2563eb" opacity="0.85"><title>2024-04-22 | ETH buy 100.00 usd | reason=static_target_rebalance</title></rect>
<rect x="131.72064220183486" y="695.2100169207938" width="6.1000000000000005" height="12.289983079206195" fill="#2563eb" opacity="0.85"><title>2024-04-29 | ETH buy 100.00 usd | reason=static_target_rebalance</title></rect>
<rect x="142.91330275229356" y="695.2100169207938" width="6.1000000000000005" height="12.289983079206195" fill="#2563eb" opacity="0.85"><title>2024-05-06 | ETH buy 100.00 usd | reason=static_target_rebalance</title></rect>
<rect x="154.1059633027523" y="695.2100169207938" width="6.1000000000000005" height="12.289983079206195" fill="#2563eb" opacity="0.85"><title>2024-05-13 | ETH buy 100.00 usd | reason=static_target_rebalance</title></rect>
<rect x="165.29862385321098" y="695.2100169207938" width="6.1000000000000005" height="12.289983079206195" fill="#2563eb" opacity="0.85"><title>2024-05-20 | ETH buy 100.00 usd | reason=static_target_rebalance</title></rect>
<rect x="176.49128440366974" y="695.2100169207938" width="6.1000000000000005" height="12.289983079206195" fill="#2563eb" opacity="0.85"><title>2024-05-27 | ETH buy 100.00 usd | reason=static_target_rebalance</title></rect>
<rect x="187.68394495412844" y="695.2100169207938" width="6.1000000000000005" height="12.289983079206195" fill="#2563eb" opacity="0.85"><title>2024-06-03 | ETH buy 100.00 usd | reason=static_target_rebalance</title></rect>
<rect x="198.87660550458713" y="695.2100169207938" width="6.1000000000000005" height="12.289983079206195" fill="#2563eb" opacity="0.85"><title>2024-06-10 | ETH buy 100.00 usd | reason=static_target_rebalance</title></rect>
<rect x="210.0692660550459" y="695.2100169207938" width="6.1000000000000005" height="12.289983079206195" fill="#2563eb" opacity="0.85"><title>2024-06-17 | ETH buy 100.00 usd | reason=static_target_rebalance</title></rect>
<rect x="221.26192660550458" y="695.2100169207938" width="6.1000000000000005" height="12.289983079206195" fill="#2563eb" opacity="0.85"><title>2024-06-24 | ETH buy 100.00 usd | reason=static_target_rebalance</title></rect>
<rect x="232.4545871559633" y="695.2100169207938" width="6.1000000000000005" height="12.289983079206195" fill="#2563eb" opacity="0.85"><title>2024-07-01 | ETH buy 100.00 usd | reason=static_target_rebalance</title></rect>
<rect x="243.647247706422" y="695.2100169207938" width="6.1000000000000005" height="12.289983079206195" fill="#2563eb" opacity="0.85"><title>2024-07-08 | ETH buy 100.00 usd | reason=static_target_rebalance</title></rect>
<rect x="254.83990825688073" y="695.2100169207938" width="6.1000000000000005" height="12.289983079206195" fill="#2563eb" opacity="0.85"><title>2024-07-15 | ETH buy 100.00 usd | reason=static_target_rebalance</title></rect>
<rect x="266.0325688073395" y="695.2100169207938" width="6.1000000000000005" height="12.289983079206195" fill="#2563eb" opacity="0.85"><title>2024-07-22 | ETH buy 100.00 usd | reason=static_target_rebalance</title></rect>
<rect x="277.2252293577981" y="695.2100169207938" width="6.1000000000000005" height="12.289983079206195" fill="#2563eb" opacity="0.85"><title>2024-07-29 | ETH buy 100.00 usd | reason=static_target_rebalance</title></rect>
<rect x="288.4178899082569" y="695.2100169207938" width="6.1000000000000005" height="12.289983079206195" fill="#2563eb" opacity="0.85"><title>2024-08-05 | ETH buy 100.00 usd | reason=static_target_rebalance</title></rect>
<rect x="299.61055045871564" y="695.2100169207938" width="6.1000000000000005" height="12.289983079206195" fill="#2563eb" opacity="0.85"><title>2024-08-12 | ETH buy 100.00 usd | reason=static_target_rebalance</title></rect>
<rect x="310.8032110091743" y="695.2100169207938" width="6.1000000000000005" height="12.289983079206195" fill="#2563eb" opacity="0.85"><title>2024-08-19 | ETH buy 100.00 usd | reason=static_target_rebalance</title></rect>
<rect x="321.99587155963303" y="695.2100169207938" width="6.1000000000000005" height="12.289983079206195" fill="#2563eb" opacity="0.85"><title>2024-08-26 | ETH buy 100.00 usd | reason=static_target_rebalance</title></rect>
<rect x="333.1885321100918" y="695.2100169207938" width="6.1000000000000005" height="12.289983079206195" fill="#2563eb" opacity="0.85"><title>2024-09-02 | ETH buy 100.00 usd | reason=static_target_rebalance</title></rect>
<rect x="344.3811926605505" y="695.2100169207938" width="6.1000000000000005" height="12.289983079206195" fill="#2563eb" opacity="0.85"><title>2024-09-09 | ETH buy 100.00 usd | reason=static_target_rebalance</title></rect>
<rect x="355.5738532110092" y="695.2100169207938" width="6.1000000000000005" height="12.289983079206195" fill="#2563eb" opacity="0.85"><title>2024-09-16 | ETH buy 100.00 usd | reason=static_target_rebalance</title></rect>
<rect x="366.7665137614679" y="695.2100169207938" width="6.1000000000000005" height="12.289983079206195" fill="#2563eb" opacity="0.85"><title>2024-09-23 | ETH buy 100.00 usd | reason=static_target_rebalance</title></rect>
<rect x="377.95917431192663" y="695.2100169207938" width="6.1000000000000005" height="12.289983079206195" fill="#2563eb" opacity="0.85"><title>2024-09-30 | ETH buy 100.00 usd | reason=static_target_rebalance</title></rect>
<rect x="389.15183486238533" y="695.2100169207938" width="6.1000000000000005" height="12.289983079206195" fill="#2563eb" opacity="0.85"><title>2024-10-07 | ETH buy 100.00 usd | reason=static_target_rebalance</title></rect>
<rect x="400.344495412844" y="695.2100169207938" width="6.1000000000000005" height="12.289983079206195" fill="#2563eb" opacity="0.85"><title>2024-10-14 | ETH buy 100.00 usd | reason=static_target_rebalance</title></rect>
<rect x="411.5371559633028" y="695.2100169207938" width="6.1000000000000005" height="12.289983079206195" fill="#2563eb" opacity="0.85"><title>2024-10-21 | ETH buy 100.00 usd | reason=static_target_rebalance</title></rect>
<rect x="422.7298165137615" y="695.2100169207938" width="6.1000000000000005" height="12.289983079206195" fill="#2563eb" opacity="0.85"><title>2024-10-28 | ETH buy 100.00 usd | reason=static_target_rebalance</title></rect>
<rect x="433.9224770642202" y="695.2100169207938" width="6.1000000000000005" height="12.289983079206195" fill="#2563eb" opacity="0.85"><title>2024-11-04 | ETH buy 100.00 usd | reason=static_target_rebalance</title></rect>
<rect x="445.11513761467893" y="695.2100169207938" width="6.1000000000000005" height="12.289983079206195" fill="#2563eb" opacity="0.85"><title>2024-11-11 | ETH buy 100.00 usd | reason=static_target_rebalance</title></rect>
<rect x="456.3077981651376" y="695.2100169207938" width="6.1000000000000005" height="12.289983079206195" fill="#2563eb" opacity="0.85"><title>2024-11-18 | ETH buy 100.00 usd | reason=static_target_rebalance</title></rect>
<rect x="467.5004587155963" y="695.2100169207938" width="6.1000000000000005" height="12.289983079206195" fill="#2563eb" opacity="0.85"><title>2024-11-25 | ETH buy 100.00 usd | reason=static_target_rebalance</title></rect>
<rect x="478.6931192660551" y="695.2100169207938" width="6.1000000000000005" height="12.289983079206195" fill="#2563eb" opacity="0.85"><title>2024-12-02 | ETH buy 100.00 usd | reason=static_target_rebalance</title></rect>
<rect x="489.8857798165138" y="695.2100169207938" width="6.1000000000000005" height="12.289983079206195" fill="#2563eb" opacity="0.85"><title>2024-12-09 | ETH buy 100.00 usd | reason=static_target_rebalance</title></rect>
<rect x="501.0784403669725" y="695.2100169207938" width="6.1000000000000005" height="12.289983079206195" fill="#2563eb" opacity="0.85"><title>2024-12-16 | ETH buy 100.00 usd | reason=static_target_rebalance</title></rect>
<rect x="512.2711009174313" y="695.2100169207938" width="6.1000000000000005" height="12.289983079206195" fill="#2563eb" opacity="0.85"><title>2024-12-23 | ETH buy 100.00 usd | reason=static_target_rebalance</title></rect>
<rect x="523.46376146789" y="695.2100169207938" width="6.1000000000000005" height="12.289983079206195" fill="#2563eb" opacity="0.85"><title>2024-12-30 | ETH buy 100.00 usd | reason=static_target_rebalance</title></rect>
<rect x="534.6564220183486" y="695.2100169207938" width="6.1000000000000005" height="12.289983079206195" fill="#2563eb" opacity="0.85"><title>2025-01-06 | ETH buy 100.00 usd | reason=static_target_rebalance</title></rect>
<rect x="545.8490825688075" y="695.2100169207938" width="6.1000000000000005" height="12.289983079206195" fill="#2563eb" opacity="0.85"><title>2025-01-13 | ETH buy 100.00 usd | reason=static_target_rebalance</title></rect>
<rect x="557.0417431192661" y="695.2100169207938" width="6.1000000000000005" height="12.289983079206195" fill="#2563eb" opacity="0.85"><title>2025-01-20 | ETH buy 100.00 usd | reason=static_target_rebalance</title></rect>
<rect x="568.2344036697248" y="695.2100169207938" width="6.1000000000000005" height="12.289983079206195" fill="#2563eb" opacity="0.85"><title>2025-01-27 | ETH buy 100.00 usd | reason=static_target_rebalance</title></rect>
<rect x="579.4270642201836" y="695.2100169207938" width="6.1000000000000005" height="12.289983079206195" fill="#2563eb" opacity="0.85"><title>2025-02-03 | ETH buy 100.00 usd | reason=static_target_rebalance</title></rect>
<rect x="590.6197247706423" y="695.2100169207938" width="6.1000000000000005" height="12.289983079206195" fill="#2563eb" opacity="0.85"><title>2025-02-10 | ETH buy 100.00 usd | reason=static_target_rebalance</title></rect>
<rect x="601.812385321101" y="695.2100169207938" width="6.1000000000000005" height="12.289983079206195" fill="#2563eb" opacity="0.85"><title>2025-02-17 | ETH buy 100.00 usd | reason=static_target_rebalance</title></rect>
<rect x="613.0050458715597" y="695.2100169207938" width="6.1000000000000005" height="12.289983079206195" fill="#2563eb" opacity="0.85"><title>2025-02-24 | ETH buy 100.00 usd | reason=static_target_rebalance</title></rect>
<rect x="624.1977064220184" y="695.2100169207938" width="6.1000000000000005" height="12.289983079206195" fill="#2563eb" opacity="0.85"><title>2025-03-03 | ETH buy 100.00 usd | reason=static_target_rebalance</title></rect>
<rect x="635.3903669724772" y="695.2100169207938" width="6.1000000000000005" height="12.289983079206195" fill="#2563eb" opacity="0.85"><title>2025-03-10 | ETH buy 100.00 usd | reason=static_target_rebalance</title></rect>
<rect x="646.5830275229358" y="695.2100169207938" width="6.1000000000000005" height="12.289983079206195" fill="#2563eb" opacity="0.85"><title>2025-03-17 | ETH buy 100.00 usd | reason=static_target_rebalance</title></rect>
<rect x="657.7756880733946" y="695.2100169207938" width="6.1000000000000005" height="12.289983079206195" fill="#2563eb" opacity="0.85"><title>2025-03-24 | ETH buy 100.00 usd | reason=static_target_rebalance</title></rect>
<rect x="668.9683486238533" y="695.2100169207938" width="6.1000000000000005" height="12.289983079206195" fill="#2563eb" opacity="0.85"><title>2025-03-31 | ETH buy 100.00 usd | reason=static_target_rebalance</title></rect>
<rect x="680.161009174312" y="695.2100169207938" width="6.1000000000000005" height="12.289983079206195" fill="#2563eb" opacity="0.85"><title>2025-04-07 | ETH buy 100.00 usd | reason=static_target_rebalance</title></rect>
<rect x="691.3536697247707" y="695.2100169207938" width="6.1000000000000005" height="12.289983079206195" fill="#2563eb" opacity="0.85"><title>2025-04-14 | ETH buy 100.00 usd | reason=static_target_rebalance</title></rect>
<rect x="702.5463302752294" y="695.2100169207938" width="6.1000000000000005" height="12.289983079206195" fill="#2563eb" opacity="0.85"><title>2025-04-21 | ETH buy 100.00 usd | reason=static_target_rebalance</title></rect>
<rect x="713.7389908256881" y="695.948410855386" width="6.1000000000000005" height="11.551589144614013" fill="#2563eb" opacity="0.85"><title>2025-04-28 | ETH buy 93.99 usd | reason=static_target_rebalance</title></rect>
<rect x="724.9316513761468" y="703.5590084182012" width="6.1000000000000005" height="3.940991581798812" fill="#2563eb" opacity="0.85"><title>2025-05-05 | ETH buy 32.07 usd | reason=static_target_rebalance</title></rect>
<rect x="736.1243119266056" y="707.5" width="6.1000000000000005" height="42.17559984653133" fill="#7c3aed" opacity="0.85"><title>2025-05-12 | ETH sell 343.17 usd | reason=static_target_rebalance</title></rect>
<rect x="747.3169724770643" y="707.5" width="6.1000000000000005" height="20.5738179915395" fill="#7c3aed" opacity="0.85"><title>2025-05-19 | ETH sell 167.40 usd | reason=static_target_rebalance</title></rect>
<rect x="758.509633027523" y="707.5" width="6.1000000000000005" height="8.734758290278478" fill="#7c3aed" opacity="0.85"><title>2025-05-26 | ETH sell 71.07 usd | reason=static_target_rebalance</title></rect>
<rect x="769.7022935779817" y="707.5" width="6.1000000000000005" height="11.209748720521588" fill="#7c3aed" opacity="0.85"><title>2025-06-02 | ETH sell 91.21 usd | reason=static_target_rebalance</title></rect>
<rect x="780.8949541284404" y="707.5" width="6.1000000000000005" height="5.757654330818468" fill="#7c3aed" opacity="0.85"><title>2025-06-09 | ETH sell 46.85 usd | reason=static_target_rebalance</title></rect>
<rect x="792.0876146788991" y="704.9826095530532" width="6.1000000000000005" height="2.51739044694682" fill="#2563eb" opacity="0.85"><title>2025-06-16 | ETH buy 20.48 usd | reason=static_target_rebalance</title></rect>
<rect x="803.2802752293579" y="698.8981617608513" width="6.1000000000000005" height="8.60183823914872" fill="#2563eb" opacity="0.85"><title>2025-06-23 | ETH buy 69.99 usd | reason=static_target_rebalance</title></rect>
<rect x="814.4729357798166" y="706.3216089439403" width="6.1000000000000005" height="1.5" fill="#2563eb" opacity="0.85"><title>2025-06-30 | ETH buy 9.59 usd | reason=static_target_rebalance</title></rect>
<rect x="825.6655963302753" y="707.5" width="6.1000000000000005" height="2.0894295666646485" fill="#7c3aed" opacity="0.85"><title>2025-07-07 | ETH sell 17.00 usd | reason=static_target_rebalance</title></rect>
<rect x="836.858256880734" y="707.5" width="6.1000000000000005" height="20.88427674587092" fill="#7c3aed" opacity="0.85"><title>2025-07-14 | ETH sell 169.93 usd | reason=static_target_rebalance</title></rect>
<rect x="848.0509174311927" y="707.5" width="6.1000000000000005" height="62.5" fill="#7c3aed" opacity="0.85"><title>2025-07-21 | ETH sell 508.54 usd | reason=static_target_rebalance</title></rect>
<rect x="859.2435779816514" y="707.5" width="6.1000000000000005" height="32.73132687430518" fill="#7c3aed" opacity="0.85"><title>2025-07-28 | ETH sell 266.33 usd | reason=static_target_rebalance</title></rect>
<rect x="870.4362385321102" y="707.5" width="6.1000000000000005" height="15.118925812052453" fill="#7c3aed" opacity="0.85"><title>2025-08-04 | ETH sell 123.02 usd | reason=static_target_rebalance</title></rect>
<rect x="881.6288990825689" y="707.5" width="6.1000000000000005" height="32.256547802772275" fill="#7c3aed" opacity="0.85"><title>2025-08-11 | ETH sell 262.46 usd | reason=static_target_rebalance</title></rect>
<rect x="892.8215596330276" y="707.5" width="6.1000000000000005" height="23.90085470160716" fill="#7c3aed" opacity="0.85"><title>2025-08-18 | ETH sell 194.47 usd | reason=static_target_rebalance</title></rect>
<rect x="904.0142201834863" y="707.5" width="6.1000000000000005" height="22.452629940973452" fill="#7c3aed" opacity="0.85"><title>2025-08-25 | ETH sell 182.69 usd | reason=static_target_rebalance</title></rect>
<rect x="915.206880733945" y="707.5" width="6.1000000000000005" height="9.064522272218483" fill="#7c3aed" opacity="0.85"><title>2025-09-01 | ETH sell 73.76 usd | reason=static_target_rebalance</title></rect>
<rect x="926.3995412844037" y="707.5" width="6.1000000000000005" height="1.5" fill="#7c3aed" opacity="0.85"><title>2025-09-08 | ETH sell 5.13 usd | reason=static_target_rebalance</title></rect>
<rect x="937.5922018348625" y="707.5" width="6.1000000000000005" height="7.386213370863288" fill="#7c3aed" opacity="0.85"><title>2025-09-15 | ETH sell 60.10 usd | reason=static_target_rebalance</title></rect>
<rect x="948.7848623853212" y="698.2327216461059" width="6.1000000000000005" height="9.267278353894085" fill="#2563eb" opacity="0.85"><title>2025-09-22 | ETH buy 75.41 usd | reason=static_target_rebalance</title></rect>
<rect x="959.9775229357799" y="701.5501696649511" width="6.1000000000000005" height="5.949830335048887" fill="#2563eb" opacity="0.85"><title>2025-09-29 | ETH buy 48.41 usd | reason=static_target_rebalance</title></rect>
<rect x="971.1701834862386" y="707.5" width="6.1000000000000005" height="8.027544786835392" fill="#7c3aed" opacity="0.85"><title>2025-10-06 | ETH sell 65.32 usd | reason=static_target_rebalance</title></rect>
<rect x="982.3628440366973" y="700.9506697012547" width="6.1000000000000005" height="6.5493302987453035" fill="#2563eb" opacity="0.85"><title>2025-10-13 | ETH buy 53.29 usd | reason=static_target_rebalance</title></rect>
<rect x="993.555504587156" y="696.5896902599" width="6.1000000000000005" height="10.910309740100047" fill="#2563eb" opacity="0.85"><title>2025-10-20 | ETH buy 88.77 usd | reason=static_target_rebalance</title></rect>
<rect x="1004.7481651376148" y="704.8752061567144" width="6.1000000000000005" height="2.6247938432856017" fill="#2563eb" opacity="0.85"><title>2025-10-27 | ETH buy 21.36 usd | reason=static_target_rebalance</title></rect>
<rect x="1015.9408256880735" y="695.2100169207938" width="6.1000000000000005" height="12.289983079206195" fill="#2563eb" opacity="0.85"><title>2025-11-03 | ETH buy 100.00 usd | reason=static_target_rebalance</title></rect>
<rect x="1027.1334862385322" y="695.2100169207938" width="6.1000000000000005" height="12.289983079206195" fill="#2563eb" opacity="0.85"><title>2025-11-10 | ETH buy 100.00 usd | reason=static_target_rebalance</title></rect>
<rect x="1038.3261467889909" y="695.2100169207938" width="6.1000000000000005" height="12.289983079206195" fill="#2563eb" opacity="0.85"><title>2025-11-17 | ETH buy 100.00 usd | reason=static_target_rebalance</title></rect>
<rect x="1049.5188073394495" y="695.2100169207938" width="6.1000000000000005" height="12.289983079206195" fill="#2563eb" opacity="0.85"><title>2025-11-24 | ETH buy 100.00 usd | reason=static_target_rebalance</title></rect>
<rect x="1060.7114678899081" y="695.2100169207938" width="6.1000000000000005" height="12.289983079206195" fill="#2563eb" opacity="0.85"><title>2025-12-01 | ETH buy 100.00 usd | reason=static_target_rebalance</title></rect>
<rect x="1071.9041284403672" y="707.5" width="6.1000000000000005" height="6.477006731011329" fill="#7c3aed" opacity="0.85"><title>2025-12-08 | ETH sell 52.70 usd | reason=static_target_rebalance</title></rect>
<rect x="1083.0967889908259" y="706.9767261132528" width="6.1000000000000005" height="1.5" fill="#2563eb" opacity="0.85"><title>2025-12-15 | ETH buy 4.26 usd | reason=static_target_rebalance</title></rect>
<rect x="1094.2894495412845" y="706.9325131507713" width="6.1000000000000005" height="1.5" fill="#2563eb" opacity="0.85"><title>2025-12-22 | ETH buy 4.62 usd | reason=static_target_rebalance</title></rect>
<rect x="1105.4821100917432" y="704.8568340751226" width="6.1000000000000005" height="2.643165924877394" fill="#2563eb" opacity="0.85"><title>2025-12-29 | ETH buy 21.51 usd | reason=static_target_rebalance</title></rect>
<rect x="1116.674770642202" y="707.5" width="6.1000000000000005" height="6.741058951501373" fill="#7c3aed" opacity="0.85"><title>2026-01-05 | ETH sell 54.85 usd | reason=static_target_rebalance</title></rect>
<rect x="1127.8674311926607" y="706.7075465410493" width="6.1000000000000005" height="1.5" fill="#2563eb" opacity="0.85"><title>2026-01-12 | ETH buy 6.45 usd | reason=static_target_rebalance</title></rect>
<rect x="1139.0600917431193" y="707.5" width="6.1000000000000005" height="3.3223133927936033" fill="#7c3aed" opacity="0.85"><title>2026-01-19 | ETH sell 27.03 usd | reason=static_target_rebalance</title></rect>
<rect x="1150.252752293578" y="699.8492630843023" width="6.1000000000000005" height="7.650736915697735" fill="#2563eb" opacity="0.85"><title>2026-01-26 | ETH buy 62.25 usd | reason=static_target_rebalance</title></rect>
<rect x="1161.4454128440368" y="695.2100169207938" width="6.1000000000000005" height="12.289983079206195" fill="#2563eb" opacity="0.85"><title>2026-02-02 | ETH buy 100.00 usd | reason=static_target_rebalance</title></rect>
<rect x="1172.6380733944954" y="695.2100169207938" width="6.1000000000000005" height="12.289983079206195" fill="#2563eb" opacity="0.85"><title>2026-02-09 | ETH buy 100.00 usd | reason=static_target_rebalance</title></rect>
<rect x="1183.8307339449543" y="695.2100169207938" width="6.1000000000000005" height="12.289983079206195" fill="#2563eb" opacity="0.85"><title>2026-02-16 | ETH buy 100.00 usd | reason=static_target_rebalance</title></rect>
<rect x="1195.023394495413" y="695.2100169207938" width="6.1000000000000005" height="12.289983079206195" fill="#2563eb" opacity="0.85"><title>2026-02-23 | ETH buy 100.00 usd | reason=static_target_rebalance</title></rect>
<rect x="1206.2160550458716" y="700.9556825678806" width="6.1000000000000005" height="6.544317432119442" fill="#2563eb" opacity="0.85"><title>2026-03-02 | ETH buy 53.25 usd | reason=static_target_rebalance</title></rect>
<rect x="1217.4087155963302" y="702.4822084043409" width="6.1000000000000005" height="5.017791595659105" fill="#2563eb" opacity="0.85"><title>2026-03-09 | ETH buy 40.83 usd | reason=static_target_rebalance</title></rect>
<rect x="1228.601376146789" y="707.5" width="6.1000000000000005" height="13.099107762131098" fill="#7c3aed" opacity="0.85"><title>2026-03-16 | ETH sell 106.58 usd | reason=static_target_rebalance</title></rect>
<rect x="1239.7940366972477" y="706.2176521829671" width="6.1000000000000005" height="1.5" fill="#2563eb" opacity="0.85"><title>2026-03-23 | ETH buy 10.43 usd | reason=static_target_rebalance</title></rect>
<rect x="1250.9866972477066" y="704.0224327221865" width="6.1000000000000005" height="3.4775672778134776" fill="#2563eb" opacity="0.85"><title>2026-03-30 | ETH buy 28.30 usd | reason=static_target_rebalance</title></rect>
<rect x="1262.1793577981653" y="707.5" width="6.1000000000000005" height="1.5" fill="#7c3aed" opacity="0.85"><title>2026-04-06 | ETH sell 7.32 usd | reason=static_target_rebalance</title></rect>
<rect x="1273.372018348624" y="707.5" width="6.1000000000000005" height="10.287099895078654" fill="#7c3aed" opacity="0.85"><title>2026-04-13 | ETH sell 83.70 usd | reason=static_target_rebalance</title></rect>
<rect x="1284.5646788990825" y="707.1540010508202" width="6.1000000000000005" height="1.5" fill="#2563eb" opacity="0.85"><title>2026-04-20 | ETH buy 2.82 usd | reason=static_target_rebalance</title></rect>
<rect x="1295.7573394495414" y="704.6000943138524" width="6.1000000000000005" height="2.8999056861475765" fill="#2563eb" opacity="0.85"><title>2026-04-27 | ETH buy 23.60 usd | reason=static_target_rebalance</title></rect>
<rect x="1306.95" y="705.6113574330304" width="6.1000000000000005" height="1.8886425669695655" fill="#2563eb" opacity="0.85"><title>2026-05-04 | ETH buy 15.37 usd | reason=static_target_rebalance</title></rect>
<text x="24" y="707.5" transform="rotate(-90 24,707.5)" text-anchor="middle" font-family="monospace" font-size="14" fill="#0f172a">ETH weekly trade usd</text>
<rect x="1040" y="478" width="14" height="10" fill="#ea580c" opacity="0.85"/>
<text x="1062" y="488" font-family="monospace" font-size="11" fill="#0f172a">BTC buy</text>
<rect x="1190" y="478" width="14" height="10" fill="#dc2626" opacity="0.85"/>
<text x="1212" y="488" font-family="monospace" font-size="11" fill="#0f172a">BTC sell</text>
<rect x="1040" y="498" width="14" height="10" fill="#2563eb" opacity="0.85"/>
<text x="1062" y="508" font-family="monospace" font-size="11" fill="#0f172a">ETH buy</text>
<rect x="1190" y="498" width="14" height="10" fill="#7c3aed" opacity="0.85"/>
<text x="1212" y="508" font-family="monospace" font-size="11" fill="#0f172a">ETH sell</text>
</svg>