<svg xmlns="http://www.w3.org/2000/svg" width="1400" height="800">
<rect width="1400" height="800" fill="#f8fafc"/>
<text x="700.0" y="42" text-anchor="middle" font-family="monospace" font-size="24" fill="#0f172a">static_50_50_rebalance | weekly | start=2024-10-01 | return=-2.33%</text>
<line x1="90" y1="420" x2="1310" y2="420" stroke="#334155" stroke-width="2"/>
<line x1="90" y1="90" x2="90" y2="420" stroke="#334155" stroke-width="2"/>
<line x1="90.0" y1="420" x2="90.0" y2="90" stroke="#94a3b8" stroke-width="1.2"/>
<line x1="90.0" y1="605" x2="90.0" y2="480" stroke="#94a3b8" stroke-width="1.2"/>
<line x1="90.0" y1="770" x2="90.0" y2="645" stroke="#94a3b8" stroke-width="1.2"/>
<text x="90.0" y="788" text-anchor="middle" font-family="monospace" font-size="11" fill="#334155">2024-10</text>
<line x1="163.49397590361446" y1="420" x2="163.49397590361446" y2="90" stroke="#94a3b8" stroke-width="1.2"/>
<line x1="163.49397590361446" y1="605" x2="163.49397590361446" y2="480" stroke="#94a3b8" stroke-width="1.2"/>
<line x1="163.49397590361446" y1="770" x2="163.49397590361446" y2="645" stroke="#94a3b8" stroke-width="1.2"/>
<text x="163.49397590361446" y="788" text-anchor="middle" font-family="monospace" font-size="11" fill="#334155">2024-11</text>
<line x1="222.289156626506" y1="420" x2="222.289156626506" y2="90" stroke="#94a3b8" stroke-width="1.2"/>
<line x1="222.289156626506" y1="605" x2="222.289156626506" y2="480" stroke="#94a3b8" stroke-width="1.2"/>
<line x1="222.289156626506" y1="770" x2="222.289156626506" y2="645" stroke="#94a3b8" stroke-width="1.2"/>
<text x="222.289156626506" y="788" text-anchor="middle" font-family="monospace" font-size="11" fill="#334155">2024-12</text>
<line x1="295.7831325301205" y1="420" x2="295.7831325301205" y2="90" stroke="#94a3b8" stroke-width="1.2"/>
<line x1="295.7831325301205" y1="605" x2="295.7831325301205" y2="480" stroke="#94a3b8" stroke-width="1.2"/>
<line x1="295.7831325301205" y1="770" x2="295.7831325301205" y2="645" stroke="#94a3b8" stroke-width="1.2"/>
<text x="295.7831325301205" y="788" text-anchor="middle" font-family="monospace" font-size="11" fill="#334155">2025-01</text>
<line x1="354.578313253012" y1="420" x2="354.578313253012" y2="90" stroke="#94a3b8" stroke-width="1.2"/>
<line x1="354.578313253012" y1="605" x2="354.578313253012" y2="480" stroke="#94a3b8" stroke-width="1.2"/>
<line x1="354.578313253012" y1="770" x2="354.578313253012" y2="645" stroke="#94a3b8" stroke-width="1.2"/>
<text x="354.578313253012" y="788" text-anchor="middle" font-family="monospace" font-size="11" fill="#334155">2025-02</text>
<line x1="413.3734939759036" y1="420" x2="413.3734939759036" y2="90" stroke="#94a3b8" stroke-width="1.2"/>
<line x1="413.3734939759036" y1="605" x2="413.3734939759036" y2="480" stroke="#94a3b8" stroke-width="1.2"/>
<line x1="413.3734939759036" y1="770" x2="413.3734939759036" y2="645" stroke="#94a3b8" stroke-width="1.2"/>
<text x="413.3734939759036" y="788" text-anchor="middle" font-family="monospace" font-size="11" fill="#334155">2025-03</text>
<line x1="472.1686746987952" y1="420" x2="472.1686746987952" y2="90" stroke="#94a3b8" stroke-width="1.2"/>
<line x1="472.1686746987952" y1="605" x2="472.1686746987952" y2="480" stroke="#94a3b8" stroke-width="1.2"/>
<line x1="472.1686746987952" y1="770" x2="472.1686746987952" y2="645" stroke="#94a3b8" stroke-width="1.2"/>
<text x="472.1686746987952" y="788" text-anchor="middle" font-family="monospace" font-size="11" fill="#334155">2025-04</text>
<line x1="545.6626506024096" y1="420" x2="545.6626506024096" y2="90" stroke="#94a3b8" stroke-width="1.2"/>
<line x1="545.6626506024096" y1="605" x2="545.6626506024096" y2="480" stroke="#94a3b8" stroke-width="1.2"/>
<line x1="545.6626506024096" y1="770" x2="545.6626506024096" y2="645" stroke="#94a3b8" stroke-width="1.2"/>
<text x="545.6626506024096" y="788" text-anchor="middle" font-family="monospace" font-size="11" fill="#334155">2025-05</text>
<line x1="604.4578313253012" y1="420" x2="604.4578313253012" y2="90" stroke="#94a3b8" stroke-width="1.2"/>
<line x1="604.4578313253012" y1="605" x2="604.4578313253012" y2="480" stroke="#94a3b8" stroke-width="1.2"/>
<line x1="604.4578313253012" y1="770" x2="604.4578313253012" y2="645" stroke="#94a3b8" stroke-width="1.2"/>
<text x="604.4578313253012" y="788" text-anchor="middle" font-family="monospace" font-size="11" fill="#334155">2025-06</text>
<line x1="663.2530120481928" y1="420" x2="663.2530120481928" y2="90" stroke="#94a3b8" stroke-width="1.2"/>
<line x1="663.2530120481928" y1="605" x2="663.2530120481928" y2="480" stroke="#94a3b8" stroke-width="1.2"/>
<line x1="663.2530120481928" y1="770" x2="663.2530120481928" y2="645" stroke="#94a3b8" stroke-width="1.2"/>
<text x="663.2530120481928" y="788" text-anchor="middle" font-family="monospace" font-size="11" fill="#334155">2025-07</text>
<line x1="736.7469879518072" y1="420" x2="736.7469879518072" y2="90" stroke="#94a3b8" stroke-width="1.2"/>
<line x1="736.7469879518072" y1="605" x2="736.7469879518072" y2="480" stroke="#94a3b8" stroke-width="1.2"/>
<line x1="736.7469879518072" y1="770" x2="736.7469879518072" y2="645" stroke="#94a3b8" stroke-width="1.2"/>
<text x="736.7469879518072" y="788" text-anchor="middle" font-family="monospace" font-size="11" fill="#334155">2025-08</text>
<line x1="795.5421686746988" y1="420" x2="795.5421686746988" y2="90" stroke="#94a3b8" stroke-width="1.2"/>
<line x1="795.5421686746988" y1="605" x2="795.5421686746988" y2="480" stroke="#94a3b8" stroke-width="1.2"/>
<line x1="795.5421686746988" y1="770" x2="795.5421686746988" y2="645" stroke="#94a3b8" stroke-width="1.2"/>
<text x="795.5421686746988" y="788" text-anchor="middle" font-family="monospace" font-size="11" fill="#334155">2025-09</text>
<line x1="869.0361445783132" y1="420" x2="869.0361445783132" y2="90" stroke="#94a3b8" stroke-width="1.2"/>
<line x1="869.0361445783132" y1="605" x2="869.0361445783132" y2="480" stroke="#94a3b8" stroke-width="1.2"/>
<line x1="869.0361445783132" y1="770" x2="869.0361445783132" y2="645" stroke="#94a3b8" stroke-width="1.2"/>
<text x="869.0361445783132" y="788" text-anchor="middle" font-family="monospace" font-size="11" fill="#334155">2025-10</text>
<line x1="927.8313253012049" y1="420" x2="927.8313253012049" y2="90" stroke="#94a3b8" stroke-width="1.2"/>
<line x1="927.8313253012049" y1="605" x2="927.8313253012049" y2="480" stroke="#94a3b8" stroke-width="1.2"/>
<line x1="927.8313253012049" y1="770" x2="927.8313253012049" y2="645" stroke="#94a3b8" stroke-width="1.2"/>
<text x="927.8313253012049" y="788" text-anchor="middle" font-family="monospace" font-size="11" fill="#334155">2025-11</text>
<line x1="986.6265060240964" y1="420" x2="986.6265060240964" y2="90" stroke="#94a3b8" stroke-width="1.2"/>
<line x1="986.6265060240964" y1="605" x2="986.6265060240964" y2="480" stroke="#94a3b8" stroke-width="1.2"/>
<line x1="986.6265060240964" y1="770" x2="986.6265060240964" y2="645" stroke="#94a3b8" stroke-width="1.2"/>
<text x="986.6265060240964" y="788" text-anchor="middle" font-family="monospace" font-size="11" fill="#334155">2025-12</text>
<line x1="1060.120481927711" y1="420" x2="1060.120481927711" y2="90" stroke="#94a3b8" stroke-width="1.2"/>
<line x1="1060.120481927711" y1="605" x2="1060.120481927711" y2="480" stroke="#94a3b8" stroke-width="1.2"/>
<line x1="1060.120481927711" y1="770" x2="1060.120481927711" y2="645" stroke="#94a3b8" stroke-width="1.2"/>
<text x="1060.120481927711" y="788" text-anchor="middle" font-family="monospace" font-size="11" fill="#334155">2026-01</text>
<line x1="1118.9156626506024" y1="420" x2="1118.9156626506024" y2="90" stroke="#94a3b8" stroke-width="1.2"/>
<line x1="1118.9156626506024" y1="605" x2="1118.9156626506024" y2="480" stroke="#94a3b8" stroke-width="1.2"/>
<line x1="1118.9156626506024" y1="770" x2="1118.9156626506024" y2="645" stroke="#94a3b8" stroke-width="1.2"/>
<text x="1118.9156626506024" y="788" text-anchor="middle" font-family="monospace" font-size="11" fill="#334155">2026-02</text>
<line x1="1177.7108433734938" y1="420" x2="1177.7108433734938" y2="90" stroke="#94a3b8" stroke-width="1.2"/>
<line x1="1177.7108433734938" y1="605" x2="1177.7108433734938" y2="480" stroke="#94a3b8" stroke-width="1.2"/>
<line x1="1177.7108433734938" y1="770" x2="1177.7108433734938" y2="645" stroke="#94a3b8" stroke-width="1.2"/>
<text x="1177.7108433734938" y="788" text-anchor="middle" font-family="monospace" font-size="11" fill="#334155">2026-03</text>
<line x1="1251.2048192771083" y1="420" x2="1251.2048192771083" y2="90" stroke="#94a3b8" stroke-width="1.2"/>
<line x1="1251.2048192771083" y1="605" x2="1251.2048192771083" y2="480" stroke="#94a3b8" stroke-width="1.2"/>
<line x1="1251.2048192771083" y1="770" x2="1251.2048192771083" y2="645" stroke="#94a3b8" stroke-width="1.2"/>
<text x="1251.2048192771083" y="788" text-anchor="middle" font-family="monospace" font-size="11" fill="#334155">2026-04</text>
<line x1="1310.0" y1="420" x2="1310.0" y2="90" stroke="#94a3b8" stroke-width="1.2"/>
<line x1="1310.0" y1="605" x2="1310.0" y2="480" stroke="#94a3b8" stroke-width="1.2"/>
<line x1="1310.0" y1="770" x2="1310.0" y2="645" stroke="#94a3b8" stroke-width="1.2"/>
<text x="1310.0" y="788" text-anchor="middle" font-family="monospace" font-size="11" fill="#334155">2026-05</text>
<line x1="90" y1="420.0" x2="1310" y2="420.0" stroke="#cbd5e1" stroke-width="1"/>
<text x="78" y="424.0" text-anchor="end" font-family="monospace" font-size="12" fill="#475569">0</text>
<line x1="90" y1="354.0" x2="1310" y2="354.0" stroke="#cbd5e1" stroke-width="1"/>
<text x="78" y="358.0" text-anchor="end" font-family="monospace" font-size="12" fill="#475569">2916</text>
<line x1="90" y1="288.0" x2="1310" y2="288.0" stroke="#cbd5e1" stroke-width="1"/>
<text x="78" y="292.0" text-anchor="end" font-family="monospace" font-size="12" fill="#475569">5832</text>
<line x1="90" y1="222.0" x2="1310" y2="222.0" stroke="#cbd5e1" stroke-width="1"/>
<text x="78" y="226.0" text-anchor="end" font-family="monospace" font-size="12" fill="#475569">8748</text>
<line x1="90" y1="156.0" x2="1310" y2="156.0" stroke="#cbd5e1" stroke-width="1"/>
<text x="78" y="160.0" text-anchor="end" font-family="monospace" font-size="12" fill="#475569">11663</text>
<line x1="90" y1="90.0" x2="1310" y2="90.0" stroke="#cbd5e1" stroke-width="1"/>
<text x="78" y="94.0" text-anchor="end" font-family="monospace" font-size="12" fill="#475569">14579</text>
<polygon points="90.0,198.17946502236637 104.6987951807229,202.70641471578747 119.3975903614458,207.23336440920855 134.09638554216866,211.76031410262965 148.7951807228916,216.28726379605075 163.49397590361446,220.81421348947185 178.19277108433735,225.34116318289293 192.89156626506025,229.86811287631403 207.59036144578315,234.39506256973513 222.289156626506,238.9220122631562 236.9879518072289,243.4489619565773 251.6867469879518,247.9759116499984 266.3855421686747,252.5028613434195 281.08433734939763,257.0298110368406 295.7831325301205,261.55676073026166 310.48192771084337,266.08371042368276 325.1807228915663,270.61066011710386 339.87951807228916,275.13760981052496 354.578313253012,279.66455950394607 369.27710843373495,284.19150919736717 383.9759036144578,288.71845889078827 398.6746987951807,293.2454085842094 413.3734939759036,297.7723582776304 428.07228915662654,302.2993079710516 442.7710843373494,306.8262576644726 457.46987951807233,311.3532073578937 472.1686746987952,315.8801570513148 486.86746987951807,320.4071067447359 501.56626506024094,324.93405643815703 516.2650602409639,329.4610061315781 530.9638554216867,333.9879558249992 545.6626506024096,338.5149055184203 560.3614457831326,343.0418552118414 575.0602409638554,347.5688049052625 589.7590361445783,351.8877448617195 604.4578313253012,355.70971893512774 619.156626506024,358.8656069909962 633.8554216867469,361.1105483016418 648.5542168674699,362.51381276414685 663.2530120481928,364.1501021233943 677.9518072289156,366.745685021972 692.6506024096385,365.5756267308011 707.3493975903614,360.20750441678484 722.0481927710844,357.79726786429353 736.7469879518072,358.78710073120726 751.4457831325301,352.001816572539 766.1445783132531,353.01789767053083 780.843373493976,349.63958228857757 795.5421686746988,351.3785121970997 810.2409638554217,353.58922050260855 824.9397590361447,354.3559045447314 839.6385542168674,356.24536987419293 854.3373493975904,357.0204552713334 869.0361445783132,355.70357212993576 883.7349397590361,356.9081060617291 898.4337349397591,358.7741751718054 913.1325301204819,358.8909153722057 927.8313253012049,360.287340695171 942.5301204819277,362.42980903153807 957.2289156626506,365.5267846082161 971.9277108433735,368.2145348116235 986.6265060240964,368.99080616612355 1001.3253012048192,368.159499057215 1016.0240963855422,369.44260948466234 1030.7228915662652,370.1288495262235 1045.421686746988,370.3382309782876 1060.120481927711,368.7676879243019 1074.8192771084337,367.70499555969184 1089.5180722891566,369.2186796123374 1104.2168674698796,369.6038458434578 1118.9156626506024,371.2472379788974 1133.6144578313254,374.06759335266196 1148.313253012048,376.84170861624153 1163.012048192771,379.50213023074986 1177.7108433734938,380.51115502609247 1192.4096385542168,380.62620137903934 1207.1084337349398,379.1574963702388 1221.8072289156626,379.417409817161 1236.5060240963855,380.00515989359377 1251.2048192771083,379.36635798474765 1265.9036144578313,378.4748954755673 1280.6024096385543,377.76433946787915 1295.301204819277,377.5552294942497 1310.0,376.6696904643175 1310.0,420.0 1295.301204819277,420.0 1280.6024096385543,420.0 1265.9036144578313,420.0 1251.2048192771083,420.0 1236.5060240963855,420.0 1221.8072289156626,420.0 1207.1084337349398,420.0 1192.4096385542168,420.0 1177.7108433734938,420.0 1163.012048192771,420.0 1148.313253012048,420.0 1133.6144578313254,420.0 1118.9156626506024,420.0 1104.2168674698796,420.0 1089.5180722891566,420.0 1074.8192771084337,420.0 1060.120481927711,420.0 1045.421686746988,420.0 1030.7228915662652,420.0 1016.0240963855422,420.0 1001.3253012048192,420.0 986.6265060240964,420.0 971.9277108433735,420.0 957.2289156626506,420.0 942.5301204819277,420.0 927.8313253012049,420.0 913.1325301204819,420.0 898.4337349397591,420.0 883.7349397590361,420.0 869.0361445783132,420.0 854.3373493975904,420.0 839.6385542168674,420.0 824.9397590361447,420.0 810.2409638554217,420.0 795.5421686746988,420.0 780.843373493976,420.0 766.1445783132531,420.0 751.4457831325301,420.0 736.7469879518072,420.0 722.0481927710844,420.0 707.3493975903614,420.0 692.6506024096385,420.0 677.9518072289156,420.0 663.2530120481928,420.0 648.5542168674699,420.0 633.8554216867469,420.0 619.156626506024,420.0 604.4578313253012,420.0 589.7590361445783,420.0 575.0602409638554,420.0 560.3614457831326,420.0 545.6626506024096,420.0 530.9638554216867,420.0 516.2650602409639,420.0 501.56626506024094,420.0 486.86746987951807,420.0 472.1686746987952,420.0 457.46987951807233,420.0 442.7710843373494,420.0 428.07228915662654,420.0 413.3734939759036,420.0 398.6746987951807,420.0 383.9759036144578,420.0 369.27710843373495,420.0 354.578313253012,420.0 339.87951807228916,420.0 325.1807228915663,420.0 310.48192771084337,420.0 295.7831325301205,420.0 281.08433734939763,420.0 266.3855421686747,420.0 251.6867469879518,420.0 236.9879518072289,420.0 222.289156626506,420.0 207.59036144578315,420.0 192.89156626506025,420.0 178.19277108433735,420.0 163.49397590361446,420.0 148.7951807228916,420.0 134.09638554216866,420.0 119.3975903614458,420.0 104.6987951807229,420.0 90.0,420.0" fill="#facc15" fill-opacity="0.70" stroke="#facc15" stroke-width="1.2"/>
<polygon points="90.0,195.91599017565582 104.6987951807229,198.18692809442328 119.3975903614458,200.14073358997663 134.09638554216866,202.3655430779898 148.7951807228916,204.568043178005 163.49397590361446,207.78941220272293 178.19277108433735,205.61688140278855 192.89156626506025,208.7034743798393 207.59036144578315,209.5252072777444 222.289156626506,209.58938199314775 236.9879518072289,211.74947557334033 251.6867469879518,211.71473460112819 266.3855421686747,217.72591982354717 281.08433734939763,221.59130578952588 295.7831325301205,223.32304131172458 310.48192771084337,227.35461742178998 325.1807228915663,228.37356020554827 339.87951807228916,233.82947067307384 354.578313253012,240.71235696881067 369.27710843373495,244.82986352688621 383.9759036144578,246.0562118119629 398.6746987951807,251.16672258496249 413.3734939759036,258.85723820589914 428.07228915662654,265.5634024923762 442.7710843373494,267.6708087679608 457.46987951807233,267.1864581187779 472.1686746987952,272.904366922902 486.86746987951807,284.93971168175875 501.56626506024094,284.39122068485517 516.2650602409639,282.35806959527685 530.9638554216867,283.5167567273255 545.6626506024096,285.2511598288054 560.3614457831326,262.2226657499365 575.0602409638554,269.15546724723833 589.7590361445783,266.95682129947204 604.4578313253012,270.65323775803176 619.156626506024,264.2865985145046 633.8554216867469,274.53693087302906 648.5542168674699,275.77425231189386 663.2530120481928,276.7243943635034 677.9518072289156,269.3800562548227 692.6506024096385,251.59556908547825 707.3493975903614,231.68022264136738 722.0481927710844,232.40834536438888 736.7469879518072,240.68211909288297 751.4457831325301,210.95305756716013 766.1445783132531,229.01164070453947 780.843373493976,215.279519595552 795.5421686746988,225.57457067268706 810.2409638554217,228.32188782102824 824.9397590361447,224.0434142712153 839.6385542168674,234.10789275831178 854.3373493975904,234.02876189434087 869.0361445783132,224.08811962887287 883.7349397590361,233.9959036976331 898.4337349397591,241.70878184867948 913.1325301204819,237.76937831512996 927.8313253012049,258.02240707267174 942.5301204819277,253.84560717145547 957.2289156626506,264.54309891003925 971.9277108433735,271.27060112782357 986.6265060240964,269.6545721680983 1001.3253012048192,260.4853107252453 1016.0240963855422,272.11607767285716 1030.7228915662652,272.2660510100019 1045.421686746988,271.8294257755233 1060.120481927711,261.3185818708132 1074.8192771084337,260.16971445635613 1089.5180722891566,272.44258006216796 1104.2168674698796,269.79741044797777 1118.9156626506024,295.3163613826607 1133.6144578313254,302.980272282996 1148.313253012048,304.5767145580105 1163.012048192771,310.01521938186914 1177.7108433734938,304.83155760989564 1192.4096385542168,302.4984854327941 1207.1084337349398,292.3887098165958 1221.8072289156626,298.7511384030971 1236.5060240963855,301.2369815131826 1251.2048192771083,296.16230274604266 1265.9036144578313,292.89785938576085 1280.6024096385543,291.9482109781761 1295.301204819277,292.70676035718276 1310.0,288.7099712230683 1310.0,376.6696904643175 1295.301204819277,377.5552294942497 1280.6024096385543,377.76433946787915 1265.9036144578313,378.4748954755673 1251.2048192771083,379.36635798474765 1236.5060240963855,380.00515989359377 1221.8072289156626,379.417409817161 1207.1084337349398,379.1574963702388 1192.4096385542168,380.62620137903934 1177.7108433734938,380.51115502609247 1163.012048192771,379.50213023074986 1148.313253012048,376.84170861624153 1133.6144578313254,374.06759335266196 1118.9156626506024,371.2472379788974 1104.2168674698796,369.6038458434578 1089.5180722891566,369.2186796123374 1074.8192771084337,367.70499555969184 1060.120481927711,368.7676879243019 1045.421686746988,370.3382309782876 1030.7228915662652,370.1288495262235 1016.0240963855422,369.44260948466234 1001.3253012048192,368.159499057215 986.6265060240964,368.99080616612355 971.9277108433735,368.2145348116235 957.2289156626506,365.5267846082161 942.5301204819277,362.42980903153807 927.8313253012049,360.287340695171 913.1325301204819,358.8909153722057 898.4337349397591,358.7741751718054 883.7349397590361,356.9081060617291 869.0361445783132,355.70357212993576 854.3373493975904,357.0204552713334 839.6385542168674,356.24536987419293 824.9397590361447,354.3559045447314 810.2409638554217,353.58922050260855 795.5421686746988,351.3785121970997 780.843373493976,349.63958228857757 766.1445783132531,353.01789767053083 751.4457831325301,352.001816572539 736.7469879518072,358.78710073120726 722.0481927710844,357.79726786429353 707.3493975903614,360.20750441678484 692.6506024096385,365.5756267308011 677.9518072289156,366.745685021972 663.2530120481928,364.1501021233943 648.5542168674699,362.51381276414685 633.8554216867469,361.1105483016418 619.156626506024,358.8656069909962 604.4578313253012,355.70971893512774 589.7590361445783,351.8877448617195 575.0602409638554,347.5688049052625 560.3614457831326,343.0418552118414 545.6626506024096,338.5149055184203 530.9638554216867,333.9879558249992 516.2650602409639,329.4610061315781 501.56626506024094,324.93405643815703 486.86746987951807,320.4071067447359 472.1686746987952,315.8801570513148 457.46987951807233,311.3532073578937 442.7710843373494,306.8262576644726 428.07228915662654,302.2993079710516 413.3734939759036,297.7723582776304 398.6746987951807,293.2454085842094 383.9759036144578,288.71845889078827 369.27710843373495,284.19150919736717 354.578313253012,279.66455950394607 339.87951807228916,275.13760981052496 325.1807228915663,270.61066011710386 310.48192771084337,266.08371042368276 295.7831325301205,261.55676073026166 281.08433734939763,257.0298110368406 266.3855421686747,252.5028613434195 251.6867469879518,247.9759116499984 236.9879518072289,243.4489619565773 222.289156626506,238.9220122631562 207.59036144578315,234.39506256973513 192.89156626506025,229.86811287631403 178.19277108433735,225.34116318289293 163.49397590361446,220.81421348947185 148.7951807228916,216.28726379605075 134.09638554216866,211.76031410262965 119.3975903614458,207.23336440920855 104.6987951807229,202.70641471578747 90.0,198.17946502236637" fill="#2563eb" fill-opacity="0.70" stroke="#2563eb" stroke-width="1.2"/>
<polygon points="90.0,193.65251532894527 104.6987951807229,193.61038153037686 119.3975903614458,192.93718029239415 134.09638554216866,192.86376510413933 148.7951807228916,192.04915416448736 163.49397590361446,193.5826245791112 178.19277108433735,185.3267778745502 192.89156626506025,185.13569309849382 207.59036144578315,183.82305193566893 222.289156626506,180.50681380436208 236.9879518072289,180.1802179728579 251.6867469879518,174.7870798095276 266.3855421686747,181.1590173733139 281.08433734939763,184.70444226738945 295.7831325301205,182.7550786140558 310.48192771084337,184.69350827566703 325.1807228915663,179.19576770923558 339.87951807228916,184.64386579313285 354.578313253012,190.96039669891852 369.27710843373495,193.8425706234798 383.9759036144578,192.89417957338665 398.6746987951807,199.6466876634705 413.3734939759036,205.84945084654484 428.07228915662654,212.92609692889448 442.7710843373494,212.90699471836484 457.46987951807233,207.0275062048128 472.1686746987952,212.03532834383716 486.86746987951807,228.18118160777888 501.56626506024094,219.87723708567296 516.2650602409639,207.97489929914258 530.9638554216867,206.24793321994542 545.6626506024096,203.61394765359708 560.3614457831326,172.17478053240848 575.0602409638554,174.4641449629093 589.7590361445783,168.35381068203083 604.4578313253012,173.68622830788237 619.156626506024,161.96501953943755 633.8554216867469,177.53066222827363 648.5542168674699,178.19006987948066 663.2530120481928,180.16201479340032 677.9518072289156,169.52027384448317 692.6506024096385,142.02784219815067 707.3493975903614,117.76078846327312 722.0481927710844,118.21197224824306 736.7469879518072,127.92165085368111 751.4457831325301,90.0 766.1445783132531,113.10284195681857 780.843373493976,98.20431883909544 795.5421686746988,106.80150853443934 810.2409638554217,106.96358464905359 824.9397590361447,95.61294293427119 839.6385542168674,110.67417601827242 854.3373493975904,108.97770334236924 869.0361445783132,91.93344494269041 883.7349397590361,110.5631999676122 898.4337349397591,123.20122140940873 913.1325301204819,115.03827786302998 927.8313253012049,148.5922625815441 942.5301204819277,142.8743344351867 957.2289156626506,163.11880092447046 971.9277108433735,174.51142507515422 986.6265060240964,168.83538760311822 1001.3253012048192,156.64095974153196 1016.0240963855422,173.62859956054865 1030.7228915662652,174.07544783892337 1045.421686746988,172.73806215175827 1060.120481927711,155.98572435158144 1074.8192771084337,153.21151597540882 1089.5180722891566,173.6618183249142 1104.2168674698796,169.94506037289122 1118.9156626506024,211.16046445231626 1133.6144578313254,225.89525468341677 1148.313253012048,228.47892495813255 1163.012048192771,237.35361024944487 1177.7108433734938,227.60089910717548 1192.4096385542168,223.7062386599311 1207.1084337349398,208.44395680719106 1221.8072289156626,218.386616320416 1236.5060240963855,222.96454985013276 1251.2048192771083,213.63778037950786 1265.9036144578313,207.9171648319345 1280.6024096385543,205.26891730095483 1295.301204819277,206.73059760310178 1310.0,198.9207571719264 1310.0,288.7099712230683 1295.301204819277,292.70676035718276 1280.6024096385543,291.9482109781761 1265.9036144578313,292.89785938576085 1251.2048192771083,296.16230274604266 1236.5060240963855,301.2369815131826 1221.8072289156626,298.7511384030971 1207.1084337349398,292.3887098165958 1192.4096385542168,302.4984854327941 1177.7108433734938,304.83155760989564 1163.012048192771,310.01521938186914 1148.313253012048,304.5767145580105 1133.6144578313254,302.980272282996 1118.9156626506024,295.3163613826607 1104.2168674698796,269.79741044797777 1089.5180722891566,272.44258006216796 1074.8192771084337,260.16971445635613 1060.120481927711,261.3185818708132 1045.421686746988,271.8294257755233 1030.7228915662652,272.2660510100019 1016.0240963855422,272.11607767285716 1001.3253012048192,260.4853107252453 986.6265060240964,269.6545721680983 971.9277108433735,271.27060112782357 957.2289156626506,264.54309891003925 942.5301204819277,253.84560717145547 927.8313253012049,258.02240707267174 913.1325301204819,237.76937831512996 898.4337349397591,241.70878184867948 883.7349397590361,233.9959036976331 869.0361445783132,224.08811962887287 854.3373493975904,234.02876189434087 839.6385542168674,234.10789275831178 824.9397590361447,224.0434142712153 810.2409638554217,228.32188782102824 795.5421686746988,225.57457067268706 780.843373493976,215.279519595552 766.1445783132531,229.01164070453947 751.4457831325301,210.95305756716013 736.7469879518072,240.68211909288297 722.0481927710844,232.40834536438888 707.3493975903614,231.68022264136738 692.6506024096385,251.59556908547825 677.9518072289156,269.3800562548227 663.2530120481928,276.7243943635034 648.5542168674699,275.77425231189386 633.8554216867469,274.53693087302906 619.156626506024,264.2865985145046 604.4578313253012,270.65323775803176 589.7590361445783,266.95682129947204 575.0602409638554,269.15546724723833 560.3614457831326,262.2226657499365 545.6626506024096,285.2511598288054 530.9638554216867,283.5167567273255 516.2650602409639,282.35806959527685 501.56626506024094,284.39122068485517 486.86746987951807,284.93971168175875 472.1686746987952,272.904366922902 457.46987951807233,267.1864581187779 442.7710843373494,267.6708087679608 428.07228915662654,265.5634024923762 413.3734939759036,258.85723820589914 398.6746987951807,251.16672258496249 383.9759036144578,246.0562118119629 369.27710843373495,244.82986352688621 354.578313253012,240.71235696881067 339.87951807228916,233.82947067307384 325.1807228915663,228.37356020554827 310.48192771084337,227.35461742178998 295.7831325301205,223.32304131172458 281.08433734939763,221.59130578952588 266.3855421686747,217.72591982354717 251.6867469879518,211.71473460112819 236.9879518072289,211.74947557334033 222.289156626506,209.58938199314775 207.59036144578315,209.5252072777444 192.89156626506025,208.7034743798393 178.19277108433735,205.61688140278855 163.49397590361446,207.78941220272293 148.7951807228916,204.568043178005 134.09638554216866,202.3655430779898 119.3975903614458,200.14073358997663 104.6987951807229,198.18692809442328 90.0,195.91599017565582" fill="#f97316" fill-opacity="0.70" stroke="#f97316" stroke-width="1.2"/>
<rect x="1100" y="76" width="16" height="12" fill="#f97316" fill-opacity="0.70" stroke="#f97316"/>
<text x="1124" y="86" font-family="monospace" font-size="12" fill="#0f172a">BTC</text>
<rect x="1100" y="98" width="16" height="12" fill="#2563eb" fill-opacity="0.70" stroke="#2563eb"/>
<text x="1124" y="108" font-family="monospace" font-size="12" fill="#0f172a">ETH</text>
<rect x="1100" y="120" width="16" height="12" fill="#facc15" fill-opacity="0.70" stroke="#facc15"/>
<text x="1124" y="130" font-family="monospace" font-size="12" fill="#0f172a">DAI</text>
<text x="700.0" y="782" text-anchor="middle" font-family="monospace" font-size="16" fill="#0f172a">time</text>
<text x="24" y="255.0" transform="rotate(-90 24,255.0)" text-anchor="middle" font-family="monospace" font-size="16" fill="#0f172a">asset value split (usd)</text>
<line x1="90" y1="605" x2="1310" y2="605" stroke="#334155" stroke-width="2"/>
<line x1="90" y1="480" x2="90" y2="605" stroke="#334155" stroke-width="2"/>
<line x1="90" y1="542.5" x2="1310" y2="542.5" stroke="#64748b" stroke-width="1.5" stroke-dasharray="6 4"/>
<line x1="90" y1="605.0" x2="1310" y2="605.0" stroke="#e2e8f0" stroke-width="1"/>
<text x="78" y="609.0" text-anchor="end" font-family="monospace" font-size="11" fill="#475569">-100</text>
<line x1="90" y1="542.5" x2="1310" y2="542.5" stroke="#e2e8f0" stroke-width="1"/>
<text x="78" y="546.5" text-anchor="end" font-family="monospace" font-size="11" fill="#475569">0</text>
<line x1="90" y1="480.0" x2="1310" y2="480.0" stroke="#e2e8f0" stroke-width="1"/>
<text x="78" y="484.0" text-anchor="end" font-family="monospace" font-size="11" fill="#475569">100</text>
<rect x="86.00595238095238" y="480.0" width="7.988095238095239" height="62.5" fill="#ea580c" opacity="0.85"><title>2024-10-01 | BTC buy 100.00 usd | reason=static_target_rebalance</title></rect>
<rect x="100.70474756167528" y="480.0" width="7.988095238095239" height="62.5" fill="#ea580c" opacity="0.85"><title>2024-10-08 | BTC buy 100.00 usd | reason=static_target_rebalance</title></rect>
<rect x="115.40354274239817" y="480.0" width="7.988095238095239" height="62.5" fill="#ea580c" opacity="0.85"><title>2024-10-15 | BTC buy 100.00 usd | reason=static_target_rebalance</title></rect>
<rect x="130.10233792312104" y="480.0" width="7.988095238095239" height="62.5" fill="#ea580c" opacity="0.85"><title>2024-10-22 | BTC buy 100.00 usd | reason=static_target_rebalance</title></rect>
<rect x="144.80113310384397" y="480.0" width="7.988095238095239" height="62.5" fill="#ea580c" opacity="0.85"><title>2024-10-29 | BTC buy 100.00 usd | reason=static_target_rebalance</title></rect>
<rect x="159.49992828456683" y="480.0" width="7.988095238095239" height="62.5" fill="#ea580c" opacity="0.85"><title>2024-11-05 | BTC buy 100.00 usd | reason=static_target_rebalance</title></rect>
<rect x="174.19872346528973" y="480.0" width="7.988095238095239" height="62.5" fill="#ea580c" opacity="0.85"><title>2024-11-12 | BTC buy 100.00 usd | reason=static_target_rebalance</title></rect>
<rect x="188.89751864601263" y="480.0" width="7.988095238095239" height="62.5" fill="#ea580c" opacity="0.85"><title>2024-11-19 | BTC buy 100.00 usd | reason=static_target_rebalance</title></rect>
<rect x="203.59631382673552" y="480.0" width="7.988095238095239" height="62.5" fill="#ea580c" opacity="0.85"><title>2024-11-26 | BTC buy 100.00 usd | reason=static_target_rebalance</title></rect>
<rect x="218.2951090074584" y="480.0" width="7.988095238095239" height="62.5" fill="#ea580c" opacity="0.85"><title>2024-12-03 | BTC buy 100.00 usd | reason=static_target_rebalance</title></rect>
<rect x="232.9939041881813" y="480.0" width="7.988095238095239" height="62.5" fill="#ea580c" opacity="0.85"><title>2024-12-10 | BTC buy 100.00 usd | reason=static_target_rebalance</title></rect>
<rect x="247.6926993689042" y="480.0" width="7.988095238095239" height="62.5" fill="#ea580c" opacity="0.85"><title>2024-12-17 | BTC buy 100.00 usd | reason=static_target_rebalance</title></rect>
<rect x="262.3914945496271" y="480.0" width="7.988095238095239" height="62.5" fill="#ea580c" opacity="0.85"><title>2024-12-24 | BTC buy 100.00 usd | reason=static_target_rebalance</title></rect>
<rect x="277.09028973035004" y="480.0" width="7.988095238095239" height="62.5" fill="#ea580c" opacity="0.85"><title>2024-12-31 | BTC buy 100.00 usd | reason=static_target_rebalance</title></rect>
<rect x="291.7890849110729" y="480.0" width="7.988095238095239" height="62.5" fill="#ea580c" opacity="0.85"><title>2025-01-07 | BTC buy 100.00 usd | reason=static_target_rebalance</title></rect>
<rect x="306.4878800917958" y="480.0" width="7.988095238095239" height="62.5" fill="#ea580c" opacity="0.85"><title>2025-01-14 | BTC buy 100.00 usd | reason=static_target_rebalance</title></rect>
<rect x="321.1866752725187" y="480.0" width="7.988095238095239" height="62.5" fill="#ea580c" opacity="0.85"><title>2025-01-21 | BTC buy 100.00 usd | reason=static_target_rebalance</title></rect>
<rect x="335.88547045324157" y="480.0" width="7.988095238095239" height="62.5" fill="#ea580c" opacity="0.85"><title>2025-01-28 | BTC buy 100.00 usd | reason=static_target_rebalance</title></rect>
<rect x="350.58426563396443" y="480.0" width="7.988095238095239" height="62.5" fill="#ea580c" opacity="0.85"><title>2025-02-04 | BTC buy 100.00 usd | reason=static_target_rebalance</title></rect>
<rect x="365.28306081468736" y="480.0" width="7.988095238095239" height="62.5" fill="#ea580c" opacity="0.85"><title>2025-02-11 | BTC buy 100.00 usd | reason=static_target_rebalance</title></rect>
<rect x="379.9818559954102" y="480.0" width="7.988095238095239" height="62.5" fill="#ea580c" opacity="0.85"><title>2025-02-18 | BTC buy 100.00 usd | reason=static_target_rebalance</title></rect>
<rect x="394.6806511761331" y="480.0" width="7.988095238095239" height="62.5" fill="#ea580c" opacity="0.85"><title>2025-02-25 | BTC buy 100.00 usd | reason=static_target_rebalance</title></rect>
<rect x="409.379446356856" y="480.0" width="7.988095238095239" height="62.5" fill="#ea580c" opacity="0.85"><title>2025-03-04 | BTC buy 100.00 usd | reason=static_target_rebalance</title></rect>
<rect x="424.07824153757895" y="480.0" width="7.988095238095239" height="62.5" fill="#ea580c" opacity="0.85"><title>2025-03-11 | BTC buy 100.00 usd | reason=static_target_rebalance</title></rect>
<rect x="438.7770367183018" y="480.0" width="7.988095238095239" height="62.5" fill="#ea580c" opacity="0.85"><title>2025-03-18 | BTC buy 100.00 usd | reason=static_target_rebalance</title></rect>
<rect x="453.47583189902474" y="480.0" width="7.988095238095239" height="62.5" fill="#ea580c" opacity="0.85"><title>2025-03-25 | BTC buy 100.00 usd | reason=static_target_rebalance</title></rect>
<rect x="468.1746270797476" y="480.0" width="7.988095238095239" height="62.5" fill="#ea580c" opacity="0.85"><title>2025-04-01 | BTC buy 100.00 usd | reason=static_target_rebalance</title></rect>
<rect x="482.8734222604705" y="480.0" width="7.988095238095239" height="62.5" fill="#ea580c" opacity="0.85"><title>2025-04-08 | BTC buy 100.00 usd | reason=static_target_rebalance</title></rect>
<rect x="497.57221744119335" y="480.0" width="7.988095238095239" height="62.5" fill="#ea580c" opacity="0.85"><title>2025-04-15 | BTC buy 100.00 usd | reason=static_target_rebalance</title></rect>
<rect x="512.2710126219163" y="480.0" width="7.988095238095239" height="62.5" fill="#ea580c" opacity="0.85"><title>2025-04-22 | BTC buy 100.00 usd | reason=static_target_rebalance</title></rect>
<rect x="526.9698078026391" y="480.0" width="7.988095238095239" height="62.5" fill="#ea580c" opacity="0.85"><title>2025-04-29 | BTC buy 100.00 usd | reason=static_target_rebalance</title></rect>
<rect x="541.668602983362" y="480.0" width="7.988095238095239" height="62.5" fill="#ea580c" opacity="0.85"><title>2025-05-06 | BTC buy 100.00 usd | reason=static_target_rebalance</title></rect>
<rect x="556.367398164085" y="480.0" width="7.988095238095239" height="62.5" fill="#ea580c" opacity="0.85"><title>2025-05-13 | BTC buy 100.00 usd | reason=static_target_rebalance</title></rect>
<rect x="571.0661933448079" y="480.0" width="7.988095238095239" height="62.5" fill="#ea580c" opacity="0.85"><title>2025-05-20 | BTC buy 100.00 usd | reason=static_target_rebalance</title></rect>
<rect x="585.7649885255307" y="485.74365055531666" width="7.988095238095239" height="56.75634944468334" fill="#ea580c" opacity="0.85"><title>2025-05-27 | BTC buy 90.81 usd | reason=static_target_rebalance</title></rect>
<rect x="600.4637837062536" y="499.46607726383127" width="7.988095238095239" height="43.03392273616873" fill="#ea580c" opacity="0.85"><title>2025-06-03 | BTC buy 68.85 usd | reason=static_target_rebalance</title></rect>
<rect x="615.1625788869765" y="517.8583188019834" width="7.988095238095239" height="24.641681198016613" fill="#ea580c" opacity="0.85"><title>2025-06-10 | BTC buy 39.43 usd | reason=static_target_rebalance</title></rect>
<rect x="629.8613740676993" y="542.5" width="7.988095238095239" height="1.5" fill="#dc2626" opacity="0.85"><title>2025-06-17 | BTC sell 0.82 usd | reason=static_target_rebalance</title></rect>
<rect x="644.5601692484223" y="542.5" width="7.988095238095239" height="23.752483528136167" fill="#dc2626" opacity="0.85"><title>2025-06-24 | BTC sell 38.00 usd | reason=static_target_rebalance</title></rect>
<rect x="659.2589644291452" y="542.5" width="7.988095238095239" height="17.318104074986422" fill="#dc2626" opacity="0.85"><title>2025-07-01 | BTC sell 27.71 usd | reason=static_target_rebalance</title></rect>
<rect x="673.957759609868" y="533.3296956461145" width="7.988095238095239" height="9.170304353885513" fill="#ea580c" opacity="0.85"><title>2025-07-08 | BTC buy 14.67 usd | reason=static_target_rebalance</title></rect>
<rect x="688.6565547905909" y="497.73651842850967" width="7.988095238095239" height="44.76348157149033" fill="#ea580c" opacity="0.85"><title>2025-07-15 | BTC buy 71.62 usd | reason=static_target_rebalance</title></rect>
<rect x="703.3553499713138" y="480.0" width="7.988095238095239" height="62.5" fill="#ea580c" opacity="0.85"><title>2025-07-22 | BTC buy 100.00 usd | reason=static_target_rebalance</title></rect>
<rect x="718.0541451520368" y="480.0" width="7.988095238095239" height="62.5" fill="#ea580c" opacity="0.85"><title>2025-07-29 | BTC buy 100.00 usd | reason=static_target_rebalance</title></rect>
<rect x="732.7529403327596" y="480.0" width="7.988095238095239" height="62.5" fill="#ea580c" opacity="0.85"><title>2025-08-05 | BTC buy 100.00 usd | reason=static_target_rebalance</title></rect>
<rect x="747.4517355134825" y="480.0" width="7.988095238095239" height="62.5" fill="#ea580c" opacity="0.85"><title>2025-08-12 | BTC buy 100.00 usd | reason=static_target_rebalance</title></rect>
<rect x="762.1505306942055" y="480.0" width="7.988095238095239" height="62.5" fill="#ea580c" opacity="0.85"><title>2025-08-19 | BTC buy 100.00 usd | reason=static_target_rebalance</title></rect>
<rect x="776.8493258749284" y="480.0" width="7.988095238095239" height="62.5" fill="#ea580c" opacity="0.85"><title>2025-08-26 | BTC buy 100.00 usd | reason=static_target_rebalance</title></rect>
<rect x="791.5481210556512" y="480.0" width="7.988095238095239" height="62.5" fill="#ea580c" opacity="0.85"><title>2025-09-02 | BTC buy 100.00 usd | reason=static_target_rebalance</title></rect>
<rect x="806.2469162363741" y="480.0" width="7.988095238095239" height="62.5" fill="#ea580c" opacity="0.85"><title>2025-09-09 | BTC buy 100.00 usd | reason=static_target_rebalance</title></rect>
<rect x="820.9457114170971" y="505.93146105444794" width="7.988095238095239" height="36.56853894555206" fill="#ea580c" opacity="0.85"><title>2025-09-16 | BTC buy 58.51 usd | reason=static_target_rebalance</title></rect>
<rect x="835.6445065978198" y="534.3098037105772" width="7.988095238095239" height="8.190196289422829" fill="#ea580c" opacity="0.85"><title>2025-09-23 | BTC buy 13.10 usd | reason=static_target_rebalance</title></rect>
<rect x="850.3433017785428" y="542.5" width="7.988095238095239" height="17.731031169081803" fill="#dc2626" opacity="0.85"><title>2025-09-30 | BTC sell 28.37 usd | reason=static_target_rebalance</title></rect>
<rect x="865.0420969592656" y="542.5" width="7.988095238095239" height="25.625772487800646" fill="#dc2626" opacity="0.85"><title>2025-10-07 | BTC sell 41.00 usd | reason=static_target_rebalance</title></rect>
<rect x="879.7408921399885" y="533.0561054877849" width="7.988095238095239" height="9.443894512215138" fill="#ea580c" opacity="0.85"><title>2025-10-14 | BTC buy 15.11 usd | reason=static_target_rebalance</title></rect>
<rect x="894.4396873207115" y="536.6475217497504" width="7.988095238095239" height="5.852478250249646" fill="#ea580c" opacity="0.85"><title>2025-10-21 | BTC buy 9.36 usd | reason=static_target_rebalance</title></rect>
<rect x="909.1384825014343" y="542.5" width="7.988095238095239" height="20.610224540287845" fill="#dc2626" opacity="0.85"><title>2025-10-28 | BTC sell 32.98 usd | reason=static_target_rebalance</title></rect>
<rect x="923.8372776821573" y="542.5" width="7.988095238095239" height="23.941328666776712" fill="#dc2626" opacity="0.85"><title>2025-11-04 | BTC sell 38.31 usd | reason=static_target_rebalance</title></rect>
<rect x="938.5360728628801" y="542.5" width="7.988095238095239" height="3.34128161726926" fill="#dc2626" opacity="0.85"><title>2025-11-11 | BTC sell 5.35 usd | reason=static_target_rebalance</title></rect>
<rect x="953.234868043603" y="505.8257012284326" width="7.988095238095239" height="36.67429877156741" fill="#ea580c" opacity="0.85"><title>2025-11-18 | BTC buy 58.68 usd | reason=static_target_rebalance</title></rect>
<rect x="967.9336632243259" y="502.84156511181675" width="7.988095238095239" height="39.65843488818325" fill="#ea580c" opacity="0.85"><title>2025-11-25 | BTC buy 63.45 usd | reason=static_target_rebalance</title></rect>
<rect x="982.6324584050489" y="542.5" width="7.988095238095239" height="9.756558780100931" fill="#dc2626" opacity="0.85"><title>2025-12-02 | BTC sell 15.61 usd | reason=static_target_rebalance</title></rect>
<rect x="997.3312535857716" y="501.1016738309258" width="7.988095238095239" height="41.39832616907421" fill="#ea580c" opacity="0.85"><title>2025-12-09 | BTC buy 66.24 usd | reason=static_target_rebalance</title></rect>
<rect x="1012.0300487664946" y="540.8133768981143" width="7.988095238095239" height="1.6866231018857434" fill="#ea580c" opacity="0.85"><title>2025-12-16 | BTC buy 2.70 usd | reason=static_target_rebalance</title></rect>
<rect x="1026.7288439472175" y="537.5513672149749" width="7.988095238095239" height="4.948632785025097" fill="#ea580c" opacity="0.85"><title>2025-12-23 | BTC buy 7.92 usd | reason=static_target_rebalance</title></rect>
<rect x="1041.4276391279402" y="542.5" width="7.988095238095239" height="5.152158106028196" fill="#dc2626" opacity="0.85"><title>2025-12-30 | BTC sell 8.24 usd | reason=static_target_rebalance</title></rect>
<rect x="1056.1264343086632" y="534.9658777263357" width="7.988095238095239" height="7.534122273664252" fill="#ea580c" opacity="0.85"><title>2026-01-06 | BTC buy 12.05 usd | reason=static_target_rebalance</title></rect>
<rect x="1070.825229489386" y="542.5" width="7.988095238095239" height="6.704428134680256" fill="#dc2626" opacity="0.85"><title>2026-01-13 | BTC sell 10.73 usd | reason=static_target_rebalance</title></rect>
<rect x="1085.524024670109" y="542.5" width="7.988095238095239" height="6.778545263496085" fill="#dc2626" opacity="0.85"><title>2026-01-20 | BTC sell 10.85 usd | reason=static_target_rebalance</title></rect>
<rect x="1100.222819850832" y="537.8162231954026" width="7.988095238095239" height="4.683776804597414" fill="#ea580c" opacity="0.85"><title>2026-01-27 | BTC buy 7.49 usd | reason=static_target_rebalance</title></rect>
<rect x="1114.9216150315547" y="542.5" width="7.988095238095239" height="17.12197929248373" fill="#dc2626" opacity="0.85"><title>2026-02-03 | BTC sell 27.40 usd | reason=static_target_rebalance</title></rect>
<rect x="1129.6204102122776" y="527.1231854568832" width="7.988095238095239" height="15.37681454311678" fill="#ea580c" opacity="0.85"><title>2026-02-10 | BTC buy 24.60 usd | reason=static_target_rebalance</title></rect>
<rect x="1144.3192053930004" y="528.3999864298492" width="7.988095238095239" height="14.10001357015085" fill="#ea580c" opacity="0.85"><title>2026-02-17 | BTC buy 22.56 usd | reason=static_target_rebalance</title></rect>
<rect x="1159.0180005737234" y="531.5393423088335" width="7.988095238095239" height="10.960657691166489" fill="#ea580c" opacity="0.85"><title>2026-02-24 | BTC buy 17.54 usd | reason=static_target_rebalance</title></rect>
<rect x="1173.7167957544461" y="542.5" width="7.988095238095239" height="7.483464693241558" fill="#dc2626" opacity="0.85"><title>2026-03-03 | BTC sell 11.97 usd | reason=static_target_rebalance</title></rect>
<rect x="1188.4155909351691" y="542.5" width="7.988095238095239" height="7.5862958349944165" fill="#dc2626" opacity="0.85"><title>2026-03-10 | BTC sell 12.14 usd | reason=static_target_rebalance</title></rect>
<rect x="1203.114386115892" y="523.7880550477594" width="7.988095238095239" height="18.71194495224063" fill="#ea580c" opacity="0.85"><title>2026-03-17 | BTC buy 29.94 usd | reason=static_target_rebalance</title></rect>
<rect x="1217.8131812966149" y="534.7455679825466" width="7.988095238095239" height="7.754432017453382" fill="#ea580c" opacity="0.85"><title>2026-03-24 | BTC buy 12.41 usd | reason=static_target_rebalance</title></rect>
<rect x="1232.5119764773378" y="527.541020069089" width="7.988095238095239" height="14.958979930911028" fill="#ea580c" opacity="0.85"><title>2026-03-31 | BTC buy 23.93 usd | reason=static_target_rebalance</title></rect>
<rect x="1247.2107716580606" y="541.9376599299385" width="7.988095238095239" height="1.5" fill="#ea580c" opacity="0.85"><title>2026-04-07 | BTC buy 0.90 usd | reason=static_target_rebalance</title></rect>
<rect x="1261.9095668387836" y="542.5" width="7.988095238095239" height="4.074500949684079" fill="#dc2626" opacity="0.85"><title>2026-04-14 | BTC sell 6.52 usd | reason=static_target_rebalance</title></rect>
<rect x="1276.6083620195066" y="542.5" width="7.988095238095239" height="21.727119000977495" fill="#dc2626" opacity="0.85"><title>2026-04-21 | BTC sell 34.76 usd | reason=static_target_rebalance</title></rect>
<rect x="1291.3071572002293" y="542.5" width="7.988095238095239" height="18.456185748349185" fill="#dc2626" opacity="0.85"><title>2026-04-28 | BTC sell 29.53 usd | reason=static_target_rebalance</title></rect>
<rect x="1306.0059523809523" y="542.5" width="7.988095238095239" height="37.48431647819302" fill="#dc2626" opacity="0.85"><title>2026-05-05 | BTC sell 59.97 usd | reason=static_target_rebalance</title></rect>
<text x="24" y="542.5" transform="rotate(-90 24,542.5)" text-anchor="middle" font-family="monospace" font-size="14" fill="#0f172a">BTC weekly trade usd</text>
<line x1="90" y1="770" x2="1310" y2="770" stroke="#334155" stroke-width="2"/>
<line x1="90" y1="645" x2="90" y2="770" stroke="#334155" stroke-width="2"/>
<line x1="90" y1="707.5" x2="1310" y2="707.5" stroke="#64748b" stroke-width="1.5" stroke-dasharray="6 4"/>
<line x1="90" y1="770.0" x2="1310" y2="770.0" stroke="#e2e8f0" stroke-width="1"/>
<text x="78" y="774.0" text-anchor="end" font-family="monospace" font-size="11" fill="#475569">-400</text>
<line x1="90" y1="707.5" x2="1310" y2="707.5" stroke="#e2e8f0" stroke-width="1"/>
<text x="78" y="711.5" text-anchor="end" font-family="monospace" font-size="11" fill="#475569">0</text>
<line x1="90" y1="645.0" x2="1310" y2="645.0" stroke="#e2e8f0" stroke-width="1"/>
<text x="78" y="649.0" text-anchor="end" font-family="monospace" font-size="11" fill="#475569">400</text>
<rect x="86.00595238095238" y="691.8661238148438" width="7.988095238095239" height="15.633876185156169" fill="#2563eb" opacity="0.85"><title>2024-10-01 | ETH buy 100.00 usd | reason=static_target_rebalance</title></rect>
<rect x="100.70474756167528" y="691.8661238148438" width="7.988095238095239" height="15.633876185156169" fill="#2563eb" opacity="0.85"><title>2024-10-08 | ETH buy 100.00 usd | reason=static_target_rebalance</title></rect>
<rect x="115.40354274239817" y="691.8661238148438" width="7.988095238095239" height="15.633876185156169" fill="#2563eb" opacity="0.85"><title>2024-10-15 | ETH buy 100.00 usd | reason=static_target_rebalance</title></rect>
<rect x="130.10233792312104" y="691.8661238148438" width="7.988095238095239" height="15.633876185156169" fill="#2563eb" opacity="0.85"><title>2024-10-22 | ETH buy 100.00 usd | reason=static_target_rebalance</title></rect>
<rect x="144.80113310384397" y="691.8661238148438" width="7.988095238095239" height="15.633876185156169" fill="#2563eb" opacity="0.85"><title>2024-10-29 | ETH buy 100.00 usd | reason=static_target_rebalance</title></rect>
<rect x="159.49992828456683" y="691.8661238148438" width="7.988095238095239" height="15.633876185156169" fill="#2563eb" opacity="0.85"><title>2024-11-05 | ETH buy 100.00 usd | reason=static_target_rebalance</title></rect>
<rect x="174.19872346528973" y="691.8661238148438" width="7.988095238095239" height="15.633876185156169" fill="#2563eb" opacity="0.85"><title>2024-11-12 | ETH buy 100.00 usd | reason=static_target_rebalance</title></rect>
<rect x="188.89751864601263" y="691.8661238148438" width="7.988095238095239" height="15.633876185156169" fill="#2563eb" opacity="0.85"><title>2024-11-19 | ETH buy 100.00 usd | reason=static_target_rebalance</title></rect>
<rect x="203.59631382673552" y="691.8661238148438" width="7.988095238095239" height="15.633876185156169" fill="#2563eb" opacity="0.85"><title>2024-11-26 | ETH buy 100.00 usd | reason=static_target_rebalance</title></rect>
<rect x="218.2951090074584" y="691.8661238148438" width="7.988095238095239" height="15.633876185156169" fill="#2563eb" opacity="0.85"><title>2024-12-03 | ETH buy 100.00 usd | reason=static_target_rebalance</title></rect>
<rect x="232.9939041881813" y="691.8661238148438" width="7.988095238095239" height="15.633876185156169" fill="#2563eb" opacity="0.85"><title>2024-12-10 | ETH buy 100.00 usd | reason=static_target_rebalance</title></rect>
<rect x="247.6926993689042" y="691.8661238148438" width="7.988095238095239" height="15.633876185156169" fill="#2563eb" opacity="0.85"><title>2024-12-17 | ETH buy 100.00 usd | reason=static_target_rebalance</title></rect>
<rect x="262.3914945496271" y="691.8661238148438" width="7.988095238095239" height="15.633876185156169" fill="#2563eb" opacity="0.85"><title>2024-12-24 | ETH buy 100.00 usd | reason=static_target_rebalance</title></rect>
<rect x="277.09028973035004" y="691.8661238148438" width="7.988095238095239" height="15.633876185156169" fill="#2563eb" opacity="0.85"><title>2024-12-31 | ETH buy 100.00 usd | reason=static_target_rebalance</title></rect>
<rect x="291.7890849110729" y="691.8661238148438" width="7.988095238095239" height="15.633876185156169" fill="#2563eb" opacity="0.85"><title>2025-01-07 | ETH buy 100.00 usd | reason=static_target_rebalance</title></rect>
<rect x="306.4878800917958" y="691.8661238148438" width="7.988095238095239" height="15.633876185156169" fill="#2563eb" opacity="0.85"><title>2025-01-14 | ETH buy 100.00 usd | reason=static_target_rebalance</title></rect>
<rect x="321.1866752725187" y="691.8661238148438" width="7.988095238095239" height="15.633876185156169" fill="#2563eb" opacity="0.85"><title>2025-01-21 | ETH buy 100.00 usd | reason=static_target_rebalance</title></rect>
<rect x="335.88547045324157" y="691.8661238148438" width="7.988095238095239" height="15.633876185156169" fill="#2563eb" opacity="0.85"><title>2025-01-28 | ETH buy 100.00 usd | reason=static_target_rebalance</title></rect>
<rect x="350.58426563396443" y="691.8661238148438" width="7.988095238095239" height="15.633876185156169" fill="#2563eb" opacity="0.85"><title>2025-02-04 | ETH buy 100.00 usd | reason=static_target_rebalance</title></rect>
<rect x="365.28306081468736" y="691.8661238148438" width="7.988095238095239" height="15.633876185156169" fill="#2563eb" opacity="0.85"><title>2025-02-11 | ETH buy 100.00 usd | reason=static_target_rebalance</title></rect>
<rect x="379.9818559954102" y="691.8661238148438" width="7.988095238095239" height="15.633876185156169" fill="#2563eb" opacity="0.85"><title>2025-02-18 | ETH buy 100.00 usd | reason=static_target_rebalance</title></rect>
<rect x="394.6806511761331" y="691.8661238148438" width="7.988095238095239" height="15.633876185156169" fill="#2563eb" opacity="0.85"><title>2025-02-25 | ETH buy 100.00 usd | reason=static_target_rebalance</title></rect>
<rect x="409.379446356856" y="691.8661238148438" width="7.988095238095239" height="15.633876185156169" fill="#2563eb" opacity="0.85"><title>2025-03-04 | ETH buy 100.00 usd | reason=static_target_rebalance</title></rect>
<rect x="424.07824153757895" y="691.8661238148438" width="7.988095238095239" height="15.633876185156169" fill="#2563eb" opacity="0.85"><title>2025-03-11 | ETH buy 100.00 usd | reason=static_target_rebalance</title></rect>
<rect x="438.7770367183018" y="691.8661238148438" width="7.988095238095239" height="15.633876185156169" fill="#2563eb" opacity="0.85"><title>2025-03-18 | ETH buy 100.00 usd | reason=static_target_rebalance</title></rect>
<rect x="453.47583189902474" y="691.8661238148438" width="7.988095238095239" height="15.633876185156169" fill="#2563eb" opacity="0.85"><title>2025-03-25 | ETH buy 100.00 usd | reason=static_target_rebalance</title></rect>
<rect x="468.1746270797476" y="691.8661238148438" width="7.988095238095239" height="15.633876185156169" fill="#2563eb" opacity="0.85"><title>2025-04-01 | ETH buy 100.00 usd | reason=static_target_rebalance</title></rect>
<rect x="482.8734222604705" y="691.8661238148438" width="7.988095238095239" height="15.633876185156169" fill="#2563eb" opacity="0.85"><title>2025-04-08 | ETH buy 100.00 usd | reason=static_target_rebalance</title></rect>
<rect x="497.57221744119335" y="691.8661238148438" width="7.988095238095239" height="15.633876185156169" fill="#2563eb" opacity="0.85"><title>2025-04-15 | ETH buy 100.00 usd | reason=static_target_rebalance</title></rect>
<rect x="512.2710126219163" y="691.8661238148438" width="7.988095238095239" height="15.633876185156169" fill="#2563eb" opacity="0.85"><title>2025-04-22 | ETH buy 100.00 usd | reason=static_target_rebalance</title></rect>
<rect x="526.9698078026391" y="691.8661238148438" width="7.988095238095239" height="15.633876185156169" fill="#2563eb" opacity="0.85"><title>2025-04-29 | ETH buy 100.00 usd | reason=static_target_rebalance</title></rect>
<rect x="541.668602983362" y="691.8661238148438" width="7.988095238095239" height="15.633876185156169" fill="#2563eb" opacity="0.85"><title>2025-05-06 | ETH buy 100.00 usd | reason=static_target_rebalance</title></rect>
<rect x="556.367398164085" y="691.8661238148438" width="7.988095238095239" height="15.633876185156169" fill="#2563eb" opacity="0.85"><title>2025-05-13 | ETH buy 100.00 usd | reason=static_target_rebalance</title></rect>
<rect x="571.0661933448079" y="691.8661238148438" width="7.988095238095239" height="15.633876185156169" fill="#2563eb" opacity="0.85"><title>2025-05-20 | ETH buy 100.00 usd | reason=static_target_rebalance</title></rect>
<rect x="585.7649885255307" y="691.8661238148438" width="7.988095238095239" height="15.633876185156169" fill="#2563eb" opacity="0.85"><title>2025-05-27 | ETH buy 100.00 usd | reason=static_target_rebalance</title></rect>
<rect x="600.4637837062536" y="691.8661238148438" width="7.988095238095239" height="15.633876185156169" fill="#2563eb" opacity="0.85"><title>2025-06-03 | ETH buy 100.00 usd | reason=static_target_rebalance</title></rect>
<rect x="615.1625788869765" y="691.8661238148438" width="7.988095238095239" height="15.633876185156169" fill="#2563eb" opacity="0.85"><title>2025-06-10 | ETH buy 100.00 usd | reason=static_target_rebalance</title></rect>
<rect x="629.8613740676993" y="691.8661238148438" width="7.988095238095239" height="15.633876185156169" fill="#2563eb" opacity="0.85"><title>2025-06-17 | ETH buy 100.00 usd | reason=static_target_rebalance</title></rect>
<rect x="644.5601692484223" y="691.8661238148438" width="7.988095238095239" height="15.633876185156169" fill="#2563eb" opacity="0.85"><title>2025-06-24 | ETH buy 100.00 usd | reason=static_target_rebalance</title></rect>
<rect x="659.2589644291452" y="691.8661238148438" width="7.988095238095239" height="15.633876185156169" fill="#2563eb" opacity="0.85"><title>2025-07-01 | ETH buy 100.00 usd | reason=static_target_rebalance</title></rect>
<rect x="673.957759609868" y="691.8661238148438" width="7.988095238095239" height="15.633876185156169" fill="#2563eb" opacity="0.85"><title>2025-07-08 | ETH buy 100.00 usd | reason=static_target_rebalance</title></rect>
<rect x="688.6565547905909" y="707.5" width="7.988095238095239" height="19.27884892091231" fill="#7c3aed" opacity="0.85"><title>2025-07-15 | ETH sell 123.31 usd | reason=static_target_rebalance</title></rect>
<rect x="703.3553499713138" y="707.5" width="7.988095238095239" height="52.711628441192374" fill="#7c3aed" opacity="0.85"><title>2025-07-22 | ETH sell 337.16 usd | reason=static_target_rebalance</title></rect>
<rect x="718.0541451520368" y="707.5" width="7.988095238095239" height="32.281439065454265" fill="#7c3aed" opacity="0.85"><title>2025-07-29 | ETH sell 206.48 usd | reason=static_target_rebalance</title></rect>
<rect x="732.7529403327596" y="707.5" width="7.988095238095239" height="8.797076338311285" fill="#7c3aed" opacity="0.85"><title>2025-08-05 | ETH sell 56.27 usd | reason=static_target_rebalance</title></rect>
<rect x="747.4517355134825" y="707.5" width="7.988095238095239" height="62.5" fill="#7c3aed" opacity="0.85"><title>2025-08-12 | ETH sell 399.77 usd | reason=static_target_rebalance</title></rect>
<rect x="762.1505306942055" y="707.5" width="7.988095238095239" height="8.615779163593515" fill="#7c3aed" opacity="0.85"><title>2025-08-19 | ETH sell 55.11 usd | reason=static_target_rebalance</title></rect>
<rect x="776.8493258749284" y="707.5" width="7.988095238095239" height="38.967983242993114" fill="#7c3aed" opacity="0.85"><title>2025-08-26 | ETH sell 249.25 usd | reason=static_target_rebalance</title></rect>
<rect x="791.5481210556512" y="707.5" width="7.988095238095239" height="3.6230447310274485" fill="#7c3aed" opacity="0.85"><title>2025-09-02 | ETH sell 23.17 usd | reason=static_target_rebalance</title></rect>
<rect x="806.2469162363741" y="707.5" width="7.988095238095239" height="1.5" fill="#7c3aed" opacity="0.85"><title>2025-09-09 | ETH sell 2.33 usd | reason=static_target_rebalance</title></rect>
<rect x="820.9457114170971" y="707.5" width="7.988095238095239" height="3.8518227119117228" fill="#7c3aed" opacity="0.85"><title>2025-09-16 | ETH sell 24.64 usd | reason=static_target_rebalance</title></rect>
<rect x="835.6445065978198" y="696.4981289432685" width="7.988095238095239" height="11.001871056731488" fill="#2563eb" opacity="0.85"><title>2025-09-23 | ETH buy 70.37 usd | reason=static_target_rebalance</title></rect>
<rect x="850.3433017785428" y="697.7111902498361" width="7.988095238095239" height="9.788809750163864" fill="#2563eb" opacity="0.85"><title>2025-09-30 | ETH buy 62.61 usd | reason=static_target_rebalance</title></rect>
<rect x="865.0420969592656" y="707.5" width="7.988095238095239" height="2.6856616326331277" fill="#7c3aed" opacity="0.85"><title>2025-10-07 | ETH sell 17.18 usd | reason=static_target_rebalance</title></rect>
<rect x="879.7408921399885" y="701.5425694814445" width="7.988095238095239" height="5.957430518555498" fill="#2563eb" opacity="0.85"><title>2025-10-14 | ETH buy 38.11 usd | reason=static_target_rebalance</title></rect>
<rect x="894.4396873207115" y="696.0749656933115" width="7.988095238095239" height="11.42503430668853" fill="#2563eb" opacity="0.85"><title>2025-10-21 | ETH buy 73.08 usd | reason=static_target_rebalance</title></rect>
<rect x="909.1384825014343" y="701.5381893997896" width="7.988095238095239" height="5.961810600210356" fill="#2563eb" opacity="0.85"><title>2025-10-28 | ETH buy 38.13 usd | reason=static_target_rebalance</title></rect>
<rect x="923.8372776821573" y="691.8661238148438" width="7.988095238095239" height="15.633876185156169" fill="#2563eb" opacity="0.85"><title>2025-11-04 | ETH buy 100.00 usd | reason=static_target_rebalance</title></rect>
<rect x="938.5360728628801" y="691.8661238148438" width="7.988095238095239" height="15.633876185156169" fill="#2563eb" opacity="0.85"><title>2025-11-11 | ETH buy 100.00 usd | reason=static_target_rebalance</title></rect>
<rect x="953.234868043603" y="695.2828970042775" width="7.988095238095239" height="12.217102995722485" fill="#2563eb" opacity="0.85"><title>2025-11-18 | ETH buy 78.15 usd | reason=static_target_rebalance</title></rect>
<rect x="967.9336632243259" y="698.8558845100024" width="7.988095238095239" height="8.644115489997603" fill="#2563eb" opacity="0.85"><title>2025-11-25 | ETH buy 55.29 usd | reason=static_target_rebalance</title></rect>
<rect x="982.6324584050489" y="699.6977494368565" width="7.988095238095239" height="7.802250563143502" fill="#2563eb" opacity="0.85"><title>2025-12-02 | ETH buy 49.91 usd | reason=static_target_rebalance</title></rect>
<rect x="997.3312535857716" y="707.5" width="7.988095238095239" height="16.09731944455814" fill="#7c3aed" opacity="0.85"><title>2025-12-09 | ETH sell 102.96 usd | reason=static_target_rebalance</title></rect>
<rect x="1012.0300487664946" y="699.0594201698751" width="7.988095238095239" height="8.440579830124875" fill="#2563eb" opacity="0.85"><title>2025-12-16 | ETH buy 53.99 usd | reason=static_target_rebalance</title></rect>
<rect x="1026.7288439472175" y="703.9979842269836" width="7.988095238095239" height="3.50201577301641" fill="#2563eb" opacity="0.85"><title>2025-12-23 | ETH buy 22.40 usd | reason=static_target_rebalance</title></rect>
<rect x="1041.4276391279402" y="704.7650259534414" width="7.988095238095239" height="2.734974046558591" fill="#2563eb" opacity="0.85"><title>2025-12-30 | ETH buy 17.49 usd | reason=static_target_rebalance</title></rect>
<rect x="1056.1264343086632" y="707.5" width="7.988095238095239" height="12.732379883705448" fill="#7c3aed" opacity="0.85"><title>2026-01-06 | ETH sell 81.44 usd | reason=static_target_rebalance</title></rect>
<rect x="1070.825229489386" y="707.5" width="7.988095238095239" height="5.662982991727745" fill="#7c3aed" opacity="0.85"><title>2026-01-13 | ETH sell 36.22 usd | reason=static_target_rebalance</title></rect>
<rect x="1085.524024670109" y="695.349348189492" width="7.988095238095239" height="12.150651810507952" fill="#2563eb" opacity="0.85"><title>2026-01-20 | ETH buy 77.72 usd | reason=static_target_rebalance</title></rect>
<rect x="1100.222819850832" y="706.0112567975114" width="7.988095238095239" height="1.5" fill="#2563eb" opacity="0.85"><title>2026-01-27 | ETH buy 9.52 usd | reason=static_target_rebalance</title></rect>
<rect x="1114.9216150315547" y="691.8661238148438" width="7.988095238095239" height="15.633876185156169" fill="#2563eb" opacity="0.85"><title>2026-02-03 | ETH buy 100.00 usd | reason=static_target_rebalance</title></rect>
<rect x="1129.6204102122776" y="691.8661238148438" width="7.988095238095239" height="15.633876185156169" fill="#2563eb" opacity="0.85"><title>2026-02-10 | ETH buy 100.00 usd | reason=static_target_rebalance</title></rect>
<rect x="1144.3192053930004" y="691.8661238148438" width="7.988095238095239" height="15.633876185156169" fill="#2563eb" opacity="0.85"><title>2026-02-17 | ETH buy 100.00 usd | reason=static_target_rebalance</title></rect>
<rect x="1159.0180005737234" y="691.8661238148438" width="7.988095238095239" height="15.633876185156169" fill="#2563eb" opacity="0.85"><title>2026-02-24 | ETH buy 100.00 usd | reason=static_target_rebalance</title></rect>
<rect x="1173.7167957544461" y="698.6587120663996" width="7.988095238095239" height="8.84128793360037" fill="#2563eb" opacity="0.85"><title>2026-03-03 | ETH buy 56.55 usd | reason=static_target_rebalance</title></rect>
<rect x="1188.4155909351691" y="704.8077206667883" width="7.988095238095239" height="2.6922793332116726" fill="#2563eb" opacity="0.85"><title>2026-03-10 | ETH buy 17.22 usd | reason=static_target_rebalance</title></rect>
<rect x="1203.114386115892" y="707.5" width="7.988095238095239" height="14.825025144632832" fill="#7c3aed" opacity="0.85"><title>2026-03-17 | ETH sell 94.83 usd | reason=static_target_rebalance</title></rect>
<rect x="1217.8131812966149" y="707.5" width="7.988095238095239" height="1.5" fill="#7c3aed" opacity="0.85"><title>2026-03-24 | ETH sell 0.92 usd | reason=static_target_rebalance</title></rect>
<rect x="1232.5119764773378" y="707.1822652731413" width="7.988095238095239" height="1.5" fill="#2563eb" opacity="0.85"><title>2026-03-31 | ETH buy 2.03 usd | reason=static_target_rebalance</title></rect>
<rect x="1247.2107716580606" y="707.5" width="7.988095238095239" height="4.552885305296968" fill="#7c3aed" opacity="0.85"><title>2026-04-07 | ETH sell 29.12 usd | reason=static_target_rebalance</title></rect>
<rect x="1261.9095668387836" y="707.5" width="7.988095238095239" height="5.138149483661664" fill="#7c3aed" opacity="0.85"><title>2026-04-14 | ETH sell 32.87 usd | reason=static_target_rebalance</title></rect>
<rect x="1276.6083620195066" y="706.9729623292151" width="7.988095238095239" height="1.5" fill="#2563eb" opacity="0.85"><title>2026-04-21 | ETH buy 3.37 usd | reason=static_target_rebalance</title></rect>
<rect x="1291.3071572002293" y="704.3276601422685" width="7.988095238095239" height="3.1723398577314583" fill="#2563eb" opacity="0.85"><title>2026-04-28 | ETH buy 20.29 usd | reason=static_target_rebalance</title></rect>
<rect x="1306.0059523809523" y="704.2400371579984" width="7.988095238095239" height="3.2599628420016415" fill="#2563eb" opacity="0.85"><title>2026-05-05 | ETH buy 20.85 usd | reason=static_target_rebalance</title></rect>
<text x="24" y="707.5" transform="rotate(-90 24,707.5)" text-anchor="middle" font-family="monospace" font-size="14" fill="#0f172a">ETH weekly trade usd</text>
<rect x="1040" y="478" width="14" height="10" fill="#ea580c" opacity="0.85"/>
<text x="1062" y="488" font-family="monospace" font-size="11" fill="#0f172a">BTC buy</text>
<rect x="1190" y="478" width="14" height="10" fill="#dc2626" opacity="0.85"/>
<text x="1212" y="488" font-family="monospace" font-size="11" fill="#0f172a">BTC sell</text>
<rect x="1040" y="498" width="14" height="10" fill="#2563eb" opacity="0.85"/>
<text x="1062" y="508" font-family="monospace" font-size="11" fill="#0f172a">ETH buy</text>
<rect x="1190" y="498" width="14" height="10" fill="#7c3aed" opacity="0.85"/>
<text x="1212" y="508" font-family="monospace" font-size="11" fill="#0f172a">ETH sell</text>
</svg>