<svg xmlns="http://www.w3.org/2000/svg" width="1400" height="800">
<rect width="1400" height="800" fill="#f8fafc"/>
<text x="700.0" y="42" text-anchor="middle" font-family="monospace" font-size="24" fill="#0f172a">static_50_50_rebalance | weekly | start=2024-01-01 | return=11.57%</text>
<line x1="90" y1="420" x2="1310" y2="420" stroke="#334155" stroke-width="2"/>
<line x1="90" y1="90" x2="90" y2="420" stroke="#334155" stroke-width="2"/>
<line x1="90.0" y1="420" x2="90.0" y2="90" stroke="#94a3b8" stroke-width="1.2"/>
<line x1="90.0" y1="605" x2="90.0" y2="480" stroke="#94a3b8" stroke-width="1.2"/>
<line x1="90.0" y1="770" x2="90.0" y2="645" stroke="#94a3b8" stroke-width="1.2"/>
<text x="90.0" y="788" text-anchor="middle" font-family="monospace" font-size="11" fill="#334155">2024-01</text>
<line x1="140.0" y1="420" x2="140.0" y2="90" stroke="#94a3b8" stroke-width="1.2"/>
<line x1="140.0" y1="605" x2="140.0" y2="480" stroke="#94a3b8" stroke-width="1.2"/>
<line x1="140.0" y1="770" x2="140.0" y2="645" stroke="#94a3b8" stroke-width="1.2"/>
<text x="140.0" y="788" text-anchor="middle" font-family="monospace" font-size="11" fill="#334155">2024-02</text>
<line x1="180.0" y1="420" x2="180.0" y2="90" stroke="#94a3b8" stroke-width="1.2"/>
<line x1="180.0" y1="605" x2="180.0" y2="480" stroke="#94a3b8" stroke-width="1.2"/>
<line x1="180.0" y1="770" x2="180.0" y2="645" stroke="#94a3b8" stroke-width="1.2"/>
<text x="180.0" y="788" text-anchor="middle" font-family="monospace" font-size="11" fill="#334155">2024-03</text>
<line x1="220.0" y1="420" x2="220.0" y2="90" stroke="#94a3b8" stroke-width="1.2"/>
<line x1="220.0" y1="605" x2="220.0" y2="480" stroke="#94a3b8" stroke-width="1.2"/>
<line x1="220.0" y1="770" x2="220.0" y2="645" stroke="#94a3b8" stroke-width="1.2"/>
<text x="220.0" y="788" text-anchor="middle" font-family="monospace" font-size="11" fill="#334155">2024-04</text>
<line x1="270.0" y1="420" x2="270.0" y2="90" stroke="#94a3b8" stroke-width="1.2"/>
<line x1="270.0" y1="605" x2="270.0" y2="480" stroke="#94a3b8" stroke-width="1.2"/>
<line x1="270.0" y1="770" x2="270.0" y2="645" stroke="#94a3b8" stroke-width="1.2"/>
<text x="270.0" y="788" text-anchor="middle" font-family="monospace" font-size="11" fill="#334155">2024-05</text>
<line x1="310.0" y1="420" x2="310.0" y2="90" stroke="#94a3b8" stroke-width="1.2"/>
<line x1="310.0" y1="605" x2="310.0" y2="480" stroke="#94a3b8" stroke-width="1.2"/>
<line x1="310.0" y1="770" x2="310.0" y2="645" stroke="#94a3b8" stroke-width="1.2"/>
<text x="310.0" y="788" text-anchor="middle" font-family="monospace" font-size="11" fill="#334155">2024-06</text>
<line x1="350.0" y1="420" x2="350.0" y2="90" stroke="#94a3b8" stroke-width="1.2"/>
<line x1="350.0" y1="605" x2="350.0" y2="480" stroke="#94a3b8" stroke-width="1.2"/>
<line x1="350.0" y1="770" x2="350.0" y2="645" stroke="#94a3b8" stroke-width="1.2"/>
<text x="350.0" y="788" text-anchor="middle" font-family="monospace" font-size="11" fill="#334155">2024-07</text>
<line x1="400.0" y1="420" x2="400.0" y2="90" stroke="#94a3b8" stroke-width="1.2"/>
<line x1="400.0" y1="605" x2="400.0" y2="480" stroke="#94a3b8" stroke-width="1.2"/>
<line x1="400.0" y1="770" x2="400.0" y2="645" stroke="#94a3b8" stroke-width="1.2"/>
<text x="400.0" y="788" text-anchor="middle" font-family="monospace" font-size="11" fill="#334155">2024-08</text>
<line x1="440.0" y1="420" x2="440.0" y2="90" stroke="#94a3b8" stroke-width="1.2"/>
<line x1="440.0" y1="605" x2="440.0" y2="480" stroke="#94a3b8" stroke-width="1.2"/>
<line x1="440.0" y1="770" x2="440.0" y2="645" stroke="#94a3b8" stroke-width="1.2"/>
<text x="440.0" y="788" text-anchor="middle" font-family="monospace" font-size="11" fill="#334155">2024-09</text>
<line x1="489.99999999999994" y1="420" x2="489.99999999999994" y2="90" stroke="#94a3b8" stroke-width="1.2"/>
<line x1="489.99999999999994" y1="605" x2="489.99999999999994" y2="480" stroke="#94a3b8" stroke-width="1.2"/>
<line x1="489.99999999999994" y1="770" x2="489.99999999999994" y2="645" stroke="#94a3b8" stroke-width="1.2"/>
<text x="489.99999999999994" y="788" text-anchor="middle" font-family="monospace" font-size="11" fill="#334155">2024-10</text>
<line x1="530.0" y1="420" x2="530.0" y2="90" stroke="#94a3b8" stroke-width="1.2"/>
<line x1="530.0" y1="605" x2="530.0" y2="480" stroke="#94a3b8" stroke-width="1.2"/>
<line x1="530.0" y1="770" x2="530.0" y2="645" stroke="#94a3b8" stroke-width="1.2"/>
<text x="530.0" y="788" text-anchor="middle" font-family="monospace" font-size="11" fill="#334155">2024-11</text>
<line x1="570.0" y1="420" x2="570.0" y2="90" stroke="#94a3b8" stroke-width="1.2"/>
<line x1="570.0" y1="605" x2="570.0" y2="480" stroke="#94a3b8" stroke-width="1.2"/>
<line x1="570.0" y1="770" x2="570.0" y2="645" stroke="#94a3b8" stroke-width="1.2"/>
<text x="570.0" y="788" text-anchor="middle" font-family="monospace" font-size="11" fill="#334155">2024-12</text>
<line x1="620.0" y1="420" x2="620.0" y2="90" stroke="#94a3b8" stroke-width="1.2"/>
<line x1="620.0" y1="605" x2="620.0" y2="480" stroke="#94a3b8" stroke-width="1.2"/>
<line x1="620.0" y1="770" x2="620.0" y2="645" stroke="#94a3b8" stroke-width="1.2"/>
<text x="620.0" y="788" text-anchor="middle" font-family="monospace" font-size="11" fill="#334155">2025-01</text>
<line x1="660.0" y1="420" x2="660.0" y2="90" stroke="#94a3b8" stroke-width="1.2"/>
<line x1="660.0" y1="605" x2="660.0" y2="480" stroke="#94a3b8" stroke-width="1.2"/>
<line x1="660.0" y1="770" x2="660.0" y2="645" stroke="#94a3b8" stroke-width="1.2"/>
<text x="660.0" y="788" text-anchor="middle" font-family="monospace" font-size="11" fill="#334155">2025-02</text>
<line x1="700.0" y1="420" x2="700.0" y2="90" stroke="#94a3b8" stroke-width="1.2"/>
<line x1="700.0" y1="605" x2="700.0" y2="480" stroke="#94a3b8" stroke-width="1.2"/>
<line x1="700.0" y1="770" x2="700.0" y2="645" stroke="#94a3b8" stroke-width="1.2"/>
<text x="700.0" y="788" text-anchor="middle" font-family="monospace" font-size="11" fill="#334155">2025-03</text>
<line x1="750.0" y1="420" x2="750.0" y2="90" stroke="#94a3b8" stroke-width="1.2"/>
<line x1="750.0" y1="605" x2="750.0" y2="480" stroke="#94a3b8" stroke-width="1.2"/>
<line x1="750.0" y1="770" x2="750.0" y2="645" stroke="#94a3b8" stroke-width="1.2"/>
<text x="750.0" y="788" text-anchor="middle" font-family="monospace" font-size="11" fill="#334155">2025-04</text>
<line x1="790.0" y1="420" x2="790.0" y2="90" stroke="#94a3b8" stroke-width="1.2"/>
<line x1="790.0" y1="605" x2="790.0" y2="480" stroke="#94a3b8" stroke-width="1.2"/>
<line x1="790.0" y1="770" x2="790.0" y2="645" stroke="#94a3b8" stroke-width="1.2"/>
<text x="790.0" y="788" text-anchor="middle" font-family="monospace" font-size="11" fill="#334155">2025-05</text>
<line x1="830.0" y1="420" x2="830.0" y2="90" stroke="#94a3b8" stroke-width="1.2"/>
<line x1="830.0" y1="605" x2="830.0" y2="480" stroke="#94a3b8" stroke-width="1.2"/>
<line x1="830.0" y1="770" x2="830.0" y2="645" stroke="#94a3b8" stroke-width="1.2"/>
<text x="830.0" y="788" text-anchor="middle" font-family="monospace" font-size="11" fill="#334155">2025-06</text>
<line x1="880.0000000000001" y1="420" x2="880.0000000000001" y2="90" stroke="#94a3b8" stroke-width="1.2"/>
<line x1="880.0000000000001" y1="605" x2="880.0000000000001" y2="480" stroke="#94a3b8" stroke-width="1.2"/>
<line x1="880.0000000000001" y1="770" x2="880.0000000000001" y2="645" stroke="#94a3b8" stroke-width="1.2"/>
<text x="880.0000000000001" y="788" text-anchor="middle" font-family="monospace" font-size="11" fill="#334155">2025-07</text>
<line x1="920.0" y1="420" x2="920.0" y2="90" stroke="#94a3b8" stroke-width="1.2"/>
<line x1="920.0" y1="605" x2="920.0" y2="480" stroke="#94a3b8" stroke-width="1.2"/>
<line x1="920.0" y1="770" x2="920.0" y2="645" stroke="#94a3b8" stroke-width="1.2"/>
<text x="920.0" y="788" text-anchor="middle" font-family="monospace" font-size="11" fill="#334155">2025-08</text>
<line x1="960.0" y1="420" x2="960.0" y2="90" stroke="#94a3b8" stroke-width="1.2"/>
<line x1="960.0" y1="605" x2="960.0" y2="480" stroke="#94a3b8" stroke-width="1.2"/>
<line x1="960.0" y1="770" x2="960.0" y2="645" stroke="#94a3b8" stroke-width="1.2"/>
<text x="960.0" y="788" text-anchor="middle" font-family="monospace" font-size="11" fill="#334155">2025-09</text>
<line x1="1009.9999999999999" y1="420" x2="1009.9999999999999" y2="90" stroke="#94a3b8" stroke-width="1.2"/>
<line x1="1009.9999999999999" y1="605" x2="1009.9999999999999" y2="480" stroke="#94a3b8" stroke-width="1.2"/>
<line x1="1009.9999999999999" y1="770" x2="1009.9999999999999" y2="645" stroke="#94a3b8" stroke-width="1.2"/>
<text x="1009.9999999999999" y="788" text-anchor="middle" font-family="monospace" font-size="11" fill="#334155">2025-10</text>
<line x1="1050.0" y1="420" x2="1050.0" y2="90" stroke="#94a3b8" stroke-width="1.2"/>
<line x1="1050.0" y1="605" x2="1050.0" y2="480" stroke="#94a3b8" stroke-width="1.2"/>
<line x1="1050.0" y1="770" x2="1050.0" y2="645" stroke="#94a3b8" stroke-width="1.2"/>
<text x="1050.0" y="788" text-anchor="middle" font-family="monospace" font-size="11" fill="#334155">2025-11</text>
<line x1="1090.0" y1="420" x2="1090.0" y2="90" stroke="#94a3b8" stroke-width="1.2"/>
<line x1="1090.0" y1="605" x2="1090.0" y2="480" stroke="#94a3b8" stroke-width="1.2"/>
<line x1="1090.0" y1="770" x2="1090.0" y2="645" stroke="#94a3b8" stroke-width="1.2"/>
<text x="1090.0" y="788" text-anchor="middle" font-family="monospace" font-size="11" fill="#334155">2025-12</text>
<line x1="1140.0" y1="420" x2="1140.0" y2="90" stroke="#94a3b8" stroke-width="1.2"/>
<line x1="1140.0" y1="605" x2="1140.0" y2="480" stroke="#94a3b8" stroke-width="1.2"/>
<line x1="1140.0" y1="770" x2="1140.0" y2="645" stroke="#94a3b8" stroke-width="1.2"/>
<text x="1140.0" y="788" text-anchor="middle" font-family="monospace" font-size="11" fill="#334155">2026-01</text>
<line x1="1180.0" y1="420" x2="1180.0" y2="90" stroke="#94a3b8" stroke-width="1.2"/>
<line x1="1180.0" y1="605" x2="1180.0" y2="480" stroke="#94a3b8" stroke-width="1.2"/>
<line x1="1180.0" y1="770" x2="1180.0" y2="645" stroke="#94a3b8" stroke-width="1.2"/>
<text x="1180.0" y="788" text-anchor="middle" font-family="monospace" font-size="11" fill="#334155">2026-02</text>
<line x1="1220.0" y1="420" x2="1220.0" y2="90" stroke="#94a3b8" stroke-width="1.2"/>
<line x1="1220.0" y1="605" x2="1220.0" y2="480" stroke="#94a3b8" stroke-width="1.2"/>
<line x1="1220.0" y1="770" x2="1220.0" y2="645" stroke="#94a3b8" stroke-width="1.2"/>
<text x="1220.0" y="788" text-anchor="middle" font-family="monospace" font-size="11" fill="#334155">2026-03</text>
<line x1="1270.0" y1="420" x2="1270.0" y2="90" stroke="#94a3b8" stroke-width="1.2"/>
<line x1="1270.0" y1="605" x2="1270.0" y2="480" stroke="#94a3b8" stroke-width="1.2"/>
<line x1="1270.0" y1="770" x2="1270.0" y2="645" stroke="#94a3b8" stroke-width="1.2"/>
<text x="1270.0" y="788" text-anchor="middle" font-family="monospace" font-size="11" fill="#334155">2026-04</text>
<line x1="1310.0" y1="420" x2="1310.0" y2="90" stroke="#94a3b8" stroke-width="1.2"/>
<line x1="1310.0" y1="605" x2="1310.0" y2="480" stroke="#94a3b8" stroke-width="1.2"/>
<line x1="1310.0" y1="770" x2="1310.0" y2="645" stroke="#94a3b8" stroke-width="1.2"/>
<text x="1310.0" y="788" text-anchor="middle" font-family="monospace" font-size="11" fill="#334155">2026-05</text>
<line x1="90" y1="420.0" x2="1310" y2="420.0" stroke="#cbd5e1" stroke-width="1"/>
<text x="78" y="424.0" text-anchor="end" font-family="monospace" font-size="12" fill="#475569">0</text>
<line x1="90" y1="354.0" x2="1310" y2="354.0" stroke="#cbd5e1" stroke-width="1"/>
<text x="78" y="358.0" text-anchor="end" font-family="monospace" font-size="12" fill="#475569">3443</text>
<line x1="90" y1="288.0" x2="1310" y2="288.0" stroke="#cbd5e1" stroke-width="1"/>
<text x="78" y="292.0" text-anchor="end" font-family="monospace" font-size="12" fill="#475569">6885</text>
<line x1="90" y1="222.0" x2="1310" y2="222.0" stroke="#cbd5e1" stroke-width="1"/>
<text x="78" y="226.0" text-anchor="end" font-family="monospace" font-size="12" fill="#475569">10328</text>
<line x1="90" y1="156.0" x2="1310" y2="156.0" stroke="#cbd5e1" stroke-width="1"/>
<text x="78" y="160.0" text-anchor="end" font-family="monospace" font-size="12" fill="#475569">13771</text>
<line x1="90" y1="90.0" x2="1310" y2="90.0" stroke="#cbd5e1" stroke-width="1"/>
<text x="78" y="94.0" text-anchor="end" font-family="monospace" font-size="12" fill="#475569">17213</text>
<polygon points="90.0,232.12088398801686 100.0,235.95515166173078 110.0,239.78941933544473 120.0,243.6236870091587 130.0,247.4579546828726 140.0,251.29222235658654 150.0,255.1264900303005 160.0,258.96075770401444 170.0,262.7950253777284 180.0,266.62929305144235 190.0,270.4635607251563 200.0,274.2978283988702 210.0,278.13209607258415 220.0,281.96636374629804 230.0,285.800631420012 240.0,289.63489909372595 250.0,293.4691667674399 260.0,297.30343444115385 270.0,301.1377021148678 280.0,304.97196978858176 290.0,308.8062374622957 300.0,312.6405051360096 310.0,316.47477280972356 320.0,320.3090404834375 330.0,324.14330815715147 340.0,327.97757583086536 350.0,331.8118435045793 360.0,335.64611117829327 370.0,339.4803788520072 380.0,343.3146465257212 390.0,347.1489141994351 400.0,350.983181873149 410.0,354.817449546863 420.0,358.6517172205769 429.99999999999994,362.4859848942909 440.0,366.32025256800483 450.0,369.6146861654237 460.0,371.49758796641777 470.0,373.27187479361737 480.0,374.9019654084601 489.99999999999994,376.1378267641751 500.0,377.45048329956813 510.0,378.8158031606837 520.0,378.99395131322353 530.0,379.7897497554335 540.0,375.86283344424976 550.0,374.19114093619896 560.0,372.4853304662888 570.0,370.65842670256825 580.0,369.39155460567963 590.0,367.0476298495127 600.0,368.6654149159185 610.0,369.87810453331207 620.0,368.5055742682254 630.0,369.16112855458425 640.0,368.93342589077724 650.0,369.2134223065389 660.0,368.6685819141714 670.0,369.13786326105634 680.0,371.3323658852591 690.0,373.1085196714663 700.0,374.0453464450284 710.0,375.68631655326675 720.0,376.3614944272236 730.0,377.81017753324045 740.0,378.9378895592942 750.0,379.3251443956123 760.0000000000001,379.58346473536113 769.9999999999999,379.54196686538705 780.0,380.1017740579106 790.0,380.3224109022822 800.0,375.1028196159225 810.0,373.53610535104485 820.0,372.6072002642563 830.0,372.2831013543249 840.0,371.4583572417264 850.0,371.85992961163504 860.0,372.68286657257903 870.0,372.661070835433 880.0000000000001,372.33923694596433 889.9999999999999,369.36231635418716 900.0,360.84788786148033 910.0,357.30185491309334 920.0,356.69687033842393 930.0,353.22836893231613 940.0,351.15763957063524 950.0,349.3350616906803 960.0,349.74441802224504 970.0,351.55422442354296 980.0,352.23116862023505 990.0,355.69699805473317 1000.0000000000001,357.2976527270531 1009.9999999999999,355.64882636352655 1020.0,357.0830781738216 1030.0,359.0595726647524 1040.0,359.26555160017716 1050.0,360.439572416451 1060.0,361.951535320191 1070.0,364.7787954566879 1080.0,367.9063389228153 1090.0,370.0930444333121 1100.0,370.1762608261269 1110.0,371.19375493233946 1120.0,371.32859079459655 1130.0,371.79137164835896 1140.0,370.339388439996 1150.0,370.3333681206118 1160.0,369.8740785444628 1170.0,370.94688933849375 1180.0,372.1297750552763 1190.0,374.855289246452 1200.0,376.85786919993166 1210.0,379.2123176420238 1220.0,380.64306461454225 1230.0,381.52848197783607 1240.0,379.92211854429473 1250.0,380.29395380628966 1260.0,381.40160995337015 1270.0,381.4150963581848 1280.0,379.8324357933491 1290.0,379.08169994854507 1300.0,378.58083512298305 1310.0,377.90016162120594 1310.0,420.0 1300.0,420.0 1290.0,420.0 1280.0,420.0 1270.0,420.0 1260.0,420.0 1250.0,420.0 1240.0,420.0 1230.0,420.0 1220.0,420.0 1210.0,420.0 1200.0,420.0 1190.0,420.0 1180.0,420.0 1170.0,420.0 1160.0,420.0 1150.0,420.0 1140.0,420.0 1130.0,420.0 1120.0,420.0 1110.0,420.0 1100.0,420.0 1090.0,420.0 1080.0,420.0 1070.0,420.0 1060.0,420.0 1050.0,420.0 1040.0,420.0 1030.0,420.0 1020.0,420.0 1009.9999999999999,420.0 1000.0000000000001,420.0 990.0,420.0 980.0,420.0 970.0,420.0 960.0,420.0 950.0,420.0 940.0,420.0 930.0,420.0 920.0,420.0 910.0,420.0 900.0,420.0 889.9999999999999,420.0 880.0000000000001,420.0 870.0,420.0 860.0,420.0 850.0,420.0 840.0,420.0 830.0,420.0 820.0,420.0 810.0,420.0 800.0,420.0 790.0,420.0 780.0,420.0 769.9999999999999,420.0 760.0000000000001,420.0 750.0,420.0 740.0,420.0 730.0,420.0 720.0,420.0 710.0,420.0 700.0,420.0 690.0,420.0 680.0,420.0 670.0,420.0 660.0,420.0 650.0,420.0 640.0,420.0 630.0,420.0 620.0,420.0 610.0,420.0 600.0,420.0 590.0,420.0 580.0,420.0 570.0,420.0 560.0,420.0 550.0,420.0 540.0,420.0 530.0,420.0 520.0,420.0 510.0,420.0 500.0,420.0 489.99999999999994,420.0 480.0,420.0 470.0,420.0 460.0,420.0 450.0,420.0 440.0,420.0 429.99999999999994,420.0 420.0,420.0 410.0,420.0 400.0,420.0 390.0,420.0 380.0,420.0 370.0,420.0 360.0,420.0 350.0,420.0 340.0,420.0 330.0,420.0 320.0,420.0 310.0,420.0 300.0,420.0 290.0,420.0 280.0,420.0 270.0,420.0 260.0,420.0 250.0,420.0 240.0,420.0 230.0,420.0 220.0,420.0 210.0,420.0 200.0,420.0 190.0,420.0 180.0,420.0 170.0,420.0 160.0,420.0 150.0,420.0 140.0,420.0 130.0,420.0 120.0,420.0 110.0,420.0 100.0,420.0 90.0,420.0" fill="#facc15" fill-opacity="0.70" stroke="#facc15" stroke-width="1.2"/>
<polygon points="90.0,230.20375015115988 100.0,232.13738459164676 110.0,233.76410749296863 120.0,236.1579965239401 130.0,238.05549179695524 140.0,240.0477262146385 150.0,240.19364806715407 160.0,240.514820845955 170.0,240.9733414570315 180.0,239.76731483947333 190.0,238.4832477267019 200.0,244.69107480279314 210.0,246.01652094955224 220.0,248.6953557886951 230.0,248.82160527177786 240.0,256.65839001019015 250.0,257.5305853049351 260.0,259.2897737540073 270.0,263.01376614899414 280.0,266.3310352647861 290.0,258.9316515872556 300.0,257.7267882528397 310.0,261.40295294649167 320.0,264.78575767939515 330.0,269.0703699074345 340.0,273.4819529654666 350.0,273.96781206797675 360.0,282.95204493287457 370.0,276.7098801749268 380.0,279.4331930218366 390.0,283.64394040680463 400.0,302.73501054824544 410.0,298.6194534791436 420.0,302.30838238115433 429.99999999999994,303.2935645786675 440.0,308.36730954155223 450.0,313.8027608206403 460.0,315.3030552182434 470.0,306.55405007651495 480.0,307.41269855343086 489.99999999999994,311.3908414480456 500.0,305.25032685860066 510.0,303.6929939927051 520.0,304.7637679444417 530.0,308.5221370807843 540.0,277.61439898890785 550.0,280.01029219770294 560.0,273.1588698935684 570.0,266.4845389362204 580.0,264.44244078567067 590.0,255.40460036283596 600.0,271.09912247811553 610.0,273.0771767898422 620.0,262.4339649089188 630.0,277.0644069236474 640.0,270.6813498209016 650.0,271.9935118543242 660.0,278.6460283546255 670.0,284.1208984327552 680.0,281.77193873004273 690.0,289.1620503182058 700.0,300.40021558021766 710.0,309.84301574891185 720.0,306.4054824744659 730.0,300.2956053171762 740.0,309.17269699181605 750.0,317.95771139355537 760.0000000000001,313.4772386309274 769.9999999999999,313.3291676508841 780.0,303.03100941429216 790.0,301.90432185033956 800.0,274.7109239120041 810.0,275.30549750607815 820.0,274.478536100992 830.0,274.31733970637356 840.0,271.7574699801281 850.0,276.7998667269523 860.0,281.1286309470463 870.0,278.13549659670844 880.0000000000001,276.024896255492 889.9999999999999,258.6471863412116 900.0,233.04759627473322 910.0,233.75217656457914 920.0,238.224875987443 930.0,224.107135970847 940.0,223.24621691980585 950.0,223.33598967142015 960.0,227.04537079613948 970.0,229.21616312182474 980.0,224.91899713149076 990.0,235.90051356541443 1000.0000000000001,236.08634183356403 1009.9999999999999,222.3022153650826 1020.0,235.21026981495422 1030.0,242.95307300780595 1040.0,238.64664077072393 1050.0,253.04551776475455 1060.0,253.7250539683657 1070.0,270.9791999781669 1080.0,274.5222932714848 1090.0,279.67172445949814 1100.0,269.94788909646206 1110.0,275.8652214548962 1120.0,274.43169548835965 1130.0,276.781028600971 1140.0,267.0102691294206 1150.0,271.1306979754331 1160.0,268.15438509810195 1170.0,276.26582856933015 1180.0,294.3503652492466 1190.0,303.16119154341413 1200.0,306.8776373654591 1210.0,312.2819058604117 1220.0,306.15010769921525 1230.0,307.3260190202467 1240.0,294.4402569723862 1250.0,301.8741358546563 1260.0,307.01725111717116 1270.0,304.13063605889613 1280.0,294.6194892289816 1290.0,295.8036396801166 1300.0,295.2259419674107 1310.0,292.6549520512072 1310.0,377.90016162120594 1300.0,378.58083512298305 1290.0,379.08169994854507 1280.0,379.8324357933491 1270.0,381.4150963581848 1260.0,381.40160995337015 1250.0,380.29395380628966 1240.0,379.92211854429473 1230.0,381.52848197783607 1220.0,380.64306461454225 1210.0,379.2123176420238 1200.0,376.85786919993166 1190.0,374.855289246452 1180.0,372.1297750552763 1170.0,370.94688933849375 1160.0,369.8740785444628 1150.0,370.3333681206118 1140.0,370.339388439996 1130.0,371.79137164835896 1120.0,371.32859079459655 1110.0,371.19375493233946 1100.0,370.1762608261269 1090.0,370.0930444333121 1080.0,367.9063389228153 1070.0,364.7787954566879 1060.0,361.951535320191 1050.0,360.439572416451 1040.0,359.26555160017716 1030.0,359.0595726647524 1020.0,357.0830781738216 1009.9999999999999,355.64882636352655 1000.0000000000001,357.2976527270531 990.0,355.69699805473317 980.0,352.23116862023505 970.0,351.55422442354296 960.0,349.74441802224504 950.0,349.3350616906803 940.0,351.15763957063524 930.0,353.22836893231613 920.0,356.69687033842393 910.0,357.30185491309334 900.0,360.84788786148033 889.9999999999999,369.36231635418716 880.0000000000001,372.33923694596433 870.0,372.661070835433 860.0,372.68286657257903 850.0,371.85992961163504 840.0,371.4583572417264 830.0,372.2831013543249 820.0,372.6072002642563 810.0,373.53610535104485 800.0,375.1028196159225 790.0,380.3224109022822 780.0,380.1017740579106 769.9999999999999,379.54196686538705 760.0000000000001,379.58346473536113 750.0,379.3251443956123 740.0,378.9378895592942 730.0,377.81017753324045 720.0,376.3614944272236 710.0,375.68631655326675 700.0,374.0453464450284 690.0,373.1085196714663 680.0,371.3323658852591 670.0,369.13786326105634 660.0,368.6685819141714 650.0,369.2134223065389 640.0,368.93342589077724 630.0,369.16112855458425 620.0,368.5055742682254 610.0,369.87810453331207 600.0,368.6654149159185 590.0,367.0476298495127 580.0,369.39155460567963 570.0,370.65842670256825 560.0,372.4853304662888 550.0,374.19114093619896 540.0,375.86283344424976 530.0,379.7897497554335 520.0,378.99395131322353 510.0,378.8158031606837 500.0,377.45048329956813 489.99999999999994,376.1378267641751 480.0,374.9019654084601 470.0,373.27187479361737 460.0,371.49758796641777 450.0,369.6146861654237 440.0,366.32025256800483 429.99999999999994,362.4859848942909 420.0,358.6517172205769 410.0,354.817449546863 400.0,350.983181873149 390.0,347.1489141994351 380.0,343.3146465257212 370.0,339.4803788520072 360.0,335.64611117829327 350.0,331.8118435045793 340.0,327.97757583086536 330.0,324.14330815715147 320.0,320.3090404834375 310.0,316.47477280972356 300.0,312.6405051360096 290.0,308.8062374622957 280.0,304.97196978858176 270.0,301.1377021148678 260.0,297.30343444115385 250.0,293.4691667674399 240.0,289.63489909372595 230.0,285.800631420012 220.0,281.96636374629804 210.0,278.13209607258415 200.0,274.2978283988702 190.0,270.4635607251563 180.0,266.62929305144235 170.0,262.7950253777284 160.0,258.96075770401444 150.0,255.1264900303005 140.0,251.29222235658654 130.0,247.4579546828726 120.0,243.6236870091587 110.0,239.78941933544473 100.0,235.95515166173078 90.0,232.12088398801686" fill="#2563eb" fill-opacity="0.70" stroke="#2563eb" stroke-width="1.2"/>
<polygon points="90.0,228.2866163143029 100.0,228.18283991815426 110.0,228.2715107694736 120.0,229.13165914676853 130.0,228.4397001178024 140.0,228.65879716892104 150.0,224.94283401511655 160.0,222.78338893192443 170.0,220.38442215150718 180.0,212.04105592616156 190.0,207.31854795489156 200.0,213.55314695842992 210.0,211.91271874720923 220.0,212.77614031216993 230.0,209.98486904732698 240.0,220.33482599659442 250.0,217.33953650738044 260.0,218.99358911794727 270.0,221.23128240424114 280.0,222.7834790973756 290.0,207.5853220084456 300.0,205.94655828464315 310.0,208.13682781006608 320.0,209.05526478572085 330.0,213.8412208470069 340.0,221.50188898533355 350.0,217.85632718188435 360.0,230.39854905928374 370.0,214.77071188648077 380.0,212.89772265126106 390.0,215.96619545444807 400.0,246.05541456086954 410.0,234.43160953811451 420.0,236.1018762924165 429.99999999999994,231.39779323711497 440.0,238.78779991127888 450.0,245.30010096867036 460.0,245.44803863730087 470.0,230.68533844476252 480.0,231.87609221902784 489.99999999999994,237.849281611506 500.0,227.74308259522786 510.0,225.23530002827275 520.0,225.04130376687434 530.0,232.3346694768955 540.0,179.67958566532977 550.0,182.59724214074075 560.0,173.8975999818934 570.0,164.1576146942388 580.0,160.62341254395517 590.0,143.51852546672853 600.0,171.41599991162155 610.0,175.45397075352804 620.0,155.66522001569382 630.0,179.6713789552488 640.0,167.56085553372938 650.0,170.59395738871473 660.0,180.30675687566844 670.0,191.12174323797194 680.0,190.08217919564757 690.0,201.70178377926 700.0,219.03318086153794 710.0,235.94475336715539 720.0,228.6058775192763 730.0,219.71192431056002 740.0,233.97212530168798 750.0,247.37972065502754 760.0000000000001,239.69737522303208 769.9999999999999,238.95089324008845 780.0,223.30790625217028 790.0,222.7152387332686 800.0,186.86207354824535 810.0,183.1331006419199 820.0,178.39147588733871 830.0,179.7950122219678 840.0,173.1680656456392 850.0,181.30750990771833 860.0,187.52901766761508 870.0,183.19637549143525 880.0000000000001,180.08701528247803 889.9999999999999,151.92697881204998 900.0,126.57817685704163 910.0,124.78372109182436 920.0,130.1253101513637 930.0,110.66100570373925 940.0,110.19110136927117 950.0,114.3515992438796 960.0,117.02182569796662 970.0,114.42316533460195 980.0,104.82004537855164 990.0,116.63704978260029 1000.0000000000001,114.49153699686542 1009.9999999999999,90.0 1020.0,112.58664992058294 1030.0,125.18033577841635 1040.0,117.35765267800946 1050.0,140.50400790695244 1060.0,142.19980505874776 1070.0,173.14887712967797 1080.0,179.5545048345921 1090.0,186.56882688856328 1100.0,171.29738609470823 1110.0,181.0562451927602 1120.0,177.3171332842682 1130.0,181.27076251060694 1140.0,164.43702615816503 1150.0,171.63673900613813 1160.0,167.07394484156913 1170.0,180.09850066262356 1180.0,209.3601952152868 1190.0,226.61595316288808 1200.0,231.60513913680296 1210.0,241.1987007760781 1220.0,230.36905793530352 1230.0,232.06949670564924 1240.0,211.57877555376734 1250.0,223.32894534142295 1260.0,232.54633050225326 1270.0,227.14291381499757 1280.0,211.24887614256653 1290.0,211.65482051870544 1300.0,210.3998514871049 1310.0,206.0974405971445 1310.0,292.6549520512072 1300.0,295.2259419674107 1290.0,295.8036396801166 1280.0,294.6194892289816 1270.0,304.13063605889613 1260.0,307.01725111717116 1250.0,301.8741358546563 1240.0,294.4402569723862 1230.0,307.3260190202467 1220.0,306.15010769921525 1210.0,312.2819058604117 1200.0,306.8776373654591 1190.0,303.16119154341413 1180.0,294.3503652492466 1170.0,276.26582856933015 1160.0,268.15438509810195 1150.0,271.1306979754331 1140.0,267.0102691294206 1130.0,276.781028600971 1120.0,274.43169548835965 1110.0,275.8652214548962 1100.0,269.94788909646206 1090.0,279.67172445949814 1080.0,274.5222932714848 1070.0,270.9791999781669 1060.0,253.7250539683657 1050.0,253.04551776475455 1040.0,238.64664077072393 1030.0,242.95307300780595 1020.0,235.21026981495422 1009.9999999999999,222.3022153650826 1000.0000000000001,236.08634183356403 990.0,235.90051356541443 980.0,224.91899713149076 970.0,229.21616312182474 960.0,227.04537079613948 950.0,223.33598967142015 940.0,223.24621691980585 930.0,224.107135970847 920.0,238.224875987443 910.0,233.75217656457914 900.0,233.04759627473322 889.9999999999999,258.6471863412116 880.0000000000001,276.024896255492 870.0,278.13549659670844 860.0,281.1286309470463 850.0,276.7998667269523 840.0,271.7574699801281 830.0,274.31733970637356 820.0,274.478536100992 810.0,275.30549750607815 800.0,274.7109239120041 790.0,301.90432185033956 780.0,303.03100941429216 769.9999999999999,313.3291676508841 760.0000000000001,313.4772386309274 750.0,317.95771139355537 740.0,309.17269699181605 730.0,300.2956053171762 720.0,306.4054824744659 710.0,309.84301574891185 700.0,300.40021558021766 690.0,289.1620503182058 680.0,281.77193873004273 670.0,284.1208984327552 660.0,278.6460283546255 650.0,271.9935118543242 640.0,270.6813498209016 630.0,277.0644069236474 620.0,262.4339649089188 610.0,273.0771767898422 600.0,271.09912247811553 590.0,255.40460036283596 580.0,264.44244078567067 570.0,266.4845389362204 560.0,273.1588698935684 550.0,280.01029219770294 540.0,277.61439898890785 530.0,308.5221370807843 520.0,304.7637679444417 510.0,303.6929939927051 500.0,305.25032685860066 489.99999999999994,311.3908414480456 480.0,307.41269855343086 470.0,306.55405007651495 460.0,315.3030552182434 450.0,313.8027608206403 440.0,308.36730954155223 429.99999999999994,303.2935645786675 420.0,302.30838238115433 410.0,298.6194534791436 400.0,302.73501054824544 390.0,283.64394040680463 380.0,279.4331930218366 370.0,276.7098801749268 360.0,282.95204493287457 350.0,273.96781206797675 340.0,273.4819529654666 330.0,269.0703699074345 320.0,264.78575767939515 310.0,261.40295294649167 300.0,257.7267882528397 290.0,258.9316515872556 280.0,266.3310352647861 270.0,263.01376614899414 260.0,259.2897737540073 250.0,257.5305853049351 240.0,256.65839001019015 230.0,248.82160527177786 220.0,248.6953557886951 210.0,246.01652094955224 200.0,244.69107480279314 190.0,238.4832477267019 180.0,239.76731483947333 170.0,240.9733414570315 160.0,240.514820845955 150.0,240.19364806715407 140.0,240.0477262146385 130.0,238.05549179695524 120.0,236.1579965239401 110.0,233.76410749296863 100.0,232.13738459164676 90.0,230.20375015115988" fill="#f97316" fill-opacity="0.70" stroke="#f97316" stroke-width="1.2"/>
<rect x="1100" y="76" width="16" height="12" fill="#f97316" fill-opacity="0.70" stroke="#f97316"/>
<text x="1124" y="86" font-family="monospace" font-size="12" fill="#0f172a">BTC</text>
<rect x="1100" y="98" width="16" height="12" fill="#2563eb" fill-opacity="0.70" stroke="#2563eb"/>
<text x="1124" y="108" font-family="monospace" font-size="12" fill="#0f172a">ETH</text>
<rect x="1100" y="120" width="16" height="12" fill="#facc15" fill-opacity="0.70" stroke="#facc15"/>
<text x="1124" y="130" font-family="monospace" font-size="12" fill="#0f172a">DAI</text>
<text x="700.0" y="782" text-anchor="middle" font-family="monospace" font-size="16" fill="#0f172a">time</text>
<text x="24" y="255.0" transform="rotate(-90 24,255.0)" text-anchor="middle" font-family="monospace" font-size="16" fill="#0f172a">asset value split (usd)</text>
<line x1="90" y1="605" x2="1310" y2="605" stroke="#334155" stroke-width="2"/>
<line x1="90" y1="480" x2="90" y2="605" stroke="#334155" stroke-width="2"/>
<line x1="90" y1="542.5" x2="1310" y2="542.5" stroke="#64748b" stroke-width="1.5" stroke-dasharray="6 4"/>
<line x1="90" y1="605.0" x2="1310" y2="605.0" stroke="#e2e8f0" stroke-width="1"/>
<text x="78" y="609.0" text-anchor="end" font-family="monospace" font-size="11" fill="#475569">-128</text>
<line x1="90" y1="542.5" x2="1310" y2="542.5" stroke="#e2e8f0" stroke-width="1"/>
<text x="78" y="546.5" text-anchor="end" font-family="monospace" font-size="11" fill="#475569">0</text>
<line x1="90" y1="480.0" x2="1310" y2="480.0" stroke="#e2e8f0" stroke-width="1"/>
<text x="78" y="484.0" text-anchor="end" font-family="monospace" font-size="11" fill="#475569">128</text>
<rect x="87.27235772357723" y="493.8313895079625" width="5.455284552845528" height="48.66861049203749" fill="#ea580c" opacity="0.85"><title>2024-01-01 | BTC buy 100.00 usd | reason=static_target_rebalance</title></rect>
<rect x="97.27235772357723" y="493.8313895079625" width="5.455284552845528" height="48.66861049203749" fill="#ea580c" opacity="0.85"><title>2024-01-08 | BTC buy 100.00 usd | reason=static_target_rebalance</title></rect>
<rect x="107.27235772357723" y="493.8313895079625" width="5.455284552845528" height="48.66861049203749" fill="#ea580c" opacity="0.85"><title>2024-01-15 | BTC buy 100.00 usd | reason=static_target_rebalance</title></rect>
<rect x="117.27235772357723" y="493.8313895079625" width="5.455284552845528" height="48.66861049203749" fill="#ea580c" opacity="0.85"><title>2024-01-22 | BTC buy 100.00 usd | reason=static_target_rebalance</title></rect>
<rect x="127.27235772357723" y="493.8313895079625" width="5.455284552845528" height="48.66861049203749" fill="#ea580c" opacity="0.85"><title>2024-01-29 | BTC buy 100.00 usd | reason=static_target_rebalance</title></rect>
<rect x="137.27235772357724" y="493.8313895079625" width="5.455284552845528" height="48.66861049203749" fill="#ea580c" opacity="0.85"><title>2024-02-05 | BTC buy 100.00 usd | reason=static_target_rebalance</title></rect>
<rect x="147.27235772357724" y="493.8313895079625" width="5.455284552845528" height="48.66861049203749" fill="#ea580c" opacity="0.85"><title>2024-02-12 | BTC buy 100.00 usd | reason=static_target_rebalance</title></rect>
<rect x="157.27235772357724" y="493.8313895079625" width="5.455284552845528" height="48.66861049203749" fill="#ea580c" opacity="0.85"><title>2024-02-19 | BTC buy 100.00 usd | reason=static_target_rebalance</title></rect>
<rect x="167.27235772357724" y="493.8313895079625" width="5.455284552845528" height="48.66861049203749" fill="#ea580c" opacity="0.85"><title>2024-02-26 | BTC buy 100.00 usd | reason=static_target_rebalance</title></rect>
<rect x="177.27235772357724" y="493.8313895079625" width="5.455284552845528" height="48.66861049203749" fill="#ea580c" opacity="0.85"><title>2024-03-04 | BTC buy 100.00 usd | reason=static_target_rebalance</title></rect>
<rect x="187.27235772357724" y="493.8313895079625" width="5.455284552845528" height="48.66861049203749" fill="#ea580c" opacity="0.85"><title>2024-03-11 | BTC buy 100.00 usd | reason=static_target_rebalance</title></rect>
<rect x="197.27235772357724" y="493.8313895079625" width="5.455284552845528" height="48.66861049203749" fill="#ea580c" opacity="0.85"><title>2024-03-18 | BTC buy 100.00 usd | reason=static_target_rebalance</title></rect>
<rect x="207.27235772357724" y="493.8313895079625" width="5.455284552845528" height="48.66861049203749" fill="#ea580c" opacity="0.85"><title>2024-03-25 | BTC buy 100.00 usd | reason=static_target_rebalance</title></rect>
<rect x="217.27235772357724" y="493.8313895079625" width="5.455284552845528" height="48.66861049203749" fill="#ea580c" opacity="0.85"><title>2024-04-01 | BTC buy 100.00 usd | reason=static_target_rebalance</title></rect>
<rect x="227.27235772357724" y="493.8313895079625" width="5.455284552845528" height="48.66861049203749" fill="#ea580c" opacity="0.85"><title>2024-04-08 | BTC buy 100.00 usd | reason=static_target_rebalance</title></rect>
<rect x="237.27235772357724" y="493.8313895079625" width="5.455284552845528" height="48.66861049203749" fill="#ea580c" opacity="0.85"><title>2024-04-15 | BTC buy 100.00 usd | reason=static_target_rebalance</title></rect>
<rect x="247.27235772357724" y="493.8313895079625" width="5.455284552845528" height="48.66861049203749" fill="#ea580c" opacity="0.85"><title>2024-04-22 | BTC buy 100.00 usd | reason=static_target_rebalance</title></rect>
<rect x="257.2723577235772" y="493.8313895079625" width="5.455284552845528" height="48.66861049203749" fill="#ea580c" opacity="0.85"><title>2024-04-29 | BTC buy 100.00 usd | reason=static_target_rebalance</title></rect>
<rect x="267.2723577235772" y="493.8313895079625" width="5.455284552845528" height="48.66861049203749" fill="#ea580c" opacity="0.85"><title>2024-05-06 | BTC buy 100.00 usd | reason=static_target_rebalance</title></rect>
<rect x="277.2723577235772" y="493.8313895079625" width="5.455284552845528" height="48.66861049203749" fill="#ea580c" opacity="0.85"><title>2024-05-13 | BTC buy 100.00 usd | reason=static_target_rebalance</title></rect>
<rect x="287.2723577235772" y="493.8313895079625" width="5.455284552845528" height="48.66861049203749" fill="#ea580c" opacity="0.85"><title>2024-05-20 | BTC buy 100.00 usd | reason=static_target_rebalance</title></rect>
<rect x="297.2723577235772" y="493.8313895079625" width="5.455284552845528" height="48.66861049203749" fill="#ea580c" opacity="0.85"><title>2024-05-27 | BTC buy 100.00 usd | reason=static_target_rebalance</title></rect>
<rect x="307.2723577235772" y="493.8313895079625" width="5.455284552845528" height="48.66861049203749" fill="#ea580c" opacity="0.85"><title>2024-06-03 | BTC buy 100.00 usd | reason=static_target_rebalance</title></rect>
<rect x="317.2723577235772" y="493.8313895079625" width="5.455284552845528" height="48.66861049203749" fill="#ea580c" opacity="0.85"><title>2024-06-10 | BTC buy 100.00 usd | reason=static_target_rebalance</title></rect>
<rect x="327.2723577235772" y="493.8313895079625" width="5.455284552845528" height="48.66861049203749" fill="#ea580c" opacity="0.85"><title>2024-06-17 | BTC buy 100.00 usd | reason=static_target_rebalance</title></rect>
<rect x="337.2723577235772" y="493.8313895079625" width="5.455284552845528" height="48.66861049203749" fill="#ea580c" opacity="0.85"><title>2024-06-24 | BTC buy 100.00 usd | reason=static_target_rebalance</title></rect>
<rect x="347.2723577235772" y="493.8313895079625" width="5.455284552845528" height="48.66861049203749" fill="#ea580c" opacity="0.85"><title>2024-07-01 | BTC buy 100.00 usd | reason=static_target_rebalance</title></rect>
<rect x="357.2723577235772" y="493.8313895079625" width="5.455284552845528" height="48.66861049203749" fill="#ea580c" opacity="0.85"><title>2024-07-08 | BTC buy 100.00 usd | reason=static_target_rebalance</title></rect>
<rect x="367.2723577235772" y="493.8313895079625" width="5.455284552845528" height="48.66861049203749" fill="#ea580c" opacity="0.85"><title>2024-07-15 | BTC buy 100.00 usd | reason=static_target_rebalance</title></rect>
<rect x="377.2723577235772" y="493.8313895079625" width="5.455284552845528" height="48.66861049203749" fill="#ea580c" opacity="0.85"><title>2024-07-22 | BTC buy 100.00 usd | reason=static_target_rebalance</title></rect>
<rect x="387.2723577235772" y="493.8313895079625" width="5.455284552845528" height="48.66861049203749" fill="#ea580c" opacity="0.85"><title>2024-07-29 | BTC buy 100.00 usd | reason=static_target_rebalance</title></rect>
<rect x="397.2723577235772" y="493.8313895079625" width="5.455284552845528" height="48.66861049203749" fill="#ea580c" opacity="0.85"><title>2024-08-05 | BTC buy 100.00 usd | reason=static_target_rebalance</title></rect>
<rect x="407.2723577235772" y="493.8313895079625" width="5.455284552845528" height="48.66861049203749" fill="#ea580c" opacity="0.85"><title>2024-08-12 | BTC buy 100.00 usd | reason=static_target_rebalance</title></rect>
<rect x="417.2723577235772" y="493.8313895079625" width="5.455284552845528" height="48.66861049203749" fill="#ea580c" opacity="0.85"><title>2024-08-19 | BTC buy 100.00 usd | reason=static_target_rebalance</title></rect>
<rect x="427.27235772357716" y="493.8313895079625" width="5.455284552845528" height="48.66861049203749" fill="#ea580c" opacity="0.85"><title>2024-08-26 | BTC buy 100.00 usd | reason=static_target_rebalance</title></rect>
<rect x="437.2723577235772" y="493.8313895079625" width="5.455284552845528" height="48.66861049203749" fill="#ea580c" opacity="0.85"><title>2024-09-02 | BTC buy 100.00 usd | reason=static_target_rebalance</title></rect>
<rect x="447.2723577235772" y="507.53568802089575" width="5.455284552845528" height="34.96431197910425" fill="#ea580c" opacity="0.85"><title>2024-09-09 | BTC buy 71.84 usd | reason=static_target_rebalance</title></rect>
<rect x="457.2723577235772" y="542.5" width="5.455284552845528" height="1.5" fill="#dc2626" opacity="0.85"><title>2024-09-16 | BTC sell 1.79 usd | reason=static_target_rebalance</title></rect>
<rect x="467.2723577235772" y="542.5" width="5.455284552845528" height="3.6263328826154293" fill="#dc2626" opacity="0.85"><title>2024-09-23 | BTC sell 7.45 usd | reason=static_target_rebalance</title></rect>
<rect x="477.2723577235772" y="542.5" width="5.455284552845528" height="7.286916801536449" fill="#dc2626" opacity="0.85"><title>2024-09-30 | BTC sell 14.97 usd | reason=static_target_rebalance</title></rect>
<rect x="487.27235772357716" y="542.5" width="5.455284552845528" height="17.294872369475343" fill="#dc2626" opacity="0.85"><title>2024-10-07 | BTC sell 35.54 usd | reason=static_target_rebalance</title></rect>
<rect x="497.2723577235772" y="542.5" width="5.455284552845528" height="15.345339887411" fill="#dc2626" opacity="0.85"><title>2024-10-14 | BTC sell 31.53 usd | reason=static_target_rebalance</title></rect>
<rect x="507.2723577235772" y="542.5" width="5.455284552845528" height="14.0084218081779" fill="#dc2626" opacity="0.85"><title>2024-10-21 | BTC sell 28.78 usd | reason=static_target_rebalance</title></rect>
<rect x="517.2723577235772" y="542.5" width="5.455284552845528" height="44.14611817608454" fill="#dc2626" opacity="0.85"><title>2024-10-28 | BTC sell 90.71 usd | reason=static_target_rebalance</title></rect>
<rect x="527.2723577235772" y="542.5" width="5.455284552845528" height="28.466367086024775" fill="#dc2626" opacity="0.85"><title>2024-11-04 | BTC sell 58.49 usd | reason=static_target_rebalance</title></rect>
<rect x="537.2723577235772" y="542.5" width="5.455284552845528" height="45.863792161805236" fill="#dc2626" opacity="0.85"><title>2024-11-11 | BTC sell 94.24 usd | reason=static_target_rebalance</title></rect>
<rect x="547.2723577235772" y="542.5" width="5.455284552845528" height="62.24544524453836" fill="#dc2626" opacity="0.85"><title>2024-11-18 | BTC sell 127.90 usd | reason=static_target_rebalance</title></rect>
<rect x="557.2723577235772" y="542.5" width="5.455284552845528" height="20.824494593988106" fill="#dc2626" opacity="0.85"><title>2024-11-25 | BTC sell 42.79 usd | reason=static_target_rebalance</title></rect>
<rect x="567.2723577235772" y="542.2453801454394" width="5.455284552845528" height="1.5" fill="#ea580c" opacity="0.85"><title>2024-12-02 | BTC buy 0.52 usd | reason=static_target_rebalance</title></rect>
<rect x="577.2723577235772" y="542.5" width="5.455284552845528" height="1.7362402316641692" fill="#dc2626" opacity="0.85"><title>2024-12-09 | BTC sell 3.57 usd | reason=static_target_rebalance</title></rect>
<rect x="587.2723577235772" y="542.5" width="5.455284552845528" height="32.836581599959345" fill="#dc2626" opacity="0.85"><title>2024-12-16 | BTC sell 67.47 usd | reason=static_target_rebalance</title></rect>
<rect x="597.2723577235772" y="542.5" width="5.455284552845528" height="6.334411632457318" fill="#dc2626" opacity="0.85"><title>2024-12-23 | BTC sell 13.02 usd | reason=static_target_rebalance</title></rect>
<rect x="607.2723577235772" y="537.5444835094771" width="5.455284552845528" height="4.955516490522882" fill="#ea580c" opacity="0.85"><title>2024-12-30 | BTC buy 10.18 usd | reason=static_target_rebalance</title></rect>
<rect x="617.2723577235772" y="542.5" width="5.455284552845528" height="26.270403423060543" fill="#dc2626" opacity="0.85"><title>2025-01-06 | BTC sell 53.98 usd | reason=static_target_rebalance</title></rect>
<rect x="627.2723577235772" y="542.5" width="5.455284552845528" height="32.02662358125872" fill="#dc2626" opacity="0.85"><title>2025-01-13 | BTC sell 65.81 usd | reason=static_target_rebalance</title></rect>
<rect x="637.2723577235772" y="542.5" width="5.455284552845528" height="54.44910011658578" fill="#dc2626" opacity="0.85"><title>2025-01-20 | BTC sell 111.88 usd | reason=static_target_rebalance</title></rect>
<rect x="647.2723577235772" y="542.5" width="5.455284552845528" height="41.56058483629613" fill="#dc2626" opacity="0.85"><title>2025-01-27 | BTC sell 85.40 usd | reason=static_target_rebalance</title></rect>
<rect x="657.2723577235772" y="542.5" width="5.455284552845528" height="62.5" fill="#dc2626" opacity="0.85"><title>2025-02-03 | BTC sell 128.42 usd | reason=static_target_rebalance</title></rect>
<rect x="667.2723577235772" y="542.5" width="5.455284552845528" height="36.755372801670205" fill="#dc2626" opacity="0.85"><title>2025-02-10 | BTC sell 75.52 usd | reason=static_target_rebalance</title></rect>
<rect x="677.2723577235772" y="535.4586796631206" width="5.455284552845528" height="7.04132033687938" fill="#ea580c" opacity="0.85"><title>2025-02-17 | BTC buy 14.47 usd | reason=static_target_rebalance</title></rect>
<rect x="687.2723577235772" y="542.5" width="5.455284552845528" height="3.5789380169045444" fill="#dc2626" opacity="0.85"><title>2025-02-24 | BTC sell 7.35 usd | reason=static_target_rebalance</title></rect>
<rect x="697.2723577235772" y="542.5" width="5.455284552845528" height="24.886203408892243" fill="#dc2626" opacity="0.85"><title>2025-03-03 | BTC sell 51.13 usd | reason=static_target_rebalance</title></rect>
<rect x="707.2723577235772" y="542.5" width="5.455284552845528" height="7.010728558315577" fill="#dc2626" opacity="0.85"><title>2025-03-10 | BTC sell 14.41 usd | reason=static_target_rebalance</title></rect>
<rect x="717.2723577235772" y="542.5" width="5.455284552845528" height="31.528456618211067" fill="#dc2626" opacity="0.85"><title>2025-03-17 | BTC sell 64.78 usd | reason=static_target_rebalance</title></rect>
<rect x="727.2723577235772" y="542.5" width="5.455284552845528" height="11.892151562744289" fill="#dc2626" opacity="0.85"><title>2025-03-24 | BTC sell 24.43 usd | reason=static_target_rebalance</title></rect>
<rect x="737.2723577235772" y="542.5" width="5.455284552845528" height="20.040365406563865" fill="#dc2626" opacity="0.85"><title>2025-03-31 | BTC sell 41.18 usd | reason=static_target_rebalance</title></rect>
<rect x="747.2723577235772" y="542.5" width="5.455284552845528" height="38.83770853434078" fill="#dc2626" opacity="0.85"><title>2025-04-07 | BTC sell 79.80 usd | reason=static_target_rebalance</title></rect>
<rect x="757.2723577235773" y="542.5" width="5.455284552845528" height="42.11085653886573" fill="#dc2626" opacity="0.85"><title>2025-04-14 | BTC sell 86.53 usd | reason=static_target_rebalance</title></rect>
<rect x="767.2723577235771" y="542.5" width="5.455284552845528" height="49.72208085033503" fill="#dc2626" opacity="0.85"><title>2025-04-21 | BTC sell 102.16 usd | reason=static_target_rebalance</title></rect>
<rect x="777.2723577235772" y="542.5" width="5.455284552845528" height="26.56063705324516" fill="#dc2626" opacity="0.85"><title>2025-04-28 | BTC sell 54.57 usd | reason=static_target_rebalance</title></rect>
<rect x="787.2723577235772" y="542.5" width="5.455284552845528" height="6.985720217740095" fill="#dc2626" opacity="0.85"><title>2025-05-05 | BTC sell 14.35 usd | reason=static_target_rebalance</title></rect>
<rect x="797.2723577235772" y="493.8313895079625" width="5.455284552845528" height="48.66861049203749" fill="#ea580c" opacity="0.85"><title>2025-05-12 | BTC buy 100.00 usd | reason=static_target_rebalance</title></rect>
<rect x="807.2723577235772" y="493.8313895079625" width="5.455284552845528" height="48.66861049203749" fill="#ea580c" opacity="0.85"><title>2025-05-19 | BTC buy 100.00 usd | reason=static_target_rebalance</title></rect>
<rect x="817.2723577235772" y="528.3764405205999" width="5.455284552845528" height="14.123559479400114" fill="#ea580c" opacity="0.85"><title>2025-05-26 | BTC buy 29.02 usd | reason=static_target_rebalance</title></rect>
<rect x="827.2723577235772" y="502.90607350055416" width="5.455284552845528" height="39.59392649944584" fill="#ea580c" opacity="0.85"><title>2025-06-02 | BTC buy 81.35 usd | reason=static_target_rebalance</title></rect>
<rect x="837.2723577235772" y="538.8604054635915" width="5.455284552845528" height="3.639594536408481" fill="#ea580c" opacity="0.85"><title>2025-06-09 | BTC buy 7.48 usd | reason=static_target_rebalance</title></rect>
<rect x="847.2723577235772" y="542.5" width="5.455284552845528" height="1.5" fill="#dc2626" opacity="0.85"><title>2025-06-16 | BTC sell 0.80 usd | reason=static_target_rebalance</title></rect>
<rect x="857.2723577235772" y="542.5" width="5.455284552845528" height="15.516519710632451" fill="#dc2626" opacity="0.85"><title>2025-06-23 | BTC sell 31.88 usd | reason=static_target_rebalance</title></rect>
<rect x="867.2723577235772" y="542.5" width="5.455284552845528" height="5.525832156960519" fill="#dc2626" opacity="0.85"><title>2025-06-30 | BTC sell 11.35 usd | reason=static_target_rebalance</title></rect>
<rect x="877.2723577235773" y="541.8066307906832" width="5.455284552845528" height="1.5" fill="#ea580c" opacity="0.85"><title>2025-07-07 | BTC buy 1.42 usd | reason=static_target_rebalance</title></rect>
<rect x="887.2723577235771" y="529.5784353676316" width="5.455284552845528" height="12.921564632368359" fill="#ea580c" opacity="0.85"><title>2025-07-14 | BTC buy 26.55 usd | reason=static_target_rebalance</title></rect>
<rect x="897.2723577235772" y="493.8313895079625" width="5.455284552845528" height="48.66861049203749" fill="#ea580c" opacity="0.85"><title>2025-07-21 | BTC buy 100.00 usd | reason=static_target_rebalance</title></rect>
<rect x="907.2723577235772" y="493.8313895079625" width="5.455284552845528" height="48.66861049203749" fill="#ea580c" opacity="0.85"><title>2025-07-28 | BTC buy 100.00 usd | reason=static_target_rebalance</title></rect>
<rect x="917.2723577235772" y="493.8313895079625" width="5.455284552845528" height="48.66861049203749" fill="#ea580c" opacity="0.85"><title>2025-08-04 | BTC buy 100.00 usd | reason=static_target_rebalance</title></rect>
<rect x="927.2723577235772" y="493.8313895079625" width="5.455284552845528" height="48.66861049203749" fill="#ea580c" opacity="0.85"><title>2025-08-11 | BTC buy 100.00 usd | reason=static_target_rebalance</title></rect>
<rect x="937.2723577235772" y="493.8313895079625" width="5.455284552845528" height="48.66861049203749" fill="#ea580c" opacity="0.85"><title>2025-08-18 | BTC buy 100.00 usd | reason=static_target_rebalance</title></rect>
<rect x="947.2723577235772" y="493.8313895079625" width="5.455284552845528" height="48.66861049203749" fill="#ea580c" opacity="0.85"><title>2025-08-25 | BTC buy 100.00 usd | reason=static_target_rebalance</title></rect>
<rect x="957.2723577235772" y="493.8313895079625" width="5.455284552845528" height="48.66861049203749" fill="#ea580c" opacity="0.85"><title>2025-09-01 | BTC buy 100.00 usd | reason=static_target_rebalance</title></rect>
<rect x="967.2723577235772" y="493.8313895079625" width="5.455284552845528" height="48.66861049203749" fill="#ea580c" opacity="0.85"><title>2025-09-08 | BTC buy 100.00 usd | reason=static_target_rebalance</title></rect>
<rect x="977.2723577235772" y="493.8313895079625" width="5.455284552845528" height="48.66861049203749" fill="#ea580c" opacity="0.85"><title>2025-09-15 | BTC buy 100.00 usd | reason=static_target_rebalance</title></rect>
<rect x="987.2723577235772" y="493.8313895079625" width="5.455284552845528" height="48.66861049203749" fill="#ea580c" opacity="0.85"><title>2025-09-22 | BTC buy 100.00 usd | reason=static_target_rebalance</title></rect>
<rect x="997.2723577235773" y="527.0504992159565" width="5.455284552845528" height="15.449500784043494" fill="#ea580c" opacity="0.85"><title>2025-09-29 | BTC buy 31.74 usd | reason=static_target_rebalance</title></rect>
<rect x="1007.2723577235771" y="542.5" width="5.455284552845528" height="7.672078811162805" fill="#dc2626" opacity="0.85"><title>2025-10-06 | BTC sell 15.76 usd | reason=static_target_rebalance</title></rect>
<rect x="1017.2723577235772" y="533.8250478686166" width="5.455284552845528" height="8.674952131383407" fill="#ea580c" opacity="0.85"><title>2025-10-13 | BTC buy 17.82 usd | reason=static_target_rebalance</title></rect>
<rect x="1027.2723577235772" y="538.5618886308177" width="5.455284552845528" height="3.938111369182252" fill="#ea580c" opacity="0.85"><title>2025-10-20 | BTC buy 8.09 usd | reason=static_target_rebalance</title></rect>
<rect x="1037.2723577235772" y="542.5" width="5.455284552845528" height="5.8908304452317" fill="#dc2626" opacity="0.85"><title>2025-10-27 | BTC sell 12.10 usd | reason=static_target_rebalance</title></rect>
<rect x="1047.2723577235772" y="542.5" width="5.455284552845528" height="18.86476439725891" fill="#dc2626" opacity="0.85"><title>2025-11-03 | BTC sell 38.76 usd | reason=static_target_rebalance</title></rect>
<rect x="1057.2723577235772" y="542.5" width="5.455284552845528" height="10.285722335847368" fill="#dc2626" opacity="0.85"><title>2025-11-10 | BTC sell 21.13 usd | reason=static_target_rebalance</title></rect>
<rect x="1067.2723577235772" y="519.3954146423328" width="5.455284552845528" height="23.104585357667247" fill="#ea580c" opacity="0.85"><title>2025-11-17 | BTC buy 47.47 usd | reason=static_target_rebalance</title></rect>
<rect x="1077.2723577235772" y="511.7723827360151" width="5.455284552845528" height="30.727617263984882" fill="#ea580c" opacity="0.85"><title>2025-11-24 | BTC buy 63.14 usd | reason=static_target_rebalance</title></rect>
<rect x="1087.2723577235772" y="535.6566182121248" width="5.455284552845528" height="6.84338178787516" fill="#ea580c" opacity="0.85"><title>2025-12-01 | BTC buy 14.06 usd | reason=static_target_rebalance</title></rect>
<rect x="1097.2723577235772" y="521.4157378633377" width="5.455284552845528" height="21.084262136662346" fill="#ea580c" opacity="0.85"><title>2025-12-08 | BTC buy 43.32 usd | reason=static_target_rebalance</title></rect>
<rect x="1107.2723577235772" y="522.9901069932711" width="5.455284552845528" height="19.50989300672893" fill="#ea580c" opacity="0.85"><title>2025-12-15 | BTC buy 40.09 usd | reason=static_target_rebalance</title></rect>
<rect x="1117.2723577235772" y="542.5" width="5.455284552845528" height="1.5" fill="#dc2626" opacity="0.85"><title>2025-12-22 | BTC sell 2.16 usd | reason=static_target_rebalance</title></rect>
<rect x="1127.2723577235772" y="542.5" width="5.455284552845528" height="1.5" fill="#dc2626" opacity="0.85"><title>2025-12-29 | BTC sell 0.97 usd | reason=static_target_rebalance</title></rect>
<rect x="1137.2723577235772" y="542.5" width="5.455284552845528" height="8.83573004111031" fill="#dc2626" opacity="0.85"><title>2026-01-05 | BTC sell 18.15 usd | reason=static_target_rebalance</title></rect>
<rect x="1147.2723577235772" y="542.5" width="5.455284552845528" height="3.773764413981894" fill="#dc2626" opacity="0.85"><title>2026-01-12 | BTC sell 7.75 usd | reason=static_target_rebalance</title></rect>
<rect x="1157.2723577235772" y="540.2157100749821" width="5.455284552845528" height="2.2842899250179016" fill="#ea580c" opacity="0.85"><title>2026-01-19 | BTC buy 4.69 usd | reason=static_target_rebalance</title></rect>
<rect x="1167.2723577235772" y="542.5" width="5.455284552845528" height="5.24802842425288" fill="#dc2626" opacity="0.85"><title>2026-01-26 | BTC sell 10.78 usd | reason=static_target_rebalance</title></rect>
<rect x="1177.2723577235772" y="542.5" width="5.455284552845528" height="18.63971887273101" fill="#dc2626" opacity="0.85"><title>2026-02-02 | BTC sell 38.30 usd | reason=static_target_rebalance</title></rect>
<rect x="1187.2723577235772" y="521.9783505265056" width="5.455284552845528" height="20.52164947349445" fill="#ea580c" opacity="0.85"><title>2026-02-09 | BTC buy 42.17 usd | reason=static_target_rebalance</title></rect>
<rect x="1197.2723577235772" y="540.3308537004473" width="5.455284552845528" height="2.1691462995527218" fill="#ea580c" opacity="0.85"><title>2026-02-16 | BTC buy 4.46 usd | reason=static_target_rebalance</title></rect>
<rect x="1207.2723577235772" y="531.3982741968802" width="5.455284552845528" height="11.101725803119848" fill="#ea580c" opacity="0.85"><title>2026-02-23 | BTC buy 22.81 usd | reason=static_target_rebalance</title></rect>
<rect x="1217.2723577235772" y="540.6892818698065" width="5.455284552845528" height="1.8107181301935498" fill="#ea580c" opacity="0.85"><title>2026-03-02 | BTC buy 3.72 usd | reason=static_target_rebalance</title></rect>
<rect x="1227.2723577235772" y="542.5" width="5.455284552845528" height="2.1405838619316455" fill="#dc2626" opacity="0.85"><title>2026-03-09 | BTC sell 4.40 usd | reason=static_target_rebalance</title></rect>
<rect x="1237.2723577235772" y="529.6290194202718" width="5.455284552845528" height="12.870980579728212" fill="#ea580c" opacity="0.85"><title>2026-03-16 | BTC buy 26.45 usd | reason=static_target_rebalance</title></rect>
<rect x="1247.2723577235772" y="539.371632815683" width="5.455284552845528" height="3.1283671843169714" fill="#ea580c" opacity="0.85"><title>2026-03-23 | BTC buy 6.43 usd | reason=static_target_rebalance</title></rect>
<rect x="1257.2723577235772" y="529.5391823632729" width="5.455284552845528" height="12.960817636727143" fill="#ea580c" opacity="0.85"><title>2026-03-30 | BTC buy 26.63 usd | reason=static_target_rebalance</title></rect>
<rect x="1267.2723577235772" y="538.5623006259273" width="5.455284552845528" height="3.9376993740727357" fill="#ea580c" opacity="0.85"><title>2026-04-06 | BTC buy 8.09 usd | reason=static_target_rebalance</title></rect>
<rect x="1277.2723577235772" y="539.2039547211465" width="5.455284552845528" height="3.296045278853512" fill="#ea580c" opacity="0.85"><title>2026-04-13 | BTC buy 6.77 usd | reason=static_target_rebalance</title></rect>
<rect x="1287.2723577235772" y="542.5" width="5.455284552845528" height="20.581738815273752" fill="#dc2626" opacity="0.85"><title>2026-04-20 | BTC sell 42.29 usd | reason=static_target_rebalance</title></rect>
<rect x="1297.2723577235772" y="542.5" width="5.455284552845528" height="25.031513922932163" fill="#dc2626" opacity="0.85"><title>2026-04-27 | BTC sell 51.43 usd | reason=static_target_rebalance</title></rect>
<rect x="1307.2723577235772" y="542.5" width="5.455284552845528" height="25.296966990247483" fill="#dc2626" opacity="0.85"><title>2026-05-04 | BTC sell 51.98 usd | reason=static_target_rebalance</title></rect>
<text x="24" y="542.5" transform="rotate(-90 24,542.5)" text-anchor="middle" font-family="monospace" font-size="14" fill="#0f172a">BTC weekly trade usd</text>
<line x1="90" y1="770" x2="1310" y2="770" stroke="#334155" stroke-width="2"/>
<line x1="90" y1="645" x2="90" y2="770" stroke="#334155" stroke-width="2"/>
<line x1="90" y1="707.5" x2="1310" y2="707.5" stroke="#64748b" stroke-width="1.5" stroke-dasharray="6 4"/>
<line x1="90" y1="770.0" x2="1310" y2="770.0" stroke="#e2e8f0" stroke-width="1"/>
<text x="78" y="774.0" text-anchor="end" font-family="monospace" font-size="11" fill="#475569">-544</text>
<line x1="90" y1="707.5" x2="1310" y2="707.5" stroke="#e2e8f0" stroke-width="1"/>
<text x="78" y="711.5" text-anchor="end" font-family="monospace" font-size="11" fill="#475569">0</text>
<line x1="90" y1="645.0" x2="1310" y2="645.0" stroke="#e2e8f0" stroke-width="1"/>
<text x="78" y="649.0" text-anchor="end" font-family="monospace" font-size="11" fill="#475569">544</text>
<rect x="87.27235772357723" y="696.0136223110147" width="5.455284552845528" height="11.486377688985272" fill="#2563eb" opacity="0.85"><title>2024-01-01 | ETH buy 100.00 usd | reason=static_target_rebalance</title></rect>
<rect x="97.27235772357723" y="696.0136223110147" width="5.455284552845528" height="11.486377688985272" fill="#2563eb" opacity="0.85"><title>2024-01-08 | ETH buy 100.00 usd | reason=static_target_rebalance</title></rect>
<rect x="107.27235772357723" y="696.0136223110147" width="5.455284552845528" height="11.486377688985272" fill="#2563eb" opacity="0.85"><title>2024-01-15 | ETH buy 100.00 usd | reason=static_target_rebalance</title></rect>
<rect x="117.27235772357723" y="696.0136223110147" width="5.455284552845528" height="11.486377688985272" fill="#2563eb" opacity="0.85"><title>2024-01-22 | ETH buy 100.00 usd | reason=static_target_rebalance</title></rect>
<rect x="127.27235772357723" y="696.0136223110147" width="5.455284552845528" height="11.486377688985272" fill="#2563eb" opacity="0.85"><title>2024-01-29 | ETH buy 100.00 usd | reason=static_target_rebalance</title></rect>
<rect x="137.27235772357724" y="696.0136223110147" width="5.455284552845528" height="11.486377688985272" fill="#2563eb" opacity="0.85"><title>2024-02-05 | ETH buy 100.00 usd | reason=static_target_rebalance</title></rect>
<rect x="147.27235772357724" y="696.0136223110147" width="5.455284552845528" height="11.486377688985272" fill="#2563eb" opacity="0.85"><title>2024-02-12 | ETH buy 100.00 usd | reason=static_target_rebalance</title></rect>
<rect x="157.27235772357724" y="696.0136223110147" width="5.455284552845528" height="11.486377688985272" fill="#2563eb" opacity="0.85"><title>2024-02-19 | ETH buy 100.00 usd | reason=static_target_rebalance</title></rect>
<rect x="167.27235772357724" y="696.0136223110147" width="5.455284552845528" height="11.486377688985272" fill="#2563eb" opacity="0.85"><title>2024-02-26 | ETH buy 100.00 usd | reason=static_target_rebalance</title></rect>
<rect x="177.27235772357724" y="696.0136223110147" width="5.455284552845528" height="11.486377688985272" fill="#2563eb" opacity="0.85"><title>2024-03-04 | ETH buy 100.00 usd | reason=static_target_rebalance</title></rect>
<rect x="187.27235772357724" y="696.0136223110147" width="5.455284552845528" height="11.486377688985272" fill="#2563eb" opacity="0.85"><title>2024-03-11 | ETH buy 100.00 usd | reason=static_target_rebalance</title></rect>
<rect x="197.27235772357724" y="696.0136223110147" width="5.455284552845528" height="11.486377688985272" fill="#2563eb" opacity="0.85"><title>2024-03-18 | ETH buy 100.00 usd | reason=static_target_rebalance</title></rect>
<rect x="207.27235772357724" y="696.0136223110147" width="5.455284552845528" height="11.486377688985272" fill="#2563eb" opacity="0.85"><title>2024-03-25 | ETH buy 100.00 usd | reason=static_target_rebalance</title></rect>
<rect x="217.27235772357724" y="696.0136223110147" width="5.455284552845528" height="11.486377688985272" fill="#2563eb" opacity="0.85"><title>2024-04-01 | ETH buy 100.00 usd | reason=static_target_rebalance</title></rect>
<rect x="227.27235772357724" y="696.0136223110147" width="5.455284552845528" height="11.486377688985272" fill="#2563eb" opacity="0.85"><title>2024-04-08 | ETH buy 100.00 usd | reason=static_target_rebalance</title></rect>
<rect x="237.27235772357724" y="696.0136223110147" width="5.455284552845528" height="11.486377688985272" fill="#2563eb" opacity="0.85"><title>2024-04-15 | ETH buy 100.00 usd | reason=static_target_rebalance</title></rect>
<rect x="247.27235772357724" y="696.0136223110147" width="5.455284552845528" height="11.486377688985272" fill="#2563eb" opacity="0.85"><title>2024-04-22 | ETH buy 100.00 usd | reason=static_target_rebalance</title></rect>
<rect x="257.2723577235772" y="696.0136223110147" width="5.455284552845528" height="11.486377688985272" fill="#2563eb" opacity="0.85"><title>2024-04-29 | ETH buy 100.00 usd | reason=static_target_rebalance</title></rect>
<rect x="267.2723577235772" y="696.0136223110147" width="5.455284552845528" height="11.486377688985272" fill="#2563eb" opacity="0.85"><title>2024-05-06 | ETH buy 100.00 usd | reason=static_target_rebalance</title></rect>
<rect x="277.2723577235772" y="696.0136223110147" width="5.455284552845528" height="11.486377688985272" fill="#2563eb" opacity="0.85"><title>2024-05-13 | ETH buy 100.00 usd | reason=static_target_rebalance</title></rect>
<rect x="287.2723577235772" y="696.0136223110147" width="5.455284552845528" height="11.486377688985272" fill="#2563eb" opacity="0.85"><title>2024-05-20 | ETH buy 100.00 usd | reason=static_target_rebalance</title></rect>
<rect x="297.2723577235772" y="696.0136223110147" width="5.455284552845528" height="11.486377688985272" fill="#2563eb" opacity="0.85"><title>2024-05-27 | ETH buy 100.00 usd | reason=static_target_rebalance</title></rect>
<rect x="307.2723577235772" y="696.0136223110147" width="5.455284552845528" height="11.486377688985272" fill="#2563eb" opacity="0.85"><title>2024-06-03 | ETH buy 100.00 usd | reason=static_target_rebalance</title></rect>
<rect x="317.2723577235772" y="696.0136223110147" width="5.455284552845528" height="11.486377688985272" fill="#2563eb" opacity="0.85"><title>2024-06-10 | ETH buy 100.00 usd | reason=static_target_rebalance</title></rect>
<rect x="327.2723577235772" y="696.0136223110147" width="5.455284552845528" height="11.486377688985272" fill="#2563eb" opacity="0.85"><title>2024-06-17 | ETH buy 100.00 usd | reason=static_target_rebalance</title></rect>
<rect x="337.2723577235772" y="696.0136223110147" width="5.455284552845528" height="11.486377688985272" fill="#2563eb" opacity="0.85"><title>2024-06-24 | ETH buy 100.00 usd | reason=static_target_rebalance</title></rect>
<rect x="347.2723577235772" y="696.0136223110147" width="5.455284552845528" height="11.486377688985272" fill="#2563eb" opacity="0.85"><title>2024-07-01 | ETH buy 100.00 usd | reason=static_target_rebalance</title></rect>
<rect x="357.2723577235772" y="696.0136223110147" width="5.455284552845528" height="11.486377688985272" fill="#2563eb" opacity="0.85"><title>2024-07-08 | ETH buy 100.00 usd | reason=static_target_rebalance</title></rect>
<rect x="367.2723577235772" y="696.0136223110147" width="5.455284552845528" height="11.486377688985272" fill="#2563eb" opacity="0.85"><title>2024-07-15 | ETH buy 100.00 usd | reason=static_target_rebalance</title></rect>
<rect x="377.2723577235772" y="696.0136223110147" width="5.455284552845528" height="11.486377688985272" fill="#2563eb" opacity="0.85"><title>2024-07-22 | ETH buy 100.00 usd | reason=static_target_rebalance</title></rect>
<rect x="387.2723577235772" y="696.0136223110147" width="5.455284552845528" height="11.486377688985272" fill="#2563eb" opacity="0.85"><title>2024-07-29 | ETH buy 100.00 usd | reason=static_target_rebalance</title></rect>
<rect x="397.2723577235772" y="696.0136223110147" width="5.455284552845528" height="11.486377688985272" fill="#2563eb" opacity="0.85"><title>2024-08-05 | ETH buy 100.00 usd | reason=static_target_rebalance</title></rect>
<rect x="407.2723577235772" y="696.0136223110147" width="5.455284552845528" height="11.486377688985272" fill="#2563eb" opacity="0.85"><title>2024-08-12 | ETH buy 100.00 usd | reason=static_target_rebalance</title></rect>
<rect x="417.2723577235772" y="696.0136223110147" width="5.455284552845528" height="11.486377688985272" fill="#2563eb" opacity="0.85"><title>2024-08-19 | ETH buy 100.00 usd | reason=static_target_rebalance</title></rect>
<rect x="427.27235772357716" y="696.0136223110147" width="5.455284552845528" height="11.486377688985272" fill="#2563eb" opacity="0.85"><title>2024-08-26 | ETH buy 100.00 usd | reason=static_target_rebalance</title></rect>
<rect x="437.2723577235772" y="696.0136223110147" width="5.455284552845528" height="11.486377688985272" fill="#2563eb" opacity="0.85"><title>2024-09-02 | ETH buy 100.00 usd | reason=static_target_rebalance</title></rect>
<rect x="447.2723577235772" y="696.0136223110147" width="5.455284552845528" height="11.486377688985272" fill="#2563eb" opacity="0.85"><title>2024-09-09 | ETH buy 100.00 usd | reason=static_target_rebalance</title></rect>
<rect x="457.2723577235772" y="696.0136223110147" width="5.455284552845528" height="11.486377688985272" fill="#2563eb" opacity="0.85"><title>2024-09-16 | ETH buy 100.00 usd | reason=static_target_rebalance</title></rect>
<rect x="467.2723577235772" y="696.0136223110147" width="5.455284552845528" height="11.486377688985272" fill="#2563eb" opacity="0.85"><title>2024-09-23 | ETH buy 100.00 usd | reason=static_target_rebalance</title></rect>
<rect x="477.2723577235772" y="696.0136223110147" width="5.455284552845528" height="11.486377688985272" fill="#2563eb" opacity="0.85"><title>2024-09-30 | ETH buy 100.00 usd | reason=static_target_rebalance</title></rect>
<rect x="487.27235772357716" y="696.0136223110147" width="5.455284552845528" height="11.486377688985272" fill="#2563eb" opacity="0.85"><title>2024-10-07 | ETH buy 100.00 usd | reason=static_target_rebalance</title></rect>
<rect x="497.2723577235772" y="696.0136223110147" width="5.455284552845528" height="11.486377688985272" fill="#2563eb" opacity="0.85"><title>2024-10-14 | ETH buy 100.00 usd | reason=static_target_rebalance</title></rect>
<rect x="507.2723577235772" y="696.0136223110147" width="5.455284552845528" height="11.486377688985272" fill="#2563eb" opacity="0.85"><title>2024-10-21 | ETH buy 100.00 usd | reason=static_target_rebalance</title></rect>
<rect x="517.2723577235772" y="696.0136223110147" width="5.455284552845528" height="11.486377688985272" fill="#2563eb" opacity="0.85"><title>2024-10-28 | ETH buy 100.00 usd | reason=static_target_rebalance</title></rect>
<rect x="527.2723577235772" y="696.0136223110147" width="5.455284552845528" height="11.486377688985272" fill="#2563eb" opacity="0.85"><title>2024-11-04 | ETH buy 100.00 usd | reason=static_target_rebalance</title></rect>
<rect x="537.2723577235772" y="707.5" width="5.455284552845528" height="12.703446608045624" fill="#7c3aed" opacity="0.85"><title>2024-11-11 | ETH sell 110.60 usd | reason=static_target_rebalance</title></rect>
<rect x="547.2723577235772" y="702.8251585155872" width="5.455284552845528" height="4.674841484412809" fill="#2563eb" opacity="0.85"><title>2024-11-18 | ETH buy 40.70 usd | reason=static_target_rebalance</title></rect>
<rect x="557.2723577235772" y="707.5" width="5.455284552845528" height="5.3054167337438685" fill="#7c3aed" opacity="0.85"><title>2024-11-25 | ETH sell 46.19 usd | reason=static_target_rebalance</title></rect>
<rect x="567.2723577235772" y="707.5" width="5.455284552845528" height="11.005863659303941" fill="#7c3aed" opacity="0.85"><title>2024-12-02 | ETH sell 95.82 usd | reason=static_target_rebalance</title></rect>
<rect x="577.2723577235772" y="707.5" width="5.455284552845528" height="7.180604878058716" fill="#7c3aed" opacity="0.85"><title>2024-12-09 | ETH sell 62.51 usd | reason=static_target_rebalance</title></rect>
<rect x="587.2723577235772" y="707.5" width="5.455284552845528" height="6.293638240500627" fill="#7c3aed" opacity="0.85"><title>2024-12-16 | ETH sell 54.79 usd | reason=static_target_rebalance</title></rect>
<rect x="597.2723577235772" y="696.3121528530758" width="5.455284552845528" height="11.187847146924241" fill="#2563eb" opacity="0.85"><title>2024-12-23 | ETH buy 97.40 usd | reason=static_target_rebalance</title></rect>
<rect x="607.2723577235772" y="701.4038137159276" width="5.455284552845528" height="6.09618628407236" fill="#2563eb" opacity="0.85"><title>2024-12-30 | ETH buy 53.07 usd | reason=static_target_rebalance</title></rect>
<rect x="617.2723577235772" y="707.5" width="5.455284552845528" height="2.023290920593354" fill="#7c3aed" opacity="0.85"><title>2025-01-06 | ETH sell 17.61 usd | reason=static_target_rebalance</title></rect>
<rect x="627.2723577235772" y="696.0136223110147" width="5.455284552845528" height="11.486377688985272" fill="#2563eb" opacity="0.85"><title>2025-01-13 | ETH buy 100.00 usd | reason=static_target_rebalance</title></rect>
<rect x="637.2723577235772" y="696.0136223110147" width="5.455284552845528" height="11.486377688985272" fill="#2563eb" opacity="0.85"><title>2025-01-20 | ETH buy 100.00 usd | reason=static_target_rebalance</title></rect>
<rect x="647.2723577235772" y="696.0136223110147" width="5.455284552845528" height="11.486377688985272" fill="#2563eb" opacity="0.85"><title>2025-01-27 | ETH buy 100.00 usd | reason=static_target_rebalance</title></rect>
<rect x="657.2723577235772" y="696.0136223110147" width="5.455284552845528" height="11.486377688985272" fill="#2563eb" opacity="0.85"><title>2025-02-03 | ETH buy 100.00 usd | reason=static_target_rebalance</title></rect>
<rect x="667.2723577235772" y="696.0136223110147" width="5.455284552845528" height="11.486377688985272" fill="#2563eb" opacity="0.85"><title>2025-02-10 | ETH buy 100.00 usd | reason=static_target_rebalance</title></rect>
<rect x="677.2723577235772" y="696.0136223110147" width="5.455284552845528" height="11.486377688985272" fill="#2563eb" opacity="0.85"><title>2025-02-17 | ETH buy 100.00 usd | reason=static_target_rebalance</title></rect>
<rect x="687.2723577235772" y="696.0136223110147" width="5.455284552845528" height="11.486377688985272" fill="#2563eb" opacity="0.85"><title>2025-02-24 | ETH buy 100.00 usd | reason=static_target_rebalance</title></rect>
<rect x="697.2723577235772" y="696.0136223110147" width="5.455284552845528" height="11.486377688985272" fill="#2563eb" opacity="0.85"><title>2025-03-03 | ETH buy 100.00 usd | reason=static_target_rebalance</title></rect>
<rect x="707.2723577235772" y="696.0136223110147" width="5.455284552845528" height="11.486377688985272" fill="#2563eb" opacity="0.85"><title>2025-03-10 | ETH buy 100.00 usd | reason=static_target_rebalance</title></rect>
<rect x="717.2723577235772" y="696.0136223110147" width="5.455284552845528" height="11.486377688985272" fill="#2563eb" opacity="0.85"><title>2025-03-17 | ETH buy 100.00 usd | reason=static_target_rebalance</title></rect>
<rect x="727.2723577235772" y="696.0136223110147" width="5.455284552845528" height="11.486377688985272" fill="#2563eb" opacity="0.85"><title>2025-03-24 | ETH buy 100.00 usd | reason=static_target_rebalance</title></rect>
<rect x="737.2723577235772" y="696.0136223110147" width="5.455284552845528" height="11.486377688985272" fill="#2563eb" opacity="0.85"><title>2025-03-31 | ETH buy 100.00 usd | reason=static_target_rebalance</title></rect>
<rect x="747.2723577235772" y="696.0136223110147" width="5.455284552845528" height="11.486377688985272" fill="#2563eb" opacity="0.85"><title>2025-04-07 | ETH buy 100.00 usd | reason=static_target_rebalance</title></rect>
<rect x="757.2723577235773" y="696.0136223110147" width="5.455284552845528" height="11.486377688985272" fill="#2563eb" opacity="0.85"><title>2025-04-14 | ETH buy 100.00 usd | reason=static_target_rebalance</title></rect>
<rect x="767.2723577235771" y="696.0136223110147" width="5.455284552845528" height="11.486377688985272" fill="#2563eb" opacity="0.85"><title>2025-04-21 | ETH buy 100.00 usd | reason=static_target_rebalance</title></rect>
<rect x="777.2723577235772" y="697.8773231373875" width="5.455284552845528" height="9.62267686261248" fill="#2563eb" opacity="0.85"><title>2025-04-28 | ETH buy 83.77 usd | reason=static_target_rebalance</title></rect>
<rect x="787.2723577235772" y="704.5293552448948" width="5.455284552845528" height="2.9706447551052406" fill="#2563eb" opacity="0.85"><title>2025-05-05 | ETH buy 25.86 usd | reason=static_target_rebalance</title></rect>
<rect x="797.2723577235772" y="707.5" width="5.455284552845528" height="42.75920577466263" fill="#7c3aed" opacity="0.85"><title>2025-05-12 | ETH sell 372.26 usd | reason=static_target_rebalance</title></rect>
<rect x="807.2723577235772" y="707.5" width="5.455284552845528" height="20.87324021842096" fill="#7c3aed" opacity="0.85"><title>2025-05-19 | ETH sell 181.72 usd | reason=static_target_rebalance</title></rect>
<rect x="817.2723577235772" y="707.5" width="5.455284552845528" height="8.898801967985605" fill="#7c3aed" opacity="0.85"><title>2025-05-26 | ETH sell 77.47 usd | reason=static_target_rebalance</title></rect>
<rect x="827.2723577235772" y="707.5" width="5.455284552845528" height="11.286459767630845" fill="#7c3aed" opacity="0.85"><title>2025-06-02 | ETH sell 98.26 usd | reason=static_target_rebalance</title></rect>
<rect x="837.2723577235772" y="707.5" width="5.455284552845528" height="5.80038666110363" fill="#7c3aed" opacity="0.85"><title>2025-06-09 | ETH sell 50.50 usd | reason=static_target_rebalance</title></rect>
<rect x="847.2723577235772" y="705.0019732240376" width="5.455284552845528" height="2.498026775962444" fill="#2563eb" opacity="0.85"><title>2025-06-16 | ETH buy 21.75 usd | reason=static_target_rebalance</title></rect>
<rect x="857.2723577235772" y="698.9073435136557" width="5.455284552845528" height="8.592656486344254" fill="#2563eb" opacity="0.85"><title>2025-06-23 | ETH buy 74.81 usd | reason=static_target_rebalance</title></rect>
<rect x="867.2723577235772" y="706.3264248051188" width="5.455284552845528" height="1.5" fill="#2563eb" opacity="0.85"><title>2025-06-30 | ETH buy 10.22 usd | reason=static_target_rebalance</title></rect>
<rect x="877.2723577235773" y="707.5" width="5.455284552845528" height="2.0918894530905163" fill="#7c3aed" opacity="0.85"><title>2025-07-07 | ETH sell 18.21 usd | reason=static_target_rebalance</title></rect>
<rect x="887.2723577235771" y="707.5" width="5.455284552845528" height="20.885663070311466" fill="#7c3aed" opacity="0.85"><title>2025-07-14 | ETH sell 181.83 usd | reason=static_target_rebalance</title></rect>
<rect x="897.2723577235772" y="707.5" width="5.455284552845528" height="62.5" fill="#7c3aed" opacity="0.85"><title>2025-07-21 | ETH sell 544.12 usd | reason=static_target_rebalance</title></rect>
<rect x="907.2723577235772" y="707.5" width="5.455284552845528" height="32.732194209304566" fill="#7c3aed" opacity="0.85"><title>2025-07-28 | ETH sell 284.97 usd | reason=static_target_rebalance</title></rect>
<rect x="917.2723577235772" y="707.5" width="5.455284552845528" height="15.111101840772108" fill="#7c3aed" opacity="0.85"><title>2025-08-04 | ETH sell 131.56 usd | reason=static_target_rebalance</title></rect>
<rect x="927.2723577235772" y="707.5" width="5.455284552845528" height="32.26766921876549" fill="#7c3aed" opacity="0.85"><title>2025-08-11 | ETH sell 280.92 usd | reason=static_target_rebalance</title></rect>
<rect x="937.2723577235772" y="707.5" width="5.455284552845528" height="23.89301257418049" fill="#7c3aed" opacity="0.85"><title>2025-08-18 | ETH sell 208.01 usd | reason=static_target_rebalance</title></rect>
<rect x="947.2723577235772" y="707.5" width="5.455284552845528" height="22.406229758924383" fill="#7c3aed" opacity="0.85"><title>2025-08-25 | ETH sell 195.07 usd | reason=static_target_rebalance</title></rect>
<rect x="957.2723577235772" y="707.5" width="5.455284552845528" height="9.033746921464626" fill="#7c3aed" opacity="0.85"><title>2025-09-01 | ETH sell 78.65 usd | reason=static_target_rebalance</title></rect>
<rect x="967.2723577235772" y="707.5" width="5.455284552845528" height="1.5" fill="#7c3aed" opacity="0.85"><title>2025-09-08 | ETH sell 5.60 usd | reason=static_target_rebalance</title></rect>
<rect x="977.2723577235772" y="707.5" width="5.455284552845528" height="7.4305123299348" fill="#7c3aed" opacity="0.85"><title>2025-09-15 | ETH sell 64.69 usd | reason=static_target_rebalance</title></rect>
<rect x="987.2723577235772" y="698.2210950963449" width="5.455284552845528" height="9.278904903655075" fill="#2563eb" opacity="0.85"><title>2025-09-22 | ETH buy 80.78 usd | reason=static_target_rebalance</title></rect>
<rect x="997.2723577235773" y="701.5560538990815" width="5.455284552845528" height="5.943946100918538" fill="#2563eb" opacity="0.85"><title>2025-09-29 | ETH buy 51.75 usd | reason=static_target_rebalance</title></rect>
<rect x="1007.2723577235771" y="707.5" width="5.455284552845528" height="8.068128698634496" fill="#7c3aed" opacity="0.85"><title>2025-10-06 | ETH sell 70.24 usd | reason=static_target_rebalance</title></rect>
<rect x="1017.2723577235772" y="700.9541703918409" width="5.455284552845528" height="6.545829608159124" fill="#2563eb" opacity="0.85"><title>2025-10-13 | ETH buy 56.99 usd | reason=static_target_rebalance</title></rect>
<rect x="1027.2723577235772" y="696.5874086369769" width="5.455284552845528" height="10.912591363023125" fill="#2563eb" opacity="0.85"><title>2025-10-20 | ETH buy 95.00 usd | reason=static_target_rebalance</title></rect>
<rect x="1037.2723577235772" y="704.8755842754877" width="5.455284552845528" height="2.624415724512346" fill="#2563eb" opacity="0.85"><title>2025-10-27 | ETH buy 22.85 usd | reason=static_target_rebalance</title></rect>
<rect x="1047.2723577235772" y="696.0136223110147" width="5.455284552845528" height="11.486377688985272" fill="#2563eb" opacity="0.85"><title>2025-11-03 | ETH buy 100.00 usd | reason=static_target_rebalance</title></rect>
<rect x="1057.2723577235772" y="696.0136223110147" width="5.455284552845528" height="11.486377688985272" fill="#2563eb" opacity="0.85"><title>2025-11-10 | ETH buy 100.00 usd | reason=static_target_rebalance</title></rect>
<rect x="1067.2723577235772" y="696.0136223110147" width="5.455284552845528" height="11.486377688985272" fill="#2563eb" opacity="0.85"><title>2025-11-17 | ETH buy 100.00 usd | reason=static_target_rebalance</title></rect>
<rect x="1077.2723577235772" y="696.0136223110147" width="5.455284552845528" height="11.486377688985272" fill="#2563eb" opacity="0.85"><title>2025-11-24 | ETH buy 100.00 usd | reason=static_target_rebalance</title></rect>
<rect x="1087.2723577235772" y="696.0136223110147" width="5.455284552845528" height="11.486377688985272" fill="#2563eb" opacity="0.85"><title>2025-12-01 | ETH buy 100.00 usd | reason=static_target_rebalance</title></rect>
<rect x="1097.2723577235772" y="707.5" width="5.455284552845528" height="4.477554176077888" fill="#7c3aed" opacity="0.85"><title>2025-12-08 | ETH sell 38.98 usd | reason=static_target_rebalance</title></rect>
<rect x="1107.2723577235772" y="706.0083224018426" width="5.455284552845528" height="1.5" fill="#2563eb" opacity="0.85"><title>2025-12-15 | ETH buy 12.99 usd | reason=static_target_rebalance</title></rect>
<rect x="1117.2723577235772" y="706.444001779842" width="5.455284552845528" height="1.5" fill="#2563eb" opacity="0.85"><title>2025-12-22 | ETH buy 9.19 usd | reason=static_target_rebalance</title></rect>
<rect x="1127.2723577235772" y="704.6160123649149" width="5.455284552845528" height="2.8839876350850773" fill="#2563eb" opacity="0.85"><title>2025-12-29 | ETH buy 25.11 usd | reason=static_target_rebalance</title></rect>
<rect x="1137.2723577235772" y="707.5" width="5.455284552845528" height="6.614120558868763" fill="#7c3aed" opacity="0.85"><title>2026-01-05 | ETH sell 57.58 usd | reason=static_target_rebalance</title></rect>
<rect x="1147.2723577235772" y="706.6454165261888" width="5.455284552845528" height="1.5" fill="#2563eb" opacity="0.85"><title>2026-01-12 | ETH buy 7.44 usd | reason=static_target_rebalance</title></rect>
<rect x="1157.2723577235772" y="707.5" width="5.455284552845528" height="3.2909223328408643" fill="#7c3aed" opacity="0.85"><title>2026-01-19 | ETH sell 28.65 usd | reason=static_target_rebalance</title></rect>
<rect x="1167.2723577235772" y="699.8337288475918" width="5.455284552845528" height="7.6662711524081715" fill="#2563eb" opacity="0.85"><title>2026-01-26 | ETH buy 66.74 usd | reason=static_target_rebalance</title></rect>
<rect x="1177.2723577235772" y="696.0136223110147" width="5.455284552845528" height="11.486377688985272" fill="#2563eb" opacity="0.85"><title>2026-02-02 | ETH buy 100.00 usd | reason=static_target_rebalance</title></rect>
<rect x="1187.2723577235772" y="696.0136223110147" width="5.455284552845528" height="11.486377688985272" fill="#2563eb" opacity="0.85"><title>2026-02-09 | ETH buy 100.00 usd | reason=static_target_rebalance</title></rect>
<rect x="1197.2723577235772" y="696.0136223110147" width="5.455284552845528" height="11.486377688985272" fill="#2563eb" opacity="0.85"><title>2026-02-16 | ETH buy 100.00 usd | reason=static_target_rebalance</title></rect>
<rect x="1207.2723577235772" y="696.0136223110147" width="5.455284552845528" height="11.486377688985272" fill="#2563eb" opacity="0.85"><title>2026-02-23 | ETH buy 100.00 usd | reason=static_target_rebalance</title></rect>
<rect x="1217.2723577235772" y="699.3551275709982" width="5.455284552845528" height="8.144872429001794" fill="#2563eb" opacity="0.85"><title>2026-03-02 | ETH buy 70.91 usd | reason=static_target_rebalance</title></rect>
<rect x="1227.2723577235772" y="701.689878218178" width="5.455284552845528" height="5.810121781821977" fill="#2563eb" opacity="0.85"><title>2026-03-09 | ETH buy 50.58 usd | reason=static_target_rebalance</title></rect>
<rect x="1237.2723577235772" y="707.5" width="5.455284552845528" height="12.662124130163079" fill="#7c3aed" opacity="0.85"><title>2026-03-16 | ETH sell 110.24 usd | reason=static_target_rebalance</title></rect>
<rect x="1247.2723577235772" y="706.010506480577" width="5.455284552845528" height="1.5" fill="#2563eb" opacity="0.85"><title>2026-03-23 | ETH buy 12.97 usd | reason=static_target_rebalance</title></rect>
<rect x="1257.2723577235772" y="703.9224620433447" width="5.455284552845528" height="3.5775379566553056" fill="#2563eb" opacity="0.85"><title>2026-03-30 | ETH buy 31.15 usd | reason=static_target_rebalance</title></rect>
<rect x="1267.2723577235772" y="707.5" width="5.455284552845528" height="1.5" fill="#7c3aed" opacity="0.85"><title>2026-04-06 | ETH sell 7.39 usd | reason=static_target_rebalance</title></rect>
<rect x="1277.2723577235772" y="707.5" width="5.455284552845528" height="10.260310052866771" fill="#7c3aed" opacity="0.85"><title>2026-04-13 | ETH sell 89.33 usd | reason=static_target_rebalance</title></rect>
<rect x="1287.2723577235772" y="707.140445013212" width="5.455284552845528" height="1.5" fill="#2563eb" opacity="0.85"><title>2026-04-20 | ETH buy 3.13 usd | reason=static_target_rebalance</title></rect>
<rect x="1297.2723577235772" y="704.5931592372153" width="5.455284552845528" height="2.906840762784668" fill="#2563eb" opacity="0.85"><title>2026-04-27 | ETH buy 25.31 usd | reason=static_target_rebalance</title></rect>
<rect x="1307.2723577235772" y="705.6078206386665" width="5.455284552845528" height="1.8921793613335467" fill="#2563eb" opacity="0.85"><title>2026-05-04 | ETH buy 16.47 usd | reason=static_target_rebalance</title></rect>
<text x="24" y="707.5" transform="rotate(-90 24,707.5)" text-anchor="middle" font-family="monospace" font-size="14" fill="#0f172a">ETH weekly trade usd</text>
<rect x="1040" y="478" width="14" height="10" fill="#ea580c" opacity="0.85"/>
<text x="1062" y="488" font-family="monospace" font-size="11" fill="#0f172a">BTC buy</text>
<rect x="1190" y="478" width="14" height="10" fill="#dc2626" opacity="0.85"/>
<text x="1212" y="488" font-family="monospace" font-size="11" fill="#0f172a">BTC sell</text>
<rect x="1040" y="498" width="14" height="10" fill="#2563eb" opacity="0.85"/>
<text x="1062" y="508" font-family="monospace" font-size="11" fill="#0f172a">ETH buy</text>
<rect x="1190" y="498" width="14" height="10" fill="#7c3aed" opacity="0.85"/>
<text x="1212" y="508" font-family="monospace" font-size="11" fill="#0f172a">ETH sell</text>
</svg>