<svg xmlns="http://www.w3.org/2000/svg" width="1400" height="800">
<rect width="1400" height="800" fill="#f8fafc"/>
<text x="700.0" y="42" text-anchor="middle" font-family="monospace" font-size="24" fill="#0f172a">Portfolio Value Over Time | start=2020-01-01 | interval=7d</text>
<line x1="90" y1="710" x2="1310" y2="710" stroke="#334155" stroke-width="2"/>
<line x1="90" y1="90" x2="90" y2="710" stroke="#334155" stroke-width="2"/>
<line x1="90.0" y1="710" x2="90.0" y2="90" stroke="#cbd5e1" stroke-width="1"/>
<text x="90.0" y="734" text-anchor="middle" font-family="monospace" font-size="11" fill="#475569">2020-01-01</text>
<line x1="90" y1="710.0" x2="1310" y2="710.0" stroke="#cbd5e1" stroke-width="1"/>
<text x="78" y="714.0" text-anchor="end" font-family="monospace" font-size="12" fill="#475569">11830</text>
<line x1="334.0" y1="710" x2="334.0" y2="90" stroke="#cbd5e1" stroke-width="1"/>
<text x="334.0" y="734" text-anchor="middle" font-family="monospace" font-size="11" fill="#475569">2021-04-07</text>
<line x1="90" y1="586.0" x2="1310" y2="586.0" stroke="#cbd5e1" stroke-width="1"/>
<text x="78" y="590.0" text-anchor="end" font-family="monospace" font-size="12" fill="#475569">64507</text>
<line x1="578.0" y1="710" x2="578.0" y2="90" stroke="#cbd5e1" stroke-width="1"/>
<text x="578.0" y="734" text-anchor="middle" font-family="monospace" font-size="11" fill="#475569">2022-07-13</text>
<line x1="90" y1="462.0" x2="1310" y2="462.0" stroke="#cbd5e1" stroke-width="1"/>
<text x="78" y="466.0" text-anchor="end" font-family="monospace" font-size="12" fill="#475569">117184</text>
<line x1="822.0" y1="710" x2="822.0" y2="90" stroke="#cbd5e1" stroke-width="1"/>
<text x="822.0" y="734" text-anchor="middle" font-family="monospace" font-size="11" fill="#475569">2023-10-18</text>
<line x1="90" y1="338.0" x2="1310" y2="338.0" stroke="#cbd5e1" stroke-width="1"/>
<text x="78" y="342.0" text-anchor="end" font-family="monospace" font-size="12" fill="#475569">169861</text>
<line x1="1066.0" y1="710" x2="1066.0" y2="90" stroke="#cbd5e1" stroke-width="1"/>
<text x="1066.0" y="734" text-anchor="middle" font-family="monospace" font-size="11" fill="#475569">2025-01-22</text>
<line x1="90" y1="214.00000000000006" x2="1310" y2="214.00000000000006" stroke="#cbd5e1" stroke-width="1"/>
<text x="78" y="218.00000000000006" text-anchor="end" font-family="monospace" font-size="12" fill="#475569">222538</text>
<line x1="1310.0" y1="710" x2="1310.0" y2="90" stroke="#cbd5e1" stroke-width="1"/>
<text x="1310.0" y="734" text-anchor="middle" font-family="monospace" font-size="11" fill="#475569">2026-04-29</text>
<line x1="90" y1="90.0" x2="1310" y2="90.0" stroke="#cbd5e1" stroke-width="1"/>
<text x="78" y="94.0" text-anchor="end" font-family="monospace" font-size="12" fill="#475569">275215</text>
<text x="700.0" y="782" text-anchor="middle" font-family="monospace" font-size="16" fill="#0f172a">time</text>
<text x="24" y="400.0" transform="rotate(-90 24,400.0)" text-anchor="middle" font-family="monospace" font-size="16" fill="#0f172a">portfolio_value_usd</text>
<line x1="970" y1="80" x2="988" y2="80" stroke="#0f766e" stroke-width="3"/>
<text x="998" y="84" font-family="monospace" font-size="12" fill="#0f172a">static_50_50_rebalance</text>
<line x1="970" y1="104" x2="988" y2="104" stroke="#dc2626" stroke-width="3"/>
<text x="998" y="108" font-family="monospace" font-size="12" fill="#0f172a">target_50_50_with_cash_band</text>
<line x1="970" y1="128" x2="988" y2="128" stroke="#2563eb" stroke-width="3"/>
<text x="998" y="132" font-family="monospace" font-size="12" fill="#0f172a">narrow_cash_band_rebalance</text>
<line x1="970" y1="152" x2="988" y2="152" stroke="#7c3aed" stroke-width="3"/>
<text x="998" y="156" font-family="monospace" font-size="12" fill="#0f172a">drawdown_tilt_rebalance</text>
<line x1="970" y1="176" x2="988" y2="176" stroke="#b45309" stroke-width="3"/>
<text x="998" y="180" font-family="monospace" font-size="12" fill="#0f172a">btc_defensive_eth_aggressive</text>
<polyline points="90.0,704.332035348805 93.6969696969697,702.408126800104 97.39393939393939,699.1224276886612 101.0909090909091,699.2551109844691 104.78787878787878,697.6472810534963 108.48484848484848,694.305260130757 112.18181818181819,687.4893953849956 115.87878787878788,689.5273570114166 119.57575757575758,693.8717170227841 123.27272727272728,693.8232629909437 126.96969696969697,697.8102889804261 130.66666666666666,708.9782731790599 134.36363636363637,704.7666581770548 138.06060606060606,704.8280909914358 141.75757575757575,699.8824232324498 145.45454545454544,703.2777286215578 149.15151515151516,699.4636103006901 152.84848484848484,693.1309325565857 156.54545454545456,693.7782336064126 160.24242424242425,693.3904053676794 163.93939393939394,692.1406729867449 167.63636363636363,692.8592655318134 171.33333333333331,688.8196265810116 175.03030303030303,688.0731561302078 178.72727272727272,690.1293943186843 182.42424242424244,690.41443942051 186.12121212121212,690.784941896234 189.8181818181818,689.076447439596 193.5151515151515,690.285242862058 197.2121212121212,687.4963916104908 200.9090909090909,680.0048178146167 204.6060606060606,672.3939132176544 208.3030303030303,673.7846028880149 212.0,671.9771688978269 215.6969696969697,674.0593488190718 219.3939393939394,670.6367004913241 223.0909090909091,678.9800256743981 226.78787878787878,676.3684674031771 230.4848484848485,680.9724988820739 234.1818181818182,677.0539009780591 237.87878787878788,678.5399564111203 241.57575757575756,674.2813826931814 245.27272727272725,670.3485498323943 248.96969696969697,669.5207268022771 252.66666666666666,666.6501599245439 256.3636363636364,659.2218089718909 260.06060606060606,653.9548137956127 263.75757575757575,645.872529943426 267.45454545454544,642.9681289676247 271.1515151515151,645.8701720891947 274.8484848484849,636.1295317694984 278.5454545454545,635.9006972115084 282.24242424242425,614.1891420367406 285.93939393939394,569.5584443473118 289.6363636363636,573.5443667123114 293.3333333333333,562.2611925350859 297.030303030303,579.3502564745459 300.72727272727275,542.1895973390671 304.4242424242424,523.9202622275708 308.1212121212121,504.10228984065964 311.8181818181818,520.0170092335266 315.5151515151515,521.8634720064904 319.2121212121212,499.93429832511555 322.9090909090909,493.10756595493797 326.6060606060606,517.3805738303608 330.30303030303025,487.8747041921412 334.0,490.3407036998567 337.6969696969697,453.89152071643196 341.3939393939394,473.8207830267546 345.09090909090907,453.22871737148796 348.7878787878788,413.65328274187704 352.4848484848485,418.5907654095565 356.1818181818182,499.58840539713844 359.8787878787879,476.33319735029613 363.57575757575756,487.5280134869287 367.27272727272725,491.5153670883975 370.969696969697,498.1340055869673 374.6666666666667,525.6336509749365 378.3636363636364,509.4955999714264 382.06060606060606,510.9085812262814 385.75757575757575,526.5674522599564 389.45454545454544,528.2539899782005 393.1515151515151,495.0302554589428 396.8484848484849,478.0420463881306 400.5454545454545,445.5570713493993 404.24242424242425,453.4325807881462 407.93939393939394,434.3350403603304 411.6363636363636,411.9565878761848 415.3333333333333,430.99333715054536 419.03030303030306,421.41040052822484 422.7272727272727,452.37356023337986 426.42424242424244,466.02047317697986 430.1212121212121,402.82685168043764 433.8181818181818,396.5057613010947 437.5151515151515,354.4743120889161 441.21212121212125,381.40074823130857 444.9090909090909,345.5063056713336 448.6060606060606,339.73042280754964 452.3030303030303,362.8836020816947 456.0,371.40947739991554 459.6969696969697,360.29933619950486 463.3939393939394,382.5345481778024 467.09090909090907,400.7221916541723 470.7878787878788,402.8173718455914 474.48484848484844,420.3986685521359 478.1818181818182,431.83960016559985 481.8787878787879,436.1821111204117 485.57575757575756,452.50354918652795 489.27272727272725,488.1526379961621 492.969696969697,479.59496241215595 496.66666666666663,437.2456162567352 500.3636363636364,443.2630881882521 504.06060606060606,481.72105730875006 507.75757575757575,449.3580585837559 511.45454545454544,463.2038602957793 515.1515151515152,463.51900681977725 518.8484848484848,448.360669089223 522.5454545454545,423.6621105081052 526.2424242424242,442.4057203148417 529.939393939394,449.73540345338927 533.6363636363636,450.66360431883527 537.3333333333333,463.5308018483129 541.030303030303,460.47784238367376 544.7272727272727,522.8725499043026 548.4242424242424,530.2195126578907 552.1212121212121,526.6242198497989 555.8181818181818,531.1088127537291 559.5151515151515,531.1269688509815 563.2121212121212,577.3162915234765 566.909090909091,593.7131511077919 570.6060606060605,590.7561711450941 574.3030303030303,584.9112660247479 578.0,589.5756903133049 581.6969696969697,559.2729359832505 585.3939393939394,554.3761597323769 589.0909090909091,555.6346667392319 592.7878787878788,541.1916033350072 596.4848484848485,544.052281260799 600.1818181818181,558.2009249887653 603.8787878787879,567.0248151893643 607.5757575757576,566.2484289400976 611.2727272727273,562.6207891675397 614.969696969697,585.5818169837723 618.6666666666666,578.1862030916195 622.3636363636364,574.9582674983578 626.060606060606,581.0222835451843 629.7575757575758,581.5855310033685 633.4545454545454,562.5737125847638 637.1515151515151,566.8971689750782 640.8484848484849,600.3508160530761 644.5454545454545,592.2592387183729 648.2424242424242,593.9781954324179 651.939393939394,586.5999756957767 655.6363636363636,590.7455753032871 659.3333333333334,583.7582843977544 663.0303030303031,591.604522955999 666.7272727272727,593.7711197265849 670.4242424242425,589.4810228252952 674.1212121212121,579.2923817281168 677.8181818181818,564.0133480468612 681.5151515151515,551.082793240693 685.2121212121211,547.4655141567259 688.9090909090909,549.5931733323855 692.6060606060606,544.0073910371644 696.3030303030303,545.9479906314182 700.0,546.6858373454434 703.6969696969697,559.0518993094771 707.3939393939395,544.5391640938374 711.090909090909,531.2272533663249 714.7878787878788,525.4495387027164 718.4848484848485,520.5610907254622 722.1818181818182,514.762676503749 725.8787878787879,517.3622903959988 729.5757575757576,521.6620308717944 733.2727272727273,517.9896898732045 736.9696969696969,525.2117291585416 740.6666666666666,526.7951229272827 744.3636363636364,531.1804889494688 748.0606060606061,524.9572390798179 751.7575757575759,529.5907722451594 755.4545454545454,541.7153925693774 759.1515151515151,515.3453916659626 762.8484848484849,518.014979723339 766.5454545454546,512.8180641125238 770.2424242424242,514.9873710773185 773.9393939393939,515.5493892355283 777.6363636363636,518.0130084027247 781.3333333333334,520.1311064136063 785.030303030303,518.225846165885 788.7272727272727,523.0911455286033 792.4242424242425,535.867838450391 796.121212121212,531.9595651296409 799.8181818181818,540.1889653933893 803.5151515151515,539.8892184658273 807.2121212121212,536.476111267144 810.909090909091,539.9868814380146 814.6060606060606,533.281456062003 818.3030303030303,539.9780430878016 822.0,535.8047132681097 825.6969696969697,506.4571043708938 829.3939393939394,500.760704468386 833.0909090909091,498.1070452408684 836.7878787878788,483.3079017713526 840.4848484848484,484.32369772073423 844.1818181818181,484.8654317293093 847.8787878787879,458.86158253401794 851.5757575757576,459.77155438268426 855.2727272727274,460.6219784074427 858.9696969696969,452.2134295941062 862.6666666666666,462.13821052083904 866.3636363636364,433.7981701356417 870.0606060606061,446.7349643295903 873.7575757575758,467.6736059921275 877.4545454545455,458.7862630951829 881.1515151515151,447.1156147822837 884.8484848484849,410.3014510742758 888.5454545454545,401.22487465282336 892.2424242424242,354.15061133920943 895.939393939394,325.08117737537776 899.6363636363637,299.19995749860226 903.3333333333333,333.8376040902153 907.030303030303,330.79564226217906 910.7272727272727,347.5762179601751 914.4242424242425,325.6964739906024 918.1212121212121,373.78963941223736 921.8181818181818,359.4183186357445 925.5151515151515,381.7432991628348 929.2121212121212,374.5409871696514 932.9090909090909,359.4919683181237 936.6060606060606,318.2482265185672 940.3030303030304,320.69004998232214 944.0,307.29971117260567 947.6969696969696,328.1331053459638 951.3939393939394,336.10615314869364 955.0909090909091,354.8026081041368 958.7878787878789,359.9930321996138 962.4848484848485,374.8094957533897 966.1818181818181,345.5521014584016 969.8787878787879,344.8075764512189 973.5757575757576,351.475225347031 977.2727272727273,416.3222316330311 980.969696969697,391.6694529000727 984.6666666666666,387.3907402459704 988.3636363636364,397.70220905978425 992.060606060606,404.3378928228863 995.7575757575758,411.67641430870964 999.4545454545455,399.6897562702258 1003.1515151515152,385.20578540471206 1006.8484848484848,402.70999698870827 1010.5454545454545,402.55371499234394 1014.2424242424242,373.33312566111596 1017.939393939394,380.50575828566116 1021.6363636363636,360.4265684450099 1025.3333333333335,349.6155027472491 1029.030303030303,292.0504360429484 1032.7272727272727,290.84934350972645 1036.4242424242425,254.26886708369517 1040.121212121212,238.4817491867667 1043.818181818182,233.99694838490814 1047.5151515151515,247.24903090267202 1051.212121212121,255.85518793867953 1054.909090909091,273.2294226955175 1058.6060606060605,273.4305742084777 1062.3030303030305,255.76662863181963 1066.0,261.3386132017707 1069.6969696969695,268.4715733857143 1073.3939393939395,300.75523646925603 1077.090909090909,301.5352967219712 1080.7878787878788,305.20848710814784 1084.4848484848485,351.80749914168285 1088.1818181818182,345.9133408493381 1091.878787878788,380.6698967193286 1095.5757575757575,364.4680576227485 1099.2727272727273,367.7857825725017 1102.969696969697,391.041644603371 1106.6666666666667,400.27371146533477 1110.3636363636363,405.0553415296534 1114.060606060606,371.5182110627212 1117.7575757575758,370.98745672235174 1121.4545454545455,365.02176803029886 1125.1515151515152,289.4401172638035 1128.848484848485,283.7342070510854 1132.5454545454545,277.28121097637575 1136.2424242424242,287.6174765308559 1139.939393939394,269.5307498511873 1143.6363636363637,292.9349161644788 1147.3333333333333,296.0433206902268 1151.030303030303,282.77844104650643 1154.7272727272727,264.6522317602243 1158.4242424242425,210.1220071974255 1162.121212121212,192.88657980883602 1165.8181818181818,183.27229675969204 1169.5151515151515,196.08894852183005 1173.2121212121212,116.81229684602602 1176.9090909090908,157.65806860342582 1180.6060606060605,154.31414256461244 1184.3030303030303,156.19350061346222 1188.0,157.00507180940951 1191.6969696969697,139.02318396708654 1195.3939393939393,168.5258508781136 1199.090909090909,147.1739380261979 1202.7878787878788,128.2063402007833 1206.4848484848485,182.32558493092074 1210.1818181818182,198.7083158367151 1213.878787878788,188.3431856026914 1217.5757575757575,227.576932471595 1221.2727272727273,232.56615772390245 1224.969696969697,275.64808619110715 1228.6666666666667,277.4377868606836 1232.3636363636365,261.55191689110546 1236.0606060606062,256.3103543154535 1239.7575757575758,297.3824952824708 1243.4545454545455,287.6744790332392 1247.1515151515152,286.5775315212178 1250.848484848485,266.69497102387663 1254.5454545454545,243.60727701577667 1258.2424242424242,281.5207261021957 1261.939393939394,280.3275735674956 1265.6363636363635,365.76788169813443 1269.3333333333333,391.2533915427432 1273.030303030303,391.43561156893287 1276.7272727272727,381.0330467661216 1280.4242424242423,366.3966507491367 1284.121212121212,376.7561525339188 1287.8181818181818,364.0312303113864 1291.5151515151515,366.3602786752293 1295.2121212121212,374.9089023043406 1298.909090909091,365.2280381867059 1302.6060606060605,345.73279668060485 1306.3030303030303,337.6719244863279 1310.0,351.0700201215811" fill="none" stroke="#0f766e" stroke-width="2.5"><title>static_50_50_rebalance | end=2026-04-29 | return=1054.01%</title></polyline>
<polyline points="90.0,704.332035348805 93.6969696969697,702.5768722159683 97.39393939393939,699.6725590723878 101.0909090909091,699.7901871064903 104.78787878787878,698.3930247662801 108.48484848484848,695.5099648819821 112.18181818181819,689.669625388412 115.87878787878788,691.3960137539626 119.57575757575758,695.0640424228383 123.27272727272728,695.0229472311077 126.96969696969697,698.4098936235102 130.66666666666666,707.9673572367481 134.36363636363637,704.2523888017937 138.06060606060606,704.3067651596751 141.75757575757575,699.9186295091974 145.45454545454544,702.9091441904022 149.15151515151516,699.5427606788412 152.84848484848484,693.9833368282402 156.54545454545456,694.5457408635492 160.24242424242425,694.2106149395923 163.93939393939394,693.1340253091911 167.63636363636363,693.7511339084921 171.33333333333331,690.2843404172864 175.03030303030303,689.6471911357771 178.72727272727272,691.3960061002803 182.42424242424244,691.6385942681821 186.12121212121212,691.9541825255693 189.8181818181818,690.4976494673533 193.5151515151515,691.5263583145919 197.2121212121212,689.151380233382 200.9090909090909,684.1388976806609 204.6060606060606,679.7959240197831 208.3030303030303,680.5042070807438 212.0,679.6376931983787 215.6969696969697,680.5968945830983 219.3939393939394,679.0380794553643 223.0909090909091,682.7614746568731 226.78787878787878,681.1048759958887 230.4848484848485,684.0291140847543 234.1818181818182,681.1547796415871 237.87878787878788,682.17721338908 241.57575757575756,679.3400297189825 245.27272727272725,676.7862716315734 248.96969696969697,676.2598115140411 252.66666666666666,674.4573856935142 256.3636363636364,669.8517314282194 260.06060606060606,667.0723545939704 263.75757575757575,663.2346087813213 267.45454545454544,661.9533082501763 271.1515151515151,663.1745643372581 274.8484848484849,659.1482112001702 278.5454545454545,659.0568501782725 282.24242424242425,650.515926747128 285.93939393939394,633.8428808042033 289.6363636363636,635.2167633611266 293.3333333333333,631.5044314610592 297.030303030303,636.8927874294044 300.72727272727275,622.898002430912 304.4242424242424,616.7633041660968 308.1212121212121,610.6176459914177 311.8181818181818,615.2534330727285 315.5151515151515,615.8855829407712 319.2121212121212,607.906148427912 322.9090909090909,605.7305818250973 326.6060606060606,612.881772490095 330.30303030303025,602.7696151750316 334.0,603.5208193514536 337.6969696969697,592.9721311627586 341.3939393939394,598.3882599312828 345.09090909090907,591.8708442758273 348.7878787878788,580.4741864316228 352.4848484848485,581.7192594849802 356.1818181818182,606.0450587418226 359.8787878787879,595.1963986971409 363.57575757575756,600.7519354680935 367.27272727272725,602.905513660641 370.969696969697,606.6415131181714 374.6666666666667,623.2004039950314 378.3636363636364,613.4574198229918 382.06060606060606,614.3258573437932 385.75757575757575,623.8807338438893 389.45454545454544,624.9083155666026 393.1515151515151,604.723531551873 396.8484848484849,594.325886958504 400.5454545454545,575.4758496068832 404.24242424242425,579.6019222932701 407.93939393939394,568.9826410220569 411.6363636363636,558.2181920281976 415.3333333333333,566.6793644341909 419.03030303030306,562.1840746391831 422.7272727272727,575.3166677657699 426.42424242424244,581.935003334178 430.1212121212121,547.2942339754657 433.8181818181818,544.5003149383779 437.5151515151515,529.8083616564558 441.21212121212125,538.3054888736065 444.9090909090909,527.7902293747638 448.6060606060606,526.152496012157 452.3030303030303,532.4908862448991 456.0,534.8302985162736 459.6969696969697,531.2020167141387 463.3939393939394,539.0411579100153 467.09090909090907,545.7311058285849 470.7878787878788,546.6404958446318 474.48484848484844,554.8491702169323 478.1818181818182,561.1155082586536 481.8787878787879,562.8917061089858 485.57575757575756,572.5527728319803 489.27272727272725,594.7358982282003 492.969696969697,589.3664153577867 496.66666666666663,562.1919624435071 500.3636363636364,566.0921723730978 504.06060606060606,591.1899721006971 507.75757575757575,570.2043683997257 511.45454545454544,579.2175777898169 515.1515151515152,579.4231853068673 518.8484848484848,569.5699593664247 522.5454545454545,553.4668293987028 526.2424242424242,565.7637585772892 529.939393939394,570.5696621492008 533.6363636363636,571.1770877147043 537.3333333333333,579.5878407588705 541.030303030303,577.599351123276 544.7272727272727,618.1961745620113 548.4242424242424,622.8824055910993 552.1212121212121,620.6162702303562 555.8181818181818,623.4284941969555 559.5151515151515,623.4395472022583 563.2121212121212,652.2511186661168 566.909090909091,662.2743415799052 570.6060606060605,660.5005772994706 574.3030303030303,657.0188015703849 578.0,659.7947583346867 581.6969696969697,641.8047314894983 585.3939393939394,638.8718752028085 589.0909090909091,639.6306913895501 592.7878787878788,630.8981161436068 596.4848484848485,632.6382857459613 600.1818181818181,641.261472014446 603.8787878787879,646.6188825807394 607.5757575757576,646.150065296565 611.2727272727273,643.9643008756515 614.969696969697,657.8019732248798 618.6666666666666,653.3876734790053 622.3636363636364,651.4635266900389 626.060606060606,655.079635953292 629.7575757575758,655.4147684062874 633.4545454545454,644.1172433265762 637.1515151515151,646.7021621634229 640.8484848484849,666.7354871114103 644.5454545454545,661.9611490546686 648.2424242424242,662.9722097792544 651.939393939394,658.6423596905672 655.6363636363636,661.0798929228567 659.3333333333334,656.974526099343 663.0303030303031,661.5959005648084 666.7272727272727,662.8693864478348 670.4242424242425,660.3527656806962 674.1212121212121,654.3709012090093 677.8181818181818,645.3609781365836 681.5151515151515,637.6796508595436 685.2121212121211,635.5142674996898 688.9090909090909,636.7941542516862 692.6060606060606,633.4273475726179 696.3030303030303,634.6002530643299 700.0,635.0464778459404 703.6969696969697,642.5268817793235 707.3939393939395,633.7856170565759 711.090909090909,625.7459036531473 714.7878787878788,622.2381268938441 718.4848484848485,619.2571481051078 722.1818181818182,615.7094690710647 725.8787878787879,616.9974410008967 729.5757575757576,619.5836060198823 733.2727272727273,617.5488239187123 736.9696969696969,621.390618975322 740.6666666666666,622.056904428181 744.3636363636364,623.5028561652349 748.0606060606061,620.9186372863505 751.7575757575759,622.5093108107393 755.4545454545454,626.2910505433638 759.1515151515151,615.6232128650753 762.8484848484849,616.5332733576721 766.5454545454546,614.9319631928338 770.2424242424242,615.5624910399235 773.9393939393939,615.7216256084746 777.6363636363636,616.4081388623595 781.3333333333334,616.9957227255707 785.030303030303,616.4670391299194 788.7272727272727,617.814301253243 792.4242424242425,621.368674233721 796.121212121212,619.5497646076775 799.8181818181818,624.1254112819158 803.5151515151515,623.9447899038186 807.2121212121212,621.8129037849226 810.909090909091,624.0471907587722 814.6060606060606,619.744051964783 818.3030303030303,624.0676191912515 822.0,621.3707248106543 825.6969696969697,603.7725783448134 829.3939393939394,600.8756101004377 833.0909090909091,599.7987894604795 836.7878787878788,594.6974329770991 840.4848484848484,595.0103860053348 844.1818181818181,595.1764666384661 847.8787878787879,587.648955062318 851.5757575757576,587.9023178732125 855.2727272727274,588.1365591182135 858.9696969696969,585.8463242380676 862.6666666666666,588.51867646072 866.3636363636364,580.8661699799709 870.0606060606061,584.2825626416006 873.7575757575758,589.809726291698 877.4545454545455,587.4191457818253 881.1515151515151,584.276569329381 884.8484848484849,574.4582110702517 888.5454545454545,572.1150713765497 892.2424242424242,560.2412013319181 895.939393939394,553.205363939661 899.6363636363637,547.1754194765685 903.3333333333333,554.9793502723626 907.030303030303,554.2924715460704 910.7272727272727,558.0788433163164 914.4242424242425,552.1404935416163 918.1212121212121,564.0893267535353 921.8181818181818,559.2853212439732 925.5151515151515,566.6348356202708 929.2121212121212,563.9297051216421 932.9090909090909,557.9530698963704 936.6060606060606,543.0332630740506 940.3030303030304,543.7521865751007 944.0,540.2031772144451 947.6969696969696,545.3691505722314 951.3939393939394,547.2892853001881 955.0909090909091,551.7611906663965 958.7878787878789,553.4881248669565 962.4848484848485,559.1204484910916 966.1818181818181,545.4363845546399 969.8787878787879,545.1348677777047 973.5757575757576,547.600661039706 977.2727272727273,570.5661238829709 980.969696969697,558.8634001643054 984.6666666666666,556.6277545228115 988.3636363636364,562.3474126270112 992.060606060606,566.1153848770186 995.7575757575758,570.3262504890988 999.4545454545455,563.4289011973851 1003.1515151515152,555.0562659597557 1006.8484848484848,565.2185252564379 1010.5454545454545,565.1278648640647 1014.2424242424242,548.1868890330187 1017.939393939394,552.2781096667404 1021.6363636363636,541.8978972569478 1025.3333333333335,536.4974806982332 1029.030303030303,506.82087934958776 1032.7272727272727,507.0015382516956 1036.4242424242425,491.74159514692394 1040.121212121212,486.5098867221869 1043.818181818182,485.25036379098896 1047.5151515151515,488.8700677930658 1051.212121212121,491.1357926710938 1054.909090909091,495.6337035984441 1058.6060606060605,495.69757694210074 1062.3030303030305,489.8030101631547 1066.0,491.7236326512941 1069.6969696969695,494.21829471175977 1073.3939393939395,505.62035248340555 1077.090909090909,506.26018184784107 1080.7878787878788,507.99045434282334 1084.4848484848485,531.9014150362018 1088.1818181818182,530.6071115928858 1091.878787878788,549.9169276967197 1095.5757575757575,540.8758721323328 1099.2727272727273,542.9888767406715 1102.969696969697,556.0800627325664 1106.6666666666667,561.7308505523591 1110.3636363636363,564.7172786892586 1114.060606060606,545.3058405428444 1117.7575757575758,545.0639716844734 1121.4545454545455,542.1000950795069 1125.1515151515152,496.707231483018 1128.848484848485,495.11181921976777 1132.5454545454545,490.35368346879784 1136.2424242424242,495.8963959175785 1139.939393939394,485.68242579927056 1143.6363636363637,496.8949876809081 1147.3333333333333,499.39214081087897 1151.030303030303,491.7123778500073 1154.7272727272727,481.07449523048274 1158.4242424242425,454.841719557436 1162.121212121212,447.26196755068895 1165.8181818181818,443.7628421246139 1169.5151515151515,447.6774222859695 1173.2121212121212,424.77587830971214 1176.9090909090908,435.79360187147284 1180.6060606060605,434.87947745571995 1184.3030303030303,435.37626283236017 1188.0,435.59331791731597 1191.6969696969697,430.90428759755673 1195.3939393939393,438.5324511359903 1199.090909090909,432.96635759299085 1202.7878787878788,428.0464487063904 1206.4848484848485,441.94150084315305 1210.1818181818182,447.05423036364505 1213.878787878788,442.66630017574715 1217.5757575757575,457.88455431419544 1221.2727272727273,460.5045316551814 1224.969696969697,483.9404825204011 1228.6666666666667,485.0183443045498 1232.3636363636365,475.51113132071305 1236.0606060606062,472.3579913837316 1239.7575757575758,497.5849587314942 1243.4545454545455,491.62471002215443 1247.1515151515152,490.95105896021454 1250.848484848485,478.7208602462614 1254.5454545454545,464.47693923727047 1258.2424242424242,487.96674783266235 1261.939393939394,487.2297261262171 1265.6363636363635,539.9476771536979 1269.3333333333333,555.426909956823 1273.030303030303,555.5369064247011 1276.7272727272727,549.3401491834009 1280.4242424242423,540.6303007626915 1284.121212121212,546.8063719030017 1287.8181818181818,539.2264734794833 1291.5151515151515,540.6161937875343 1295.2121212121212,545.7197985726068 1298.909090909091,539.9474052022156 1302.6060606060605,528.3110807767409 1306.3030303030303,523.4824537796751 1310.0,531.5322353130548" fill="none" stroke="#dc2626" stroke-width="2.5"><title>target_50_50_with_cash_band | end=2026-04-29 | return=515.57%</title></polyline>
<polyline points="90.0,704.332035348805 93.6969696969697,702.5633304211295 97.39393939393939,699.58667038593 101.0909090909091,699.7211875956003 104.78787878787878,698.1801245033832 108.48484848484848,694.982613348016 112.18181818181819,688.3583858491132 115.87878787878788,690.3476991979431 119.57575757575758,694.6307416249406 123.27272727272728,694.5820542190608 126.96969696969697,698.4962261930533 130.66666666666666,709.4256332384978 134.36363636363637,705.3413363156806 138.06060606060606,705.4014198443731 141.75757575757575,700.5951757992499 145.45454545454544,703.9231232435098 149.15151515151516,700.1832527541576 152.84848484848484,693.9680899166452 156.54545454545456,694.6177178805964 160.24242424242425,694.2348234930562 163.93939393939394,693.0064840325888 167.63636363636363,693.7154635049517 171.33333333333331,689.7450685339163 175.03030303030303,689.0110928145226 178.72727272727272,691.0373380114737 182.42424242424244,691.3157976898999 186.12121212121212,691.6802517678651 189.8181818181818,690.0017631594886 193.5151515151515,691.1892902871114 197.2121212121212,688.4487871078276 200.9090909090909,681.6312606872331 204.6060606060606,675.002897918565 208.3030303030303,676.1742232858742 212.0,674.6858153781417 215.6969696969697,676.366522378136 219.3939393939394,673.6175284037024 223.0909090909091,680.2278375714811 226.78787878787878,677.9770579393276 230.4848484848485,682.1563265477155 234.1818181818182,678.49887775053 237.87878787878788,679.9123067308192 241.57575757575756,675.8197769795391 245.27272727272725,672.0101973693578 248.96969696969697,671.2001557031587 252.66666666666666,668.3950173125447 256.3636363636364,661.1443391779574 260.06060606060606,656.3520427182298 263.75757575757575,649.4065705643936 267.45454545454544,646.9848609159803 271.1515151515151,649.3475810687072 274.8484848484849,641.5435682278526 278.5454545454545,641.3667728253696 282.24242424242425,624.3752416505704 285.93939393939394,590.0275676835265 289.6363636363636,593.0659549354885 293.3333333333333,584.6186414911981 297.030303030303,597.0894096084551 300.72727272727275,567.4944922895451 304.4242424242424,553.7145078565129 308.1212121212121,539.0915325331487 311.8181818181818,550.6153682023012 315.5151515151515,552.0391545875807 319.2121212121212,534.2669506277164 322.9090909090909,529.012257161528 326.6060606060606,546.9465275868006 330.30303030303025,523.6966651787883 334.0,525.5563280417874 337.6969696969697,498.83417235084903 341.3939393939394,512.9837769846982 345.09090909090907,496.9711339627354 348.7878787878788,467.26007363996365 352.4848484848485,470.1110479834672 356.1818181818182,532.7358828545084 359.8787878787879,512.9334026043346 363.57575757575756,522.3409944431837 367.27272727272725,525.8209014736377 370.969696969697,531.7165925685246 374.6666666666667,557.530045882447 378.3636363636364,542.4474356386744 382.06060606060606,543.8239776614882 385.75757575757575,558.7692973266246 389.45454545454544,560.3835064925505 393.1515151515151,528.7500474571673 396.8484848484849,512.5385862485005 400.5454545454545,482.53381759951185 404.24242424242425,489.5754142385962 407.93939393939394,472.2011886819126 411.6363636363636,453.55791971847754 415.3333333333333,470.2662747825675 419.03030303030306,461.8253687381972 422.7272727272727,488.9248785832224 426.42424242424244,500.60181771716344 430.1212121212121,444.5400536053879 433.8181818181818,439.1024345150132 437.5151515151515,406.5158302465882 441.21212121212125,426.9950473000621 444.9090909090909,400.93947301884754 448.6060606060606,396.7542451076836 452.3030303030303,413.2313689750849 456.0,419.2752247371714 459.6969696969697,410.6936177799246 463.3939393939394,428.665133813381 467.09090909090907,443.87709517264835 470.7878787878788,445.6540646507099 474.48484848484844,460.71854595318126 478.1818181818182,470.92903762024366 481.8787878787879,473.8911449235909 485.57575757575756,488.5062298621946 489.27272727272725,521.6006461833387 492.969696969697,513.7233979873852 496.66666666666663,473.13132179892375 500.3636363636364,478.96137275176307 504.06060606060606,516.6658114531567 507.75757575757575,485.1246532141512 511.45454545454544,498.6718438240572 515.1515151515152,499.0061510983719 518.8484848484848,484.1844903620554 522.5454545454545,459.9092214256127 526.2424242424242,478.4626050316351 529.939393939394,485.6984062760768 533.6363636363636,486.62432712622035 537.3333333333333,499.30240114535525 541.030303030303,496.3065886179178 544.7272727272727,557.4563594857725 548.4242424242424,564.4841483682284 552.1212121212121,561.079924181714 555.8181818181818,565.2694674715274 559.5151515151515,565.2682577283083 563.2121212121212,608.5862197841483 566.909090909091,623.6096323468266 570.6060606060605,620.9731426417779 574.3030303030303,615.7655211100363 578.0,619.9376691762913 581.6969696969697,592.8651270356929 585.3939393939394,588.3977656744589 589.0909090909091,589.5492065700603 592.7878787878788,576.2724680933707 596.4848484848485,578.891808951546 600.1818181818181,591.9516613779531 603.8787878787879,600.046477654553 607.5757575757576,599.3087946276976 611.2727272727273,596.0309996708289 614.969696969697,616.970733060192 618.6666666666666,610.3274849466311 622.3636363636364,607.4162810365854 626.060606060606,612.8743721294128 629.7575757575758,613.3781264731236 633.4545454545454,596.3649944106987 637.1515151515151,600.2698864831505 640.8484848484849,630.5493801619732 644.5454545454545,623.3638581783649 648.2424242424242,624.8872488121966 651.939393939394,618.366058236743 655.6363636363636,622.0449396713001 659.3333333333334,615.855114854122 663.0303030303031,622.8281990759762 666.7272727272727,624.7485057828725 670.4242424242425,620.95616616284 674.1212121212121,611.9326054749254 677.8181818181818,598.3436652878437 681.5151515151515,586.736821643699 685.2121212121211,583.4597140715354 688.9090909090909,585.4052850534753 692.6060606060606,580.3127020683605 696.3030303030303,582.0827311105504 700.0,582.7644775017799 703.6969696969697,594.0572126447838 707.3939393939395,580.8770537334912 711.090909090909,568.7384683291235 714.7878787878788,563.4378911559076 718.4848484848485,558.9638069350538 722.1818181818182,553.5995020620926 725.8787878787879,555.6473350552506 729.5757575757576,559.5648896394689 733.2727272727273,556.4604931206898 736.9696969696969,562.3212806317282 740.6666666666666,563.5645183111344 744.3636363636364,566.6493462564995 748.0606060606061,561.8412371187949 751.7575757575759,565.2105089653309 755.4545454545454,573.8476086878673 759.1515151515151,553.8831649017576 762.8484848484849,555.8231315198415 766.5454545454546,552.1652777331383 770.2424242424242,553.6640271596343 773.9393939393939,554.0519127971689 777.6363636363636,555.7253479458608 781.3333333333334,557.1586673699038 785.030303030303,555.8719231371758 788.7272727272727,559.153853911823 792.4242424242425,567.7754596358019 796.121212121212,564.7131901521489 799.8181818181818,571.6947608596058 803.5151515151515,571.4293603118607 807.2121212121212,568.3223640867336 810.909090909091,571.5714111367407 814.6060606060606,565.3143063370071 818.3030303030303,571.6045361051666 822.0,567.6639151325725 825.6969696969697,541.5631962946012 829.3939393939394,536.5149349706833 833.0909090909091,534.3424843228929 836.7878787878788,523.0328064621315 840.4848484848484,523.767599401959 844.1818181818181,524.1708085298762 847.8787878787879,505.8768143934898 851.5757575757576,506.510970172846 855.2727272727274,507.094961517075 858.9696969696969,501.3620599649289 862.6666666666666,508.117864167015 866.3636363636364,488.89276710774686 870.0606060606061,497.60712448289314 873.7575757575758,511.7272266089501 877.4545454545455,505.7422044649111 881.1515151515151,497.8663132677332 884.8484848484849,473.05899064877923 888.5454545454545,466.99263380030277 892.2424242424242,435.7189514821123 895.939393939394,416.6076155722278 899.6363636363637,399.8025650916014 903.3333333333333,422.0615172882414 907.030303030303,420.10661181236037 910.7272727272727,430.79858767915596 914.4242424242425,415.5547575384042 918.1212121212121,447.90370393209025 921.8181818181818,437.5420192178925 925.5151515151515,454.29210633928506 929.2121212121212,448.7669154974258 932.9090909090909,437.0444614961759 936.6060606060606,404.7400731302197 940.3030303030304,406.50413699608106 944.0,397.17892255350256 947.6969696969696,411.3275431220832 951.3939393939394,416.61313641083706 955.0909090909091,428.9180841254554 958.7878787878789,432.6433756314317 962.4848484848485,443.79862666205736 966.1818181818181,419.94391284936097 969.8787878787879,419.3330462314164 973.5757575757576,424.7478143416233 977.2727272727273,477.3380500584192 980.969696969697,456.482000390286 984.6666666666666,452.7005643477628 988.3636363636364,461.8832884476062 992.060606060606,467.8400123985755 995.7575757575758,474.44639869527725 999.4545454545455,463.56707003028544 1003.1515151515152,450.47362384974787 1006.8484848484848,466.4256876777934 1010.5454545454545,466.2846983486951 1014.2424242424242,439.6595298919888 1017.939393939394,446.1152101623692 1021.6363636363636,429.4661205565555 1025.3333333333335,420.79693236511105 1029.030303030303,373.53271810365123 1032.7272727272727,373.74345995135343 1036.4242424242425,342.245330290093 1040.121212121212,330.0345735082176 1043.818181818182,326.9083744287696 1047.5151515151515,336.34336948834067 1051.212121212121,342.29519415611935 1054.909090909091,354.0770908803408 1058.6060606060605,354.22899755883896 1062.3030303030305,340.58832048335876 1066.0,344.99308331553163 1069.6969696969695,350.7067979367109 1073.3939393939395,376.9172146319452 1077.090909090909,377.8685545082891 1080.7878787878788,380.8057494001789 1084.4848484848485,419.29451022945483 1088.1818181818182,416.92281218205846 1091.878787878788,446.8007555348686 1095.5757575757575,432.9038793862075 1099.2727272727273,436.1301699771007 1102.969696969697,456.2943362908219 1106.6666666666667,465.0001012136794 1110.3636363636363,469.63188293326095 1114.060606060606,439.9619322223026 1117.7575757575758,439.5740462774773 1121.4545454545455,434.898364983085 1125.1515151515152,364.9923705713256 1128.848484848485,362.4980069821093 1132.5454545454545,355.0575794681429 1136.2424242424242,363.69216401364656 1139.939393939394,347.79863045116673 1143.6363636363637,368.4585660496609 1147.3333333333333,372.5259560815894 1151.030303030303,360.3666214500486 1154.7272727272727,343.80223544212504 1158.4242424242425,295.61494291392995 1162.121212121212,280.08302834760315 1165.8181818181818,271.9609690215963 1169.5151515151515,281.58041395173956 1173.2121212121212,223.340556547221 1176.9090909090908,252.24027687669798 1180.6060606060605,249.65144131462847 1184.3030303030303,251.00329394311035 1188.0,251.66012449102044 1191.6969696969697,239.33277142791138 1195.3939393939393,259.49011955965653 1199.090909090909,244.94910428892194 1202.7878787878788,232.0489227682665 1206.4848484848485,268.7594073262971 1210.1818181818182,280.9467623576675 1213.878787878788,272.86012136157933 1217.5757575757575,303.9751068020286 1221.2727272727273,308.453423338283 1224.969696969697,346.025581726695 1228.6666666666667,347.7224124608882 1232.3636363636365,333.141639964314 1236.0606060606062,328.3648247319152 1239.7575757575758,367.083899527839 1243.4545454545455,357.94676636380456 1247.1515151515152,356.91532685442246 1250.848484848485,338.0977438805037 1254.5454545454545,316.1462851243145 1258.2424242424242,352.39215688395933 1261.939393939394,351.2582116309205 1265.6363636363635,432.51201770437507 1269.3333333333333,456.2942916573461 1273.030303030303,456.48158592337364 1276.7272727272727,446.98230282859237 1280.4242424242423,433.56680679215214 1284.121212121212,443.0832482385498 1287.8181818181818,431.41890708712094 1291.5151515151515,433.5646563426502 1295.2121212121212,441.4339489037216 1298.909090909091,432.5372155802668 1302.6060606060605,414.57973739352315 1306.3030303030303,407.13594560808383 1310.0,419.5670830204959" fill="none" stroke="#2563eb" stroke-width="2.5"><title>narrow_cash_band_rebalance | end=2026-04-29 | return=849.64%</title></polyline>
<polyline points="90.0,704.332035348805 93.6969696969697,702.5616640477557 97.39393939393939,699.600713266448 101.0909090909091,699.7270347416853 104.78787878787878,698.2504019747737 108.48484848484848,695.193421300014 112.18181818181819,688.9340002186079 115.87878787878788,690.7976445560122 119.57575757575758,694.7820896591212 123.27272727272728,694.7371931782048 126.96969696969697,698.3926956823163 130.66666666666666,708.6497017234212 134.36363636363637,704.7442090378064 138.06060606060606,704.8015601540852 141.75757575757575,700.1910360639085 145.45454545454544,703.3598416299005 149.15151515151516,699.7965640267075 152.84848484848484,693.8926062779402 156.54545454545456,694.499737931111 160.24242424242425,694.139812154969 163.93939393939394,692.9847671539558 167.63636363636363,693.6490755884618 171.33333333333331,689.9231268782904 175.03030303030303,689.2362747329363 178.72727272727272,691.1269670518317 182.42424242424244,691.3880277615697 186.12121212121212,691.7285178545891 189.8181818181818,690.1587813505595 193.5151515151515,691.2686418098002 197.2121212121212,688.7071779282323 200.9090909090909,682.4471473258661 204.6060606060606,676.4330405066239 208.3030303030303,677.4826738121266 212.0,676.1507722952435 215.6969696969697,677.660209749276 219.3939393939394,675.1228734460635 223.0909090909091,681.085021004927 226.78787878787878,678.9003617688937 230.4848484848485,683.0240421374705 234.1818181818182,679.1639890115346 237.87878787878788,680.6515331997722 241.57575757575756,676.4068492789347 245.27272727272725,672.9815224276138 248.96969696969697,672.3860571648559 252.66666666666666,669.8802525288195 256.3636363636364,663.0107055617519 260.06060606060606,658.9447199316847 263.75757575757575,652.5159320068952 267.45454545454544,650.3316070751181 271.1515151515151,652.4248860446087 274.8484848484849,645.5415165756443 278.5454545454545,645.4516509982556 282.24242424242425,630.4326436511277 285.93939393939394,600.0714141607659 289.6363636363636,602.7461378933303 293.3333333333333,595.2324120123112 297.030303030303,606.0126196287331 300.72727272727275,578.8825099556198 304.4242424242424,565.768514389918 308.1212121212121,552.5355544307106 311.8181818181818,562.3769889879845 315.5151515151515,563.640404757605 319.2121212121212,547.829481093582 322.9090909090909,543.3828320182955 326.6060606060606,558.8407998032137 330.30303030303025,538.2165497414496 334.0,539.7385742616286 337.6969696969697,516.7244915287055 341.3939393939394,528.8318493846474 345.09090909090907,515.465728569806 348.7878787878788,491.66232630033096 352.4848484848485,495.86671087586427 356.1818181818182,547.5678347417808 359.8787878787879,530.6945851257436 363.57575757575756,539.3937926385671 367.27272727272725,542.4847207839581 370.969696969697,547.4839002981984 374.6666666666667,570.3846255735707 378.3636363636364,556.0018853838401 382.06060606060606,557.158425211331 385.75757575757575,570.5860763129151 389.45454545454544,572.0633806908816 393.1515151515151,541.8597462537737 396.8484848484849,526.0046292279076 400.5454545454545,497.3107668640425 404.24242424242425,504.22907892836554 407.93939393939394,487.4360235200485 411.6363636363636,468.9638319151975 415.3333333333333,484.13618332877627 419.03030303030306,475.9811835486879 422.7272727272727,500.5874323711371 426.42424242424244,511.91919631027685 430.1212121212121,457.08698336926363 433.8181818181818,452.1783381848474 437.5151515151515,422.6451409378802 441.21212121212125,440.6063209129727 444.9090909090909,417.540351158962 448.6060606060606,413.8144695059578 452.3030303030303,428.23747658520927 456.0,433.56774740040265 459.6969696969697,426.06347768378 463.3939393939394,442.8540688376791 467.09090909090907,456.51331375686357 470.7878787878788,458.21311276756865 474.48484848484844,472.7668721802998 478.1818181818182,483.15495689946044 481.8787878787879,486.39565843276057 485.57575757575756,500.50834342409325 489.27272727272725,531.5039921542294 492.969696969697,524.1013611468742 496.66666666666663,486.912662567508 500.3636363636364,492.1873263431173 504.06060606060606,526.2060214673766 507.75757575757575,497.71666570552736 511.45454545454544,509.9904938178505 515.1515151515152,510.1541370078662 518.8484848484848,496.621920748029 522.5454545454545,474.741957762986 526.2424242424242,491.3657840187705 529.939393939394,497.87708998163964 533.6363636363636,498.6649766958609 537.3333333333333,510.03531975111025 541.030303030303,507.35184964017037 544.7272727272727,562.3919891785646 548.4242424242424,569.0839070272314 552.1212121212121,565.7132050752579 555.8181818181818,570.0760314475383 559.5151515151515,570.1688026241698 563.2121212121212,614.6727892005429 566.909090909091,630.0713905309018 570.6060606060605,627.2537025257054 574.3030303030303,621.7988458125197 578.0,626.1575329131325 581.6969696969697,598.2308926036293 585.3939393939394,593.4534960549381 589.0909090909091,594.6294046644591 592.7878787878788,581.0693051608241 596.4848484848485,583.7548850807981 600.1818181818181,597.0651844261595 603.8787878787879,605.3236376341217 607.5757575757576,604.7236817262728 611.2727272727273,601.2799077122256 614.969696969697,622.1559377245377 618.6666666666666,615.4142595222935 622.3636363636364,612.4569540070346 626.060606060606,617.994497072765 629.7575757575758,618.5095537728519 633.4545454545454,601.1561364915254 637.1515151515151,605.1240510279807 640.8484848484849,635.8738440366719 644.5454545454545,628.6001181973085 648.2424242424242,630.1458881982877 651.939393939394,623.5213862295494 655.6363636363636,627.2595019422193 659.3333333333334,621.0074856950072 663.0303030303031,628.0777241109486 666.7272727272727,630.0201784246233 670.4242424242425,626.1296195954386 674.1212121212121,616.9886044564172 677.8181818181818,603.2643615102705 681.5151515151515,591.5192579348422 685.2121212121211,588.2016810232326 688.9090909090909,590.1143810350914 692.6060606060606,584.9825504461973 696.3030303030303,586.8185869266102 700.0,587.4203919475651 703.6969696969697,598.9712761302251 707.3939393939395,585.5759752696645 711.090909090909,573.3473648793438 714.7878787878788,567.9547602927748 718.4848484848485,563.1833402105627 722.1818181818182,558.3676245868428 725.8787878787879,560.3333481156055 729.5757575757576,564.1766413924876 733.2727272727273,561.0264142466624 736.9696969696969,567.1213396512521 740.6666666666666,568.306543259273 744.3636363636364,571.2296254390586 748.0606060606061,566.7860293622946 751.7575757575759,569.8620449331448 755.4545454545454,577.5885149994197 759.1515151515151,559.3194923048 762.8484848484849,561.1672844390359 766.5454545454546,557.7563688275661 770.2424242424242,559.1664754920155 773.9393939393939,559.3992214887495 777.6363636363636,560.8554829296462 781.3333333333334,562.1756632972971 785.030303030303,561.0400901748034 788.7272727272727,563.9713363884139 792.4242424242425,571.6793900715817 796.121212121212,569.0723651108316 799.8181818181818,574.9473558119198 803.5151515151515,574.8292660958768 807.2121212121212,572.3450941207032 810.909090909091,574.9585336662308 814.6060606060606,569.9330417100559 818.3030303030303,575.1643233563317 822.0,572.1325027466872 825.6969696969697,548.1627151022176 829.3939393939394,543.4947817244578 833.0909090909091,541.4252167899127 836.7878787878788,531.2146674047218 840.4848484848484,531.7915118883819 844.1818181818181,532.2340694447419 847.8787878787879,516.2547486930005 851.5757575757576,516.7324360414448 855.2727272727274,517.3205561209047 858.9696969696969,512.0560374976355 862.6666666666666,518.0511620248285 866.3636363636364,501.0121587981144 870.0606060606061,508.6380500773778 873.7575757575758,520.9621033148385 877.4545454545455,515.6387927259276 881.1515151515151,508.6644967473862 884.8484848484849,486.7996545691499 888.5454545454545,481.4398186787324 892.2424242424242,454.154186235819 895.939393939394,437.5549023841909 899.6363636363637,422.99617325984303 903.3333333333333,442.0994572758256 907.030303030303,440.49109901805724 910.7272727272727,449.7234099350798 914.4242424242425,436.2998289109677 918.1212121212121,464.61944841407103 921.8181818181818,454.8112625595238 925.5151515151515,469.81023039633396 929.2121212121212,464.9012092407851 932.9090909090909,454.03348327525913 936.6060606060606,419.1913357266037 940.3030303030304,420.55444445916663 944.0,412.16885462767925 947.6969696969696,424.995648410583 951.3939393939394,429.4738561330272 955.0909090909091,440.36368405621425 958.7878787878789,443.75417200458367 962.4848484848485,453.9339958835904 966.1818181818181,433.3064171879076 969.8787878787879,432.89469147935057 973.5757575757576,437.8111914382338 977.2727272727273,485.7088224253552 980.969696969697,465.88401398380825 984.6666666666666,463.24411679377477 988.3636363636364,471.71237686004736 992.060606060606,477.400207919103 995.7575757575758,484.1154526839824 999.4545454545455,475.52087692906025 1003.1515151515152,462.0480892145066 1006.8484848484848,477.72183161431167 1010.5454545454545,477.5168308258211 1014.2424242424242,453.785651662957 1017.939393939394,460.3097335172133 1021.6363636363636,444.7740086835382 1025.3333333333335,436.6611701081 1029.030303030303,390.27408904585997 1032.7272727272727,392.43893818131886 1036.4242424242425,358.80875412221116 1040.121212121212,347.37647369024813 1043.818181818182,344.9648192992278 1047.5151515151515,353.7278333697873 1051.212121212121,359.18460092791895 1054.909090909091,369.4605719973097 1058.6060606060605,369.72368957103834 1062.3030303030305,357.5738952197619 1066.0,362.65037198996004 1069.6969696969695,368.5172587934122 1073.3939393939395,392.8715044561132 1077.090909090909,394.267653767462 1080.7878787878788,397.091587206918 1084.4848484848485,435.56455989550705 1088.1818181818182,433.96296515525 1091.878787878788,464.7118571531329 1095.5757575757575,449.55095037273486 1099.2727272727273,453.19834618938745 1102.969696969697,474.5258077577681 1106.6666666666667,485.07364554272124 1110.3636363636363,492.0330780420177 1114.060606060606,462.09147778496026 1117.7575757575758,461.91463208863445 1121.4545454545455,457.68061437695644 1125.1515151515152,371.0747341065769 1128.848484848485,370.76060966697474 1132.5454545454545,361.0290332793499 1136.2424242424242,370.08788785493397 1139.939393939394,352.98639299706406 1143.6363636363637,376.21694900985057 1147.3333333333333,381.9719828261934 1151.030303030303,368.20604007525935 1154.7272727272727,349.69237441382427 1158.4242424242425,294.17971468731474 1162.121212121212,276.1956970822615 1165.8181818181818,267.0292896793427 1169.5151515151515,276.2851116704698 1173.2121212121212,219.63913953627326 1176.9090909090908,246.6645171301841 1180.6060606060605,244.06969136737206 1184.3030303030303,245.3100798428926 1188.0,245.83759321682533 1191.6969696969697,234.32376217370148 1195.3939393939393,253.0853219763053 1199.090909090909,239.50187617697065 1202.7878787878788,227.4549821074109 1206.4848484848485,261.7834405555865 1210.1818181818182,273.5415054762249 1213.878787878788,265.70604407785964 1217.5757575757575,296.9562689280185 1221.2727272727273,300.83965935588407 1224.969696969697,338.7954728245365 1228.6666666666667,340.19112912253615 1232.3636363636365,325.4853633761483 1236.0606060606062,319.74535604819494 1239.7575757575758,358.5986864317599 1243.4545454545455,349.3972636538155 1247.1515151515152,348.26494916837487 1250.848484848485,329.69629094148445 1254.5454545454545,308.5115268442672 1258.2424242424242,343.9660117271439 1261.939393939394,342.7024878924735 1265.6363636363635,422.74708458732255 1269.3333333333333,447.2374738478013 1273.030303030303,447.1396138262911 1276.7272727272727,436.44996149119424 1280.4242424242423,422.5397132660735 1284.121212121212,432.9080863267326 1287.8181818181818,419.0440271568236 1291.5151515151515,421.7151094505487 1295.2121212121212,429.739622231154 1298.909090909091,420.311996801152 1302.6060606060605,400.1809506939874 1306.3030303030303,392.6971924863315 1310.0,406.7756470241253" fill="none" stroke="#7c3aed" stroke-width="2.5"><title>drawdown_tilt_rebalance | end=2026-04-29 | return=887.80%</title></polyline>
<polyline points="90.0,704.332035348805 93.6969696969697,702.4958322547839 97.39393939393939,699.3569628261308 101.0909090909091,699.4981403122417 104.78787878787878,697.8602683448553 108.48484848484848,694.4462988719624 112.18181818181819,687.3525452295517 115.87878787878788,689.4926489914029 119.57575757575758,694.110308073322 123.27272727272728,694.0578753691667 126.96969696969697,698.2708475128919 130.66666666666666,710.0 134.36363636363637,705.673076828819 138.06060606060606,705.7365517317966 141.75757575757575,700.6699822245293 145.45454545454544,704.1864982089758 149.15151515151516,700.2385239355049 152.84848484848484,693.6641690254329 156.54545454545456,694.3540766097882 160.24242424242425,693.9462724952676 163.93939393939394,692.6358331593219 167.63636363636363,693.3934289421321 171.33333333333331,689.1480403345643 175.03030303030303,688.3613575184988 178.72727272727272,690.5369294627685 182.42424242424244,690.8359518945341 186.12121212121212,691.2272401609315 189.8181818181818,689.4256400450971 193.5151515151515,690.7011912515557 197.2121212121212,687.7581203677431 200.9090909090909,679.8394703527273 204.6060606060606,671.7074612320878 208.3030303030303,673.2071508177561 212.0,671.2522466784123 215.6969696969697,673.5022616576911 219.3939393939394,669.7947792356249 223.0909090909091,678.8107661300137 226.78787878787878,676.0583976072129 230.4848484848485,681.1529746278319 234.1818181818182,676.5847725487623 237.87878787878788,678.3112088809872 241.57575757575756,673.6618010149621 245.27272727272725,669.5099035751589 248.96969696969697,668.6414016628901 252.66666666666666,665.4827495828401 256.3636363636364,657.6088661396035 260.06060606060606,651.3614228354708 263.75757575757575,643.3855758385671 267.45454545454544,640.3903747958674 271.1515151515151,643.5236282921821 274.8484848484849,632.5840102414691 278.5454545454545,630.8247820429216 282.24242424242425,606.9336952773004 285.93939393939394,560.6745944152036 289.6363636363636,563.870556765276 293.3333333333333,555.1008891359993 297.030303030303,574.3882522368797 300.72727272727275,532.0465679313875 304.4242424242424,512.0919542482324 308.1212121212121,490.02093614767983 311.8181818181818,508.12237713590366 315.5151515151515,510.20408351280787 319.2121212121212,485.5749753413769 322.9090909090909,477.85719245936946 326.6060606060606,505.27519952273565 330.30303030303025,472.14937498022437 334.0,475.5852073397711 337.6969696969697,435.07358237637465 341.3939393939394,459.09222778477346 345.09090909090907,434.06882378823326 348.7878787878788,386.8106757410202 352.4848484848485,390.82028419827503 356.1818181818182,489.83182782465644 359.8787878787879,464.24704043102474 363.57575757575756,477.1427765843576 367.27272727272725,481.4447302371122 370.969696969697,487.4798679500167 374.6666666666667,514.6153118293845 378.3636363636364,500.0742165260182 382.06060606060606,502.26653269370024 385.75757575757575,515.8236168967046 389.45454545454544,517.8272455760075 393.1515151515151,483.7113005915551 396.8484848484849,470.6755081422672 400.5454545454545,437.64592683898985 404.24242424242425,446.36564823621427 407.93939393939394,425.79653815729046 411.6363636363636,402.8667361460415 415.3333333333333,424.50854900970717 419.03030303030306,414.0145271001256 422.7272727272727,451.0056196129298 426.42424242424244,467.26870282938984 430.1212121212121,399.121293935855 433.8181818181818,392.84900073365736 437.5151515151515,346.97532051518334 441.21212121212125,375.8123310191225 444.9090909090909,337.3981711964044 448.6060606060606,331.0242466227572 452.3030303030303,356.2282327263027 456.0,365.5256299699384 459.6969696969697,354.4389909416717 463.3939393939394,377.8474848675989 467.09090909090907,399.94131272797597 470.7878787878788,402.4301314957828 474.48484848484844,423.7885515153718 478.1818181818182,434.9627246534194 481.8787878787879,442.0121372603775 485.57575757575756,459.24439278051176 489.27272727272725,494.0253731724383 492.969696969697,486.65954010332956 496.66666666666663,447.36226713809566 500.3636363636364,452.4529159778153 504.06060606060606,487.3622701478809 507.75757575757575,457.07852239364274 511.45454545454544,469.15632406590214 515.1515151515152,470.1882020073839 518.8484848484848,457.3623202083264 522.5454545454545,435.2278355080725 526.2424242424242,452.6905740890491 529.939393939394,459.98498235384506 533.6363636363636,460.43723462785823 537.3333333333333,471.8833096037077 541.030303030303,469.2498610704365 544.7272727272727,525.2801816376992 548.4242424242424,530.9250887910719 552.1212121212121,527.411162121888 555.8181818181818,530.385360357973 559.5151515151515,529.9754510616557 563.2121212121212,572.3895346641671 566.909090909091,587.4666289080732 570.6060606060605,585.1026028653843 574.3030303030303,580.1516118917323 578.0,584.0930268481698 581.6969696969697,557.3439144453399 585.3939393939394,553.847578676529 589.0909090909091,554.9736659387052 592.7878787878788,542.5820159577569 596.4848484848485,545.4763642079932 600.1818181818181,558.5235751719164 603.8787878787879,566.76222720623 607.5757575757576,567.0992378864984 611.2727272727273,563.2095887779169 614.969696969697,582.6793713881186 618.6666666666666,575.9178515894514 622.3636363636364,572.5247165496786 626.060606060606,578.3785271158648 629.7575757575758,578.844185614115 633.4545454545454,562.35463125923 637.1515151515151,566.4170624717093 640.8484848484849,597.1178758114032 644.5454545454545,590.0257387956508 648.2424242424242,591.4050835287917 651.939393939394,585.0410864122616 655.6363636363636,588.6247074669917 659.3333333333334,582.0384735439915 663.0303030303031,589.2926074764262 666.7272727272727,591.3184291463173 670.4242424242425,587.653359966321 674.1212121212121,578.44287848215 677.8181818181818,563.2213956330534 681.5151515151515,550.2901226957804 685.2121212121211,546.686294931007 688.9090909090909,549.2691578803532 692.6060606060606,543.350360257587 696.3030303030303,544.9913377631128 700.0,546.2254655875851 703.6969696969697,557.8933631135849 707.3939393939395,543.6827702957487 711.090909090909,530.0634390191849 714.7878787878788,524.4704797664842 718.4848484848485,521.0133841903742 722.1818181818182,514.6248054220091 725.8787878787879,518.0188012565692 729.5757575757576,522.00048055287 733.2727272727273,518.1859737489845 736.9696969696969,526.0285789972156 740.6666666666666,527.6367969314746 744.3636363636364,532.7333614532107 748.0606060606061,526.3146816995071 751.7575757575759,531.3708467675076 755.4545454545454,543.5826487247328 759.1515151515151,515.4001365805137 762.8484848484849,518.0985645186533 766.5454545454546,512.86692262918 770.2424242424242,514.9499799770741 773.9393939393939,515.9421843459077 777.6363636363636,518.7301707351232 781.3333333333334,520.7806298402081 785.030303030303,518.6644084617715 788.7272727272727,523.8790117076785 792.4242424242425,537.576176835373 796.121212121212,533.3715122834783 799.8181818181818,541.622966133575 803.5151515151515,540.8383461553202 807.2121212121212,537.2228177205669 810.909090909091,540.7371951172591 814.6060606060606,534.0897408280717 818.3030303030303,540.1319383314543 822.0,535.3757027839077 825.6969696969697,505.03460414174566 829.3939393939394,499.30080722037326 833.0909090909091,496.8645740745375 836.7878787878788,481.80642048420236 840.4848484848484,483.2007931497065 844.1818181818181,483.1576631438851 847.8787878787879,454.1716560797165 851.5757575757576,455.9565880083452 855.2727272727274,455.7946799865281 858.9696969696969,448.78304510327354 862.6666666666666,458.0402045281427 866.3636363636364,429.35775463440706 870.0606060606061,444.2658184275974 873.7575757575758,466.2643355473919 877.4545454545455,456.5711775706511 881.1515151515151,444.14213265907256 884.8484848484849,404.61144444305955 888.5454545454545,395.70152853109266 892.2424242424242,344.3691509001541 895.939393939394,313.10702013076906 899.6363636363637,284.61290702598836 903.3333333333333,322.56896330915947 907.030303030303,318.7847473937123 910.7272727272727,337.08320522032176 914.4242424242425,313.1712111607599 918.1212121212121,364.97659447418954 921.8181818181818,349.3919690762434 925.5151515151515,374.9689177602096 929.2121212121212,365.7315634564762 932.9090909090909,347.4091023748049 936.6060606060606,308.5493980518245 940.3030303030304,312.2582292667544 944.0,296.8762633751081 947.6969696969696,318.1150485649176 951.3939393939394,327.8255298695152 955.0909090909091,348.2391460929915 958.7878787878789,354.158819180279 962.4848484848485,371.2662379640355 966.1818181818181,340.73338814048924 969.8787878787879,340.0670440346712 973.5757575757576,347.20797883526836 977.2727272727273,416.62073138281204 980.969696969697,392.5247642256788 984.6666666666666,387.393423932522 988.3636363636364,397.2306059559843 992.060606060606,403.2618179816979 995.7575757575758,409.40514757789026 999.4545454545455,396.5517456800528 1003.1515151515152,384.44277367723834 1006.8484848484848,399.7838964915827 1010.5454545454545,399.71108538166317 1014.2424242424242,371.7230472322515 1017.939393939394,378.3063888794871 1021.6363636363636,356.73888244902304 1025.3333333333335,344.72035058313026 1029.030303030303,282.73380125872245 1032.7272727272727,278.2339707464581 1036.4242424242425,245.40884036447375 1040.121212121212,229.2881778615739 1043.818181818182,223.2793197240623 1047.5151515151515,235.7405336653028 1051.212121212121,243.91765808112262 1054.909090909091,263.2764091103178 1058.6060606060605,262.8875719318797 1062.3030303030305,242.87839152142698 1066.0,245.01101729615152 1069.6969696969695,251.13185887574514 1073.3939393939395,285.1969337653882 1077.090909090909,284.8457613353799 1080.7878787878788,289.0613842036731 1084.4848484848485,339.967705989595 1088.1818181818182,329.5352377949381 1091.878787878788,365.4160810811074 1095.5757575757575,348.74860121499944 1099.2727272727273,351.6061060431091 1102.969696969697,375.4779072557505 1106.6666666666667,383.08876590967867 1110.3636363636363,385.9126027784735 1114.060606060606,352.3961571700182 1117.7575757575758,351.64119267311906 1121.4545454545455,344.490522227929 1125.1515151515152,273.9414224734289 1128.848484848485,264.6335522338568 1132.5454545454545,260.1739763378949 1136.2424242424242,271.5800806612218 1139.939393939394,252.6475277930606 1143.6363636363637,277.1112953683174 1147.3333333333333,278.6255765242375 1151.030303030303,265.6035384909459 1154.7272727272727,247.6754297582827 1158.4242424242425,191.1570391254187 1162.121212121212,173.2490611244416 1165.8181818181818,163.05253213054812 1169.5151515151515,177.1536041882655 1173.2121212121212,90.0 1176.9090909090908,135.26825474269992 1180.6060606060605,131.40336582316866 1184.3030303030303,133.53067740251095 1188.0,134.52559810051002 1191.6969696969697,114.63443518541601 1195.3939393939393,147.3188810640669 1199.090909090909,123.765239538341 1202.7878787878788,102.82137919841807 1206.4848484848485,162.6855049253743 1210.1818181818182,180.72424736055632 1213.878787878788,168.98116949492248 1217.5757575757575,213.89822094837297 1221.2727272727273,219.22516209682834 1224.969696969697,264.03810515632455 1228.6666666666667,266.0818875361627 1232.3636363636365,250.9630416614035 1236.0606060606062,247.63035834292805 1239.7575757575758,284.4356504286571 1243.4545454545455,275.7958191824432 1247.1515151515152,275.029012807226 1250.848484848485,256.7117941510254 1254.5454545454545,234.46700031804255 1258.2424242424242,269.578077870789 1261.939393939394,268.8197944999754 1265.6363636363635,347.14990114052966 1269.3333333333333,371.5331712307895 1273.030303030303,372.1749694441887 1276.7272727272727,362.79687208778626 1280.4242424242423,347.4854823326878 1284.121212121212,357.63803641330895 1287.8181818181818,346.7956019134591 1291.5151515151515,348.58352086907865 1295.2121212121212,357.91091466110817 1298.909090909091,347.8575296151914 1302.6060606060605,329.44580461580557 1306.3030303030303,320.3557153386569 1310.0,332.869287313876" fill="none" stroke="#b45309" stroke-width="2.5"><title>btc_defensive_eth_aggressive | end=2026-04-29 | return=1108.31%</title></polyline>
</svg>