<svg xmlns="http://www.w3.org/2000/svg" width="1400" height="800">
<rect width="1400" height="800" fill="#f8fafc"/>
<text x="700.0" y="42" text-anchor="middle" font-family="monospace" font-size="24" fill="#0f172a">Portfolio Value Over Time | start=2021-01-01 | interval=7d</text>
<line x1="90" y1="710" x2="1310" y2="710" stroke="#334155" stroke-width="2"/>
<line x1="90" y1="90" x2="90" y2="710" stroke="#334155" stroke-width="2"/>
<line x1="90.0" y1="710" x2="90.0" y2="90" stroke="#cbd5e1" stroke-width="1"/>
<text x="90.0" y="734" text-anchor="middle" font-family="monospace" font-size="11" fill="#475569">2021-01-01</text>
<line x1="90" y1="710.0" x2="1310" y2="710.0" stroke="#cbd5e1" stroke-width="1"/>
<text x="78" y="714.0" text-anchor="end" font-family="monospace" font-size="12" fill="#475569">25836</text>
<line x1="334.0" y1="710" x2="334.0" y2="90" stroke="#cbd5e1" stroke-width="1"/>
<text x="334.0" y="734" text-anchor="middle" font-family="monospace" font-size="11" fill="#475569">2022-01-21</text>
<line x1="90" y1="586.0" x2="1310" y2="586.0" stroke="#cbd5e1" stroke-width="1"/>
<text x="78" y="590.0" text-anchor="end" font-family="monospace" font-size="12" fill="#475569">47527</text>
<line x1="578.0" y1="710" x2="578.0" y2="90" stroke="#cbd5e1" stroke-width="1"/>
<text x="578.0" y="734" text-anchor="middle" font-family="monospace" font-size="11" fill="#475569">2023-02-17</text>
<line x1="90" y1="462.0" x2="1310" y2="462.0" stroke="#cbd5e1" stroke-width="1"/>
<text x="78" y="466.0" text-anchor="end" font-family="monospace" font-size="12" fill="#475569">69217</text>
<line x1="822.0" y1="710" x2="822.0" y2="90" stroke="#cbd5e1" stroke-width="1"/>
<text x="822.0" y="734" text-anchor="middle" font-family="monospace" font-size="11" fill="#475569">2024-03-08</text>
<line x1="90" y1="337.99999999999994" x2="1310" y2="337.99999999999994" stroke="#cbd5e1" stroke-width="1"/>
<text x="78" y="341.99999999999994" text-anchor="end" font-family="monospace" font-size="12" fill="#475569">90908</text>
<line x1="1066.0" y1="710" x2="1066.0" y2="90" stroke="#cbd5e1" stroke-width="1"/>
<text x="1066.0" y="734" text-anchor="middle" font-family="monospace" font-size="11" fill="#475569">2025-04-04</text>
<line x1="90" y1="214.0" x2="1310" y2="214.0" stroke="#cbd5e1" stroke-width="1"/>
<text x="78" y="218.0" text-anchor="end" font-family="monospace" font-size="12" fill="#475569">112599</text>
<line x1="1310.0" y1="710" x2="1310.0" y2="90" stroke="#cbd5e1" stroke-width="1"/>
<text x="1310.0" y="734" text-anchor="middle" font-family="monospace" font-size="11" fill="#475569">2026-04-24</text>
<line x1="90" y1="90.0" x2="1310" y2="90.0" stroke="#cbd5e1" stroke-width="1"/>
<text x="78" y="94.0" text-anchor="end" font-family="monospace" font-size="12" fill="#475569">134289</text>
<text x="700.0" y="782" text-anchor="middle" font-family="monospace" font-size="16" fill="#0f172a">time</text>
<text x="24" y="400.0" transform="rotate(-90 24,400.0)" text-anchor="middle" font-family="monospace" font-size="16" fill="#0f172a">portfolio_value_usd</text>
<line x1="970" y1="80" x2="988" y2="80" stroke="#0f766e" stroke-width="3"/>
<text x="998" y="84" font-family="monospace" font-size="12" fill="#0f172a">static_50_50_rebalance</text>
<line x1="970" y1="104" x2="988" y2="104" stroke="#dc2626" stroke-width="3"/>
<text x="998" y="108" font-family="monospace" font-size="12" fill="#0f172a">target_50_50_with_cash_band</text>
<line x1="970" y1="128" x2="988" y2="128" stroke="#2563eb" stroke-width="3"/>
<text x="998" y="132" font-family="monospace" font-size="12" fill="#0f172a">narrow_cash_band_rebalance</text>
<line x1="970" y1="152" x2="988" y2="152" stroke="#7c3aed" stroke-width="3"/>
<text x="998" y="156" font-family="monospace" font-size="12" fill="#0f172a">drawdown_tilt_rebalance</text>
<line x1="970" y1="176" x2="988" y2="176" stroke="#b45309" stroke-width="3"/>
<text x="998" y="180" font-family="monospace" font-size="12" fill="#0f172a">btc_defensive_eth_aggressive</text>
<polyline points="90.0,695.5631002887454 94.4043321299639,638.5498968770921 98.8086642599278,650.9322128598611 103.2129963898917,655.1326726839748 107.61732851985559,642.3154011329041 112.0216606498195,610.3524405356657 116.4259927797834,579.9134336051064 120.83032490974729,552.2512861229447 125.2346570397112,606.0513210839447 129.63898916967509,595.0943035135508 134.043321299639,560.4728593536664 138.4476534296029,555.938940622978 142.8519855595668,569.5118159240338 147.2563176895307,532.0187939997651 151.66064981949458,538.3405179656878 156.06498194945848,508.3571993708658 160.4693140794224,534.5621352636546 164.87364620938627,495.5217593265162 169.27797833935017,457.7320271245245 173.68231046931407,447.305221372349 178.08664259927798,558.9004166732841 182.49097472924188,565.0017725643476 186.8953068592058,548.0159243548425 191.2996389891697,562.1849335153069 195.70397111913357,572.8675128738828 200.10830324909747,607.6262856949214 204.51263537906138,582.3665926576267 208.91696750902526,582.7512274523042 213.32129963898916,604.5505852906688 217.72563176895306,584.1441074754023 222.12996389891697,538.6834030302125 226.53429602888085,514.4170640038766 230.93862815884478,477.2461431497194 235.34296028880865,474.26764973415777 239.74729241877256,475.66175287363967 244.15162454873646,441.46899962098604 248.55595667870034,490.7336462294078 252.96028880866427,474.17475493506686 257.36462093862815,509.8263553903978 261.76895306859205,474.9385069694887 266.17328519855596,444.6117653203733 270.57761732851986,406.1917526210299 274.98194945848377,404.5135310163659 279.3862815884477,379.01464354965645 283.7906137184116,380.27722327031387 288.1949458483755,362.3786786232424 292.5992779783394,396.81780902205486 297.00361010830323,421.4710974244865 301.40794223826714,414.3920789014643 305.81227436823104,448.83768138074294 310.21660649819495,453.2608673512543 314.62093862815885,429.89869537355816 319.02527075812276,461.4123594223187 323.4296028880866,497.60433246713706 327.8339350180505,487.4647152765435 332.2382671480144,543.1043931552789 336.6425992779783,539.7115907509786 341.0469314079422,504.72082212121484 345.45126353790613,505.3922824716294 349.85559566787003,520.6090867804924 354.25992779783394,523.6270347768066 358.66425992779784,530.9333236251135 363.0685920577617,535.6615975958834 367.47292418772565,506.46088768831896 371.87725631768956,489.84300166489834 376.28158844765346,466.34955754344344 380.6859205776173,492.22150735106356 385.0902527075812,505.08635814665945 389.4945848375451,511.55962773158967 393.898916967509,522.2346554318474 398.30324909747293,537.1334023255645 402.7075812274368,593.4275318665963 407.1119133574007,596.1467510770494 411.51624548736464,610.1345082729381 415.92057761732855,603.7163340417937 420.32490974729245,612.1176222537295 424.72924187725636,674.7213500203641 429.1335740072202,663.3377032600501 433.5379061371841,680.9114556137565 437.942238267148,662.3568609857617 442.3465703971119,663.9336837598513 446.7509025270758,637.6561905465103 451.15523465703967,622.2255359590839 455.5595667870036,623.1812774110224 459.9638989169675,606.4095544745572 464.3682310469314,639.6487522963328 468.77256317689535,647.5163578703227 473.17689530685925,644.9924239434031 477.5812274368231,631.2621623869311 481.985559566787,653.1437942014068 486.3898916967509,661.2071276972232 490.7942238267148,660.50717954948 495.1985559566787,659.9417887705596 499.6028880866426,663.4347299285847 504.00722021660647,663.2755059188173 508.4115523465704,642.2619795615585 512.8158844765343,634.846194927214 517.2202166064982,672.137471040351 521.6245487364621,677.7820970668174 526.0288808664261,679.2231785599621 530.4332129963899,671.0032347059005 534.8375451263538,672.7508212033945 539.2418772563177,680.5113455847641 543.6462093862816,676.7368158163109 548.0505415162455,678.7370037752152 552.4548736462093,673.0830387205172 556.8592057761732,649.3688161860473 561.2635379061371,625.7226604779494 565.667870036101,627.4188301936247 570.0722021660649,622.2369373576038 574.4765342960288,638.130630501387 578.8808664259927,615.7431040684237 583.2851985559566,626.2765183471914 587.6895306859205,631.7715866856104 592.0938628158844,648.2245920950793 596.4981949458484,597.7812065943612 600.9025270758123,600.0608769302373 605.3068592057762,592.1836341870902 609.7111913357401,591.727600925683 614.115523465704,568.3389583405938 618.5198555956679,594.9394695451881 622.9241877256318,584.4490896524555 627.3285198555957,577.7978938852525 631.7328519855596,598.7339493241716 636.1371841155234,598.1668336613851 640.5415162454873,597.9503642355038 644.9458483754513,591.379621975742 649.3501805054152,598.141270486082 653.7545126353791,605.7150745188953 658.158844765343,578.6095653524219 662.5631768953069,577.1880742725865 666.9675090252707,581.2562301992866 671.3718411552346,577.3504009953689 675.7761732851985,581.6451801502745 680.1805054151624,584.870985547777 684.5848375451263,588.4831857709984 688.9891696750902,586.1425589634368 693.3935018050541,609.424711553482 697.797833935018,609.9352702473051 702.202166064982,612.3451404594748 706.6064981949459,611.4741203361616 711.0108303249098,608.4976357916212 715.4151624548736,611.5150903898751 719.8194945848376,605.7537528606169 724.2238267148014,603.1610542827444 728.6281588447654,612.9134949156762 733.0324909747293,599.2714255970862 737.4368231046931,573.1090355238252 741.8411552346571,566.8156414959275 746.2454873646209,542.4205495175812 750.6498194945849,552.0436460586857 755.0541516245487,540.7586258488936 759.4584837545127,537.1823555792274 763.8628158844765,502.25470855040123 768.2671480144404,518.0756623771974 772.6714801444043,504.8270863404796 777.0758122743682,512.7734827939282 781.4801444043321,507.61338406844084 785.884476534296,496.7888747050151 790.28880866426,502.4602675324826 794.6931407942238,514.7658651719507 799.0974729241877,507.81874522557393 803.5018050541516,483.9889496733066 807.9061371841156,448.88809018678 812.3104693140793,446.41253202806047 816.7148014440434,379.18953269513173 821.1191335740072,334.92413463910356 825.5234657039712,339.4128925291512 829.927797833935,379.1536511917198 834.332129963899,350.97850049003944 838.7364620938628,367.977644725627 843.1407942238267,374.6860046640113 847.5451263537907,394.92895652467166 851.9494584837545,390.9348938387768 856.3537906137185,394.9468810562339 860.7581227436823,412.7350141261619 865.1624548736462,383.29406066459853 869.5667870036101,340.403421751941 873.971119133574,341.7384309455369 878.3754512635379,340.8176383431608 882.7797833935018,361.8553131050343 887.1841155234656,365.370487930523 891.5884476534296,385.01453305001826 895.9927797833934,418.37022003571315 900.3971119133574,405.61697421833367 904.8014440433213,356.9078522409753 909.2057761732852,366.4344159782286 913.6101083032491,402.7536598010323 918.0144404332129,427.48831179568685 922.418772563177,433.59651663852577 926.8231046931407,407.60089852304793 931.2274368231048,437.22681971433525 935.6317689530686,471.6983258012512 940.0361010830325,438.25942317806243 944.4404332129964,422.50923626178053 948.8447653429603,406.26032080751173 953.2490974729242,435.45028556724304 957.6534296028881,432.6035453345305 962.0577617328521,402.402821039336 966.4620938628159,421.650666683163 970.8664259927798,408.7108082015308 975.2707581227437,357.90253561289467 979.6750902527076,311.2215753694008 984.0794223826715,274.37895369781063 988.4837545126354,259.7771997354614 992.8880866425992,225.84101569783746 997.2924187725632,228.38774673422017 1001.696750902527,265.94327386252405 1006.101083032491,284.2085006472204 1010.5054151624548,255.60383819991375 1014.9097472924187,286.96503258201255 1019.3140794223826,249.78110864785924 1023.7184115523465,259.49179545852144 1028.1227436823106,265.8694818280227 1032.5270758122742,327.75581774397733 1036.9314079422384,317.7001681891249 1041.335740072202,325.7420675786236 1045.7400722021662,385.63926161322763 1050.1444043321299,387.9469827461275 1054.548736462094,413.4605853574806 1058.9530685920577,408.54792450248704 1063.3574007220218,414.057309603856 1067.7617328519855,422.49961413141773 1072.1660649819496,446.99326869813336 1076.5703971119133,442.5529334329444 1080.9747292418774,401.9379959191174 1085.379061371841,391.76072251454167 1089.783393501805,328.9729856579618 1094.187725631769,309.47005936514233 1098.5920577617328,302.5895268951198 1102.9963898916967,308.9516241886965 1107.4007220216606,312.9213486304603 1111.8050541516245,300.35543358057794 1116.2093862815884,321.3081937302697 1120.6137184115523,311.8944073146628 1125.0180505415162,302.4683687709718 1129.4223826714801,242.80208185462124 1133.826714801444,191.11795832494545 1138.231046931408,177.77362976073584 1142.6353790613719,205.97561564856647 1147.0397111913358,158.4251472574333 1151.4440433212997,125.26987298100846 1155.8483754512636,99.59040424744967 1160.2527075812275,152.06740187820117 1164.6570397111914,149.65049208036146 1169.0613718411553,109.06393986316232 1173.4657039711192,125.85757834255492 1177.870036101083,169.52654081317417 1182.2743682310468,105.51887449673609 1186.678700361011,174.09899990816086 1191.0830324909746,190.33148493950716 1195.4873646209387,171.81975773794557 1199.8916967509026,181.77853652487215 1204.2960288808665,226.08650730094405 1208.7003610108304,270.9379936416251 1213.104693140794,319.6874715148252 1217.5090252707582,284.8125973896693 1221.913357400722,289.42264955871593 1226.317689530686,282.36593401223575 1230.7220216606497,295.93063498980774 1235.1263537906138,301.91509056978214 1239.5306859205775,280.03026719670305 1243.9350180505414,281.6653220850732 1248.3393501805053,253.19985546508872 1252.7436823104692,293.8609708400765 1257.1480144404334,326.2492258714152 1261.552346570397,409.90215037796145 1265.956678700361,415.43567434618416 1270.3610108303249,424.2256901010749 1274.7653429602888,432.9639303533193 1279.1696750902527,422.9390005408294 1283.5740072202166,405.67813354003823 1287.9783393501805,402.2056618731973 1292.3826714801444,426.11328443438634 1296.7870036101083,419.196560450581 1301.1913357400722,386.93196715149617 1305.595667870036,361.58609462141226 1310.0,369.32296481585234" fill="none" stroke="#0f766e" stroke-width="2.5"><title>static_50_50_rebalance | end=2026-04-24 | return=201.22%</title></polyline>
<polyline points="90.0,695.5631002887454 94.4043321299639,655.5401627180975 98.8086642599278,663.0723722668074 103.2129963898917,665.6395620341076 107.61732851985559,658.180086806967 112.0216606498195,638.685344712955 116.4259927797834,622.5739852179242 120.83032490974729,609.3583583117354 125.2346570397112,633.1539094594306 129.63898916967509,626.4213486862794 134.043321299639,602.4553199642475 138.4476534296029,599.9031838258718 142.8519855595668,606.6289371323144 147.2563176895307,589.1779391368349 151.66064981949458,591.9567925664937 156.06498194945848,579.1234977158239 160.4693140794224,589.9404756217067 164.87364620938627,570.7612902419268 169.27797833935017,553.9727291058081 173.68231046931407,549.5540314923912 178.08664259927798,601.218351263194 182.49097472924188,605.6523468478605 186.8953068592058,591.2396238392345 191.2996389891697,604.077286965093 195.70397111913357,614.0925131231148 200.10830324909747,647.112514595322 204.51263537906138,623.150814815827 208.91696750902526,623.5175111825503 213.32129963898916,644.3539404363547 217.72563176895306,624.9287103164177 222.12996389891697,581.5316451358929 226.53429602888085,558.1348819823772 230.93862815884478,524.3621957727429 235.34296028880865,521.5732766055899 239.74729241877256,522.7029637746251 244.15162454873646,496.0941816230053 248.55595667870034,530.2066539958768 252.96028880866427,517.125369063183 257.36462093862815,544.8147671120646 261.76895306859205,515.4729704260645 266.17328519855596,490.4321611897691 270.57761732851986,462.7167642684874 274.98194945848377,461.88629319064836 279.3862815884477,449.07891852033055 283.7906137184116,449.6931889259506 288.1949458483755,441.6807041902012 292.5992779783394,456.62329334625315 297.00361010830323,467.33543067014705 301.40794223826714,463.0258203727999 305.81227436823104,484.08792424555736 310.21660649819495,487.21868911757645 314.62093862815885,467.3833089649411 319.02527075812276,492.78992004014344 323.4296028880866,523.5306311413779 327.8339350180505,513.8169734057774 332.2382671480144,569.2255792914107 336.6425992779783,565.7035532186436 341.0469314079422,529.8837945881974 345.45126353790613,530.5596052489814 349.85559566787003,546.3832222795579 354.25992779783394,549.5215971336942 358.66425992779784,557.1071436494201 363.0685920577617,562.0087006337573 367.47292418772565,531.7918007861831 371.87725631768956,514.520541719658 376.28158844765346,489.98547434707774 380.6859205776173,517.1677490992727 385.0902527075812,530.6683174912492 389.4945848375451,537.4418267290353 393.898916967509,548.5824427321315 398.30324909747293,564.0787710352032 402.7075812274368,622.3559474066058 407.1119133574007,625.1233366948874 411.51624548736464,639.2342310081332 415.92057761732855,632.8107789997007 420.32490974729245,641.1978170295757 424.72924187725636,703.4931859873664 429.1335740072202,692.4509006116446 433.5379061371841,709.3792801313598 437.942238267148,691.6899870193635 442.3465703971119,693.1959003977814 446.7509025270758,668.1040258264384 451.15523465703967,653.2616724526574 455.5595667870036,654.18919707759 459.9638989169675,637.8773499230665 464.3682310469314,670.3958178219153 468.77256317689535,678.0449997867074 473.17689530685925,675.6051194316494 477.5812274368231,662.3557812501622 481.985559566787,683.5309693586498 486.3898916967509,691.2934926396651 490.7942238267148,690.6230761358927 495.1985559566787,690.0828490159557 499.6028880866426,693.4167498008852 504.00722021660647,693.2650325548777 508.4115523465704,673.2562913449665 512.8158844765343,666.155287691883 517.2202166064982,702.0377469490746 521.6245487364621,707.4157693074922 526.0288808664261,708.779260621411 530.4332129963899,701.032993185125 534.8375451263538,702.6812767354404 539.2418772563177,710.0 543.6462093862816,706.4505138411258 548.0505415162455,708.3313643924135 552.4548736462093,703.0186422858876 556.8592057761732,680.700893214682 561.2635379061371,658.2761936188797 565.667870036101,659.9004015770134 570.0722021660649,654.9158096620072 574.4765342960288,670.2589215409589 578.8808664259927,648.7029525393355 583.2851985559566,658.8915118417149 587.6895306859205,664.2044354696017 592.0938628158844,680.0844160073358 596.4981949458484,631.6859013891 600.9025270758123,633.8946491090708 605.3068592057762,626.2305658751925 609.7111913357401,625.7846188871332 614.115523465704,603.8304452248209 618.5198555956679,626.4579889811743 622.9241877256318,618.0041601110391 627.3285198555957,611.4743053955178 631.7328519855596,628.6811560663318 636.1371841155234,628.2310242526536 640.5415162454873,628.0509204063819 644.9458483754513,623.7249764293084 649.3501805054152,627.4305604233058 653.7545126353791,631.2004621922886 658.158844765343,616.1192525012748 662.5631768953069,615.4154937472163 666.9675090252707,617.3017949970415 671.3718411552346,615.5477179570207 675.7761732851985,617.4400008177549 680.1805054151624,618.8525983277401 684.5848375451263,620.4340111170465 688.9891696750902,619.4059207492812 693.3935018050541,629.6266853833772 697.797833935018,630.003934469467 702.202166064982,632.1430709805428 706.6064981949459,631.305757037467 711.0108303249098,628.3353619259143 715.4151624548736,631.4033495729822 719.8194945848376,625.4952256423629 724.2238267148014,622.8221110176639 728.6281588447654,632.9120902464058 733.0324909747293,618.8085274870614 737.4368231046931,593.499309296191 741.8411552346571,587.4038229311735 746.2454873646209,569.5806422178597 750.6498194945849,575.3985927895998 755.0541516245487,569.4162028200608 759.4584837545127,567.6901135528176 763.8628158844765,551.2408683397999 768.2671480144404,558.3846647739443 772.6714801444043,552.4756824307108 777.0758122743682,555.9640904204374 781.4801444043321,553.704477952363 785.884476534296,548.9800408180329 790.28880866426,551.4297216445066 794.6931407942238,556.7413440305701 799.0974729241877,553.7182920026111 803.5018050541516,543.3573319811544 807.9061371841156,528.3434597750843 812.3104693140793,527.3151766663566 816.7148014440434,499.8484473419262 821.1191335740072,482.51319561765956 825.5234657039712,484.2005033767532 829.927797833935,498.8251831927787 834.332129963899,486.3738957168316 838.7364620938628,493.2484311075459 843.1407942238267,496.3238253306607 847.5451263537907,506.16960733811266 851.9494584837545,504.15282880276766 856.3537906137185,506.209194160925 860.7581227436823,515.4134408830332 865.1624548736462,497.87828721033793 869.5667870036101,473.9190751138574 873.971119133574,474.52515393606507 878.3754512635379,474.16715750390495 882.7797833935018,482.47927097456136 887.1841155234656,483.83333029872847 891.5884476534296,491.3591268996969 895.9927797833934,509.07985931595863 900.3971119133574,499.9600774585592 904.8014440433213,462.8002300752597 909.2057761732852,467.5917457934289 913.6101083032491,488.0339465214674 918.0144404332129,506.63884276607536 922.418772563177,511.3332937256653 926.8231046931407,489.0223715922507 931.2274368231048,514.0585620975664 935.6317689530686,544.6326074173278 940.0361010830325,514.7581972343071 944.4404332129964,500.4504315232314 948.8447653429603,485.5614966254797 953.2490974729242,511.7066182245947 957.6534296028881,509.13574336970225 962.0577617328521,481.7287985141443 966.4620938628159,499.2885792884743 970.8664259927798,488.6667864566265 975.2707581227437,444.3105366966128 979.6750902527076,413.6519327102334 984.0794223826715,390.50150950591313 988.4837545126354,381.4725244774121 992.8880866425992,364.4100505181057 997.2924187725632,365.60957323281445 1001.696750902527,381.36022259916064 1006.101083032491,388.8492019890911 1010.5054151624548,374.9182268380292 1014.9097472924187,388.85189740526334 1019.3140794223826,370.09881444845325 1023.7184115523465,374.49704011755495 1028.1227436823106,377.7074574844035 1032.5270758122742,410.5871690078938 1036.9314079422384,403.0817315853618 1041.335740072202,409.5279866062688 1045.7400722021662,458.8803582986054 1050.1444043321299,462.9171298280652 1054.548736462094,486.36627011745077 1058.9530685920577,481.50921771904586 1063.3574007220218,486.972791359749 1067.7617328519855,494.9447616704125 1072.1660649819496,518.0808999853515 1076.5703971119133,513.9628341832101 1080.9747292418774,476.2201698597228 1085.379061371841,467.0951484535287 1089.783393501805,408.0473575610328 1094.187725631769,388.78682981556216 1098.5920577617328,384.3216051714284 1102.9963898916967,388.55851637194564 1107.4007220216606,392.87210983519225 1111.8050541516245,381.2324060017004 1116.2093862815884,400.7018331687185 1120.6137184115523,393.76283586124663 1125.0180505415162,384.7743678892527 1129.4223826714801,330.4979522563668 1133.826714801444,288.6494756786283 1138.231046931408,280.11473962496717 1142.6353790613719,294.5837111128638 1147.0397111913358,271.827769738924 1151.4440433212997,256.851469193876 1155.8483754512636,245.73384623224138 1160.2527075812275,267.57795967854724 1164.6570397111914,266.58415386614087 1169.0613718411553,249.64236467650824 1173.4657039711192,256.562391627906 1177.870036101083,274.52148831614363 1182.2743682310468,242.67118367824588 1186.678700361011,273.78300536729506 1191.0830324909746,282.21092607582017 1195.4873646209387,269.0144342472782 1199.8916967509026,275.2928213356122 1204.2960288808665,302.3458296534252 1208.7003610108304,335.7462009666119 1213.104693140794,378.397838044608 1217.5090252707582,345.7073376047442 1221.913357400722,350.23018247987 1226.317689530686,343.2649047337969 1230.7220216606497,356.7872797598458 1235.1263537906138,362.770600440507 1239.5306859205775,340.8687629163415 1243.9350180505414,342.50827582110776 1248.3393501805053,313.9018782087509 1252.7436823104692,354.9066553423101 1257.1480144404334,387.4831172522475 1261.552346570397,471.1800960707369 1265.956678700361,476.633998841423 1270.3610108303249,485.2221598449348 1274.7653429602888,493.7152206874829 1279.1696750902527,484.0113460580586 1283.5740072202166,467.3122925030413 1287.9783393501805,463.9458505661123 1292.3826714801444,487.1603699421412 1296.7870036101083,480.4620720133915 1301.1913357400722,449.22596392423276 1305.595667870036,424.5874063792812 1310.0,432.1464177939764" fill="none" stroke="#dc2626" stroke-width="2.5"><title>target_50_50_with_cash_band | end=2026-04-24 | return=162.47%</title></polyline>
<polyline points="90.0,695.5631002887454 94.4043321299639,645.8365486198675 98.8086642599278,656.6634884745763 103.2129963898917,660.736954694802 107.61732851985559,649.6452490902623 112.0216606498195,620.5751382868143 116.4259927797834,594.3488975525129 120.83032490974729,571.3639831152614 125.2346570397112,614.7007537515431 129.63898916967509,605.1801651451609 134.043321299639,573.7981818318307 138.4476534296029,569.920637478004 142.8519855595668,581.1257817679513 147.2563176895307,550.953280087266 151.66064981949458,555.9733167819319 156.06498194945848,532.4116915860163 160.4693140794224,552.5464222748925 164.87364620938627,519.5877654953869 169.27797833935017,488.39441619368574 173.68231046931407,479.03899242077966 178.08664259927798,574.1913740913332 182.49097472924188,579.806866741706 186.8953068592058,563.0258698695508 191.2996389891697,577.6044473750753 195.70397111913357,588.6628007083775 200.10830324909747,624.9435047472298 204.51263537906138,598.7421343080297 208.91696750902526,599.1442068388044 213.32129963898916,622.0747429876811 217.72563176895306,600.7100550608453 222.12996389891697,552.8737720825395 226.53429602888085,527.0915273995349 230.93862815884478,489.18203212399226 235.34296028880865,485.9235565719985 239.74729241877256,487.318152354003 244.15162454873646,453.97980061084996 248.55595667870034,502.34277338307476 252.96028880866427,486.26067557562044 257.36462093862815,520.5977127020639 261.76895306859205,486.87428104307804 266.17328519855596,457.0070606588606 270.57761732851986,419.2105054752549 274.98194945848377,417.9375842250734 279.3862815884477,396.3195565764764 283.7906137184116,397.4147278415768 288.1949458483755,382.8696312324526 292.5992779783394,410.4290492125571 297.00361010830323,430.0149832369116 301.40794223826714,423.85622487743905 305.81227436823104,455.24556077887314 310.21660649819495,459.3875786561169 314.62093862815885,436.37534882513035 319.02527075812276,466.91591107123895 323.4296028880866,501.6931898462688 327.8339350180505,491.25067836759285 332.2382671480144,549.9059279769618 336.6425992779783,546.1149105031442 341.0469314079422,508.42056464624784 345.45126353790613,509.08730991940206 349.85559566787003,525.8914240518061 354.25992779783394,529.2358454734067 358.66425992779784,537.2853175899577 363.0685920577617,542.4923325949053 367.47292418772565,510.37505688082285 371.87725631768956,491.9699354990788 376.28158844765346,465.7907304469567 380.6859205776173,494.80269648947524 385.0902527075812,509.2079822889099 389.4945848375451,516.4282387089286 393.898916967509,528.3008630077452 398.30324909747293,544.7953265004617 402.7075812274368,606.8095565832966 407.1119133574007,609.7381317800589 411.51624548736464,624.6585415020633 415.92057761732855,617.8284520031792 420.32490974729245,626.7015363444042 424.72924187725636,692.941293708863 429.1335740072202,681.3028575142723 433.5379061371841,699.2524905630805 437.942238267148,680.4759961220935 442.3465703971119,682.08975268537 446.7509025270758,655.339057208241 451.15523465703967,639.430995204812 455.5595667870036,640.3880988478275 459.9638989169675,622.8366355451202 464.3682310469314,657.7039566752917 468.77256317689535,665.902715204236 473.17689530685925,663.277367973296 477.5812274368231,649.1360517941201 481.985559566787,671.7893940754191 486.3898916967509,680.0618350595739 490.7942238267148,679.3450010504301 495.1985559566787,678.7673945272562 499.6028880866426,682.3192662779197 504.00722021660647,682.1585234194473 508.4115523465704,660.8419993544695 512.8158844765343,653.2481538578569 517.2202166064982,691.6142394782069 521.6245487364621,697.3587254419655 526.0288808664261,698.8104817834419 530.4332129963899,690.5637435766389 534.8375451263538,692.3235247963325 539.2418772563177,700.1275672328351 543.6462093862816,696.3509960928719 548.0505415162455,698.3557387992222 552.4548736462093,692.6931200486401 556.8592057761732,668.8882954048405 561.2635379061371,644.9302794228709 565.667870036101,646.6685242840124 570.0722021660649,641.3436950561386 574.4765342960288,657.747230425214 578.8808664259927,634.729171215961 583.2851985559566,645.6152428502943 587.6895306859205,651.2892890475775 592.0938628158844,668.2317314070676 596.4981949458484,616.6639181133021 600.9025270758123,619.0133975924541 605.3068592057762,610.828254929057 609.7111913357401,610.3731589161598 614.115523465704,586.728686286788 618.5198555956679,612.8088781343572 622.9241877256318,603.3288873937051 627.3285198555957,596.3360032660983 631.7328519855596,616.1062509549479 636.1371841155234,615.5772439864817 640.5415162454873,615.3284660053099 644.9458483754513,609.1461691659907 649.3501805054152,615.001186046876 653.7545126353791,621.2805436199186 658.158844765343,597.7784030128643 662.5631768953069,596.6138371707265 666.9675090252707,599.8560375831509 671.3718411552346,596.8115576308038 675.7761732851985,600.1274202841684 680.1805054151624,602.6008530419374 684.5848375451263,605.3587085078509 688.9891696750902,603.5743757898952 693.3935018050541,621.3044102572379 697.797833935018,621.7561451300955 702.202166064982,624.0669218232313 706.6064981949459,623.1931191962831 711.0108303249098,620.1261928640816 715.4151624548736,623.2825493777394 719.8194945848376,617.2045779536916 724.2238267148014,614.4406401410149 728.6281588447654,624.8599104910679 733.0324909747293,610.2542634878653 737.4368231046931,583.6606619564375 741.8411552346571,577.2705662997548 746.2454873646209,554.4180975604248 750.6498194945849,562.9740581827834 755.0541516245487,553.4655253017602 759.4584837545127,550.6003981077391 763.8628158844765,522.6595447638972 768.2671480144404,535.147095820625 772.6714801444043,524.7831236503263 777.0758122743682,530.9525292073442 781.4801444043321,526.973042448697 785.884476534296,518.6375309762409 790.28880866426,522.9908218998926 794.6931407942238,532.5067027491475 799.0974729241877,527.1727206181464 803.5018050541516,508.8717365099419 807.9061371841156,482.01384409575496 812.3104693140793,480.1471806856115 816.7148014440434,429.36730628838467 821.1191335740072,396.267746699484 825.5234657039712,399.6033866727782 829.927797833935,428.6830632217246 834.332129963899,406.2089023758481 838.7364620938628,419.25711652055315 843.1407942238267,424.74222574528534 847.5451263537907,441.93783694282087 851.9494584837545,438.48581909649863 856.3537906137185,442.01659906426863 860.7581227436823,457.78775669315945 865.1624548736462,431.5610017447548 869.5667870036101,393.30128935371965 873.971119133574,394.3772022238024 878.3754512635379,393.7395117766006 882.7797833935018,409.8886858384902 887.1841155234656,412.5141299944289 891.5884476534296,427.14647597587924 895.9927797833934,454.228670800302 900.3971119133574,442.76060634232414 904.8014440433213,398.1875865965537 909.2057761732852,405.45944864937286 913.6101083032491,437.353903626394 918.0144404332129,460.6569776929034 922.418772563177,466.30861590812617 926.8231046931407,440.80036383538913 931.2274368231048,469.4060172812474 935.6317689530686,503.81473192609815 940.0361010830325,470.3415541879798 944.4404332129964,454.2907499375273 948.8447653429603,437.5519210707961 953.2490974729242,467.18209458040985 957.6534296028881,464.2855798962246 962.0577617328521,433.47784792205755 966.4620938628159,453.3048692113756 970.8664259927798,441.14318869984896 975.2707581227437,390.89890158145573 979.6750902527076,349.3375542848603 984.0794223826715,314.78487162720086 988.4837545126354,300.4510907698313 992.8880866425992,270.47394886657264 997.2924187725632,272.7701202617009 1001.696750902527,303.0198059965301 1006.101083032491,317.32558188424827 1010.5054151624548,293.1095510355819 1014.9097472924187,318.6326363873472 1019.3140794223826,286.4666503490614 1023.7184115523465,294.436727220486 1028.1227436823106,300.02063143273887 1032.5270758122742,355.5907294949817 1036.9314079422384,345.9592059710333 1041.335740072202,353.66924199106415 1045.7400722021662,410.77988394830555 1050.1444043321299,415.0437997847479 1054.548736462094,441.1399749967967 1058.9530685920577,435.787905752135 1063.3574007220218,441.8744948582187 1067.7617328519855,450.74514709962483 1072.1660649819496,476.53664898235235 1076.5703971119133,471.9657989428008 1080.9747292418774,429.937550225668 1085.379061371841,419.66069907389016 1089.783393501805,353.66022356998116 1094.187725631769,332.00607028649034 1098.5920577617328,326.9255363667166 1102.9963898916967,331.72296647304756 1107.4007220216606,336.59771776225386 1111.8050541516245,323.492549055658 1116.2093862815884,345.40157556924805 1120.6137184115523,337.60926720467245 1125.0180505415162,327.5392986239577 1129.4223826714801,266.6639162457575 1133.826714801444,210.97466738461446 1138.231046931408,197.65946867642117 1142.6353790613719,222.42814303700914 1147.0397111913358,181.553456429957 1151.4440433212997,153.59404590884014 1155.8483754512636,132.21659332074591 1160.2527075812275,174.18193741323012 1164.6570397111914,172.4180666185781 1169.0613718411553,140.26767265418243 1173.4657039711192,153.5744639004754 1177.870036101083,187.864284591397 1182.2743682310468,132.86933688857357 1186.678700361011,189.77520216636537 1191.0830324909746,204.23907694702058 1195.4873646209387,186.80308599576404 1199.8916967509026,196.0924124281072 1204.2960288808665,238.16789150244819 1208.7003610108304,281.26952853031975 1213.104693140794,330.8386526054546 1217.5090252707582,294.4571730191808 1221.913357400722,299.46687421888976 1226.317689530686,291.84127319915586 1230.7220216606497,306.658232015355 1235.1263537906138,313.21532461790906 1239.5306859205775,289.19980115912125 1243.9350180505414,291.0028535587647 1248.3393501805053,259.5611959858904 1252.7436823104692,304.6761548759795 1257.1480144404334,340.4795757108456 1261.552346570397,432.3570199190741 1265.956678700361,438.35946967702307 1270.3610108303249,447.7374334981915 1274.7653429602888,457.0640682413177 1279.1696750902527,446.40941330100384 1283.5740072202166,428.07541542130724 1287.9783393501805,424.3828655646523 1292.3826714801444,449.92908269034405 1296.7870036101083,442.55951688631035 1301.1913357400722,408.19850252724 1305.595667870036,381.0622157686786 1310.0,389.416667678616" fill="none" stroke="#2563eb" stroke-width="2.5"><title>narrow_cash_band_rebalance | end=2026-04-24 | return=188.82%</title></polyline>
<polyline points="90.0,695.5631002887454 94.4043321299639,647.1105010267241 98.8086642599278,657.1773848654382 103.2129963898917,660.7532508204531 107.61732851985559,650.449799397687 112.0216606498195,623.883396075477 116.4259927797834,598.7657592104683 120.83032490974729,577.3367611691377 125.2346570397112,616.2589442556608 129.63898916967509,606.8132800044775 134.043321299639,576.5307058608668 138.4476534296029,572.8366768378513 142.8519855595668,583.2116596711833 147.2563176895307,554.8749957715761 151.66064981949458,559.4654297515833 156.06498194945848,538.0803537510787 160.4693140794224,556.4159676572664 164.87364620938627,526.262237536498 169.27797833935017,500.37115923627096 173.68231046931407,495.2688999265148 178.08664259927798,577.4261916599614 182.49097472924188,582.9436030421739 186.8953068592058,567.5025805644553 191.2996389891697,580.2913491136358 195.70397111913357,590.7010310010547 200.10830324909747,624.9453887796649 204.51263537906138,598.3394417674233 208.91696750902526,598.7461615631642 213.32129963898916,620.9591947233245 217.72563176895306,599.2072623760046 222.12996389891697,552.533396373916 226.53429602888085,526.606752928384 230.93862815884478,488.2209021241622 235.34296028880865,485.29189690072735 239.74729241877256,486.6175267293469 244.15162454873646,454.9347725522875 248.55595667870034,499.50215427172566 252.96028880866427,483.39700017177273 257.36462093862815,518.6983964457096 261.76895306859205,483.24403761206327 266.17328519855596,453.44299996821644 270.57761732851986,416.68572242064005 274.98194945848377,415.28443040865716 279.3862815884477,395.05390413214315 283.7906137184116,396.17190864190064 288.1949458483755,382.72073955903085 292.5992779783394,408.135528889888 297.00361010830323,426.2824758560912 301.40794223826714,420.71153816473634 305.81227436823104,450.9770493936657 310.21660649819495,455.3829410784352 314.62093862815885,431.1280932421977 319.02527075812276,461.7311271988161 323.4296028880866,497.9324023384113 327.8339350180505,487.43358177694205 332.2382671480144,544.9759158088589 336.6425992779783,541.2299674973592 341.0469314079422,504.46886852422875 345.45126353790613,505.14015933838255 349.85559566787003,521.2777503141305 354.25992779783394,524.4594920119621 358.66425992779784,532.2547807997992 363.0685920577617,537.2959360357526 367.47292418772565,506.1487395887343 371.87725631768956,488.52428053697685 376.28158844765346,463.33184604719145 380.6859205776173,490.99356014692137 385.0902527075812,504.70459157920493 389.4945848375451,511.5830246435877 393.898916967509,522.8555583797707 398.30324909747293,538.7380430021968 402.7075812274368,598.11253295198 407.1119133574007,601.1069751158757 411.51624548736464,617.0187308884998 415.92057761732855,609.7377794557967 420.32490974729245,619.6182956424002 424.72924187725636,691.8322675701387 429.1335740072202,678.7757196381399 433.5379061371841,698.3515363084203 437.942238267148,678.1232140959735 442.3465703971119,679.561969158265 446.7509025270758,650.0908227972394 451.15523465703967,632.6750788592149 455.5595667870036,633.6729722114256 459.9638989169675,614.6620434982069 464.3682310469314,652.4759970999268 468.77256317689535,661.2915155296431 473.17689530685925,658.5598516483462 477.5812274368231,643.2969538701963 481.985559566787,667.5130398170771 486.3898916967509,676.3914085757945 490.7942238267148,675.6141190368196 495.1985559566787,674.9916839756615 499.6028880866426,678.831598515897 504.00722021660647,678.6548335895426 508.4115523465704,655.5447569926814 512.8158844765343,647.3508228149376 517.2202166064982,688.8347301487588 521.6245487364621,694.9828837536471 526.0288808664261,696.5459166329172 530.4332129963899,687.642878529257 534.8375451263538,689.5732499240056 539.2418772563177,698.0433661305082 543.6462093862816,693.9007484538148 548.0505415162455,696.066917003484 552.4548736462093,689.9023097326557 556.8592057761732,664.4112519903006 561.2635379061371,638.6453870270515 565.667870036101,640.57980681153 570.0722021660649,634.7628437493199 574.4765342960288,652.5740691877113 578.8808664259927,627.6731740152275 583.2851985559566,639.4698289618766 587.6895306859205,645.5905005389415 592.0938628158844,663.9596293346466 596.4981949458484,608.3234754810042 600.9025270758123,610.8773117149069 605.3068592057762,602.1770862720781 609.7111913357401,601.3356420555143 614.115523465704,576.494298763756 618.5198555956679,604.3799119451388 622.9241877256318,593.902861691977 627.3285198555957,586.6362790888144 631.7328519855596,608.2291745446348 636.1371841155234,607.6804985989472 640.5415162454873,607.4443060157914 644.9458483754513,601.3682288937174 649.3501805054152,606.9974615861806 653.7545126353791,612.9144238929928 658.158844765343,590.2460124929576 662.5631768953069,588.9892650976284 666.9675090252707,592.2269119229281 671.3718411552346,589.1075682891967 675.7761732851985,592.3023009569945 680.1805054151624,594.5947851756265 684.5848375451263,597.2869828296818 688.9891696750902,595.5926416654044 693.3935018050541,612.39354229771 697.797833935018,612.831621447399 702.202166064982,614.9378554645959 706.6064981949459,614.1588207114147 711.0108303249098,611.5621774920986 715.4151624548736,614.4819632363328 719.8194945848376,608.952704718772 724.2238267148014,606.9020577339712 728.6281588447654,616.0549565129733 733.0324909747293,603.4051978637632 737.4368231046931,578.9420324701081 741.8411552346571,572.9536104622606 746.2454873646209,551.5243420922734 750.6498194945849,559.5271793106936 755.0541516245487,550.6707345332504 759.4584837545127,548.0841704078634 763.8628158844765,522.3188582271348 768.2671480144404,533.8171897958782 772.6714801444043,524.2644103418431 777.0758122743682,529.9176388812325 781.4801444043321,526.233120120577 785.884476534296,518.3479957605523 790.28880866426,522.3951402804029 794.6931407942238,530.786240690135 799.0974729241877,525.8250974143581 803.5018050541516,508.8767635666783 807.9061371841156,483.9963976551168 812.3104693140793,482.11830397093684 816.7148014440434,435.59283731876155 821.1191335740072,405.4295716693419 825.5234657039712,408.4620399391172 829.927797833935,434.76600209247283 834.332129963899,414.22919174085655 838.7364620938628,426.3375075782798 843.1407942238267,431.5800501802921 847.5451263537907,447.6343253247599 851.9494584837545,444.00269919029614 856.3537906137185,447.21211507618955 860.7581227436823,462.3166721165643 865.1624548736462,437.16068824647124 869.5667870036101,396.64246507734595 873.971119133574,397.31331983850964 878.3754512635379,397.07823900429355 882.7797833935018,411.8977284981272 887.1841155234656,414.0548291169852 891.5884476534296,427.3967682205345 895.9927797833934,452.8610852620169 900.3971119133574,441.78636528913773 904.8014440433213,400.00825182644155 909.2057761732852,407.9158066110653 913.6101083032491,437.4829953007869 918.0144404332129,461.2536959080645 922.418772563177,466.26563515116436 926.8231046931407,442.0628348008944 931.2274368231048,470.8985225149685 935.6317689530686,505.2275088391831 940.0361010830325,473.57487617407475 944.4404332129964,458.1359023466033 948.8447653429603,441.9182322165131 953.2490974729242,472.34547259908646 957.6534296028881,469.46080678181966 962.0577617328521,440.6122663605334 966.4620938628159,461.6938740650459 970.8664259927798,449.83683801415157 975.2707581227437,396.6848484354594 979.6750902527076,359.42178352186323 984.0794223826715,326.23215329552517 988.4837545126354,308.72496594836934 992.8880866425992,278.20198432118553 997.2924187725632,281.04032505689247 1001.696750902527,309.48161015956134 1006.101083032491,322.50043314269067 1010.5054151624548,299.5330849399809 1014.9097472924187,323.52438875131224 1019.3140794223826,294.1080338195498 1023.7184115523465,302.3769236009812 1028.1227436823106,307.00136926042046 1032.5270758122742,362.88655846815726 1036.9314079422384,352.708626452762 1041.335740072202,360.74400116625947 1045.7400722021662,420.2903112373995 1050.1444043321299,425.6121813028986 1054.548736462094,453.82267044075553 1058.9530685920577,447.4824617278439 1063.3574007220218,455.36875509447407 1067.7617328519855,466.3360198340662 1072.1660649819496,499.9689971019301 1076.5703971119133,495.30472183279346 1080.9747292418774,453.1011635894411 1085.379061371841,441.8463757500129 1089.783393501805,359.527125250295 1094.187725631769,332.2665160611818 1098.5920577617328,328.5909141339527 1102.9963898916967,332.47414839323454 1107.4007220216606,338.391438674786 1111.8050541516245,323.8207057102872 1116.2093862815884,348.1351838091571 1120.6137184115523,340.66804374535707 1125.0180505415162,329.2393337125453 1129.4223826714801,261.99024783208716 1133.826714801444,193.66429836861107 1138.231046931408,178.25521589342918 1142.6353790613719,203.25499392277897 1147.0397111913358,161.68289844504886 1151.4440433212997,134.22626692554275 1155.8483754512636,113.49453022505224 1160.2527075812275,153.14482657547 1164.6570397111914,151.30538812183124 1169.0613718411553,120.86354631236725 1173.4657039711192,133.2257042034189 1177.870036101083,165.68938312151988 1182.2743682310468,112.30555403203584 1186.678700361011,167.42781331064543 1191.0830324909746,180.4262042504871 1195.4873646209387,163.97475580563014 1199.8916967509026,173.33871396033908 1204.2960288808665,215.69876706231474 1208.7003610108304,260.71323654777893 1213.104693140794,311.42381658415593 1217.5090252707582,274.05276628672374 1221.913357400722,278.6120596211438 1226.317689530686,270.7883945554527 1230.7220216606497,285.66389696277724 1235.1263537906138,292.31603001417426 1239.5306859205775,267.84927124280915 1243.9350180505414,270.03321687110144 1248.3393501805053,238.9136394642474 1252.7436823104692,283.9991944096786 1257.1480144404334,319.61274157284464 1261.552346570397,411.49047017456394 1265.956678700361,417.29026801386277 1270.3610108303249,428.03018958563786 1274.7653429602888,437.85691888453744 1279.1696750902527,426.39877713445105 1283.5740072202166,405.7635894430869 1287.9783393501805,400.7631086890408 1292.3826714801444,429.49129639672594 1296.7870036101083,420.76335593344095 1301.1913357400722,382.5012981800387 1305.595667870036,351.7382883252741 1310.0,361.9116876876386" fill="none" stroke="#7c3aed" stroke-width="2.5"><title>drawdown_tilt_rebalance | end=2026-04-24 | return=205.79%</title></polyline>
<polyline points="90.0,695.5631002887454 94.4043321299639,640.5992905226553 98.8086642599278,654.113248291806 103.2129963898917,659.9703368239889 107.61732851985559,646.141568868395 112.0216606498195,609.9029556152557 116.4259927797834,579.0240198942489 120.83032490974729,550.2778427425086 125.2346570397112,608.43522062031 129.63898916967509,596.4603976518083 134.043321299639,558.7951426553112 138.4476534296029,553.7119160272271 142.8519855595668,568.5111249836235 147.2563176895307,527.1973837455038 151.66064981949458,534.1184841165788 156.06498194945848,501.34629189735784 160.4693140794224,529.3437111992166 164.87364620938627,485.1680408669814 169.27797833935017,439.23745023314183 173.68231046931407,423.58508263118523 178.08664259927798,558.0707135446712 182.49097472924188,564.2554807378324 186.8953068592058,547.7726837360608 191.2996389891697,559.8567460480065 195.70397111913357,569.9658801946994 200.10830324909747,601.8623867345603 204.51263537906138,579.8298046732372 208.91696750902526,580.102959194706 213.32129963898916,599.6652897202173 217.72563176895306,581.3831701886213 222.12996389891697,536.3213311003367 226.53429602888085,517.1290935045297 230.93862815884478,480.90969914484276 235.34296028880865,478.2454191310358 239.74729241877256,479.7159765127401 244.15162454873646,446.93532749009233 248.55595667870034,500.6795278299239 252.96028880866427,482.74475026476875 257.36462093862815,523.058742075242 261.76895306859205,485.22817100373294 266.17328519855596,454.25956002552505 270.57761732851986,415.30003365757483 274.98194945848377,412.7293679061357 279.3862815884477,384.68690671273356 283.7906137184116,385.76035584582286 288.1949458483755,366.8720127770867 292.5992779783394,403.23380802207294 297.00361010830323,429.1432088418901 301.40794223826714,422.3156046174568 305.81227436823104,458.38871984677246 310.21660649819495,462.7024622466473 314.62093862815885,439.5916576493044 319.02527075812276,473.94320919513586 323.4296028880866,514.6503752991259 327.8339350180505,504.5221997828453 332.2382671480144,557.6476291925248 336.6425992779783,554.0373924249578 341.0469314079422,523.2896471114709 345.45126353790613,523.0252911768541 349.85559566787003,536.851920259016 354.25992779783394,539.8910879987709 358.66425992779784,545.2472310040766 363.0685920577617,549.1558090583144 367.47292418772565,524.5980944035798 371.87725631768956,509.6481457047863 376.28158844765346,490.50902404700304 380.6859205776173,513.7222543635395 385.0902527075812,524.9027730643511 389.4945848375451,530.5088781575682 393.898916967509,539.4352826344318 398.30324909747293,553.1711097049208 402.7075812274368,601.488017258942 407.1119133574007,603.5150547026249 411.51624548736464,614.2138541852597 415.92057761732855,608.1945322781096 420.32490974729245,615.0531432254024 424.72924187725636,671.7545256699058 429.1335740072202,662.3938498294527 433.5379061371841,678.0475562086306 437.942238267148,661.0237358485851 442.3465703971119,663.2429806941196 446.7509025270758,640.9224962323517 451.15523465703967,627.788511300784 455.5595667870036,629.131994222656 459.9638989169675,615.0617096742925 464.3682310469314,644.78690999429 468.77256317689535,651.4566992518043 473.17689530685925,650.0230631891632 477.5812274368231,637.8154086521746 481.985559566787,656.2460654751403 486.3898916967509,662.9385421159207 490.7942238267148,662.2085895758886 495.1985559566787,661.6277309501986 499.6028880866426,664.747389434656 504.00722021660647,664.647535658808 508.4115523465704,646.9002888892501 512.8158844765343,640.5691832414145 517.2202166064982,674.422274264261 521.6245487364621,679.1081908803424 526.0288808664261,680.4392010331792 530.4332129963899,673.4331250236107 534.8375451263538,674.6711017214251 539.2418772563177,681.218966104313 543.6462093862816,678.1902254866666 548.0505415162455,679.9595444482195 552.4548736462093,675.1992926959401 556.8592057761732,652.7762357005602 561.2635379061371,630.8750258246124 565.667870036101,631.492229807799 570.0722021660649,627.1254485709588 574.4765342960288,641.5882196716033 578.8808664259927,620.6343722872173 583.2851985559566,630.468425504722 587.6895306859205,635.744408896887 592.0938628158844,651.0159250495368 596.4981949458484,603.0328461533353 600.9025270758123,604.6578365021577 605.3068592057762,597.4320953600931 609.7111913357401,597.8724679496854 614.115523465704,575.9547276552029 618.5198555956679,602.0881425826062 622.9241877256318,590.3858597049925 627.3285198555957,584.6448288080645 631.7328519855596,606.125404088237 636.1371841155234,605.5307438063667 640.5415162454873,605.6290919193934 644.9458483754513,599.3620471340533 649.3501805054152,606.1655735815258 653.7545126353791,613.1851901483616 658.158844765343,584.7575131005262 662.5631768953069,583.7143486326113 666.9675090252707,587.4083753671338 671.3718411552346,584.0972591626037 675.7761732851985,588.329215211261 680.1805054151624,591.9017198994491 684.5848375451263,595.2747345002213 688.9891696750902,592.838958093272 693.3935018050541,617.2665535197877 697.797833935018,617.6674982134776 702.202166064982,619.8667427070598 706.6064981949459,619.0587852118799 711.0108303249098,615.8855063370074 715.4151624548736,618.1319130027699 719.8194945848376,613.4686368135442 724.2238267148014,610.1502851746072 728.6281588447654,618.7327334439482 733.0324909747293,604.9518429773293 737.4368231046931,578.9040982681108 741.8411552346571,572.7393005910279 746.2454873646209,549.3211854252828 750.6498194945849,558.2014573853351 755.0541516245487,547.3168744754629 759.4584837545127,543.0108891001552 763.8628158844765,506.29459899158115 768.2671480144404,522.657990852085 772.6714801444043,508.70281884421274 777.0758122743682,518.0383260019203 781.4801444043321,510.8149693048647 785.884476534296,503.66275554105624 790.28880866426,509.81900626328706 794.6931407942238,521.6970740210742 799.0974729241877,514.3693626563429 803.5018050541516,489.3044147722652 807.9061371841156,453.05410227810506 812.3104693140793,452.47340455360256 816.7148014440434,381.1551290609844 821.1191335740072,334.84439773068493 825.5234657039712,339.16781033482437 829.927797833935,381.3726779682546 834.332129963899,350.62246614302745 838.7364620938628,367.9405604029137 843.1407942238267,374.60519989047543 847.5451263537907,395.8839821477896 851.9494584837545,392.58451924038434 856.3537906137185,397.0015720379136 860.7581227436823,414.711010820163 865.1624548736462,382.0840214795967 869.5667870036101,343.8812401969767 873.971119133574,346.3271928642441 878.3754512635379,343.28277456931454 882.7797833935018,365.30317266580204 887.1841155234656,369.9804936065722 891.5884476534296,390.92664533797375 895.9927797833934,427.7302946498711 900.3971119133574,415.00805104161395 904.8014440433213,364.8914391542453 909.2057761732852,376.0643630225586 913.6101083032491,414.0086065706239 918.0144404332129,437.24307452431486 922.418772563177,444.06406453043553 926.8231046931407,418.55994082158765 931.2274368231048,447.6111639496661 935.6317689530686,479.6812493974745 940.0361010830325,447.4943574955781 944.4404332129964,432.9668697589512 948.8447653429603,418.27381709394103 953.2490974729242,444.8925221835857 957.6534296028881,442.2891583565257 962.0577617328521,413.64705145884705 966.4620938628159,430.62895067171036 970.8664259927798,417.1435667042841 975.2707581227437,368.17045314192563 979.6750902527076,314.0565908055158 984.0794223826715,274.8825146285292 988.4837545126354,264.26796478430515 992.8880866425992,233.12177401349737 997.2924187725632,233.7121598892482 1001.696750902527,269.34539376631375 1006.101083032491,288.487183647404 1010.5054151624548,260.30529528028603 1014.9097472924187,290.30053772065423 1019.3140794223826,249.25997077846455 1023.7184115523465,256.6777528846027 1028.1227436823106,264.5626862281067 1032.5270758122742,322.8721888329304 1036.9314079422384,313.4314188270509 1041.335740072202,321.56995135748843 1045.7400722021662,383.979871151209 1050.1444043321299,383.5004922883001 1054.548736462094,407.74154838125247 1058.9530685920577,403.52149195534224 1063.3574007220218,407.6690102963077 1067.7617328519855,414.75316950120606 1072.1660649819496,434.08839845121224 1076.5703971119133,429.77438841087996 1080.9747292418774,390.29183420976847 1085.379061371841,380.22381234482174 1089.783393501805,322.8328542633399 1094.187725631769,305.7683763098154 1098.5920577617328,296.64677657540875 1102.9963898916967,304.938941818827 1107.4007220216606,308.05563029701034 1111.8050541516245,295.7255599548399 1116.2093862815884,316.2381443572635 1120.6137184115523,304.7832411009597 1125.0180505415162,295.88336115084195 1129.4223826714801,236.135289882321 1133.826714801444,186.91091452491094 1138.231046931408,173.59716061895836 1142.6353790613719,203.5230448821768 1147.0397111913358,153.20700554454902 1151.4440433212997,117.77425540418278 1155.8483754512636,90.0 1160.2527075812275,146.60081866236578 1164.6570397111914,144.11351718088463 1169.0613718411553,100.53070107529493 1173.4657039711192,118.66022558965949 1177.870036101083,165.57428305169174 1182.2743682310468,97.09598771376443 1186.678700361011,170.63117424928475 1191.0830324909746,188.09482707396432 1195.4873646209387,168.45613876828486 1199.8916967509026,179.43176725906096 1204.2960288808665,227.67087342033795 1208.7003610108304,275.52801870399236 1213.104693140794,324.4719705143061 1217.5090252707582,291.272379068469 1221.913357400722,296.1240615763765 1226.317689530686,289.8490922240559 1230.7220216606497,302.12016656216696 1235.1263537906138,307.3568124930697 1239.5306859205775,288.5053798642492 1243.9350180505414,289.21319910586226 1248.3393501805053,263.3742864025463 1252.7436823104692,299.1954439421017 1257.1480144404334,328.22728337812777 1261.552346570397,403.04137336387566 1265.956678700361,408.8143529722129 1270.3610108303249,416.17686645664037 1274.7653429602888,424.82520836289086 1279.1696750902527,415.04383745818154 1283.5740072202166,399.17963917707107 1287.9783393501805,396.97996411163876 1292.3826714801444,419.1994604876227 1296.7870036101083,413.34407346278994 1301.1913357400722,382.86139302573605 1305.595667870036,359.56809287677373 1310.0,365.1004228525993" fill="none" stroke="#b45309" stroke-width="2.5"><title>btc_defensive_eth_aggressive | end=2026-04-24 | return=203.82%</title></polyline>
</svg>