<svg xmlns="http://www.w3.org/2000/svg" width="1400" height="800">
<rect width="1400" height="800" fill="#f8fafc"/>
<text x="700.0" y="42" text-anchor="middle" font-family="monospace" font-size="24" fill="#0f172a">Portfolio Value Over Time | start=2025-10-01 | interval=2d</text>
<line x1="90" y1="710" x2="1310" y2="710" stroke="#334155" stroke-width="2"/>
<line x1="90" y1="90" x2="90" y2="710" stroke="#334155" stroke-width="2"/>
<line x1="90.0" y1="710" x2="90.0" y2="90" stroke="#cbd5e1" stroke-width="1"/>
<text x="90.0" y="734" text-anchor="middle" font-family="monospace" font-size="11" fill="#475569">2025-10-01</text>
<line x1="90" y1="710.0" x2="1310" y2="710.0" stroke="#cbd5e1" stroke-width="1"/>
<text x="78" y="714.0" text-anchor="end" font-family="monospace" font-size="12" fill="#475569">6507</text>
<line x1="334.0" y1="710" x2="334.0" y2="90" stroke="#cbd5e1" stroke-width="1"/>
<text x="334.0" y="734" text-anchor="middle" font-family="monospace" font-size="11" fill="#475569">2025-11-14</text>
<line x1="90" y1="586.0" x2="1310" y2="586.0" stroke="#cbd5e1" stroke-width="1"/>
<text x="78" y="590.0" text-anchor="end" font-family="monospace" font-size="12" fill="#475569">7227</text>
<line x1="578.0" y1="710" x2="578.0" y2="90" stroke="#cbd5e1" stroke-width="1"/>
<text x="578.0" y="734" text-anchor="middle" font-family="monospace" font-size="11" fill="#475569">2025-12-28</text>
<line x1="90" y1="461.9999999999999" x2="1310" y2="461.9999999999999" stroke="#cbd5e1" stroke-width="1"/>
<text x="78" y="465.9999999999999" text-anchor="end" font-family="monospace" font-size="12" fill="#475569">7947</text>
<line x1="822.0" y1="710" x2="822.0" y2="90" stroke="#cbd5e1" stroke-width="1"/>
<text x="822.0" y="734" text-anchor="middle" font-family="monospace" font-size="11" fill="#475569">2026-02-10</text>
<line x1="90" y1="337.99999999999994" x2="1310" y2="337.99999999999994" stroke="#cbd5e1" stroke-width="1"/>
<text x="78" y="341.99999999999994" text-anchor="end" font-family="monospace" font-size="12" fill="#475569">8667</text>
<line x1="1066.0" y1="710" x2="1066.0" y2="90" stroke="#cbd5e1" stroke-width="1"/>
<text x="1066.0" y="734" text-anchor="middle" font-family="monospace" font-size="11" fill="#475569">2026-03-26</text>
<line x1="90" y1="214.0" x2="1310" y2="214.0" stroke="#cbd5e1" stroke-width="1"/>
<text x="78" y="218.0" text-anchor="end" font-family="monospace" font-size="12" fill="#475569">9387</text>
<line x1="1310.0" y1="710" x2="1310.0" y2="90" stroke="#cbd5e1" stroke-width="1"/>
<text x="1310.0" y="734" text-anchor="middle" font-family="monospace" font-size="11" fill="#475569">2026-05-09</text>
<line x1="90" y1="90.0" x2="1310" y2="90.0" stroke="#cbd5e1" stroke-width="1"/>
<text x="78" y="94.0" text-anchor="end" font-family="monospace" font-size="12" fill="#475569">10107</text>
<text x="700.0" y="782" text-anchor="middle" font-family="monospace" font-size="16" fill="#0f172a">time</text>
<text x="24" y="400.0" transform="rotate(-90 24,400.0)" text-anchor="middle" font-family="monospace" font-size="16" fill="#0f172a">portfolio_value_usd</text>
<line x1="970" y1="80" x2="988" y2="80" stroke="#0f766e" stroke-width="3"/>
<text x="998" y="84" font-family="monospace" font-size="12" fill="#0f172a">budgeted_static_50_50_rebalance</text>
<line x1="970" y1="104" x2="988" y2="104" stroke="#9333ea" stroke-width="3"/>
<text x="998" y="108" font-family="monospace" font-size="12" fill="#0f172a">budgeted_drawdown_tilt_rebalance</text>
<line x1="970" y1="128" x2="988" y2="128" stroke="#92400e" stroke-width="3"/>
<text x="998" y="132" font-family="monospace" font-size="12" fill="#0f172a">budgeted_btc_defensive_eth_aggressive</text>
<polyline points="90.0,108.50397430806038 101.0909090909091,107.08147650311798 112.18181818181819,106.67354886777059 123.27272727272728,108.67090123593732 134.36363636363637,109.91593001905972 145.45454545454544,133.6590871259159 156.54545454545456,114.76718319818349 167.63636363636363,128.8564353200103 178.72727272727272,140.94588585754366 189.8181818181818,130.73851442138505 200.9090909090909,136.70186380635357 212.0,134.11842107491123 223.0909090909091,124.98610646128918 234.1818181818182,108.48056648216595 245.27272727272725,133.93072139329752 256.3636363636364,139.64490007824747 267.45454545454544,131.91843906355234 278.5454545454545,213.46118560774084 289.6363636363636,211.52430003043258 300.72727272727275,199.44221751479762 311.8181818181818,168.34380505395472 322.9090909090909,202.14009337924557 334.0,266.9674092373033 345.09090909090907,270.47730273962037 356.1818181818182,272.4059760609698 367.27272727272725,342.5783794887115 378.3636363636364,360.7861208946911 389.45454545454544,314.11443962841014 400.5454545454545,290.34450264401937 411.6363636363636,286.97047124105046 422.7272727272727,297.0119892042304 433.8181818181818,290.36743418713445 444.9090909090909,259.8006198057209 456.0,296.77722317824083 467.09090909090907,270.5094544679124 478.1818181818182,221.71797226534903 489.27272727272725,280.7798390095692 500.3636363636364,299.2244167990466 511.45454545454544,321.2919693497413 522.5454545454545,364.0480909888584 533.6363636363636,315.2458754659018 544.7272727272727,307.5637594701057 555.8181818181818,326.2641235250212 566.909090909091,332.2355605631126 578.0,323.69922990178264 589.0909090909091,315.96576613155315 600.1818181818181,307.7716524257348 611.2727272727273,270.65544557159774 622.3636363636364,228.98820442652539 633.4545454545454,258.154531258368 644.5454545454545,279.29761324099945 655.6363636363636,270.14218896317396 666.7272727272727,199.47620984194316 677.8181818181818,199.16685588671294 688.9090909090909,204.08627171939264 700.0,245.2203772900986 711.090909090909,307.6287697024396 722.1818181818182,312.1534198535624 733.2727272727273,359.00848931056663 744.3636363636364,300.9744535464287 755.4545454545454,372.1252409804156 766.5454545454546,484.0767101299715 777.6363636363636,504.4428919421945 788.7272727272727,582.2642963418594 799.8181818181818,614.9566493782302 810.909090909091,611.4270397682691 822.0,634.485540625752 833.0909090909091,666.8392473174732 844.1818181818181,615.3388528771972 855.2727272727274,638.9207831623834 866.3636363636364,663.662424926151 877.4545454545455,650.5390713046212 888.5454545454545,655.2279216532702 899.6363636363637,699.7704884169792 910.7272727272727,642.1181553367096 921.8181818181818,658.0621709399472 932.9090909090909,633.1582001937687 944.0,587.5227507005893 955.0909090909091,647.6680874813478 966.1818181818181,670.2439702938839 977.2727272727273,623.7207904082886 988.3636363636364,612.5618762603974 999.4545454545455,603.3790690650217 1010.5454545454545,528.3801871626448 1021.6363636363636,582.3028702014093 1032.7272727272727,598.6627499505563 1043.818181818182,634.6991823761524 1054.909090909091,596.516000873815 1066.0,627.4396484959339 1077.090909090909,656.8698611351717 1088.1818181818182,647.8436553007357 1099.2727272727273,615.8498605605031 1110.3636363636363,640.657084120281 1121.4545454545455,615.9221783302112 1132.5454545454545,570.7020564084634 1143.6363636363637,581.194608565603 1154.7272727272727,553.71398638995 1165.8181818181818,527.9399191887106 1176.9090909090908,527.212437865415 1188.0,500.33117271643084 1199.090909090909,553.0513485071685 1210.1818181818182,523.4294732024242 1221.2727272727273,509.7990150286802 1232.3636363636365,516.2326917751927 1243.4545454545455,521.4115343151664 1254.5454545454545,542.4133610179928 1265.6363636363635,517.1039418385143 1276.7272727272727,509.6164516118944 1287.8181818181818,486.3314084732265 1298.909090909091,506.0926017636233 1310.0,494.78413929488875" fill="none" stroke="#0f766e" stroke-width="2.5"><title>budgeted_static_50_50_rebalance | end=2026-05-09 | return=-22.43%</title></polyline>
<polyline points="90.0,108.50397430806038 101.0909090909091,108.50397430806038 112.18181818181819,108.50397430806038 123.27272727272728,108.50397430806038 134.36363636363637,108.50397430806038 145.45454545454544,108.50397430806038 156.54545454545456,105.67432510094375 167.63636363636363,107.41114918187236 178.72727272727272,109.8678126461399 189.8181818181818,107.03637444337039 200.9090909090909,109.07006942977614 212.0,108.25502182798289 223.0909090909091,104.55920808492192 234.1818181818182,97.38055873598887 245.27272727272725,107.56595614638775 256.3636363636364,110.0631394186546 267.45454545454544,106.58714171593601 278.5454545454545,144.99046696496407 289.6363636363636,143.8386608387906 300.72727272727275,136.69911187501134 311.8181818181818,117.49675588751313 322.9090909090909,139.3537731100098 334.0,184.01566966965913 345.09090909090907,186.58753778155574 356.1818181818182,187.2200757635046 367.27272727272725,242.40223334886406 378.3636363636364,256.980487735659 389.45454545454544,217.49405078026808 400.5454545454545,197.33012245154168 411.6363636363636,194.55029771604916 422.7272727272727,203.83085279279072 433.8181818181818,198.31893138012805 444.9090909090909,168.07844567346308 456.0,202.57795277175728 467.09090909090907,176.58830652470363 478.1818181818182,124.36942889069792 489.27272727272725,189.46160523262893 500.3636363636364,208.72610567803423 511.45454545454544,234.94482035783142 522.5454545454545,284.5037490597021 533.6363636363636,227.23893511095076 544.7272727272727,217.86455172927327 555.8181818181818,240.12399599978392 566.909090909091,247.2301656490016 578.0,237.25958008369463 589.0909090909091,228.2118176257244 600.1818181818181,218.29264441812683 611.2727272727273,173.85984991886426 622.3636363636364,125.65539403609864 633.4545454545454,158.94166232699922 644.5454545454545,184.80025299267265 655.6363636363636,173.64062675473497 666.7272727272727,90.09755176571423 677.8181818181818,90.0 688.9090909090909,95.58207199943934 700.0,144.37791722340353 711.090909090909,219.39239805426666 722.1818181818182,225.3521855957128 733.2727272727273,281.269944942029 744.3636363636364,209.77140361388723 755.4545454545454,295.00943850895214 766.5454545454546,431.3942819059656 777.6363636363636,458.7580915124805 788.7272727272727,555.3863931302111 799.8181818181818,596.4217841695348 810.909090909091,590.3985838814453 822.0,621.1127524778046 833.0909090909091,663.2210595798207 844.1818181818181,593.4276889178398 855.2727272727274,628.0525810224868 866.3636363636364,659.3834127661564 877.4545454545455,643.7563044196348 888.5454545454545,650.0772679192647 899.6363636363637,710.0 910.7272727272727,627.9197311644798 921.8181818181818,652.2725704506489 932.9090909090909,618.1782193920008 944.0,557.3401192361733 955.0909090909091,639.4189404517907 966.1818181818181,668.6514591059748 977.2727272727273,606.8450374888502 988.3636363636364,590.556817032073 999.4545454545455,578.0250728731263 1010.5454545454545,467.86675530869366 1021.6363636363636,543.7314648071717 1032.7272727272727,568.0797726395238 1043.818181818182,618.0964856055386 1054.909090909091,564.6627382236461 1066.0,609.4240711362277 1077.090909090909,649.2529016483824 1088.1818181818182,635.8348509681418 1099.2727272727273,587.9030978077005 1110.3636363636363,624.8788743960912 1121.4545454545455,591.1429798979245 1132.5454545454545,526.5538639309635 1143.6363636363637,543.5048771902927 1154.7272727272727,502.5843367983025 1165.8181818181818,464.728798568068 1176.9090909090908,464.86423172379307 1188.0,428.18464426466426 1199.090909090909,504.10057184304674 1210.1818181818182,463.79505625712795 1221.2727272727273,447.8901878347107 1232.3636363636365,456.36289251508606 1243.4545454545455,463.94165512326595 1254.5454545454545,493.1316878208431 1265.6363636363635,459.80250247962874 1276.7272727272727,448.51532463770644 1287.8181818181818,418.02410375598646 1298.909090909091,447.808524725677 1310.0,431.1000285775426" fill="none" stroke="#9333ea" stroke-width="2.5"><title>budgeted_drawdown_tilt_rebalance | end=2026-05-09 | return=-18.73%</title></polyline>
<polyline points="90.0,108.50397430806038 101.0909090909091,107.4371009543537 112.18181818181819,107.13115522784324 123.27272727272728,108.62916950396823 134.36363636363637,109.56294109130988 145.45454545454544,127.37030892145208 156.54545454545456,113.2013809756528 167.63636363636363,123.76832006702284 178.72727272727272,132.8354079701728 189.8181818181818,124.64076076877325 200.9090909090909,129.50175417442404 212.0,127.61868687803337 223.0909090909091,120.42585280955404 234.1818181818182,107.45514502126252 245.27272727272725,127.31554077857174 256.3636363636364,131.80924101158143 267.45454545454544,125.79923240027472 278.5454545454545,188.93293901434834 289.6363636363636,187.3713390519555 300.72727272727275,177.1243229808057 311.8181818181818,149.47924646036108 322.9090909090909,179.42948115525292 334.0,238.57006820976642 345.09090909090907,241.84889642660698 356.1818181818182,244.4153245546018 367.27272727272725,313.74566267236423 378.3636363636364,332.408618194577 389.45454545454544,284.5160500720335 400.5454545454545,259.1496691601599 411.6363636363636,255.27010813932162 422.7272727272727,265.3108212937596 433.8181818181818,257.505330293254 444.9090909090909,230.1090064962852 456.0,266.66138098489006 467.09090909090907,242.52157577655714 478.1818181818182,200.54141899244695 489.27272727272725,251.80284411336203 500.3636363636364,271.7624615290333 511.45454545454544,290.06471251127414 522.5454545454545,330.1038089920872 533.6363636363636,283.8650933112283 544.7272727272727,277.1359244376852 555.8181818181818,294.4768081351948 566.909090909091,300.04030120436084 578.0,291.74999228666445 589.0909090909091,284.25553384627904 600.1818181818181,276.8446750848744 611.2727272727273,242.48061462516597 622.3636363636364,200.918938853033 633.4545454545454,230.7671492228622 644.5454545454545,249.5990060726249 655.6363636363636,241.37986744334438 666.7272727272727,173.50581358041234 677.8181818181818,172.7461713483434 688.9090909090909,177.8836937983466 700.0,217.2064504478887 711.090909090909,275.1710970488081 722.1818181818182,278.5100920634455 733.2727272727273,323.3463406116475 744.3636363636364,270.1883396131092 755.4545454545454,338.99125192352585 766.5454545454546,443.93638125528395 777.6363636363636,460.79749234077116 788.7272727272727,539.5853159881414 799.8181818181818,573.3208183894212 810.909090909091,570.7117823905987 822.0,593.9711237552618 833.0909090909091,627.6599449922119 844.1818181818181,575.1431493077189 855.2727272727274,597.7663491282531 866.3636363636364,624.4384377706774 877.4545454545455,609.7469469596986 888.5454545454545,614.6097632980516 899.6363636363637,660.9425329876458 910.7272727272727,603.3244463000041 921.8181818181818,618.4089644917397 932.9090909090909,592.7457291617143 944.0,544.8458698478616 955.0909090909091,606.9711412516914 966.1818181818181,631.1335332869788 977.2727272727273,582.1733095346945 988.3636363636364,571.2048683666306 999.4545454545455,561.7158394684302 1010.5454545454545,488.3610311003896 1021.6363636363636,543.1356066234828 1032.7272727272727,559.038258804555 1043.818181818182,596.0822933043951 1054.909090909091,557.0752204839705 1066.0,587.8378297135898 1077.090909090909,618.6585626915316 1088.1818181818182,609.8759328499265 1099.2727272727273,578.9521371518624 1110.3636363636363,603.1023905359034 1121.4545454545455,577.2252192117662 1132.5454545454545,531.5886860097644 1143.6363636363637,541.0507108683088 1154.7272727272727,514.2749034469925 1165.8181818181818,488.85699327606824 1176.9090909090908,487.4336350888241 1188.0,459.2322821977833 1199.090909090909,512.2129170896629 1210.1818181818182,481.06986331568373 1221.2727272727273,465.1935514853068 1232.3636363636365,472.12228598873696 1243.4545454545455,477.2557063417056 1254.5454545454545,498.97700542631026 1265.6363636363635,471.71916793293815 1276.7272727272727,464.4748342534499 1287.8181818181818,439.25227498877985 1298.909090909091,458.47578582189374 1310.0,447.193596061098" fill="none" stroke="#92400e" stroke-width="2.5"><title>budgeted_btc_defensive_eth_aggressive | end=2026-05-09 | return=-19.67%</title></polyline>
</svg>