<svg xmlns="http://www.w3.org/2000/svg" width="1400" height="800">
<rect width="1400" height="800" fill="#f8fafc"/>
<text x="700.0" y="42" text-anchor="middle" font-family="monospace" font-size="24" fill="#0f172a">Portfolio Value Over Time | start=2023-04-01 | interval=7d</text>
<line x1="90" y1="710" x2="1310" y2="710" stroke="#334155" stroke-width="2"/>
<line x1="90" y1="90" x2="90" y2="710" stroke="#334155" stroke-width="2"/>
<line x1="90.0" y1="710" x2="90.0" y2="90" stroke="#cbd5e1" stroke-width="1"/>
<text x="90.0" y="734" text-anchor="middle" font-family="monospace" font-size="11" fill="#475569">2023-04-01</text>
<line x1="90" y1="710.0" x2="1310" y2="710.0" stroke="#cbd5e1" stroke-width="1"/>
<text x="78" y="714.0" text-anchor="end" font-family="monospace" font-size="12" fill="#475569">30695</text>
<line x1="334.0" y1="710" x2="334.0" y2="90" stroke="#cbd5e1" stroke-width="1"/>
<text x="334.0" y="734" text-anchor="middle" font-family="monospace" font-size="11" fill="#475569">2023-11-11</text>
<line x1="90" y1="586.0" x2="1310" y2="586.0" stroke="#cbd5e1" stroke-width="1"/>
<text x="78" y="590.0" text-anchor="end" font-family="monospace" font-size="12" fill="#475569">42565</text>
<line x1="578.0" y1="710" x2="578.0" y2="90" stroke="#cbd5e1" stroke-width="1"/>
<text x="578.0" y="734" text-anchor="middle" font-family="monospace" font-size="11" fill="#475569">2024-06-22</text>
<line x1="90" y1="462.0" x2="1310" y2="462.0" stroke="#cbd5e1" stroke-width="1"/>
<text x="78" y="466.0" text-anchor="end" font-family="monospace" font-size="12" fill="#475569">54436</text>
<line x1="822.0" y1="710" x2="822.0" y2="90" stroke="#cbd5e1" stroke-width="1"/>
<text x="822.0" y="734" text-anchor="middle" font-family="monospace" font-size="11" fill="#475569">2025-02-08</text>
<line x1="90" y1="338.0" x2="1310" y2="338.0" stroke="#cbd5e1" stroke-width="1"/>
<text x="78" y="342.0" text-anchor="end" font-family="monospace" font-size="12" fill="#475569">66307</text>
<line x1="1066.0" y1="710" x2="1066.0" y2="90" stroke="#cbd5e1" stroke-width="1"/>
<text x="1066.0" y="734" text-anchor="middle" font-family="monospace" font-size="11" fill="#475569">2025-09-20</text>
<line x1="90" y1="213.9999999999999" x2="1310" y2="213.9999999999999" stroke="#cbd5e1" stroke-width="1"/>
<text x="78" y="217.9999999999999" text-anchor="end" font-family="monospace" font-size="12" fill="#475569">78178</text>
<line x1="1310.0" y1="710" x2="1310.0" y2="90" stroke="#cbd5e1" stroke-width="1"/>
<text x="1310.0" y="734" text-anchor="middle" font-family="monospace" font-size="11" fill="#475569">2026-05-02</text>
<line x1="90" y1="90.0" x2="1310" y2="90.0" stroke="#cbd5e1" stroke-width="1"/>
<text x="78" y="94.0" text-anchor="end" font-family="monospace" font-size="12" fill="#475569">90049</text>
<text x="700.0" y="782" text-anchor="middle" font-family="monospace" font-size="16" fill="#0f172a">time</text>
<text x="24" y="400.0" transform="rotate(-90 24,400.0)" text-anchor="middle" font-family="monospace" font-size="16" fill="#0f172a">portfolio_value_usd</text>
<line x1="970" y1="80" x2="988" y2="80" stroke="#0f766e" stroke-width="3"/>
<text x="998" y="84" font-family="monospace" font-size="12" fill="#0f172a">static_50_50_rebalance</text>
<line x1="970" y1="104" x2="988" y2="104" stroke="#dc2626" stroke-width="3"/>
<text x="998" y="108" font-family="monospace" font-size="12" fill="#0f172a">target_50_50_with_cash_band</text>
<line x1="970" y1="128" x2="988" y2="128" stroke="#2563eb" stroke-width="3"/>
<text x="998" y="132" font-family="monospace" font-size="12" fill="#0f172a">narrow_cash_band_rebalance</text>
<line x1="970" y1="152" x2="988" y2="152" stroke="#7c3aed" stroke-width="3"/>
<text x="998" y="156" font-family="monospace" font-size="12" fill="#0f172a">drawdown_tilt_rebalance</text>
<line x1="970" y1="176" x2="988" y2="176" stroke="#b45309" stroke-width="3"/>
<text x="998" y="180" font-family="monospace" font-size="12" fill="#0f172a">btc_defensive_eth_aggressive</text>
<polyline points="90.0,682.3206938822625 97.5776397515528,683.4178738492643 105.15527950310559,658.6254107480383 112.73291925465838,682.7798552702743 120.31055900621118,673.791399136829 127.88819875776397,675.9866085497702 135.46583850931677,692.1630547960526 143.04347826086956,689.211197593727 150.62111801242236,689.8314851736588 158.19875776397515,685.2296330004473 165.77639751552795,699.5302770124852 173.35403726708074,697.6891691267037 180.93167701863354,668.4661969693252 188.50931677018633,665.3952214925944 196.08695652173913,670.345767455073 203.66459627329192,666.2738509058302 211.24223602484471,672.698451498966 218.8198757763975,673.9433320763417 226.3975155279503,678.3041570557715 233.9751552795031,675.6059425628946 241.5527950310559,703.0453144675703 249.1304347826087,704.9678451995715 256.7080745341615,706.2742500363372 264.2857142857143,706.2360764292921 271.8633540372671,702.9060643289786 279.44099378881987,705.5898936536234 287.01863354037266,698.5315871349525 294.5962732919255,695.9870744698201 302.17391304347825,706.9164585695268 309.7515527950311,686.8889336931326 317.32919254658384,656.9884564889353 324.90683229813664,646.7419752708466 332.48447204968943,623.6220155616548 340.0621118012422,632.4709792716272 347.639751552795,618.4923067892114 355.2173913043478,605.244234904402 362.7950310559006,573.9964778884407 370.3726708074534,588.7021538764669 377.9503105590062,576.329487438135 385.52795031055905,584.3418429254147 393.1055900621118,580.231382951534 400.6832298136646,559.6944724826444 408.2608695652174,572.5834332957063 415.83850931677017,585.6620059757714 423.416149068323,579.8536784436232 430.99378881987576,544.4588438540376 438.57142857142856,506.74959442779533 446.14906832298135,491.63119702533663 453.72670807453414,416.7154541994117 461.304347826087,355.1472744578145 468.88198757763973,395.9082159915186 476.45962732919253,414.38174514985985 484.0372670807453,379.7673476629233 491.6149068322982,393.5819258869848 499.19254658385097,436.57902554693834 506.7701863354037,422.5044883133822 514.3478260869565,421.3003985374268 521.9254658385094,429.40791436693746 529.5031055900622,456.1195208148575 537.0807453416149,417.432371831139 544.6583850931677,362.3076277974733 552.2360248447205,363.5570829045918 559.8136645962733,367.01065501636054 567.3913043478261,386.8973639895446 574.9689440993789,399.51272747983893 582.5465838509317,420.93217291900044 590.1242236024844,453.0797124831663 597.7018633540373,441.39813749910627 605.27950310559,385.9089910971603 612.8571428571428,402.79708485427017 620.4347826086956,455.54737139785516 628.0124223602485,476.0281729355703 635.5900621118012,481.0697756299509 643.1677018633541,452.22495084217854 650.7453416149068,490.47652382278704 658.3229813664597,526.1467266350061 665.9006211180124,493.5917934366453 673.4782608695652,466.5697776411627 681.0559006211181,452.79638980352746 688.6335403726708,486.44763795760986 696.2111801242236,477.69012494671813 703.7888198757763,446.0849624393357 711.3664596273292,463.95834599222496 718.9440993788819,454.8239655790562 726.5217391304348,379.80747714075284 734.0993788819876,332.2143763286005 741.6770186335403,288.1208105781816 749.2546583850932,267.50303898061605 756.832298136646,233.00356590840101 764.4099378881988,238.8311876216777 771.9875776397515,294.67682556413615 779.5652173913043,296.2485869346272 787.1428571428571,265.8171299784855 794.72049689441,307.52007028287943 802.2981366459627,275.34520072787194 809.8757763975156,273.2830805683932 817.4534161490683,301.9301134053754 825.0310559006211,353.98866958745754 832.608695652174,345.72660675633483 840.1863354037267,342.77772839473903 847.7639751552795,418.57200513977165 855.3416149068322,419.1720611891202 862.9192546583851,446.9059578739656 870.4968944099379,444.66611614436886 878.0745341614906,461.2334425548411 885.6521739130435,460.7085268833224 893.2298136645963,469.8300688922602 900.8074534161491,473.06823389780277 908.3850931677019,429.18676720198266 915.9627329192546,424.9789365182917 923.5403726708074,335.07457609854146 931.1180124223603,349.0042818995198 938.695652173913,332.09121992835577 946.2732919254659,340.3897054651161 953.8509316770186,338.1500301409776 961.4285714285714,338.0180142880275 969.0062111801243,368.20337840595664 976.583850931677,341.7842542645894 984.1614906832299,332.06641654858157 991.7391304347825,268.46093687072715 999.3167701863354,206.607657594435 1006.8944099378882,192.69483460614663 1014.472049689441,238.7352546998813 1022.0496894409938,148.94965180758015 1029.6273291925465,132.26065865209102 1037.2049689440994,108.13923867813696 1044.7826086956522,157.91778799651115 1052.3602484472049,162.30312319602763 1059.9378881987577,115.19814584364133 1067.5155279503106,130.5786814156436 1075.0931677018634,183.6964408559561 1082.6708074534163,111.77586467626827 1090.248447204969,202.60864179812893 1097.8260869565217,201.0005130999457 1105.4037267080746,183.71047276046477 1112.9813664596272,194.78248871321364 1120.55900621118,254.36842722116552 1128.136645962733,291.9839749866576 1135.7142857142856,354.5152671159647 1143.2919254658384,319.2459315016275 1150.8695652173913,319.5515280268843 1158.447204968944,310.49862159289444 1166.024844720497,327.44519564615985 1173.6024844720498,331.40829690197404 1181.1801242236024,308.49281802532255 1188.7577639751553,312.72652103740273 1196.3354037267081,280.03580563181856 1203.9130434782608,327.9311805879489 1211.4906832298136,400.55710292177156 1219.0683229813665,458.86493929041717 1226.6459627329193,457.3574735055579 1234.223602484472,472.45462723843883 1241.8012422360248,476.07608408879526 1249.3788819875776,474.78532494342903 1256.9565217391305,451.7789849035094 1264.5341614906833,459.76168115579503 1272.1118012422362,475.7136903721592 1279.6894409937888,466.2997783243227 1287.2670807453417,428.8257748266367 1294.8447204968943,414.81073733152226 1302.4223602484471,411.83298092648755 1310.0,408.95190241264726" fill="none" stroke="#0f766e" stroke-width="2.5"><title>static_50_50_rebalance | end=2026-05-02 | return=78.48%</title></polyline>
<polyline points="90.0,682.3206938822625 97.5776397515528,683.521130164867 105.15527950310559,659.6668155640325 112.73291925465838,682.5423432529352 120.31055900621118,674.6309242310126 127.88819875776397,676.5246116049908 135.46583850931677,690.9629670324265 143.04347826086956,688.2777067963378 150.62111801242236,688.5938499229886 158.19875776397515,684.949148224944 165.77639751552795,694.4563165628997 173.35403726708074,693.578041764408 180.93167701863354,674.8654308046484 188.50931677018633,672.8002937762756 196.08695652173913,675.8200714971442 203.66459627329192,673.2446960404277 211.24223602484471,676.9173353078501 218.8198757763975,677.4344353772769 226.3975155279503,679.9089591710733 233.9751552795031,678.4717642769799 241.5527950310559,693.2628416939743 249.1304347826087,694.379040713582 256.7080745341615,695.1006865121816 264.2857142857143,695.0925766023374 271.8633540372671,693.3832071321093 279.44099378881987,695.0474959003793 287.01863354037266,690.8184385604394 294.5962732919255,689.6366604104102 302.17391304347825,696.1306301491232 309.7515527950311,684.4039865423671 317.32919254658384,666.2639958621635 324.90683229813664,659.8044022994881 332.48447204968943,646.3914578511589 340.0621118012422,651.2237601525438 347.639751552795,643.869296718502 355.2173913043478,637.21915401814 362.7950310559006,621.9741570690271 370.3726708074534,629.0003151229939 377.9503105590062,623.1563982214141 385.52795031055905,626.8218434145446 393.1055900621118,625.0391376606199 400.6832298136646,615.1558028637312 408.2608695652174,621.0476760342511 415.83850931677017,626.9606975122247 423.416149068323,624.3125135012004 430.99378881987576,608.1734658649976 438.57142857142856,591.2540379164288 446.14906832298135,584.6638896465358 453.72670807453414,552.8293760786871 461.304347826087,527.7503444880996 468.88198757763973,543.6535749873807 476.45962732919253,550.8248201006866 484.0372670807453,537.1877087750977 491.6149068322982,542.577974885578 499.19254658385097,559.5739727488531 506.7701863354037,553.9663325159189 514.3478260869565,553.5387032716462 521.9254658385094,556.7796344118414 529.5031055900622,567.7043392666841 537.0807453416149,551.6917956964248 544.6583850931677,528.9257022049868 552.2360248447205,529.5005135294438 559.8136645962733,530.734624593763 567.3913043478261,538.4296744291432 574.9689440993789,543.3174011575047 582.5465838509317,551.6699872668404 590.1242236024844,564.2234141284634 597.7018633540373,559.6275564482138 605.27950310559,537.5270504925866 612.8571428571428,544.0632977641305 620.4347826086956,565.0310594807314 628.0124223602485,573.0756645366444 635.5900621118012,575.1992105244269 643.1677018633541,563.2191807939065 650.7453416149068,579.2565232329177 658.3229813664597,594.3408035604072 665.9006211180124,580.2870439341307 673.4782608695652,568.6291509818553 681.0559006211181,562.4803567334984 688.6335403726708,577.3096961840865 696.2111801242236,573.3778895799263 703.7888198757763,558.8087072353101 711.3664596273292,566.7937638956857 718.9440993788819,562.2305228465314 726.5217391304348,527.4804701514644 734.0993788819876,502.602116197834 741.6770186335403,481.3267589455379 749.2546583850932,472.5292494718806 756.832298136646,458.1132173267812 764.4099378881988,460.26297679577124 771.9875776397515,481.2566150137035 779.5652173913043,481.94160148058495 787.1428571428571,470.25611830387663 794.72049689441,486.03933033071746 802.2981366459627,473.6075201192051 809.8757763975156,472.8014123765809 817.4534161490683,484.1507144054144 825.0310559006211,504.68776478561483 832.608695652174,501.33513105443274 840.1863354037267,500.30612451692775 847.7639751552795,531.6602211671027 855.3416149068322,531.8753267535103 862.9192546583851,543.2875566078096 870.4968944099379,542.4524771636068 878.0745341614906,549.4351826088873 885.6521739130435,549.0726281846909 893.2298136645963,552.5705180424013 900.8074534161491,553.9769140541861 908.3850931677019,533.1694045808712 915.9627329192546,531.0671644827617 923.5403726708074,489.7337734293837 931.1180124223603,496.2432755769619 938.695652173913,487.61606236806676 946.2732919254659,492.1015363187739 953.8509316770186,490.853978262092 961.4285714285714,490.83487231785784 969.0062111801243,505.23925298116205 976.583850931677,491.9225007585716 984.1614906832299,487.25974563338906 991.7391304347825,455.60551336668146 999.3167701863354,427.140323003792 1006.8944099378882,421.3886088105818 1014.472049689441,439.87856794271966 1022.0496894409938,404.36605114385475 1029.6273291925465,398.00983236253865 1037.2049689440994,389.52270135451795 1044.7826086956522,408.2751666005143 1052.3602484472049,409.60937992631756 1059.9378881987577,391.7947406594941 1067.5155279503106,397.26823894063796 1075.0931677018634,416.98595888969413 1082.6708074534163,389.42723577091624 1090.248447204969,423.1172065508735 1097.8260869565217,422.97057390790854 1105.4037267080746,416.21138317600014 1112.9813664596272,420.4134961649948 1120.55900621118,443.04480611688655 1128.136645962733,457.64412911165766 1135.7142857142856,482.0303351624945 1143.2919254658384,468.17301117074965 1150.8695652173913,468.4758894933391 1158.447204968944,464.94290566984665 1166.024844720497,471.60934163975844 1173.6024844720498,473.18645098444654 1181.1801242236024,464.0310385455886 1188.7577639751553,465.6962159272751 1196.3354037267081,452.3841533075577 1203.9130434782608,471.8891585745057 1211.4906832298136,501.80467446606946 1219.0683229813665,526.1163622182838 1226.6459627329193,525.4470114187283 1234.223602484472,531.7699595780384 1241.8012422360248,533.3633884946418 1249.3788819875776,532.798289795797 1256.9565217391305,522.792263096944 1264.5341614906833,526.3953177487606 1272.1118012422362,533.4134182420471 1279.6894409937888,529.3036967919081 1287.2670807453417,512.6138531378582 1294.8447204968943,506.2797239309125 1302.4223602484471,504.7784014543472 1310.0,503.4083891040667" fill="none" stroke="#dc2626" stroke-width="2.5"><title>target_50_50_with_cash_band | end=2026-05-02 | return=51.37%</title></polyline>
<polyline points="90.0,682.3206938822625 97.5776397515528,683.521130164867 105.15527950310559,659.3624504894327 112.73291925465838,683.0648774508185 120.31055900621118,674.8102361450643 127.88819875776397,676.7651437141083 135.46583850931677,691.5766546747539 143.04347826086956,688.8341579973875 150.62111801242236,689.2651814560646 158.19875776397515,684.8247634604464 165.77639751552795,698.0876800602357 173.35403726708074,696.7902631421257 180.93167701863354,670.6415701383623 188.50931677018633,667.602205831146 196.08695652173913,672.3077853149043 203.66459627329192,668.2443793544714 211.24223602484471,674.1942968128634 218.8198757763975,675.0517269154184 226.3975155279503,679.0864994793899 233.9751552795031,676.7442743106626 241.5527950310559,700.8665464623625 249.1304347826087,702.6736141749616 256.7080745341615,703.8356845833245 264.2857142857143,703.822383665596 271.8633540372671,701.098731695618 279.44099378881987,703.7278579105722 287.01863354037266,697.0802111947651 294.5962732919255,695.2202635873384 302.17391304347825,705.3287527852245 309.7515527950311,687.1533764815458 317.32919254658384,660.3229317884193 324.90683229813664,650.9419307956241 332.48447204968943,630.0097662169029 340.0621118012422,637.9335182846801 347.639751552795,625.7182053967433 355.2173913043478,614.5245368180382 362.7950310559006,588.52186535343 370.3726708074534,600.7458888207115 377.9503105590062,590.564851661522 385.52795031055905,596.9932551051922 393.1055900621118,593.877098441073 400.6832298136646,576.6463484917448 408.2608695652174,587.0401028457183 415.83850931677017,597.5626546278364 423.416149068323,592.9333012642045 430.99378881987576,564.6956982175051 438.57142857142856,534.6725087089446 446.14906832298135,522.7427886769627 453.72670807453414,464.27329148146305 461.304347826087,416.78605728602844 468.88198757763973,447.83885529416096 476.45962732919253,461.8359060720616 484.0372670807453,435.34230652137535 491.6149068322982,445.8505590833943 499.19254658385097,478.89727224422086 506.7701863354037,468.0774191890788 514.3478260869565,467.3144855533555 521.9254658385094,473.46520938811636 529.5031055900622,494.26031733618436 537.0807453416149,463.88340256645745 544.6583850931677,421.1557201801294 552.2360248447205,422.2927987604503 559.8136645962733,424.7279044018416 567.3913043478261,439.8933527593809 574.9689440993789,449.4753973520983 582.5465838509317,465.75654174430804 590.1242236024844,490.08319583325994 597.7018633540373,481.2284143038909 605.27950310559,438.86754069751026 612.8571428571428,451.495185292916 620.4347826086956,491.9036828428078 628.0124223602485,507.275487692784 635.5900621118012,511.3342015326093 643.1677018633541,488.62894825797747 650.7453416149068,518.146583485705 658.3229813664597,545.7578181681351 665.9006211180124,520.3319877233791 673.4782608695652,499.2103902779329 681.0559006211181,488.1958051126936 688.6335403726708,514.2933935660071 696.2111801242236,507.4404410088324 703.7888198757763,482.3926201550305 711.3664596273292,496.2021459012413 718.9440993788819,489.1060711804355 726.5217391304348,431.3923474023671 734.0993788819876,394.648004787516 741.6770186335403,359.71998467982723 749.2546583850932,344.092784893704 756.832298136646,317.45244244569795 764.4099378881988,321.70614978673075 771.9875776397515,363.3720627870388 779.5652173913043,364.71462471150625 787.1428571428571,341.7518489784077 794.72049689441,373.0073413654784 802.2981366459627,348.4036110192817 809.8757763975156,346.82069972868567 817.4534161490683,369.0051256752847 825.0310559006211,408.89092892300073 832.608695652174,402.56182319160655 840.1863354037267,400.3867420680968 847.7639751552795,457.5268865052121 855.3416149068322,457.9819851905762 862.9192546583851,478.9373859044145 870.4968944099379,477.2344876188738 878.0745341614906,489.8238369002863 885.6521739130435,489.40040129117983 893.2298136645963,496.26435929374475 900.8074534161491,498.7615001984335 908.3850931677019,463.76172877918896 915.9627329192546,460.43730930573963 923.5403726708074,390.9682042734572 931.1180124223603,401.7030250384318 938.695652173913,388.75632118994224 946.2732919254659,394.9964362447495 953.8509316770186,393.3272154722535 961.4285714285714,393.2125686940286 969.0062111801243,416.31636435862384 976.583850931677,396.2734705729068 984.1614906832299,388.8014857607763 991.7391304347825,340.22886005939876 999.3167701863354,292.05703882387775 1006.8944099378882,281.4771285903864 1014.472049689441,315.88626780207454 1022.0496894409938,248.5763165085565 1029.6273291925465,236.12278968182972 1037.2049689440994,218.2702310158581 1044.7826086956522,255.1244475324513 1052.3602484472049,258.28236080185525 1059.9378881987577,223.63320208663475 1067.5155279503106,234.81776989190632 1075.0931677018634,273.6904358528087 1082.6708074534163,220.68456744858133 1090.248447204969,287.40423827276106 1097.8260869565217,286.4757683192517 1105.4037267080746,273.5919725446352 1112.9813664596272,281.7684305946581 1120.55900621118,325.7636390204915 1128.136645962733,353.69995041484873 1135.7142857142856,400.184657001017 1143.2919254658384,373.92198969562213 1150.8695652173913,374.2518741548345 1158.447204968944,367.53057680125056 1166.024844720497,380.1363408916133 1173.6024844720498,383.0930569271409 1181.1801242236024,365.9844528351911 1188.7577639751553,369.1291858834502 1196.3354037267081,344.6034713772855 1203.9130434782608,380.5222740072961 1211.4906832298136,435.1529460913578 1219.0683229813665,479.1550331356308 1226.6459627329193,477.99518792237876 1234.223602484472,489.3903958570054 1241.8012422360248,492.1654122033997 1249.3788819875776,491.178529573613 1256.9565217391305,473.6366452437055 1264.5341614906833,479.79444695194195 1272.1118012422362,491.98899239268724 1279.6894409937888,484.8151923194763 1287.2670807453417,456.08652648632864 1294.8447204968943,445.2950700404659 1302.4223602484471,442.91405035952454 1310.0,440.658828106615" fill="none" stroke="#2563eb" stroke-width="2.5"><title>narrow_cash_band_rebalance | end=2026-05-02 | return=69.38%</title></polyline>
<polyline points="90.0,682.3206938822625 97.5776397515528,683.3842603483617 105.15527950310559,658.8189330045162 112.73291925465838,682.8672982035599 120.31055900621118,673.9357875502644 127.88819875776397,676.1012257559962 135.46583850931677,692.0045096479025 143.04347826086956,689.1176829467017 150.62111801242236,689.5799674060715 158.19875776397515,685.1572215840841 165.77639751552795,697.9813426568055 173.35403726708074,696.6453687357734 180.93167701863354,671.0893034199547 188.50931677018633,668.1957571813228 196.08695652173913,672.5977285032174 203.66459627329192,668.720574542095 211.24223602484471,674.2508559855783 218.8198757763975,674.9052862962218 226.3975155279503,678.6815081286352 233.9751552795031,676.5561192425102 241.5527950310559,698.6728221506214 249.1304347826087,700.3971852802647 256.7080745341615,701.4707770940115 264.2857142857143,701.470232935806 271.8633540372671,699.0931979072344 279.44099378881987,701.661069680908 287.01863354037266,695.3350103848612 294.5962732919255,693.9410240570405 302.17391304347825,703.339450152967 309.7515527950311,686.8720590630032 317.32919254658384,661.8682811486631 324.90683229813664,652.8685506430506 332.48447204968943,632.9174301898753 340.0621118012422,640.421269307016 347.639751552795,629.0313078512033 355.2173913043478,618.7857118627397 362.7950310559006,595.0773075285554 370.3726708074534,606.2142420605672 377.9503105590062,596.9507719422834 385.52795031055905,602.7516826044443 393.1055900621118,599.9517393602829 400.6832298136646,584.167146713183 408.2608695652174,593.3441566659122 415.83850931677017,602.4346419046469 423.416149068323,598.3526694422087 430.99378881987576,573.5827543087079 438.57142857142856,547.315660837955 446.14906832298135,536.7423842841337 453.72670807453414,484.8845260651101 461.304347826087,442.8906824543842 468.88198757763973,470.218650699 476.45962732919253,482.57098001851455 484.0372670807453,459.3045982993542 491.6149068322982,468.5348650395237 499.19254658385097,497.2254987665209 506.7701863354037,487.7362944398963 514.3478260869565,486.8499691084647 521.9254658385094,492.38887382287385 529.5031055900622,510.49506738965636 537.0807453416149,484.2412663363991 544.6583850931677,446.4471768289457 552.2360248447205,447.26192477781876 559.8136645962733,449.51870116609643 567.3913043478261,462.6981777015093 574.9689440993789,471.0684393004246 582.5465838509317,485.319478652473 590.1242236024844,506.9132329293318 597.7018633540373,499.0500248352631 605.27950310559,461.8020098048424 612.8571428571428,473.4046864263438 620.4347826086956,508.9159441302867 628.0124223602485,522.9487149646944 635.5900621118012,526.3979122908056 643.1677018633541,506.51272194253494 650.7453416149068,533.1629475790048 658.3229813664597,558.111457506769 665.9006211180124,535.1949663132964 673.4782608695652,516.0673295469205 681.0559006211181,506.1258399120201 688.6335403726708,530.0989344233644 696.2111801242236,523.8427204749504 703.7888198757763,501.17018020776317 711.3664596273292,513.7749167371487 718.9440993788819,507.4123281204695 726.5217391304348,455.2871807570554 734.0993788819876,424.00786457632046 741.6770186335403,394.14987134914395 749.2546583850932,379.3435994298334 756.832298136646,355.83293351153594 764.4099378881988,359.98181030020237 771.9875776397515,397.02084633862114 779.5652173913043,397.81240837189785 787.1428571428571,377.5388597326158 794.72049689441,405.25427282119256 802.2981366459627,384.60084432037326 809.8757763975156,383.2241797609884 817.4534161490683,402.45529132225494 825.0310559006211,437.68469476989134 832.608695652174,432.07029951544416 840.1863354037267,430.04319151594296 847.7639751552795,481.9728010233409 855.3416149068322,482.385658681411 862.9192546583851,501.51702239875897 870.4968944099379,499.98622532680076 878.0745341614906,511.53127122825526 885.6521739130435,511.10602908901205 893.2298136645963,517.3574750683649 900.8074534161491,519.6207252037602 908.3850931677019,489.4312285900728 915.9627329192546,486.595645634317 923.5403726708074,424.3417160956838 931.1180124223603,433.9076451862835 938.695652173913,422.8906126910028 946.2732919254659,428.0704220112856 953.8509316770186,426.6978455463356 961.4285714285714,426.5690145451883 969.0062111801243,447.3602055467906 976.583850931677,429.7209169480255 984.1614906832299,422.998682398631 991.7391304347825,379.8867119396325 999.3167701863354,335.55342409885964 1006.8944099378882,325.75188264590986 1014.472049689441,356.38481287368325 1022.0496894409938,295.32060949395463 1029.6273291925465,284.45346624088484 1037.2049689440994,268.60867846204945 1044.7826086956522,299.67074884043564 1052.3602484472049,302.38338393424516 1059.9378881987577,273.06529662401766 1067.5155279503106,282.5261307604192 1075.0931677018634,315.4130931528394 1082.6708074534163,270.6600303617479 1090.248447204969,327.15616554851465 1097.8260869565217,326.2643471651683 1105.4037267080746,315.39882334885647 1112.9813664596272,322.33402049713743 1120.55900621118,359.7055473339105 1128.136645962733,383.40557982022267 1135.7142857142856,422.8875306336172 1143.2919254658384,400.55849205381827 1150.8695652173913,400.7970298055944 1158.447204968944,395.05504824413373 1166.024844720497,405.8315743259008 1173.6024844720498,408.35978226520456 1181.1801242236024,393.7115707525595 1188.7577639751553,396.4149972011403 1196.3354037267081,375.4006453351578 1203.9130434782608,406.22725063902647 1211.4906832298136,453.11765198122066 1219.0683229813665,490.894755359252 1226.6459627329193,489.90646036686877 1234.223602484472,499.7297456115785 1241.8012422360248,502.1085363131159 1249.3788819875776,501.2598331912175 1256.9565217391305,486.12035449327 1264.5341614906833,491.41161815212087 1272.1118012422362,501.9632527586047 1279.6894409937888,495.7318238399042 1287.2670807453417,470.8115603250846 1294.8447204968943,461.45720620495695 1302.4223602484471,459.4342476844554 1310.0,457.4914654736478" fill="none" stroke="#7c3aed" stroke-width="2.5"><title>drawdown_tilt_rebalance | end=2026-05-02 | return=64.55%</title></polyline>
<polyline points="90.0,682.3206938822625 97.5776397515528,683.521130164867 105.15527950310559,658.0566192850916 112.73291925465838,683.1407330325529 120.31055900621118,673.5976810388012 127.88819875776397,675.957362484226 135.46583850931677,693.2360921707959 143.04347826086956,690.1151612826034 150.62111801242236,690.8635699211309 158.19875776397515,686.1522981369432 165.77639751552795,701.0966692197591 173.35403726708074,699.3415269649859 180.93167701863354,670.3494705725006 188.50931677018633,667.2730585773305 196.08695652173913,672.2922736600337 203.66459627329192,668.217294996672 211.24223602484471,674.8121781342833 218.8198757763975,676.2198305668409 226.3975155279503,680.6973904357003 233.9751552795031,677.8495565534841 241.5527950310559,706.7744326793257 249.1304347826087,708.6719319773886 256.7080745341615,710.0 264.2857142857143,709.9388175058828 271.8633540372671,706.2978182830471 279.44099378881987,708.6806260919813 287.01863354037266,701.9883900023169 294.5962732919255,698.5895576088737 302.17391304347825,709.4773925885387 309.7515527950311,688.3440532711061 317.32919254658384,656.6840786076764 324.90683229813664,646.2001554143766 332.48447204968943,622.616969863237 340.0621118012422,631.30536322552 347.639751552795,616.9447491524869 355.2173913043478,602.4076084380124 362.7950310559006,567.5276781916723 370.3726708074534,583.096872225376 377.9503105590062,569.5842805733429 385.52795031055905,579.3984033471727 393.1055900621118,572.5990719379417 400.6832298136646,556.3426513306729 408.2608695652174,569.579019091109 415.83850931677017,580.9927872572706 423.416149068323,574.86261124282 430.99378881987576,538.0716350360266 438.57142857142856,499.94833439636307 446.14906832298135,486.7451331557384 453.72670807453414,408.68379960419026 461.304347826087,346.73922321516926 468.88198757763973,387.46265002138256 476.45962732919253,405.7407849087449 484.0372670807453,369.58725607681487 491.6149068322982,382.7755468922119 499.19254658385097,426.5042013010828 506.7701863354037,412.78147006864185 514.3478260869565,413.2444259251583 521.9254658385094,419.9988749264912 529.5031055900622,447.2292460255388 537.0807453416149,405.9858348678333 544.6583850931677,353.8504369970724 552.2360248447205,356.8033744371068 559.8136645962733,357.9288219996769 567.3913043478261,379.10746621402853 574.9689440993789,392.23920006275523 582.5465838509317,414.32382979209535 590.1242236024844,443.9209163433353 597.7018633540373,433.4484466669257 605.27950310559,383.86876384706966 612.8571428571428,397.83043798483993 620.4347826086956,445.5921070587376 628.0124223602485,462.4979036416329 635.5900621118012,467.5245949514391 643.1677018633541,440.6820893124944 650.7453416149068,475.9959953252507 658.3229813664597,508.9771294221733 665.9006211180124,477.87851519366524 673.4782608695652,452.85297915179734 681.0559006211181,439.41619835200873 688.6335403726708,470.72129297680345 696.2111801242236,462.4126893860081 703.7888198757763,431.3630846012138 711.3664596273292,447.6442005386921 718.9440993788819,437.68287353423807 726.5217391304348,366.90565691533567 734.0993788819876,312.4752592400914 741.6770186335403,266.9415377572975 749.2546583850932,251.16132135024367 756.832298136646,217.64685960465988 764.4099378881988,220.7988247001843 771.9875776397515,273.65612306943046 779.5652173913043,277.75400393724067 787.1428571428571,247.70483856443303 794.72049689441,288.1462479561902 802.2981366459627,247.35390622164243 809.8757763975156,245.1830462610522 817.4534161490683,275.3107192505348 825.0310559006211,325.54320949059223 832.608695652174,316.9438427574745 840.1863354037267,315.77770951093544 847.7639751552795,394.9611341883443 855.3416149068322,395.22709164466244 862.9192546583851,421.5388881648953 870.4968944099379,420.2689235505569 878.0745341614906,435.95291652512515 885.6521739130435,434.5933326100293 893.2298136645963,440.7674559259638 900.8074534161491,443.7481233664176 908.3850931677019,397.2117375791956 915.9627329192546,392.43035412985364 923.5403726708074,305.57511835133647 931.1180124223603,319.3094986037152 938.695652173913,300.03410418476085 946.2732919254659,310.37586342725535 953.8509316770186,307.46090831250876 961.4285714285714,307.4985564210693 969.0062111801243,337.07327734285036 976.583850931677,308.79053946871676 984.1614906832299,299.3865892600611 991.7391304347825,234.20829193047314 999.3167701863354,179.80684814914628 1006.8944099378882,167.4562740149653 1014.472049689441,213.09544894063237 1022.0496894409938,129.14675540879227 1029.6273291925465,112.70015937885489 1037.2049689440994,90.0 1044.7826086956522,143.93793819154143 1052.3602484472049,147.97013569045805 1059.9378881987577,96.84057240705033 1067.5155279503106,113.14557800933528 1075.0931677018634,171.23278007753663 1082.6708074534163,91.0693572146804 1090.248447204969,190.80664960682338 1097.8260869565217,190.30373924019568 1105.4037267080746,171.90832043702517 1112.9813664596272,183.6409202743181 1120.55900621118,244.5301114038121 1128.136645962733,282.16386072323576 1135.7142857142856,343.62389974311276 1143.2919254658384,308.9944959953491 1150.8695652173913,310.0325433436648 1158.447204968944,301.5865662470756 1166.024844720497,317.2732498386455 1173.6024844720498,320.97395128742926 1181.1801242236024,299.7018041916279 1188.7577639751553,303.4101727019401 1196.3354037267081,272.9416367443561 1203.9130434782608,316.58033201907057 1211.4906832298136,383.6922006806218 1219.0683229813665,438.3261850153067 1226.6459627329193,436.70711622886296 1234.223602484472,450.4680374230212 1241.8012422360248,454.14844222565364 1249.3788819875776,452.87679579340613 1256.9565217391305,431.0301002118667 1264.5341614906833,439.2615786321088 1272.1118012422362,454.3267923020261 1279.6894409937888,445.8088564127426 1287.2670807453417,410.5513468178271 1294.8447204968943,397.02356130423937 1302.4223602484471,393.2247523220252 1310.0,390.1072866304089" fill="none" stroke="#b45309" stroke-width="2.5"><title>btc_defensive_eth_aggressive | end=2026-05-02 | return=83.89%</title></polyline>
</svg>