<svg xmlns="http://www.w3.org/2000/svg" width="1400" height="800">
<rect width="1400" height="800" fill="#f8fafc"/>
<text x="700.0" y="42" text-anchor="middle" font-family="monospace" font-size="24" fill="#0f172a">Portfolio Value Over Time | start=2025-04-01 | interval=5d</text>
<line x1="90" y1="710" x2="1310" y2="710" stroke="#334155" stroke-width="2"/>
<line x1="90" y1="90" x2="90" y2="710" stroke="#334155" stroke-width="2"/>
<line x1="90.0" y1="710" x2="90.0" y2="90" stroke="#cbd5e1" stroke-width="1"/>
<text x="90.0" y="734" text-anchor="middle" font-family="monospace" font-size="11" fill="#475569">2025-04-01</text>
<line x1="90" y1="710.0" x2="1310" y2="710.0" stroke="#cbd5e1" stroke-width="1"/>
<text x="78" y="714.0" text-anchor="end" font-family="monospace" font-size="12" fill="#475569">7107</text>
<line x1="334.0" y1="710" x2="334.0" y2="90" stroke="#cbd5e1" stroke-width="1"/>
<text x="334.0" y="734" text-anchor="middle" font-family="monospace" font-size="11" fill="#475569">2025-06-20</text>
<line x1="90" y1="586.0" x2="1310" y2="586.0" stroke="#cbd5e1" stroke-width="1"/>
<text x="78" y="590.0" text-anchor="end" font-family="monospace" font-size="12" fill="#475569">8886</text>
<line x1="578.0" y1="710" x2="578.0" y2="90" stroke="#cbd5e1" stroke-width="1"/>
<text x="578.0" y="734" text-anchor="middle" font-family="monospace" font-size="11" fill="#475569">2025-09-08</text>
<line x1="90" y1="462.0" x2="1310" y2="462.0" stroke="#cbd5e1" stroke-width="1"/>
<text x="78" y="466.0" text-anchor="end" font-family="monospace" font-size="12" fill="#475569">10666</text>
<line x1="822.0" y1="710" x2="822.0" y2="90" stroke="#cbd5e1" stroke-width="1"/>
<text x="822.0" y="734" text-anchor="middle" font-family="monospace" font-size="11" fill="#475569">2025-11-27</text>
<line x1="90" y1="338.0" x2="1310" y2="338.0" stroke="#cbd5e1" stroke-width="1"/>
<text x="78" y="342.0" text-anchor="end" font-family="monospace" font-size="12" fill="#475569">12446</text>
<line x1="1066.0" y1="710" x2="1066.0" y2="90" stroke="#cbd5e1" stroke-width="1"/>
<text x="1066.0" y="734" text-anchor="middle" font-family="monospace" font-size="11" fill="#475569">2026-02-15</text>
<line x1="90" y1="214.0000000000001" x2="1310" y2="214.0000000000001" stroke="#cbd5e1" stroke-width="1"/>
<text x="78" y="218.0000000000001" text-anchor="end" font-family="monospace" font-size="12" fill="#475569">14225</text>
<line x1="1310.0" y1="710" x2="1310.0" y2="90" stroke="#cbd5e1" stroke-width="1"/>
<text x="1310.0" y="734" text-anchor="middle" font-family="monospace" font-size="11" fill="#475569">2026-05-06</text>
<line x1="90" y1="90.0" x2="1310" y2="90.0" stroke="#cbd5e1" stroke-width="1"/>
<text x="78" y="94.0" text-anchor="end" font-family="monospace" font-size="12" fill="#475569">16005</text>
<text x="700.0" y="782" text-anchor="middle" font-family="monospace" font-size="16" fill="#0f172a">time</text>
<text x="24" y="400.0" transform="rotate(-90 24,400.0)" text-anchor="middle" font-family="monospace" font-size="16" fill="#0f172a">portfolio_value_usd</text>
<line x1="970" y1="80" x2="988" y2="80" stroke="#0f766e" stroke-width="3"/>
<text x="998" y="84" font-family="monospace" font-size="12" fill="#0f172a">budgeted_static_50_50_rebalance</text>
<line x1="970" y1="104" x2="988" y2="104" stroke="#9333ea" stroke-width="3"/>
<text x="998" y="108" font-family="monospace" font-size="12" fill="#0f172a">budgeted_drawdown_tilt_rebalance</text>
<line x1="970" y1="128" x2="988" y2="128" stroke="#92400e" stroke-width="3"/>
<text x="998" y="132" font-family="monospace" font-size="12" fill="#0f172a">budgeted_btc_defensive_eth_aggressive</text>
<polyline points="90.0,508.3959525502688 105.25,510.4914070540186 120.5,509.59718065837205 135.75,509.2320512544617 151.0,507.7721704450401 166.25,497.9986222463996 181.5,496.38487379571325 196.75,496.92895697900576 212.0,463.91354912342615 227.25,463.45882776816575 242.5,457.10929678630157 257.75,456.7241766930438 273.0,463.74302281071544 288.25,473.656812190135 303.5,439.07504689544214 318.75,461.9593153218864 334.0,474.3640602489219 349.25,467.46016250778416 364.5,463.02586719347835 379.75,458.93733006139746 395.0,411.2902072159413 410.25,392.8654843253792 425.5,341.2071533197239 440.75,343.43705914239007 456.0,335.50648148835495 471.25,349.4155141196125 486.5,296.8877741168977 501.75,266.4613973940354 517.0,322.42131098477427 532.25,258.5588810231443 547.5,309.2291554628084 562.75,291.3394525217244 578.0,302.8604130628389 593.25,259.6691395274985 608.5,262.6909798700305 623.75,314.69970668704275 639.0,315.97969408271445 654.25,251.79342126182257 669.5,247.55235940614278 684.75,297.1930134396339 700.0,352.9895163658754 715.25,346.5153090437694 730.5,326.98918872045334 745.75,341.0103907170066 761.0,405.54154134801666 776.25,412.49405674540344 791.5,477.8745549284467 806.75,525.5911914818917 822.0,480.8391457689104 837.25,482.6114384755265 852.5,479.2983360693394 867.75,477.3995476494256 883.0,514.6415911001238 898.25,490.15996782410946 913.5,498.45659580661027 928.75,490.28075794490894 944.0,445.85933449155675 959.25,471.95046946487116 974.5,440.21457836180963 989.75,489.9179119970697 1005.0,498.5367874385498 1020.25,575.2507038367148 1035.5,688.4590808064104 1050.75,649.4029891780282 1066.0,655.0442860480707 1081.25,657.3611225436136 1096.5,648.4260910612772 1111.75,648.7371750326045 1127.0,659.5405252648688 1142.25,638.6563645584848 1157.5,603.4660852306639 1172.75,649.3200007368158 1188.0,660.2677749192354 1203.25,639.8375260830558 1218.5,640.7219754606978 1233.75,609.3946826698998 1249.0,596.4799901157659 1264.25,594.7242198242784 1279.5,583.0415036253244 1294.75,591.9004319878085 1310.0,576.2019343903862" fill="none" stroke="#0f766e" stroke-width="2.5"><title>budgeted_static_50_50_rebalance | end=2026-05-06 | return=-9.73%</title></polyline>
<polyline points="90.0,508.3959525502688 105.25,512.3025593138449 120.5,511.4604481038675 135.75,510.8694165532308 151.0,509.2692097052827 166.25,491.32868458060176 181.5,488.9972081979204 196.75,490.5183981630454 212.0,421.48838065776266 227.25,419.78584895710185 242.5,412.645532188973 257.75,411.5113342602969 273.0,420.60847920609865 288.25,437.78022360590427 303.5,376.6244182277167 318.75,417.87918944448006 334.0,440.25704015672915 349.25,432.5942328430899 364.5,423.0649328687388 379.75,416.59462652083664 395.0,333.8704147878097 410.25,300.55062335513884 425.5,202.66667002656277 440.75,206.92799428584948 456.0,194.68562593431386 471.25,211.89562395042975 486.5,141.07985086658528 501.75,103.28533631481866 517.0,167.26414263989045 532.25,90.0 547.5,142.74169536000386 562.75,127.1883369138535 578.0,140.4280376058041 593.25,99.53714661278252 608.5,104.39421861393168 623.75,150.9459284018909 639.0,152.4762098477729 654.25,101.34706598274511 669.5,98.4150495766288 684.75,137.4119125596078 700.0,182.15388458868438 715.25,179.0814899505748 730.5,162.94007834561933 745.75,174.3901431420793 761.0,232.07255615337493 776.25,237.57304765277456 791.5,297.0954954600303 806.75,341.2893823847507 822.0,298.44075952670585 837.25,300.4469451606588 852.5,295.67139833407407 867.75,293.2250775440489 883.0,336.0554971034765 898.25,306.71346906776915 913.5,317.0496573526269 928.75,306.74100115728794 944.0,249.05445907548983 959.25,283.8118386694209 974.5,242.04994488929447 989.75,308.75503636305905 1005.0,320.3599532443356 1020.25,424.2935894254324 1035.5,576.106528335628 1050.75,522.7165598370268 1066.0,531.4275112771085 1081.25,534.232447733922 1096.5,519.1802844157121 1111.75,520.8815613168731 1127.0,537.3026220490028 1142.25,505.5361723070313 1157.5,447.9906801133874 1172.75,520.7672428505684 1188.0,538.1075758969575 1203.25,504.1391871553968 1218.5,506.8307342173907 1233.75,456.80451112849386 1249.0,436.64657388202687 1264.25,435.23584383484155 1279.5,417.6493564242483 1294.75,432.9736919151396 1310.0,409.2010775337114" fill="none" stroke="#9333ea" stroke-width="2.5"><title>budgeted_drawdown_tilt_rebalance | end=2026-05-06 | return=14.24%</title></polyline>
<polyline points="90.0,508.3959525502688 105.25,511.3110103133199 120.5,509.62216981474074 135.75,509.0653320002644 151.0,506.4653460432399 166.25,492.59297891785025 181.5,490.19545093524596 196.75,490.65125738205643 212.0,455.1660625572983 227.25,454.984233706429 242.5,446.4572936917707 257.75,446.20909171814293 273.0,454.68165502368197 288.25,464.8317910785444 303.5,430.74686605549095 318.75,452.63770304924293 334.0,464.26167862209024 349.25,456.31985010264236 364.5,452.81983718545166 379.75,448.8830509708948 395.0,406.02729956680497 410.25,390.2562085966251 425.5,349.39125127804766 440.75,350.9701412056444 456.0,344.55184778268466 471.25,357.2667676158155 486.5,313.82450042713174 501.75,287.5901203293591 517.0,337.4176672222473 532.25,280.63207995483793 547.5,326.94356706529516 562.75,310.76533745894494 578.0,322.04776630430223 593.25,281.0478225993826 608.5,284.53352114328294 623.75,335.10366995522907 639.0,336.46213549214 654.25,273.53322428258787 669.5,269.36137604992507 684.75,319.52209355474656 700.0,376.47897889510045 715.25,370.15605240911526 730.5,349.9465377424326 745.75,364.4059122597406 761.0,431.3484956148114 776.25,438.4263585147241 791.5,504.69504693214026 806.75,552.4334603204409 822.0,508.4073093070761 837.25,510.11819316909 852.5,507.0520850634256 867.75,505.2329699359006 883.0,541.6497385607303 898.25,517.8897069617178 913.5,525.944405151797 928.75,517.9843837493172 944.0,474.7016667089362 959.25,500.20778802563797 974.5,469.07412492153753 989.75,517.9152396885916 1005.0,526.3628340973685 1020.25,601.2991575796245 1035.5,710.0 1050.75,672.3900808879064 1066.0,677.6503748429925 1081.25,679.9737938141217 1096.5,671.6442470772897 1111.75,671.7637250643804 1127.0,682.1523055343681 1142.25,662.0227595569628 1157.5,628.5327121419449 1172.75,672.5074187061102 1188.0,683.0142007336221 1203.25,663.614996166633 1218.5,664.2887955474516 1233.75,634.2306935990499 1249.0,621.7717389378793 1264.25,619.8945069739134 1279.5,608.5289343345402 1294.75,616.8792554243155 1310.0,601.533442722137" fill="none" stroke="#92400e" stroke-width="2.5"><title>budgeted_btc_defensive_eth_aggressive | end=2026-05-06 | return=-13.37%</title></polyline>
</svg>