<svg xmlns="http://www.w3.org/2000/svg" width="1400" height="800">
<rect width="1400" height="800" fill="#f8fafc"/>
<text x="700.0" y="42" text-anchor="middle" font-family="monospace" font-size="24" fill="#0f172a">Portfolio Value Over Time | start=2026-01-01 | interval=1d</text>
<line x1="90" y1="710" x2="1310" y2="710" stroke="#334155" stroke-width="2"/>
<line x1="90" y1="90" x2="90" y2="710" stroke="#334155" stroke-width="2"/>
<line x1="90.0" y1="710" x2="90.0" y2="90" stroke="#cbd5e1" stroke-width="1"/>
<text x="90.0" y="734" text-anchor="middle" font-family="monospace" font-size="11" fill="#475569">2026-01-01</text>
<line x1="90" y1="710.0" x2="1310" y2="710.0" stroke="#cbd5e1" stroke-width="1"/>
<text x="78" y="714.0" text-anchor="end" font-family="monospace" font-size="12" fill="#475569">6689</text>
<line x1="334.0" y1="710" x2="334.0" y2="90" stroke="#cbd5e1" stroke-width="1"/>
<text x="334.0" y="734" text-anchor="middle" font-family="monospace" font-size="11" fill="#475569">2026-01-27</text>
<line x1="90" y1="586.0" x2="1310" y2="586.0" stroke="#cbd5e1" stroke-width="1"/>
<text x="78" y="590.0" text-anchor="end" font-family="monospace" font-size="12" fill="#475569">7410</text>
<line x1="578.0" y1="710" x2="578.0" y2="90" stroke="#cbd5e1" stroke-width="1"/>
<text x="578.0" y="734" text-anchor="middle" font-family="monospace" font-size="11" fill="#475569">2026-02-21</text>
<line x1="90" y1="461.99999999999994" x2="1310" y2="461.99999999999994" stroke="#cbd5e1" stroke-width="1"/>
<text x="78" y="465.99999999999994" text-anchor="end" font-family="monospace" font-size="12" fill="#475569">8132</text>
<line x1="822.0" y1="710" x2="822.0" y2="90" stroke="#cbd5e1" stroke-width="1"/>
<text x="822.0" y="734" text-anchor="middle" font-family="monospace" font-size="11" fill="#475569">2026-03-19</text>
<line x1="90" y1="338.0000000000002" x2="1310" y2="338.0000000000002" stroke="#cbd5e1" stroke-width="1"/>
<text x="78" y="342.0000000000002" text-anchor="end" font-family="monospace" font-size="12" fill="#475569">8853</text>
<line x1="1066.0" y1="710" x2="1066.0" y2="90" stroke="#cbd5e1" stroke-width="1"/>
<text x="1066.0" y="734" text-anchor="middle" font-family="monospace" font-size="11" fill="#475569">2026-04-13</text>
<line x1="90" y1="214.0000000000001" x2="1310" y2="214.0000000000001" stroke="#cbd5e1" stroke-width="1"/>
<text x="78" y="218.0000000000001" text-anchor="end" font-family="monospace" font-size="12" fill="#475569">9575</text>
<line x1="1310.0" y1="710" x2="1310.0" y2="90" stroke="#cbd5e1" stroke-width="1"/>
<text x="1310.0" y="734" text-anchor="middle" font-family="monospace" font-size="11" fill="#475569">2026-05-09</text>
<line x1="90" y1="90.0" x2="1310" y2="90.0" stroke="#cbd5e1" stroke-width="1"/>
<text x="78" y="94.0" text-anchor="end" font-family="monospace" font-size="12" fill="#475569">10296</text>
<text x="700.0" y="782" text-anchor="middle" font-family="monospace" font-size="16" fill="#0f172a">time</text>
<text x="24" y="400.0" transform="rotate(-90 24,400.0)" text-anchor="middle" font-family="monospace" font-size="16" fill="#0f172a">portfolio_value_usd</text>
<line x1="970" y1="80" x2="988" y2="80" stroke="#0f766e" stroke-width="3"/>
<text x="998" y="84" font-family="monospace" font-size="12" fill="#0f172a">budgeted_static_50_50_rebalance</text>
<line x1="970" y1="104" x2="988" y2="104" stroke="#9333ea" stroke-width="3"/>
<text x="998" y="108" font-family="monospace" font-size="12" fill="#0f172a">budgeted_drawdown_tilt_rebalance</text>
<line x1="970" y1="128" x2="988" y2="128" stroke="#92400e" stroke-width="3"/>
<text x="998" y="132" font-family="monospace" font-size="12" fill="#0f172a">budgeted_btc_defensive_eth_aggressive</text>
<polyline points="90.0,140.87318586299705 99.53125,139.73154143807335 109.0625,139.43346004105888 118.59375,138.46026052479874 128.125,134.101030373929 137.65625,131.94356557736114 147.1875,140.357823393442 156.71875,143.56863396196638 166.25,145.53980264279664 175.78125,145.9177280711059 185.3125,142.42970221551207 194.84375,143.57754824687345 204.375,113.86844093732736 213.90625,106.57882282977982 223.4375,114.25003005850033 232.96875,116.7877511397835 242.5,116.69519120045823 252.03125,125.24762788424823 261.5625,140.6271884383683 271.09375,189.48907625438244 280.625,179.1796413072243 290.15625,182.84973474858032 299.6875,182.30274945678832 309.21875,184.92031195140896 318.75,219.75906628299117 328.28125,191.65626695084654 337.8125,170.19826390505523 347.34375,172.7395310002479 356.875,237.1877005215669 366.40625,262.0731378243926 375.9375,350.2079214526502 385.46875,400.53574982731294 395.0,370.7072039681298 404.53125,419.7556404901583 414.0625,461.14376480729754 423.59375,616.6384506358419 433.125,499.7786417944876 442.65625,503.5008608063539 452.1875,495.15512016695243 461.71875,492.7101373141044 471.25,522.6391723509615 480.78125,556.2213186631146 490.3125,560.741294552704 499.84375,516.2534952286584 509.375,499.60517344007644 518.90625,536.5526376168889 528.4375,528.2227688315752 537.96875,540.2871164191897 547.5,556.9622027769374 557.03125,554.4792459681125 566.5625,541.956606312435 576.09375,540.977480419341 585.625,547.4870919183682 595.15625,594.8869819438133 604.6875,599.9646891760027 614.21875,519.9155610919668 623.75,531.0124757132802 633.28125,567.4116162943645 642.8125,550.4536643872289 652.34375,565.6259625754772 661.875,521.0073861936046 671.40625,535.6916665509455 680.9375,467.43059166346325 690.46875,494.3587613427154 700.0,538.4819863723214 709.53125,547.0534898819279 719.0625,564.7823100894941 728.59375,532.4350762993213 738.125,510.21959930767923 747.65625,504.56691618147363 757.1875,496.793046853168 766.71875,489.06848870672763 776.25,485.9468570000497 785.78125,453.7973247283003 795.3125,395.54789666950234 804.84375,411.28745398867403 814.375,459.65246753870036 823.90625,485.7150536778415 833.4375,479.41480892944105 842.96875,506.382673337073 852.5,522.0638990716425 862.03125,475.14520326508625 871.5625,476.76742630468243 881.09375,467.93438829140837 890.625,513.814581526587 900.15625,548.4975394475805 909.6875,548.3967074204818 919.21875,553.5912613125657 928.75,537.4970719560484 938.28125,506.9274413802017 947.8125,498.7723577555868 957.34375,528.4166162631695 966.875,528.7229757805151 976.40625,523.3655620665096 985.9375,499.64653231708553 995.46875,501.24087694367086 1005.0,445.7573121764608 1014.53125,464.0964950550541 1024.0625,458.7548425795547 1033.59375,435.9418940875066 1043.125,425.586587732276 1052.65625,466.2044944742162 1062.1875,394.6115710693479 1071.71875,408.0806507969966 1081.25,394.04634560571594 1090.78125,394.5264674615455 1100.3125,362.48126382532416 1109.84375,389.529764899925 1119.375,425.4068764517533 1128.90625,397.5378237978731 1138.4375,390.6527736079781 1147.96875,365.0584487648687 1157.5,375.33751449519843 1167.03125,385.25761691607596 1176.5625,382.8137861719503 1186.09375,362.7161897367395 1195.625,389.0262228512662 1205.15625,400.38086963747855 1214.6875,413.8239709274863 1224.21875,408.4444042680596 1233.75,384.4134904742499 1243.28125,375.7983823350432 1252.8125,375.3516838090714 1262.34375,359.60883156377037 1271.875,348.33763583378027 1281.40625,346.7635777592179 1290.9375,372.1995805410938 1300.46875,366.7939776001315 1310.0,358.6555155468952" fill="none" stroke="#0f766e" stroke-width="2.5"><title>budgeted_static_50_50_rebalance | end=2026-05-09 | return=-12.67%</title></polyline>
<polyline points="90.0,140.87318586299705 99.53125,139.281685348545 109.0625,138.91646173257948 118.59375,137.64731343260758 128.125,131.83354855621587 137.65625,128.68254667389942 147.1875,140.09466370042333 156.71875,144.63235739331594 166.25,147.2742307464714 175.78125,147.76175308697657 185.3125,142.97020516166276 194.84375,144.79886141998986 204.375,104.42142327703414 213.90625,94.91320834892656 223.4375,105.0393236292656 232.96875,108.63985496460123 242.5,108.1965621192802 252.03125,119.30981421601075 261.5625,140.55122742948856 271.09375,207.10050749481803 280.625,193.2556589006881 290.15625,198.66204397766245 299.6875,197.88372410517786 309.21875,201.21014164433126 318.75,248.54689967187875 328.28125,209.87621797141315 337.8125,180.39274602473722 347.34375,184.03215582119697 356.875,265.2910690460252 366.40625,297.9542146897833 375.9375,404.5397886197184 385.46875,466.74268416422103 395.0,431.821065336732 404.53125,488.1547761873415 414.0625,534.3426676533054 423.59375,710.0 433.125,575.9369045260103 442.65625,577.5969033628747 452.1875,569.0191404541413 461.71875,565.2841217165459 471.25,602.2379231577614 480.78125,643.0890830536867 490.3125,647.0801162932328 499.84375,593.3017757411008 509.375,573.1744585234712 518.90625,620.9629569642259 528.4375,609.6562112063608 537.96875,622.4520321555533 547.5,642.5610175738452 557.03125,640.6639227014746 566.5625,626.1865705910444 576.09375,624.7561269158927 585.625,632.8040457573362 595.15625,689.9347752852001 604.6875,695.4004110524821 614.21875,595.6985924765671 623.75,609.6703642768197 633.28125,655.5702527577182 642.8125,635.1261761302378 652.34375,652.8570466003015 661.875,599.4654597748677 671.40625,618.4193586146695 680.9375,535.8220483079369 690.46875,568.187782884531 700.0,621.6605931305425 709.53125,631.2149861668142 719.0625,652.2353131439583 728.59375,614.1785566030833 738.125,587.6047253397006 747.65625,580.4602619256319 757.1875,570.5906463660422 766.71875,561.0300190330161 776.25,557.4927478337479 785.78125,517.3776701777225 795.3125,442.4314511856484 804.84375,461.72297648021754 814.375,521.7841729630295 823.90625,554.4596243052284 833.4375,547.2106804180476 842.96875,580.4866299060807 852.5,599.469514045247 862.03125,542.2604558084613 871.5625,543.6440059189873 881.09375,533.3717584290221 890.625,590.3969908592647 900.15625,632.2424297898694 909.6875,632.0194822347604 919.21875,638.2832335160996 928.75,618.0071315180013 938.28125,579.5010070991631 947.8125,567.9565895072309 957.34375,605.9673092433225 966.875,606.5497063553028 976.40625,599.9512822882671 985.9375,571.3315195726987 995.46875,573.1673411264869 1005.0,503.911254916037 1014.53125,527.2544564088666 1024.0625,521.6009230043936 1033.59375,492.98707288382906 1043.125,478.89041113282093 1052.65625,529.3650060406246 1062.1875,439.38565635450277 1071.71875,457.3652581357727 1081.25,439.53157247385667 1090.78125,440.9712203931045 1100.3125,401.2818515149424 1109.84375,435.4286783305789 1119.375,480.4640193669917 1128.90625,446.7995662059522 1138.4375,438.43362814992014 1147.96875,407.48099770764213 1157.5,421.85911351482594 1167.03125,433.62179281057877 1176.5625,430.6932357751029 1186.09375,405.3492671000553 1195.625,438.5985479716279 1205.15625,451.80476511903754 1214.6875,469.04032441948766 1224.21875,462.91920765898647 1233.75,434.28943289143433 1243.28125,423.4410799132141 1252.8125,422.5286992630104 1262.34375,403.83655687898784 1271.875,390.75279132499634 1281.40625,389.8482942206072 1290.9375,421.9224571660209 1300.46875,414.77088005222157 1310.0,404.4697136683762" fill="none" stroke="#9333ea" stroke-width="2.5"><title>budgeted_drawdown_tilt_rebalance | end=2026-05-09 | return=-15.34%</title></polyline>
<polyline points="90.0,140.87318586299705 99.53125,139.3331146505186 109.0625,138.79810422652258 118.59375,137.25965168132188 128.125,130.72434662585147 137.65625,128.23617305507867 147.1875,140.31834987307354 156.71875,144.41195357011725 166.25,147.33096261947287 175.78125,147.94310106450632 185.3125,143.09685199844876 194.84375,144.0019890334695 204.375,101.51181012816971 213.90625,90.0 223.4375,101.78632741186505 232.96875,105.00029422239311 242.5,105.73490136952512 252.03125,119.35892835818083 261.5625,140.40096064356487 271.09375,209.83778366654116 280.625,194.7561638229963 290.15625,198.80320248337682 299.6875,198.15027450774278 309.21875,202.04702921824452 318.75,245.46815712461722 328.28125,212.35581977891565 337.8125,189.03472899704104 347.34375,191.31381048817696 356.875,262.2310699188495 366.40625,285.13155467897735 375.9375,374.73538223113223 385.46875,421.4056185251433 395.0,392.4455811652759 404.53125,438.97977739770715 414.0625,477.766256532899 423.59375,625.0943005345837 433.125,511.7716173985194 442.65625,518.1242006232571 452.1875,508.75536620119897 461.71875,507.2820587385362 471.25,534.497444119837 480.78125,565.8865923418946 490.3125,571.6397361485053 499.84375,529.4017350859468 509.375,513.5940531631056 518.90625,545.5829395462945 528.4375,538.789605498523 537.96875,552.0573102455271 547.5,568.076662718913 557.03125,564.6412117786614 566.5625,552.0136987193773 576.09375,551.3115454652135 585.625,557.3775659867244 595.15625,602.9566257478389 604.6875,608.4662274354968 614.21875,534.479568440523 623.75,544.6253203518775 633.28125,577.860597387276 642.8125,561.4550720504649 652.34375,576.682501554439 661.875,533.125890435202 671.40625,546.1056369114262 680.9375,480.36574289079067 690.46875,506.5129364096526 700.0,548.9253372107147 709.53125,557.9814042203951 719.0625,575.4787948861634 728.59375,543.2636518019193 738.125,521.5674109354584 747.65625,516.4220849267163 757.1875,509.3892577542855 766.71875,502.1595283962022 776.25,498.9179683039449 785.78125,469.14535077583037 795.3125,417.42230864775337 804.84375,432.4481423077793 814.375,477.9918847528355 823.90625,502.21036411713663 833.4375,495.67315818849204 842.96875,521.2943825890544 852.5,536.5774599899864 862.03125,491.28257012996147 871.5625,493.47319424659725 881.09375,484.422573579077 890.625,527.5776853841438 900.15625,561.5270842119253 909.6875,561.5348026907591 919.21875,566.6232144086102 928.75,551.7711057157919 938.28125,523.5536524981379 947.8125,517.3639699659961 957.34375,544.1401396061799 966.875,544.2101886630439 976.40625,539.075660749064 985.9375,515.6962583900468 995.46875,517.363644806253 1005.0,465.1914642067152 1014.53125,481.94364783749126 1024.0625,475.8152865274379 1033.59375,454.51443195135914 1043.125,446.05363365337377 1052.65625,484.49350766154816 1062.1875,417.844010207086 1071.71875,429.2520690894034 1081.25,416.3620225055265 1090.78125,415.87871757862416 1100.3125,385.2973556299563 1109.84375,410.39039385889225 1119.375,443.96011295868846 1128.90625,416.4141974008155 1138.4375,409.66372334685315 1147.96875,384.4062017997994 1157.5,392.38057306433103 1167.03125,402.43113339697845 1176.5625,399.989487054453 1186.09375,381.31383095987434 1195.625,405.6831059479972 1205.15625,417.47393938514836 1214.6875,429.6503685929443 1224.21875,423.91297145714157 1233.75,399.7168013814578 1243.28125,391.6855841825648 1252.8125,391.65728203766764 1262.34375,375.72610557932484 1271.875,363.9752425630382 1281.40625,361.3154105166002 1290.9375,385.34937619156045 1300.46875,380.56310273282463 1310.0,372.84262714006496" fill="none" stroke="#92400e" stroke-width="2.5"><title>budgeted_btc_defensive_eth_aggressive | end=2026-05-09 | return=-13.50%</title></polyline>
</svg>