<svg xmlns="http://www.w3.org/2000/svg" width="1400" height="800">
<rect width="1400" height="800" fill="#f8fafc"/>
<text x="700.0" y="42" text-anchor="middle" font-family="monospace" font-size="24" fill="#0f172a">Portfolio Value Over Time | start=2021-10-01 | interval=2d</text>
<line x1="90" y1="710" x2="1310" y2="710" stroke="#334155" stroke-width="2"/>
<line x1="90" y1="90" x2="90" y2="710" stroke="#334155" stroke-width="2"/>
<line x1="90.0" y1="710" x2="90.0" y2="90" stroke="#cbd5e1" stroke-width="1"/>
<text x="90.0" y="734" text-anchor="middle" font-family="monospace" font-size="11" fill="#475569">2021-10-01</text>
<line x1="90" y1="710.0" x2="1310" y2="710.0" stroke="#cbd5e1" stroke-width="1"/>
<text x="78" y="714.0" text-anchor="end" font-family="monospace" font-size="12" fill="#475569">3379</text>
<line x1="334.0" y1="710" x2="334.0" y2="90" stroke="#cbd5e1" stroke-width="1"/>
<text x="334.0" y="734" text-anchor="middle" font-family="monospace" font-size="11" fill="#475569">2022-09-02</text>
<line x1="90" y1="586.0" x2="1310" y2="586.0" stroke="#cbd5e1" stroke-width="1"/>
<text x="78" y="590.0" text-anchor="end" font-family="monospace" font-size="12" fill="#475569">6315</text>
<line x1="578.0" y1="710" x2="578.0" y2="90" stroke="#cbd5e1" stroke-width="1"/>
<text x="578.0" y="734" text-anchor="middle" font-family="monospace" font-size="11" fill="#475569">2023-08-04</text>
<line x1="90" y1="462.0" x2="1310" y2="462.0" stroke="#cbd5e1" stroke-width="1"/>
<text x="78" y="466.0" text-anchor="end" font-family="monospace" font-size="12" fill="#475569">9250</text>
<line x1="822.0" y1="710" x2="822.0" y2="90" stroke="#cbd5e1" stroke-width="1"/>
<text x="822.0" y="734" text-anchor="middle" font-family="monospace" font-size="11" fill="#475569">2024-07-05</text>
<line x1="90" y1="338.0" x2="1310" y2="338.0" stroke="#cbd5e1" stroke-width="1"/>
<text x="78" y="342.0" text-anchor="end" font-family="monospace" font-size="12" fill="#475569">12186</text>
<line x1="1066.0" y1="710" x2="1066.0" y2="90" stroke="#cbd5e1" stroke-width="1"/>
<text x="1066.0" y="734" text-anchor="middle" font-family="monospace" font-size="11" fill="#475569">2025-06-06</text>
<line x1="90" y1="214.0" x2="1310" y2="214.0" stroke="#cbd5e1" stroke-width="1"/>
<text x="78" y="218.0" text-anchor="end" font-family="monospace" font-size="12" fill="#475569">15122</text>
<line x1="1310.0" y1="710" x2="1310.0" y2="90" stroke="#cbd5e1" stroke-width="1"/>
<text x="1310.0" y="734" text-anchor="middle" font-family="monospace" font-size="11" fill="#475569">2026-05-08</text>
<line x1="90" y1="90.00000000000011" x2="1310" y2="90.00000000000011" stroke="#cbd5e1" stroke-width="1"/>
<text x="78" y="94.00000000000011" text-anchor="end" font-family="monospace" font-size="12" fill="#475569">18057</text>
<text x="700.0" y="782" text-anchor="middle" font-family="monospace" font-size="16" fill="#0f172a">time</text>
<text x="24" y="400.0" transform="rotate(-90 24,400.0)" text-anchor="middle" font-family="monospace" font-size="16" fill="#0f172a">portfolio_value_usd</text>
<line x1="970" y1="80" x2="988" y2="80" stroke="#0f766e" stroke-width="3"/>
<text x="998" y="84" font-family="monospace" font-size="12" fill="#0f172a">budgeted_static_50_50_rebalance</text>
<line x1="970" y1="104" x2="988" y2="104" stroke="#9333ea" stroke-width="3"/>
<text x="998" y="108" font-family="monospace" font-size="12" fill="#0f172a">budgeted_drawdown_tilt_rebalance</text>
<line x1="970" y1="128" x2="988" y2="128" stroke="#92400e" stroke-width="3"/>
<text x="998" y="132" font-family="monospace" font-size="12" fill="#0f172a">budgeted_btc_defensive_eth_aggressive</text>
<polyline points="90.0,430.3313523556683 91.45238095238095,430.15745356700864 92.9047619047619,429.1848973080262 94.35714285714286,428.14745176474713 95.80952380952381,427.7526009403103 97.26190476190476,426.74591318075426 98.71428571428571,426.2421527290757 100.16666666666667,420.6882373172898 101.61904761904762,421.072849976765 103.07142857142857,418.35632683910615 104.52380952380952,417.80736373574103 105.97619047619048,416.9533979134438 107.42857142857143,414.16331615066207 108.88095238095238,424.793229446112 110.33333333333333,410.5755218136764 111.78571428571428,414.45668870288995 113.23809523809524,405.23892459691643 114.69047619047619,409.253174419837 116.14285714285714,409.4336720128853 117.5952380952381,392.3493719143054 119.04761904761905,401.5462094537338 120.5,401.98611983660675 121.95238095238095,400.5499309142445 123.4047619047619,423.26722261009803 124.85714285714286,436.237609905452 126.30952380952381,416.9324443584095 127.76190476190476,435.3561207855355 129.21428571428572,427.166114632043 130.66666666666666,443.30459355449426 132.11904761904762,425.1711385232206 133.57142857142856,413.40394767186524 135.02380952380952,419.22237823867334 136.47619047619048,455.20536625695667 137.92857142857144,442.4061905019754 139.38095238095238,439.14090352625465 140.83333333333331,470.4316471589706 142.28571428571428,452.22312450107876 143.73809523809524,468.1077794078193 145.1904761904762,466.78685880255654 146.64285714285714,469.0947229703321 148.0952380952381,469.48058517978825 149.54761904761904,462.75554876663256 151.0,452.9572534968642 152.45238095238096,452.49725825241933 153.9047619047619,473.2409426385658 155.35714285714283,477.7648595621771 156.8095238095238,473.697809341754 158.26190476190476,477.7431310879948 159.71428571428572,496.00935493951545 161.16666666666669,514.9076043229032 162.61904761904762,515.7097324432868 164.07142857142856,509.52488194471414 165.52380952380952,510.03212414420796 166.97619047619048,505.10656042428104 168.42857142857142,512.3657060484984 169.88095238095238,518.8791733980449 171.33333333333331,555.1339598194352 172.78571428571428,556.7478507024243 174.23809523809524,557.5884134863286 175.6904761904762,558.2506702508729 177.14285714285714,548.2924836376014 178.5952380952381,544.0648521059261 180.04761904761904,549.3245680082157 181.5,522.3951161884085 182.95238095238096,517.5654626561546 184.40476190476193,509.92443474594813 185.85714285714286,513.3914454082477 187.3095238095238,523.8046045520723 188.76190476190476,522.3950749889243 190.21428571428572,510.21484298299345 191.66666666666666,536.6422083383436 193.11904761904762,548.1225809671674 194.57142857142856,547.9169640059001 196.02380952380952,549.2828410502583 197.47619047619048,539.2706339275628 198.92857142857144,520.6950292962883 200.38095238095238,517.3974392187044 201.83333333333331,545.5527206974316 203.28571428571428,550.8847180164621 204.73809523809524,548.7563882101583 206.1904761904762,545.3307005793456 207.64285714285717,548.8630649549125 209.0952380952381,545.3209843875441 210.54761904761904,533.2093541683028 212.0,524.446237379594 213.45238095238096,529.1164514049226 214.9047619047619,521.2816266209192 216.35714285714286,510.3628636665668 217.8095238095238,507.33819119479364 219.26190476190476,491.50132993334154 220.7142857142857,489.5635089025078 222.16666666666666,489.11778554863935 223.61904761904762,486.0036455090434 225.07142857142856,493.598491024015 226.52380952380952,507.3376314306428 227.97619047619048,508.1696655268655 229.42857142857142,529.6643025669289 230.88095238095238,518.9427047880408 232.33333333333334,524.0158045579044 233.78571428571428,528.8430531230111 235.23809523809524,518.5237319670339 236.6904761904762,526.5556988845821 238.14285714285714,531.7758652228054 239.5952380952381,525.7280127242179 241.04761904761907,534.235346664082 242.5,539.2673859346351 243.95238095238093,539.3139719477681 245.4047619047619,543.478136880908 246.85714285714283,548.4943754843491 248.30952380952382,556.4666352677132 249.76190476190476,589.8322947796454 251.21428571428572,599.5284452011608 252.66666666666666,601.6180077264921 254.11904761904762,589.6030822822523 255.57142857142856,594.5313957893487 257.0238095238095,597.8909695837723 258.4761904761905,602.4217476130578 259.92857142857144,603.4960861769136 261.3809523809524,603.4337065687894 262.83333333333337,615.1140807803986 264.2857142857143,608.9391033460953 265.7380952380952,596.3764720888605 267.1904761904762,605.00427354525 268.6428571428571,608.0300656631994 270.0952380952381,601.1262914670818 271.54761904761904,607.5145723569291 273.0,616.3055308200586 274.45238095238096,633.4287417168176 275.9047619047619,656.4421883443736 277.3571428571429,667.6414639780304 278.80952380952385,675.0604525222493 280.26190476190476,664.6264985277561 281.7142857142857,669.6278864383769 283.16666666666663,658.5263893483132 284.6190476190476,660.256533675672 286.07142857142856,664.8967935373971 287.5238095238095,668.7068969283308 288.9761904761905,671.2506150307781 290.42857142857144,664.7243323272457 291.8809523809524,662.2335996940953 293.3333333333333,657.879007563394 294.7857142857143,662.0159556117585 296.23809523809524,672.1654895607664 297.6904761904762,661.8358288507675 299.1428571428571,653.2396793807598 300.5952380952381,640.1322160959946 302.04761904761904,640.088237505601 303.5,641.1957242173268 304.95238095238096,638.9761510918801 306.4047619047619,649.1573529252272 307.8571428571429,629.8082847725497 309.3095238095238,631.5497350767378 310.76190476190476,635.4765499794131 312.21428571428567,637.3605721545928 313.66666666666663,630.9767892860264 315.1190476190476,632.9156557743721 316.57142857142856,632.8545129709471 318.0238095238095,623.1157749091374 319.4761904761905,617.2689067404973 320.92857142857144,621.8877809289793 322.3809523809524,626.894307446367 323.83333333333337,643.9424598855973 325.28571428571433,641.4491057284081 326.73809523809524,639.4429837877827 328.1904761904762,638.1335403062455 329.6428571428571,651.2441445111223 331.0952380952381,647.9855187841986 332.54761904761904,648.6286827767595 334.0,648.0303508849643 335.45238095238096,647.7346905894047 336.9047619047619,652.3080589091868 338.3571428571429,647.5213939331794 339.8095238095238,634.592358220089 341.26190476190476,634.6469166224314 342.7142857142857,644.5740369130995 344.1666666666667,654.336630607554 345.6190476190476,659.5930128692436 347.07142857142856,661.7584385227018 348.5238095238095,659.984436081396 349.9761904761905,661.8430406573206 351.4285714285714,660.1030179041175 352.8809523809524,659.5194652983299 354.3333333333333,659.8038529456156 355.7857142857143,663.0747276138935 357.23809523809524,655.5952906247312 358.6904761904762,657.1749566004637 360.1428571428571,660.3687041115688 361.5952380952381,662.3106578681964 363.04761904761904,662.0636527987035 364.5,661.9118183724877 365.95238095238096,661.2462066397746 367.4047619047619,660.8521241638812 368.85714285714283,662.8971670551481 370.3095238095238,661.0955537338775 371.76190476190476,659.4939289514027 373.2142857142857,645.867111572032 374.6666666666667,646.8912996502045 376.1190476190476,645.3080578630615 377.57142857142856,646.2959220582534 379.0238095238095,649.0900133441404 380.4761904761905,641.7487989925727 381.92857142857144,646.3498753833755 383.3809523809524,680.1672107409598 384.8333333333333,669.0737532674744 386.2857142857143,673.9870060262991 387.73809523809524,670.8727928956135 389.1904761904762,673.6336789259508 390.64285714285717,672.9404015421821 392.09523809523813,680.3287513574816 393.54761904761904,674.5770640303184 395.0,674.1911995553917 396.45238095238096,674.6934967050568 397.90476190476187,673.7083087301696 399.35714285714283,669.5396882437543 400.8095238095238,671.2849460587156 402.26190476190476,670.2919614377336 403.71428571428567,671.819521092534 405.1666666666667,669.6292244191417 406.61904761904765,669.7710825761453 408.0714285714286,665.2744627120321 409.5238095238095,668.7795941665346 410.9761904761905,673.8269685952023 412.42857142857144,675.6879576596855 413.8809523809524,672.5950306550421 415.3333333333333,672.4923809136867 416.7857142857143,672.3955188446374 418.23809523809524,673.1025086246776 419.69047619047615,673.7853737590018 421.1428571428571,674.2710427720714 422.5952380952381,673.0900477850171 424.0476190476191,670.7876227212817 425.5,669.9528380909511 426.95238095238096,668.5378013385155 428.4047619047619,665.6760462756994 429.8571428571429,658.017191051367 431.3095238095238,645.9744719833533 432.76190476190476,644.1594591086233 434.2142857142857,648.4625545992079 435.6666666666667,636.2213166674479 437.1190476190476,637.3295754520393 438.57142857142856,640.523280208167 440.0238095238095,637.5139384269969 441.4761904761904,638.640053694229 442.92857142857144,639.487296533574 444.3809523809524,633.5831071718821 445.83333333333337,633.6311100833216 447.2857142857143,636.5820512523004 448.73809523809524,633.9045180135511 450.1904761904762,643.5459827675863 451.64285714285717,643.6249246643858 453.0952380952381,645.1943571671867 454.54761904761904,630.3963035593495 456.0,628.825218047732 457.4523809523809,630.3243816874533 458.90476190476187,630.6290151965053 460.35714285714283,632.5884239158283 461.80952380952385,637.3222479721674 463.2619047619048,634.7079948879453 464.7142857142857,632.9555558982998 466.1666666666667,640.8320716322294 467.61904761904765,640.7955309229629 469.07142857142856,641.6503322946168 470.5238095238095,652.4315688752297 471.9761904761905,649.7447013322027 473.42857142857144,630.4445193119218 474.88095238095235,630.9900881071273 476.3333333333333,615.8330941722119 477.7857142857143,614.2694965595681 479.2380952380952,612.9398791471382 480.69047619047615,612.0670769142639 482.14285714285717,617.7747280496196 483.59523809523813,619.9698238882911 485.0476190476191,613.036063288509 486.5,611.5049663069937 487.95238095238096,613.4860493943652 489.4047619047619,610.3906069395443 490.85714285714283,610.7023158505618 492.3095238095238,611.9501338153964 493.76190476190476,604.1636898146146 495.2142857142857,603.0678637899499 496.66666666666663,593.7513637562671 498.1190476190476,593.5196902375465 499.57142857142856,593.9463531210399 501.0238095238096,607.2279755255909 502.4761904761905,611.3725055449908 503.92857142857144,613.6494734393846 505.3809523809524,609.8171732937292 506.8333333333333,605.9288008471171 508.2857142857143,607.1072464797948 509.73809523809524,608.8305442208027 511.1904761904762,608.0176161640984 512.6428571428571,606.968343627816 514.0952380952381,612.8064886611368 515.547619047619,613.299496678301 517.0,617.2275588315923 518.452380952381,617.1940309396256 519.9047619047619,615.8490693668099 521.3571428571429,617.5094911965632 522.8095238095239,615.8060738189318 524.2619047619048,616.698699362772 525.7142857142858,619.0914295414522 527.1666666666667,616.6937078988673 528.6190476190476,609.173353286517 530.0714285714286,610.6540538354359 531.5238095238095,614.9447553109767 532.9761904761905,612.9320892789628 534.4285714285713,620.417560871126 535.8809523809523,617.6686524039986 537.3333333333333,616.9184858044009 538.7857142857143,622.1993946773018 540.2380952380952,622.7776114497171 541.6904761904761,626.9452557232628 543.1428571428571,621.503221739305 544.5952380952381,620.0868824001464 546.047619047619,604.0166020175661 547.5,601.6405271890567 548.952380952381,602.0956968168118 550.4047619047619,601.830012596623 551.8571428571429,604.1570337821014 553.3095238095239,600.7612153286234 554.7619047619048,597.6813967980049 556.2142857142857,601.6089826061012 557.6666666666667,603.6762263317671 559.1190476190477,604.5709136938789 560.5714285714287,602.5080640793296 562.0238095238095,594.6583732382619 563.4761904761905,601.3272650890818 564.9285714285714,602.6618081121104 566.3809523809524,604.2939426117359 567.8333333333333,604.1899505157375 569.2857142857142,603.7862616623122 570.7380952380952,607.7293094730524 572.1904761904761,607.6130569079345 573.6428571428571,606.3619631599694 575.0952380952381,607.7647676246289 576.547619047619,608.6724968963365 578.0,609.4218510420923 579.452380952381,609.5266478942849 580.9047619047619,606.1053539693231 582.3571428571429,607.3964992846875 583.8095238095239,607.4714137468325 585.2619047619048,607.7156928830029 586.7142857142858,611.4822662536892 588.1666666666667,625.6206479397009 589.6190476190476,624.2002946291893 591.0714285714286,626.7539548738746 592.5238095238095,625.3082538364367 593.9761904761904,626.3648786422817 595.4285714285714,625.8477513832585 596.8809523809524,619.9140554492742 598.3333333333334,627.7612779136078 599.7857142857142,626.9224681762832 601.2380952380952,627.5737990096052 602.6904761904761,625.4895516843005 604.1428571428571,627.167804226765 605.5952380952381,632.9210397631797 607.047619047619,627.2615195637079 608.5,624.7234406129555 609.952380952381,625.7116477179559 611.4047619047619,622.7423470297841 612.8571428571428,627.2088212011633 614.3095238095239,626.7516670470691 615.7619047619048,627.8808976961866 617.2142857142858,627.2834074162729 618.6666666666666,622.7227694411133 620.1190476190476,616.6300796268085 621.5714285714286,621.5285210472096 623.0238095238095,623.4386418059631 624.4761904761905,620.7466533791251 625.9285714285714,624.1636773962256 627.3809523809524,626.9797187503137 628.8333333333334,627.5897709284741 630.2857142857142,626.3447791731425 631.7380952380952,622.2587464276868 633.1904761904761,621.1549025872339 634.6428571428572,614.925380329813 636.0952380952381,599.4997855842395 637.547619047619,594.236954703302 639.0,596.4023120070168 640.452380952381,593.820823647106 641.9047619047619,592.6512663624841 643.3571428571429,592.3254202584194 644.8095238095239,589.6120046316565 646.2619047619047,587.868989280284 647.7142857142857,586.6420042705406 649.1666666666666,573.7556346777322 650.6190476190476,575.8113206318641 652.0714285714286,583.1523008361855 653.5238095238095,582.0587248807374 654.9761904761905,580.6723365675126 656.4285714285714,575.6134807247993 657.8809523809524,574.0664361673086 659.3333333333334,572.3376468199053 660.7857142857143,573.9853066318346 662.2380952380952,573.4400254957085 663.6904761904761,573.5906597408278 665.1428571428571,563.7632706744199 666.5952380952381,553.1339754583707 668.047619047619,548.3274298727013 669.5,541.9071390397872 670.952380952381,543.3508529472958 672.4047619047619,556.8444510673474 673.8571428571429,547.2208018896972 675.3095238095239,553.5167976273567 676.7619047619048,552.7229521460396 678.2142857142858,550.5529626717387 679.6666666666666,543.9457166600348 681.1190476190476,549.5188644350059 682.5714285714286,552.52436899916 684.0238095238095,547.1627943523438 685.4761904761905,550.850511532684 686.9285714285714,542.1659041938035 688.3809523809524,552.4637505356534 689.8333333333333,546.0088372470669 691.2857142857143,548.837187346736 692.7380952380953,537.188805380315 694.1904761904763,524.1699944841198 695.6428571428571,535.7824668803084 697.0952380952381,539.8525864832093 698.547619047619,538.3389768781328 700.0,543.1715815991754 701.452380952381,544.9380873411124 702.9047619047619,559.3653482753078 704.3571428571429,560.2553851942057 705.8095238095237,551.8464454766483 707.2619047619047,546.3106630191077 708.7142857142857,550.054590444466 710.1666666666666,547.0847639027558 711.6190476190476,549.6696976842153 713.0714285714286,544.4171479214535 714.5238095238095,536.0794932655782 715.9761904761904,525.5110093120278 717.4285714285713,512.1955000516895 718.8809523809523,501.5882399511997 720.3333333333334,499.55309541242593 721.7857142857143,496.02994513131847 723.2380952380953,489.6299485212992 724.6904761904763,494.51031892165827 726.1428571428572,492.61343603104797 727.5952380952382,476.03715498144817 729.047619047619,444.620545507112 730.5,442.6042250722273 731.952380952381,438.2303979602903 733.4047619047619,433.33618937225236 734.8571428571429,410.1540665516803 736.3095238095239,404.2560837593655 737.7619047619048,387.51549838821785 739.2142857142857,387.485952587791 740.6666666666666,409.2977325429334 742.1190476190476,417.1204206077979 743.5714285714286,456.835284197306 745.0238095238095,431.20636664306113 746.4761904761905,442.93490085794963 747.9285714285714,414.9735337693892 749.3809523809523,420.5943581418457 750.8333333333333,418.8359754680954 752.2857142857142,408.76787491627454 753.7380952380952,441.3580109593685 755.1904761904761,431.14510989269155 756.6428571428571,429.00018354437145 758.0952380952382,405.3173671097366 759.5476190476192,415.1204401503432 761.0,438.96612324367743 762.452380952381,446.4663927178738 763.9047619047619,455.00747985980973 765.3571428571429,456.7327843526331 766.8095238095239,448.53110712967776 768.2619047619048,441.59330209724897 769.7142857142858,451.2016619085355 771.1666666666666,452.9244450494828 772.6190476190476,447.839147692373 774.0714285714286,466.6061486435657 775.5238095238095,471.7779707718354 776.9761904761905,452.977025507878 778.4285714285714,457.61305703588226 779.8809523809524,467.1744220377909 781.3333333333334,471.3479813833082 782.7857142857142,468.7477939745809 784.2380952380952,470.9306917449061 785.6904761904761,458.3529529646256 787.1428571428571,445.1223567348593 788.5952380952381,406.68859221494614 790.047619047619,408.69737257012696 791.5,410.57045843401835 792.9523809523808,405.96458699574544 794.4047619047618,405.563321728436 795.8571428571429,410.0475202108401 797.3095238095239,408.4679604581203 798.7619047619048,407.90759276037465 800.2142857142858,397.04105181112914 801.6666666666667,410.7880782052384 803.1190476190477,408.5442048095557 804.5714285714286,424.5454806855876 806.0238095238095,427.46833671492186 807.4761904761905,424.0437227136176 808.9285714285714,426.07536958205037 810.3809523809524,427.6274222311293 811.8333333333334,431.80046364409276 813.2857142857143,439.04327039452767 814.7380952380952,443.8332183611171 816.1904761904761,441.77315474972056 817.6428571428571,447.1568932870469 819.0952380952381,438.891482882593 820.547619047619,453.03424116779377 822.0,477.1978548373255 823.452380952381,481.72019219316877 824.9047619047618,469.40662767371464 826.3571428571428,469.6871736089921 827.8095238095237,460.9994279080927 829.2619047619047,431.54264169000936 830.7142857142857,438.04897064181347 832.1666666666666,425.48008550347174 833.6190476190477,420.1673258158502 835.0714285714287,428.55815303742327 836.5238095238096,443.8841891310442 837.9761904761905,434.83712707419653 839.4285714285714,434.3066696023205 840.8809523809524,444.0931377816612 842.3333333333334,464.49562085761653 843.7857142857143,487.70805205974915 845.2380952380953,504.2671958419906 846.6904761904763,478.9285851564177 848.1428571428571,484.50306632933643 849.5952380952381,482.4592098217174 851.047619047619,487.3864963607057 852.5,490.50432114927594 853.952380952381,490.6192711357327 855.4047619047619,491.2867857366905 856.8571428571429,485.2281884868479 858.3095238095237,468.0977961868307 859.7619047619047,476.0833214836532 861.2142857142857,493.4675763287354 862.6666666666666,493.45133544026044 864.1190476190476,503.1916972306879 865.5714285714286,502.8683799244393 867.0238095238095,509.06949938697045 868.4761904761904,519.0008610399497 869.9285714285713,507.28923741192636 871.3809523809523,507.6009165620121 872.8333333333334,494.49990401366625 874.2857142857143,504.5660339652145 875.7380952380953,500.3298136486635 877.1904761904763,487.4034603210688 878.6428571428572,478.6089049393039 880.0952380952382,476.8808747763874 881.547619047619,480.96385452359016 883.0,468.4763924650797 884.452380952381,470.9891620294892 885.9047619047619,493.9351016076032 887.3571428571429,499.4183389772169 888.8095238095239,492.78589667493605 890.2619047619048,492.04086507482583 891.7142857142857,498.7638151373708 893.1666666666666,490.3549572487978 894.6190476190476,487.99890081076046 896.0714285714286,470.50691567112654 897.5238095238095,469.7976456294681 898.9761904761905,465.19796355904435 900.4285714285714,466.58862545762776 901.8809523809523,476.20850695935553 903.3333333333333,481.0276226054643 904.7857142857142,473.88729654104316 906.2380952380952,455.2702675315749 907.6904761904761,468.125046999264 909.1428571428571,471.2540545031285 910.5952380952382,480.3296027907201 912.0476190476192,443.8246720644449 913.5,427.85572484369305 914.952380952381,406.4193659644222 916.4047619047619,386.01230844548957 917.8571428571429,398.3735602614165 919.3095238095239,386.78257950476467 920.7619047619048,382.61244211189086 922.2142857142858,382.3369971671515 923.6666666666666,356.93178621800325 925.1190476190476,357.0344287582735 926.5714285714286,372.291760892688 928.0238095238095,349.33499160140957 929.4761904761905,340.18359416968434 930.9285714285714,345.0503864134283 932.3809523809524,327.47854082007933 933.8333333333334,315.8155211784062 935.2857142857142,312.96544008942 936.7380952380952,343.7195845944495 938.1904761904761,322.387571261146 939.6428571428571,320.22776640386087 941.0952380952381,303.66072746934555 942.547619047619,336.40559919281696 944.0,350.1160402446643 945.4523809523808,366.68560562359903 946.9047619047618,346.9965441845703 948.3571428571429,362.40063292401027 949.8095238095239,359.60039527811114 951.2619047619048,367.2774148581135 952.7142857142858,363.7363855117969 954.1666666666667,341.07811871930136 955.6190476190477,339.0300907609355 957.0714285714286,356.7038281024233 958.5238095238095,375.24878541478864 959.9761904761905,367.34270158675633 961.4285714285714,376.0699164644527 962.8809523809524,344.7895571376025 964.3333333333334,335.96695906509484 965.7857142857143,357.708285015843 967.2380952380952,340.5337961833705 968.6904761904761,344.3503765320454 970.1428571428571,343.97019890099705 971.5952380952381,357.6425345591966 973.047619047619,358.4878978576483 974.5,349.4813206143955 975.952380952381,385.66504516013515 977.4047619047618,394.17678409223277 978.8571428571428,399.51149209966854 980.3095238095237,403.30251928156423 981.7619047619047,399.472875179153 983.2142857142857,393.478078805968 984.6666666666666,394.98013248913173 986.1190476190477,401.9939617897504 987.5714285714287,402.35250450461336 989.0238095238096,392.56123801834076 990.4761904761905,394.22646261535726 991.9285714285714,420.66396677603984 993.3809523809524,446.95199304735524 994.8333333333334,453.23945773501254 996.2857142857143,414.8078335047789 997.7380952380953,452.17480883581635 999.1904761904763,444.87544796498827 1000.6428571428571,451.80152045787247 1002.0952380952381,490.38217027727893 1003.547619047619,477.69416890033017 1005.0,476.83260744934717 1006.452380952381,481.2234996123989 1007.9047619047619,477.79582077259465 1009.3571428571429,471.2412135761256 1010.8095238095237,472.020249870408 1012.2619047619047,457.7621451408649 1013.7142857142857,464.21311571931255 1015.1666666666666,477.2981281337175 1016.6190476190476,487.552633770262 1018.0714285714286,475.2250989919803 1019.5238095238095,485.43425499245564 1020.9761904761904,485.69397654481713 1022.4285714285713,512.306236307764 1023.8809523809523,497.47645322441423 1025.3333333333335,503.7804926903241 1026.7857142857142,500.6585420571855 1028.2380952380954,501.51879620127295 1029.6904761904761,499.6071946140483 1031.1428571428573,497.0597167054825 1032.595238095238,495.579334220383 1034.047619047619,467.50207021771274 1035.5,466.67811082475174 1036.952380952381,467.7535855457386 1038.404761904762,466.4212232462436 1039.857142857143,459.3775113318766 1041.3095238095239,460.86657604911784 1042.7619047619048,463.85682395128856 1044.2142857142858,460.74864772690836 1045.6666666666665,406.5393505688891 1047.1190476190477,390.74652975877314 1048.5714285714284,377.4661395434669 1050.0238095238096,388.3947083166831 1051.4761904761904,395.1378525772367 1052.9285714285716,386.7729663302836 1054.3809523809523,377.8254381701368 1055.8333333333333,383.86393199814546 1057.2857142857142,378.9334050248333 1058.7380952380952,370.74346334339793 1060.1904761904761,379.01128485589106 1061.642857142857,388.2961997346299 1063.095238095238,380.10779010611225 1064.5476190476193,382.174281955324 1066.0,392.45758645325117 1067.452380952381,387.5755065360064 1068.904761904762,356.8968655485096 1070.357142857143,377.76873439071875 1071.8095238095239,386.40730479867864 1073.2619047619048,382.948321726202 1074.7142857142858,387.8566988682559 1076.1666666666665,399.4156099988146 1077.6190476190477,416.85099615373207 1079.0714285714284,390.85027489909237 1080.5238095238096,391.7561894809509 1081.9761904761904,389.6895533645521 1083.4285714285716,386.2685547971703 1084.8809523809523,376.8117537270611 1086.3333333333335,383.03069803380174 1087.7857142857142,376.26644721199693 1089.2380952380952,373.27955224193937 1090.6904761904761,335.7893522630873 1092.142857142857,333.7494353381025 1093.595238095238,324.36817246632677 1095.047619047619,300.29735644264395 1096.5,288.8431039690847 1097.9523809523807,275.49369705499623 1099.404761904762,270.9817448228664 1100.857142857143,276.8240643996726 1102.3095238095239,275.3572454953134 1103.7619047619048,271.45363316515085 1105.2142857142858,271.2114607740456 1106.6666666666667,301.0403386545166 1108.1190476190477,298.44291767616886 1109.5714285714284,291.3318700105277 1111.0238095238096,265.5674737862011 1112.4761904761904,245.454296733109 1113.9285714285716,243.31688959905335 1115.3809523809523,201.51825062180103 1116.8333333333333,232.40288993492214 1118.2857142857142,230.3409437610693 1119.7380952380952,263.56173103338733 1121.1904761904761,255.64937186274437 1122.642857142857,217.35447885710647 1124.095238095238,251.61933593135365 1125.547619047619,241.77996040963944 1127.0,256.342014312865 1128.452380952381,254.8473555398308 1129.904761904762,251.89430943735465 1131.357142857143,254.62375507261464 1132.8095238095239,257.0861502733018 1134.2619047619048,251.254744022061 1135.7142857142856,244.62577073264202 1137.1666666666665,219.6496539364789 1138.6190476190477,227.4053941144129 1140.0714285714287,229.8184536310414 1141.5238095238096,224.4028436247898 1142.9761904761906,233.24983603538936 1144.4285714285716,255.24589864001956 1145.8809523809525,256.6503225384904 1147.3333333333333,271.2613169907878 1148.7857142857142,259.6799836268424 1150.2380952380952,255.53111393012517 1151.6904761904761,221.9785095438139 1153.142857142857,217.9382279553887 1154.595238095238,201.9555646329958 1156.047619047619,213.8988033069237 1157.5,274.90422043439804 1158.952380952381,251.81336497068992 1160.404761904762,257.7366632199768 1161.857142857143,281.44456980938475 1163.3095238095239,283.7902251674792 1164.7619047619048,271.4247171741609 1166.2142857142858,287.9132401843316 1167.6666666666667,272.9627647438685 1169.1190476190475,252.45704684239854 1170.5714285714284,266.403358044785 1172.0238095238094,286.4209213693269 1173.4761904761904,278.7305469439141 1174.9285714285713,302.00417216738424 1176.3809523809523,318.39816769548884 1177.8333333333335,319.01485284312423 1179.2857142857144,306.86653213660594 1180.7380952380952,320.62739366810297 1182.1904761904761,339.2674270477473 1183.642857142857,351.6969815730686 1185.095238095238,367.6108299109348 1186.547619047619,369.25533011056604 1188.0,399.23887388323726 1189.452380952381,393.14956630344255 1190.904761904762,381.8224413097655 1192.357142857143,369.60937174454153 1193.8095238095239,372.2421584762093 1195.2619047619048,394.3473055540644 1196.7142857142858,353.5873791608914 1198.1666666666667,373.1614374340035 1199.6190476190477,368.4250838160519 1201.0714285714284,346.97945889367224 1202.5238095238094,352.4658753570914 1203.9761904761904,365.1636712273901 1205.4285714285713,382.98148064651514 1206.8809523809523,391.7978787640353 1208.3333333333333,378.36629611762015 1209.7857142857142,375.6836824097197 1211.2380952380952,380.76751960054344 1212.6904761904761,385.19667658184335 1214.142857142857,380.9821522484554 1215.595238095238,383.2813315282611 1217.047619047619,380.3522896792459 1218.5,364.8961482498271 1219.952380952381,360.4315826929394 1221.404761904762,345.9169950502505 1222.857142857143,363.8481707536813 1224.3095238095239,366.6161591342559 1225.7619047619048,364.2808629992125 1227.2142857142858,335.2399361974902 1228.6666666666667,342.13515168251996 1230.1190476190477,346.92267859460884 1231.5714285714287,380.07004449798245 1233.0238095238096,376.77346653691 1234.4761904761904,377.62411693089985 1235.9285714285713,380.8225824656058 1237.3809523809523,373.7613014378295 1238.8333333333333,404.1024251505746 1240.2857142857142,447.95629583375535 1241.7380952380952,453.1705903182081 1243.1904761904761,509.13207140373635 1244.642857142857,476.95857539874453 1246.095238095238,473.89395270895875 1247.547619047619,491.9639486983874 1249.0,480.5899684595405 1250.452380952381,486.3813140771389 1251.904761904762,487.42433013834204 1253.357142857143,491.4651886401392 1254.8095238095239,487.62960234231747 1256.2619047619048,502.9543473665621 1257.7142857142858,481.6209202371135 1259.1666666666667,495.13612321908136 1260.6190476190477,494.62510382237485 1262.0714285714287,486.1279261281081 1263.5238095238096,474.378278728641 1264.9761904761906,489.3513722676448 1266.4285714285716,485.2004001935587 1267.8809523809523,477.27929801124367 1269.3333333333333,472.8698406137298 1270.7857142857142,462.8384052104269 1272.2380952380952,450.7283848665893 1273.6904761904761,471.8756239497484 1275.142857142857,477.7494254076559 1276.595238095238,468.8776228316599 1278.047619047619,466.8293202157646 1279.5,489.7117110655874 1280.952380952381,491.15735067822106 1282.404761904762,477.8952525141686 1283.857142857143,483.9987315201214 1285.3095238095239,482.5652578807627 1286.7619047619048,476.283924853925 1288.2142857142856,465.73312334780974 1289.6666666666665,457.7388345324769 1291.1190476190477,466.3291320432311 1292.5714285714287,449.8182053501178 1294.0238095238096,445.9727936960461 1295.4761904761906,444.5577042553005 1296.9285714285716,446.83213193239675 1298.3809523809525,437.6257874225003 1299.8333333333333,443.3546229075058 1301.2857142857142,436.96809417418376 1302.7380952380952,447.63001502723586 1304.1904761904761,449.91920332837043 1305.642857142857,440.6889131354981 1307.095238095238,436.1170853381707 1308.547619047619,432.5090752281045 1310.0,438.16200829639797" fill="none" stroke="#0f766e" stroke-width="2.5"><title>budgeted_static_50_50_rebalance | end=2026-05-08 | return=-1.85%</title></polyline>
<polyline points="90.0,430.3313523556683 91.45238095238095,430.2050832994007 92.9047619047619,429.4615069310188 94.35714285714286,428.67120589815863 95.80952380952381,428.3607393504519 97.26190476190476,427.71282120744024 98.71428571428571,427.4036112517961 100.16666666666667,424.3722545214747 101.61904761904762,424.556743539448 103.07142857142857,423.34827548284755 104.52380952380952,423.19037081583355 105.97619047619048,422.91261658516737 107.42857142857143,421.9615402879545 108.88095238095238,425.2963367844964 110.33333333333333,421.1864862363482 111.78571428571428,422.24189938987234 113.23809523809524,419.8799549026899 114.69047619047619,420.87501260184115 116.14285714285714,420.91471518996366 117.5952380952381,417.10366484154844 119.04761904761905,419.0621793421786 120.5,419.16000361909715 121.95238095238095,418.86764986246294 123.4047619047619,423.13962995913033 124.85714285714286,425.4826401027496 126.30952380952381,421.5632175040129 127.76190476190476,425.17636123594946 129.21428571428572,423.4089372334646 130.66666666666666,427.2227891650028 132.11904761904762,422.6035579021097 133.57142857142856,419.5250995910246 135.02380952380952,421.1697785412252 136.47619047619048,431.9481407001308 137.92857142857144,427.677254469207 139.38095238095238,426.4748451016067 140.83333333333331,439.2246842881269 142.28571428571428,430.9421740529656 143.73809523809524,438.76305740972214 145.1904761904762,438.1610322768663 146.64285714285714,439.578933553578 148.0952380952381,439.79850180073686 149.54761904761904,435.1037418376159 151.0,427.8616260799239 152.45238095238096,427.5513287745712 153.9047619047619,443.5433318007062 155.35714285714283,447.1493855863099 156.8095238095238,443.6482308583666 158.26190476190476,447.53720283360894 159.71428571428572,465.0419978463791 161.16666666666669,483.6134043940244 162.61904761904762,484.29471902934824 164.07142857142856,477.4479774631648 165.52380952380952,478.052056661473 166.97619047619048,472.20361283390037 168.42857142857142,480.9395039637356 169.88095238095238,488.85874079429175 171.33333333333331,533.6433839505119 172.78571428571428,535.7126277859572 174.23809523809524,537.1462687488735 175.6904761904762,538.2089472181676 177.14285714285714,524.73839559977 178.5952380952381,518.9443084719638 180.04761904761904,525.4324918967233 181.5,490.1988567066636 182.95238095238096,483.8538879067619 184.40476190476193,474.0501212506823 185.85714285714286,478.6270310731117 187.3095238095238,491.948303215427 188.76190476190476,490.1729345811036 190.21428571428572,474.5278238553247 191.66666666666666,508.27721586363873 193.11904761904762,522.960589595148 194.57142857142856,522.6624134405085 196.02380952380952,524.4698609077254 197.47619047619048,511.5371252228323 198.92857142857144,488.0914341704055 200.38095238095238,483.9187946488522 201.83333333333331,519.900465964083 203.28571428571428,526.7400167644453 204.73809523809524,524.0168635019031 206.1904761904762,519.658241793828 207.64285714285717,524.1679391378623 209.0952380952381,519.6889703793721 210.54761904761904,504.0993834178695 212.0,492.7474928010105 213.45238095238096,498.7721888500879 214.9047619047619,488.71311923747214 216.35714285714286,474.71461226415875 217.8095238095238,470.8499219999287 219.26190476190476,450.5820755335476 220.7142857142857,448.0356259324402 222.16666666666666,447.3272517446961 223.61904761904762,443.2727841185121 225.07142857142856,453.0634312961427 226.52380952380952,470.71107909518685 227.97619047619048,471.6899975134326 229.42857142857142,499.29668325191466 230.88095238095238,485.5262381682778 232.33333333333334,492.0691866303663 233.78571428571428,498.24578828294597 235.23809523809524,485.03524077406047 236.6904761904762,495.3806324770023 238.14285714285714,502.0482932834863 239.5952380952381,494.29100767061254 241.04761904761907,505.23194698347123 242.5,511.7106161405645 243.95238095238093,511.75234573837906 245.4047619047619,517.0801818250007 246.85714285714283,523.4542065909558 248.30952380952382,533.712479431096 249.76190476190476,576.5074130874839 251.21428571428572,589.2380365550149 252.66666666666666,592.1131831331184 254.11904761904762,575.8653653471582 255.57142857142856,582.6303888406185 257.0238095238095,587.509344606913 258.4761904761905,593.8773155164823 259.92857142857144,595.3216193173222 261.3809523809524,595.4912687660615 262.83333333333337,613.0490854147308 264.2857142857143,603.8136274374854 265.7380952380952,585.4032061043141 267.1904761904762,598.4007069078209 268.6428571428571,602.8609806629698 270.0952380952381,592.8360406892784 271.54761904761904,602.391592460913 273.0,616.1145646075126 274.45238095238096,642.4497545895792 275.9047619047619,676.602063776446 277.3571428571429,693.7003542508866 278.80952380952385,704.7179635282339 280.26190476190476,688.7555342743026 281.7142857142857,696.6240416359939 283.16666666666663,679.1175837030218 284.6190476190476,681.8457284491328 286.07142857142856,688.8710378706953 287.5238095238095,695.0701990423755 288.9761904761905,698.5284400891046 290.42857142857144,688.5278491234743 291.8809523809524,684.6580810267172 293.3333333333333,678.4295848352575 294.7857142857143,684.6455275708258 296.23809523809524,700.1847634631641 297.6904761904762,684.0184182369609 299.1428571428571,670.043477539851 300.5952380952381,649.0887713402391 302.04761904761904,649.9464553090176 303.5,651.2097143302169 304.95238095238096,647.2950693213583 306.4047619047619,663.1511332446768 307.8571428571429,633.1081473860007 309.3095238095238,635.8488798656817 310.76190476190476,642.1202978753349 312.21428571428567,644.8161118555144 313.66666666666663,634.4855040094978 315.1190476190476,637.6314523128666 316.57142857142856,637.5046554876865 318.0238095238095,621.7801162678281 319.4761904761905,612.3854945627778 320.92857142857144,619.8601001970413 322.3809523809524,627.5327648866485 323.83333333333337,653.7416488654592 325.28571428571433,650.2785624969953 326.73809523809524,646.8616705092006 328.1904761904762,644.6630944394781 329.6428571428571,665.2879353401127 331.0952380952381,660.011361445329 332.54761904761904,660.831909728066 334.0,659.699135190491 335.45238095238096,659.2533845771222 336.9047619047619,665.6523689688916 338.3571428571429,658.0920696235664 339.8095238095238,638.7162397236985 341.26190476190476,639.6860219365992 342.7142857142857,654.1124479714351 344.1666666666667,670.2976669619376 345.6190476190476,678.8328444039271 347.07142857142856,681.9023436908767 348.5238095238095,679.4826169679745 349.9761904761905,682.1009339553314 351.4285714285714,679.483097955066 352.8809523809524,678.7006604584982 354.3333333333333,679.2030295644159 355.7857142857143,684.3644073585756 357.23809523809524,673.0835310764899 358.6904761904762,675.340111363385 360.1428571428571,680.1604544850521 361.5952380952381,683.1446514656251 363.04761904761904,682.749491161161 364.5,682.5157881053598 365.95238095238096,681.4791984682258 367.4047619047619,680.8808100532879 368.85714285714283,684.0415013573478 370.3095238095238,681.1571746954121 371.76190476190476,678.5617343789247 373.2142857142857,656.9611835318004 374.6666666666667,658.5042949628121 376.1190476190476,655.8369535936156 377.57142857142856,657.3488439335969 379.0238095238095,661.80536156357 380.4761904761905,650.5361261017466 381.92857142857144,657.573904910106 383.3809523809524,709.8777635117087 384.8333333333333,692.2291492846733 386.2857142857143,699.7942525190974 387.73809523809524,695.1451693768763 389.1904761904762,699.6327973523089 390.64285714285717,698.4510407562151 392.09523809523813,710.0 393.54761904761904,701.1358669028523 395.0,700.3876689151696 396.45238095238096,701.1398282111937 397.90476190476187,699.4773979525686 399.35714285714283,692.9862419913402 400.8095238095238,695.8618611417392 402.26190476190476,694.2554199368925 403.71428571428567,696.7187603722329 405.1666666666667,693.3148761377099 406.61904761904765,693.5043425956491 408.0714285714286,686.6229090627093 409.5238095238095,692.1282681049586 410.9761904761905,700.0818723785837 412.42857142857144,702.8624230151638 413.8809523809524,698.0283350856133 415.3333333333333,697.7953328645953 416.7857142857143,697.6902626337583 418.23809523809524,698.7463949836988 419.69047619047615,699.8302636307442 421.1428571428571,700.546807688271 422.5952380952381,698.6880174006903 424.0476190476191,694.9605211155445 425.5,693.654904577166 426.95238095238096,691.4434455037385 428.4047619047619,686.9244728734841 429.8571428571429,675.4749513970818 431.3095238095238,657.3565788857591 432.76190476190476,654.5238708286373 434.2142857142857,661.2785170731318 435.6666666666667,642.6881658912934 437.1190476190476,644.6346335940478 438.57142857142856,650.0004781013364 440.0238095238095,645.2946184751447 441.4761904761904,647.2405852206375 442.92857142857144,648.4633124301292 444.3809523809524,639.4238462583851 445.83333333333337,639.1529784426473 447.2857142857143,643.6156285954323 448.73809523809524,639.3998129690726 450.1904761904762,654.1909583366099 451.64285714285717,654.3994911410865 453.0952380952381,656.9944351199313 454.54761904761904,634.6700027610683 456.0,632.2752359821433 457.4523809523809,634.4914013160194 458.90476190476187,635.2139954652994 460.35714285714283,637.9659982280302 461.80952380952385,645.1411863835164 463.2619047619048,641.0585739074036 464.7142857142857,638.2295520110164 466.1666666666667,650.2037867019221 467.61904761904765,650.2282869707205 469.07142857142856,651.4157504024499 470.5238095238095,667.7025520162799 471.9761904761905,663.4068401369357 473.42857142857144,634.625161467786 474.88095238095235,635.7408632025812 476.3333333333333,613.4291434744001 477.7857142857143,611.4582409266696 479.2380952380952,609.3644569579924 480.69047619047615,608.042846591235 482.14285714285717,616.7875021207936 483.59523809523813,620.1357359434509 485.0476190476191,609.7064354164689 486.5,607.2239927122594 487.95238095238096,610.2756407049708 489.4047619047619,604.9757300293244 490.85714285714283,605.3611682400608 492.3095238095238,607.3831019802607 493.76190476190476,596.0625173877397 495.2142857142857,594.4836839972857 496.66666666666663,579.2404760517122 498.1190476190476,578.6499018926716 499.57142857142856,579.4575628471747 501.0238095238096,599.6511308325846 502.4761904761905,606.2356717877625 503.92857142857144,609.769265586215 505.3809523809524,604.2833629498359 506.8333333333333,598.7034127900367 508.2857142857143,600.6104844495001 509.73809523809524,602.8987544431425 511.1904761904762,601.7112246848737 512.6428571428571,599.971148680641 514.0952380952381,608.5387505058216 515.547619047619,609.285654343908 517.0,614.6460800341742 518.452380952381,614.728942717158 519.9047619047619,612.7495449241671 521.3571428571429,614.9938488094309 522.8095238095239,612.7881693875943 524.2619047619048,613.784416827383 525.7142857142858,616.6146590477274 527.1666666666667,613.6537199577828 528.6190476190476,604.5351322373361 530.0714285714286,606.1727463649732 531.5238095238095,610.940956629119 532.9761904761905,608.6253595626193 534.4285714285713,616.6661081270474 535.8809523809523,613.8189253906261 537.3333333333333,613.034029633129 538.7857142857143,618.8097661406698 540.2380952380952,619.4874392098994 541.6904761904761,624.1058514690412 543.1428571428571,618.4736842012774 544.5952380952381,617.0826266244558 546.047619047619,600.7856254544332 547.5,598.6295196527027 548.952380952381,598.9595402086788 550.4047619047619,598.8396852252026 551.8571428571429,601.2179470104235 553.3095238095239,597.5738253474192 554.7619047619048,594.6893149181591 556.2142857142857,598.3910291176386 557.6666666666667,600.4967441328747 559.1190476190477,601.2998205918262 560.5714285714287,599.4897262118465 562.0238095238095,591.8239440718908 563.4761904761905,597.8808882959835 564.9285714285714,599.1559120948721 566.3809523809524,600.6814983807262 567.8333333333333,600.5639049700421 569.2857142857142,600.291517549008 570.7380952380952,603.683707036933 572.1904761904761,603.5529731968205 573.6428571428571,602.3663033928945 575.0952380952381,603.721129003112 576.547619047619,604.6091649630376 578.0,605.3145056193543 579.452380952381,605.3927211052317 580.9047619047619,602.4504213777807 582.3571428571429,603.4996661242454 583.8095238095239,603.5715832183847 585.2619047619048,603.8159208567437 586.7142857142858,607.135124957534 588.1666666666667,619.5896787112221 589.6190476190476,618.1545451003727 591.0714285714286,620.9682839722951 592.5238095238095,619.3299800849068 593.9761904761904,620.4639167177223 595.4285714285714,619.9246479030388 596.8809523809524,613.8887213890366 598.3333333333334,621.9514195075744 599.7857142857142,621.1026410673574 601.2380952380952,621.7129541336368 602.6904761904761,619.6601032162142 604.1428571428571,621.3305992283554 605.5952380952381,627.5945563329614 607.047619047619,621.498208853798 608.5,618.6555950523186 609.952380952381,619.8389932773305 611.4047619047619,616.7648333712023 612.8571428571428,621.7771387666014 614.3095238095239,621.1861450934316 615.7619047619048,622.3773086470909 617.2142857142858,621.620490830001 618.6666666666666,615.9399675289726 620.1190476190476,608.7655436799785 621.5714285714286,614.884498728384 623.0238095238095,617.5079107637415 624.4761904761905,614.4535692622359 625.9285714285714,618.7218080059969 627.3809523809524,621.808586303393 628.8333333333334,622.7497251154855 630.2857142857142,621.3249106249932 631.7380952380952,616.9562033087715 633.1904761904761,615.7688612766668 634.6428571428572,607.8429708601802 636.0952380952381,588.7653615123177 637.547619047619,582.9315691805034 639.0,585.2985876422931 640.452380952381,582.32638645275 641.9047619047619,580.6881422000221 643.3571428571429,580.7036112163214 644.8095238095239,576.7788505662539 646.2619047619047,574.1368200447762 647.7142857142857,573.3357311215636 649.1666666666666,557.90428467455 650.6190476190476,560.3553082859411 652.0714285714286,567.8494668698639 653.5238095238095,567.3479719214993 654.9761904761905,566.2050520040219 656.4285714285714,561.017744237206 657.8809523809524,558.9684750414604 659.3333333333334,557.2700957112481 660.7857142857143,558.9019823336614 662.2380952380952,558.7230386559703 663.6904761904761,558.7696757249283 665.1428571428571,549.3450120434674 666.5952380952381,539.9437717244143 668.047619047619,536.4193991182168 669.5,529.6061206571361 670.952380952381,530.7819830954413 672.4047619047619,542.721970498929 673.8571428571429,534.1743120858299 675.3095238095239,539.8659465220804 676.7619047619048,539.3333397016116 678.2142857142858,537.8125385576795 679.6666666666666,531.5852245840804 681.1190476190476,536.4153565065076 682.5714285714286,539.0282397734545 684.0238095238095,533.9144880900876 685.4761904761905,537.190343580542 686.9285714285714,530.0280676346927 688.3809523809524,539.0530783515296 689.8333333333333,533.627295633223 691.2857142857143,536.1729138554718 692.7380952380953,526.2872153758539 694.1904761904763,514.1686753742448 695.6428571428571,523.3587573921343 697.0952380952381,526.9119500173094 698.547619047619,525.6479325204336 700.0,529.5499028238603 701.452380952381,531.068419106047 702.9047619047619,543.0785530566811 704.3571428571429,543.898602928493 705.8095238095237,536.6391039397479 707.2619047619047,531.8081380668489 708.7142857142857,535.070414006406 710.1666666666666,532.5041771400765 711.6190476190476,534.7053178421091 713.0714285714286,529.972895413006 714.5238095238095,523.0039309017168 715.9761904761904,514.0881231967592 717.4285714285713,502.5229208030829 718.8809523809523,493.43721188117604 720.3333333333334,491.6801595583777 721.7857142857143,488.455949310583 723.2380952380953,482.6930992380445 724.6904761904763,486.71676165887874 726.1428571428572,485.13629565798146 727.5952380952382,471.4843829366115 729.047619047619,446.4361915623245 730.5,444.6898248199604 731.952380952381,441.1452543190889 733.4047619047619,437.2323050876617 734.8571428571429,418.88076200207786 736.3095238095239,414.3382656287567 737.7619047619048,401.4477666661078 739.2142857142857,401.5481443985874 740.6666666666666,418.2179465060852 742.1190476190476,424.1496059890768 743.5714285714286,453.97540849242625 745.0238095238095,434.39524888321904 746.4761904761905,443.34348750092835 747.9285714285714,421.38850578815635 749.3809523809523,425.8068482191248 750.8333333333333,424.45580632565947 752.2857142857142,416.64853677154537 753.7380952380952,441.6445877079225 755.1904761904761,433.7654536061892 756.6428571428571,432.03036816572103 758.0952380952382,411.9573022034415 759.5476190476192,420.174289441619 761.0,439.70277777922615 762.452380952381,445.9185858511324 763.9047619047619,453.12282476262965 765.3571428571429,454.644351703588 766.8095238095239,447.20055072509 768.2619047619048,441.0292432415192 769.7142857142858,449.68306897251006 771.1666666666666,451.22192621363916 772.6190476190476,445.5353570219952 774.0714285714286,464.1858673804651 775.5238095238095,469.10142496463175 776.9761904761905,450.4492304662196 778.4285714285714,455.237110698747 779.8809523809524,464.8598695819425 781.3333333333334,469.38577008773586 782.7857142857142,466.7259645556103 784.2380952380952,469.4048951009813 785.6904761904761,456.60325504533625 787.1428571428571,441.14798266626957 788.5952380952381,396.32859074418684 790.047619047619,396.90022935241825 791.5,398.6275727786215 792.9523809523808,393.210849178484 794.4047619047618,392.63688229836606 795.8571428571429,397.45544729684764 797.3095238095239,395.3879576633264 798.7619047619048,395.4825232961405 800.2142857142858,386.12894674859285 801.6666666666667,398.40234077380876 803.1190476190477,396.43927730898946 804.5714285714286,410.21656702350606 806.0238095238095,412.6234962737605 807.4761904761905,409.2927140460904 808.9285714285714,411.21897444931614 810.3809523809524,411.98604382073296 811.8333333333334,415.2943178682094 813.2857142857143,421.1689004126472 814.7380952380952,424.89957615095574 816.1904761904761,422.9747560330044 817.6428571428571,427.7178669700641 819.0952380952381,420.5934295205862 820.547619047619,433.3594030413604 822.0,456.0858320110885 823.452380952381,460.5092491752978 824.9047619047618,447.9025268665406 826.3571428571428,447.9674389890624 827.8095238095237,439.1379539806217 829.2619047619047,408.9875636203806 830.7142857142857,415.60340952684845 832.1666666666666,403.18172695502045 833.6190476190477,398.1663081213219 835.0714285714287,405.93274029806105 836.5238095238096,420.7179313239373 837.9761904761905,412.2592575093775 839.4285714285714,411.2806078673729 840.8809523809524,420.70001895483966 842.3333333333334,441.1515912327297 843.7857142857143,465.65732014917 845.2380952380953,484.3086445253043 846.6904761904763,456.1321071132146 848.1428571428571,462.97358349293415 849.5952380952381,458.7887239268571 851.047619047619,464.7555393046105 852.5,469.1034027704758 853.952380952381,468.82645551131975 855.4047619047619,470.28860504763065 856.8571428571429,463.3227100672668 858.3095238095237,443.42903941020495 859.7619047619047,453.22069787495013 861.2142857142857,473.8056932777008 862.6666666666666,473.8528976661572 864.1190476190476,485.76133344348517 865.5714285714286,485.4821597346009 867.0238095238095,492.9413887387484 868.4761904761904,505.01325547520844 869.9285714285713,491.3472575846475 871.3809523809523,492.1372264570126 872.8333333333334,476.6857660561259 874.2857142857143,489.73638058825327 875.7380952380953,484.87830019365583 877.1904761904763,468.93523545693665 878.6428571428572,456.5851520556206 880.0952380952382,454.05052394873445 881.547619047619,459.76355653238164 883.0,444.38357324442 884.452380952381,447.7343577903414 885.9047619047619,475.5818827054211 887.3571428571429,483.2275834767848 888.8095238095239,475.0919523899073 890.2619047619048,474.1788045429786 891.7142857142857,482.18602401836165 893.1666666666666,472.09067944738734 894.6190476190476,469.07085459967584 896.0714285714286,448.1807308247131 897.5238095238095,447.4797577441079 898.9761904761905,441.8350818951764 900.4285714285714,442.9468248009609 901.8809523809523,455.82078939947553 903.3333333333333,462.5463530389975 904.7857142857142,453.91638037647806 906.2380952380952,432.09987174094107 907.6904761904761,447.6946763333397 909.1428571428571,451.3708508948402 910.5952380952382,462.5617335602053 912.0476190476192,418.37700807425557 913.5,397.63386848745677 914.952380952381,371.1732017724442 916.4047619047619,348.4084007746847 917.8571428571429,364.2625791645041 919.3095238095239,350.98572639121124 920.7619047619048,345.6873640294913 922.2142857142858,346.9838741794065 923.6666666666666,317.638327950874 925.1190476190476,317.3891642232581 926.5714285714286,333.64638530784697 928.0238095238095,307.25622834889276 929.4761904761905,296.80014372363064 930.9285714285714,302.13310968524564 932.3809523809524,283.70700264635616 933.8333333333334,271.3647261358635 935.2857142857142,268.9570392926245 936.7380952380952,299.4336181928445 938.1904761904761,278.7884441817733 939.6428571428571,277.2484758442896 941.0952380952381,262.74580113955943 942.547619047619,292.62287817999896 944.0,304.9638808072619 945.4523809523808,319.71859076643574 946.9047619047618,302.1054914351255 948.3571428571429,315.7149232576165 949.8095238095239,312.83696539714623 951.2619047619048,319.5489228491371 952.7142857142858,316.60956289122197 954.1666666666667,294.67116895693596 955.6190476190477,292.6710598126994 957.0714285714286,309.8623294145584 958.5238095238095,327.0928816017839 959.9761904761905,319.67259607972477 961.4285714285714,328.78525887014735 962.8809523809524,297.63431872631776 964.3333333333334,289.4471787999137 965.7857142857143,311.4799774915105 967.2380952380952,294.9125528031543 968.6904761904761,298.11594033745604 970.1428571428571,298.1086753740913 971.5952380952381,312.55822304951283 973.047619047619,314.57103354342615 974.5,302.84658956313734 975.952380952381,343.5070127966004 977.4047619047618,354.2668028855284 978.8571428571428,360.21906537380715 980.3095238095237,365.27083809785483 981.7619047619047,360.8858090276016 983.2142857142857,352.8713991311261 984.6666666666666,354.6597695314716 986.1190476190477,363.3124812181765 987.5714285714287,363.3213264249809 989.0238095238096,351.96767990680365 990.4761904761905,352.61651767078087 991.9285714285714,385.7170178659025 993.3809523809524,416.17113924014274 994.8333333333334,425.2768715313795 996.2857142857143,380.010010440517 997.7380952380953,426.96115254973034 999.1904761904763,419.07392571468546 1000.6428571428571,425.45605836746194 1002.0952380952381,474.64800493058556 1003.547619047619,460.93389133998136 1005.0,459.9576642914331 1006.452380952381,465.27269994236076 1007.9047619047619,459.8307769889245 1009.3571428571429,451.1201887074308 1010.8095238095237,451.97694921236206 1012.2619047619047,433.1670792414768 1013.7142857142857,443.0353751285497 1015.1666666666666,461.3899067026914 1016.6190476190476,475.98345707602743 1018.0714285714286,458.67993127457976 1019.5238095238095,473.5704377975728 1020.9761904761904,474.46537152708186 1022.4285714285713,514.6654564687108 1023.8809523809523,493.59235886692784 1025.3333333333335,505.5631612076055 1026.7857142857142,500.9551804906879 1028.2380952380954,502.22039006457214 1029.6904761904761,500.53055360339283 1031.1428571428573,496.5800635704486 1032.595238095238,496.64146284543375 1034.047619047619,457.877271420611 1035.5,457.48672141933594 1036.952380952381,458.3307710474162 1038.404761904762,456.6612348224298 1039.857142857143,447.4999921555942 1041.3095238095239,449.2708572491452 1042.7619047619048,453.0215221867996 1044.2142857142858,450.125910149306 1045.6666666666665,370.8089760511002 1047.1190476190477,346.89885978040456 1048.5714285714284,325.5669499385264 1050.0238095238096,343.1061848146889 1051.4761904761904,353.59407871496774 1052.9285714285716,342.53356799730886 1054.3809523809523,332.47181613885505 1055.8333333333333,339.7788214548662 1057.2857142857142,333.52494602520414 1058.7380952380952,319.46188956166765 1060.1904761904761,329.29697782284995 1061.642857142857,344.1397316047929 1063.095238095238,331.61489046055567 1064.5476190476193,333.6415805362085 1066.0,351.17233735144515 1067.452380952381,344.5597038806834 1068.904761904762,297.19924972501116 1070.357142857143,327.47243760357355 1071.8095238095239,342.3737128871326 1073.2619047619048,338.24579033926364 1074.7142857142858,344.1590778883036 1076.1666666666665,362.2309884549604 1077.6190476190477,389.3663920019323 1079.0714285714284,351.81552642815484 1080.5238095238096,354.4713229236384 1081.9761904761904,351.367314752811 1083.4285714285716,345.3340019721901 1084.8809523809523,331.3714022129825 1086.3333333333335,340.92142914430565 1087.7857142857142,330.8368507360408 1089.2380952380952,325.38227528285796 1090.6904761904761,269.8374357956386 1092.142857142857,268.2219159827263 1093.595238095238,255.0023427100988 1095.047619047619,211.24413622647353 1096.5,190.37465798236383 1097.9523809523807,166.89733406208302 1099.404761904762,163.61135391117944 1100.857142857143,170.35290831466432 1102.3095238095239,167.7059880280275 1103.7619047619048,162.38149806393096 1105.2142857142858,161.81642302996545 1106.6666666666667,195.98400859993353 1108.1190476190477,193.55463450900083 1109.5714285714284,184.88320896423613 1111.0238095238096,157.01880004493535 1112.4761904761904,133.41507636809592 1113.9285714285716,132.48348359660486 1115.3809523809523,90.0 1116.8333333333333,119.26784283890584 1118.2857142857142,117.14070100365393 1119.7380952380952,148.73169628770836 1121.1904761904761,140.4685809520214 1122.642857142857,103.43639995117667 1124.095238095238,134.54035725114136 1125.547619047619,125.5082174585956 1127.0,138.11040901811668 1128.452380952381,136.62094564299855 1129.904761904762,135.25249436154184 1131.357142857143,137.57524462266088 1132.8095238095239,139.65237071212357 1134.2619047619048,135.02385722954796 1135.7142857142856,129.67196055910142 1137.1666666666665,107.43424297211743 1138.6190476190477,114.23411766954837 1140.0714285714287,116.99619308408398 1141.5238095238096,112.17905375403495 1142.9761904761906,119.70818912836432 1144.4285714285716,138.5499873460975 1145.8809523809525,139.99270527967792 1147.3333333333333,151.82789019836332 1148.7857142857142,142.18072675640565 1150.2380952380952,138.9790540738187 1151.6904761904761,110.84718704182092 1153.142857142857,107.71043192865739 1154.595238095238,94.0045553208796 1156.047619047619,104.34184193365763 1157.5,156.4408538638137 1158.952380952381,136.33906798839234 1160.404761904762,141.2222356699442 1161.857142857143,161.3629694840314 1163.3095238095239,163.28359246574132 1164.7619047619048,152.5986161596287 1166.2142857142858,167.45367102032878 1167.6666666666667,153.9469799083447 1169.1190476190475,134.8076015720394 1170.5714285714284,147.9482403461351 1172.0238095238094,166.66481143965996 1173.4761904761904,159.36103589553454 1174.9285714285713,182.21979141331371 1176.3809523809523,198.63998183704535 1177.8333333333335,199.19476264955915 1179.2857142857144,186.3241173490236 1180.7380952380952,201.35348205905132 1182.1904761904761,222.06614597244737 1183.642857142857,235.9071536538582 1185.095238095238,254.37133874834996 1186.547619047619,256.2685385025317 1188.0,292.8762491774718 1189.452380952381,285.4342130609663 1190.904761904762,269.9955384386767 1192.357142857143,254.82475806533733 1193.8095238095239,258.3084161674413 1195.2619047619048,287.53402389199454 1196.7142857142858,232.72217356340127 1198.1666666666667,258.8595557471698 1199.6190476190477,252.55493743337325 1201.0714285714284,222.5053003258747 1202.5238095238094,230.51869725821302 1203.9761904761904,248.05670357587633 1205.4285714285713,272.3395738704956 1206.8809523809523,285.30513437605657 1208.3333333333333,266.62833587518037 1209.7857142857142,262.98435673536164 1211.2380952380952,269.8067597553438 1212.6904761904761,276.1759415768454 1214.142857142857,270.33479981439774 1215.595238095238,273.34226754503237 1217.047619047619,269.25046848538267 1218.5,247.86339935955976 1219.952380952381,242.1218927312499 1221.404761904762,221.90187402202866 1222.857142857143,247.03437861172694 1224.3095238095239,250.79234762847733 1225.7619047619048,247.76668558534385 1227.2142857142858,207.7611925471253 1228.6666666666667,217.24404745910277 1230.1190476190477,223.36244750500788 1231.5714285714287,270.01379356184015 1233.0238095238096,265.7471931133216 1234.4761904761904,266.8055041161978 1235.9285714285713,271.08174864398893 1237.3809523809523,261.2045932617053 1238.8333333333333,303.1335363986162 1240.2857142857142,363.5788081516172 1241.7380952380952,370.5761462562356 1243.1904761904761,446.48944748543505 1244.642857142857,401.21831917739274 1246.095238095238,396.9702871407657 1247.547619047619,423.65139546207854 1249.0,406.5145555421343 1250.452380952381,416.0361611783899 1251.904761904762,416.6132938076397 1253.357142857143,422.9555391333454 1254.8095238095239,417.37551519816344 1256.2619047619048,440.26679955640617 1257.7142857142858,407.12497054192096 1259.1666666666667,428.16860194494933 1260.6190476190477,427.2163520261063 1262.0714285714287,415.1048404421097 1263.5238095238096,397.4399581107659 1264.9761904761906,419.60679751938454 1266.4285714285716,413.6140788025178 1267.8809523809523,401.7560882693499 1269.3333333333333,394.92433030988286 1270.7857142857142,379.5748167921733 1272.2380952380952,359.9723086203062 1273.6904761904761,392.496187071576 1275.142857142857,401.6261816942015 1276.595238095238,388.2246842195654 1278.047619047619,385.107977543003 1279.5,419.7725398102771 1280.952380952381,421.8889544706884 1282.404761904762,401.26865353079603 1283.857142857143,410.52943301287553 1285.3095238095239,408.4246662053881 1286.7619047619048,399.0471201514565 1288.2142857142856,382.9622884526505 1289.6666666666665,370.9627322450244 1291.1190476190477,383.69661535623675 1292.5714285714287,358.45407579134536 1294.0238095238096,352.7214495901614 1295.4761904761906,350.79032363183194 1296.9285714285716,354.7899275147296 1298.3809523809525,341.04063302951965 1299.8333333333333,350.2052827828556 1301.2857142857142,340.30497867290336 1302.7380952380952,356.56194316041694 1304.1904761904761,360.4673691603787 1305.642857142857,346.66553070853536 1307.095238095238,339.8097204414745 1308.547619047619,334.93445966619237 1310.0,343.66516943461966" fill="none" stroke="#9333ea" stroke-width="2.5"><title>budgeted_drawdown_tilt_rebalance | end=2026-05-08 | return=20.52%</title></polyline>
<polyline points="90.0,430.3313523556683 91.45238095238095,430.09111199248434 92.9047619047619,429.16709697455593 94.35714285714286,428.16838218401494 95.80952380952381,427.91731123188504 97.26190476190476,427.2830577805676 98.71428571428571,426.6513283174099 100.16666666666667,421.46121488097197 101.61904761904762,421.83498402634206 103.07142857142857,419.6404463281814 104.52380952380952,418.6173963389776 105.97619047619048,417.5707423029487 107.42857142857143,415.25821824008364 108.88095238095238,424.39202641811676 110.33333333333333,411.8923570492217 111.78571428571428,415.28512008761925 113.23809523809524,407.25808922895783 114.69047619047619,410.5219568076971 116.14285714285714,410.7031882238524 117.5952380952381,396.71478276604836 119.04761904761905,404.3121349461821 120.5,404.5420452516533 121.95238095238095,403.56594059831326 123.4047619047619,422.2085500941385 124.85714285714286,432.763073722241 126.30952380952381,416.39634621555524 127.76190476190476,431.7271932034543 129.21428571428572,424.6278322737124 130.66666666666666,438.00261015311713 132.11904761904762,422.9857504958642 133.57142857142856,412.6421681054024 135.02380952380952,417.731827153779 136.47619047619048,447.3677585904804 137.92857142857144,435.8263634901706 139.38095238095238,432.46740089482734 140.83333333333331,462.43460305589036 142.28571428571428,445.375136361739 143.73809523809524,461.86471578376216 145.1904761904762,459.1360809803246 146.64285714285714,460.8820512081365 148.0952380952381,461.49610854556283 149.54761904761904,455.46393629384517 151.0,446.33238492213053 152.45238095238096,445.65002765052986 153.9047619047619,467.50770222019344 155.35714285714283,472.7432420364089 156.8095238095238,468.4124787832286 158.26190476190476,471.64683260595615 159.71428571428572,490.6558830701837 161.16666666666669,512.35230077144 162.61904761904762,513.9039859455146 164.07142857142856,507.2305907389057 165.52380952380952,507.61667772459157 166.97619047619048,502.00852340209366 168.42857142857142,510.08168504627736 169.88095238095238,517.7227278428824 171.33333333333331,556.7170951640035 172.78571428571428,558.5462154878469 174.23809523809524,560.7716006369465 175.6904761904762,561.9741253826287 177.14285714285714,550.5646820640932 178.5952380952381,545.5198704445708 180.04761904761904,549.8732059979372 181.5,522.2068405621126 182.95238095238096,517.1780065852618 184.40476190476193,509.8639356325102 185.85714285714286,513.5120486036878 187.3095238095238,524.4887706457087 188.76190476190476,523.1655678463718 190.21428571428572,510.1060309499263 191.66666666666666,537.2188468776985 193.11904761904762,549.127903723228 194.57142857142856,548.7072861818617 196.02380952380952,550.4805394725801 197.47619047619048,539.3454586385575 198.92857142857144,521.9170262377656 200.38095238095238,518.813213293581 201.83333333333331,547.114319250514 203.28571428571428,552.6453908096751 204.73809523809524,550.4843968876622 206.1904761904762,547.1713024659446 207.64285714285717,550.6911423463296 209.0952380952381,547.4527181752946 210.54761904761904,534.5570773854571 212.0,524.7338006624659 213.45238095238096,529.7953526297035 214.9047619047619,521.6354644223709 216.35714285714286,510.40167642512813 217.8095238095238,507.3802336501908 219.26190476190476,491.36744447979845 220.7142857142857,488.94082411580956 222.16666666666666,487.4629629435779 223.61904761904762,483.84370903257343 225.07142857142856,491.93971630850336 226.52380952380952,506.1079015993894 227.97619047619048,506.29276590336394 229.42857142857142,528.4380954137133 230.88095238095238,517.3909053994244 232.33333333333334,522.8222050981586 233.78571428571428,527.6210553773716 235.23809523809524,517.3123524087445 236.6904761904762,525.8086965419884 238.14285714285714,530.9105333377103 239.5952380952381,524.7567035066345 241.04761904761907,533.6304455662944 242.5,538.9329248218309 243.95238095238093,538.8452357022791 245.4047619047619,542.9824206572782 246.85714285714283,547.6364048606004 248.30952380952382,555.9930316594864 249.76190476190476,589.9315837648825 251.21428571428572,600.3432554012167 252.66666666666666,603.1849497442207 254.11904761904762,591.1085216396791 255.57142857142856,596.0214608614992 257.0238095238095,599.9238049097983 258.4761904761905,604.3693733605095 259.92857142857144,605.2790975510269 261.3809523809524,605.708845952445 262.83333333333337,618.7637559634135 264.2857142857143,612.3064770981767 265.7380952380952,599.9019479322324 267.1904761904762,608.7268700357093 268.6428571428571,611.6813435384598 270.0952380952381,605.12388462965 271.54761904761904,611.4579078640572 273.0,620.7641152277066 274.45238095238096,638.4849502263689 275.9047619047619,661.024119008446 277.3571428571429,672.4846676826343 278.80952380952385,679.7586970376145 280.26190476190476,669.0478130270977 281.7142857142857,674.4052663735373 283.16666666666663,662.471384261731 284.6190476190476,664.3310494218819 286.07142857142856,669.0187500500891 287.5238095238095,673.3108264888127 288.9761904761905,675.4763885221272 290.42857142857144,668.7600937815539 291.8809523809524,666.1422475577277 293.3333333333333,662.1178702982656 294.7857142857143,666.2484015100312 296.23809523809524,676.6795856384983 297.6904761904762,665.7018976137144 299.1428571428571,656.0299408770879 300.5952380952381,641.6465876066953 302.04761904761904,642.5528622033203 303.5,643.2463803635894 304.95238095238096,640.4340305474748 306.4047619047619,651.1737800123816 307.8571428571429,630.8567984375491 309.3095238095238,632.7232262065855 310.76190476190476,637.0257768375761 312.21428571428567,638.7680046233498 313.66666666666663,631.6342966094454 315.1190476190476,633.8095297001308 316.57142857142856,633.7125556300025 318.0238095238095,622.8660342328966 319.4761904761905,616.4013535133207 320.92857142857144,621.5629004720405 322.3809523809524,626.7160985241121 323.83333333333337,644.3480771441527 325.28571428571433,642.1499786213697 326.73809523809524,639.7328457905177 328.1904761904762,638.187743267564 329.6428571428571,652.2300782061636 331.0952380952381,648.5852800116767 332.54761904761904,649.0774419637455 334.0,648.2395972547077 335.45238095238096,647.9428441426053 336.9047619047619,652.0229000660134 338.3571428571429,646.8650016421454 339.8095238095238,634.0080710272229 341.26190476190476,634.9757434836306 342.7142857142857,644.3839651738452 344.1666666666667,655.6912919065616 345.6190476190476,661.5949836211375 347.07142857142856,663.5676374884029 348.5238095238095,662.0492050928611 349.9761904761905,663.725624530404 351.4285714285714,661.9848273277084 352.8809523809524,661.4992546206777 354.3333333333333,661.8604125374356 355.7857142857143,665.3800187957471 357.23809523809524,657.8682620401801 358.6904761904762,659.325197293964 360.1428571428571,662.5362086073887 361.5952380952381,664.5433750507838 363.04761904761904,664.2720414252391 364.5,664.1147180462656 365.95238095238096,663.4126160510216 367.4047619047619,663.0127032082761 368.85714285714283,665.1450150941644 370.3095238095238,663.1637994524915 371.76190476190476,661.3703251684151 373.2142857142857,646.6067777838085 374.6666666666667,647.6337227771803 376.1190476190476,645.7562341653786 377.57142857142856,646.7709367811276 379.0238095238095,649.8263563182577 380.4761904761905,642.250955929103 381.92857142857144,646.9729186760566 383.3809523809524,682.2723242929333 384.8333333333333,670.1878217358853 386.2857142857143,675.281409121931 387.73809523809524,672.2030452852327 389.1904761904762,675.3086305643145 390.64285714285717,674.4723446147738 392.09523809523813,682.3096830018658 393.54761904761904,676.3385932584989 395.0,675.7800902058505 396.45238095238096,676.2789710914485 397.90476190476187,675.1079587703965 399.35714285714283,670.7116697757383 400.8095238095238,672.7147592394651 402.26190476190476,671.6056026661438 403.71428571428567,673.3037175579949 405.1666666666667,671.0007209209979 406.61904761904765,671.1180001706996 408.0714285714286,666.4997094611521 409.5238095238095,670.2449806752298 410.9761904761905,675.664807030136 412.42857142857144,677.5067958050059 413.8809523809524,674.2264907245909 415.3333333333333,674.0429807800559 416.7857142857143,673.9878956473502 418.23809523809524,674.6874626400976 419.69047619047615,675.4287570971787 421.1428571428571,675.9001008333672 422.5952380952381,674.6342323014354 424.0476190476191,672.0597097695546 425.5,671.1734355759107 426.95238095238096,669.6728484401465 428.4047619047619,666.5902043740822 429.8571428571429,659.0031331340215 431.3095238095238,646.9547485277917 432.76190476190476,645.0339583625589 434.2142857142857,649.6277067429701 435.6666666666667,637.2024476752431 437.1190476190476,638.598293116059 438.57142857142856,642.3704315094266 440.0238095238095,639.176295354556 441.4761904761904,640.5618567711813 442.92857142857144,641.3560553472214 444.3809523809524,635.2880469189853 445.83333333333337,634.983170871519 447.2857142857143,637.9590905309758 448.73809523809524,635.0874921372119 450.1904761904762,645.027138235826 451.64285714285717,645.1984487360696 453.0952380952381,647.0090239036624 454.54761904761904,632.1416384410193 456.0,630.5378702061449 457.4523809523809,631.9972749478611 458.90476190476187,632.573880838372 460.35714285714283,634.3326628193354 461.80952380952385,639.1233428525895 463.2619047619048,636.3541388064529 464.7142857142857,634.4029079629138 466.1666666666667,642.4106246973031 467.61904761904765,642.4558160280136 469.07142857142856,643.2096071766987 470.5238095238095,654.064153427722 471.9761904761905,651.1154801208668 473.42857142857144,632.0691372353775 474.88095238095235,632.9182859149842 476.3333333333333,618.2603420248812 477.7857142857143,617.088464886004 479.2380952380952,615.6621882476494 480.69047619047615,614.7802610481458 482.14285714285717,620.6525468156557 483.59523809523813,622.8956758631981 485.0476190476191,615.9613284759066 486.5,614.2455001203946 487.95238095238096,616.3006403271763 489.4047619047619,612.542565272599 490.85714285714283,612.7685012311844 492.3095238095238,614.1656225878444 493.76190476190476,606.7809759943977 495.2142857142857,605.7564782724971 496.66666666666663,595.1740614897785 498.1190476190476,594.6933374025987 499.57142857142856,595.2906845993698 501.0238095238096,608.7958525979939 502.4761904761905,613.3013767245352 503.92857142857144,615.6903776589123 505.3809523809524,612.1441033805704 506.8333333333333,608.531767104095 508.2857142857143,609.8486926147907 509.73809523809524,611.2596473858121 511.1904761904762,610.4828803962239 512.6428571428571,609.2670602387491 514.0952380952381,614.8858390093442 515.547619047619,615.3974426762802 517.0,619.1584648358332 518.452380952381,619.259309876751 519.9047619047619,617.7719592422919 521.3571428571429,619.4995411013349 522.8095238095239,617.8067559882903 524.2619047619048,618.5738461086255 525.7142857142858,620.8002813547764 527.1666666666667,618.4178726433273 528.6190476190476,611.1046080112545 530.0714285714286,612.4336542619587 531.5238095238095,616.4751474331624 532.9761904761905,614.4302751494653 534.4285714285713,621.6138869813065 535.8809523809523,619.0838189528199 537.3333333333333,618.366267481822 538.7857142857143,623.8092779880309 540.2380952380952,624.4553095061017 541.6904761904761,628.8175110732285 543.1428571428571,623.5620483532966 544.5952380952381,622.2769401223829 546.047619047619,607.1277523784092 547.5,605.1208148074555 548.952380952381,605.4214117274148 550.4047619047619,605.3223362108777 551.8571428571429,607.6895328926147 553.3095238095239,604.0363813184249 554.7619047619048,601.128804985176 556.2142857142857,604.8922485224871 557.6666666666667,607.0453664352917 559.1190476190477,607.8726889099939 560.5714285714287,605.9957917032368 562.0238095238095,598.0873970475101 563.4761904761905,604.4070930709702 564.9285714285714,605.733395418519 566.3809523809524,607.3265576505565 567.8333333333333,607.2059904176408 569.2857142857142,606.9092508976508 570.7380952380952,610.713064415946 572.1904761904761,610.5809365323672 573.6428571428571,609.301126242813 575.0952380952381,610.7533298088454 576.547619047619,611.7007447087735 578.0,612.464568102544 579.452380952381,612.5579269599086 580.9047619047619,609.2538119301264 582.3571428571429,610.4615248203056 583.8095238095239,610.5388277068631 585.2619047619048,610.79732560349 586.7142857142858,614.4895811772249 588.1666666666667,628.3460125308488 589.6190476190476,626.8838721947945 591.0714285714286,629.5710963013466 592.5238095238095,628.0709822937953 593.9761904761904,629.1311530402502 595.4285714285714,628.6212501140334 596.8809523809524,622.8571177722379 598.3333333333334,630.5259198699736 599.7857142857142,629.7136393275325 601.2380952380952,630.3165374981729 602.6904761904761,628.3302706371367 604.1428571428571,629.9396318652316 605.5952380952381,635.7634155672245 607.047619047619,630.2240293927715 608.5,627.6808461475214 609.952380952381,628.7126390102029 611.4047619047619,625.8738657559807 612.8571428571428,630.3547055786332 614.3095238095239,629.8673813589792 615.7619047619048,630.9342182540604 617.2142857142858,630.3205626899904 618.6666666666666,625.6808066122072 620.1190476190476,619.6794858205013 621.5714285714286,624.6760082697681 623.0238095238095,626.7382716115586 624.4761904761905,624.1325369940414 625.9285714285714,627.6265485288365 627.3809523809524,630.2756290308962 628.8333333333334,630.9339666475897 630.2857142857142,629.7633319530792 631.7380952380952,626.0124609326322 633.1904761904761,624.9970472750335 634.6428571428572,618.9035215797007 636.0952380952381,603.9354642077154 637.547619047619,599.0074480689477 639.0,601.036905515255 640.452380952381,598.5650058313031 641.9047619047619,597.358769139008 643.3571428571429,597.1516224507396 644.8095238095239,594.2759654491141 646.2619047619047,592.3728065054114 647.7142857142857,591.3193419543044 649.1666666666666,578.1390406365074 650.6190476190476,580.2571373209271 652.0714285714286,587.5136675021528 653.5238095238095,586.6066092242145 654.9761904761905,585.3011895664101 656.4285714285714,580.2120359787064 657.8809523809524,578.5118965059401 659.3333333333334,576.7784292590718 660.7857142857143,578.441859978389 662.2380952380952,578.0131496491399 663.6904761904761,578.1312650749057 665.1428571428571,568.2137214021752 666.5952380952381,557.7256132286628 668.047619047619,553.210376571339 669.5,546.403440524535 670.952380952381,547.8033549944699 672.4047619047619,560.969490137811 673.8571428571429,551.5677785687017 675.3095238095239,557.7266727492861 676.7619047619048,556.9508087434908 678.2142857142858,554.8201302497239 679.6666666666666,548.3404800020537 681.1190476190476,553.8262403977236 682.5714285714286,556.7854599203895 684.0238095238095,551.5309675676951 685.4761904761905,555.1537103960419 686.9285714285714,546.5872525942311 688.3809523809524,556.708892792312 689.8333333333333,550.3396646547383 691.2857142857143,553.1170112850743 692.7380952380953,541.5973555117826 694.1904761904763,528.8545226216759 695.6428571428571,540.461940949811 697.0952380952381,544.4662475988753 698.547619047619,542.9684051256452 700.0,547.7739443672297 701.452380952381,549.5059445095559 702.9047619047619,563.7318449904301 704.3571428571429,564.5973078394642 705.8095238095237,556.2176797923637 707.2619047619047,550.720049884326 708.7142857142857,554.4351040162575 710.1666666666666,551.4858224620881 711.6190476190476,554.0573851305434 713.0714285714286,548.8845942488787 714.5238095238095,540.5762102704971 715.9761904761904,530.0738408427314 717.4285714285713,516.9003424829658 718.8809523809523,506.3831710899025 720.3333333333334,504.37233812335774 721.7857142857143,500.96998982532364 723.2380952380953,494.76883629557915 724.6904761904763,499.6336640083414 726.1428571428572,497.75519509081613 727.5952380952382,481.3049661735961 729.047619047619,449.7783310911665 730.5,447.84400847252056 731.952380952381,443.49022109883697 733.4047619047619,438.7091942851757 734.8571428571429,416.0192661640523 736.3095238095239,410.0424283996862 737.7619047619048,393.23663819388173 739.2142857142857,392.95658471894103 740.6666666666666,414.6161171945273 742.1190476190476,422.29946465134185 743.5714285714286,461.26548393484995 745.0238095238095,436.7225664574354 746.4761904761905,447.86585469482765 747.9285714285714,420.255888539901 749.3809523809523,425.4746178530114 750.8333333333333,423.6874869510804 752.2857142857142,413.92845353088387 753.7380952380952,446.2620298362204 755.1904761904761,435.41011343400504 756.6428571428571,433.2847267694492 758.0952380952382,410.8646059106391 759.5476190476192,420.04893604647566 761.0,443.0848616088789 762.452380952381,450.46267020169967 763.9047619047619,459.15943262021415 765.3571428571429,460.847216273702 766.8095238095239,452.80673660435735 768.2619047619048,445.5275236366391 769.7142857142858,455.609697950419 771.1666666666666,457.4513890015537 772.6190476190476,453.58073278636203 774.0714285714286,471.4019227933908 775.5238095238095,476.8849700044907 776.9761904761905,457.5334290968116 778.4285714285714,461.98139579032255 779.8809523809524,471.4950494990376 781.3333333333334,475.29382057405815 782.7857142857142,472.61669139069966 784.2380952380952,474.39536893987224 785.6904761904761,461.0659976644147 787.1428571428571,448.65768436255246 788.5952380952381,412.83635160444413 790.047619047619,416.26840527153536 791.5,418.25335914806993 792.9523809523808,414.3758586881483 794.4047619047618,414.1249353342448 795.8571428571429,418.0102239283259 797.3095238095239,417.002456545917 798.7619047619048,415.90818722516724 800.2142857142858,404.8923833763254 801.6666666666667,418.0350913877984 803.1190476190477,415.88029381110556 804.5714285714286,431.30003270621 806.0238095238095,434.20486045703694 807.4761904761905,431.72272459124645 808.9285714285714,433.2345506709757 810.3809523809524,435.6240067212648 811.8333333333334,439.71273928699844 813.2857142857143,446.4895545362862 814.7380952380952,451.5152295527154 816.1904761904761,449.7585345191092 817.6428571428571,454.9813441116061 819.0952380952381,446.5900161151147 820.547619047619,460.6349523173527 822.0,484.1013931713579 823.452380952381,488.55656389163386 824.9047619047618,476.3987357544087 826.3571428571428,476.9976062608026 827.8095238095237,468.25514994528476 829.2619047619047,439.03151648929935 830.7142857142857,445.21204924953264 832.1666666666666,432.6170083777733 833.6190476190477,427.1212103698194 835.0714285714287,435.7527276503672 836.5238095238096,449.54372573721304 837.9761904761905,440.3841905758777 839.4285714285714,440.58873064151936 840.8809523809524,450.3787582365543 842.3333333333334,470.011171505415 843.7857142857143,492.1485821501874 845.2380952380953,507.7922844274751 846.6904761904763,482.3154648954361 848.1428571428571,487.64168317085455 849.5952380952381,487.1958685373053 851.047619047619,491.73262944394753 852.5,494.1219744613021 853.952380952381,494.56748665817616 855.4047619047619,494.6592590424042 856.8571428571429,488.64396429524606 858.3095238095237,471.6630118612262 859.7619047619047,479.25224711901035 861.2142857142857,496.51153990960194 862.6666666666666,496.4438702093514 864.1190476190476,505.8681762969459 865.5714285714286,505.4658648010536 867.0238095238095,511.59590844782804 868.4761904761904,521.3311098030242 869.9285714285713,509.41085755692006 871.3809523809523,509.4200657425176 872.8333333333334,496.10445305609187 874.2857142857143,505.4995436802514 875.7380952380953,501.04098867609156 877.1904761904763,488.2385964118159 878.6428571428572,480.71728509316875 880.0952380952382,479.3284736060736 881.547619047619,482.83936366187925 883.0,470.3378472718779 884.452380952381,472.49443865443453 885.9047619047619,495.12596268732057 887.3571428571429,499.4853975381458 888.8095238095239,493.0174334710013 890.2619047619048,492.28802034266533 891.7142857142857,499.1427572164978 893.1666666666666,490.65236075103155 894.6190476190476,488.4816912988069 896.0714285714286,470.62787784500665 897.5238095238095,469.7316519312036 898.9761904761905,465.1640044046957 900.4285714285714,467.2675091483467 901.8809523809523,475.58080507066614 903.3333333333333,479.41124422901976 904.7857142857142,472.56043667393567 906.2380952380952,453.35801211171247 907.6904761904761,465.78890212236246 909.1428571428571,469.07291512902646 910.5952380952382,477.6131391399475 912.0476190476192,441.4033008675355 913.5,428.4159086056768 914.952380952381,407.9409996900618 916.4047619047619,383.92899076896305 917.8571428571429,394.0435533623282 919.3095238095239,381.52592088083145 920.7619047619048,378.5997084340677 922.2142857142858,373.66619891656666 923.6666666666666,349.4038139832804 925.1190476190476,350.751781512594 926.5714285714286,369.677138805685 928.0238095238095,348.1051079660688 929.4761904761905,340.34679339007334 930.9285714285714,344.71093713122815 932.3809523809524,328.0582122775976 933.8333333333334,317.870734077634 935.2857142857142,314.225878319105 936.7380952380952,342.8946354432853 938.1904761904761,322.30759129924513 939.6428571428571,319.1775667521362 941.0952380952381,301.032253122563 942.547619047619,333.5761557785487 944.0,347.0141324338142 945.4523809523808,362.9192049993583 946.9047619047618,343.83668282952624 948.3571428571429,358.9688563663175 949.8095238095239,357.25834361726504 951.2619047619048,366.0313539004439 952.7142857142858,361.3808059104072 954.1666666666667,339.23005594216784 955.6190476190477,337.3543940680095 957.0714285714286,353.19134200068913 958.5238095238095,372.6673046318964 959.9761904761905,364.24231800719355 961.4285714285714,371.29345827026276 962.8809523809524,340.2034198151501 964.3333333333334,329.37761637288594 965.7857142857143,349.693034186569 967.2380952380952,330.85249196171526 968.6904761904761,336.3246896941071 970.1428571428571,335.1158304427256 971.5952380952381,348.7342148755447 973.047619047619,347.41691197612795 974.5,342.22064794326934 975.952380952381,375.2826094600817 977.4047619047618,381.4442022003868 978.8571428571428,386.87278803728776 980.3095238095237,389.6835552507824 981.7619047619047,385.7018622030446 983.2142857142857,380.9554726464332 984.6666666666666,382.48392804242843 986.1190476190477,389.275934430785 987.5714285714287,390.22330782870773 989.0238095238096,379.65056952359055 990.4761904761905,383.2169194487321 991.9285714285714,408.6522763882064 993.3809523809524,437.045048429431 994.8333333333334,441.10730667527434 996.2857142857143,401.0164779433345 997.7380952380953,436.27015922662656 999.1904761904763,427.6067633324832 1000.6428571428571,437.5551283478305 1002.0952380952381,474.14055354464915 1003.547619047619,458.33537884327484 1005.0,457.29744215622316 1006.452380952381,462.27913907976 1007.9047619047619,459.8137322620481 1009.3571428571429,453.39772805113245 1010.8095238095237,454.3972751204547 1012.2619047619047,439.7534598440347 1013.7142857142857,444.7546676886903 1015.1666666666666,456.9480989725533 1016.6190476190476,466.52432298190854 1018.0714285714286,454.4099641555014 1019.5238095238095,463.9635803113769 1020.9761904761904,463.6260387644314 1022.4285714285713,487.25509463959696 1023.8809523809523,472.4680835939813 1025.3333333333335,475.2299846752597 1026.7857142857142,472.82298475469827 1028.2380952380954,473.49716025645074 1029.6904761904761,470.1467297778719 1031.1428571428573,468.471461833419 1032.595238095238,463.4736729155468 1034.047619047619,436.5521846519508 1035.5,434.42388757432394 1036.952380952381,436.63653895544616 1038.404761904762,435.02022472205294 1039.857142857143,427.0490561109622 1041.3095238095239,429.0575721432917 1042.7619047619048,432.7407224532865 1044.2142857142858,426.9143425274926 1045.6666666666665,385.7713138165155 1047.1190476190477,374.6745862900088 1048.5714285714284,366.8939227054888 1050.0238095238096,374.0093138614673 1051.4761904761904,379.1242515356033 1052.9285714285716,370.04633413562703 1054.3809523809523,357.9929569315733 1055.8333333333333,365.5246936077626 1057.2857142857142,359.71299242126577 1058.7380952380952,354.71877708834603 1060.1904761904761,365.29947661003337 1061.642857142857,372.6237903060255 1063.095238095238,365.46453952084886 1064.5476190476193,368.5674822446201 1066.0,375.70185004606356 1067.452380952381,370.44152521515514 1068.904761904762,343.87293899439146 1070.357142857143,364.32824885874516 1071.8095238095239,370.2972137425709 1073.2619047619048,365.94155740034705 1074.7142857142858,372.0775036496537 1076.1666666666665,381.95841826887886 1077.6190476190477,396.6344084202642 1079.0714285714284,372.361042428539 1080.5238095238096,371.508342202286 1081.9761904761904,369.71248201221147 1083.4285714285716,367.87526819829276 1084.8809523809523,359.25512490723264 1086.3333333333335,364.50818371609546 1087.7857142857142,358.383511181321 1089.2380952380952,356.9238230208737 1090.6904761904761,322.1182897849146 1092.142857142857,318.57106923000265 1093.595238095238,308.83568645182186 1095.047619047619,295.07151378930513 1096.5,288.5006739792085 1097.9523809523807,280.5020580986586 1099.404761904762,273.9694342948417 1100.857142857143,280.08803207910125 1102.3095238095239,279.3910415669369 1103.7619047619048,276.13316637782043 1105.2142857142858,276.13397246930305 1106.6666666666667,305.1089631661574 1108.1190476190477,302.2012679081518 1109.5714285714284,295.87225525580124 1111.0238095238096,270.69835606538487 1112.4761904761904,252.86977762656676 1113.9285714285716,249.9975251753599 1115.3809523809523,208.51299274992613 1116.8333333333333,240.09686608810875 1118.2857142857142,238.05585811491596 1119.7380952380952,271.9520594898102 1121.1904761904761,264.0021273759294 1122.642857142857,224.69069563584418 1124.095238095238,260.189155504007 1125.547619047619,249.9794134502191 1127.0,265.1365479172663 1128.452380952381,263.57682308671497 1129.904761904762,260.5356630059336 1131.357142857143,263.3881570654863 1132.8095238095239,265.96344066961524 1134.2619047619048,259.8665813163968 1135.7142857142856,252.92722095533549 1137.1666666666665,226.76287139672485 1138.6190476190477,234.91317444438545 1140.0714285714287,237.46606895840983 1141.5238095238096,231.76793881058472 1142.9761904761906,241.08343722547392 1144.4285714285716,264.2354370621254 1145.8809523809525,265.69427318294845 1147.3333333333333,281.04881237041195 1148.7857142857142,268.9307185371944 1150.2380952380952,264.541218905937 1151.6904761904761,229.38984150907783 1153.142857142857,225.10283190695787 1154.595238095238,208.33815123815947 1156.047619047619,220.8747323435719 1157.5,285.11905502938544 1158.952380952381,260.99125598797195 1160.404761904762,267.2758658955352 1161.857142857143,292.199986004404 1163.3095238095239,294.684284490437 1164.7619047619048,281.71647839817024 1166.2142857142858,298.95292005068205 1167.6666666666667,283.3447933426597 1169.1190476190475,262.00140707243946 1170.5714285714284,276.4853669854426 1172.0238095238094,297.43168961180237 1173.4761904761904,289.40860232933767 1174.9285714285713,313.52684174233656 1176.3809523809523,330.3762497632735 1177.8333333333335,331.0869731022646 1179.2857142857144,318.89637604233087 1180.7380952380952,332.74119151686796 1182.1904761904761,351.6453832024056 1183.642857142857,364.5711886305451 1185.095238095238,380.64861238763575 1186.547619047619,382.3657310184975 1188.0,412.3400564994215 1189.452380952381,406.20505969943054 1190.904761904762,395.53685713851985 1192.357142857143,383.1885505420233 1193.8095238095239,385.7671577033604 1195.2619047619048,407.55151998671016 1196.7142857142858,367.81740147143006 1198.1666666666667,387.12116947743516 1199.6190476190477,382.43485065310404 1201.0714285714284,361.7221948679556 1202.5238095238094,366.96889647044156 1203.9761904761904,379.49121468342287 1205.4285714285713,397.1858682882826 1206.8809523809523,405.656607841734 1208.3333333333333,392.61940289352617 1209.7857142857142,389.98009071951367 1211.2380952380952,395.020373546847 1212.6904761904761,399.2619456035518 1214.142857142857,395.1593519058231 1215.595238095238,397.4681670490239 1217.047619047619,394.6253928370063 1218.5,379.5347223151894 1219.952380952381,375.0202421809321 1221.404761904762,360.8082265265832 1222.857142857143,378.4185809859084 1224.3095238095239,381.1762485781004 1225.7619047619048,378.8055154667967 1227.2142857142858,349.9998535003127 1228.6666666666667,356.8720364398115 1230.1190476190477,361.79588802893517 1231.5714285714287,394.64899100374373 1233.0238095238096,391.2953708908059 1234.4761904761904,392.1771807399216 1235.9285714285713,395.36897603156757 1237.3809523809523,388.5256534336966 1238.8333333333333,418.19316210285825 1240.2857142857142,460.6320401184263 1241.7380952380952,465.67188511358205 1243.1904761904761,519.0886773243355 1244.642857142857,488.74421864799723 1246.095238095238,485.75996047795115 1247.547619047619,502.5907469175554 1249.0,492.054732987395 1250.452380952381,497.0749863180969 1251.904761904762,498.4911902861686 1253.357142857143,502.18009106272314 1254.8095238095239,498.4793749965453 1256.2619047619048,513.0333419594848 1257.7142857142858,493.264457451801 1259.1666666666667,505.7883844925715 1260.6190476190477,505.3813205604312 1262.0714285714287,497.0323444121315 1263.5238095238096,485.8742563198033 1264.9761904761906,500.2393076879632 1266.4285714285716,496.1922915898041 1267.8809523809523,488.6484345998507 1269.3333333333333,484.54669757741135 1270.7857142857142,475.1337508536975 1272.2380952380952,464.2245557768083 1273.6904761904761,484.1010183208896 1275.142857142857,489.57988866582 1276.595238095238,481.13452227291657 1278.047619047619,479.19456756324985 1279.5,500.93371437806906 1280.952380952381,502.3393431580706 1282.404761904762,489.9716689276543 1283.857142857143,495.7731013922694 1285.3095238095239,494.3776924097873 1286.7619047619048,488.3319125073779 1288.2142857142856,478.3271536385579 1289.6666666666665,470.6618465570481 1291.1190476190477,478.97095806034054 1292.5714285714287,463.3413530785383 1294.0238095238096,459.6274056252472 1295.4761904761906,458.17963797883624 1296.9285714285716,460.1094734591515 1298.3809523809525,451.2152427274897 1299.8333333333333,456.48168311609993 1301.2857142857142,450.46339228396283 1302.7380952380952,460.6426549265559 1304.1904761904761,462.63846627921885 1305.642857142857,453.6908308477215 1307.095238095238,449.2567563110591 1308.547619047619,445.49101284576983 1310.0,450.9114597507934" fill="none" stroke="#92400e" stroke-width="2.5"><title>budgeted_btc_defensive_eth_aggressive | end=2026-05-08 | return=-4.87%</title></polyline>
</svg>