<svg xmlns="http://www.w3.org/2000/svg" width="1400" height="800">
<rect width="1400" height="800" fill="#f8fafc"/>
<text x="700.0" y="42" text-anchor="middle" font-family="monospace" font-size="24" fill="#0f172a">Portfolio Value Over Time | start=2025-01-01 | interval=7d</text>
<line x1="90" y1="710" x2="1310" y2="710" stroke="#334155" stroke-width="2"/>
<line x1="90" y1="90" x2="90" y2="710" stroke="#334155" stroke-width="2"/>
<line x1="90.0" y1="710" x2="90.0" y2="90" stroke="#cbd5e1" stroke-width="1"/>
<text x="90.0" y="734" text-anchor="middle" font-family="monospace" font-size="11" fill="#475569">2025-01-01</text>
<line x1="90" y1="710.0" x2="1310" y2="710.0" stroke="#cbd5e1" stroke-width="1"/>
<text x="78" y="714.0" text-anchor="end" font-family="monospace" font-size="12" fill="#475569">56969</text>
<line x1="334.0" y1="710" x2="334.0" y2="90" stroke="#cbd5e1" stroke-width="1"/>
<text x="334.0" y="734" text-anchor="middle" font-family="monospace" font-size="11" fill="#475569">2025-04-09</text>
<line x1="90" y1="586.0" x2="1310" y2="586.0" stroke="#cbd5e1" stroke-width="1"/>
<text x="78" y="590.0" text-anchor="end" font-family="monospace" font-size="12" fill="#475569">64264</text>
<line x1="578.0" y1="710" x2="578.0" y2="90" stroke="#cbd5e1" stroke-width="1"/>
<text x="578.0" y="734" text-anchor="middle" font-family="monospace" font-size="11" fill="#475569">2025-07-16</text>
<line x1="90" y1="462.0000000000001" x2="1310" y2="462.0000000000001" stroke="#cbd5e1" stroke-width="1"/>
<text x="78" y="466.0000000000001" text-anchor="end" font-family="monospace" font-size="12" fill="#475569">71558</text>
<line x1="822.0" y1="710" x2="822.0" y2="90" stroke="#cbd5e1" stroke-width="1"/>
<text x="822.0" y="734" text-anchor="middle" font-family="monospace" font-size="11" fill="#475569">2025-10-15</text>
<line x1="90" y1="337.9999999999999" x2="1310" y2="337.9999999999999" stroke="#cbd5e1" stroke-width="1"/>
<text x="78" y="341.9999999999999" text-anchor="end" font-family="monospace" font-size="12" fill="#475569">78852</text>
<line x1="1066.0" y1="710" x2="1066.0" y2="90" stroke="#cbd5e1" stroke-width="1"/>
<text x="1066.0" y="734" text-anchor="middle" font-family="monospace" font-size="11" fill="#475569">2026-01-21</text>
<line x1="90" y1="214.0" x2="1310" y2="214.0" stroke="#cbd5e1" stroke-width="1"/>
<text x="78" y="218.0" text-anchor="end" font-family="monospace" font-size="12" fill="#475569">86146</text>
<line x1="1310.0" y1="710" x2="1310.0" y2="90" stroke="#cbd5e1" stroke-width="1"/>
<text x="1310.0" y="734" text-anchor="middle" font-family="monospace" font-size="11" fill="#475569">2026-04-29</text>
<line x1="90" y1="90.0" x2="1310" y2="90.0" stroke="#cbd5e1" stroke-width="1"/>
<text x="78" y="94.0" text-anchor="end" font-family="monospace" font-size="12" fill="#475569">93440</text>
<text x="700.0" y="782" text-anchor="middle" font-family="monospace" font-size="16" fill="#0f172a">time</text>
<text x="24" y="400.0" transform="rotate(-90 24,400.0)" text-anchor="middle" font-family="monospace" font-size="16" fill="#0f172a">portfolio_value_usd</text>
<line x1="970" y1="80" x2="988" y2="80" stroke="#0f766e" stroke-width="3"/>
<text x="998" y="84" font-family="monospace" font-size="12" fill="#0f172a">static_50_50_rebalance</text>
<line x1="970" y1="104" x2="988" y2="104" stroke="#dc2626" stroke-width="3"/>
<text x="998" y="108" font-family="monospace" font-size="12" fill="#0f172a">target_50_50_with_cash_band</text>
<line x1="970" y1="128" x2="988" y2="128" stroke="#2563eb" stroke-width="3"/>
<text x="998" y="132" font-family="monospace" font-size="12" fill="#0f172a">narrow_cash_band_rebalance</text>
<line x1="970" y1="152" x2="988" y2="152" stroke="#7c3aed" stroke-width="3"/>
<text x="998" y="156" font-family="monospace" font-size="12" fill="#0f172a">drawdown_tilt_rebalance</text>
<line x1="970" y1="176" x2="988" y2="176" stroke="#b45309" stroke-width="3"/>
<text x="998" y="180" font-family="monospace" font-size="12" fill="#0f172a">btc_defensive_eth_aggressive</text>
<polyline points="90.0,421.1868220120651 107.68115942028986,418.98279959020704 125.36231884057972,374.7744323722276 143.04347826086956,375.131483338117 160.72463768115944,385.7850262760914 178.40579710144928,451.0041071599634 196.08695652173913,449.1198367493532 213.768115942029,457.432298750652 231.44927536231884,555.0268097444051 249.1304347826087,530.2635694949333 266.81159420289856,595.8493729911575 284.4927536231884,565.7523557659362 302.17391304347825,569.8925204104218 319.8550724637681,612.6428923813565 337.536231884058,623.9514015958357 355.2173913043478,625.3960407354632 372.8985507246377,555.0986093964614 390.57971014492756,553.1293994753869 408.2608695652174,537.4410044064005 425.94202898550725,427.0544853778607 443.6231884057971,403.40515392899795 461.304347826087,399.1518972761879 478.98550724637676,421.07161669792885 496.66666666666663,385.81575481785353 514.3478260869565,428.98436056822754 532.0289855072464,428.0480339892411 549.7101449275362,405.34032892912234 567.3913043478261,373.31647671952095 585.072463768116,275.11660290569466 602.7536231884058,247.31335177593525 620.4347826086956,232.81357805478785 638.1159420289855,259.5839378308953 655.7971014492754,105.62755515647098 673.4782608695652,193.53151570057992 691.1594202898551,189.58104332838343 708.840579710145,193.0732545916569 726.5217391304348,193.4838123371061 744.2028985507247,155.0229646873007 761.8840579710145,218.13588021072525 779.5652173913043,170.76846396758197 797.2463768115942,128.4935895458923 814.927536231884,249.37897112169344 832.608695652174,285.27123855942943 850.2898550724638,262.3250678617779 867.9710144927535,346.4277009666819 885.6521739130435,358.5583884139096 903.3333333333333,453.17434694502225 921.0144927536232,457.74040531756583 938.695652173913,424.1992188754456 956.376811594203,415.82619210104656 974.0579710144928,501.84502052108064 991.7391304347825,481.72662446592204 1009.4202898550725,479.7605470730061 1027.1014492753623,437.2812745590454 1044.7826086956522,386.0722671940065 1062.463768115942,469.2254082541101 1080.144927536232,467.1162591490853 1097.8260869565217,653.2682021847395 1115.5072463768115,708.7201262257179 1133.1884057971015,710.0 1150.8695652173913,689.2766453584765 1168.5507246376812,656.0194831813565 1186.231884057971,678.3938596971956 1203.9130434782608,654.1383285696437 1221.5942028985507,658.2630334992714 1239.2753623188405,678.8507086224057 1256.9565217391305,656.5111572936743 1274.6376811594203,614.5674771239255 1292.3188405797102,594.3750648741798 1310.0,623.6262638399228" fill="none" stroke="#0f766e" stroke-width="2.5"><title>static_50_50_rebalance | end=2026-04-29 | return=-16.10%</title></polyline>
<polyline points="90.0,421.1868220120651 107.68115942028986,419.52650352693223 125.36231884057972,382.1348245580051 143.04347826086956,387.0486466340242 160.72463768115944,397.8242675700263 178.40579710144928,451.97925469026825 196.08695652173913,451.92944794081086 213.768115942029,458.47852611222106 231.44927536231884,538.4667351083554 249.1304347826087,522.8326442171981 266.81159420289856,578.8345159875439 284.4927536231884,553.1794398906857 302.17391304347825,557.3856113760708 319.8550724637681,594.1483866177947 337.536231884058,605.59817888896 355.2173913043478,608.9350612606919 372.8985507246377,550.7538217909807 390.57971014492756,549.2684969663237 408.2608695652174,536.511214782025 425.94202898550725,432.47124392981243 443.6231884057971,414.84277137925244 461.304347826087,408.76419017780023 478.98550724637676,427.6968529964492 496.66666666666663,396.25626416324803 514.3478260869565,434.7558677765469 532.0289855072464,436.88156198810145 549.7101449275362,415.90837048830144 567.3913043478261,386.6008167984673 585.072463768116,298.1424495281581 602.7536231884058,270.52195878976374 620.4347826086956,256.7883438924857 638.1159420289855,274.6584292875598 655.7971014492754,168.49234677703055 673.4782608695652,220.8450983554855 691.1594202898551,216.575647239317 708.840579710145,218.97074033194127 726.5217391304348,220.1190800313953 744.2028985507247,197.59741804552334 761.8840579710145,234.3286723753701 779.5652173913043,207.8237062979614 797.2463768115942,184.3182494622895 814.927536231884,250.9956993715483 832.608695652174,271.0737840860202 850.2898550724638,258.3823794344314 867.9710144927535,306.30491044956864 885.6521739130435,312.61678787308233 903.3333333333333,365.325826222371 921.0144927536232,367.6432274023967 938.695652173913,348.55288552281667 956.376811594203,342.75531255172194 974.0579710144928,392.8546396753412 991.7391304347825,381.1177635044738 1009.4202898550725,379.8491060238955 1027.1014492753623,355.31587612559764 1044.7826086956522,326.19715716911435 1062.463768115942,374.3835673783945 1080.144927536232,372.96695849469864 1097.8260869565217,481.8415947526586 1115.5072463768115,513.8221390897273 1133.1884057971015,514.3314458260013 1150.8695652173913,501.9598685303215 1168.5507246376812,483.12526755161525 1186.231884057971,496.1823193894463 1203.9130434782608,481.1370907632931 1221.5942028985507,483.82410107265787 1239.2753623188405,495.4819456407754 1256.9565217391305,482.539253378849 1274.6376811594203,457.2042435148408 1292.3188405797102,445.79977511983725 1310.0,463.65204827657544" fill="none" stroke="#dc2626" stroke-width="2.5"><title>target_50_50_with_cash_band | end=2026-04-29 | return=-3.38%</title></polyline>
<polyline points="90.0,421.1868220120651 107.68115942028986,418.77568256953134 125.36231884057972,372.64084598840105 143.04347826086956,372.0303062880889 160.72463768115944,382.66376685675175 178.40579710144928,449.2379212918194 196.08695652173913,447.6985010517985 213.768115942029,455.32245587032276 231.44927536231884,543.7091566252338 249.1304347826087,523.8802028450582 266.81159420289856,583.5558047677189 284.4927536231884,556.3114910880215 302.17391304347825,560.4963606197583 319.8550724637681,599.025377924074 337.536231884058,610.433494028868 355.2173913043478,613.1994165048181 372.8985507246377,551.1510970405394 390.57971014492756,549.5619390140889 408.2608695652174,536.4010311003306 425.94202898550725,431.7684042180395 443.6231884057971,413.7736280767302 461.304347826087,407.7890569987446 478.98550724637676,426.81199198465526 496.66666666666663,395.26595104190983 514.3478260869565,434.9225181286013 532.0289855072464,436.3482433108606 549.7101449275362,415.04332407329076 567.3913043478261,385.28957900128927 585.072463768116,293.9868828912285 602.7536231884058,266.3036616312103 620.4347826086956,250.89006311192253 638.1159420289855,275.04903678440127 655.7971014492754,128.8642059743596 673.4782608695652,207.96087025953676 691.1594202898551,201.32977765957503 708.840579710145,205.2148756977341 726.5217391304348,207.54846126914947 744.2028985507247,171.78152929637542 761.8840579710145,230.99763870428268 779.5652173913043,189.01848623930243 797.2463768115942,151.50191375806412 814.927536231884,259.49973084944753 832.608695652174,291.9892162273001 850.2898550724638,271.5411380627947 867.9710144927535,348.831940075416 885.6521739130435,358.8620059600441 903.3333333333333,443.1224374943193 921.0144927536232,446.7704411148825 938.695652173913,416.3746223637436 956.376811594203,406.98016826458655 974.0579710144928,486.47356402915926 991.7391304347825,467.91008277195 1009.4202898550725,465.888789672848 1027.1014492753623,427.3763489019192 1044.7826086956522,381.87805944946945 1062.463768115942,457.1212534297433 1080.144927536232,454.88344450230136 1097.8260869565217,624.0514793847022 1115.5072463768115,673.4820503765519 1133.1884057971015,674.2323659545104 1150.8695652173913,655.2033113659406 1168.5507246376812,626.4739196511051 1186.231884057971,646.3735191141583 1203.9130434782608,623.420493833965 1221.5942028985507,627.519068601723 1239.2753623188405,645.0721293886136 1256.9565217391305,625.6156966525045 1274.6376811594203,587.5463583968789 1292.3188405797102,570.529957813784 1310.0,597.2180811994275" fill="none" stroke="#2563eb" stroke-width="2.5"><title>narrow_cash_band_rebalance | end=2026-04-29 | return=-14.00%</title></polyline>
<polyline points="90.0,421.1868220120651 107.68115942028986,419.07191492215156 125.36231884057972,376.5970270707445 143.04347826086956,378.506371143294 160.72463768115944,389.2213029259255 178.40579710144928,447.38285198358716 196.08695652173913,446.64825695280456 213.768115942029,453.77522998173004 231.44927536231884,539.2584526891492 249.1304347826087,520.7751092460879 266.81159420289856,578.6719804249126 284.4927536231884,552.1386138673643 302.17391304347825,556.3360743221631 319.8550724637681,593.4735099094191 337.536231884058,604.914461712325 355.2173913043478,608.1302304290435 372.8985507246377,550.3670910002827 390.57971014492756,548.9763810281404 408.2608695652174,537.1003356511544 425.94202898550725,435.3381568761932 443.6231884057971,419.96933626800444 461.304347826087,413.03175390980704 478.98550724637676,430.5858217504263 496.66666666666663,400.9060687369375 514.3478260869565,438.77365892629126 532.0289855072464,441.31768276203775 549.7101449275362,420.76048919298864 567.3913043478261,392.14711324872997 585.072463768116,304.3680302541526 602.7536231884058,276.74612955762194 620.4347826086956,260.827378212341 638.1159420289855,283.5428048584186 655.7971014492754,141.65400693633774 673.4782608695652,214.36985935688784 691.1594202898551,206.93759652341157 708.840579710145,210.66246184387143 726.5217391304348,213.24475320626618 744.2028985507247,180.89281818144252 761.8840579710145,234.50031512146262 779.5652173913043,197.0495220214533 797.2463768115942,163.55669121798576 814.927536231884,260.17586267752927 832.608695652174,289.35442940663603 850.2898550724638,271.06034952285523 867.9710144927535,340.7997791270789 885.6521739130435,349.5911620185281 903.3333333333333,425.0455707887477 921.0144927536232,428.2123307831093 938.695652173913,400.84286235482784 956.376811594203,391.9496735545885 974.0579710144928,463.951803712436 991.7391304347825,447.13712442563366 1009.4202898550725,445.25690250734783 1027.1014492753623,410.50425131541374 1044.7826086956522,369.6539275079324 1062.463768115942,437.56705445614864 1080.144927536232,435.4675517644275 1097.8260869565217,588.4479387057053 1115.5072463768115,632.9410692477618 1133.1884057971015,633.5212964284055 1150.8695652173913,616.2383274279991 1168.5507246376812,590.5628005379386 1186.231884057971,608.5003721408443 1203.9130434782608,587.4592933696947 1221.5942028985507,591.2636870618918 1239.2753623188405,606.9203580714724 1256.9565217391305,589.4520259330196 1274.6376811594203,554.8671822252854 1292.3188405797102,539.7216056334478 1310.0,564.0205486827487" fill="none" stroke="#7c3aed" stroke-width="2.5"><title>drawdown_tilt_rebalance | end=2026-04-29 | return=-11.36%</title></polyline>
<polyline points="90.0,421.1868220120651 107.68115942028986,418.3929149980768 125.36231884057972,367.1363138517957 143.04347826086956,362.9134799135724 160.72463768115944,373.4460439205833 178.40579710144928,449.4259818115236 196.08695652173913,445.7317387824842 213.768115942029,455.83643476812586 231.44927536231884,571.3989190473364 249.1304347826087,537.3189970885913 266.81159420289856,612.6564385493818 284.4927536231884,578.0837386712974 302.17391304347825,582.1582514614229 319.8550724637681,630.9105547044588 337.536231884058,642.1107482563796 355.2173913043478,642.3528590627936 372.8985507246377,564.9863730052025 390.57971014492756,562.6278258104351 408.2608695652174,544.1368965085361 425.94202898550725,426.82246694925954 443.6231884057971,396.600748337053 461.304347826087,394.52143514943833 478.98550724637676,419.9973304240595 496.66666666666663,380.1992774561441 514.3478260869565,426.4568873007657 532.0289855072464,423.4475579380285 549.7101449275362,399.3988745799549 567.3913043478261,365.14248847335335 585.072463768116,261.8426585744801 602.7536231884058,233.9683723170541 620.4347826086956,219.95981545636477 638.1159420289855,248.13389822825798 655.7971014492754,90.0 673.4782608695652,182.4587142509979 691.1594202898551,180.02294203245424 708.840579710145,183.26300309101043 726.5217391304348,182.557345196514 744.2028985507247,142.8435485475395 761.8840579710145,207.528008261229 779.5652173913043,157.49888403434443 797.2463768115942,112.87724885997284 814.927536231884,240.00213921426808 832.608695652174,277.4957627891862 850.2898550724638,254.63571980608742 867.9710144927535,338.5213521950124 885.6521739130435,350.57352281286495 903.3333333333333,444.8311398426926 921.0144927536232,449.3622436335876 938.695652173913,415.9261575442423 956.376811594203,407.50320898251255 974.0579710144928,493.0960951451914 991.7391304347825,473.0775195407526 1009.4202898550725,471.1172855849429 1027.1014492753623,428.8602477530894 1044.7826086956522,377.9358385850182 1062.463768115942,460.3782722888171 1080.144927536232,458.2934342553634 1097.8260869565217,642.8568593833199 1115.5072463768115,697.857255829435 1133.1884057971015,699.1342109567894 1150.8695652173913,678.5876027012644 1168.5507246376812,645.5781978134878 1186.231884057971,667.7763649913873 1203.9130434782608,643.7360510426256 1221.5942028985507,647.8208053559165 1239.2753623188405,668.2633738552728 1256.9565217391305,646.0876458485204 1274.6376811594203,604.4773354833187 1292.3188405797102,584.4209224227388 1310.0,613.4398788641572" fill="none" stroke="#b45309" stroke-width="2.5"><title>btc_defensive_eth_aggressive | end=2026-04-29 | return=-15.29%</title></polyline>
</svg>