<svg xmlns="http://www.w3.org/2000/svg" width="1400" height="800">
<rect width="1400" height="800" fill="#f8fafc"/>
<text x="700.0" y="42" text-anchor="middle" font-family="monospace" font-size="24" fill="#0f172a">Portfolio Value Over Time | start=2021-04-01 | interval=7d</text>
<line x1="90" y1="710" x2="1310" y2="710" stroke="#334155" stroke-width="2"/>
<line x1="90" y1="90" x2="90" y2="710" stroke="#334155" stroke-width="2"/>
<line x1="90.0" y1="710" x2="90.0" y2="90" stroke="#cbd5e1" stroke-width="1"/>
<text x="90.0" y="734" text-anchor="middle" font-family="monospace" font-size="11" fill="#475569">2021-04-01</text>
<line x1="90" y1="710.0" x2="1310" y2="710.0" stroke="#cbd5e1" stroke-width="1"/>
<text x="78" y="714.0" text-anchor="end" font-family="monospace" font-size="12" fill="#475569">4230</text>
<line x1="334.0" y1="710" x2="334.0" y2="90" stroke="#cbd5e1" stroke-width="1"/>
<text x="334.0" y="734" text-anchor="middle" font-family="monospace" font-size="11" fill="#475569">2022-04-07</text>
<line x1="90" y1="586.0" x2="1310" y2="586.0" stroke="#cbd5e1" stroke-width="1"/>
<text x="78" y="590.0" text-anchor="end" font-family="monospace" font-size="12" fill="#475569">8327</text>
<line x1="578.0" y1="710" x2="578.0" y2="90" stroke="#cbd5e1" stroke-width="1"/>
<text x="578.0" y="734" text-anchor="middle" font-family="monospace" font-size="11" fill="#475569">2023-04-13</text>
<line x1="90" y1="462.0" x2="1310" y2="462.0" stroke="#cbd5e1" stroke-width="1"/>
<text x="78" y="466.0" text-anchor="end" font-family="monospace" font-size="12" fill="#475569">12424</text>
<line x1="822.0" y1="710" x2="822.0" y2="90" stroke="#cbd5e1" stroke-width="1"/>
<text x="822.0" y="734" text-anchor="middle" font-family="monospace" font-size="11" fill="#475569">2024-04-18</text>
<line x1="90" y1="338.0" x2="1310" y2="338.0" stroke="#cbd5e1" stroke-width="1"/>
<text x="78" y="342.0" text-anchor="end" font-family="monospace" font-size="12" fill="#475569">16520</text>
<line x1="1066.0" y1="710" x2="1066.0" y2="90" stroke="#cbd5e1" stroke-width="1"/>
<text x="1066.0" y="734" text-anchor="middle" font-family="monospace" font-size="11" fill="#475569">2025-04-24</text>
<line x1="90" y1="214.0" x2="1310" y2="214.0" stroke="#cbd5e1" stroke-width="1"/>
<text x="78" y="218.0" text-anchor="end" font-family="monospace" font-size="12" fill="#475569">20617</text>
<line x1="1310.0" y1="710" x2="1310.0" y2="90" stroke="#cbd5e1" stroke-width="1"/>
<text x="1310.0" y="734" text-anchor="middle" font-family="monospace" font-size="11" fill="#475569">2026-04-30</text>
<line x1="90" y1="90.0" x2="1310" y2="90.0" stroke="#cbd5e1" stroke-width="1"/>
<text x="78" y="94.0" text-anchor="end" font-family="monospace" font-size="12" fill="#475569">24714</text>
<text x="700.0" y="782" text-anchor="middle" font-family="monospace" font-size="16" fill="#0f172a">time</text>
<text x="24" y="400.0" transform="rotate(-90 24,400.0)" text-anchor="middle" font-family="monospace" font-size="16" fill="#0f172a">portfolio_value_usd</text>
<line x1="970" y1="80" x2="988" y2="80" stroke="#0f766e" stroke-width="3"/>
<text x="998" y="84" font-family="monospace" font-size="12" fill="#0f172a">budgeted_static_50_50_rebalance</text>
<line x1="970" y1="104" x2="988" y2="104" stroke="#9333ea" stroke-width="3"/>
<text x="998" y="108" font-family="monospace" font-size="12" fill="#0f172a">budgeted_drawdown_tilt_rebalance</text>
<line x1="970" y1="128" x2="988" y2="128" stroke="#92400e" stroke-width="3"/>
<text x="998" y="132" font-family="monospace" font-size="12" fill="#0f172a">budgeted_btc_defensive_eth_aggressive</text>
<polyline points="90.0,535.351264097032 94.60377358490567,535.1405814496627 99.20754716981132,532.3850477840741 103.81132075471697,535.7412599354152 108.41509433962264,532.2122440433031 113.01886792452831,523.8559449926909 117.62264150943396,524.5775315339754 122.22641509433961,541.4198356726315 126.83018867924528,543.2453955332403 131.43396226415095,540.9527271755157 136.03773584905662,549.9289917062051 140.64150943396226,550.3444103466038 145.24528301886792,562.4007875851898 149.8490566037736,561.1208206086417 154.45283018867923,561.7811603081294 159.05660377358492,568.8378585619521 163.66037735849056,564.9300697355084 168.26415094339623,539.0754431257 172.8679245283019,522.2122900795182 177.47169811320754,507.1191378701139 182.0754716981132,496.93197552514346 186.67924528301887,500.25001846986504 191.2830188679245,466.66727016789946 195.88679245283018,488.50521610088185 200.49056603773585,479.0311409245869 205.0943396226415,503.903988765544 209.69811320754718,513.4113532512187 214.30188679245282,459.19967051424146 218.9056603773585,440.20918618798316 223.50943396226415,415.10663018413715 228.11320754716982,409.9220536795855 232.71698113207546,397.1069648198758 237.32075471698113,379.86015668049873 241.9245283018868,432.0176222544297 246.52830188679246,404.4780336768868 251.1320754716981,412.07337874938963 255.73584905660377,454.85380422045193 260.33962264150944,460.5275535424747 264.9433962264151,444.3717523174261 269.5471698113207,471.7538341786311 274.1509433962264,496.29544252231034 278.7547169811321,504.3953030261632 283.35849056603774,520.1453518233773 287.9622641509434,554.8950739189006 292.566037735849,542.4827284595508 297.1698113207547,506.38799770078185 301.77358490566036,523.6957186131965 306.37735849056605,543.4944713151307 310.9811320754717,520.1376068589803 315.58490566037733,539.5984561793496 320.188679245283,525.5826414641876 324.7924528301887,502.72479884889196 329.39622641509436,490.4252064196628 334.0,499.2436076104481 338.60377358490564,519.1105248078964 343.20754716981133,519.111046730231 347.811320754717,523.5233737708609 352.41509433962267,541.8261115931081 357.0188679245283,600.5245126742393 361.62264150943395,593.3000588873274 366.22641509433964,607.6140139798727 370.8301886792453,601.4618382644228 375.4339622641509,604.8642516982256 380.0377358490566,672.7967148462322 384.64150943396226,666.0729367239795 389.24528301886795,674.010181627792 393.8490566037736,658.7033197974083 398.45283018867923,664.7602911346521 403.0566037735849,633.4840548145631 407.66037735849056,622.4210471798325 412.2641509433962,633.3687973443581 416.8679245283019,613.4828225742124 421.47169811320754,618.1533630916344 426.0754716981132,632.2122208359023 430.6792452830189,643.3001691680713 435.2830188679245,643.8412138529644 439.8867924528302,650.6568481019134 444.49056603773585,659.2860320619222 449.0943396226415,658.0325277062332 453.6981132075472,655.7528045834728 458.3018867924528,661.4775685457599 462.90566037735846,662.9819592481036 467.50943396226415,645.6791650184321 472.1132075471698,645.1200810000942 476.71698113207543,667.7108021084775 481.3207547169811,676.1541335477034 485.92452830188677,676.332169737944 490.5283018867924,670.8574208703003 495.1320754716981,669.6905047159702 499.73584905660374,669.9126864420507 504.33962264150944,674.6373678653162 508.9433962264151,676.3199244590459 513.5471698113207,672.8021358666083 518.1509433962265,656.0472870629876 522.7547169811321,640.1467831207104 527.3584905660377,630.0436249874814 531.9622641509434,625.9769940508119 536.566037735849,637.5281557327801 541.1698113207547,626.213958268023 545.7735849056603,623.9403407932836 550.377358490566,625.857700173711 554.9811320754718,648.2823909268177 559.5849056603774,618.3033802976162 564.1886792452831,598.7951926870455 568.7924528301887,601.1979131451092 573.3962264150944,596.9420733276661 578.0,581.1810648239729 582.6037735849056,592.5113106487685 587.2075471698113,589.9238232228272 591.811320754717,593.7202998810103 596.4150943396227,604.5312804392479 601.0188679245283,604.8295159793361 605.622641509434,605.7455702433078 610.2264150943396,601.589553841208 614.8301886792453,603.5623531585753 619.433962264151,616.1793164384176 624.0377358490566,590.171511384341 628.6415094339623,589.2769989672835 633.2452830188679,591.4960865646841 637.8490566037736,577.5848281972932 642.4528301886793,589.297441367871 647.0566037735849,592.9450765357934 651.6603773584906,594.4856119043909 656.2641509433962,592.7916183561827 660.8679245283018,611.1725880549188 665.4716981132076,613.8717974645409 670.0754716981132,615.453461537702 674.6792452830189,614.177026679562 679.2830188679245,614.3971305899482 683.8867924528302,616.6519543419957 688.4905660377359,611.26553204078 693.0943396226415,612.2349691691311 697.6981132075472,618.4936794336538 702.3018867924528,610.2385014896615 706.9056603773585,578.7078840976533 711.5094339622641,576.2330738491262 716.1132075471698,552.0872708553585 720.7169811320755,562.9641135484823 725.3207547169811,553.5844484362854 729.9245283018868,552.7792840844952 734.5283018867924,518.2786660252949 739.1320754716982,521.3328601042667 743.7358490566038,522.9202371383391 748.3396226415094,521.0129441703475 752.9433962264151,520.3021196415746 757.5471698113207,494.3706071707757 762.1509433962264,517.7634238466375 766.7547169811321,535.6657167440212 771.3584905660377,521.3901145080272 775.9622641509434,508.279575004643 780.566037735849,466.1011997990656 785.1698113207547,460.3154571776714 789.7735849056604,410.8117725502387 794.377358490566,365.3994828543402 798.9811320754717,352.2609969022577 803.5849056603773,389.49628385285774 808.188679245283,370.6822041735834 812.7924528301886,389.2084518066402 817.3962264150944,375.8227817006476 822.0,416.9637252486121 826.6037735849056,409.4693598724061 831.2075471698113,433.39994396376693 835.8113207547169,419.76762542634407 840.4150943396226,418.80135631562166 845.0188679245283,364.93701284345167 849.622641509434,365.713721466348 854.2264150943396,355.48193451895054 858.8301886792452,384.9899263943116 863.4339622641509,387.872946278911 868.0377358490566,400.2126503511891 872.6415094339623,433.37181810124576 877.2452830188679,430.3977751408737 881.8490566037735,394.3829535397358 886.4528301886792,402.4811458506372 891.0566037735848,402.4868953598089 895.6603773584906,440.3657434189973 900.2641509433962,458.1618214035394 904.8679245283018,447.3835184906465 909.4716981132075,455.74423329609874 914.0754716981131,473.85727425079995 918.6792452830189,468.9605161940036 923.2830188679245,449.8181960449562 927.8867924528302,433.6561598008533 932.4905660377358,462.6509479847949 937.0943396226414,461.688258950216 941.6981132075471,429.55144025421504 946.3018867924528,432.09360368163806 950.9056603773585,428.18116889910436 955.5094339622641,389.35576117624447 960.1132075471697,350.9204585345688 964.7169811320754,304.8275550109656 969.3207547169811,297.488478325491 973.9245283018868,281.00254851154705 978.5283018867924,268.14884466511484 983.132075471698,303.38853120578733 987.7358490566037,312.5109424650455 992.3396226415093,302.07191667674925 996.9433962264151,326.5767939158567 1001.5471698113207,304.14766857371285 1006.1509433962265,293.33473326312486 1010.7547169811321,297.41030351574864 1015.3584905660377,352.0496000622469 1019.9622641509435,352.67763705106495 1024.566037735849,344.5806842942306 1029.169811320755,404.48762017365607 1033.7735849056603,400.90291939244906 1038.3773584905662,445.09396018357654 1042.9811320754718,429.1724954774912 1047.5849056603774,421.33103579568206 1052.188679245283,444.8434469399757 1056.7924528301887,476.9451112108153 1061.3962264150944,460.7616736349306 1066.0,426.05253138735907 1070.6037735849059,414.959608680101 1075.2075471698113,368.3095194464355 1079.8113207547171,336.0370407119068 1084.4150943396226,310.5823950653807 1089.0188679245284,325.173025951703 1093.622641509434,351.4394980641789 1098.2264150943397,324.0594115224461 1102.8301886792453,336.325761328496 1107.433962264151,340.45258904232895 1112.0377358490566,320.9899659577962 1116.6415094339623,279.1539479215373 1121.245283018868,229.9598283478664 1125.8490566037735,213.544223107209 1130.4528301886792,219.74501995880365 1135.056603773585,199.9996900391498 1139.6603773584907,151.06239915046024 1144.2641509433963,187.36811167319308 1148.867924528302,167.1837191997971 1153.4716981132076,185.93470976014748 1158.0754716981132,163.86606072459756 1162.6792452830189,151.72943063546597 1167.2830188679245,216.71473256787493 1171.8867924528302,150.30166192434558 1176.4905660377358,155.2252378226782 1181.0943396226414,216.7181240601327 1185.6981132075473,214.6218312737991 1190.301886792453,222.26800897452904 1194.9056603773586,269.9915902991945 1199.5094339622642,279.3965235999077 1204.1132075471698,336.2635196383273 1208.7169811320755,312.49238825390256 1213.3207547169811,302.4100716310876 1217.9245283018868,294.21166374627603 1222.5283018867924,339.0594010496224 1227.132075471698,329.7771871772082 1231.7358490566037,319.2648728476628 1236.3396226415095,306.6714141580336 1240.9433962264152,281.15422439222453 1245.5471698113208,320.943647451095 1250.1509433962265,341.6382631613231 1254.754716981132,462.13234005158677 1259.3584905660377,444.9385416118117 1263.9622641509434,442.9672856347798 1268.566037735849,435.4187266353976 1273.1698113207547,423.7646472543476 1277.7735849056603,424.52819599144584 1282.377358490566,420.8804500679534 1286.9811320754718,429.903336795436 1291.5849056603774,434.51230148047745 1296.188679245283,412.2055555606893 1300.7924528301887,391.64421795144375 1305.3962264150944,385.59537287487075 1310.0,396.10343380903356" fill="none" stroke="#0f766e" stroke-width="2.5"><title>budgeted_static_50_50_rebalance | end=2026-04-30 | return=46.01%</title></polyline>
<polyline points="90.0,535.351264097032 94.60377358490567,535.351264097032 99.20754716981132,535.351264097032 103.81132075471697,535.351264097032 108.41509433962264,534.7724664465259 113.01886792452831,532.689174384665 117.62264150943396,533.1809823570372 122.22641509433961,538.121413184907 126.83018867924528,539.0549795306385 131.43396226415095,537.8688339684963 136.03773584905662,543.2456331334919 140.64150943396226,543.169514446405 145.24528301886792,552.2122468143089 149.8490566037736,551.440647355521 154.45283018867923,552.1298053818675 159.05660377358492,558.5471226857867 163.66037735849056,554.763683679594 168.26415094339623,527.3743219694503 172.8679245283019,509.9752208907371 177.47169811320754,493.66122184743796 182.0754716981132,482.52418331120197 186.67924528301887,486.0031864080497 191.2830188679245,449.7178742923789 195.88679245283018,473.2689230930822 200.49056603773585,462.97781503110923 205.0943396226415,489.297179903639 209.69811320754718,499.47654793135905 214.30188679245282,439.92578738079294 218.9056603773585,419.13561908697295 223.50943396226415,392.5839137493103 228.11320754716982,388.03309375836227 232.71698113207546,375.7434592116601 237.32075471698113,359.0292731804485 241.9245283018868,407.856468191262 246.52830188679246,381.66641898293545 251.1320754716981,388.8184184454229 255.73584905660377,429.5489089645679 260.33962264150944,434.88788949752217 264.9433962264151,418.358764155736 269.5471698113207,445.9672857342593 274.1509433962264,471.95054731885205 278.7547169811321,480.44305720679847 283.35849056603774,497.7231001303105 287.9622641509434,536.203749731488 292.566037735849,522.2514164988091 297.1698113207547,480.7573476343817 301.77358490566036,500.7620079878125 306.37735849056605,523.4987530831766 310.9811320754717,496.26216706691713 315.58490566037733,519.1707041673674 320.188679245283,502.64073626227946 324.7924528301887,475.57064484020975 329.39622641509436,460.9439442332024 334.0,471.5404893987523 338.60377358490564,495.3403925301993 343.20754716981133,495.3816228213801 347.811320754717,500.6761599093385 352.41509433962267,522.6144793072066 357.0188679245283,593.122619263448 361.62264150943395,584.445685903466 366.22641509433964,602.0350992544421 370.8301886792453,594.5619021422493 375.4339622641509,598.822517873253 380.0377358490566,683.8800143920117 384.64150943396226,675.6818980347557 389.24528301886795,685.2294535689629 393.8490566037736,667.1123311032446 398.45283018867923,674.2550913125698 403.0566037735849,637.1719641597617 407.66037735849056,623.8807822079402 412.2641509433962,636.9059265489523 416.8679245283019,612.464946409445 421.47169811320754,617.8633387162263 426.0754716981132,634.8101556490618 430.6792452830189,648.0393253976841 435.2830188679245,647.6493472511521 439.8867924528302,657.7493625416853 444.49056603773585,669.2888769222353 449.0943396226415,667.8611269316923 453.6981132075472,665.2870576103705 458.3018867924528,672.1761892831513 462.90566037735846,673.7784153839813 467.50943396226415,652.5295383627695 472.1132075471698,651.6897345281016 476.71698113207543,678.5980982824848 481.3207547169811,688.762724440086 485.92452830188677,688.8807556303934 490.5283018867924,682.1444630554829 495.1320754716981,680.9254776245937 499.73584905660374,681.4006647212167 504.33962264150944,686.9620147682559 508.9433962264151,688.9450042212134 513.5471698113207,684.5545539729366 518.1509433962265,665.0590615423463 522.7547169811321,646.8844909613111 527.3584905660377,635.9202681215526 531.9622641509434,631.074980420323 536.566037735849,644.5152001554611 541.1698113207547,631.3694695773318 545.7735849056603,628.8191563105496 550.377358490566,630.8413903189086 554.9811320754718,657.7006119004726 559.5849056603774,622.667146368371 564.1886792452831,600.0206742821449 568.7924528301887,602.930919644044 573.3962264150944,597.2134445121953 578.0,578.1808059887092 582.6037735849056,591.5072932447592 587.2075471698113,589.184826352619 591.811320754717,593.7873222930925 596.4150943396227,606.8543044929293 601.0188679245283,607.1058275841023 605.622641509434,608.011717845994 610.2264150943396,602.8949534228694 614.8301886792453,605.0609510974931 619.433962264151,619.3724619859593 624.0377358490566,592.6733693805725 628.6415094339623,592.1419891094314 633.2452830188679,594.1186993014927 637.8490566037736,580.7289052238739 642.4528301886793,591.4705651792609 647.0566037735849,594.6805078161908 651.6603773584906,596.1593483730736 656.2641509433962,594.7117703911164 660.8679245283018,610.0934278284403 665.4716981132076,612.4027313966908 670.0754716981132,613.8321444413698 674.6792452830189,612.7200339955557 679.2830188679245,613.0387678644018 683.8867924528302,615.3060963331087 688.4905660377359,609.7681594844662 693.0943396226415,611.0305425043238 697.6981132075472,617.3351330043099 702.3018867924528,609.4611493064564 706.9056603773585,576.8941044178889 711.5094339622641,574.7118278545271 716.1132075471698,548.9576548053783 720.7169811320755,560.4110708843248 725.3207547169811,551.2576841485514 729.9245283018868,550.7209645705956 734.5283018867924,519.513182617834 739.1320754716982,522.3869365780693 743.7358490566038,524.5327570759177 748.3396226415094,521.9018010357589 752.9433962264151,522.1091857870146 757.5471698113207,499.60563127023096 762.1509433962264,518.2203934931972 766.7547169811321,533.161533548197 771.3584905660377,521.6678153991506 775.9622641509434,510.97978182703287 780.566037735849,476.75485428272304 785.1698113207547,471.51215996798487 789.7735849056604,432.88415942058657 794.377358490566,396.6836140226613 798.9811320754717,387.24327654467754 803.5849056603773,415.95299130490866 808.188679245283,402.35281691579576 812.7924528301886,416.54938266050704 817.3962264150944,406.024973408441 822.0,437.5249970018775 826.6037735849056,431.6300739558016 831.2075471698113,450.4291730368658 835.8113207547169,439.45279226569687 840.4150943396226,439.0807922578682 845.0188679245283,388.1348835616917 849.622641509434,389.0573414159327 854.2264150943396,380.6600418770717 858.8301886792452,405.9284978920103 863.4339622641509,407.56604667306704 868.0377358490566,416.97430399688204 872.6415094339623,444.7291699280626 877.2452830188679,442.13989521754405 881.8490566037735,411.4183041101727 886.4528301886792,419.4189261538432 891.0566037735848,419.2572416073227 895.6603773584906,454.51641813557217 900.2641509433962,470.49132617588197 904.8679245283018,460.72704968193 909.4716981132075,469.3870527660092 914.0754716981131,487.87192089298503 918.6792452830189,483.77001592906004 923.2830188679245,464.959843756875 927.8867924528302,447.0091571657102 932.4905660377358,479.1550276797343 937.0943396226414,477.4970187413648 941.6981132075471,443.62886759273925 946.3018867924528,447.62693730781723 950.9056603773585,444.53310663051684 955.5094339622641,398.563966485217 960.1132075471697,358.51446244468053 964.7169811320754,308.0238748178585 969.3207547169811,295.85819610994605 973.9245283018868,276.18641223343036 978.5283018867924,263.0840600336215 983.132075471698,302.897862732114 987.7358490566037,312.2530894128047 992.3396226415093,301.0519283134287 996.9433962264151,326.2663315722243 1001.5471698113207,305.680248870788 1006.1509433962265,295.97192124343036 1010.7547169811321,300.92256258992916 1015.3584905660377,356.7307548221235 1019.9622641509435,357.4632841305151 1024.566037735849,349.1566736193783 1029.169811320755,411.9722204713505 1033.7735849056603,411.39492686860314 1038.3773584905662,460.4867073244932 1042.9811320754718,442.28181482444865 1047.5849056603774,434.30211481856054 1052.188679245283,464.00681241924485 1056.7924528301887,506.26049513855975 1061.3962264150944,488.6527650841846 1066.0,449.2695593365361 1070.6037735849059,436.35953284575754 1075.2075471698113,379.4652803329548 1079.8113207547171,337.3385164187425 1084.4150943396226,308.48356802621714 1089.0188679245284,324.03116727846634 1093.622641509434,357.54656047981825 1098.2264150943397,322.29507627767214 1102.8301886792453,338.97219460671283 1107.433962264151,347.0983068596307 1112.0377358490566,321.21254563489333 1116.6415094339623,266.03231168940204 1121.245283018868,196.36110416559643 1125.8490566037735,171.47031975496202 1130.4528301886792,176.9965911193052 1135.056603773585,152.36465636549735 1139.6603773584907,90.0 1144.2641509433963,128.82615783206904 1148.867924528302,104.56673412239945 1153.4716981132076,124.47859761873713 1158.0754716981132,104.31820065358806 1162.6792452830189,92.45428192973418 1167.2830188679245,154.8385513827044 1171.8867924528302,92.75125466935367 1176.4905660377358,98.75933546933356 1181.0943396226414,152.68661664872286 1185.6981132075473,151.83142597903804 1190.301886792453,158.6434472070855 1194.9056603773586,204.60671900865452 1199.5094339622642,213.56273115055967 1204.1132075471698,267.0225918340579 1208.7169811320755,243.96031056156738 1213.3207547169811,233.20644515514317 1217.9245283018868,224.0981783468918 1222.5283018867924,272.4709706531014 1227.132075471698,262.4041085301745 1231.7358490566037,250.46536959049382 1236.3396226415095,236.04058654307028 1240.9433962264152,206.05655223772146 1245.5471698113208,254.04130676367038 1250.1509433962265,278.31459585900063 1254.754716981132,423.9854437799014 1259.3584905660377,403.19984268440913 1263.9622641509434,400.9537035372969 1268.566037735849,390.7986402051547 1273.1698113207547,376.46570712905606 1277.7735849056603,377.31448969852624 1282.377358490566,371.4258076464215 1286.9811320754718,383.94257381918254 1291.5849056603774,389.3309255051518 1296.188679245283,359.9135016110371 1300.7924528301887,331.8234072548331 1305.3962264150944,325.1455326242552 1310.0,339.5109399689854" fill="none" stroke="#9333ea" stroke-width="2.5"><title>budgeted_drawdown_tilt_rebalance | end=2026-04-30 | return=64.71%</title></polyline>
<polyline points="90.0,535.351264097032 94.60377358490567,535.193252111505 99.20754716981132,533.1266018623136 103.81132075471697,535.6437609758194 108.41509433962264,532.5486348708704 113.01886792452831,524.5684549538178 117.62264150943396,524.5919557047847 122.22641509433961,540.2009880520063 126.83018867924528,541.7010536410401 131.43396226415095,539.3897404751314 136.03773584905662,548.5779748160553 140.64150943396226,549.4050033763033 145.24528301886792,562.4305390487611 149.8490566037736,560.8525571095513 154.45283018867923,561.593754495337 159.05660377358492,569.7625365589903 163.66037735849056,565.1955881160504 168.26415094339623,533.4646586793497 172.8679245283019,514.4704939067524 177.47169811320754,496.23768662134165 182.0754716981132,483.9917549231944 186.67924528301887,487.5538803952624 191.2830188679245,451.0037764088085 195.88679245283018,475.98496946034663 200.49056603773585,465.02857752893016 205.0943396226415,494.53678042669446 209.69811320754718,506.03479460901224 214.30188679245282,442.21158996615145 218.9056603773585,419.24955164071605 223.50943396226415,389.04115549126203 228.11320754716982,380.5392884445141 232.71698113207546,363.8155130222264 237.32075471698113,342.8358859380601 241.9245283018868,407.79647022352634 246.52830188679246,370.9431204125382 251.1320754716981,379.77357773170485 255.73584905660377,432.8357139633591 260.33962264150944,441.13608295698526 264.9433962264151,421.45070372325597 269.5471698113207,457.36764484573575 274.1509433962264,488.75631933421994 278.7547169811321,500.17508866435173 283.35849056603774,520.9714953107623 287.9622641509434,566.9047521187838 292.566037735849,550.3714741719829 297.1698113207547,506.78413839027905 301.77358490566036,527.7733179275497 306.37735849056605,552.7875175321731 310.9811320754717,524.6814521537253 315.58490566037733,548.4140375001014 320.188679245283,531.0091209255231 324.7924528301887,502.8936185188013 329.39622641509436,487.6093968896676 334.0,498.0271492274519 338.60377358490564,522.2061473610179 343.20754716981133,522.6291507896748 347.811320754717,528.0013894942333 352.41509433962267,550.1544814664453 357.0188679245283,623.0968376591975 361.62264150943395,614.7838959476976 366.22641509433964,631.99417300509 370.8301886792453,625.1669474572573 375.4339622641509,629.0357867264928 380.0377358490566,704.969329972759 384.64150943396226,697.896566134865 389.24528301886795,706.1084271036206 393.8490566037736,690.643502329055 398.45283018867923,696.8347446677767 403.0566037735849,665.3605898245994 407.66037735849056,654.1335288487436 412.2641509433962,665.2653790207963 416.8679245283019,644.6110714050177 421.47169811320754,649.2834669134663 426.0754716981132,663.774132872942 430.6792452830189,675.1234960922527 435.2830188679245,674.9922226461833 439.8867924528302,683.3065744399231 444.49056603773585,692.9817776331798 449.0943396226415,691.7473383124424 453.6981132075472,689.5170878578621 458.3018867924528,695.3899844861849 462.90566037735846,696.8033945020882 467.50943396226415,678.821376092069 472.1132075471698,678.1439383590808 476.71698113207543,701.1687435280669 481.3207547169811,709.8357049806949 485.92452830188677,709.9560386710453 490.5283018867924,704.2566459523193 495.1320754716981,703.1836536449902 499.73584905660374,703.5476907555728 504.33962264150944,708.3050012443017 508.9433962264151,710.0 513.5471698113207,706.2990846153255 518.1509433962265,689.5934942599962 522.7547169811321,673.9361310044224 527.3584905660377,664.3530880651157 531.9622641509434,660.2057515398096 536.566037735849,671.7938416139122 541.1698113207547,660.44551439799 545.7735849056603,658.221439513505 550.377358490566,660.0174522568456 554.9811320754718,683.1080773502176 559.5849056603774,652.8378096019222 564.1886792452831,633.2054595604501 568.7924528301887,635.702951002821 573.3962264150944,630.9405777691103 578.0,614.5413094780894 582.6037735849056,626.1455503524677 587.2075471698113,623.9186344223128 591.811320754717,627.8979929655712 596.4150943396227,639.2177234625419 601.0188679245283,639.4717123161498 605.622641509434,640.3375617717796 610.2264150943396,635.8931312888026 614.8301886792453,637.9466273835532 619.433962264151,651.1992209177488 624.0377358490566,623.9859202112117 628.6415094339623,623.1509415328642 633.2452830188679,625.4413470551698 637.8490566037736,611.1659751021509 642.4528301886793,623.2072889279577 647.0566037735849,626.9626251218431 651.6603773584906,628.4538176220708 656.2641509433962,626.7431721816918 660.8679245283018,645.2207335666633 665.4716981132076,647.9467668535004 670.0754716981132,649.513385160296 674.6792452830189,648.1638505261916 679.2830188679245,648.2129897039586 683.8867924528302,650.2092597684002 688.4905660377359,645.146820735147 693.0943396226415,645.7489356635524 697.6981132075472,651.7039541824834 702.3018867924528,643.0608267070556 706.9056603773585,611.7070792485733 711.5094339622641,608.9178646553994 716.1132075471698,587.1019403889813 720.7169811320755,596.6769315023569 725.3207547169811,587.7908385108519 729.9245283018868,586.7016602076314 734.5283018867924,552.8046241095429 739.1320754716982,555.5645415129129 743.7358490566038,555.9902530020364 748.3396226415094,555.8697297433758 752.9433962264151,553.5274297003768 757.5471698113207,530.5546395836544 762.1509433962264,555.014060817706 766.7547169811321,571.5536891227448 771.3584905660377,556.3399051641751 775.9622641509434,542.8104003244745 780.566037735849,499.792038292101 785.1698113207547,494.8788282713417 789.7735849056604,443.20217865881074 794.377358490566,397.59560939228487 798.9811320754717,382.84189257352335 803.5849056603773,421.1198815426911 808.188679245283,400.5218327318463 812.7924528301886,419.08370050618714 817.3962264150944,405.8495916213543 822.0,447.75331436319556 826.6037735849056,440.3349860471955 831.2075471698113,465.8436417227979 835.8113207547169,450.6037894884881 840.4150943396226,447.9641769375349 845.0188679245283,399.19555138377103 849.622641509434,399.58601678178496 854.2264150943396,388.6327675327813 858.8301886792452,417.90507508670424 863.4339622641509,421.99651144204097 868.0377358490566,435.3934030411304 872.6415094339623,469.68930170438125 877.2452830188679,466.6757797999536 881.8490566037735,428.8888013209184 886.4528301886792,435.9650310671745 891.0566037735848,436.2369330593175 895.6603773584906,474.0387729017422 900.2641509433962,493.04821484740353 904.8679245283018,481.3228586701853 909.4716981132075,489.44574979778895 914.0754716981131,507.8134587614081 918.6792452830189,501.83176757627484 923.2830188679245,481.1758109476429 927.8867924528302,465.61085961209574 932.4905660377358,494.13812953311424 937.0943396226414,493.86284672818 941.6981132075471,459.94813069036763 946.3018867924528,461.1729493402305 950.9056603773585,455.6628357031392 955.5094339622641,417.82070138990736 960.1132075471697,373.22935782588814 964.7169811320754,322.46212149744144 969.3207547169811,319.9362974485308 973.9245283018868,304.8649087673524 978.5283018867924,290.73125115993525 983.132075471698,322.3844767941247 987.7358490566037,331.9363522430426 992.3396226415093,321.8780716580616 996.9433962264151,347.4383582419053 1001.5471698113207,319.54779533963807 1006.1509433962265,305.5569740324185 1010.7547169811321,307.8225551475844 1015.3584905660377,363.72958659343465 1019.9622641509435,364.1599737093185 1024.566037735849,355.13303656082417 1029.169811320755,423.6521140816248 1033.7735849056603,413.16406842674706 1038.3773584905662,461.94222596941864 1042.9811320754718,444.8074390793219 1047.5849056603774,434.00428496302436 1052.188679245283,458.78074000906344 1056.7924528301887,489.21091975266717 1061.3962264150944,468.1728679474629 1066.0,427.58199997332736 1070.6037735849059,415.26909094276635 1075.2075471698113,370.15641941193985 1079.8113207547171,346.2156498927973 1084.4150943396226,313.71505466209294 1089.0188679245284,335.21228099538376 1093.622641509434,361.8697348921346 1098.2264150943397,333.95659834239154 1102.8301886792453,345.2168880742434 1107.433962264151,344.6018657714435 1112.0377358490566,325.05939669551293 1116.6415094339623,281.5681163002538 1121.245283018868,236.9523694254355 1125.8490566037735,224.72328988161195 1130.4528301886792,233.31025675132793 1135.056603773585,213.6753550072337 1139.6603773584907,167.72979243318048 1144.2641509433963,206.49666429782064 1148.867924528302,187.1269450557055 1153.4716981132076,206.3781940974185 1158.0754716981132,182.35634551289968 1162.6792452830189,169.6229259252833 1167.2830188679245,237.83980485021448 1171.8867924528302,166.26541512588108 1176.4905660377358,170.81282583464827 1181.0943396226414,238.03095808430555 1185.6981132075473,235.23464939250516 1190.301886792453,243.67240418425126 1194.9056603773586,296.01374990956737 1199.5094339622642,306.24155728082656 1204.1132075471698,368.6786107505328 1208.7169811320755,343.24033243258464 1213.3207547169811,333.0191225485142 1217.9245283018868,324.7731896803347 1222.5283018867924,371.8545811076096 1227.132075471698,362.07845530560496 1231.7358490566037,351.17344605814077 1236.3396226415095,337.928810339133 1240.9433962264152,311.07432001991845 1245.5471698113208,352.6980401191165 1250.1509433962265,375.00447949716573 1254.754716981132,501.3203242287342 1259.3584905660377,483.7361083784075 1263.9622641509434,481.53616224918244 1268.566037735849,474.70626162169896 1273.1698113207547,462.4787794647774 1277.7735849056603,463.3694433309498 1282.377358490566,460.66216984233785 1286.9811320754718,469.1592047306455 1291.5849056603774,474.34446009781107 1296.188679245283,452.04139920847905 1300.7924528301887,432.1745318857854 1305.3962264150944,424.96581601297703 1310.0,435.3515342558552" fill="none" stroke="#92400e" stroke-width="2.5"><title>budgeted_btc_defensive_eth_aggressive | end=2026-04-30 | return=33.04%</title></polyline>
</svg>