<svg xmlns="http://www.w3.org/2000/svg" width="1400" height="800">
<rect width="1400" height="800" fill="#f8fafc"/>
<text x="700.0" y="42" text-anchor="middle" font-family="monospace" font-size="24" fill="#0f172a">Portfolio Value Over Time | start=2024-07-01 | interval=2d</text>
<line x1="90" y1="710" x2="1310" y2="710" stroke="#334155" stroke-width="2"/>
<line x1="90" y1="90" x2="90" y2="710" stroke="#334155" stroke-width="2"/>
<line x1="90.0" y1="710" x2="90.0" y2="90" stroke="#cbd5e1" stroke-width="1"/>
<text x="90.0" y="734" text-anchor="middle" font-family="monospace" font-size="11" fill="#475569">2024-07-01</text>
<line x1="90" y1="710.0" x2="1310" y2="710.0" stroke="#cbd5e1" stroke-width="1"/>
<text x="78" y="714.0" text-anchor="end" font-family="monospace" font-size="12" fill="#475569">8611</text>
<line x1="334.0" y1="710" x2="334.0" y2="90" stroke="#cbd5e1" stroke-width="1"/>
<text x="334.0" y="734" text-anchor="middle" font-family="monospace" font-size="11" fill="#475569">2024-11-14</text>
<line x1="90" y1="586.0" x2="1310" y2="586.0" stroke="#cbd5e1" stroke-width="1"/>
<text x="78" y="590.0" text-anchor="end" font-family="monospace" font-size="12" fill="#475569">10775</text>
<line x1="578.0" y1="710" x2="578.0" y2="90" stroke="#cbd5e1" stroke-width="1"/>
<text x="578.0" y="734" text-anchor="middle" font-family="monospace" font-size="11" fill="#475569">2025-03-28</text>
<line x1="90" y1="462.0" x2="1310" y2="462.0" stroke="#cbd5e1" stroke-width="1"/>
<text x="78" y="466.0" text-anchor="end" font-family="monospace" font-size="12" fill="#475569">12940</text>
<line x1="822.0000000000001" y1="710" x2="822.0000000000001" y2="90" stroke="#cbd5e1" stroke-width="1"/>
<text x="822.0000000000001" y="734" text-anchor="middle" font-family="monospace" font-size="11" fill="#475569">2025-08-11</text>
<line x1="90" y1="338.0" x2="1310" y2="338.0" stroke="#cbd5e1" stroke-width="1"/>
<text x="78" y="342.0" text-anchor="end" font-family="monospace" font-size="12" fill="#475569">15104</text>
<line x1="1066.0" y1="710" x2="1066.0" y2="90" stroke="#cbd5e1" stroke-width="1"/>
<text x="1066.0" y="734" text-anchor="middle" font-family="monospace" font-size="11" fill="#475569">2025-12-23</text>
<line x1="90" y1="213.9999999999999" x2="1310" y2="213.9999999999999" stroke="#cbd5e1" stroke-width="1"/>
<text x="78" y="217.9999999999999" text-anchor="end" font-family="monospace" font-size="12" fill="#475569">17269</text>
<line x1="1310.0" y1="710" x2="1310.0" y2="90" stroke="#cbd5e1" stroke-width="1"/>
<text x="1310.0" y="734" text-anchor="middle" font-family="monospace" font-size="11" fill="#475569">2026-05-08</text>
<line x1="90" y1="90.0" x2="1310" y2="90.0" stroke="#cbd5e1" stroke-width="1"/>
<text x="78" y="94.0" text-anchor="end" font-family="monospace" font-size="12" fill="#475569">19433</text>
<text x="700.0" y="782" text-anchor="middle" font-family="monospace" font-size="16" fill="#0f172a">time</text>
<text x="24" y="400.0" transform="rotate(-90 24,400.0)" text-anchor="middle" font-family="monospace" font-size="16" fill="#0f172a">portfolio_value_usd</text>
<line x1="970" y1="80" x2="988" y2="80" stroke="#0f766e" stroke-width="3"/>
<text x="998" y="84" font-family="monospace" font-size="12" fill="#0f172a">budgeted_static_50_50_rebalance</text>
<line x1="970" y1="104" x2="988" y2="104" stroke="#9333ea" stroke-width="3"/>
<text x="998" y="108" font-family="monospace" font-size="12" fill="#0f172a">budgeted_drawdown_tilt_rebalance</text>
<line x1="970" y1="128" x2="988" y2="128" stroke="#92400e" stroke-width="3"/>
<text x="998" y="132" font-family="monospace" font-size="12" fill="#0f172a">budgeted_btc_defensive_eth_aggressive</text>
<polyline points="90.0,630.4106999163472 93.6094674556213,630.9980921809488 97.2189349112426,633.0494506324774 100.82840236686391,633.6462530452576 104.43786982248521,631.4331015718273 108.04733727810651,631.4879320293985 111.65680473372781,629.1352249246456 115.26627218934911,619.8348759553039 118.87573964497041,622.1644488842749 122.48520710059171,617.1575419036164 126.09467455621302,614.8296351567724 129.70414201183434,618.8496910526397 133.31360946745562,626.8329371263641 136.92307692307693,621.7308377566291 140.53254437869822,621.4624946801468 144.14201183431953,627.7446309590559 147.75147928994082,641.6541748201495 151.36094674556213,658.5235346102747 154.97041420118342,671.3788169326381 158.57988165680473,650.2832781808039 162.18934911242604,655.1995316016787 165.79881656804733,653.6518192455129 169.40828402366864,658.3011365338523 173.01775147928993,661.3013752930756 176.62721893491124,661.4845608981742 180.23668639053255,662.1171881677402 183.84615384615387,655.1322529552989 187.45562130177515,634.5445901597303 191.06508875739644,644.4638160301322 194.67455621301775,667.0430280483877 198.28402366863907,667.0117658234594 201.89349112426035,680.5915576902607 205.50295857988164,680.1173996664772 209.11242603550295,689.4250702445495 212.72189349112426,704.6656048969442 216.33136094674558,686.8138731214085 219.94082840236686,687.3722766140531 223.55029585798817,667.3713293113633 227.15976331360946,682.968574701473 230.76923076923077,676.5288592512138 234.37869822485206,656.6636639994782 237.98816568047337,642.8536752607793 241.59763313609466,640.089238120034 245.207100591716,646.5568542678839 248.81656804733728,627.2618477490828 252.4260355029586,631.1132835288971 256.03550295857985,665.9622772108718 259.64497041420117,674.548103890888 263.2544378698225,664.3701051163905 266.86390532544374,663.2270832247264 270.4733727810651,673.4964157569739 274.08284023668637,660.637380706016 277.69230769230774,656.9985448375876 281.301775147929,630.2737902072585 284.9112426035503,629.218245532902 288.5207100591716,622.1641832255899 292.1301775147929,624.1689867886618 295.7396449704142,639.2223919848782 299.3491124260355,646.8258099885088 302.9585798816568,635.9766094047544 306.56804733727813,607.7913719989904 310.1775147928994,627.3209741039407 313.7869822485207,632.055759109311 317.396449704142,645.9817343263284 321.00591715976327,590.1790982643281 324.61538461538464,565.4781971263212 328.2248520710059,532.746510024989 331.83431952662727,501.97883247225775 335.4437869822485,520.8453434059992 339.0532544378698,503.3679609278098 342.66272189349115,497.07464266226157 346.2721893491124,496.68750343972425 349.8816568047337,458.4770031406887 353.49112426035504,458.6322959927028 357.10059171597635,481.57230964424804 360.7100591715976,447.06245830084663 364.3195266272189,433.30686291257905 367.92899408284023,440.62119075541085 371.53846153846155,414.21538489680853 375.14792899408286,396.68910714423356 378.7573964497041,392.40736472608006 382.36686390532543,438.6171085449364 385.97633136094674,406.56668187530323 389.58579881656806,403.3219868285717 393.1952662721893,378.4319395164378 396.8047337278107,427.62762766897725 400.414201183432,448.22540710762837 404.02366863905326,473.1181202947613 407.63313609467457,443.53923949474444 411.2426035502959,466.68075428799733 414.8520710059172,462.4739931550466 418.46153846153845,474.00710487135933 422.07100591715977,468.6874655046885 425.6804733727811,434.64830031005874 429.28994082840234,431.5715824368724 432.89940828402365,458.1225296230633 436.50887573964496,485.98228325196686 440.1183431952663,474.10511923540275 443.72781065088753,487.2158484143498 447.33727810650885,440.2239545222287 450.9467455621302,426.96992993043904 454.55621301775153,459.6315098982906 458.1656804733728,433.83060043928066 461.7751479289941,439.5641775331492 465.3846153846154,438.99304347050173 468.9940828402367,459.5327322896819 472.603550295858,460.8027046273626 476.2130177514793,447.27229698178616 479.8224852071006,501.6304142011962 483.43195266272187,514.4174364209255 487.0414201183432,522.4316660313422 490.6508875739645,528.1268534108972 494.2603550295858,522.3736525181786 497.86982248520707,513.3677849952137 501.4792899408284,515.6242914238104 505.08875739644975,526.1610325708772 508.69822485207095,526.6996644337672 512.3076923076924,511.9904326924013 515.9171597633136,514.4920677150967 519.5266272189349,554.2086226006919 523.1360946745563,593.7006197987816 526.7455621301775,603.1461572597441 530.3550295857988,544.8469892076569 533.9644970414201,601.4063594193102 537.5739644970414,590.4110672808833 541.1834319526627,600.8284309317013 544.792899408284,659.5472180868182 548.4023668639053,640.2181365638681 552.0118343195265,638.9017541589177 555.6213017751479,645.6426107245635 559.2307692307693,640.1257350572647 562.8402366863904,630.090734569833 566.4497041420118,631.2697975432799 570.0591715976332,609.4824754722579 573.6686390532545,619.4131851686475 577.2781065088757,639.4508312444293 580.887573964497,655.312862057046 584.4970414201184,636.2921936517648 588.1065088757396,652.0836067720545 591.7159763313609,652.5315361524824 595.3254437869823,693.7983606055784 598.9349112426036,670.1083773995159 602.5443786982248,680.8361244282162 606.1538461538462,676.0716206549571 609.7633136094674,677.3840888915994 613.3727810650888,674.5306793695289 616.9822485207101,670.6331806110348 620.5917159763313,668.5052329699078 624.2011834319527,625.8345785926176 627.810650887574,624.6490898976537 631.4201183431952,626.2315662547453 635.0295857988166,624.1957959955117 638.6390532544378,613.38929792155 642.2485207100591,615.6506864322031 645.8579881656805,620.222028914898 649.4674556213018,615.5907343692785 653.0769230769231,532.1393941211832 656.6863905325444,507.80029656801764 660.2958579881657,487.4094504753307 663.905325443787,504.1344990075761 667.5147928994082,514.4412200902068 671.1242603550296,501.7080898202838 674.7337278106509,488.15022855727875 678.3431952662722,497.29370973565767 681.9526627218935,489.83428507204746 685.5621301775147,477.39833362185317 689.1715976331361,489.8764120711386 692.7810650887574,503.9247904204709 696.3905325443786,491.550443329011 700.0,494.662686006604 703.6094674556214,510.19642523188054 707.2189349112426,502.83846997198316 710.828402366864,456.61021695584355 714.4378698224851,488.05499673859646 718.0473372781065,501.07062428034715 721.6568047337278,495.86123762251395 725.2662721893491,503.25314888989766 728.8757396449704,520.6605034717913 732.4852071005918,546.9168711846992 736.094674556213,507.76233154502324 739.7041420118344,509.1265087336428 743.3136094674555,506.0143908650243 746.9230769230769,500.8628027093912 750.5325443786982,486.62199778612046 754.1420118343195,495.9869866477152 757.7514792899409,485.80084320147535 761.3609467455622,481.30293520695193 764.9704142011835,424.8473156378161 768.5798816568047,421.7754646599901 772.189349112426,407.6484628860143 775.7988165680473,371.40079579868507 779.4082840236687,354.1521189049817 783.0177514792899,334.0495847056525 786.6272189349113,327.25516753330896 790.2366863905326,336.0529546226 793.8461538461538,333.8441099303263 797.4556213017751,327.9657665585856 801.0650887573964,327.60108519380327 804.6745562130177,372.5195578904978 808.2840236686391,368.6081757558867 811.8934911242604,357.8998467693836 815.5029585798817,319.1019691749452 819.1124260355031,288.8140998847694 822.7218934911242,285.59544114956924 826.3313609467456,222.65205716686864 829.9408284023668,269.16035563586127 833.5502958579882,266.0553294949149 837.1597633136095,316.081565487301 840.7692307692308,304.166568922348 844.3786982248521,246.49938259541148 847.9881656804733,298.09785117038416 851.5976331360946,283.28101695588873 855.207100591716,305.2095969842366 858.8165680473372,302.95883306741854 862.4260355029586,298.5119259334009 866.03550295858,302.6221198992144 869.6449704142012,306.3301702434591 873.2544378698224,297.5488228012786 876.8639053254437,287.5664420574694 880.4733727810651,249.95562426564823 884.0828402366864,261.63477089994944 887.6923076923077,265.2685280068976 891.301775147929,257.1133162717089 894.9112426035504,270.4357483202524 898.5207100591716,303.55898790850205 902.1301775147929,305.67386956126796 905.7396449704141,327.6761468971086 909.3491124260355,310.23614927118837 912.9585798816568,303.9884854317506 916.5680473372781,253.46258116979197 920.1775147928995,247.37843704767852 923.7869822485208,223.3106029234924 927.3964497041419,241.29558336764563 931.0059171597633,333.161890656884 934.6153846153846,298.3900339362402 938.2248520710059,307.3097588194141 941.8343195266273,343.0108151269426 945.4437869822485,346.54307022928083 949.0532544378699,327.9222065328959 952.662721893491,352.7518002456746 956.2721893491124,330.2383082385408 959.8816568047337,299.3593360003212 963.491124260355,320.36068589271207 967.1005917159763,350.504560159636 970.7100591715977,338.92384596447414 974.319526627219,373.9709304220775 977.9289940828403,398.65817791163255 981.5384615384614,399.58682638154147 985.1479289940828,381.29301878900105 988.7573964497042,402.01510534287854 992.3668639053254,430.0845967897671 995.9763313609468,448.8019063208865 999.5857988165681,472.76611393301096 1003.1952662721894,475.2425195996637 1006.8047337278106,520.3938778795904 1010.4142011834319,511.2241643094896 1014.0236686390532,494.1669717791938 1017.6331360946746,475.77566073811226 1021.2426035502958,479.7402987374577 1024.8520710059172,513.027805481486 1028.4615384615386,451.64860180913917 1032.0710059171597,481.1246145440632 1035.6804733727809,473.99227552616935 1039.2899408284025,441.69792427307283 1042.8994082840236,449.9597614091654 1046.508875739645,469.0810078852995 1050.1183431952663,495.91233586126737 1053.7278106508875,509.1886968264922 1057.337278106509,488.96246189800235 1060.9467455621302,484.9227908847831 1064.5562130177514,492.57839544507215 1068.1656804733727,499.248135861913 1071.775147928994,492.9016045913265 1075.3846153846152,496.3638727007721 1078.9940828402368,491.95311262036034 1082.603550295858,468.67815270915224 1086.2130177514791,461.95509153427605 1089.8224852071005,440.0979904554589 1093.4319526627219,467.10003346625933 1097.0414201183432,471.2682677494897 1100.6508875739646,467.751612304006 1104.2603550295858,424.0197138750828 1107.8698224852071,434.4030210365807 1111.4792899408285,441.61242044985266 1115.0887573964496,491.5280877000698 1118.698224852071,486.56386553385084 1122.3076923076924,487.8448355553132 1125.9171597633135,492.6613130337069 1129.526627218935,482.02793253613663 1133.1360946745563,527.7177601881408 1136.7455621301776,593.7560457954118 1140.3550295857988,601.6081022510983 1143.9644970414201,685.8788909719074 1147.5739644970415,636.0928469691503 1151.1834319526627,631.3724824622896 1154.792899408284,659.3410155620905 1158.4023668639054,641.727790418413 1162.0118343195268,650.7632457648559 1165.621301775148,652.2823828319765 1169.2307692307693,658.5474170682996 1172.8402366863904,652.6427027097066 1176.4497041420118,676.2808634858577 1180.0591715976332,642.7989302529322 1183.6686390532545,663.9551848279245 1187.2781065088757,663.1333803249594 1190.887573964497,649.9884710896123 1194.4970414201182,631.6914166265167 1198.1065088757396,654.9305187274879 1201.715976331361,648.5096299053289 1205.3254437869823,636.198236803961 1208.9349112426037,629.3164691552552 1212.5443786982248,613.7046230891181 1216.1538461538462,594.761724220063 1219.7633136094673,627.4574484407391 1223.3727810650887,636.5621100694453 1226.98224852071,622.840972229806 1230.5917159763314,619.6746898509355 1234.2011834319526,655.0200980932915 1237.810650887574,657.2628188608177 1241.4201183431953,636.6213320866154 1245.0295857988165,646.0937710172675 1248.6390532544378,643.8735612634405 1252.2485207100592,634.1427946458332 1255.8579881656806,617.7969138369517 1259.4674556213017,605.4355338444122 1263.076923076923,618.6899892425139 1266.6863905325445,593.1928897491591 1270.2958579881656,587.2643258123803 1273.905325443787,585.0850045609766 1277.5147928994083,588.5752006771312 1281.1242603550295,574.455189993909 1284.7337278106509,583.2204289384488 1288.3431952662722,573.4379668007866 1291.9526627218936,589.7453472761256 1295.5621301775147,593.2582898051927 1299.1715976331361,579.1100481877081 1302.7810650887573,572.1021365620629 1306.3905325443786,566.6067801384145 1310.0,575.2909050939584" fill="none" stroke="#0f766e" stroke-width="2.5"><title>budgeted_static_50_50_rebalance | end=2026-05-08 | return=9.62%</title></polyline>
<polyline points="90.0,630.4106999163472 93.6094674556213,630.8512422554223 97.2189349112426,632.3945207576712 100.82840236686391,632.967798521224 104.43786982248521,630.6208925520582 108.04733727810651,630.6481192556924 111.65680473372781,628.4139317685466 115.26627218934911,619.8038233895683 118.87573964497041,621.7430316355615 122.48520710059171,617.6874025592581 126.09467455621302,615.9943601007061 129.70414201183434,618.6836327509143 133.31360946745562,623.8224148648392 136.92307692307693,620.6115313554302 140.53254437869822,620.3225815753038 144.14201183431953,624.3731379051261 147.75147928994082,633.5897296653743 151.36094674556213,645.561623159924 154.97041420118342,655.3004132000829 158.57988165680473,639.1117863538686 162.18934911242604,643.1984219938747 165.79881656804733,641.0979650057797 169.40828402366864,645.2302735502457 173.01775147928993,648.2912532659241 176.62721893491124,648.212492737717 180.23668639053255,649.2408655928431 183.84615384615387,642.7873438237689 187.45562130177515,623.3957532104798 191.06508875739644,633.2237428953705 194.67455621301775,655.1578792310237 198.28402366863907,655.1863224521923 201.89349112426035,669.0309316227924 205.50295857988164,668.6576558460769 209.11242603550295,678.1897401379314 212.72189349112426,694.3065697213565 216.33136094674558,675.7382542431735 219.94082840236686,676.915486937478 223.55029585798817,655.36189244161 227.15976331360946,674.1969579720666 230.76923076923077,667.34767525647 234.37869822485206,644.0838544783555 237.98816568047337,625.1271633638924 241.59763313609466,621.1814661163164 245.207100591716,629.9393876451936 248.81656804733728,607.4495442505232 252.4260355029586,612.5514833410668 256.03550295857985,653.2738441069708 259.64497041420117,665.115398162725 263.2544378698225,653.1074219565683 266.86390532544374,651.7586392682563 270.4733727810651,663.4185617971218 274.08284023668637,648.6592170740696 277.69230769230774,644.1015386452743 281.301775147929,613.6703972595582 284.9112426035503,612.7641687768585 288.5207100591716,604.4422163894499 292.1301775147929,605.6157460662536 295.7396449704142,625.4095147410555 299.3491124260355,635.9482881011056 302.9585798816568,623.1738631117136 306.56804733727813,591.6085643023495 310.1775147928994,614.6728373862056 313.7869822485207,619.9730393439368 317.396449704142,636.6710601569171 321.00591715976327,571.7056929219269 324.61538461538464,539.6555132272682 328.2248520710059,500.28222472034685 331.83431952662727,468.79528407645194 335.4437869822485,493.3221695087418 339.0532544378698,474.293423345359 342.66272189349115,465.9115185639406 346.2721893491124,470.0571749833932 349.8816568047337,426.51902229679746 353.49112426035504,425.6652625365291 357.10059171597635,448.151220104188 360.7100591715976,408.75900690159074 364.3195266272189,392.8001933726263 367.92899408284023,400.86499032224276 371.53846153846155,373.32030403365223 375.14792899408286,354.5966901933853 378.7573964497041,351.2581465195068 382.36686390532543,396.229411787053 385.97633136094674,365.81964244548465 389.58579881656806,363.6667074299144 393.1952662721893,342.55619030098615 396.8047337278107,386.2017487338511 400.414201183432,404.23333680272356 404.02366863905326,425.797982260127 407.63313609467457,400.1085326529855 411.2426035502959,419.9573027537281 414.8520710059172,415.7333274275898 418.46153846153845,425.4603575210306 422.07100591715977,421.2268156629596 425.6804733727811,389.3969363063998 429.28994082840234,386.4885788005875 432.89940828402365,411.5082814664302 436.50887573964496,436.471499055539 440.1183431952663,425.73997358831446 443.72781065088753,438.9640935872991 447.33727810650885,394.0447406091122 450.9467455621302,382.16620011428233 454.55621301775153,414.08669375446755 458.1656804733728,390.0794109088803 461.7751479289941,394.7452941091552 465.3846153846154,394.7264195246363 468.9940828402367,415.7229048748665 472.603550295858,418.6537675743905 476.2130177514793,401.63746744847623 479.8224852071006,460.70603391153895 483.43195266272187,476.2560169935372 487.0414201183432,484.86324338844446 490.6508875739645,492.1183416301243 494.2603550295858,485.69247721952274 497.86982248520707,473.9364458014368 501.4792899408284,476.54989406946254 505.08875739644975,489.18520420692255 508.69822485207095,489.19450471946186 512.3076923076924,472.63138862577483 515.9171597633136,473.568150583112 519.5266272189349,521.8611588547019 523.1360946745563,566.270859785916 526.7455621301775,579.5620770424919 530.3550295857988,513.5509052814454 533.9644970414201,582.0304479675573 537.5739644970414,570.544001310407 541.1834319526627,579.839329423497 544.792899408284,651.5234750995795 548.4023668639053,631.5643098117322 552.0118343195265,630.1445662513632 555.6213017751479,637.8662110833051 559.2307692307693,629.9851536433896 562.8402366863904,617.3616963209756 566.4497041420118,618.60619386654 570.0591715976332,591.2763964508109 573.6686390532545,605.6022567001452 577.2781065088757,632.2608729196129 580.887573964497,653.4379493190554 584.4970414201184,628.3445898252028 588.1065088757396,649.9914701389318 591.7159763313609,651.3015310507886 595.3254437869823,710.0 598.9349112426036,679.239170346756 602.5443786982248,696.7348462450568 606.1538461538462,690.0053092081243 609.7633136094674,691.8529817726624 613.3727810650888,689.394606175799 616.9822485207101,683.6237833617214 620.5917159763313,683.7327678499142 624.2011834319527,627.1468154101339 627.810650887574,626.5838425816547 631.4201183431952,627.8096961797097 635.0295857988166,625.3743483421548 638.6390532544378,612.0074204547827 642.2485207100591,614.5894469715124 645.8579881656805,620.0603315699932 649.4674556213018,615.848120029063 653.0769230769231,500.01183848197957 656.6863905325444,465.087937798053 660.2958579881657,433.92171037995195 663.905325443787,459.54402739106786 667.5147928994082,474.8620390526274 671.1242603550296,458.72184311807445 674.7337278106509,444.0536740663481 678.3431952662722,454.71062475360594 681.9526627218935,445.58718161676296 685.5621301775147,425.0403344833681 689.1715976331361,439.38268285687417 692.7810650887574,461.060822758924 696.3905325443786,442.771799489057 700.0,445.723745350862 703.6094674556214,471.33359104037186 707.2189349112426,461.6833772348799 710.828402366864,392.52476477396885 714.4378698224851,436.71817747360456 718.0473372781065,458.4871051194431 721.6568047337278,452.4670959391769 725.2662721893491,461.0912129887987 728.8757396449704,487.48190241551924 732.4852071005918,527.1087664174753 736.094674556213,472.2870303539126 739.7041420118344,476.1741820215491 743.3136094674555,471.6417302136949 746.9230769230769,462.82557781103606 750.5325443786982,442.4395649154711 754.1420118343195,456.385495290045 757.7514792899409,441.66117604500346 761.3609467455622,433.68992804065067 764.9704142011835,352.5939793299428 768.5798816568047,350.24504126734223 772.189349112426,330.94992446422634 775.7988165680473,267.0084788622806 779.4082840236687,236.5137619784532 783.0177514792899,202.2252548138889 786.6272189349113,197.4378986855229 790.2366863905326,207.2767418145133 793.8461538461538,203.41147462675713 797.4556213017751,195.63839906586793 801.0650887573964,194.81295199909277 804.6745562130177,244.68362680589178 808.2840236686391,241.13866031420235 811.8934911242604,228.48243574309208 815.5029585798817,187.81482003205906 819.1124260355031,153.36360009347402 822.7218934911242,152.00495271631007 826.3313609467456,90.0 829.9408284023668,132.71540153805984 833.5502958579882,129.61070937554473 837.1597633136095,175.71783383849913 840.7692307692308,163.65692093756775 844.3786982248521,109.60670179222802 847.9881656804733,155.00296437330644 851.5976331360946,141.82029788046032 855.207100591716,160.21286748391594 858.8165680473372,158.03876745724062 862.4260355029586,156.043064249827 866.03550295858,159.43307274412518 869.6449704142012,162.46457955367384 873.2544378698224,155.70980909666946 876.8639053254437,147.8992041511981 880.4733727810651,115.44188545144209 884.0828402366864,125.36664227140898 887.6923076923077,129.39910627006395 891.301775147929,122.36808444885048 894.9112426035504,133.3569577912914 898.5207100591716,160.85705587141774 902.1301775147929,162.96323481038394 905.7396449704141,180.2359666150238 909.3491124260355,166.1759006535716 912.9585798816568,161.51038900403375 916.5680473372781,120.50966236029399 920.1775147928995,115.93875274179106 923.7869822485208,95.96252468333512 927.3964497041419,111.03126964957914 931.0059171597633,186.97271962926516 934.6153846153846,157.71171502115965 938.2248520710059,164.81908112685096 941.8343195266273,194.13533196859566 945.4437869822485,196.92695171788614 949.0532544378699,181.41533535656617 952.662721893491,202.9555471412794 956.2721893491124,183.39457704080473 959.8816568047337,155.70715008909008 963.491124260355,174.73777445215228 967.1005917159763,201.81422231158388 970.7100591715977,191.25991545282295 974.319526627219,224.2556009742899 977.9289940828403,247.9119646382561 981.5384615384614,248.7110493561965 985.1479289940828,230.23869532731572 988.7573964497042,251.7746627878402 992.3668639053254,281.4123157038136 995.9763313609468,301.1974893502976 999.5857988165681,327.5404870796739 1003.1952662721894,330.25085283324063 1006.8047337278106,382.2617250170403 1010.4142011834319,371.6387057822051 1014.0236686390532,350.1523108374072 1017.6331360946746,328.20241368884217 1021.2426035502958,333.2429258018212 1024.8520710059172,375.7556239443203 1028.4615384615386,295.8278144743956 1032.0710059171597,333.96083524442975 1035.6804733727809,324.76003901868376 1039.2899408284025,280.95040325535086 1042.8994082840236,292.6259469936788 1046.508875739645,318.21961909282203 1050.1183431952663,353.67041560073676 1053.7278106508875,372.56012333653655 1057.337278106509,345.27016302782977 1060.9467455621302,339.94349493284005 1064.5562130177514,349.918567292699 1068.1656804733727,359.22032138266457 1071.775147928994,350.6848459285629 1075.3846153846152,355.0840790027103 1078.9940828402368,349.10557850253576 1082.603550295858,317.85174104789604 1086.2130177514791,309.4520044013323 1089.8224852071005,279.9066650263497 1093.4319526627219,316.6278107409698 1097.0414201183432,322.12116194997907 1100.6508875739646,317.6951735793647 1104.2603550295858,259.22706155753764 1107.8698224852071,273.08718723082217 1111.4792899408285,282.0399711825171 1115.0887573964496,350.20418173878437 1118.698224852071,343.9630466910192 1122.3076923076924,345.51213835540335 1125.9171597633135,351.76396858440137 1129.526627218935,337.3343129740873 1133.1360946745563,398.6012461011887 1136.7455621301776,487.00306484846016 1140.3550295857988,497.22409043604443 1143.9644970414201,607.9457582081686 1147.5739644970415,542.0729028831944 1151.1834319526627,535.8879616209732 1154.792899408284,574.5886118968602 1158.4023668639054,549.762843154712 1162.0118343195268,563.5864995936137 1165.621301775148,564.474994713186 1169.2307692307693,573.7238635888299 1172.8402366863904,565.5640638548718 1176.4497041420118,599.0589074644355 1180.0591715976332,550.5457856291589 1183.6686390532545,581.3505560185738 1187.2781065088757,579.9571614567498 1190.887573964497,562.2237031692187 1194.4970414201182,536.3562139930075 1198.1065088757396,568.8166997981976 1201.715976331361,560.0408744360432 1205.3254437869823,542.6765953130121 1208.9349112426037,532.6728808828043 1212.5443786982248,510.19633987980467 1216.1538461538462,481.49383439037905 1219.7633136094673,529.1200346845903 1223.3727810650887,542.4894654581487 1226.98224852071,522.8642519984447 1230.5917159763314,518.30018314459 1234.2011834319526,569.0629034525211 1237.810650887574,572.1623410655142 1241.4201183431953,541.9671905107041 1245.0295857988165,555.5288067010997 1248.6390532544378,552.4463529379244 1252.2485207100592,538.7131809259843 1255.8579881656806,515.1582325680004 1259.4674556213017,497.5853636163011 1263.076923076923,516.234040464984 1266.6863905325445,479.2685473792155 1270.2958579881656,470.8732450556165 1273.905325443787,468.0446921956086 1277.5147928994083,473.90046773610675 1281.1242603550295,453.7649662687084 1284.7337278106509,467.18481285221606 1288.3431952662722,452.68697001084 1291.9526627218936,476.4940996651182 1295.5621301775147,482.21225230290236 1299.1715976331361,461.9997558623312 1302.7810650887573,451.9585068224909 1306.3905325443786,444.81716095977987 1310.0,457.6055357551603" fill="none" stroke="#9333ea" stroke-width="2.5"><title>budgeted_drawdown_tilt_rebalance | end=2026-05-08 | return=30.16%</title></polyline>
<polyline points="90.0,630.4106999163472 93.6094674556213,630.8512441147984 97.2189349112426,632.8192967136463 100.82840236686391,633.4906644434583 104.43786982248521,630.7949332146361 108.04733727810651,630.9594014272254 111.65680473372781,627.8143039791315 115.26627218934911,615.8908914035543 118.87573964497041,618.6587154252765 122.48520710059171,612.7532922464538 126.09467455621302,610.0474337804163 129.70414201183434,614.5710224788885 133.31360946745562,622.760809355269 136.92307692307693,617.3379309999087 140.53254437869822,617.3180451120458 144.14201183431953,623.7328491016974 147.75147928994082,637.4265372483496 151.36094674556213,653.666713647978 154.97041420118342,666.3205396158885 158.57988165680473,644.0804842341397 162.18934911242604,649.172007741255 165.79881656804733,648.461344006018 169.40828402366864,653.4509602689516 173.01775147928993,656.3252444376985 176.62721893491124,656.8317721626352 180.23668639053255,657.0227824244171 183.84615384615387,648.7351039561967 187.45562130177515,624.7240603891782 191.06508875739644,635.7233667508129 194.67455621301775,660.7589841392586 198.28402366863907,660.6617673513897 201.89349112426035,674.4991017351732 205.50295857988164,673.9095191383792 209.11242603550295,682.9933356650328 212.72189349112426,697.4915828471238 216.33136094674558,679.6617994917951 219.94082840236686,679.7097142958933 223.55029585798817,659.7240111719514 227.15976331360946,673.9527574378353 230.76923076923077,667.2552813986055 234.37869822485206,647.8127667554187 237.98816568047337,636.1295353955317 241.59763313609466,633.9499983016591 245.207100591716,639.3991030370012 248.81656804733728,620.4299910102338 252.4260355029586,623.8384152865606 256.03550295857985,659.7329892340687 259.64497041420117,666.8565766498375 263.2544378698225,656.5818696826856 266.86390532544374,655.423555509186 270.4733727810651,666.2562524448938 274.08284023668637,652.8224026940277 277.69230769230774,649.347617535819 281.301775147929,621.1296582010505 284.9112426035503,619.7450723284691 288.5207100591716,612.4983566447066 292.1301775147929,615.6991272693718 295.7396449704142,629.127027681388 299.3491124260355,635.3869033890277 302.9585798816568,624.5028557584843 306.56804733727813,594.2131999123798 310.1775147928994,613.9565532903846 313.7869822485207,619.1316755733159 317.396449704142,632.7394468088953 321.00591715976327,575.3430816586069 324.61538461538464,554.3075478237089 328.2248520710059,521.7172262404385 331.83431952662727,484.2275529933097 335.4437869822485,500.6151272779429 339.0532544378698,480.91250867587206 342.66272189349115,476.09618899145994 346.2721893491124,468.94211564604194 349.8816568047337,430.33607718321315 353.49112426035504,432.3055608342818 357.10059171597635,461.82893090887364 360.7100591715976,427.4131853480818 364.3195266272189,414.90838714709946 367.92899408284023,421.90467981481095 371.53846153846155,395.3550192532098 375.14792899408286,378.96382290291234 378.7573964497041,373.3108044118618 382.36686390532543,419.07675310863414 385.97633136094674,386.7028170306719 389.58579881656806,381.8827895803055 393.1952662721893,353.5556103279219 396.8047337278107,404.7432432918677 400.414201183432,426.0563595601882 404.02366863905326,451.3089009895827 407.63313609467457,421.0733819104841 411.2426035502959,445.0156409373099 414.8520710059172,442.2435503637447 418.46153846153845,455.8778980029748 422.07100591715977,448.69819384228765 425.6804733727811,413.9872086568448 429.28994082840234,411.03911137902867 432.89940828402365,435.9377403955943 436.50887573964496,466.306552993465 440.1183431952663,453.1804605828273 443.72781065088753,464.3194273185229 447.33727810650885,415.7456904759991 450.9467455621302,398.97359747181554 454.55621301775153,430.80601319479365 458.1656804733728,401.5006426137926 461.7751479289941,409.93634382963234 465.3846153846154,408.102796935002 468.9940828402367,429.37186991559224 472.603550295858,427.45073165783407 476.2130177514793,419.11035120178013 479.8224852071006,470.91335186236637 483.43195266272187,480.66319775309205 487.0414201183432,489.12569670356754 490.6508875739645,493.55973499934555 494.2603550295858,487.3590360949959 497.86982248520707,479.8971941431234 501.4792899408284,482.27919393013383 505.08875739644975,492.88145142791586 508.69822485207095,494.3298576384309 512.3076923076924,477.8810490451906 515.9171597633136,483.34919038336966 519.5266272189349,523.0660430543398 523.1360946745563,567.2348735440794 526.7455621301775,573.6731150134631 530.3550295857988,511.26054886285954 533.9644970414201,566.3098139893195 537.5739644970414,552.8722765310742 541.1834319526627,568.241111485806 544.792899408284,625.3334945937877 548.4023668639053,600.8414943213352 552.0118343195265,599.2316719598581 555.6213017751479,606.9699498752557 559.2307692307693,603.0863273682465 562.8402366863904,593.0874696259568 566.4497041420118,594.6356299607623 570.0591715976332,571.8413762646369 573.6686390532545,579.6888241459043 577.2781065088757,598.7178493395552 580.887573964497,613.6621168055062 584.4970414201184,594.7815753695821 588.1065088757396,609.6906625864716 591.7159763313609,609.1881026231504 595.3254437869823,646.1181494523648 598.9349112426036,623.076864514235 602.5443786982248,627.5171369278135 606.1538461538462,623.7464930458284 609.7633136094674,624.8021783412763 613.3727810650888,619.6339649743702 616.9822485207101,616.9969610878563 620.5917159763313,609.3315253566072 624.2011834319527,567.3753919265305 627.810650887574,564.1039967551851 631.4201183431952,567.5125019162177 635.0295857988166,565.0047236139271 638.6390532544378,552.6213505763842 642.2485207100591,555.7324796701948 645.8579881656805,561.4461251604848 649.4674556213018,552.4593622949433 653.0769230769231,487.99807164787364 656.6863905325444,470.56933784729017 660.2958579881657,458.27120850641325 663.905325443787,469.48432511917184 667.5147928994082,477.5088755087834 671.1242603550296,463.39547744294595 674.7337278106509,444.734786252137 678.3431952662722,456.4125470262901 681.9526627218935,447.3911870981231 685.5621301775147,439.49101901306403 689.1715976331361,455.88880557087214 692.7810650887574,467.37654503579233 696.3905325443786,456.1814285021127 700.0,460.97573086221786 703.6094674556214,472.21781297604485 707.2189349112426,464.03614884203677 710.828402366864,422.47516173972394 714.4378698224851,454.367937230214 718.0473372781065,463.7776016714631 721.6568047337278,457.02593317817104 725.2662721893491,466.5388843453283 728.8757396449704,482.00330217924864 732.4852071005918,504.9773853469895 736.094674556213,467.1040385175344 739.7041420118344,465.8411852937232 743.3136094674555,463.03359208548954 746.9230769230769,460.112744894991 750.5325443786982,446.6522048345654 754.1420118343195,454.87267922853346 757.7514792899409,445.3060806474844 761.3609467455622,442.9741906875092 764.9704142011835,388.63874667585736 768.5798816568047,383.1699262826133 772.189349112426,368.01127409459303 775.7988165680473,346.1438351761965 779.4082840236687,335.6955907585499 783.0177514792899,322.9862561433115 786.6272189349113,312.9124653391626 790.2366863905326,322.52248724379706 793.8461538461538,321.31778149873315 797.4556213017751,316.1000539416195 801.0650887573964,316.0640002276508 804.6745562130177,361.7421407821497 808.2840236686391,357.22482559129065 811.8934911242604,347.1612368135949 815.5029585798817,307.54993041803704 819.1124260355031,278.2804221691866 822.7218934911242,273.97077635339525 826.3313609467456,208.2104238687894 829.9408284023668,257.9061799619772 833.5502958579882,254.66541581575632 837.1597633136095,307.990560612172 840.7692307692308,295.49381719605185 844.3786982248521,234.0666967288003 847.9881656804733,289.4946492780607 851.5976331360946,273.56921547214887 855.207100591716,297.1890566128896 858.8165680473372,294.75223931167955 862.4260355029586,290.04930758746997 866.03550295858,294.4860134907473 869.6449704142012,298.48851507730916 873.2544378698224,289.02651883885994 876.8639053254437,278.2616758955945 880.4733727810651,237.72574296832528 884.0828402366864,250.34415162045332 887.6923076923077,254.2983066266059 891.301775147929,245.48069449212238 894.9112426035504,259.89113764469397 898.5207100591716,295.6981701589096 902.1301775147929,297.9508007790894 905.7396449704141,321.66985940975997 909.3491124260355,302.88958037426175 912.9585798816568,296.10483870543646 916.5680473372781,241.68616581686115 920.1775147928995,235.06338424509596 923.7869822485208,209.11565686716142 927.3964497041419,228.51823553446616 931.0059171597633,327.8780286312787 934.6153846153846,290.5944396520127 938.2248520710059,300.3042324124273 941.8343195266273,338.8072907044657 945.4437869822485,342.6461768515767 949.0532544378699,322.24581868545795 952.662721893491,349.5846652463787 956.2721893491124,324.9422996693901 959.8816568047337,291.0612921968229 963.491124260355,314.1259836766247 967.1005917159763,347.146728198823 970.7100591715977,334.4961581613915 974.319526627219,372.78822423233817 977.9289940828403,399.50241324140075 981.5384615384614,400.558319223196 985.1479289940828,381.15004549128673 988.7573964497042,403.1793847758003 992.3668639053254,433.0944982802449 995.9763313609468,453.28595948166577 999.5857988165681,478.6439856691785 1003.1952662721894,481.31150080925033 1006.8047337278106,528.5926734603509 1010.4142011834319,518.9802495774817 1014.0236686390532,501.8877206715209 1017.6331360946746,482.61400983323773 1021.2426035502958,486.69070219301227 1024.8520710059172,521.0682129606489 1028.4615384615386,458.19601139637535 1032.0710059171597,488.64683156148453 1035.6804733727809,481.26334135042 1039.2899408284025,448.27093841442377 1042.8994082840236,456.6931424659593 1046.508875739645,476.50349405218753 1050.1183431952663,504.4052122759739 1053.7278106508875,518.0074612757342 1057.337278106509,497.30764407832766 1060.9467455621302,493.14207528416614 1064.5562130177514,501.0721459849242 1068.1656804733727,507.8601126898486 1071.775147928994,501.35281349131554 1075.3846153846152,504.9638928916705 1078.9940828402368,500.4467574039484 1082.603550295858,476.52877623575387 1086.2130177514791,469.4939394500303 1089.8224852071005,446.95522038627047 1093.4319526627219,474.893081613834 1097.0414201183432,479.23512256692527 1100.6508875739646,475.5402374622513 1104.2603550295858,430.0458598735739 1107.8698224852071,440.88814678993083 1111.4792899408285,448.531529870865 1115.0887573964496,500.60702835192603 1118.698224852071,495.3829247685871 1122.3076923076924,496.7447994127151 1125.9171597633135,501.7567141134341 1129.526627218935,490.8798026235985 1133.1360946745563,537.8690009650272 1136.7455621301776,605.0878478926683 1140.3550295857988,613.0136911436301 1143.9644970414201,697.0503245817757 1147.5739644970415,649.1826113358038 1151.1834319526627,644.5084996097365 1154.792899408284,671.1343187357538 1158.4023668639054,654.4457075141968 1162.0118343195268,662.5227086000766 1165.621301775148,664.6026315120597 1169.2307692307693,670.4654855230826 1172.8402366863904,664.6572123870359 1176.4497041420118,687.5804673012507 1180.0591715976332,656.2694457565358 1183.6686390532545,676.1055518096791 1187.2781065088757,675.436704700665 1190.887573964497,662.3854562283489 1194.4970414201182,644.8106763752817 1198.1065088757396,667.3850345060957 1201.715976331361,661.0478790612714 1205.3254437869823,649.1734011574188 1208.9349112426037,642.682530394579 1212.5443786982248,627.8163153316698 1216.1538461538462,610.4243013314655 1219.7633136094673,641.8108190609713 1223.3727810650887,650.4775396157485 1226.98224852071,637.1801446540579 1230.5917159763314,634.1221218233959 1234.2011834319526,668.3662918724594 1237.810650887574,670.568976252895 1241.4201183431953,651.0042454986843 1245.0295857988165,660.1418061630698 1248.6390532544378,657.9556982786632 1252.2485207100592,648.4601540111158 1255.8579881656806,632.693599415334 1259.4674556213017,620.6441241758162 1263.076923076923,633.6800363454201 1266.6863905325445,609.0396592757413 1270.2958579881656,603.2102063220746 1273.905325443787,600.9663850099648 1277.5147928994083,604.0916893840626 1281.1242603550295,590.129256129942 1284.7337278106509,598.4931332704869 1288.3431952662722,588.9891863132347 1291.9526627218936,605.018023290524 1295.5621301775147,608.2284096895835 1299.1715976331361,594.1849688161278 1302.7810650887573,587.2244748257103 1306.3905325443786,581.4021986582468 1310.0,589.9383207509941" fill="none" stroke="#92400e" stroke-width="2.5"><title>budgeted_btc_defensive_eth_aggressive | end=2026-05-08 | return=7.06%</title></polyline>
</svg>