<svg xmlns="http://www.w3.org/2000/svg" width="1400" height="800">
<rect width="1400" height="800" fill="#f8fafc"/>
<text x="700.0" y="42" text-anchor="middle" font-family="monospace" font-size="24" fill="#0f172a">Portfolio Value Over Time | start=2023-01-01 | interval=2d</text>
<line x1="90" y1="710" x2="1310" y2="710" stroke="#334155" stroke-width="2"/>
<line x1="90" y1="90" x2="90" y2="710" stroke="#334155" stroke-width="2"/>
<line x1="90.0" y1="710" x2="90.0" y2="90" stroke="#cbd5e1" stroke-width="1"/>
<text x="90.0" y="734" text-anchor="middle" font-family="monospace" font-size="11" fill="#475569">2023-01-01</text>
<line x1="90" y1="710.0" x2="1310" y2="710.0" stroke="#cbd5e1" stroke-width="1"/>
<text x="78" y="714.0" text-anchor="end" font-family="monospace" font-size="12" fill="#475569">9534</text>
<line x1="334.0" y1="710" x2="334.0" y2="90" stroke="#cbd5e1" stroke-width="1"/>
<text x="334.0" y="734" text-anchor="middle" font-family="monospace" font-size="11" fill="#475569">2023-09-02</text>
<line x1="90" y1="586.0" x2="1310" y2="586.0" stroke="#cbd5e1" stroke-width="1"/>
<text x="78" y="590.0" text-anchor="end" font-family="monospace" font-size="12" fill="#475569">15651</text>
<line x1="578.0" y1="710" x2="578.0" y2="90" stroke="#cbd5e1" stroke-width="1"/>
<text x="578.0" y="734" text-anchor="middle" font-family="monospace" font-size="11" fill="#475569">2024-05-05</text>
<line x1="90" y1="462.0" x2="1310" y2="462.0" stroke="#cbd5e1" stroke-width="1"/>
<text x="78" y="466.0" text-anchor="end" font-family="monospace" font-size="12" fill="#475569">21768</text>
<line x1="822.0" y1="710" x2="822.0" y2="90" stroke="#cbd5e1" stroke-width="1"/>
<text x="822.0" y="734" text-anchor="middle" font-family="monospace" font-size="11" fill="#475569">2025-01-04</text>
<line x1="90" y1="338.0" x2="1310" y2="338.0" stroke="#cbd5e1" stroke-width="1"/>
<text x="78" y="342.0" text-anchor="end" font-family="monospace" font-size="12" fill="#475569">27885</text>
<line x1="1066.0" y1="710" x2="1066.0" y2="90" stroke="#cbd5e1" stroke-width="1"/>
<text x="1066.0" y="734" text-anchor="middle" font-family="monospace" font-size="11" fill="#475569">2025-09-07</text>
<line x1="90" y1="214.0" x2="1310" y2="214.0" stroke="#cbd5e1" stroke-width="1"/>
<text x="78" y="218.0" text-anchor="end" font-family="monospace" font-size="12" fill="#475569">34002</text>
<line x1="1310.0" y1="710" x2="1310.0" y2="90" stroke="#cbd5e1" stroke-width="1"/>
<text x="1310.0" y="734" text-anchor="middle" font-family="monospace" font-size="11" fill="#475569">2026-05-09</text>
<line x1="90" y1="89.99999999999989" x2="1310" y2="89.99999999999989" stroke="#cbd5e1" stroke-width="1"/>
<text x="78" y="93.99999999999989" text-anchor="end" font-family="monospace" font-size="12" fill="#475569">40119</text>
<text x="700.0" y="782" text-anchor="middle" font-family="monospace" font-size="16" fill="#0f172a">time</text>
<text x="24" y="400.0" transform="rotate(-90 24,400.0)" text-anchor="middle" font-family="monospace" font-size="16" fill="#0f172a">portfolio_value_usd</text>
<line x1="970" y1="80" x2="988" y2="80" stroke="#0f766e" stroke-width="3"/>
<text x="998" y="84" font-family="monospace" font-size="12" fill="#0f172a">budgeted_static_50_50_rebalance</text>
<line x1="970" y1="104" x2="988" y2="104" stroke="#9333ea" stroke-width="3"/>
<text x="998" y="108" font-family="monospace" font-size="12" fill="#0f172a">budgeted_drawdown_tilt_rebalance</text>
<line x1="970" y1="128" x2="988" y2="128" stroke="#92400e" stroke-width="3"/>
<text x="998" y="132" font-family="monospace" font-size="12" fill="#0f172a">budgeted_btc_defensive_eth_aggressive</text>
<polyline points="90.0,700.5520725170823 91.99346405228758,700.514625629002 93.98692810457516,700.3211474094245 95.98039215686275,700.1921271689753 97.97385620915033,699.6123230590633 99.9673202614379,698.384570858424 101.9607843137255,695.9584270557124 103.95424836601308,693.7012237639588 105.94771241830065,693.231430669338 107.94117647058823,693.5340069345859 109.93464052287581,689.9178354520672 111.92810457516339,689.7350102772115 113.92156862745098,689.8083763117451 115.91503267973856,690.0931695180582 117.90849673202614,687.8200489664624 119.90196078431373,690.4719549484729 121.89542483660131,688.202928952345 123.88888888888889,687.8722894710646 125.88235294117646,690.656676418547 127.87581699346406,689.0685288660707 129.86928104575162,696.7603162095011 131.86274509803923,696.2836053223112 133.85620915032678,693.7074597400303 135.84967320261438,687.1040326221358 137.84313725490196,681.840621784768 139.83660130718954,680.7538182549862 141.83006535947712,685.288454686088 143.8235294117647,689.9300021156014 145.81699346405227,687.2190179426424 147.81045751633985,690.2571015832949 149.80392156862746,687.115103100892 151.79738562091504,695.0683367140416 153.79084967320262,694.8974521681164 155.7843137254902,699.2698883604904 157.77777777777777,710.0 159.77124183006538,693.9591315981971 161.76470588235293,678.3789955076387 163.75816993464053,678.762103532434 165.7516339869281,666.9748243031511 167.7450980392157,665.1642016942309 169.73856209150327,666.9903601392806 171.73202614379085,665.7070527146208 173.72549019607845,662.6054960235367 175.718954248366,665.2792048689037 177.71241830065358,661.4974507946373 179.70588235294116,658.4419692937394 181.69934640522877,661.3482502848236 183.69281045751634,654.8003319668214 185.68627450980392,658.0043587296399 187.6797385620915,656.8421724721355 189.67320261437908,648.5146200950267 191.66666666666666,641.3435701474051 193.66013071895424,637.441658119376 195.65359477124184,641.3833134812235 197.64705882352942,651.0332272115546 199.640522875817,661.0531610154721 201.63398692810455,659.133028300443 203.62745098039215,656.3887499354996 205.62091503267973,649.9774805274852 207.6143790849673,650.7987602264867 209.60784313725492,659.0056610614505 211.6013071895425,651.6854943048392 213.59477124183007,645.1781746210665 215.58823529411762,655.3595730310606 217.58169934640523,659.6006623210048 219.5751633986928,664.691777670663 221.5686274509804,665.3462427887376 223.56209150326796,662.8937164318762 225.55555555555554,661.7544382919004 227.54901960784315,664.0955975463716 229.54248366013073,664.9840597993214 231.5359477124183,660.7108711793861 233.52941176470588,665.9257223317015 235.52287581699346,663.2253076645419 237.51633986928104,656.7957631253386 239.50980392156862,659.6655886361787 241.50326797385623,657.814114201658 243.49673202614377,659.1749644341023 245.49019607843135,659.013701281779 247.48366013071896,663.6870045550068 249.47712418300654,670.9201296547176 251.47058823529412,671.2490251528166 253.4640522875817,678.9236515241272 255.45751633986927,671.0508223741153 257.4509803921569,670.8306957588795 259.44444444444446,659.8339164580451 261.437908496732,649.9847700930076 263.4313725490196,647.4548462726573 265.42483660130716,649.321402672552 267.41830065359477,651.7391473564297 269.4117647058823,644.5721526603388 271.4052287581699,643.8664680563942 273.39869281045753,643.3718791016199 275.3921568627451,651.2725308472745 277.3856209150327,648.8590191928868 279.3790849673203,647.6022723849251 281.37254901960785,648.2199310825544 283.3660130718954,644.729860589869 285.359477124183,645.8544994100924 287.3529411764706,648.5559581048853 289.34640522875816,649.0602265768467 291.3398692810457,650.4601627546011 293.3333333333333,653.4849842945099 295.3267973856209,651.6808842164611 297.32026143790847,651.6926994777511 299.3137254901961,652.4809947255666 301.3071895424837,650.4494614194454 303.30065359477123,654.3206917229027 305.29411764705884,654.73806694871 307.28758169934645,654.7063450515336 309.281045751634,651.918745537371 311.27450980392155,652.8711222652565 313.2679738562091,653.7184769660579 315.26143790849676,654.7195243150613 317.2549019607843,671.3196673578993 319.24836601307186,673.7960890414743 321.24183006535947,673.8303360459303 323.2352941176471,672.1121110202279 325.2287581699346,674.8910951903674 327.22222222222223,674.4823260171843 329.21568627450984,664.817056121026 331.2091503267974,675.6767462612213 333.202614379085,676.3864445282557 335.1960784313726,676.9594992248694 337.18954248366015,677.0704683456787 339.1830065359477,676.299396961892 341.17647058823525,677.6310857659905 343.1699346405229,678.9122362249728 345.16339869281046,674.5795527029067 347.15686274509807,674.0191874213097 349.1503267973856,673.2242849858903 351.14379084967317,672.7984858127501 353.1372549019608,676.3393411098432 355.1307189542484,678.1758999069365 357.12418300653593,677.6174729194914 359.11764705882354,671.3881456120768 361.1111111111111,670.6003051977864 363.1045751633987,669.1930014629921 365.0980392156863,669.1255612714983 367.09150326797385,668.6178973894285 369.08496732026146,669.3494680367119 371.078431372549,674.9638688001849 373.0718954248366,678.7811218285682 375.06535947712416,677.532489654057 377.05882352941177,669.2685453948873 379.0522875816993,672.0383883461539 381.0457516339869,665.0678345803542 383.03921568627453,660.4953991099579 385.0326797385621,640.4057458634771 387.0261437908497,638.5686258615865 389.01960784313724,640.3861377679492 391.01307189542484,637.112658203152 393.00653594771245,631.8445349347874 395.0,634.9192004969117 396.99346405228755,630.470067379133 398.98692810457516,629.6904318175827 400.9803921568627,611.892031899934 402.9738562091503,614.4210376192906 404.9673202614379,616.5020770543968 406.9607843137255,611.756174817963 408.9542483660131,621.2806915004755 410.9477124183007,615.9942924620676 412.94117647058823,625.6221574576497 414.93464052287584,613.3671146820066 416.9281045751634,610.5893912530876 418.92156862745094,615.5707221557011 420.91503267973854,613.545608102313 422.9084967320261,607.561806159718 424.90196078431376,597.5785113082785 426.8954248366013,579.2710885566295 428.8888888888889,578.1855057695341 430.88235294117646,577.6990309180148 432.87581699346407,591.8729530548009 434.8692810457516,584.7847721011719 436.8627450980392,589.9364709383099 438.8562091503268,593.1412115441685 440.8496732026143,591.3632242402406 442.843137254902,582.9653288711082 444.8366013071896,579.437718227747 446.83006535947715,582.0107092189769 448.8235294117647,576.153579147887 450.8169934640523,584.9703942940081 452.81045751633985,585.3244353418473 454.80392156862746,573.0247351643409 456.797385620915,580.2294467414629 458.7908496732026,582.389631750653 460.78431372549016,568.3030087202404 462.7777777777778,554.852933569775 464.7712418300654,569.964186006712 466.764705882353,576.1116594170649 468.75816993464053,565.2435742123545 470.7516339869281,577.4371152532455 472.7450980392157,576.1791041819988 474.73856209150324,591.5294905019581 476.73202614379085,593.9756405298733 478.7254901960784,586.7056964605786 480.718954248366,586.619686442725 482.7124183006536,578.9882433908766 484.7058823529412,580.7543784318812 486.69934640522877,581.3899871760702 488.6928104575164,582.3055431037336 490.6862745098039,570.1379613772243 492.6797385620915,558.0374367405293 494.6732026143791,553.4108574427426 496.66666666666663,541.739514570266 498.66013071895424,524.9089497710585 500.65359477124184,527.8644306556324 502.64705882352945,518.7916683073497 504.640522875817,517.3504505100223 506.6339869281046,523.1502394813872 508.62745098039215,509.9393889734241 510.62091503267976,486.8902304352524 512.6143790849674,469.4284804047967 514.6078431372548,462.5293317513681 516.6013071895425,432.9171891817789 518.59477124183,429.6719580810751 520.5882352941177,419.70192804220903 522.5816993464052,418.09690511438356 524.5751633986929,406.024368692479 526.5686274509803,411.42499539542166 528.562091503268,447.1467862143981 530.5555555555555,440.4154487818084 532.5490196078431,439.92831056599823 534.5424836601308,460.66183777096387 536.5359477124182,444.9857063839601 538.5294117647059,430.1803538171637 540.5228758169935,429.3384482195628 542.5163398692811,435.4193950977928 544.5098039215686,435.356780808402 546.5032679738563,455.7688963482515 548.4967320261437,450.2980462686694 550.4901960784314,438.9586194743 552.4836601307189,436.84216054496324 554.4771241830065,434.4743930054844 556.4705882352941,477.1671340091966 558.4640522875818,473.64686058245474 560.4575163398692,486.0540630558917 562.4509803921569,475.02725312887185 564.4444444444445,467.00377719210576 566.437908496732,459.0726733621958 568.4313725490197,467.85023069332397 570.4248366013071,465.2920158604179 572.4183006535948,466.2099503369584 574.4117647058823,495.1013952216314 576.40522875817,474.7902036492387 578.3986928104575,469.86694647170543 580.3921568627452,481.8075504858206 582.3856209150326,478.0513599945178 584.3790849673203,491.16317530060616 586.3725490196078,483.21752321709005 588.3660130718954,469.51116509315636 590.3594771241831,463.92026259734223 592.3529411764705,467.3093646394294 594.3464052287582,416.08334949945004 596.3398692810458,422.57154905978956 598.3333333333334,420.5683680490823 600.3267973856209,412.644181507836 602.3202614379085,424.5987692163141 604.3137254901961,425.0676686283089 606.3071895424837,423.24452266252774 608.3006535947712,413.65086554332623 610.2941176470588,412.90416203246485 612.2875816993463,423.87875684097634 614.281045751634,424.1159748313895 616.2745098039215,433.1800548911612 618.2679738562092,443.6213032572063 620.2614379084968,434.3699077319446 622.2549019607843,445.86035265416075 624.2483660130719,445.229223586082 626.2418300653595,447.8080826669167 628.2352941176471,466.55341246096214 630.2287581699346,463.98837766556534 632.2222222222222,465.2102783341943 634.2156862745098,455.3332839861172 636.2091503267974,457.9919365110951 638.2026143790849,491.05682787112653 640.1960784313726,487.13349366103483 642.1895424836601,494.21184375535915 644.1830065359477,486.87716792001277 646.1764705882352,484.43757804031213 648.1699346405229,470.07001429293666 650.1633986928105,446.969018492382 652.156862745098,451.27559481651735 654.1503267973857,437.1714055548392 656.1437908496732,440.19173018440233 658.1372549019608,452.0852011128883 660.1307189542483,448.0964168743775 662.124183006536,447.4723681604622 664.1176470588235,452.77310746213016 666.1111111111111,459.49881866183364 668.1045751633986,488.7571766891481 670.0980392156863,534.1318941195345 672.0915032679738,535.5187772611805 674.0849673202615,504.4248413029346 676.0784313725491,512.9364814384294 678.0718954248366,498.82897250594306 680.0653594771242,515.1716234057204 682.0588235294117,507.2185906417541 684.0522875816994,505.9738871966689 686.0457516339869,501.73513737753706 688.0392156862745,485.7779873463485 690.032679738562,486.3770106406198 692.0261437908497,516.7205189399349 694.0196078431372,512.6265566899467 696.0130718954249,514.6069150296288 698.0065359477125,512.5959750789095 700.0,521.0835855928698 701.9934640522875,545.7401413036879 703.9869281045751,538.6624707736332 705.9803921568628,525.5811420259389 707.9738562091503,525.9642756773546 709.9673202614379,517.4203882569605 711.9607843137254,529.9934072231881 713.9542483660131,515.5686762784142 715.9477124183006,499.6704019116057 717.9411764705882,497.50020423286685 719.9346405228758,491.04812533308814 721.9281045751635,490.0540536462329 723.921568627451,485.5421233712549 725.9150326797386,496.8284035985653 727.9084967320262,518.7498820228141 729.9019607843137,511.7598934730272 731.8954248366014,508.2815648973657 733.8888888888889,510.05816412501656 735.8823529411765,518.3087728560689 737.875816993464,504.98656930003847 739.8692810457517,487.7905418534734 741.8627450980392,485.0452851803225 743.8562091503268,480.9572534217291 745.8496732026143,472.79247231503734 747.8431372549019,484.91640604898976 749.8366013071895,488.5133434002897 751.8300653594771,494.89561062080736 753.8235294117646,482.02909014605433 755.8169934640522,470.04051566232187 757.81045751634,486.73666147177266 759.8039215686275,492.0606341191417 761.7973856209151,492.77146029244204 763.7908496732026,444.99317065775045 765.7843137254903,427.7392299297093 767.7777777777778,381.95849331858926 769.7712418300654,389.7502456667192 771.7647058823529,394.902238522437 773.7581699346405,398.5992401316856 775.7516339869281,390.3133082147709 777.7450980392157,360.01875117804224 779.7385620915032,359.09381070147504 781.7320261437908,368.99355195940984 783.7254901960785,346.5101481061799 785.718954248366,347.04208321990615 787.7124183006536,340.1402502481235 789.7058823529411,349.08450023437973 791.6993464052287,335.7304581699422 793.6928104575163,315.86692823489193 795.686274509804,339.63011618705053 797.6797385620915,323.1043863786514 799.6732026143792,318.10924661139956 801.6666666666667,308.05745414723043 803.6601307189543,308.067089771126 805.6535947712418,357.49952328212566 807.6470588235294,362.6546746814752 809.640522875817,363.11409688248375 811.6339869281046,347.8503438200343 813.6274509803922,370.118201475926 815.6209150326797,370.1193124957162 817.6143790849673,371.86522302302734 819.6078431372549,355.99879251672 821.6013071895425,340.02620266294 823.59477124183,328.6838230037233 825.5882352941176,368.07653862812856 827.5816993464052,372.6498656204542 829.5751633986928,373.11701080402827 831.5686274509803,371.251950833343 833.562091503268,358.01473822641094 835.5555555555557,348.278121593799 837.5490196078432,354.9335760677578 839.5424836601308,354.1765870321376 841.5359477124183,346.9887987449529 843.529411764706,357.2332861636072 845.5228758169935,370.47245812770603 847.5163398692811,351.3021626150582 849.5098039215686,369.08246320715784 851.5032679738562,383.224581143377 853.4967320261438,400.1783653811918 855.4901960784314,412.15125321952286 857.4836601307189,411.9213655126381 859.4771241830065,415.3005471500558 861.470588235294,408.0123076962872 863.4640522875817,404.69081189087825 865.4575163398692,404.7134300904729 867.4509803921568,405.07619590215677 869.4444444444443,410.01722716231694 871.437908496732,398.109137609575 873.4313725490197,438.205970962156 875.4248366013072,460.35909647155586 877.4183006535948,464.1369283124252 879.4117647058824,469.17667681530855 881.40522875817,452.53483221538744 883.3986928104575,468.4849019007155 885.3921568627451,490.61796826807927 887.3856209150327,493.9437235483629 889.3790849673203,502.6171836560769 891.3725490196078,489.7395180048653 893.3660130718954,491.386901141438 895.359477124183,474.4926539244274 897.3529411764706,487.942827131899 899.3464052287582,480.4126139704424 901.3398692810457,472.60421300406125 903.3333333333333,478.3842381326432 905.3267973856208,502.38917566023014 907.3202614379085,503.014056369605 909.313725490196,505.47984010033827 911.3071895424837,500.8881529087029 913.3006535947713,532.4880431870297 915.2941176470589,546.4234172394303 917.2875816993464,535.3916558642982 919.281045751634,512.7665829802436 921.2745098039215,515.9489768410397 923.2679738562092,521.4669819656175 925.2614379084968,519.5593607821045 927.2549019607843,518.3522761883291 929.2483660130719,486.51508415436194 931.2418300653595,484.2409951555934 933.2352941176471,478.1545008924535 935.2287581699346,479.5002719816839 937.2222222222222,481.6849065332111 939.2156862745097,472.02174735600033 941.2091503267974,480.05520111632177 943.2026143790849,474.64438680854255 945.1960784313725,426.27783200271296 947.18954248366,388.4003655674443 949.1830065359478,400.1578337499914 951.1764705882354,388.5556391780168 953.1699346405229,394.9427438276855 955.1633986928105,392.5375196033473 957.1568627450981,389.4506017951693 959.1503267973857,368.1592836535774 961.1437908496732,387.0706758170701 963.1372549019608,381.06070052252835 965.1307189542483,374.33733595647385 967.124183006536,394.13273060410575 969.1176470588235,390.1937926307073 971.1111111111111,386.1838910124792 973.1045751633986,408.4605710868634 975.0980392156863,391.48307552344943 977.0915032679738,369.67116242813813 979.0849673202614,365.4161969788046 981.078431372549,385.9541414820653 983.0718954248365,389.5699333450918 985.0653594771242,394.55692000917855 987.0588235294118,393.5226373976381 989.0522875816994,416.5646071877655 991.0457516339869,400.6406459808775 993.0392156862746,396.2109546660112 995.0326797385621,396.42167845311985 997.0261437908497,387.58341646939306 999.0196078431372,400.66830589625164 1001.0130718954249,377.56764103519237 1003.0065359477125,386.4572654763305 1005.0,384.30839619738947 1006.9934640522875,359.7200372516562 1008.9869281045751,332.013019178264 1010.9803921568628,327.85283192751484 1012.9738562091503,317.19722552004566 1014.9673202614379,287.07875597538407 1016.9607843137254,280.8660681651606 1018.9542483660131,268.89633999040007 1020.9477124183006,276.0070736084468 1022.9411764705882,271.4212356751582 1024.9346405228757,256.74471600020735 1026.9281045751636,265.8089112861252 1028.921568627451,277.25203851100355 1030.9150326797385,305.689571544831 1032.9084967320262,277.1844754619607 1034.9019607843138,279.8247852325065 1036.8954248366013,253.4999530236862 1038.888888888889,231.18733564136875 1040.8823529411766,206.5107820726427 1042.875816993464,213.02782831192394 1044.8692810457517,223.38998884329322 1046.8627450980393,233.19634748648616 1048.8562091503268,236.479680575881 1050.8496732026142,198.78541117856383 1052.8431372549019,210.11683788171666 1054.8366013071895,225.2304593201698 1056.830065359477,228.884849689909 1058.8235294117646,246.28284324287063 1060.8169934640523,248.94185652685968 1062.81045751634,234.48628039151487 1064.8039215686276,245.91227184492857 1066.797385620915,244.93727617616764 1068.7908496732025,243.66580235011492 1070.7843137254904,224.92693199172584 1072.7777777777778,211.18315962798084 1074.7712418300653,221.35447959458241 1076.764705882353,214.62669733925486 1078.7581699346406,223.85018855466518 1080.751633986928,226.27320852170897 1082.7450980392157,251.13782693219406 1084.7385620915034,276.04216165340546 1086.7320261437908,265.4177723416427 1088.7254901960785,241.97906839905056 1090.7189542483661,223.5113460562485 1092.7124183006536,204.56120716352035 1094.705882352941,201.79247980784095 1096.6993464052287,210.8310585465585 1098.6928104575163,215.01151797834456 1100.686274509804,279.15567096722725 1102.6797385620916,237.18636069945205 1104.673202614379,263.888472910321 1106.6666666666667,283.7839734711524 1108.6601307189544,268.95230622325636 1110.6535947712418,276.7015298655217 1112.6470588235293,273.6679366668677 1114.640522875817,263.84273323464686 1116.6339869281046,247.51504910438257 1118.6274509803923,270.83534607226 1120.6209150326797,275.71589158726704 1122.6143790849674,269.5441670661819 1124.6078431372548,330.6895408052205 1126.6013071895425,329.28688048520564 1128.5947712418301,321.10365737308314 1130.5882352941176,301.33383436980915 1132.5816993464052,321.6260372720051 1134.5751633986927,358.6866119009252 1136.5686274509803,360.61224427864374 1138.562091503268,361.4788321781388 1140.5555555555557,396.5156401806416 1142.549019607843,405.21553043263833 1144.5424836601308,383.70747331839385 1146.5359477124184,373.2843801379402 1148.5294117647059,371.881343780243 1150.5228758169935,375.9627931616924 1152.516339869281,373.42620285987977 1154.5098039215686,361.8628362121854 1156.5032679738563,375.18422863208525 1158.4967320261437,365.8869793357845 1160.4901960784314,348.6053911565705 1162.483660130719,369.48054469325587 1164.4771241830065,376.002259016503 1166.4705882352941,383.7827339364087 1168.4640522875816,398.9300820515358 1170.4575163398692,381.5296673961905 1172.450980392157,378.78559661309123 1174.4444444444443,385.44312539734426 1176.437908496732,387.5677545808866 1178.4313725490197,384.5348271037754 1180.4248366013073,381.7881662570466 1182.4183006535948,378.8707447380173 1184.4117647058824,365.6791752450954 1186.4052287581699,350.93610567501577 1188.3986928104575,361.22059280134175 1190.3921568627452,368.69431574223483 1192.3856209150326,365.46054022091886 1194.3790849673203,340.5513958636836 1196.3725490196077,340.44451053133963 1198.3660130718954,342.169134172714 1200.359477124183,356.57601374497443 1202.3529411764705,378.4300121751054 1204.3464052287582,380.0360283680973 1206.3398692810458,396.6277924507457 1208.3333333333333,375.8462175200573 1210.326797385621,401.18453070388404 1212.3202614379084,441.2657241569624 1214.313725490196,448.83913058872423 1216.3071895424837,477.3375430383825 1218.3006535947713,489.457387176778 1220.2941176470588,487.95557803264967 1222.2875816993464,496.7156576811718 1224.281045751634,508.87563542396487 1226.2745098039215,489.1843734801472 1228.2679738562092,498.4602005857404 1230.2614379084966,507.6458502437064 1232.2549019607843,502.8686385619933 1234.248366013072,504.6534163329552 1236.2418300653594,521.591938287329 1238.235294117647,499.05541167145077 1240.2287581699345,505.4517226228229 1242.2222222222222,495.89657436163384 1244.2156862745098,478.5944866568696 1246.2091503267973,501.5298215964691 1248.202614379085,509.96761762495726 1250.1960784313726,492.37473946753653 1252.18954248366,488.0051385948932 1254.1830065359477,484.50877430542755 1256.1764705882354,455.16988882996355 1258.169934640523,475.7861103077293 1260.1633986928105,482.153995333719 1262.1568627450981,495.8248104712644 1264.1503267973856,481.28240537928724 1266.1437908496732,493.1765886575182 1268.137254901961,504.2606842883086 1270.1307189542483,500.7378260361424 1272.124183006536,488.2123087880499 1274.1176470588234,497.88158067667575 1276.111111111111,488.5116112031686 1278.1045751633987,471.1576661538748 1280.0980392156862,475.3390519172708 1282.0915032679738,464.7013608123822 1284.0849673202613,454.7981691736669 1286.078431372549,454.6140832311431 1288.0718954248366,444.5763846857596 1290.065359477124,464.50824335842594 1292.058823529412,453.4971499374522 1294.0522875816994,448.6429303935976 1296.045751633987,451.00507087711907 1298.0392156862745,452.9699178183694 1300.0326797385621,460.8005495342479 1302.0261437908498,451.5309392975222 1304.0196078431372,448.65129559273294 1306.013071895425,440.1641691821818 1308.0065359477123,447.73777917438457 1310.0,443.4328222183196" fill="none" stroke="#0f766e" stroke-width="2.5"><title>budgeted_static_50_50_rebalance | end=2026-05-09 | return=126.84%</title></polyline>
<polyline points="90.0,700.5520725170823 91.99346405228758,700.4884086947577 93.98692810457516,700.1602260243881 95.98039215686275,699.944161612142 97.97385620915033,698.969303794421 99.9673202614379,696.9204604194507 101.9607843137255,692.88684868379 103.95424836601308,689.1194285808818 105.94771241830065,688.3372185796375 107.94117647058823,688.8432217034019 109.93464052287581,682.8234839223351 111.92810457516339,682.5207727319084 113.92156862745098,682.6493944154706 115.91503267973856,683.1293817678983 117.90849673202614,679.3407152598119 119.90196078431373,683.7687279441775 121.89542483660131,679.9677361133404 123.88888888888889,679.3932252025181 125.88235294117646,684.0430210661094 127.87581699346406,681.3791619669429 129.86928104575162,694.2342013054167 131.86274509803923,693.4653112324636 133.85620915032678,689.3496654241682 135.84967320261438,679.0407879453497 137.84313725490196,670.9813014059156 139.83660130718954,669.3439290317114 141.83006535947712,676.0639884184578 143.8235294117647,682.6511550544171 145.81699346405227,678.8169079062451 147.81045751633985,683.0005403996487 149.80392156862746,678.7544203812034 151.79738562091504,689.080308091647 153.79084967320262,688.876701668917 155.7843137254902,694.2689900467243 157.77777777777777,707.4714632173362 159.77124183006538,687.8792262526525 161.76470588235293,668.9147003435755 163.75816993464053,669.4774975307608 165.7516339869281,654.8996093411159 167.7450980392157,652.7663545171592 169.73856209150327,655.0232362148636 171.73202614379085,653.3845309148704 173.72549019607845,649.4012446058344 175.718954248366,652.7884765888676 177.71241830065358,647.930128441899 179.70588235294116,643.9553363832599 181.69934640522877,647.6981326865284 183.69281045751634,639.027208320242 185.68627450980392,643.2728676162066 187.6797385620915,641.8053951254378 189.67320261437908,631.026944513103 191.66666666666666,621.4471430379283 193.66013071895424,616.1840331473836 195.65359477124184,621.3230258363149 197.64705882352942,634.3147622040138 199.640522875817,647.5328518098362 201.63398692810455,645.021170757312 203.62745098039215,641.5109849714667 205.62091503267973,633.1422943629397 207.6143790849673,634.1933530433029 209.60784313725492,645.0328441198329 211.6013071895425,635.3608476975492 213.59477124183007,626.6678716626365 215.58823529411762,640.2404860920908 217.58169934640523,645.7966361264718 219.5751633986928,652.4221783455764 221.5686274509804,653.2266020665071 223.56209150326796,650.1680216562056 225.55555555555554,648.8359569350771 227.54901960784315,651.4389612945291 229.54248366013073,652.4338064457687 231.5359477124183,647.6317247436182 233.52941176470588,653.2087604181879 235.52287581699346,650.3411539455443 237.51633986928104,643.5274566596955 239.50980392156862,646.4222677271731 241.50326797385623,644.5038488167074 243.49673202614377,645.8386716018113 245.49019607843135,645.7271561730639 247.48366013071896,649.992834131374 249.47712418300654,656.6644950114023 251.47058823529412,657.00375847368 253.4640522875817,664.2828246779496 255.45751633986927,656.8472465335662 257.4509803921569,656.6255818014704 259.44444444444446,646.0452063750413 261.437908496732,636.38957324169 263.4313725490196,634.075408676524 265.42483660130716,635.8256998386565 267.41830065359477,638.0958278889462 269.4117647058823,631.4606513555777 271.4052287581699,630.8475123788052 273.39869281045753,630.4392842427392 275.3921568627451,637.3342432888517 277.3856209150327,635.287066536511 279.3790849673203,634.2121038510256 281.37254901960785,634.7423327854434 283.3660130718954,631.6971986661299 285.359477124183,632.64725014965 287.3529411764706,634.8644497559554 289.34640522875816,635.2818876322834 291.3398692810457,636.4762323093836 293.3333333333333,638.8712327837774 295.3267973856209,637.390389155054 297.32026143790847,637.3888519548723 299.3137254901961,638.0459837712979 301.3071895424837,636.4562508047794 303.30065359477123,639.5644468045408 305.29411764705884,639.8774382029401 307.28758169934645,639.8906499543685 309.281045751634,637.6659288988703 311.27450980392155,638.416014243599 313.2679738562091,639.0891607718522 315.26143790849676,639.8968044896055 317.2549019607843,653.0300199409207 319.24836601307186,654.9703191456674 321.24183006535947,655.0103113055828 323.2352941176471,653.589464574086 325.2287581699346,655.9816959879606 327.22222222222223,655.6171271585956 329.21568627450984,647.0503278956719 331.2091503267974,656.9149784764777 333.202614379085,657.5927528904301 335.1960784313726,658.1511116094847 337.18954248366015,658.2382704014947 339.1830065359477,657.4915376169713 341.17647058823525,658.8689638273967 343.1699346405229,660.2350617041469 345.16339869281046,655.8791720972059 347.15686274509807,655.2900249016116 349.1503267973856,654.5174313082213 351.14379084967317,654.2231135220854 353.1372549019608,657.8361282765238 355.1307189542484,659.6898980668998 357.12418300653593,659.0316019891395 359.11764705882354,652.3867640413088 361.1111111111111,651.4580232952325 363.1045751633987,650.1585523694699 365.0980392156863,650.2368524316315 367.09150326797385,649.748362681252 369.08496732026146,650.566039731261 371.078431372549,656.6037347416855 373.0718954248366,660.6676098385766 375.06535947712416,659.2140907012006 377.05882352941177,650.3056433230128 379.0522875816993,653.5847756342439 381.0457516339869,645.9388476292222 383.03921568627453,640.4360792591722 385.0326797385621,618.6191368885519 387.0261437908497,616.5177997773446 389.01960784313724,618.6554704615562 391.01307189542484,615.0491737454997 393.00653594771245,609.6404599435879 395.0,612.5968830255241 396.99346405228755,607.9171705483514 398.98692810457516,607.3482566593104 400.9803921568627,589.427911833952 402.9738562091503,592.3348850655866 404.9673202614379,594.0085516831975 406.9607843137255,590.1355470682919 408.9542483660131,598.7458024735113 410.9477124183007,594.0655618038409 412.94117647058823,602.3603363254109 414.93464052287584,591.6229065640424 416.9281045751634,589.2845393159783 418.92156862745094,593.5877246559734 420.91503267973854,591.9970640304576 422.9084967320261,586.9548949785076 424.90196078431376,578.5522396646606 426.8954248366013,563.746865054498 428.8888888888889,562.5889651899386 430.88235294117646,562.2725563969778 432.87581699346407,573.769717809939 434.8692810457516,568.12142600312 436.8627450980392,572.2612632748119 438.8562091503268,574.8318724697926 440.8496732026143,573.4893816749094 442.843137254902,566.8059493102492 444.8366013071896,563.9080180994056 446.83006535947715,565.9895819753511 448.8235294117647,561.2052313079313 450.8169934640523,568.1810777234411 452.81045751633985,568.4934710988182 454.80392156862746,558.9028076304746 456.797385620915,564.6072374082262 458.7908496732026,566.3124991326998 460.78431372549016,555.3721040659054 462.7777777777778,544.7413587172408 464.7712418300654,556.3677055687965 466.764705882353,561.059512318116 468.75816993464053,552.7886596413566 470.7516339869281,561.9683789644741 472.7450980392157,561.0540725969475 474.73856209150324,572.5331807223746 476.73202614379085,574.5255634384707 478.7254901960784,569.0927562799254 480.718954248366,569.0425973412632 482.7124183006536,563.2775628780746 484.7058823529412,564.6298959858223 486.69934640522877,565.1109224472431 488.6928104575164,565.7994642584931 490.6862745098039,556.592959926022 492.6797385620915,547.4233958601488 494.6732026143791,543.9259761373892 496.66666666666663,535.080043425331 498.66013071895424,522.2993373732186 500.65359477124184,524.5477278242051 502.64705882352945,517.6265042514697 504.640522875817,516.5289307383036 506.6339869281046,520.9195077750863 508.62745098039215,510.86300502968595 510.62091503267976,493.6323541118103 512.6143790849674,480.5967301590334 514.6078431372548,475.40430005537104 516.6013071895425,453.3501893852537 518.59477124183,450.77983634109694 520.5882352941177,443.3990649614032 522.5816993464052,442.23305255130055 524.5751633986929,433.3535856563536 526.5686274509803,437.3546317178861 528.562091503268,463.4889742397227 530.5555555555555,458.6224375778665 532.5490196078431,458.2732358038787 534.5424836601308,473.08900420418536 536.5359477124182,461.7465889621176 538.5294117647059,450.88370582096707 540.5228758169935,450.2757656304437 542.5163398692811,454.672493968374 544.5098039215686,454.6292931871037 546.5032679738563,469.21024223063233 548.4967320261437,465.29656964852796 550.4901960784314,456.99481863087016 552.4836601307189,455.40471694710845 554.4771241830065,453.6862198225119 556.4705882352941,485.17141780970553 558.4640522875818,482.488712263949 560.4575163398692,491.84611831065445 562.4509803921569,483.3941042719541 564.4444444444445,477.1161246205414 566.437908496732,470.8423058102328 568.4313725490197,477.8643604861586 570.4248366013071,475.65302292549995 572.4183006535948,476.4812782684812 574.4117647058823,500.4955774333422 576.40522875817,483.44729294150795 578.3986928104575,479.26702499172393 580.3921568627452,489.7832626606232 582.3856209150326,486.4708709374397 584.3790849673203,498.37998909875586 586.3725490196078,491.2128802978839 588.3660130718954,478.5699183071986 590.3594771241831,473.11490030111946 592.3529411764705,476.3149331736647 594.3464052287582,424.3135246337914 596.3398692810458,429.77187818735644 598.3333333333334,428.60740563022557 600.3267973856209,420.70385906868074 602.3202614379085,431.2115623840222 604.3137254901961,431.6002167103131 606.3071895424837,430.05388726608624 608.3006535947712,422.6754077007394 610.2941176470588,422.1144185394897 612.2875816993463,431.1095856432734 614.281045751634,431.3998010247069 616.2745098039215,438.6700803163719 618.2679738562092,446.6363185481684 620.2614379084968,439.11584955404896 622.2549019607843,448.1078477343858 624.2483660130719,447.48672507102214 626.2418300653595,449.38865888264536 628.2352941176471,463.26801302246133 630.2287581699346,461.3605501125719 632.2222222222222,462.19466176845896 634.2156862745098,454.76931986515865 636.2091503267974,456.7997117035552 638.2026143790849,483.43732292023867 640.1960784313726,480.4672716280953 642.1895424836601,486.09113296451096 644.1830065359477,479.95947550772775 646.1764705882352,477.85045171512843 648.1699346405229,465.7992972421714 650.1633986928105,446.0248896774814 652.156862745098,449.67129428214906 654.1503267973857,437.4168699638021 656.1437908496732,440.327921246128 658.1372549019608,450.73813607493133 660.1307189542483,447.698109144238 662.124183006536,447.19849580342435 664.1176470588235,451.6306586251945 666.1111111111111,457.86558434308256 668.1045751633986,485.0277974056968 670.0980392156863,527.858471165908 672.0915032679738,529.5448052366957 674.0849673202615,500.15148772376494 676.0784313725491,508.1556656449169 678.0718954248366,493.9027437811847 680.0653594771242,510.3744047916348 682.0588235294117,502.5014011082429 684.0522875816994,500.9764499767891 686.0457516339869,497.23810454742 688.0392156862745,479.9711262977946 690.032679738562,480.88320568035107 692.0261437908497,515.0869774344184 694.0196078431372,509.7715299402337 696.0130718954249,511.9341946639507 698.0065359477125,509.52150083693766 700.0,519.2919820072109 701.9934640522875,547.019912159761 703.9869281045751,538.9010636198268 705.9803921568628,524.8767510810728 707.9738562091503,525.8149190901446 709.9673202614379,516.6308043627869 711.9607843137254,531.1517485659662 713.9542483660131,515.825831369099 715.9477124183006,496.4131447600014 717.9411764705882,493.91376359395366 719.9346405228758,486.0774162204267 721.9281045751635,485.6278903199032 723.921568627451,480.2938269959742 725.9150326797386,492.8645655056996 727.9084967320262,519.5258757660861 729.9019607843137,511.6324380051749 731.8954248366014,507.68922954347556 733.8888888888889,509.40453620186247 735.8823529411765,518.6682221239423 737.875816993464,503.6669595792535 739.8692810457517,483.43452624289586 741.8627450980392,481.23245611590573 743.8562091503268,476.49480160084806 745.8496732026143,465.9207500049896 747.8431372549019,480.9048920260018 749.8366013071895,486.61631986315933 751.8300653594771,494.25972372554855 753.8235294117646,479.3744424319586 755.8169934640522,465.0573886002196 757.81045751634,485.5539833519133 759.8039215686275,492.2438984416643 761.7973856209151,493.80996862150954 763.7908496732026,434.37728694024156 765.7843137254903,411.38381858751444 767.7777777777778,360.09783305941 769.7712418300654,372.46959882634184 771.7647058823529,380.03038736579435 773.7581699346405,383.9258605791073 775.7516339869281,375.1697297069877 777.7450980392157,340.6377053986764 779.7385620915032,338.9113372236733 781.7320261437908,347.8384345597558 783.7254901960785,321.35385677636043 785.718954248366,323.3460651785753 787.7124183006536,314.7583611609425 789.7058823529411,324.2047381872121 791.6993464052287,309.65202956883917 793.6928104575163,289.71775815654684 795.686274509804,313.5455941308282 797.6797385620915,298.8539602699083 799.6732026143792,293.83738282509074 801.6666666666667,285.5717363160855 803.6601307189543,286.49426680197456 805.6535947712418,329.55637095569745 807.6470588235294,334.3875817839793 809.640522875817,333.79965778748027 811.6339869281046,321.18721075600496 813.6274509803922,340.0135982536232 815.6209150326797,339.7681438650361 817.6143790849673,341.3512527107964 819.6078431372549,327.51337478495367 821.6013071895425,312.48561049241147 823.59477124183,303.2743631370671 825.5882352941176,337.6804371179616 827.5816993464052,341.8921236761013 829.5751633986928,342.2652141105824 831.5686274509803,341.2122178333867 833.562091503268,329.71509445444065 835.5555555555557,321.774038412451 837.5490196078432,327.47720249745686 839.5424836601308,327.24784095523285 841.5359477124183,320.5600978449402 843.529411764706,329.9809061895255 845.5228758169935,342.9416165485283 847.5163398692811,324.77684518559596 849.5098039215686,341.4115029540336 851.5032679738562,356.72624740067357 853.4967320261438,372.4114014097601 855.4901960784314,385.1994584653399 857.4836601307189,384.9221874466928 859.4771241830065,388.2799377444226 861.470588235294,380.5546062866721 863.4640522875817,377.3040806109173 865.4575163398692,376.0919360498955 867.4509803921568,377.1753271876983 869.4444444444443,383.0177353038822 871.437908496732,367.7361850841803 873.4313725490197,413.3899757973659 875.4248366013072,439.16605246754136 877.4183006535948,445.65176302012054 879.4117647058824,452.61871812341195 881.40522875817,434.36317701519744 883.3986928104575,452.5450467047521 885.3921568627451,477.25241812915726 887.3856209150327,484.47954106312153 889.3790849673203,495.0178288944139 891.3725490196078,479.92516888558293 893.3660130718954,481.9661911929121 895.359477124183,460.07642330869567 897.3529411764706,476.95387448649444 899.3464052287582,467.9282201999928 901.3398692810457,457.6207000928201 903.3333333333333,466.20497705616526 905.3267973856208,497.56031305642983 907.3202614379085,498.4156471276253 909.313725490196,502.11579657015113 911.3071895424837,496.7026428848867 913.3006535947713,538.6489350523462 915.2941176470589,557.2001068217573 917.2875816993464,544.330358121647 919.281045751634,516.8634436426793 921.2745098039215,520.8840782675211 923.2679738562092,528.4517415391042 925.2614379084968,526.0681806373427 927.2549019607843,524.9371667240266 929.2483660130719,485.95241380975506 931.2418300653595,483.09922115323053 933.2352941176471,474.7598107767993 935.2287581699346,477.0521662547477 937.2222222222222,479.5362481763946 939.2156862745097,467.61432518680624 941.2091503267974,477.2448881471472 943.2026143790849,471.4038682495078 945.1960784313725,405.10420847299406 947.18954248366,349.5687412162415 949.1830065359478,365.57720706634234 951.1764705882354,348.20664506511076 953.1699346405229,358.39451960756435 955.1633986928105,358.4932598955406 957.1568627450981,353.9931129242329 959.1503267973857,325.4877416658408 961.1437908496732,351.4899135108475 963.1372549019608,343.76305121644657 965.1307189542483,330.313189727038 967.124183006536,358.26492684569234 969.1176470588235,354.02748828158747 971.1111111111111,346.8480271432053 973.1045751633986,379.08726534582865 975.0980392156863,356.16289305697074 977.0915032679738,325.87607871011255 979.0849673202614,316.13955177777797 981.078431372549,347.6872593133161 983.0718954248365,353.139459401763 985.0653594771242,360.2103817373793 987.0588235294118,358.5483533162388 989.0522875816994,394.5060854592723 991.0457516339869,372.3440959442467 993.0392156862746,367.71464899260206 995.0326797385621,367.66703215517657 997.0261437908497,354.63701227378414 999.0196078431372,372.8805270706382 1001.0130718954249,339.573641584779 1003.0065359477125,352.61259843758637 1005.0,349.0238266374147 1006.9934640522875,311.69690451094357 1008.9869281045751,273.66759741928297 1010.9803921568628,268.829774682006 1012.9738562091503,248.29624531364817 1014.9673202614379,198.45686046573928 1016.9607843137254,185.71214671023574 1018.9542483660131,165.7765356017792 1020.9477124183006,178.69403940630593 1022.9411764705882,170.39762201759402 1024.9346405228757,152.31768580577238 1026.9281045751636,162.59455780092253 1028.921568627451,174.9102864293211 1030.9150326797385,206.87259100539325 1032.9084967320262,174.10052076195632 1034.9019607843138,177.22725262557333 1036.8954248366013,148.11567781403392 1038.888888888889,125.1060437614799 1040.8823529411766,98.7551621300795 1042.875816993464,104.48838623984705 1044.8692810457517,114.6851511921102 1046.8627450980393,123.99908968890145 1048.8562091503268,126.05964579599583 1050.8496732026142,90.0 1052.8431372549019,99.02387496635174 1054.8366013071895,112.5421248296185 1056.830065359477,116.46014519951109 1058.8235294117646,130.69053669550397 1060.8169934640523,133.36843401468514 1062.81045751634,121.35382454295939 1064.8039215686276,131.24397367563893 1066.797385620915,130.5748807224145 1068.7908496732025,129.6171069186637 1070.7843137254904,114.50739906281478 1072.7777777777778,102.32719504763327 1074.7712418300653,111.16780542138986 1076.764705882353,105.63172195112656 1078.7581699346406,113.49608416752324 1080.751633986928,115.48056034791136 1082.7450980392157,136.19237126942096 1084.7385620915034,156.83088214173085 1086.7320261437908,147.87643152815463 1088.7254901960785,128.96389615401586 1090.7189542483661,114.20799079401684 1092.7124183006536,98.80278978499825 1094.705882352941,96.73929710487732 1096.6993464052287,104.02480918117305 1098.6928104575163,107.7831074628765 1100.686274509804,160.73992327058113 1102.6797385620916,125.54971457803538 1104.673202614379,147.59071753347212 1106.6666666666667,163.87906420911145 1108.6601307189544,151.44396616575375 1110.6535947712418,158.20959462163773 1112.6470588235293,155.94871992778667 1114.640522875817,147.561812850102 1116.6339869281046,133.45148741202115 1118.6274509803923,153.50889004383248 1120.6209150326797,157.8267071706806 1122.6143790849674,152.4208757315265 1124.6078431372548,206.60480544509073 1126.6013071895425,205.28755717660107 1128.5947712418301,197.95855377226974 1130.5882352941176,180.1951445300084 1132.5816993464052,198.65121006609894 1134.5751633986927,232.97196261291452 1136.5686274509803,234.77399522789085 1138.562091503268,235.4424318202992 1140.5555555555557,268.95083070197796 1142.549019607843,277.2843200541767 1144.5424836601308,256.33916701388813 1146.5359477124184,246.0973756849021 1148.5294117647059,244.7188730205674 1150.5228758169935,248.9240355808878 1152.516339869281,246.38099452798298 1154.5098039215686,233.93841354790356 1156.5032679738563,248.10818039026134 1158.4967320261437,237.94626006409493 1160.4901960784314,218.4517391769984 1162.483660130719,242.39378754843142 1164.4771241830065,249.48301071703406 1166.4705882352941,258.7855134717768 1168.4640522875816,276.48162823160686 1170.4575163398692,256.0390001628731 1172.450980392157,252.70285698225337 1174.4444444444443,260.7978467047344 1176.437908496732,263.41325939577683 1178.4313725490197,259.6743930036951 1180.4248366013073,256.2411179579576 1182.4183006535948,252.46632093165005 1184.4117647058824,235.26141756130454 1186.4052287581699,216.2927924035444 1188.3986928104575,229.46806087987147 1190.3921568627452,239.58506879723745 1192.3856209150326,235.1852281012741 1194.3790849673203,202.08190002111462 1196.3725490196077,202.02858077556857 1198.3660130718954,204.25389991260295 1200.359477124183,223.58847886353612 1202.3529411764705,253.25757137030763 1204.3464052287582,255.6214431869618 1206.3398692810458,278.05179425128864 1208.3333333333333,249.31007982128114 1210.326797385621,283.5869244276241 1212.3202614379084,338.4199277348599 1214.313725490196,349.3804973665043 1216.3071895424837,387.6877285006275 1218.3006535947713,404.01227998483705 1220.2941176470588,401.6443768404279 1222.2875816993464,413.9173116164677 1224.281045751634,430.81886335077326 1226.2745098039215,402.9207499847405 1228.2679738562092,416.78996778315116 1230.2614379084966,429.4099285384844 1232.2549019607843,423.0968275866613 1234.248366013072,425.6498792137786 1236.2418300653594,449.8723284667541 1238.235294117647,416.68162638810753 1240.2287581699345,426.52825979475153 1242.2222222222222,412.740142951089 1244.2156862745098,388.1353294299625 1246.2091503267973,421.3367338009311 1248.202614379085,433.1633104085793 1250.1960784313726,408.158617693376 1252.18954248366,401.56864333657296 1254.1830065359477,396.4984392210723 1256.1764705882354,351.930039851705 1258.169934640523,382.5225768470125 1260.1633986928105,392.3611638754409 1262.1568627450981,412.55351452742764 1264.1503267973856,390.97929918569616 1266.1437908496732,409.06344453898777 1268.137254901961,425.14216403537256 1270.1307189542483,419.71949313764577 1272.124183006536,400.3429999588227 1274.1176470588234,415.2749915931911 1276.111111111111,401.6695539588084 1278.1045751633987,375.59980010566164 1280.0980392156862,382.45648020460607 1282.0915032679738,365.9163605762074 1284.0849673202613,350.60931414903297 1286.078431372549,350.66576766798363 1288.0718954248366,335.83453914100323 1290.065359477124,366.53613769210983 1292.058823529412,350.2389334328986 1294.0522875816994,343.811478929457 1296.045751633987,347.23696951356044 1298.0392156862745,350.302094668382 1300.0326797385621,362.10566883746645 1302.0261437908498,348.6307754548305 1304.0196078431372,344.0651283403637 1306.013071895425,331.7374638283757 1308.0065359477123,343.7853999579762 1310.0,337.04184519514473" fill="none" stroke="#9333ea" stroke-width="2.5"><title>budgeted_drawdown_tilt_rebalance | end=2026-05-09 | return=179.32%</title></polyline>
<polyline points="90.0,700.5520725170823 91.99346405228758,700.5020498945961 93.98692810457516,700.2424719570248 95.98039215686275,700.0570583576406 97.97385620915033,699.279227845064 99.9673202614379,697.4739097450903 101.9607843137255,693.538142276534 103.95424836601308,690.2741060602083 105.94771241830065,689.5415609148818 107.94117647058823,689.9425251494876 109.93464052287581,684.2458062659987 111.92810457516339,683.9138179769584 113.92156862745098,683.8706227221338 115.91503267973856,684.1906207008398 117.90849673202614,680.7682449010264 119.90196078431373,684.6363895608472 121.89542483660131,681.4847751116622 123.88888888888889,681.2920652520975 125.88235294117646,685.3672875008615 127.87581699346406,683.1916712534063 129.86928104575162,694.0622318466669 131.86274509803923,693.2927199247008 133.85620915032678,689.8345146315628 135.84967320261438,680.8999492206052 137.84313725490196,673.8878210592843 139.83660130718954,672.509799039512 141.83006535947712,677.8200069714658 143.8235294117647,683.5535227201881 145.81699346405227,680.578345557317 147.81045751633985,683.8209438335796 149.80392156862746,680.6934401999752 151.79738562091504,688.8187764276103 153.79084967320262,688.5989119060503 155.7843137254902,693.0481211307796 157.77777777777777,703.5137293888242 159.77124183006538,688.1834484157947 161.76470588235293,672.3944896283222 163.75816993464053,672.2765456174459 165.7516339869281,660.2626084789705 167.7450980392157,657.5795384264312 169.73856209150327,659.7686711122319 171.73202614379085,658.5170253010726 173.72549019607845,655.3115265627282 175.718954248366,658.5459733443715 177.71241830065358,654.3788277547932 179.70588235294116,651.2967973690396 181.69934640522877,654.6352343121683 183.69281045751634,648.9405800558534 185.68627450980392,651.8434423757395 187.6797385620915,650.2431413004801 189.67320261437908,640.3610317555277 191.66666666666666,634.0189152636509 193.66013071895424,630.8310325557391 195.65359477124184,635.5577513320236 197.64705882352942,644.8496221142236 199.640522875817,655.8346618686239 201.63398692810455,653.6736838247872 203.62745098039215,650.2515714145451 205.62091503267973,642.9678461192851 207.6143790849673,644.0286641915471 209.60784313725492,652.8612013166876 211.6013071895425,645.122805319297 213.59477124183007,638.7875589642172 215.58823529411762,649.1608987126967 217.58169934640523,654.0716757229454 219.5751633986928,659.447456964139 221.5686274509804,660.3069906352716 223.56209150326796,657.6329251617035 225.55555555555554,656.301399500246 227.54901960784315,659.0855492145149 229.54248366013073,660.0525040031032 231.5359477124183,655.689984816743 233.52941176470588,661.2680074720197 235.52287581699346,658.3776456027501 237.51633986928104,651.5652064754254 239.50980392156862,654.7997811266795 241.50326797385623,653.1618316133948 243.49673202614377,654.5229200451213 245.49019607843135,654.2104483469844 247.48366013071896,659.2683586463876 249.47712418300654,666.5838120503369 251.47058823529412,666.8192508193474 253.4640522875817,674.6252673692843 255.45751633986927,666.159933907562 257.4509803921569,665.9581378110109 259.44444444444446,653.7370769516547 261.437908496732,643.0479687110515 263.4313725490196,639.9394754337338 265.42483660130716,641.9460400334885 267.41830065359477,644.3221032105548 269.4117647058823,637.5740510556927 271.4052287581699,636.7500690758791 273.39869281045753,636.0912495561191 275.3921568627451,644.1716457227919 277.3856209150327,641.5137458340857 279.3790849673203,640.2376584277079 281.37254901960785,640.8297178411112 283.3660130718954,637.8685731348564 285.359477124183,638.9669834454725 287.3529411764706,641.8828907610359 289.34640522875816,642.3993956450527 291.3398692810457,643.6430082648213 293.3333333333333,647.1745959089944 295.3267973856209,645.347321934099 297.32026143790847,645.4106117259945 299.3137254901961,646.1485168486722 301.3071895424837,643.7824572077536 303.30065359477123,647.9086509203246 305.29411764705884,648.4546554901392 307.28758169934645,648.2369763724764 309.281045751634,645.2622032826057 311.27450980392155,646.3242990641533 313.2679738562091,647.2406765156618 315.26143790849676,648.2633649679062 317.2549019607843,666.3590308030109 319.24836601307186,669.2590706077991 321.24183006535947,669.2475022756151 323.2352941176471,667.3459923637532 325.2287581699346,670.2629967468122 327.22222222222223,669.8542770285899 329.21568627450984,659.2861515368163 331.2091503267974,671.1172057119037 333.202614379085,671.8148180110251 335.1960784313726,672.3766947323057 337.18954248366015,672.5694038792333 339.1830065359477,671.6866951092858 341.17647058823525,672.9248840858033 343.1699346405229,673.996780711178 345.16339869281046,669.3332303090527 347.15686274509807,668.8078358132418 349.1503267973856,667.8500942738401 351.14379084967317,666.9539874064193 353.1372549019608,670.7406747777612 355.1307189542484,672.7735469744152 357.12418300653593,672.375786415959 359.11764705882354,665.9364202536938 361.1111111111111,665.3851237837004 363.1045751633987,663.3744126565927 365.0980392156863,662.8817281241796 367.09150326797385,662.2118473455607 369.08496732026146,662.8365522066089 371.078431372549,668.3389469152669 373.0718954248366,672.5145151532922 375.06535947712416,671.331688404957 377.05882352941177,661.8364110071426 379.0522875816993,664.4045376724761 381.0457516339869,656.4614161315394 383.03921568627453,652.2489536367844 385.0326797385621,629.2520345654907 387.0261437908497,627.3649743068719 389.01960784313724,628.9456606286238 391.01307189542484,625.5191136242208 393.00653594771245,619.513478193759 395.0,623.2817619270343 396.99346405228755,619.0448581146338 398.98692810457516,617.7579237603068 400.9803921568627,600.6413679712858 402.9738562091503,602.094197555901 404.9673202614379,604.9259514969619 406.9607843137255,598.6384528195861 408.9542483660131,608.8473273958695 410.9477124183007,603.0684747311245 412.94117647058823,613.9701421428091 414.93464052287584,600.8811993438401 416.9281045751634,597.692341131036 418.92156862745094,602.9149080145978 420.91503267973854,600.2134938468355 422.9084967320261,593.6938339782481 424.90196078431376,582.9892708197169 426.8954248366013,560.8021517181431 428.8888888888889,560.9907222677208 430.88235294117646,559.9184686327159 432.87581699346407,576.1633308723801 434.8692810457516,567.4546915093903 436.8627450980392,573.4223177317065 438.8562091503268,577.1216308721221 440.8496732026143,574.2264555940958 442.843137254902,564.4331896792573 444.8366013071896,561.4865681728002 446.83006535947715,563.9828093274259 448.8235294117647,558.9030804945788 450.8169934640523,568.7824123861009 452.81045751633985,568.7935713565425 454.80392156862746,554.0591569050117 456.797385620915,561.6072832760923 458.7908496732026,563.8235419984354 460.78431372549016,547.0413451432116 462.7777777777778,535.401536056186 464.7712418300654,554.204660096787 466.764705882353,561.2280486763395 468.75816993464053,549.1612913266582 470.7516339869281,562.9607893542645 472.7450980392157,561.4361380988163 474.73856209150324,578.757644692176 476.73202614379085,581.2718099357919 478.7254901960784,572.7155556366897 480.718954248366,572.5402076127839 482.7124183006536,564.0349739171465 484.7058823529412,565.8525127109891 486.69934640522877,566.5567676346521 488.6928104575164,567.7286065926851 490.6862745098039,554.0210524447599 492.6797385620915,539.5944946940382 494.6732026143791,533.9688672558779 496.66666666666663,521.0422383992117 498.66013071895424,502.23649045804814 500.65359477124184,505.4278918133764 502.64705882352945,496.3447401446213 504.640522875817,494.8208080690609 506.6339869281046,501.6927971584978 508.62745098039215,486.9780263344883 510.62091503267976,459.33470334780844 512.6143790849674,438.3715840613956 514.6078431372548,430.3818935835827 516.6013071895425,395.0625153698343 518.59477124183,392.52092875051466 520.5882352941177,380.4717192375809 522.5816993464052,378.36158223613427 524.5751633986929,363.8672132407887 526.5686274509803,370.00194584923577 528.562091503268,412.5746627991583 530.5555555555555,404.21739420541 532.5490196078431,403.5659326134168 534.5424836601308,428.46169842663517 536.5359477124182,409.2739675196768 538.5294117647059,391.35789981708785 540.5228758169935,389.84019890617657 542.5163398692811,397.1865840891667 544.5098039215686,397.0744078261876 546.5032679738563,421.4806493647116 548.4967320261437,414.2093783113235 550.4901960784314,401.1392724479881 552.4836601307189,399.13473417763373 554.4771241830065,395.874718332978 556.4705882352941,445.1970523265492 558.4640522875818,442.2501668408991 560.4575163398692,456.8156621951307 562.4509803921569,443.2645839715404 564.4444444444445,434.1917535819621 566.437908496732,424.8334402002779 568.4313725490197,435.52765485691174 570.4248366013071,434.0735096829922 572.4183006535948,434.56568071956667 574.4117647058823,469.07824772419883 576.40522875817,444.12952355617136 578.3986928104575,438.09183519908225 580.3921568627452,451.75917544882066 582.3856209150326,447.2437208417642 584.3790849673203,462.59884009817983 586.3725490196078,452.50692504104677 588.3660130718954,435.4616359695177 590.3594771241831,429.1222506513356 592.3529411764705,433.3165811820112 594.3464052287582,379.04690741294377 596.3398692810458,387.8428647734462 598.3333333333334,384.5638238555981 600.3267973856209,376.4970236350514 602.3202614379085,390.3754422012434 604.3137254901961,390.9442271218198 606.3071895424837,388.829371458251 608.3006535947712,376.36595619019306 610.2941176470588,375.3843406580959 612.2875816993463,387.947369748786 614.281045751634,387.9982026387386 616.2745098039215,398.41718669291964 618.2679738562092,411.0920469273761 620.2614379084968,400.85909536210585 622.2549019607843,414.15896371725677 624.2483660130719,413.6232442299314 626.2418300653595,416.7530974459056 628.2352941176471,439.2174743608123 630.2287581699346,436.1319188135686 632.2222222222222,437.64472103459303 634.2156862745098,425.59538829145276 636.2091503267974,428.8425814843953 638.2026143790849,469.16151744047784 640.1960784313726,464.37133150578256 642.1895424836601,472.9348812552333 644.1830065359477,464.1661720857944 646.1764705882352,461.2687085001672 648.1699346405229,443.96120291847126 650.1633986928105,416.13135840938685 652.156862745098,421.3786443880978 654.1503267973857,404.20736321782965 656.1437908496732,407.7319108624918 658.1372549019608,422.11594084286656 660.1307189542483,416.9112332891351 662.124183006536,416.08198720160783 664.1176470588235,422.9603490365939 666.1111111111111,431.0005251221532 668.1045751633986,466.2775185630039 670.0980392156863,520.3013972009795 672.0915032679738,521.1413018802036 674.0849673202615,484.6169808608134 676.0784313725491,495.04337342036797 678.0718954248366,479.01869403415697 680.0653594771242,498.30890703718 682.0588235294117,488.5590061483159 684.0522875816994,487.30112208777814 686.0457516339869,481.57763845495487 688.0392156862745,462.73526807877533 690.032679738562,463.226738972454 692.0261437908497,498.61728346161664 694.0196078431372,494.50868635138266 696.0130718954249,496.87206228236244 698.0065359477125,494.673876882622 700.0,504.3449080575442 701.9934640522875,532.922740339691 703.9869281045751,525.0029164949792 705.9803921568628,509.4232857762229 707.9738562091503,509.3456795608424 709.9673202614379,499.09557574524246 711.9607843137254,513.2750425223085 713.9542483660131,495.5747770108436 715.9477124183006,478.62764013084177 717.9411764705882,476.12820744429916 719.9346405228758,469.088676362706 721.9281045751635,467.1717690382085 723.921568627451,462.01507537790775 725.9150326797386,475.8324863631844 727.9084967320262,500.3156388606575 729.9019607843137,491.9185563796631 731.8954248366014,487.7492507013469 733.8888888888889,490.22912588037843 735.8823529411765,500.27576191188706 737.875816993464,484.14155777836754 739.8692810457517,464.2412716845887 741.8627450980392,459.88420032536123 743.8562091503268,454.9872334349142 745.8496732026143,446.32164376513964 747.8431372549019,460.0500639351068 749.8366013071895,462.7493765463587 751.8300653594771,470.26381800635113 753.8235294117646,454.44915908431483 755.8169934640522,440.06765564700254 757.81045751634,459.5687689146658 759.8039215686275,465.55184644417045 761.7973856209151,465.42200108117584 763.7908496732026,412.15229088241495 765.7843137254903,394.80620327495245 767.7777777777778,336.19729065292137 769.7712418300654,341.6605501127082 771.7647058823529,345.98857998477746 773.7581699346405,351.0479947563014 775.7516339869281,339.75583339753007 777.7450980392157,302.7089059863726 779.7385620915032,302.6955530646333 781.7320261437908,318.6581942019209 783.7254901960785,292.8314879765864 785.718954248366,291.3440102935675 787.7124183006536,284.979228445972 789.7058823529411,295.3337151459751 791.6993464052287,281.07824947013887 793.6928104575163,258.378947241235 795.686274509804,284.41518698135644 797.6797385620915,263.7917518067505 799.6732026143792,258.7652442614808 801.6666666666667,245.43458331051858 803.6601307189543,243.28610919211053 805.6535947712418,300.90639695965376 807.6470588235294,305.91328832426143 809.640522875817,309.55396171773003 811.6339869281046,289.33025124773025 813.6274509803922,316.81276987792006 815.6209150326797,317.5953473721025 817.6143790849673,319.49664450968004 819.6078431372549,300.11462628541 821.6013071895425,283.4825274588293 823.59477124183,267.72551106161245 825.5882352941176,313.67725004645285 827.5816993464052,318.3716939182464 829.5751633986928,319.0518255781202 831.5686274509803,314.72316514662316 833.562091503268,297.92318104606306 835.5555555555557,283.049362147984 837.5490196078432,292.2902562043445 839.5424836601308,289.58297671745856 841.5359477124183,281.2350237122484 843.529411764706,293.9674073066776 845.5228758169935,308.2012375667158 847.5163398692811,285.42171143216467 849.5098039215686,307.83420264529286 851.5032679738562,320.0981281636906 853.4967320261438,342.7406510688881 855.4901960784314,354.15502627100176 857.4836601307189,354.02646783811355 859.4771241830065,358.19990872167136 861.470588235294,350.1716367347169 863.4640522875817,345.662808580578 865.4575163398692,348.30943801780893 867.4509803921568,347.42841334580294 869.4444444444443,352.75913697064107 871.437908496732,341.4235424279699 873.4313725490197,390.193272231877 875.4248366013072,416.6100423106868 877.4183006535948,418.04371543926896 879.4117647058824,422.3505647904083 881.40522875817,400.7608305860669 883.3986928104575,420.7967769010962 885.3921568627451,449.7229989282439 887.3856209150327,448.9425250191274 889.3790849673203,459.30011572968886 891.3725490196078,443.0615833961455 893.3660130718954,445.0012538317681 895.359477124183,426.2015690380028 897.3529411764706,442.1427831577117 899.3464052287582,432.41055114029456 901.3398692810457,423.66213929326534 903.3333333333333,428.78171153806085 905.3267973856208,456.5958406210365 907.3202614379085,457.2477558451054 909.313725490196,459.29534894995834 911.3071895424837,453.14399729352226 913.3006535947713,488.1853999920006 915.2941176470589,502.8573210997943 917.2875816993464,488.22427737297903 919.281045751634,460.34031402226697 921.2745098039215,464.02426319399046 923.2679738562092,469.1752155320074 925.2614379084968,466.9064029000251 927.2549019607843,464.5829363519656 929.2483660130719,424.6199681459416 931.2418300653595,421.88217514432654 933.2352941176471,416.14208293522603 935.2287581699346,416.3491570291973 937.2222222222222,419.71438159500394 939.2156862745097,406.98416764989616 941.2091503267974,418.3531255404843 943.2026143790849,409.0911833636389 945.1960784313725,360.26214321738956 947.18954248366,328.7907697022964 949.1830065359478,341.75104150849063 951.1764705882354,331.2758385938633 953.1699346405229,336.44888682763684 955.1633986928105,329.12928283653514 957.1568627450981,325.878404279793 959.1503267973857,299.72625634830683 961.1437908496732,322.37794128876146 963.1372549019608,314.40044164068956 965.1307189542483,311.7960950614712 967.124183006536,335.0630815094424 969.1176470588235,328.832849256581 971.1111111111111,325.8864057351203 973.1045751633986,351.5101148218372 975.0980392156863,330.08915418236245 977.0915032679738,303.4415714327618 979.0849673202614,302.6489285993378 981.078431372549,324.64072919614784 983.0718954248365,328.6363052936553 985.0653594771242,334.64867079879383 987.0588235294118,333.6212134512178 989.0522875816994,357.70747028403366 991.0457516339869,338.6216236077897 993.0392156862746,331.413195446688 995.0326797385621,332.100379538142 997.0261437908497,322.4730725820681 999.0196078431372,338.1634963630777 1001.0130718954249,311.91173653069075 1003.0065359477125,321.8139002036256 1005.0,319.9737666604542 1006.9934640522875,293.9654787839 1008.9869281045751,259.4642971435443 1010.9803921568628,253.2233752163579 1012.9738562091503,246.3671400818347 1014.9673202614379,217.57893433473913 1016.9607843137254,214.13333562200978 1018.9542483660131,203.7726199152001 1020.9477124183006,208.89158526678534 1022.9411764705882,205.66497983679432 1024.9346405228757,189.14263969334422 1026.9281045751636,199.78907121020785 1028.921568627451,213.48728244793142 1030.9150326797385,246.31526539974044 1032.9084967320262,213.49706987197544 1034.9019607843138,216.4535740777613 1036.8954248366013,185.9850812583162 1038.888888888889,159.61560902819554 1040.8823529411766,131.07828788444215 1042.875816993464,139.0321380039578 1044.8692810457517,151.330881359248 1046.8627450980393,163.0415173057188 1048.8562091503268,167.1048826630564 1050.8496732026142,122.08657612369961 1052.8431372549019,135.6422484776043 1054.8366013071895,153.79080477912805 1056.830065359477,158.2747381841765 1058.8235294117646,179.0530168168509 1060.8169934640523,182.30924491203314 1062.81045751634,165.03240437990792 1064.8039215686276,178.7626310340047 1066.797385620915,177.6218127667513 1068.7908496732025,176.12067215496472 1070.7843137254904,153.87584558213132 1072.7777777777778,137.4165274468064 1074.7712418300653,149.59439829027497 1076.764705882353,141.58353499791815 1078.7581699346406,152.60959173566278 1080.751633986928,155.48943036233084 1082.7450980392157,185.03057032919787 1084.7385620915034,214.4104117405592 1086.7320261437908,201.94422075866203 1088.7254901960785,174.35281111796314 1090.7189542483661,152.57624771824067 1092.7124183006536,130.2351866929655 1094.705882352941,126.93987512476917 1096.6993464052287,137.63958288271635 1098.6928104575163,142.5395316288019 1100.686274509804,218.3224309336914 1102.6797385620916,169.08011205793605 1104.673202614379,200.52199415300112 1106.6666666666667,223.99452177981584 1108.6601307189544,206.4367461955115 1110.6535947712418,215.61140832142672 1112.6470588235293,212.01661899534196 1114.640522875817,200.442861997416 1116.6339869281046,181.190459726619 1118.6274509803923,208.71731045836066 1120.6209150326797,214.46181371135214 1122.6143790849674,207.1950301374107 1124.6078431372548,279.4969110377548 1126.6013071895425,277.91928618060746 1128.5947712418301,268.5417710628425 1130.5882352941176,245.63829534296946 1132.5816993464052,269.4518819821182 1134.5751633986927,312.81649175234617 1136.5686274509803,315.0392205625508 1138.562091503268,316.33014878655376 1140.5555555555557,356.7173480309496 1142.549019607843,366.7364164708405 1144.5424836601308,342.4055532409831 1146.5359477124184,330.45404880829386 1148.5294117647059,328.8007966523496 1150.5228758169935,333.3940181166322 1152.516339869281,330.35218052869203 1154.5098039215686,317.5400945061817 1156.5032679738563,332.912686820231 1158.4967320261437,322.34378637940534 1160.4901960784314,302.9789304996784 1162.483660130719,326.5476033485443 1164.4771241830065,334.31152579135613 1166.4705882352941,343.0306101426314 1168.4640522875816,360.3900887026986 1170.4575163398692,340.54137262523204 1172.450980392157,337.474071842968 1174.4444444444443,345.0406032296874 1176.437908496732,347.4594849050468 1178.4313725490197,343.96655838413557 1180.4248366013073,340.8038289042516 1182.4183006535948,337.5078407837589 1184.4117647058824,322.4955043792918 1186.4052287581699,305.33201891801104 1188.3986928104575,317.42476893893263 1190.3921568627452,325.8991431712165 1192.3856209150326,322.2228388338589 1194.3790849673203,293.3860444429653 1196.3725490196077,293.2117938755735 1198.3660130718954,295.2623310188545 1200.359477124183,312.03086593176187 1202.3529411764705,337.2960253851744 1204.3464052287582,339.0381627683494 1206.3398692810458,358.1409581228934 1208.3333333333333,334.7556316408423 1210.326797385621,363.8108931058542 1212.3202614379084,409.16739577138753 1214.313725490196,417.1349189270545 1216.3071895424837,449.07972496296003 1218.3006535947713,462.5227806805374 1220.2941176470588,461.2059929559233 1222.2875816993464,470.6179432287155 1224.281045751634,483.9611866793332 1226.2745098039215,462.86594369579615 1228.2679738562092,472.3399070896237 1230.2614379084966,482.66226446160124 1232.2549019607843,477.1162378856702 1234.248366013072,479.0474597549454 1236.2418300653594,497.41136628965023 1238.235294117647,473.94887966903184 1240.2287581699345,480.32681350108345 1242.2222222222222,470.09093870452375 1244.2156862745098,451.2204126449284 1246.2091503267973,475.9600233980475 1248.202614379085,485.356023845055 1250.1960784313726,466.1016666352075 1252.18954248366,461.58432563340654 1254.1830065359477,457.8066449761304 1256.1764705882354,427.4930713619455 1258.169934640523,449.5528598647 1260.1633986928105,456.15246744274134 1262.1568627450981,470.95207509967713 1264.1503267973856,455.30257944675066 1266.1437908496732,467.86884032826015 1268.137254901961,480.0293146842888 1270.1307189542483,476.38699368298944 1272.124183006536,463.5035380459177 1274.1176470588234,473.51833302111345 1276.111111111111,463.2964552950243 1278.1045751633987,444.82870028800625 1280.0980392156862,448.9656492615521 1282.0915032679738,437.86857275806875 1284.0849673202613,427.4205470844937 1286.078431372549,427.0328459156935 1288.0718954248366,415.91362340430965 1290.065359477124,437.414795777614 1292.058823529412,425.1531988053426 1294.0522875816994,419.3078208287426 1296.045751633987,421.99260656412366 1298.0392156862745,424.0953889275333 1300.0326797385621,432.7416272123611 1302.0261437908498,422.17983776484556 1304.0196078431372,419.1626188018352 1306.013071895425,409.4227027240116 1308.0065359477123,417.4038244441012 1310.0,412.7957611108327" fill="none" stroke="#92400e" stroke-width="2.5"><title>budgeted_btc_defensive_eth_aggressive | end=2026-05-09 | return=141.95%</title></polyline>
</svg>