<svg xmlns="http://www.w3.org/2000/svg" width="1400" height="800">
<rect width="1400" height="800" fill="#f8fafc"/>
<text x="700.0" y="42" text-anchor="middle" font-family="monospace" font-size="24" fill="#0f172a">Portfolio Value Over Time | start=2024-10-01 | interval=7d</text>
<line x1="90" y1="710" x2="1310" y2="710" stroke="#334155" stroke-width="2"/>
<line x1="90" y1="90" x2="90" y2="710" stroke="#334155" stroke-width="2"/>
<line x1="90.0" y1="710" x2="90.0" y2="90" stroke="#cbd5e1" stroke-width="1"/>
<text x="90.0" y="734" text-anchor="middle" font-family="monospace" font-size="11" fill="#475569">2024-10-01</text>
<line x1="90" y1="710.0" x2="1310" y2="710.0" stroke="#cbd5e1" stroke-width="1"/>
<text x="78" y="714.0" text-anchor="end" font-family="monospace" font-size="12" fill="#475569">8126</text>
<line x1="334.0" y1="710" x2="334.0" y2="90" stroke="#cbd5e1" stroke-width="1"/>
<text x="334.0" y="734" text-anchor="middle" font-family="monospace" font-size="11" fill="#475569">2025-01-28</text>
<line x1="90" y1="586.0" x2="1310" y2="586.0" stroke="#cbd5e1" stroke-width="1"/>
<text x="78" y="590.0" text-anchor="end" font-family="monospace" font-size="12" fill="#475569">9952</text>
<line x1="578.0" y1="710" x2="578.0" y2="90" stroke="#cbd5e1" stroke-width="1"/>
<text x="578.0" y="734" text-anchor="middle" font-family="monospace" font-size="11" fill="#475569">2025-05-20</text>
<line x1="90" y1="462.0" x2="1310" y2="462.0" stroke="#cbd5e1" stroke-width="1"/>
<text x="78" y="466.0" text-anchor="end" font-family="monospace" font-size="12" fill="#475569">11779</text>
<line x1="822.0" y1="710" x2="822.0" y2="90" stroke="#cbd5e1" stroke-width="1"/>
<text x="822.0" y="734" text-anchor="middle" font-family="monospace" font-size="11" fill="#475569">2025-09-16</text>
<line x1="90" y1="338.00000000000006" x2="1310" y2="338.00000000000006" stroke="#cbd5e1" stroke-width="1"/>
<text x="78" y="342.00000000000006" text-anchor="end" font-family="monospace" font-size="12" fill="#475569">13605</text>
<line x1="1066.0" y1="710" x2="1066.0" y2="90" stroke="#cbd5e1" stroke-width="1"/>
<text x="1066.0" y="734" text-anchor="middle" font-family="monospace" font-size="11" fill="#475569">2026-01-06</text>
<line x1="90" y1="214.00000000000006" x2="1310" y2="214.00000000000006" stroke="#cbd5e1" stroke-width="1"/>
<text x="78" y="218.00000000000006" text-anchor="end" font-family="monospace" font-size="12" fill="#475569">15432</text>
<line x1="1310.0" y1="710" x2="1310.0" y2="90" stroke="#cbd5e1" stroke-width="1"/>
<text x="1310.0" y="734" text-anchor="middle" font-family="monospace" font-size="11" fill="#475569">2026-05-05</text>
<line x1="90" y1="90.0" x2="1310" y2="90.0" stroke="#cbd5e1" stroke-width="1"/>
<text x="78" y="94.0" text-anchor="end" font-family="monospace" font-size="12" fill="#475569">17259</text>
<text x="700.0" y="782" text-anchor="middle" font-family="monospace" font-size="16" fill="#0f172a">time</text>
<text x="24" y="400.0" transform="rotate(-90 24,400.0)" text-anchor="middle" font-family="monospace" font-size="16" fill="#0f172a">portfolio_value_usd</text>
<line x1="970" y1="80" x2="988" y2="80" stroke="#0f766e" stroke-width="3"/>
<text x="998" y="84" font-family="monospace" font-size="12" fill="#0f172a">budgeted_static_50_50_rebalance</text>
<line x1="970" y1="104" x2="988" y2="104" stroke="#9333ea" stroke-width="3"/>
<text x="998" y="108" font-family="monospace" font-size="12" fill="#0f172a">budgeted_drawdown_tilt_rebalance</text>
<line x1="970" y1="128" x2="988" y2="128" stroke="#92400e" stroke-width="3"/>
<text x="998" y="132" font-family="monospace" font-size="12" fill="#0f172a">budgeted_btc_defensive_eth_aggressive</text>
<polyline points="90.0,582.7570521025965 104.6987951807229,582.605414742491 119.3975903614458,580.1825983334336 134.09638554216866,579.9183808710434 148.7951807228916,576.9866382653695 163.49397590361446,582.5055189116496 178.19277108433735,552.7931539635247 192.89156626506025,552.1054497454847 207.59036144578315,547.3813221457999 222.289156626506,535.4463527673302 236.9879518072289,534.2709512750972 251.6867469879518,514.8613261864915 266.3855421686747,537.7935996524327 281.08433734939763,550.5534003268738 295.7831325301205,543.5377414420668 310.48192771084337,550.5140494566335 325.1807228915663,530.7279657337273 339.87951807228916,550.3353887316018 354.578313253012,573.0682565033746 369.27710843373495,583.4410512699276 383.9759036144578,580.0278409715418 398.6746987951807,604.3297680624233 413.3734939759036,626.6531916890369 428.07228915662654,652.1216746359559 442.7710843373494,652.0529267690341 457.46987951807233,630.8929519445917 472.1686746987952,648.9158446065628 486.86746987951807,707.0239347570348 501.56626506024094,677.1384682532192 516.2650602409639,634.3415539324128 530.9638554216867,627.9563968878557 545.6626506024096,618.8529977313938 560.3614457831326,494.51759335864233 575.0602409638554,505.31884373807907 589.7590361445783,482.95347035117004 604.4578313253012,500.99866865206127 619.156626506024,460.72714347221404 633.8554216867469,513.3247825928165 648.5542168674699,516.0777777409029 663.2530120481928,522.6637753550731 677.9518072289156,487.7245062094063 692.6506024096385,399.4033290268036 707.3493975903614,320.1355680331112 722.0481927710844,321.2506443465167 736.7469879518072,353.64269476210336 751.4457831325301,226.38201429414005 766.1445783132531,305.2709591494974 780.843373493976,253.69597387924756 795.5421686746988,283.58607574130394 810.2409638554217,284.19478047855785 824.9397590361447,246.76858757449094 839.6385542168674,296.3109422685586 854.3373493975904,291.05152029744 869.0361445783132,236.53380675146502 883.7349397590361,296.0540681471824 898.4337349397591,336.20110635919946 913.1325301204819,310.5490897431536 927.8313253012049,415.9072778360998 942.5301204819277,397.73337316111395 957.2289156626506,461.5163596796954 971.9277108433735,497.2020679876612 986.6265060240964,479.4771194743715 1001.3253012048192,441.4328726213667 1016.0240963855422,494.92333238201695 1030.7228915662652,496.31618773910446 1045.421686746988,492.14788862271735 1060.120481927711,439.91239805131113 1074.8192771084337,431.23686833261564 1089.5180722891566,495.5697333185581 1104.2168674698796,483.92625823978324 1118.9156626506024,612.6422816117607 1133.6144578313254,659.4336740688739 1148.313253012048,667.6350670505263 1163.012048192771,695.3971006530116 1177.7108433734938,665.5127061849274 1192.4096385542168,653.6677291375651 1207.1084337349398,607.6124330547611 1221.8072289156626,638.0266951660545 1236.5060240963855,652.0211934759591 1251.2048192771083,623.6185786850447 1265.9036144578313,606.1283240535085 1280.6024096385543,598.0588491416119 1295.301204819277,602.5756603388088 1310.0,578.4908042408852" fill="none" stroke="#0f766e" stroke-width="2.5"><title>budgeted_static_50_50_rebalance | end=2026-05-05 | return=0.63%</title></polyline>
<polyline points="90.0,582.7570521025965 104.6987951807229,582.6176470297545 119.3975903614458,579.4488799074733 134.09638554216866,579.0918291484508 148.7951807228916,576.0368285371064 163.49397590361446,583.902207173542 178.19277108433735,543.3931572071596 192.89156626506025,544.8660603226754 207.59036144578315,537.2411563599582 222.289156626506,522.0349484585956 236.9879518072289,520.8869709683814 251.6867469879518,502.1529481602373 266.3855421686747,524.7702302259015 281.08433734939763,535.7396288859993 295.7831325301205,530.3134316639641 310.48192771084337,537.569132159938 325.1807228915663,522.7718907270362 339.87951807228916,540.1842045805295 354.578313253012,561.5374029330476 369.27710843373495,571.2204944355346 383.9759036144578,567.2732844541364 398.6746987951807,588.77216066819 413.3734939759036,613.6191711075396 428.07228915662654,639.6741458082506 442.7710843373494,639.3298771335039 457.46987951807233,617.7991747352171 472.1686746987952,638.6777708003096 486.86746987951807,705.107050481046 501.56626506024094,674.9643867243641 516.2650602409639,630.2582005862323 530.9638554216867,622.1232572282607 545.6626506024096,613.4499299565148 560.3614457831326,442.82726422382774 575.0602409638554,464.63808940518373 589.7590361445783,435.1553100012089 604.4578313253012,455.11859030822495 619.156626506024,404.0068770577519 633.8554216867469,472.6712598104225 648.5542168674699,480.15670415656643 663.2530120481928,489.2347736201214 677.9518072289156,443.22005769118863 692.6506024096385,327.744782182423 707.3493975903614,213.1259159429252 722.0481927710844,210.452098412881 736.7469879518072,247.63048762881118 751.4457831325301,90.0 766.1445783132531,177.36050233505728 780.843373493976,111.28789264713316 795.5421686746988,146.19783584434106 810.2409638554217,147.44186828139118 824.9397590361447,113.85171961181629 839.6385542168674,160.9384856756359 854.3373493975904,158.21378084290518 869.0361445783132,110.68342548174917 883.7349397590361,161.64517016922719 898.4337349397591,196.75757455577116 913.1325301204819,175.70012236949265 927.8313253012049,272.44535872121645 942.5301204819277,255.10342332677226 957.2289156626506,312.792967373664 971.9277108433735,345.98595494091296 986.6265060240964,330.3850227580555 1001.3253012048192,288.0691892044731 1016.0240963855422,346.3390068995276 1030.7228915662652,347.55720088968343 1045.421686746988,343.4264125901615 1060.120481927711,281.83363032609515 1074.8192771084337,272.1400550595305 1089.5180722891566,351.29145482988446 1104.2168674698796,336.25049099372575 1118.9156626506024,500.40745419273026 1133.6144578313254,559.2345162069942 1148.313253012048,569.4578859705323 1163.012048192771,605.6108314304745 1177.7108433734938,566.155151361592 1192.4096385542168,550.0913649207076 1207.1084337349398,483.3011366758098 1221.8072289156626,526.8293246069891 1236.5060240963855,546.1371960090914 1251.2048192771083,505.595416976327 1265.9036144578313,480.5553619907365 1280.6024096385543,470.19107049701466 1295.301204819277,477.32965954618953 1310.0,444.0627879180996" fill="none" stroke="#9333ea" stroke-width="2.5"><title>budgeted_drawdown_tilt_rebalance | end=2026-05-05 | return=20.43%</title></polyline>
<polyline points="90.0,582.7570521025965 104.6987951807229,582.4679893283903 119.3975903614458,578.7756101714577 134.09638554216866,578.4455237244576 148.7951807228916,574.5294794352045 163.49397590361446,580.1226663200205 178.19277108433735,550.4192769524104 192.89156626506025,548.4037021315007 207.59036144578315,544.9814453059787 222.289156626506,534.4853941435413 236.9879518072289,533.3124620156364 251.6867469879518,515.010968385264 266.3855421686747,535.0133383740404 281.08433734939763,546.6613661489889 295.7831325301205,539.8653584670319 310.48192771084337,544.957532639989 325.1807228915663,525.7827337917274 339.87951807228916,542.1506797299096 354.578313253012,559.8328717674984 369.27710843373495,568.1690959650526 383.9759036144578,565.9824725788378 398.6746987951807,587.1692824302573 413.3734939759036,603.0051150664551 428.07228915662654,623.1560745472295 442.7710843373494,623.2798169514455 457.46987951807233,604.0070802287348 472.1686746987952,618.9030717351042 486.86746987951807,670.1667247157203 501.56626506024094,640.1485254790957 516.2650602409639,596.4804217048502 530.9638554216867,590.7427872481085 545.6626506024096,580.7468927513128 560.3614457831326,484.08435717518637 575.0602409638554,487.81454225340485 589.7590361445783,468.4973011157989 604.4578313253012,487.1118691283458 619.156626506024,449.23107964561694 633.8554216867469,499.2509686602998 648.5542168674699,499.5490685196388 663.2530120481928,505.51825315028816 677.9518072289156,472.7676879301274 692.6506024096385,388.9312158862137 707.3493975903614,320.4873720772166 722.0481927710844,323.70774209715086 736.7469879518072,355.4865921666539 751.4457831325301,234.25709712606204 766.1445783132531,312.476667601795 780.843373493976,263.1501867416702 795.5421686746988,292.71911321647366 810.2409638554217,293.29774874080334 824.9397590361447,255.0616136831759 839.6385542168674,306.0250860681804 854.3373493975904,300.4942566102398 869.0361445783132,243.85777947330115 883.7349397590361,305.97002260445373 898.4337349397591,347.88340338025824 913.1325301204819,320.94467665601013 927.8313253012049,431.58822382330646 942.5301204819277,413.0052367544015 957.2289156626506,478.936369201229 971.9277108433735,515.4759737950997 986.6265060240964,497.2270891978625 1001.3253012048192,460.10274164627447 1016.0240963855422,513.1847771418128 1030.7228915662652,514.631614328068 1045.421686746988,510.3750086117242 1060.120481927711,458.6619413627448 1074.8192771084337,449.8772529234718 1089.5180722891566,514.0752542032557 1104.2168674698796,502.6335245570011 1118.9156626506024,630.2918948748711 1133.6144578313254,675.9300256807036 1148.313253012048,683.8469917331208 1163.012048192771,710.0 1177.7108433734938,681.4982323146395 1192.4096385542168,670.2393223416146 1207.1084337349398,627.7985532825301 1221.8072289156626,656.313536967503 1236.5060240963855,669.8582668973659 1251.2048192771083,642.9381926161564 1265.9036144578313,626.3588650357715 1280.6024096385543,618.0725826167431 1295.301204819277,622.047365926612 1310.0,598.342454947138" fill="none" stroke="#92400e" stroke-width="2.5"><title>budgeted_btc_defensive_eth_aggressive | end=2026-05-05 | return=-2.30%</title></polyline>
</svg>