<svg xmlns="http://www.w3.org/2000/svg" width="1400" height="800">
<rect width="1400" height="800" fill="#f8fafc"/>
<text x="700.0" y="42" text-anchor="middle" font-family="monospace" font-size="24" fill="#0f172a">Portfolio Value Over Time | start=2020-07-01 | interval=3d</text>
<line x1="90" y1="710" x2="1310" y2="710" stroke="#334155" stroke-width="2"/>
<line x1="90" y1="90" x2="90" y2="710" stroke="#334155" stroke-width="2"/>
<line x1="90.0" y1="710" x2="90.0" y2="90" stroke="#cbd5e1" stroke-width="1"/>
<text x="90.0" y="734" text-anchor="middle" font-family="monospace" font-size="11" fill="#475569">2020-07-01</text>
<line x1="90" y1="710.0" x2="1310" y2="710.0" stroke="#cbd5e1" stroke-width="1"/>
<text x="78" y="714.0" text-anchor="end" font-family="monospace" font-size="12" fill="#475569">9879</text>
<line x1="334.0" y1="710" x2="334.0" y2="90" stroke="#cbd5e1" stroke-width="1"/>
<text x="334.0" y="734" text-anchor="middle" font-family="monospace" font-size="11" fill="#475569">2021-08-31</text>
<line x1="90" y1="586.0" x2="1310" y2="586.0" stroke="#cbd5e1" stroke-width="1"/>
<text x="78" y="590.0" text-anchor="end" font-family="monospace" font-size="12" fill="#475569">31619</text>
<line x1="578.0" y1="710" x2="578.0" y2="90" stroke="#cbd5e1" stroke-width="1"/>
<text x="578.0" y="734" text-anchor="middle" font-family="monospace" font-size="11" fill="#475569">2022-11-03</text>
<line x1="90" y1="462.0" x2="1310" y2="462.0" stroke="#cbd5e1" stroke-width="1"/>
<text x="78" y="466.0" text-anchor="end" font-family="monospace" font-size="12" fill="#475569">53358</text>
<line x1="822.0" y1="710" x2="822.0" y2="90" stroke="#cbd5e1" stroke-width="1"/>
<text x="822.0" y="734" text-anchor="middle" font-family="monospace" font-size="11" fill="#475569">2024-01-03</text>
<line x1="90" y1="337.99999999999994" x2="1310" y2="337.99999999999994" stroke="#cbd5e1" stroke-width="1"/>
<text x="78" y="341.99999999999994" text-anchor="end" font-family="monospace" font-size="12" fill="#475569">75098</text>
<line x1="1066.0" y1="710" x2="1066.0" y2="90" stroke="#cbd5e1" stroke-width="1"/>
<text x="1066.0" y="734" text-anchor="middle" font-family="monospace" font-size="11" fill="#475569">2025-03-07</text>
<line x1="90" y1="214.0" x2="1310" y2="214.0" stroke="#cbd5e1" stroke-width="1"/>
<text x="78" y="218.0" text-anchor="end" font-family="monospace" font-size="12" fill="#475569">96838</text>
<line x1="1310.0" y1="710" x2="1310.0" y2="90" stroke="#cbd5e1" stroke-width="1"/>
<text x="1310.0" y="734" text-anchor="middle" font-family="monospace" font-size="11" fill="#475569">2026-05-07</text>
<line x1="90" y1="90.0" x2="1310" y2="90.0" stroke="#cbd5e1" stroke-width="1"/>
<text x="78" y="94.0" text-anchor="end" font-family="monospace" font-size="12" fill="#475569">118578</text>
<text x="700.0" y="782" text-anchor="middle" font-family="monospace" font-size="16" fill="#0f172a">time</text>
<text x="24" y="400.0" transform="rotate(-90 24,400.0)" text-anchor="middle" font-family="monospace" font-size="16" fill="#0f172a">portfolio_value_usd</text>
<line x1="970" y1="80" x2="988" y2="80" stroke="#0f766e" stroke-width="3"/>
<text x="998" y="84" font-family="monospace" font-size="12" fill="#0f172a">budgeted_static_50_50_rebalance</text>
<line x1="970" y1="104" x2="988" y2="104" stroke="#9333ea" stroke-width="3"/>
<text x="998" y="108" font-family="monospace" font-size="12" fill="#0f172a">budgeted_drawdown_tilt_rebalance</text>
<line x1="970" y1="128" x2="988" y2="128" stroke="#92400e" stroke-width="3"/>
<text x="998" y="132" font-family="monospace" font-size="12" fill="#0f172a">budgeted_btc_defensive_eth_aggressive</text>
<polyline points="90.0,709.3086362063015 91.71348314606742,709.321158785616 93.42696629213484,709.2443132872703 95.14044943820225,709.2199241406231 96.85393258426966,709.2564732932937 98.56741573033707,709.3835204092244 100.28089887640449,709.2462094921445 101.99438202247191,708.5684401608391 103.70786516853933,707.5177350598148 105.42134831460675,706.4081475175885 107.13483146067415,705.3070889520147 108.84831460674157,704.2486534213668 110.56179775280899,703.5100409524741 112.2752808988764,703.7468007486489 113.98876404494382,703.9726504128364 115.70224719101124,702.0307297973112 117.41573033707866,702.3204431219922 119.12921348314606,704.1514894220512 120.84269662921348,703.0698118579558 122.5561797752809,704.6535407105277 124.26966292134831,702.1032256101157 125.98314606741573,702.0303495806969 127.69662921348313,708.8037777715672 129.41011235955057,708.7565288869725 131.12359550561797,706.4421897862043 132.8370786516854,705.7954691167467 134.5505617977528,704.6713475947985 136.26404494382024,705.7869312829348 137.97752808988764,710.0 139.69101123595505,707.010425418566 141.40449438202248,706.4291061917108 143.11797752808988,707.8928521692808 144.8314606741573,706.8924837537388 146.54494382022472,706.7602454886409 148.25842696629212,704.2474346568229 149.97191011235955,703.8224363393509 151.68539325842696,704.6551389626118 153.3988764044944,703.4209409298394 155.1123595505618,698.472038130518 156.8258426966292,699.2913945929453 158.53932584269663,698.8282937057405 160.25280898876406,697.529017094227 161.96629213483146,696.2789695160083 163.67977528089887,692.6280369513281 165.39325842696627,690.5913787826865 167.10674157303373,686.6916021409168 168.82022471910113,687.0105320237052 170.53370786516854,684.0477422386795 172.24719101123594,676.6820763999028 173.96067415730337,675.576521547078 175.6741573033708,679.581676844873 177.3876404494382,674.3126924088483 179.1011235955056,675.7845081467858 180.81460674157302,673.1893965588562 182.52808988764048,677.0943895625276 184.24157303370785,673.2646414956445 185.95505617977528,665.9205735139467 187.6685393258427,659.7428231704166 189.38202247191012,661.2266438857669 191.09550561797752,660.2239602471241 192.80898876404495,649.0392356883538 194.52247191011236,644.9269639803842 196.23595505617976,621.5165332253755 197.94943820224717,599.6750939876852 199.6629213483146,589.1637027234576 201.37640449438203,614.6716217034093 203.08988764044943,602.5538307426713 204.80337078651684,597.3102743253886 206.51685393258427,616.5548488679765 208.2303370786517,597.3330202929258 209.9438202247191,609.5859771822668 211.6573033707865,594.2479612677387 213.3707865168539,584.5824737931547 215.08426966292134,567.8647985310379 216.79775280898878,549.5846403477287 218.51123595505618,544.6879594863344 220.22471910112358,542.4874515053809 221.93820224719101,533.1484723612541 223.65168539325842,522.6428133655838 225.36516853932582,553.1670289643007 227.07865168539325,564.8446620542303 228.7921348314607,552.0476504592513 230.5056179775281,556.0924259050978 232.2191011235955,541.1715192993369 233.93258426966293,528.6881097635576 235.64606741573033,512.4582040173341 237.35955056179776,526.1499527160252 239.07303370786516,524.0121418254054 240.78651685393257,537.7205092963138 242.5,547.6164058708248 244.21348314606743,534.4679786238378 245.92696629213484,516.5163222136941 247.64044943820227,514.5713623526066 249.35393258426967,507.3958821535603 251.06741573033707,509.7519235302118 252.78089887640448,502.90684791244405 254.4943820224719,477.30645055787056 256.20786516853934,503.6974402870841 257.92134831460675,502.370340603469 259.63483146067415,516.0798360699521 261.3483146067416,484.9527539422819 263.061797752809,474.6651260926353 264.7752808988764,445.2547313404923 266.4887640449438,444.11148512497203 268.2022471910112,421.5139248989764 269.9157303370787,443.254797876353 271.62921348314603,455.8950801501817 273.3426966292135,474.66109071102176 275.05617977528095,522.3700133917006 276.7696629213483,510.7541058308532 278.4831460674157,507.77952496737964 280.1966292134831,527.8243627837028 281.91011235955057,511.2646926271178 283.62359550561797,518.7514413699397 285.3370786516854,528.2102552510803 287.05056179775283,525.0914033251883 288.76404494382024,508.8845705511791 290.47752808988764,522.7400121329479 292.19101123595505,533.7478141387967 293.90449438202245,549.095913875437 295.6179775280899,558.0223853570313 297.3314606741573,535.7121610230943 299.0449438202247,541.2189407895884 300.7584269662922,539.7900494029759 302.4719101123595,545.1273973511286 304.185393258427,540.6847869930548 305.89887640449433,550.4374248707661 307.6123595505618,557.6615168811722 309.3258426966292,566.9159080867107 311.0393258426966,542.4431317578046 312.75280898876406,528.5889068815845 314.46629213483146,514.722741915853 316.17977528089887,507.85994345547556 317.8932584269663,501.0919012553452 319.6067415730337,469.9205600418601 321.32022471910113,468.24575389174 323.03370786516854,454.9718752122787 324.74719101123594,467.15820200225977 326.4606741573034,463.40700613183634 328.1741573033708,454.5903020602047 329.8876404494382,455.86844066217725 331.60112359550567,455.21866118646926 333.314606741573,452.7971761326176 335.0280898876405,425.51600281726843 336.7415730337078,418.91618940611784 338.4550561797753,454.3916839440684 340.1685393258427,456.18248822814087 341.8820224719101,442.61991193748486 343.59550561797755,448.79545670910636 345.30898876404495,493.88190468550806 347.02247191011236,482.0134332201175 348.73595505617976,484.0249103508552 350.44943820224717,476.7286217529645 352.1629213483146,448.83331149280076 353.87640449438203,423.98452422817286 355.58988764044943,424.97578218525945 357.30337078651684,425.51948049635394 359.0168539325843,396.2300337227279 360.73033707865164,400.1213494465706 362.4438202247191,387.7549265614156 364.1573033707865,390.02408917860595 365.8707865168539,402.08471565024547 367.5842696629214,378.2374007276917 369.2977528089888,364.5971267391156 371.0112359550562,374.59850152467266 372.7247191011236,345.69458505786446 374.438202247191,355.9324179665578 376.1516853932584,357.6117033133086 377.86516853932585,382.81756889680634 379.57865168539325,379.71666398166974 381.29213483146066,388.0166396450799 383.0056179775281,408.48281669304436 384.7191011235955,383.38524894327867 386.4325842696629,384.5319649378202 388.14606741573033,414.13318906633674 389.85955056179773,403.0832764407716 391.57303370786514,418.1442579953405 393.2865168539326,428.91964739748374 395.0,434.43648318477966 396.7134831460674,429.9049402526915 398.42696629213486,413.16507702142485 400.1404494382022,414.9021084343629 401.85393258426967,442.02981847085937 403.5674157303371,433.7885708579899 405.28089887640454,438.4728899220966 406.9943820224719,471.00153869077946 408.70786516853934,474.3419986991656 410.42134831460675,466.53558193000987 412.13483146067415,461.1653693764333 413.8483146067416,474.8054267904964 415.56179775280896,518.215003457122 417.2752808988764,510.9875635227858 418.9887640449438,505.5827542219308 420.7022471910113,497.9954140914526 422.4157303370786,500.94683936555043 424.12921348314603,472.48540434873314 425.8426966292135,459.5230250098937 427.5561797752809,478.2746572138919 429.26966292134836,461.3299262297078 430.9831460674157,489.95648925771377 432.69662921348316,506.4905649693363 434.41011235955057,501.6648678039403 436.123595505618,502.59281758929694 437.8370786516854,471.9879760078737 439.5505617977528,495.8632465424941 441.26404494382024,501.26708460186273 442.97752808988764,502.14220713272437 444.6910112359551,498.1538345723958 446.40449438202245,485.39012862832914 448.1179775280899,482.504430074963 449.8314606741573,470.87289045718046 451.54494382022466,462.01976003001676 453.2584269662921,443.7461188310875 454.9719101123595,444.72062202027024 456.685393258427,441.3600901831482 458.3988764044944,461.5143570667547 460.11235955056185,466.052943553916 461.8258426966292,472.1683851909171 463.53932584269666,476.5773703339834 465.25280898876406,471.78451124046376 466.9662921348314,482.22130582739777 468.67977528089887,478.4522761393002 470.39325842696627,483.1712737703153 472.10674157303373,491.06613929682356 473.82022471910113,483.189690416468 475.5337078651686,507.02918936640987 477.24719101123594,531.3069984948959 478.96067415730334,549.5852378754912 480.6741573033708,547.2120168589215 482.38764044943815,546.0593842185185 484.1011235955056,545.1462950897655 485.814606741573,551.5154364639309 487.5280898876405,559.3164131414302 489.2415730337079,544.7767795728631 490.95505617977534,558.1915208353815 492.6685393258427,549.6060808316913 494.3820224719101,556.4085539404768 496.09550561797755,582.7160022273181 497.8089887640449,603.2471853482946 499.52247191011236,625.1089540272714 501.23595505617976,613.7270626597567 502.9494382022472,607.3175444033911 504.6629213483146,610.4325505836227 506.376404494382,618.7128300108985 508.08988764044943,620.6362386004365 509.80337078651684,610.9885477383643 511.5168539325843,606.220033967955 513.2303370786517,622.4909134841546 514.943820224719,607.4915564671912 516.6573033707865,583.937341158966 518.370786516854,581.9904064831732 520.0842696629213,582.6506199784034 521.7977528089887,579.4936210216426 523.5112359550562,574.2272066566603 525.2247191011236,579.6192235895517 526.938202247191,573.4554412719209 528.6516853932584,569.9047103130043 530.3651685393259,564.6091586759978 532.0786516853932,560.8355658572907 533.7921348314607,568.7247202123472 535.5056179775281,587.8364548276103 537.2191011235955,582.4444735251836 538.9325842696629,593.9302185117567 540.6460674157304,591.7925102367129 542.3595505617977,590.7498738128377 544.0730337078651,591.5198596510037 545.7865168539327,591.7024909039825 547.5,576.8808975738425 549.2134831460673,590.9710189012563 550.9269662921349,598.5564458442038 552.6404494382023,602.0828397739897 554.3539325842696,604.8752150329012 556.0674157303371,608.4277945127992 557.7808988764045,604.3208303609673 559.4943820224719,605.8672231280525 561.2078651685393,599.9202228748345 562.9213483146068,604.1704160426349 564.6348314606741,607.5205353774888 566.3483146067416,606.8465619528947 568.061797752809,606.288583102601 569.7752808988764,607.8052235109648 571.4887640449438,606.0861914117397 573.2022471910113,595.9498048023648 574.9157303370787,589.6194055323564 576.629213483146,589.1266226510963 578.3426966292135,592.0918105977038 580.056179775281,587.9020938775235 581.7696629213483,627.1474221400358 583.4831460674156,616.6434689464389 585.1966292134832,616.4731806718106 586.9101123595506,619.122348454333 588.623595505618,627.4397430298397 590.3370786516854,619.7461231577918 592.0505617977528,620.8062474223034 593.7640449438202,613.1797614465606 595.4775280898876,616.7978168346164 597.1910112359551,614.6110545855806 598.9044943820224,614.863564858871 600.6179775280899,613.9570458239738 602.3314606741573,613.8855937356875 604.0449438202247,620.0869987814001 605.7584269662922,618.3004265128249 607.4719101123595,617.9304327767046 609.185393258427,618.8836097417759 610.8988764044943,619.8121717047242 612.6123595505618,618.8634802105279 614.3258426966293,616.4872842853698 616.0393258426967,613.5251449519064 617.7528089887641,605.7998493121556 619.4662921348314,587.3209877664804 621.1797752808989,585.9404459799591 622.8932584269663,576.1510075899209 624.6067415730337,576.7672225392898 626.3202247191011,577.6461403755454 628.0337078651686,573.0579733984573 629.7471910112359,573.2249583857941 631.4606741573033,573.4364105733289 633.1741573033707,573.5116533781426 634.8876404494382,586.339229361541 636.6011235955057,586.1200889511381 638.314606741573,574.0890518457784 640.0280898876405,569.5270815580484 641.7415730337078,571.6089380036044 643.4550561797753,577.289851690673 645.1685393258427,576.8215171225994 646.8820224719101,581.1138197681062 648.5955056179776,581.1160491246404 650.3089887640449,593.9473955601987 652.0224719101124,580.3708137236779 653.7359550561798,570.0857964677986 655.4494382022472,556.3555559738716 657.1629213483146,550.249450201051 658.876404494382,555.2200158817122 660.5898876404494,558.0373954799796 662.3033707865168,551.4600949765976 664.0168539325842,550.8931410264215 665.7303370786517,545.4798811783951 667.4438202247192,548.9763565714401 669.1573033707865,539.8638553830347 670.870786516854,528.9963661071034 672.5842696629213,533.4853596563547 674.2977528089888,543.4711288301904 676.0112359550562,549.3304928687612 677.7247191011236,546.4834647162238 679.438202247191,541.9193946622394 681.1516853932584,545.4558688922139 682.8651685393259,536.9354342817733 684.5786516853933,549.5523616091596 686.2921348314607,554.2927731133383 688.0056179775281,554.2444199808334 689.7191011235955,551.6853120682144 691.4325842696629,552.7281453243041 693.1460674157303,550.7612611780643 694.8595505617977,553.5866131007439 696.5730337078652,547.2823103877506 698.2865168539327,551.6250556516438 700.0,549.3916799062436 701.7134831460675,554.5562626449002 703.4269662921348,559.8557736793707 705.1404494382023,560.2168050595515 706.8539325842697,560.0108697466488 708.5674157303372,557.4499065741176 710.2808988764044,541.2867029811564 711.9943820224719,538.0943229582032 713.7078651685393,542.8330390853979 715.4213483146067,536.5576780688193 717.1348314606741,535.3974835326461 718.8483146067416,539.8367951284752 720.5617977528091,539.161724807815 722.2752808988763,529.9057166075497 723.9887640449438,537.5960439296566 725.7022471910112,540.2649511706601 727.4157303370787,541.69260150144 729.129213483146,543.8700500757204 730.8426966292135,542.787726216142 732.556179775281,543.9143060956931 734.2696629213483,545.125732712366 735.9831460674158,545.8629420664904 737.6966292134832,542.9920468463505 739.4101123595507,543.6758592517625 741.1235955056179,545.4803563424605 742.8370786516854,562.954820046565 744.5505617977528,562.4390150632831 746.2640449438202,562.6540857744013 747.9775280898876,563.0180095506016 749.6910112359551,556.8892629055375 751.4044943820226,564.7197740353796 753.1179775280898,565.1273202652914 754.8314606741573,564.6429642604172 756.5449438202247,571.1598107646223 758.2584269662921,563.0853865061417 759.9719101123595,563.3079913077582 761.685393258427,561.4992538093192 763.3988764044944,564.6057117335083 765.1123595505618,565.790121476662 766.8258426966293,559.9022031980448 768.5393258426967,558.2991895230883 770.252808988764,561.1377685889887 771.9662921348314,558.4280992564265 773.6797752808989,565.0794797577962 775.3932584269663,565.7243199164154 777.1067415730337,560.4818025948599 778.8202247191011,554.5861392647383 780.5337078651686,536.0083681726146 782.247191011236,530.9141863233724 783.9606741573033,530.2164023318551 785.6741573033707,524.8795794831108 787.3876404494382,525.3919343351726 789.1011235955056,522.9588312362683 790.814606741573,507.5456619203564 792.5280898876405,511.20920317538724 794.2415730337079,516.8351936516094 795.9550561797753,510.79682990107136 797.6685393258427,508.06289185433366 799.3820224719102,505.9757845998286 801.0955056179774,507.6630384407671 802.8089887640449,503.26847687507666 804.5224719101124,486.34284761122 806.2359550561798,477.0691747414768 807.9494382022472,475.8786230578688 809.6629213483146,482.93345443465915 811.3764044943821,486.3647964351188 813.0898876404493,488.7959414248264 814.8033707865168,476.55490371160045 816.5168539325842,480.45606599751386 818.2303370786517,479.45281007722747 819.943820224719,483.44137832851015 821.6573033707865,485.43562027221515 823.370786516854,480.83494462451324 825.0842696629213,469.9456399767703 826.7977528089888,469.84083613825635 828.5112359550562,471.20238704800175 830.2247191011237,476.4782898438138 831.9382022471909,476.41614955245086 833.6516853932584,491.2901448592545 835.3651685393259,483.96415789594516 837.0786516853933,478.0217667225945 838.7921348314607,479.08948868931986 840.5056179775281,480.97001366695235 842.2191011235956,467.7797296447003 843.9325842696628,455.25639126799456 845.6460674157303,432.3970448941709 847.3595505617977,432.45386387281127 849.0730337078652,419.6254142585501 850.7865168539325,428.2325674616799 852.5,405.824474954168 854.2134831460675,380.4047082087188 855.9269662921348,368.20444856095844 857.6404494382023,344.81324660556834 859.3539325842697,334.41313615608595 861.0674157303372,323.60013145165215 862.7808988764044,339.56523270457063 864.4943820224719,354.57694017995624 866.2078651685393,361.2919108884511 867.9213483146067,358.67808475956485 869.6348314606741,350.9985877966627 871.3483146067416,350.15015757203753 873.0617977528091,371.19278665366795 874.7752808988763,363.42305503479736 876.4887640449438,336.16683783152354 878.2022471910112,349.2372877710736 879.9157303370787,376.0260037890866 881.629213483146,395.247730803299 883.3426966292135,377.9514932744876 885.056179775281,371.40422934867473 886.7696629213483,382.22442770107097 888.4831460674158,377.78290665884396 890.1966292134832,400.55579386937234 891.9101123595507,381.08346516448773 893.6235955056179,396.0873974144316 895.3370786516854,399.9699968424813 897.0505617977528,399.77157075135995 898.7640449438202,375.7115780006419 900.4775280898876,336.5074992960447 902.1910112359551,338.96504815978676 903.9044943820226,335.5632642821195 905.6179775280898,340.7582582347629 907.3314606741573,337.9815502660602 909.0449438202247,331.0643832391959 910.7584269662921,340.39310362839154 912.4719101123595,340.45811565119425 914.185393258427,356.5703963102282 915.8988764044944,349.56692126768513 917.6123595505618,356.70610152410967 919.3258426966293,361.5223469339577 921.0393258426967,372.35712737382556 922.752808988764,377.0262897422115 924.4662921348314,367.5732917350709 926.1797752808989,400.0073727131076 927.8932584269663,409.0459782670078 929.6067415730337,396.2737205316354 931.3202247191011,388.7688462400243 933.0337078651686,360.9233349444045 934.747191011236,353.9936722645392 936.4606741573033,354.88219282784326 938.1741573033707,372.0114686009178 939.8876404494382,361.2949964037319 941.6011235955056,372.1555962060577 943.314606741573,397.92228906765433 945.0280898876405,430.8726334526094 946.7415730337079,412.24706882393 948.4550561797753,409.73215631428684 950.1685393258427,421.85793673751846 951.8820224719102,417.5349421924836 953.5955056179774,409.99946902264765 955.3089887640449,395.56201219954 957.0224719101124,423.24469462263403 958.7359550561798,420.4233584047429 960.4494382022472,419.709893400299 962.1629213483146,435.9743350189896 963.8764044943821,442.8397862906441 965.5898876404493,434.62047844037966 967.3033707865168,424.01843378937053 969.0168539325842,427.60001906086165 970.7303370786517,408.3559955320433 972.443820224719,403.2589241513164 974.1573033707865,399.8205096129278 975.870786516854,397.4214137532087 977.5842696629213,425.3104814262731 979.2977528089888,419.19010884082775 981.0112359550562,417.60334364276235 982.7247191011237,416.74301799371455 984.4382022471909,397.8357115215343 986.1516853932584,396.17755738691255 987.8651685393259,384.50134698001017 989.5786516853933,402.6423031059444 991.2921348314607,404.1529830016357 993.0056179775281,382.32541367659263 994.7191011235956,396.89390956504235 996.4325842696628,407.14476199017184 998.1460674157303,359.95008767272293 999.8595505617977,333.2737482945768 1001.5730337078652,311.2365671154749 1003.2865168539325,314.22324153835547 1005.0,311.71298333312234 1006.7134831460675,285.16742952104545 1008.4269662921348,292.8216342260426 1010.1404494382023,277.86657169645724 1011.8539325842697,267.0889978178695 1013.5674157303372,256.51066844410315 1015.2808988764044,245.30157725619563 1016.9943820224719,272.5231585952383 1018.7078651685393,247.3581447859852 1020.4213483146067,233.3645900633581 1022.1348314606741,282.60475130926864 1023.8483146067416,294.74101467465204 1025.561797752809,274.1456421336944 1027.2752808988762,288.03459963185287 1028.9887640449438,295.4113882113249 1030.7022471910113,270.13226080707693 1032.4157303370787,257.21328507339877 1034.129213483146,303.1203634108092 1035.8426966292136,296.50895395859135 1037.556179775281,273.9160658942635 1039.2696629213483,274.4646230242398 1040.9831460674159,269.7033394229639 1042.6966292134832,273.30098001548316 1044.4101123595506,286.16234390428934 1046.123595505618,277.13345239071197 1047.8370786516853,313.0515257096284 1049.5505617977528,319.85314056077846 1051.2640449438202,329.5009420148516 1052.9775280898875,332.675675067894 1054.691011235955,321.8410356069389 1056.4044943820227,323.9657341252808 1058.1179775280898,319.5301768070346 1059.8314606741574,318.32256391574964 1061.5449438202247,371.5022194129138 1063.258426966292,375.2995228219242 1064.9719101123596,375.9211340431664 1066.685393258427,378.770711142295 1068.3988764044943,411.84449115617974 1070.112359550562,407.2372778170016 1071.8258426966293,402.99774125578483 1073.5393258426966,383.73821227685795 1075.252808988764,394.39839587098396 1076.9662921348313,382.04456217311593 1078.6797752808989,399.31116461963717 1080.3932584269664,407.79534279180564 1082.1067415730336,407.06149144577256 1083.8202247191011,432.4588000369102 1085.5337078651687,418.569825401469 1087.247191011236,415.767232917326 1088.9606741573034,422.6855533430378 1090.6741573033707,421.25922486897605 1092.387640449438,416.75540607527097 1094.1011235955057,391.2128097111093 1095.814606741573,389.95334267535577 1097.5280898876404,389.13886885386097 1099.241573033708,383.2007676130697 1100.9550561797753,382.9514466240304 1102.6685393258426,330.46653453667545 1104.3820224719102,318.8276989588351 1106.0955056179773,313.0602960654205 1107.808988764045,312.4655053162288 1109.5224719101125,302.97365619180493 1111.2359550561798,307.75025486825507 1112.9494382022472,295.9213242732186 1114.6629213483145,314.01254967453457 1116.376404494382,305.0919157559627 1118.0898876404494,326.79105610697593 1119.8033707865168,312.5174623069772 1121.5168539325844,288.434609617361 1123.2303370786517,311.39169082218547 1124.943820224719,314.4483661699769 1126.6573033707866,324.1261769469394 1128.370786516854,320.06323587770777 1130.0842696629213,316.9619428877505 1131.7977528089887,308.4828979571002 1133.5112359550562,302.433749093461 1135.2247191011236,307.508730585566 1136.938202247191,298.99070922686155 1138.6516853932585,259.20154495537975 1140.3651685393259,251.27662015336415 1142.0786516853934,218.9894550106539 1143.7921348314605,202.84653576847438 1145.5056179775281,208.99749840514818 1147.2191011235955,202.90915477447408 1148.9325842696628,199.6563387424997 1150.6460674157304,227.877468799616 1152.3595505617977,209.57921895454558 1154.0730337078653,193.0508089383568 1155.7865168539327,168.45801873288383 1157.5,130.32200968425218 1159.2134831460673,160.78904933896217 1160.9269662921347,189.95319447761096 1162.6404494382023,138.05893594096176 1164.3539325842696,176.88420163225703 1166.0674157303372,164.6350825212345 1167.7808988764045,179.55405005328043 1169.4943820224719,169.4870094897177 1171.2078651685395,182.327660508961 1172.9213483146066,177.76705930305604 1174.6348314606741,146.58026757944253 1176.3483146067415,158.3992544976296 1178.061797752809,151.4443056763215 1179.7752808988764,162.8202536701126 1181.4887640449438,182.6071480200975 1183.2022471910113,197.21455346266168 1184.9157303370787,181.5522821763068 1186.629213483146,144.67596695039742 1188.3426966292134,130.4635693086201 1190.056179775281,153.85837224173497 1191.7696629213483,179.16310707918376 1193.4831460674156,197.15689297818005 1195.1966292134832,209.8729568162326 1196.9101123595506,208.39658183412553 1198.623595505618,199.4655579820522 1200.3370786516855,182.88712358843327 1202.0505617977528,212.55743156646508 1203.7640449438202,202.20659494974478 1205.4775280898875,243.39302098860423 1207.191011235955,247.9726749506038 1208.9044943820224,245.5656635736193 1210.6179775280898,280.79112336137 1212.3314606741574,290.4789565230685 1214.0449438202247,313.4837251394079 1215.758426966292,314.6632538656393 1217.4719101123596,293.748140235023 1219.185393258427,295.15202016001433 1220.8988764044943,293.7733772850317 1222.6123595505617,296.2789684179139 1224.3258426966293,287.3536339484046 1226.0393258426966,276.5679156225994 1227.752808988764,296.3395796155658 1229.4662921348315,314.57417345018234 1231.1797752808989,301.24211778807796 1232.8932584269664,303.9796683134066 1234.6067415730336,306.58801273740005 1236.3202247191011,306.43128760285214 1238.0337078651685,298.84896457790114 1239.747191011236,284.1029110000053 1241.4606741573034,283.1512747930266 1243.1741573033707,290.2148970862991 1244.8876404494383,264.69332908882893 1246.6011235955057,266.2043118265795 1248.314606741573,279.0255610716701 1250.0280898876404,300.22054662312206 1251.741573033708,314.70530950453184 1253.4550561797753,297.23813696786954 1255.1685393258426,354.16763352052766 1256.8820224719102,374.256301808075 1258.5955056179776,395.7560967845663 1260.308988764045,393.95704045006175 1262.0224719101125,412.3590775190509 1263.7359550561798,405.63323195113605 1265.4494382022472,411.3303943964431 1267.1629213483145,406.87813638988507 1268.876404494382,423.2099604640638 1270.5898876404494,414.17460634233146 1272.3033707865168,401.1962843411279 1274.0168539325844,393.69789434538893 1275.7303370786517,413.55999966621687 1277.443820224719,396.4935426712148 1279.1573033707866,391.1903725032315 1280.870786516854,369.7530925949654 1282.5842696629213,389.2248954018283 1284.2977528089887,388.00855397609183 1286.0112359550562,399.0554816287404 1287.7247191011236,410.437293503936 1289.438202247191,394.6061657111124 1291.1516853932585,401.70579308573315 1292.8651685393259,379.33132214965343 1294.5786516853934,376.5142734494643 1296.2921348314605,364.65161318843514 1298.0056179775281,364.6227323085149 1299.7191011235955,373.4210174862761 1301.4325842696628,356.23971680641284 1303.1460674157304,361.2754035931378 1304.8595505617977,366.25456214974724 1306.5730337078653,361.7453610117195 1308.2865168539327,354.7150392571286 1310.0,358.3311434871366" fill="none" stroke="#0f766e" stroke-width="2.5"><title>budgeted_static_50_50_rebalance | end=2026-05-07 | return=615.34%</title></polyline>
<polyline points="90.0,709.3086362063015 91.71348314606742,709.321158785616 93.42696629213484,709.2443132872703 95.14044943820225,709.2199241406231 96.85393258426966,709.2564732932937 98.56741573033707,709.3835204092244 100.28089887640449,709.2462094921445 101.99438202247191,708.5905145037746 103.70786516853933,707.6882324532899 105.42134831460675,706.8437166918409 107.13483146067415,706.0591963799131 108.84831460674157,705.3430630767517 110.56179775280899,704.8950846489341 112.2752808988764,705.0335718505667 113.98876404494382,705.1562399675256 115.70224719101124,704.1185098064497 117.41573033707866,704.2749471361368 119.12921348314606,705.1594351741309 120.84269662921348,704.6592801622887 122.5561797752809,705.3532424210243 124.26966292134831,704.261001708114 125.98314606741573,704.2025494603525 127.69662921348313,706.8776511854636 129.41011235955057,706.8515568794521 131.12359550561797,705.7360559496361 132.8370786516854,705.4439594262012 134.5505617977528,704.8977318330147 136.26404494382024,705.4801132516695 137.97752808988764,707.6347327522082 139.69101123595505,706.0153247822751 141.40449438202248,705.6882528613409 143.11797752808988,706.5222331513854 144.8314606741573,705.9377251238423 146.54494382022472,705.8882309671155 148.25842696629212,704.222144328527 149.97191011235955,703.9243155411725 151.68539325842696,704.5427270555367 153.3988764044944,703.7691735508597 155.1123595505618,700.1299879190411 156.8258426966292,700.8442387813145 158.53932584269663,700.5996277768994 160.25280898876406,699.6101181749603 161.96629213483146,698.6610389837447 163.67977528089887,695.6611114001184 165.39325842696627,694.0420659902223 167.10674157303373,691.0097683544965 168.82022471910113,691.4113569110776 170.53370786516854,689.2502428433233 172.24719101123594,683.3690664626436 173.96067415730337,682.5416976472677 175.6741573033708,685.5252599023443 177.3876404494382,681.5716658387564 179.1011235955056,682.6997547704976 180.81460674157302,680.7843551626536 182.52808988764048,683.6214270424055 184.24157303370785,680.8576401036031 185.95505617977528,675.6487273716035 187.6685393258427,671.3853790747409 189.38202247191012,672.4796716997556 191.09550561797752,671.834895695234 192.80898876404495,664.0434720978084 194.52247191011236,661.2712295994935 196.23595505617976,645.1187949907876 197.94943820224717,630.1589371977119 199.6629213483146,623.1516446986255 201.37640449438203,640.2109579833943 203.08988764044943,631.9187912734826 204.80337078651684,628.1862724471554 206.51685393258427,640.7773051597192 208.2303370786517,627.4531317219502 209.9438202247191,635.8746211261268 211.6573033707865,625.3686999295631 213.3707865168539,618.5063219899271 215.08426966292134,607.0523825457706 216.79775280898878,595.4660118191055 218.51123595505618,592.3059735924952 220.22471910112358,590.8978439558205 221.93820224719101,585.0593478446117 223.65168539325842,578.5068346014908 225.36516853932582,597.757039152778 227.07865168539325,605.1762147182839 228.7921348314607,596.9477189551925 230.5056179775281,599.5684484344899 232.2191011235955,589.8813712906419 233.93258426966293,581.780794588301 235.64606741573033,571.4046624660986 237.35955056179776,580.0566671560296 239.07303370786516,578.6940843295258 240.78651685393257,587.1738356293916 242.5,593.2265099023462 244.21348314606743,585.0906432073098 245.92696629213484,574.2709902282381 247.64044943820227,573.2181911348132 249.35393258426967,568.9444603285638 251.06741573033707,570.3304670197382 252.78089887640448,566.2844535138396 254.4943820224719,551.1778893004924 256.20786516853934,566.6065984666202 257.92134831460675,565.7385224503341 259.63483146067415,573.7772900198878 261.3483146067416,555.1379124820112 263.061797752809,549.1466927286629 264.7752808988764,531.7790104278708 266.4887640449438,531.0671169993257 268.2022471910112,518.1394206790544 269.9157303370787,530.0146416569012 271.62921348314603,537.1847694982081 273.3426966292135,548.1094875940331 275.05617977528095,576.9451573953411 276.7696629213483,569.8810176825125 278.4831460674157,567.963855000813 280.1966292134831,580.4321447854998 281.91011235955057,569.9753835654343 283.62359550561797,574.5759463908817 285.3370786516854,580.5181970940879 287.05056179775283,579.2229708185357 288.76404494382024,568.7745534889068 290.47752808988764,577.831786377602 292.19101123595505,584.960367976984 293.90449438202245,595.3179817843045 295.6179775280899,601.3524347638709 297.3314606741573,586.0915414981187 299.0449438202247,589.6134371383466 300.7584269662922,588.5453471108203 302.4719101123595,592.2868786708547 304.185393258427,589.3179573693765 305.89887640449433,596.260821847226 307.6123595505618,601.4071978158198 309.3258426966292,608.0487801565147 311.0393258426966,590.1029716672222 312.75280898876406,580.2601055244243 314.46629213483146,570.010895051507 316.17977528089887,564.4174834270648 317.8932584269663,558.8713877493632 319.6067415730337,534.4336435769296 321.32022471910113,533.2856266643123 323.03370786516854,522.567337063933 324.74719101123594,532.4264955931458 326.4606741573034,529.401335451966 328.1741573033708,522.2524488502867 329.8876404494382,523.2947075591309 331.60112359550567,522.7377662231742 333.314606741573,520.420014928853 335.0280898876405,497.6285432076814 336.7415730337078,492.43952045558206 338.4550561797753,521.5546143866876 340.1685393258427,523.0262904234851 341.8820224719101,511.7150337508024 343.59550561797755,516.9202003990881 345.30898876404495,554.0334455671286 347.02247191011236,544.237802377424 348.73595505617976,545.909597482635 350.44943820224717,539.8292025804639 352.1629213483146,516.7673716290699 353.87640449438203,496.03726886325256 355.58988764044943,496.8491797150887 357.30337078651684,497.10578006906763 359.0168539325843,474.5603281776085 360.73033707865164,477.3018037952795 362.4438202247191,468.7724424178589 364.1573033707865,470.55553043801496 365.8707865168539,478.9223966665078 367.5842696629214,462.9347183375568 369.2977528089888,454.03597386402726 371.0112359550562,460.6270221207017 372.7247191011236,441.9105070270168 374.438202247191,448.49702349689227 376.1516853932584,449.48255182185784 377.86516853932585,465.223091239151 379.57865168539325,463.377853717986 381.29213483146066,468.4862766565301 383.0056179775281,480.9107684683437 384.7191011235955,465.6554135207287 386.4325842696629,466.37350525654443 388.14606741573033,484.29917861644265 389.85955056179773,477.5168560795612 391.57303370786514,486.9138448215705 393.2865168539326,493.6848241138906 395.0,497.06317600058554 396.7134831460674,494.20154174540414 398.42696629213486,483.66560960536265 400.1404494382022,484.80167880583116 401.85393258426967,502.2835018102053 403.5674157303371,496.94273501281293 405.28089887640454,499.94222982321486 406.9943820224719,521.3721534465903 408.70786516853934,523.6226302753296 410.42134831460675,518.4196380558686 412.13483146067415,514.8295747677122 413.8483146067416,524.0219330341733 415.56179775280896,553.4475780140085 417.2752808988764,548.4781087937511 418.9887640449438,544.7704941031893 420.7022471910113,539.5683682527454 422.4157303370786,541.7171079876896 424.12921348314603,521.702511149993 425.8426966292135,512.5026921831171 427.5561797752809,525.9047251554971 429.26966292134836,513.646364041673 430.9831460674157,534.7408215703211 432.69662921348316,547.0577664912786 434.41011235955057,543.3590972625423 436.123595505618,544.1561444603506 437.8370786516854,520.7060741867797 439.5505617977528,539.1871104821016 441.26404494382024,543.3271436369976 442.97752808988764,543.9799258962423 444.6910112359551,540.7646805153603 446.40449438202245,530.7812916742234 448.1179775280899,528.4821760759161 449.8314606741573,519.0367597405894 451.54494382022466,511.6730329643784 453.2584269662921,496.35618200263065 454.9719101123595,497.3429049864044 456.685393258427,494.4921256209019 458.3988764044944,511.97687148096173 460.11235955056185,516.0250594330724 461.8258426966292,521.406474415809 463.53932584269666,525.306763849552 465.25280898876406,521.0115909162735 466.9662921348314,530.2757486270665 468.67977528089887,526.9224675917737 470.39325842696627,531.0890730496999 472.10674157303373,538.0823273130852 473.82022471910113,531.1140796432867 475.5337078651686,552.3010723402767 477.24719101123594,573.8336296074195 478.96067415730334,589.9320311095837 480.6741573033708,587.7730453013313 482.38764044943815,586.6920932714098 484.1011235955056,585.8828633009629 485.814606741573,591.6841501643459 487.5280898876405,598.8175061242322 489.2415730337079,585.2352489029711 490.95505617977534,597.8683167221625 492.6685393258427,589.6967731689734 494.3820224719101,596.2301109885651 496.09550561797755,621.4873440717814 497.8089887640449,641.2615182747809 499.52247191011236,662.2784082720515 501.23595505617976,651.3327366405639 502.9494382022472,645.1712716014185 504.6629213483146,648.1276756296031 506.376404494382,656.0090174608206 508.08988764044943,657.7801404543268 509.80337078651684,648.7808130188714 511.5168539325843,644.375026443329 513.2303370786517,659.6162309800551 514.943820224719,645.6307535841692 516.6573033707865,623.5231991520509 518.370786516854,621.7949540011119 520.0842696629213,622.276682553747 521.7977528089887,619.2583378741455 523.5112359550562,614.2164175444043 525.2247191011236,619.4421298186802 526.938202247191,613.1780884279573 528.6516853932584,609.740048569827 530.3651685393259,604.1350864789674 532.0786516853932,600.3215551966117 533.7921348314607,608.1744412615384 535.5056179775281,627.4336325225886 537.2191011235955,621.7836422163034 538.9325842696629,633.3766487205255 540.6460674157304,631.0407626634773 542.3595505617977,629.7216908306567 544.0730337078651,630.4464953598447 545.7865168539327,629.8662966361239 547.5,615.9386879543558 549.2134831460673,630.1889976918858 550.9269662921349,638.3653036370197 552.6404494382023,642.0063575405186 554.3539325842696,644.9114546784481 556.0674157303371,648.1800330347648 557.7808988764045,644.3501701798074 559.4943820224719,645.8941983348393 561.2078651685393,640.4649006569692 562.9213483146068,644.3039903838664 564.6348314606741,647.5027067136001 566.3483146067416,646.9707118432434 568.061797752809,646.3258688953651 569.7752808988764,647.7949554579882 571.4887640449438,646.0844683938386 573.2022471910113,636.2204716585995 574.9157303370787,630.0087401341875 576.629213483146,629.4091183035904 578.3426966292135,632.3190103106087 580.056179775281,628.4534494219848 581.7696629213483,666.1993065046254 583.4831460674156,655.8515606017969 585.1966292134832,655.758435789953 586.9101123595506,658.3750542504678 588.623595505618,666.2647335773837 590.3370786516854,659.0461880049726 592.0505617977528,659.9970519935397 593.7640449438202,652.7716148661696 595.4775280898876,656.2763916983437 597.1910112359551,654.1833485384368 598.9044943820224,654.4836422754494 600.6179775280899,653.6107357873377 602.3314606741573,653.6680734999245 604.0449438202247,659.6015382346029 605.7584269662922,657.8259900851201 607.4719101123595,657.4520314738784 609.185393258427,658.3211941338209 610.8988764044943,659.1988013540839 612.6123595505618,658.2737030386152 614.3258426966293,655.9482945651017 616.0393258426967,653.1349706427366 617.7528089887641,645.8175292523077 619.4662921348314,629.2437700743235 621.1797752808989,627.9514874427492 622.8932584269663,618.9737512749131 624.6067415730337,619.8749559372444 626.3202247191011,620.9092486562117 628.0337078651686,616.6345556268236 629.7471910112359,616.8057123171186 631.4606741573033,616.6932706533174 633.1741573033707,616.7041591440044 634.8876404494382,629.2330923720848 636.6011235955057,629.1256527597276 638.314606741573,617.6350191330877 640.0280898876405,613.3470362497804 641.7415730337078,615.5036438728542 643.4550561797753,620.8243425934859 645.1685393258427,620.3139716872992 646.8820224719101,624.3328224402994 648.5955056179776,624.3733580962073 650.3089887640449,636.5934347247783 652.0224719101124,623.5711207613881 653.7359550561798,614.263294167338 655.4494382022472,601.5647304692139 657.1629213483146,595.924632010067 658.876404494382,600.7330630105336 660.5898876404494,603.4992323773859 662.3033707865168,597.0913360639203 664.0168539325842,596.5775808529318 665.7303370786517,590.8728905998222 667.4438202247192,594.45510936897 669.1573033707865,585.9876557179216 670.870786516854,574.6222321990988 672.5842696629213,578.8705193233438 674.2977528089888,588.9364126605491 676.0112359550562,594.8813894333972 677.7247191011236,592.3029019899618 679.438202247191,587.8606987783166 681.1516853932584,591.3500467819881 682.8651685393259,582.6660746715593 684.5786516853933,595.2421438824373 686.2921348314607,599.872400133398 688.0056179775281,599.790245103387 689.7191011235955,597.4345669909917 691.4325842696629,598.2894859631332 693.1460674157303,596.5032134521631 694.8595505617977,598.7648210847484 696.5730337078652,593.6652484675376 698.2865168539327,596.9407408243544 700.0,595.2209883361719 701.7134831460675,599.027855876618 703.4269662921348,603.007714929158 705.1404494382023,603.3342503636673 706.8539325842697,603.3541403593023 708.5674157303372,601.5459657834595 710.2808988764044,589.9634239693104 711.9943820224719,587.7278168134775 713.7078651685393,591.1214290680408 715.4213483146067,586.7394662220985 717.1348314606741,585.9658199752248 718.8483146067416,588.9562417077939 720.5617977528091,588.5096834105323 722.2752808988763,582.4914310690267 723.9887640449438,587.3580244109377 725.7022471910112,589.0534678787807 727.4157303370787,589.9662356084812 729.129213483146,591.25976303784 730.8426966292135,590.5765101875379 732.556179775281,591.2866506014948 734.2696629213483,592.056012499089 735.9831460674158,592.497873852592 737.6966292134832,590.782687637723 739.4101123595507,591.1852415899041 741.1235955056179,592.2773836060103 742.8370786516854,602.6596464763124 744.5505617977528,602.3490097320164 746.2640449438202,602.4965351839844 747.9775280898876,602.7135591380923 749.6910112359551,599.0271261687927 751.4044943820226,603.8174419114523 753.1179775280898,604.0664480284915 754.8314606741573,603.7737377448871 756.5449438202247,607.9794222971736 758.2584269662921,602.813246310926 759.9719101123595,602.9655231096344 761.685393258427,601.847964799955 763.3988764044944,603.8928704522538 765.1123595505618,604.6472932732822 766.8258426966293,600.6290439351956 768.5393258426967,599.6072812477793 770.252808988764,601.6392491316469 771.9662921348314,599.7782244751287 773.6797752808989,604.4364856207919 775.3932584269663,604.9145744733106 777.1067415730337,601.3002287307638 778.8202247191011,597.079385717288 780.5337078651686,583.5780960416339 782.247191011236,579.8851265238135 783.9606741573033,579.4552424051694 785.6741573033707,575.5848878457487 787.3876404494382,575.8753743670263 789.1011235955056,574.1620855326901 790.814606741573,563.453935740197 792.5280898876405,565.851030777915 794.2415730337079,569.7470236605908 795.9550561797753,565.8614963850614 797.6685393258427,563.9799591762395 799.3820224719102,562.6551176534241 801.0955056179774,563.8073360419866 802.8089887640449,561.0837511706997 804.5224719101124,550.6591818290503 806.2359550561798,544.8601374147552 807.9494382022472,544.197780487185 809.6629213483146,548.5509356284718 811.3764044943821,550.6124009753069 813.0898876404493,552.1537130026484 814.8033707865168,544.798128548 816.5168539325842,547.1542599947015 818.2303370786517,546.3797098083551 819.943820224719,548.778055658601 821.6573033707865,550.0610946397724 823.370786516854,547.4174286445099 825.0842696629213,541.1167599850501 826.7977528089888,540.7362989760168 828.5112359550562,541.5129123082774 830.2247191011237,544.4790354088165 831.9382022471909,544.4716398473355 833.6516853932584,552.8836651056697 835.3651685393259,548.8907835826911 837.0786516853933,545.5761975752068 838.7921348314607,546.2037018423218 840.5056179775281,547.2360480636842 842.2191011235956,539.9181910706963 843.9325842696628,532.9931812636275 845.6460674157303,520.2363468369502 847.3595505617977,520.257236766752 849.0730337078652,513.0090515519968 850.7865168539325,517.8010862203704 852.5,505.33666051273707 854.2134831460675,491.34768452996695 855.9269662921348,484.587348107278 857.6404494382023,471.62585536758087 859.3539325842697,465.9416372141893 861.0674157303372,460.085061048545 862.7808988764044,468.80885941627884 864.4943820224719,476.97864810830606 866.2078651685393,480.54667798941307 867.9213483146067,479.20427000063074 869.6348314606741,475.0944520556236 871.3483146067416,474.64326856076605 873.0617977528091,485.7737308876008 874.7752808988763,481.6710319862842 876.4887640449438,467.1281333327287 878.2022471910112,474.1044974751833 879.9157303370787,488.3266125210322 881.629213483146,498.5095439534035 883.3426966292135,489.2706937861215 885.056179775281,485.7589415674061 886.7696629213483,491.5977439349922 888.4831460674158,489.17395222384266 890.1966292134832,501.5997684108793 891.9101123595507,490.93773506105083 893.6235955056179,499.24219893283373 895.3370786516854,501.4168958520472 897.0505617977528,501.3151262846362 898.7640449438202,487.6989051435069 900.4775280898876,465.3211605085868 902.1910112359551,466.6263428983699 903.9044943820226,464.71384338659345 905.6179775280898,467.60770567513896 907.3314606741573,466.0528705498334 909.0449438202247,462.3556689883311 910.7584269662921,467.4727338813675 912.4719101123595,467.5191657816341 914.185393258427,476.2533825514653 915.8988764044944,472.391424408505 917.6123595505618,476.19281604019176 919.3258426966293,478.7771981957224 921.0393258426967,484.5087812644392 922.752808988764,486.94365166979264 924.4662921348314,481.9661921959146 926.1797752808989,499.4774687714969 927.8932584269663,504.4104932572695 929.6067415730337,497.4189000598269 931.3202247191011,493.3365034471476 933.0337078651686,478.1132569584995 934.747191011236,474.3047104700487 936.4606741573033,474.8850899640308 938.1741573033707,484.48505052687585 939.8876404494382,478.5322411653156 941.6011235955056,484.5694508567583 943.314606741573,499.1023161117596 945.0280898876405,517.814682244758 946.7415730337079,507.14283624241557 948.4550561797753,505.73640702484687 950.1685393258427,512.7830782606102 951.8820224719102,510.24277793103454 953.5955056179774,505.7122825225226 955.3089887640449,497.0841523917286 957.0224719101124,513.7252085428215 958.7359550561798,512.0450039267351 960.4494382022472,511.6134408152745 962.1629213483146,521.6402773211762 963.8764044943821,525.8996109367162 965.5898876404493,520.7166365363894 967.3033707865168,514.0143636408262 969.0168539325842,516.2674152654577 970.7303370786517,503.91917231627895 972.443820224719,500.58924076377815 974.1573033707865,498.35921943681586 975.870786516854,496.7488568626141 977.5842696629213,515.7257941880362 979.2977528089888,511.56594073156754 981.0112359550562,510.4448694587955 982.7247191011237,509.8774596371927 984.4382022471909,496.53805594148014 986.1516853932584,495.5478763282955 987.8651685393259,486.9713329458579 989.5786516853933,500.5136614366046 991.2921348314607,501.8013980549093 993.0056179775281,485.97984996986764 994.7191011235956,496.79191398935086 996.4325842696628,504.6204485650934 998.1460674157303,468.46970017521954 999.8595505617977,447.70955159594166 1001.5730337078652,432.46428011484335 1003.2865168539325,434.9948663040567 1005.0,433.49006448248406 1006.7134831460675,413.50673939800197 1008.4269662921348,417.9464962327253 1010.1404494382023,406.3867340302037 1011.8539325842697,398.21595659277614 1013.5674157303372,390.3803653227646 1015.2808988764044,382.1266598469892 1016.9943820224719,401.6015294370725 1018.7078651685393,384.65808429234954 1020.4213483146067,376.20812819490527 1022.1348314606741,408.34929929677946 1023.8483146067416,416.2337486664912 1025.561797752809,402.9655887125137 1027.2752808988762,411.3155023368003 1028.9887640449438,415.9100192513872 1030.7022471910113,399.73007702698993 1032.4157303370787,392.087966281945 1034.129213483146,420.3626988008486 1035.8426966292136,416.4483868708238 1037.556179775281,402.84586087631186 1039.2696629213483,404.25436037443603 1040.9831460674159,401.4700084290954 1042.6966292134832,403.58687805929713 1044.4101123595506,411.641727183096 1046.123595505618,406.13683970307096 1047.8370786516853,428.9118123820918 1049.5505617977528,433.3129876769435 1051.2640449438202,439.84586533922425 1052.9775280898875,441.8845602422365 1054.691011235955,434.7379142543451 1056.4044943820227,435.8662184521015 1058.1179775280898,433.274873597452 1059.8314606741574,432.0084737646632 1061.5449438202247,467.0819436256702 1063.258426966292,470.1692381641957 1064.9719101123596,470.87415848373814 1066.685393258427,472.8253284247004 1068.3988764044943,495.10784930336365 1070.112359550562,492.26919903090106 1071.8258426966293,489.4540347307754 1073.5393258426966,475.9748316934266 1075.252808988764,483.3365011196425 1076.9662921348313,474.7545915560187 1078.6797752808989,487.3130385464042 1080.3932584269664,493.45554961226856 1082.1067415730336,493.0502127946437 1083.8202247191011,512.00207429074 1085.5337078651687,501.986592884266 1087.247191011236,500.49068588921784 1088.9606741573034,505.73236444971803 1090.6741573033707,504.7922898655061 1092.387640449438,501.92266382564424 1094.1011235955057,482.0457570672528 1095.814606741573,480.8799727267018 1097.5280898876404,480.295838780266 1099.241573033708,475.6027027563569 1100.9550561797753,475.70001602429795 1102.6685393258426,430.7094723296969 1104.3820224719102,419.959044002489 1106.0955056179773,414.9472076832203 1107.808988764045,415.67160099633315 1109.5224719101125,408.0186817612101 1111.2359550561798,411.7398251985147 1112.9494382022472,400.3870074806071 1114.6629213483145,415.92252284040455 1116.376404494382,407.8920861145583 1118.0898876404494,427.62333502433273 1119.8033707865168,415.50653232587575 1121.5168539325844,391.92441221968653 1123.2303370786517,414.22026875545464 1124.943820224719,416.8605132089848 1126.6573033707866,426.3384160880664 1128.370786516854,423.51107768424316 1130.0842696629213,421.3448782921058 1131.7977528089887,413.15312671222057 1133.5112359550562,406.92755121287354 1135.2247191011236,411.9998001643696 1136.938202247191,403.2022856497388 1138.6516853932585,365.9432423309772 1140.3651685393259,358.9162281473015 1142.0786516853934,322.56820788283073 1143.7921348314605,303.41671798530757 1145.5056179775281,310.95057450948264 1147.2191011235955,304.2905222601541 1148.9325842696628,301.15126102840304 1150.6460674157304,324.40343062636975 1152.3595505617977,309.1041310648678 1154.0730337078653,296.1264925117147 1155.7865168539327,276.49738158204104 1157.5,247.40710851194888 1159.2134831460673,269.08137445273576 1160.9269662921347,289.8545767838002 1162.6404494382023,251.98366250576163 1164.3539325842696,278.43775148674905 1166.0674157303372,270.32718089650245 1167.7808988764045,279.64846189554567 1169.4943820224719,273.6102100456235 1171.2078651685395,282.0305091741734 1172.9213483146066,279.2824517389359 1174.6348314606741,259.45418228408715 1176.3483146067415,267.12825421922844 1178.061797752809,262.97797515759265 1179.7752808988764,269.9585941184617 1181.4887640449438,282.33469594237204 1183.2022471910113,290.89395580669117 1184.9157303370787,281.8232488252734 1186.629213483146,260.0281949660811 1188.3426966292134,251.45993990265202 1190.056179775281,265.7387652468522 1191.7696629213483,280.30145994061854 1193.4831460674156,290.73435593528694 1195.1966292134832,297.9709670491506 1196.9101123595506,297.30861883182365 1198.623595505618,292.2577596273291 1200.3370786516855,282.41227960513567 1202.0505617977528,299.91191170383007 1203.7640449438202,293.85342227795127 1205.4775280898875,318.44181689074765 1207.191011235955,321.0149958323786 1208.9044943820224,319.632902362555 1210.6179775280898,340.3641681393713 1212.3314606741574,346.07850207329943 1214.0449438202247,359.73543247555153 1215.758426966292,360.54805747760145 1217.4719101123596,347.73777497009377 1219.185393258427,348.72319438803873 1220.8988764044943,347.9186589904682 1222.6123595505617,349.18591714312277 1224.3258426966293,343.5865645313386 1226.0393258426966,336.85047814969255 1227.752808988764,349.08421238537994 1229.4662921348315,360.83314967434353 1231.1797752808989,352.3528411385591 1232.8932584269664,354.0140051308773 1234.6067415730336,355.73719001530316 1236.3202247191011,355.5990051414129 1238.0337078651685,350.7603887180559 1239.747191011236,341.1986620079206 1241.4606741573034,340.50317687646896 1243.1741573033707,345.2506023911478 1244.8876404494383,328.3045094274077 1246.6011235955057,329.40099447018804 1248.314606741573,337.98996347117236 1250.0280898876404,352.6617757344444 1251.741573033708,362.5610551999659 1253.4550561797753,350.4173870076939 1255.1685393258426,389.89173354038337 1256.8820224719102,403.9928196102747 1258.5955056179776,418.8457851233995 1260.308988764045,417.45594025128963 1262.0224719101125,430.4191408427369 1263.7359550561798,425.8487640716257 1265.4494382022472,429.73015569513916 1267.1629213483145,426.62748359604234 1268.876404494382,438.3767374409462 1270.5898876404494,431.77634561428584 1272.3033707865168,422.30065817497865 1274.0168539325844,416.83849731046 1275.7303370786517,431.4854013096504 1277.443820224719,418.82507569137476 1279.1573033707866,414.8319908574165 1280.870786516854,398.46407801325336 1282.5842696629213,413.4096928900482 1284.2977528089887,412.48662729605684 1286.0112359550562,421.1188557981908 1287.7247191011236,429.9913958206768 1289.438202247191,417.369011348248 1291.1516853932585,423.1110186775217 1292.8651685393259,405.13692675609394 1294.5786516853934,402.9265978183036 1296.2921348314605,393.0087088163384 1298.0056179775281,393.11129506536753 1299.7191011235955,400.60510935658306 1301.4325842696628,386.1483071274061 1303.1460674157304,390.5703836368931 1304.8595505617977,394.8361517181435 1306.5730337078653,391.06333826226125 1308.2865168539327,384.891011973314 1310.0,388.2548156518661" fill="none" stroke="#9333ea" stroke-width="2.5"><title>budgeted_drawdown_tilt_rebalance | end=2026-05-07 | return=562.88%</title></polyline>
<polyline points="90.0,709.3086362063015 91.71348314606742,709.321158785616 93.42696629213484,709.2443132872703 95.14044943820225,709.2199241406231 96.85393258426966,709.2564732932937 98.56741573033707,709.3835204092244 100.28089887640449,709.2462094921445 101.99438202247191,708.5924101054287 103.70786516853933,707.6044988136204 105.42134831460675,706.5840539933539 107.13483146067415,705.584172790338 108.84831460674157,704.6319853717516 110.56179775280899,703.9782845902928 112.2752808988764,704.186598085114 113.98876404494382,704.3832683827031 115.70224719101124,702.6968388372361 117.41573033707866,702.948645704408 119.12921348314606,704.5181458755161 120.84269662921348,703.5959476531084 122.5561797752809,704.9377967164894 124.26966292134831,702.7829044568878 125.98314606741573,702.7156647682235 127.69662921348313,708.3891321240168 129.41011235955057,708.3457561858529 131.12359550561797,706.3232214222504 132.8370786516854,705.7782743519651 134.5505617977528,704.8050467558633 136.26404494382024,705.7989449053197 137.97752808988764,709.448954012037 139.69101123595505,706.8273041682778 141.40449438202248,706.323058684127 143.11797752808988,707.589202063827 144.8314606741573,706.7357561687053 146.54494382022472,706.6502556284087 148.25842696629212,704.4149126062526 149.97191011235955,704.0224343550711 151.68539325842696,704.8221633934678 153.3988764044944,703.7410515263888 155.1123595505618,698.9819662763517 156.8258426966292,699.8493218152289 158.53932584269663,699.4138551968545 160.25280898876406,698.0972790504476 161.96629213483146,696.8211307449839 163.67977528089887,693.119659560531 165.39325842696627,691.0474030388656 167.10674157303373,686.9994080644149 168.82022471910113,687.2163602994324 170.53370786516854,684.0472977439067 172.24719101123594,676.849089624096 173.96067415730337,675.6884601201874 175.6741573033708,679.8755929177365 177.3876404494382,674.4283241151752 179.1011235955056,675.8633601557704 180.81460674157302,673.1548220057775 182.52808988764048,677.3117106015989 184.24157303370785,673.241712616618 185.95505617977528,665.1010159837092 187.6685393258427,657.8226366945272 189.38202247191012,659.1929205769866 191.09550561797752,657.6569739073643 192.80898876404495,646.0033134294235 194.52247191011236,640.8716531773632 196.23595505617976,617.0041055779593 197.94943820224717,594.6687829050755 199.6629213483146,582.6443420317449 201.37640449438203,610.4327120958355 203.08988764044943,597.3300003510844 204.80337078651684,592.4555181150398 206.51685393258427,614.3283189141529 208.2303370786517,594.243360593241 209.9438202247191,607.8103218574855 211.6573033707865,590.2415004262348 213.3707865168539,579.1184892579959 215.08426966292134,559.838452031812 216.79775280898878,539.2555812339617 218.51123595505618,533.6494453527085 220.22471910112358,531.1191362679506 221.93820224719101,520.4140552945685 223.65168539325842,508.28602506790855 225.36516853932582,543.7655666674655 227.07865168539325,557.341428307795 228.7921348314607,542.3570128113083 230.5056179775281,547.112105864401 232.2191011235955,529.7516296030511 233.93258426966293,514.8550331111644 235.64606741573033,495.64874613384177 237.35955056179776,511.8382492524763 239.07303370786516,509.24363928758453 240.78651685393257,525.3451273445716 242.5,536.9085801015456 244.21348314606743,521.3726852941944 245.92696629213484,500.7066917018079 247.64044943820227,498.91257804929296 249.35393258426967,490.7336109181436 251.06741573033707,493.392327794878 252.78089887640448,485.4688470551464 254.4943820224719,455.95999480981493 256.20786516853934,486.60464224740247 257.92134831460675,485.13414820340336 259.63483146067415,501.07462710504876 261.3483146067416,464.12277666400547 263.061797752809,452.06346273791416 264.7752808988764,415.7402582967572 266.4887640449438,414.1069208852073 268.2022471910112,386.0919347774253 269.9157303370787,410.8528705189247 271.62921348314603,426.4068453572847 273.3426966292135,449.9407551616748 275.05617977528095,513.5358178623544 276.7696629213483,498.22703988297195 278.4831460674157,493.84556154918994 280.1966292134831,520.2974446229979 281.91011235955057,498.1678239903349 283.62359550561797,507.40261436062326 285.3370786516854,519.4106497964115 287.05056179775283,517.7398897518167 288.76404494382024,496.80233878152274 290.47752808988764,514.8803434737082 292.19101123595505,528.916504078029 293.90449438202245,549.316445832258 295.6179775280899,560.9801259526233 297.3314606741573,532.1112147901009 299.0449438202247,538.7212757601601 300.7584269662922,536.7624411339706 302.4719101123595,543.6021402193101 304.185393258427,538.2204487219765 305.89887640449433,550.5351547701139 307.6123595505618,559.4982604924217 309.3258426966292,570.8418151657139 311.0393258426966,540.8461338342922 312.75280898876406,524.5760279756074 314.46629213483146,507.8788801746219 316.17977528089887,498.92239789016355 317.8932584269663,490.0303373955481 319.6067415730337,451.45773477374524 321.32022471910113,449.7943894357342 323.03370786516854,433.17648030601634 324.74719101123594,448.64391467235413 326.4606741573034,444.03538955386176 328.1741573033708,433.4798634839576 329.8876404494382,435.0645085649923 331.60112359550567,434.12340968574034 333.314606741573,429.4815001414838 335.0280898876405,392.8677728446084 336.7415730337078,385.6180219980495 338.4550561797753,431.86758601008034 340.1685393258427,434.1390886114672 341.8820224719101,416.23495011050017 343.59550561797755,425.61150249356683 345.30898876404495,484.84294168221436 347.02247191011236,469.5073579929644 348.73595505617976,471.79280212889324 350.44943820224717,462.79549337013293 352.1629213483146,426.741892431043 353.87640449438203,397.27314551517696 355.58988764044943,398.37115318727683 357.30337078651684,399.9621891413284 359.0168539325843,363.1038894454851 360.73033707865164,368.61667224169565 362.4438202247191,352.0964727609548 364.1573033707865,354.46964287722267 365.8707865168539,369.4186478575798 367.5842696629214,339.6477985306004 369.2977528089888,322.6100862105523 371.0112359550562,334.71179135555514 372.7247191011236,299.8305907987344 374.438202247191,312.0924344721362 376.1516853932584,314.4197817883869 377.86516853932585,345.08879511972333 379.57865168539325,341.0294237158363 381.29213483146066,350.9379920013098 383.0056179775281,375.6800770919834 384.7191011235955,345.2147622189422 386.4325842696629,346.29699033719163 388.14606741573033,381.5295431528807 389.85955056179773,367.68138553329675 391.57303370786514,386.9376727991877 393.2865168539326,400.65164030440064 395.0,406.6002921875018 396.7134831460674,401.03300266878415 398.42696629213486,381.3454003904411 400.1404494382022,383.70175603505095 401.85393258426967,417.5739722322616 403.5674157303371,407.2525151150956 405.28089887640454,412.11905517557943 406.9943820224719,453.64629402543005 408.70786516853934,458.49195732195466 410.42134831460675,448.37861611547476 412.13483146067415,441.4582699845452 413.8483146067416,458.9854605545038 415.56179775280896,513.460176078429 417.2752808988764,504.83838724099826 418.9887640449438,498.14055588032613 420.7022471910113,488.7064972393449 422.4157303370786,492.10789402110396 424.12921348314603,457.79827215979776 425.8426966292135,442.0420058139985 427.5561797752809,465.12581548130544 429.26966292134836,444.42796106158204 430.9831460674157,479.3896788114308 432.69662921348316,499.429101893678 434.41011235955057,493.6940499006241 436.123595505618,494.75430631741773 437.8370786516854,458.2579067883952 439.5505617977528,486.88858022858165 441.26404494382024,493.3876395635761 442.97752808988764,494.43766168640536 444.6910112359551,489.69271000896333 446.40449438202245,474.52573023190695 448.1179775280899,471.08337550896215 449.8314606741573,457.15890699979207 451.54494382022466,446.53053446790983 453.2584269662921,424.46867091517015 454.9719101123595,425.58775232237383 456.685393258427,421.4582770913061 458.3988764044944,446.27732355207934 460.11235955056185,451.7336731701494 461.8258426966292,459.26928887222766 463.53932584269666,464.6970017232821 465.25280898876406,458.8927947175387 466.9662921348314,471.7586438590872 468.67977528089887,467.14587667010744 470.39325842696627,472.99418317530825 472.10674157303373,482.72522625627704 473.82022471910113,473.03989977035917 475.5337078651686,502.19522733605527 477.24719101123594,531.6394492181869 478.96067415730334,554.140765508455 480.6741573033708,551.3463292393692 482.38764044943815,550.0289448363474 484.1011235955056,548.9230271512868 485.814606741573,556.4159407553202 487.5280898876405,565.5147319645183 489.2415730337079,548.7372012403324 490.95505617977534,564.1206479510946 492.6685393258427,554.2874349706286 494.3820224719101,562.0365592051762 496.09550561797755,591.4073036530972 497.8089887640449,614.5801540937568 499.52247191011236,638.7467604560923 501.23595505617976,626.3774199012651 502.9494382022472,619.685402642278 504.6629213483146,623.0048540528146 506.376404494382,631.4788012348118 508.08988764044943,633.6819461374711 509.80337078651684,623.8995743743723 511.5168539325843,618.849944008315 513.2303370786517,635.3940895298944 514.943820224719,620.6942292249148 516.6573033707865,598.0163434091428 518.370786516854,595.8445151652718 520.0842696629213,596.6821296884822 521.7977528089887,593.4931133831068 523.5112359550562,588.1283726398076 525.2247191011236,593.657728181018 526.938202247191,587.3295829035231 528.6516853932584,583.6389130930821 530.3651685393259,578.0799095031774 532.0786516853932,574.0841462315457 533.7921348314607,582.5006016457354 535.5056179775281,603.0279915941255 537.2191011235955,597.2082881666224 538.9325842696629,609.5348834049282 540.6460674157304,607.2191196455013 542.3595505617977,606.0527545019793 544.0730337078651,606.8615618568269 545.7865168539327,606.8556338111639 547.5,591.4078153813693 549.2134831460673,606.4763491914748 550.9269662921349,614.7490971329041 552.6404494382023,618.5073214019551 554.3539325842696,621.4516772235165 556.0674157303371,625.1079461485776 557.7808988764045,620.8954588995771 559.4943820224719,622.4783547464459 561.2078651685393,616.3692316218653 562.9213483146068,620.7551006132176 564.6348314606741,624.1916287481636 566.3483146067416,623.4788802739622 568.061797752809,622.9396132616496 569.7752808988764,624.4836155666753 571.4887640449438,622.7476488468952 573.2022471910113,612.4315082856413 574.9157303370787,605.9671542339859 576.629213483146,605.467098221297 578.3426966292135,608.5295071918368 580.056179775281,604.2043373107141 581.7696629213483,644.9884182716195 583.4831460674156,634.1890629602241 585.1966292134832,634.0236758894235 586.9101123595506,636.7323896333169 588.623595505618,645.1560965642028 590.3370786516854,637.4605155109944 592.0505617977528,638.5204800743419 593.7640449438202,630.8812064629418 595.4775280898876,634.5207420034276 597.1910112359551,632.3204224862441 598.9044943820224,632.5807246123917 600.6179775280899,631.6650926440929 602.3314606741573,631.6058009371944 604.0449438202247,637.88146818348 605.7584269662922,636.0816374603642 607.4719101123595,635.7084145191504 609.185393258427,636.665544545671 610.8988764044943,637.5995955358677 612.6123595505618,636.6442365094445 614.3258426966293,634.2500877378205 616.0393258426967,631.2689668705532 617.7528089887641,623.4834853124617 619.4662921348314,604.937831994878 621.1797752808989,603.5355931811678 622.8932584269663,593.5672853863814 624.6067415730337,594.2493668453367 626.3202247191011,595.1875832905895 628.0337078651686,590.4371609113696 629.7471910112359,590.6119169020199 631.4606741573033,590.822872208069 633.1741573033707,590.8998218330674 634.8876404494382,604.398114495069 636.6011235955057,604.1671093855589 638.314606741573,591.594298836774 640.0280898876405,586.8074111240965 641.7415730337078,588.9881105447462 643.4550561797753,594.9871757902938 645.1685393258427,594.5004964411918 646.8820224719101,599.0420816792655 648.5955056179776,599.0405728779971 650.3089887640449,612.5743092219618 652.0224719101124,598.4083911534284 653.7359550561798,587.6259841970422 655.4494382022472,573.184317232909 657.1629213483146,566.7142718515089 658.876404494382,571.9719299506042 660.5898876404494,574.9439655175622 662.3033707865168,567.9880961656083 664.0168539325842,567.3663708024739 665.7303370786517,561.8100121467023 667.4438202247192,565.4760879400966 669.1573033707865,555.4268239814494 670.870786516854,544.1272495332294 672.5842696629213,549.0942663613748 674.2977528089888,559.8630650761339 676.0112359550562,566.1802135135187 677.7247191011236,563.0079163320557 679.438202247191,558.0247685549848 681.1516853932584,561.8746505706482 682.8651685393259,552.729516140208 684.5786516853933,566.4518248948643 686.2921348314607,571.605147403021 688.0056179775281,571.5680494563726 689.7191011235955,568.7771267589474 691.4325842696629,569.935396487635 693.1460674157303,567.9118479376845 694.8595505617977,570.9494485621949 696.5730337078652,564.2438111752807 698.2865168539327,568.9881334545763 700.0,566.6713356296302 701.7134831460675,572.075002293398 703.4269662921348,577.4158762344074 705.1404494382023,577.7183462498491 706.8539325842697,577.2834654592347 708.5674157303372,574.5062375677712 710.2808988764044,557.0165123351069 711.9943820224719,553.578598570507 713.7078651685393,558.3368588494177 715.4213483146067,552.1322091596977 717.1348314606741,550.9207469454714 718.8483146067416,555.3631334656453 720.5617977528091,554.6900044097357 722.2752808988763,545.4238257181778 723.9887640449438,553.384917286915 725.7022471910112,556.0614426072098 727.4157303370787,557.4377476183503 729.129213483146,559.8748556214728 730.8426966292135,558.8445407584576 732.556179775281,559.903249104043 734.2696629213483,561.0014775365429 735.9831460674158,561.7649758156247 737.6966292134832,558.7993461523814 739.4101123595507,559.5261724062983 741.1235955056179,561.2989431337242 742.8370786516854,579.1813564159834 744.5505617977528,578.6737688743293 746.2640449438202,578.8122919325755 747.9775280898876,579.186674672181 749.6910112359551,572.8946925877344 751.4044943820226,580.821882044629 753.1179775280898,581.243076971225 754.8314606741573,580.7196666217963 756.5449438202247,586.8365681556272 758.2584269662921,578.8263604140643 759.9719101123595,579.0083297198812 761.685393258427,576.9041361444738 763.3988764044944,580.0028887294574 765.1123595505618,581.3683585616312 766.8258426966293,575.869334864428 768.5393258426967,573.9131847544008 770.252808988764,576.2967679796905 771.9662921348314,573.5361256520432 773.6797752808989,580.0691660910927 775.3932584269663,580.5993958933907 777.1067415730337,574.5963963090894 778.8202247191011,568.3971867791959 780.5337078651686,549.5318360217516 782.247191011236,544.1577025801109 783.9606741573033,543.129820372381 785.6741573033707,537.7231223392623 787.3876404494382,538.5759348631119 789.1011235955056,536.212742049595 790.814606741573,521.4638585302143 792.5280898876405,525.4640082492458 794.2415730337079,530.3703979143718 795.9550561797753,523.9929390332185 797.6685393258427,521.7576319252875 799.3820224719102,519.6095457357742 801.0955056179774,520.9191910496525 802.8089887640449,516.3249942743355 804.5224719101124,498.7026904664881 806.2359550561798,489.6562937281958 807.9494382022472,488.0720738018297 809.6629213483146,494.87114715016014 811.3764044943821,498.4302236224004 813.0898876404493,500.3673373497725 814.8033707865168,488.35567933415996 816.5168539325842,492.02432358132637 818.2303370786517,492.4024219040401 819.943820224719,495.9915475008846 821.6573033707865,496.9407257484961 823.370786516854,491.88379949992157 825.0842696629213,480.5466208018822 826.7977528089888,484.3244873265664 828.5112359550562,485.75413924100167 830.2247191011237,491.35619850889896 831.9382022471909,491.0881177776903 833.6516853932584,505.28514856999834 835.3651685393259,497.37868263270474 837.0786516853933,491.5583930523979 838.7921348314607,492.37244175824713 840.5056179775281,494.3966689167085 842.2191011235956,480.85063645818616 843.9325842696628,467.54905224981667 845.6460674157303,444.76240285054104 847.3595505617977,444.9716181878931 849.0730337078652,433.29882390567167 850.7865168539325,442.10647855272873 852.5,419.2957026782727 854.2134831460675,391.82673924724435 855.9269662921348,379.36494957367415 857.6404494382023,355.8014268474185 859.3539325842697,344.73719854691336 861.0674157303372,332.95667506986484 862.7808988764044,349.3594510965067 864.4943820224719,364.87123982015663 866.2078651685393,372.3206661350162 867.9213483146067,368.9586804439569 869.6348314606741,360.44965595292496 871.3483146067416,359.54001736103686 873.0617977528091,381.7461086348635 874.7752808988763,372.91949625915095 876.4887640449438,345.4132204343712 878.2022471910112,358.4440198986102 879.9157303370787,385.87453901849926 881.629213483146,406.6867231920219 883.3426966292135,388.30066933732627 885.056179775281,381.3088884066418 886.7696629213483,393.11820537877594 888.4831460674158,389.1436476490583 890.1966292134832,413.2749524157608 891.9101123595507,391.8931689695236 893.6235955056179,407.53319248865364 895.3370786516854,411.22218574373727 897.0505617977528,410.3816484242664 898.7640449438202,384.65278566620947 900.4775280898876,347.0672170097605 902.1910112359551,352.4762829432998 903.9044943820226,349.04411968787485 905.6179775280898,354.3721601623459 907.3314606741573,351.77658282391815 909.0449438202247,343.47545693358705 910.7584269662921,352.7270287564457 912.4719101123595,352.64350467585774 914.185393258427,369.1270627439017 915.8988764044944,363.020987761368 917.6123595505618,370.6282881896934 919.3258426966293,375.44430819149574 921.0393258426967,386.79030399789195 922.752808988764,391.9188509717155 924.4662921348314,381.8196283167879 926.1797752808989,415.1533923818137 927.8932584269663,424.1880360050481 929.6067415730337,411.40460068641966 931.3202247191011,403.6922770903208 933.0337078651686,374.80705532866284 934.747191011236,367.49845498531676 936.4606741573033,367.9556379647039 938.1741573033707,385.0256029427348 939.8876404494382,373.6622255901984 941.6011235955056,385.9040860037118 943.314606741573,412.2719470887171 945.0280898876405,445.59423209586714 946.7415730337079,425.42277123290796 948.4550561797753,424.1912035692721 950.1685393258427,436.36539254985615 951.8820224719102,431.86265401442023 953.5955056179774,423.13532101976784 955.3089887640449,408.14808366513023 957.0224719101124,435.9710611058844 958.7359550561798,433.85371710872204 960.4494382022472,433.22772508552276 962.1629213483146,449.5771973372248 963.8764044943821,456.4613723295864 965.5898876404493,447.3518424157646 967.3033707865168,436.1294075239173 969.0168539325842,438.71266325904236 970.7303370786517,420.34444612873006 972.443820224719,416.13025813758975 974.1573033707865,411.45226807328976 975.870786516854,409.0729398071596 977.5842696629213,436.8737946862726 979.2977528089888,430.4482300393904 981.0112359550562,429.10443842299316 982.7247191011237,427.98832644166225 984.4382022471909,409.05466149299707 986.1516853932584,406.2777991111626 987.8651685393259,395.07427297574765 989.5786516853933,412.4345088466277 991.2921348314607,413.22393083754343 993.0056179775281,389.23481790522436 994.7191011235956,404.71854562944924 996.4325842696628,414.94555990082534 998.1460674157303,367.28096419500525 999.8595505617977,340.29840669108734 1001.5730337078652,310.9015478522965 1003.2865168539325,313.25693679381953 1005.0,309.1451065627434 1006.7134831460675,279.2847649239402 1008.4269662921348,292.6348032338649 1010.1404494382023,276.8148167858027 1011.8539325842697,265.8141978103202 1013.5674157303372,255.13088475212055 1015.2808988764044,244.25653082637757 1016.9943820224719,271.08824886131697 1018.7078651685393,244.48247531471725 1020.4213483146067,227.508751383466 1022.1348314606741,278.7330046140006 1023.8483146067416,291.51944211499824 1025.561797752809,269.3744698415396 1027.2752808988762,285.7347361875803 1028.9887640449438,293.928138897049 1030.7022471910113,267.25491895800513 1032.4157303370787,251.81771601138718 1034.129213483146,301.1725886049672 1035.8426966292136,293.46320932314586 1037.556179775281,267.8602887201001 1039.2696629213483,264.09257703402767 1040.9831460674159,258.15584452794354 1042.6966292134832,262.66875843356166 1044.4101123595506,276.7207123067466 1046.123595505618,266.01713379095156 1047.8370786516853,304.555294636169 1049.5505617977528,311.5146604675351 1051.2640449438202,319.8575456975703 1052.9775280898875,323.3717191372883 1054.691011235955,312.15144411241715 1056.4044943820227,316.02964593564366 1058.1179775280898,309.1846773282614 1059.8314606741574,310.7086072723861 1061.5449438202247,370.26787036525593 1063.258426966292,371.1861877969394 1064.9719101123596,370.22061991036253 1066.685393258427,373.2270755492463 1068.3988764044943,411.22019213012504 1070.112359550562,404.2097837895047 1071.8258426966293,398.7660985082484 1073.5393258426966,376.99324426253764 1075.252808988764,389.84726827353586 1076.9662921348313,374.90176570343135 1078.6797752808989,393.3335182834744 1080.3932584269664,402.8210413473597 1082.1067415730336,401.37769410953496 1083.8202247191011,428.8277348572516 1085.5337078651687,411.6382973097774 1087.247191011236,405.77756306003073 1088.9606741573034,413.8328451731759 1090.6741573033707,411.5120784587203 1092.387640449438,403.6113823400472 1094.1011235955057,372.78791800668006 1095.814606741573,372.0110228435386 1097.5280898876404,370.7639992744348 1099.241573033708,363.33885832844607 1100.9550561797753,361.78504263570466 1102.6685393258426,308.4750767828818 1104.3820224719102,298.6705286626874 1106.0955056179773,292.294417847938 1107.808988764045,288.2967447114621 1109.5224719101125,275.66280944676595 1111.2359550561798,282.3808469461784 1112.9494382022472,270.1020901594172 1114.6629213483145,292.76738843389927 1116.376404494382,282.2612914087532 1118.0898876404494,307.60865953283223 1119.8033707865168,289.351792693702 1121.5168539325844,263.3936456698442 1123.2303370786517,288.7851432449104 1124.943820224719,292.67547312375444 1126.6573033707866,303.31003179219084 1128.370786516854,297.07165177253245 1130.0842696629213,292.29478700568137 1131.7977528089887,282.81227257466065 1133.5112359550562,276.5869214457286 1135.2247191011236,282.08159629670433 1136.938202247191,273.2804572411175 1138.6516853932585,225.81831318264682 1140.3651685393259,215.6777012508868 1142.0786516853934,185.4127759102396 1143.7921348314605,171.63013681865607 1145.5056179775281,176.327722328155 1147.2191011235955,170.84910916073557 1148.9325842696628,167.51848880442003 1150.6460674157304,200.40148167470647 1152.3595505617977,179.87243329358319 1154.0730337078653,160.77943257533434 1155.7865168539327,133.4199064143031 1157.5,90.0 1159.2134831460673,126.26974497361903 1160.9269662921347,160.61665933410472 1162.6404494382023,101.15175596939423 1164.3539325842696,147.34148320372333 1166.0674157303372,132.66596763047664 1167.7808988764045,150.87137690130646 1169.4943820224719,138.4899639036994 1171.2078651685395,153.64626282828942 1172.9213483146066,148.14377264996972 1174.6348314606741,111.3984549277277 1176.3483146067415,125.19211805983878 1178.061797752809,116.93770582398918 1179.7752808988764,130.2981213401357 1181.4887640449438,153.35588457263725 1183.2022471910113,170.4640063212878 1184.9157303370787,152.1369796077165 1186.629213483146,109.31203489431971 1188.3426966292134,92.93225520080307 1190.056179775281,119.78329917705355 1191.7696629213483,148.8754812465205 1193.4831460674156,169.48379037462576 1195.1966292134832,184.0487046200535 1196.9101123595506,182.34998983658045 1198.623595505618,172.1436369550271 1200.3370786516855,153.24383605810215 1202.0505617977528,186.9464730761988 1203.7640449438202,175.1840816540573 1205.4775280898875,221.8098007426873 1207.191011235955,227.04351971009118 1208.9044943820224,224.29846612286957 1210.6179775280898,264.2027191299647 1212.3314606741574,275.1724590354579 1214.0449438202247,301.1660468319093 1215.758426966292,302.41488759794055 1217.4719101123596,279.09336082865343 1219.185393258427,280.5576238531266 1220.8988764044943,278.9886404421253 1222.6123595505617,282.04755231488315 1224.3258426966293,272.2782328627392 1226.0393258426966,260.4273441504797 1227.752808988764,282.3412639549811 1229.4662921348315,302.06143840812996 1231.1797752808989,287.5599313833868 1232.8932584269664,290.64312930370926 1234.6067415730336,293.38422231686553 1236.3202247191011,293.27383768052624 1238.0337078651685,285.0069151489276 1239.747191011236,269.03535026396577 1241.4606741573034,268.10992705803386 1243.1741573033707,275.6756867516507 1244.8876404494383,247.8565763982113 1246.6011235955057,249.40094461395938 1248.314606741573,263.5564702046382 1250.0280898876404,286.5209821064632 1251.741573033708,302.35895373479707 1253.4550561797753,283.59565403871306 1255.1685393258426,345.3303975987179 1256.8820224719102,366.78263101330083 1258.5955056179776,390.25929019795 1260.308988764045,388.60301284724386 1262.0224719101125,408.3381952283707 1263.7359550561798,400.7517832553602 1265.4494382022472,407.2440627503285 1267.1629213483145,402.31217284222623 1268.876404494382,419.6664739383933 1270.5898876404494,410.25717230766855 1272.3033707865168,396.645730093879 1274.0168539325844,388.6634493527574 1275.7303370786517,409.51336966185335 1277.443820224719,391.66998625676564 1279.1573033707866,386.2883149876511 1280.870786516854,365.37639355614317 1282.5842696629213,384.91993544369893 1284.2977528089887,383.61829379407305 1286.0112359550562,394.78455245950806 1287.7247191011236,406.57755874264035 1289.438202247191,391.14153693180566 1291.1516853932585,398.00477396346224 1292.8651685393259,375.3642120458277 1294.5786516853934,372.2569414794748 1296.2921348314605,360.6894488099572 1298.0056179775281,360.31985231279094 1299.7191011235955,369.0875446741955 1301.4325842696628,351.0976872261658 1303.1460674157304,356.0358969138945 1304.8595505617977,361.29984037374686 1306.5730337078653,356.1740269777567 1308.2865168539327,348.868941960841 1310.0,352.1132254362273" fill="none" stroke="#92400e" stroke-width="2.5"><title>budgeted_btc_defensive_eth_aggressive | end=2026-05-07 | return=626.24%</title></polyline>
</svg>