<svg xmlns="http://www.w3.org/2000/svg" width="1400" height="800">
<rect width="1400" height="800" fill="#f8fafc"/>
<text x="700.0" y="42" text-anchor="middle" font-family="monospace" font-size="24" fill="#0f172a">Portfolio Value Over Time | start=2021-10-01 | interval=5d</text>
<line x1="90" y1="710" x2="1310" y2="710" stroke="#334155" stroke-width="2"/>
<line x1="90" y1="90" x2="90" y2="710" stroke="#334155" stroke-width="2"/>
<line x1="90.0" y1="710" x2="90.0" y2="90" stroke="#cbd5e1" stroke-width="1"/>
<text x="90.0" y="734" text-anchor="middle" font-family="monospace" font-size="11" fill="#475569">2021-10-01</text>
<line x1="90" y1="710.0" x2="1310" y2="710.0" stroke="#cbd5e1" stroke-width="1"/>
<text x="78" y="714.0" text-anchor="end" font-family="monospace" font-size="12" fill="#475569">4201</text>
<line x1="334.0" y1="710" x2="334.0" y2="90" stroke="#cbd5e1" stroke-width="1"/>
<text x="334.0" y="734" text-anchor="middle" font-family="monospace" font-size="11" fill="#475569">2022-09-01</text>
<line x1="90" y1="586.0" x2="1310" y2="586.0" stroke="#cbd5e1" stroke-width="1"/>
<text x="78" y="590.0" text-anchor="end" font-family="monospace" font-size="12" fill="#475569">7611</text>
<line x1="578.0" y1="710" x2="578.0" y2="90" stroke="#cbd5e1" stroke-width="1"/>
<text x="578.0" y="734" text-anchor="middle" font-family="monospace" font-size="11" fill="#475569">2023-08-02</text>
<line x1="90" y1="462.0" x2="1310" y2="462.0" stroke="#cbd5e1" stroke-width="1"/>
<text x="78" y="466.0" text-anchor="end" font-family="monospace" font-size="12" fill="#475569">11022</text>
<line x1="822.0" y1="710" x2="822.0" y2="90" stroke="#cbd5e1" stroke-width="1"/>
<text x="822.0" y="734" text-anchor="middle" font-family="monospace" font-size="11" fill="#475569">2024-07-07</text>
<line x1="90" y1="338.0" x2="1310" y2="338.0" stroke="#cbd5e1" stroke-width="1"/>
<text x="78" y="342.0" text-anchor="end" font-family="monospace" font-size="12" fill="#475569">14432</text>
<line x1="1066.0" y1="710" x2="1066.0" y2="90" stroke="#cbd5e1" stroke-width="1"/>
<text x="1066.0" y="734" text-anchor="middle" font-family="monospace" font-size="11" fill="#475569">2025-06-07</text>
<line x1="90" y1="214.0" x2="1310" y2="214.0" stroke="#cbd5e1" stroke-width="1"/>
<text x="78" y="218.0" text-anchor="end" font-family="monospace" font-size="12" fill="#475569">17842</text>
<line x1="1310.0" y1="710" x2="1310.0" y2="90" stroke="#cbd5e1" stroke-width="1"/>
<text x="1310.0" y="734" text-anchor="middle" font-family="monospace" font-size="11" fill="#475569">2026-05-08</text>
<line x1="90" y1="90.0" x2="1310" y2="90.0" stroke="#cbd5e1" stroke-width="1"/>
<text x="78" y="94.0" text-anchor="end" font-family="monospace" font-size="12" fill="#475569">21252</text>
<text x="700.0" y="782" text-anchor="middle" font-family="monospace" font-size="16" fill="#0f172a">time</text>
<text x="24" y="400.0" transform="rotate(-90 24,400.0)" text-anchor="middle" font-family="monospace" font-size="16" fill="#0f172a">portfolio_value_usd</text>
<line x1="970" y1="80" x2="988" y2="80" stroke="#0f766e" stroke-width="3"/>
<text x="998" y="84" font-family="monospace" font-size="12" fill="#0f172a">budgeted_static_50_50_rebalance</text>
<line x1="970" y1="104" x2="988" y2="104" stroke="#9333ea" stroke-width="3"/>
<text x="998" y="108" font-family="monospace" font-size="12" fill="#0f172a">budgeted_drawdown_tilt_rebalance</text>
<line x1="970" y1="128" x2="988" y2="128" stroke="#92400e" stroke-width="3"/>
<text x="998" y="132" font-family="monospace" font-size="12" fill="#0f172a">budgeted_btc_defensive_eth_aggressive</text>
<polyline points="90.0,499.1476979499451 93.63095238095238,498.14900340796635 97.26190476190476,497.8700243236191 100.89285714285714,495.9552721065278 104.52380952380952,494.43386604052176 108.1547619047619,494.69217336366125 111.78571428571428,493.1124489408204 115.41666666666666,491.7659304995314 119.04761904761905,488.03415587516884 122.67857142857142,489.5659484966483 126.30952380952381,494.0390322417569 129.9404761904762,493.3650174963533 133.57142857142856,493.7290045283447 137.20238095238096,506.91219658617 140.83333333333331,513.8334368184736 144.46428571428572,509.94830006155706 148.0952380952381,513.6465983877949 151.72619047619048,506.2593018194366 155.35714285714283,518.3767076109899 158.98809523809524,518.8120112675697 162.61904761904762,538.7665620326766 166.25,533.0545431995624 169.88095238095238,541.0748877086688 173.51190476190476,567.1107517574338 177.14285714285714,559.6233821901093 180.77380952380952,558.7328747607644 184.40476190476193,530.4903509687749 188.03571428571428,543.1665693672426 191.66666666666666,551.4392484226267 195.29761904761904,565.4386433021259 198.92857142857144,536.8764008438006 202.5595238095238,557.336420973038 206.1904761904762,559.551761317059 209.82142857142856,559.49692952062 213.45238095238096,542.701721544064 217.08333333333334,522.7705782553564 220.7142857142857,501.96079483130274 224.3452380952381,497.54502026977264 227.97619047619048,520.5476403147968 231.60714285714286,539.3382089263998 235.23809523809524,531.1599118936808 238.86904761904762,545.1185704484283 242.5,552.2882044635074 246.13095238095238,543.7198823076909 249.76190476190476,603.491792681443 253.39285714285714,611.1461286520272 257.0238095238095,611.9793474297272 260.6547619047619,615.6456171155315 264.2857142857143,623.3845323305253 267.9166666666667,624.3348813380309 271.54761904761904,622.0451982617437 275.17857142857144,670.5840124934359 278.80952380952385,690.4750310582598 282.44047619047615,677.4526117281725 286.07142857142856,680.0971882892989 289.70238095238096,686.0224185306575 293.3333333333333,673.0218326926994 296.9642857142857,681.4190199373536 300.5952380952381,654.5996091586951 304.2261904761905,655.9156396303997 307.8571428571429,644.0790846305727 311.48809523809524,650.7424377299862 315.1190476190476,647.193898239593 318.75,632.2592623539986 322.3809523809524,640.9174714951978 326.01190476190476,655.8551545079954 329.6428571428571,665.7424597115806 333.2738095238095,661.3562968708304 336.9047619047619,666.5952119046457 340.5357142857143,648.4159361494859 344.1666666666667,668.9340418745351 347.79761904761904,681.0989422600371 351.4285714285714,674.8570680750106 355.0595238095238,675.6621846933916 358.6904761904762,671.9435226326949 362.3214285714286,677.8136039670658 365.95238095238096,676.0629058225422 369.5833333333333,676.6279678946827 373.2142857142857,660.2623972379554 376.8452380952381,660.8581095805505 380.4761904761905,656.0565961159499 384.1071428571429,681.7182898766075 387.73809523809524,685.6499024086027 391.36904761904765,692.3585664337328 395.0,689.0506047464224 398.63095238095235,682.917794913058 402.26190476190476,685.0596944024219 405.89285714285717,684.2565669865618 409.5238095238095,683.5571226553362 413.1547619047619,687.0994577939483 416.7857142857143,687.2355569883335 420.41666666666663,688.760729252624 424.0476190476191,685.5535801630659 427.67857142857144,681.7980402243569 431.3095238095238,660.4131645834068 434.9404761904762,659.987200414626 438.57142857142856,655.0534068001855 442.2023809523809,647.8589052559897 445.83333333333337,647.9976965243144 449.4642857142857,649.984249298861 453.0952380952381,659.7707548687811 456.7261904761905,643.1333370328556 460.35714285714283,647.0122128371091 463.98809523809524,651.3834017395486 467.61904761904765,655.2959029355144 471.25,667.698965043125 474.88095238095235,645.4283675983489 478.51190476190476,631.4032835592596 482.14285714285717,632.2325746961442 485.7738095238095,628.4221494584951 489.4047619047619,624.6389539578903 493.0357142857143,624.645002815025 496.66666666666663,607.6866425951007 500.2976190476191,619.9931314044882 503.92857142857144,627.9145952169769 507.5595238095238,619.7706621531381 511.1904761904762,622.2945274931458 514.8214285714286,627.274790468714 518.452380952381,631.5064109588945 522.0833333333334,631.0753509984704 525.7142857142858,633.3669056239329 529.3452380952381,625.0190764016058 532.9761904761905,627.0705976705623 536.6071428571429,630.8078192840169 540.2380952380952,637.1479862762774 543.8690476190477,636.7371308554906 547.5,616.0004023911797 551.1309523809523,620.7768286208351 554.7619047619048,611.9465174140472 558.3928571428571,618.4738182393539 562.0238095238095,608.8434005360358 565.6547619047619,618.3941345308524 569.2857142857142,618.117507210703 572.9166666666666,621.0711925543776 576.547619047619,623.0455446787582 580.1785714285714,623.5176646841833 583.8095238095239,621.8399214350068 587.4404761904761,637.5329350157568 591.0714285714286,641.3391102397411 594.702380952381,640.1918693505515 598.3333333333334,642.3428157255253 601.9642857142858,642.3304302283954 605.5952380952381,647.61536711506 609.2261904761905,639.7134393082655 612.8571428571428,641.9258598685684 616.4880952380953,642.6138202192034 620.1190476190476,631.1396989742357 623.75,635.05853504337 627.3809523809524,641.7498905048546 631.0119047619047,635.2898835010385 634.6428571428572,629.7592932684437 638.2738095238095,609.410330659577 641.9047619047619,607.3944360534867 645.5357142857142,602.8930512215591 649.1666666666666,587.1769081086779 652.797619047619,586.4131026326461 656.4285714285714,589.3904957289807 660.0595238095239,585.4786551098258 663.6904761904761,587.1712765922264 667.3214285714286,556.9076073700296 670.952380952381,554.9774457780799 674.5833333333334,566.6721889344622 678.2142857142858,562.5125262104827 681.8452380952381,559.4415707543282 685.4761904761905,562.6372752966533 689.1071428571428,557.8194673504646 692.7380952380953,548.7475790568465 696.3690476190476,555.2176202236003 700.0,554.495657051028 703.6309523809524,571.0577251835704 707.2619047619047,557.9934018584497 710.8928571428571,559.8480659476451 714.5238095238095,547.4849808616785 718.1547619047618,524.4876441545222 721.7857142857143,506.2393972546399 725.4166666666667,508.22519629237297 729.047619047619,452.87440747697855 732.6785714285714,424.8036388115578 736.3095238095239,410.9216398051973 739.9404761904761,404.69338645070576 743.5714285714286,464.70308321725406 747.202380952381,435.9302247599341 750.8333333333333,426.00145089692114 754.4642857142857,446.1076540604711 758.0952380952382,412.350990519184 761.7261904761905,465.97588551521665 765.3571428571429,464.50474395729907 768.9880952380953,449.14996907457044 772.6190476190476,455.36637035554224 776.25,464.0289675731435 779.8809523809524,475.18778832045206 783.5119047619047,471.84998334952917 787.1428571428571,452.5947207243035 790.7738095238095,415.5787952616535 794.4047619047618,411.5454491362465 798.0357142857143,416.17753502389957 801.6666666666667,417.1486353275834 805.297619047619,425.8086036964472 808.9285714285714,432.87616313199493 812.5595238095239,439.48277272893984 816.1904761904761,448.7378665654196 819.8214285714286,449.0581294703514 823.452380952381,489.3323507339252 827.0833333333333,473.63388270625944 830.7142857142857,444.48661527939106 834.3452380952382,432.54690876940333 837.9761904761905,441.2173302085725 841.6071428571429,450.535445476546 845.2380952380953,512.3781283685055 848.8690476190476,500.43420077966977 852.5,497.9436535316588 856.1309523809524,490.0833225359212 859.7619047619047,483.1040295902086 863.3928571428571,502.22214645393933 867.0238095238095,517.3436593351719 870.6547619047618,512.4647849223262 874.2857142857143,512.907677857404 877.9166666666667,488.81108729052676 881.547619047619,488.0218213823805 885.1785714285714,486.3385678246083 888.8095238095239,500.1289915167871 892.4404761904761,506.1721718325209 896.0714285714286,476.81916551997216 899.702380952381,463.9367394338378 903.3333333333333,487.94154580417626 906.9642857142857,461.04264703276317 910.5952380952382,487.25679229659113 914.2261904761905,421.8138451416525 917.8571428571429,401.5052707525978 921.4880952380953,386.73409517547043 925.1190476190476,358.8100517808497 928.75,346.2075552307368 932.3809523809524,328.49719042605534 936.0119047619047,339.30700347866775 939.6428571428571,321.27303932367926 943.2738095238095,356.6726504035971 946.9047619047618,349.5237744667373 950.5357142857143,368.55930481187596 954.1666666666667,343.6393549980438 957.797619047619,366.7708133232733 961.4285714285714,379.15864930219743 965.0595238095239,348.09857655642116 968.6904761904761,347.0337984909563 972.3214285714286,368.6507653510703 975.952380952381,389.05309135919276 979.5833333333333,407.2437825386005 983.2142857142857,396.84560234425817 986.8452380952382,400.6036057798255 990.4761904761905,397.7130906723864 994.1071428571429,452.13700827512116 997.7380952380953,456.28965331646634 1001.3690476190476,479.9222299438377 1005.0,481.5776871950817 1008.6309523809524,464.8481399666289 1012.2619047619047,461.72618021395033 1015.8928571428571,490.5997231356117 1019.5238095238095,490.4289940993652 1023.1547619047618,530.61018096949 1026.7857142857142,506.24367773754943 1030.4166666666667,505.6301344239884 1034.047619047619,471.41603602774126 1037.6785714285716,468.7414083676806 1041.3095238095239,464.39712666570847 1044.9404761904761,419.4178433961783 1048.5714285714284,377.5110168610173 1052.202380952381,388.40971931642895 1055.8333333333333,384.5159316768829 1059.4642857142858,371.0668589468072 1063.095238095238,380.32992091303146 1066.7261904761904,387.39207733691643 1070.357142857143,377.9976870528227 1073.9880952380954,390.3597525096455 1077.6190476190477,418.66327500341396 1081.25,392.26795462649653 1084.8809523809523,377.5862019575404 1088.5119047619046,380.9339202754522 1092.142857142857,333.2707061975853 1095.7738095238096,288.9944238217124 1099.404761904762,267.48833551615195 1103.0357142857142,259.4425173470506 1106.6666666666667,299.1997199738949 1110.297619047619,281.88099566853305 1113.9285714285716,237.39977765292497 1117.5595238095239,226.51095497376417 1121.1904761904761,250.1282239414905 1124.8214285714284,227.44388584425286 1128.452380952381,248.37686098803198 1132.0833333333333,248.12384989422605 1135.7142857142856,238.15806883034526 1139.345238095238,224.5198231150303 1142.9761904761906,226.1983409461713 1146.607142857143,277.03963572421605 1150.2380952380952,249.79620356338552 1153.8690476190477,207.03194210998015 1157.5,270.35821218566514 1161.1309523809523,265.8970856724259 1164.7619047619048,266.8375796354032 1168.392857142857,266.03160507479305 1172.0238095238094,282.36268954235106 1175.654761904762,328.53554919261774 1179.2857142857144,302.9573489192736 1182.9166666666667,354.5479447140861 1186.547619047619,366.6190607763906 1190.1785714285716,378.09122629361946 1193.8095238095239,370.0507005128976 1197.4404761904761,357.86385775358576 1201.0714285714284,344.502796767071 1204.702380952381,371.0501550551991 1208.3333333333333,376.74753189800253 1211.9642857142856,379.9633858281014 1215.595238095238,381.7778538675982 1219.2261904761906,361.54154127052544 1222.857142857143,361.9722756592905 1226.4880952380952,338.06959295087046 1230.1190476190477,344.5796801909022 1233.75,375.0640316690526 1237.3809523809523,372.26482875303225 1241.0119047619048,438.56778260968986 1244.642857142857,477.07909764345845 1248.2738095238094,493.7949660841286 1251.904761904762,487.70795092139224 1255.5357142857144,489.90357945065165 1259.1666666666667,495.8569150773162 1262.797619047619,465.6932429741428 1266.4285714285716,485.26959822442507 1270.0595238095239,471.23743685972374 1273.6904761904761,471.0268003940331 1277.3214285714284,468.33663946679155 1280.952380952381,491.45611795018743 1284.5833333333333,483.9269736776928 1288.2142857142856,464.42662340050583 1291.845238095238,443.47522167908306 1295.4761904761906,441.96715724919204 1299.107142857143,437.75467532556405 1302.7380952380952,445.20224953412975 1306.3690476190477,437.7794037863373 1310.0,435.2812999945181" fill="none" stroke="#0f766e" stroke-width="2.5"><title>budgeted_static_50_50_rebalance | end=2026-05-08 | return=17.56%</title></polyline>
<polyline points="90.0,499.1476979499451 93.63095238095238,498.39083579315053 97.26190476190476,498.2717670606262 100.89285714285714,497.2968665176362 104.52380952380952,496.69954286050745 108.1547619047619,496.7812785546211 111.78571428571428,496.3502248782079 115.41666666666666,496.0266915544846 119.04761904761905,495.2474706759884 122.67857142857142,495.53677595113743 126.30952380952381,496.30230714059286 129.9404761904762,496.18749834754203 133.57142857142856,496.22489710415516 137.20238095238096,498.7395653012245 140.83333333333331,500.6163527316703 144.46428571428572,499.2176914861607 148.0952380952381,500.855803519988 151.72619047619048,497.13828189989044 155.35714285714283,503.42994399753434 158.98809523809524,503.94945352014594 162.61904761904762,515.8393618139706 166.25,512.1440256371772 169.88095238095238,517.5713777956921 173.51190476190476,536.3010715362229 177.14285714285714,530.5766421805948 180.77380952380952,530.1365601598845 184.40476190476193,506.3997964583906 188.03571428571428,517.0881458336643 191.66666666666666,524.4536107900619 195.29761904761904,537.021189710648 198.92857142857144,510.67583772263856 202.5595238095238,529.7941456692865 206.1904761904762,531.8099949558858 209.82142857142856,531.7913271441378 213.45238095238096,515.518893968456 217.08333333333334,495.0755809618538 220.7142857142857,472.905185892375 224.3452380952381,468.2685759951507 227.97619047619048,494.25494703481195 231.60714285714286,515.7727710686052 235.23809523809524,506.17905979421465 238.86904761904762,522.3416610273553 242.5,530.6248176771182 246.13095238095238,520.6184079866075 249.76190476190476,591.1228599944843 253.39285714285714,600.0357406654072 257.0238095238095,600.9821528386988 260.6547619047619,605.6874352130195 264.2857142857143,615.6897061333282 267.9166666666667,616.9765226046284 271.54761904761904,613.9140915789478 275.17857142857144,680.6663984059804 278.80952380952385,708.5405798828001 282.44047619047615,689.6593938286333 286.07142857142856,693.1550908397857 289.70238095238096,702.089780300215 293.3333333333333,682.5355506301119 296.9642857142857,695.3620809762986 300.5952380952381,651.3453078942564 304.2261904761905,653.6764895134039 307.8571428571429,634.6460589825792 311.48809523809524,645.2705962591151 315.1190476190476,639.2861196345794 318.75,614.6369233630139 322.3809523809524,628.498100360973 326.01190476190476,652.3039858736953 329.6428571428571,667.9702779027168 333.2738095238095,660.4102182207384 336.9047619047619,667.9634511205996 340.5357142857143,639.805403983507 344.1666666666667,673.272640201252 347.79761904761904,692.9531005881609 351.4285714285714,682.9495744752714 355.0595238095238,684.4637383053049 358.6904761904762,678.7379970177632 362.3214285714286,687.919697903287 365.95238095238096,685.103913449358 369.5833333333333,685.9749631489555 373.2142857142857,659.2680165244583 376.8452380952381,659.9670855184801 380.4761904761905,652.5388481150035 384.1071428571429,692.9433893831041 387.73809523809524,699.0110427428402 391.36904761904765,710.0 395.0,704.5212919907731 398.63095238095235,694.5775522465403 402.26190476190476,698.0841032802072 405.89285714285717,696.8734846677064 409.5238095238095,695.9259456082702 413.1547619047619,701.5718184223122 416.7857142857143,701.7274239273447 420.41666666666663,704.1213005726867 424.0476190476191,698.8021273044699 427.67857142857144,692.6305517866656 431.3095238095238,659.7504774888104 434.9404761904762,659.1580349053879 438.57142857142856,652.3906220384839 442.2023809523809,641.1341263161745 445.83333333333337,641.001227947459 449.4642857142857,643.9134867584312 453.0952380952381,659.6275985553118 456.7261904761905,633.93499584111 460.35714285714283,639.8899484742831 463.98809523809524,646.580078982997 467.61904761904765,652.5701499009122 471.25,671.6273447213947 474.88095238095235,637.6400081815414 478.51190476190476,617.2405643168761 482.14285714285717,618.2886565081491 485.7738095238095,612.2782617312773 489.4047619047619,605.8303346131122 493.0357142857143,606.0351107390719 496.66666666666663,578.944143235823 500.2976190476191,598.4574380834625 503.92857142857144,610.7635774712716 507.5595238095238,598.5971748976693 511.1904761904762,602.5425691991892 514.8214285714286,609.8029324233272 518.452380952381,616.2354561299031 522.0833333333334,615.4558691027283 525.7142857142858,618.6165138809531 529.3452380952381,606.5053774765789 532.9761904761905,608.9602677327891 536.6071428571429,613.966743751842 540.2380952380952,622.5826305542513 543.8690476190477,622.4465288137621 547.5,597.4229946276811 551.1309523809523,603.3874189987748 554.7619047619048,592.6165499677334 558.3928571428571,600.2750947024228 562.0238095238095,589.1481498667364 565.6547619047619,599.4575429203228 569.2857142857142,599.3464361300917 572.9166666666666,602.1378080423846 576.547619047619,604.3475162678626 580.1785714285714,604.9227497761559 583.8095238095239,603.1978867678723 587.4404761904761,618.5950624481046 591.0714285714286,622.5868664803997 594.702380952381,621.1954999194729 598.3333333333334,623.6723456068283 601.9642857142858,623.613139584555 605.5952380952381,630.0201790081233 609.2261904761905,620.5993742422231 612.8571428571428,623.6059669184411 616.4880952380953,624.2232478928067 620.1190476190476,609.8500385813085 623.75,615.3046570227112 627.3809523809524,623.609120909853 631.0119047619047,616.0420148937277 634.6428571428572,609.604389994354 638.2738095238095,584.9655725780473 641.9047619047619,582.7017779345105 645.5357142857142,576.9295479590644 649.1666666666666,559.5536072438 652.797619047619,559.0484509722776 656.4285714285714,562.1993251440712 660.0595238095239,558.0038381441093 663.6904761904761,559.8300556027021 667.3214285714286,530.8664610404394 670.952380952381,528.6354687512506 674.5833333333334,539.8733865684768 678.2142857142858,536.5006559096164 681.8452380952381,533.3174272043228 685.4761904761905,535.8432061865138 689.1071428571428,532.0041165867241 692.7380952380953,523.8968764813287 696.3690476190476,528.3214623070934 700.0,527.6032019764021 703.6309523809524,542.6207398786288 707.2619047619047,531.4045144831261 710.8928571428571,533.0396653158825 714.5238095238095,522.2709508854797 718.1547619047618,502.3575059709566 721.7857142857143,486.3160287964347 725.4166666666667,487.75087694753284 729.047619047619,441.55466126631296 732.6785714285714,418.3075611633908 736.3095238095239,406.3963213458164 739.9404761904761,401.62642177139253 743.5714285714286,450.59926482380683 747.202380952381,426.9149734108035 750.8333333333333,418.61979743130814 754.4642857142857,435.3474459550202 758.0952380952382,406.5444315542018 761.7261904761905,451.8293315923458 765.3571428571429,450.52526515134736 768.9880952380953,436.9141318126051 772.6190476190476,442.0901060473611 776.25,450.4927806577073 779.8809523809524,461.20959694993695 783.5119047619047,458.31902500411496 787.1428571428571,438.8825667647989 790.7738095238095,398.34562393282994 794.4047619047618,394.16287995390655 798.0357142857143,398.75783340274 801.6666666666667,400.79153628970937 805.297619047619,409.03533915143726 808.9285714285714,415.0804725084066 812.5595238095239,420.2716656234805 816.1904761904761,427.7636892478571 819.8214285714286,428.2940212415997 823.452380952381,465.0992004636589 827.0833333333333,450.17781673961855 830.7142857142857,422.7606291606549 834.3452380952382,411.64523044644056 837.9761904761905,420.7230951491386 841.6071428571429,429.58635269284554 845.2380952380953,492.00458338975864 848.8690476190476,480.0982565434427 852.5,477.25779017109807 856.1309523809524,469.281785634459 859.7619047619047,461.78265664573775 863.3928571428571,483.24453101954566 867.0238095238095,500.7116047618062 870.6547619047618,495.6183894209945 874.2857142857143,497.62594358484915 877.9166666666667,468.38543078287364 881.547619047619,467.1972593855198 885.1785714285714,465.0288303446124 888.8095238095239,482.95566701840613 892.4404761904761,489.6456581707712 896.0714285714286,455.32061480663384 899.702380952381,439.2407715492708 903.3333333333333,470.44444606173 906.9642857142857,438.5595678451255 910.5952380952382,470.67274450595363 914.2261904761905,389.6766930755421 917.8571428571429,370.32856725647963 921.4880952380953,354.32884291450574 925.1190476190476,321.5152293758054 928.75,304.85229347285195 932.3809523809524,283.4147890348143 936.0119047619047,295.7068526425799 939.6428571428571,276.8523606792363 943.2738095238095,315.3511373204012 946.9047619047618,307.81489819985575 950.5357142857143,326.3866366855112 954.1666666666667,300.6808063793524 957.797619047619,324.49851500660225 961.4285714285714,337.82446120839205 965.0595238095239,307.77954987515045 968.6904761904761,306.35342395755094 972.3214285714286,329.7660362281171 975.952380952381,351.4433892561688 979.5833333333333,372.4155611666436 983.2142857142857,360.5969217336049 986.8452380952382,363.9687756970567 990.4761904761905,360.7538640659867 994.1071428571429,424.98944094264766 997.7380952380953,432.8330405085105 1001.3690476190476,459.5960264272617 1005.0,464.4581463158121 1008.6309523809524,443.8989103398189 1012.2619047619047,440.0683562981081 1015.8928571428571,477.03373337933454 1019.5238095238095,477.2367230315971 1023.1547619047618,529.1988849098148 1026.7857142857142,500.8432575333049 1030.4166666666667,500.4924904551877 1034.047619047619,458.3197711495721 1037.6785714285716,455.38291098406944 1041.3095238095239,449.6553367961045 1044.9404761904761,388.6949760236912 1048.5714285714284,327.1186443212234 1052.202380952381,345.82695061656557 1055.8333333333333,340.59616564262296 1059.4642857142858,320.0181520700056 1063.095238095238,332.7943628506016 1066.7261904761904,343.8668488557492 1070.357142857143,328.7576706651601 1073.9880952380954,347.72439673199295 1077.6190476190477,390.15248142772515 1081.25,354.0343499198972 1084.8809523809523,332.1238703041613 1088.5119047619046,336.911926025667 1092.142857142857,268.9390041860772 1095.7738095238096,197.71749745988132 1099.404761904762,163.71474508708695 1103.0357142857142,150.37107535318603 1106.6666666666667,201.922772968245 1110.297619047619,179.12418049544772 1113.9285714285716,121.78651241769433 1117.5595238095239,105.9557135309218 1121.1904761904761,131.0495764001447 1124.8214285714284,102.0204190545627 1128.452380952381,123.7046500266664 1132.0833333333333,125.77652386105046 1135.7142857142856,117.38288470377188 1139.345238095238,103.38840635517863 1142.9761904761906,105.48641405761668 1146.607142857143,154.7370019525914 1150.2380952380952,129.05616940942684 1153.8690476190477,90.0 1157.5,149.60282485718233 1161.1309523809523,143.81538968333894 1164.7619047619048,144.67552622398853 1168.392857142857,144.4150666466236 1172.0238095238094,160.23779717955165 1175.654761904762,206.93985251506973 1179.2857142857144,180.67827488765226 1182.9166666666667,233.3221689655444 1186.547619047619,245.53539160306138 1190.1785714285716,257.23573612309593 1193.8095238095239,249.01804261578928 1197.4404761904761,235.0087272961785 1201.0714285714284,218.83377264802363 1204.702380952381,250.07488488612933 1208.3333333333333,257.4627898493251 1211.9642857142856,261.46775864682974 1215.595238095238,263.64834269991997 1219.2261904761906,237.54285665290058 1222.857142857143,238.36438628381785 1226.4880952380952,206.7728902650943 1230.1190476190477,215.18113361983512 1233.75,256.7214640444811 1237.3809523809523,252.5395197070925 1241.0119047619048,343.0015261987308 1244.642857142857,394.3239034584245 1248.2738095238094,417.42913773810653 1251.904761904762,409.0953227615903 1255.5357142857144,412.48027234630695 1259.1666666666667,420.5033772840093 1262.797619047619,378.02289047524675 1266.4285714285716,406.0341401959264 1270.0595238095239,385.63661673806797 1273.6904761904761,384.23017019934224 1277.3214285714284,380.34546519930495 1280.952380952381,414.4544925793374 1284.5833333333333,402.96804382845926 1288.2142857142856,374.4071565322618 1291.845238095238,342.71432792107447 1295.4761904761906,341.26747541023894 1299.107142857143,336.3326419766378 1302.7380952380952,347.1791713158086 1306.3690476190477,336.5754424988107 1310.0,333.70245660977525" fill="none" stroke="#9333ea" stroke-width="2.5"><title>budgeted_drawdown_tilt_rebalance | end=2026-05-08 | return=45.50%</title></polyline>
<polyline points="90.0,499.1476979499451 93.63095238095238,498.1636285500837 97.26190476190476,497.9818183583442 100.89285714285714,496.2939554763468 104.52380952380952,494.9814207109232 108.1547619047619,495.1425878371232 111.78571428571428,493.83566769245823 115.41666666666666,492.6977805577464 119.04761904761905,489.7475925264434 122.67857142857142,490.9580394309569 126.30952380952381,494.4606721953096 129.9404761904762,493.88800138216163 133.57142857142856,494.14596510110715 137.20238095238096,504.7136501666229 140.83333333333331,510.52089640600514 144.46428571428572,507.2520312628647 148.0952380952381,510.32485041171896 151.72619047619048,504.0821870262107 155.35714285714283,515.0938331466089 158.98809523809524,515.0435199090548 162.61904761904762,534.0917645392178 166.25,528.5459848878343 169.88095238095238,536.5925858396929 173.51190476190476,563.10981815106 177.14285714285714,555.3308846802985 180.77380952380952,554.2705210949455 184.40476190476193,523.7657949291859 188.03571428571428,537.3963204697957 191.66666666666666,546.8485136100253 195.29761904761904,562.3550268770394 198.92857142857144,530.5388562476026 202.5595238095238,552.2951453927926 206.1904761904762,554.1681164949921 209.82142857142856,554.2607767153721 213.45238095238096,538.7541333612285 217.08333333333334,519.5717597736531 220.7142857142857,500.0084990100901 224.3452380952381,497.0053522174534 227.97619047619048,520.3525341911094 231.60714285714286,539.1988721701762 235.23809523809524,530.7100786897146 238.86904761904762,544.6876397862351 242.5,551.7162435180364 246.13095238095238,543.2864933893733 249.76190476190476,603.8750341399223 253.39285714285714,610.6130774005428 257.0238095238095,611.1438355296461 260.6547619047619,614.9114526361768 264.2857142857143,621.8460730021371 267.9166666666667,622.4871116996528 271.54761904761904,620.0473135946928 275.17857142857144,669.1869798074886 278.80952380952385,689.6240810792644 282.44047619047615,676.3672813466061 286.07142857142856,679.4138991012682 289.70238095238096,685.4293063768426 293.3333333333333,672.0757400045637 296.9642857142857,680.600087388104 300.5952380952381,655.2097599545316 304.2261904761905,656.3430791325319 307.8571428571429,644.77165357536 311.48809523809524,651.3487985420275 315.1190476190476,648.0784813518331 318.75,633.9322621150526 322.3809523809524,642.4386744137752 326.01190476190476,657.1915311234013 329.6428571428571,667.0211968780344 333.2738095238095,663.0949085114091 336.9047619047619,668.8354468860136 340.5357142857143,650.3018656312579 344.1666666666667,670.0195636943636 347.79761904761904,681.8250641236646 351.4285714285714,675.7002593216246 355.0595238095238,676.3309680507001 358.6904761904762,672.5155422494377 362.3214285714286,678.4363484999909 365.95238095238096,676.7256250878362 369.5833333333333,677.304674892255 373.2142857142857,661.5867325314937 376.8452380952381,662.3532130328084 380.4761904761905,657.4518070557253 384.1071428571429,683.1461231134915 387.73809523809524,687.1700588411804 391.36904761904765,693.5839932934906 395.0,690.4641920930178 398.63095238095235,684.5282537422162 402.26190476190476,686.5774296799956 405.89285714285717,685.7349129759692 409.5238095238095,684.9251638104976 413.1547619047619,688.4232958544164 416.7857142857143,688.6013324431492 420.41666666666663,690.133794905453 424.0476190476191,687.1143619073675 427.67857142857144,683.5379814146934 431.3095238095238,661.563274103659 434.9404761904762,661.0810851681761 438.57142857142856,655.4287045643773 442.2023809523809,648.1743108306156 445.83333333333337,648.5633835412445 449.4642857142857,650.7058899632719 453.0952380952381,660.2876438352965 456.7261904761905,643.2709953474429 460.35714285714283,647.2632404006214 463.98809523809524,651.7768726191788 467.61904761904765,655.8154717189669 471.25,668.5698788394255 474.88095238095235,645.5038467070035 478.51190476190476,630.2630509484384 482.14285714285717,631.2767501969993 485.7738095238095,627.4692026798118 489.4047619047619,624.030817320341 493.0357142857143,623.8979157504915 496.66666666666663,607.1954793558434 500.2976190476191,619.4203750190504 503.92857142857144,627.4702398204075 507.5595238095238,618.8488853945223 511.1904761904762,621.3962079058962 514.8214285714286,626.7963627939082 518.452380952381,631.1185888344324 522.0833333333334,630.774898889513 525.7142857142858,633.2700586673265 529.3452380952381,624.7363257284331 532.9761904761905,627.1054038151128 536.6071428571429,630.8676355397685 540.2380952380952,636.918163316007 543.8690476190477,636.2102143869269 547.5,614.2962637982627 551.1309523809523,619.0233619337831 554.7619047619048,610.3551440923943 558.3928571428571,616.8197670095192 562.0238095238095,607.370583264985 565.6547619047619,617.1180505072238 569.2857142857142,616.68750111873 572.9166666666666,619.9312182961261 576.547619047619,621.7913161304666 580.1785714285714,622.1921571737704 583.8095238095239,620.5184459362425 587.4404761904761,636.6581675593245 591.0714285714286,640.4946764554876 594.702380952381,639.447429309614 598.3333333333334,641.5859029897139 601.9642857142858,641.6155217943777 605.5952380952381,646.7563406705499 609.2261904761905,638.6183428408706 612.8571428571428,640.5613187445359 616.4880952380953,641.4691342279006 620.1190476190476,629.8846494575712 623.75,633.3614828425866 627.3809523809524,640.1461881038209 631.0119047619047,633.0716279734045 634.6428571428572,627.0225331037199 638.2738095238095,605.5693613584375 641.9047619047619,603.3678890434531 645.5357142857142,599.0904673500311 649.1666666666666,584.0401916293869 652.797619047619,582.7924896552265 656.4285714285714,585.6235728635771 660.0595238095239,582.1418789267233 663.6904761904761,583.5679802479831 667.3214285714286,552.1328480641336 670.952380952381,550.9548262066625 674.5833333333334,562.4775780968414 678.2142857142858,557.0443188176791 681.8452380952381,554.719979551191 685.4761904761905,559.0757443517068 689.1071428571428,552.6742580841244 692.7380952380953,543.0345159319604 696.3690476190476,553.8628246903056 700.0,553.3836799324307 703.6309523809524,568.3996764088623 707.2619047619047,554.1653698009766 710.8928571428571,555.9897848482866 714.5238095238095,543.4367032130897 718.1547619047618,519.8830971491273 721.7857142857143,502.47000527677915 725.4166666666667,505.74592357788123 729.047619047619,447.5811040934425 732.6785714285714,418.33505878828737 736.3095238095239,406.73143747252004 739.9404761904761,398.5935429809956 743.5714285714286,459.3669937445938 747.202380952381,429.8038703386336 750.8333333333333,418.71324255607186 754.4642857142857,439.6712889783223 758.0952380952382,405.5026437247423 761.7261904761905,458.5710700353089 765.3571428571429,457.9581023407886 768.9880952380953,442.1628988117505 772.6190476190476,451.0712544408955 776.25,458.3437045767485 779.8809523809524,469.42503883959637 783.5119047619047,464.65781967843066 787.1428571428571,444.49083407820586 790.7738095238095,413.8333886527888 794.4047619047618,410.1465939844359 798.0357142857143,414.65717709145105 801.6666666666667,414.0364068968001 805.297619047619,422.4896235440838 808.9285714285714,430.1668821049538 812.5595238095239,437.8451336917139 816.1904761904761,448.10262637620684 819.8214285714286,448.11130038712713 823.452380952381,488.96875988092927 827.0833333333333,473.4662684626263 830.7142857142857,443.089025833382 834.3452380952382,429.9701330713781 837.9761904761905,437.52350267647097 841.6071428571429,447.7640839784429 845.2380952380953,509.37532655974917 848.8690476190476,496.9504022286813 852.5,494.7245400178558 856.1309523809524,486.0311967230044 859.7619047619047,478.63228222912414 863.3928571428571,498.11895220384065 867.0238095238095,513.2887788049575 870.6547619047618,507.7781807331391 874.2857142857143,506.4472942825522 877.9166666666667,482.8155545917306 881.547619047619,482.2888387789449 885.1785714285714,480.7755188334319 888.8095238095239,493.00921409396676 892.4404761904761,499.8292924282115 896.0714285714286,468.94993805091394 899.702380952381,456.64709119663235 903.3333333333333,478.1216250278604 906.9642857142857,450.39201478639734 910.5952380952382,476.0369942243057 914.2261904761905,415.76472715485517 917.8571428571429,386.0809858764 921.4880952380953,367.9993481873224 925.1190476190476,339.377690920621 928.75,330.7858224326433 932.3809523809524,315.74327722753003 936.0119047619047,325.88793915294815 939.6428571428571,306.31489244337234 943.2738095238095,339.60874383694323 946.9047619047618,332.3588801567298 950.5357142857143,353.9379803614676 954.1666666666667,327.7943077141542 957.797619047619,350.6517414651766 961.4285714285714,361.4564166791482 965.0595238095239,323.83237787927715 968.6904761904761,323.6630603257703 972.3214285714286,344.2332064696784 975.952380952381,364.9958118479153 979.5833333333333,380.33104125427127 983.2142857142857,370.7850977378204 986.8452380952382,376.6935577251657 990.4761904761905,373.3764393384779 994.1071428571429,431.10972233565417 997.7380952380953,429.8355807299008 1001.3690476190476,456.6038476695438 1005.0,452.12293181022767 1008.6309523809524,436.4654474596768 1012.2619047619047,433.3569995485886 1015.8928571428571,460.25990658657696 1019.5238095238095,459.14033556286233 1023.1547619047618,496.4040810877226 1026.7857142857142,468.1254207260015 1030.4166666666667,466.35947889561436 1034.047619047619,428.7668961924822 1037.6785714285716,424.6925156566365 1041.3095238095239,420.6232830918751 1044.9404761904761,380.5760813445738 1048.5714285714284,355.02659019695244 1052.202380952381,356.88852390008014 1055.8333333333333,352.9504697825611 1059.4642857142858,343.9679639779118 1063.095238095238,353.1868244372858 1066.7261904761904,358.0708154036571 1070.357142857143,352.05790116643664 1073.9880952380954,361.87331135986517 1077.6190476190477,386.23744310026655 1081.25,358.58218335409623 1084.8809523809523,346.1830012599006 1088.5119047619046,349.4141104379292 1092.142857142857,302.5882797940385 1095.7738095238096,271.25913116521826 1099.404761904762,256.02926848321596 1103.0357142857142,251.3222956570208 1106.6666666666667,288.78226947323395 1110.297619047619,273.28329291986074 1113.9285714285716,233.3264059474712 1117.5595238095239,225.16533192622245 1121.1904761904761,249.71532468117442 1124.8214285714284,229.3683073748972 1128.452380952381,250.8355103251527 1132.0833333333333,249.55753338396897 1135.7142857142856,238.56042269239424 1139.345238095238,224.52053821528114 1142.9761904761906,226.0965475012814 1146.607142857143,279.4866682986623 1150.2380952380952,250.17706883369783 1153.8690476190477,203.82394538599175 1157.5,271.8108693582749 1161.1309523809523,267.6290857808022 1164.7619047619048,268.66264728557246 1168.392857142857,267.5818429283418 1172.0238095238094,285.4040588968763 1175.654761904762,335.05788857726304 1179.2857142857144,308.319831900447 1182.9166666666667,363.4617813152026 1186.547619047619,376.45096280755325 1190.1785714285716,388.8152577414316 1193.8095238095239,380.0912105490483 1197.4404761904761,367.8698331444777 1201.0714285714284,354.7388245755503 1204.702380952381,382.05237352418123 1208.3333333333333,387.63692846915677 1211.9642857142856,390.9168973845919 1215.595238095238,392.83759594476544 1219.2261904761906,372.1208039020838 1222.857142857143,372.39707210910575 1226.4880952380952,347.76523418579006 1230.1190476190477,354.67837228788784 1233.75,385.8125087474215 1237.3809523809523,383.2110297722625 1241.0119047619048,450.96509877684025 1244.642857142857,490.64824919038404 1248.2738095238094,507.0155167656746 1251.904761904762,501.07413178698977 1255.5357142857144,502.8479430436035 1259.1666666666667,508.9197134296619 1262.797619047619,479.51953065793015 1266.4285714285716,498.53562616385875 1270.0595238095239,485.0646098812682 1273.6904761904761,485.70687779902846 1277.3214285714284,483.07332906655586 1280.952380952381,505.30788700782716 1284.5833333333333,498.36607399172726 1288.2142857142856,479.514189863199 1291.845238095238,459.8201179852093 1295.4761904761906,457.82135009825834 1299.107142857143,452.8059201153698 1302.7380952380952,460.30594922042826 1306.3690476190477,452.6612521559261 1310.0,449.5919372033814" fill="none" stroke="#92400e" stroke-width="2.5"><title>budgeted_btc_defensive_eth_aggressive | end=2026-05-08 | return=13.63%</title></polyline>
</svg>