<svg xmlns="http://www.w3.org/2000/svg" width="1400" height="800">
<rect width="1400" height="800" fill="#f8fafc"/>
<text x="700.0" y="42" text-anchor="middle" font-family="monospace" font-size="24" fill="#0f172a">Portfolio Value Over Time | start=2020-07-01 | interval=7d</text>
<line x1="90" y1="710" x2="1310" y2="710" stroke="#334155" stroke-width="2"/>
<line x1="90" y1="90" x2="90" y2="710" stroke="#334155" stroke-width="2"/>
<line x1="90.0" y1="710" x2="90.0" y2="90" stroke="#cbd5e1" stroke-width="1"/>
<text x="90.0" y="734" text-anchor="middle" font-family="monospace" font-size="11" fill="#475569">2020-07-01</text>
<line x1="90" y1="710.0" x2="1310" y2="710.0" stroke="#cbd5e1" stroke-width="1"/>
<text x="78" y="714.0" text-anchor="end" font-family="monospace" font-size="12" fill="#475569">9960</text>
<line x1="334.0" y1="710" x2="334.0" y2="90" stroke="#cbd5e1" stroke-width="1"/>
<text x="334.0" y="734" text-anchor="middle" font-family="monospace" font-size="11" fill="#475569">2021-09-01</text>
<line x1="90" y1="586.0" x2="1310" y2="586.0" stroke="#cbd5e1" stroke-width="1"/>
<text x="78" y="590.0" text-anchor="end" font-family="monospace" font-size="12" fill="#475569">25268</text>
<line x1="578.0" y1="710" x2="578.0" y2="90" stroke="#cbd5e1" stroke-width="1"/>
<text x="578.0" y="734" text-anchor="middle" font-family="monospace" font-size="11" fill="#475569">2022-11-02</text>
<line x1="90" y1="462.0" x2="1310" y2="462.0" stroke="#cbd5e1" stroke-width="1"/>
<text x="78" y="466.0" text-anchor="end" font-family="monospace" font-size="12" fill="#475569">40576</text>
<line x1="822.0" y1="710" x2="822.0" y2="90" stroke="#cbd5e1" stroke-width="1"/>
<text x="822.0" y="734" text-anchor="middle" font-family="monospace" font-size="11" fill="#475569">2024-01-03</text>
<line x1="90" y1="338.0" x2="1310" y2="338.0" stroke="#cbd5e1" stroke-width="1"/>
<text x="78" y="342.0" text-anchor="end" font-family="monospace" font-size="12" fill="#475569">55883</text>
<line x1="1066.0" y1="710" x2="1066.0" y2="90" stroke="#cbd5e1" stroke-width="1"/>
<text x="1066.0" y="734" text-anchor="middle" font-family="monospace" font-size="11" fill="#475569">2025-03-05</text>
<line x1="90" y1="214.0" x2="1310" y2="214.0" stroke="#cbd5e1" stroke-width="1"/>
<text x="78" y="218.0" text-anchor="end" font-family="monospace" font-size="12" fill="#475569">71191</text>
<line x1="1310.0" y1="710" x2="1310.0" y2="90" stroke="#cbd5e1" stroke-width="1"/>
<text x="1310.0" y="734" text-anchor="middle" font-family="monospace" font-size="11" fill="#475569">2026-05-06</text>
<line x1="90" y1="90.0" x2="1310" y2="90.0" stroke="#cbd5e1" stroke-width="1"/>
<text x="78" y="94.0" text-anchor="end" font-family="monospace" font-size="12" fill="#475569">86499</text>
<text x="700.0" y="782" text-anchor="middle" font-family="monospace" font-size="16" fill="#0f172a">time</text>
<text x="24" y="400.0" transform="rotate(-90 24,400.0)" text-anchor="middle" font-family="monospace" font-size="16" fill="#0f172a">portfolio_value_usd</text>
<line x1="970" y1="80" x2="988" y2="80" stroke="#0f766e" stroke-width="3"/>
<text x="998" y="84" font-family="monospace" font-size="12" fill="#0f172a">budgeted_static_50_50_rebalance</text>
<line x1="970" y1="104" x2="988" y2="104" stroke="#9333ea" stroke-width="3"/>
<text x="998" y="108" font-family="monospace" font-size="12" fill="#0f172a">budgeted_drawdown_tilt_rebalance</text>
<line x1="970" y1="128" x2="988" y2="128" stroke="#92400e" stroke-width="3"/>
<text x="998" y="132" font-family="monospace" font-size="12" fill="#0f172a">budgeted_btc_defensive_eth_aggressive</text>
<polyline points="90.0,709.677245985381 94.0,709.5889160707113 98.0,709.7116763620088 102.0,709.2859339308322 106.0,707.7747236029679 110.0,705.8751650232906 114.0,706.2846769902109 118.0,705.6703709582079 122.0,706.457456590065 126.0,704.9619795315605 130.0,708.7989184994691 134.0,707.5735361719 138.0,710.0 142.0,707.7964976986651 146.0,708.705249927942 150.0,705.9798164466198 154.0,703.3560712265524 158.0,702.7708902981623 162.0,700.5825071805049 166.0,694.6478068108156 170.0,690.1522002166888 174.0,683.1517337138138 178.0,680.4813441293074 182.0,683.271193085779 186.0,673.6232071866067 190.0,673.3515014089176 194.0,650.4375717418935 198.0,601.8287094144966 202.0,606.4034573056655 206.0,593.195173930265 210.0,612.8197138643256 214.0,569.4034023356833 218.0,549.0924511263233 222.0,526.4680065576343 226.0,545.5559044610253 230.0,547.7291738459885 234.0,522.2255893438212 238.0,514.1661669287498 242.0,542.4519572876292 246.0,508.44539657605463 250.0,511.4125892160795 254.0,469.0893372800889 258.0,492.0639802723065 262.0,467.0764318865213 266.0,418.15867305497557 270.0,419.35710455462083 274.0,517.3084627003686 278.0,489.4240429899716 282.0,502.17476309396574 286.0,507.0963536551749 290.0,516.2214872415772 294.0,546.1310480988532 298.0,528.2402706216733 302.0,529.3173368037724 306.0,547.0863351889378 310.0,548.7545457471454 314.0,513.5557634463407 318.0,494.06447457169634 322.0,457.663091860483 326.0,466.84115021318667 330.0,445.12339362632514 334.0,418.3896355965197 338.0,440.80195062988037 342.0,429.77365986187516 346.0,466.13446536894685 350.0,481.93609442555413 354.0,409.7818448604511 358.0,402.4448398774236 362.0,353.608394322932 366.0,385.4404857033391 370.0,343.82571293435933 374.0,337.1074953539374 378.0,364.2012192220041 382.0,373.98195614454403 386.0,360.9065634502763 390.0,386.20510460675274 394.0,407.5657366214169 398.00000000000006,409.974273917848 402.0,430.12134599221065 406.0,442.935074369895 410.0,447.95302341993084 413.99999999999994,466.35172462762796 418.0,506.3013708142663 422.0,497.12314871289084 426.0,450.37084219697687 429.99999999999994,457.06545137973836 434.0,500.5618915280314 438.0,464.14855530951945 442.0,479.8076805055389 446.0,480.2469853094849 450.0,463.0842846467664 454.0,434.9260680086189 458.00000000000006,456.41544811603427 462.0,464.777330794849 466.0,465.8765934689728 470.0,480.6116547228553 474.00000000000006,477.1314013812263 478.0,548.0465078876227 482.0,556.133873656259 486.0,552.1894480135957 489.99999999999994,556.8738306209018 494.0,556.7919982331758 498.0,607.1907398110231 502.0,624.5661779764196 506.0,621.6927338344228 510.0,615.889088531012 514.0,620.5997080978129 518.0,589.0593262664939 522.0,583.9330601990671 526.0,585.3356440066408 530.0,569.0419448598356 534.0,572.2948128978089 538.0,588.5827934640356 542.0,598.6805584396952 546.0,597.7244564147605 550.0,593.6386032163781 554.0,619.948525522313 558.0,611.6341849397911 562.0,607.9527155441821 566.0,614.8572633232917 570.0,615.4913089909342 574.0,594.0477223830483 578.0,598.9832031425923 582.0,637.251414723622 586.0,628.124192986433 590.0,630.0617464825767 594.0,621.7903741790724 598.0,626.4697331896733 602.0,618.6252942781963 606.0,627.458894860389 610.0,629.8881896842961 614.0,625.0868556847455 618.0,613.6506801527958 622.0,596.4558055206641 626.0,581.7618132854982 630.0,577.6072658469097 634.0,580.1167933691868 638.0,573.6580649523393 642.0,575.8585812961868 646.0,576.763485976211 650.0,590.8520075896068 654.0,574.4246079984597 658.0,559.2724387948228 662.0,552.6596025211646 666.0,547.2126115560133 670.0,540.5008787242906 674.0,543.5630377620411 678.0,548.458920171686 682.0,544.2771415285384 686.0,552.5019710037957 690.0,554.2903141533961 694.0,559.248019574893 698.0,552.2482746890355 702.0,557.4617415057893 706.0000000000001,571.1212323423516 710.0,541.4940824494707 714.0,544.4844512945385 718.0,538.6171830154918 722.0,541.0601700768616 726.0,541.7356742071456 730.0,544.5407128691687 734.0,546.9282660245417 737.9999999999999,544.7768307236558 742.0,550.2599689275904 746.0,564.6273515188477 750.0,560.2405858932892 754.0,569.472391159965 758.0,569.1338825213187 762.0,565.3007879322936 766.0,569.2566907152699 769.9999999999999,561.7122050111641 774.0,569.2473003420973 778.0,564.5093233715422 782.0000000000001,531.1874526360465 786.0,524.6721199020812 790.0,521.6651587741023 794.0,504.713931881568 798.0,505.9189599314326 802.0,506.4983131927503 806.0,476.5334067339056 810.0,477.6793246408569 813.9999999999999,478.53598902594723 818.0,469.08521277848877 822.0,480.45791654133654 826.0000000000001,448.0820084606619 830.0,462.93156490426344 834.0,487.144624529517 838.0,477.0608567250648 842.0,463.79848510460516 846.0,421.9133420359205 850.0,411.56247272504 854.0,357.42046679104794 858.0000000000001,323.61108562353957 862.0,293.46534739813404 866.0,334.27328507752446 870.0,330.68336326015714 874.0,350.16191357575366 878.0,324.90075573095265 882.0,380.2820174210855 886.0,363.89817156842776 889.9999999999999,389.4584665773318 894.0,381.23904546534163 898.0,364.083436644608 902.0000000000001,317.56450895289254 906.0,320.33638138715224 910.0,304.9685115812679 914.0,329.17668427137727 918.0,338.2054447985635 922.0,359.577671024437 926.0,365.51355053641663 930.0,382.34520005133453 933.9999999999999,349.31133804457096 938.0,348.45416926791665 942.0,356.00405861198016 946.0,429.55377206247056 950.0,402.6223970113956 954.0,397.54409761717847 958.0,408.96632177039146 962.0,416.2440592801754 966.0,424.16803222809483 970.0,410.51034088163976 974.0,394.9274814558184 978.0000000000001,414.2364529869025 982.0,414.0775900305207 986.0,381.29000222085824 990.0,389.32809782781277 994.0,366.4078983112749 998.0,353.9681078619826 1002.0,287.779898690878 1006.0,285.89252135514334 1009.9999999999999,244.73681692581602 1014.0,226.3982828035098 1018.0,221.20050123178277 1022.0000000000001,236.74078754791321 1026.0,246.70703408503488 1030.0,266.75391638098097 1034.0,266.95729734828655 1038.0,246.75363533650335 1042.0,252.8911218248843 1046.0,260.79147322176823 1050.0,297.1740168027537 1054.0,297.7524655051243 1058.0,301.9031294696276 1062.0,353.67400413451355 1066.0,346.1185226342103 1070.0,383.22596641944034 1074.0,366.3234414096287 1078.0,369.53236474733956 1082.0,393.73198789454335 1086.0,402.54127765654806 1090.0,406.4197160951556 1094.0,371.1725301673418 1098.0,370.4819778956685 1102.0,363.66853724116544 1106.0,289.53611025629885 1110.0,282.4016849287287 1114.0,275.7566113593992 1118.0,287.27636314140886 1122.0,267.0870664970956 1126.0,293.3984019596722 1130.0,296.8741336428246 1134.0,282.12912820422946 1138.0,261.8917132882034 1142.0,200.46396022920885 1146.0,180.4001195762055 1150.0,168.72636208768972 1154.0,183.49919087458954 1158.0,90.0 1162.0,137.0179930190618 1166.0,131.41873768093274 1170.0,134.0342332551811 1174.0,136.185372969612 1178.0,115.48235362720493 1182.0,149.73279158408968 1186.0,126.26599905861326 1190.0,105.34469652208986 1194.0,165.5204873960049 1198.0,183.70630544176265 1202.0,172.32533823135088 1206.0,215.8152844582691 1210.0,221.239689153366 1214.0,268.1190296187802 1218.0,270.0639810618803 1222.0,253.0486172971211 1226.0,247.4311852931467 1230.0,292.23226104815654 1234.0,281.7764289021925 1238.0,280.5976064479045 1242.0,259.0413569985581 1246.0,233.76061783783575 1250.0,275.8243588508752 1254.0,274.51289202889234 1258.0,369.20956745296814 1262.0,396.7043100757801 1266.0,397.04652185150746 1270.0,386.3564384459979 1274.0,370.55543562371065 1278.0,381.60136073726653 1282.0,368.4761122727219 1286.0,370.87100222003465 1290.0,380.37226014592653 1294.0,369.70968358984567 1298.0,348.3394896665788 1302.0,339.2742429846076 1306.0,354.3083395434592 1310.0,333.46991825389455" fill="none" stroke="#0f766e" stroke-width="2.5"><title>budgeted_static_50_50_rebalance | end=2026-05-06 | return=464.42%</title></polyline>
<polyline points="90.0,709.677245985381 94.0,709.5889160707113 98.0,709.7116763620088 102.0,709.2859339308322 106.0,708.1333401400486 110.0,706.9154801731296 114.0,707.1455721118956 118.0,706.8368548429701 122.0,707.1922670689274 126.0,706.5546839116874 130.0,708.0088974919221 134.0,707.4638991953783 138.0,708.6418413007788 142.0,707.4085723591737 146.0,707.9432028007823 150.0,706.2587924708729 154.0,704.7358518047641 158.0,704.4284750886727 162.0,703.1024238752482 166.0,699.308056957341 170.0,696.7532985793223 174.0,692.4111872697094 178.0,690.835907774961 182.0,692.4013815798518 186.0,687.2491455241426 190.0,687.5058502552225 194.0,675.6798748139639 198.0,650.4833300458826 202.0,653.0551454719423 206.0,645.5222537574502 210.0,655.3236901694133 214.0,632.0629472197863 218.0,622.2386587748458 222.0,611.124166863614 226.0,621.2888685688731 230.0,622.6461178164575 234.0,608.9894915254799 238.0,604.900085845982 242.0,619.8620744373329 246.0,601.5133743848392 250.0,602.8426715111798 254.0,580.162848052807 258.0,591.7710060606057 262.0,577.9638063323113 266.0,551.5123410059371 270.0,551.1811000409365 274.0,603.7928340996334 278.0,588.1404346716815 282.0,595.4077717252497 286.0,598.3743851339983 290.0,604.3299100719735 294.0,622.3022719660046 298.0,610.9737918757614 302.0,611.3392994609229 306.0,623.094404906337 310.0,624.0299707622225 314.0,601.8448617828957 318.0,587.8945588274125 322.0,563.5702618885177 326.0,570.0282730459301 330.0,555.3338977439037 334.0,535.4236754273385 338.0,551.1744828930741 342.0,543.5426984544174 346.0,569.3588445582252 350.0,580.6573330836858 354.0,529.7545865155887 358.0,524.8742465754153 362.0,492.50877793842983 366.0,512.7483225466613 370.0,486.1463494508271 374.0,482.1565196744399 378.0,498.50631257838154 382.0,504.0050451032868 386.0,495.8115941374656 390.0,510.41739882695333 394.0,523.764793209117 398.00000000000006,525.2653759623211 402.0,537.9495340791376 406.0,545.7997441011314 410.0,549.202425635794 413.99999999999994,561.0135318484761 418.0,586.8313492832445 422.0,580.7287366160423 426.0,550.258394557794 429.99999999999994,554.7338228724159 434.0,583.7659219865196 438.0,559.3123928872567 442.0,569.9528507525242 446.0,570.2553688899513 450.0,558.3175064085533 454.0,538.3782367847496 458.00000000000006,553.8938682376927 462.0,560.0475548672079 466.0,560.8225490339698 470.0,571.7541696816721 474.00000000000006,569.1725726926555 478.0,622.1428658805163 482.0,628.1664964657704 486.0,625.1168154002197 489.99999999999994,628.6829327208478 494.0,628.6109420150249 498.0,669.0613535159387 502.0,683.2817125893841 506.0,680.8439865284503 510.0,675.9308394306463 514.0,679.9627370228113 518.0,653.3589940908964 522.0,648.7326651095464 526.0,649.9093645857639 530.0,635.9626037831797 534.0,638.5369369752252 538.0,652.1705458294119 542.0,660.5814654467526 546.0,659.1671182920678 550.0,656.0846424017305 554.0,679.4494540001572 558.0,672.4737568634011 562.0,669.5919303986326 566.0,675.1906967273969 570.0,675.7267114118354 574.0,657.8874287631259 578.0,661.9356058030361 582.0,693.6676459444735 586.0,686.1343829856708 590.0,687.7743503864534 594.0,680.9298895315013 598.0,684.8120979027176 602.0,678.4974819408865 606.0,685.680613466332 610.0,687.6458807851059 614.0,683.6481785778504 618.0,674.2963783840293 622.0,660.7596767270845 626.0,649.134544324738 630.0,645.8172991836321 634.0,647.6472638840117 638.0,642.5785411549372 642.0,644.479655647309 646.0,645.0436761145912 650.0,656.8092990270432 654.0,643.2794018511896 658.0,630.9343750115804 662.0,625.4263113226122 666.0,620.5934069520893 670.0,615.1099015191808 674.0,617.5573033843558 678.0,621.8279869505101 682.0,618.2385372166185 686.0,625.2725243238484 690.0,626.7421147006407 694.0,630.5074965385697 698.0,625.1183249203683 702.0,628.9086381765412 706.0000000000001,638.7208812973863 710.0,618.2891614237863 714.0,620.3963942053352 718.0,616.5337328920068 722.0,618.1090862417276 726.0,618.4865446843488 730.0,620.1645981324687 734.0,621.5974023444226 737.9999999999999,620.3508475794491 742.0,623.4969387012002 746.0,631.6315495753634 750.0,629.1472290839064 754.0,634.4648128155237 758.0,634.3053765757919 762.0,632.0720106828255 766.0,634.4106981120425 769.9999999999999,629.8878165355926 774.0,634.5140183200532 778.0,631.6412903660613 782.0000000000001,610.6504408351211 786.0,606.4683333485616 790.0,604.5541771499535 794.0,594.1272825788363 798.0,594.8196089325977 802.0,595.2235440161019 806.0,577.9262124896557 810.0,578.5275010108438 813.9999999999999,579.0841954241536 818.0,573.7480597105321 822.0,580.0663765742911 826.0000000000001,562.3640097132505 830.0,570.3461426776897 834.0,583.2834822267228 838.0,577.9713388798598 842.0,570.9697857249364 846.0,549.0193182409253 850.0,543.5772876048068 854.0,515.5949339465092 858.0000000000001,498.1715999013358 862.0,482.87571085109346 866.0,503.5237147853197 870.0,501.7527711662601 874.0,511.4228506284545 878.0,498.780258605992 882.0,526.3240271047573 886.0,518.08432314113 889.9999999999999,531.0043432064708 894.0,526.8151988671673 898.0,517.917029328862 902.0000000000001,493.56845791424143 906.0,494.99421224335924 910.0,487.178043686627 914.0,499.5179332346467 918.0,503.95661177321716 922.0,514.5597749078008 926.0,517.5671653697042 930.0,526.1007364437156 933.9999999999999,509.46144277210647 938.0,509.1568444691513 942.0,513.10314608198 946.0,551.4790644178759 950.0,537.2462426919069 954.0,534.595078582596 958.0,540.7671595610693 962.0,544.7617263027037 966.0,549.1958699182547 970.0,541.6366205514739 974.0,532.6240607168052 978.0000000000001,543.8809688220066 982.0,543.7795884533134 986.0,524.4666861330664 990.0,529.3474973938571 994.0,515.6308231923416 998.0,508.1137904025135 1002.0,467.121236597146 1006.0,466.5544894278155 1009.9999999999999,439.5396088039377 1014.0,428.1787664194351 1018.0,425.33230652026486 1022.0000000000001,434.7578313655822 1026.0,440.65989561270743 1030.0,451.7245604432811 1034.0,451.9462158526605 1038.0,440.703135140722 1042.0,444.84276498705293 1046.0,449.60470719125857 1050.0,470.5225149386421 1054.0,471.0527430698038 1058.0,473.44006921119353 1062.0,503.97405316457366 1066.0,500.2486279731198 1070.0,522.9780714486398 1074.0,512.430044696707 1078.0,514.5832233347501 1082.0,530.0999135680854 1086.0,536.2196769333693 1090.0,539.294913803114 1094.0,516.1464816215877 1098.0,515.746804599822 1102.0,511.36588914433287 1106.0,456.48667991568965 1110.0,452.79159252849433 1114.0,447.01843103695313 1118.0,455.15662969965666 1122.0,440.25216358679023 1126.0,460.47062413643 1130.0,464.4202422864676 1134.0,452.68103739554385 1138.0,436.52479062656744 1142.0,386.7559952588687 1146.0,369.25819375725507 1150.0,358.60272572470427 1154.0,369.3552473569431 1158.0,298.6711298618319 1162.0,330.88218614490074 1166.0,325.3581203827633 1170.0,327.4627361803305 1174.0,329.80110787034596 1178.0,316.4301810578927 1182.0,338.3537065017953 1186.0,324.5623259349398 1190.0,312.43367975328965 1194.0,347.0773849666823 1198.0,357.7138573552457 1202.0,351.1703954368606 1206.0,377.0759889757752 1210.0,379.9167054130368 1214.0,407.1587250610011 1218.0,408.13257402461164 1222.0,397.92209218585447 1226.0,393.8320843553589 1230.0,421.603846793352 1234.0,415.0939053608106 1238.0,414.2753924576587 1242.0,400.9697815358366 1246.0,385.6604871897494 1250.0,411.8326419738649 1254.0,410.8738650317984 1258.0,470.708210272722 1262.0,487.8431381524233 1266.0,487.8811829191974 1270.0,480.81877381333004 1274.0,471.10330982122593 1278.0,478.24979272282707 1282.0,469.0656053148111 1286.0,470.8376435250347 1290.0,476.8115265511234 1294.0,469.8572587399823 1298.0,455.09740593280196 1302.0,449.32230679367126 1306.0,459.9130964035619 1310.0,445.7027081876745" fill="none" stroke="#9333ea" stroke-width="2.5"><title>budgeted_drawdown_tilt_rebalance | end=2026-05-06 | return=325.87%</title></polyline>
<polyline points="90.0,709.677245985381 94.0,709.5889160707113 98.0,709.7116763620088 102.0,709.2859339308322 106.0,707.8643777372381 110.0,706.1352438107504 114.0,706.4999007706319 118.0,705.9619919293984 122.0,706.6411592097807 126.0,705.3601556265922 130.0,708.6014132475824 134.0,707.5551738377053 138.0,709.6500065819585 142.0,707.6839225049985 146.0,708.4993931665045 150.0,706.1383676224763 154.0,703.9736900673912 158.0,703.516853910024 162.0,701.7008439875785 166.0,696.7213532836217 170.0,693.031509557107 174.0,687.1739058979184 178.0,684.9570649003889 182.0,687.2608581499063 186.0,679.3175064069137 190.0,679.0752115913202 194.0,660.3156662307146 198.0,621.1286353557606 202.0,624.6480967770605 206.0,614.6339245024589 210.0,631.4090423921504 214.0,594.0062042045746 218.0,576.410378131333 222.0,556.3864539681126 226.0,573.5667640968817 230.0,575.5891521690553 234.0,552.1025066919918 238.0,544.6561099002964 242.0,571.0858718354319 246.0,539.1906518905183 250.0,542.1419002579288 254.0,502.23040463164654 258.0,524.1580709743444 262.0,499.8981741606972 266.0,451.74759951975494 270.0,451.6613428854132 274.0,552.3775769754446 278.0,522.8495193461149 282.0,536.4141430069226 286.0,541.9610915059064 290.0,552.9863385146795 294.0,585.5985921872817 298.0,565.5521565652163 302.0,566.2680717637444 306.0,586.33572932507 310.0,587.8882565098776 314.0,552.1116918032844 318.0,529.9039571935393 322.0,491.94625172724943 326.0,502.0378074680474 330.0,479.987271285337 334.0,447.81489593963255 338.0,472.4223317507908 342.0,461.0775253958153 346.0,501.33836337858236 350.0,518.7150254847081 354.0,445.6593468547605 358.0,438.986030382644 362.0,388.72469036042503 366.0,419.7871965388331 370.0,374.58734210838657 374.0,368.2908719814544 378.0,396.43778162569356 382.0,405.5664740860039 386.0,390.86178072728706 390.0,415.175707133109 394.0,439.09904750369543 398.00000000000006,441.73696725761613 402.0,464.13055485313555 406.0,476.50255602817566 410.0,483.36310956552444 413.99999999999994,503.54732717602826 418.0,547.307236975571 422.0,536.3780902088827 426.0,486.9127093910629 429.99999999999994,494.4094939337499 434.0,540.372899491647 438.0,503.00346684162156 442.0,519.551601392668 446.0,519.6281629367677 450.0,501.5055244081651 454.0,472.27638059929893 458.00000000000006,494.3619998566835 462.0,502.66520869030626 466.0,504.05496580102306 470.0,519.4367268064987 474.00000000000006,515.7540760287345 478.0,589.2958767392001 482.0,598.221933410652 486.0,594.390847390648 489.99999999999994,599.6931334030354 494.0,599.8096855133729 498.0,649.1722569307469 502.0,665.9224581909464 506.0,663.089164648619 510.0,657.5392806873679 514.0,661.9821886163769 518.0,633.2038241961752 522.0,628.3567453688458 526.0,629.6203966156586 530.0,614.7539154661316 534.0,617.517162253226 538.0,631.9935411531422 542.0,640.8743418952954 546.0,639.3370337334159 550.0,636.169170171884 554.0,660.6334050970038 558.0,653.3892356107905 562.0,650.4470500413573 566.0,656.2268196026087 570.0,656.7892947956652 574.0,638.153533253797 578.0,642.3416013317161 582.0,675.265234278673 586.0,667.4102875359437 590.0,669.1361909877031 594.0,661.9838045151879 598.0,666.0409457871214 602.0,659.5068569344407 606.0,666.9575903500815 610.0,668.993182243707 614.0,664.8104831791773 618.0,655.0841228738425 622.0,641.1764242461809 626.0,629.2392380894315 630.0,625.8317704631531 634.0,627.6513394328808 638.0,622.4952071236165 642.0,624.4843467186929 646.0,624.9977646417434 650.0,637.1519831465092 654.0,623.2437758453239 658.0,610.6293501182533 662.0,604.9588284743897 666.0,599.8191548868198 670.0,594.2802712602913 674.0,596.7031572530811 678.0,601.1627352225637 682.0,597.4581784524258 686.0,604.6855222352303 690.0,606.2719710561354 694.0,610.5524082079138 698.0,604.3524835610519 702.0,608.9460881221474 706.0000000000001,620.9621528982996 710.0,594.9017511197154 714.0,597.5155699547365 718.0,592.4634110638137 722.0,594.540396949564 726.0,595.2814921220233 730.0,597.8326705574042 734.0,599.8512888392104 737.9999999999999,597.8994369033189 742.0,602.7620726832268 746.0,615.4703275025146 750.0,611.4788493673298 754.0,619.6536694376376 758.0,619.0409774835707 762.0,615.4782372659479 766.0,619.0302099258106 769.9999999999999,612.2830339096145 774.0,618.601785016668 778.0,613.8706692874835 782.0000000000001,584.1917011702388 786.0,578.6333405475075 790.0,576.3121121847615 794.0,562.0521259701709 798.0,563.3898735842139 802.0,563.3195966010835 806.0,536.0061517405785 810.0,537.7811153659143 813.9999999999999,537.4876943704602 818.0,531.1909565872168 822.0,539.7286846118775 826.0000000000001,513.1095423344673 830.0,527.690255546671 834.0,547.630519625263 838.0,538.1465706757657 842.0,526.8611056844645 846.0,489.7738091181416 850.0,481.9020306459596 854.0,433.0718052603564 858.0000000000001,404.235068928808 862.0,376.24593673344094 866.0,412.23680166097023 870.0,408.4937588422244 874.0,426.11720411206704 878.0,403.15275153467275 882.0,452.9788901528421 886.0,438.15331078846924 889.9999999999999,462.17625363418387 894.0,453.730045882175 898.0,436.7867395096425 902.0000000000001,399.25027516055036 906.0,402.5763531308473 910.0,388.07691178020326 914.0,408.7797784516706 918.0,418.17627740039273 922.0,437.60106360406417 926.0,442.7351011004614 930.0,457.70448290142804 933.9999999999999,427.59182428086086 938.0,426.2434616577188 942.0,432.84341962121715 946.0,498.3395218475572 950.0,474.45311547400615 954.0,468.84010200632866 958.0,479.28699992844554 962.0,485.72693199922753 966.0,492.27915882316734 970.0,478.374010549852 974.0,465.5822774881266 978.0000000000001,482.04656533611757 982.0,481.9811705988483 986.0,451.6261076477534 990.0,458.35097440842026 994.0,436.2350430854461 998.0,423.9372334893798 1002.0,361.1187956924386 1006.0,355.568782368463 1009.9999999999999,324.3435631413174 1014.0,308.1128539393267 1018.0,301.6362657569536 1022.0000000000001,313.8521762501062 1026.0,321.8778642728949 1030.0,341.6901660661306 1034.0,341.1322043174283 1038.0,320.5407645203857 1042.0,321.57596517314533 1046.0,327.245541512845 1050.0,361.8089182125494 1054.0,360.8255597117562 1058.0,365.28800447250893 1062.0,417.83232684491713 1066.0,404.6355567743722 1070.0,440.0752276474208 1074.0,423.8077565999867 1078.0,426.09380041897185 1082.0,449.30016656961044 1086.0,455.71360147958126 1090.0,456.8846040383504 1094.0,417.9885671374885 1098.0,416.90803576503737 1102.0,408.0802508160785 1106.0,344.8850596226679 1110.0,331.4745230054807 1114.0,329.1575871514501 1118.0,341.6679754234775 1122.0,321.7009729747724 1126.0,345.98756460423414 1130.0,345.2357861320961 1134.0,332.57661253519626 1138.0,314.7338915030263 1142.0,260.2100985711152 1146.0,245.19846744992162 1150.0,237.54060934206126 1154.0,252.10995239538272 1158.0,169.10246738945875 1162.0,215.93203036358892 1166.0,213.83819958000078 1170.0,215.660966285109 1174.0,215.86980466673805 1178.0,196.1328713250948 1182.0,228.2491048206482 1186.0,204.36922889933732 1190.0,183.18243575661722 1194.0,243.48149624431386 1198.0,261.4545092084012 1202.0,250.01043887735887 1206.0,292.4588344000885 1210.0,298.3143501051489 1214.0,345.255075897097 1218.0,347.4117215121863 1222.0,330.799836047605 1226.0,326.2584453853954 1230.0,368.84131345807623 1234.0,358.93718599153226 1238.0,357.92861297234606 1242.0,337.3594963080073 1246.0,312.8675936220026 1250.0,352.7645307372048 1254.0,351.6892403834544 1258.0,440.359303714636 1262.0,466.4288125247292 1266.0,466.95305288651645 1270.0,457.2288634613284 1274.0,442.03699002638314 1278.0,452.3012379869585 1282.0,441.0119169750016 1286.0,442.9511898052018 1290.0,452.12630864429946 1294.0,442.1613640164768 1298.0,423.3280667655566 1302.0,414.488201827894 1306.0,427.50984631555605 1310.0,408.2736136802672" fill="none" stroke="#92400e" stroke-width="2.5"><title>budgeted_btc_defensive_eth_aggressive | end=2026-05-06 | return=372.08%</title></polyline>
</svg>