<svg xmlns="http://www.w3.org/2000/svg" width="1400" height="800">
<rect width="1400" height="800" fill="#f8fafc"/>
<text x="700.0" y="42" text-anchor="middle" font-family="monospace" font-size="24" fill="#0f172a">Portfolio Value Over Time | start=2025-10-01 | interval=1d</text>
<line x1="90" y1="710" x2="1310" y2="710" stroke="#334155" stroke-width="2"/>
<line x1="90" y1="90" x2="90" y2="710" stroke="#334155" stroke-width="2"/>
<line x1="90.0" y1="710" x2="90.0" y2="90" stroke="#cbd5e1" stroke-width="1"/>
<text x="90.0" y="734" text-anchor="middle" font-family="monospace" font-size="11" fill="#475569">2025-10-01</text>
<line x1="90" y1="710.0" x2="1310" y2="710.0" stroke="#cbd5e1" stroke-width="1"/>
<text x="78" y="714.0" text-anchor="end" font-family="monospace" font-size="12" fill="#475569">5984</text>
<line x1="334.0" y1="710" x2="334.0" y2="90" stroke="#cbd5e1" stroke-width="1"/>
<text x="334.0" y="734" text-anchor="middle" font-family="monospace" font-size="11" fill="#475569">2025-11-14</text>
<line x1="90" y1="586.0" x2="1310" y2="586.0" stroke="#cbd5e1" stroke-width="1"/>
<text x="78" y="590.0" text-anchor="end" font-family="monospace" font-size="12" fill="#475569">6815</text>
<line x1="578.0" y1="710" x2="578.0" y2="90" stroke="#cbd5e1" stroke-width="1"/>
<text x="578.0" y="734" text-anchor="middle" font-family="monospace" font-size="11" fill="#475569">2025-12-28</text>
<line x1="90" y1="462.0" x2="1310" y2="462.0" stroke="#cbd5e1" stroke-width="1"/>
<text x="78" y="466.0" text-anchor="end" font-family="monospace" font-size="12" fill="#475569">7645</text>
<line x1="822.0" y1="710" x2="822.0" y2="90" stroke="#cbd5e1" stroke-width="1"/>
<text x="822.0" y="734" text-anchor="middle" font-family="monospace" font-size="11" fill="#475569">2026-02-10</text>
<line x1="90" y1="338.0" x2="1310" y2="338.0" stroke="#cbd5e1" stroke-width="1"/>
<text x="78" y="342.0" text-anchor="end" font-family="monospace" font-size="12" fill="#475569">8476</text>
<line x1="1066.0" y1="710" x2="1066.0" y2="90" stroke="#cbd5e1" stroke-width="1"/>
<text x="1066.0" y="734" text-anchor="middle" font-family="monospace" font-size="11" fill="#475569">2026-03-26</text>
<line x1="90" y1="214.0" x2="1310" y2="214.0" stroke="#cbd5e1" stroke-width="1"/>
<text x="78" y="218.0" text-anchor="end" font-family="monospace" font-size="12" fill="#475569">9306</text>
<line x1="1310.0" y1="710" x2="1310.0" y2="90" stroke="#cbd5e1" stroke-width="1"/>
<text x="1310.0" y="734" text-anchor="middle" font-family="monospace" font-size="11" fill="#475569">2026-05-09</text>
<line x1="90" y1="90.0" x2="1310" y2="90.0" stroke="#cbd5e1" stroke-width="1"/>
<text x="78" y="94.0" text-anchor="end" font-family="monospace" font-size="12" fill="#475569">10137</text>
<text x="700.0" y="782" text-anchor="middle" font-family="monospace" font-size="16" fill="#0f172a">time</text>
<text x="24" y="400.0" transform="rotate(-90 24,400.0)" text-anchor="middle" font-family="monospace" font-size="16" fill="#0f172a">portfolio_value_usd</text>
<line x1="970" y1="80" x2="988" y2="80" stroke="#0f766e" stroke-width="3"/>
<text x="998" y="84" font-family="monospace" font-size="12" fill="#0f172a">budgeted_static_50_50_rebalance</text>
<line x1="970" y1="104" x2="988" y2="104" stroke="#9333ea" stroke-width="3"/>
<text x="998" y="108" font-family="monospace" font-size="12" fill="#0f172a">budgeted_drawdown_tilt_rebalance</text>
<line x1="970" y1="128" x2="988" y2="128" stroke="#92400e" stroke-width="3"/>
<text x="998" y="132" font-family="monospace" font-size="12" fill="#0f172a">budgeted_btc_defensive_eth_aggressive</text>
<polyline points="90.0,110.43743464231181 95.54545454545455,109.57727196578958 101.0909090909091,108.83865679680923 106.63636363636364,109.08871305109642 112.18181818181819,108.05163746424591 117.72727272727272,103.74299790988573 123.27272727272728,112.31603683920457 128.8181818181818,108.1501134414035 134.36363636363637,115.04185284761581 139.9090909090909,145.79838079570277 145.45454545454544,152.5444082105787 151.0,127.07911386716341 156.54545454545456,122.31163890807227 162.0909090909091,132.99713331782573 167.63636363636363,145.8657092643026 173.1818181818182,157.60027090575636 178.72727272727272,166.0000639993076 184.27272727272725,159.92171885731614 189.8181818181818,148.68638917803526 195.36363636363637,143.4107093405487 200.9090909090909,159.31324264473415 206.45454545454544,168.02614720534893 212.0,154.37706943149215 217.54545454545453,143.3096996906171 223.0909090909091,139.0469872605139 228.63636363636363,105.55643630932639 234.1818181818182,111.80817934949016 239.72727272727272,133.21110194509765 245.27272727272725,155.09322598427752 250.8181818181818,175.60574737138484 256.3636363636364,164.2455001771773 261.9090909090909,158.23896909777181 267.45454545454544,151.0514391898323 273.0,215.35596338402303 278.5454545454545,289.01214898930067 284.0909090909091,256.01490394420085 289.6363636363636,285.86286766080156 295.1818181818182,257.57724862178924 300.72727272727275,267.715967349247 306.27272727272725,227.98712593686685 311.8181818181818,223.78752189215152 317.3636363636364,261.5654678579717 322.9090909090909,269.03408427230494 328.4545454545455,307.0603332322132 334.0,351.47734615644106 339.54545454545456,337.6011875665894 345.09090909090907,355.7094782496844 350.6363636363636,376.11264765101214 356.1818181818182,357.88142724112487 361.7272727272727,380.13795317234957 367.27272727272725,434.39692044888324 372.8181818181818,451.94704082836455 378.3636363636364,453.2671694024228 383.9090909090909,437.38913038851166 389.45454545454544,407.21978824146015 395.0,411.2617665341204 400.5454545454545,384.7830733843038 406.0909090909091,382.11907937289857 411.6363636363636,381.72480005565507 417.1818181818182,388.31647532459755 422.7272727272727,390.45427940410156 428.2727272727273,440.53747872930137 433.8181818181818,384.87588648822367 439.3636363636364,344.9249446314797 444.9090909090909,360.2834159536704 450.4545454545455,391.1734513067463 456.0,389.1068785039216 461.54545454545456,379.96513934786975 467.09090909090907,369.1147679598811 472.6363636363637,329.6541482011115 478.1818181818182,332.0741510092514 483.72727272727275,342.5381635075623 489.27272727272725,377.0382504478126 494.81818181818187,372.6621130501929 500.3636363636364,391.1764087165453 505.9090909090909,415.032214522451 511.45454545454544,407.9555917440886 517.0,435.84342176027627 522.5454545454545,440.5753156373039 528.090909090909,404.31957327350773 533.6363636363636,403.33475331838736 539.1818181818182,397.99155659508347 544.7272727272727,397.4860654538794 550.2727272727273,410.02254112109176 555.8181818181818,411.74690910890246 561.3636363636364,420.39361440300297 566.909090909091,416.30135134263026 572.4545454545455,410.48777086525183 578.0,409.78238697076824 583.5454545454545,415.95261656491766 589.0909090909091,403.87694557739513 594.6363636363636,409.0712312267392 600.1818181818181,397.6327366577164 605.7272727272727,372.67302550043706 611.2727272727273,369.3293452101924 616.8181818181819,362.0434400770271 622.3636363636364,337.48234780556993 627.9090909090909,327.7357521195322 633.4545454545454,359.7932089513484 639.0,370.2679803138098 644.5454545454545,375.8978813873699 650.0909090909091,376.8575364870046 655.6363636363636,368.9226183463792 661.1818181818182,371.2741998004743 666.7272727272727,314.97544348514555 672.2727272727273,302.1429217172279 677.8181818181818,314.72817559062094 683.3636363636364,318.61121279397094 688.9090909090909,318.4942019130927 694.4545454545455,330.14145549092586 700.0,349.8972212721054 705.5454545454545,409.3926682171621 711.090909090909,397.5011182881678 716.6363636363636,401.50023274513705 722.1818181818182,400.93177938685534 727.7272727272727,403.5501622380681 733.2727272727273,436.70283476185654 738.8181818181819,411.14764349002945 744.3636363636364,392.46072049886436 749.9090909090909,394.57594461750875 755.4545454545454,446.7909685280803 761.0,466.06333288693787 766.5454545454546,532.1933102794999 772.0909090909091,568.3282545260977 777.6363636363636,547.6642855818491 783.1818181818182,580.3505758913614 788.7272727272727,607.126322059117 794.2727272727273,707.841607189738 799.8181818181818,632.1113543545059 805.3636363636363,635.1399911533239 810.909090909091,629.4448817643002 816.4545454545455,628.0621713832169 822.0,647.0512112665333 827.5454545454545,668.5494898417211 833.0909090909091,671.7865245674222 838.6363636363636,643.1594864332843 844.1818181818181,632.4463247684314 849.7272727272726,655.5268241180145 855.2727272727274,650.4173669702843 860.8181818181819,658.588104774939 866.3636363636364,669.3603494419989 871.9090909090909,667.5203283112575 877.4545454545455,659.2963562514487 883.0,658.7174270845139 888.5454545454545,662.8805272081458 894.090909090909,693.5109443155073 899.6363636363637,696.93312665966 905.1818181818182,645.875760050364 910.7272727272727,652.928764810742 916.2727272727273,676.0535460415633 921.8181818181818,665.0728503588734 927.3636363636364,675.0207619482901 932.9090909090909,646.0411277962181 938.4545454545454,655.2739903296474 944.0,611.1401053185796 949.5454545454546,628.5983949038887 955.0909090909091,657.107823607743 960.6363636363636,662.8297420286758 966.1818181818181,674.3873796964546 971.7272727272727,653.2346043153652 977.2727272727273,638.8035791978323 982.8181818181818,635.2159663230381 988.3636363636364,630.2918218874764 993.909090909091,625.3446339566553 999.4545454545455,623.2734923532716 1005.0,602.75468956398 1010.5454545454545,566.0770348794649 1016.090909090909,576.2236191512153 1021.6363636363636,607.2612016068298 1027.1818181818182,623.9137359599623 1032.7272727272727,619.7347895085501 1038.2727272727273,637.091944038667 1043.818181818182,647.2712534448111 1049.3636363636365,616.9116646857879 1054.909090909091,618.1017153834712 1060.4545454545455,612.268534175978 1066.0,641.7005595464449 1071.5454545454545,664.2476990902423 1077.090909090909,664.2060655919215 1082.6363636363635,667.5838445509013 1088.1818181818182,657.3237753948305 1093.7272727272727,637.8340056102903 1099.2727272727273,632.9353905694966 1104.8181818181818,651.7032365027127 1110.3636363636363,651.850745732092 1115.909090909091,648.3925559579399 1121.4545454545455,632.9365692824498 1127.0,633.9970353710396 1132.5454545454545,598.4080464689666 1138.0909090909092,610.060722972013 1143.6363636363637,606.3859550471351 1149.1818181818182,591.7868158602586 1154.7272727272727,585.4314606983687 1160.2727272727273,611.5404433350528 1165.8181818181818,565.7690927671467 1171.3636363636363,574.126067880793 1176.9090909090908,565.1929211376045 1182.4545454545455,565.2908036561278 1188.0,544.6351132860779 1193.5454545454545,561.9082437505233 1199.090909090909,584.883662167694 1204.6363636363637,566.706342849644 1210.1818181818182,562.2279392151781 1215.7272727272727,545.5432880526852 1221.2727272727273,551.7565308059039 1226.8181818181818,558.2819912898339 1232.3636363636365,556.682149039601 1237.909090909091,543.840886335118 1243.4545454545455,560.6337386742717 1249.0,568.1673154247683 1254.5454545454545,576.6858029904357 1260.090909090909,573.0825945210125 1265.6363636363635,557.3089027002942 1271.1818181818182,551.7985576222754 1276.7272727272727,551.6000704698629 1282.2727272727273,541.2485995742611 1287.8181818181818,533.7584214647493 1293.3636363636363,532.480592363015 1298.909090909091,548.8399251353234 1304.4545454545455,545.4360762596588 1310.0,540.1908286220065" fill="none" stroke="#0f766e" stroke-width="2.5"><title>budgeted_static_50_50_rebalance | end=2026-05-09 | return=-28.79%</title></polyline>
<polyline points="90.0,110.43743464231181 95.54545454545455,110.43743464231181 101.0909090909091,110.43743464231181 106.63636363636364,110.43743464231181 112.18181818181819,110.43743464231181 117.72727272727272,110.43743464231181 123.27272727272728,110.43743464231181 128.8181818181818,110.43743464231181 134.36363636363637,110.43743464231181 139.9090909090909,110.43743464231181 145.45454545454544,111.00417584088234 151.0,106.89175098484702 156.54545454545456,106.15079523402028 162.0909090909091,107.5533802913202 167.63636363636363,109.13026774936145 173.1818181818182,111.043799573564 178.72727272727272,112.74950608896484 184.27272727272725,111.2488982070181 189.8181818181818,108.14820487086956 195.36363636363637,106.72821444398335 200.9090909090909,111.87364287604078 206.45454545454544,114.95090086897096 212.0,110.11784171271324 217.54545454545453,105.7802863937975 223.0909090909091,104.10660022315778 228.63636363636363,90.0 234.1818181818182,92.54726923590283 239.72727272727272,101.03251942784595 245.27272727272725,109.5395089308821 250.8181818181818,118.03591583249784 256.3636363636364,113.29318527885766 261.9090909090909,110.6702487519409 267.45454545454544,107.42190119035706 273.0,137.37996090438583 278.5454545454545,174.03359314510487 284.0909090909091,156.03158085374878 289.6363636363636,173.52429857047207 295.1818181818182,155.33301603676966 300.72727272727275,162.15099289212185 306.27272727272725,132.5352228658055 311.8181818181818,129.99309203683868 317.3636363636364,161.09147203617852 322.9090909090909,166.8988081392307 328.4545454545455,202.70082926750337 334.0,243.99873506738322 339.54545454545456,229.80813651132098 345.09090909090907,249.24709944558805 350.6363636363636,271.5301244832354 356.1818181818182,249.19337910839835 361.7272727272727,276.3878024437744 367.27272727272725,341.83504409376155 372.8181818181818,363.5252477576157 378.3636363636364,364.70007291058005 383.9090909090909,346.1496376094577 389.45454545454544,306.1769368124055 395.0,310.2483992585251 400.5454545454545,278.09786140913195 406.0909090909091,275.7464711247173 411.6363636363636,274.5020504830324 417.1818181818182,283.68208849079036 422.7272727272727,285.9376448467756 428.2727272727273,349.8382036973849 433.8181818181818,279.5311653755606 439.3636363636364,226.61673052049264 444.9090909090909,246.09342341723453 450.4545454545455,285.2806114215715 456.0,282.23087479333435 461.54545454545456,271.1266246774352 467.09090909090907,256.18306481396314 472.6363636363637,203.55669718030538 478.1818181818182,206.04181185655546 483.72727272727275,221.5156624664483 489.27272727272725,267.3148862212093 494.81818181818187,261.0943232794762 500.3636363636364,284.519369476386 505.9090909090909,315.93789048854956 511.45454545454544,307.83365771821224 517.0,345.10166654214316 522.5454545454545,350.80042403885216 528.090909090909,303.00684985702094 533.6363636363636,301.92074190051255 539.1818181818182,294.7815615669284 544.7272727272727,293.9561115203708 550.2727272727273,310.19396854694594 555.8181818181818,312.871737205845 561.3636363636364,324.5229422327554 566.909090909091,318.89903706676637 572.4545454545455,311.35460972708825 578.0,310.4487283091294 583.5454545454545,318.1599079482489 589.0909090909091,302.7852633002881 594.6363636363636,308.93931212954317 600.1818181818181,294.40454534628725 605.7272727272727,260.71518674013356 611.2727272727273,256.83458580647374 616.8181818181819,247.71699010166736 622.3636363636364,216.12613567667944 627.9090909090909,202.14217242171532 633.4545454545454,244.2494746675768 639.0,258.7303280015545 644.5454545454545,266.0168341975315 650.0909090909091,267.201960509595 655.6363636363636,256.62283149888316 661.1818181818182,260.36882413949473 666.7272727272727,186.29735140223988 672.2727272727273,170.2292311460651 677.8181818181818,186.2175168068261 683.3636363636364,191.5994365609555 688.9090909090909,190.91104055040887 694.4545454545455,205.42785235005078 700.0,231.9491900466868 705.5454545454545,310.472459994723 711.090909090909,295.04825890815044 716.6363636363636,300.8378160091768 722.1818181818182,300.04885254611634 727.7272727272727,303.2315916845017 733.2727272727273,346.78473745396525 738.8181818181819,312.87463428694446 744.3636363636364,287.59068284357585 749.9090909090909,290.6431712548217 755.4545454545454,358.33657800398765 761.0,385.0654278265184 766.5454545454546,471.36292450374003 772.0909090909091,520.153638858258 777.6363636363636,492.7667535070789 783.1818181818182,536.5006263827881 788.7272727272727,572.5499422653288 794.2727272727273,710.0 799.8181818181818,604.8320309341345 805.3636363636363,606.3979211788354 810.909090909091,599.6183922605114 816.4545454545455,596.7387223392816 822.0,625.5506049604802 827.5454545454545,657.4421764026686 833.0909090909091,660.6105389575256 838.6363636363636,618.5990815053065 844.1818181818181,602.878428485249 849.7272727272726,640.0946807877406 855.2727272727274,631.299858741819 860.8181818181819,641.3464573647404 866.3636363636364,657.0548949310668 871.9090909090909,655.5410606834945 877.4545454545455,644.2137195205854 883.0,643.1035103950618 888.5454545454545,649.3846932334299 894.090909090909,694.0154537080721 899.6363636363637,698.304128251118 905.1818181818182,620.512998731276 910.7272727272727,631.3951432177932 916.2727272727273,667.1242186077559 921.8181818181818,651.2000164739889 927.3636363636364,665.0172616138954 932.9090909090909,623.4251812562774 938.4545454545454,638.1743759437384 944.0,573.8415409242982 949.5454545454546,599.0528249587164 955.0909090909091,640.7004240731744 960.6363636363636,648.1513844778852 966.1818181818181,664.5284690456278 971.7272727272727,634.8747450998709 977.2727272727273,614.1736018467731 982.8181818181818,608.6124362025103 988.3636363636364,600.9305255785549 993.909090909091,593.4864408369617 999.4545454545455,590.7286245825934 1005.0,559.4978709347712 1010.5454545454545,501.175048776003 1016.090909090909,516.1882165551286 1021.6363636363636,562.9082775256642 1027.1818181818182,588.3230467301094 1032.7272727272727,582.6825062891056 1038.2727272727273,608.5662766482678 1043.818181818182,623.3335040052489 1049.3636363636365,578.8307917126872 1054.909090909091,579.9092657199491 1060.4545454545455,571.9166665043534 1066.0,616.2723471442143 1071.5454545454545,648.82541337102 1077.090909090909,648.6523560026536 1082.6363636363635,653.5251659027043 1088.1818181818182,637.7548923386245 1093.7272727272727,607.805713387129 1099.2727272727273,598.8309896410259 1104.8181818181818,628.3870364922886 1110.3636363636363,628.8395931191337 1115.909090909091,623.7084205915481 1121.4545454545455,601.4516872213778 1127.0,602.8794979668611 1132.5454545454545,549.0249768269459 1138.0909090909092,567.17625236351 1143.6363636363637,562.7783428617624 1149.1818181818182,540.5280281269188 1154.7272727272727,529.5681577980033 1160.2727272727273,568.8182886407176 1165.8181818181818,498.8500576018911 1171.3636363636363,512.8291373912466 1176.9090909090908,498.9624767443204 1182.4545454545455,500.08088433139324 1188.0,469.21900190358133 1193.5454545454545,495.77028666960103 1199.090909090909,530.7883803407509 1204.6363636363637,504.61033445264684 1210.1818181818182,498.1049022074873 1215.7272727272727,474.03566078376286 1221.2727272727273,485.2138459417273 1226.8181818181818,494.3609820626853 1232.3636363636365,492.0836571034307 1237.909090909091,472.3771091811369 1243.4545454545455,498.23045407072414 1249.0,508.50047532834424 1254.5454545454545,521.9018761592541 1260.090909090909,517.1415158412314 1265.6363636363635,494.87801700134867 1271.1818181818182,486.44208182548505 1276.7272727272727,485.73290461106774 1282.2727272727273,471.19644627996655 1287.8181818181818,461.02098886763275 1293.3636363636363,460.3169245058896 1298.909090909091,485.2605729746716 1304.4545454545455,479.69901002813936 1310.0,471.6878443561619" fill="none" stroke="#9333ea" stroke-width="2.5"><title>budgeted_drawdown_tilt_rebalance | end=2026-05-09 | return=-24.20%</title></polyline>
<polyline points="90.0,110.43743464231181 95.54545454545455,109.79231263491988 101.0909090909091,109.23835125818505 106.63636363636364,109.4258934489003 112.18181818181819,108.64808675876236 117.72727272727272,105.41660709299231 123.27272727272728,111.84638628998141 128.8181818181818,108.72194374163053 134.36363636363637,113.89074829628964 139.9090909090909,136.95814425735523 145.45454545454544,142.0176648185119 151.0,122.91869406095066 156.54545454545456,119.34308784163204 162.0909090909091,127.35720864894711 167.63636363636363,137.00864060880497 173.1818181818182,145.8095618398952 178.72727272727272,152.10940666005854 184.27272727272725,147.37294978013847 189.8181818181818,138.3712515731778 195.36363636363637,134.4304028775839 200.9090909090909,147.01006920145403 206.45454545454544,153.96505489868355 212.0,143.2362088832018 217.54545454545453,134.21648415289792 223.0909090909091,130.8472390327015 228.63636363636363,103.83628968922824 234.1818181818182,108.88344423209094 239.72727272727272,126.22822968963669 245.27272727272725,143.3520697321619 250.8181818181818,159.66606996769792 256.3636363636364,150.62484941181833 261.9090909090909,145.7926286214772 267.45454545454544,139.99481324951068 273.0,192.01643831407102 278.5454545454545,251.88704663015318 284.0909090909091,223.817596179482 289.6363636363636,250.11062921159868 295.1818181818182,224.32903332936218 300.72727272727275,234.06717628570635 306.27272727272725,196.53421809657493 311.8181818181818,191.52062193406778 317.3636363636364,230.16119891058145 322.9090909090909,238.28810133012206 328.4545454545455,276.5816152749792 334.0,323.02089294722396 339.54545454545456,308.8589826658523 345.09090909090907,327.3417332359086 350.6363636363636,348.509300767097 356.1818181818182,330.24756300067514 361.7272727272727,352.8273923106131 367.27272727272725,408.7357259131504 372.8181818181818,426.74154634284923 378.3636363636364,428.26687955426195 383.9090909090909,411.4807329386485 389.45454545454544,381.1916801379416 395.0,385.71420754139643 400.5454545454545,357.9694198029657 406.0909090909091,354.8469973769385 411.6363636363636,354.72085173371073 417.1818181818182,361.1867859266299 422.7272727272727,363.554311033442 428.2727272727273,414.87435594083 433.8181818181818,357.537162422957 439.3636363636364,317.29368745735553 444.9090909090909,333.09804796769566 450.4545454545455,364.89255911799853 456.0,362.9281347522705 461.54545454545456,353.31881368498426 467.09090909090907,342.5952645316031 472.6363636363637,302.89758878098485 478.1818181818182,305.6616685120336 483.72727272727275,315.5371457266386 489.27272727272725,350.54580344182926 494.81818181818187,346.2981293369323 500.3636363636364,365.6263868813184 505.9090909090909,389.95132379170263 511.45454545454544,382.16496356764065 517.0,410.34815187006905 522.5454545454545,415.4233433987014 528.090909090909,378.4753251741607 533.6363636363636,377.3721555563852 539.1818181818182,371.9717962877323 544.7272727272727,371.53131555442445 550.2727272727273,384.44239782227226 555.8181818181818,386.00979168865655 561.3636363636364,394.70295213704327 566.909090909091,390.64018008667506 572.4545454545455,384.65963680380594 578.0,383.92953038165876 583.5454545454545,390.41591500400835 589.0909090909091,377.85440702696803 594.6363636363636,383.4732081552901 600.1818181818181,371.56107591251816 605.7272727272727,346.49392865594046 611.2727272727273,342.8390115504238 616.8181818181819,335.1854697907041 622.3636363636364,309.78633424293247 627.9090909090909,300.38659805777814 633.4545454545454,333.12747577268846 639.0,343.48658369107216 644.5454545454545,349.2873498907313 650.0909090909091,350.3028370746096 655.6363636363636,342.2722753026836 661.1818181818182,344.36556608525245 666.7272727272727,286.9244855566541 672.2727272727273,273.44890052258216 677.8181818181818,286.5569917523141 683.3636363636364,290.3906697433868 688.9090909090909,290.5220987122863 694.4545454545455,302.78454965185426 700.0,322.6929295996023 705.5454545454545,383.28013611753664 711.090909090909,371.0434268033058 716.6363636363636,374.8759059493468 722.1818181818182,374.315186586174 727.7272727272727,377.1097611522322 733.2727272727273,410.9657849612507 738.8181818181819,385.0269922576388 744.3636363636364,366.2883948538938 749.9090909090909,368.32005369965026 755.4545454545454,422.0662584620078 761.0,441.0855689317942 766.5454545454546,508.88997523842403 772.0909090909091,545.1722030878836 777.6363636363636,523.9449894645333 783.1818181818182,557.6489471539894 788.7272727272727,585.3838791341136 794.2727272727273,689.8244447027345 799.8181818181818,611.2545691546744 805.3636363636363,615.0030798380291 810.909090909091,608.8124460117253 816.4545454545455,607.5763070158644 822.0,626.8777899181218 827.5454545454545,648.9221231393377 833.0909090909091,652.5833513512459 838.6363636363636,623.0825468241759 844.1818181818181,612.0421076214163 849.7272727272726,635.1392095784452 855.2727272727274,630.1220663778363 860.8181818181819,638.9458798300716 866.3636363636364,650.0886675464856 871.9090909090909,647.9525037719344 877.4545454545455,639.3131992257665 883.0,638.7672326667763 888.5454545454545,643.0319363954713 894.090909090909,674.7255403828937 899.6363636363637,678.4054790639574 905.1818181818182,626.2381086890708 910.7272727272727,633.4195771730672 916.2727272727273,656.9556509511294 921.8181818181818,645.5718688270679 927.3636363636364,656.0064870328807 932.9090909090909,625.8764355282417 938.4545454545454,635.1769769141839 944.0,589.4888059413148 949.5454545454546,607.6092558943208 955.0909090909091,637.1047350376866 960.6363636363636,643.2056585338611 966.1818181818181,655.2641255426715 971.7272727272727,633.1309762055636 977.2727272727273,618.124978127576 982.8181818181818,614.4771682644463 988.3636363636364,609.4801730177625 993.909090909091,604.4051779037362 999.4545454545455,602.2089821888992 1005.0,581.2310887859632 1010.5454545454545,544.2310105765139 1016.090909090909,554.7056008835557 1021.6363636363636,586.6069602382748 1027.1818181818182,603.6506597932282 1032.7272727272727,599.2204891801763 1038.2727272727273,617.1112448725999 1043.818181818182,627.6891509139796 1049.3636363636365,596.2362001310746 1054.909090909091,597.6073644777566 1060.4545454545455,591.448269071849 1066.0,621.6885056012229 1071.5454545454545,645.1509831062024 1077.090909090909,645.1311075556147 1082.6363636363635,648.6468336958908 1088.1818181818182,638.1689169700267 1093.7272727272727,618.2637440028705 1099.2727272727273,613.561313410709 1104.8181818181818,632.5972663353513 1110.3636363636363,632.7001229858703 1115.909090909091,629.1256859555318 1121.4545454545455,613.0065343306768 1127.0,614.133575913037 1132.5454545454545,577.5708554266689 1138.0909090909092,589.4323775729126 1143.6363636363637,585.4101892763515 1149.1818181818182,570.4452343005626 1154.7272727272727,564.2010505932775 1160.2727272727273,591.0793530657352 1165.8181818181818,544.2054314007837 1171.3636363636363,552.510315715746 1176.9090909090908,543.4012355100125 1182.4545454545455,543.2930476419699 1188.0,521.9720090392315 1193.5454545454545,539.64155725198 1199.090909090909,563.2084867453044 1204.6363636363637,544.2345517652225 1210.1818181818182,539.5719062392354 1215.7272727272727,522.1648488120908 1221.2727272727273,528.1704149913255 1226.8181818181818,535.0357628351271 1232.3636363636365,533.3600647357787 1237.909090909091,520.2171399762656 1243.4545454545455,537.3867109564685 1249.0,545.37515089424 1254.5454545454545,554.0230103741117 1260.090909090909,550.1696090327123 1265.6363636363635,533.607154895085 1271.1818181818182,527.9616140986768 1276.7272727272727,527.8451768104206 1282.2727272727273,516.9586094622077 1287.8181818181818,509.00687903513705 1293.3636363636363,507.43212522052653 1298.909090909091,524.2562988577828 1304.4545454545455,520.8271415985797 1310.0,515.4280137077402" fill="none" stroke="#92400e" stroke-width="2.5"><title>budgeted_btc_defensive_eth_aggressive | end=2026-05-09 | return=-27.13%</title></polyline>
</svg>