<svg xmlns="http://www.w3.org/2000/svg" width="1400" height="800">
<rect width="1400" height="800" fill="#f8fafc"/>
<text x="700.0" y="42" text-anchor="middle" font-family="monospace" font-size="24" fill="#0f172a">Portfolio Value Over Time | start=2020-10-01 | interval=7d</text>
<line x1="90" y1="710" x2="1310" y2="710" stroke="#334155" stroke-width="2"/>
<line x1="90" y1="90" x2="90" y2="710" stroke="#334155" stroke-width="2"/>
<line x1="90.0" y1="710" x2="90.0" y2="90" stroke="#cbd5e1" stroke-width="1"/>
<text x="90.0" y="734" text-anchor="middle" font-family="monospace" font-size="11" fill="#475569">2020-10-01</text>
<line x1="90" y1="710.0" x2="1310" y2="710.0" stroke="#cbd5e1" stroke-width="1"/>
<text x="78" y="714.0" text-anchor="end" font-family="monospace" font-size="12" fill="#475569">7775</text>
<line x1="334.0" y1="710" x2="334.0" y2="90" stroke="#cbd5e1" stroke-width="1"/>
<text x="334.0" y="734" text-anchor="middle" font-family="monospace" font-size="11" fill="#475569">2021-11-11</text>
<line x1="90" y1="586.0" x2="1310" y2="586.0" stroke="#cbd5e1" stroke-width="1"/>
<text x="78" y="590.0" text-anchor="end" font-family="monospace" font-size="12" fill="#475569">16215</text>
<line x1="578.0" y1="710" x2="578.0" y2="90" stroke="#cbd5e1" stroke-width="1"/>
<text x="578.0" y="734" text-anchor="middle" font-family="monospace" font-size="11" fill="#475569">2022-12-29</text>
<line x1="90" y1="462.0" x2="1310" y2="462.0" stroke="#cbd5e1" stroke-width="1"/>
<text x="78" y="466.0" text-anchor="end" font-family="monospace" font-size="12" fill="#475569">24656</text>
<line x1="822.0" y1="710" x2="822.0" y2="90" stroke="#cbd5e1" stroke-width="1"/>
<text x="822.0" y="734" text-anchor="middle" font-family="monospace" font-size="11" fill="#475569">2024-02-08</text>
<line x1="90" y1="338.00000000000006" x2="1310" y2="338.00000000000006" stroke="#cbd5e1" stroke-width="1"/>
<text x="78" y="342.00000000000006" text-anchor="end" font-family="monospace" font-size="12" fill="#475569">33096</text>
<line x1="1066.0" y1="710" x2="1066.0" y2="90" stroke="#cbd5e1" stroke-width="1"/>
<text x="1066.0" y="734" text-anchor="middle" font-family="monospace" font-size="11" fill="#475569">2025-03-27</text>
<line x1="90" y1="214.0" x2="1310" y2="214.0" stroke="#cbd5e1" stroke-width="1"/>
<text x="78" y="218.0" text-anchor="end" font-family="monospace" font-size="12" fill="#475569">41537</text>
<line x1="1310.0" y1="710" x2="1310.0" y2="90" stroke="#cbd5e1" stroke-width="1"/>
<text x="1310.0" y="734" text-anchor="middle" font-family="monospace" font-size="11" fill="#475569">2026-05-07</text>
<line x1="90" y1="90.0" x2="1310" y2="90.0" stroke="#cbd5e1" stroke-width="1"/>
<text x="78" y="94.0" text-anchor="end" font-family="monospace" font-size="12" fill="#475569">49977</text>
<text x="700.0" y="782" text-anchor="middle" font-family="monospace" font-size="16" fill="#0f172a">time</text>
<text x="24" y="400.0" transform="rotate(-90 24,400.0)" text-anchor="middle" font-family="monospace" font-size="16" fill="#0f172a">portfolio_value_usd</text>
<line x1="970" y1="80" x2="988" y2="80" stroke="#0f766e" stroke-width="3"/>
<text x="998" y="84" font-family="monospace" font-size="12" fill="#0f172a">budgeted_static_50_50_rebalance</text>
<line x1="970" y1="104" x2="988" y2="104" stroke="#9333ea" stroke-width="3"/>
<text x="998" y="108" font-family="monospace" font-size="12" fill="#0f172a">budgeted_drawdown_tilt_rebalance</text>
<line x1="970" y1="128" x2="988" y2="128" stroke="#92400e" stroke-width="3"/>
<text x="998" y="132" font-family="monospace" font-size="12" fill="#0f172a">budgeted_btc_defensive_eth_aggressive</text>
<polyline points="90.0,677.3067591704975 94.17808219178082,677.262623609482 98.35616438356165,676.806737975766 102.53424657534246,675.5571714368667 106.71232876712328,675.7787279383415 110.89041095890411,673.4793736257144 115.06849315068493,671.6059095512732 119.24657534246575,669.8614483469705 123.42465753424656,668.8500690713862 127.6027397260274,662.4634843124236 131.78082191780823,666.3434734796017 135.95890410958904,656.3910324199525 140.13698630136986,656.5861223851609 144.31506849315068,642.3293706728537 148.4931506849315,600.042662553086 152.67123287671234,600.4413861431595 156.84931506849313,620.8623497806735 161.02739726027397,603.6323497709391 165.2054794520548,582.0187273274223 169.3835616438356,550.6969155818288 173.56164383561645,534.8018985649633 177.73972602739724,571.0945645523029 181.91780821917808,565.014339822816 186.0958904109589,528.1261388228495 190.27397260273972,531.6974844226705 194.45205479452054,556.7753027154648 198.63013698630135,516.3605202441261 202.8082191780822,510.3042152671684 206.986301369863,471.2636954117663 211.16438356164383,503.71770778499877 215.34246575342465,477.468153806886 219.52054794520546,427.23861897948893 223.69863013698628,430.3367873876639 227.87671232876713,503.8792488230299 232.05479452054794,510.6718893798663 236.23287671232876,503.11043469281026 240.41095890410958,529.4932057286744 244.58904109589042,530.4775625825006 248.7671232876712,559.6559043986804 252.94520547945206,557.0061778759638 257.1232876712329,558.4568332235406 261.30136986301375,571.7086633277534 265.4794520547945,564.8722074787053 269.6575342465753,521.680143535503 273.83561643835617,496.112604152455 278.013698630137,473.8603411158647 282.1917808219178,459.60284342228334 286.36986301369865,463.8262662230679 290.54794520547944,422.1774033708562 294.7260273972603,448.75375971414815 298.90410958904107,437.6237169544582 303.0821917808219,466.091762188056 307.2602739726027,476.6911164777385 311.43835616438355,417.4261441518104 315.6164383561644,396.72478344957386 319.79452054794524,369.42117829343647 323.972602739726,363.8722318577692 328.1506849315068,350.02895785612526 332.32876712328766,331.37520207458925 336.5068493150685,387.7274300619899 340.6849315068493,357.99698729868874 344.86301369863014,366.17725661170357 349.04109589041093,412.25255753169864 353.2191780821918,418.37354473555996 357.39726027397256,401.10638772632024 361.5753424657534,430.45882168536735 365.75342465753425,456.7805960005993 369.93150684931504,465.4860971320418 374.1095890410959,482.4085074478876 378.28767123287673,519.7546162794403 382.4657534246575,506.7844772441046 386.64383561643837,468.2987280455997 390.82191780821915,486.7747109026835 395.0,507.90631017788087 399.17808219178085,482.8730670949834 403.3561643835617,503.7481649997641 407.5342465753424,488.70759264138314 411.71232876712327,464.1740135295141 415.8904109589041,450.9718668118684 420.06849315068496,460.44016548331854 424.24657534246575,481.76934136758064 428.4246575342466,481.7691668618848 432.60273972602744,486.50650964989075 436.7808219178082,506.1581210040452 440.958904109589,569.1819487232017 445.13698630136986,561.529922130177 449.3150684931507,576.6090795018864 453.49315068493155,570.0681736864818 457.6712328767123,573.682716968615 461.8493150684931,646.3377295058332 466.027397260274,639.3819203334383 470.2054794520548,647.7119246183668 474.3835616438356,631.5060966580547 478.56164383561645,637.9624749043381 482.7397260273973,604.73466456176 486.9178082191781,592.9739852019839 491.0958904109589,604.6492025261784 495.2739726027397,583.4518105053097 499.45205479452056,588.4472966724925 503.6301369863014,603.4751285558579 507.80821917808214,615.337229151945 511.986301369863,615.9291228001239 516.1643835616438,623.2086082342693 520.3424657534247,632.4508010724365 524.5205479452054,631.1068968052833 528.6986301369864,628.6621442598223 532.8767123287671,634.8025197727583 537.054794520548,636.4161002711642 541.2328767123288,617.8535134072586 545.4109589041095,617.2536352106229 549.5890410958905,641.4907549448409 553.7671232876712,650.5496388055765 557.945205479452,650.7406570261962 562.1232876712329,644.866606933729 566.3013698630136,643.6145772848078 570.4794520547946,643.8529628394091 574.6575342465753,648.9222662239498 578.8356164383562,650.7275526298699 583.013698630137,646.9531646284394 587.1917808219179,628.9761530442505 591.3698630136986,611.915802756582 595.5479452054794,601.0756779780083 599.7260273972603,596.7124101007521 603.9041095890411,609.1061627542298 608.0821917808219,596.9666590643504 612.2602739726027,594.5271941257816 616.4383561643835,596.5844139946272 620.6164383561644,620.6448612091032 624.7945205479451,588.4790463140358 628.972602739726,567.5478432893789 633.1506849315068,570.125829091829 637.3287671232877,565.5595488319801 641.5068493150685,548.6488606359177 645.6849315068494,560.8055861023864 649.8630136986301,558.0293557404837 654.0410958904109,562.1027647111819 658.2191780821918,573.7023474880268 662.3972602739726,574.0223376769925 666.5753424657535,575.0052131170464 670.7534246575343,570.5460378485179 674.931506849315,572.6627421809643 679.1095890410959,586.2000445537755 683.2876712328767,558.2951110897893 687.4657534246576,557.3353488422921 691.6438356164383,559.7163068515954 695.8219178082192,544.7902975832629 700.0,557.3572824037818 704.1780821917808,561.2709927874764 708.3561643835617,562.9239018624075 712.5342465753425,561.1063406659225 716.7123287671234,580.8281024836873 720.8904109589041,583.7242045909231 725.0684931506848,585.4212424862485 729.2465753424657,584.0516986229613 733.4246575342465,584.2878579207937 737.6027397260274,586.7071588454594 741.7808219178082,580.9278262293348 745.9589041095891,581.9679785423458 750.1369863013699,588.683227801303 754.3150684931506,579.8258793656773 758.4931506849315,545.9952743165888 762.6712328767123,543.3399400727964 766.8493150684932,517.4328316098093 771.027397260274,529.1030810299169 775.2054794520549,519.0392201812691 779.3835616438357,518.175323453649 783.5616438356165,481.15807228456987 787.7397260273972,484.4350532692804 791.917808219178,486.1382208551737 796.0958904109589,484.0918012017801 800.2739726027397,483.329125876014 804.4520547945206,455.5060501073391 808.6301369863014,480.60524598134975 812.8082191780823,499.81341412341897 816.9863013698631,484.49648407151614 821.1643835616438,470.4296017644572 825.3424657534246,425.1745426750301 829.5205479452054,418.96676148546175 833.6986301369863,365.852051351667 837.8767123287671,317.127181236165 842.054794520548,303.03031393843827 846.2328767123288,342.9817132739614 850.4109589041096,322.79524844575 854.5890410958904,342.67288543990026 858.7671232876712,328.3108032438492 862.945205479452,372.4527556586475 867.1232876712329,364.41171694426004 871.3013698630137,390.0879074523267 875.4794520547946,375.46118515849423 879.6575342465754,374.42443195287944 883.8356164383562,316.6628407864701 888.0136986301369,317.4951510090626 892.1917808219177,306.51910972720196 896.3698630136986,338.1711153698626 900.5479452054794,341.2652002079677 904.7260273972603,354.5035013812044 908.9041095890411,390.0750084134204 913.082191780822,386.88441344356687 917.2602739726028,348.24580211060584 921.4383561643835,356.933110509269 925.6164383561643,356.9427089912096 929.7945205479451,397.54917504750017 933.972602739726,416.46908926392655 938.1506849315068,404.98183317010245 942.3287671232877,413.8547711869685 946.5068493150685,433.1984093955534 950.6849315068494,427.94134849555286 954.8630136986301,407.4090021626275 959.0410958904109,390.07035410594955 963.2191780821918,421.1806127353086 967.3972602739726,420.1479270193871 971.5753424657535,385.64848409367687 975.7534246575343,388.3778025117849 979.9315068493152,384.17773985375095 984.1095890410959,342.49341565410754 988.2876712328766,301.2288522411824 992.4657534246575,251.74184317455376 996.6438356164383,243.8614961041605 1000.8219178082192,226.1609087328141 1005.0,212.36042766954876 1009.1780821917808,250.19689814547291 1013.3561643835617,259.9913538747096 1017.5342465753425,248.78320439471105 1021.7123287671234,275.09347699713334 1025.890410958904,251.012141680995 1030.0684931506848,239.40267193571054 1034.2465753424658,243.77859297424146 1038.4246575342465,302.4317940817022 1042.6027397260273,303.08037773974604 1046.7808219178082,294.5717651608295 1050.9589041095892,357.85860563027177 1055.13698630137,353.70771374789484 1059.3150684931506,399.62254576339336 1063.4931506849316,383.34333201446356 1067.6712328767123,375.0409980873773 1071.849315068493,399.2736741237511 1076.027397260274,432.03033868441463 1080.205479452055,415.1761739751594 1084.3835616438357,379.66876269862973 1088.5616438356165,368.29893708697796 1092.7397260273972,320.3771850464575 1096.917808219178,287.5939544087081 1101.0958904109589,260.77304581543325 1105.2739726027398,276.2933489480456 1109.4520547945206,303.7954321359501 1113.6301369863013,275.02431354201065 1117.8082191780823,287.91378924364545 1121.986301369863,292.164297927012 1126.1643835616437,271.5195383785496 1130.3424657534247,227.08562810910564 1134.5205479452054,174.8448808212878 1138.6986301369864,157.39007230393224 1142.876712328767,163.8096637804348 1147.054794520548,142.95532174380355 1151.2328767123288,90.95496147035146 1155.4109589041097,128.71045937567146 1159.5890410958903,107.22162789505285 1163.7671232876712,126.8113358907633 1167.945205479452,104.24916680200727 1172.123287671233,91.57567524928982 1176.3013698630136,159.719303387614 1180.4794520547946,90.0 1184.6575342465753,95.31736152979408 1188.8356164383563,160.1966902996993 1193.013698630137,158.02319478108222 1197.1917808219177,166.14285200748748 1201.3698630136987,216.98589229210347 1205.5479452054794,226.9109808983685 1209.7260273972602,286.9019263510766 1213.9041095890411,262.03398173036186 1218.0821917808219,251.48349850780676 1222.2602739726028,242.85852536333005 1226.4383561643835,290.33752739303304 1230.6164383561643,280.478445093321 1234.7945205479452,269.27839229573226 1238.972602739726,255.84599847174593 1243.150684931507,228.61637838424326 1247.3287671232877,271.0845714902944 1251.5068493150686,293.2041983107528 1255.6849315068494,422.0373082528248 1259.86301369863,404.0683363590776 1264.0410958904108,401.9718907693357 1268.2191780821918,394.3339761969911 1272.3972602739725,382.0614708173215 1276.5753424657535,382.879665569246 1280.7534246575342,379.0667961279065 1284.9315068493152,388.61658698462304 1289.109589041096,393.5359691843645 1293.2876712328766,369.78644050661234 1297.4657534246576,347.9020587927449 1301.6438356164383,341.43879860607177 1305.8219178082193,352.6341807545183 1310.0,340.4608523437695" fill="none" stroke="#0f766e" stroke-width="2.5"><title>budgeted_static_50_50_rebalance | end=2026-05-07 | return=229.29%</title></polyline>
<polyline points="90.0,677.3067591704975 94.17808219178082,677.2576811008842 98.35616438356165,676.6355594917584 102.53424657534246,675.2280149468219 106.71232876712328,675.5218504702754 110.89041095890411,673.6393410423943 115.06849315068493,672.187574724655 119.24657534246575,671.1379438065549 123.42465753424656,670.381244066722 127.6027397260274,666.8819476147928 131.78082191780823,668.8720246808157 135.95890410958904,664.3794059937384 140.13698630136986,664.6015772082483 144.31506849315068,658.7593301036275 148.4931506849315,641.5646409527893 152.67123287671234,641.684786709211 156.84931506849313,649.0902581424231 161.02739726027397,642.1017207330663 165.2054794520548,633.2015970289615 169.3835616438356,621.2957292280577 173.56164383561645,615.1347185318806 177.73972602739724,629.5606472111807 181.91780821917808,627.1897606802337 186.0958904109589,612.8267824690491 190.27397260273972,614.312399776069 194.45205479452054,623.8424767194442 198.63013698630135,607.8639720010294 202.8082191780822,605.1871382316043 206.986301369863,589.3278351871023 211.16438356164383,600.9402936743935 215.34246575342465,589.3625240342091 219.52054794520546,566.3592858259605 223.69863013698628,565.6459474130422 227.87671232876713,598.7453051455694 232.05479452054794,601.4553048244863 236.23287671232876,597.6124754506524 240.41095890410958,611.5383099966057 244.58904109589042,612.9501102105972 248.7671232876712,628.9664921730905 252.94520547945206,626.512247450082 257.1232876712329,627.0174629232489 261.30136986301375,635.383101801687 265.4794520547945,630.8565289521423 269.6575342465753,605.0648605742924 273.83561643835617,586.2199657525138 278.013698630137,571.5600850125143 282.1917808219178,561.8821199002796 286.36986301369865,565.2806594193214 290.54794520547944,533.1137097790943 294.7260273972603,553.0163629685271 298.90410958904107,544.5536218729443 303.0821917808219,566.4724179232124 307.2602739726027,574.7682177352889 311.43835616438355,528.676734588875 315.6164383561644,512.649386287296 319.79452054794524,492.3081604723839 323.972602739726,487.87677416450384 328.1506849315068,477.9285633809593 332.32876712328766,465.25428008149197 336.5068493150685,503.02381070046613 340.6849315068493,482.5970906382546 344.86301369863014,487.729764425605 349.04109589041093,517.6690554369422 353.2191780821918,521.9425733889311 357.39726027397256,510.3020702818579 361.5753424657534,530.4802334273162 365.75342465753425,548.8552899863114 369.93150684931504,555.0612121766236 374.1095890410959,567.2087203777854 378.28767123287673,594.2523564772689 382.4657534246575,584.7274778368388 386.64383561643837,555.8670829140831 390.82191780821915,570.056084695014 395.0,586.5824422736757 399.17808219178085,566.8226239275332 403.3561643835617,583.5417463684871 407.5342465753424,571.3513239948937 411.71232876712327,551.4770446875244 415.8904109589041,540.7140180793998 420.06849315068496,548.4089414337448 424.24657534246575,566.0488785629802 428.4246575342466,566.0988877877542 432.60273972602744,570.0519641535662 436.7808219178082,586.4424035670236 440.958904109589,639.338401503956 445.13698630136986,632.9679368244671 449.3150684931507,645.615282334062 453.49315068493155,640.151939463239 457.6712328767123,643.1885687533755 461.8493150684931,704.1172288441664 466.027397260274,698.3735366776388 470.2054794520548,705.1745353305965 474.3835616438356,692.1680056384979 478.56164383561645,697.4217809242377 482.7397260273973,670.0677986673977 486.9178082191781,660.2333422830985 491.0958904109589,670.014604449721 495.2739726027397,651.7582826094869 499.45205479452056,655.9396506230125 503.6301369863014,668.8469523533846 507.80821917808214,678.9691807263504 511.986301369863,678.9222002602188 516.1643835616438,686.2167147825339 520.3424657534247,694.7683532182087 524.5205479452054,693.6640873364568 528.6986301369864,691.6674126168801 532.8767123287671,696.8924413352681 537.054794520548,698.1664257236132 541.2328767123288,682.2140284171562 545.4109589041095,681.6246767386756 549.5890410958905,702.1392663366813 553.7671232876712,709.8507394101861 557.945205479452,709.9646394027354 562.1232876712329,704.9089691914901 566.3013698630136,703.9426069130535 570.4794520547946,704.252239063898 574.6575342465753,708.4904143842799 578.8356164383562,710.0 583.013698630137,706.721886143967 587.1917808219179,691.8293512893857 591.3698630136986,677.8423962595527 595.5479452054794,669.2345467009566 599.7260273972603,665.5388965012565 603.9041095890411,675.8939243045039 608.0821917808219,665.74829376202 612.2602739726027,663.7522287294364 616.4383561643835,665.3751287355748 620.6164383561644,685.9856552615901 624.7945205479451,658.9142166906612 628.972602739726,641.3342992579549 633.1506849315068,643.5620213945278 637.3287671232877,639.3637706876257 641.5068493150685,624.7131403017729 645.6849315068494,635.1217866983817 649.8630136986301,633.0548054894398 654.0410958904109,636.6145413398624 658.2191780821918,646.7481020849384 662.3972602739726,646.981242715769 666.5753424657535,647.7448484304987 670.7534246575343,643.8978500137146 674.931506849315,645.5727207416733 679.1095890410959,656.2730677420343 683.2876712328767,635.5770160591346 687.4657534246576,635.0293337087594 691.6438356164383,636.620066564025 695.8219178082192,626.4783558911241 700.0,634.7137145037661 704.1780821917808,637.1983868875394 708.3561643835617,638.2751997028274 712.5342465753425,637.1629427693221 716.7123287671234,649.007461789083 720.8904109589041,650.7616467651102 725.0684931506848,651.8162603751155 729.2465753424657,650.985259885433 733.4246575342465,651.2023111962163 737.6027397260274,652.9009697772282 741.7808219178082,648.8836939171949 745.9589041095891,649.7476350608918 750.1369863013699,654.4510313599164 754.3150684931506,648.4989251026759 758.4931506849315,624.1498741399523 762.6712328767123,622.4753243785507 766.8493150684932,603.3261656547733 771.027397260274,611.837859994422 775.2054794520549,604.9775618028858 779.3835616438357,604.5497505776767 783.5616438356165,580.9907120200602 787.7397260273972,583.143722380441 791.917808219178,584.6794342608664 796.0958904109589,582.813561583999 800.2739726027397,582.8917610868973 804.4520547945206,565.9269109693521 808.6301369863014,580.1034076875112 812.8082191780823,591.4068378192372 816.9863013698631,582.7939669204118 821.1643835616438,574.783109110037 825.3424657534246,549.0917369172172 829.5205479452054,545.1962686842671 833.6986301369863,516.050584929041 837.8767123287671,488.8057703815167 842.054794520548,481.61906001952343 846.2328767123288,503.29193817564703 850.4109589041096,492.9521471987289 854.5890410958904,503.6651366488625 858.7671232876712,495.8501406908109 862.945205479452,519.3911755802499 867.1232876712329,515.0536930810251 871.3013698630137,528.8701046817209 875.4794520547946,520.908183119052 879.6575342465754,520.497289131577 883.8356164383562,486.5784396615503 888.0136986301369,487.12726777271774 892.1917808219177,481.13353456756613 896.3698630136986,498.75517589483457 900.5479452054794,500.1749284898387 904.7260273972603,507.0727885749694 908.9041095890411,526.6684735833859 913.082191780822,524.8658663235617 917.2602739726028,503.56010989712786 921.4383561643835,509.304409585518 925.6164383561643,509.1874701370175 929.7945205479451,533.1635239964203 933.972602739726,544.0169220647626 938.1506849315068,537.3505285134243 942.3287671232877,542.7987219352468 946.5068493150685,554.6910755962207 950.6849315068494,551.6786484503318 954.8630136986301,538.9936966677928 959.0410958904109,527.4843540884309 963.2191780821918,548.6143470394046 967.3972602739726,547.6392264556185 971.5753424657535,524.204622500145 975.7534246575343,526.8275008719361 979.9315068493152,524.5301711250993 984.1095890410959,492.7338714252026 988.2876712328766,464.156602147503 992.4657534246575,428.1923264851537 996.6438356164383,419.8004029279381 1000.8219178082192,405.8677974721372 1005.0,396.44125544226915 1009.1780821917808,424.7840482745561 1013.3561643835617,431.5324824610418 1017.5342465753425,423.4784971443919 1021.7123287671234,441.7480512695369 1025.890410958904,426.57969467307544 1030.0684931506848,419.3898122444854 1034.2465753424658,422.97164099959525 1038.4246575342465,463.8812392945922 1042.6027397260273,464.39625104379195 1046.7808219178082,458.48414259285903 1050.9589041095892,502.68316762804886 1055.13698630137,501.4755833154361 1059.3150684931506,534.8136613909545 1063.4931506849316,522.730914739122 1067.6712328767123,517.1003291668799 1071.849315068493,536.0273485853319 1076.027397260274,562.9977459560486 1080.205479452055,550.5940314019103 1084.3835616438357,522.696306293707 1088.5616438356165,513.4934782138143 1092.7397260273972,472.75102705260423 1096.917808219178,442.52581133864663 1101.0958904109589,421.4272098932893 1105.2739726027398,432.8934712778091 1109.4520547945206,457.1271937001718 1113.6301369863013,431.64124482872904 1117.8082191780823,443.6505900095215 1121.986301369863,449.3523396915007 1126.1643835616437,430.4911348985678 1130.3424657534247,390.2529959141165 1134.5205479452054,339.6277960360732 1138.6986301369864,321.5884953099537 1142.876712328767,325.71233755987095 1147.054794520548,307.6845233523404 1151.2328767123288,262.0678854600497 1155.4109589041097,290.70275068052547 1159.5890410958903,272.89031326647495 1163.7671232876712,287.5884775717255 1167.945205479452,272.6065489280637 1172.123287671233,263.80922480324466 1176.3013698630136,310.1254277663473 1180.4794520547946,264.276064646803 1184.6575342465753,268.68411503331714 1188.8356164383563,308.6790169947479 1193.013698630137,308.02995189525143 1197.1917808219177,313.01091701446575 1201.3698630136987,346.33636009128037 1205.5479452054794,352.74540990935674 1209.7260273972602,390.5298567152584 1213.9041095890411,374.4705284912925 1218.0821917808219,367.09098137892124 1222.2602739726028,360.91512373565325 1226.4383561643835,393.3858419660879 1230.6164383561643,386.70839303129026 1234.7945205479452,378.879753602046 1238.972602739726,369.51802413710476 1243.150684931507,350.1943313518547 1247.3287671232877,381.2976860166976 1251.5068493150686,396.89584503309555 1255.6849315068494,491.67825851536725 1259.86301369863,478.4366627655604 1264.0410958904108,477.02799344118245 1268.2191780821918,470.8980883883792 1272.3972602739725,461.92417029652415 1276.5753424657535,462.48919759927526 1280.7534246575342,459.0861576099548 1284.9315068493152,466.9368269416857 1289.109589041096,470.63022313153317 1293.2876712328766,451.10589548265443 1297.4657534246576,432.30419670568335 1301.6438356164383,427.43115392308357 1305.8219178082193,437.37451062799863 1310.0,427.0291155355247" fill="none" stroke="#9333ea" stroke-width="2.5"><title>budgeted_drawdown_tilt_rebalance | end=2026-05-07 | return=170.36%</title></polyline>
<polyline points="90.0,677.3067591704975 94.17808219178082,677.2736574997359 98.35616438356165,676.931743274449 102.53424657534246,675.9945683702744 106.71232876712328,676.1607357463805 110.89041095890411,674.414189735001 115.06849315068493,673.0436766505774 119.24657534246575,671.6724329922233 123.42465753424656,671.0764859248192 127.6027397260274,666.3820062467107 131.78082191780823,669.2138950217327 135.95890410958904,661.5650983115792 140.13698630136986,661.4692766195385 144.31506849315068,650.6604110343452 148.4931506849315,619.9189986872246 152.67123287671234,620.2959715994291 156.84931506849313,636.2427447610488 161.02739726027397,623.8961946509157 165.2054794520548,608.0821386812038 169.3835616438356,583.5344873223343 173.56164383561645,571.5884700877363 177.73972602739724,598.1581808356719 181.91780821917808,593.5872064330046 186.0958904109589,565.2790164350354 190.27397260273972,567.9075036710644 194.45205479452054,587.2796846291834 198.63013698630135,556.1483682410961 202.8082191780822,551.5532840927992 206.986301369863,520.6480426809318 211.16438356164383,546.6030043481118 215.34246575342465,524.4597948778782 219.52054794520546,480.00182306234245 223.69863013698628,480.133049855657 227.87671232876713,547.0928608432667 232.05479452054794,552.5459167964689 236.23287671232876,545.1029125848415 240.41095890410958,571.5951584892971 244.58904109589042,574.1778266648059 248.7671232876712,603.3275133929146 252.94520547945206,599.4145625931601 257.1232876712329,600.3768264678898 261.30136986301375,613.8933625164794 265.4794520547945,606.9306203747974 269.6575342465753,568.4821481270066 273.83561643835617,541.5122175752037 278.013698630137,520.9419674789187 282.1917808219178,507.71765158828657 286.36986301369865,512.6066409995207 290.54794520547944,467.9753490987632 294.7260273972603,495.1160200151098 298.90410958904107,483.8658317562217 303.0821917808219,513.8046291068821 307.2602739726027,524.9753589859179 311.43835616438355,468.4177674574813 315.6164383561644,448.6034428651551 319.79452054794524,422.7308022956086 323.972602739726,414.0099923987875 328.1506849315068,398.7799990412017 332.32876712328766,380.8119750711047 336.5068493150685,437.68589542825396 340.6849315068493,405.05704064785925 344.86301369863014,412.0008646439662 349.04109589041093,455.9829787392512 353.2191780821918,463.4850048242002 357.39726027397256,447.04293636884745 361.5753424657534,477.9558700357675 365.75342465753425,504.458954556295 369.93150684931504,514.4283110309932 374.1095890410959,532.0973845911869 378.28767123287673,571.4842524134415 382.4657534246575,556.7630297958133 386.64383561643837,520.8037442995395 390.82191780821915,538.1165212030867 395.0,559.4223553093827 399.17808219178085,536.2940668031208 403.3561643835617,556.0416252550416 407.5342465753424,541.213672151797 411.71232876712327,517.5605016781635 415.8904109589041,504.6294751237497 420.06849315068496,512.9328647448415 424.24657534246575,532.8510120503893 428.4246575342466,533.487232796097 432.60273972602744,537.9321707985571 436.7808219178082,556.1809308575512 440.958904109589,617.7169259333804 445.13698630136986,610.9325107999074 449.3150684931507,625.786079719945 453.49315068493155,620.298981286972 457.6712328767123,623.5866769903171 461.8493150684931,686.7646742029533 466.027397260274,680.7959483043877 470.2054794520548,687.5945862560161 474.3835616438356,674.5571239208579 478.56164383561645,679.5879049570386 482.7397260273973,652.6927274174068 486.9178082191781,642.9906217078894 491.0958904109589,652.3481362730997 495.2739726027397,634.5175269375416 499.45205479452056,638.3276754322163 503.6301369863014,650.4942513765602 507.80821917808214,659.9482412632492 511.986301369863,659.4334823473412 516.1643835616438,667.0582859493206 520.3424657534247,675.5656038630659 524.5205479452054,674.5563965403874 528.6986301369864,672.7423671696007 532.8767123287671,677.7088992310005 537.054794520548,678.8087838642969 541.2328767123288,663.3362627799311 545.4109589041095,662.6861397585253 549.5890410958905,681.9853943257004 553.7671232876712,689.3112755661465 557.945205479452,689.3734748151578 562.1232876712329,684.4669503763258 566.3013698630136,683.6274322215886 570.4794520547946,684.0176785373968 574.6575342465753,688.0080187700195 578.8356164383562,689.4323457711791 583.013698630137,686.2185291342419 587.1917808219179,672.2635719575716 591.3698630136986,659.3512901380136 595.5479452054794,651.7211960880685 599.7260273972603,648.2476157223289 603.9041095890411,657.7854647972472 608.0821917808219,648.4730246437082 612.2602739726027,646.6924672811956 616.4383561643835,648.0666353016754 620.6164383561644,667.2053820953946 624.7945205479451,642.4188941870459 628.972602739726,626.471705192605 633.1506849315068,628.5505553698334 637.3287671232877,624.2989859402282 641.5068493150685,610.7801954222842 645.6849315068494,620.1047092295366 649.8630136986301,618.7172643368722 654.0410958904109,621.9705237291334 658.2191780821918,631.1814438970058 662.3972602739726,631.3273772743916 666.5753424657535,631.934845422125 670.7534246575343,628.1167320877539 674.931506849315,629.8021797356488 679.1095890410959,641.4144688422468 683.2876712328767,619.0925283480266 687.4657534246576,618.5093058480672 691.6438356164383,620.3828291541766 695.8219178082192,608.1875312228034 700.0,618.3923245524641 704.1780821917808,621.6074921807821 708.3561643835617,622.9213975911371 712.5342465753425,621.4275715176549 716.7123287671234,637.5857885036808 720.8904109589041,639.9651705003934 725.0684931506848,641.339486227673 729.2465753424657,640.1734567541266 733.4246575342465,640.249065907316 737.6027397260274,642.0404956573171 741.7808219178082,637.5644695586908 745.9589041095891,638.1511713759477 750.1369863013699,643.4018052224957 754.3150684931506,635.9071507481539 758.4931506849315,608.5001143750309 762.6712328767123,606.0892124295913 766.8493150684932,586.6311972690366 771.027397260274,595.2183318151284 775.2054794520549,587.2536178171065 779.3835616438357,586.2895230094603 783.5616438356165,555.6568305983928 787.7397260273972,558.1734904474557 791.917808219178,558.6367761876753 796.0958904109589,558.4049471736807 800.2739726027397,556.3862339795974 804.4520547945206,535.1543391749371 808.6301369863014,557.3394538173382 812.8082191780823,572.440280020024 816.9863013698631,558.7921393287434 821.1643835616438,546.6873736316445 825.3424657534246,508.14059147814567 829.5205479452054,503.9581408634476 833.6986301369863,456.91184798748145 837.8767123287671,415.2740520513351 842.054794520548,401.74061418511735 846.2328767123288,436.8982690654344 850.4109589041096,417.90670115073954 854.5890410958904,435.00856142982593 858.7671232876712,422.8164144515786 862.945205479452,461.45821623592434 867.1232876712329,454.61852944802104 871.3013698630137,478.1509136272035 875.4794520547946,464.05239752245063 879.6575342465754,461.58807929327554 883.8356164383562,416.62430700414944 888.0136986301369,416.9829635054263 892.1917808219177,406.8368589601507 896.3698630136986,433.946928798997 900.5479452054794,437.75191475428295 904.7260273972603,450.1401713694183 908.9041095890411,481.0969779504105 913.082191780822,478.39145565112153 917.2602739726028,444.0566804254861 921.4383561643835,450.24808528522385 925.6164383561643,450.53987777536014 929.7945205479451,484.8540915049957 933.972602739726,502.3302022982073 938.1506849315068,491.5251757447136 942.3287671232877,498.9219019253936 946.5068493150685,515.7320205447229 950.6849315068494,510.1701337201548 954.8630136986301,491.15228139819925 959.0410958904109,476.9540570929913 963.2191780821918,503.0108560489342 967.3972602739726,502.8068888941526 971.5753424657535,471.65605049270096 975.7534246575343,472.6891156113001 979.9315068493152,467.5554092219731 984.1095890410959,432.61765051755583 988.2876712328766,391.30493269696274 992.4657534246575,344.2492019081706 996.6438356164383,341.92275567225664 1000.8219178082192,327.9447914973481 1005.0,314.8265373108199 1009.1780821917808,344.1999877300609 1013.3561643835617,353.0719365709927 1017.5342465753425,343.7240778531498 1021.7123287671234,367.47449782439674 1025.890410958904,341.56652691090716 1030.0684931506848,328.57096802653257 1034.2465753424658,330.6835887765745 1038.4246575342465,382.1193453591988 1042.6027397260273,382.48482933429347 1046.7808219178082,374.38507323523027 1050.9589041095892,435.7257957096112 1055.13698630137,425.3521340057014 1059.3150684931506,467.81835807297693 1063.4931506849316,452.9001000940176 1067.6712328767123,443.0404968535029 1071.849315068493,464.0326480197747 1076.027397260274,489.11152349685267 1080.205479452055,470.27607728068585 1084.3835616438357,434.6815371237639 1088.5616438356165,424.0171661974922 1092.7397260273972,386.2683069847853 1096.917808219178,367.8821017600299 1101.0958904109589,339.0123820953995 1105.2739726027398,358.5962265793097 1109.4520547945206,380.9166784223391 1113.6301369863013,357.5665504479329 1117.8082191780823,366.6471381872428 1121.986301369863,364.90419060970015 1126.1643835616437,348.7227168192602 1130.3424657534247,312.3762341102661 1134.5205479452054,276.89270116270325 1138.6986301369864,268.10890378179624 1142.876712328767,275.93650977302417 1147.054794520548,260.37699266305737 1151.2328767123288,225.22037269941865 1155.4109589041097,257.61678157620764 1159.5890410958903,242.2933076878051 1163.7671232876712,258.3333497689191 1167.945205479452,237.48556854639048 1172.123287671233,226.5525265646079 1176.3013698630136,285.53561897233027 1180.4794520547946,223.08747572704323 1184.6575342465753,226.9575516310423 1188.8356164383563,286.4502527632515 1193.013698630137,283.9250599755902 1197.1917808219177,291.4312697513756 1201.3698630136987,337.2671293483329 1205.5479452054794,346.24625366402336 1209.7260273972602,401.27102653314466 1213.9041095890411,378.89322351092676 1218.0821917808219,369.98629342763275 1222.2602739726028,362.81383246896627 1226.4383561643835,404.1003955788207 1230.6164383561643,395.50969595541073 1234.7945205479452,385.95233430027497 1238.972602739726,374.3160201207553 1243.150684931507,350.7281972488197 1247.3287671232877,387.218703449465 1251.5068493150686,406.89757626819653 1255.6849315068494,517.8675828920452 1259.86301369863,502.39056975676607 1264.0410958904108,500.4293355587537 1268.2191780821918,494.4777279776916 1272.3972602739725,483.6400292091529 1276.5753424657535,484.4374890982463 1280.7534246575342,482.13888600132606 1284.9315068493152,489.58056983239055 1289.109589041096,494.20855268812875 1293.2876712328766,474.53606319079216 1297.4657534246576,457.0865770468133 1301.6438356164383,450.6147287009921 1305.8219178082193,459.7527230742513 1310.0,448.8405513806315" fill="none" stroke="#92400e" stroke-width="2.5"><title>budgeted_btc_defensive_eth_aggressive | end=2026-05-07 | return=155.51%</title></polyline>
</svg>