<svg xmlns="http://www.w3.org/2000/svg" width="1400" height="800">
<rect width="1400" height="800" fill="#f8fafc"/>
<text x="700.0" y="42" text-anchor="middle" font-family="monospace" font-size="24" fill="#0f172a">Portfolio Value Over Time | start=2022-07-01 | interval=7d</text>
<line x1="90" y1="710" x2="1310" y2="710" stroke="#334155" stroke-width="2"/>
<line x1="90" y1="90" x2="90" y2="710" stroke="#334155" stroke-width="2"/>
<line x1="90.0" y1="710" x2="90.0" y2="90" stroke="#cbd5e1" stroke-width="1"/>
<text x="90.0" y="734" text-anchor="middle" font-family="monospace" font-size="11" fill="#475569">2022-07-01</text>
<line x1="90" y1="710.0" x2="1310" y2="710.0" stroke="#cbd5e1" stroke-width="1"/>
<text x="78" y="714.0" text-anchor="end" font-family="monospace" font-size="12" fill="#475569">8230</text>
<line x1="334.0" y1="710" x2="334.0" y2="90" stroke="#cbd5e1" stroke-width="1"/>
<text x="334.0" y="734" text-anchor="middle" font-family="monospace" font-size="11" fill="#475569">2023-04-07</text>
<line x1="90" y1="586.0" x2="1310" y2="586.0" stroke="#cbd5e1" stroke-width="1"/>
<text x="78" y="590.0" text-anchor="end" font-family="monospace" font-size="12" fill="#475569">15230</text>
<line x1="578.0" y1="710" x2="578.0" y2="90" stroke="#cbd5e1" stroke-width="1"/>
<text x="578.0" y="734" text-anchor="middle" font-family="monospace" font-size="11" fill="#475569">2024-01-12</text>
<line x1="90" y1="461.99999999999994" x2="1310" y2="461.99999999999994" stroke="#cbd5e1" stroke-width="1"/>
<text x="78" y="465.99999999999994" text-anchor="end" font-family="monospace" font-size="12" fill="#475569">22231</text>
<line x1="822.0" y1="710" x2="822.0" y2="90" stroke="#cbd5e1" stroke-width="1"/>
<text x="822.0" y="734" text-anchor="middle" font-family="monospace" font-size="11" fill="#475569">2024-10-18</text>
<line x1="90" y1="337.99999999999994" x2="1310" y2="337.99999999999994" stroke="#cbd5e1" stroke-width="1"/>
<text x="78" y="341.99999999999994" text-anchor="end" font-family="monospace" font-size="12" fill="#475569">29231</text>
<line x1="1066.0" y1="710" x2="1066.0" y2="90" stroke="#cbd5e1" stroke-width="1"/>
<text x="1066.0" y="734" text-anchor="middle" font-family="monospace" font-size="11" fill="#475569">2025-07-25</text>
<line x1="90" y1="214.0" x2="1310" y2="214.0" stroke="#cbd5e1" stroke-width="1"/>
<text x="78" y="218.0" text-anchor="end" font-family="monospace" font-size="12" fill="#475569">36232</text>
<line x1="1310.0" y1="710" x2="1310.0" y2="90" stroke="#cbd5e1" stroke-width="1"/>
<text x="1310.0" y="734" text-anchor="middle" font-family="monospace" font-size="11" fill="#475569">2026-05-01</text>
<line x1="90" y1="90.0" x2="1310" y2="90.0" stroke="#cbd5e1" stroke-width="1"/>
<text x="78" y="94.0" text-anchor="end" font-family="monospace" font-size="12" fill="#475569">43232</text>
<text x="700.0" y="782" text-anchor="middle" font-family="monospace" font-size="16" fill="#0f172a">time</text>
<text x="24" y="400.0" transform="rotate(-90 24,400.0)" text-anchor="middle" font-family="monospace" font-size="16" fill="#0f172a">portfolio_value_usd</text>
<line x1="970" y1="80" x2="988" y2="80" stroke="#0f766e" stroke-width="3"/>
<text x="998" y="84" font-family="monospace" font-size="12" fill="#0f172a">budgeted_static_50_50_rebalance</text>
<line x1="970" y1="104" x2="988" y2="104" stroke="#9333ea" stroke-width="3"/>
<text x="998" y="108" font-family="monospace" font-size="12" fill="#0f172a">budgeted_drawdown_tilt_rebalance</text>
<line x1="970" y1="128" x2="988" y2="128" stroke="#92400e" stroke-width="3"/>
<text x="998" y="132" font-family="monospace" font-size="12" fill="#0f172a">budgeted_btc_defensive_eth_aggressive</text>
<polyline points="90.0,678.6443240113721 96.1,677.931881241814 102.2,678.0447107827362 108.3,675.2310063458282 114.4,673.0748695803692 120.5,673.2138618019673 126.6,669.8111219394963 132.7,677.3915250875436 138.8,679.4439112301625 144.9,678.6473445411838 151.0,674.3086228819642 157.1,682.0432428195513 163.2,685.1114269962109 169.3,684.8331739545217 175.4,684.5885065935289 181.5,686.2205415502413 187.60000000000002,686.1415130177727 193.7,674.9628918851494 199.8,670.7110945440577 205.9,693.3135184002003 212.0,696.9271745907193 218.1,697.8744987942455 224.2,692.1602674605939 230.3,693.4706270488422 236.4,699.4469703542322 242.5,696.4255825824117 248.6,698.0936477569546 254.70000000000002,693.2386621740447 260.8,672.646244302697 266.9,651.859846178859 273.0,653.3704499789415 279.1,648.7619634434636 285.20000000000005,662.9737697547303 291.3,643.0269835644774 297.4,652.4489176734816 303.5,657.3575289777671 309.6,671.9525574092185 315.7,627.424169930556 321.8,629.422699423989 327.9,622.3618578792667 334.0,622.0426352352583 340.1,601.1047966367955 346.2,625.0705128187827 352.3,615.6884946277445 358.4,609.789419934851 364.5,628.4727100679936 370.6,627.970526972931 376.7,627.7795323092506 382.8,621.9853681482329 388.9,627.9607728223184 395.0,634.665434000234 401.1,610.733463780272 407.2,609.5015254669785 413.3,613.0873992655554 419.40000000000003,609.658718074047 425.5,613.472344118722 431.6,616.3457261553709 437.7,619.5309400018398 443.79999999999995,617.462624448546 449.9,638.0235300073974 456.0,638.471517612993 462.09999999999997,640.5879271122143 468.2,639.8233971015586 474.3,637.2111161336823 480.40000000000003,639.8580689874667 486.5,634.7942693266182 492.6,632.4995670756404 498.70000000000005,641.1149141373694 504.8,628.997269792345 510.9,605.6333856022939 517.0,599.9908470033884 523.0999999999999,578.1663025901432 529.2,586.8088535459368 535.3,576.6866778025803 541.4,573.4241966752575 547.5,541.9249217315689 553.6,556.2424901046052 559.7,544.2732606259212 565.8,551.5358890339137 571.9000000000001,546.7875116211699 578.0,537.3515417744795 584.1,542.4533018885152 590.2,553.6585370264272 596.3,547.442067411346 602.4,526.1350628148134 608.5,494.70682061317405 614.6,492.6018598038173 620.7,431.9206948662985 626.8,391.5236214386968 632.9,395.7609032719306 639.0,432.29688675180523 645.1,406.58547625071395 651.2,421.9705526449037 657.3000000000001,428.0143062433701 663.4,446.327922770925 669.5,442.7978034099184 675.6,446.40706473248446 681.6999999999999,462.25764169620095 687.8,435.9462318564161 693.9,397.9005839152634 700.0,399.06735192954466 706.1,398.40467735749905 712.2,417.4674205428234 718.3000000000001,420.52713297681015 724.4,438.12545362773716 730.5,468.14268034963976 736.6,456.7758951698837 742.7,413.5725545451282 748.8000000000001,422.05866269400866 754.9000000000001,454.68456332766067 761.0,476.592129858348 767.1,482.1640478847213 773.2,458.86271479525476 779.3,485.4052598248741 785.4,516.1635220940085 791.5,486.3215125004283 797.5999999999999,472.2543624423124 803.6999999999999,457.73682288320816 809.8,483.79888248221357 815.9,481.2545487591602 822.0,454.2071436495057 828.1,471.33094745463734 834.1999999999999,459.6627175968473 840.3,414.18331235773786 846.4,371.71816997968233 852.5,338.03262959701317 858.6,325.2538470760555 864.7,294.4187874033347 870.8000000000001,296.84928861518335 876.9,331.537419517069 883.0,348.12334898406755 889.1,322.3879877119615 895.2,350.6079689956101 901.3000000000001,317.18490814421756 907.4000000000001,325.7772786868181 913.5,331.62315788777727 919.6,386.90123572403854 925.7,378.1238074038453 931.8,385.26561009433374 937.9,438.9214123844219 944.0,440.7196860451244 950.0999999999999,463.22984614456016 956.1999999999999,458.9842446359827 962.3,463.76166318353216 968.4,471.22216942757785 974.5,492.8414895072209 980.6,488.84770490963797 986.6999999999999,452.07440187650593 992.8,442.8611875423544 998.9,386.77558202533714 1005.0,368.8777449353586 1011.1,362.73575390762306 1017.2,368.3976157889786 1023.3000000000001,372.20134562314223 1029.4,360.58516419787765 1035.5,379.9122541547604 1041.6,371.49150098782764 1047.7,362.94868835978104 1053.8000000000002,309.0250402404889 1059.9,261.2576686192183 1066.0,248.3758078903747 1072.1,274.8903201396839 1078.2,229.3990653382504 1084.3,196.91011757387776 1090.4,170.97052045538157 1096.5,220.7932371370061 1102.6,219.26774134560128 1108.6999999999998,180.9158825088033 1114.8,197.2783105381302 1120.8999999999999,238.19830904534348 1127.0,179.56651013410897 1133.1,242.7615914872797 1139.2,257.5493592310291 1145.3,240.79559301816897 1151.4,249.7944054132111 1157.5,289.7286457401239 1163.6,330.171552631629 1169.7,373.990897570281 1175.8,342.847364783933 1181.9,346.97846261136937 1188.0,340.6622361541448 1194.1000000000001,352.8299281095774 1200.2,358.1933592592948 1206.3,338.5896311806564 1212.4,340.07505526424876 1218.5,314.47583061080127 1224.6000000000001,351.21132138515696 1230.7,380.36738988884747 1236.8,455.49857119047863 1242.8999999999999,460.4344092912601 1249.0,468.1827250145125 1255.1,475.9749159438246 1261.2,467.0249051630594 1267.3,451.5974349471473 1273.3999999999999,448.4847655076047 1279.5,469.99211058763564 1285.6,463.78194633370026 1291.7,434.8175548047223 1297.8,411.9326053795633 1303.9,419.05898323717827 1310.0,418.82793188261485" fill="none" stroke="#0f766e" stroke-width="2.5"><title>budgeted_static_50_50_rebalance | end=2026-05-01 | return=146.68%</title></polyline>
<polyline points="90.0,678.6443240113721 96.1,677.4493660666548 102.2,677.60637329518 108.3,672.7755840424588 114.4,669.0885709864407 120.5,669.2899161082676 126.6,663.5052220416081 132.7,676.2384644235293 138.8,679.6969841194745 144.9,678.3301428882304 151.0,671.0636871506758 157.1,684.0268455955601 163.2,689.1669256556395 169.3,688.703615470422 175.4,688.2961974052558 181.5,691.0249818783493 187.60000000000002,690.8915634203723 193.7,672.1658622233316 199.8,665.1709750875692 205.9,701.6896928313789 212.0,707.1881518939776 218.1,708.6066363016853 224.2,700.4804016961169 230.3,702.2349248366563 236.4,710.0 242.5,706.1968730262022 248.6,708.2029184013164 254.70000000000002,702.5171388440837 260.8,678.7134468836006 266.9,654.5659835921789 273.0,656.4198274427059 279.1,650.949440198302 285.20000000000005,667.8095690225512 291.3,644.1976134481938 297.4,655.4418956943819 303.5,661.3062358503565 309.6,678.7929337817508 315.7,625.8416170765407 321.8,628.2387367407972 327.9,619.6259613983837 334.0,619.2415610317605 340.1,593.4182765709477 346.2,623.1983768738361 352.3,611.5016486481138 358.4,604.1696632893731 364.5,627.6011988046903 370.6,626.9817653912254 376.7,626.759506987376 382.8,619.850737335662 388.9,626.6273272210614 395.0,633.9125433348435 401.1,608.3770690075913 407.2,607.1665525560987 413.3,610.6565039429771 419.40000000000003,607.4791891380288 425.5,610.9979882372837 431.6,613.6369454730274 437.7,616.4168455608165 443.79999999999995,614.6165224719981 449.9,632.2294063099689 456.0,632.6054669164964 462.09999999999997,634.4792842692914 468.2,633.7842331333711 474.3,631.3907109319307 480.40000000000003,633.9950414040513 486.5,628.9665647461242 492.6,626.9948829533719 498.70000000000005,635.4956623009043 504.8,623.7826771224732 510.9,600.3595812156423 517.0,594.5904168048772 523.0999999999999,572.6409120901949 529.2,581.2811542756428 535.3,571.5596584066907 541.4,568.7934635429692 547.5,540.7662754154869 553.6,553.397282124055 559.7,543.1016182452623 565.8,548.9458914340935 571.9000000000001,545.5502108573935 578.0,536.5802081949957 584.1,540.6256388497873 590.2,550.2316872099518 596.3,545.3931338485785 602.4,528.7088082475202 608.5,504.0179663361737 614.6,501.940721849719 620.7,455.34823865726776 626.8,424.1243027652945 632.9,427.79664708600325 639.0,455.49506044083716 645.1,436.0746717756288 651.2,447.88387130970443 657.3000000000001,452.606788402958 663.4,466.9205830058371 669.5,463.97484928477786 675.6,466.8466734660203 681.6999999999999,479.98350330635054 687.8,458.2205218048523 693.9,424.7550363039756 700.0,425.4642656562592 706.1,425.5490856126976 712.2,440.7899638933273 718.3000000000001,442.7031701207044 724.4,456.1026124404282 730.5,480.2713598073768 736.6,470.8746534299281 742.7,436.19482610165386 748.8000000000001,444.07630779350364 754.9000000000001,470.2355427867061 761.0,489.52867136060286 767.1,493.8816490244657 773.2,474.22241435914435 779.3,497.50027742253314 785.4,525.363509177809 791.5,498.5902780803237 797.5999999999999,485.41254071921674 803.6999999999999,471.2850984320587 809.8,498.14035820862455 815.9,495.5158565883415 822.0,468.10501112239325 828.1,487.7615043395352 834.1999999999999,475.76443445618804 840.3,423.54812058056854 846.4,382.6587016984022 852.5,346.6092769249919 858.6,328.7259302102053 864.7,292.4536604488005 870.8000000000001,296.87238145695966 876.9,334.6084512055858 883.0,350.4307886431388 889.1,324.4153244867708 895.2,352.9286000037424 901.3000000000001,323.2130078250616 907.4000000000001,332.8116188820732 913.5,337.39099991817255 919.6,392.2719750592354 925.7,383.4924886669759 931.8,390.34979580369986 937.9,441.38562506685616 944.0,444.89229893464176 950.0999999999999,468.0480611759005 956.1999999999999,463.3226883133018 962.3,469.03917045101576 968.4,477.4906977609671 974.5,503.3394088807836 980.6,499.21298914080205 986.6999999999999,460.70444817769226 992.8,450.48570198563397 998.9,379.8431903060525 1005.0,355.65864240968494 1011.1,350.8167998523339 1017.2,355.5356884052291 1023.3000000000001,361.4555734081409 1029.4,346.323133086785 1035.5,371.8067606849012 1041.6,363.62637632695237 1047.7,351.89783450610895 1053.8000000000002,281.9183387407871 1059.9,209.6377369315295 1066.0,190.10418693279883 1072.1,222.41014242524994 1078.2,164.61256572632306 1084.3,123.1835987425867 1090.4,90.0 1096.5,141.758908479233 1102.6,142.25656016171718 1108.6999999999998,103.89201641736281 1114.8,121.55150223923465 1120.8999999999999,160.17827497761436 1127.0,107.778473049014 1133.1,167.02442884895925 1139.2,177.5821719690391 1145.3,163.3543427961855 1151.4,171.8380680951708 1157.5,210.05174278002227 1163.6,247.06097028000016 1169.7,287.38214018646624 1175.8,258.04502165864 1181.9,261.4830622012556 1188.0,255.17152124408682 1194.1000000000001,267.2705785890506 1200.2,272.8074980974874 1206.3,252.09769038042037 1212.4,254.2525537583167 1218.5,227.35690267779984 1224.6000000000001,267.5227843344848 1230.7,299.3436935908044 1236.8,381.9865392102173 1242.8999999999999,386.9377612403262 1249.0,395.85779021739853 1255.1,404.21094716144466 1261.2,394.3665477561943 1267.3,376.5204949160145 1273.3999999999999,372.32896030182906 1279.5,398.3516305203617 1285.6,390.34406250582373 1291.7,354.0438795051841 1297.8,324.2454762831351 1303.9,334.60189963717846 1310.0,334.7782829535181" fill="none" stroke="#9333ea" stroke-width="2.5"><title>budgeted_drawdown_tilt_rebalance | end=2026-05-01 | return=194.13%</title></polyline>
<polyline points="90.0,678.6443240113721 96.1,677.5965086640166 102.2,677.8501338510737 108.3,674.0398871253525 114.4,671.119663747947 120.5,671.4582528159336 126.6,666.8946881668761 132.7,677.7961719157877 138.8,680.6040815742228 144.9,679.8374453547119 151.0,673.5879679515743 157.1,684.1420809854559 163.2,688.2845727046565 169.3,687.8137753676015 175.4,687.406906043314 181.5,689.7703863771466 187.60000000000002,689.6900338561102 193.7,675.0633878000099 199.8,669.7076478103656 205.9,698.7992719939776 212.0,702.841874606675 218.1,703.9824204447357 224.2,697.9705541243733 230.3,699.0465381612928 236.4,704.68710264848 242.5,702.0809410283881 248.6,703.6011239392336 254.70000000000002,699.5154934921505 260.8,680.2185022366668 266.9,661.0674106538229 273.0,661.6388458891395 279.1,657.7051549748479 285.20000000000005,670.8897092628337 291.3,651.8117264970416 297.4,660.8583638545966 303.5,665.7283731539167 309.6,679.7453568222993 315.7,636.1535388679088 321.8,637.5932748839858 327.9,630.8580520176762 334.0,631.4636722305471 340.1,611.6053257600382 346.2,634.9585475941573 352.3,624.5769827055022 358.4,619.5766110469926 364.5,638.4403047019581 370.6,637.9212342530774 376.7,638.0111038583841 382.8,632.5756536558143 388.9,638.4882354953077 395.0,644.4103445342937 401.1,618.4665123494689 407.2,617.6623096980175 413.3,620.9254974444109 419.40000000000003,617.9952174372135 425.5,621.7921319511431 431.6,624.9846056802168 437.7,628.008219499266 443.79999999999995,625.8433240247955 449.9,647.5035501927917 456.0,647.8786906073509 462.09999999999997,649.9688886809735 468.2,649.1911870126418 474.3,646.129203512681 480.40000000000003,648.3395161379785 486.5,643.7738075730167 492.6,640.4949322415091 498.70000000000005,648.9716735869508 504.8,635.234845414667 510.9,610.2911112043168 517.0,604.48431965661 523.0999999999999,582.781643861237 529.2,590.9138551189785 535.3,580.9264546519568 541.4,576.8543596568182 547.5,542.8695690351253 553.6,558.0185974558261 559.7,545.074600955802 565.8,553.8733896382412 571.9000000000001,546.9552684066545 578.0,540.9223134332865 584.1,546.7854466115335 590.2,556.9394195627772 596.3,549.845257988947 602.4,526.1982182001636 608.5,492.12529451818693 614.6,491.4719333373764 620.7,423.2267279846577 626.8,378.7586932721073 632.9,382.26430473986255 639.0,423.3024698319635 645.1,393.1064316843002 651.2,410.16523473578025 657.3000000000001,416.7747013439818 663.4,437.603107731151 669.5,434.20722937317765 675.6,438.45775945697176 681.6999999999999,455.891646306785 687.8,424.7413489398593 693.9,386.51379466467404 700.0,388.61461204061635 706.1,386.3127188642737 712.2,407.7575690384245 718.3000000000001,412.28440745434955 724.4,432.702866263152 730.5,466.3240320696978 736.6,453.7395960690599 742.7,403.2019386260535 748.8000000000001,411.9034251870784 754.9000000000001,449.8400713748038 761.0,473.1101280828037 767.1,480.0999570309027 773.2,453.110684016222 779.3,483.11716303201047 785.4,517.2135124191132 791.5,482.9990749622027 797.5999999999999,467.3014921780518 803.6999999999999,451.22235481673795 809.8,479.2577625500818 815.9,476.46628734185754 822.0,445.2995065388444 828.1,462.9910095521577 834.1999999999999,449.0953035002661 840.3,400.01712753300103 846.4,344.1778587689665 852.5,303.9015788208664 858.6,294.4020115083138 864.7,263.6401790017024 870.8000000000001,263.79644635153915 876.9,299.55616408382394 883.0,319.0629195333554 889.1,290.82869677872407 895.2,320.4881991606351 901.3000000000001,278.24931048879216 907.4000000000001,285.0215572456151 913.5,293.47673351262034 919.6,351.1939952833967 925.7,341.9813595943246 931.8,350.24805454788856 937.9,414.8867926075473 944.0,412.97375626353335 950.0999999999999,436.92541196339397 956.1999999999999,433.0702415235754 962.3,436.6631725846887 968.4,443.73000602092884 974.5,462.2083625526217 980.6,457.10158562853945 986.6999999999999,409.586872954607 992.8,398.1238189866529 998.9,339.841573777648 1005.0,323.34856181877615 1011.1,311.78383742339395 1017.2,322.0882799083804 1023.3000000000001,325.03835576873075 1029.4,311.6153608264184 1035.5,334.0055045119289 1041.6,320.3964207573555 1047.7,310.920500420152 1053.8000000000002,245.30739555865915 1059.9,198.09725338046286 1066.0,185.67602154338624 1072.1,217.82372607809629 1078.2,166.71524667624408 1084.3,131.39649508107902 1090.4,103.51823330330092 1096.5,164.35485154758908 1102.6,161.49545684344537 1108.6999999999998,115.39516794828455 1114.8,134.52203215290172 1120.8999999999999,183.7919167746627 1127.0,112.03797627469919 1133.1,188.27899786977162 1139.2,207.2824798297492 1145.3,186.3972767732563 1151.4,197.42061493008384 1157.5,246.24049349527382 1163.6,295.8357495975816 1169.7,348.9122248502627 1175.8,312.02838376345153 1181.9,317.2079279656996 1188.0,309.8512658625227 1194.1000000000001,324.15788156303717 1200.2,330.3954849907543 1206.3,307.7499596548198 1212.4,309.2122587707722 1218.5,279.05840981681513 1224.6000000000001,322.06964811243574 1230.7,356.2664595535817 1236.8,443.42295425214576 1242.8999999999999,449.44974523811715 1249.0,457.78163171401894 1255.1,466.78869652906553 1261.2,456.6483864808373 1267.3,439.90959589426956 1273.3999999999999,437.21928022239877 1279.5,460.72446682541664 1285.6,454.3317679503961 1291.7,422.48953445706576 1297.8,397.6720482807086 1303.9,404.41989878639345 1310.0,403.71483050807507" fill="none" stroke="#92400e" stroke-width="2.5"><title>budgeted_btc_defensive_eth_aggressive | end=2026-05-01 | return=155.21%</title></polyline>
</svg>