<svg xmlns="http://www.w3.org/2000/svg" width="1400" height="800">
<rect width="1400" height="800" fill="#f8fafc"/>
<text x="700.0" y="42" text-anchor="middle" font-family="monospace" font-size="24" fill="#0f172a">Portfolio Value Over Time | start=2020-04-01 | interval=7d</text>
<line x1="90" y1="710" x2="1310" y2="710" stroke="#334155" stroke-width="2"/>
<line x1="90" y1="90" x2="90" y2="710" stroke="#334155" stroke-width="2"/>
<line x1="90.0" y1="710" x2="90.0" y2="90" stroke="#cbd5e1" stroke-width="1"/>
<text x="90.0" y="734" text-anchor="middle" font-family="monospace" font-size="11" fill="#475569">2020-04-01</text>
<line x1="90" y1="710.0" x2="1310" y2="710.0" stroke="#cbd5e1" stroke-width="1"/>
<text x="78" y="714.0" text-anchor="end" font-family="monospace" font-size="12" fill="#475569">9988</text>
<line x1="334.0" y1="710" x2="334.0" y2="90" stroke="#cbd5e1" stroke-width="1"/>
<text x="334.0" y="734" text-anchor="middle" font-family="monospace" font-size="11" fill="#475569">2021-06-23</text>
<line x1="90" y1="586.0" x2="1310" y2="586.0" stroke="#cbd5e1" stroke-width="1"/>
<text x="78" y="590.0" text-anchor="end" font-family="monospace" font-size="12" fill="#475569">32939</text>
<line x1="578.0" y1="710" x2="578.0" y2="90" stroke="#cbd5e1" stroke-width="1"/>
<text x="578.0" y="734" text-anchor="middle" font-family="monospace" font-size="11" fill="#475569">2022-09-07</text>
<line x1="90" y1="462.0" x2="1310" y2="462.0" stroke="#cbd5e1" stroke-width="1"/>
<text x="78" y="466.0" text-anchor="end" font-family="monospace" font-size="12" fill="#475569">55890</text>
<line x1="822.0000000000001" y1="710" x2="822.0000000000001" y2="90" stroke="#cbd5e1" stroke-width="1"/>
<text x="822.0000000000001" y="734" text-anchor="middle" font-family="monospace" font-size="11" fill="#475569">2023-11-29</text>
<line x1="90" y1="338.0" x2="1310" y2="338.0" stroke="#cbd5e1" stroke-width="1"/>
<text x="78" y="342.0" text-anchor="end" font-family="monospace" font-size="12" fill="#475569">78842</text>
<line x1="1066.0" y1="710" x2="1066.0" y2="90" stroke="#cbd5e1" stroke-width="1"/>
<text x="1066.0" y="734" text-anchor="middle" font-family="monospace" font-size="11" fill="#475569">2025-02-12</text>
<line x1="90" y1="214.0" x2="1310" y2="214.0" stroke="#cbd5e1" stroke-width="1"/>
<text x="78" y="218.0" text-anchor="end" font-family="monospace" font-size="12" fill="#475569">101793</text>
<line x1="1310.0" y1="710" x2="1310.0" y2="90" stroke="#cbd5e1" stroke-width="1"/>
<text x="1310.0" y="734" text-anchor="middle" font-family="monospace" font-size="11" fill="#475569">2026-05-06</text>
<line x1="90" y1="90.0" x2="1310" y2="90.0" stroke="#cbd5e1" stroke-width="1"/>
<text x="78" y="94.0" text-anchor="end" font-family="monospace" font-size="12" fill="#475569">124744</text>
<text x="700.0" y="782" text-anchor="middle" font-family="monospace" font-size="16" fill="#0f172a">time</text>
<text x="24" y="400.0" transform="rotate(-90 24,400.0)" text-anchor="middle" font-family="monospace" font-size="16" fill="#0f172a">portfolio_value_usd</text>
<line x1="970" y1="80" x2="988" y2="80" stroke="#0f766e" stroke-width="3"/>
<text x="998" y="84" font-family="monospace" font-size="12" fill="#0f172a">budgeted_static_50_50_rebalance</text>
<line x1="970" y1="104" x2="988" y2="104" stroke="#9333ea" stroke-width="3"/>
<text x="998" y="108" font-family="monospace" font-size="12" fill="#0f172a">budgeted_drawdown_tilt_rebalance</text>
<line x1="970" y1="128" x2="988" y2="128" stroke="#92400e" stroke-width="3"/>
<text x="998" y="132" font-family="monospace" font-size="12" fill="#0f172a">budgeted_btc_defensive_eth_aggressive</text>
<polyline points="90.0,709.932487253246 93.83647798742139,709.6867689652269 97.67295597484276,710.0 101.50943396226415,709.4681430217465 105.34591194968553,708.3184349610613 109.18238993710692,708.4727617816638 113.01886792452831,708.3720889048095 116.85534591194968,708.0025267917646 120.69182389937107,708.2447260021144 124.52830188679246,706.7531746056328 128.36477987421384,706.4505157027984 132.2012578616352,707.3638589411262 136.03773584905662,707.4938424036834 139.874213836478,707.6855863909933 143.71069182389937,706.7424833018939 147.54716981132077,707.4458680441181 151.38364779874215,705.706321661239 155.22012578616352,700.8227375235514 159.05660377358492,695.3569948052398 162.89308176100627,696.4164605236742 166.72955974842768,694.9452866855902 170.56603773584905,696.6846917418127 174.40251572327043,693.4476262656965 178.23899371069183,700.9613873530934 182.0754716981132,698.8002339163919 185.91194968553458,703.0428228922208 189.74842767295598,699.3576594793154 193.58490566037736,700.8424349991425 197.42138364779873,696.680924278241 201.25786163522014,692.9344290844224 205.0943396226415,692.131945597368 208.9308176100629,689.1746786419026 212.7672955974843,681.3999630623358 216.60377358490567,675.8544150687593 220.44025157232704,667.2780812477336 224.27672955974842,664.1451921442089 228.11320754716982,667.2838835225951 231.9496855345912,656.8253776882108 235.78616352201257,656.6937713263792 239.62264150943398,633.1250026239751 243.45911949685535,584.5678054033997 247.29559748427673,589.157322840787 251.1320754716981,575.9726666562408 254.9685534591195,595.0578208308801 258.80503144654085,552.9341313081086 262.64150943396226,533.5865134800458 266.47798742138366,511.9641579489954 270.31446540880506,530.3583857091191 274.1509433962264,532.4862830225924 277.98742138364776,508.1288476026551 281.82389937106916,500.46266712145155 285.66037735849056,527.4488678876639 289.49685534591197,495.04321604303476 293.3333333333333,497.8618239895617 297.1698113207547,457.52189393986225 301.00628930817606,479.3897158070901 304.84276729559747,455.58274631273844 308.6792452830189,409.01246702756885 312.5157232704403,409.8837187415244 316.3522012578616,502.6828289863273 320.188679245283,476.24689657324075 324.02515723270443,488.2794806964116 327.8616352201258,492.9594818650975 331.6981132075472,501.76945784626 335.5345911949686,529.7517744132425 339.37106918239,512.8964521750536 343.20754716981133,513.7561233553428 347.04402515723274,530.5251142482202 350.8805031446541,532.0014276197658 354.7169811320755,499.92607795008416 358.55345911949684,481.4039013022303 362.38993710691824,447.9982696879382 366.22641509433964,456.5306901062891 370.062893081761,436.8546088634233 373.8993710691824,411.47530850198774 377.7358490566038,432.1258779343343 381.57232704402514,422.1433306864091 385.40880503144655,455.5241415570739 389.24528301886795,470.03035912515486 393.0817610062893,404.8147201058764 396.9182389937107,398.2498993651453 400.75471698113205,353.41412530579476 404.59119496855345,382.46495784502605 408.42767295597486,343.52117750703775 412.2641509433962,337.32913415531226 416.1006289308176,362.64660090184316 419.937106918239,371.7869966423787 423.77358490566036,359.48241056131354 427.61006289308176,383.03105986213563 431.44654088050316,403.05584494316014 435.2830188679245,405.3063634135506 439.1194968553459,424.1202870611965 442.95597484276726,435.9404708964431 446.79245283018867,440.7064271262898 450.62893081761007,457.77466932691397 454.4654088050314,494.6999051359858 458.3018867924528,486.2576855209801 462.1383647798742,443.36868307870606 465.97484276729557,449.52265697155525 469.811320754717,489.5857211064055 473.6477987421383,456.0630850031238 477.4842767295597,470.3903430006671 481.3207547169811,470.87372237116523 485.1572327044025,455.16908750544417 488.9937106918239,429.1052599898115 492.8301886792453,449.104280355845 496.66666666666663,456.9351639870042 500.50314465408803,457.94193567689615 504.33962264150944,471.69191728308715 508.1761006289308,468.43394680288657 512.0125786163521,534.9601708230792 515.8490566037735,542.5041998526664 519.6855345911949,538.8214491337419 523.5220125786163,543.1052214621901 527.3584905660377,542.9956847932579 531.1949685534591,589.5476573997144 535.0314465408806,605.5217713707314 538.8679245283018,602.9337810678651 542.7044025157232,597.7040878352859 546.5408805031445,601.9228674768137 550.377358490566,573.831069500409 554.2138364779875,569.4187472666633 558.0503144654089,570.6770312787136 561.8867924528302,555.9759302213354 565.7232704402516,558.9320493679891 569.559748427673,573.7655979665368 573.3962264150944,583.0091592023442 577.2327044025158,582.1049682622528 581.0691823899372,578.3819002594781 584.9056603773586,602.792158729898 588.74213836478,595.1106189490929 592.5786163522013,591.6972762332487 596.4150943396227,598.094590768316 600.2515723270441,598.6837504964398 604.0880503144655,578.6175443942456 607.9245283018868,583.2469162567274 611.7610062893082,619.1869266628134 615.5974842767296,610.6780107115011 619.433962264151,612.4853732792732 623.2704402515724,604.7201972673424 627.1069182389937,609.1164388826608 630.9433962264151,601.7357573340538 634.7798742138365,610.0483475369992 638.6163522012579,612.3369438716784 642.4528301886793,607.8125183327252 646.2893081761007,597.0336489716349 650.125786163522,580.823443830546 653.9622641509434,566.9701918068436 657.7987421383648,563.0532384228347 661.6352201257862,565.4195184933917 665.4716981132076,559.329882761428 669.3081761006289,561.4045073045666 673.1446540880503,562.2576922734202 676.9811320754717,575.5409947403821 680.8176100628931,560.0522415776345 684.6540880503145,545.7657615582237 688.4905660377359,539.5306880239981 692.3270440251572,534.3947803341272 696.1635220125786,528.0664673252772 700.0,530.9536880584972 703.8364779874214,535.5699476296875 707.6729559748428,531.6270161137603 711.5094339622641,539.3820758312697 715.3459119496855,541.0682799902607 719.1823899371069,545.742822154606 723.0188679245283,539.1428478611593 726.8553459119497,544.0585646056688 730.6918238993711,556.937948557115 734.5283018867924,529.0076065242358 738.3647798742138,531.8265417786172 742.2012578616352,526.2948381013006 746.0377358490566,528.5981614386228 749.874213836478,529.2350712912987 753.7106918238993,531.8798218679076 757.5471698113207,534.1309426000539 761.3836477987421,532.1024326551562 765.2201257861635,537.2722981707931 769.0566037735849,550.8188401572354 772.8930817610063,546.6826921697067 776.7295597484276,555.3870871957695 780.566037735849,555.0679184067772 784.4025157232704,551.4538042423701 788.2389937106918,555.1837116685772 792.0754716981132,548.0702313371409 795.9119496855345,555.1748592192611 799.7484276729559,550.7075560610172 803.5849056603773,519.3006821666265 807.4213836477987,513.1591851399667 811.2578616352201,510.3246210624029 815.0943396226414,494.3438923263741 818.9308176100628,495.4800094667286 822.7672955974842,496.02608956981135 826.6037735849056,467.7757246347228 830.440251572327,468.85607371343923 834.2767295597484,469.6637523072745 838.1132075471697,460.7534897355339 841.9496855345911,471.47575688164727 845.7861635220125,440.95149619562505 849.622641509434,454.95172516170464 853.4591194968554,477.7466283291702 857.2955974842766,468.25459184842873 861.132075471698,455.7593572183232 864.9685534591194,416.30024042515936 868.8050314465409,406.5381566305553 872.6415094339623,355.5260845429919 876.4779874213837,323.6531461854819 880.314465408805,295.25184944767216 884.1509433962264,333.72187922927935 887.9874213836478,330.34114706845736 891.8238993710692,348.6990241394529 895.6603773584906,324.8924842728316 899.4968553459119,377.08781623641073 903.3333333333333,361.6737716871988 907.1698113207547,385.7168550417592 911.0062893081761,377.97044181095356 914.8427672955975,361.81547256834006 918.6792452830189,318.27159570120216 922.5157232704402,320.8926028248277 926.3522012578616,306.4696911585227 930.188679245283,329.1813211175155 934.0251572327044,337.6794387777781 937.8616352201258,357.7423047377197 941.6981132075471,363.3104147257079 945.5345911949685,379.11165934011603 949.3710691823899,348.10055929988266 953.2075471698113,347.3007418784188 957.0440251572327,354.4023601277961 960.8805031446541,423.47521868362946 964.7169811320754,398.24961445165496 968.5534591194968,393.4571601076423 972.3899371069182,404.1282955677501 976.2264150943396,410.902535104268 980.062893081761,418.2307424221326 983.8993710691823,405.4174005294176 987.7358490566037,391.08312492403894 991.5723270440251,408.86469423290697 995.4088050314465,408.725458140886 999.2452830188679,378.3990010279524 1003.0817610062892,385.74586147207026 1006.9182389937108,364.52654631716905 1010.7547169811321,352.9939018379627 1014.5911949685535,291.9357557086669 1018.4276729559749,289.94671447106674 1022.2641509433963,252.49086954043673 1026.1006289308177,235.60451939965463 1029.937106918239,230.68507071335932 1033.7735849056603,244.94634734243067 1037.6100628930817,254.1598833160847 1041.446540880503,272.88087589190457 1045.2830188679245,273.0518003596941 1049.119496855346,254.1436792529185 1052.9559748427673,259.821807123694 1056.7924528301887,267.1697210834678 1060.6289308176101,301.09453806975307 1064.4654088050315,301.59315634353544 1068.301886792453,305.463690266434 1072.1383647798743,353.565164607704 1075.9748427672957,346.33662920064245 1079.8113207547171,380.58803277827553 1083.6477987421385,365.0204228789157 1087.48427672956,367.924785489781 1091.3207547169811,390.1014200740603 1095.1572327044025,398.0149459243652 1098.993710691824,401.3611182711997 1102.8301886792453,368.9955318756604 1106.6666666666667,368.33732678159276 1110.5031446540881,362.0001937788297 1114.3396226415095,295.8711872013224 1118.176100628931,288.9822541243742 1122.0125786163521,283.2793732668216 1125.8490566037735,293.7858285510609 1129.685534591195,275.4443917452157 1133.5220125786163,299.3970656318155 1137.3584905660377,302.3955303831401 1141.1949685534591,289.04361109983296 1145.0314465408806,270.6157219875309 1148.867924528302,214.43433350326586 1152.7044025157234,196.11585259117976 1156.5408805031448,185.45101730413273 1160.3773584905662,199.05218334792602 1164.2138364779873,112.99126797676354 1168.0503144654087,156.30601012517081 1171.8867924528302,151.12056803196117 1175.7232704402516,153.5429062402743 1179.559748427673,155.5756744259951 1183.3962264150944,136.4825776668166 1187.2327044025158,168.09979438064977 1191.0691823899372,146.55249348162272 1194.9056603773586,127.35549113531624 1198.74213836478,182.57017448440115 1202.5786163522014,199.26854779869933 1206.4150943396226,188.85290039908557 1210.251572327044,228.77266420868585 1214.0880503144654,233.6703958118352 1217.9245283018868,276.412153392022 1221.7610062893082,278.1536936676571 1225.5974842767296,262.6468705714397 1229.433962264151,257.4109427570442 1233.2704402515724,298.23881968626506 1237.1069182389938,288.72598085692346 1240.9433962264152,287.6411578547413 1244.7798742138366,268.128704794888 1248.6163522012578,245.33781940550216 1252.4528301886792,283.3252385361623 1256.2893081761006,282.1154489997354 1260.125786163522,367.4667533635912 1263.9622641509434,392.12537400455557 1267.7987421383648,392.40173456378966 1271.6352201257862,382.80749409764 1275.4716981132076,368.78250245204214 1279.308176100629,378.6258614019537 1283.1446540880504,366.95307311945044 1286.9811320754718,369.0788354661858 1290.817610062893,377.53326171792173 1294.6540880503144,368.0735359764365 1298.4905660377358,349.21232567434134 1302.3270440251572,341.10505453296815 1306.1635220125786,354.3215727380358 1310.0,335.7254647428115" fill="none" stroke="#0f766e" stroke-width="2.5"><title>budgeted_static_50_50_rebalance | end=2026-05-06 | return=692.63%</title></polyline>
<polyline points="90.0,709.932487253246 93.83647798742139,709.6867689652269 97.67295597484276,710.0 101.50943396226415,709.4681430217465 105.34591194968553,708.3184349610613 109.18238993710692,708.4727617816638 113.01886792452831,708.3720889048095 116.85534591194968,708.0025267917646 120.69182389937107,708.2447260021144 124.52830188679246,706.7531746056328 128.36477987421384,706.4505157027984 132.2012578616352,707.3638589411262 136.03773584905662,707.4938424036834 139.874213836478,707.6855863909933 143.71069182389937,706.7424833018939 147.54716981132077,707.4458680441181 151.38364779874215,705.706321661239 155.22012578616352,701.0619207718913 159.05660377358492,696.0508444499364 162.89308176100627,696.9899070586775 166.72955974842768,695.7236232397762 170.56603773584905,697.1739828831634 174.40251572327043,694.5119497034624 178.23899371069183,700.4081848486538 182.0754716981132,698.7142168130499 185.91194968553458,702.1076529386273 189.74842767295598,699.0825566438994 193.58490566037736,700.3176858344402 197.42138364779873,696.8627764574018 201.25786163522014,693.9392354690549 205.0943396226415,693.3848981012933 208.9308176100629,691.0072202684664 212.7672955974843,684.3667240368025 216.60377358490567,680.0735496102086 220.44025157232704,672.7345563059982 224.27672955974842,670.1446246293507 228.11320754716982,672.6454474082801 231.9496855345912,664.586511127393 235.78616352201257,665.0525567720488 239.62264150943398,647.2254456565429 243.45911949685535,609.978772618038 247.29559748427673,613.7947033305669 251.1320754716981,602.8464191370231 254.9685534591195,616.3496362295583 258.80503144654085,584.7060714540611 262.64150943396226,571.498176276168 266.47798742138366,556.7123705281482 270.31446540880506,570.1092467912326 274.1509433962264,571.9196878368462 277.98742138364776,554.2454107460503 281.82389937106916,549.0717997844578 285.66037735849056,567.9479189691444 289.49685534591197,544.890955026274 293.3333333333333,546.4456567226721 297.1698113207547,518.2829409763583 301.00628930817606,532.2642513797837 304.84276729559747,515.0905375920674 308.6792452830189,482.39677134433174 312.5157232704403,481.49358077476415 316.3522012578616,545.4673677321285 320.188679245283,526.526262456757 324.02515723270443,535.2131910906995 327.8616352201258,538.8118614823705 331.6981132075472,546.0934116729197 335.5345911949686,566.9098257454548 339.37106918239,553.7566833715287 343.20754716981133,554.0169251695477 347.04402515723274,567.5401083523507 350.8805031446541,568.498781802082 354.7169811320755,544.6231214246491 358.55345911949684,528.7689918133668 362.38993710691824,502.4661184320583 366.22641509433964,509.5766357856255 370.062893081761,494.0769345027247 373.8993710691824,471.4737743030203 377.7358490566038,488.5066387174114 381.57232704402514,480.52822845948333 385.40880503144655,508.2666931951361 389.24528301886795,520.33197861599 393.0817610062893,468.0494262676175 396.9182389937107,463.24729267436305 400.75471698113205,429.1022314156103 404.59119496855345,449.8295971044801 408.42767295597486,420.42396006617383 412.2641509433962,416.29280759148276 416.1006289308176,434.05022553592914 419.937106918239,439.8357460834413 423.77358490566036,430.59924974744047 427.61006289308176,446.04152759936363 431.44654088050316,460.81212370854917 435.2830188679245,462.449429150521 439.1194968553459,476.2883736911772 442.95597484276726,484.3894894121257 446.79245283018867,488.3167208125556 450.62893081761007,500.90697446080105 454.4654088050314,528.2646635758615 458.3018867924528,521.5878206641275 462.1383647798742,490.22606315049575 465.97484276729557,494.94895717866586 469.811320754717,524.6052960731209 473.6477987421383,500.05978718204256 477.4842767295597,510.90749404304233 481.3207547169811,511.06337728053416 485.1572327044025,498.9879811852595 488.9937106918239,479.157187535372 492.8301886792453,494.36951469396 496.66666666666663,500.21831936273236 500.50314465408803,501.1229538216853 504.33962264150944,511.9226323230416 508.1761006289308,509.3267383613949 512.0125786163521,562.0223742766202 515.8490566037735,568.351555962377 519.6855345911949,565.4686040829854 523.5220125786163,569.2732719163641 527.3584905660377,569.293449603351 531.1949685534591,607.7175897279226 535.0314465408806,621.0488254189795 538.8679245283018,618.7797740113673 542.7044025157232,614.1942448169501 546.5408805031445,617.9453721875291 550.377358490566,592.9672965279722 554.2138364779875,588.7712015903924 558.0503144654089,589.9057071738912 561.8867924528302,576.4038328836184 565.7232704402516,579.0043803586722 569.559748427673,592.6478858812184 573.3962264150944,601.167839455926 577.2327044025158,599.8470724897716 581.0691823899372,596.5681119322292 584.9056603773586,620.4775335905011 588.74213836478,613.0915722454785 592.5786163522013,609.8899077684131 596.4150943396227,616.0867754904294 600.2515723270441,616.6720818786486 604.0880503144655,596.6936152936751 607.9245283018868,601.3566785402261 611.7610062893082,638.1272682475783 615.5974842767296,629.3290343532543 619.433962264151,631.2150205658663 623.2704402515724,623.0999172554266 627.1069182389937,627.719190858092 630.9433962264151,619.9576819161294 634.7798742138365,628.7411759429579 638.6163522012579,631.1563186512401 642.4528301886793,626.3355252053805 646.2893081761007,614.8615815625393 650.125786163522,597.7021551378056 653.9622641509434,582.9466202015483 657.7987421383648,578.738503430458 661.6352201257862,581.2334081167969 665.4716981132076,574.649167180633 669.3081761006289,576.972602918742 673.1446540880503,577.8610604600599 676.9811320754717,592.7043833519068 680.8176100628931,575.4601066413327 684.6540880503145,559.5058710247982 688.4905660377359,552.472977727074 692.3270440251572,546.6788552590253 696.1635220125786,539.4333579230644 700.0,542.7801035790817 703.8364779874214,548.0887094487947 707.6729559748428,543.5267611128507 711.5094339622641,552.5403688535125 715.3459119496855,554.3924381762076 719.1823899371069,559.3117747821378 723.0188679245283,552.497250459134 726.8553459119497,557.3647167874335 730.6918238993711,569.5862528452202 734.5283018867924,543.3472565550668 738.3647798742138,545.865586268955 742.2012578616352,541.0774204326374 746.0377358490566,543.0098324746473 749.874213836478,543.6097306803026 753.7106918238993,545.8007425758133 757.5471698113207,547.57780964892 761.3836477987421,545.9609312149008 765.2201257861635,549.9937396741186 769.0566037735849,560.4197751491133 772.8930817610063,557.2189269038311 776.7295597484276,563.9666343399534 780.566037735849,563.679135243663 784.4025157232704,560.8298514626844 788.2389937106918,563.7640401352256 792.0754716981132,558.1322362763717 795.9119496855345,563.7354128987611 799.7484276729559,560.0678810412195 803.5849056603773,534.5665859248004 807.4213836477987,529.5992311628502 811.2578616352201,527.3525036231816 815.0943396226414,514.7994071046651 818.9308176100628,515.6839492220411 822.7672955974842,516.0941772090767 826.6037735849056,494.686119049068 830.440251572327,495.53477714019687 834.2767295597484,496.07806480211707 838.1132075471697,489.62482044909876 841.9496855345911,497.36000088686546 845.7861635220125,475.45078066623256 849.622641509434,485.54607226059204 853.4591194968554,501.61254526796046 857.2955974842766,494.89107177259734 861.132075471698,486.1412718381482 864.9685534591194,458.5729200552595 868.8050314465409,451.8410859475527 872.6415094339623,416.5904130066934 876.4779874213837,394.8099360365525 880.314465408805,375.4632384420551 884.1509433962264,401.3401490370297 887.9874213836478,399.08317466364684 891.8238993710692,411.2553536271932 895.6603773584906,395.3977024772438 899.4968553459119,429.91567864466043 903.3333333333333,419.6599831228231 907.1698113207547,435.72143356552465 911.0062893081761,430.5184822880714 914.8427672955975,419.5721583476688 918.6792452830189,390.2289392916738 922.5157232704402,392.01020873092284 926.3522012578616,382.4094803634084 930.188679245283,397.49933168310275 934.0251572327044,403.03946609301283 937.8616352201258,416.14967154823773 941.6981132075471,419.8330227145889 945.5345911949685,430.26734450339336 949.3710691823899,409.93420335180264 953.2075471698113,409.51484087035686 957.0440251572327,414.2716754714685 960.8805031446541,460.4513292009442 964.7169811320754,443.4676922300412 968.5534591194968,440.2288197698172 972.3899371069182,447.51866598634797 976.2264150943396,452.1710529669579 980.062893081761,457.200435558447 983.8993710691823,448.08727481375905 987.7358490566037,438.093125227953 991.5723270440251,450.6620128815933 995.4088050314465,450.5687487355342 999.2452830188679,428.57005524927763 1003.0817610062892,433.8896471246705 1006.9182389937108,418.172287382824 1010.7547169811321,409.52590716775825 1014.5911949685535,363.5426799016611 1018.4276729559749,361.7231594292006 1022.2641509433963,334.2612866647337 1026.1006289308177,321.9364614806313 1029.937106918239,318.2607294317104 1033.7735849056603,328.19725959272023 1037.6100628930817,334.5176331215996 1041.446540880503,347.4715525448976 1045.2830188679245,347.52914977341203 1049.119496855346,334.31366810690184 1052.9559748427673,337.81860467171157 1056.7924528301887,342.75393323758254 1060.6289308176101,366.28954859033126 1064.4654088050315,366.5017932957351 1068.301886792453,369.28135340508675 1072.1383647798743,403.7973558943431 1075.9748427672957,398.10600664457235 1079.8113207547171,422.84778553376873 1083.6477987421385,411.44980189942 1087.48427672956,413.52765589267307 1091.3207547169811,430.02501386249446 1095.1572327044025,435.82278691003717 1098.993710691824,438.1897048885871 1102.8301886792453,412.88491605680974 1106.6666666666667,412.34191756823554 1110.5031446540881,407.171689526004 1114.3396226415095,354.66809719633466 1118.176100628931,348.7635856530759 1122.0125786163521,344.35922381972136 1125.8490566037735,352.95945545608964 1129.685534591195,337.96897603800886 1133.5220125786163,357.5822644270449 1137.3584905660377,359.9942619373067 1141.1949685534591,348.97675181529405 1145.0314465408806,333.7038089202488 1148.867924528302,286.7658186383396 1152.7044025157234,271.15020656873514 1156.5408805031448,262.05170348759856 1160.3773584905662,273.0361019747272 1164.2138364779873,202.93578367486697 1168.0503144654087,236.781182567523 1171.8867924528302,232.1456756139596 1175.7232704402516,234.12010325939372 1179.559748427673,235.9521865608773 1183.3962264150944,221.68094677930839 1187.2327044025158,245.07878438714806 1191.0691823899372,229.5650742090952 1194.9056603773586,215.8680080479113 1198.74213836478,255.01807976076782 1202.5786163522014,266.93775001713067 1206.4150943396226,259.562794915864 1210.251572327044,288.2761579643979 1214.0880503144654,291.6016616746143 1217.9245283018868,322.0149172625911 1221.7610062893082,323.17421429594873 1225.5974842767296,311.9692725943453 1229.433962264151,307.8154911989054 1233.2704402515724,337.7875570439831 1237.1069182389938,330.787164630358 1240.9433962264152,329.9450487049489 1244.7798742138366,315.63743602915105 1248.6163522012578,299.07502287517445 1252.4528301886792,327.043796141433 1256.2893081761006,326.0802110532124 1260.125786163522,389.4232875221281 1263.9622641509434,407.61928645693223 1267.7987421383648,407.73203093633674 1271.6352201257862,400.43145971936394 1275.4716981132076,390.1293295231947 1279.308176100629,397.54795705761967 1283.1446540880504,388.3360783755196 1286.9811320754718,390.07170755072497 1290.817610062893,396.3287331591236 1294.6540880503144,389.17295862735295 1298.4905660377358,374.38283460841893 1302.3270440251572,368.3715249241338 1306.1635220125786,378.86862965853624 1310.0,364.5254708322311" fill="none" stroke="#9333ea" stroke-width="2.5"><title>budgeted_drawdown_tilt_rebalance | end=2026-05-06 | return=639.32%</title></polyline>
<polyline points="90.0,709.932487253246 93.83647798742139,709.6867689652269 97.67295597484276,710.0 101.50943396226415,709.4681430217465 105.34591194968553,708.3184349610613 109.18238993710692,708.4727617816638 113.01886792452831,708.3720889048095 116.85534591194968,708.0025267917646 120.69182389937107,708.2447260021144 124.52830188679246,706.7531746056328 128.36477987421384,706.4505157027984 132.2012578616352,707.3638589411262 136.03773584905662,707.4938424036834 139.874213836478,707.6855863909933 143.71069182389937,706.7424833018939 147.54716981132077,707.4458680441181 151.38364779874215,705.706321661239 155.22012578616352,700.8825333356364 159.05660377358492,695.530457216414 162.89308176100627,696.5600063939796 166.72955974842768,695.1397865035328 170.56603773584905,696.8072142268877 174.40251572327043,693.713194196825 178.23899371069183,700.8479930758106 182.0754716981132,698.8122997762821 185.91194968553458,702.8406772136296 189.74842767295598,699.3062138126794 193.58490566037736,700.7382110987321 197.42138364779873,696.8124518452747 201.25786163522014,693.4543044976837 205.0943396226415,692.8018057499346 208.9308176100629,690.0784834181532 212.7672955974843,682.6547617377721 216.60377358490567,677.361329143341 220.44025157232704,669.0650072534078 224.27672955974842,666.005770406048 228.11320754716982,669.1282998808714 231.9496855345912,658.4812172039768 235.78616352201257,657.7331722478006 239.62264150943398,633.5873257009777 243.45911949685535,585.1537702245568 247.29559748427673,589.1351726871953 251.1320754716981,577.9786203087942 254.9685534591195,598.4514053062977 258.80503144654085,554.0179618053647 262.64150943396226,532.4736331885381 266.47798742138366,508.5448838875534 270.31446540880506,528.3279393444376 274.1509433962264,530.4721757499411 277.98742138364776,503.3826912912797 281.82389937106916,494.5705151408752 285.66037735849056,524.8605295722931 289.49685534591197,488.69427082960374 293.3333333333333,492.46233117974987 297.1698113207547,447.66543219372517 301.00628930817606,473.20294822658445 304.84276729559747,446.72777161293817 308.6792452830189,394.098737559123 312.5157232704403,395.3633754683442 316.3522012578616,506.18458572239035 320.188679245283,473.9341995048585 324.02515723270443,488.77251691082586 327.8616352201258,494.79062137571054 331.6981132075472,506.7168277713352 335.5345911949686,541.9866822035029 339.37106918239,520.3368420154316 343.20754716981133,521.1201637433567 347.04402515723274,542.928037554722 350.8805031446541,544.6938884958658 354.7169811320755,504.4843005094734 358.55345911949684,480.494115484877 362.38993710691824,438.102342456222 366.22641509433964,449.2191383235475 370.062893081761,424.39833278189457 373.8993710691824,389.5771244949727 377.7358490566038,416.84098074017834 381.57232704402514,404.0957278765518 385.40880503144655,448.70834019125624 389.24528301886795,467.98050356891724 393.0817610062893,385.8252397116537 396.9182389937107,378.1524787167935 400.75471698113205,322.01212641589757 404.59119496855345,356.90903174436403 408.42767295597486,307.10421184200715 412.2641509433962,300.00539148480226 416.1006289308176,331.18626737177004 419.937106918239,341.45559787311106 423.77358490566036,325.41056409449607 427.61006289308176,352.487394257144 431.44654088050316,378.5590076080084 435.2830188679245,381.43548348625626 439.1194968553459,405.7529518248717 442.95597484276726,419.4128307312979 446.79245283018867,426.632374603238 450.62893081761007,448.394886398129 454.4654088050314,495.43770599848517 458.3018867924528,483.80847625333126 462.1383647798742,430.8904710209696 465.97484276729557,438.9077812681001 469.811320754717,488.64931781175335 473.6477987421383,447.7683916506351 477.4842767295597,465.70294301899617 481.3207547169811,465.9258871952858 485.1572327044025,446.34881921036714 488.9937106918239,414.43085466696806 492.8301886792453,438.77872500997216 496.66666666666663,448.1176230188097 500.50314465408803,449.52716067178227 504.33962264150944,466.5440646497967 508.1761006289308,462.4963689070903 512.0125786163521,544.1295105271591 515.8490566037735,553.7186665912441 519.6855345911949,549.3772787724731 523.5220125786163,554.9245650949888 527.3584905660377,554.9237149200956 531.1949685534591,609.8690481856909 535.0314465408806,628.5168577382746 538.8679245283018,625.4630234494517 542.7044025157232,619.4167087901883 546.5408805031445,624.2454220833706 550.377358490566,592.6728662178749 554.2138364779875,587.6029758327561 558.0503144654089,588.9935393381542 561.8867924528302,572.7882226818599 565.7232704402516,575.9804183326495 569.559748427673,592.1818381102181 573.3962264150944,602.1649136758599 577.2327044025158,600.83803174631 581.0691823899372,597.0876731000996 584.9056603773586,623.8259525948924 588.74213836478,615.7342275780393 592.5786163522013,612.2992651675831 596.4150943396227,618.8565609725846 600.2515723270441,619.4677108973497 604.0880503144655,598.9745334727372 607.9245283018868,603.6832536652537 611.7610062893082,640.4362132888732 615.5974842767296,631.7749838118312 619.433962264151,633.6342613328158 623.2704402515724,625.7907987930862 627.1069182389937,630.2391897245817 630.9433962264151,622.896296042668 634.7798742138365,631.2195311657717 638.6163522012579,633.5014930204222 642.4528301886793,628.9287828925217 646.2893081761007,618.1358412508497 650.125786163522,602.2306610479544 653.9622641509434,588.5606994791915 657.7987421383648,584.6619028655897 661.6352201257862,586.9119530201642 665.4716981132076,580.8713862729321 669.3081761006289,583.0458651246602 673.1446540880503,583.8175657634276 676.9811320754717,597.5326633983941 680.8176100628931,581.6478521104127 684.6540880503145,567.0291077094682 688.4905660377359,560.5762875499355 692.3270440251572,555.1853907937596 696.1635220125786,548.5858623659897 700.0,551.6125981399864 703.8364779874214,556.5119657242695 707.6729559748428,552.3220865049602 711.5094339622641,560.5858369178088 715.3459119496855,562.3629341911311 719.1823899371069,567.3392679816874 723.0188679245283,560.4047343004222 726.8553459119497,565.6007669568819 730.6918238993711,578.8109978820103 734.5283018867924,549.5529177947187 738.3647798742138,552.2867933669249 742.2012578616352,546.790753378577 746.0377358490566,549.0318689514586 749.874213836478,549.9157372293657 753.7106918238993,552.7310586430751 757.5471698113207,554.915470302169 761.3836477987421,552.7819501371366 765.2201257861635,558.0796612611043 769.0566037735849,571.9212132439729 772.8930817610063,567.5615491423175 776.7295597484276,576.4725404522214 780.566037735849,575.7777539678189 784.4025157232704,571.8779678586502 788.2389937106918,575.7564358168644 792.0754716981132,568.3910355607743 795.9119496855345,575.2574805256846 799.7484276729559,570.0590354566418 803.5849056603773,537.668584851189 807.4213836477987,531.6190298401127 811.2578616352201,529.1056317931736 815.0943396226414,513.5848775115442 818.9308176100628,515.0590011672721 822.7672955974842,514.9526574587896 826.6037735849056,485.08928221834753 830.440251572327,487.0495778174479 834.2767295597484,486.7049126948988 838.1132075471697,479.8464156237595 841.9496855345911,489.16519654332217 845.7861635220125,460.04423361062186 849.622641509434,476.0053139475201 853.4591194968554,497.6719282562632 857.2955974842766,487.32048840218977 861.132075471698,475.12246944465556 864.9685534591194,434.98896366812653 868.8050314465409,426.62743633987543 872.6415094339623,373.7706155382353 876.4779874213837,342.9444883231168 880.314465408805,312.6196370035563 884.1509433962264,351.0730304507041 887.9874213836478,346.9504424023731 891.8238993710692,365.9172787607047 895.6603773584906,341.1849144019498 899.4968553459119,394.8139339930806 903.3333333333333,378.8353786019532 907.1698113207547,404.8562811275229 911.0062893081761,395.6411561334791 914.8427672955975,377.23301168534965 918.6792452830189,337.3182791062116 922.5157232704402,340.9762753419904 926.3522012578616,325.3370548660507 930.188679245283,347.5367756389241 934.0251572327044,357.7581108354774 937.8616352201258,378.62780448467356 941.6981132075471,384.0852282178416 945.5345911949685,400.00342219211154 949.3710691823899,367.79385333405367 953.2075471698113,366.2165259424514 957.0440251572327,373.1610222854529 960.8805031446541,442.2181396813189 964.7169811320754,417.018419450004 968.5534591194968,410.83600616960024 972.3899371069182,421.94760980610647 976.2264150943396,428.76066658942256 980.062893081761,435.61693560773307 983.8993710691823,420.5729572790121 987.7358490566037,407.16303908251933 991.5723270440251,424.5417428193327 995.4088050314465,424.4827356954439 999.2452830188679,392.0567128376604 1003.0817610062892,399.1728056117545 1006.9182389937108,375.4178741544571 1010.7547169811321,362.19298678898286 1014.5911949685535,294.99151279415776 1018.4276729559749,288.6652667984268 1022.2641509433963,256.2245534482451 1026.1006289308177,238.9811018029185 1029.937106918239,231.9642154579363 1033.7735849056603,244.99139640177782 1037.6100628930817,253.5625551695867 1041.446540880503,274.8087330757989 1045.2830188679245,274.18677025607644 1049.119496855346,252.09867219057247 1052.9559748427673,253.02038022467644 1056.7924528301887,258.989743744916 1060.6289308176101,295.8169184071955 1064.4654088050315,294.6817997088185 1068.301886792453,299.4507804400829 1072.1383647798743,355.3331817652777 1075.9748427672957,340.90835117523056 1079.8113207547171,378.2767149674111 1083.6477987421385,361.16084656123394 1087.48427672956,363.47867368428837 1091.3207547169811,387.762268716865 1095.1572327044025,394.16652248933644 1098.993710691824,394.9900815300134 1102.8301886792453,354.2781878020785 1106.6666666666667,353.1030325162069 1110.5031446540881,343.6669181717747 1114.3396226415095,278.678535542401 1118.176100628931,264.0184377878968 1122.0125786163521,261.93241007504986 1125.8490566037735,275.21160134661596 1129.685534591195,254.086833072635 1133.5220125786163,279.7517942793033 1137.3584905660377,278.76438112853555 1141.1949685534591,265.31409585991724 1145.0314465408806,246.26303530596545 1148.867924528302,187.83147376041723 1152.7044025157234,171.7198232054085 1156.5408805031448,163.46653793382882 1160.3773584905662,179.15630680687423 1164.2138364779873,90.0 1168.0503144654087,140.4013725327461 1171.8867924528302,138.1378741767602 1175.7232704402516,140.10456680757477 1179.559748427673,140.33562558510073 1183.3962264150944,119.01277725694399 1187.2327044025158,153.72923944819024 1191.0691823899372,127.96056428947588 1194.9056603773586,105.11796142249864 1198.74213836478,170.12059398365227 1202.5786163522014,189.46395489580777 1206.4150943396226,177.16351778754313 1210.251572327044,222.6460577110132 1214.0880503144654,228.9601330042043 1217.9245283018868,279.2910733072022 1221.7610062893082,281.62297526489346 1225.5974842767296,263.83421836860157 1229.433962264151,259.0540228971106 1233.2704402515724,304.5859101236483 1237.1069182389938,293.99424590180683 1240.9433962264152,292.9250724498255 1244.7798742138366,270.89555175668 1248.6163522012578,244.62120370772743 1252.4528301886792,287.3603241465079 1256.2893081761006,286.2235011272984 1260.125786163522,381.1839917510072 1263.9622641509434,409.1482372933629 1267.7987421383648,409.7285855310746 1271.6352201257862,399.3219609525123 1275.4716981132076,382.9810268296637 1279.308176100629,393.9958672459055 1283.1446540880504,381.9435633104004 1286.9811320754718,384.00518984290613 1290.817610062893,393.8875104065618 1294.6540880503144,383.17267916242594 1298.4905660377358,362.9915412462257 1302.3270440251572,353.45919451619187 1306.1635220125786,367.407657212779 1310.0,346.7258949672125" fill="none" stroke="#92400e" stroke-width="2.5"><title>budgeted_btc_defensive_eth_aggressive | end=2026-05-06 | return=672.27%</title></polyline>
</svg>