<svg xmlns="http://www.w3.org/2000/svg" width="1400" height="800">
<rect width="1400" height="800" fill="#f8fafc"/>
<text x="700.0" y="42" text-anchor="middle" font-family="monospace" font-size="24" fill="#0f172a">Portfolio Value Over Time | start=2021-07-01 | interval=7d</text>
<line x1="90" y1="710" x2="1310" y2="710" stroke="#334155" stroke-width="2"/>
<line x1="90" y1="90" x2="90" y2="710" stroke="#334155" stroke-width="2"/>
<line x1="90.0" y1="710" x2="90.0" y2="90" stroke="#cbd5e1" stroke-width="1"/>
<text x="90.0" y="734" text-anchor="middle" font-family="monospace" font-size="11" fill="#475569">2021-07-01</text>
<line x1="90" y1="710.0" x2="1310" y2="710.0" stroke="#cbd5e1" stroke-width="1"/>
<text x="78" y="714.0" text-anchor="end" font-family="monospace" font-size="12" fill="#475569">4035</text>
<line x1="334.0" y1="710" x2="334.0" y2="90" stroke="#cbd5e1" stroke-width="1"/>
<text x="334.0" y="734" text-anchor="middle" font-family="monospace" font-size="11" fill="#475569">2022-06-16</text>
<line x1="90" y1="586.0" x2="1310" y2="586.0" stroke="#cbd5e1" stroke-width="1"/>
<text x="78" y="590.0" text-anchor="end" font-family="monospace" font-size="12" fill="#475569">7726</text>
<line x1="578.0" y1="710" x2="578.0" y2="90" stroke="#cbd5e1" stroke-width="1"/>
<text x="578.0" y="734" text-anchor="middle" font-family="monospace" font-size="11" fill="#475569">2023-06-08</text>
<line x1="90" y1="462.0" x2="1310" y2="462.0" stroke="#cbd5e1" stroke-width="1"/>
<text x="78" y="466.0" text-anchor="end" font-family="monospace" font-size="12" fill="#475569">11416</text>
<line x1="822.0" y1="710" x2="822.0" y2="90" stroke="#cbd5e1" stroke-width="1"/>
<text x="822.0" y="734" text-anchor="middle" font-family="monospace" font-size="11" fill="#475569">2024-05-23</text>
<line x1="90" y1="338.0" x2="1310" y2="338.0" stroke="#cbd5e1" stroke-width="1"/>
<text x="78" y="342.0" text-anchor="end" font-family="monospace" font-size="12" fill="#475569">15107</text>
<line x1="1066.0" y1="710" x2="1066.0" y2="90" stroke="#cbd5e1" stroke-width="1"/>
<text x="1066.0" y="734" text-anchor="middle" font-family="monospace" font-size="11" fill="#475569">2025-05-15</text>
<line x1="90" y1="213.9999999999999" x2="1310" y2="213.9999999999999" stroke="#cbd5e1" stroke-width="1"/>
<text x="78" y="217.9999999999999" text-anchor="end" font-family="monospace" font-size="12" fill="#475569">18797</text>
<line x1="1310.0" y1="710" x2="1310.0" y2="90" stroke="#cbd5e1" stroke-width="1"/>
<text x="1310.0" y="734" text-anchor="middle" font-family="monospace" font-size="11" fill="#475569">2026-04-30</text>
<line x1="90" y1="90.0" x2="1310" y2="90.0" stroke="#cbd5e1" stroke-width="1"/>
<text x="78" y="94.0" text-anchor="end" font-family="monospace" font-size="12" fill="#475569">22488</text>
<text x="700.0" y="782" text-anchor="middle" font-family="monospace" font-size="16" fill="#0f172a">time</text>
<text x="24" y="400.0" transform="rotate(-90 24,400.0)" text-anchor="middle" font-family="monospace" font-size="16" fill="#0f172a">portfolio_value_usd</text>
<line x1="970" y1="80" x2="988" y2="80" stroke="#0f766e" stroke-width="3"/>
<text x="998" y="84" font-family="monospace" font-size="12" fill="#0f172a">budgeted_static_50_50_rebalance</text>
<line x1="970" y1="104" x2="988" y2="104" stroke="#9333ea" stroke-width="3"/>
<text x="998" y="108" font-family="monospace" font-size="12" fill="#0f172a">budgeted_drawdown_tilt_rebalance</text>
<line x1="970" y1="128" x2="988" y2="128" stroke="#92400e" stroke-width="3"/>
<text x="998" y="132" font-family="monospace" font-size="12" fill="#0f172a">budgeted_btc_defensive_eth_aggressive</text>
<polyline points="90.0,509.5851600220771 94.84126984126983,509.65764537351777 99.68253968253968,510.9127054527289 104.52380952380952,509.92972488947987 109.36507936507937,501.59390507866965 114.2063492063492,495.60809771863586 119.04761904761905,489.54127579461897 123.88888888888889,485.1281191396704 128.73015873015873,486.5841266914873 133.57142857142856,470.72247900103116 138.4126984126984,481.71393229983926 143.25396825396825,476.7273850637827 148.0952380952381,490.51293881446225 152.93650793650792,496.02751634692106 157.77777777777777,463.3055210346169 162.61904761904762,451.1800734116311 167.46031746031747,434.300991406342 172.3015873015873,430.4702440802129 177.14285714285714,420.90286698637374 181.984126984127,407.6281741589983 186.8253968253968,449.6179149497483 191.66666666666666,426.4051173824227 196.5079365079365,432.7743957493211 201.34920634920633,470.56196987477097 206.1904761904762,475.791361321148 211.03174603174602,460.62841795520836 215.87301587301585,486.69827940731204 220.7142857142857,510.3993301352218 225.55555555555554,518.2806117819259 230.3968253968254,533.6643796730943 235.23809523809524,567.6687262435788 240.07936507936506,555.500159430871 244.9206349206349,520.1215758005067 249.76190476190476,537.0894069156201 254.6031746031746,556.5063855631316 259.44444444444446,533.5986924834551 264.2857142857143,552.6890403658572 269.1269841269841,538.9371053222578 273.968253968254,516.50930997053 278.80952380952385,504.44094408696077 283.6507936507936,513.0939305847057 288.4920634920635,532.5891991426681 293.3333333333333,532.5894957052546 298.1746031746032,536.9195705301312 303.015873015873,554.8815076057251 307.8571428571429,612.4869820099428 312.69841269841265,605.3966813974794 317.53968253968253,619.4449259278654 322.3809523809524,613.4068696439201 327.22222222222223,616.7461814863356 332.06349206349205,683.4189182276468 336.9047619047619,676.8198017589427 341.7460317460317,684.6098970592699 346.58730158730157,669.5867991041329 351.4285714285714,675.5314854415502 356.26984126984127,644.8350486557935 361.1111111111111,633.9771267528049 365.95238095238096,644.7219285676211 370.7936507936508,625.2045980182576 375.63492063492066,629.7885568422281 380.4761904761905,643.5867937366482 385.3174603174603,654.4691956667557 390.1587301587301,655.000210811863 395.0,661.6894978309845 399.8412698412698,670.1587157244916 404.6825396825397,668.9284485586999 409.5238095238095,666.6909864310404 414.36507936507934,672.309626043834 419.2063492063492,673.786128695404 424.0476190476191,656.8040895627898 428.8888888888889,656.2553697080141 433.73015873015873,678.4273094339853 438.57142857142856,686.7141204222029 443.41269841269843,686.8888562202732 448.25396825396825,681.5155969280783 453.0952380952381,680.370312784204 457.9365079365079,680.5883757589888 462.7777777777778,685.2254721770521 467.61904761904765,686.8768379423364 472.46031746031747,683.4242612665433 477.3015873015873,666.9800098096327 482.14285714285717,651.3742655749973 486.984126984127,641.4583973508256 491.8253968253968,637.467152637761 496.66666666666663,648.804181670134 501.50793650793656,637.699724069445 506.3492063492064,635.4682543671463 511.1904761904762,637.3500702017694 516.031746031746,659.3590574457234 520.8730158730159,629.9357904856475 525.7142857142858,610.7892409522859 530.5555555555555,613.1474203579546 535.3968253968253,608.9704742726744 540.2380952380952,593.5016395435858 545.0793650793651,604.621848003762 549.9206349206349,602.082326795712 554.7619047619048,605.8084252851918 559.6031746031747,616.4189944930965 564.4444444444445,616.7117014146669 569.2857142857142,617.6107740856155 574.1269841269841,613.5318009132797 578.968253968254,615.4680289526776 583.8095238095239,627.8511020100468 588.6507936507936,602.3254233738114 593.4920634920634,601.4474932122135 598.3333333333334,603.6254438989066 603.1746031746031,589.9720690841793 608.015873015873,601.467556656509 612.8571428571428,605.0475728433815 617.6984126984128,606.5595501388439 622.5396825396825,604.8969594344952 627.3809523809524,622.9371871498588 632.2222222222222,625.5863592664084 637.063492063492,627.1387028324281 641.9047619047619,625.885930215853 646.7460317460317,626.1019538930306 651.5873015873016,628.3149782661541 656.4285714285714,623.0284081625252 661.2698412698413,623.9798740991882 666.1111111111111,630.1225619022282 670.952380952381,622.0204164560764 675.7936507936508,591.0743060451035 680.6349206349206,588.6453732321183 685.4761904761905,564.9471793110528 690.3174603174602,575.6223897174784 695.1587301587301,566.4166025750559 700.0,565.6263641658393 704.8412698412699,531.7653102437733 709.6825396825396,534.7628864094834 714.5238095238095,536.3208370309226 719.3650793650794,534.4489009999936 724.2063492063493,533.7512535649068 729.047619047619,508.3004532184391 733.8888888888889,531.2596195003639 738.7301587301587,548.8300440094772 743.5714285714286,534.8190794449147 748.4126984126984,521.9515799610009 753.2539682539682,480.5550973029077 758.0952380952382,474.87660938289264 762.936507936508,426.29061212237576 767.7777777777778,381.7201645008663 772.6190476190476,368.8252366327804 777.4603174603175,405.3702648138519 782.3015873015872,386.904956006317 787.1428571428571,405.0877685286913 791.9841269841269,391.95023874692754 796.8253968253969,432.32852140528126 801.6666666666667,424.9730847670178 806.5079365079365,448.46004946178556 811.3492063492064,435.0804435577296 816.1904761904761,434.1320869107485 821.031746031746,381.2662676475066 825.8730158730158,382.02857783326897 830.7142857142857,371.9864652847221 835.5555555555557,400.9474451230829 840.3968253968254,403.77702028035384 845.2380952380953,415.8879738944825 850.0793650793651,448.43244498972075 854.9206349206349,445.5135341205039 859.7619047619047,410.1663465965833 864.6031746031746,418.1144165714504 869.4444444444443,418.12005949760777 874.2857142857143,455.296718606643 879.1269841269842,472.7628971893533 883.968253968254,462.1843998564773 888.8095238095239,470.39012574720334 893.6507936507936,488.1673915169732 898.4920634920635,483.36140838009214 903.3333333333333,464.5739439454516 908.1746031746031,448.7115156314751 913.0158730158731,477.1688054246795 917.8571428571429,476.22396248725386 922.6984126984128,444.6828883858651 927.5396825396825,447.17792580075917 932.3809523809524,443.33801879066976 937.2222222222222,405.2323471127282 942.063492063492,367.5095488420565 946.9047619047618,322.27110444783796 951.7460317460318,315.0680777960078 956.5873015873016,298.88776017307504 961.4285714285714,286.27233518864523 966.2698412698413,320.8587569189135 971.1111111111111,329.8120591182817 975.952380952381,319.5665494724894 980.7936507936507,343.6171612071319 985.6349206349206,321.60382158139214 990.4761904761905,310.9913338578571 995.3174603174604,314.99135217203514 1000.1587301587301,368.6177586164075 1005.0,369.23429234430233 1009.8412698412699,361.2870444724834 1014.6825396825396,420.0848165877523 1019.5238095238095,416.56672567295084 1024.3650793650795,459.9387614160289 1029.2063492063494,444.31243477839547 1034.047619047619,436.6163500192407 1038.888888888889,459.69284340114575 1043.7301587301586,491.19932514759694 1048.5714285714284,475.3159374427122 1053.4126984126983,441.25033244534785 1058.2539682539682,430.3630837740036 1063.095238095238,384.57794201472876 1067.936507936508,352.90383958935803 1072.7777777777778,327.9211535661996 1077.6190476190477,342.2412563065948 1082.4603174603176,368.0207138888879 1087.3015873015872,341.14828972074326 1092.142857142857,353.18720537228774 1096.9841269841268,357.23751647607264 1101.8253968253969,338.13575607265284 1106.6666666666667,297.075433149801 1111.5079365079364,248.79343756660904 1116.3492063492063,232.68219930694823 1121.1904761904761,238.76802506502128 1126.031746031746,219.38879984156802 1130.873015873016,171.35887145178492 1135.7142857142856,207.04973491234045 1140.5555555555557,187.2394085139016 1145.3968253968255,205.64665466933582 1150.2380952380952,183.98254925095932 1155.079365079365,172.06930637496396 1159.920634920635,235.8544805358623 1164.7619047619048,170.6700486404385 1169.6031746031745,175.5025920172386 1174.4444444444443,235.85529870379418 1179.2857142857144,233.79791988353173 1184.126984126984,241.3019255180228 1188.968253968254,288.13731090217794 1193.8095238095239,297.3671506247858 1198.6507936507937,353.17533520850645 1203.4920634920634,329.8470650506836 1208.3333333333333,319.95264814236293 1213.1746031746031,311.90703889338715 1218.015873015873,355.9189167070891 1222.857142857143,346.809708077101 1227.6984126984128,336.49332872772436 1232.5396825396826,324.1345965699088 1237.3809523809523,299.0930164465249 1242.2222222222222,338.1408118483402 1247.063492063492,358.44970214404117 1251.904761904762,476.6978918712264 1256.7460317460318,459.74576037811084 1261.5873015873017,457.8103909163655 1266.4285714285716,450.3886278630493 1271.2698412698412,438.9457355887489 1276.111111111111,439.6951486152877 1280.952380952381,436.1131185536223 1285.7936507936508,444.9713071364902 1290.6349206349205,449.49533738555243 1295.4761904761906,427.59747026203564 1300.3174603174602,407.41275380175335 1305.1587301587301,401.4754445185954 1310.0,411.7907161793773" fill="none" stroke="#0f766e" stroke-width="2.5"><title>budgeted_static_50_50_rebalance | end=2026-04-30 | return=29.11%</title></polyline>
<polyline points="90.0,509.5851600220771 94.84126984126983,509.6781288750051 99.68253968253968,511.36596061500416 104.52380952380952,509.91615792166795 109.36507936507937,497.4246995433316 114.2063492063492,488.374606498167 119.04761904761905,479.54045801677177 123.88888888888889,473.17683274116536 128.73015873015873,475.29827998993756 133.57142857142856,452.5171220741345 138.4126984126984,467.6904556188066 143.25396825396825,460.83675403729194 148.0952380952381,479.2185749071108 152.93650793650792,486.5635353228938 157.77777777777777,442.9433198544726 162.61904761904762,427.1390192587889 167.46031746031747,406.3747251797374 172.3015873015873,401.9673901466523 177.14285714285714,391.49624498267144 181.984126984127,377.4757177229944 186.8253968253968,419.56997561515664 191.66666666666666,396.73105793844275 196.5079365079365,402.9633370732009 201.34920634920633,438.9308144469803 206.1904761904762,443.854748332431 211.03174603174602,429.16202419224044 215.87301587301585,454.6647570651405 220.7142857142857,478.71401680311965 225.55555555555554,486.8078601558052 230.3968253968254,503.3663885103523 235.23809523809524,541.0410984272313 240.07936507936506,527.1369277119977 244.9206349206349,486.1442733126132 249.76190476190476,505.923612839655 254.6031746031746,528.5416623409418 259.44444444444446,501.5861273454833 264.2857142857143,524.3070228988659 269.1269841269841,507.8324980963297 273.968253968254,480.91824535375093 278.80952380952385,466.3601932939082 283.6507936507936,476.79701934541583 288.4920634920635,500.5364322048748 293.3333333333333,500.5967498588892 298.1746031746032,505.9018397355504 303.015873015873,527.8785408852964 307.8571428571429,598.7327366023707 312.69841269841265,590.0052994070571 317.53968253968253,607.7228512821514 322.3809523809524,600.1995321952413 327.22222222222223,604.491216771252 332.06349206349205,690.1531367537162 336.9047619047619,681.8941799358354 341.7460317460317,691.5123882378034 346.58730158730157,673.2311458213659 351.4285714285714,680.4318067097552 356.26984126984127,642.9997149716245 361.1111111111111,629.5795709772459 365.95238095238096,642.7217334162896 370.7936507936508,618.044258197825 375.63492063492066,623.486906447318 380.4761904761905,640.5854544099178 385.3174603174603,653.9303562459696 390.1587301587301,653.5222701831383 395.0,663.7359810090554 399.8412698412698,675.3926825429514 404.6825396825397,673.9531338050421 409.5238095238095,671.3581323304742 414.36507936507934,678.3102297828135 419.2063492063492,679.9236637838023 424.0476190476191,658.4710049157246 428.8888888888889,657.6207432731434 433.73015873015873,684.7688455831519 438.57142857142856,695.0262487766402 443.41269841269843,695.1439336195031 448.25396825396825,688.3429484165616 453.0952380952381,687.1152667363694 457.9365079365079,687.5977648463811 462.7777777777778,693.2087643385817 467.61904761904765,695.2095508948792 472.46031746031747,690.775944376359 477.3015873015873,671.108477878641 482.14285714285717,652.7796336360792 486.984126984127,641.7322733761945 491.8253968253968,636.8439142040517 496.66666666666663,650.3975435411637 501.50793650793656,637.1419107975518 506.3492063492064,634.5719000995084 511.1904761904762,636.6074059582644 516.031746031746,663.6981301484739 520.8730158730159,628.3737188556715 525.7142857142858,605.5438658858395 530.5555555555555,608.4795144812092 535.3968253968253,602.7017072525124 540.2380952380952,583.5077052203009 545.0793650793651,596.9383858925291 549.9206349206349,594.6125511687591 554.7619047619048,599.253080184883 559.6031746031747,612.4264590065995 564.4444444444445,612.6778039777645 569.2857142857142,613.5874999045222 574.1269841269841,608.4219938757253 578.968253968254,610.6059132204689 583.8095238095239,625.0572403895617 588.6507936507936,598.1402075458802 593.4920634920634,597.6124266951085 598.3333333333334,599.6018546905569 603.1746031746031,586.0888779452923 608.015873015873,596.9235479093503 612.8571428571428,600.1598999810176 617.6984126984128,601.6548761544126 622.5396825396825,600.1949062398576 627.3809523809524,615.7067230222362 632.2222222222222,618.0471250875036 637.063492063492,619.4920158477946 641.9047619047619,618.3682424533986 646.7460317460317,618.6890645309271 651.5873015873016,620.9758555107715 656.4285714285714,615.38981497764 661.2698412698413,616.6623718150005 666.1111111111111,623.021698304741 670.952380952381,615.0790570572508 675.7936507936508,582.2305008519314 680.6349206349206,580.02902522907 685.4761904761905,554.0550379081992 690.3174603174602,565.6058587783557 695.1587301587301,556.3741487950008 700.0,555.8325415209804 704.8412698412699,524.3570685914468 709.6825396825396,527.2552317930251 714.5238095238095,529.4184117105106 719.3650793650794,526.7663965892016 724.2063492063493,526.9748865271341 729.047619047619,504.2798000393632 733.8888888888889,523.0539465816231 738.7301587301587,538.1225185016401 743.5714285714286,526.4897843274896 748.4126984126984,515.6778732984739 753.2539682539682,481.06886057497945 758.0952380952382,475.77062908247166 762.936507936508,436.7318931441092 767.7777777777778,400.1458354367387 772.6190476190476,390.61353887196714 777.4603174603175,419.61943890730834 782.3015873015872,405.88729219731755 787.1428571428571,420.22901959611823 791.9841269841269,409.56090726235243 796.8253968253969,441.4555247296392 801.6666666666667,435.46879346718265 806.5079365079365,454.559339738684 811.3492063492064,443.3927488719591 816.1904761904761,443.0707660193723 821.031746031746,390.35589716973914 825.8730158730158,391.3282263719637 830.7142857142857,382.7488363563121 835.5555555555557,408.6786971065855 840.3968253968254,410.28344540475155 845.2380952380953,419.8467622613324 850.0793650793651,448.2641349210083 854.9206349206349,445.61654030865844 859.7619047619047,414.05458036670154 864.6031746031746,422.1299289937388 869.4444444444443,421.9725884377473 874.2857142857143,457.8598323138784 879.1269841269842,474.2204785612263 883.968253968254,464.1978361737105 888.8095238095239,473.06217993679553 893.6507936507936,491.9199791747937 898.4920634920635,487.7116540892076 903.3333333333333,468.5335398536278 908.1746031746031,450.30960594037145 913.0158730158731,482.95335652710054 917.8571428571429,481.29217200404264 922.6984126984128,446.83224245473997 927.5396825396825,450.84957639412363 932.3809523809524,447.65721118320477 937.2222222222222,400.998099657404 942.063492063492,360.14589068108114 946.9047619047618,308.7640626184129 951.7460317460318,296.5559535354386 956.5873015873016,276.6453288368522 961.4285714285714,263.3286659140545 966.2698412698413,303.58264472298987 971.1111111111111,313.0573243355001 975.952380952381,301.72952817458054 980.7936507936507,327.2380234820774 985.6349206349206,306.384857529038 990.4761904761905,296.54763279598023 995.3174603174604,301.54747560050197 1000.1587301587301,358.04852166110294 1005.0,358.79434789911505 1009.8412698412699,350.32707569527327 1014.6825396825396,414.5134979664673 1019.5238095238095,413.98268381938163 1024.3650793650795,464.1189289441679 1029.2063492063494,445.4410380360952 1034.047619047619,437.3149012904052 1038.888888888889,467.57982738107165 1043.7301587301586,510.2227442870651 1048.5714285714284,492.41152299798534 1053.4126984126983,452.6053494510799 1058.2539682539682,439.5616147504693 1063.095238095238,382.12365968858126 1067.936507936508,339.64141872327536 1072.7777777777778,310.462831148022 1077.6190476190477,326.20465123157294 1082.4603174603176,360.040740016071 1087.3015873015872,324.4525713204744 1092.142857142857,341.2792892334263 1096.9841269841268,349.4479225507241 1101.8253968253969,323.31968008572557 1106.6666666666667,267.61342910280916 1111.5079365079364,197.3293217264004 1116.3492063492063,172.24310814298917 1121.1904761904761,177.83457670388725 1126.031746031746,152.96293141408205 1130.873015873016,90.0 1135.7142857142856,129.2168648766526 1140.5555555555557,104.72345669190429 1145.3968253968255,124.83339284766566 1150.2380952380952,104.46323835181818 1155.079365079365,92.47919648856748 1159.920634920635,155.49618573660666 1164.7619047619048,92.67763829712658 1169.6031746031745,98.74828139730539 1174.4444444444443,153.3165196020002 1179.2857142857144,152.44263693779817 1184.126984126984,159.3565254768422 1188.968253968254,206.04861117758077 1193.8095238095239,215.17286555140026 1198.6507936507937,269.7937133496717 1203.4920634920634,246.16884766506354 1208.3333333333333,235.13265616469863 1213.1746031746031,225.76574222243028 1218.015873015873,275.64032458165315 1222.857142857143,265.2364764073136 1227.6984126984128,252.8759294554581 1232.5396825396826,237.94319472115393 1237.3809523809523,207.2304787627699 1242.2222222222222,256.1356318808299 1247.063492063492,280.872448112225 1251.904761904762,428.5299409717235 1256.7460317460318,407.3452289393741 1261.5873015873017,405.0708634454449 1266.4285714285716,394.6584074575433 1271.2698412698412,380.1482775237575 1276.111111111111,381.0039553066484 1280.952380952381,375.0438494965035 1285.7936507936508,387.69464816980775 1290.6349206349205,393.13027357482645 1295.4761904761906,363.41670278036344 1300.3174603174602,335.03327447710365 1305.1587301587301,328.3041346328147 1310.0,342.8062911892532" fill="none" stroke="#9333ea" stroke-width="2.5"><title>budgeted_drawdown_tilt_rebalance | end=2026-04-30 | return=49.64%</title></polyline>
<polyline points="90.0,509.5851600220771 94.84126984126983,509.7298991684363 99.68253968253968,511.41949732919556 104.52380952380952,510.12380425227775 109.36507936507937,497.2469353950174 114.2063492063492,489.6849531655096 119.04761904761905,481.1985450409927 123.88888888888889,475.1668782733741 128.73015873015873,476.7596714711278 133.57142857142856,458.7118854967851 138.4126984126984,471.80162528680364 143.25396825396825,465.8289620170224 148.0952380952381,482.1372752278796 152.93650793650792,488.66697218750346 157.77777777777777,449.5261581163184 162.61904761904762,435.102751587195 167.46031746031747,415.36169888022744 172.3015873015873,411.0292590708886 177.14285714285714,400.2016412820012 181.984126984127,385.2977355225933 186.8253968253968,431.86189435006185 191.66666666666666,405.671889861878 196.5079365079365,412.60239260194135 201.34920634920633,453.1517669681386 206.1904761904762,459.561735938472 211.03174603174602,443.7964510400506 215.87301587301585,473.602315752187 220.7142857142857,500.22028459279795 225.55555555555554,510.35283202780784 230.3968253968254,529.153949445478 235.23809523809524,570.9851091419227 240.07936507936506,556.2182147256624 244.9206349206349,515.3632198186067 249.76190476190476,535.0674760641897 254.6031746031746,558.1302244010624 259.44444444444446,531.6288718084007 264.2857142857143,553.848285310896 269.1269841269841,537.8036000593092 273.968253968254,511.6682214420924 278.80952380952385,497.51309080135246 283.6507936507936,507.5493671380017 288.4920634920635,530.4657017593321 293.3333333333333,530.6161078473026 298.1746031746032,535.7217714559372 303.015873015873,556.8618942938015 307.8571428571429,625.3385676527533 312.69841269841265,617.3199518906873 317.53968253968253,633.1624921221022 322.3809523809524,626.4973912200818 327.22222222222223,630.1069843552357 332.06349206349205,702.219247065331 336.9047619047619,695.5813378575605 341.7460317460317,703.4116494637464 346.58730158730157,688.8849434598434 351.4285714285714,694.8776893425253 356.26984126984127,665.6522761087742 361.1111111111111,655.329127342166 365.95238095238096,665.8434885220853 370.7936507936508,646.786619300465 375.63492063492066,651.3773791115377 380.4761904761905,665.2997213552743 385.3174603174603,676.3433028862995 390.1587301587301,676.7776280101376 395.0,683.8970664495348 399.8412698412698,692.7451752272389 404.6825396825397,691.4987606486869 409.5238095238095,689.2325437105554 414.36507936507934,694.907771481231 419.2063492063492,696.4206628388845 424.0476190476191,679.4534202134885 428.8888888888889,678.917843653416 433.73015873015873,701.4330313819283 438.57142857142856,709.8136887024735 443.41269841269843,709.9909608561626 448.25396825396825,704.6170790543777 453.0952380952381,703.4755625721644 457.9365079365079,703.7003374911023 462.7777777777778,708.348050162239 467.61904761904765,710.0 472.46031746031747,706.5532373977112 477.3015873015873,690.1440687338998 482.14285714285717,674.5070242027004 486.984126984127,664.5158378955675 491.8253968253968,660.4561455983082 496.66666666666663,672.0578595989458 501.50793650793656,660.6529246152966 506.3492063492064,658.3491275131921 511.1904761904762,660.3076993576076 516.031746031746,683.2197268312462 520.8730158730159,652.7162983804279 525.7142857142858,632.7345578288868 530.5555555555555,635.1991734175269 535.3968253968253,630.942664797281 540.2380952380952,614.5564708177765 545.0793650793651,626.572626164166 549.9206349206349,623.5724673491129 554.7619047619048,627.6330359316946 559.6031746031747,639.2566019713861 564.4444444444445,639.6203326030953 569.2857142857142,640.6777410751795 574.1269841269841,636.3945779447694 578.968253968254,638.4853519051832 583.8095238095239,651.1807212150536 588.6507936507936,622.6164783475643 593.4920634920634,621.5567274908166 598.3333333333334,624.0086095196465 603.1746031746031,609.3555486762643 608.015873015873,621.7518269486948 612.8571428571428,625.6242693348689 617.6984126984128,627.131107106695 622.5396825396825,625.3709022253225 627.3809523809524,644.409002875686 632.2222222222222,647.2235925589947 637.063492063492,648.8370471617499 641.9047619047619,647.4306943190179 646.7460317460317,647.451309354615 651.5873015873016,649.4701616162688 656.4285714285714,644.2886742079651 661.2698412698413,644.8548085967395 666.1111111111111,650.9633190175582 670.952380952381,641.9810204609219 675.7936507936508,609.5994395514253 680.6349206349206,606.6821076212902 685.4761904761905,584.3608225006868 690.3174603174602,594.1396224474883 695.1587301587301,584.9892139966322 700.0,583.8365460617715 704.8412698412699,548.7714944350162 709.6825396825396,551.6070018787966 714.5238095238095,551.954234347192 719.3650793650794,551.9617591960905 724.2063492063493,549.4132632353969 729.047619047619,525.7725617435033 733.8888888888889,551.2594891934349 738.7301587301587,568.4121034105713 743.5714285714286,552.5170138792693 748.4126984126984,538.3987676748807 753.2539682539682,493.5303718254636 758.0952380952382,488.4441065516887 762.936507936508,434.5246624117414 767.7777777777778,386.98901584845515 772.6190476190476,371.5706538098186 777.4603174603175,411.4837654072161 782.3015873015872,390.00073235844604 787.1428571428571,409.3356888724851 791.9841269841269,395.55156871968063 796.8253968253969,439.2100484916005 801.6666666666667,431.4827912099645 806.5079365079365,458.0734159406694 811.3492063492064,442.17986762971276 816.1904761904761,439.41293899151424 821.031746031746,388.64842241996394 825.8730158730158,389.0516916659129 830.7142857142857,377.6389109955005 835.5555555555557,408.1210093858824 840.3968253968254,412.3841386068472 845.2380952380953,426.33773808668394 850.0793650793651,462.12942124890503 854.9206349206349,458.98335669094973 859.7619047619047,419.56558590765655 864.6031746031746,426.98009657060095 869.4444444444443,427.2587893128236 874.2857142857143,466.72501258395243 879.1269841269842,486.54602546025694 883.968253968254,474.3230104225769 888.8095238095239,482.8008664269458 893.6507936507936,501.9615058689204 898.4920634920635,495.73165918400684 903.3333333333333,474.1970665401159 908.1746031746031,457.95478693953004 913.0158730158731,487.71948812341714 917.8571428571429,487.42679553008657 922.6984126984128,452.06090130544044 927.5396825396825,453.34901567835146 932.3809523809524,447.61263915998126 937.2222222222222,408.16076086539476 942.063492063492,361.6976069711976 946.9047619047618,308.80325492977056 951.7460317460318,306.16929814988697 956.5873015873016,290.46812243982936 961.4285714285714,275.74548509410647 966.2698412698413,308.71831737094715 971.1111111111111,318.6670910477548 975.952380952381,308.1918969729862 980.7936507936507,334.8125652487834 985.6349206349206,305.76333191975124 990.4761904761905,291.1911337034112 995.3174603174604,293.5490802861435 1000.1587301587301,351.7695428114661 1005.0,352.2175733214159 1009.8412698412699,342.816695186663 1014.6825396825396,414.17496170207806 1019.5238095238095,403.24788168881 1024.3650793650795,454.04545288841734 1029.2063492063494,436.2012840871225 1034.047619047619,424.9493416439498 1038.888888888889,450.75080978650567 1043.7301587301586,482.43794620995027 1048.5714285714284,460.5320185024851 1053.4126984126983,418.2743674528856 1058.2539682539682,405.45722420949966 1063.095238095238,358.5107639617995 1067.936507936508,333.613803949627 1072.7777777777778,299.77482518731983 1077.6190476190477,322.1623476730859 1082.4603174603176,349.9035504460249 1087.3015873015872,320.85583962231726 1092.142857142857,332.5703266726572 1096.9841269841268,331.91763838909554 1101.8253968253969,311.5825496401453 1106.6666666666667,266.3238592894437 1111.5079365079364,219.9135946645253 1116.3492063492063,207.2022839144724 1121.1904761904761,216.14593592709525 1126.031746031746,195.69784864214648 1130.873015873016,147.8585610655225 1135.7142857142856,188.22743147841436 1140.5555555555557,168.0610790147922 1145.3968253968255,188.1053904894253 1150.2380952380952,163.09193827499348 1155.079365079365,149.83432598086063 1159.920634920635,220.85731149087212 1164.7619047619048,146.33703426188765 1169.6031746031745,151.0692251888554 1174.4444444444443,221.05419909947352 1179.2857142857144,218.1411845570281 1184.126984126984,226.92631084468889 1188.968253968254,281.50516613010467 1193.8095238095239,292.1684100764053 1198.6507936507937,357.2469591469402 1203.4920634920634,330.72926103111826 1208.3333333333333,320.06763103863295 1213.1746031746031,311.4653455194749 1218.015873015873,360.5548807212181 1222.857142857143,350.36319129916546 1227.6984126984128,338.9926231826803 1232.5396825396826,325.1848009956546 1237.3809523809523,297.18795802750327 1242.2222222222222,340.58784047762896 1247.063492063492,363.8363576113339 1251.904761904762,495.5239461950998 1256.7460317460318,477.19424327317415 1261.5873015873017,474.9030054444017 1266.4285714285716,467.7788059627061 1271.2698412698412,455.03892210155686 1276.111111111111,455.96627331745117 1280.952380952381,453.1375453502148 1285.7936507936508,461.997756168209 1290.6349206349205,467.3977596332394 1295.4761904761906,444.15249389723124 1300.3174603174602,423.44046132410034 1305.1587301587301,415.93619791626077 1310.0,426.762471111704" fill="none" stroke="#92400e" stroke-width="2.5"><title>budgeted_btc_defensive_eth_aggressive | end=2026-04-30 | return=24.65%</title></polyline>
</svg>