<svg xmlns="http://www.w3.org/2000/svg" width="1400" height="800">
<rect width="1400" height="800" fill="#f8fafc"/>
<text x="700.0" y="42" text-anchor="middle" font-family="monospace" font-size="24" fill="#0f172a">Portfolio Value Over Time | start=2022-04-01 | interval=2d</text>
<line x1="90" y1="710" x2="1310" y2="710" stroke="#334155" stroke-width="2"/>
<line x1="90" y1="90" x2="90" y2="710" stroke="#334155" stroke-width="2"/>
<line x1="90.0" y1="710" x2="90.0" y2="90" stroke="#cbd5e1" stroke-width="1"/>
<text x="90.0" y="734" text-anchor="middle" font-family="monospace" font-size="11" fill="#475569">2022-04-01</text>
<line x1="90" y1="710.0" x2="1310" y2="710.0" stroke="#cbd5e1" stroke-width="1"/>
<text x="78" y="714.0" text-anchor="end" font-family="monospace" font-size="12" fill="#475569">4542</text>
<line x1="334.0" y1="710" x2="334.0" y2="90" stroke="#cbd5e1" stroke-width="1"/>
<text x="334.0" y="734" text-anchor="middle" font-family="monospace" font-size="11" fill="#475569">2023-01-26</text>
<line x1="90" y1="586.0" x2="1310" y2="586.0" stroke="#cbd5e1" stroke-width="1"/>
<text x="78" y="590.0" text-anchor="end" font-family="monospace" font-size="12" fill="#475569">8654</text>
<line x1="578.0" y1="710" x2="578.0" y2="90" stroke="#cbd5e1" stroke-width="1"/>
<text x="578.0" y="734" text-anchor="middle" font-family="monospace" font-size="11" fill="#475569">2023-11-22</text>
<line x1="90" y1="462.0" x2="1310" y2="462.0" stroke="#cbd5e1" stroke-width="1"/>
<text x="78" y="466.0" text-anchor="end" font-family="monospace" font-size="12" fill="#475569">12765</text>
<line x1="822.0" y1="710" x2="822.0" y2="90" stroke="#cbd5e1" stroke-width="1"/>
<text x="822.0" y="734" text-anchor="middle" font-family="monospace" font-size="11" fill="#475569">2024-09-15</text>
<line x1="90" y1="337.99999999999994" x2="1310" y2="337.99999999999994" stroke="#cbd5e1" stroke-width="1"/>
<text x="78" y="341.99999999999994" text-anchor="end" font-family="monospace" font-size="12" fill="#475569">16877</text>
<line x1="1066.0" y1="710" x2="1066.0" y2="90" stroke="#cbd5e1" stroke-width="1"/>
<text x="1066.0" y="734" text-anchor="middle" font-family="monospace" font-size="11" fill="#475569">2025-07-12</text>
<line x1="90" y1="214.0" x2="1310" y2="214.0" stroke="#cbd5e1" stroke-width="1"/>
<text x="78" y="218.0" text-anchor="end" font-family="monospace" font-size="12" fill="#475569">20989</text>
<line x1="1310.0" y1="710" x2="1310.0" y2="90" stroke="#cbd5e1" stroke-width="1"/>
<text x="1310.0" y="734" text-anchor="middle" font-family="monospace" font-size="11" fill="#475569">2026-05-08</text>
<line x1="90" y1="90.0" x2="1310" y2="90.0" stroke="#cbd5e1" stroke-width="1"/>
<text x="78" y="94.0" text-anchor="end" font-family="monospace" font-size="12" fill="#475569">25101</text>
<text x="700.0" y="782" text-anchor="middle" font-family="monospace" font-size="16" fill="#0f172a">time</text>
<text x="24" y="400.0" transform="rotate(-90 24,400.0)" text-anchor="middle" font-family="monospace" font-size="16" fill="#0f172a">portfolio_value_usd</text>
<line x1="970" y1="80" x2="988" y2="80" stroke="#0f766e" stroke-width="3"/>
<text x="998" y="84" font-family="monospace" font-size="12" fill="#0f172a">budgeted_static_50_50_rebalance</text>
<line x1="970" y1="104" x2="988" y2="104" stroke="#9333ea" stroke-width="3"/>
<text x="998" y="108" font-family="monospace" font-size="12" fill="#0f172a">budgeted_drawdown_tilt_rebalance</text>
<line x1="970" y1="128" x2="988" y2="128" stroke="#92400e" stroke-width="3"/>
<text x="998" y="132" font-family="monospace" font-size="12" fill="#0f172a">budgeted_btc_defensive_eth_aggressive</text>
<polyline points="90.0,545.3983574736186 91.62883845126836,545.3191089182237 93.25767690253672,545.7022157708076 94.88651535380507,546.7490968768449 96.51535380507343,546.8338241365026 98.1441922563418,549.6377354045917 99.77303070761015,547.922323913712 101.4018691588785,548.8777438909716 103.03070761014686,549.9259541510122 104.65954606141523,547.3812341641735 106.28838451268358,549.5897440024353 107.91722296395193,551.1762545776281 109.5460614152203,549.1570273783693 111.17489986648866,552.2461051158373 112.80373831775701,554.2254740788791 114.43257676902536,554.2438227648379 116.06141522029372,556.1356174055014 117.69025367156209,558.566673936518 119.31909212283044,562.6993113166494 120.94793057409879,581.0873219543347 122.57676902536716,586.8204273214025 124.20560747663552,588.1568252103796 125.83444592790387,580.0686477551651 127.46328437917222,583.5772053487636 129.0921228304406,586.1328242723762 130.72096128170895,589.7203710229494 132.34979973297732,590.6045144002089 133.97863818424565,590.5942546989995 135.60747663551402,601.4786643471692 137.23631508678238,595.4828787928338 138.86515353805072,582.8353407099262 140.49399198931908,591.9241999890759 142.12283044058745,595.2123119575944 143.75166889185581,587.4981594766315 145.38050734312418,594.9349785031611 147.00934579439252,605.5017183067885 148.63818424566088,625.8547387442541 150.26702269692925,652.4881557857404 151.89586114819758,665.7267279043656 153.52469959946595,674.3171875156461 155.1535380507343,661.9643857211162 156.78237650200265,668.011567826237 158.41121495327104,654.5650204287051 160.04005340453938,656.6605203396252 161.66889185580774,662.1114170008857 163.2977303070761,666.837122185397 164.92656875834444,669.5971550204487 166.55540720961284,661.8611835996894 168.18424566088117,658.8779696298425 169.8130841121495,653.9741040915745 171.4419225634179,658.8062746672452 173.07076101468624,670.8292736344135 174.6995994659546,658.3889775821283 176.32843791722297,647.733639312957 177.9572763684913,631.6919990085137 179.5861148197597,632.1768071220778 181.21495327102804,633.2377813421848 182.84379172229637,630.3087653095307 184.47263017356477,642.5250314711584 186.1014686248331,619.3611961264098 187.73030707610147,621.4666632900689 189.35914552736983,626.2671543994762 190.98798397863817,628.3891242090197 192.61682242990653,620.5067452882638 194.2456608811749,622.9009229472146 195.87449933244326,622.8097107947804 197.50333778371163,610.8332835652654 199.13217623497997,603.7148279514349 200.76101468624836,609.3180852654413 202.3898531375167,615.1566719004504 204.01869158878503,635.0428448725062 205.6475300400534,632.1034338091081 207.27636849132176,629.5685272186837 208.90520694259013,627.922477583695 210.5340453938585,644.0186016269031 212.16288384512683,639.9779421262124 213.7917222963952,640.7166858035091 215.42056074766356,639.9311499086039 217.0493991989319,639.5733146054356 218.67823765020026,644.9764549854096 220.30707610146862,639.093277585362 221.935914552737,623.5053647764399 223.56475300400533,623.7816767109086 225.1935914552737,635.6180991744044 226.82242990654206,647.732327968911 228.45126835781042,654.2123472391881 230.08010680907879,656.7758981429687 231.70894526034712,654.6982564861155 233.3377837116155,656.8947175619421 234.96662216288385,654.7988768159619 236.5954606141522,654.118651474664 238.22429906542055,654.4788709286573 239.85313751668892,658.4756403341007 241.48197596795728,649.4600435937236 243.11081441922565,651.3342671167718 244.73965287049398,655.1847593212123 246.36849132176235,657.5386654629654 247.9973297730307,657.2355643907716 249.62616822429905,657.051430881502 251.25500667556742,656.2413600627834 252.88384512683578,655.7653872204762 254.51268357810414,658.2485397665249 256.1415220293725,656.0372748737456 257.7703604806409,654.0640490169486 259.3991989319092,637.3898991116471 261.02803738317755,638.6240545687696 262.65687583444594,636.649351842216 264.2857142857143,637.845313465706 265.9145527369826,641.2707561152101 267.543391188251,632.3750741864641 269.1722296395194,637.9444357977472 270.8010680907877,679.015448618903 272.4299065420561,665.4260474673772 274.05874499332447,671.3851017475333 275.68758344459275,667.642649889605 277.31642189586114,671.0473293899275 278.94526034712953,670.1793708037098 280.57409879839787,679.1813645970576 282.2029372496662,672.2034993025042 283.8317757009346,671.698951138826 285.46061415220294,672.3031237493252 287.0894526034713,671.0737164992098 288.71829105473967,666.0005710403926 290.347129506008,668.1620050201669 291.97596795727634,666.9392723530353 293.60480640854473,668.8183837237937 295.23364485981307,666.1544238490142 296.86248331108146,666.319607149927 298.4913217623498,660.8758707658143 300.1201602136182,665.1527945428268 301.7489986648865,671.3176936422112 303.37783711615486,673.554663848614 305.00667556742326,669.7863631310707 306.63551401869154,669.6440832779891 308.26435246995993,669.5370593031626 309.8931909212283,670.386837141945 311.5220293724967,671.2227478155481 313.150867823765,671.80437762502 314.7797062750334,670.3624262997953 316.4085447263017,667.5266566018676 318.03738317757006,666.5093765451581 319.66622162883846,664.7853920724 321.2950600801068,661.2877829869046 322.9238985313752,652.0801078166054 324.5527369826435,637.5746975291811 326.18157543391186,635.3643215314493 327.81041388518025,640.6139538852485 329.4392523364486,625.8283136122233 331.068090787717,627.2294165043816 332.6969292389853,631.2092865545959 334.32576769025366,627.5422507682904 335.95460614152205,628.9583694066845 337.5834445927904,629.9665440859719 339.2122830440587,622.8178270615185 340.8411214953271,622.7942524682444 342.4699599465955,626.3540910146752 344.0987983978638,623.0845431475599 345.7276368491322,634.7653785378146 347.3564753004005,634.8817592734166 348.98531375166885,636.8275822165467 350.61415220293725,618.9889965767691 352.2429906542056,617.0892623902032 353.871829105474,618.885666672561 355.5006675567423,619.3152918025784 357.12950600801065,621.6289067482817 358.75834445927904,627.3433799291342 360.3871829105474,624.1590672824476 362.0160213618158,622.0026014407312 363.6448598130841,631.5192411321606 365.2736982643525,631.4940827908518 366.90253671562084,632.5002979086139 368.5313751668892,645.5019956934517 370.16021361815757,642.2055818741565 371.7890520694259,619.0192246375142 373.41789052069424,619.7463192978485 375.04672897196264,601.6065230620362 376.675567423231,599.8169599569767 378.3044058744993,598.1961741799063 379.9332443257677,597.1471362646047 381.56208277703604,604.0261238787147 383.1909212283044,606.6657315235441 384.81975967957277,598.3726707277468 386.4485981308411,596.4925508028288 388.07743658210944,598.8778495320497 389.70627503337784,594.9963293823336 391.3351134846462,595.3436081150095 392.96395193591457,596.8746318373105 394.5927903871829,587.7021011569568 396.2216288384513,586.4173372781312 397.8504672897196,574.9524233751806 399.47930574098797,574.6022427507332 401.10814419225636,575.1607481814423 402.7369826435247,591.0294420553415 404.36582109479303,596.0680753856532 405.9946595460614,598.8105344144675 407.62349799732976,594.3362370463124 409.2523364485981,589.7922490055948 410.8811748998665,591.2353232893506 412.51001335113483,593.1885451735668 414.1388518024032,592.2333571550274 415.76769025367156,590.9356464387486 417.3965287049399,597.8077091312111 419.0253671562083,598.3993117798318 420.6542056074766,603.0220497247522 422.28304405874496,603.0242543897433 423.91188251001336,601.3788931995422 425.54072096128175,603.3794404027353 427.16955941255003,601.3527430700915 428.7983978638184,602.3763604394882 430.4272363150868,605.1788239539048 432.0560747663551,602.3190735338264 433.6849132176235,593.3937741744896 435.3137516688919,595.1134918973 436.9425901201602,600.1698236323018 438.57142857142856,597.7397383272064 440.20026702269695,606.6283060475976 441.8291054739653,603.4058220261539 443.4579439252336,602.5159547872543 445.086782376502,608.9315168291655 446.71562082777035,609.6532960966315 448.34445927903874,614.742118877077 449.9732977303071,608.2673213867902 451.6021361815754,606.614110930236 453.2309746328438,587.636978895575 454.85981308411215,584.9280395049857 456.4886515353805,585.4091833457722 458.1174899866489,585.1635705338726 459.74632843791727,587.9745792967068 461.37516688918555,583.7808861595104 463.00400534045394,580.1688540411722 464.63284379172234,584.8017773004502 466.2616822429906,587.3271885824679 467.890520694259,588.367213625515 469.5193591455274,585.9855694454538 471.14819759679574,576.5310345716694 472.7770360480641,584.3613411576415 474.40587449933247,585.962085443216 476.0347129506008,587.905288925816 477.66355140186914,587.7711257471433 479.29238985313754,587.343071300344 480.9212283044059,591.8992631359146 482.5500667556742,591.749081465437 484.1789052069426,590.2449174570513 485.80774365821094,591.9461482541564 487.43658210947933,593.0534463431861 489.06542056074767,593.9528542227298 490.694259012016,594.0678214057991 492.3230974632844,590.1086441368618 493.9519359145527,591.571277654399 495.58077436582107,591.6619537027515 497.20961281708946,591.9628044668054 498.83845126835786,596.3656495238631 500.46728971962614,612.889967644174 502.09612817089453,611.1735529307085 503.7249666221629,614.3064835303576 505.3538050734312,612.5498861636421 506.9826435246996,613.8046144638226 508.611481975968,613.1977359569397 510.2403204272363,606.3038831627923 511.86915887850466,615.4577405244586 513.497997329773,614.4852567827141 515.1268357810413,615.2180077375714 516.7556742323097,612.8273882770468 518.3845126835781,614.7603765351307 520.0133511348465,621.6334657096679 521.6421895861149,615.0247131697978 523.2710280373831,612.0135214098198 524.8998664886515,613.2193801863664 526.5287049399199,609.8063261861246 528.1575433911883,615.1097053007685 529.7863818424566,614.5438181039048 531.415220293725,615.8315551360712 533.0440587449934,615.1106587359286 534.6728971962616,609.6436560231517 536.30173564753,602.4985625406039 537.9305740987984,608.3810367816851 539.5594125500668,610.766445703489 541.1882510013352,607.6463533294526 542.8170894526035,611.7558449199315 544.4459279038718,614.9534428879166 546.0747663551401,615.7150106227286 547.7036048064085,614.3017722945187 549.3324432576769,609.738932497936 550.9612817089453,608.5095377467554 552.5901201602136,601.284238388376 554.218958611482,583.5603648342598 555.8477970627504,577.6338083489381 557.4766355140187,580.0488447269882 559.105473965287,577.1045641306271 560.7343124165554,575.6304003408919 562.3631508678237,575.4505533866547 563.9919893190921,571.9040671953683 565.6208277703605,569.5224646635291 567.2496662216289,568.3865158377472 568.8785046728972,552.4859575010906 570.5073431241656,555.0684665794251 572.136181575434,563.6541915520127 573.7650200267022,562.7312061384591 575.3938584779706,561.2458371358779 577.0226969292389,555.1651463210054 578.6515353805073,553.0042769232768 580.2803738317757,550.9440694090376 581.9092122830441,552.9301941384947 583.5380507343125,552.541509022385 585.1668891855808,552.6469265864766 586.795727636849,540.7963597013677 588.4245660881174,528.5590586334698 590.0534045393858,523.6199652902089 591.6822429906542,515.0963670869722 593.3110814419226,516.6828295316451 594.939919893191,532.307885586215 596.5687583444592,521.0880386045148 598.1975967957276,528.5458138292499 599.826435246996,527.777592468324 601.4552736982644,525.6219776144843 603.0841121495326,517.4065075302508 604.712950600801,523.9059872114648 606.3417890520694,527.4224724069443 607.9706275033377,520.659206906992 609.5994659546061,525.0750204554463 611.2283044058745,515.2246478359405 612.8571428571428,527.4517088741914 614.4859813084112,520.0065780998412 616.1148197596796,523.4594129926159 617.743658210948,509.8569103536445 619.3724966622162,493.4323632111799 621.0013351134846,506.3172060623308 622.630173564753,511.2394653784064 624.2590120160213,509.4540228345341 625.8878504672897,515.0565628040716 627.5166889185581,517.1829739152009 629.1455273698265,534.2631696642306 630.7743658210948,535.3629989635042 632.4032042723632,525.6339607510744 634.0320427236315,519.157320770204 635.6608811748998,523.5421968541477 637.2897196261682,520.0800361656271 638.9185580774366,523.0630074425283 640.547396528705,516.7239224958369 642.1762349799733,507.23040458252177 643.8050734312417,495.0946016052924 645.4339118825101,479.45830789388805 647.0627503337784,467.1114166716507 648.6915887850467,464.7254944255857 650.3204272363151,460.4139466547335 651.9492656875835,452.66384879580283 653.5781041388518,458.232692772071 655.2069425901202,456.0470835784671 656.8357810413885,437.0611769172627 658.4646194926569,401.7985133172336 660.0934579439253,399.41415277474977 661.7222963951936,394.4394398403262 663.351134846462,388.94599997716807 664.9799732977303,363.01586250291564 666.6088117489986,356.4991330868712 668.237650200267,337.99170094245244 669.8664886515354,338.0399690375744 671.4953271028037,362.0945496218528 673.1241655540721,370.68778359579636 674.7530040053405,414.20759457526606 676.3818424566088,386.15428152879554 678.0106809078771,398.99070246231884 679.6395193591455,368.3308709526794 681.2683578104138,374.4988232001019 682.8971962616822,372.5689541613517 684.5260347129506,361.46655383948627 686.1548731642189,397.3063866943475 687.7837116154873,386.116054564803 689.4125500667557,383.7514715289881 691.0413885180241,357.5087065312317 692.6702269692923,368.35348781434334 694.2990654205607,394.64267300766255 695.9279038718291,402.872202559587 697.5567423230974,412.27313166691044 699.1855807743658,414.1823003369199 700.8144192256342,405.08764323221845 702.4432576769026,397.4408470833119 704.072096128171,408.0324160046432 705.7009345794391,409.93185809850655 707.3297730307075,404.2249995131035 708.9586114819759,425.12567566745577 710.5874499332443,430.8323186456668 712.2162883845127,409.99382333364906 713.8451268357811,415.1203823777852 715.4739652870494,425.70441258379213 717.1028037383177,430.34139185474004 718.7316421895861,427.45764457524353 720.3604806408545,429.9209162254786 721.9893190921229,415.9819875028555 723.6181575433912,401.03480658588563 725.2469959946595,357.6820172742519 726.8758344459279,359.77722149681694 728.5046728971962,361.8488854808411 730.1335113484646,356.6792487001032 731.762349799733,356.22520562910427 733.3911882510014,361.22259189535407 735.0200267022697,359.45150098360915 736.648865153538,358.85538860251444 738.2777036048064,346.86387447752793 739.9065420560747,362.04654470624945 741.5353805073431,359.5753060557083 743.1642189586115,377.1826826962376 744.7930574098798,380.3952751828358 746.4218958611482,376.63618029941983 748.0507343124166,378.8665801528349 749.679572763685,380.5723926190908 751.3084112149533,385.1525070423472 752.9372496662215,393.11540159411607 754.5660881174899,398.3987177908889 756.1949265687583,396.14404063926486 757.8237650200267,402.0931585843622 759.4526034712951,392.9696307443535 761.0814419225635,408.5511779011857 762.7102803738317,435.2156893951425 764.3391188251001,440.2627651637568 765.9679572763685,426.43081131150257 767.5967957276368,426.69083459895967 769.2256341789052,416.9505364473018 770.8544726301736,383.9153309236564 772.483311081442,391.22264167270566 774.1121495327102,377.20730422478005 775.7409879839786,371.30673959742336 777.369826435247,380.62656946101094 778.9986648865154,397.65310614453364 780.6275033377838,387.52870157969954 782.2563417890522,386.8925654920071 783.8851802403204,397.7532307789123 785.5140186915887,420.41448976441546 787.1428571428571,446.41509995030657 788.7716955941255,465.334850359846 790.4005340453939,436.32607687121134 792.0293724966623,442.8721714042395 793.6582109479306,440.3155194251183 795.287049399199,445.8889767977133 796.9158878504672,449.4841761502549 798.5447263017356,449.5593294638569 800.173564753004,450.39798283384613 801.8024032042723,443.5966815195822 803.4312416555407,424.34562732560846 805.0600801068091,433.3722745613151 806.6889185580775,452.9469660018445 808.3177570093458,452.9386338228207 809.9465954606142,464.0126953500504 811.5754339118824,463.66487581101387 813.2042723631508,470.7298605368658 814.8331108144192,482.0948942935739 816.4619492656876,468.7491504706595 818.090787716956,469.1980065181068 819.7196261682243,454.2186890559933 821.3484646194926,466.00870084425503 822.977303070761,461.1869029024018 824.6061415220294,446.12370058242493 826.2349799732978,435.45682618117775 827.8638184245661,433.33783111667265 829.4926568758345,438.2369903661545 831.1214953271027,423.83202413046644 832.7503337783711,426.7290490502628 834.3791722296395,452.65936940635044 836.0080106809079,459.04482561995104 837.6368491321763,451.46314358444357 839.2656875834447,450.6104287542436 840.8945260347131,458.2530075815474 842.5233644859812,448.6669501651651 844.1522029372496,445.9362502080043 845.781041388518,426.04215792873623 847.4098798397864,425.2694057486024 849.0387182910548,420.0155944713732 850.6675567423232,421.4798417795203 852.2963951935915,432.6536988254493 853.9252336448598,438.3501275408155 855.5540720961282,430.3342322671595 857.1829105473965,409.5127111724215 858.8117489986649,423.9631499227908 860.4405874499332,427.46974026900887 862.0694259012016,437.76199250758066 863.69826435247,396.35716037430996 865.3271028037383,377.95309392890897 866.9559412550067,353.7047992193186 868.5847797062751,331.0407078721106 870.2136181575434,345.03298171455697 871.8424566088117,332.1628765651996 873.4712950600801,327.52207796559287 875.1001335113484,327.26675795343846 876.7289719626168,299.15237204160826 878.3578104138852,299.2645688568513 879.9866488651535,316.13359802768133 881.6154873164219,290.74714243236474 883.2443257676903,280.6275728909606 884.8731642189587,286.00824836177503 886.502002670227,266.5839575118805 888.1308411214953,253.691406757484 889.7596795727636,250.54206346330972 891.388518024032,284.53299430515284 893.0173564753004,260.95795662027354 894.6461949265688,258.57138093174177 896.2750333778372,240.26359086807668 897.9038718291054,276.4494247044189 899.5327102803737,291.59990159845694 901.1615487316421,309.9093454475509 902.7903871829105,288.15314877605164 904.4192256341789,305.17444696586017 906.0480640854473,302.0802501744729 907.6769025367157,310.5631942516285 909.3057409879839,306.6504463180068 910.9345794392523,281.6136633255537 912.5634178905207,279.3506497415693 914.1922563417891,298.8796245211596 915.8210947930575,319.3712595054817 917.4499332443258,310.63527094444777 919.0787716955941,320.27858023290906 920.7076101468624,285.71472263717686 922.3364485981308,275.9660149143519 923.9652870493992,299.9895231939547 925.5941255006676,281.01223007822927 927.222963951936,285.2294371327709 928.8518024032043,284.80935189932273 930.4806408544727,299.9168690046562 932.1094793057409,300.85096907349316 933.7383177570093,290.89897517015464 935.3671562082777,330.880894378467 936.9959946595461,340.28610763251334 938.6248331108144,346.1807981546473 940.2536715620828,350.36976808512844 941.8825100133512,346.13812757637805 943.5113484646195,339.51405962025837 945.1401869158879,341.1737833409033 946.7690253671561,348.923851755144 948.3978638184245,349.3200305917079 950.0267022696929,338.50097840414054 951.6555407209613,340.3410010909215 953.2843791722297,369.55364024324814 954.913217623498,398.6011109419658 956.5420560747663,405.54856844629 958.1708945260347,362.66789653838106 959.799732977303,404.26889836955905 961.4285714285714,396.1815528634378 963.0574098798398,403.843815771707 964.6862483311082,447.03312928017306 966.3150867823764,432.81604813272327 967.9439252336448,431.8410422011185 969.5727636849132,436.86740893372007 971.2016021361816,432.74883032987543 972.83044058745,425.30407358903767 974.4592790387184,426.17376009583853 976.0881174899868,410.06057550246817 977.7169559412549,417.4242022229519 979.3457943925233,432.24520906963664 980.9746328437917,443.94401017290846 982.6034712950601,429.78876706568445 984.2323097463285,441.54609413933036 985.8611481975969,441.9015662795758 987.4899866488652,473.0092435747206 989.1188251001334,455.4225097316518 990.7476635514018,463.5122899537861 992.3765020026702,459.87664885098434 994.0053404539386,460.88325720610715 995.6341789052069,458.8128069006592 997.2630173564753,455.77105617043446 998.8918558077437,454.4006818203437 1000.520694259012,421.513789536662 1002.1495327102804,420.6907515301128 1003.7783711615488,421.8297108341721 1005.407209612817,420.3128921791945 1007.0360480640854,412.2530142024927 1008.6648865153538,413.92798845673263 1010.2937249666222,417.3169131883641 1011.9225634178905,413.92865884181595 1013.5514018691589,352.0539237391032 1015.1802403204272,334.0137214983793 1016.8090787716956,318.9011026651235 1018.437917222964,331.29352237581287 1020.0667556742324,338.92509245658715 1021.6955941255007,329.4979353236069 1023.324432576769,319.47634601160684 1024.9532710280373,326.23384675342675 1026.5821094793057,320.7220579637661 1028.210947930574,311.5174883439855 1029.8397863818425,320.7291519862441 1031.4686248331109,331.111725144652 1033.0974632843793,321.9710494344283 1034.7263017356474,324.2667622495511 1036.3551401869158,335.7393690821599 1037.9839786381842,330.3101763110192 1039.6128170894526,296.20100836537995 1041.241655540721,319.4002349442831 1042.8704939919894,329.00292169950467 1044.4993324432578,325.1601266576784 1046.128170894526,330.6127766032515 1047.7570093457944,343.4531731413472 1049.3858477970628,362.8207013977682 1051.0146862483311,333.93920400112296 1052.6435246995995,334.94539138328713 1054.272363150868,332.6498250671408 1055.901201602136,328.84993866196317 1057.5300400534045,318.345638099588 1059.1588785046729,325.25344704551304 1060.7877169559413,317.7399456104968 1062.4165554072097,314.4221963970964 1064.0453938584778,272.7794687028282 1065.6742323097465,270.51362200962546 1067.3030707610146,260.0932969404777 1068.931909212283,233.35634725863218 1070.5607476635514,220.6334102362253 1072.1895861148198,205.80542290238617 1073.8184245660882,200.79375249459878 1075.4472630173564,207.28314667868557 1077.076101468625,205.6538640611937 1078.7049399198931,201.31789886562626 1080.3337783711615,201.04890333121415 1081.96261682243,234.18151082203462 1083.591455273698,231.29641180065266 1085.2202937249667,223.39777053685293 1086.849132176235,194.7798193869569 1088.4779706275035,172.43898763624043 1090.1068090787717,170.0648538717453 1091.7356475300398,123.636786485387 1093.3644859813085,157.94206420582339 1094.9933244325766,155.65174629791477 1096.6221628838452,192.55191115343223 1098.2510013351134,183.76321558772395 1099.879839786382,141.22696211299535 1101.5086782376502,179.28682956707144 1103.1375166889184,168.3576923334789 1104.766355140187,184.5325682600643 1106.3951935914552,182.87236827903484 1108.0240320427238,179.59225784564956 1109.652870493992,182.62400346211052 1111.2817089452606,185.35912141418282 1112.9105473965287,178.88185745408236 1114.5393858477971,171.51869191827325 1116.1682242990653,143.77634432197522 1117.7970627503337,152.39107179402174 1119.425901201602,155.0713898190487 1121.0547396528705,149.05597373547266 1122.6835781041389,158.88281509769718 1124.3124165554073,183.3150523576703 1125.9412550066754,184.87502326990716 1127.5700934579438,201.10425889586946 1129.1989319092122,188.2402345754772 1130.8277703604806,183.63185667827997 1132.456608811749,146.36313250168098 1134.0854472630174,141.8753693931676 1135.7142857142856,124.12254567781838 1137.343124165554,137.38855813617306 1138.9719626168223,205.15063220744088 1140.6008010680907,179.52206553219435 1142.2296395193591,186.09982324825614 1143.8584779706275,212.4235372902935 1145.487316421896,215.02884987524442 1147.116154873164,201.29491817670777 1148.7449933244325,219.60791473239175 1150.3738317757009,203.0023818134913 1152.0026702269693,180.22633171585915 1153.6315086782377,195.716734430913 1155.260347129506,217.95088598505163 1156.8891855807744,209.40890755639055 1158.5180240320426,235.25980597125732 1160.146862483311,253.46926307301032 1161.7757009345794,254.15424049865015 1163.4045393858478,240.66060873427978 1165.0333778371162,255.94535651094736 1166.6622162883846,276.6496017189892 1168.291054739653,290.4556155889864 1169.9198931909211,308.1317781434544 1171.5487316421895,309.95839185734826 1173.177570093458,343.26234239774067 1174.8064085447263,336.49869892873136 1176.4352469959947,323.91719695393607 1178.064085447263,310.35164003111294 1179.6929238985315,313.27598416228176 1181.3217623497997,337.82907704068805 1182.950600801068,292.5553561418994 1184.5794392523364,314.29706497055537 1186.2082777036048,309.03620287099557 1187.8371161548732,285.2156682418515 1189.4659546061416,291.3096558890361 1191.09479305741,305.4136182305627 1192.7236315086782,325.20458948530273 1194.3524699599466,334.9973242494859 1195.981308411215,320.0783148562652 1197.6101468624834,317.09862585306496 1199.2389853137518,322.745452202713 1200.8678237650201,327.66509840885544 1202.4966622162885,322.98385348223377 1204.1255006675567,325.53764614960755 1205.754339118825,322.2842393091271 1207.3831775700935,305.1164694901502 1209.012016021362,300.15749352756416 1210.6408544726303,284.0355460929149 1212.2696929238987,303.9524379295233 1213.898531375167,307.02695608119495 1215.5273698264352,304.4330469422961 1217.1562082777036,272.17609918198605 1218.785046728972,279.83489764993266 1220.4138851802404,285.15260002764865 1222.0427236315088,321.97073801745967 1223.671562082777,318.3090937523046 1225.3004005340454,319.2539460123108 1226.9292389853138,322.8066127839603 1228.5580774365822,314.96335851079266 1230.1869158878505,348.66448827416144 1231.815754339119,397.3747799730517 1233.444592790387,403.16001632799293 1235.0734312416555,465.2839623478101 1236.702269692924,428.60732358994443 1238.3311081441923,425.12097132817973 1239.9599465954607,445.756928613361 1241.588785046729,432.642290700889 1243.2176234979972,439.38245382855894 1244.8464619492656,440.46957639395026 1246.475300400534,445.16257507957346 1248.1041388518024,440.7538295780997 1249.7329773030708,458.42494659740544 1251.3618157543392,433.5417643406823 1252.9906542056074,449.27641726721936 1254.6194926568758,448.66488336419036 1256.2483311081442,438.8907206852454 1257.8771695594126,425.3001633883822 1259.506008010681,442.5418397231064 1261.134846461949,437.77880396662505 1262.7636849132175,428.65271397288717 1264.392523364486,423.5561763955412 1266.0213618157543,412.00200924226914 1267.6502002670227,397.9818476366058 1269.279038718291,422.2338570650678 1270.9078771695592,428.9719736139853 1272.5367156208276,418.812288672769 1274.165554072096,416.4688591208095 1275.7943925233644,442.6069164559765 1277.4232309746328,444.2631247238397 1279.0520694259012,428.9748739682056 1280.6809078771696,435.99844684377763 1282.3097463284378,434.348929289938 1283.9385847797062,427.1223332510145 1285.5674232309746,414.9980153114809 1287.196261682243,405.83299685455785 1288.8251001335113,415.65389490611693 1290.4539385847797,396.7993861342873 1292.0827770360481,392.4169284436787 1293.7116154873163,390.80733738662326 1295.3404539385847,393.38844895730523 1296.969292389853,382.9594966908778 1298.5981308411215,389.43503327327653 1300.2269692923899,382.2130436172293 1301.8558077436583,394.2506012910171 1303.4846461949267,396.84368416209884 1305.1134846461948,386.4032043137752 1306.7423230974632,381.23203384807067 1308.3711615487316,377.1770428365852 1310.0,383.5849925772734" fill="none" stroke="#0f766e" stroke-width="2.5"><title>budgeted_static_50_50_rebalance | end=2026-05-08 | return=53.66%</title></polyline>
<polyline points="90.0,545.3983574736186 91.62883845126836,545.2953145380421 93.25767690253672,545.8010907486579 94.88651535380507,547.1930332109563 96.51535380507343,547.3223619974754 98.1441922563418,551.0514155991748 99.77303070761015,548.7699631120228 101.4018691588785,550.0309262092827 103.03070761014686,551.4344687309231 104.65954606141523,548.0302695869016 106.28838451268358,550.9530678821723 107.91722296395193,553.0829669375964 109.5460614152203,550.3910563501112 111.17489986648866,554.4915406557973 112.80373831775701,557.1147257091257 114.43257676902536,557.1511087136431 116.06141522029372,559.6822425212755 117.69025367156209,562.9663400982262 119.31909212283044,568.4503744686597 120.94793057409879,592.9644915576674 122.57676902536716,600.6719253480549 124.20560747663552,602.4290748441758 125.83444592790387,591.1400846592448 127.46328437917222,596.093169870531 129.0921228304406,599.6856561162483 130.72096128170895,604.695567898743 132.34979973297732,605.9183780405409 133.97863818424565,605.8597795636895 135.60747663551402,620.1733952326696 137.23631508678238,612.36015230513 138.86515353805072,596.5013521137566 140.49399198931908,607.698287678942 142.12283044058745,611.5961631469341 143.75166889185581,602.7302534546168 145.38050734312418,611.2447650082721 147.00934579439252,623.6862218298556 148.63818424566088,647.9421845117943 150.26702269692925,679.6405548155267 151.89586114819758,695.8361744793999 153.52469959946595,706.2651535439634 155.1535380507343,690.8637854913501 156.78237650200265,698.5621451465198 158.41121495327104,681.4147674977337 160.04005340453938,684.0868598613015 161.66889185580774,690.8291555040662 163.2977303070761,696.9919114186 164.92656875834444,700.1162213078932 166.55540720961284,690.4591355982815 168.18424566088117,686.6963136099278 169.8130841121495,680.8991778508589 171.4419225634179,686.8412558182046 173.07076101468624,701.8401519147934 174.6995994659546,686.0638746848745 176.32843791722297,672.1761984746433 177.9572763684913,651.5157993179921 179.5861148197597,652.7967235503336 181.21495327102804,653.8043018405588 182.84379172229637,649.7728451028621 184.47263017356477,665.2089843889174 186.1014686248331,636.0054534658127 187.73030707610147,638.6873830397085 189.35914552736983,644.8677538984798 190.98798397863817,647.3774139617152 192.61682242990653,637.1332895507678 194.2456608811749,640.2567762050518 195.87449933244326,640.1181345521062 197.50333778371163,624.541569757726 199.13217623497997,615.2566983280146 200.76101468624836,622.6687647063849 202.3898531375167,630.0783164377829 204.01869158878503,655.4285797726851 205.6475300400534,652.2594527618518 207.27636849132176,648.7921719880896 208.90520694259013,646.5751348277857 210.5340453938585,666.7532187897543 212.16288384512683,661.5192997444829 213.7917222963952,662.2309139980048 215.42056074766356,661.0313861432807 217.0493991989319,660.6045218634081 218.67823765020026,666.4856643250446 220.30707610146862,659.074735620273 221.935914552737,640.5778296356527 223.56475300400533,641.9479675382163 225.1935914552737,655.4944898577775 226.82242990654206,671.7234629573006 228.45126835781042,680.2006233630484 230.08010680907879,683.0429823569934 231.70894526034712,680.8525321732898 233.3377837116155,683.2684929738299 234.96662216288385,680.7643094639369 236.5954606141522,680.0634454850874 238.22429906542055,680.581143850633 239.85313751668892,685.6382652436931 241.48197596795728,674.8330963395041 243.11081441922565,676.9318952723501 244.73965287049398,681.5506415418154 246.36849132176235,684.4364620561314 247.9973297730307,684.0467218225347 249.62616822429905,683.8205378576567 251.25500667556742,682.8114127855556 252.88384512683578,682.2362629632133 254.51268357810414,685.3015810111275 256.1415220293725,682.45583460569 257.7703604806409,679.8804548567297 259.3991989319092,658.6697953380761 261.02803738317755,660.147028128673 262.65687583444594,657.4532459654439 264.2857142857143,658.9122901949834 265.9145527369826,663.3013595254586 267.543391188251,652.4094773441406 269.1722296395194,659.1992992051595 270.8010680907877,709.9432803832973 272.4299065420561,692.5830340251267 274.05874499332447,699.9060263822649 275.68758344459275,695.4768249047287 277.31642189586114,699.9360604143303 278.94526034712953,698.7364608535531 280.57409879839787,710.0 282.2029372496662,701.4156243755264 283.8317757009346,700.6163364198361 285.46061415220294,701.3340772060697 287.0894526034713,699.6539878668895 288.71829105473967,693.3352204059086 290.347129506008,696.2105572925589 291.97596795727634,694.6177795977234 293.60480640854473,697.0564918910296 295.23364485981307,693.7462472254799 296.86248331108146,693.9155471943823 298.4913217623498,687.274880259293 300.1201602136182,692.6568351771433 301.7489986648865,700.4445278191998 303.37783711615486,703.0947533729731 305.00667556742326,698.3804045280081 306.63551401869154,698.1183575057909 308.26435246995993,698.0381137220968 309.8931909212283,699.0446450729305 311.5220293724967,700.1096239029639 313.150867823765,700.7880130499653 314.7797062750334,698.9690488307576 316.4085447263017,695.2720261137493 318.03738317757006,693.9983220879706 319.66622162883846,691.8417225816058 321.2950600801068,687.4125200670595 322.9238985313752,676.4965121859183 324.5527369826435,659.1645948000765 326.18157543391186,656.4040024859669 327.81041388518025,663.0053124014271 329.4392523364486,645.1355236881865 331.068090787717,647.136603783386 332.6969292389853,652.5490963216732 334.32576769025366,647.95864275499 335.95460614152205,649.9456036664938 337.5834445927904,651.0893600405388 339.2122830440587,642.3642304393221 340.8411214953271,641.9341163631378 342.4699599465955,646.2144894814916 344.0987983978638,642.088240884469 345.7276368491322,656.3796446908684 347.3564753004005,656.6238663991135 348.98531375166885,659.222664427845 350.61415220293725,637.8370351896589 352.2429906542056,635.5307381072629 353.871829105474,637.6310999401933 355.5006675567423,638.4540476183953 357.12950600801065,640.9889322317489 358.75834445927904,647.8791418479515 360.3871829105474,643.8992534563039 362.0160213618158,641.0971014466161 363.6448598130841,652.6133563488652 365.2736982643525,652.6764059507733 366.90253671562084,653.7631848828897 368.5313751668892,669.3760989954136 370.16021361815757,665.1405995717531 371.7890520694259,637.7356341132243 373.41789052069424,638.949886912953 375.04672897196264,617.8519182126474 376.675567423231,616.1567360650916 378.3044058744993,614.1073013717893 379.9332443257677,612.8388348150222 381.56208277703604,621.2823904703193 383.1909212283044,624.5080639829761 384.81975967957277,614.5327592024503 386.4485981308411,612.0689053515574 388.07743658210944,615.0235258467796 389.70627503337784,609.6332829249645 391.3351134846462,609.9603569953033 392.96395193591457,611.966588387007 394.5927903871829,601.3338626828753 396.2216288384513,599.8583739218168 397.8504672897196,584.6655253459728 399.47930574098797,583.9799576050109 401.10814419225636,584.8351711798066 402.7369826435247,604.2575016592257 404.36582109479303,610.7302109895994 405.9946595460614,614.1641920552021 407.62349799732976,609.0558849618964 409.2523364485981,603.8527847453197 410.8811748998665,605.743910937216 412.51001335113483,607.7811118632795 414.1388518024032,606.6628363162433 415.76769025367156,604.9178269939325 417.3965287049399,613.0059111408086 419.0253671562083,613.7292734403138 420.6542056074766,618.7824519515967 422.28304405874496,618.9287557557182 423.91188251001336,616.9612133577524 425.54072096128175,619.1503481410017 427.16955941255003,617.039470438739 428.7983978638184,617.9397912721512 430.4272363150868,620.5828816373838 432.0560747663551,617.7524599662703 433.6849132176235,609.1095456958551 435.3137516688919,610.614844383702 436.9425901201602,615.0939132899281 438.57142857142856,612.8516036238301 440.20026702269695,620.5114088547043 441.8291054739653,617.7008954259392 443.4579439252336,616.9288574236656 445.086782376502,622.5913241716579 446.71562082777035,623.2659167123519 448.34445927903874,627.9848710130461 449.9732977303071,622.0416837970855 451.6021361815754,620.5620698698708 453.2309746328438,603.3268547192869 454.85981308411215,601.0362611566835 456.4886515353805,601.396935139903 458.1174899866489,601.2521856834783 459.74632843791727,603.6574213888159 461.37516688918555,600.0458837974197 463.00400534045394,597.1346977263717 464.63284379172234,600.8402299842288 466.2616822429906,602.9047346538678 467.890520694259,603.7069776927381 469.5193591455274,601.9011696217593 471.14819759679574,594.393508812112 472.7770360480641,600.3597254101968 474.40587449933247,601.6053881912275 476.0347129506008,603.0960252122705 477.66355140186914,602.9833864571456 479.29238985313754,602.7086943921653 480.9212283044059,606.0333837383572 482.5500667556742,605.9080412600205 484.1789052069426,604.7549368874538 485.80774365821094,606.0697374551578 487.43658210947933,606.9308307675785 489.06542056074767,607.6163220438273 490.694259012016,607.6935251937203 492.3230974632844,604.8209389419137 493.9519359145527,605.8472095355667 495.58077436582107,605.9168980202187 497.20961281708946,606.1531960210975 498.83845126835786,609.3779915221266 500.46728971962614,621.4784759395378 502.09612817089453,620.1081093306668 503.7249666221629,622.7581277502635 505.3538050734312,621.2325688522693 506.9826435246996,622.3295256403869 508.611481975968,621.7884358407209 510.2403204272363,615.5154032015146 511.86915887850466,624.0223575212001 513.497997329773,623.1124277361778 515.1268357810413,623.7680934450153 516.7556742323097,621.5657504274135 518.3845126835781,623.3573845713291 520.0133511348465,630.060100162059 521.6421895861149,623.6228713205139 523.2710280373831,620.6278674579203 524.8998664886515,621.8728342352466 526.5287049399199,618.6415254807486 528.1575433911883,623.9021944523948 529.7863818424566,623.288672658449 531.415220293725,624.5164178637498 533.0440587449934,623.7415937041043 534.6728971962616,617.9461976644645 536.30173564753,610.6642397451056 537.9305740987984,616.8674578123984 539.5594125500668,619.5253522721769 541.1882510013352,616.4465384346189 542.8170894526035,620.7580215864227 544.4459279038718,623.8314375626296 546.0747663551401,624.76359534439 547.7036048064085,623.3711075176946 549.3324432576769,619.092682284596 550.9612817089453,617.9244067728823 552.5901201602136,609.8441123898859 554.218958611482,590.5192019369873 555.8477970627504,584.7302390942464 557.4766355140187,587.0688217738774 559.105473965287,584.1100615547482 560.7343124165554,582.4331009757256 562.3631508678237,582.5118282019595 563.9919893190921,578.4870595642093 565.6208277703605,575.7602620730744 567.2496662216289,575.0460817359792 568.8785046728972,559.5200405222871 570.5073431241656,561.9884765839828 572.136181575434,569.3737265159153 573.7650200267022,568.9480436185735 575.3938584779706,567.8473466793082 577.0226969292389,562.7249470581039 578.6515353805073,560.6678094000931 580.2803738317757,558.999483622355 581.9092122830441,560.6019944791109 583.5380507343125,560.4517090786921 585.1668891855808,560.4921174660291 586.795727636849,551.273272480466 588.4245660881174,542.1095286872406 590.0534045393858,538.6901060579477 591.6822429906542,532.0172685557657 593.3110814419226,533.1629364801402 594.939919893191,544.8165987034859 596.5687583444592,536.4750248203305 598.1975967957276,542.0306094038151 599.826435246996,541.5142729414247 601.4552736982644,540.0384357888115 603.0841121495326,533.9552409637269 604.712950600801,538.6659512202863 606.3417890520694,541.2140249139302 607.9706275033377,536.2230100845201 609.5994659546061,539.4178246900921 611.2283044058745,532.438400420481 612.8571428571428,541.2377601197202 614.4859813084112,535.9490466723792 616.1148197596796,538.4316017655576 617.743658210948,528.7941236396254 619.3724966622162,516.9733690187369 621.0013351134846,525.9282377238203 622.630173564753,529.3928489371929 624.2590120160213,528.1606963394513 625.8878504672897,531.9634287230057 627.5166889185581,533.4440146633901 629.1455273698265,545.151496846183 630.7743658210948,545.9424652030394 632.4032042723632,539.0221377853884 634.0320427236315,534.4085696206762 635.6608811748998,537.5279153405631 637.2897196261682,535.0708358367264 638.9185580774366,537.1816847828507 640.547396528705,532.655068216666 642.1762349799733,525.9437150699214 643.8050734312417,517.3617310905552 645.4339118825101,506.25055325609793 647.0627503337784,497.50362076814804 648.6915887850467,495.8116816460964 650.3204272363151,492.7178532031992 651.9492656875835,487.17958847588307 653.5781041388518,491.07257270086745 655.2069425901202,489.5441952283306 656.8357810413885,476.3286715834322 658.4646194926569,452.0313780201292 660.0934579439253,450.3459793378864 661.7222963951936,446.91118808005035 663.351134846462,443.1204575494509 664.9799732977303,425.3313477146621 666.6088117489986,420.91887978735593 668.237650200267,408.4032521383761 669.8664886515354,408.48928843858204 671.4953271028037,424.6669309428722 673.1241655540721,430.42501305606396 674.7530040053405,459.3800203685435 676.3818424566088,440.5371617688862 678.0106809078771,449.14989167619274 679.6395193591455,428.15716505361013 681.2683578104138,432.37513201858405 682.8971962616822,431.0798837445998 684.5260347129506,423.61311402518453 686.1548731642189,447.5529963831082 687.7837116154873,440.0370093850193 689.4125500667557,438.3997290370726 691.0413885180241,419.75974391353253 692.6702269692923,427.4073821250591 694.2990654205607,445.78929152631764 695.9279038718291,451.6150307255521 697.5567423230974,458.36182139904855 699.1855807743658,459.7641842606422 700.8144192256342,452.950719971857 702.4432576769026,447.1892048180398 704.072096128171,455.2812941829783 705.7009345794391,456.74075287678585 707.3297730307075,451.562388559606 708.9586114819759,469.0669438370789 710.5874499332443,473.7237032954804 712.2162883845127,455.94583497877875 713.8451268357811,460.46729801509605 715.4739652870494,469.6283274036832 717.1028037383177,473.961176535744 718.7316421895861,471.38265263800747 720.3604806408545,473.9788743666908 721.9893190921229,461.54175190261947 723.6181575433912,446.5840338819275 725.2469959946595,403.20269067510355 726.8758344459279,403.7851209695134 728.5046728971962,405.4628140197226 730.1335113484646,400.22145836210245 731.762349799733,399.667000550502 733.3911882510014,404.334371695495 735.0200267022697,402.33488228142323 736.648865153538,402.42011420470845 738.2777036048064,393.33748469330857 739.9065420560747,405.25135911761066 741.5353805073431,403.34543535673356 743.1642189586115,416.7245592358928 744.7930574098798,419.06281022911065 746.4218958611482,415.8306142520501 748.0507343124166,417.70034985868165 749.679572763685,418.448827629791 751.3084112149533,421.66391627217763 752.9372496662215,427.3724616192667 754.5660881174899,430.97092093120705 756.1949265687583,429.1263868434414 757.8237650200267,433.6385307636126 759.4526034712951,426.9118077595558 761.0814419225635,438.8956993263025 762.7102803738317,460.19288957936465 764.3391188251001,464.2800097295581 765.9679572763685,452.7585157229225 767.5967957276368,452.77484048452953 769.2256341789052,444.44385648029044 770.8544726301736,415.7710887834459 772.483311081442,422.06238513029245 774.1121495327102,410.1276553208627 775.7409879839786,405.2993851023327 777.369826435247,412.78391208031627 778.9986648865154,427.00996636343945 780.6275033377838,418.89571531289056 782.2563417890522,418.046360997913 783.8851802403204,427.0555308464281 785.5140186915887,446.7181711531897 787.1428571428571,470.00400744524006 788.7716955941255,487.4025381040667 790.4005340453939,461.09846196748305 792.0293724966623,467.49145449449645 793.6582109479306,463.64494910138 795.287049399199,469.3467638171193 796.9158878504672,473.5204949777761 798.5447263017356,473.25537003496083 800.173564753004,474.6742182400508 801.8024032042723,467.9153237038836 803.4312416555407,448.60249579740275 805.0600801068091,458.1153720053623 806.6889185580775,478.1083418581127 808.3177570093458,478.15496213681433 809.9465954606142,489.7268254021673 811.5754339118824,489.4568790341377 813.2042723631508,496.70398921207794 814.8331108144192,508.434184161933 816.4619492656876,495.1614787538972 818.090787716956,495.9337977103805 819.7196261682243,480.8429693886294 821.3484646194926,493.76062437084204 822.977303070761,488.9594124248356 824.6061415220294,472.9133336805614 826.2349799732978,460.155403046207 827.8638184245661,457.51922544399747 829.4926568758345,463.4172810305339 831.1214953271027,447.89081144181785 832.7503337783711,451.3388861852859 834.3791722296395,479.4521226629792 836.0080106809079,487.3845384602496 837.6368491321763,479.15469982262067 839.2656875834447,478.23137524906565 840.8945260347131,486.27495606065685 842.5233644859812,476.11625340871615 844.1522029372496,473.0349278049657 845.781041388518,452.04652970550563 847.4098798397864,451.3765149119821 849.0387182910548,445.6757027917783 850.6675567423232,446.6597099320354 852.2963951935915,459.90429912567953 853.9252336448598,466.88257408716925 855.5540720961282,458.1514975334124 857.1829105473965,436.2965565546888 858.8117489986649,452.068166672651 860.4405874499332,455.74524628394136 862.0694259012016,467.1068398102966 863.69826435247,422.5352390518479 865.3271028037383,401.1479658651001 866.9559412550067,374.31613027294856 868.5847797062751,351.97711348047477 870.2136181575434,368.2947960544727 871.8424566088117,355.1000266031915 873.4712950600801,349.60959497746444 875.1001335113484,351.56298214709255 876.7289719626168,322.02704022417 878.3578104138852,321.63459972046854 879.9866488651535,337.4879131568862 881.6154873164219,310.9270761626324 883.2443257676903,300.3127053405433 884.8731642189587,305.6983094378038 886.502002670227,287.2052975379296 888.1308411214953,274.7116881882647 889.7596795727636,272.38306161534683 891.388518024032,302.757100580764 893.0173564753004,282.21064939840016 894.6461949265688,280.7224488770111 896.2750333778372,266.4037600994002 897.9038718291054,295.96878315335596 899.5327102803737,308.176266521408 901.1615487316421,322.7680619062012 902.7903871829105,305.4656521728666 904.4192256341789,318.8359428607449 906.0480640854473,316.00423622176476 907.6769025367157,322.49993300174816 909.3057409879839,319.68528398240375 910.9345794392523,298.602404094604 912.5634178905207,296.67217257480485 914.1922563417891,313.263897724779 915.8210947930575,329.79494227502914 917.4499332443258,322.71492169568364 919.0787716955941,331.3727839649765 920.7076101468624,302.04846355978384 922.3364485981308,294.2144445757163 923.9652870493992,314.9631868379164 925.5941255006676,299.2446513576891 927.222963951936,302.38978094202884 928.8518024032043,302.3082435678712 930.4806408544727,315.85251604836384 932.1094793057409,317.57093252757466 933.7383177570093,306.9454083465663 935.3671562082777,345.06166844106906 936.9959946595461,354.85721936488267 938.6248331108144,360.3851028868794 940.2536715620828,364.8936829345937 941.8825100133512,360.8005439625332 943.5113484646195,353.3936972930105 945.1401869158879,355.10805162481205 946.7690253671561,363.49764384895803 948.3978638184245,363.5098239126392 950.0267022696929,352.3794166980208 951.6555407209613,353.00506354672945 953.2843791722297,385.53570066902114 954.913217623498,415.479057962981 956.5420560747663,424.45693852479525 958.1708945260347,379.88813855434483 959.799732977303,426.16884934151585 961.4285714285714,418.4387775728942 963.0574098798398,424.69785395128827 964.6862483311082,472.7633113156459 966.3150867823764,459.3900217340443 967.9439252336448,458.43541023460864 969.5727636849132,463.65393879702236 971.2016021361816,458.33255642991696 972.83044058745,449.83811899533515 974.4592790387184,450.67483962955515 976.0881174899868,432.36489056570326 977.7169559412549,441.9456800232563 979.3457943925233,459.7926711566283 980.9746328437917,473.9316202778057 982.6034712950601,457.2133332012734 984.2323097463285,471.61297934980047 985.8611481975969,472.47738997176134 987.4899866488652,512.0257282845874 989.1188251001334,491.1032425629953 990.7476635514018,503.0697563157483 992.3765020026702,498.4827970474005 994.0053404539386,499.74204324953683 995.6341789052069,498.095486458677 997.2630173564753,494.15742151504014 998.8918558077437,494.2910426131059 1000.520694259012,455.7998763243062 1002.1495327102804,455.4388453124367 1003.7783711615488,456.2535057623529 1005.407209612817,454.60231337590824 1007.0360480640854,445.5287843554283 1008.6648865153538,447.27595298056957 1010.2937249666222,450.98465764812795 1011.9225634178905,448.16443632701515 1013.5514018691589,369.2051842842562 1015.1802403204272,345.3840684436661 1016.8090787716956,324.10101088926166 1018.437917222964,341.5897284914554 1020.0667556742324,352.0350160319647 1021.6955941255007,341.0725360617051 1023.324432576769,331.1546678466467 1024.9532710280373,338.37479133691886 1026.5821094793057,332.1861296947225 1028.210947930574,318.15333048898276 1029.8397863818425,327.86509012005445 1031.4686248331109,342.6463135903622 1033.0974632843793,330.1875016892204 1034.7263017356474,332.1754790400357 1036.3551401869158,349.6554198883678 1037.9839786381842,343.0989879188673 1039.6128170894526,295.98096342544903 1041.241655540721,326.04913530913103 1042.8704939919894,340.90859034204817 1044.4993324432578,336.8312022895368 1046.128170894526,342.6735916217043 1047.7570093457944,360.6567024982475 1049.3858477970628,387.66108380217344 1051.0146862483311,350.34867297246154 1052.6435246995995,353.02464138209024 1054.272363150868,349.9373084122584 1055.901201602136,343.9125744676638 1057.5300400534045,330.0327952740186 1059.1588785046729,339.53544189012524 1060.7877169559413,329.50922126483545 1062.4165554072097,324.0595002309154 1064.0453938584778,268.8515337982775 1065.6742323097465,267.2823507747639 1067.3030707610146,254.16387832807118 1068.931909212283,210.46806400280377 1070.5607476635514,189.63095755483482 1072.1895861148198,166.2531945729496 1073.8184245660882,163.02544102777767 1075.4472630173564,169.70865888795947 1077.076101468625,167.0707210721456 1078.7049399198931,161.77793401698978 1080.3337783711615,161.2130947277459 1081.96261682243,195.11787854985653 1083.591455273698,192.71509421525343 1085.2202937249667,184.1099523987582 1086.849132176235,156.47669524540925 1088.4779706275035,133.04856868863556 1090.1068090787717,132.13539050549787 1091.7356475300398,90.0 1093.3644859813085,119.0142552751721 1094.9933244325766,116.90356528050359 1096.6221628838452,148.23053136297244 1098.2510013351134,140.02809877384846 1099.879839786382,103.29134378247397 1101.5086782376502,134.13260404760342 1103.1375166889184,125.17455012676203 1104.766355140187,137.66658055180733 1106.3951935914552,136.18763166523547 1108.0240320427238,134.84542760306647 1109.652870493992,137.14793262011813 1111.2817089452606,139.20676680617555 1112.9105473965287,134.62289147245872 1114.5393858477971,129.3213192784914 1116.1682242990653,107.26147492572522 1117.7970627503337,114.0061881171373 1119.425901201602,116.75572487991917 1121.0547396528705,111.97619126860809 1122.6835781041389,119.4416128457367 1124.3124165554073,138.12611783502223 1125.9412550066754,139.56130579867545 1127.5700934579438,151.28827811230235 1129.1989319092122,141.7797584909456 1130.8277703604806,138.62991984555845 1132.456608811749,110.89822051934777 1134.0854472630174,107.81227708615347 1135.7142857142856,94.29615030963953 1137.343124165554,104.49747820464927 1138.9719626168223,155.88842347535422 1140.6008010680907,136.1607164087294 1142.2296395193591,140.94529470101986 1143.8584779706275,160.69686236604366 1145.487316421896,162.56766864340125 1147.116154873164,152.20287446504346 1148.7449933244325,166.55123309971873 1150.3738317757009,153.5729421175712 1152.0026702269693,135.260739728845 1153.6315086782377,147.8880675902475 1155.260347129506,165.79011342707224 1156.8891855807744,158.83567015838707 1158.5180240320426,180.50731137614605 1160.146862483311,195.95206039317634 1161.7757009345794,196.47243748060987 1163.4045393858478,184.553791932139 1165.0333778371162,198.37826835225218 1166.6622162883846,217.31526724746294 1168.291054739653,229.91282110419303 1169.9198931909211,246.58544502879994 1171.5487316421895,248.2966093713332 1173.177570093458,280.9076062862162 1174.8064085447263,274.26029069149183 1176.4352469959947,261.2324180908446 1178.064085447263,247.4694159891891 1179.6929238985315,250.57966955523182 1181.3217623497997,277.2120144666475 1182.950600801068,226.78864259018985 1184.5794392523364,251.3648746253537 1186.2082777036048,245.31632491998533 1187.8371161548732,216.49581587624004 1189.4659546061416,224.12526986493936 1191.09479305741,241.0885001903962 1192.7236315086782,264.66629905773476 1194.3524699599466,277.05867522256864 1195.981308411215,258.69891647952954 1197.6101468624834,255.1052959925916 1199.2389853137518,261.84529811576493 1200.8678237650201,268.08179522896046 1202.4966622162885,262.31136113596614 1204.1255006675567,265.30008128162615 1205.754339118825,261.26061320715024 1207.3831775700935,240.12621662939887 1209.012016021362,234.40610094925393 1210.6408544726303,214.42295643760866 1212.2696929238987,239.26043767578716 1213.898531375167,242.98661891078962 1215.5273698264352,239.97165044103332 1217.1562082777036,200.35913539305966 1218.785046728972,209.75320907518972 1220.4138851802404,215.86284280117883 1222.0427236315088,261.98629668126887 1223.671562082777,257.7285729980872 1225.3004005340454,258.78904969142326 1226.9292389853138,263.0576844904291 1228.5580774365822,253.22178228982506 1230.1869158878505,295.00323298649 1231.815754339119,355.43517141403146 1233.444592790387,362.4954658280441 1235.0734312416555,438.6445956898915 1236.702269692924,393.59044787993946 1238.3311081441923,389.37309638501745 1239.9599465954607,415.8580235033013 1241.588785046729,398.7519449408566 1243.2176234979972,408.25818594857236 1244.8464619492656,408.8699430455605 1246.475300400534,415.2088511816233 1248.1041388518024,409.6149491714712 1249.7329773030708,432.5795470296967 1251.3618157543392,399.3150489768123 1252.9906542056074,420.4382802673064 1254.6194926568758,419.4827596011684 1256.2483311081442,407.3230678060806 1257.8771695594126,389.58507506886883 1259.506008010681,411.84387753164094 1261.134846461949,405.8261978675341 1262.7636849132175,393.9190976020921 1264.392523364486,387.0591942073664 1266.0213618157543,371.6463243162266 1267.6502002670227,351.9635791420754 1269.279038718291,384.6161242581894 1270.9078771695592,393.7834246207571 1272.5367156208276,380.3270710592541 1274.165554072096,377.19761261749215 1275.7943925233644,412.00404128039065 1277.4232309746328,414.12913626760104 1279.0520694259012,393.42458101802544 1280.6809078771696,402.7240740446623 1282.3097463284378,400.6102926647516 1283.9385847797062,391.19253166087077 1285.5674232309746,375.0393228719869 1287.196261682243,362.9884241858314 1288.8251001335113,375.7770794964806 1290.4539385847797,350.4270676608807 1292.0827770360481,344.6697155591475 1293.7116154873163,342.7299087723265 1295.3404539385847,346.7455816093027 1296.969292389853,332.9370077811009 1298.5981308411215,342.13998709682494 1300.2269692923899,332.1976884333874 1301.8558077436583,348.52414133920917 1303.4846461949267,352.44545706642145 1305.1134846461948,338.58407802951297 1306.7423230974632,331.6978530023664 1308.3711615487316,326.8003142811385 1310.0,335.57062593689784" fill="none" stroke="#9333ea" stroke-width="2.5"><title>budgeted_drawdown_tilt_rebalance | end=2026-05-08 | return=69.58%</title></polyline>
<polyline points="90.0,545.3983574736186 91.62883845126836,545.2973582848906 93.25767690253672,545.7932830334654 94.88651535380507,547.2115791566166 96.51535380507343,547.3820079096729 98.1441922563418,551.3264580339668 99.77303070761015,548.8904386098628 101.4018691588785,550.2128541267706 103.03070761014686,551.7623973615745 104.65954606141523,547.9983512633039 106.28838451268358,551.1129555857771 107.91722296395193,553.517608835817 109.5460614152203,550.5552433112839 111.17489986648866,554.9900716711127 112.80373831775701,557.8065347208005 114.43257676902536,557.9112662483335 116.06141522029372,560.7632338564363 117.69025367156209,564.6536689537448 119.31909212283044,570.5829118813881 120.94793057409879,597.7804282668205 122.57676902536716,605.8097494465347 124.20560747663552,607.1509321107513 125.83444592790387,595.3245342846099 127.46328437917222,600.2837610612388 129.0921228304406,603.250329078661 130.72096128170895,607.9603392272015 132.34979973297732,609.1983430603017 133.97863818424565,608.7477603500159 135.60747663551402,619.8834890089141 137.23631508678238,613.6584439272779 138.86515353805072,600.4368387767797 140.49399198931908,609.2846826620133 142.12283044058745,612.4944756514512 143.75166889185581,605.031230064797 145.38050734312418,611.7347259697267 147.00934579439252,620.510742235635 148.63818424566088,637.913659543478 150.26702269692925,662.2747315474882 151.89586114819758,673.7555235503836 153.52469959946595,681.6029175140491 155.1535380507343,670.9321752626126 156.78237650200265,675.877196674481 158.41121495327104,664.932786996186 160.04005340453938,666.6386051970072 161.66889185580774,671.4417649144827 163.2977303070761,675.0486463269948 164.92656875834444,677.989085780858 166.55540720961284,671.3274716014868 168.18424566088117,668.8266182406207 169.8130841121495,664.0341162455885 171.4419225634179,668.3533472249344 173.07076101468624,678.7238824861752 174.6995994659546,668.4441774328031 176.32843791722297,660.2977073287468 177.9572763684913,647.5986586885289 179.5861148197597,646.8299932919037 181.21495327102804,648.2998528060542 182.84379172229637,646.4359890437236 184.47263017356477,656.6289308120384 186.1014686248331,637.1863632654877 187.73030707610147,638.9074281388257 189.35914552736983,642.716834316319 190.98798397863817,644.7895023087872 192.61682242990653,638.702391184727 194.2456608811749,640.5446108400906 195.87449933244326,640.5081007966414 197.50333778371163,631.1943675121345 199.13217623497997,625.5667050805782 200.76101468624836,629.9708686204611 202.3898531375167,635.0805224414183 204.01869158878503,652.4156578644962 205.6475300400534,649.5907994942096 207.27636849132176,647.8112818045836 208.90520694259013,646.6249380900841 210.5340453938585,659.5890437486245 212.16288384512683,656.4844188693022 213.7917222963952,657.2700214834246 215.42056074766356,656.8282148272831 217.0493991989319,656.5207071657815 218.67823765020026,661.6654255414663 220.30707610146862,656.9558722885389 221.935914552737,643.4175631820792 223.56475300400533,642.7799097978176 225.1935914552737,653.527423472929 226.82242990654206,662.5336738076579 228.45126835781042,667.5230923795718 230.08010680907879,669.9280065549682 231.70894526034712,667.8835338471541 233.3377837116155,669.960417106928 234.96662216288385,668.146367178266 236.5954606141522,667.4632630064473 238.22429906542055,667.7014512990567 239.85313751668892,670.9233934579813 241.48197596795728,663.147804402376 243.11081441922565,664.8885640940041 244.73965287049398,668.2061354378029 246.36849132176235,670.1817613221922 247.9973297730307,669.9426693775154 249.62616822429905,669.7884990541731 251.25500667556742,669.1221002961279 252.88384512683578,668.7155534524189 254.51268357810414,670.7819122577401 256.1415220293725,669.0396543045235 257.7703604806409,667.5152765672646 259.3991989319092,654.1687520179681 261.02803738317755,655.2347626599724 262.65687583444594,653.807443757936 264.2857142857143,654.817255499471 265.9145527369826,657.5323871587564 267.543391188251,650.054495679201 269.1722296395194,654.760925968874 270.8010680907877,688.9011054928114 272.4299065420561,678.0857634310514 274.05874499332447,683.0725381901751 275.68758344459275,679.7975118841019 277.31642189586114,682.4145990253153 278.94526034712953,681.8003703659862 280.57409879839787,689.1640311171224 282.2029372496662,683.3325842867482 283.8317757009346,683.0614889043151 285.46061415220294,683.5879242810092 287.0894526034713,682.7018346298761 288.71829105473967,678.5276277789212 290.347129506008,680.1516091872356 291.97596795727634,679.2044081314746 293.60480640854473,680.6677419313237 295.23364485981307,678.4692443420645 296.86248331108146,678.6358814175015 298.4913217623498,674.0389837093419 300.1201602136182,677.511763427195 301.7489986648865,682.4922791412223 303.37783711615486,684.4475241641985 305.00667556742326,681.3644925241434 306.63551401869154,681.3189464532692 308.26435246995993,681.1861534889272 309.8931909212283,681.9291067187978 311.5220293724967,682.5968110106544 313.150867823765,683.1142030324385 314.7797062750334,681.9471224544569 316.4085447263017,679.7529323177674 318.03738317757006,678.9215152049906 319.66622162883846,677.5108714329331 321.2950600801068,674.694414692323 322.9238985313752,666.6525280155522 324.5527369826435,654.0976983715856 326.18157543391186,652.2853119652843 327.81041388518025,656.5518519626743 329.4392523364486,643.9256549622839 331.068090787717,644.8626884703519 332.6969292389853,647.7533668152737 334.32576769025366,644.7555394609308 335.95460614152205,645.7325999839626 337.5834445927904,646.6565221877054 339.2122830440587,640.62375474058 340.8411214953271,640.9422300983841 342.4699599465955,644.0007148921735 344.0987983978638,641.3559765382554 345.7276368491322,651.1840811359536 347.3564753004005,651.1961489609271 348.98531375166885,652.6494595700293 350.61415220293725,637.2695673530051 352.2429906542056,635.6559698107139 353.871829105474,637.2496633216771 355.5006675567423,637.3604870664568 357.12950600801065,639.5565246122684 358.75834445927904,644.4500991874628 360.3871829105474,641.84160275649 362.0160213618158,640.1652241786239 363.6448598130841,648.2797065911669 365.2736982643525,648.1794302445053 366.90253671562084,649.1477199516963 368.5313751668892,660.3355189279422 370.16021361815757,657.7325722321956 371.7890520694259,637.4116728974024 373.41789052069424,637.7497218563957 375.04672897196264,621.5631629122142 376.675567423231,619.6345561781662 378.3044058744993,618.3214445613123 379.9332443257677,617.4181553411531 381.56208277703604,623.2453361901596 383.1909212283044,625.498026886047 384.81975967957277,618.2673767184044 386.4485981308411,616.8111368445186 388.07743658210944,618.820842584848 389.70627503337784,616.0966853859082 391.3351134846462,616.4870034726002 392.96395193591457,617.6747646139536 394.5927903871829,609.248796334799 396.2216288384513,608.0517235383809 397.8504672897196,599.2986174906471 399.47930574098797,599.2464471760604 401.10814419225636,599.5615769907795 402.7369826435247,613.2427086910421 404.36582109479303,617.290379191276 405.9946595460614,619.5797719555918 407.62349799732976,615.3655709884788 409.2523364485981,611.1004917753457 410.8811748998665,612.2241385375356 412.51001335113483,614.2589159847116 414.1388518024032,613.3836221018795 415.76769025367156,612.416037138677 417.3965287049399,618.6713943385759 419.0253671562083,619.1713990935141 420.6542056074766,623.3826050281294 422.28304405874496,623.2424164487754 423.91188251001336,621.9570002482582 425.54072096128175,623.6208082175918 427.16955941255003,621.8497303251276 428.7983978638184,622.8739271760281 430.4272363150868,625.4727089947246 432.0560747663551,622.9972175681283 433.6849132176235,615.1223733586427 435.3137516688919,616.7669649573526 436.9425901201602,621.3498807907373 438.57142857142856,619.3459693352754 440.20026702269695,627.1726057772863 441.8291054739653,624.1941040132511 443.4579439252336,623.4080583622648 445.086782376502,628.8202134058149 446.71562082777035,629.3766917536444 448.34445927903874,633.5998603473034 449.9732977303071,627.7675369405491 451.6021361815754,626.1899944472696 453.2309746328438,608.7002316531584 454.85981308411215,605.9467832218783 456.4886515353805,606.5361925603263 458.1174899866489,606.1346016446134 459.74632843791727,608.5265517487384 461.37516688918555,605.1896440403057 463.00400534045394,601.8585753886031 464.63284379172234,606.0587003111134 466.2616822429906,608.1320141448151 467.890520694259,609.1111295095398 469.5193591455274,606.8300175724121 471.14819759679574,598.7620596240996 472.7770360480641,605.9245448176835 474.40587449933247,607.3063272512213 476.0347129506008,609.0183425175686 477.66355140186914,608.9250505026369 479.29238985313754,608.421408379008 480.9212283044059,612.7684971119126 482.5500667556742,612.664512614643 484.1789052069426,611.374494551271 485.80774365821094,612.7985686028595 487.43658210947933,613.7102030481351 489.06542056074767,614.4851975582803 490.694259012016,614.6100768199485 492.3230974632844,610.8471629105891 493.9519359145527,612.3152820557171 495.58077436582107,612.391599910624 497.20961281708946,612.6325587240019 498.83845126835786,616.7079512156962 500.46728971962614,632.009194461281 502.09612817089453,630.5580033045115 503.7249666221629,633.0954436467625 505.3538050734312,631.6329241207357 506.9826435246996,632.74626448163 508.611481975968,632.1903917118611 510.2403204272363,625.7058269104632 511.86915887850466,634.2253661638384 513.497997329773,633.3055451485935 515.1268357810413,634.0539145667481 516.7556742323097,631.729053250727 518.3845126835781,633.588782170204 520.0133511348465,639.5879883839689 521.6421895861149,633.4540640211851 523.2710280373831,630.7755647696656 524.8998664886515,631.7674292835707 526.5287049399199,628.4664507261324 528.1575433911883,633.1734326337696 529.7863818424566,632.7268587893278 531.415220293725,633.9978683584012 533.0440587449934,633.3856728817271 534.6728971962616,628.6584966035996 536.30173564753,622.1016458990267 537.9305740987984,627.1628920708054 539.5594125500668,628.9968169948747 541.1882510013352,626.0434735063021 542.8170894526035,629.5635572439785 544.4459279038718,632.7471006734426 546.0747663551401,633.3331924005357 547.7036048064085,631.9250600836506 549.3324432576769,627.1918514392285 550.9612817089453,625.9157651852129 552.5901201602136,619.159443774678 554.218958611482,602.2812601012356 555.8477970627504,596.2823487727337 557.4766355140187,598.77153631035 559.105473965287,595.8599754430359 560.7343124165554,594.6554923603546 562.3631508678237,594.1293729354433 563.9919893190921,591.4378081781515 565.6208277703605,589.7949206207833 567.2496662216289,588.1889050173834 568.8785046728972,574.6138288778282 570.5073431241656,576.7577851543786 572.136181575434,584.9387544357694 573.7650200267022,583.429532340675 575.3938584779706,581.7726240716884 577.0226969292389,576.2618741820537 578.6515353805073,574.8255280872312 580.2803738317757,572.9232474128744 581.9092122830441,574.7188243434043 583.5380507343125,573.901820632564 585.1668891855808,574.1298937917634 586.795727636849,563.3552696725679 588.4245660881174,551.1866328971427 590.0534045393858,545.1384145773652 591.6822429906542,538.6505217518736 593.3110814419226,540.3428920171327 594.939919893191,554.6004627092807 596.5687583444592,544.5407010510269 598.1975967957276,550.8731611193288 599.826435246996,549.7199300440707 601.4552736982644,546.6808945795118 603.0841121495326,540.5850914555665 604.712950600801,546.5308626200144 606.3417890520694,549.7102104988601 607.9706275033377,545.0026311814933 609.5994659546061,548.6918628160811 611.2283044058745,538.8118824738358 612.8571428571428,549.2622046948288 614.4859813084112,542.1709155358502 616.1148197596796,544.8853159388237 617.743658210948,532.3275916149568 619.3724966622162,520.8276770547991 621.0013351134846,534.7296788699871 622.630173564753,538.763721027246 624.2590120160213,537.159116352505 625.8878504672897,542.5393201661522 627.5166889185581,544.2073564672581 629.1455273698265,558.7326838934414 630.7743658210948,559.5726664166893 632.4032042723632,549.9263228296177 634.0320427236315,543.770465809053 635.6608811748998,547.9095950882538 637.2897196261682,544.625451106118 638.9185580774366,547.5179377620268 640.547396528705,542.0438729280912 642.1762349799733,532.5897743673443 643.8050734312417,520.8008076217568 645.4339118825101,506.4573619875498 647.0627503337784,494.91598349514766 648.6915887850467,492.73897720126325 650.3204272363151,489.306976855889 651.9492656875835,482.9880284362862 653.5781041388518,488.33415969857964 655.2069425901202,486.3115087833989 656.8357810413885,468.23110115301415 658.4646194926569,433.1359067112376 660.0934579439253,431.1202560120812 661.7222963951936,426.40191897395323 663.351134846462,421.156366064673 664.9799732977303,396.31606935965357 666.6088117489986,389.7575937976596 668.237650200267,371.27800014462986 669.8664886515354,371.0077510472366 671.4953271028037,394.76043266982083 673.1241655540721,403.29693156915516 674.7530040053405,446.4478553182089 676.3818424566088,419.19980147831774 678.0106809078771,431.5374530023335 679.6395193591455,400.7431974873143 681.2683578104138,406.56229357376117 682.8971962616822,404.5792132927618 684.5260347129506,393.95024485526517 686.1548731642189,429.5423256190563 687.7837116154873,417.8293945079022 689.4125500667557,415.4922935157828 691.0413885180241,390.53172093669787 692.6702269692923,400.7306183232277 694.2990654205607,426.02153969785877 695.9279038718291,434.1715164147548 697.5567423230974,443.7445278509051 699.1855807743658,445.6102029111713 700.8144192256342,436.7242920252158 702.4432576769026,428.73604558335916 704.072096128171,439.8017315404887 705.7009345794391,441.8193581479794 707.3297730307075,437.41053934978856 708.9586114819759,457.17815805671967 710.5874499332443,463.18285781758243 712.2162883845127,441.92726710590074 713.8451268357811,446.8492440953841 715.4739652870494,457.33656843123595 717.1028037383177,461.5647987970481 718.7316421895861,458.6239864935408 720.3604806408545,460.6298773690296 721.9893190921229,446.0268297379764 723.6181575433912,432.2573993414398 725.2469959946595,392.4754426496967 726.8758344459279,396.1229116518911 728.5046728971962,398.29156412663315 730.1335113484646,394.0132367632543 731.762349799733,393.73870900621944 733.3911882510014,398.02820531420366 735.0200267022697,396.9794152568055 736.648865153538,395.66657851675967 738.2777036048064,383.66671431378046 739.9065420560747,398.0380733690773 741.5353805073431,395.6856928538061 743.1642189586115,412.4931248974329 744.7930574098798,415.70773043962487 746.4218958611482,412.9451712598854 748.0507343124166,414.6311855498167 749.679572763685,417.12470212899154 751.3084112149533,421.6683312118892 752.9372496662215,429.2592393885883 754.5660881174899,434.74077870707 756.1949265687583,432.7460949361707 757.8237650200267,438.5271459964921 759.4526034712951,429.33128219272106 761.0814419225635,444.79093442645 762.7102803738317,470.7384443549445 764.3391188251001,475.6503197368463 765.9679572763685,462.2522371906562 767.5967957276368,462.84052717301176 769.2256341789052,453.242878086004 770.8544726301736,421.06910081099716 772.483311081442,427.925940283593 774.1121495327102,414.11630836768165 775.7409879839786,408.1475971399101 777.369826435247,417.513083882239 778.9986648865154,433.43814207047353 780.6275033377838,423.36647475245496 782.2563417890522,423.3194579642017 783.8851802403204,434.10628602733277 785.5140186915887,456.0253256454903 787.1428571428571,480.8195287636737 788.7716955941255,498.40106566150973 790.4005340453939,470.33822783012556 792.0293724966623,476.308774923828 793.6582109479306,475.3962921888153 795.287049399199,480.4789071875509 796.9158878504672,483.29415574230904 798.5447263017356,483.6963023770739 800.173564753004,483.9483408695087 801.8024032042723,477.3299906229585 803.4312416555407,458.631798264912 805.0600801068091,467.07833232354767 806.6889185580775,486.0992248930871 808.3177570093458,486.03773280947587 809.9465954606142,496.48884352946305 811.5754339118824,496.06594593916213 813.2042723631508,502.8306061998318 814.8331108144192,513.5945661877463 816.4619492656876,500.5273672933864 818.090787716956,500.61321196940446 819.7196261682243,486.00477313135787 821.3484646194926,496.52086929145975 822.977303070761,491.6601068285605 824.6061415220294,477.5090523460162 826.2349799732978,468.90541609068146 827.8638184245661,467.2920478001265 829.4926568758345,471.30311523584226 831.1214953271027,457.5029433029754 832.7503337783711,459.95136808695435 834.3791722296395,484.9343474911245 836.0080106809079,489.96848811041184 837.6368491321763,482.8112912338529 839.2656875834447,482.0045722934374 840.8945260347131,489.52999091509827 842.5233644859812,480.1916278366955 844.1522029372496,477.7615135473717 845.781041388518,458.1574867125994 847.4098798397864,457.20719530486394 849.0387182910548,452.16259931537854 850.6675567423232,454.3411470150617 852.2963951935915,463.7752569128158 853.9252336448598,468.19927130855666 855.5540720961282,460.6171918568625 857.1829105473965,439.5956793605634 858.8117489986649,453.3472128916799 860.4405874499332,456.9369915699751 862.0694259012016,466.43088098827866 863.69826435247,426.4947945945891 865.3271028037383,411.69510038472134 866.9559412550067,388.9696853523628 868.5847797062751,363.0924542496535 870.2136181575434,374.62386984386575 871.8424566088117,360.9654701966467 873.4712950600801,357.54960507525936 875.1001335113484,352.8139640786911 876.7289719626168,325.89842003032635 878.3578104138852,327.20800069534096 879.9866488651535,347.57742548386824 881.6154873164219,323.5504921641312 883.2443257676903,314.7971016066817 884.8731642189587,319.6673939095631 886.502002670227,301.25089487155293 888.1308411214953,289.9007936469903 889.7596795727636,286.0041538304695 891.388518024032,318.10200322982354 893.0173564753004,295.65141239609716 894.6461949265688,292.34317830451596 896.2750333778372,272.83345216529057 897.9038718291054,307.99442217841334 899.5327102803737,322.5746099206077 901.1615487316421,339.9487092196882 902.7903871829105,318.9712536518233 904.4192256341789,335.56970716673436 906.0480640854473,333.64637529650093 907.6769025367157,343.0086684339548 909.3057409879839,338.086917583708 910.9345794392523,314.20210169313975 912.5634178905207,312.17524916538537 914.1922563417891,329.26757348857706 915.8210947930575,350.1365906063494 917.4499332443258,341.0977523443478 919.0787716955941,348.8729647097868 920.7076101468624,315.0627078823989 922.3364485981308,303.5394044572829 923.9652870493992,325.82264722346787 925.5941255006676,305.45067831413394 927.222963951936,311.18164063122015 928.8518024032043,309.99684843661964 930.4806408544727,325.0059061358981 932.1094793057409,323.9231813709209 933.7383177570093,317.5868759945409 935.3671562082777,354.4778813134663 936.9959946595461,361.6120641891676 938.6248331108144,367.5521391344677 940.2536715620828,370.76972126486595 941.8825100133512,366.42986205557906 943.5113484646195,361.0660833513434 945.1401869158879,362.7367241614732 946.7690253671561,370.20757604209524 948.3978638184245,371.1671686344734 950.0267022696929,359.6871097052936 951.6555407209613,363.3419275411848 953.2843791722297,391.3533666007494 954.913217623498,422.1720114588616 956.5420560747663,426.903380497255 958.1708945260347,383.26306141472276 959.799732977303,422.09067666672456 961.4285714285714,412.7942686888158 963.0574098798398,423.30212995199935 964.6862483311082,463.4977992408431 966.3150867823764,446.59993955749417 967.9439252336448,445.48640892952716 969.5727636849132,450.86276575586487 971.2016021361816,448.0557126638103 972.83044058745,441.0430556991327 974.4592790387184,442.10965519218786 976.0881174899868,426.17727822291863 977.7169559412549,431.7883857278624 979.3457943925233,445.18750169388017 980.9746328437917,455.7096636357462 982.6034712950601,442.4654075528517 984.2323097463285,452.96300117622445 985.8611481975969,452.6576748453191 987.4899866488652,478.77119026094215 989.1188251001334,462.6176167978483 990.7476635514018,466.0050354814532 992.3765020026702,463.32131451915177 994.0053404539386,464.0718244314904 995.6341789052069,460.55392226190025 997.2630173564753,458.65180096532504 998.8918558077437,453.5231897245663 1000.520694259012,424.095366285067 1002.1495327102804,421.8921559092511 1003.7783711615488,424.2028753274593 1005.407209612817,422.4663989799746 1007.0360480640854,413.8598803158607 1008.6648865153538,416.0037164022451 1010.2937249666222,419.9582065674973 1011.9225634178905,413.8425760929023 1013.5514018691589,367.944078483043 1015.1802403204272,355.4487346183719 1016.8090787716956,346.4769466846412 1018.437917222964,354.5908910257016 1020.0667556742324,360.32593381633194 1021.6955941255007,350.49554426365717 1023.324432576769,337.6561510504353 1024.9532710280373,345.7260363739518 1026.5821094793057,339.4707161312838 1028.210947930574,333.6948675063513 1029.8397863818425,345.01175492248973 1031.4686248331109,353.2159451476164 1033.0974632843793,345.28804986175453 1034.7263017356474,348.56736935722637 1036.3551401869158,356.70040712080095 1037.9839786381842,350.99467536401545 1039.6128170894526,321.5330441417177 1041.241655540721,343.9304729325503 1042.8704939919894,350.7457662333432 1044.4993324432578,346.0834003418263 1046.128170894526,352.6559411365765 1047.7570093457944,363.6339127399111 1049.3858477970628,379.95286957790614 1051.0146862483311,353.2998994908803 1052.6435246995995,352.54678499974295 1054.272363150868,350.55985553413643 1055.901201602136,348.3954734973692 1057.5300400534045,338.9013610682968 1059.1588785046729,344.73499831829804 1060.7877169559413,337.98180439620586 1062.4165554072097,336.23171420693956 1064.0453938584778,297.9356955752592 1065.6742323097465,294.21916551424977 1067.3030707610146,283.6142310263762 1068.931909212283,267.44008176094474 1070.5607476635514,259.69433824137536 1072.1895861148198,250.2909430463842 1073.8184245660882,243.44016888316747 1075.4472630173564,250.1063418225093 1077.076101468625,249.20774411004442 1078.7049399198931,245.54631818257093 1080.3337783711615,245.4858306674181 1081.96261682243,277.54818091251497 1083.591455273698,274.42228677178474 1085.2202937249667,267.10941957558583 1086.849132176235,238.9332426418444 1088.4779706275035,218.1831332008107 1090.1068090787717,215.3412768337426 1091.7356475300398,169.53220232672663 1093.3644859813085,203.93133670775887 1094.9933244325766,201.66549165089032 1096.6221628838452,238.62699085678452 1098.2510013351134,229.90513560534094 1099.879839786382,187.35734340372073 1101.5086782376502,225.56397550889625 1103.1375166889184,214.57773575611157 1104.766355140187,230.80234336302635 1106.3951935914552,229.112380018922 1108.0240320427238,225.97725468837052 1109.652870493992,229.01917408607818 1111.2817089452606,231.76067253047853 1112.9105473965287,225.3076040163411 1114.5393858477971,217.96174105453156 1116.1682242990653,190.12243485077397 1117.7970627503337,198.77955994082777 1119.425901201602,201.54751060022699 1121.0547396528705,195.49407979087437 1122.6835781041389,205.3552963780345 1124.3124165554073,229.8629785856678 1125.9412550066754,231.41711137719943 1127.5700934579438,247.55201184659848 1129.1989319092122,234.78147113395852 1130.8277703604806,230.1776203677531 1132.456608811749,193.19104986808338 1134.0854472630174,188.69632731175113 1135.7142857142856,171.05334879480574 1137.343124165554,184.248544477402 1138.9719626168223,251.80142823573567 1140.6008010680907,226.44981055342276 1142.2296395193591,233.04441585530918 1143.8584779706275,259.2126840237629 1145.487316421896,261.8188865274632 1147.116154873164,248.01283671520747 1148.7449933244325,266.4904290619734 1150.3738317757009,249.55536054046405 1152.0026702269693,226.20031726555032 1153.6315086782377,242.13058634015613 1155.260347129506,264.80926929755583 1156.8891855807744,255.97938881501557 1158.5180240320426,283.11045759071186 1160.146862483311,302.0180607860334 1161.7757009345794,302.72694336024387 1163.4045393858478,288.94663391373865 1165.0333778371162,304.5811733896576 1166.6622162883846,325.7234685689402 1168.291054739653,339.8506962873901 1169.9198931909211,357.72674980553376 1171.5487316421895,359.5849647576651 1173.177570093458,392.91802892023486 1174.8064085447263,386.17665166571277 1176.4352469959947,373.98224278884766 1178.064085447263,360.5057377799591 1179.6929238985315,363.3848203985114 1181.3217623497997,387.6290756721928 1182.950600801068,343.1975375972547 1184.5794392523364,364.6659522438847 1186.2082777036048,359.4653360091954 1187.8371161548732,336.0311217633677 1189.4659546061416,342.04838741486265 1191.09479305741,356.04611278146876 1192.7236315086782,375.7114768279837 1194.3524699599466,385.43215491299134 1195.981308411215,370.7652324503963 1197.6101468624834,367.8272416945109 1199.2389853137518,373.406786264065 1200.8678237650201,378.2453448328182 1202.4966622162885,373.6381467084329 1204.1255006675567,376.167146429193 1205.754339118825,372.96460839638615 1207.3831775700935,356.04031042269946 1209.012016021362,351.12778845323095 1210.6408544726303,335.172203575647 1212.2696929238987,354.9552260050715 1213.898531375167,358.01205833152807 1215.5273698264352,355.4315320196441 1217.1562082777036,323.3272791098986 1218.785046728972,330.97224278739515 1220.4138851802404,336.2935161611413 1222.0427236315088,373.14466679587133 1223.671562082777,369.49758923758424 1225.3004005340454,370.4418545183148 1226.9292389853138,373.96281625843665 1228.5580774365822,366.2497568069108 1230.1869158878505,399.48162847914386 1231.815754339119,447.0212433067697 1233.444592790387,452.5958797697359 1235.0734312416555,511.72018060662106 1236.702269692924,477.97213756815955 1238.3311081441923,474.69501408814085 1239.9599465954607,493.5081603906548 1241.588785046729,481.7050189245373 1243.2176234979972,487.4854551223498 1244.8464619492656,488.86786474657254 1246.475300400534,493.0251513696632 1248.1041388518024,488.9462521911281 1249.7329773030708,505.08852898016096 1251.3618157543392,482.9447082715172 1252.9906542056074,496.97324489441485 1254.6194926568758,496.4871302833861 1256.2483311081442,487.3505443766768 1257.8771695594126,474.97448349715523 1259.506008010681,490.8430439801285 1261.134846461949,486.4007509143519 1262.7636849132175,478.0429763718564 1264.392523364486,473.45557813751554 1266.0213618157543,462.96495344654363 1267.6502002670227,450.60336959430975 1269.279038718291,472.7490724972878 1270.9078771695592,478.87238581203235 1272.5367156208276,469.51097671417233 1274.165554072096,467.356193309209 1275.7943925233644,491.4726402806701 1277.4232309746328,493.01760057377 1279.0520694259012,479.1939566200407 1280.6809078771696,485.62851702745763 1282.3097463284378,484.0954915984129 1283.9385847797062,477.4235143738251 1285.5674232309746,466.3162375748672 1287.196261682243,457.84412577051273 1288.8251001335113,466.9958148020314 1290.4539385847797,449.63184134629375 1292.0827770360481,445.5378421703882 1293.7116154873163,443.977688124644 1295.3404539385847,446.22527727783483 1296.969292389853,436.4184534318544 1298.5981308411215,442.345836525692 1300.2269692923899,435.6397212724568 1301.8558077436583,446.924832515244 1303.4846461949267,449.2220548745684 1305.1134846461948,439.35988276230927 1306.7423230974632,434.47116317133333 1308.3711615487316,430.43066790016786 1310.0,436.44095666768885" fill="none" stroke="#92400e" stroke-width="2.5"><title>budgeted_btc_defensive_eth_aggressive | end=2026-05-08 | return=36.13%</title></polyline>
</svg>