<svg xmlns="http://www.w3.org/2000/svg" width="1400" height="800">
<rect width="1400" height="800" fill="#f8fafc"/>
<text x="700.0" y="42" text-anchor="middle" font-family="monospace" font-size="24" fill="#0f172a">Portfolio Value Over Time | start=2024-01-01 | interval=5d</text>
<line x1="90" y1="710" x2="1310" y2="710" stroke="#334155" stroke-width="2"/>
<line x1="90" y1="90" x2="90" y2="710" stroke="#334155" stroke-width="2"/>
<line x1="90.0" y1="710" x2="90.0" y2="90" stroke="#cbd5e1" stroke-width="1"/>
<text x="90.0" y="734" text-anchor="middle" font-family="monospace" font-size="11" fill="#475569">2024-01-01</text>
<line x1="90" y1="710.0" x2="1310" y2="710.0" stroke="#cbd5e1" stroke-width="1"/>
<text x="78" y="714.0" text-anchor="end" font-family="monospace" font-size="12" fill="#475569">8487</text>
<line x1="334.0" y1="710" x2="334.0" y2="90" stroke="#cbd5e1" stroke-width="1"/>
<text x="334.0" y="734" text-anchor="middle" font-family="monospace" font-size="11" fill="#475569">2024-06-19</text>
<line x1="90" y1="586.0" x2="1310" y2="586.0" stroke="#cbd5e1" stroke-width="1"/>
<text x="78" y="590.0" text-anchor="end" font-family="monospace" font-size="12" fill="#475569">10739</text>
<line x1="578.0" y1="710" x2="578.0" y2="90" stroke="#cbd5e1" stroke-width="1"/>
<text x="578.0" y="734" text-anchor="middle" font-family="monospace" font-size="11" fill="#475569">2024-12-06</text>
<line x1="90" y1="462.00000000000006" x2="1310" y2="462.00000000000006" stroke="#cbd5e1" stroke-width="1"/>
<text x="78" y="466.00000000000006" text-anchor="end" font-family="monospace" font-size="12" fill="#475569">12991</text>
<line x1="822.0" y1="710" x2="822.0" y2="90" stroke="#cbd5e1" stroke-width="1"/>
<text x="822.0" y="734" text-anchor="middle" font-family="monospace" font-size="11" fill="#475569">2025-05-30</text>
<line x1="90" y1="338.0" x2="1310" y2="338.0" stroke="#cbd5e1" stroke-width="1"/>
<text x="78" y="342.0" text-anchor="end" font-family="monospace" font-size="12" fill="#475569">15243</text>
<line x1="1066.0" y1="710" x2="1066.0" y2="90" stroke="#cbd5e1" stroke-width="1"/>
<text x="1066.0" y="734" text-anchor="middle" font-family="monospace" font-size="11" fill="#475569">2025-11-16</text>
<line x1="90" y1="214.00000000000006" x2="1310" y2="214.00000000000006" stroke="#cbd5e1" stroke-width="1"/>
<text x="78" y="218.00000000000006" text-anchor="end" font-family="monospace" font-size="12" fill="#475569">17495</text>
<line x1="1310.0" y1="710" x2="1310.0" y2="90" stroke="#cbd5e1" stroke-width="1"/>
<text x="1310.0" y="734" text-anchor="middle" font-family="monospace" font-size="11" fill="#475569">2026-05-05</text>
<line x1="90" y1="90.0" x2="1310" y2="90.0" stroke="#cbd5e1" stroke-width="1"/>
<text x="78" y="94.0" text-anchor="end" font-family="monospace" font-size="12" fill="#475569">19746</text>
<text x="700.0" y="782" text-anchor="middle" font-family="monospace" font-size="16" fill="#0f172a">time</text>
<text x="24" y="400.0" transform="rotate(-90 24,400.0)" text-anchor="middle" font-family="monospace" font-size="16" fill="#0f172a">portfolio_value_usd</text>
<line x1="970" y1="80" x2="988" y2="80" stroke="#0f766e" stroke-width="3"/>
<text x="998" y="84" font-family="monospace" font-size="12" fill="#0f172a">budgeted_static_50_50_rebalance</text>
<line x1="970" y1="104" x2="988" y2="104" stroke="#9333ea" stroke-width="3"/>
<text x="998" y="108" font-family="monospace" font-size="12" fill="#0f172a">budgeted_drawdown_tilt_rebalance</text>
<line x1="970" y1="128" x2="988" y2="128" stroke="#92400e" stroke-width="3"/>
<text x="998" y="132" font-family="monospace" font-size="12" fill="#0f172a">budgeted_btc_defensive_eth_aggressive</text>
<polyline points="90.0,626.7085404660014 97.13450292397661,627.054114808382 104.26900584795321,624.1830021721361 111.40350877192982,625.8642156950134 118.53801169590643,628.2255691815993 125.67251461988303,630.5741059223416 132.80701754385964,629.6705466869026 139.94152046783626,629.2188111839879 147.07602339181287,618.481056275254 154.21052631578948,604.7354421935029 161.34502923976606,599.0685854056668 168.4795321637427,597.0830114898935 175.6140350877193,568.257971000985 182.7485380116959,548.5486077560493 189.8830409356725,528.2891199632727 197.01754385964912,562.3633632331794 204.15204678362574,562.9647255092829 211.28654970760232,548.9697108439548 218.42105263157893,543.4896859358068 225.55555555555554,566.248671478421 232.69005847953215,548.7562610504491 239.82456140350877,588.858279541166 246.95906432748538,582.0221872367889 254.093567251462,583.4774255111734 261.2280701754386,602.6162564231444 268.36257309941516,585.1822333765724 275.4970760233918,608.695947978118 282.63157894736844,583.4197359912521 289.766081871345,526.3811320402131 296.9005847953216,528.0704648218585 304.03508771929825,531.5891803284093 311.16959064327483,519.2168605827362 318.30409356725147,529.6799448840868 325.43859649122805,558.8382458903911 332.57309941520464,557.2082160773218 339.7076023391813,589.4856275552 346.84210526315786,585.5060229614892 353.9766081871345,622.4092458250915 361.1111111111111,617.9657974019426 368.2456140350877,594.2919494921698 375.3801169590643,552.7751209766202 382.5146198830409,570.205093073395 389.64912280701753,566.0850038613437 396.7836257309941,619.6143930256745 403.91812865497076,632.0681585792303 411.05263157894734,634.6324640692393 418.187134502924,649.7578177341696 425.32163742690057,617.0238678286329 432.45614035087715,653.916239908703 439.5906432748538,652.8479294349909 446.7251461988304,692.2005224481686 453.859649122807,670.6701318354745 460.9941520467836,664.4249319077237 468.12865497076024,633.6023085367497 475.2631578947368,616.5829595525863 482.3976608187134,661.8330085184305 489.53216374269005,651.6131061203441 496.66666666666663,643.620583442733 503.80116959064327,618.1596633499269 510.93567251461985,616.8927237257499 518.0701754385965,624.7644718722659 525.2046783625731,619.1326664272037 532.3391812865497,579.8518328639492 539.4736842105262,479.80710875294614 546.6081871345029,494.4068321203895 553.7426900584795,449.5689559014374 560.8771929824561,473.4976150196301 568.0116959064328,423.2698370492478 575.1461988304093,389.7901472279083 582.280701754386,399.96840136969104 589.4152046783626,371.8209132222038 596.5497076023391,453.68999610484883 603.6842105263157,459.0465848386899 610.8187134502924,466.217480509708 617.953216374269,424.76743014070894 625.0877192982456,467.37544848895686 632.2222222222222,433.6991525993717 639.3567251461988,443.47330595596907 646.4912280701755,432.3492346929485 653.625730994152,438.61775082193554 660.7602339181286,505.4712048982229 667.8947368421052,519.1289485946045 675.0292397660818,506.58269984420986 682.1637426900585,510.1725488845085 689.2982456140351,544.5327126797843 696.4327485380117,589.5763626237343 703.5672514619882,580.0433676261654 710.7017543859649,629.0661562383103 717.8362573099415,634.022581040258 724.9707602339182,621.3296379455415 732.1052631578947,608.618423965725 739.2397660818714,641.4244592405222 746.374269005848,640.7249576245837 753.5087719298245,683.9161003013922 760.6432748538011,665.4448843288291 767.7777777777778,661.5719735116065 774.9122807017543,612.7275634408226 782.046783625731,613.1016142443993 789.1812865497076,608.4842532393775 796.3157894736843,489.70961683661216 803.4502923976607,496.47696083480065 810.5847953216374,491.3485891617437 817.719298245614,482.6358820326925 824.8538011695907,497.79636106769374 831.9883040935672,487.1727504814651 839.1228070175439,464.5869944253159 846.2573099415205,493.8034569704746 853.3918128654971,497.02249759932175 860.5263157894736,501.12047560424406 867.6608187134503,489.6942575295034 874.7953216374268,489.7248732884085 881.9298245614035,452.6117932808597 889.0643274853801,403.6753562663069 896.1988304093568,346.0485198114116 903.3333333333333,332.7015148286106 910.46783625731,325.26518261818353 917.6023391812865,365.58340333062046 924.7368421052632,307.6006208504252 931.8713450292397,216.294205133287 939.0058479532164,278.71466387859306 946.140350877193,238.88027872195897 953.2748538011696,271.6021036034374 960.4093567251462,292.1283198693089 967.5438596491229,294.3358534532672 974.6783625730993,243.20138694771668 981.812865497076,252.40990347806854 988.9473684210526,297.28054517867406 996.0818713450293,322.3374913682839 1003.2163742690058,248.11531579710322 1010.3508771929825,248.85433654644038 1017.485380116959,293.40696330458616 1024.6198830409357,347.68053855738566 1031.7543859649122,346.46617055590417 1038.888888888889,299.0258150106926 1046.0233918128656,332.97571802993093 1053.157894736842,408.6556921929295 1060.2923976608186,394.08356180729544 1067.4269005847955,450.737142369676 1074.561403508772,509.18342993845897 1081.6959064327484,467.55965453109866 1088.830409356725,502.18438862168864 1095.9649122807018,469.8548602984529 1103.0994152046783,440.69803704026486 1110.233918128655,481.5306688069148 1117.3684210526314,475.3208680885921 1124.5029239766081,486.7331417691897 1131.6374269005848,482.18881821700217 1138.7719298245613,437.6365549390619 1145.906432748538,462.07307108749524 1153.0409356725147,423.52732507095016 1160.1754385964912,482.12328776712735 1167.3099415204679,499.1360193765857 1174.4444444444443,517.4898449395527 1181.578947368421,606.4260907518094 1188.7134502923975,619.573147862404 1195.8479532163742,622.4827410027079 1202.982456140351,645.8368248915965 1210.1169590643276,665.3610969153565 1217.251461988304,650.3929983004967 1224.3859649122808,638.7184832322769 1231.5204678362572,624.0112904730804 1238.654970760234,576.4790532127593 1245.7894736842104,624.3033895076113 1252.923976608187,627.5359988226348 1260.0584795321636,624.4701342558167 1267.1929824561403,621.3724814575697 1274.327485380117,593.9661578353682 1281.4619883040937,575.9408018191302 1288.5964912280701,577.4722421336495 1295.7309941520468,571.2141744770653 1302.8654970760233,582.1313403506409 1310.0,556.5955359016273" fill="none" stroke="#0f766e" stroke-width="2.5"><title>budgeted_static_50_50_rebalance | end=2026-05-05 | return=12.73%</title></polyline>
<polyline points="90.0,626.7085404660014 97.13450292397661,626.7085404660014 104.26900584795321,626.7085404660014 111.40350877192982,626.7085404660014 118.53801169590643,626.7085404660014 125.67251461988303,626.7085404660014 132.80701754385964,626.7085404660014 139.94152046783626,626.7085404660014 147.07602339181287,626.7085404660014 154.21052631578948,626.7085404660014 161.34502923976606,626.7085404660014 168.4795321637427,626.7085404660014 175.6140350877193,626.7085404660014 182.7485380116959,626.7085404660014 189.8830409356725,626.7085404660014 197.01754385964912,626.7085404660014 204.15204678362574,626.7085404660014 211.28654970760232,626.7085404660014 218.42105263157893,626.7085404660014 225.55555555555554,626.7085404660014 232.69005847953215,626.151992245751 239.82456140350877,627.3530467587984 246.95906432748538,626.9640714231094 254.093567251462,627.0707392542307 261.2280701754386,629.1128367601432 268.36257309941516,626.4724810784126 275.4970760233918,630.6962328186353 282.63157894736844,625.5315457577939 289.766081871345,610.1568827318994 296.9005847953216,610.0580618702528 304.03508771929825,610.779405775647 311.16959064327483,608.0270094457193 318.30409356725147,610.6048777008197 325.43859649122805,617.4092266819277 332.57309941520464,616.6862446660707 339.7076023391813,623.8994374887609 346.84210526315786,622.9494094439315 353.9766081871345,633.0881615747257 361.1111111111111,631.944888457036 368.2456140350877,624.5904995376964 375.3801169590643,611.1106219078446 382.5146198830409,617.1329893897487 389.64912280701753,615.9473445863475 396.7836257309941,635.9698055432059 403.91812865497076,641.7556114973268 411.05263157894734,642.6779462832679 418.187134502924,649.8990972978764 425.32163742690057,633.2077803623798 432.45614035087715,654.0500301867737 439.5906432748538,653.3743534160137 446.7251461988304,678.8964801060024 453.859649122807,664.5409479979162 460.9941520467836,660.696640635768 468.12865497076024,635.7953367751934 475.2631578947368,621.5488933865807 482.3976608187134,661.5580311876739 489.53216374269005,652.3655997387963 496.66666666666663,644.6670720721465 503.80116959064327,620.3927621238616 510.93567251461985,618.7440332870785 518.0701754385965,630.0810391888391 525.2046783625731,625.3579418126546 532.3391812865497,583.6172318107676 539.4736842105262,470.15843251886173 546.6081871345029,493.9808189255999 553.7426900584795,447.0733064688434 560.8771929824561,468.00622432102034 568.0116959064328,409.8700375789415 575.1461988304093,370.8004467686282 582.280701754386,385.406300840499 589.4152046783626,358.6702398954116 596.5497076023391,441.57005345004853 603.6842105263157,445.90921835846126 610.8187134502924,451.75306498376597 617.953216374269,409.8328012515185 625.0877192982456,452.9704440805033 632.2222222222222,421.08706719916 639.3567251461988,432.64725358884203 646.4912280701755,422.4765424206267 653.625730994152,429.336842374255 660.7602339181286,497.9978804109146 667.8947368421052,512.3381210705807 675.0292397660818,498.66106115585137 682.1637426900585,502.1665015674865 689.2982456140351,540.1145825659678 696.4327485380117,591.8605885642007 703.5672514619882,583.9834523672429 710.7017543859649,639.4954866520218 717.8362573099415,645.5203338423229 724.9707602339182,630.2321007153289 732.1052631578947,616.3524279419919 739.2397660818714,655.5578026927619 746.374269005848,655.7532976843988 753.5087719298245,710.0 760.6432748538011,689.0723710509297 767.7777777777778,685.4269690079599 774.9122807017543,628.4477451852139 782.046783625731,628.4263747291428 789.1812865497076,622.482721471768 796.3157894736843,463.6757673547163 803.4502923976607,472.37562252587577 810.5847953216374,468.8117581702703 817.719298245614,458.63639849594205 824.8538011695907,474.7172140749988 831.9883040935672,459.42275198124855 839.1228070175439,432.9417062104014 846.2573099415205,471.1384757971251 853.3918128654971,474.94718097691845 860.5263157894736,483.8201663577443 867.6608187134503,469.3239771383557 874.7953216374268,468.79761202037787 881.9298245614035,414.9978231679673 889.0643274853801,350.76494197798286 896.1988304093568,255.3984311987398 903.3333333333333,235.5741370851315 910.46783625731,223.6421222232156 917.6023391812865,274.4513124661642 924.7368421052632,199.1084194924441 931.8713450292397,90.0 939.0058479532164,157.83921292983166 946.140350877193,107.68799834507752 953.2748538011696,142.2070359506199 960.4093567251462,163.85422910103046 967.5438596491229,166.15715170425256 974.6783625730993,116.77229615981173 981.812865497076,126.91359372970066 988.9473684210526,169.11788868566543 996.0818713450293,191.46302186639412 1003.2163742690058,126.12659724818172 1010.3508771929825,127.56276319869357 1017.485380116959,166.45700847062676 1024.6198830409357,212.75575509046507 1031.7543859649122,212.40611029344825 1038.888888888889,170.23052044663723 1046.0233918128656,200.68640178445253 1053.157894736842,269.66980962635563 1060.2923976608186,256.25694614633926 1067.4269005847955,308.5357374503194 1074.561403508772,363.7165486279393 1081.6959064327484,323.15576122474243 1088.830409356725,358.12469922314347 1095.9649122807018,324.1377567239013 1103.0994152046783,292.8625248916343 1110.233918128655,337.9473649184164 1117.3684210526314,330.9355904558607 1124.5029239766081,344.26393804533126 1131.6374269005848,338.5804910423863 1138.7719298245613,284.51679728837587 1145.906432748538,314.88448589014104 1153.0409356725147,266.02945378604915 1160.1754385964912,341.3155631564429 1167.3099415204679,363.6170774784243 1174.4444444444443,387.45241767301917 1181.578947368421,503.99369112317515 1188.7134502923975,520.4824617530345 1195.8479532163742,524.3885202997835 1202.982456140351,555.8959731411397 1210.1169590643276,582.0899047268944 1217.251461988304,561.3145853575146 1224.3859649122808,545.9089615805726 1231.5204678362572,525.4732686001911 1238.654970760234,456.53056414859964 1245.7894736842104,525.4284288220425 1252.923976608187,530.3758566774784 1260.0584795321636,524.9360833052076 1267.1929824561403,520.8640405870706 1274.327485380117,481.7466156411582 1281.4619883040937,455.0677824837518 1288.5964912280701,458.6811785206845 1295.7309941520468,450.61453610910166 1302.8654970760233,466.7425369355269 1310.0,430.5527221583201" fill="none" stroke="#9333ea" stroke-width="2.5"><title>budgeted_drawdown_tilt_rebalance | end=2026-05-05 | return=35.62%</title></polyline>
<polyline points="90.0,626.7085404660014 97.13450292397661,626.926121628207 104.26900584795321,624.9921849157288 111.40350877192982,626.3702921986713 118.53801169590643,628.0987832965692 125.67251461988303,629.6859843800906 132.80701754385964,628.9876690741507 139.94152046783626,628.6588878406129 147.07602339181287,620.5189274325209 154.21052631578948,610.3884198359892 161.34502923976606,606.4883441712832 168.4795321637427,605.257486975671 175.6140350877193,583.1413870542934 182.7485380116959,568.748969332517 189.8830409356725,553.4064182564796 197.01754385964912,578.587789318155 204.15204678362574,578.9560942517759 211.28654970760232,568.127676115512 218.42105263157893,563.9900358092419 225.55555555555554,580.6818362677704 232.69005847953215,567.7981988684194 239.82456140350877,597.6582872504889 246.95906432748538,592.4443647746364 254.093567251462,593.6248553679296 261.2280701754386,608.2044031299441 268.36257309941516,594.9110105080603 275.4970760233918,612.2501352249122 282.63157894736844,592.5050795024844 289.766081871345,551.7161043446006 296.9005847953216,554.1026153042435 304.03508771929825,557.0164381571685 311.16959064327483,547.4434677260874 318.30409356725147,555.0722772182988 325.43859649122805,577.4521733841664 332.57309941520464,577.0672496516174 339.7076023391813,603.249387319655 346.84210526315786,599.9233924114552 353.9766081871345,631.2607900382662 361.1111111111111,627.0815072204016 368.2456140350877,605.6912644308861 375.3801169590643,566.15637800641 382.5146198830409,582.6618084235571 389.64912280701753,578.3385495202795 396.7836257309941,630.892851430697 403.91812865497076,641.8405691517307 411.05263157894734,644.8050987411132 418.187134502924,659.5596790998295 425.32163742690057,626.9025167962174 432.45614035087715,662.9575869611888 439.5906432748538,661.9488570466765 446.7251461988304,699.7526544635631 453.859649122807,678.0023973160797 460.9941520467836,670.7963865137762 468.12865497076024,641.5420958551592 475.2631578947368,624.9810352672251 482.3976608187134,668.0541476965697 489.53216374269005,657.9051030422173 496.66666666666663,650.304435669653 503.80116959064327,624.8599986419429 510.93567251461985,623.8521048648042 518.0701754385965,629.6253128081898 525.2046783625731,623.2512844105562 532.3391812865497,584.2495947614775 539.4736842105262,487.86832260907136 546.6081871345029,497.1436748354989 553.7426900584795,450.9595469120808 560.8771929824561,479.0359626536398 568.0116959064328,431.4920123073119 575.1461988304093,400.9227967743207 582.280701754386,407.39824409110616 589.4152046783626,377.7270817398679 596.5497076023391,456.9724919572046 603.6842105263157,463.53428072868843 610.8187134502924,472.6570146432976 617.953216374269,431.60581808391976 625.0877192982456,471.8105891769247 632.2222222222222,436.0316523816108 639.3567251461988,441.64272523489717 646.4912280701755,428.82600078388214 653.625730994152,433.76972548421037 660.7602339181286,497.2181780759357 667.8947368421052,509.71075334195325 675.0292397660818,498.7437257028582 682.1637426900585,502.95915464095685 689.2982456140351,537.2255874722043 696.4327485380117,579.6135656134003 703.5672514619882,565.2967567624675 710.7017543859649,612.3979051549757 717.8362573099415,616.3264025786842 724.9707602339182,604.9549575261617 732.1052631578947,590.5806488804432 739.2397660818714,620.9866514259746 746.374269005848,618.3963400752093 753.5087719298245,653.7894962114943 760.6432748538011,633.0840351047162 767.7777777777778,627.1077868145204 774.9122807017543,575.7770929663814 782.046783625731,577.2901696212607 789.1812865497076,573.2760503347179 796.3157894736843,480.0787472479422 803.4502923976607,486.59229831554967 810.5847953216374,476.11875600358223 817.719298245614,465.7112383992053 824.8538011695907,486.81138180926746 831.9883040935672,478.5697015494585 839.1228070175439,451.74061985582034 846.2573099415205,481.1928658253631 853.3918128654971,485.038772508575 860.5263157894736,484.31021429183704 867.6608187134503,471.9348073944878 874.7953216374268,472.76847662527337 881.9298245614035,441.6716767677878 889.0643274853801,390.832880427723 896.1988304093568,357.7550600608653 903.3333333333333,347.870328183626 910.46783625731,343.43754160700536 917.6023391812865,379.6049953905834 924.7368421052632,331.7903274854186 931.8713450292397,249.9293597861177 939.0058479532164,310.1141967557426 946.140350877193,276.412450863641 953.2748538011696,307.56152271493823 960.4093567251462,327.14068776235723 967.5438596491229,329.2736191486941 974.6783625730993,278.52561799102244 981.812865497076,287.22338140017115 988.9473684210526,332.06273173724884 996.0818713450293,357.69225667582106 1003.2163742690058,281.3295536425566 1010.3508771929825,281.8458252307665 1017.485380116959,327.94544416585114 1024.6198830409357,384.4117257495334 1031.7543859649122,382.9327430630693 1038.888888888889,334.31969144304384 1046.0233918128656,368.94676835267273 1053.157894736842,446.6603342303826 1060.2923976608186,431.97115385895245 1067.4269005847955,489.91090064440505 1074.561403508772,549.1833016412244 1081.6959064327484,508.27199872423733 1088.830409356725,542.093360629305 1095.9649122807018,511.3093252821862 1103.0994152046783,483.16547073774046 1110.233918128655,522.7425662735769 1117.3684210526314,516.6803888863924 1124.5029239766081,527.7727357032549 1131.6374269005848,523.548126719846 1138.7719298245613,479.6499341348389 1145.906432748538,503.7851549258557 1153.0409356725147,465.84268137369327 1160.1754385964912,523.3473061180873 1167.3099415204679,539.77116681663 1174.4444444444443,557.6981509214152 1181.578947368421,643.515205209864 1188.7134502923975,656.8414187563108 1195.8479532163742,659.4942034057588 1202.982456140351,680.8560915110036 1210.1169590643276,699.0273193223583 1217.251461988304,685.7088229852591 1224.3859649122808,674.3723377205375 1231.5204678362572,660.8767816095909 1238.654970760234,619.1788522259575 1245.7894736842104,662.5611503885311 1252.923976608187,665.2607535165289 1260.0584795321636,663.311392765271 1267.1929824561403,660.1440510946649 1274.327485380117,634.7549261527192 1281.4619883040937,618.6976640268898 1288.5964912280701,619.0754645259632 1295.7309941520468,612.5059637769001 1302.8654970760233,622.5083612246184 1310.0,597.8737302341419" fill="none" stroke="#92400e" stroke-width="2.5"><title>budgeted_btc_defensive_eth_aggressive | end=2026-05-05 | return=5.24%</title></polyline>
</svg>