<svg xmlns="http://www.w3.org/2000/svg" width="1400" height="800">
<rect width="1400" height="800" fill="#f8fafc"/>
<text x="700.0" y="42" text-anchor="middle" font-family="monospace" font-size="24" fill="#0f172a">Portfolio Value Over Time | start=2022-01-01 | interval=3d</text>
<line x1="90" y1="710" x2="1310" y2="710" stroke="#334155" stroke-width="2"/>
<line x1="90" y1="90" x2="90" y2="710" stroke="#334155" stroke-width="2"/>
<line x1="90.0" y1="710" x2="90.0" y2="90" stroke="#cbd5e1" stroke-width="1"/>
<text x="90.0" y="734" text-anchor="middle" font-family="monospace" font-size="11" fill="#475569">2022-01-01</text>
<line x1="90" y1="710.0" x2="1310" y2="710.0" stroke="#cbd5e1" stroke-width="1"/>
<text x="78" y="714.0" text-anchor="end" font-family="monospace" font-size="12" fill="#475569">4080</text>
<line x1="334.0" y1="710" x2="334.0" y2="90" stroke="#cbd5e1" stroke-width="1"/>
<text x="334.0" y="734" text-anchor="middle" font-family="monospace" font-size="11" fill="#475569">2022-11-15</text>
<line x1="90" y1="586.0" x2="1310" y2="586.0" stroke="#cbd5e1" stroke-width="1"/>
<text x="78" y="590.0" text-anchor="end" font-family="monospace" font-size="12" fill="#475569">7642</text>
<line x1="578.0" y1="710" x2="578.0" y2="90" stroke="#cbd5e1" stroke-width="1"/>
<text x="578.0" y="734" text-anchor="middle" font-family="monospace" font-size="11" fill="#475569">2023-09-29</text>
<line x1="90" y1="462.0" x2="1310" y2="462.0" stroke="#cbd5e1" stroke-width="1"/>
<text x="78" y="466.0" text-anchor="end" font-family="monospace" font-size="12" fill="#475569">11204</text>
<line x1="822.0" y1="710" x2="822.0" y2="90" stroke="#cbd5e1" stroke-width="1"/>
<text x="822.0" y="734" text-anchor="middle" font-family="monospace" font-size="11" fill="#475569">2024-08-09</text>
<line x1="90" y1="337.99999999999994" x2="1310" y2="337.99999999999994" stroke="#cbd5e1" stroke-width="1"/>
<text x="78" y="341.99999999999994" text-anchor="end" font-family="monospace" font-size="12" fill="#475569">14766</text>
<line x1="1066.0" y1="710" x2="1066.0" y2="90" stroke="#cbd5e1" stroke-width="1"/>
<text x="1066.0" y="734" text-anchor="middle" font-family="monospace" font-size="11" fill="#475569">2025-06-23</text>
<line x1="90" y1="214.00000000000006" x2="1310" y2="214.00000000000006" stroke="#cbd5e1" stroke-width="1"/>
<text x="78" y="218.00000000000006" text-anchor="end" font-family="monospace" font-size="12" fill="#475569">18327</text>
<line x1="1310.0" y1="710" x2="1310.0" y2="90" stroke="#cbd5e1" stroke-width="1"/>
<text x="1310.0" y="734" text-anchor="middle" font-family="monospace" font-size="11" fill="#475569">2026-05-07</text>
<line x1="90" y1="90.0" x2="1310" y2="90.0" stroke="#cbd5e1" stroke-width="1"/>
<text x="78" y="94.0" text-anchor="end" font-family="monospace" font-size="12" fill="#475569">21889</text>
<text x="700.0" y="782" text-anchor="middle" font-family="monospace" font-size="16" fill="#0f172a">time</text>
<text x="24" y="400.0" transform="rotate(-90 24,400.0)" text-anchor="middle" font-family="monospace" font-size="16" fill="#0f172a">portfolio_value_usd</text>
<line x1="970" y1="80" x2="988" y2="80" stroke="#0f766e" stroke-width="3"/>
<text x="998" y="84" font-family="monospace" font-size="12" fill="#0f172a">budgeted_static_50_50_rebalance</text>
<line x1="970" y1="104" x2="988" y2="104" stroke="#9333ea" stroke-width="3"/>
<text x="998" y="108" font-family="monospace" font-size="12" fill="#0f172a">budgeted_drawdown_tilt_rebalance</text>
<line x1="970" y1="128" x2="988" y2="128" stroke="#92400e" stroke-width="3"/>
<text x="998" y="132" font-family="monospace" font-size="12" fill="#0f172a">budgeted_btc_defensive_eth_aggressive</text>
<polyline points="90.0,503.9092411642837 92.3062381852552,504.0557914748929 94.6124763705104,506.11253083860413 96.91871455576559,506.4460429698547 99.2249527410208,505.38692980807133 101.531190926276,504.4745018885419 103.8374291115312,507.2532261516146 106.14366729678639,517.6109996815406 108.44990548204159,515.5805184660894 110.75614366729678,513.8392127786708 113.062381852552,511.0996210041134 115.36862003780718,512.2866408955956 117.67485822306239,499.88514790878514 119.98109640831758,493.7704176198281 122.28733459357278,503.26657336243346 124.59357277882798,494.09410155253806 126.89981096408317,510.6290015482574 129.20604914933838,520.7736286806479 131.51228733459357,517.6131665721325 133.81852551984878,518.2841665373471 136.124763705104,496.04789299931554 138.43100189035917,514.2733473332025 140.73724007561435,518.5681977939489 143.04347826086956,519.2846515806681 145.34971644612477,515.7711884075646 147.65595463137996,504.28029434814323 149.96219281663517,501.56070704046385 152.26843100189035,490.10524200350903 154.57466918714556,480.99741534056284 156.88090737240077,461.5496545140478 159.18714555765595,462.72122971492297 161.49338374291113,458.92657447636253 163.79962192816635,482.263736054788 166.10586011342156,487.66785686269685 168.41209829867677,494.94167500834743 170.71833648393192,500.2214443083251 173.02457466918713,494.44093236309004 175.33081285444234,507.03109785535617 177.63705103969755,502.4678453136526 179.94328922495274,508.1867542812753 182.24952741020795,517.7634705296061 184.55576559546313,508.2522073856751 186.86200378071834,537.0678711544208 189.16824196597355,566.2213453068272 191.47448015122873,587.9710698868012 193.78071833648391,585.1619435378105 196.08695652173913,583.7963548085054 198.39319470699434,582.7554311171415 200.69943289224955,590.0448301146556 203.0056710775047,598.778061132998 205.3119092627599,582.1556429925696 207.61814744801512,597.2517602219704 209.92438563327033,587.1210838412962 212.23062381852552,595.0926736035635 214.53686200378073,625.3831234953938 216.8431001890359,649.1784258085885 219.14933837429112,674.0367353940696 221.45557655954633,661.3055180491491 223.7618147448015,654.3853391018284 226.0680529300567,657.7996292727207 228.3742911153119,666.5568871867989 230.68052930056712,668.7948921000841 232.9867674858223,658.7161932394991 235.2930056710775,653.5441567608315 237.59924385633272,670.576778230622 239.9054820415879,655.4040804539491 242.21172022684308,631.9386977742264 244.5179584120983,629.7373356817045 246.8241965973535,630.5632647119318 249.1304347826087,627.2772646183028 251.43667296786387,621.7564656444652 253.7429111531191,627.4480869949895 256.04914933837426,620.8957303492493 258.3553875236295,617.1158896970244 260.6616257088847,611.3510955981315 262.9678638941399,607.2636294909952 265.2741020793951,615.7911855997215 267.5803402646503,636.5916307000967 269.88657844990547,630.6423017178043 272.1928166351607,643.1405548918008 274.4990548204159,640.7491022758373 276.80529300567105,639.5054022639888 279.11153119092626,640.3156075885363 281.41776937618147,640.1515516791019 283.7240075614367,624.653873549231 286.0302457466919,639.953852110418 288.3364839319471,648.4506914184431 290.64272211720225,652.2905416603596 292.94896030245746,655.313296845535 295.2551984877126,658.9736987932009 297.56143667296783,654.7388348811277 299.86767485822304,656.358993184696 302.17391304347825,650.2517788121477 304.48015122873346,654.6201275367152 306.7863894139887,658.0953546881996 309.0926275992439,657.410728759368 311.3988657844991,656.8260872773158 313.70510396975425,658.3962590768245 316.0113421550094,656.6147104631124 318.31758034026467,646.1104082032844 320.6238185255198,639.5197029008524 322.93005671077503,638.9771133191884 325.23629489603024,642.090347259158 327.54253308128546,637.7605610367391 329.84877126654067,678.9445285506723 332.1550094517959,667.9422259121226 334.46124763705103,667.7917036808076 336.7674858223062,670.5571459233935 339.07372400756145,679.0891632054161 341.3799621928166,671.2916546482968 343.6862003780718,672.3537228844755 345.992438563327,664.5968452145327 348.29867674858224,668.3095736141814 350.60491493383745,666.072102459524 352.91115311909266,666.3512896037221 355.2173913043478,665.4196705075931 357.523629489603,665.3906605336399 359.82986767485824,671.7623246856068 362.1361058601134,669.9146481074904 364.44234404536866,669.5299163072326 366.7485822306238,670.4918472182413 369.054820415879,671.4386702280142 371.36105860113423,670.4626922422221 373.6672967863894,668.0149208998224 375.9735349716446,664.9896402567043 378.2797731568998,657.0970336393234 380.586011342155,638.5319059126382 382.8922495274102,637.1174298026169 385.19848771266544,627.1195876501579 387.5047258979206,627.882600251971 389.8109640831758,628.8756642502822 392.117202268431,624.1121765802225 394.42344045368617,624.2912367202721 396.72967863894144,624.4196351719709 399.0359168241966,624.480746375708 401.3421550094518,638.1213459692436 403.648393194707,637.9173283685757 405.95463137996217,625.2612771929494 408.2608695652174,620.4665937175388 410.5671077504726,622.7067296064306 412.87334593572774,628.7009532401111 415.17958412098295,628.1930141301145 417.4858223062382,632.7284097251227 419.79206049149343,632.7384191870534 422.0982986767486,646.3208393318885 424.4045368620038,632.0403136212153 426.710775047259,621.3368322578335 429.01701323251416,606.9370911961474 431.32325141776937,600.4993103261024 433.6294896030246,605.7926892748983 435.93572778827973,608.7981387594351 438.241965973535,601.7822617083192 440.5482041587902,601.1713978990161 442.85444234404537,595.4059160264118 445.1606805293006,599.1599887731026 447.4669187145558,589.241353131382 449.77315689981094,577.5813550142076 452.07939508506615,582.5011635196896 454.38563327032136,593.4028670473078 456.6918714555765,599.8090262718199 458.9981096408318,596.7039489707224 461.304347826087,591.7186225468603 463.61058601134215,595.5859721343073 465.91682419659736,586.2906312499017 468.22306238185257,600.1133839681304 470.5293005671077,605.3006837875329 472.83553875236294,605.2496465341519 475.14177693761815,602.4612113401317 477.4480151228733,603.5997837573545 479.75425330812857,601.460771242211 482.0604914933838,604.5342133430356 484.36672967863893,597.6863496994229 486.67296786389414,602.4046796484926 488.97920604914935,599.9747502978014 491.2854442344045,605.5903853630749 493.5916824196597,611.3751180029262 495.89792060491493,611.7748447141167 498.2041587901701,611.568565174221 500.5103969754253,608.8130297529599 502.81663516068056,591.4183702873593 505.1228733459357,587.9684809188316 507.4291115311909,593.061909893094 509.73534971644614,586.3523285649532 512.0415879017013,585.0925532410579 514.3478260869565,589.8819855005854 516.6540642722117,589.1534751130744 518.9603024574669,579.1310113892569 521.266540642722,587.5560962705895 523.5727788279773,590.4645343890344 525.8790170132326,592.0098964501507 528.1852551984878,594.4464324899159 530.4914933837429,593.2760121195347 532.7977315689982,594.492967029135 535.1039697542533,595.7952177062547 537.4102079395085,596.6055213487267 539.7164461247637,593.4514980665875 542.0226843100188,594.2075344686878 544.3289224952741,596.1749827742098 546.6351606805293,615.3666562558277 548.9413988657845,614.8081291306054 551.2476370510396,615.0267506444516 553.553875236295,615.4207249823658 555.8601134215501,608.798699078336 558.1663516068053,617.2451579478723 560.4725897920605,617.6855439125378 562.7788279773156,617.1585980927503 565.0850661625709,624.0742740332659 567.3913043478261,615.45800139334 569.6975425330813,615.6868246851822 572.0037807183364,613.6812670079184 574.3100189035918,617.0030049591423 576.6162570888469,618.3197460455785 578.9224952741021,612.1256315099486 581.2287334593573,610.3124185348486 583.5349716446124,613.2343107201959 585.8412098298677,610.3149171945444 588.1474480151229,617.4112859193713 590.4536862003781,618.0643760963819 592.7599243856332,612.1920790555428 595.0661625708885,605.7943493314694 597.3724007561436,585.9587901549266 599.6786389413988,580.4531210459368 601.984877126654,579.5864004977001 604.2911153119093,573.9316498178945 606.5973534971645,574.6028768238989 608.9035916824197,572.0618326168565 611.2098298676749,556.0194517033829 613.51606805293,560.0186741186255 615.8223062381853,565.752547614994 618.1285444234405,559.213501372689 620.4347826086956,556.2826298050132 622.7410207939508,553.9657161262071 625.047258979206,555.7738784664598 627.3534971644613,550.8746616485776 629.6597353497165,532.0088602749637 631.9659735349717,521.7444187879313 634.2722117202268,520.3742220515688 636.578449905482,528.2097947572889 638.8846880907373,532.043260526921 641.1909262759924,534.6897839146541 643.4971644612476,521.171122067433 645.8034026465028,525.4666260723268 648.109640831758,524.5255229786916 650.4158790170133,528.9124109105763 652.7221172022685,531.0218306982748 655.0283553875236,525.8714369862593 657.3345935727788,513.6032985846896 659.6408317580341,513.6943839434448 661.9470699432892,515.222450376177 664.2533081285444,521.1093806384679 666.5595463137996,521.0594845816549 668.8657844990548,537.8120151659729 671.17202268431,529.5941517974752 673.4782608695652,522.9520722261827 675.7844990548203,524.1354899536644 678.0907372400756,526.2501560587461 680.3969754253309,511.4634938160061 682.703213610586,497.38401701565806 685.0094517958412,471.79575385908254 687.3156899810964,471.8691051958824 689.6219281663516,457.5081659582183 691.9281663516068,467.219011377093 694.234404536862,441.90361519104886 696.5406427221171,413.0777502928165 698.8468809073723,399.2700321425517 701.1531190926277,372.8056924340015 703.4593572778829,361.0004347501059 705.7655954631381,348.704301496465 708.0718336483932,366.78693185779576 710.3780718336484,383.8157623895099 712.6843100189036,391.45541433076596 714.9905482041588,388.4804945517796 717.296786389414,379.7425751956913 719.6030245746692,378.77737306960125 721.9092627599243,402.7125552723378 724.2155009451795,393.87347421478495 726.5217391304348,362.8591252119317 728.82797731569,377.7308760165135 731.1342155009452,408.20743143861813 733.4404536862004,430.1457569156322 735.7466918714555,410.3731619186731 738.0529300567107,402.9090513316147 740.3591682419659,415.2326451103976 742.6654064272212,410.1737730206872 744.9716446124764,436.09092925500295 747.2778827977316,413.90539302997587 749.5841209829869,430.98841559887177 751.890359168242,435.40612840486807 754.1965973534972,435.17767061678927 756.5028355387524,407.78808662994237 758.8090737240076,363.1783025225767 761.1153119092628,365.9751967505347 763.421550094518,362.08400134162383 765.7277882797731,368.0373778248694 768.0340264650283,364.8723092165637 770.3402646502835,356.9079883794101 772.6465028355387,367.55013715095413 774.952741020794,367.61809482971125 777.2589792060492,385.99146404345834 779.5652173913043,378.03863176802594 781.8714555765595,386.17360606206813 784.1776937618147,391.6522903377045 786.48393194707,403.97791728056455 788.7901701323252,409.28958334513595 791.0964083175804,398.53115595577265 793.4026465028355,435.42756224614953 795.7088846880907,445.76603830224536 798.015122873346,431.10239803786 800.3213610586012,422.5286084400797 802.6275992438564,390.74978320447855 804.9338374291116,382.8490878009264 807.2400756143667,383.88473464132096 809.5463137996219,403.4119424883808 811.8525519848771,391.146994924368 814.1587901701323,403.52795055310713 816.4650283553875,433.0115555229665 818.7712665406427,470.92378033544105 821.0775047258978,449.3370479528655 823.383742911153,446.03055263357214 825.6899810964082,460.26485292915527 827.9962192816636,455.24155484898864 830.3024574669188,446.636182368151 832.608695652174,429.96758200266356 834.9149338374291,461.820474011996 837.2211720226843,458.4970844315176 839.5274102079395,457.67213957117804 841.8336483931947,476.27966147924724 844.1398865784499,484.1298633589631 846.4461247637051,474.75553216915597 848.7523629489604,462.66812267361576 851.0586011342155,466.75280879123363 853.3648393194707,444.79591638928156 855.6710775047259,438.9758356110315 857.9773156899811,435.0694678244482 860.2835538752363,432.33548504279315 862.5897920604915,464.11014524554776 864.8960302457466,457.132448540396 867.2022684310018,455.3230620658811 869.5085066162571,454.3445304823769 871.8147448015123,432.8280181583787 874.1209829867676,430.94315608385074 876.4272211720228,417.65697743382515 878.7334593572779,438.2987141039829 881.0396975425331,440.0176391534396 883.3459357277883,415.175680450869 885.6521739130435,431.7534481753003 887.9584120982987,443.41699918698913 890.2646502835539,389.6193674963454 892.570888468809,359.21708801345727 894.8771266540642,334.1450752987524 897.1833648393194,337.55115434201 899.4896030245746,334.6974442574175 901.7958412098299,304.48696027445527 904.1020793950851,313.1946206327798 906.4083175803402,296.17441592797684 908.7145557655954,283.9087204629881 911.0207939508506,271.86984567206065 913.3270321361059,259.1131397647406 915.6332703213611,290.09272500460895 917.9395085066163,261.45418515712595 920.2457466918714,245.52961213341865 922.5519848771266,301.5659963137199 924.8582230623819,315.4670568529701 927.1644612476371,291.7641773377725 929.4706994328923,307.6456683905106 931.7769376181475,316.07173118938687 934.0831758034026,287.2377265871732 936.3894139886578,272.5162034520808 938.695652173913,324.8373899319123 941.0018903591682,317.2877993655278 943.3081285444234,291.4898590757523 945.6143667296786,292.1399571271498 947.9206049149338,286.6915720981055 950.226843100189,290.81377805652505 952.5330812854442,305.62084770215944 954.8393194706995,295.25043165244443 957.1455576559547,336.5753009993147 959.4517958412099,344.509494997804 961.7580340264651,355.9844046378026 964.0642722117202,359.7359643290444 966.3705103969754,346.7765509971163 968.6767485822306,349.1216193378279 970.9829867674858,344.0913572276701 973.289224952741,342.47349323677173 975.5954631379963,404.1042767650341 977.9017013232514,408.82797225473803 980.2079395085066,409.76914475833155 982.5141776937618,413.1987193125047 984.820415879017,452.6639045479965 987.1266540642722,447.44253354625806 989.4328922495274,442.4179823186624 991.7391304347825,418.9484202430452 994.0453686200377,431.68575320075877 996.351606805293,417.026793950382 998.6578449905483,437.7259269822937 1000.9640831758035,447.8540590176863 1003.2703213610587,447.0655768094781 1005.5765595463138,477.5585817164861 1007.882797731569,460.990602182735 1010.1890359168242,458.0829675457072 1012.4952741020794,466.4802300213811 1014.8015122873346,464.8738210571775 1017.1077504725898,459.9043912260296 1019.4139886578449,428.92231048289375 1021.7202268431001,427.28640661990187 1024.0264650283552,426.35034626701804 1026.3327032136106,419.3500822323601 1028.6389413988659,419.166776309261 1030.945179584121,357.3205947076074 1033.2514177693763,343.5749552211519 1035.5576559546312,336.8193129829485 1037.8638941398865,336.0937194249917 1040.1701323251418,325.0638366131103 1042.476370510397,330.57618771671525 1044.7826086956522,316.8793518637669 1047.0888468809076,337.6926085756903 1049.3950850661627,327.43757931126413 1051.7013232514178,352.3286982678298 1054.0075614366729,336.00353896554 1056.3137996219282,308.4065167286763 1058.6200378071835,334.68570823619655 1060.9262759924386,338.176173643644 1063.2325141776937,349.2378855390057 1065.5387523629488,344.61446255151816 1067.8449905482041,341.08607763847544 1070.1512287334594,331.43336286760865 1072.4574669187145,324.546720279611 1074.7637051039696,330.3230348222282 1077.0699432892247,320.62792415660203 1079.37618147448,275.3583171741988 1081.6824196597354,266.34338851584664 1083.9886578449905,229.60416772660443 1086.2948960302458,211.34017269824176 1088.6011342155011,218.17222156780264 1090.9073724007562,211.3458195762824 1093.2136105860113,207.65056726753068 1095.5198487712664,240.42311564441695 1097.8260869565217,219.37355915695713 1100.132325141777,200.24410742290075 1102.4385633270322,172.0217763163613 1104.7448015122873,127.97189167569252 1107.0510396975424,163.85265262338658 1109.3572778827977,198.03045009934834 1111.663516068053,138.19144831689164 1113.969754253308,184.05640653018918 1116.2759924385634,169.4913080301219 1118.5822306238185,187.57202070284643 1120.8884688090736,175.1977140487279 1123.194706994329,190.1770234483546 1125.500945179584,184.6896890795872 1127.8071833648394,148.29857903394668 1130.1134215500945,161.87341495601424 1132.4196597353498,153.65892837485 1134.725897920605,166.8844685294997 1137.03213610586,189.6385448463842 1139.3383742911153,206.7963947046785 1141.6446124763706,188.35418040996512 1143.9508506616257,145.1687542047065 1146.257088846881,128.66193248378192 1148.5633270321362,155.6934967487946 1150.8695652173913,184.9068198648797 1153.1758034026466,205.65455004102967 1155.4820415879017,220.3134533603873 1157.788279773157,218.6287449398646 1160.094517958412,208.34025582003085 1162.4007561436672,189.21033709987762 1164.7069943289225,223.29383145922395 1167.0132325141776,211.40406080655862 1169.319470699433,258.57795174264385 1171.625708884688,263.8381191610957 1173.9319470699434,261.06049642480286 1176.2381852551985,301.865904212403 1178.5444234404536,313.13961810626074 1180.8506616257089,340.0160846435213 1183.156899810964,341.4818599314736 1185.4631379962193,316.6185472327513 1187.7693761814746,318.36885832460496 1190.0756143667297,316.7784895159196 1192.3818525519848,319.5401360124627 1194.6880907372401,309.11830936037535 1196.9943289224952,296.61265330221795 1199.3005671077506,319.38181243285135 1201.6068052930057,340.395761640411 1203.9130434782608,325.0175972267886 1206.219281663516,328.14194625596724 1208.5255198487712,331.1262959063632 1210.8317580340265,330.9459949705946 1213.1379962192816,322.3345068373899 1215.444234404537,305.5905196418759 1217.750472589792,304.50789529350385 1220.0567107750471,312.5256087469879 1222.3629489603024,283.5720112666033 1224.6691871455575,285.2875294689249 1226.9754253308129,299.82636763518656 1229.2816635160682,323.86428894727203 1231.5879017013233,340.33321631101836 1233.8941398865784,320.3801858410846 1236.2003780718337,385.27706938402764 1238.5066162570888,408.5617642745642 1240.8128544423441,433.6786100721242 1243.1190926275992,431.38313219337044 1245.4253308128546,453.21088800651614 1247.7315689981097,445.4597125868286 1250.0378071833647,451.9808845287332 1252.34404536862,446.821664923858 1254.6502835538752,466.068310467293 1256.9565217391305,455.340123555325 1259.2627599243856,440.1026609063081 1261.5689981096407,431.4135992184795 1263.875236294896,454.38719099294383 1266.181474480151,434.71916033741644 1268.4877126654064,428.61431405975975 1270.7939508506618,404.0200798362207 1273.1001890359169,426.25912256298886 1275.406427221172,424.87888604414377 1277.7126654064273,437.4461932256993 1280.0189035916824,450.33315098071023 1282.3251417769377,432.4027768683512 1284.6313799621928,440.44066055032783 1286.9376181474481,415.1384132807579 1289.2438563327032,411.9575793599574 1291.5500945179583,398.5411071185469 1293.8563327032136,398.51277656095573 1296.1625708884687,408.45789015565447 1298.468809073724,389.05044280673485 1300.7750472589792,394.74240789082023 1303.0812854442343,400.3639936996349 1305.3875236294896,395.27527075727943 1307.6937618147447,387.33893344369585 1310.0,391.42197865293076" fill="none" stroke="#0f766e" stroke-width="2.5"><title>budgeted_static_50_50_rebalance | end=2026-05-07 | return=32.31%</title></polyline>
<polyline points="90.0,503.9092411642837 92.3062381852552,504.1238261910063 94.6124763705104,506.80042558393035 96.91871455576559,507.19638557416965 99.2249527410208,505.8232429450133 101.531190926276,504.6379699801121 103.8374291115312,508.2567644932526 106.14366729678639,521.971996039991 108.44990548204159,519.2061322018368 110.75614366729678,516.8962918900845 113.062381852552,513.2777014666053 115.36862003780718,514.9028671537321 117.67485822306239,498.34066367672904 119.98109640831758,490.1970457697323 122.28733459357278,502.79054241739743 124.59357277882798,490.5907941704353 126.89981096408317,512.6278394663983 129.20604914933838,526.1697522144178 131.51228733459357,521.9241160794217 133.81852551984878,522.8427804943311 136.124763705104,493.1280702561388 138.43100189035917,517.4636654847617 140.73724007561435,523.1877565417915 143.04347826086956,524.1418411127245 145.34971644612477,519.4570274912962 147.65595463137996,503.8835875882966 149.96219281663517,500.28036631893144 152.26843100189035,485.46986125160265 154.57466918714556,474.06845135276757 156.88090737240077,450.35986109987886 159.18714555765595,451.65302767306133 161.49338374291113,447.1988294562292 163.79962192816635,474.29957536003366 166.10586011342156,480.4323545861288 168.41209829867677,488.7222849930564 170.71833648393192,494.7136027736265 173.02457466918713,488.1952453973754 175.33081285444234,502.41068162606535 177.63705103969755,497.2851137128738 179.94328922495274,503.70641067673887 182.24952741020795,514.4291814168726 184.55576559546313,503.7799310006709 186.86200378071834,536.0453976266134 189.16824196597355,568.6898194189965 191.47448015122873,593.7272398050928 193.78071833648391,590.4402052552955 196.08695652173913,588.8427605930838 198.39319470699434,587.5483672560617 200.69943289224955,596.5839203323925 203.0056710775047,607.8282171949072 205.3119092627599,587.0397483440238 207.61814744801512,606.5133862774684 209.92438563327033,594.0222241594192 212.23062381852552,604.0233383474645 214.53686200378073,643.0487088346684 216.8431001890359,673.1519401860074 219.14933837429112,704.9635032274085 221.45557655954633,688.6043285611718 223.7618147448015,679.4361867979239 226.0680529300567,683.8040443712872 228.3742911153119,695.3584804765803 230.68052930056712,697.9820254477238 232.9867674858223,684.9448773174854 235.2930056710775,678.5148179903287 237.59924385633272,700.4391681633496 239.9054820415879,680.5782049388713 242.21172022684308,649.3689624327214 244.5179584120983,646.8167078453668 246.8241965973535,647.5800815741741 249.1304347826087,643.3107437324585 251.43667296786387,636.1707630729452 253.7429111531191,643.563003115209 256.04914933837426,634.7731016942305 258.3553875236295,629.900395356008 260.6616257088847,622.0611820291521 262.9678638941399,616.6836408732835 265.2741020793951,627.7895721665309 267.5803402646503,654.9974149766626 269.88657844990547,647.0552384482725 272.1928166351607,663.4270658793979 274.4990548204159,660.1612221542775 276.80529300567105,658.3447217098701 279.11153119092626,659.3757809997433 281.41776937618147,658.6762283828799 283.7240075614367,638.8821532493633 286.0302457466919,658.9902892384179 288.3364839319471,670.4544517496769 290.64272211720225,675.5742014623366 292.94896030245746,679.6484753706644 295.2551984877126,684.2998798098358 297.56143667296783,678.8637788640565 299.86767485822304,681.0327421958484 302.17391304347825,673.2994604892007 304.48015122873346,678.7806678003882 306.7863894139887,683.3048878828948 309.0926275992439,682.524752221711 311.3988657844991,681.6427998263761 313.70510396975425,683.713928360738 316.0113421550094,681.3145800549955 318.31758034026467,667.418223546126 320.6238185255198,658.6734593117528 322.93005671077503,657.8536291782838 325.23629489603024,661.956824757829 327.54253308128546,656.4556568892758 329.84877126654067,709.8883634131125 332.1550094517959,695.3149562267372 334.46124763705103,695.1704289410332 336.7674858223062,698.8512495528698 339.07372400756145,710.0 341.3799621928166,699.8018833576053 343.6862003780718,701.1543038946296 345.992438563327,690.9589336343485 348.29867674858224,695.8913707950346 350.60491493383745,692.940477573396 352.91115311909266,693.3529885563102 355.2173913043478,692.1227095320265 357.523629489603,692.1801004087511 359.82986767485824,700.5529113415471 362.1361058601134,698.0627248184592 364.44234404536866,697.5393991967135 366.7485822306238,698.7733094505609 369.054820415879,700.0128587288325 371.36105860113423,698.7119655414049 373.6672967863894,695.4433625886095 375.9735349716446,691.4723473093522 378.2797731568998,681.1375595751134 380.586011342155,657.5508097910769 382.8922495274102,655.7203012608308 385.19848771266544,642.9589536179393 387.5047258979206,644.1774964883584 389.8109640831758,645.6064662729132 392.117202268431,639.5294311875766 394.42344045368617,639.7697233399289 396.72967863894144,639.675744374406 399.0359168241966,639.7039406499624 401.3421550094518,657.4321191529581 403.648393194707,657.2574934206126 405.95463137996217,640.9606106371372 408.2608695652174,634.8604276441301 410.5671077504726,637.883986478754 412.87334593572774,645.4649645113697 415.17958412098295,644.7551896181144 417.4858223062382,650.4833125284083 419.79206049149343,650.5318097683339 422.0982986767486,667.895165410143 424.4045368620038,649.4421799748797 426.710775047259,636.1238560478686 429.01701323251416,618.0064976116975 431.32325141776937,609.9486968960921 433.6294896030246,616.7676650830003 435.93572778827973,620.680138409084 438.241965973535,611.6028635328582 440.5482041587902,610.8625326011025 442.85444234404537,602.9061547988944 445.1606805293006,607.9370139814731 447.4669187145558,595.7740223588394 449.77315689981094,579.8775357478679 452.07939508506615,585.9652596692706 454.38563327032136,600.1934064233585 456.6918714555765,608.5882088941013 458.9981096408318,604.8623788906197 461.304347826087,598.5380732713171 463.61058601134215,603.4931872501979 465.91682419659736,591.2468689701191 468.22306238185257,609.0757146781382 470.5293005671077,615.6426622027298 472.83553875236294,615.5368293305165 475.14177693761815,612.1796869892894 477.4480151228733,613.4153536698745 479.75425330812857,610.9130382172802 482.0604914933838,614.1347694832878 484.36672967863893,606.9386476373357 486.67296786389414,611.5856209829662 488.97920604914935,609.1631574588863 491.2854442344045,614.5382587871004 493.5916824196597,620.1280138480663 495.89792060491493,620.5806929881194 498.2041587901701,620.6174123463272 500.5103969754253,618.1297550247524 502.81663516068056,602.3277447681553 505.1228733459357,599.2650372369783 507.4291115311909,603.9710277089043 509.73534971644614,597.8726651448444 512.0415879017013,596.7999702150414 514.3478260869565,600.979900510457 516.6540642722117,600.3545851933184 518.9603024574669,591.9193481903026 521.266540642722,598.7253130093081 523.5727788279773,601.1074921303934 525.8790170132326,602.396020083832 528.1852551984878,604.1955157239146 530.4914933837429,603.2300957132852 532.7977315689982,604.2324049478696 535.1039697542533,605.3189080212626 537.4102079395085,605.9409898137267 539.7164461247637,603.524627742736 542.0226843100188,604.0915491708998 544.3289224952741,605.6338338495939 546.6351606805293,620.2841052384258 548.9413988657845,619.8298786304946 551.2476370510396,620.0538173511791 553.553875236295,620.3919061127363 555.8601134215501,614.4747789151725 558.1663516068053,622.3562152369907 560.4725897920605,622.7615237992641 562.7788279773156,622.2903956209657 565.0850661625709,629.009715842428 567.3913043478261,620.6275390565795 569.6975425330813,620.8729423033736 572.0037807183364,619.1013950624175 574.3100189035918,622.3185039406501 576.6162570888469,623.4880243223712 578.9224952741021,617.2834481518975 581.2287334593573,615.7315430394775 583.5349716446124,618.8184013293421 585.8412098298677,616.0324496261527 588.1474480151229,622.9286640990081 590.4536862003781,623.6447035991866 592.7599243856332,618.1531975620962 595.0661625708885,611.6405539210739 597.3724007561436,590.9054315003854 599.6786389413988,585.2911063744352 601.984877126654,584.6599210105294 604.2911153119093,578.8499192379517 606.5973534971645,579.2731883322353 608.9035916824197,576.7223904555642 611.2098298676749,560.8367965771191 613.51606805293,564.3637904112028 615.8223062381853,570.1235994373786 618.1285444234405,564.4350315237125 620.4347826086956,561.6621067824946 622.7410207939508,559.7298433602789 625.047258979206,561.4244815924056 627.3534971644613,557.4703838186261 629.6597353497165,542.3557154841038 631.9659735349717,533.93675100519 634.2722117202268,532.9884815782839 636.578449905482,539.2951295258476 638.8846880907373,542.2729624725029 641.1909262759924,544.5100957750936 643.4971644612476,533.8859638666677 645.8034026465028,537.2889247229707 648.109640831758,536.1487587493658 650.4158790170133,539.6111002643663 652.7221172022685,541.4732854260076 655.0283553875236,537.6730615307414 657.3345935727788,528.6086294966237 659.6408317580341,528.0357794632338 661.9470699432892,529.1524514838529 664.2533081285444,533.41602203503 666.5595463137996,533.4067354700775 668.8657844990548,545.5044505865206 671.17202268431,539.768347817369 673.4782608695652,535.0025771988647 675.7844990548203,535.9066354026107 678.0907372400756,537.389742330274 680.3969754253309,526.87175944493 682.703213610586,516.9205200617332 685.0094517958412,498.57962280646814 687.3156899810964,498.60882832054915 689.6219281663516,488.1837256153889 691.9281663516068,495.07038701495867 694.234404536862,477.15876082357494 696.5406427221171,457.0637683165353 698.8468809073723,447.349858377902 701.1531190926277,428.7240060257227 703.4593572778829,420.5582335937329 705.7655954631381,412.1460025170952 708.0718336483932,424.6806646577525 710.3780718336484,436.41902505444176 712.6843100189036,441.54355477096436 714.9905482041588,439.6168938061623 717.296786389414,433.6064083891341 719.6030245746692,432.9468638438827 721.9092627599243,449.2104790516348 724.2155009451795,443.11710440816285 726.5217391304348,421.00597341912703 728.82797731569,431.53018209865803 731.1342155009452,452.9381439815804 733.4404536862004,468.53313058060314 735.7466918714555,453.88549705701257 738.0529300567107,448.2276418107647 740.3591682419659,457.7222049313291 742.6654064272212,453.4822998565292 744.9716446124764,474.52778014162493 747.2778827977316,456.1608041237025 749.5841209829869,470.7589111429842 751.890359168242,474.8080635438324 754.1965973534972,474.91211875207387 756.5028355387524,449.6592771150826 758.8090737240076,406.1955766200646 761.1153119092628,406.9757381698414 763.421550094518,403.49696130809053 765.7277882797731,408.60516941735796 768.0340264650283,405.73812227394274 770.3402646502835,400.1923089541055 772.6465028355387,408.966931549033 774.952741020794,409.1296893464951 777.2589792060492,423.44918669913466 779.5652173913043,416.60102489516987 781.8714555765595,422.50403150283233 784.1776937618147,426.6332382989043 786.48393194707,435.4158147080055 788.7901701323252,439.0788284312699 791.0964083175804,431.29831039241543 793.4026465028355,460.05792833052953 795.7088846880907,468.4348210004198 798.015122873346,456.25040820335164 800.3213610586012,449.15110368251726 802.6275992438564,422.2856703040273 804.9338374291116,415.59705495528243 807.2400756143667,416.7277344692289 809.5463137996219,433.86004627098635 811.8525519848771,423.4145472355578 814.1587901701323,433.62945845185834 816.4650283553875,459.98604787825127 818.7712665406427,495.0101569842779 821.0775047258978,475.5831712314804 823.383742911153,471.2116457125029 825.6899810964082,485.4759531488177 827.9962192816636,480.5343563117388 830.3024574669188,472.90353192049736 832.608695652174,456.13646789171315 834.9149338374291,489.42953030486854 837.2211720226843,485.235409626356 839.5274102079395,484.286050182601 841.8336483931947,503.7330497295493 844.1398865784499,511.89744828691965 846.4461247637051,502.9340993995186 848.7523629489604,490.8817286524727 851.0586011342155,495.99399870322156 853.3648393194707,472.00199609582387 855.6710775047259,465.0685241076825 857.9773156899811,461.88771940856907 860.2835538752363,458.91420406382673 862.5897920604915,493.553183017244 864.8960302457466,486.2628518354819 867.2022684310018,484.1419139689237 869.5085066162571,483.27122044010895 871.8147448015123,460.11020037938044 874.1209829867676,458.85575646702193 876.4272211720228,444.0225300563582 878.7334593572779,467.22517196307933 881.0396975425331,469.5894262381793 883.3459357277883,443.8495909573818 885.6521739130435,461.44713474557244 887.9584120982987,474.1944988187107 890.2646502835539,416.03919966292034 892.570888468809,382.92083771567485 894.8771266540642,359.36535819127823 897.1833648393194,363.4191336143515 899.4896030245746,361.09833003076284 901.7958412098299,330.0592146773471 904.1020793950851,337.0731749600199 906.4083175803402,319.2528942597472 908.7145557655954,306.71775853296697 911.0207939508506,294.7432935781663 913.3270321361059,282.1806509198574 915.6332703213611,311.79024714185846 917.9395085066163,286.092504899757 920.2457466918714,273.3159999626718 922.5519848771266,321.9240101494924 924.8582230623819,333.99647387469554 927.1644612476371,313.42592471267454 929.4706994328923,326.2728687594671 931.7769376181475,333.4422750800014 934.0831758034026,307.95277586887363 936.3894139886578,295.9458997290548 938.695652173913,339.9878642227776 941.0018903591682,333.79891669952286 943.3081285444234,312.0266038336934 945.6143667296786,314.2321780646192 947.9206049149338,309.6990531353335 950.226843100189,313.15787143535977 952.5330812854442,326.64524608652806 954.8393194706995,317.4561276048474 957.1455576559547,356.5364888658487 959.4517958412099,364.4026789354715 961.7580340264651,377.00991492842576 964.0642722117202,380.7649310541213 966.3705103969754,366.89111159874733 968.6767485822306,368.2370965994658 970.9829867674858,364.3397731380305 973.289224952741,360.38393124089805 975.5954631379963,426.4087334459887 977.9017013232514,434.0391791643631 980.2079395085066,436.31195230104896 982.5141776937618,440.12780752367723 984.820415879017,482.2206886400286 987.1266540642722,477.921273591805 989.4328922495274,472.8699277635558 991.7391304347825,446.6463369647115 994.0453686200377,460.3142557464489 996.351606805293,444.47728254046865 998.6578449905483,468.85830901033995 1000.9640831758035,480.49648175690254 1003.2703213610587,480.058392723077 1005.5765595463138,516.2102892505229 1007.882797731569,498.2139060207053 1010.1890359168242,496.73834046300385 1012.4952741020794,506.41968881941375 1014.8015122873346,504.9952117239803 1017.1077504725898,500.9096474692485 1019.4139886578449,465.46200196885525 1021.7202268431001,463.140581193544 1024.0264650283552,462.2086584245441 1026.3327032136106,454.206751945262 1028.6389413988659,454.6933233116534 1030.945179584121,376.8731110376322 1033.2514177693763,358.0165519974264 1035.5576559546312,349.5743911984516 1037.8638941398865,351.41688011825863 1040.1701323251418,339.07645202543705 1042.476370510397,344.9827884119544 1044.7826086956522,326.2599417365261 1047.0888468809076,351.3043449115466 1049.3950850661627,338.244753407618 1051.7013232514178,370.37688105697566 1054.0075614366729,350.9999112531724 1056.3137996219282,312.73255258954293 1058.6200378071835,348.84707824396423 1060.9262759924386,353.0554847641469 1063.2325141776937,368.4199639358586 1065.5387523629488,364.0808818966057 1067.8449905482041,360.7618569510917 1070.1512287334594,347.8276459345565 1072.4574669187145,337.99489791260595 1074.7637051039696,345.9882041977411 1077.0699432892247,332.09347170677114 1079.37618147448,273.6774466800397 1081.6824196597354,262.71052224691584 1083.9886578449905,205.1998212205395 1086.2948960302458,174.81148368852973 1088.6011342155011,186.7584277232279 1090.9073724007562,176.27507834652954 1093.2136105860113,171.39205838460532 1095.5198487712664,207.02024683520472 1097.8260869565217,183.59885907296825 1100.132325141777,163.86483548574017 1102.4385633270322,134.02202030576075 1104.7448015122873,90.0 1107.0510396975424,122.60237308152398 1109.3572778827977,153.81248695719057 1111.663516068053,96.93968631257553 1113.969754253308,136.4901848757139 1116.2759924385634,124.39387753191738 1118.5822306238185,138.24973129422517 1120.8884688090736,129.29291382523343 1123.194706994329,141.80864129670124 1125.500945179584,137.73624317712972 1127.8071833648394,108.34952823778497 1130.1134215500945,119.71543162905641 1132.4196597353498,113.57692777264504 1134.725897920605,123.89512717835873 1137.03213610586,142.17307892422912 1139.3383742911153,154.81844042402452 1141.6446124763706,141.24847871806026 1143.9508506616257,108.65125282125587 1146.257088846881,95.85703899896737 1148.5633270321362,117.1388266117965 1150.8695652173913,138.87921727987646 1153.1758034026466,154.44936790318297 1155.4820415879017,165.3890544883625 1157.788279773157,164.36476006082614 1160.094517958412,156.53782251254063 1162.4007561436672,141.13368997667612 1164.7069943289225,168.48112187730703 1167.0132325141776,158.89752712827124 1169.319470699433,198.1894720640703 1171.625708884688,202.40372084618224 1173.9319470699434,200.09463602462154 1176.2381852551985,235.41511550875452 1178.5444234404536,245.35885785882624 1180.8506616257089,269.62635766156683 1183.156899810964,271.1094928324095 1185.4631379962193,247.33613388743913 1187.7693761814746,249.21427732906324 1190.0756143667297,247.6711922402411 1192.3818525519848,250.10508717925558 1194.6880907372401,238.92640638445312 1196.9943289224952,225.2718243933101 1199.3005671077506,250.41512510075069 1201.6068052930057,275.0104473031575 1203.9130434782608,256.91851821955265 1206.219281663516,260.44674665850323 1208.5255198487712,264.20675016845314 1210.8317580340265,263.87797385420447 1213.1379962192816,253.5208114086701 1215.444234404537,233.13852656385592 1217.750472589792,231.61645584172538 1220.0567107750471,241.68360302510723 1222.3629489603024,206.1789284269804 1224.6691871455575,208.50016422589965 1226.9754253308129,226.2343194195156 1229.2816635160682,256.4769879928604 1231.5879017013233,276.81010835320524 1233.8941398865784,251.7028999803606 1236.2003780718337,332.4157722698254 1238.5066162570888,361.7330776169251 1240.8128544423441,392.8619012766355 1243.1190926275992,389.5029617550921 1245.4253308128546,417.21758269701473 1247.7315689981097,408.06498387951535 1250.0378071833647,415.68104280335507 1252.34404536862,409.4017555214826 1254.6502835538752,434.3648843392414 1256.9565217391305,420.1847943819166 1259.2627599243856,400.37535171230326 1261.5689981096407,389.3382041809159 1263.875236294896,419.05462476907456 1266.181474480151,393.66787031030697 1268.4877126654064,385.5293064855882 1270.7939508506618,351.51353658904014 1273.1001890359169,381.7579337319402 1275.406427221172,380.01047803370864 1277.7126654064273,397.055913099935 1280.0189035916824,413.9899833699151 1282.3251417769377,389.0499085757963 1284.6313799621928,400.41581535568014 1286.9376181474481,366.31384631931115 1289.2438563327032,362.43152307693964 1291.5500945179583,343.3781946170164 1293.8563327032136,343.9353516699199 1296.1625708884687,357.98683171883823 1298.468809073724,332.0022824620413 1300.7750472589792,340.25908106334816 1303.0812854442343,347.7761172788399 1305.3875236294896,341.5322122320474 1307.6937618147447,330.67093539787106 1310.0,337.0481861799196" fill="none" stroke="#9333ea" stroke-width="2.5"><title>budgeted_drawdown_tilt_rebalance | end=2026-05-07 | return=47.93%</title></polyline>
<polyline points="90.0,503.9092411642837 92.3062381852552,504.0064719587849 94.6124763705104,506.40942488768655 96.91871455576559,506.86762804542025 99.2249527410208,505.49237622187434 101.531190926276,504.29549886534903 103.8374291115312,507.9782019914114 106.14366729678639,522.1616718647963 108.44990548204159,519.1477434103044 110.75614366729678,516.7458846298488 113.062381852552,513.0743629311481 115.36862003780718,515.0637126830642 117.67485822306239,497.1860578012621 119.98109640831758,488.52991076736294 122.28733459357278,501.5348023422147 124.59357277882798,488.6948947243162 126.89981096408317,512.3466190229656 129.20604914933838,527.1346073841422 131.51228733459357,522.1133478901304 133.81852551984878,523.5287411979239 136.124763705104,490.18598179375385 138.43100189035917,516.4846987791813 140.73724007561435,522.1439274551753 143.04347826086956,522.9651155672437 145.34971644612477,518.1279114703648 147.65595463137996,504.73958956742325 149.96219281663517,501.6383925515181 152.26843100189035,488.769775040084 154.57466918714556,478.43377474911347 156.88090737240077,457.58943758140117 159.18714555765595,459.9083459362106 161.49338374291113,456.3153326058151 163.79962192816635,480.228689202424 166.10586011342156,486.1474767711154 168.41209829867677,493.5018360590342 170.71833648393192,498.83758433259084 173.02457466918713,492.7731356019414 175.33081285444234,505.43625378768286 177.63705103969755,500.79264136104484 179.94328922495274,506.42020374003437 182.24952741020795,515.9130138870279 184.55576559546313,506.5340391832816 186.86200378071834,535.4736578850225 189.16824196597355,565.0995384909265 191.47448015122873,585.7513482520052 193.78071833648391,582.7302027194387 196.08695652173913,581.1315476560017 198.39319470699434,580.235052214928 200.69943289224955,587.3096504282566 203.0056710775047,595.4001438989104 205.3119092627599,578.2893952540417 207.61814744801512,593.470897398238 209.92438563327033,583.3878907983928 212.23062381852552,591.2700442431346 214.53686200378073,619.6548892435525 216.8431001890359,643.4762479367087 219.14933837429112,667.6712160062979 221.45557655954633,655.406697275032 223.7618147448015,649.2643927704088 226.0680529300567,652.5903508021328 228.3742911153119,660.4535498026976 230.68052930056712,663.0886199079983 232.9867674858223,653.5434489212083 235.2930056710775,648.1510195530577 237.59924385633272,664.4870400772081 239.9054820415879,650.5630780051258 242.21172022684308,629.9658295348908 244.5179584120983,627.3200780262753 246.8241965973535,628.6816522723942 249.1304347826087,625.6052791982981 251.43667296786387,620.3741369988024 253.7429111531191,625.7076115362 256.04914933837426,620.09896527756 258.3553875236295,616.4875880938699 260.6616257088847,611.7540843814143 262.9678638941399,608.049836133931 265.2741020793951,616.0350817153783 267.5803402646503,635.2942770038345 269.88657844990547,630.0818142888963 272.1928166351607,641.6103847441294 274.4990548204159,639.6506249783926 276.80529300567105,638.8495951863821 279.11153119092626,639.65284192313 281.41776937618147,640.3970723974546 283.7240075614367,625.1653272698775 286.0302457466919,639.1558369190228 288.3364839319471,646.3764432081565 290.64272211720225,649.752408324261 292.94896030245746,652.3287340626841 295.2551984877126,655.9702391477899 297.56143667296783,651.8583276506994 299.86767485822304,653.2665454142491 302.17391304347825,647.1402743818319 304.48015122873346,651.6150702983167 306.7863894139887,654.8725607274454 309.0926275992439,654.0254533423387 311.3988657844991,653.7007306873489 313.70510396975425,655.1226289462035 316.0113421550094,653.6006053582166 318.31758034026467,644.1634474730586 320.6238185255198,638.2899467122643 322.93005671077503,637.991009626188 325.23629489603024,640.8163591813366 327.54253308128546,636.507359941447 329.84877126654067,675.4483856656423 332.1550094517959,665.597516670714 334.46124763705103,665.3613909827721 336.7674858223062,667.8045701412062 339.07372400756145,675.7256062326852 341.3799621928166,668.5033800183738 343.6862003780718,669.5547687786517 345.992438563327,662.4632949432257 348.29867674858224,665.7604212116938 350.60491493383745,663.733436151016 352.91115311909266,663.9044916411493 355.2173913043478,663.063490466075 357.523629489603,662.8604621837165 359.82986767485824,668.6890286955662 362.1361058601134,667.1137968470371 364.44234404536866,666.7946780951956 366.7485822306238,667.7303003898396 369.054820415879,668.6049976181921 371.36105860113423,667.7461903958736 373.6672967863894,665.6032582357864 375.9735349716446,662.8276844588778 378.2797731568998,655.5400961080568 380.586011342155,637.0622631051287 382.8922495274102,635.7162210960408 385.19848771266544,625.8748208310194 387.5047258979206,626.1738645092413 389.8109640831758,626.8531243077174 392.117202268431,622.1583914747147 394.42344045368617,622.3129598661649 396.72967863894144,622.9158484051824 399.0359168241966,623.068038215012 401.3421550094518,635.9091008389016 403.648393194707,635.549759648278 405.95463137996217,623.3551916562794 408.2608695652174,618.598946283718 410.5671077504726,620.5005649227256 412.87334593572774,626.5305459150275 415.17958412098295,626.1440792192977 417.4858223062382,630.7210446213508 419.79206049149343,630.6648906135497 422.0982986767486,643.9855966136756 424.4045368620038,630.3446173936161 426.710775047259,619.1735001908188 429.01701323251416,604.5138039492748 431.32325141776937,597.8821233328291 433.6294896030246,602.9772847288651 435.93572778827973,605.7947400510852 438.241965973535,599.1143358086202 440.5482041587902,598.4402591058679 442.85444234404537,593.8686308364754 445.1606805293006,597.1221011638553 447.4669187145558,586.4398178775706 449.77315689981094,576.8351426310321 452.07939508506615,582.0326978241183 454.38563327032136,592.1852548814851 456.6918714555765,598.0885000246064 458.9981096408318,594.5931061101221 461.304347826087,589.6136928147807 463.61058601134215,593.3858077098396 465.91682419659736,584.9411456260392 468.22306238185257,598.2051210760279 470.5293005671077,603.2040801011036 472.83553875236294,603.233061768764 475.14177693761815,600.4266411253502 477.4480151228733,601.6944096304827 479.75425330812857,599.8575847723422 482.0604914933838,602.9283850611176 484.36672967863893,596.2127318621278 486.67296786389414,601.0942440843187 488.97920604914935,598.7996099425388 491.2854442344045,604.2219624797945 493.5916824196597,609.4279295632334 495.89792060491493,609.6548132834107 498.2041587901701,608.9994626313078 500.5103969754253,606.1818413712965 502.81663516068056,588.5913388956752 505.1228733459357,585.1157515330174 507.4291115311909,589.6670897964439 509.73534971644614,583.6982124650144 512.0415879017013,582.4694477510079 514.3478260869565,586.7880368610237 516.6540642722117,586.1262394127875 518.9603024574669,576.8774035210851 521.266540642722,585.0638172441128 523.5727788279773,587.7788256783625 525.8790170132326,589.1558431882892 528.1852551984878,591.7847720817717 530.4914933837429,590.7432507833516 532.7977315689982,591.8151022357919 535.1039697542533,592.9197141182906 537.4102079395085,593.7269615729463 539.7164461247637,590.584220017087 542.0226843100188,591.362372015263 544.3289224952741,593.2267850979474 546.6351606805293,612.2776414938172 548.9413988657845,611.7408293850762 551.2476370510396,611.868389543657 553.553875236295,612.269471489305 555.8601134215501,605.5289986968886 558.1663516068053,613.9916393069678 560.4725897920605,614.4436873022003 562.7788279773156,613.8761251170814 565.0850661625709,620.2923098382922 567.3913043478261,611.7643191339325 569.6975425330813,611.9485853707686 572.0037807183364,609.6346090382947 574.3100189035918,612.9369480072539 576.6162570888469,614.4341805508551 578.9224952741021,608.6595251392796 581.2287334593573,606.4936921802189 583.5349716446124,608.9289404581702 585.8412098298677,605.9755092082183 588.1474480151229,612.9110994757234 590.4536862003781,613.4519315538416 592.7599243856332,606.8935603998741 595.0661625708885,600.2482424143328 597.3724007561436,580.2701197407482 599.6786389413988,574.546039378458 601.984877126654,573.3683304690894 604.2911153119093,567.6821187494747 606.5973534971645,568.6870946829234 608.9035916824197,566.2208745731343 611.2098298676749,550.8555304539159 613.51606805293,555.2026991680714 615.8223062381853,560.1977595875932 618.1285444234405,553.2929736482281 620.4347826086956,551.0592513375113 622.7410207939508,548.7375101579045 625.047258979206,550.0331144373159 627.3534971644613,545.0222037884192 629.6597353497165,525.7750371032753 631.9659735349717,516.0641451599912 634.2722117202268,514.2179270345439 636.578449905482,521.526131875845 638.8846880907373,525.439910967782 641.1909262759924,527.3627770203 643.4971644612476,514.411048514757 645.8034026465028,518.3122935653863 648.109640831758,519.0868731021556 650.4158790170133,523.0169780986208 652.7221172022685,523.8265917435532 655.0283553875236,518.0202240298756 657.3345935727788,505.16984054423847 659.6408317580341,510.60253474229677 661.9470699432892,512.2248622855682 664.2533081285444,518.6063367657014 666.5595463137996,518.1929164252929 668.8657844990548,533.394473799095 671.17202268431,524.1514368418614 673.4782608695652,517.6583300322934 675.7844990548203,518.3968031232695 678.0907372400756,520.7453439118275 680.3969754253309,505.41743329697823 682.703213610586,490.25895859821657 685.0094517958412,464.764594466836 687.3156899810964,465.0427810806186 689.6219281663516,452.20878073213345 691.9281663516068,462.1234234900244 694.234404536862,436.0214296974562 696.5406427221171,404.2974722603253 698.8468809073723,390.1393164224189 701.1531190926277,363.62999884706124 703.4593572778829,350.83157844040426 705.7655954631381,337.1492864210719 708.0718336483932,355.76849375277897 710.3780718336484,373.6883005034629 712.6843100189036,382.3823767011659 714.9905482041588,378.440021946047 717.296786389414,368.4134096754117 719.6030245746692,367.3489416909195 721.9092627599243,393.25026379328955 724.2155009451795,382.95518547248446 726.5217391304348,351.02100616112335 728.82797731569,366.1419366813655 731.1342155009452,398.0202572534676 733.4404536862004,422.2346888861135 735.7466918714555,400.87759636275274 738.0529300567107,392.7554133559715 740.3591682419659,406.47721224020256 742.6654064272212,401.8701814758913 744.9716446124764,429.830086233027 747.2778827977316,405.15620855570955 749.5841209829869,423.22033380381754 751.890359168242,427.48774833812615 754.1965973534972,426.52888437873816 756.5028355387524,396.8291779014238 758.8090737240076,353.36641420644884 761.1153119092628,359.5879414220736 763.421550094518,355.5566862928165 765.7277882797731,361.7946157501807 768.0340264650283,358.73733578097443 770.3402646502835,349.21733253962043 772.6465028355387,360.12456887061893 774.952741020794,360.03536399144684 777.2589792060492,379.35119358087104 779.5652173913043,372.1633864555911 781.8714555765595,381.122644637441 784.1776937618147,386.8746547624353 786.48393194707,400.3489857587613 788.7901701323252,406.41668904815526 791.0964083175804,394.5024662349771 793.4026465028355,433.60283758996644 795.7088846880907,444.17783049576417 798.015122873346,429.20436084545844 800.3213610586012,420.14757215001276 802.6275992438564,386.36144305603773 804.9338374291116,377.82025406167423 807.2400756143667,378.22129485649316 809.5463137996219,398.2392800927712 811.8525519848771,384.9013861955779 814.1587901701323,399.23265210372887 816.4650283553875,429.9447856957171 818.7712665406427,468.74596193013025 821.0775047258978,445.19283510271924 823.383742911153,443.812872134015 825.6899810964082,457.99278762075636 827.9962192816636,452.74100900418574 830.3024574669188,442.5298115382512 832.608695652174,425.048131779416 834.9149338374291,457.47412569716255 837.2211720226843,455.0287063818082 839.5274102079395,454.3017221295651 841.8336483931947,473.3624282418098 844.1398865784499,481.38884196140145 846.4461247637051,470.74251837688894 848.7523629489604,457.6392922134812 851.0586011342155,460.6259988764748 853.3648393194707,439.2264242775984 855.6710775047259,434.3340994699128 857.9773156899811,428.8485370402013 860.2835538752363,426.08045236457974 862.5897920604915,458.4053303412976 864.8960302457466,450.9205090847647 867.2022684310018,449.3665460235416 869.5085066162571,448.05891010470526 871.8147448015123,426.03599504021446 874.1209829867676,422.7585257628173 876.4272211720228,409.85453547056073 878.7334593572779,429.8415564089444 881.0396975425331,430.6807950654901 883.3459357277883,402.9820558038334 885.6521739130435,420.73875918937216 887.9584120982987,432.32729238235237 890.2646502835539,378.47479963003985 892.570888468809,348.0089927117715 894.8771266540642,313.6035852407738 897.1833648393194,316.1311890217426 899.4896030245746,311.2167816216327 901.7958412098299,277.29921929646787 904.1020793950851,293.3563284268764 906.4083175803402,275.66776521825 908.7145557655954,263.39057081268976 911.0207939508506,251.4287994402144 913.3270321361059,239.25095144631018 915.6332703213611,269.46058031440475 917.9395085066163,238.96348074184164 920.2457466918714,219.40051362524008 922.5519848771266,278.54864806922023 924.8582230623819,293.4578168774401 927.1644612476371,267.73818073654473 929.4706994328923,286.6725867349382 931.7769376181475,296.1831331934484 934.0831758034026,265.2695439280512 936.3894139886578,247.40171168683406 938.695652173913,304.7651654001073 941.0018903591682,295.79996221466763 943.3081285444234,266.05717214004176 945.6143667296786,261.7887084172221 947.9206049149338,254.92632116834386 950.226843100189,260.13652364806387 952.5330812854442,276.30312580363494 954.8393194706995,263.99710763832206 957.1455576559547,308.0416324205055 959.4517958412099,315.9461567606756 961.7580340264651,325.25866072496177 964.0642722117202,329.24036203643124 966.3705103969754,316.6514334418588 968.6767485822306,321.1920222326681 970.9829867674858,313.2643998009849 973.289224952741,315.3720746883647 975.5954631379963,381.87625514921314 977.9017013232514,382.32943586368265 980.2079395085066,380.9517966550313 982.5141776937618,384.23485015436836 984.820415879017,426.22415077070275 987.1266540642722,418.12399097815654 989.4328922495274,412.04518600673686 991.7391304347825,388.5763535466367 994.0453686200377,402.62243900121115 996.351606805293,386.2620592628934 998.6578449905483,405.6725456658369 1000.9640831758035,415.79382973977187 1003.2703213610587,414.059496512865 1005.5765595463138,442.84156940630925 1007.882797731569,424.22712454048616 1010.1890359168242,417.07144801585287 1012.4952741020794,425.4581499299722 1014.8015122873346,422.7761708003296 1017.1077504725898,413.4765336773052 1019.4139886578449,381.831637542905 1021.7202268431001,381.3940033908027 1024.0264650283552,379.9957346775677 1026.3327032136106,372.3339050571343 1028.6389413988659,370.15325365505475 1030.945179584121,320.585328611465 1033.2514177693763,312.6829217026822 1035.5576559546312,306.5231726154175 1037.8638941398865,300.75499013941953 1040.1701323251418,287.3777601484926 1042.476370510397,294.66618424215045 1044.7826086956522,283.46268598826714 1047.0888468809076,306.6852476425847 1049.3950850661627,296.3083773492973 1051.7013232514178,321.17724536580073 1054.0075614366729,302.2587924107788 1056.3137996219282,278.22278730367316 1058.6200378071835,302.08605007281415 1060.9262759924386,306.0961469297325 1063.2325141776937,316.0268355964432 1065.5387523629488,308.95277466714555 1067.8449905482041,303.53507417770703 1070.1512287334594,294.47559770585633 1072.4574669187145,288.88629309233926 1074.7637051039696,294.00266025049024 1077.0699432892247,286.09902934392204 1079.37618147448,239.06527402465383 1081.6824196597354,228.6117291164631 1083.9886578449905,204.2308714419221 1086.2948960302458,194.63731232024304 1088.6011342155011,197.4854352519386 1090.9073724007562,193.2750507537255 1093.2136105860113,190.28446403199723 1095.5198487712664,223.3674904895703 1097.8260869565217,202.94291266661446 1100.132325141777,183.25669402987205 1102.4385633270322,154.96886001589075 1104.7448015122873,109.31143838253581 1107.0510396975424,148.01506647867518 1109.3572778827977,184.52418943226246 1111.663516068053,121.47482555980321 1113.969754253308,171.08527847313917 1116.2759924385634,155.2581188247542 1118.5822306238185,175.11971313802724 1120.8884688090736,161.5215335674194 1123.194706994329,177.7752683178345 1125.500945179584,171.754515551056 1127.8071833648394,132.16409833963382 1130.1134215500945,146.92153492706097 1132.4196597353498,137.91211734526541 1134.725897920605,152.37351228036323 1137.03213610586,177.1813398362807 1139.3383742911153,195.97952485140877 1141.6446124763706,175.73115717562632 1143.9508506616257,128.46155675788657 1146.257088846881,110.4281691582504 1148.5633270321362,139.93136784239152 1150.8695652173913,172.11172339449627 1153.1758034026466,194.89856171950441 1155.4820415879017,211.03447302248287 1157.788279773157,209.1587872377118 1160.094517958412,197.74303250685966 1162.4007561436672,176.58202478248415 1164.7069943289225,214.26497947482312 1167.0132325141776,200.92013295332674 1169.319470699433,254.32674033147572 1171.625708884688,260.2741804833443 1173.9319470699434,257.15835216157814 1176.2381852551985,302.5093893748868 1178.5444234404536,314.94225693484555 1180.8506616257089,344.34530336752135 1183.156899810964,345.80162912302865 1185.4631379962193,319.3930414896945 1187.7693761814746,321.10907109970606 1190.0756143667297,319.35890731166097 1192.3818525519848,322.6658587711763 1194.6880907372401,311.61386334517846 1196.9943289224952,298.2685265407889 1199.3005671077506,322.779362520964 1201.6068052930057,345.09307392462284 1203.9130434782608,328.7876230820587 1206.219281663516,332.18591875934993 1208.5255198487712,335.3089417174019 1210.8317580340265,335.1538729622136 1213.1379962192816,325.92349600871603 1215.444234404537,308.03078202959995 1217.750472589792,306.9365523587923 1220.0567107750471,315.4749666835539 1222.3629489603024,284.34362663791666 1224.6691871455575,286.13322311535245 1226.9754253308129,301.9122538657552 1229.2816635160682,327.770091467884 1231.5879017013233,345.4851783588035 1233.8941398865784,324.36879042362585 1236.2003780718337,393.54319300180754 1238.5066162570888,417.68366463449445 1240.8128544423441,443.81416522114745 1243.1190926275992,441.84898329074286 1245.4253308128546,463.880176651826 1247.7315689981097,455.57903751113224 1250.0378071833647,462.6581192174728 1252.34404536862,457.2393727618574 1254.6502835538752,476.5411524982344 1256.9565217391305,466.027131557287 1259.2627599243856,450.87634461717306 1261.5689981096407,442.0396153437379 1263.875236294896,465.1912128244698 1266.181474480151,445.3825969427099 1268.4877126654064,439.3689715870646 1270.7939508506618,415.8042129699556 1273.1001890359169,437.68618877642444 1275.406427221172,436.2517048626904 1277.7126654064273,448.73219585292304 1280.0189035916824,461.8222858142142 1282.3251417769377,444.4529309844577 1284.6313799621928,452.1881919083921 1286.9376181474481,426.98678335360296 1289.2438563327032,423.60303406312636 1291.5500945179583,410.5765510613152 1293.8563327032136,410.27117083839266 1296.1625708884687,420.10468064194976 1298.468809073724,400.19824541253087 1300.7750472589792,405.76928466588356 1303.0812854442343,411.5858455171222 1305.3875236294896,406.0240716232395 1307.6937618147447,397.91388996702676 1310.0,401.659753997553" fill="none" stroke="#92400e" stroke-width="2.5"><title>budgeted_btc_defensive_eth_aggressive | end=2026-05-07 | return=29.37%</title></polyline>
</svg>