<svg xmlns="http://www.w3.org/2000/svg" width="1400" height="800">
<rect width="1400" height="800" fill="#f8fafc"/>
<text x="700.0" y="42" text-anchor="middle" font-family="monospace" font-size="24" fill="#0f172a">Portfolio Value Over Time | start=2026-01-01 | interval=3d</text>
<line x1="90" y1="710" x2="1310" y2="710" stroke="#334155" stroke-width="2"/>
<line x1="90" y1="90" x2="90" y2="710" stroke="#334155" stroke-width="2"/>
<line x1="90.0" y1="710" x2="90.0" y2="90" stroke="#cbd5e1" stroke-width="1"/>
<text x="90.0" y="734" text-anchor="middle" font-family="monospace" font-size="11" fill="#475569">2026-01-01</text>
<line x1="90" y1="710.0" x2="1310" y2="710.0" stroke="#cbd5e1" stroke-width="1"/>
<text x="78" y="714.0" text-anchor="end" font-family="monospace" font-size="12" fill="#475569">8508</text>
<line x1="334.0" y1="710" x2="334.0" y2="90" stroke="#cbd5e1" stroke-width="1"/>
<text x="334.0" y="734" text-anchor="middle" font-family="monospace" font-size="11" fill="#475569">2026-01-25</text>
<line x1="90" y1="586.0" x2="1310" y2="586.0" stroke="#cbd5e1" stroke-width="1"/>
<text x="78" y="590.0" text-anchor="end" font-family="monospace" font-size="12" fill="#475569">8881</text>
<line x1="578.0" y1="710" x2="578.0" y2="90" stroke="#cbd5e1" stroke-width="1"/>
<text x="578.0" y="734" text-anchor="middle" font-family="monospace" font-size="11" fill="#475569">2026-02-21</text>
<line x1="90" y1="462.0" x2="1310" y2="462.0" stroke="#cbd5e1" stroke-width="1"/>
<text x="78" y="466.0" text-anchor="end" font-family="monospace" font-size="12" fill="#475569">9255</text>
<line x1="822.0" y1="710" x2="822.0" y2="90" stroke="#cbd5e1" stroke-width="1"/>
<text x="822.0" y="734" text-anchor="middle" font-family="monospace" font-size="11" fill="#475569">2026-03-17</text>
<line x1="90" y1="338.0" x2="1310" y2="338.0" stroke="#cbd5e1" stroke-width="1"/>
<text x="78" y="342.0" text-anchor="end" font-family="monospace" font-size="12" fill="#475569">9628</text>
<line x1="1066.0" y1="710" x2="1066.0" y2="90" stroke="#cbd5e1" stroke-width="1"/>
<text x="1066.0" y="734" text-anchor="middle" font-family="monospace" font-size="11" fill="#475569">2026-04-13</text>
<line x1="90" y1="214.0" x2="1310" y2="214.0" stroke="#cbd5e1" stroke-width="1"/>
<text x="78" y="218.0" text-anchor="end" font-family="monospace" font-size="12" fill="#475569">10001</text>
<line x1="1310.0" y1="710" x2="1310.0" y2="90" stroke="#cbd5e1" stroke-width="1"/>
<text x="1310.0" y="734" text-anchor="middle" font-family="monospace" font-size="11" fill="#475569">2026-05-07</text>
<line x1="90" y1="90.0" x2="1310" y2="90.0" stroke="#cbd5e1" stroke-width="1"/>
<text x="78" y="94.0" text-anchor="end" font-family="monospace" font-size="12" fill="#475569">10374</text>
<text x="700.0" y="782" text-anchor="middle" font-family="monospace" font-size="16" fill="#0f172a">time</text>
<text x="24" y="400.0" transform="rotate(-90 24,400.0)" text-anchor="middle" font-family="monospace" font-size="16" fill="#0f172a">portfolio_value_usd</text>
<line x1="970" y1="80" x2="988" y2="80" stroke="#0f766e" stroke-width="3"/>
<text x="998" y="84" font-family="monospace" font-size="12" fill="#0f172a">budgeted_static_50_50_rebalance</text>
<line x1="970" y1="104" x2="988" y2="104" stroke="#9333ea" stroke-width="3"/>
<text x="998" y="108" font-family="monospace" font-size="12" fill="#0f172a">budgeted_drawdown_tilt_rebalance</text>
<line x1="970" y1="128" x2="988" y2="128" stroke="#92400e" stroke-width="3"/>
<text x="998" y="132" font-family="monospace" font-size="12" fill="#0f172a">budgeted_btc_defensive_eth_aggressive</text>
<polyline points="90.0,214.37000950628652 119.04761904761905,211.2360319133117 148.0952380952381,210.84137887200126 177.14285714285714,215.23305371448555 206.1904761904762,194.01413220507925 235.23809523809524,195.56226990279765 264.2857142857143,211.32625174527317 293.3333333333333,241.68062449828585 322.3809523809524,265.4849558973321 351.4285714285714,233.03933737944385 380.4761904761905,350.95070102106354 409.5238095238095,397.35272364782645 438.57142857142856,452.6519891453764 467.61904761904765,447.55475878011424 496.66666666666663,504.8285520814485 525.7142857142858,482.078233836756 554.7619047619048,502.9233217880493 583.8095238095239,485.4035013465368 612.8571428571428,554.3044254338884 641.9047619047619,513.5767666110461 670.952380952381,451.6172359747851 700.0,413.89264707169815 729.047619047619,518.8942541271301 758.0952380952382,424.17573599736886 787.1428571428571,393.46645850162867 816.1904761904761,264.69512716411094 845.2380952380953,387.045868506842 874.2857142857143,379.04939204830214 903.3333333333333,454.326623909476 932.3809523809524,534.8782685895749 961.4285714285714,419.43324199050414 990.4761904761905,473.1018886135508 1019.5238095238095,297.5978543435987 1048.5714285714284,274.78647969036297 1077.6190476190477,178.0327821296953 1106.6666666666667,177.62114028243138 1135.7142857142856,250.0563848609604 1164.7619047619048,107.56025551494201 1193.8095238095239,149.33470602257034 1222.857142857143,190.77889026666423 1251.904761904762,153.22960512608677 1280.952380952381,94.62761493688072 1310.0,124.77237045838194" fill="none" stroke="#0f766e" stroke-width="2.5"><title>budgeted_static_50_50_rebalance | end=2026-05-07 | return=2.70%</title></polyline>
<polyline points="90.0,214.37000950628652 119.04761904761905,210.1119700761472 148.0952380952381,209.49619418107994 177.14285714285714,215.57764791554752 206.1904761904762,186.88077665552066 235.23809523809524,189.1737866083496 264.2857142857143,210.24455918670952 293.3333333333333,252.00052838555854 322.3809523809524,284.1601202279901 351.4285714285714,239.47004700672528 380.4761904761905,399.7785025569365 409.5238095238095,463.79990421739683 438.57142857142856,539.4529046496727 467.61904761904765,530.7989457779054 496.66666666666663,613.3121748039248 525.7142857142858,582.7322750468545 554.7619047619048,610.5537090044622 583.8095238095239,586.0467969337549 612.8571428571428,688.7443413345264 641.9047619047619,626.3233669620644 670.952380952381,532.2295321900394 700.0,475.9807128718089 729.047619047619,635.484027977519 758.0952380952382,491.0528048941051 787.1428571428571,443.9079035303478 816.1904761904761,243.46461999899861 845.2380952380953,425.9556244247487 874.2857142857143,415.0309313059021 903.3333333333333,521.603633750264 932.3809523809524,629.3062151164212 961.4285714285714,470.0798509162354 990.4761904761905,542.6317626281273 1019.5238095238095,322.91981824532314 1048.5714285714284,297.4683453828525 1077.6190476190477,175.3867845805147 1106.6666666666667,178.39512316059484 1135.7142857142856,268.6304678453319 1164.7619047619048,100.12526442447552 1193.8095238095239,153.4047626521102 1222.857142857143,202.61714771232278 1251.904761904762,161.42862039539614 1280.952380952381,90.0 1310.0,131.93528347031418" fill="none" stroke="#9333ea" stroke-width="2.5"><title>budgeted_drawdown_tilt_rebalance | end=2026-05-07 | return=2.48%</title></polyline>
<polyline points="90.0,214.37000950628652 119.04761904761905,209.86654790803016 148.0952380952381,209.5067224122833 177.14285714285714,215.48575372087225 206.1904761904762,184.73682038264974 235.23809523809524,186.43789555328942 264.2857142857143,209.9439549267131 293.3333333333333,251.99512945107148 322.3809523809524,286.6083251467373 351.4285714285714,241.53471488831565 380.4761904761905,410.66984083992696 409.5238095238095,475.11172936283015 438.57142857142856,558.1510661381541 467.61904761904765,553.5619256822666 496.66666666666663,637.5914088800308 525.7142857142858,599.204118226028 554.7619047619048,635.2211484428353 583.8095238095239,606.5199702733513 612.8571428571428,710.0 641.9047619047619,650.8724117588122 670.952380952381,558.4042296360018 700.0,501.2331841496093 729.047619047619,651.8050220081433 758.0952380952382,520.4853259722613 787.1428571428571,481.3885234546707 816.1904761904761,332.73843339080094 845.2380952380953,474.3991509627675 874.2857142857143,464.528090015342 903.3333333333333,546.0606919189765 932.3809523809524,633.9671584180121 961.4285714285714,522.8954017006877 990.4761904761905,571.912144924384 1019.5238095238095,404.2753558430559 1048.5714285714284,379.8801354606832 1077.6190476190477,297.01954308500666 1106.6666666666667,292.32013760891425 1135.7142857142856,355.8663687799162 1164.7619047619048,220.47573445172878 1193.8095238095239,255.66448196426592 1222.857142857143,295.43215299690723 1251.904761904762,254.81676000392702 1280.952380952381,200.3359722181562 1310.0,221.86516806689485" fill="none" stroke="#92400e" stroke-width="2.5"><title>budgeted_btc_defensive_eth_aggressive | end=2026-05-07 | return=-0.23%</title></polyline>
</svg>