<svg xmlns="http://www.w3.org/2000/svg" width="1400" height="800">
<rect width="1400" height="800" fill="#f8fafc"/>
<text x="700.0" y="42" text-anchor="middle" font-family="monospace" font-size="24" fill="#0f172a">Portfolio Value Over Time | start=2022-10-01 | interval=7d</text>
<line x1="90" y1="710" x2="1310" y2="710" stroke="#334155" stroke-width="2"/>
<line x1="90" y1="90" x2="90" y2="710" stroke="#334155" stroke-width="2"/>
<line x1="90.0" y1="710" x2="90.0" y2="90" stroke="#cbd5e1" stroke-width="1"/>
<text x="90.0" y="734" text-anchor="middle" font-family="monospace" font-size="11" fill="#475569">2022-10-01</text>
<line x1="90" y1="710.0" x2="1310" y2="710.0" stroke="#cbd5e1" stroke-width="1"/>
<text x="78" y="714.0" text-anchor="end" font-family="monospace" font-size="12" fill="#475569">9572</text>
<line x1="334.0" y1="710" x2="334.0" y2="90" stroke="#cbd5e1" stroke-width="1"/>
<text x="334.0" y="734" text-anchor="middle" font-family="monospace" font-size="11" fill="#475569">2023-06-24</text>
<line x1="90" y1="586.0" x2="1310" y2="586.0" stroke="#cbd5e1" stroke-width="1"/>
<text x="78" y="590.0" text-anchor="end" font-family="monospace" font-size="12" fill="#475569">16112</text>
<line x1="578.0" y1="710" x2="578.0" y2="90" stroke="#cbd5e1" stroke-width="1"/>
<text x="578.0" y="734" text-anchor="middle" font-family="monospace" font-size="11" fill="#475569">2024-03-09</text>
<line x1="90" y1="462.0" x2="1310" y2="462.0" stroke="#cbd5e1" stroke-width="1"/>
<text x="78" y="466.0" text-anchor="end" font-family="monospace" font-size="12" fill="#475569">22652</text>
<line x1="822.0" y1="710" x2="822.0" y2="90" stroke="#cbd5e1" stroke-width="1"/>
<text x="822.0" y="734" text-anchor="middle" font-family="monospace" font-size="11" fill="#475569">2024-11-30</text>
<line x1="90" y1="338.0" x2="1310" y2="338.0" stroke="#cbd5e1" stroke-width="1"/>
<text x="78" y="342.0" text-anchor="end" font-family="monospace" font-size="12" fill="#475569">29191</text>
<line x1="1066.0" y1="710" x2="1066.0" y2="90" stroke="#cbd5e1" stroke-width="1"/>
<text x="1066.0" y="734" text-anchor="middle" font-family="monospace" font-size="11" fill="#475569">2025-08-16</text>
<line x1="90" y1="214.0" x2="1310" y2="214.0" stroke="#cbd5e1" stroke-width="1"/>
<text x="78" y="218.0" text-anchor="end" font-family="monospace" font-size="12" fill="#475569">35731</text>
<line x1="1310.0" y1="710" x2="1310.0" y2="90" stroke="#cbd5e1" stroke-width="1"/>
<text x="1310.0" y="734" text-anchor="middle" font-family="monospace" font-size="11" fill="#475569">2026-05-09</text>
<line x1="90" y1="90.0" x2="1310" y2="90.0" stroke="#cbd5e1" stroke-width="1"/>
<text x="78" y="94.0" text-anchor="end" font-family="monospace" font-size="12" fill="#475569">42271</text>
<text x="700.0" y="782" text-anchor="middle" font-family="monospace" font-size="16" fill="#0f172a">time</text>
<text x="24" y="400.0" transform="rotate(-90 24,400.0)" text-anchor="middle" font-family="monospace" font-size="16" fill="#0f172a">portfolio_value_usd</text>
<line x1="970" y1="80" x2="988" y2="80" stroke="#0f766e" stroke-width="3"/>
<text x="998" y="84" font-family="monospace" font-size="12" fill="#0f172a">budgeted_static_50_50_rebalance</text>
<line x1="970" y1="104" x2="988" y2="104" stroke="#9333ea" stroke-width="3"/>
<text x="998" y="108" font-family="monospace" font-size="12" fill="#0f172a">budgeted_drawdown_tilt_rebalance</text>
<line x1="970" y1="128" x2="988" y2="128" stroke="#92400e" stroke-width="3"/>
<text x="998" y="132" font-family="monospace" font-size="12" fill="#0f172a">budgeted_btc_defensive_eth_aggressive</text>
<polyline points="90.0,701.88588039094 96.48936170212767,701.8667638708934 102.97872340425532,702.0895037240977 109.46808510638297,701.8367281072626 115.95744680851064,698.9361956423497 122.4468085106383,698.6006966129646 128.93617021276594,705.3500005927522 135.4255319148936,705.8851577297585 141.91489361702128,706.2605831736964 148.40425531914894,705.2251554969564 154.8936170212766,704.4905753227354 161.38297872340425,706.4704705141718 167.8723404255319,705.6888698369348 174.36170212765958,706.7662352026217 180.85106382978722,704.3403279406673 187.3404255319149,689.1015958509062 193.82978723404256,683.2602196699863 200.31914893617022,684.3517052691411 206.8085106382979,680.7769513643618 213.29787234042553,688.2814009418024 219.7872340425532,676.4335990409863 226.27659574468083,683.5434732478411 232.7659574468085,686.6648135661374 239.25531914893617,694.4982593586724 245.7446808510638,665.5304989952181 252.2340425531915,664.863787545463 258.72340425531917,658.6543183230788 265.21276595744683,659.0023827970235 271.70212765957444,640.7771656259631 278.1914893617021,658.774208712174 284.6808510638298,652.4602931254246 291.17021276595744,654.0276552252541 297.6595744680851,666.1000305029313 304.1489361702128,663.830027867655 310.63829787234044,664.1165172393986 317.1276595744681,660.3231072993793 323.6170212765958,671.4329398638655 330.10638297872345,670.4838519694894 336.59574468085106,649.2782838329366 343.0851063829787,646.6771638651267 349.5744680851064,650.6481094806859 356.06382978723406,647.2105822117476 362.55319148936167,652.2132297375471 369.04255319148933,652.9348612151375 375.531914893617,656.2993187657813 382.0212765957447,654.3524481578538 388.51063829787233,674.3705154815963 395.0,675.8646700527629 401.4893617021276,676.8231937112905 407.97872340425533,676.8121427027583 414.468085106383,674.5997153493915 420.9574468085106,676.7296137391039 427.44680851063833,671.3694670023909 433.93617021276594,669.9577868698826 440.42553191489367,677.9164974343585 446.9148936170213,663.8768861940297 453.40425531914894,642.3959968378281 459.8936170212766,634.7378891711522 466.3829787234043,617.4191601876689 472.8723404255319,624.0601958786192 479.3617021276596,613.7483842721845 485.8510638297872,604.1830120211742 492.3404255319149,581.792473636118 498.82978723404256,592.3855436333141 505.3191489361702,583.5250333442791 511.8085106382979,589.205618082184 518.2978723404256,586.3701162244037 524.7872340425531,571.6248129023121 531.2765957446809,580.8077248861329 537.7659574468084,590.0934036700626 544.2553191489362,586.0102530876284 550.7446808510638,561.1902925717598 557.2340425531916,534.7335660939327 563.7234042553191,524.191513513463 570.2127659574469,471.664261048168 576.7021276595744,428.13415752326443 583.1914893617021,457.2684454960273 589.6808510638298,470.3935306176586 596.1702127659574,445.88082613577535 602.6595744680851,455.6611468949544 609.1489361702128,486.3578273784592 615.6382978723404,476.186551865248 622.1276595744681,475.22485071578444 628.6170212765958,481.07078486889986 635.1063829787233,499.98355197443067 641.5957446808511,472.7193292249269 648.0851063829787,433.20236263867844 654.5744680851063,433.9816226627829 661.063829787234,436.58279132987553 667.5531914893617,450.704544125062 674.0425531914894,459.61624413513437 680.531914893617,474.71331193851825 687.0212765957447,497.33869211468334 693.5106382978723,489.1111988870376 700.0,450.1392985738702 706.4893617021277,461.84244666934353 712.9787234042552,499.14861570666244 719.468085106383,513.8677847961153 725.9574468085107,517.4258030071309 732.4468085106382,496.5860095357639 738.936170212766,524.5210655310302 745.4255319148937,550.6384783318292 751.9148936170212,527.1346089595529 758.4042553191489,507.04434443610825 764.8936170212767,497.0393918413223 771.3829787234042,522.0107789980667 777.8723404255319,515.5045926645262 784.3617021276596,492.34066848976306 790.8510638297873,505.8139831084512 797.3404255319149,499.2832141081227 803.8297872340426,442.2802087264162 810.3191489361702,408.89562032434975 816.8085106382979,376.0501260526126 823.2978723404256,360.18910322480343 829.7872340425532,334.503762018645 836.2765957446808,339.03579219809717 842.7659574468086,380.1036767116048 849.2553191489362,381.0829831862345 855.7446808510638,358.7002865012235 862.2340425531914,389.18063139636405 868.7234042553192,366.26830340461464 875.2127659574468,364.7383112549232 881.7021276595744,386.1416219893383 888.1914893617021,425.7782393829113 894.6808510638298,419.4549999919154 901.1702127659574,416.8384022888369 907.6595744680851,475.535848938162 914.1489361702127,476.1001043811938 920.6382978723404,498.9480854489551 927.1276595744681,496.7552003259253 933.6170212765958,510.9143964815945 940.1063829787233,510.9700905857615 946.5957446808511,520.7450560950988 953.0851063829788,523.7332246830974 959.5744680851063,487.65841530689136 966.063829787234,484.3738653954306 972.5531914893618,401.8783250649626 979.0425531914893,414.2137078947966 985.531914893617,401.0233527066135 992.0212765957448,406.932874347262 998.5106382978723,405.40142830404636 1005.0,405.2090135810314 1011.4893617021277,430.2407439566815 1017.9787234042552,409.4351706153062 1024.4680851063831,401.38285277262014 1030.9574468085107,350.37040263780676 1037.4468085106382,298.3306071247605 1043.936170212766,286.8344530724379 1050.4255319148938,323.2971971400454 1056.9148936170213,251.95039198054332 1063.404255319149,238.50403041761416 1069.8936170212767,218.5190895791983 1076.3829787234042,258.875316096341 1082.872340425532,262.48904936320264 1089.3617021276596,224.83266469311104 1095.8510638297873,237.00477587319057 1102.340425531915,279.19879086606306 1108.8297872340427,221.66874410451834 1115.3191489361702,293.1150684929767 1121.8085106382978,292.2163462672846 1128.2978723404256,278.3031680834018 1134.7872340425533,287.0223943542989 1141.276595744681,333.6664317047658 1147.7659574468084,363.4855270032147 1154.2553191489362,413.41022643922224 1160.7446808510638,385.0288862316394 1167.2340425531916,385.24660244071254 1173.723404255319,377.9514208039895 1180.2127659574467,391.5542007351281 1186.7021276595744,394.73055740755314 1193.1914893617022,376.3996564413799 1199.6808510638298,379.7640181533604 1206.1702127659573,353.87040609730826 1212.659574468085,391.53335262563417 1219.1489361702127,448.6981128170099 1225.6382978723404,495.030074175752 1232.127659574468,493.85117359912346 1238.6170212765958,506.20909176814587 1245.1063829787233,509.0800232756877 1251.595744680851,508.0399758843847 1258.085106382979,489.1723784577558 1264.5744680851064,495.3850575183308 1271.063829787234,508.3644032231848 1277.5531914893618,500.57889403404374 1284.0425531914893,470.2650281831309 1290.531914893617,459.146881310754 1297.0212765957447,457.1302626284639 1303.5106382978722,455.00001859955313 1310.0,449.7977706351817" fill="none" stroke="#0f766e" stroke-width="2.5"><title>budgeted_static_50_50_rebalance | end=2026-05-09 | return=132.95%</title></polyline>
<polyline points="90.0,701.88588039094 96.48936170212767,701.8541396390324 102.97872340425532,702.2267095568207 109.46808510638297,701.8015800106454 115.95744680851064,696.9352436830501 122.4468085106383,696.3782008405573 128.93617021276594,707.635067037595 135.4255319148936,708.5271689077746 141.91489361702128,709.1529163605908 148.40425531914894,707.4260322576188 154.8936170212766,706.1990613102716 161.38297872340425,709.5200240742781 167.8723404255319,708.2021183814868 174.36170212765958,710.0 180.85106382978722,705.9280428312327 187.3404255319149,680.5283036585278 193.82978723404256,670.8309351324449 200.31914893617022,672.704997623935 206.8085106382979,666.6837398807488 213.29787234042553,679.2135179842497 219.7872340425532,659.5080529640794 226.27659574468083,671.1284763246183 232.7659574468085,676.1075363818615 239.25531914893617,688.4075495747411 245.7446808510638,643.789693109898 252.2340425531915,642.8593745105754 258.72340425531917,633.582786840153 265.21276595744683,633.9419095481236 271.70212765957444,608.0605836098205 278.1914893617021,632.945630863625 284.6808510638298,624.5831954431451 291.17021276595744,626.6439379743782 297.6595744680851,642.4672141661372 304.1489361702128,639.5592826601526 310.63829787234044,639.8952319368258 317.1276595744681,635.3084438679472 323.6170212765958,648.1230107749918 330.10638297872345,647.1093074733959 336.59574468085106,623.3147174556102 343.0851063829787,620.5066924622121 349.5744680851064,624.6645484333941 356.06382978723406,621.2089261245948 362.55319148936167,626.1630531698999 369.04255319148933,626.9040987330854 375.531914893617,630.0923767690531 382.0212765957447,628.2566781000886 388.51063829787233,646.7857973341496 395.0,648.166670017846 401.4893617021276,649.0772259886421 407.97872340425533,649.0630953979595 414.468085106383,646.8640626259346 420.9574468085106,649.0170974444584 427.44680851063833,643.5010447513679 433.93617021276594,642.2516321537018 440.42553191489367,650.6393683152683 446.9148936170213,635.8577548211451 453.40425531914894,612.842917846104 459.8936170212766,604.3077894218902 466.3829787234043,585.4620145873934 472.8723404255319,592.629968849662 479.3617021276596,581.9399883794725 485.8510638297872,572.4956344033664 492.3404255319149,550.9692523742842 498.82978723404256,561.2288876754935 505.3191489361702,552.9026886146913 511.8085106382979,557.8977384399077 518.2978723404256,555.8858967810963 524.7872340425531,541.3073108922143 531.2765957446809,549.5429749732705 537.7659574468084,558.2156212781218 544.2553191489362,554.7320392199541 550.7446808510638,533.5174215481347 557.2340425531916,510.77598959180733 563.7234042553191,501.42541864443206 570.2127659574469,457.39676106211334 576.7021276595744,420.73313035909297 583.1914893617021,445.2876612450846 589.6808510638298,456.3123092203058 596.1702127659574,436.02234002167756 602.6595744680851,444.2845259188519 609.1489361702128,470.1062801189454 615.6382978723404,461.37635849022166 622.1276595744681,460.32874014940677 628.6170212765958,465.65198011052246 635.1063829787233,482.51052519251925 641.5957446808511,458.0430437031139 648.0851063829787,421.06887490018636 654.5744680851063,421.40608064765075 661.063829787234,424.3268263917698 667.5531914893617,436.3223001247928 674.0425531914894,443.78307823001995 680.531914893617,456.24600377073057 687.0212765957447,475.95537212324 693.5106382978723,468.74491601457913 700.0,435.41064373779164 706.4893617021277,446.4700652743754 712.9787234042552,478.3490167492686 719.468085106383,491.96282813464194 725.9574468085107,494.938043758854 732.4468085106382,476.4529566360276 738.936170212766,501.94543210347496 745.4255319148937,526.2144543213349 751.9148936170212,504.3756731505179 758.4042553191489,484.9517172272148 764.8936170212767,475.300265598149 771.3829787234042,500.9602831277223 777.8723404255319,494.22876832894883 784.3617021276596,470.32944260774 790.8510638297873,485.55812101629135 797.3404255319149,479.12295134410465 803.8297872340426,413.4539289008863 810.3191489361702,381.3109789809405 816.8085106382979,345.34747787427176 823.2978723404256,325.14836562775184 829.7872340425532,296.630084764273 836.2765957446808,302.76450134073525 842.7659574468086,346.81723960509964 849.2553191489362,346.78940220459396 855.7446808510638,323.3230702956895 862.2340425531914,354.76613114280116 868.7234042553192,334.2988330860842 875.2127659574468,332.7720941709728 881.7021276595744,354.24393869374074 888.1914893617021,395.44800964617434 894.6808510638298,388.997749913978 901.1702127659574,385.7536114380865 907.6595744680851,447.0157006180861 914.1489361702127,447.72210892096496 920.6382978723404,472.77589342421277 927.1276595744681,470.0703861170657 933.6170212765958,486.00450480544043 940.1063829787233,486.43035085787733 946.5957446808511,498.81005301432856 953.0851063829788,502.3374659067856 959.5744680851063,462.0861744678473 966.063829787234,458.4687042572257 972.5531914893618,355.4488047018249 979.0425531914893,371.10860616528254 985.531914893617,355.92114257647404 992.0212765957448,362.0223367792106 998.5106382978723,360.57583753356863 1005.0,360.1692466628933 1011.4893617021277,394.32288085270585 1017.9787234042552,367.7518572766626 1024.4680851063831,356.3484084132575 1030.9574468085107,287.04836706191605 1037.4468085106382,207.12949989893144 1043.936170212766,189.6901803677357 1050.4255319148938,237.3290917787096 1056.9148936170213,137.13869417848355 1063.404255319149,119.22764653347144 1069.8936170212767,90.0 1076.3829787234042,136.60629933668213 1082.872340425532,142.4442098251784 1089.3617021276596,101.3982855063856 1095.8510638297873,115.65057937420158 1102.340425531915,159.35977811726764 1108.8297872340427,102.96017414355401 1115.3191489361702,175.22231632290084 1121.8085106382978,171.77863862957304 1128.2978723404256,159.21031987719562 1134.7872340425533,168.00003949509255 1141.276595744681,215.9921654107635 1147.7659574468084,245.51141758535488 1154.2553191489362,295.29302450638295 1160.7446808510638,266.90344600501544 1167.2340425531916,266.2334897135886 1173.723404255319,258.4326485704538 1180.2127659574467,273.12568396798605 1186.7021276595744,276.55578180509747 1193.1914893617022,256.4037216151751 1199.6808510638298,260.3541269045202 1206.1702127659573,231.55602095890748 1212.659574468085,274.68127227413584 1219.1489361702127,339.828524393165 1225.6382978723404,392.00634012820836 1232.127659574468,390.8401129072709 1238.6170212765958,405.2191439945185 1245.1063829787233,408.3267964020117 1251.595744680851,407.1577420846874 1258.085106382979,385.06760165704816 1264.5744680851064,392.093788246086 1271.063829787234,407.9710457475174 1277.5531914893618,398.00642917163094 1284.0425531914893,359.42764939921466 1290.531914893617,345.2442427540604 1297.0212765957447,343.37979107947734 1303.5106382978722,340.8352433401894 1310.0,334.243831023621" fill="none" stroke="#9333ea" stroke-width="2.5"><title>budgeted_drawdown_tilt_rebalance | end=2026-05-09 | return=193.90%</title></polyline>
<polyline points="90.0,701.88588039094 96.48936170212767,701.8555815058836 102.97872340425532,702.1720919188838 109.46808510638297,701.8392443845105 115.95744680851064,697.9006974987716 122.4468085106383,697.3315611649156 128.93617021276594,707.2975850293145 135.4255319148936,707.9893895793393 141.91489361702128,708.5736899833349 148.40425531914894,707.0426051016761 154.8936170212766,705.983760914659 161.38297872340425,708.6432252913409 167.8723404255319,707.6558486837769 174.36170212765958,709.2500604479092 180.85106382978722,705.900172831825 187.3404255319149,683.0146241804937 193.82978723404256,673.7865216241954 200.31914893617022,674.7918897396358 206.8085106382979,670.0937902935159 213.29787234042553,680.9821845671182 219.7872340425532,663.3470924154934 226.27659574468083,673.4061508896261 232.7659574468085,677.930155176756 239.25531914893617,688.6422023576724 245.7446808510638,649.7774566374226 252.2340425531915,648.3972419328776 258.72340425531917,640.9361754160037 265.21276595744683,641.9810330766998 271.70212765957444,621.414562191813 278.1914893617021,641.8745590876034 284.6808510638298,633.9379509559203 291.17021276595744,635.8928528160383 297.6595744680851,650.1044337580533 304.1489361702128,647.5463502131358 310.63829787234044,648.1799771574872 317.1276595744681,644.4116345116084 323.6170212765958,656.3399851247098 330.10638297872345,654.5172094280921 336.59574468085106,629.3490907624605 343.0851063829787,626.9796121995314 349.5744680851064,631.0077572125294 356.06382978723406,627.9185525076299 362.55319148936167,633.1986425754907 369.04255319148933,634.52935401432 375.531914893617,638.0539112340623 382.0212765957447,635.7206757067643 388.51063829787233,658.9637809867771 395.0,660.4386020782057 401.4893617021276,661.5125314866964 407.97872340425533,661.4560583051714 414.468085106383,658.4484972311994 420.9574468085106,660.3052592335088 427.44680851063833,655.0223105955964 433.93617021276594,652.1353559561667 440.42553191489367,660.8888688522085 446.9148936170213,643.6214630905557 453.40425531914894,618.1013360890373 459.8936170212766,609.8563360043211 466.3829787234043,591.5853712481113 472.8723404255319,598.2928379719117 479.3617021276596,587.2222478556689 485.8510638297872,575.9283659158181 492.3404255319149,548.9235053736695 498.82978723404256,560.9397309884382 505.3191489361702,550.4539621919286 511.8085106382979,558.1519586898048 518.2978723404256,552.7069413331328 524.7872340425531,540.658409531258 531.2765957446809,551.1208515054745 537.7659574468084,559.9652048167613 544.2553191489362,554.8971736783642 550.7446808510638,524.7922267482919 557.2340425531916,494.01420799592336 563.7234042553191,483.65167408338044 570.2127659574469,418.94706873958336 576.7021276595744,367.11638219857343 583.1914893617021,401.3193446285454 589.6808510638298,416.7861774716703 596.1702127659574,385.3540872985643 602.6595744680851,396.6683080736617 609.1489361702128,434.2839525293638 615.6382978723404,422.5829534450103 622.1276595744681,423.1105022468276 628.6170212765958,428.8400417685713 635.1063829787233,452.0339305563114 641.5957446808511,416.9938215934544 648.0851063829787,373.177056562014 654.5744680851063,375.6645281606059 661.063829787234,376.7308740479532 667.5531914893617,394.79036635037465 674.0425531914894,406.16077639029993 680.531914893617,425.4000775123187 687.0212765957447,452.7752723105775 693.5106382978723,442.8571094517488 700.0,393.09778352404174 706.4893617021277,406.41046236691176 712.9787234042552,453.6625445980942 719.468085106383,469.98701552245393 725.9574468085107,475.048162394857 732.4468085106382,448.63307061921495 738.936170212766,483.0557743224696 745.4255319148937,515.0196370443755 751.9148936170212,484.8175182773243 758.4042553191489,460.89686171447653 764.8936170212767,447.98169015637876 771.3829787234042,477.5248041219677 777.8723404255319,469.70016149301046 784.3617021276596,440.4065532617022 790.8510638297873,455.3891954516405 797.3404255319149,445.9146338640264 803.8297872340426,380.71848133042624 810.3191489361702,329.0609358170975 816.8085106382979,286.8410563319973 823.2978723404256,273.00717159811677 829.7872340425532,242.76757623022536 836.2765957446808,245.1102329202875 842.7659574468086,291.33347371929557 849.2553191489362,295.36575262909673 855.7446808510638,268.7825475489278 862.2340425531914,304.0304809471797 868.7234042553192,266.927543064621 875.2127659574468,264.97720904776145 881.7021276595744,292.319292954848 888.1914893617021,337.76744130888636 894.6808510638298,329.79612990703504 901.1702127659574,328.9934593574812 907.6595744680851,402.35955932888635 914.1489361702127,402.54229525255965 920.6382978723404,426.28392252528425 927.1276595744681,425.35491305792124 933.6170212765958,439.6391160024443 940.1063829787233,437.87277524692433 946.5957446808511,441.7813784590204 953.0851063829788,444.47810140222794 959.5744680851063,396.3195602611831 966.063829787234,391.19097117981227 972.5531914893618,310.6396196719661 979.0425531914893,323.5624649001727 985.531914893617,303.2460452522177 992.0212765957448,314.7684054533671 998.5106382978723,311.4431298916567 1005.0,311.62632501846286 1011.4893617021277,338.65604684542456 1017.9787234042552,310.8681166930537 1024.4680851063831,302.50103682424987 1030.9574468085107,241.65292321183318 1037.4468085106382,198.38802240323952 1043.936170212766,188.65561804070114 1050.4255319148938,230.18031581957683 1056.9148936170213,159.11481994076905 1063.404255319149,144.9768669330316 1069.8936170212767,128.12479228169082 1076.3829787234042,176.96412850938384 1082.872340425532,179.32676878320842 1089.3617021276596,133.50265557447085 1095.8510638297873,147.06737495005507 1102.340425531915,198.39417570618497 1108.8297872340427,125.06056870216355 1115.3191489361702,214.11092384046339 1121.8085106382978,215.07572862454242 1128.2978723404256,196.5140800825509 1134.7872340425533,207.62105587145953 1141.276595744681,266.8375566730714 1147.7659574468084,305.26973180806425 1154.2553191489362,368.71098413332686 1160.7446808510638,333.06077194776356 1167.2340425531916,334.3357171450247 1173.723404255319,325.63128672315236 1180.2127659574467,341.9175265474723 1186.7021276595744,345.752712984986 1193.1914893617022,323.7864577503893 1199.6808510638298,327.63559546558986 1206.1702127659573,296.052087994898 1212.659574468085,341.5948849340462 1219.1489361702127,411.22223111510135 1225.6382978723404,467.5379872551531 1232.127659574468,465.8967296430493 1238.6170212765958,479.9461211551504 1245.1063829787233,483.65349295589846 1251.595744680851,482.3772276571641 1258.085106382979,460.5349935468759 1264.5744680851064,468.69322850922464 1271.063829787234,483.5909423813805 1277.5531914893618,475.2081117052435 1284.0425531914893,440.7414537119434 1290.531914893617,427.5889810432559 1297.0212765957447,423.91662254327497 1303.5106382978722,420.913545096398 1310.0,414.04644195224205" fill="none" stroke="#92400e" stroke-width="2.5"><title>budgeted_btc_defensive_eth_aggressive | end=2026-05-09 | return=151.81%</title></polyline>
</svg>