<svg xmlns="http://www.w3.org/2000/svg" width="1400" height="800">
<rect width="1400" height="800" fill="#f8fafc"/>
<text x="700.0" y="42" text-anchor="middle" font-family="monospace" font-size="24" fill="#0f172a">Portfolio Value Over Time | start=2024-07-01 | interval=1d</text>
<line x1="90" y1="710" x2="1310" y2="710" stroke="#334155" stroke-width="2"/>
<line x1="90" y1="90" x2="90" y2="710" stroke="#334155" stroke-width="2"/>
<line x1="90.0" y1="710" x2="90.0" y2="90" stroke="#cbd5e1" stroke-width="1"/>
<text x="90.0" y="734" text-anchor="middle" font-family="monospace" font-size="11" fill="#475569">2024-07-01</text>
<line x1="90" y1="710.0" x2="1310" y2="710.0" stroke="#cbd5e1" stroke-width="1"/>
<text x="78" y="714.0" text-anchor="end" font-family="monospace" font-size="12" fill="#475569">7883</text>
<line x1="334.0" y1="710" x2="334.0" y2="90" stroke="#cbd5e1" stroke-width="1"/>
<text x="334.0" y="734" text-anchor="middle" font-family="monospace" font-size="11" fill="#475569">2024-11-13</text>
<line x1="90" y1="586.0" x2="1310" y2="586.0" stroke="#cbd5e1" stroke-width="1"/>
<text x="78" y="590.0" text-anchor="end" font-family="monospace" font-size="12" fill="#475569">9973</text>
<line x1="578.0" y1="710" x2="578.0" y2="90" stroke="#cbd5e1" stroke-width="1"/>
<text x="578.0" y="734" text-anchor="middle" font-family="monospace" font-size="11" fill="#475569">2025-03-29</text>
<line x1="90" y1="462.0" x2="1310" y2="462.0" stroke="#cbd5e1" stroke-width="1"/>
<text x="78" y="466.0" text-anchor="end" font-family="monospace" font-size="12" fill="#475569">12063</text>
<line x1="822.0" y1="710" x2="822.0" y2="90" stroke="#cbd5e1" stroke-width="1"/>
<text x="822.0" y="734" text-anchor="middle" font-family="monospace" font-size="11" fill="#475569">2025-08-11</text>
<line x1="90" y1="338.0" x2="1310" y2="338.0" stroke="#cbd5e1" stroke-width="1"/>
<text x="78" y="342.0" text-anchor="end" font-family="monospace" font-size="12" fill="#475569">14154</text>
<line x1="1066.0" y1="710" x2="1066.0" y2="90" stroke="#cbd5e1" stroke-width="1"/>
<text x="1066.0" y="734" text-anchor="middle" font-family="monospace" font-size="11" fill="#475569">2025-12-25</text>
<line x1="90" y1="214.0" x2="1310" y2="214.0" stroke="#cbd5e1" stroke-width="1"/>
<text x="78" y="218.0" text-anchor="end" font-family="monospace" font-size="12" fill="#475569">16244</text>
<line x1="1310.0" y1="710" x2="1310.0" y2="90" stroke="#cbd5e1" stroke-width="1"/>
<text x="1310.0" y="734" text-anchor="middle" font-family="monospace" font-size="11" fill="#475569">2026-05-09</text>
<line x1="90" y1="90.0" x2="1310" y2="90.0" stroke="#cbd5e1" stroke-width="1"/>
<text x="78" y="94.0" text-anchor="end" font-family="monospace" font-size="12" fill="#475569">18334</text>
<text x="700.0" y="782" text-anchor="middle" font-family="monospace" font-size="16" fill="#0f172a">time</text>
<text x="24" y="400.0" transform="rotate(-90 24,400.0)" text-anchor="middle" font-family="monospace" font-size="16" fill="#0f172a">portfolio_value_usd</text>
<line x1="970" y1="80" x2="988" y2="80" stroke="#0f766e" stroke-width="3"/>
<text x="998" y="84" font-family="monospace" font-size="12" fill="#0f172a">budgeted_static_50_50_rebalance</text>
<line x1="970" y1="104" x2="988" y2="104" stroke="#9333ea" stroke-width="3"/>
<text x="998" y="108" font-family="monospace" font-size="12" fill="#0f172a">budgeted_drawdown_tilt_rebalance</text>
<line x1="970" y1="128" x2="988" y2="128" stroke="#92400e" stroke-width="3"/>
<text x="998" y="132" font-family="monospace" font-size="12" fill="#0f172a">budgeted_btc_defensive_eth_aggressive</text>
<polyline points="90.0,584.3973314187831 91.80206794682422,584.5332416560592 93.60413589364845,585.4823514351843 95.40620384047267,588.027931700678 97.2082717872969,588.8845522784349 99.01033973412112,586.9815557602268 100.81240768094534,590.5246703200877 102.61447562776956,588.425075201476 104.4165435745938,586.2430500712901 106.21861152141801,585.9187177433455 108.02067946824224,586.3946062264291 109.82274741506646,584.7359635211538 111.6248153618907,581.6701656523305 113.42688330871492,577.0994402268421 115.22895125553914,562.7713917372074 117.03101920236337,563.4949611379778 118.83308714918759,567.5467188961672 120.63515509601181,566.3083218085701 122.43722304283604,557.2559510688354 124.23929098966026,555.6690883806502 126.04135893648449,552.5153756265779 127.84342688330872,558.4340054723125 129.64549483013292,560.5752266681607 131.44756277695717,569.5358882082678 133.2496307237814,576.7552331885231 135.05169867060562,565.1044684395109 136.85376661742984,566.637496847829 138.65583456425406,564.3455642193286 140.4579025110783,566.1582793690233 142.2599704579025,570.637383901937 144.06203840472674,579.0136048919154 145.86410635155096,578.7341568560789 147.66617429837518,607.8419647759006 149.4682422451994,616.7418895090999 151.27031019202363,642.1883420515082 153.07237813884785,678.0604611496877 154.87444608567208,667.3617400559864 156.6765140324963,679.8842595036984 158.47858197932052,629.5097170589524 160.28064992614475,639.0688788029594 162.08271787296897,637.9710878888477 163.8847858197932,650.2329784926143 165.68685376661745,634.9558310903906 167.48892171344164,631.9795003806233 169.29098966026586,642.1196796845943 171.0930576070901,653.3255648899122 172.89512555391434,646.6708074981448 174.69719350073854,642.856513004718 176.4992614475628,646.827694159389 178.30132939438698,641.2726347449077 180.10339734121123,647.8119410526614 181.90546528803543,635.5780111829608 183.70753323485968,638.9876703685135 185.50960118168388,614.7338920748742 187.31166912850813,614.0706631985013 189.11373707533235,615.5161212492189 190.91580502215658,625.840928774333 192.7178729689808,655.5837985037155 194.51994091580502,651.3914212011266 196.32200886262925,650.3272510456029 198.12407680945347,651.374785532511 199.9261447562777,652.9286310347825 201.72821270310192,665.7298586533294 203.53028064992614,650.3197492580271 205.33234859675036,665.2653516742173 207.1344165435746,661.3992270935938 208.9364844903988,674.3903914358535 210.73855243722303,693.5938637350257 212.54062038404726,689.0154073882392 214.34268833087148,684.4955602538295 216.1447562776957,671.8268438350729 217.94682422451993,667.4943889775417 219.74889217134415,672.3233307272076 221.5509601181684,667.871532139061 223.3530280649926,653.070003440858 225.15509601181685,656.7488598945422 226.95716395864105,667.9663969876984 228.7592319054653,672.8461375343695 230.5612998522895,661.7666340192435 232.36336779911375,653.9724608863773 234.16543574593794,642.1988739135729 235.9675036927622,633.2746379052085 237.76957163958642,628.4647388808673 239.57163958641064,630.4238981858897 241.37370753323486,625.7348403950949 243.1757754800591,621.9594640109034 244.9778434268833,632.10123024059 246.77991137370753,620.5782873363936 248.58197932053173,613.2093737274888 250.38404726735598,614.607633643099 252.1861152141802,616.9968453741456 253.98818316100443,629.6341420931856 255.79025110782868,651.1306492582536 257.5923190546529,658.6905155377584 259.39438700147707,659.4549283997551 261.1964549483013,649.4431005240075 262.9985228951256,649.5714099251844 264.80059084194977,644.8521562313281 266.60265878877397,648.4583837691788 268.4047267355982,647.2353345940902 270.20679468242247,658.4345459931975 272.00886262924666,658.1433849595505 273.81093057607086,645.9403864132385 275.61299852289517,640.5595598141678 277.41506646971936,642.4060476838591 279.21713441654356,617.9427380633675 281.01920236336775,616.4191027458367 282.82127031019206,614.2180540957622 284.62333825701626,615.3869798213311 286.42540620384045,608.8270734225705 288.2274741506647,608.5356331206453 290.02954209748896,598.1219293690933 291.83161004431315,610.4996934766402 293.63367799113735,614.1120658250942 295.4357459379616,625.0074891406807 297.23781388478585,618.7856347175818 299.03988183161005,632.304368851629 300.84194977843424,627.0467152475561 302.6440177252585,621.7735475675711 304.44608567208275,609.9295604545316 306.24815361890694,594.4342151686392 308.0502215657312,593.9932368913587 309.8522895125554,613.3677735143172 311.65435745937964,616.1482545798985 313.45642540620383,617.95932938844 315.2584933530281,623.17288815403 317.0605612998523,631.3569033080773 318.86262924667653,624.0667716909518 320.66469719350073,577.6332376091818 322.466765140325,561.6047578493327 324.2688330871492,553.7424710467218 326.0709010339734,539.0874604225475 327.8729689807976,521.9141263670215 329.6750369276219,478.4367946725148 331.47710487444607,491.7270406336782 333.2791728212703,488.49635394807126 335.0812407680945,509.91020554692835 336.88330871491877,495.3622603957299 338.68537666174296,492.8907756118715 340.4874446085672,500.2517606320323 342.2895125553914,486.6699293690647 344.09158050221566,489.2691693580007 345.89364844903986,486.72313700999734 347.6957163958641,448.79826061412444 349.4977843426883,449.51403305000144 351.29985228951256,447.47997442320263 353.1019202363368,449.57257451902944 354.903988183161,460.33727028786154 356.7060561299852,471.52251050114484 358.50812407680945,430.27244868341154 360.3101920236337,437.89266060124817 362.1122599704579,431.0117840691979 363.9143279172821,424.5906169863236 365.71639586410635,421.7881441988292 367.5184638109306,431.6469931836056 369.3205317577548,433.704279600312 371.122599704579,406.1268109545553 372.92466765140324,415.934072575889 374.7267355982275,389.2414437313116 376.5288035450517,389.5161887744745 378.3308714918759,385.04678522298667 380.13293943870013,420.88481452327164 381.9350073855244,429.7294240117863 383.7370753323486,398.76891527314257 385.53914327917283,398.53986313095527 387.34121122599703,392.12677356134026 389.1432791728213,395.357267997447 390.9453471196455,378.6962774910118 392.7474150664697,371.145362279199 394.5494830132939,378.64763293239315 396.3515509601182,418.9922859118435 398.1536189069424,444.9168012815489 399.9556868537666,438.9877026960547 401.7577548005908,451.9160010487584 403.55982274741507,463.4528609511661 405.36189069423926,452.3678609676895 407.16395864106346,434.3999896017697 408.96602658788777,431.87031439424004 410.76809453471196,457.0401974753545 412.5701624815362,461.7764256990368 414.3722304283604,452.8955673610322 416.1742983751846,461.76166403653315 417.97636632200886,464.17121913502035 419.77843426883305,464.09559518418837 421.58050221565736,458.96835894074263 423.38257016248156,442.7599252299352 425.18463810930575,425.69440508518795 426.98670605613,421.31804896697525 428.7887740029542,422.67740404659855 430.5908419497784,406.0958333424008 432.39290989660265,448.4437093264512 434.1949778434269,458.86764963582317 435.99704579025115,475.6847291206175 437.79911373707534,464.9942099136571 439.60118168389954,464.06285192774254 441.4032496307238,465.62112782214876 443.205317577548,476.9442443321704 445.0073855243722,463.0637275177899 446.80945347119643,430.969086371332 448.6115214180207,445.2383171089914 450.41358936484494,418.0871953773117 452.21565731166913,432.2103583771149 454.01772525849333,450.131451333479 455.8197932053176,441.0544852255877 457.6218611521418,425.0390700491186 459.42392909896597,440.0820856070274 461.2259970457903,430.51294841100764 463.0280649926145,430.4522706747721 464.8301329394387,430.0081471414402 466.6322008862629,444.1167340418073 468.4342688330871,450.0449317810535 470.23633677991137,461.90054361687663 472.03840472673556,451.35757688327965 473.8404726735599,436.14891502751175 475.64254062038407,437.93937218994193 477.44460856720826,459.9205734759414 479.2466765140325,491.15380807062024 481.0487444608567,478.99427244208215 482.8508124076809,503.856554664742 484.65288035450516,501.6685215048742 486.4549483013294,511.6920966270812 488.25701624815366,518.0600737208171 490.05908419497786,517.2697220722579 491.86115214180205,517.7450984659556 493.6632200886263,511.65060840332865 495.4652880354505,522.2678097341993 497.2673559822747,502.78178669520196 499.069423929099,512.4577286010049 500.8714918759232,504.99268538175806 502.67355982274745,508.0187475325871 504.47562776957164,515.289754178196 506.27769571639584,507.9855786767944 508.0797636632201,515.7732319510034 509.8818316100443,508.4924182985401 511.6838995568685,501.41631251665206 513.4859675036928,515.1107696686882 515.288035450517,503.82069139851853 517.0901033973412,499.1411509714227 518.8921713441655,542.631011741472 520.6942392909896,552.9058238713341 522.4963072378139,581.4112092041412 524.2983751846381,582.7657850497578 526.1004431314624,590.7237250528007 527.9025110782866,587.9371074999681 529.7045790251108,533.5700179409836 531.506646971935,594.4857311965941 533.3087149187593,588.9839985027647 535.1107828655834,572.2362579549981 536.9128508124077,578.252564025649 538.714918759232,593.5196912432077 540.5169867060562,588.3381428634079 542.3190546528804,622.9941988479765 544.1211225997046,645.5992641315524 545.9231905465288,627.371116006219 547.7252584933531,626.9773198181271 549.5273264401771,638.8673499243425 551.3293943870015,625.7169937756499 553.1314623338258,621.8314086905772 554.93353028065,632.2707162839323 556.7355982274742,624.0096205014896 558.5376661742984,626.9495132997151 560.3397341211225,601.8141225524598 562.1418020679469,617.2661500306442 563.9438700147712,619.5595184268619 565.7459379615952,618.4057642279301 567.5480059084196,609.5938975770439 569.3500738552437,597.3688676933069 571.152141802068,599.275934331315 572.9542097488921,606.9629339217774 574.7562776957163,606.9038260410383 576.5583456425406,626.3264327437798 578.360413589365,638.649605109693 580.162481536189,641.5097346412758 581.9645494830133,639.4646507162623 583.7666174298375,623.2912540070794 585.5686853766617,642.6150052065601 587.3707533234859,638.3273996985001 589.1728212703101,636.5325217528239 590.9748892171344,638.7788816432349 592.7769571639587,678.10324602966 594.5790251107828,679.2369723371461 596.3810930576071,695.9945186203781 598.1831610044313,656.9344986873604 599.9852289512555,681.7675952032102 601.7872968980797,666.8607064613375 603.589364844904,653.1109033939159 605.3914327917282,662.6723606006159 607.1935007385524,657.2426066651585 608.9955686853766,663.9437048310213 610.7976366322009,664.3301791946724 612.5997045790251,661.2147113404917 614.4017725258493,661.8653820723592 616.2038404726736,657.4109920578375 618.0059084194978,660.2622090911868 619.807976366322,655.4402588645685 621.6100443131462,619.288183546603 623.4121122599704,613.9470977212608 625.2141802067947,616.3626158646787 627.0162481536189,612.8105907779064 628.8183161004432,608.5820744237549 630.6203840472674,614.3833267811622 632.4224519940916,610.3063918980342 634.2245199409158,612.4167333031048 636.02658788774,613.1744041673301 637.8286558345642,601.9932994110227 639.6307237813885,600.508608476191 641.4327917282127,604.1734255708977 643.234859675037,611.0656718772569 645.0369276218612,608.5858076366727 646.8389955686854,603.9204428192149 648.6410635155096,604.0997238802688 650.4431314623338,540.5512261392078 652.245199409158,524.3472781742546 654.0472673559823,491.20319455438454 655.8493353028065,501.00318688515756 657.6514032496308,506.5844842065711 659.453471196455,482.10555185493314 661.2555391432792,491.47136309146697 663.0576070901034,497.67512070312125 664.8596750369276,499.62525425792074 666.6617429837518,507.3313542255888 668.4638109305761,496.2278351977769 670.2658788774003,495.1280723147299 672.0679468242246,492.2264935533949 673.8700147710488,481.99104867663266 675.672082717873,464.3537184390796 677.4741506646972,490.7487008016133 679.2762186115214,489.11934016564464 681.0782865583457,483.5687194179003 682.8803545051699,481.1953603736446 684.6824224519941,471.81980462864294 686.4844903988184,472.6309503879056 688.2865583456426,483.9020928827895 690.0886262924668,498.6260934533002 691.890694239291,497.3078732662459 693.6927621861153,493.37227697028356 695.4948301329395,485.418738895031 697.2968980797637,488.1426004274548 699.0989660265878,488.4528204281317 700.9010339734122,517.5068423138852 702.7031019202363,503.3032142665884 704.5051698670607,494.9179083569978 706.3072378138849,496.1505087547148 708.109305760709,465.8990211165078 709.9113737075332,451.2753638288904 711.7134416543574,460.2734158883849 713.5155096011816,481.73286739178945 715.3175775480059,487.45252823058456 717.1196454948301,494.31452053552925 718.9217134416543,492.2403926015986 720.7237813884785,489.25698658948227 722.5258493353027,498.8873583612649 724.3279172821269,496.43751920989195 726.1299852289513,497.5063379465132 727.9320531757755,513.3696293649359 729.7341211225997,528.3755589273403 731.5361890694239,539.0323634490396 733.3382570162482,506.80226284772516 735.1403249630724,500.7950529612399 736.9423929098966,500.9087179034399 738.7444608567208,502.15939836069197 740.546528803545,501.1841020488133 742.3485967503692,499.13438946991914 744.1506646971935,489.394306226793 745.9527326440177,494.1047526445015 747.7548005908419,506.81868328874646 749.5568685376661,480.260148071167 751.3589364844903,476.0402633527397 753.1610044313147,489.3332532808398 754.9630723781389,487.87037248995586 756.7651403249631,479.45638005258274 758.5672082717873,485.00822803407596 760.3692762186115,475.109132459635 762.1713441654358,452.37215911335693 763.97341211226,420.3950862763897 765.7754800590842,415.5151658584037 767.5775480059084,417.37491637638095 769.3796159527326,409.993275911398 771.1816838995568,403.7390155290396 772.9837518463811,396.1025078243987 774.7858197932053,369.2010001554949 776.5878877400295,356.6447212091215 778.3899556868538,352.94854924000805 780.192023633678,348.78870311048354 781.9940915805023,334.26569078249673 783.7961595273265,333.43752870882355 785.5982274741507,327.47700916991283 787.4002954209749,342.1788129072747 789.2023633677991,335.93669426805815 791.0044313146234,336.4830185217443 792.8064992614476,333.9167434031985 794.6085672082718,317.50029016412725 796.410635155096,328.35895156425136 798.2127031019202,329.3083689477343 800.0147710487444,328.0501214235685 801.8168389955687,344.2214709145813 803.6189069423929,370.66880788175234 805.4209748892172,381.2777657530634 807.2230428360414,366.7854737952381 809.0251107828656,343.6551487401973 810.8271787296899,356.4390861152 812.6292466765141,347.1551688849446 814.4313146233383,319.12535764449274 816.2333825701625,312.4639051504257 818.0354505169867,290.3474118594478 819.837518463811,282.86229771933074 821.6395864106352,287.0994272409513 823.4416543574594,250.9081869912206 825.2437223042836,227.0709269527917 827.0457902511077,259.42028851393866 828.8478581979319,271.47588942747075 830.6499261447564,272.88080960532807 832.4519940915806,268.5724223497815 834.2540620384048,285.59910261182245 836.056129985229,316.0782514956177 837.8581979320531,289.87092842801076 839.6602658788775,304.77361478870495 841.4623338257016,240.48566713974412 843.2644017725258,249.78029127475105 845.06646971935,255.59366276962834 846.8685376661742,298.903638624346 848.6706056129985,275.4512920966542 850.4726735598227,284.7741097292192 852.2747415066469,280.1747416390668 854.0768094534711,305.747493255746 855.8788774002954,303.15121495118024 857.6809453471197,303.628751948732 859.4830132939439,306.59867126807035 861.2850812407681,299.1933498076853 863.0871491875923,287.3985319533679 864.8892171344165,303.13921258156995 866.6912850812408,302.54950139949125 868.493353028065,306.7262489073706 870.2954209748892,301.2523581313513 872.0974889217134,298.2322162530009 873.8995568685376,299.5583280513549 875.7016248153618,288.57894082321997 877.5036927621861,274.6413997697788 879.3057607090103,252.14334330972946 881.1078286558345,256.27734737535616 882.9098966026588,263.4388712642262 884.711964549483,269.7712575309247 886.5140324963073,266.9266913419481 888.3161004431315,260.8131458920357 890.1181683899557,259.03589568154416 891.9202363367799,273.06291653067274 893.7223042836041,271.92490110343556 895.5243722304284,276.28344524878264 897.3264401772526,304.07536293948044 899.1285081240768,309.3845734330984 900.930576070901,306.15381464469925 902.7326440177252,342.7838420048926 904.5347119645494,327.290095396575 906.3367799113737,328.5189234122479 908.138847858198,310.3014998186914 909.9409158050222,297.32413378651637 911.7429837518464,304.2576783376386 913.5450516986706,272.8130838725238 915.3471196454949,255.2410778474944 917.1491875923191,247.63803715013108 918.9512555391433,249.3735722323654 920.7533234859675,244.00098045981332 922.5553914327917,226.09105102547142 924.357459379616,255.8813709373669 926.1595273264402,243.50338843217162 927.9615952732644,261.42852571024804 929.7636632200886,332.5711636966245 931.5657311669128,346.61324379730837 933.367799113737,298.2366242336142 935.1698670605614,289.93554645982437 936.9719350073856,306.88550769529957 938.7740029542098,325.76292720459276 940.576070901034,341.71885310866446 942.3781388478582,352.378842399462 944.1802067946825,345.13842944528216 945.9822747415067,332.55883328898733 947.7843426883309,326.9849194643432 949.5864106351551,342.89009824337506 951.3884785819793,351.17503085648644 953.1905465288036,338.831819302359 954.9926144756278,329.2413507829597 956.794682422452,325.72401434384625 958.5967503692762,299.19447344200523 960.3988183161005,303.94759803953167 962.2008862629248,319.6010496281558 964.002954209749,334.9561056961872 965.8050221565732,348.87558144714126 967.6070901033974,341.4351753948796 969.4091580502215,337.6242319968778 971.2112259970457,333.20899975175695 973.01329394387,371.67415421872573 974.8153618906942,415.1180179643285 976.6174298375184,395.3528926811776 978.4194977843426,413.23010671078197 980.2215657311668,396.16302103668914 982.0236336779911,402.2353860932286 983.8257016248153,378.23725591662117 985.6277695716396,375.8248577088937 987.4298375184638,398.4858613721665 989.231905465288,402.8723162579486 991.0339734121123,425.81804531505827 992.8360413589365,452.4091404102757 994.6381093057607,443.964918280752 996.4401772525849,454.9961645689111 998.2422451994091,467.37390716150514 1000.0443131462333,456.10062554303454 1001.8463810930576,469.79177447444533 1003.6484490398818,503.017775769172 1005.450516986706,513.8637823236224 1007.2525849335302,514.632567720593 1009.0546528803544,504.8822303421403 1010.8567208271787,485.8288006769586 1012.658788774003,488.2391885955403 1014.4608567208272,471.8731823158075 1016.2629246676514,470.31214440600456 1018.0649926144756,469.9986578180993 1019.8670605612999,474.1579027668481 1021.6691285081241,475.4387749507592 1023.4711964549483,506.4407702561257 1025.2732644017724,471.9036026223014 1027.0753323485967,446.88698535538913 1028.877400295421,456.3846881933961 1030.679468242245,475.4570638977207 1032.4815361890694,474.1499520695433 1034.2836041358937,468.53751358758126 1036.0856720827178,461.77124140372973 1037.8877400295423,437.3222715497262 1039.6898079763664,438.79766010271976 1041.4918759231905,445.22985979112013 1043.2939438700148,466.4180350665032 1045.096011816839,463.7237457475119 1046.8980797636632,475.0937454695846 1048.7001477104875,489.75942831247505 1050.5022156573118,485.4123648281078 1052.304283604136,502.6877160116659 1054.10635155096,505.5985635999208 1055.9084194977843,482.9365938696516 1057.7104874446086,482.340512183199 1059.5125553914327,479.0016476178771 1061.314623338257,478.6736342130253 1063.1166912850813,486.444369522421 1064.9187592319054,487.54513686025297 1066.72082717873,492.93465884989274 1068.522895125554,490.36996169125666 1070.324963072378,486.76380703219286 1072.1270310192024,486.3272332906033 1073.9290989660267,490.12719779242866 1075.7311669128508,482.66545165019534 1077.533234859675,485.8372246421237 1079.3353028064994,478.7728923413198 1081.1373707533235,463.22843552722435 1082.9394387001475,461.1845333865897 1084.7415066469719,456.7014275957738 1086.5435745937962,441.57208287360777 1088.3456425406202,435.512751492503 1090.1477104874448,455.2166863725055 1091.9497784342689,461.6668675746265 1093.751846381093,465.12245306329123 1095.5539143279175,465.70987565692076 1097.3559822747416,460.8263000744711 1099.1580502215656,462.2935079824939 1100.96011816839,427.6772805894432 1102.7621861152143,419.8349223008334 1104.5642540620383,427.5164116229537 1106.3663220088627,429.8965092160867 1108.168389955687,429.8093354019371 1109.970457902511,436.8933002314946 1111.7725258493351,448.94321508711437 1113.5745937961594,485.25422558365597 1115.3766617429837,477.9377976843922 1117.178729689808,480.4472923998614 1118.9807976366324,480.0909870926507 1120.7828655834564,481.69152702751745 1122.5849335302808,502.2848137820937 1124.3870014771048,486.28609849894406 1126.1890694239291,474.53621557259555 1127.9911373707532,475.8837203274891 1129.7932053175775,508.3050749465468 1131.5952732644018,520.47882708717 1133.397341211226,562.0136791833622 1135.1994091580502,585.3336647715516 1137.0014771048743,571.9811429612713 1138.8035450516986,593.1065907895344 1140.605612998523,610.4181893121298 1142.4076809453472,675.4243455339994 1144.2097488921713,626.5739930991951 1146.0118168389956,628.0654392155138 1147.81388478582,624.6067223677883 1149.615952732644,623.5635381988118 1151.4180206794683,636.1171621570442 1153.2200886262924,650.1830280520031 1155.0221565731167,652.040260553706 1156.8242245199408,633.4219859756487 1158.626292466765,626.4546446705498 1160.4283604135894,641.9899679692847 1162.2304283604135,638.4776930623127 1164.0324963072378,643.4831717323141 1165.834564254062,650.4567144809591 1167.6366322008864,649.4432793661707 1169.4387001477105,644.2204814388721 1171.2407680945348,643.8053460841134 1173.042836041359,646.5321296908397 1174.8449039881832,666.3538008370512 1176.6469719350075,668.4623048044983 1178.4490398818316,634.9164338753342 1180.251107828656,639.569404106348 1182.05317577548,654.8327186631152 1183.8552437223043,647.7435989003538 1185.6573116691284,654.0731941947155 1187.4593796159527,635.4300974326092 1189.261447562777,641.5978507901963 1191.063515509601,613.0548550199202 1192.8655834564254,624.306418685923 1194.6676514032497,642.7532316544234 1196.469719350074,646.3168051357109 1198.271787296898,653.7176403175947 1200.0738552437224,640.2214872106031 1201.8759231905465,630.9421123011898 1203.6779911373708,628.5718271550737 1205.480059084195,625.3110276836882 1207.2821270310192,622.0768122086666 1209.0841949778435,620.7776230820047 1210.8862629246676,607.3090961932938 1212.6883308714919,582.8522100061432 1214.490398818316,589.4199855671638 1216.2924667651403,609.6707232148741 1218.0945347119646,620.5844126519646 1219.8966026587889,617.9485500845781 1221.698670605613,629.2393828167552 1223.5007385524373,635.8034254270154 1225.3028064992616,616.1621184726441 1227.1048744460857,616.8390612581425 1228.90694239291,613.1431459006407 1230.709010339734,632.3536421038702 1232.5110782865584,646.8711578584076 1234.3131462333827,646.8285838953037 1236.1152141802067,649.0028958873743 1237.917282127031,642.2631083648103 1239.7193500738551,629.4614432697642 1241.5214180206794,626.0417077988016 1243.3234859675035,638.4578840184895 1245.125553914328,638.5869138967248 1246.9276218611521,636.344040694236 1248.7296898079765,626.416341942488 1250.5317577548005,627.0833300780524 1252.3338257016248,603.8517510900875 1254.1358936484492,611.5289495768845 1255.9379615952732,609.29615693097 1257.7400295420975,599.7473757996958 1259.5420974889216,595.4097358781552 1261.344165435746,612.3948230869462 1263.1462333825702,582.4560670326287 1264.9483013293943,588.0715919440266 1266.7503692762186,582.2216943210423 1268.5524372230427,582.4090093633547 1270.354505169867,569.0351497290825 1272.1565731166913,580.2985528902359 1273.9586410635156,595.2389146256974 1275.7607090103397,583.581509147204 1277.562776957164,580.7043087403292 1279.3648449039881,570.0167767773762 1281.1669128508124,574.3014149853755 1282.9689807976367,578.4396187344474 1284.7710487444608,577.4210768759874 1286.5731166912851,569.0181799594736 1288.3751846381092,580.0075280865826 1290.1772525849335,584.7269691051832 1291.9793205317578,590.3603004726288 1293.781388478582,588.1289288560174 1295.5834564254062,578.111425044597 1297.3855243722305,574.5021221263534 1299.1875923190546,574.300438739918 1300.989660265879,567.7618320332161 1302.7917282127032,563.0986070823412 1304.5937961595273,562.4908956055887 1306.3958641063516,573.1299491791651 1308.1979320531757,570.844488597307 1310.0,567.4302742606255" fill="none" stroke="#0f766e" stroke-width="2.5"><title>budgeted_static_50_50_rebalance | end=2026-05-09 | return=2.86%</title></polyline>
<polyline points="90.0,584.3973314187831 91.80206794682422,584.4988295834951 93.60413589364845,585.2113506353072 95.40620384047267,587.1239557836117 97.2082717872969,587.7721061876757 99.01033973412112,586.1078833774751 100.81240768094534,589.1336433532829 102.61447562776956,587.1685813009806 104.4165435745938,585.0460740267711 106.21861152141801,584.7035783376359 108.02067946824224,585.134422519393 109.82274741506646,583.6113279819851 111.6248153618907,580.8678619967071 113.42688330871492,576.8098002812435 115.22895125553914,564.1644452924547 117.03101920236337,564.8129480037006 118.83308714918759,568.1531267306303 120.63515509601181,567.0949522085082 122.43722304283604,559.7819508767319 124.23929098966026,558.5613142603681 126.04135893648449,556.2619434727688 127.84342688330872,560.5221241561908 129.64549483013292,561.900513618189 131.44756277695717,568.1450417467723 133.2496307237814,573.3172636595862 135.05169867060562,565.3233492315719 136.85376661742984,566.4211689013073 138.65583456425406,564.8297657632297 140.4579025110783,565.8311514861482 142.2599704579025,568.9667691209999 144.06203840472674,574.7297290214567 145.86410635155096,574.7027034604462 147.66617429837518,595.1359326080917 149.4682422451994,601.6759050347035 151.27031019202363,621.0775824735234 153.07237813884785,649.529173021077 154.87444608567208,640.674508984558 156.6765140324963,652.0223694577227 158.47858197932052,604.5158169480209 160.28064992614475,614.3181353476983 162.08271787296897,613.0942013526834 163.8847858197932,625.6878084751818 165.68685376661745,606.5073164345742 167.48892171344164,604.3092422585099 169.29098966026586,615.0764784422873 171.0930576070901,628.4208466468848 172.89512555391434,621.3989289959783 174.69719350073854,617.1215575428364 176.4992614475628,620.9538589664755 178.30132939438698,614.893419966099 180.10339734121123,623.1644513270612 181.90546528803543,609.6317245558653 183.70753323485968,613.144617988944 185.50960118168388,585.2254364484846 187.31166912850813,584.445025786265 189.11373707533235,586.5250359616189 190.91580502215658,598.6512955694529 192.7178729689808,634.6832917384445 194.51994091580502,628.2047851016112 196.32200886262925,627.203929888342 198.12407680945347,628.2843413081077 199.9261447562777,630.2390329723664 201.72821270310192,645.6048700622264 203.53028064992614,626.8479786113312 205.33234859675036,645.2153266274963 207.1344165435746,640.5715685751087 208.9364844903988,655.9808004690858 210.73855243722303,679.4889319584864 212.54062038404726,673.3492389575368 214.34268833087148,668.1101364691884 216.1447562776957,653.6483001136335 217.94682422451993,648.4515370094596 219.74889217134415,654.8384458730101 221.5509601181684,649.7559203428149 223.3530280649926,632.4474519895263 225.15509601181685,636.8696936527738 226.95716395864105,651.5661321071182 228.7592319054653,657.1129723701177 230.5612998522895,644.5497528247774 232.36336779911375,635.8487361558723 234.16543574593794,621.3323193374655 235.9675036927622,609.4689626762844 237.76957163958642,603.0966630574725 239.57163958641064,606.0507378899176 241.37370753323486,599.3379389888772 243.1757754800591,595.388329805416 244.9778434268833,607.7702771314233 246.77991137370753,594.6726427719193 248.58197932053173,585.3886654200118 250.38404726735598,587.3898302618506 252.1861152141802,590.3241793216517 253.98818316100443,604.667638441975 255.79025110782868,630.8495266949624 257.5923190546529,640.980587834085 259.39438700147707,642.1699215597295 261.1964549483013,630.1897296022194 262.9985228951256,630.3154338621187 264.80059084194977,624.8182866522858 266.60265878877397,628.9852397614106 268.4047267355982,627.216058711524 270.20679468242247,640.6014892095135 272.00886262924666,639.8315093562065 273.81093057607086,625.9400617759014 275.61299852289517,619.4159930324582 277.41506646971936,621.5157829059826 279.21713441654356,592.0669220014709 281.01920236336775,591.2069264890426 282.82127031019206,588.8716036437374 284.62333825701626,590.2209823240671 286.42540620384045,582.476503614092 288.2274741506647,582.0044543966985 290.02954209748896,568.5338047674345 291.83161004431315,583.496823268888 293.63367799113735,588.4741771173468 295.4357459379616,602.4565591972301 297.23781388478585,595.7553614398328 299.03988183161005,612.4150335670531 300.84194977843424,605.9066544925528 302.6440177252585,599.8391738588098 304.44608567208275,586.0839509234011 306.24815361890694,568.2444951600934 308.0502215657312,567.2937105510825 309.8522895125554,590.9643732825416 311.65435745937964,593.9865689885412 313.45642540620383,596.283157176194 315.2584933530281,602.6259859612178 317.0605612998523,612.6267823556026 318.86262924667653,604.3562706232653 320.66469719350073,548.3580829684178 322.466765140325,527.5821243842727 324.2688330871492,517.766654259189 326.0709010339734,498.50243738615603 327.8729689807976,479.40290271413426 329.6750369276219,430.3876256757165 331.47710487444607,447.0675898861632 333.2791728212703,445.21867264041407 335.0812407680945,469.75780230778116 336.88330871491877,454.5189432423035 338.68537666174296,451.1379246043831 340.4874446085672,459.6137564648936 342.2895125553914,443.4863038794437 344.09158050221566,448.1212952850637 345.89364844903986,446.5774377050668 347.6957163958641,403.4520059688029 349.4977843426883,404.81573333694365 351.29985228951256,401.2942034619524 353.1019202363368,404.05034412587895 354.903988183161,412.9278705285056 356.7060561299852,425.56639354895816 358.50812407680945,379.16323152830813 360.3101920236337,387.9517690319272 362.1122599704579,381.8387860918592 363.9143279172821,373.43025472158934 365.71639586410635,371.13972928013754 367.5184638109306,380.487351214426 369.3205317577548,382.74833734227894 371.122599704579,356.4910496236197 372.92466765140324,365.04315857305437 374.7267355982275,340.667337682892 376.5288035450517,340.9638735259771 378.3308714918759,337.5512742102097 380.13293943870013,368.6950370329226 381.9350073855244,376.4600281751144 383.7370753323486,350.7366555719106 385.53914327917283,349.95324955543816 387.34121122599703,344.8891818772155 389.1432791728213,347.7230697388386 390.9453471196455,334.3767065950265 392.7474150664697,328.44703140856126 394.5494830132939,334.91150404049483 396.3515509601182,367.39293061477633 398.1536189069424,388.42259284893265 399.9556868537666,383.50441306275394 401.7577548005908,394.24712339647186 403.55982274741507,403.6437519459282 405.36189069423926,394.0184778055948 407.16395864106346,378.86981137563447 408.96602658788777,376.7936840823888 410.76809453471196,398.07221439802754 412.5701624815362,402.0026668086595 414.3722304283604,394.1074287093415 416.1742983751846,402.0250334811953 417.97636632200886,404.0953300049675 419.77843426883305,404.21497843682346 421.58050221565736,399.3964297803272 423.38257016248156,383.6546984279392 425.18463810930575,366.30099015437077 426.98670605613,361.86029338140503 428.7887740029542,363.2765548294392 430.5908419497784,348.4309845237343 432.39290989660265,387.5531770817722 434.1949778434269,397.10487291928536 435.99704579025115,412.99104583357723 437.79911373707534,402.91559948853495 439.60118168389954,401.9011384637426 441.4032496307238,403.53426781843314 443.205317577548,415.8018828880933 445.0073855243722,401.55713572877653 446.80945347119643,367.9499706862672 448.6115214180207,383.65440342543525 450.41358936484494,355.46128432954566 452.21565731166913,371.27785942988754 454.01772525849333,389.2879119219435 455.8197932053176,379.53464442334723 457.6218611521418,364.0681424485421 459.42392909896597,379.7217912572722 461.2259970457903,368.5986979242367 463.0280649926145,369.31345469951583 464.8301329394387,368.6852637915432 466.6322008862629,383.5628641088763 468.4342688330871,390.16857132946245 470.23633677991137,403.6043422114189 472.03840472673556,393.2059844557892 473.8404726735599,375.732912773215 475.64254062038407,375.6746759064707 477.44460856720826,400.58305621172707 479.2466765140325,435.5044742436079 481.0487444608567,424.3239175323239 482.8508124076809,452.2993665720884 484.65288035450516,447.8439317181677 486.4549483013294,461.51561367504235 488.25701624815366,470.3604537291938 490.05908419497786,469.1552477899604 491.86115214180205,469.831530227477 493.6632200886263,462.5317047489895 495.4652880354505,475.32046020766313 497.2673559822747,450.3926199405521 499.069423929099,462.5068272103479 500.8714918759232,453.04726964536894 502.67355982274745,457.5469816984467 504.47562776957164,465.8771603411104 506.27769571639584,454.8180594228792 508.0797636632201,465.8540397315701 509.8818316100443,456.8411138570484 511.6838995568685,449.166318884638 513.4859675036928,465.7579862183658 515.288035450517,450.0127661779455 517.0901033973412,442.71349660235495 518.8921713441655,498.89561810408844 520.6942392909896,509.32190998918406 522.4963072378139,543.6171786760056 524.2983751846381,546.3155051616992 526.1004431314624,557.0700192832852 527.9025110782866,555.6027318864695 529.7045790251108,490.12404901430534 531.506646971935,565.4398694967645 533.3087149187593,559.1481849719409 535.1107828655834,539.8377675350644 536.9128508124077,547.6325867056935 538.714918759232,565.2947496645024 540.5169867060562,556.9311955661826 542.3190546528804,599.550484176275 544.1211225997046,629.8985870433341 545.9231905465288,609.2443077878967 547.7252584933531,609.8753812081821 549.5273264401771,623.8749121609288 551.3293943870015,608.2822384849745 553.1314623338258,602.7912833401581 554.93353028065,616.3814231786827 556.7355982274742,605.5628408565498 558.5376661742984,607.9731398278774 560.3397341211225,574.3983460625825 562.1418020679469,594.8156977255072 563.9438700147712,598.357835523691 565.7459379615952,596.0779224997976 567.5480059084196,585.726313117037 569.3500738552437,568.2743703355433 571.152141802068,571.2302858407736 572.9542097488921,582.9340203667736 574.7562776957163,583.3673847678771 576.5583456425406,610.2824463381259 578.360413589365,627.5444553895885 580.162481536189,631.8921748237908 581.9645494830133,628.7537718333709 583.7666174298375,606.5739223125482 585.5686853766617,633.9679839777834 587.3707533234859,628.1939812746945 589.1728212703101,626.4541735786378 590.9748892171344,629.4789499342111 592.7769571639587,684.5103563886298 594.5790251107828,687.6301933121587 596.3810930576071,710.0 598.1831610044313,657.120335505295 599.9852289512555,692.3993481714014 601.7872968980797,674.3891587383914 603.589364844904,655.0988379093242 605.3914327917282,667.7268554349315 607.1935007385524,660.5202206862783 608.9955686853766,669.556266327517 610.7976366322009,670.6702069356697 612.5997045790251,667.085655321908 614.4017725258493,667.4536596607959 616.2038404726736,661.3782776885391 618.0059084194978,665.8895034566523 619.807976366322,661.4111726080231 621.6100443131462,613.1939492140982 623.4121122599704,605.2910621621514 625.2141802067947,609.3429801724853 627.0162481536189,604.7050206180874 628.8183161004432,598.1559626856947 630.6203840472674,605.9450457572011 632.4224519940916,601.1894256806429 634.2245199409158,603.5229318951265 636.02658788774,604.5720289166804 637.8286558345642,590.2420478248958 639.6307237813885,588.4417377194135 641.4327917282127,592.8144338417871 643.234859675037,601.504812334242 645.0369276218612,598.2563660265027 646.8389955686854,593.5100395876389 648.6410635155096,594.0219139007576 650.4431314623338,504.4743866869265 652.245199409158,479.34723660223455 654.0472673559823,430.1807817121351 655.8493353028065,444.79302369292174 657.6514032496308,451.714549418 659.453471196455,413.9883065345105 661.2555391432792,428.457570029436 663.0576070901034,439.3241223547809 664.8596750369276,442.06834913917 666.6617429837518,454.48367458536785 668.4638109305761,441.9763452404359 670.2658788774003,438.45552008076857 672.0679468242246,435.9349003732036 673.8700147710488,423.8325391072476 675.672082717873,397.4975211756108 677.4741506646972,434.4384109458262 679.2762186115214,432.52294250098686 681.0782865583457,425.3681705356246 682.8803545051699,422.0768453911896 684.6824224519941,405.0616699014191 686.4844903988184,404.2364937686616 688.2865583456426,419.3418916417724 690.0886262924668,441.8551096783285 691.890694239291,440.7970538229044 693.6927621861153,436.07006125321846 695.4948301329395,422.6815554797297 697.2968980797637,426.4996963258145 699.0989660265878,425.63449154408374 700.9010339734122,469.85177983570685 702.7031019202363,450.9583096388226 704.5051698670607,438.9281422487032 706.3072378138849,441.37757738791333 708.109305760709,398.1232242894176 709.9113737075332,372.88263575844877 711.7134416543574,385.24156472746347 713.5155096011816,416.7037359615901 715.3175775480059,427.57009679679055 717.1196454948301,438.22811329290636 718.9217134416543,434.8914025020989 720.7237813884785,432.2354533566696 722.5258493353027,444.41158999825467 724.3279172821269,440.8188440123779 726.1299852289513,442.1855796194751 727.9320531757755,466.9524435909618 729.7341211225997,490.40140921847757 731.5361890694239,506.19088260724675 733.3382570162482,460.5554856608512 735.1403249630724,451.8473984810883 736.9423929098966,454.2230492834003 738.7444608567208,455.662313869923 740.546528803545,454.1810479230096 742.3485967503692,451.1725435695371 744.1506646971935,436.6817360172064 745.9527326440177,442.46406981230945 747.7548005908419,461.24995056989076 749.5568685376661,422.261947556146 751.3589364844903,416.4689024210058 753.1610044313147,436.0724912134045 754.9630723781389,433.9883671682209 756.7651403249631,421.4825022884742 758.5672082717873,429.1933027305648 760.3692762186115,413.6116132297985 762.1713441654358,379.11099040993565 763.97341211226,333.2395246767798 765.7754800590842,327.8430990835169 767.5775480059084,330.8737446342335 769.3796159527326,321.264888201251 771.1816838995568,311.72920272034276 772.9837518463811,294.1133632124319 774.7858197932053,249.14331313136313 776.5878877400295,228.7588847335893 778.3899556868538,219.7261990257992 780.192023633678,212.84987059706145 781.9940915805023,189.5806607385905 783.7961595273265,188.5971810778684 785.5982274741507,184.80758489062976 787.4002954209749,202.45271312500836 789.2023633677991,193.90722604075745 791.0044313146234,193.6113064073122 792.8064992614476,190.93856478348437 794.6085672082718,173.50071617392996 796.410635155096,184.35749439528297 798.2127031019202,185.27527825003745 800.0147710487444,183.83124459306396 801.8168389955687,199.2241835063394 803.6189069423929,224.7514680413439 805.4209748892172,235.05732643776992 807.2230428360414,221.32294858828033 809.0251107828656,198.37958610384703 810.8271787296899,210.61388369757765 812.6292466765141,201.93581953221798 814.4313146233383,175.77880741365402 816.2333825701625,168.86036967869768 818.0354505169867,147.5874734541227 819.837518463811,142.06677847019807 821.6395864106352,145.71576036934778 823.4416543574594,112.77801114188173 825.2437223042836,92.48950250173596 827.0457902511077,119.52781357422737 828.8478581979319,130.02684936827336 830.6499261447564,131.3162686499029 832.4519940915806,127.42163841897275 834.2540620384048,142.20156155690734 836.056129985229,167.99926214208313 837.8581979320531,145.19551040397778 839.6602658788775,157.65299407453892 841.4623338257016,102.26684377869151 843.2644017725258,109.72246291918964 845.06646971935,113.83301189281417 846.8685376661742,149.86442027798273 848.6706056129985,130.27757475864485 850.4726735598227,138.09159858095722 852.2747415066469,134.78316655692674 854.0768094534711,154.7752886364201 855.8788774002954,152.75922576448556 857.6809453471197,152.88285624478522 859.4830132939439,155.93574511778309 861.2850812407681,150.5556498363378 863.0871491875923,140.7363940776239 864.8892171344165,153.69479196930752 866.6912850812408,153.17153697916376 868.493353028065,156.51810593088885 870.2954209748892,152.26977052144707 872.0974889217134,150.10514327138287 873.8995568685376,151.01407985982314 875.7016248153618,142.71683273732936 877.5036927621861,131.57001495225006 879.3057607090103,112.78851003314173 881.1078286558345,116.22349800351401 882.9098966026588,122.00721529779196 884.711964549483,127.38956215128519 886.5140324963073,125.57414485346362 888.3161004431315,120.28063662382488 890.1181683899557,119.02754988372965 891.9202363367799,130.32855015750977 893.7223042836041,129.39269707104665 895.5243722304284,132.88784303716636 897.3264401772526,155.31759877269235 899.1285081240768,159.486609336754 900.930576070901,157.22643469143065 902.7326440177252,185.960559379443 904.5347119645494,173.40369013990323 906.3367799113737,174.42883373908796 908.138847858198,159.472372169604 909.9409158050222,148.89379624472883 911.7429837518464,154.76364697990084 913.5450516986706,128.89796899491307 915.3471196454949,114.26321162144393 917.1491875923191,108.11627060513422 918.9512555391433,109.6495087825516 920.7533234859675,105.25149328037128 922.5553914327917,90.0 924.357459379616,115.10589593079203 926.1595273264402,104.80652291006493 927.9615952732644,120.03140295493733 929.7636632200886,179.72206027815866 931.5657311669128,191.4602243406125 933.367799113737,150.16061434763924 935.1698670605614,142.97855350721727 936.9719350073856,157.4013435080633 938.7740029542098,173.51791528940396 940.576070901034,187.2539712348124 942.3781388478582,196.58818346801752 944.1802067946825,190.04693099082226 945.9822747415067,178.52182151514398 947.7843426883309,173.64638399243518 949.5864106351551,188.65657933866146 951.3884785819793,196.69569730984233 953.1905465288036,184.89597182710133 954.9926144756278,175.3273531552311 956.794682422452,171.82659334902178 958.5967503692762,144.51491906443687 960.3988183161005,149.34163071291732 962.2008862629248,165.09096390101183 964.002954209749,180.33519724517737 965.8050221565732,194.597387253526 967.6070901033974,186.9593833099749 969.4091580502215,182.9514526986892 971.2112259970457,178.20075959988753 973.01329394387,220.42478416332403 974.8153618906942,268.7674879035357 976.6174298375184,246.45197755841463 978.4194977843426,267.0399114319363 980.2215657311668,246.64630904710538 982.0236336779911,253.94855075534912 983.8257016248153,223.2931921627 985.6277695716396,220.93281596950067 987.4298375184638,249.8670975915952 989.231905465288,254.87204190270262 991.0339734121123,285.25701533100806 992.8360413589365,318.36652756593907 994.6381093057607,307.3999172973598 996.4401772525849,321.7156954354624 998.2422451994091,337.2811714374825 1000.0443131462333,322.2011701781744 1001.8463810930576,340.16238166992355 1003.6484490398818,382.4839670026328 1005.450516986706,396.35113698627674 1007.2525849335302,397.0940486084843 1009.0546528803544,385.3576075980254 1010.8567208271787,360.0951059025023 1012.658788774003,362.6648296342018 1014.4608567208272,342.367711828004 1016.2629246676514,340.88711418647034 1018.0649926144756,340.0981374790581 1019.8670605612999,345.8987884697408 1021.6691285081241,347.3212644495101 1023.4711964549483,387.67618528882684 1025.2732644017724,343.3120350625515 1027.0753323485967,309.9198192846657 1028.877400295421,322.2077607839686 1030.679468242245,346.9288021239025 1032.4815361890694,345.00365806665616 1034.2836041358937,338.00096314396194 1036.0856720827178,328.5708300761918 1037.8877400295423,295.36691207118497 1039.6898079763664,296.9319694923366 1041.4918759231905,306.7006783569203 1043.2939438700148,335.59415585265606 1045.096011816839,331.668037471438 1046.8980797636632,346.4413928610873 1048.7001477104875,366.2614219752164 1050.5022156573118,361.15412765793536 1052.304283604136,384.666535848938 1054.10635155096,388.25926612779125 1055.9084194977843,358.1090267961039 1057.7104874446086,357.42476474472585 1059.5125553914327,352.92065688773283 1061.314623338257,352.3992513922218 1063.1166912850813,362.64156434071094 1064.9187592319054,364.33253557879294 1066.72082717873,371.68369061492126 1068.522895125554,368.1349149796511 1070.324963072378,363.37607293361475 1072.1270310192024,362.8047059431042 1073.9290989660267,367.66745306769565 1075.7311669128508,357.9707785631388 1077.533234859675,361.8500706061291 1079.3353028064994,352.6832268333564 1081.1373707533235,331.4271893839513 1082.9394387001475,328.98138005766305 1084.7415066469719,323.23167857499845 1086.5435745937962,303.3061531046539 1088.3456425406202,294.47964188005267 1090.1477104874448,321.04209087255094 1091.9497784342689,330.18009387266136 1093.751846381093,334.77616108168684 1095.5539143279175,335.523449981075 1097.3559822747416,328.84917508181206 1099.1580502215656,331.2150538826346 1100.96011816839,284.4881973650407 1102.7621861152143,274.35534165054753 1104.5642540620383,284.43888029851706 1106.3663220088627,287.8351448925676 1108.168389955687,287.3986049826665 1109.970457902511,296.5528760947825 1111.7725258493351,313.2857090815587 1113.5745937961594,362.82196117741114 1115.3766617429837,353.092782184977 1117.178729689808,356.74728406645653 1118.9807976366324,356.2494036907388 1120.7828655834564,358.25606939225975 1122.5849335302808,385.7306274708513 1124.3870014771048,364.3377328930795 1126.1890694239291,348.3847670005147 1127.9911373707532,350.3115303386473 1129.7932053175775,393.0106011925314 1131.5952732644018,409.8779319381598 1133.397341211226,464.46010954071573 1135.1994091580502,495.76710343399805 1137.0014771048743,478.1868547277569 1138.8035450516986,506.34646509832214 1140.605612998523,529.3832074794934 1142.4076809453472,616.6587325928533 1144.2097488921713,550.3493123892264 1146.0118168389956,551.3729504597466 1147.81388478582,547.102531488358 1149.615952732644,545.3005033235173 1151.4180206794683,563.4015628991607 1153.2200886262924,583.4491794353305 1155.0221565731167,585.4500700228687 1156.8242245199408,559.0330984593563 1158.626292466765,549.1478817372832 1160.4283604135894,572.5314044789304 1162.2304283604135,567.007059814605 1164.0324963072378,573.3353088634203 1165.834564254062,583.2151868054268 1167.6366322008864,582.2571687169753 1169.4387001477105,575.1294487030485 1171.2407680945348,574.4324874071168 1173.042836041359,578.3821012729138 1174.8449039881832,606.4538683405633 1176.6469719350075,609.1548023894449 1178.4490398818316,560.243181061955 1180.251107828656,567.0819093323745 1182.05317577548,589.5352057613048 1183.8552437223043,579.5251886729735 1185.6573116691284,588.212470323552 1187.4593796159527,562.0663064781967 1189.261447562777,571.3339012534326 1191.063515509601,530.8949479803359 1192.8655834564254,546.7431607449774 1194.6676514032497,572.922158731064 1196.469719350074,577.608234197313 1198.271787296898,587.9040098491658 1200.0738552437224,569.2606982352202 1201.8759231905465,556.247241910543 1203.6779911373708,552.7524747203614 1205.480059084195,547.9251098869905 1207.2821270310192,543.2464837163499 1209.0841949778435,541.5122211512377 1210.8862629246676,521.8845737605504 1212.6883308714919,485.23698976357707 1214.490398818316,494.6707754660266 1216.2924667651403,524.0224934818272 1218.0945347119646,539.9888985452178 1219.8966026587889,536.4446201939204 1221.698670605613,552.7062454714537 1223.5007385524373,561.9842422300529 1225.3028064992616,534.0244091776094 1227.1048744460857,534.7026457967197 1228.90694239291,529.6805611905759 1230.709010339734,557.5468147068345 1232.5110782865584,577.9995070363527 1234.3131462333827,577.8908910322142 1236.1152141802067,580.9524217236085 1237.917282127031,571.0451166115822 1239.7193500738551,552.2302389546354 1241.5214180206794,546.5933440729219 1243.3234859675035,565.1588520406603 1245.125553914328,565.4430386621368 1246.9276218611521,562.2197925393176 1248.7296898079765,548.2385143976059 1250.5317577548005,549.1354812014699 1252.3338257016248,515.3061423170133 1254.1358936484492,526.7078675818871 1255.9379615952732,523.9448032589814 1257.7400295420975,509.96807487608504 1259.5420974889216,503.0840447634534 1261.344165435746,527.7395712746592 1263.1462333825702,483.78850269191474 1264.9483013293943,492.5690159048217 1266.7503692762186,483.8588303784992 1268.5524372230427,484.561069790961 1270.354505169867,465.17518596198227 1272.1565731166913,481.8531486984801 1273.9586410635156,503.84955107346264 1275.7607090103397,487.4055273909529 1277.562776957164,483.31908668286707 1279.3648449039881,468.19974397516285 1281.1669128508124,475.22075678667 1282.9689807976367,480.96670663161217 1284.7710487444608,479.5361720355535 1286.5731166912851,467.1576629751697 1288.3751846381092,483.3972091289436 1290.1772525849335,489.8486125770237 1291.9793205317578,498.2664995517786 1293.781388478582,495.27609573857166 1295.5834564254062,481.2908980401437 1297.3855243722305,475.99176739772537 1299.1875923190546,475.5463780755891 1300.989660265879,466.4148464760575 1302.7917282127032,460.0226763104964 1304.5937961595273,459.58020209596816 1306.3958641063516,475.2493669888253 1308.1979320531757,471.75572933081685 1310.0,466.72323258930396" fill="none" stroke="#9333ea" stroke-width="2.5"><title>budgeted_drawdown_tilt_rebalance | end=2026-05-09 | return=19.84%</title></polyline>
<polyline points="90.0,584.3973314187831 91.80206794682422,584.4992640967401 93.60413589364845,585.3836194112241 95.40620384047267,587.9497419967371 97.2082717872969,588.9422276931839 99.01033973412112,586.6685107865958 100.81240768094534,591.0804213915033 102.61447562776956,588.4414756842395 104.4165435745938,585.5266476627564 106.21861152141801,585.2379600012155 108.02067946824224,585.9462059346641 109.82274741506646,583.7054578609528 111.6248153618907,579.4966531205483 113.42688330871492,573.4171201405035 115.22895125553914,554.7768928160647 117.03101920236337,555.5840832830629 118.83308714918759,560.6030473664765 120.63515509601181,559.1860204265342 122.43722304283604,548.280315192158 124.23929098966026,546.4027041718598 126.04135893648449,542.700447497295 127.84342688330872,549.2814202154448 129.64549483013292,551.9343803893933 131.44756277695717,561.5701088716039 133.2496307237814,569.0472289022086 135.05169867060562,556.497942032823 136.85376661742984,558.0593629098927 138.65583456425406,555.6579550430663 140.4579025110783,557.9767125418435 142.2599704579025,562.5689549263088 144.06203840472674,571.2542938002948 145.86410635155096,570.7367609452203 147.66617429837518,599.8969202347781 149.4682422451994,608.4302042566081 151.27031019202363,632.9084737165672 153.07237813884785,667.5259037969727 154.87444608567208,656.2883473648254 156.6765140324963,667.837889709096 158.47858197932052,618.0697166994225 160.28064992614475,627.0805597074677 162.08271787296897,626.0717303388178 163.8847858197932,638.9695983246905 165.68685376661745,625.3542807644403 167.48892171344164,621.4009008462091 169.29098966026586,632.1698847961602 171.0930576070901,642.9476333974903 172.89512555391434,635.7753986186332 174.69719350073854,631.8534566925306 176.4992614475628,636.4334957150647 178.30132939438698,630.5706075906061 180.10339734121123,636.5885994166923 181.90546528803543,623.7761499252974 183.70753323485968,627.565723304156 185.50960118168388,602.7622054799594 187.31166912850813,602.0768827211068 189.11373707533235,603.1995670496154 190.91580502215658,613.742017968525 192.7178729689808,643.2575897635921 194.51994091580502,640.2489018527422 196.32200886262925,638.9319950468457 198.12407680945347,640.1464872783572 199.9261447562777,641.6453690098409 201.72821270310192,654.6278736120964 203.53028064992614,639.2225941171587 205.33234859675036,654.0123696222993 207.1344165435746,650.0941536350487 208.9364844903988,663.427946655321 210.73855243722303,682.5101979544376 212.54062038404726,678.3833641836927 214.34268833087148,673.6206019203535 216.1447562776957,660.0842582072896 217.94682422451993,655.6551517440774 219.74889217134415,660.1071520506825 221.5509601181684,655.3205795020237 223.3530280649926,639.66464650374 225.15509601181685,643.4720968398003 226.95716395864105,654.1123996885536 228.7592319054653,659.457822645033 230.5612998522895,647.2710467641953 232.36336779911375,638.8319009479685 234.16543574593794,627.6042349661162 235.9675036927622,620.0919585528452 237.76957163958642,616.0165989702022 239.57163958641064,617.2489961241773 241.37370753323486,613.8740835270064 243.1757754800591,609.4153107137695 244.9778434268833,619.2825194248882 246.77991137370753,606.91571455876 248.58197932053173,600.0800249817748 250.38404726735598,601.0888792574683 252.1861152141802,603.4004175546243 253.98818316100443,617.0765519833182 255.79025110782868,638.1627950283287 257.5923190546529,644.4507721434494 259.39438700147707,644.8845942096457 261.1964549483013,634.7834962633277 262.9985228951256,634.9477108848483 264.80059084194977,629.9857914150364 266.60265878877397,633.8271452624344 268.4047267355982,632.9729482676532 270.20679468242247,644.3513266184616 272.00886262924666,644.5887439520939 273.81093057607086,631.3138980789649 275.61299852289517,625.9607023129869 277.41506646971936,627.9757951821143 279.21713441654356,603.3476090116216 281.01920236336775,600.5641765762581 282.82127031019206,597.92883256101 284.62333825701626,599.1920747858613 286.42540620384045,592.3082293252951 288.2274741506647,592.1758231550303 290.02954209748896,582.8019512073099 291.83161004431315,595.3902467045737 293.63367799113735,598.2220531846644 295.4357459379616,608.1893195205356 297.23781388478585,600.6911298333125 299.03988183161005,614.0955476195854 300.84194977843424,609.2593929780987 302.6440177252585,603.5703492570507 304.44608567208275,590.9687197909986 306.24815361890694,574.0954803389461 308.0502215657312,574.4635337293233 309.8522895125554,593.192882179369 311.65435745937964,596.6410658956254 313.45642540620383,598.2330793517469 315.2584933530281,603.3699381479285 317.0605612998523,611.3586658748552 318.86262924667653,602.9026907399606 320.66469719350073,555.7439481380569 322.466765140325,542.9684193124201 324.2688330871492,535.7415908101377 326.0709010339734,524.1355273438553 327.8729689807976,504.27757247650607 329.6750369276219,455.703182382205 331.47710487444607,467.4675492932811 333.2791728212703,460.623079856113 335.0812407680945,483.0459850500058 336.88330871491877,464.9309372783746 338.68537666174296,463.83718434367995 340.4874446085672,470.9055273362334 342.2895125553914,459.32101563821175 344.09158050221566,457.6045332149131 345.89364844903986,451.82521013930517 347.6957163958641,415.1767347694511 349.4977843426883,414.54251366463984 351.29985228951256,415.500985682909 353.1019202363368,416.59238183169833 354.903988183161,434.9056471006651 356.7060561299852,445.60164040189187 358.50812407680945,405.9601391530811 360.3101920236337,412.4374017266704 362.1122599704579,403.6722165522172 363.9143279172821,400.4921110536895 365.71639586410635,396.84255631391545 367.5184638109306,407.2754730737947 369.3205317577548,408.8644321454119 371.122599704579,381.4937988011616 372.92466765140324,392.37676396621 374.7267355982275,365.61327846397364 376.5288035450517,365.7851034340903 378.3308714918759,360.10757267812096 380.13293943870013,396.9038976695721 381.9350073855244,405.5780544838441 383.7370753323486,372.2683811320331 385.53914327917283,373.694186991583 387.34121122599703,366.1481758551543 389.1432791728213,369.0151505776427 390.9453471196455,350.19982075342205 392.7474150664697,341.29315264945353 394.5494830132939,347.8292372924428 396.3515509601182,391.41227543556727 398.1536189069424,417.9434483441594 399.9556868537666,412.2903575250396 401.7577548005908,424.0950414398018 403.55982274741507,437.0453110774973 405.36189069423926,428.2941489788098 407.16395864106346,407.41958701688947 408.96602658788777,404.15809849363126 410.76809453471196,430.85390221225026 412.5701624815362,437.0968721412621 414.3722304283604,428.20517160366563 416.1742983751846,438.0065221573016 417.97636632200886,441.4415644740918 419.77843426883305,440.29228956148097 421.58050221565736,434.4535704453054 423.38257016248156,417.0755013477022 425.18463810930575,400.86244345831153 426.98670605613,397.04908887016785 428.7887740029542,398.0104513066675 430.5908419497784,378.20754755885935 432.39290989660265,422.0866196408968 434.1949778434269,433.7842342741382 435.99704579025115,451.78803277354245 437.79911373707534,439.5470545388282 439.60118168389954,438.95781095599096 441.4032496307238,440.3606009260829 443.205317577548,449.9493315021333 445.0073855243722,435.25531274919473 446.80945347119643,402.37882778451115 448.6115214180207,415.1204307859238 450.41358936484494,386.0486373920656 452.21565731166913,397.3558029634788 454.01772525849333,417.30052607409027 455.8197932053176,408.3429447587446 457.6218611521418,388.6632948967162 459.42392909896597,405.07783759786184 461.2259970457903,396.85930017960624 463.0280649926145,395.26302024941657 464.8301329394387,395.096708843266 466.6322008862629,410.26239708743867 468.4342688330871,415.9347660553986 470.23633677991137,426.85501432144787 472.03840472673556,414.13712919531565 473.8404726735599,400.28427118670515 475.64254062038407,405.8261337267584 477.44460856720826,426.54335366036344 479.2466765140325,456.6831096058512 481.0487444608567,440.34974084966217 482.8508124076809,466.31405399624884 484.65288035450516,466.83977546430185 486.4549483013294,474.5952400361982 488.25701624815366,479.43393172884896 490.05908419497786,478.9668691913166 491.86115214180205,479.31865490130247 493.6632200886263,472.9029242833934 495.4652880354505,484.0557872928239 497.2673559822747,465.5618907893241 499.069423929099,475.1616993811939 500.8714918759232,467.89243555465885 502.67355982274745,469.9503153629567 504.47562776957164,478.276462865219 506.27769571639584,473.5548159096219 508.0797636632201,479.6761506333754 509.8818316100443,472.24713214869837 511.6838995568685,463.60016295877426 513.4859675036928,478.1132266097755 515.288035450517,468.89431881038035 517.0901033973412,466.03406388603184 518.8921713441655,507.8014307487947 520.6942392909896,521.1639043290545 522.4963072378139,550.9666880911115 524.2983751846381,550.9369152581903 526.1004431314624,557.3327221211395 527.9025110782866,551.8479186435333 529.7045790251108,496.3096947658265 531.506646971935,556.3567654691788 533.3087149187593,550.2374164752234 535.1107828655834,531.4949656354986 536.9128508124077,537.1298537002788 538.714918759232,554.4464799027905 540.5169867060562,552.082666729721 542.3190546528804,587.8028972257705 544.1211225997046,607.9892626633182 545.9231905465288,586.0037333784453 547.7252584933531,584.1130330811641 549.5273264401771,597.8038928008867 551.3293943870015,582.5427984409029 553.1314623338258,579.1321114273353 554.93353028065,590.0981273271436 556.7355982274742,581.3398640477185 558.5376661742984,586.2726110025421 560.3397341211225,560.1300258888994 562.1418020679469,576.489790483146 563.9438700147712,578.2837728735417 565.7459379615952,577.9985538203562 567.5480059084196,567.064143398261 569.3500738552437,555.7136126335205 571.152141802068,557.193735793842 572.9542097488921,563.4247595943799 574.7562776957163,562.7197675160493 576.5583456425406,582.0591183809353 578.360413589365,594.2572868848237 580.162481536189,596.6932186675264 581.9645494830133,594.9853759417233 583.7666174298375,578.2198493551521 585.5686853766617,597.1780450725948 587.3707533234859,592.8195620961344 589.1728212703101,590.0487172249641 590.9748892171344,592.3424654891877 592.7769571639587,629.6466123008773 594.5790251107828,628.540516153053 596.3810930576071,646.1477686003998 598.1831610044313,605.9990282777125 599.9852289512555,629.1700931263373 601.7872968980797,610.428018955767 603.589364844904,597.0685266934461 605.3914327917282,606.7267012008662 607.1935007385524,601.276878540381 608.9955686853766,607.7627091456637 610.7976366322009,606.9901330159058 612.5997045790251,602.7392494466034 614.4017725258493,604.3902254923299 616.2038404726736,600.1429036995237 618.0059084194978,601.612625612805 619.807976366322,592.7197693167377 621.6100443131462,555.5542808245697 623.4121122599704,551.6695082960182 625.2141802067947,552.4149269616162 627.0162481536189,548.4970403387842 628.8183161004432,546.0399799405311 630.6203840472674,551.8071714115455 632.4224519940916,546.0950292990428 634.2245199409158,549.3604988171141 636.02658788774,550.0436977901054 637.8286558345642,537.2690057062703 639.6307237813885,535.3281734405739 641.4327917282127,540.3010986978788 643.234859675037,548.559439084394 645.0369276218612,545.8749513668025 646.8389955686854,537.6042456674211 648.6410635155096,537.140353580029 650.4431314623338,482.967067734908 652.245199409158,473.85841743724177 654.0472673559823,448.87687230537387 655.8493353028065,456.7220543641367 657.6514032496308,463.51830982108453 659.453471196455,444.5822779964771 661.2555391432792,452.0735559625579 663.0576070901034,455.6304721770641 664.8596750369276,457.5840199048768 666.6617429837518,463.5148099956221 668.4638109305761,448.5121256897953 670.2658788774003,449.72741035396353 672.0679468242246,444.8821256991496 673.8700147710488,431.5468012095342 675.672082717873,415.00403258772513 677.4741506646972,442.93499158863773 679.2762186115214,440.76768258389774 681.0782865583457,434.1307846199383 682.8803545051699,431.56854688589345 684.6824224519941,426.3284736452426 686.4844903988184,429.5252012637836 688.2865583456426,442.3150760777381 690.0886262924668,455.8794821442394 691.890694239291,453.6002477376987 693.6927621861153,448.5373354044697 695.4948301329395,442.6233930458139 697.2968980797637,445.51963183786563 699.0989660265878,447.2883500352422 700.9010339734122,474.41543620493815 702.7031019202363,458.364505480528 704.5051698670607,449.90534091576774 706.3072378138849,450.36966736533367 708.109305760709,419.5702700406222 709.9113737075332,409.60968285300834 711.7134416543574,419.44403171503336 713.5155096011816,440.8225362414941 715.3175775480059,443.90350510987014 717.1196454948301,450.0957701840345 718.9217134416543,448.3719735818178 720.7237813884785,443.51256094156025 722.5258493353027,455.19547208312804 724.3279172821269,452.7892010156257 726.1299852289513,454.06924870409773 727.9320531757755,467.96040705622664 729.7341211225997,480.7347421625841 731.5361890694239,490.5019839260174 733.3382570162482,459.049047955418 735.1403249630724,453.41884958818434 736.9423929098966,450.5301199473858 738.7444608567208,452.22435683011884 740.546528803545,451.38518200169847 742.3485967503692,449.47189936686954 744.1506646971935,440.6090454510351 745.9527326440177,446.578266829365 747.7548005908419,458.4346711395078 749.5568685376661,433.39194615692463 751.3589364844903,428.8549851240882 753.1610044313147,441.45594930848273 754.9630723781389,439.9706675581379 756.7651403249631,432.082509848632 758.5672082717873,438.0074170017765 760.3692762186115,429.76549022366083 762.1713441654358,409.08230643693656 763.97341211226,376.5457586828116 765.7754800590842,369.70288818622697 767.5775480059084,371.23196707488887 769.3796159527326,362.4002409505994 771.1816838995568,356.40905254042195 772.9837518463811,355.7143599690336 774.7858197932053,334.75461784084337 776.5878877400295,324.5051866514319 778.3899556868538,324.3028886882114 780.192023633678,321.3027913333277 781.9940915805023,310.51146994750974 783.7961595273265,309.64910327159026 785.5982274741507,301.24011684391763 787.4002954209749,315.7978190932577 789.2023633677991,310.6145391854375 791.0044313146234,311.82829264595927 792.8064992614476,309.11644890067373 794.6085672082718,291.9429724143026 796.410635155096,303.58392116871687 798.2127031019202,304.6100791393807 800.0147710487444,303.3662706838872 801.8168389955687,320.95708703037786 803.6189069423929,349.31960513903437 805.4209748892172,360.47237632691787 807.2230428360414,344.71236666701003 809.0251107828656,320.24723465350917 810.8271787296899,333.9678270728509 812.6292466765141,323.93075474118325 814.4313146233383,293.670764618967 816.2333825701625,286.7630331274184 818.0354505169867,263.09881601124636 819.837518463811,254.79155695986753 821.6395864106352,259.43125944837533 823.4416543574594,219.76082793108867 825.2437223042836,193.52511755035755 827.0457902511077,229.24504461780305 828.8478581979319,242.6371846074178 830.6499261447564,244.20910153464553 832.4519940915806,239.3914848275839 834.2540620384048,258.3709551850362 836.056129985229,292.2390011924824 837.8581979320531,263.2340270893434 839.6602658788775,279.69167907959445 841.4623338257016,208.56663085021955 843.2644017725258,218.82526678206887 845.06646971935,225.16716983806185 846.8685376661742,273.5333196593964 848.6706056129985,247.3381914207464 850.4726735598227,257.77180173770876 852.2747415066469,252.73151422485932 854.0768094534711,281.0552064229889 855.8788774002954,278.1854273809306 857.6809453471197,278.67111753747395 859.4830132939439,282.0699501969899 861.2850812407681,273.95721271749306 863.0871491875923,260.9506909577346 864.8892171344165,278.3053387933283 866.6912850812408,277.65732757903334 868.493353028065,282.2401495697513 870.2954209748892,276.23550241661906 872.0974889217134,272.9139846011574 873.8995568685376,274.37609757115075 875.7016248153618,262.3158023900825 877.5036927621861,247.03844584916885 879.3057607090103,222.41420968855738 881.1078286558345,226.95323280581783 882.9098966026588,234.82881270474167 884.711964549483,241.8085736904734 886.5140324963073,238.69495395369557 888.3161004431315,231.97783287445054 890.1181683899557,230.02360531073612 891.9202363367799,245.44933598428804 893.7223042836041,244.20018606824448 895.5243722304284,248.9843733714689 897.3264401772526,279.465049721165 899.1285081240768,285.2814368821912 900.930576070901,281.7095432781918 902.7326440177252,321.7915286622349 904.5347119645494,304.92968888667167 906.3367799113737,306.26556262691435 908.138847858198,286.29532301953776 909.9409158050222,272.0413311706108 911.7429837518464,279.6064058368431 913.5450516986706,245.06978129817094 915.3471196454949,225.78508978289187 917.1491875923191,217.38356320443216 918.9512555391433,219.2738273722473 920.7533234859675,213.3343529034995 922.5553914327917,193.6541817405065 924.357459379616,226.50973128729714 926.1595273264402,212.83684842629071 927.9615952732644,232.5846634733656 929.7636632200886,310.9748495111727 931.5657311669128,326.43067704542375 933.367799113737,273.5534693932803 935.1698670605614,264.5073756394645 936.9719350073856,283.0990196769642 938.7740029542098,303.8018895780904 940.576070901034,321.30514312797646 942.3781388478582,332.9811515776826 944.1802067946825,324.83240002407405 945.9822747415067,310.7074748590135 947.7843426883309,304.67362373684745 949.5864106351551,322.49900988783355 951.3884785819793,331.8349182306427 953.1905465288036,318.1743893322844 954.9926144756278,307.4264996455942 956.794682422452,303.51484693484264 958.5967503692762,273.747278736182 960.3988183161005,279.0858602953589 962.2008862629248,296.69539251657073 964.002954209749,313.76705464775966 965.8050221565732,329.33049262367126 967.6070901033974,321.0677989626526 969.4091580502215,316.82609691477336 971.2112259970457,311.9027518186146 973.01329394387,354.83412243186643 974.8153618906942,402.82311425653324 976.6174298375184,381.32785493438547 978.4194977843426,400.760343897782 980.2215657311668,382.33258283142663 982.0236336779911,388.9299899440302 983.8257016248153,363.03628868784295 985.6277695716396,360.3276220031415 987.4298375184638,384.93103394063326 989.231905465288,389.7734207659856 991.0339734121123,414.56522628895306 992.8360413589365,443.4476713300957 994.6381093057607,434.409249674534 996.4401772525849,446.2042581496791 998.2422451994091,459.47885342788754 1000.0443131462333,447.58839141546554 1001.8463810930576,462.0914719299349 1003.6484490398818,497.41015812189653 1005.450516986706,508.83747797352885 1007.2525849335302,509.6894582801664 1009.0546528803544,499.37288416290164 1010.8567208271787,479.699412382343 1012.658788774003,482.3145704717062 1014.4608567208272,465.0993197708836 1016.2629246676514,463.382007929066 1018.0649926144756,463.1129246425445 1019.8670605612999,467.4181090518271 1021.6691285081241,468.80235238241124 1023.4711964549483,501.4155923869137 1025.2732644017724,465.18317003262075 1027.0753323485967,439.1370522037556 1028.877400295421,449.1352440033014 1030.679468242245,469.2439684018767 1032.4815361890694,467.8914543890104 1034.2836041358937,461.9492608123254 1036.0856720827178,454.86617629184923 1037.8877400295423,429.1374216971301 1039.6898079763664,430.7006601421855 1041.4918759231905,437.5522290280617 1043.2939438700148,460.03328532613205 1045.096011816839,457.1731258057496 1046.8980797636632,469.2134506759049 1048.7001477104875,484.75323166020564 1050.5022156573118,480.1688176775175 1052.304283604136,498.34631235912013 1054.10635155096,501.4175801737581 1055.9084194977843,477.7995046915034 1057.7104874446086,477.1623827869281 1059.5125553914327,473.6796729292058 1061.314623338257,473.347066258988 1063.1166912850813,481.5076980556163 1064.9187592319054,482.63943350105546 1066.72082717873,488.27742337557265 1068.522895125554,485.60682257447127 1070.324963072378,481.8221664780916 1072.1270310192024,481.36315790885385 1073.9290989660267,485.3738248920414 1075.7311669128508,477.5187037101497 1077.533234859675,480.88797368155235 1079.3353028064994,473.44792682405773 1081.1373707533235,457.172035753566 1082.9394387001475,455.0048452437543 1084.7415066469719,450.2687336004725 1086.5435745937962,434.28528779744346 1088.3456425406202,427.91240295964377 1090.1477104874448,448.7924239157708 1091.9497784342689,455.6300175591259 1093.751846381093,459.29469045113177 1095.5539143279175,459.9181733338195 1097.3559822747416,454.74664998868815 1099.1580502215656,456.29200065195954 1100.96011816839,419.6202957589038 1102.7621861152143,411.2784777762406 1104.5642540620383,419.46434584290233 1106.3663220088627,421.99935534576133 1108.168389955687,421.9120023530452 1109.970457902511,429.48193353580206 1111.7725258493351,442.3614019021717 1113.5745937961594,481.12048131210446 1115.3766617429837,473.37921283207464 1117.178729689808,475.99514336666414 1118.9807976366324,475.6240106219549 1120.7828655834564,477.3241011420835 1122.5849335302808,498.91762196447496 1124.3870014771048,482.26557282998715 1126.1890694239291,470.0788054897356 1127.9911373707532,471.46222867225674 1129.7932053175775,505.45294318660365 1131.5952732644018,518.0351091461125 1133.397341211226,561.0958767628724 1135.1994091580502,584.6593531121233 1137.0014771048743,571.2057139828289 1138.8035450516986,592.4810701583422 1140.605612998523,609.903707017298 1142.4076809453472,675.4326494419821 1144.2097488921713,626.16156557495 1146.0118168389956,628.1051189454591 1147.81388478582,624.4123252857953 1149.615952732644,623.5039072729535 1151.4180206794683,635.8761619497219 1153.2200886262924,649.8747657151332 1155.0221565731167,651.9673790325401 1156.8242245199408,633.3333937094508 1158.626292466765,626.3599676470265 1160.4283604135894,641.4141234631728 1162.2304283604135,638.0772407307751 1164.0324963072378,643.3778369287509 1165.834564254062,650.3878807505899 1167.6366322008864,649.200823337702 1169.4387001477105,643.8549490882178 1171.2407680945348,643.475863191132 1173.042836041359,646.1868495147869 1174.8449039881832,666.1191848126515 1176.6469719350075,668.3399547047142 1178.4490398818316,635.0856560895272 1180.251107828656,639.6804700468946 1182.05317577548,654.7459877967374 1183.8552437223043,647.6014207997318 1185.6573116691284,654.0686135663217 1187.4593796159527,635.2169195958311 1189.261447562777,641.236304491793 1191.063515509601,612.5177616653303 1192.8655834564254,623.8760166001535 1194.6676514032497,642.4283031076936 1196.469719350074,646.1437565419463 1198.271787296898,653.6603106085761 1200.0738552437224,639.906352320092 1201.8759231905465,630.5188435483137 1203.6779911373708,628.1813964354044 1205.480059084195,624.9727214771642 1207.2821270310192,621.7514555352384 1209.0841949778435,620.4060479875689 1210.8862629246676,607.0424736008066 1212.6883308714919,583.1327746720509 1214.490398818316,589.736602646891 1216.2924667651403,609.943375532252 1218.0945347119646,620.7880851244882 1219.8966026587889,618.0734049574452 1221.698670605613,629.3713991092598 1223.5007385524373,635.9934391071639 1225.3028064992616,616.2390986930518 1227.1048744460857,617.0073016262309 1228.90694239291,613.2169170136763 1230.709010339734,632.378887790616 1232.5110782865584,647.0452458526363 1234.3131462333827,647.017123316178 1236.1152141802067,649.2142487672619 1237.917282127031,642.5315066904012 1239.7193500738551,629.8372079986252 1241.5214180206794,626.6332415502937 1243.3234859675035,638.8631846517385 1245.125553914328,638.9613839572245 1246.9276218611521,636.7108449701378 1248.7296898079765,626.658691983933 1250.5317577548005,627.3474546666939 1252.3338257016248,604.1767826824309 1254.1358936484492,611.7682909849973 1255.9379615952732,609.3867457836917 1257.7400295420975,599.8802944968645 1259.5420974889216,595.7299032156292 1261.344165435746,612.7260541992717 1263.1462333825702,582.9193755069527 1264.9483013293943,588.3727557917948 1266.7503692762186,582.5536747264032 1268.5524372230427,582.62666973662 1270.354505169867,569.1829633936519 1272.1565731166913,580.4322407470052 1273.9586410635156,595.3923317286685 1275.7607090103397,583.5710389043523 1277.562776957164,580.658055864021 1279.3648449039881,569.8071025475024 1281.1669128508124,573.8690814037745 1282.9689807976367,578.1104039516734 1284.7710487444608,577.0702302756172 1286.5731166912851,568.7075543676486 1288.3751846381092,579.644431590917 1290.1772525849335,584.5382214861143 1291.9793205317578,590.0888967419565 1293.781388478582,587.7497117842577 1295.5834564254062,577.4959027050323 1297.3855243722305,573.907629978652 1299.1875923190546,573.7745186738454 1300.989660265879,567.0462414615309 1302.7917282127032,562.1810564900281 1304.5937961595273,561.3607390682256 1306.3958641063516,572.0109290251773 1308.1979320531757,569.7917981843441 1310.0,566.3772720765113" fill="none" stroke="#92400e" stroke-width="2.5"><title>budgeted_btc_defensive_eth_aggressive | end=2026-05-09 | return=3.04%</title></polyline>
</svg>