<svg xmlns="http://www.w3.org/2000/svg" width="1400" height="800">
<rect width="1400" height="800" fill="#f8fafc"/>
<text x="700.0" y="42" text-anchor="middle" font-family="monospace" font-size="24" fill="#0f172a">Portfolio Value Over Time | start=2024-10-01 | interval=1d</text>
<line x1="90" y1="710" x2="1310" y2="710" stroke="#334155" stroke-width="2"/>
<line x1="90" y1="90" x2="90" y2="710" stroke="#334155" stroke-width="2"/>
<line x1="90.0" y1="710" x2="90.0" y2="90" stroke="#cbd5e1" stroke-width="1"/>
<text x="90.0" y="734" text-anchor="middle" font-family="monospace" font-size="11" fill="#475569">2024-10-01</text>
<line x1="90" y1="710.0" x2="1310" y2="710.0" stroke="#cbd5e1" stroke-width="1"/>
<text x="78" y="714.0" text-anchor="end" font-family="monospace" font-size="12" fill="#475569">8179</text>
<line x1="334.0" y1="710" x2="334.0" y2="90" stroke="#cbd5e1" stroke-width="1"/>
<text x="334.0" y="734" text-anchor="middle" font-family="monospace" font-size="11" fill="#475569">2025-01-26</text>
<line x1="90" y1="586.0" x2="1310" y2="586.0" stroke="#cbd5e1" stroke-width="1"/>
<text x="78" y="590.0" text-anchor="end" font-family="monospace" font-size="12" fill="#475569">10347</text>
<line x1="578.0" y1="710" x2="578.0" y2="90" stroke="#cbd5e1" stroke-width="1"/>
<text x="578.0" y="734" text-anchor="middle" font-family="monospace" font-size="11" fill="#475569">2025-05-23</text>
<line x1="90" y1="462.0" x2="1310" y2="462.0" stroke="#cbd5e1" stroke-width="1"/>
<text x="78" y="466.0" text-anchor="end" font-family="monospace" font-size="12" fill="#475569">12515</text>
<line x1="822.0" y1="710" x2="822.0" y2="90" stroke="#cbd5e1" stroke-width="1"/>
<text x="822.0" y="734" text-anchor="middle" font-family="monospace" font-size="11" fill="#475569">2025-09-17</text>
<line x1="90" y1="338.0" x2="1310" y2="338.0" stroke="#cbd5e1" stroke-width="1"/>
<text x="78" y="342.0" text-anchor="end" font-family="monospace" font-size="12" fill="#475569">14683</text>
<line x1="1066.0" y1="710" x2="1066.0" y2="90" stroke="#cbd5e1" stroke-width="1"/>
<text x="1066.0" y="734" text-anchor="middle" font-family="monospace" font-size="11" fill="#475569">2026-01-12</text>
<line x1="90" y1="213.99999999999983" x2="1310" y2="213.99999999999983" stroke="#cbd5e1" stroke-width="1"/>
<text x="78" y="217.99999999999983" text-anchor="end" font-family="monospace" font-size="12" fill="#475569">16850</text>
<line x1="1310.0" y1="710" x2="1310.0" y2="90" stroke="#cbd5e1" stroke-width="1"/>
<text x="1310.0" y="734" text-anchor="middle" font-family="monospace" font-size="11" fill="#475569">2026-05-09</text>
<line x1="90" y1="90.0" x2="1310" y2="90.0" stroke="#cbd5e1" stroke-width="1"/>
<text x="78" y="94.0" text-anchor="end" font-family="monospace" font-size="12" fill="#475569">19018</text>
<text x="700.0" y="782" text-anchor="middle" font-family="monospace" font-size="16" fill="#0f172a">time</text>
<text x="24" y="400.0" transform="rotate(-90 24,400.0)" text-anchor="middle" font-family="monospace" font-size="16" fill="#0f172a">portfolio_value_usd</text>
<line x1="970" y1="80" x2="988" y2="80" stroke="#0f766e" stroke-width="3"/>
<text x="998" y="84" font-family="monospace" font-size="12" fill="#0f172a">budgeted_static_50_50_rebalance</text>
<line x1="970" y1="104" x2="988" y2="104" stroke="#9333ea" stroke-width="3"/>
<text x="998" y="108" font-family="monospace" font-size="12" fill="#0f172a">budgeted_drawdown_tilt_rebalance</text>
<line x1="970" y1="128" x2="988" y2="128" stroke="#92400e" stroke-width="3"/>
<text x="998" y="132" font-family="monospace" font-size="12" fill="#0f172a">budgeted_btc_defensive_eth_aggressive</text>
<polyline points="90.0,605.850427549913 92.08547008547009,606.1033264834165 94.17094017094017,606.156352529282 96.25641025641026,605.143741913888 98.34188034188034,605.1605502650345 100.42735042735043,604.3723666858211 102.51282051282051,605.0922485787722 104.5982905982906,604.7979466261276 106.68376068376068,607.7855713263741 108.76923076923077,607.6833737644737 110.85470085470085,603.6260795904111 112.94017094017094,601.6440529601282 115.02564102564102,602.3784220767573 117.11111111111111,591.7771757263951 119.1965811965812,591.1161264700598 121.28205128205128,590.0398852277165 123.36752136752136,590.6534050904096 125.45299145299145,586.996152983339 127.53846153846155,586.8184435869042 129.62393162393164,580.3099415402929 131.7094017094017,588.3637183751872 133.7948717948718,590.8551913121062 135.8803418803419,598.6578286436381 137.96581196581195,594.0681651156922 140.05128205128204,604.5904665145573 142.13675213675214,600.4149424913445 144.22222222222223,596.0412379586323 146.30769230769232,585.8402786630272 148.3931623931624,571.99169358178 150.47863247863248,571.6092066223562 152.56410256410257,590.0598646137109 154.64957264957263,592.8234108525733 156.73504273504273,594.6727653107486 158.82051282051282,600.1017563866029 160.9059829059829,608.7335329864882 162.991452991453,601.0909594701301 165.0769230769231,551.565556157464 167.16239316239316,534.3213710044929 169.24786324786325,525.9497877647583 171.33333333333331,510.31280578255587 173.4188034188034,492.273935498524 175.5042735042735,446.5814237719086 177.5897435897436,460.625353403433 179.67521367521368,457.29593586361136 181.76068376068378,479.7430729714954 183.84615384615387,464.5255154596075 185.93162393162393,461.93669786211706 188.01709401709402,469.636757300455 190.1025641025641,455.432136200316 192.18803418803418,458.151116640459 194.27350427350427,455.4887452490381 196.35897435897436,415.83289851704706 198.44444444444446,416.5812406901088 200.52991452991452,414.45459529495645 202.61538461538464,416.64256669335833 204.7008547008547,427.8986354152808 206.7863247863248,439.5937575616197 208.87179487179486,396.4635638547512 210.95726495726495,404.4310724858265 213.04273504273505,397.23662941402614 215.12820512820514,390.5228142754402 217.21367521367523,387.59263800834555 219.2991452991453,397.90074805054593 221.3846153846154,400.0517864088085 223.47008547008548,371.21764822791096 225.55555555555554,381.4718040882608 227.64102564102564,353.5628474624353 229.72649572649573,353.8501124006711 231.81196581196582,349.1770533073484 233.89743589743588,386.6481240070057 235.98290598290598,395.89575487973826 238.06837606837607,363.52448210129205 240.15384615384616,363.284991701683 242.23931623931625,356.5796803845458 244.32478632478632,359.9573774476522 246.4102564102564,342.53720486391813 248.4957264957265,334.64222161249893 250.5811965811966,342.48634430569746 252.66666666666666,384.669358311509 254.75213675213675,411.77516046207455 256.8376068376068,405.57589426414427 258.9230769230769,419.0932884193854 261.008547008547,431.1558412906113 263.0940170940171,419.565738003627 265.1794871794872,400.77913579378486 267.2649572649573,398.13419244586015 269.35042735042737,424.45097594613617 271.43589743589746,429.4030169395773 273.52136752136755,420.11749005653166 275.6068376068376,429.38758264045396 277.69230769230774,431.9069324359918 279.77777777777777,431.8278625757745 281.86324786324786,426.4669967511308 283.9487179487179,409.5200034345857 286.03418803418805,391.6768693607468 288.11965811965814,387.1010985486965 290.2051282051282,388.5223945146808 292.29059829059827,371.1852617048159 294.37606837606836,415.4627769807264 296.46153846153845,426.3616984863107 298.54700854700855,443.94507135851205 300.63247863247864,432.76742392080166 302.71794871794873,431.7936273255873 304.8034188034188,433.42290820718944 306.8888888888889,445.26197811524787 308.974358974359,430.7489764358871 311.05982905982904,397.1918987646656 313.14529914529913,412.11132665254405 315.2307692307693,383.7230266664822 317.3162393162393,398.4897310388585 319.4017094017094,417.22742327680857 321.48717948717945,407.73685270736564 323.5726495726496,390.9916730818617 325.65811965811963,406.72014436098766 327.7435897435897,396.7149762499671 329.8290598290598,396.6515336491128 331.9145299145299,396.18717301533565 334.0,410.93863710823683 336.0854700854701,417.13696134181595 338.1709401709402,429.53279045854714 340.2564102564103,418.50941892590566 342.3418803418803,402.6077534472335 344.42735042735046,404.47979525609736 346.5128205128205,427.4626002513148 348.5982905982906,460.11902019486877 350.6837606837607,447.40541857924205 352.7692307692308,473.40058493183824 354.85470085470087,471.11285102767084 356.94017094017096,481.5931641548395 359.025641025641,488.25130689486156 361.1111111111111,487.4249417849594 363.19658119658123,487.92197935872684 365.28205128205127,481.5497854630337 367.36752136752136,492.65077419460886 369.45299145299145,472.27684367959023 371.53846153846155,482.3936832040871 373.62393162393164,474.5884850096602 375.70940170940173,477.7524338498997 377.79487179487177,485.3547539269829 379.88034188034186,477.71775360951256 381.96581196581195,485.8602620303564 384.05128205128204,478.2476880766452 386.13675213675214,470.8491497895568 388.22222222222223,485.167613741801 390.3076923076923,473.36308750649835 392.3931623931624,468.4703173751552 394.4786324786325,513.9418535456473 396.56410256410254,524.6848516407297 398.64957264957263,554.4891241139867 400.7350427350427,555.9054230735375 402.8205128205128,564.225977572534 404.90598290598297,561.3123839531629 406.991452991453,504.01928328721505 409.0769230769231,568.1928672643254 411.1623931623932,562.427357216528 413.2478632478633,544.8063983467302 415.3333333333333,551.1715117678814 417.4188034188034,567.1896577295302 419.5042735042735,561.684610703514 421.5897435897436,598.1506808974013 423.6752136752137,622.1053498102478 425.7606837606838,602.7381355199991 427.84615384615387,602.3875483986017 429.93162393162396,614.9340048762996 432.017094017094,601.0638143012044 434.1025641025641,596.9425194113855 436.1880341880342,607.975144029759 438.2735042735043,599.2046295919101 440.3589743589743,602.2646260055532 442.4444444444444,575.5751505840375 444.52991452991455,591.9417195773649 446.61538461538464,594.3874887249781 448.70085470085473,593.140422957207 450.78632478632477,583.8531218086808 452.87179487179486,570.8866717667283 454.95726495726495,572.9114729844896 457.04273504273505,581.0571375352569 459.1282051282051,581.0088917419604 461.2136752136752,601.5752410479272 463.2991452991453,614.7187346597377 465.3846153846154,617.8152349292042 467.4700854700855,615.5992721700895 469.55555555555554,598.2521865700016 471.64102564102564,619.0363695652015 473.7264957264957,614.5289708565839 475.8119658119658,612.653002873352 477.89743589743586,615.0274733321297 479.98290598290595,656.6588797957454 482.0683760683761,657.9090259945135 484.1538461538462,676.0557477442495 486.2393162393163,633.6911755539072 488.3247863247863,660.8058679081813 490.4102564102564,644.8849421552 492.4957264957265,629.9061813619967 494.5811965811966,639.9636056097297 496.66666666666663,634.251344613592 498.7521367521367,641.3046307005344 500.83760683760687,641.726104324209 502.92307692307696,638.4375540494664 505.008547008547,639.0917982148595 507.0940170940171,634.3101116483492 509.1794871794872,637.4240783732785 511.2649572649573,632.4288172163904 513.3504273504273,593.7241461685309 515.4358974358975,587.9382286003317 517.5213675213674,590.5910828954127 519.6068376068376,586.7940570972428 521.6923076923077,582.181949896921 523.7777777777778,588.346595578432 525.8632478632478,584.0568292930848 527.948717948718,586.2707964137221 530.034188034188,587.0768652503721 532.1196581196581,575.2437812667176 534.2051282051282,573.6783019306775 536.2905982905983,577.5385523175512 538.3760683760684,584.8162642080235 540.4615384615386,582.1913635314294 542.5470085470085,577.3049558186885 544.6324786324786,577.5077176136399 546.7179487179487,509.70032938319787 548.8034188034188,492.3803924716955 550.8888888888889,457.0983228606142 552.9743589743589,467.55778217698764 555.0598290598291,473.50327875155676 557.1452991452992,447.5786532516634 559.2307692307693,457.47916104318654 561.3162393162393,464.0353096968497 563.4017094017095,466.0907980307373 565.4871794871794,474.2184385310336 567.5726495726497,462.54951091650764 569.6581196581196,461.37905518161506 571.7435897435897,458.33710644407165 573.8290598290598,447.5883058580733 575.9145299145299,429.04665080303175 578.0,456.7844241353291 580.0854700854701,455.072743641775 582.1709401709402,449.2425609045674 584.2564102564103,446.7499729654281 586.3418803418804,436.90695041907105 588.4273504273503,437.7592168411721 590.5128205128206,449.59312382058704 592.5982905982905,465.0515576027497 594.6837606837606,463.66758941270217 596.7692307692307,459.5357847746725 598.8547008547009,451.18596463443373 600.9401709401709,454.04554247390837 603.025641025641,454.3712202654516 605.1111111111111,484.8725959702921 607.1965811965812,469.9614432448774 609.2820512820513,461.1584542527357 611.3675213675214,462.4524496763374 613.4529914529915,430.69413044557285 615.5384615384615,415.3420826037537 617.6239316239316,424.7883226073336 619.7094017094017,447.31664970581414 621.7948717948718,453.32120048923775 623.8803418803419,460.52498066681676 625.965811965812,458.3475429608491 628.051282051282,455.21553681593093 630.1367521367521,465.32558575614104 632.2222222222222,462.753723199732 634.3076923076924,463.87577847085083 636.3931623931625,480.5292000238769 638.4786324786324,496.28255556374495 640.5641025641025,507.47016178882507 642.6495726495726,473.63472138010155 644.7350427350427,467.3283001445104 646.8205128205128,467.4476264216831 648.9059829059829,468.7606016746814 650.991452991453,467.7367271244161 653.0769230769231,465.58492103149456 655.1623931623932,455.3596969526783 657.2478632478633,460.30476461664875 659.3333333333334,473.65195951991353 661.4188034188035,445.7705783201037 663.5042735042734,441.3405066492879 665.5897435897435,455.2956030427596 667.6752136752136,453.7598580697663 669.7606837606837,444.92677565886186 671.8461538461539,450.75515393980174 673.9316239316239,440.3629973463704 676.017094017094,416.4935250507267 678.1025641025641,382.9237159645595 680.1880341880342,377.8007330785756 682.2735042735043,379.7531153417792 684.3589743589744,372.0038049992018 686.4444444444445,365.43802807055533 688.5299145299145,357.4211558879242 690.6153846153846,329.1797192341556 692.7008547008547,315.9980284211807 694.7863247863248,312.1177549512013 696.8717948717949,307.75071231499976 698.957264957265,292.50432769656163 701.042735042735,291.63491595071906 703.1282051282051,285.3775107110996 705.2136752136752,300.81159210746875 707.2991452991453,294.25856168472137 709.3846153846154,294.8320976367404 711.4700854700855,292.1379997033044 713.5555555555555,274.9038643504282 715.6410256410256,286.3033815054152 717.7264957264956,287.3000881298799 719.8119658119659,285.9791689384364 721.8974358974359,302.9559922457835 723.982905982906,330.7206365564777 726.0683760683761,341.85801277593447 728.1538461538462,326.64387866632615 730.2393162393163,302.3614623024619 732.3247863247864,315.7821509166894 734.4102564102565,306.0358138835322 736.4957264957266,276.6098743205421 738.5811965811965,269.61662357010005 740.6666666666666,246.39853660751464 742.7521367521367,238.54059869919263 744.8376068376068,242.98877411337185 746.9230769230769,204.99489541175512 749.008547008547,179.9703325553903 751.0940170940171,213.93097360411724 753.1794871794872,226.58704826813425 755.2649572649572,228.06194568680917 757.3504273504274,223.53896328395842 759.4358974358975,241.41372027221234 761.5213675213676,273.4109957905209 763.6068376068376,245.8983201581177 765.6923076923077,261.54328988034075 767.7777777777778,194.05324344652422 769.8632478632479,203.81082068140194 771.948717948718,209.91374862473413 774.034188034188,255.38093786280388 776.1196581196581,230.76046055687607 778.2051282051282,240.54763557063632 780.2905982905983,235.71917895749954 782.3760683760684,262.5656759630405 784.4615384615385,259.84008042393486 786.5470085470085,260.34140291621014 788.6324786324786,263.45925004148035 790.7179487179486,255.68507918214948 792.8034188034187,243.3027768412349 794.8888888888888,259.8274802319559 796.974358974359,259.2083963053954 799.0598290598291,263.59318215652166 801.1452991452992,257.8466440236751 803.2307692307693,254.67607281926234 805.3162393162394,256.0682365158864 807.4017094017095,244.54198033661174 809.4871794871796,229.9102285500042 811.5726495726495,206.29157325476126 813.6581196581196,210.63148666855102 815.7435897435897,218.14971671745462 817.8290598290598,224.79751088114443 819.9145299145299,221.8112605620894 822.0,215.39320739071047 824.0854700854701,213.5274346663183 826.1709401709402,228.25312312047657 828.2564102564102,227.05842462977307 830.3418803418803,231.63406217165817 832.4273504273503,260.81025901763746 834.5128205128206,266.38391435810314 836.5982905982906,262.99223569018 838.6837606837607,301.4467569156916 840.7692307692308,285.1812870061682 842.8547008547009,286.47132134183863 844.940170940171,267.346511650491 847.025641025641,253.72275995005356 849.1111111111111,261.0016553078797 851.1965811965812,227.99084662362486 853.2820512820513,209.54360190770575 855.3675213675214,201.56186367420065 857.4529914529915,203.38384349423006 859.5384615384615,197.74364993603115 861.6239316239316,178.9416502867282 863.7094017094016,210.21578716088408 865.7948717948717,197.22127349878656 867.8803418803418,216.03923847467615 869.9658119658119,290.7253984271256 872.0512820512821,305.46689621450884 874.1367521367522,254.68070035563812 876.2222222222223,245.96615672977885 878.3076923076924,263.7603734168651 880.3931623931625,283.57805255930214 882.4786324786326,300.3287223122165 884.5641025641025,311.5196717596683 886.6495726495726,303.91862328405193 888.7350427350427,290.7124538579736 890.8205128205128,284.86091065896755 892.9059829059829,301.5583056387622 894.991452991453,310.25589993455696 897.0769230769231,297.2978891192282 899.1623931623932,287.22973187721044 901.2478632478632,283.5372014997382 903.3333333333333,255.6862587832286 905.4188034188033,260.6761303147391 907.5042735042734,277.1092599012437 909.5897435897435,293.2291312756427 911.6752136752137,307.8419179506192 913.7606837606838,300.03091498167106 915.8461538461539,296.03015346580764 917.931623931624,291.3950042638698 920.017094017094,331.77605788273945 922.1025641025641,377.3838037928341 924.1880341880342,356.6342034102858 926.2735042735043,375.4018581432307 928.3589743589744,357.4846832020717 930.4444444444445,363.85950483841896 932.5299145299145,338.66605911220023 934.6153846153846,336.13350249761646 936.7008547008546,359.9232211836501 938.7863247863247,364.52815966353137 940.8717948717948,388.61678554373884 942.9572649572649,416.5323483876765 945.042735042735,407.66753057250935 947.1282051282051,419.2482288439185 949.2136752136753,432.2424906436812 951.2991452991454,420.4077015779829 953.3846153846155,434.7807887724718 955.4700854700856,469.6617338360138 957.5555555555555,481.0479658242923 959.6410256410256,481.85504341871956 961.7264957264957,471.6190544583872 963.8119658119658,451.6165983238677 965.8974358974359,454.1470445194266 967.982905982906,436.9658688224417 970.0683760683761,435.32707765130596 972.1538461538462,434.9979767055169 974.2393162393162,439.3643882178811 976.3247863247863,440.7090589738988 978.4102564102564,473.25522321179324 980.4957264957264,436.99780432470754 982.5811965811965,410.73514199521105 984.6666666666666,420.70591301829353 986.7521367521368,440.7282588694437 988.8376068376069,439.35604150671816 990.923076923077,433.46405478748295 993.008547008547,426.36076341527206 995.0940170940171,400.6940222756141 997.1794871794872,402.24289800723926 999.2649572649573,408.9954771689224 1001.3504273504274,431.23900780691787 1003.4358974358975,428.41051945264996 1005.5213675213676,440.3468440244861 1007.6068376068376,455.7430053929437 1009.6923076923076,451.179420348781 1011.7777777777777,469.3152342326719 1013.8632478632478,472.37106734101474 1015.9487179487179,448.58033446944796 1018.034188034188,447.95456273200347 1020.1196581196581,444.4493936794734 1022.2051282051282,444.1050423549414 1024.2905982905984,452.26282785028405 1026.3760683760684,453.418422972853 1028.4615384615386,459.07639002016106 1030.5470085470085,456.3839486426545 1032.6324786324785,452.59817612559266 1034.7179487179487,452.1398572156073 1036.803418803419,456.1290929908017 1038.888888888889,448.29568700984646 1040.974358974359,451.62544187574554 1043.059829059829,444.2092444010871 1045.1452991452993,427.89053847660637 1047.230769230769,425.74483223737707 1049.3162393162393,421.03842879699937 1051.4017094017095,405.155511156079 1053.4871794871794,398.79437238553254 1055.5726495726494,419.4797345507972 1057.6581196581196,426.25119086193575 1059.7435897435898,429.8788945546945 1061.8290598290598,430.4955759012014 1063.91452991453,425.3687557914304 1066.0,426.9090434108335 1068.0854700854702,390.56862690107704 1070.1709401709402,382.3356509793845 1072.2564102564102,390.3997452612802 1074.3418803418804,392.8983924098046 1076.4273504273506,392.8068765817229 1078.5128205128206,400.24368445577414 1080.5982905982905,412.893789846757 1082.6837606837607,451.0134043949146 1084.7692307692307,443.3325547689895 1086.8547008547007,445.9670441416671 1088.940170940171,445.592991732037 1091.025641025641,447.27325247255993 1093.111111111111,468.8922639687805 1095.196581196581,452.09667355365116 1097.2820512820513,439.7615442908331 1099.3675213675212,441.17616649924685 1101.4529914529917,475.21238648616554 1103.5384615384614,487.9924973357263 1105.6239316239316,531.5961462171688 1107.7094017094018,556.0776698579123 1109.7948717948718,542.0600763595922 1111.8803418803418,564.237755178178 1113.965811965812,582.4116218337657 1116.051282051282,651.036674056534 1118.1367521367522,598.4730285796588 1120.2222222222222,599.9930742650004 1122.3076923076924,596.3146684565668 1124.3931623931624,595.1732849292866 1126.4786324786326,608.6719509275204 1128.5641025641025,623.8057541818407 1130.6495726495725,625.7657311057659 1132.7350427350427,605.7540779279126 1134.8205128205127,598.2686686935077 1136.905982905983,615.0114986769904 1138.9914529914531,611.1769236841805 1141.076923076923,616.5055483284469 1143.1623931623933,624.019637727944 1145.2478632478633,622.968583529755 1147.3333333333333,617.3642305624841 1149.4188034188035,616.9075868030664 1151.5042735042734,619.8525641990794 1153.5897435897436,641.2036141082523 1155.6752136752136,643.4499314726278 1157.7606837606838,607.1972478686707 1159.8461538461538,612.2182506466099 1161.931623931624,628.6692929605188 1164.017094017094,621.0182298463965 1166.102564102564,627.8310688172638 1168.1880341880342,607.7233431113943 1170.2735042735042,614.4164448144613 1172.3589743589744,583.6373103929132 1174.4444444444443,595.7392559575391 1176.5299145299145,615.5752346472741 1178.6153846153848,619.3793113109534 1180.7008547008547,627.3218644334013 1182.786324786325,612.847729922157 1184.871794871795,602.8813326265544 1186.957264957265,600.3234265682088 1189.042735042735,596.8044443383624 1191.128205128205,593.3247441863488 1193.2136752136753,591.9388108300698 1195.2991452991453,577.460472870997 1197.3846153846155,551.1589870117853 1199.4700854700855,558.1998479797006 1201.5555555555554,579.8147385418948 1203.6410256410256,591.46189994749 1205.7264957264956,588.6526853996863 1207.8119658119658,600.6963062565553 1209.8974358974358,607.7082968156731 1211.982905982906,586.6695479782697 1214.068376068376,587.3859778135017 1216.1538461538462,583.4412034229466 1218.2393162393164,603.9690818697155 1220.3247863247864,619.5026646110498 1222.4102564102564,619.4545515862317 1224.4957264957266,621.790882438215 1226.5811965811965,614.5285839723658 1228.6666666666667,600.737822014756 1230.7521367521367,597.0359830869643 1232.837606837607,610.3603203166081 1234.923076923077,610.5000079058404 1237.0085470085469,608.091648549271 1239.094017094017,597.4366439618094 1241.179487179487,598.1516208136301 1243.2649572649573,573.2366306627716 1245.3504273504273,581.4551033804115 1247.4358974358975,579.0706498240513 1249.5213675213674,568.8742618102335 1251.6068376068376,564.2474731002202 1253.6923076923078,582.3373740848884 1255.7777777777778,550.4504536834453 1257.8632478632478,556.4198404034405 1259.948717948718,550.1981969983294 1262.034188034188,550.3970989562014 1264.1196581196582,536.2247016670377 1266.2051282051282,548.1511519470687 1268.2905982905984,563.9588640044502 1270.3760683760684,551.6418611068939 1272.4615384615386,548.6014262740492 1274.5470085470085,537.3099164612105 1276.6324786324785,541.8341178017974 1278.7179487179487,546.2027992670419 1280.8034188034187,545.1266474415106 1282.888888888889,536.2551377395712 1284.974358974359,547.8545571435866 1287.059829059829,552.8336562398121 1289.145299145299,558.7750069027891 1291.2307692307693,556.419497381369 1293.3162393162393,545.847546309755 1295.4017094017095,542.0343854211716 1297.4871794871794,541.8207584740139 1299.5726495726497,534.9191075023664 1301.6581196581196,529.9972236085378 1303.7435897435898,529.3551787036631 1305.8290598290598,540.5769709041095 1307.91452991453,538.1668820613087 1310.0,534.5664054693526" fill="none" stroke="#0f766e" stroke-width="2.5"><title>budgeted_static_50_50_rebalance | end=2026-05-09 | return=12.46%</title></polyline>
<polyline points="90.0,605.850427549913 92.08547008547009,606.2539869762418 94.17094017094017,606.3579077954062 96.25641025641026,604.9752414396494 98.34188034188034,604.991532949252 100.42735042735043,603.961369672617 102.51282051282051,604.8887185370539 104.5982905982906,604.3572606339831 106.68376068376068,608.420536169202 108.76923076923077,608.0504730589606 110.85470085470085,602.9546745557166 112.94017094017094,600.1987531026565 115.02564102564102,601.1180548611791 117.11111111111111,586.5518637253447 119.1965811965812,586.4745734468536 121.28205128205128,585.2902805874348 123.36752136752136,586.071431570631 125.45299145299145,581.2427376996336 127.53846153846155,580.8614162697072 129.62393162393164,570.8643240222175 131.7094017094017,581.9002463632172 133.7948717948718,586.1351960340656 135.8803418803419,597.9682016905878 137.96581196581195,592.916587745682 140.05128205128204,607.8276314241596 142.13675213675214,601.5351211080954 144.22222222222223,596.1215049445318 146.30769230769232,583.498267844738 148.3931623931624,567.2533715084825 150.47863247863248,565.6232180334213 152.56410256410257,589.6168721066767 154.64957264957263,592.0506833020389 156.73504273504273,594.5417561839292 158.82051282051282,600.9752318877045 160.9059829059829,611.2165555105449 162.991452991453,603.9016269873093 165.0769230769231,547.494627602543 167.16239316239316,523.4497529480273 169.24786324786325,512.8465758234402 171.33333333333331,490.3768516763886 173.4188034188034,473.00251742766136 175.5042735042735,426.5700348952486 177.5897435897436,445.01261268958 179.67521367521368,445.833959486231 181.76068376068378,470.55231491533294 183.84615384615387,457.289694509216 185.93162393162393,452.899763089688 188.01709401709402,461.8606164879866 190.1025641025641,443.9874702466702 192.18803418803418,451.2597043716065 194.27350427350427,451.36257477842526 196.35897435897436,406.99185945814025 198.44444444444446,408.9499415980539 200.52991452991452,404.1418619563758 202.61538461538464,407.3196330624767 204.7008547008547,413.93201102683906 206.7863247863248,427.0923051556 208.87179487179486,378.75438346271875 210.95726495726495,388.07039676240913 213.04273504273505,382.14470327674553 215.12820512820514,372.83278839278387 217.21367521367523,370.60528572715447 219.2991452991453,380.08693972509985 221.3846153846154,382.4150169988733 223.47008547008548,355.80552369429705 225.55555555555554,364.41118480660975 227.64102564102564,339.7944582335887 229.72649572649573,340.09740625219763 231.81196581196582,336.7006612188455 233.89743589743588,368.04014135142353 235.98290598290598,375.85921051845355 238.06837606837607,350.0760890409284 240.15384615384616,349.24904663460364 242.23931623931625,344.19353175463357 244.32478632478632,347.0436316785186 246.4102564102564,333.7087550362145 248.4957264957265,327.79347285052245 250.5811965811966,334.2870969039755 252.66666666666666,366.7689107694716 254.75213675213675,387.82934409424416 256.8376068376068,382.9024708519944 258.9230769230769,393.6730664500088 261.008547008547,403.0503734868062 263.0940170940171,393.4012154537431 265.1794871794872,378.3165398447198 267.2649572649573,376.2526938816107 269.35042735042737,397.49795146185517 271.43589743589746,401.40252180599003 273.52136752136755,393.52413231809226 275.6068376068376,401.40683414382113 277.69230769230774,403.45587091635474 279.77777777777777,403.5899676459475 281.86324786324786,398.8041758934551 283.9487179487179,383.1628652305091 286.03418803418805,365.8987641811 288.11965811965814,361.4783897327493 290.2051282051282,362.8887764903024 292.29059829059827,348.0904840033553 294.37606837606836,387.0994173734044 296.46153846153845,396.6182119679721 298.54700854700855,412.4384930220857 300.63247863247864,402.41011845166236 302.71794871794873,401.4065458276932 304.8034188034188,403.0240255171961 306.8888888888889,415.2276457722883 308.974358974359,401.03601016924506 311.05982905982904,367.4932486615618 313.14529914529913,383.1581735095788 315.2307692307693,354.9787895260148 317.3162393162393,370.7782093595197 319.4017094017094,388.7736269140159 321.48717948717945,379.02372192468283 323.5726495726496,363.54990651313796 325.65811965811963,379.2122269284926 327.7435897435897,368.08152767840954 329.8290598290598,368.7967329206045 331.9145299145299,368.16801207438294 334.0,383.0574659149603 336.0854700854701,389.66886959891013 338.1709401709402,403.1166132587228 340.2564102564103,392.7098441237795 342.3418803418803,375.2208754611072 344.42735042735046,375.16142568636604 346.5128205128205,400.0917365949807 348.5982905982906,435.04401269116573 350.6837606837607,423.85703526064475 352.7692307692308,451.78354023443393 354.85470085470087,447.36585767956643 356.94017094017096,461.00903771832657 359.025641025641,469.8574750959315 361.1111111111111,468.6531231428121 363.19658119658123,469.3295376203171 365.28205128205127,462.0246986239016 367.36752136752136,474.82402764643723 369.45299145299145,449.87354525826436 371.53846153846155,461.9987434652111 373.62393162393164,452.5305988414816 375.70940170940173,457.0344241038113 377.79487179487177,465.3721253738254 379.88034188034186,454.3029084280955 381.96581196581195,465.3489548931333 384.05128205128204,456.32785764555274 386.13675213675214,448.64615178008603 388.22222222222223,465.25284452905385 390.3076923076923,449.4932728256737 392.3931623931624,442.18732121201157 394.4786324786325,498.42133325921804 396.56410256410254,508.8575111809913 398.64957264957263,543.1846520469092 400.7350427350427,545.8853778009192 402.8205128205128,556.6497519141601 404.90598290598297,555.181117102284 406.991452991453,489.6366358532928 409.0769230769231,565.0283567822884 411.1623931623932,558.7303189729248 413.2478632478633,539.4002817073846 415.3333333333333,547.2032151929427 417.4188034188034,564.883381494042 419.5042735042735,556.5073908373104 421.5897435897436,599.1806041465147 423.6752136752137,629.9935616237912 425.7606837606838,609.1615337423092 427.84615384615387,609.8320635402409 429.93162393162396,623.953169776141 432.017094017094,608.233863124607 434.1025641025641,602.6800082818329 436.1880341880342,616.3902833978535 438.2735042735043,605.5173162399043 440.3589743589743,607.9270790045888 442.4444444444444,574.2476644967073 444.52991452991455,594.7274210071986 446.61538461538464,598.2831347678315 448.70085470085473,595.9921940512518 450.78632478632477,585.6158968183963 452.87179487179486,568.1036794464268 454.95726495726495,571.0709687451142 457.04273504273505,582.818761197103 459.1282051282051,583.2562208184876 461.2136752136752,610.2277757956913 463.2991452991453,627.5146843303327 465.3846153846154,631.8637868637045 467.4700854700855,628.7244169117224 469.55555555555554,606.5348132323315 471.64102564102564,633.9398345864922 473.7264957264957,628.1632963663081 475.8119658119658,626.4218181896309 477.89743589743586,629.4479293394496 479.98290598290595,684.5008670260286 482.0683760683761,687.6199214280356 484.1538461538462,710.0 486.2393162393163,657.0969699047 488.3247863247863,692.3893231962413 490.4102564102564,674.3680238927897 492.4957264957265,655.0699795546147 494.5811965811966,667.703620716907 496.66666666666663,660.4938151732198 498.7521367521367,669.533620442073 500.83760683760687,670.64704678599 502.92307692307696,667.0599601722347 505.008547008547,667.4289801261489 507.0940170940171,661.3511409103726 509.1794871794872,665.8631439131887 511.2649572649573,661.379418233096 513.3504273504273,613.1405431824735 515.4358974358975,605.2354797879669 517.5213675213674,609.2877385037771 519.6068376068376,604.6474829945134 521.6923076923077,598.0970955843229 523.7777777777778,605.8895291646598 525.8632478632478,601.1305008174223 527.948717948718,603.4659671241604 530.034188034188,604.515457224358 532.1196581196581,590.177965886613 534.2051282051282,588.3765033372329 536.2905982905983,592.7521596094309 538.3760683760684,601.4474105729083 540.4615384615386,598.1973932454753 542.5470085470085,593.4460670310405 544.6324786324786,593.9576373161732 546.7179487179487,504.3791344045217 548.8034188034188,479.24708151432196 550.8888888888889,430.0665811992284 552.9743589743589,444.68325910250195 555.0598290598291,451.60880164343615 557.1452991452992,413.87192620722465 559.2307692307693,428.34540986066065 561.3162393162393,439.213844746655 563.4017094017095,441.95920325605937 565.4871794871794,454.3778406527971 567.5726495726497,441.86156015099834 569.6581196581196,438.3415975805042 571.7435897435897,435.8180409360675 573.8290598290598,423.707753196645 575.9145299145299,397.36324566117116 578.0,434.3203859313419 580.0854700854701,432.40362768458317 582.1709401709402,425.2449450848885 584.2564102564103,421.95212625094484 586.3418803418804,404.9342078847722 588.4273504273503,404.11104488807035 590.5128205128206,419.22393893292934 592.5982905982905,441.7449101753916 594.6837606837606,440.6854689059383 596.7692307692307,435.95547096664603 598.8547008547009,422.56369323495653 600.9401709401709,426.3835195154948 603.025641025641,425.5194409755268 605.1111111111111,469.75225914519876 607.1965811965812,450.8493795429725 609.2820512820513,438.81431607351834 611.3675213675214,441.2639657009386 613.4529914529915,397.9917696352827 615.5384615384615,372.74575190216103 617.6239316239316,385.1104222351517 619.7094017094017,416.5849350210705 621.7948717948718,427.4528824213366 623.8803418803419,438.114426779897 625.965811965812,434.7767451197187 628.051282051282,432.11785435517464 630.1367521367521,444.3008875631181 632.2222222222222,440.70675402801555 634.3076923076924,442.07424427291227 636.3931623931625,466.8489963161784 638.4786324786324,490.30519540916873 640.5641025641025,506.10026438587107 642.6495726495726,460.4466902350143 644.7350427350427,451.73536561658045 646.8205128205128,454.10914781063957 648.9059829059829,455.5494224280528 650.991452991453,454.0676795046406 653.0769230769231,451.0580764827874 655.1623931623932,436.5621964141874 657.2478632478633,442.34806722488565 659.3333333333334,461.1407519889707 661.4188034188035,422.1383568114739 663.5042735042734,416.34266573759874 665.5897435897435,435.9534967942566 667.6752136752136,433.86851222880404 669.7606837606837,421.358120817412 671.8461538461539,429.07237222907986 673.9316239316239,413.4860294633515 676.017094017094,378.97358967535274 678.1025641025641,333.08327997683966 680.1880341880342,327.68276232398654 682.2735042735043,330.714266927421 684.3589743589744,321.1002092784842 686.4444444444445,311.5610869510243 688.5299145299145,293.9454370516723 690.6153846153846,248.9643177762951 692.7008547008547,228.57431542087647 694.7863247863248,219.53995762359216 696.8717948717949,212.66107239510677 698.957264957265,189.3832043887743 701.042735042735,188.3992795017673 703.1282051282051,184.60684916263972 705.2136752136752,202.25965316136694 707.2991452991453,193.71090834538018 709.3846153846154,193.4152366861606 711.4700854700855,190.74123105814112 713.5555555555555,173.29541620317627 715.6410256410256,184.15739567140224 717.7264957264956,185.07562991452335 719.8119658119659,183.63102739656483 721.8974358974359,199.0314716332452 723.982905982906,224.57084212687846 726.0683760683761,234.88146308838537 728.1538461538462,221.14952483106305 730.2393162393163,198.20918091267333 732.3247863247864,210.44262567653823 734.4102564102565,201.76475044709497 736.4957264957266,175.6071714328125 738.5811965811965,168.68783015301256 740.6666666666666,147.41216854784045 742.7521367521367,141.89202238211385 744.8376068376068,145.54134071620263 746.9230769230769,112.59743891121957 749.008547008547,92.30636401117181 751.0940170940171,119.34795278675779 753.1794871794872,129.84911995997288 755.2649572649572,131.13892697202607 757.3504273504274,127.2431411669238 759.4358974358975,142.0267016812585 761.5213675213676,167.82981199884864 763.6068376068376,145.01983985287973 765.6923076923077,157.47989807362148 767.7777777777778,102.07861554304077 769.8632478632479,109.535426722392 771.948717948718,113.64561794032613 774.034188034188,149.68693491809677 776.1196581196581,130.09445104203076 778.2051282051282,137.9108811554056 780.2905982905983,134.6025260265692 782.3760683760684,154.598053929216 784.4615384615385,152.58167078537053 786.5470085470085,152.70474911035706 788.6324786324786,155.75987555780569 790.7179487179486,150.37975097643186 792.8034188034187,140.55715437062702 794.8888888888888,153.51960230311386 796.974358974359,152.99608689098272 799.0598290598291,156.3435030069785 801.1452991452992,152.09444409199432 803.2307692307693,149.9299459885101 805.3162393162394,150.83869514570836 807.4017094017095,142.54070850970766 809.4871794871796,131.39110292478358 811.5726495726495,112.60274966307213 813.6581196581196,116.03895766671565 815.7435897435897,121.82429029320224 817.8290598290598,127.20885572173302 819.9145299145299,125.39424237950641 822.0,120.09825490169794 824.0854700854701,118.84533526178632 826.1709401709402,130.149342553912 828.2564102564102,129.21318110334812 830.3418803418803,132.70922689784732 832.4273504273503,155.14525353099498 834.5128205128206,159.31517038734137 836.5982905982906,157.05549528309427 838.6837606837607,185.79654641973684 840.7692307692308,173.24497911944218 842.8547008547009,174.2690099857963 844.940170940171,159.34073837840197 847.025641025641,148.78242283163115 849.1111111111111,154.64178342214257 851.1965811965812,128.82505663309166 853.2820512820513,114.21746670480991 855.3675213675214,108.08266200792627 857.4529914529915,109.61334103669321 859.5384615384615,105.22388258001001 861.6239316239316,90.0 863.7094017094016,115.06383332194036 865.7948717948717,104.7825741679527 867.8803418803418,119.9825162145629 869.9658119658119,179.57195493608754 872.0512820512821,191.281772193243 874.1367521367522,150.1056353568896 876.2222222222223,142.94460320704957 878.3076923076924,157.32369645480594 880.3931623931625,173.39160460096684 882.4786324786326,187.07743595922284 884.5641025641025,196.37205152341517 886.6495726495726,189.8620149626721 888.7350427350427,178.3983511987883 890.8205128205128,173.55224610134246 892.9059829059829,188.46690767784332 894.991452991453,196.4510766776682 897.0769230769231,184.73835256979703 899.1623931623932,175.24432973367107 901.2478632478632,171.7724614454736 903.3333333333333,144.69755835891146 905.4188034188033,149.4873009228353 907.5042735042734,165.13018517865908 909.5897435897435,180.2654791044638 911.6752136752137,194.41873546332488 913.7606837606838,186.84219576369833 915.8461538461539,182.86924258644024 917.931623931624,178.16829410342586 920.017094017094,219.89509329956326 922.1025641025641,267.665181210952 924.1880341880342,245.64015221178903 926.2735042735043,265.9692342874599 928.3589743589744,245.88579597381 930.4444444444445,253.09673256343098 932.5299145299145,222.88396561152211 934.6153846153846,220.49809751963727 936.7008547008546,249.33831388117494 938.7863247863247,254.3464912800468 940.8717948717948,284.71284443901425 942.9572649572649,317.83482060269284 945.042735042735,306.8627868245316 947.1282051282051,321.1857537345695 949.2136752136753,336.7623977782399 951.2991452991454,321.67092721847786 953.3846153846155,339.6461097317926 955.4700854700856,382.00147672632863 957.5555555555555,395.8804004533412 959.6410256410256,396.62401056436704 961.7264957264957,384.87699884773957 963.8119658119658,359.5917321765314 965.8974358974359,362.1638095470392 967.982905982906,341.84828260662835 970.0683760683761,340.3663101755945 972.1538461538462,339.57664554552304 974.2393162393162,345.38251512080535 976.3247863247863,346.80629355273305 978.4102564102564,387.197703983107 980.4957264957264,342.7932145270544 982.5811965811965,309.3706770506609 984.6666666666666,321.66979418503 986.7521367521368,346.4133231430917 988.8376068376069,344.48643638493763 990.923076923077,337.4773591869385 993.008547008547,328.0386705887186 995.0940170940171,294.80459224907486 997.1794871794872,296.3710887873885 999.2649572649573,306.1486363338952 1001.3504273504274,335.06837567162006 1003.4358974358975,331.13869923164606 1005.5213675213676,345.9255117552146 1007.6068376068376,365.7635620494014 1009.6923076923076,360.65159277673456 1011.7777777777777,384.18536557401046 1013.8632478632478,387.7813761914679 1015.9487179487179,357.60372416254927 1018.034188034188,356.9188345405065 1020.1196581196581,352.41063398419703 1022.2051282051282,351.88875850328344 1024.2905982905984,362.14039118317874 1026.3760683760684,363.8328894852306 1028.4615384615386,371.19072173508505 1030.5470085470085,367.6387254202115 1032.6324786324785,362.87555356279205 1034.7179487179487,362.30366646882464 1036.803418803419,367.17084565282266 1038.888888888889,357.46534095692476 1040.974358974359,361.3481778354324 1043.059829059829,352.1729855969687 1045.1452991452993,330.8976422517629 1047.230769230769,328.44959567455743 1049.3162393162393,322.6946540622412 1051.4017094017095,302.7509920791272 1053.4871794871794,293.91648487279474 1055.5726495726494,320.5030884266716 1057.6581196581196,329.64938248676015 1059.7435897435898,334.2496319164716 1061.8290598290598,334.9976023021635 1063.91452991453,328.31726218169877 1066.0,330.6852754864203 1068.0854700854702,283.91593107811616 1070.1709401709402,273.7738407962623 1072.2564102564102,283.866562863283 1074.3418803418804,287.26590860637117 1076.4273504273506,286.8289854852224 1078.5128205128206,295.99160114644826 1080.5982905982905,312.73963541181104 1082.6837606837607,362.32092361415425 1084.7692307692307,352.5828923692302 1086.8547008547007,356.2407036630415 1088.940170940171,355.74237162816155 1091.025641025641,357.75086868981055 1093.111111111111,385.25041056874215 1095.196581196581,363.8380712006197 1097.2820512820513,347.8706174859599 1099.3675213675212,349.7991258730974 1101.4529914529917,392.5370480409041 1103.5384615384614,409.41968069675767 1105.6239316239316,464.0516479509193 1107.7094017094018,495.387238097606 1109.7948717948718,477.8056799766705 1111.8803418803418,505.9477741723108 1113.965811965812,529.1871853734738 1116.051282051282,617.1794415573188 1118.1367521367522,550.3632128077081 1120.2222222222222,551.3450827683107 1122.3076923076924,547.0686529754147 1124.3931623931624,545.2575821300048 1126.4786324786326,563.4006299801114 1128.5641025641025,583.477479556473 1130.6495726495725,585.4799882844908 1132.7350427350427,559.0356186530697 1134.8205128205127,549.1401499902047 1136.905982905983,572.548890908575 1138.9914529914531,567.0202296325104 1141.076923076923,573.3539288739535 1143.1623931623933,583.240962528778 1145.2478632478633,582.281708023853 1147.3333333333333,575.1485170034204 1149.4188034188035,574.4512547631393 1151.5042735042734,578.4033647099677 1153.5897435897436,606.4928734028101 1155.6752136752136,609.1959758620454 1157.7606837606838,560.256993261899 1159.8461538461538,567.098995076134 1161.931623931624,589.5630210408267 1164.017094017094,579.5478361448364 1166.102564102564,588.2398422076709 1168.1880341880342,562.0800093717737 1170.2735042735042,571.3518541646974 1172.3589743589744,530.8921534109281 1174.4444444444443,546.748589984636 1176.5299145299145,572.940984032784 1178.6153846153848,577.6298116949341 1180.7008547008547,587.9310535542585 1182.786324786325,569.2777153137095 1184.871794871795,556.2574514880007 1186.957264957265,552.7610209694456 1189.042735042735,547.9313765804703 1191.128205128205,543.2504410154745 1193.2136752136753,541.5151865071231 1195.2991452991453,521.8779856661376 1197.3846153846155,485.21349962044076 1199.4700854700855,494.6516018956214 1201.5555555555554,524.0158857427689 1203.6410256410256,539.989091277742 1205.7264957264956,536.4432303460761 1207.8119658119658,552.7118418650441 1209.8974358974358,561.9938663947947 1211.982905982906,534.0219432749846 1214.068376068376,534.7005418059364 1216.1538461538462,529.6762280998057 1218.2393162393164,557.5544062402112 1220.3247863247864,578.0159937848207 1222.4102564102564,577.9073423602518 1224.4957264957266,580.9702049757856 1226.5811965811965,571.058691150725 1228.6666666666667,552.2358200124996 1230.7521367521367,546.596655772055 1232.837606837607,565.1696961556646 1234.923076923077,565.4539966184905 1237.0085470085469,562.2294406712456 1239.094017094017,548.2424762278636 1241.179487179487,549.1398085547046 1243.2649572649573,515.2967298777637 1245.3504273504273,526.703082384167 1247.4358974358975,523.9388878251183 1249.5213675213674,509.956483883191 1251.6068376068376,503.06966707729526 1253.6923076923078,527.7352092202743 1255.7777777777778,483.7662947656927 1257.8632478632478,492.5503535348362 1259.948717948718,483.8366609865288 1262.034188034188,484.53919295349533 1264.1196581196582,465.1455158894247 1266.2051282051282,481.8301910988356 1268.2905982905984,503.8354434303533 1270.3760683760684,487.3848194993777 1272.4615384615386,483.2967379779974 1274.5470085470085,468.17132627099215 1276.6324786324785,475.1951815490504 1278.7179487179487,480.94343494442967 1280.8034188034187,479.51232645698224 1282.888888888889,467.12883568007555 1284.974358974359,483.3749182679853 1287.059829059829,489.8289048208527 1289.145299145299,498.2501829386914 1291.2307692307693,495.2585835374516 1293.3162393162393,481.26777746094706 1295.4017094017095,475.9665462453943 1297.4871794871794,475.5209818917631 1299.5726495726497,466.38582563877384 1301.6581196581196,459.9911276032369 1303.7435897435898,459.54846114181794 1305.8290598290598,475.22374929307193 1307.91452991453,471.7287547083672 1310.0,466.69429513599823" fill="none" stroke="#9333ea" stroke-width="2.5"><title>budgeted_drawdown_tilt_rebalance | end=2026-05-09 | return=24.33%</title></polyline>
<polyline points="90.0,605.850427549913 92.08547008547009,606.1646532906843 94.17094017094017,606.2128691283427 96.25641025641026,604.7239168350011 98.34188034188034,604.7547225350143 100.42735042735043,603.5535530353009 102.51282051282051,604.662708916631 104.5982905982906,604.346168977043 106.68376068376068,608.7560685668435 108.76923076923077,608.8133507525631 110.85470085470085,602.4430598774458 112.94017094017094,599.5721567616467 115.02564102564102,600.7276889713937 117.11111111111111,585.2136660341262 119.1965811965812,583.5573519032037 121.28205128205128,581.8337847276299 123.36752136752136,582.7031074688286 125.45299145299145,577.7861837905261 127.53846153846155,577.664588998203 129.62393162393164,570.3344536892796 131.7094017094017,580.2076330418021 133.7948717948718,582.6214496172009 135.8803418803419,591.0584539942062 137.96581196581195,584.865111216372 140.05128205128204,596.6444112093031 142.13675213675214,592.2347688208297 144.22222222222223,587.0689477292369 146.30769230769232,575.3151182381334 148.3931623931624,559.272438502548 150.47863247863248,559.4839098813391 152.56410256410257,578.505895455829 154.64957264957263,581.927492618051 156.73504273504273,583.6624235857646 158.82051282051282,589.106459825488 160.9059829059829,597.5926018794486 162.991452991453,588.9440630616866 165.0769230769231,539.2872182484052 167.16239316239316,525.0263708239818 169.24786324786325,517.2387245172895 171.33333333333331,504.2270432780104 173.4188034188034,483.92723606740157 175.5042735042735,433.8517404913173 177.5897435897436,446.70932829262046 179.67521367521368,440.38183960068193 181.76068376068378,463.89364054323937 183.84615384615387,445.5634543904027 185.93162393162393,444.08955719561266 188.01709401709402,451.6399825503036 190.1025641025641,438.92760469775175 192.18803418803418,438.0784084503792 194.27350427350427,432.66829673069634 196.35897435897436,393.6109182507077 198.44444444444446,393.22739348006246 200.52991452991452,393.6018652398607 202.61538461538464,394.97503475435343 204.7008547008547,412.78492897126335 206.7863247863248,424.24663000255373 208.87179487179486,381.7980792957788 210.95726495726495,388.93721503646606 213.04273504273505,380.0302697266628 215.12820512820514,375.93467254858166 217.21367521367523,372.2368134680988 219.2991452991453,383.13737759827575 221.3846153846154,384.8905461823755 223.47008547008548,355.98177815760175 225.55555555555554,367.2932746551959 227.64102564102564,339.0810755469814 229.72649572649573,339.27678078650985 231.81196581196582,333.45492310406894 233.89743589743588,372.1316831217358 235.98290598290598,381.28471588028276 238.06837606837607,346.5436626570411 240.15384615384616,347.85495389939416 242.23931623931625,340.0592690584717 244.32478632478632,343.09874918146863 246.4102564102564,323.6011525163866 248.4957264957265,314.4036117690072 250.5811965811966,321.3127979897887 252.66666666666666,366.59568540382907 254.75213675213675,394.12384352027465 256.8376068376068,388.18497948953694 258.9230769230769,400.6252023905794 261.008547008547,414.1322151849901 263.0940170940171,404.6641686963886 265.1794871794872,382.96465466156485 267.2649572649573,379.601375349994 269.35042735042737,407.5957859480125 271.43589743589746,414.02502573949084 273.52136752136755,404.6518714271163 275.6068376068376,414.8899542477447 277.69230769230774,418.4056477536762 279.77777777777777,417.30636969360626 281.86324786324786,411.22509103240446 283.9487179487179,393.0248947940989 286.03418803418805,375.83910802001117 288.11965811965814,371.76249310117026 290.2051282051282,372.8135126056205 292.29059829059827,352.2882640382926 294.37606837606836,398.27585994647745 296.46153846153845,410.40933079922695 298.54700854700855,429.12354088139546 300.63247863247864,416.44073667477073 302.71794871794873,415.80881011859003 304.8034188034188,417.2793237476604 306.8888888888889,427.364507174097 308.974358974359,412.09040302572595 311.05982905982904,377.86573181183593 313.14529914529913,391.2202172724035 315.2307692307693,361.01072541477487 317.3162393162393,372.93261426090334 319.4017094017094,393.8258732892499 321.48717948717945,384.33708955869974 323.5726495726496,363.89208384845705 325.65811965811963,381.12026961645176 327.7435897435897,372.2918824948331 329.8290598290598,370.75607183942924 331.9145299145299,370.5524406220037 334.0,386.49690040323014 336.0854700854701,392.524303572103 338.1709401709402,404.1672287983358 340.2564102564103,390.926743531577 342.3418803418803,376.16031768984004 344.42735042735046,381.6717065715353 346.5128205128205,403.6939885919165 348.5982905982906,435.66130362619094 350.6837606837607,418.78536812383203 352.7692307692308,446.0934056935747 354.85470085470087,446.4246175867659 356.94017094017096,454.7905799746322 359.025641025641,460.0139442927276 361.1111111111111,459.49674706116525 363.19658119658123,459.87682151151284 365.28205128205127,453.14195019782585 367.36752136752136,464.8523460361124 369.45299145299145,445.2943903133083 371.53846153846155,455.41515909128805 373.62393162393164,447.74052547358724 375.70940170940173,449.98240979917256 377.79487179487177,458.6776581305262 379.88034188034186,453.5058944604165 381.96581196581195,460.08528672242204 384.05128205128204,452.26686861836146 386.13675213675214,443.2736886841367 388.22222222222223,458.5088633980765 390.3076923076923,448.63337796318575 392.3931623931624,445.4776493104491 394.4786324786325,489.6402411980226 396.56410256410254,503.48108110043086 398.64957264957263,534.7719706078866 400.7350427350427,534.8449516892098 402.8205128205128,541.6896069765792 404.90598290598297,536.1148692440999 406.991452991453,477.7857273388744 409.0769230769231,541.0165762016694 411.1623931623932,534.6266275955007 413.2478632478633,515.0592280324083 415.3333333333333,521.0089934197915 417.4188034188034,539.0742442245296 419.5042735042735,536.4070447183285 421.5897435897436,573.8806109083373 423.6752136752137,595.2540386297158 425.7606837606838,572.390058632913 427.84615384615387,570.4994178265615 429.93162393162396,584.7649924311614 432.017094017094,568.8682789543359 434.1025641025641,565.2584499850182 436.1880341880342,576.7426434757961 438.2735042735043,567.5746407179158 440.3589743589743,572.6364358292267 442.4444444444444,545.2410325999601 444.52991452991455,562.3685684941111 446.61538461538464,564.2823853863624 448.70085470085473,563.9311617089534 450.78632478632477,552.5737049257757 452.87179487179486,540.600611850796 454.95726495726495,542.1805199578944 457.04273504273505,548.8113776645519 459.1282051282051,548.1092156284717 461.2136752136752,568.4277782763038 463.2991452991453,581.2484152665245 465.3846153846154,583.8323304974793 467.4700854700855,582.0183361416919 469.55555555555554,564.4403276465678 471.64102564102564,584.3788158961768 473.7264957264957,579.8089022963068 475.8119658119658,576.9550173218217 477.89743589743586,579.3596652711058 479.98290598290595,618.6227493522473 482.0683760683761,617.5849880955474 484.1538461538462,636.0209406661655 486.2393162393163,593.9327824427626 488.3247863247863,618.3498024784204 490.4102564102564,598.8799673721101 492.4957264957265,584.8300473635032 494.5811965811966,594.9523014138216 496.66666666666663,589.2384568430325 498.7521367521367,596.0507233542296 500.83760683760687,595.297537372016 502.92307692307696,590.8949023398997 505.008547008547,592.5775671983429 507.0940170940171,588.1122707475149 509.1794871794872,589.7215109618136 511.2649572649573,580.5915545622382 513.3504273504273,541.6502644251963 515.4358974358975,537.5037037600059 517.5213675213674,538.3668136733337 519.6068376068376,534.2735655842848 521.6923076923077,531.609673211929 523.7777777777778,537.6605925061359 525.8632478632478,531.7461603106229 527.948717948718,535.1170262037618 530.034188034188,535.8371988342184 532.1196581196581,522.5118091342886 534.2051282051282,520.4973359532285 536.2905982905983,525.6525586823274 538.3760683760684,534.2516479813726 540.4615384615386,531.4451270833454 542.5470085470085,522.9384429695854 544.6324786324786,522.4820168392049 546.7179487179487,465.20772166591576 548.8034188034188,455.3097315262262 550.8888888888889,428.6887318728694 552.9743589743589,437.02673858857975 555.0598290598291,444.0972888707818 557.1452991452992,423.9063629425258 559.2307692307693,431.88196749510456 561.3162393162393,435.7751738824529 563.4017094017095,437.8276447990616 565.4871794871794,444.1674173073605 567.5726495726497,428.632977370951 569.6581196581196,429.77070677248406 571.7435897435897,424.79409351362864 573.8290598290598,410.9599029612782 575.9145299145299,393.49705557158 578.0,422.7813182833357 580.0854700854701,420.534300606013 582.1709401709402,413.6190157666606 584.2564102564103,410.93522549494276 586.3418803418804,405.1729486728914 588.4273504273503,408.3901217586846 590.5128205128206,421.7515261188734 592.5982905982905,436.09482544540987 594.6837606837606,433.75720995423404 596.7692307692307,428.501380275987 598.8547008547009,422.15278675715155 600.9401709401709,425.1890244539309 603.025641025641,426.9581826740822 605.1111111111111,455.6215044790706 607.1965811965812,438.8550065352823 609.2820512820513,429.9635717947767 611.3675213675214,430.4992259397379 613.4529914529915,398.14050477859604 615.5384615384615,387.37625993869364 617.6239316239316,397.6698657323998 619.7094017094017,420.16899979021235 621.7948717948718,423.5799409927807 623.8803418803419,430.1379020251397 625.965811965812,428.3024660582319 628.051282051282,423.30793688424865 630.1367521367521,435.4697600975799 632.2222222222222,432.9359856307854 634.3076923076924,434.2693743163392 636.3931623931625,449.00371978351325 638.4786324786324,462.5713652933599 640.5641025641025,472.88824615575345 642.6495726495726,439.803968633233 644.7350427350427,433.8674086519582 646.8205128205128,431.0035702439572 648.9059829059829,432.75857142500524 650.991452991453,431.8688559649297 653.0769230769231,429.85015289292966 655.1623931623932,420.48420725002217 657.2478632478633,426.6864449907052 659.3333333333334,439.1999197767263 661.4188034188035,412.7877342685314 663.5042735042734,408.0364687240843 665.5897435897435,421.32613462418067 667.6752136752136,419.76570308249916 669.7606837606837,411.4401924725404 671.8461538461539,417.64883654730284 673.9316239316239,408.88302998616246 676.017094017094,387.0075987621209 678.1025641025641,352.8190561444147 680.1880341880342,345.7418489918532 682.2735042735043,347.37184150155394 684.3589743589744,338.1673245389099 686.4444444444445,331.8429676283875 688.5299145299145,330.66579250845183 690.6153846153846,308.19967599740767 692.7008547008547,297.24472814968243 694.7863247863248,296.7757230940937 696.8717948717949,293.5279093236592 698.957264957265,281.8648772209798 701.042735042735,280.97424957940416 703.1282051282051,272.3532290885907 705.2136752136752,287.7022769567769 707.2991452991453,282.13323120880415 709.3846153846154,283.3388983119834 711.4700854700855,280.49632825641874 713.5555555555555,262.4614501562591 715.6410256410256,274.6521235575526 717.7264957264956,275.7255729749372 719.8119658119659,274.416433888619 721.8974358974359,292.73817905715487 723.982905982906,322.61734516366954 726.0683760683761,334.39624416948556 728.1538461538462,317.9194687946919 730.2393162393163,292.21802350477907 732.3247863247864,306.5772284750056 734.4102564102565,296.0854280443241 736.4957264957266,264.4441758251818 738.5811965811965,257.15227484161176 740.6666666666666,232.32570479236313 742.7521367521367,223.75707176666134 744.8376068376068,228.58625703284105 746.9230769230769,187.16015351596764 749.008547008547,159.86947887582824 751.0940170940171,196.99496312973235 753.1794871794872,210.93799855493336 755.2649572649572,212.57753024201241 757.3504273504274,207.55844775878313 759.4358974358975,227.29421560460418 761.5213675213676,262.47050779225435 763.6068376068376,232.31597197302295 765.6923076923077,249.397295103508 767.7777777777778,175.52936142644398 769.8632478632479,186.16424130851647 771.948717948718,192.72143220279747 774.034188034188,242.9060912688724 776.1196581196581,215.72832497931984 778.2051282051282,226.5526550281407 780.2905982905983,221.33876975173496 782.3760683760684,250.67596408395195 784.4615384615385,247.70407865921203 786.5470085470085,248.20161383457645 788.6324786324786,251.7356403151901 790.7179487179486,243.34397373743866 792.8034188034187,229.86498881153386 794.8888888888888,247.84501011207482 796.974358974359,247.17285437640487 799.0598290598291,251.9182362857818 801.1452991452992,245.70469467529983 803.2307692307693,242.26827769877764 805.3162393162394,243.7808836932735 807.4017094017095,231.30321854911676 809.4871794871796,215.4997997344206 811.5726495726495,190.0304077606629 813.6581196581196,194.72512596322622 815.7435897435897,202.8712271840737 817.8290598290598,210.09072807296417 819.9145299145299,206.87041251787468 822.0,199.92317377299196 824.0854700854701,197.90196489170205 826.1709401709402,213.85603803280515 828.2564102564102,212.56414643344795 830.3418803418803,217.51201741311348 832.4273504273503,249.0350643403733 834.5128205128206,255.0503762799978 836.5982905982906,251.35609857750825 838.6837606837607,292.80831632792786 840.7692307692308,275.37037754608025 842.8547008547009,276.75188276864793 844.940170940171,256.0988905481407 847.025641025641,241.35752132401223 849.1111111111111,249.18100732739504 851.1965811965812,213.46382811310696 853.2820512820513,193.52013111239546 855.3675213675214,184.83131579373833 857.4529914529915,186.7860849151307 859.5384615384615,180.64356892355045 861.6239316239316,160.2912351981297 863.7094017094016,194.2692161567353 865.7948717948717,180.12911381278377 867.8803418803418,200.55141659853734 869.9658119658119,281.61986649474784 872.0512820512821,297.60389222096455 874.1367521367522,242.92013541691068 876.2222222222223,233.56509257380225 878.3076923076924,252.7919816134539 880.3931623931625,274.202167876881 882.4786324786326,292.30354607393986 884.5641025641025,304.37854872171636 886.6495726495726,295.9675670865913 888.7350427350427,281.3863706409318 890.8205128205128,275.14517626341643 892.9059829059829,293.54984359418705 894.991452991453,303.1854185742258 897.0769230769231,289.0726978667763 899.1623931623932,277.97950067184007 901.2478632478632,273.93935156042147 903.3333333333333,243.21229563611087 905.4188034188033,248.72328217543293 907.5042735042734,266.9013685962705 909.5897435897435,284.53788563308024 911.6752136752137,300.60919309007176 913.7606837606838,291.91094426171423 915.8461538461539,287.4275154928641 917.931623931624,282.2118134555286 920.017094017094,327.7229518231234 922.1025641025641,378.51420166805633 924.1880341880342,355.7790731976053 926.2735042735043,376.2807895780943 928.3589743589744,356.7819345738213 930.4444444444445,363.72674010841695 932.5299145299145,336.278347384646 934.6153846153846,333.53775077317493 936.7008547008546,359.5322048791203 938.7863247863247,364.5488920811302 940.8717948717948,390.86497942560555 942.9572649572649,421.17479670741386 945.042735042735,411.61901226067744 947.1282051282051,424.0888543372255 949.2136752136753,438.05309254674364 951.2991452991454,425.41167658334786 953.3846153846155,440.7724548278159 955.4700854700856,478.0043031516276 957.5555555555555,490.0664985767063 959.6410256410256,490.9309430533741 961.7264957264957,480.1423544573978 963.8119658119658,459.24048084525907 965.8974358974359,461.9243075152472 967.982905982906,443.87064595417127 970.0683760683761,442.13733441661645 972.1538461538462,441.79651232630846 974.2393162393162,446.4014515689099 976.3247863247863,447.8270602362125 978.4102564102564,482.2651907659981 980.4957264957264,444.06676339177585 982.5811965811965,416.4216365332262 984.6666666666666,426.9656968802519 986.7521367521368,448.1707263252912 988.8376068376069,446.7112840726392 990.923076923077,440.4859200679322 993.008547008547,432.9259675961355 995.0940170940171,405.6071156275403 997.1794871794872,407.1998296311561 999.2649572649573,414.6075491760877 1001.3504273504274,438.4166012989969 1003.4358974358975,435.34814982394334 1005.5213675213676,447.9894275609302 1007.6068376068376,464.423224957101 1009.6923076923076,459.69141576337165 1011.7777777777777,478.96628079504177 1013.8632478632478,482.163212146242 1015.9487179487179,457.18214751152016 1018.034188034188,456.5285557953596 1020.1196581196581,452.8357124907312 1022.2051282051282,452.46868686423403 1024.2905982905984,461.0726901619687 1026.3760683760684,462.30845991250067 1028.4615384615386,468.2960090700906 1030.5470085470085,465.4493423175383 1032.6324786324785,461.45768546005036 1034.7179487179487,460.9744824481638 1036.803418803419,465.1761600899018 1038.888888888889,456.91977336661955 1040.974358974359,460.41714368951364 1043.059829059829,452.599778342538 1045.1452991452993,435.30933916908066 1047.230769230769,433.06752653830813 1049.3162393162393,428.1046928385545 1051.4017094017095,411.2741055703608 1053.4871794871794,404.424767968714 1055.5726495726494,426.49522571188055 1057.6581196581196,433.79178235134447 1059.7435897435898,437.65502094920464 1061.8290598290598,438.3068364884271 1063.91452991453,432.82547478361454 1066.0,434.5218307690345 1068.0854700854702,395.7475490058184 1070.1709401709402,387.00549154634865 1072.2564102564102,395.6061517512165 1074.3418803418804,398.31263898352046 1076.4273504273506,398.1691300664405 1078.5128205128206,406.0958227493986 1080.5982905982905,419.7643593213207 1082.6837606837607,460.7692340152787 1084.7692307692307,452.6053017638189 1086.8547008547007,455.4217456001372 1088.940170940171,455.02540463560194 1091.025641025641,456.79787416585066 1093.111111111111,479.62320777162415 1095.196581196581,461.9888968387429 1097.2820512820513,449.03661574003297 1099.3675213675212,450.5251510579774 1101.4529914529917,486.3685320713647 1103.5384615384614,499.80344647755095 1105.6239316239316,545.2652777095445 1107.7094017094018,570.2992510749568 1109.7948717948718,556.1036039533242 1111.8803418803418,578.5265038784717 1113.965811965812,596.8632579466415 1116.051282051282,665.8063625795074 1118.1367521367522,613.9760357853893 1120.2222222222222,615.8967536822684 1122.3076923076924,612.0697186995566 1124.3931623931624,611.0736053953963 1126.4786324786326,624.1700813285893 1128.5641025641025,638.9488963573095 1130.6495726495725,641.0883798181528 1132.7350427350427,621.4457450505488 1134.8205128205127,614.0949088505502 1136.905982905983,630.1043120493887 1138.9914529914531,626.5361418833834 1141.076923076923,632.041277675657 1143.1623931623933,639.4222526223476 1145.2478632478633,638.2199128023217 1147.3333333333333,632.6182006314323 1149.4188034188035,632.2082624008085 1151.5042735042734,635.0711896774474 1153.5897435897436,656.0562771654859 1155.6752136752136,658.3659720455936 1157.7606837606838,623.2201305189224 1159.8461538461538,628.081375126641 1161.931623931624,644.0224873456337 1164.017094017094,636.5050502507939 1166.102564102564,643.2849500477311 1168.1880341880342,623.4670816785024 1170.2735042735042,629.8559904910517 1172.3589743589744,599.625211201714 1174.4444444444443,611.5718992456004 1176.5299145299145,631.1047667009743 1178.6153846153848,634.9796329267665 1180.7008547008547,642.8728399262898 1182.786324786325,628.4426957982661 1184.871794871795,618.5744931508053 1186.957264957265,616.1004593310837 1189.042735042735,612.70229592875 1191.128205128205,609.3019313274385 1193.2136752136753,607.8963166142203 1195.2991452991453,593.7752590367453 1197.3846153846155,568.4086823809964 1199.4700854700855,575.3662366294055 1201.5555555555554,596.6838462629141 1203.6410256410256,608.139473755638 1205.7264957264956,605.3030868165616 1207.8119658119658,617.2118571238527 1209.8974358974358,624.1744077267016 1211.982905982906,603.3847945987862 1214.068376068376,604.1650328681517 1216.1538461538462,600.1996522834947 1218.2393162393164,620.4172438704443 1220.3247863247864,635.8311323845926 1222.4102564102564,635.7967881569266 1224.4957264957266,638.1057314226161 1226.5811965811965,631.0418047651675 1228.6666666666667,617.6237447555098 1230.7521367521367,614.1758021500068 1232.837606837607,627.1299330851214 1234.923076923077,627.2434788414678 1237.0085470085469,624.8733016676907 1239.094017094017,614.3160909668268 1241.179487179487,615.0351554000555 1243.2649572649573,590.587301220349 1245.3504273504273,598.61969630815 1247.4358974358975,596.157247748595 1249.5213675213674,586.1199347838393 1251.6068376068376,581.68261271059 1253.6923076923078,599.6043880134646 1255.7777777777778,568.1241925914046 1257.8632478632478,573.935444807749 1259.948717948718,567.7816403579245 1262.034188034188,567.9012486883147 1264.1196581196582,553.7369596842234 1266.2051282051282,565.6218476173389 1268.2905982905984,581.4141191252359 1270.3760683760684,569.0022886393442 1272.4615384615386,565.9413305971555 1274.5470085470085,554.5465172010483 1276.6324786324785,558.9094495994507 1278.7179487179487,563.3516376840347 1280.8034188034187,562.2606747708049 1282.888888888889,553.4269067104237 1284.974358974359,564.9835129073725 1287.059829059829,570.0963023909253 1289.145299145299,575.9740913120846 1291.2307692307693,573.5369005962341 1293.3162393162393,562.7907698235163 1295.4017094017095,559.0015325732952 1297.4871794871794,558.8432359178371 1299.5726495726497,551.7954804913965 1301.6581196581196,546.7144796590742 1303.7435897435898,545.9023926039719 1305.8290598290598,557.1361100705836 1307.91452991453,554.7808218724823 1310.0,551.1802001942999" fill="none" stroke="#92400e" stroke-width="2.5"><title>budgeted_btc_defensive_eth_aggressive | end=2026-05-09 | return=9.56%</title></polyline>
</svg>