<svg xmlns="http://www.w3.org/2000/svg" width="1400" height="800">
<rect width="1400" height="800" fill="#f8fafc"/>
<text x="700.0" y="42" text-anchor="middle" font-family="monospace" font-size="24" fill="#0f172a">Portfolio Value Over Time | start=2022-07-01 | interval=7d</text>
<line x1="90" y1="710" x2="1310" y2="710" stroke="#334155" stroke-width="2"/>
<line x1="90" y1="90" x2="90" y2="710" stroke="#334155" stroke-width="2"/>
<line x1="90.0" y1="710" x2="90.0" y2="90" stroke="#cbd5e1" stroke-width="1"/>
<text x="90.0" y="734" text-anchor="middle" font-family="monospace" font-size="11" fill="#475569">2022-07-01</text>
<line x1="90" y1="710.0" x2="1310" y2="710.0" stroke="#cbd5e1" stroke-width="1"/>
<text x="78" y="714.0" text-anchor="end" font-family="monospace" font-size="12" fill="#475569">23368</text>
<line x1="334.0" y1="710" x2="334.0" y2="90" stroke="#cbd5e1" stroke-width="1"/>
<text x="334.0" y="734" text-anchor="middle" font-family="monospace" font-size="11" fill="#475569">2023-04-07</text>
<line x1="90" y1="586.0" x2="1310" y2="586.0" stroke="#cbd5e1" stroke-width="1"/>
<text x="78" y="590.0" text-anchor="end" font-family="monospace" font-size="12" fill="#475569">37782</text>
<line x1="578.0" y1="710" x2="578.0" y2="90" stroke="#cbd5e1" stroke-width="1"/>
<text x="578.0" y="734" text-anchor="middle" font-family="monospace" font-size="11" fill="#475569">2024-01-12</text>
<line x1="90" y1="462.0" x2="1310" y2="462.0" stroke="#cbd5e1" stroke-width="1"/>
<text x="78" y="466.0" text-anchor="end" font-family="monospace" font-size="12" fill="#475569">52195</text>
<line x1="822.0" y1="710" x2="822.0" y2="90" stroke="#cbd5e1" stroke-width="1"/>
<text x="822.0" y="734" text-anchor="middle" font-family="monospace" font-size="11" fill="#475569">2024-10-18</text>
<line x1="90" y1="338.0" x2="1310" y2="338.0" stroke="#cbd5e1" stroke-width="1"/>
<text x="78" y="342.0" text-anchor="end" font-family="monospace" font-size="12" fill="#475569">66608</text>
<line x1="1066.0" y1="710" x2="1066.0" y2="90" stroke="#cbd5e1" stroke-width="1"/>
<text x="1066.0" y="734" text-anchor="middle" font-family="monospace" font-size="11" fill="#475569">2025-07-25</text>
<line x1="90" y1="213.9999999999999" x2="1310" y2="213.9999999999999" stroke="#cbd5e1" stroke-width="1"/>
<text x="78" y="217.9999999999999" text-anchor="end" font-family="monospace" font-size="12" fill="#475569">81021</text>
<line x1="1310.0" y1="710" x2="1310.0" y2="90" stroke="#cbd5e1" stroke-width="1"/>
<text x="1310.0" y="734" text-anchor="middle" font-family="monospace" font-size="11" fill="#475569">2026-05-01</text>
<line x1="90" y1="90.0" x2="1310" y2="90.0" stroke="#cbd5e1" stroke-width="1"/>
<text x="78" y="94.0" text-anchor="end" font-family="monospace" font-size="12" fill="#475569">95435</text>
<text x="700.0" y="782" text-anchor="middle" font-family="monospace" font-size="16" fill="#0f172a">time</text>
<text x="24" y="400.0" transform="rotate(-90 24,400.0)" text-anchor="middle" font-family="monospace" font-size="16" fill="#0f172a">portfolio_value_usd</text>
<line x1="970" y1="80" x2="988" y2="80" stroke="#0f766e" stroke-width="3"/>
<text x="998" y="84" font-family="monospace" font-size="12" fill="#0f172a">static_50_50_rebalance</text>
<line x1="970" y1="104" x2="988" y2="104" stroke="#dc2626" stroke-width="3"/>
<text x="998" y="108" font-family="monospace" font-size="12" fill="#0f172a">target_50_50_with_cash_band</text>
<line x1="970" y1="128" x2="988" y2="128" stroke="#2563eb" stroke-width="3"/>
<text x="998" y="132" font-family="monospace" font-size="12" fill="#0f172a">narrow_cash_band_rebalance</text>
<line x1="970" y1="152" x2="988" y2="152" stroke="#7c3aed" stroke-width="3"/>
<text x="998" y="156" font-family="monospace" font-size="12" fill="#0f172a">drawdown_tilt_rebalance</text>
<line x1="970" y1="176" x2="988" y2="176" stroke="#b45309" stroke-width="3"/>
<text x="998" y="180" font-family="monospace" font-size="12" fill="#0f172a">btc_defensive_eth_aggressive</text>
<polyline points="90.0,696.6998755494807 96.1,679.7547815749722 102.2,682.2145005610329 108.3,660.3269700641001 114.4,646.9771115089627 120.5,648.350881241563 126.6,633.0391850663126 132.7,665.6892959461707 138.8,673.1898780956602 144.9,671.2305438083746 151.0,657.7064200141697 157.1,679.080204169619 163.2,686.8289691793436 169.3,686.0682552213663 175.4,685.4590898164186 181.5,688.909937512539 187.60000000000002,688.7809651385697 193.7,668.5661907154235 199.8,661.1832804794889 205.9,700.1156781985333 212.0,705.7871200583613 218.1,707.2854316165846 224.2,698.9802806468307 230.3,700.6699781855297 236.4,708.6581431141856 242.5,704.854178227938 248.6,706.9551265329901 254.70000000000002,701.0672394235539 260.8,675.246520972991 266.9,649.3952852578677 273.0,651.144096359699 279.1,645.4547228429333 285.20000000000005,663.1651966116215 291.3,638.17769006401 297.4,649.9919239009016 303.5,656.1751757948233 309.6,674.7071531265734 315.7,618.0586109622062 321.8,620.626219928931 327.9,611.7554332781781 334.0,611.2406765325289 340.1,584.8831296771648 346.2,614.8632389231082 352.3,603.0449294592744 358.4,595.5670154299289 364.5,619.145642104197 370.6,618.5077740077859 376.7,618.2628946409656 382.8,610.8594132476081 388.9,618.4791114158837 395.0,627.0155004994477 401.1,596.606298606566 407.2,595.0487979149518 413.3,599.5975073959723 419.40000000000003,595.2401450909034 425.5,600.0635425568737 431.6,603.694689107511 437.7,607.7602330016628 443.79999999999995,605.1242085109798 449.9,631.348692430539 456.0,631.9229813247989 462.09999999999997,634.6302747924626 468.2,633.6505824907797 474.3,630.3017280424292 480.40000000000003,633.700705427326 486.5,627.230343638114 492.6,624.3075939169103 498.70000000000005,635.2729207557098 504.8,619.9401747456828 510.9,590.7076167437207 517.0,583.6869157043338 523.0999999999999,556.3791832728289 529.2,567.1714436996137 535.3,554.4928658472913 541.4,550.4697502312415 547.5,511.1859377216998 553.6,528.9815768065318 559.7,514.0783648319098 565.8,523.0176194610731 571.9000000000001,517.2257706309239 578.0,505.12669390763244 584.1,511.4158636044107 590.2,525.2631200660273 596.3,517.5735599759638 602.4,491.14629255151317 608.5,452.1110498596268 614.6,449.384369847388 620.7,374.3199519349733 626.8,324.77375567363435 632.9,329.8067039905287 639.0,374.35186398242524 645.1,342.92015262531277 651.2,361.7032010958246 657.3000000000001,369.04174422458755 663.4,391.2109795465432 669.5,386.9933310855492 675.6,391.40374258323817 681.6999999999999,410.75906972206695 687.8,378.38321161501443 693.9,332.71070640985283 700.0,334.204773607718 706.1,333.2869472625293 712.2,356.4567235904363 718.3000000000001,360.27754098752996 724.4,381.8323790557739 730.5,418.5803659449507 736.6,404.6956585279912 742.7,351.8359820655759 748.8000000000001,362.4297906139317 754.9000000000001,402.27392454169114 761.0,428.8424471200403 767.1,435.6246388647182 773.2,407.7527310757658 779.3,439.1536334837829 785.4,475.32831486267344 791.5,439.9464906691077 797.5999999999999,423.5122753639243 803.6999999999999,406.5970842800511 809.8,436.8088613407446 815.9,433.8580955629443 822.0,402.0395105314032 828.1,421.63314937104315 834.1999999999999,407.91818070145825 840.3,355.9541180538852 846.4,304.93123448863764 852.5,266.04599843770643 858.6,252.01854939373186 864.7,216.91803228911243 870.8000000000001,219.48735435655544 876.9,259.92546878392363 883.0,279.5159437945392 889.1,249.2754260027536 895.2,282.55006261845097 901.3000000000001,242.6348550140359 907.4000000000001,252.445096310375 913.5,259.39790370976607 919.6,322.7929417887783 925.7,312.9456141594735 931.8,320.9519573609409 937.9,380.988938575065 944.0,381.859188858285 950.0999999999999,405.45982565125576 956.1999999999999,401.3331717177512 962.3,405.6506952959514 968.4,412.8615488141653 974.5,432.7866674305497 980.6,428.5447693683578 986.6999999999999,389.81329528596495 992.8,380.42966999875784 998.9,328.2476523857857 1005.0,312.1784195725747 1011.1,304.45373472332716 1017.2,311.4813254544416 1023.3000000000001,314.87117312052305 1029.4,302.93838288876236 1035.5,322.9962473259182 1041.6,313.01035427662947 1047.7,304.1923539277423 1053.8000000000002,246.58077840229072 1059.9,198.05873933731039 1066.0,184.7745557168738 1072.1,213.6901638827395 1078.2,164.19219614682663 1084.3,129.25870247247906 1090.4,101.83384225000691 1096.5,154.58258341242595 1102.6,152.96558179251235 1108.6999999999998,111.86116322856901 1114.8,129.62296898783018 1120.8999999999999,173.77902482998786 1127.0,110.87334220034882 1133.1,180.0359153026236 1139.2,195.58936219924055 1145.3,177.5637525991575 1151.4,187.42516733810703 1157.5,231.34753317978527 1163.6,275.2002530320636 1169.7,322.2998616941454 1175.8,289.1867169212054 1181.9,293.6072678977406 1188.0,286.87226692892153 1194.1000000000001,299.89531271302036 1200.2,305.6490967033567 1206.3,284.59688070411136 1212.4,286.211023441311 1218.5,258.4594947400811 1224.6000000000001,298.56078327470857 1230.7,330.3719909663177 1236.8,411.8215747376835 1242.8999999999999,417.21054227069914 1249.0,425.24762266586754 1255.1,433.54258798929584 1261.2,424.1012186990028 1267.3,408.1123759173824 1273.3999999999999,405.1940883403447 1279.5,427.81305890794806 1285.6,421.4318433173722 1291.7,390.6292805080611 1297.8,366.2762441855328 1303.9,373.4991304121187 1310.0,373.0568870115673" fill="none" stroke="#0f766e" stroke-width="2.5"><title>static_50_50_rebalance | end=2026-05-01 | return=150.99%</title></polyline>
<polyline points="90.0,696.6998755494807 96.1,679.7547815749722 102.2,682.2670921511335 108.3,660.2458714482794 114.4,646.8110755642371 120.5,648.2252319711938 126.6,632.8182178791988 132.7,665.7801620679431 138.8,673.3324998507999 144.9,671.3981610730287 151.0,657.7511622875259 157.1,679.2611213656373 163.2,687.0688567695502 169.3,686.2844837616263 175.4,685.6510452558463 181.5,689.202860667165 187.60000000000002,689.0776898427846 193.7,668.3315077269885 199.8,660.7429165520871 205.9,701.2859888435967 212.0,707.0872921158335 218.1,708.651772436846 224.2,700.1189711317516 230.3,701.7946776561959 236.4,710.0 242.5,706.1231581116039 248.6,708.3199662340402 254.70000000000002,702.2374025614364 260.8,674.7024391319989 266.9,647.2408347431801 273.0,648.7390963334453 279.1,642.8377702035821 285.20000000000005,661.6526450962784 291.3,634.8716488763966 297.4,647.536921739079 303.5,654.2267212148435 309.6,674.0936609639309 315.7,612.9415204430649 321.8,615.5169237740581 327.9,605.9925641484164 334.0,605.7584548819799 340.1,579.0610241094337 346.2,607.5816169133211 352.3,596.9548304754571 358.4,589.8122987636532 364.5,610.8365774263908 370.6,610.2745728844525 376.7,610.0524983388831 382.8,604.4717618826294 388.9,609.2842768205079 395.0,614.1962717037778 401.1,596.498422760131 407.2,595.6479890065024 413.3,598.0214315281885 419.40000000000003,595.7777662348573 425.5,598.2207810388362 431.6,600.0526895698825 437.7,602.10728194366 443.79999999999995,600.7700223459854 449.9,614.0712682071979 456.0,614.3647797609502 462.09999999999997,615.7594452632902 468.2,615.2501743509379 474.3,613.4887248106434 480.40000000000003,615.2955272882749 486.5,611.8140541404613 492.6,610.1726047412975 498.70000000000005,616.2838816022138 504.8,607.4700749250196 510.9,590.4030617617611 517.0,586.2522509708555 523.0999999999999,571.4890333246533 529.2,576.9697994476578 535.3,570.6605590439443 541.4,568.6885722528821 547.5,549.7689301319458 553.6,558.0763330637059 559.7,551.1551676467993 565.8,555.2581951146774 571.9000000000001,552.5947546001914 578.0,547.0329843575851 584.1,549.914422738272 590.2,556.1778712998837 596.3,552.6429957640692 602.4,540.5182760434012 608.5,522.8953815259545 614.6,521.6948490801461 620.7,489.3555880451631 626.8,468.9396399601244 632.9,470.9261309855249 639.0,488.1567684535521 645.1,475.83500459919514 651.2,483.16884240958564 657.3000000000001,486.0678945927992 663.4,494.9403248139223 669.5,493.2587993636731 675.6,495.05436423824983 681.6999999999999,502.9424365591823 687.8,489.5663925202993 693.9,470.7606526901035 700.0,471.40507082028296 706.1,470.95072789587687 712.2,479.9850288872115 718.3000000000001,481.51849376649625 724.4,490.0179220953451 730.5,504.5470017137948 736.6,499.0221210524203 742.7,477.73751652345493 748.8000000000001,481.8811689574861 754.9000000000001,497.8971595118021 761.0,508.4932782145804 767.1,511.3549244594893 773.2,499.6877068924258 779.3,512.9661113664888 785.4,528.3355215681804 791.5,513.031330078029 797.5999999999999,505.84868555897583 803.6999999999999,498.375843924488 809.8,511.7340447967661 815.9,510.4040453069963 822.0,495.68731567845737 828.1,504.5207025984197 834.1999999999999,497.9049956931656 840.3,473.42347564367066 846.4,447.19800433275793 852.5,428.1094957223052 858.6,422.2081076330202 864.7,407.3962358489632 870.8000000000001,408.3195502523327 876.9,423.7098844057939 883.0,431.165965093165 889.1,419.5652084243391 895.2,432.29541440605755 901.3000000000001,416.9333036754291 907.4000000000001,420.7717840657845 913.5,423.4714798849375 919.6,448.40019649749246 925.7,444.4761314690975 931.8,447.71595849487915 937.9,472.30757223274065 944.0,472.5621023449263 950.0999999999999,482.3230951906931 956.1999999999999,480.62015628525467 962.3,482.3914297355906 968.4,485.4468727725317 974.5,493.8979091254939 980.6,491.9777310484573 986.6999999999999,474.1163005008829 992.8,469.72921904045063 998.9,445.9466484536831 1005.0,438.79371161322825 1011.1,434.77959521725325 1017.2,438.4160945753703 1023.3000000000001,439.87673886251844 1029.4,434.2460840051614 1035.5,443.7409378560027 1041.6,438.61734941158176 1047.7,434.43527813466636 1053.8000000000002,406.3440994915665 1059.9,383.892525557643 1066.0,378.412309914584 1072.1,390.107194164858 1078.2,370.88305428226136 1084.3,357.796888024031 1090.4,347.8774346461924 1096.5,367.75516851213644 1102.6,366.8805640134911 1108.6999999999998,351.42226927156486 1114.8,357.77578567539547 1120.8999999999999,374.26788649197147 1127.0,350.1086402443271 1133.1,375.7825250011682 1139.2,382.05301365326244 1145.3,375.06016728801717 1151.4,378.79833343930096 1157.5,395.5008888494314 1163.6,412.5418927158194 1169.7,430.95992669281895 1175.8,418.0060317975824 1181.9,419.82838191617947 1188.0,417.1870320821193 1194.1000000000001,422.3662160135249 1200.2,424.65088615337226 1206.3,416.2658166715496 1212.4,416.83204648462237 1218.5,405.4923116615916 1224.6000000000001,421.8413591005797 1230.7,434.94779139881683 1236.8,468.69738534308993 1242.8999999999999,471.03273646702485 1249.0,474.3613692100141 1255.1,477.9540809296568 1261.2,473.85182598884387 1267.3,466.9522951854413 1273.3999999999999,465.7796185867614 1279.5,475.6858668929423 1285.6,472.9261688090724 1291.7,459.21156137472735 1297.8,448.36766663439977 1303.9,451.45125082107194 1310.0,451.18605324471105" fill="none" stroke="#dc2626" stroke-width="2.5"><title>target_50_50_with_cash_band | end=2026-05-01 | return=114.54%</title></polyline>
<polyline points="90.0,696.6998755494807 96.1,679.7547815749722 102.2,682.2670921511335 108.3,660.2458714482794 114.4,646.8110755642371 120.5,648.2252319711938 126.6,632.8182178791988 132.7,665.7801620679431 138.8,673.3324998507999 144.9,671.3981610730287 151.0,657.7511622875259 157.1,679.2611213656373 163.2,687.0688567695502 169.3,686.2844837616263 175.4,685.6510452558463 181.5,689.202860667165 187.60000000000002,689.0776898427846 193.7,668.3315077269885 199.8,660.7429165520871 205.9,701.2859888435967 212.0,707.0872921158335 218.1,708.651772436846 224.2,700.1189711317516 230.3,701.7946776561959 236.4,710.0 242.5,706.1245314488822 248.6,708.318656644746 254.70000000000002,702.2410747680208 260.8,674.7542531301694 266.9,647.2734291750445 273.0,648.7624075476094 279.1,642.8489330515265 285.20000000000005,661.7140619629175 291.3,634.8861817839696 297.4,647.5827457046227 303.5,654.284088383165 309.6,674.1569824590676 315.7,612.9846308024834 321.8,615.5589169733076 327.9,605.9967511677589 334.0,605.7814115418032 340.1,578.6772959399466 346.2,609.457877087912 352.3,598.121750733321 358.4,590.4893097991994 364.5,613.1998675217749 370.6,612.5915842436888 376.7,612.2453630891753 382.8,604.9681786545003 388.9,611.9225812575144 395.0,619.5794880527354 401.1,592.7967664442833 407.2,591.4128230855033 413.3,595.288025671691 419.40000000000003,591.6119271316372 425.5,595.6329852102358 431.6,598.6423831026976 437.7,602.0081245037833 443.79999999999995,599.8278234204954 449.9,621.5116243132102 456.0,621.9870666053173 462.09999999999997,624.2339012177493 468.2,623.4180862142724 474.3,620.6111760905509 480.40000000000003,623.4729804439396 486.5,617.9873755687476 492.6,615.4101961284065 498.70000000000005,624.9463613194526 504.8,611.2530434363146 510.9,585.845214145629 517.0,579.8217786282831 523.0999999999999,556.771314340161 529.2,565.7676578828175 535.3,555.2885405595692 541.4,551.9844408219101 547.5,519.8830458861247 553.6,534.3072783863522 559.7,522.278402536849 565.8,529.4671360043449 571.9000000000001,524.8176983358591 578.0,515.1143532239918 584.1,520.1668255921287 590.2,531.2781494341965 596.3,525.107594625473 602.4,503.9025465892091 608.5,472.6996525709026 614.6,470.53485406287405 620.7,411.3762071606523 626.8,372.7989680452992 632.9,376.6860688064514 639.0,410.5960365068357 645.1,386.46113432458156 651.2,400.807058627659 657.3000000000001,406.4464700095607 663.4,423.65983130111823 669.5,420.44087878241356 675.6,423.8956476949213 681.6999999999999,438.94080628518753 687.8,413.4550165078221 693.9,378.0850541717742 700.0,379.3473397427853 706.1,378.4602308529515 712.2,396.2187278496949 718.3000000000001,399.21840839521985 724.4,415.75551559985337 730.5,443.8819598563626 736.6,433.2458195585029 742.7,392.4881135439093 748.8000000000001,400.48055143909716 754.9000000000001,431.2898227454966 761.0,451.51115648478145 767.1,456.87350196421073 773.2,435.02708504355115 779.3,459.3289399426797 785.4,487.3760454214106 791.5,459.78853654892885 797.5999999999999,446.8593360781016 803.6999999999999,433.45252358622014 809.8,457.0113068423194 815.9,454.6905502291271 822.0,429.38203063162683 828.1,444.6484967175312 834.1999999999999,433.9506418682395 840.3,393.639417451751 846.4,353.6715742001891 852.5,322.39836538335794 858.6,311.79807082572336 864.7,284.3209478199977 870.8000000000001,286.1703602824505 876.9,316.7245991091711 883.0,331.5187533600019 889.1,308.6277278293285 895.2,333.73588978567284 901.3000000000001,303.4297314515231 907.4000000000001,310.86191195965586 913.5,316.2347166042785 919.6,364.6793083630809 925.7,357.17092437577827 931.8,363.2599165349538 937.9,408.766143912232 944.0,409.48479063184334 950.0999999999999,427.48106202674836 956.1999999999999,424.32014687637655 962.3,427.63442631815514 968.4,433.189173639819 974.5,448.55914161755464 980.6,445.1924216252667 986.6999999999999,414.0608301274143 992.8,406.6447414289359 998.9,365.9558599441666 1005.0,353.4636269436474 1011.1,347.51314109354917 1017.2,352.8460447798535 1023.3000000000001,355.50968519290967 1029.4,346.2910982232916 1035.5,361.7811757313286 1041.6,354.2542076987994 1047.7,347.4115189293882 1053.8000000000002,303.0014035302976 1059.9,264.90097938162984 1066.0,254.70652727257755 1072.1,276.5072245438967 1078.2,239.3751572849149 1084.3,213.25867826781126 1090.4,192.819542057617 1096.5,232.2231733127324 1102.6,230.9475482896476 1108.6999999999998,200.48924474370807 1114.8,213.52007542905318 1120.8999999999999,246.1711683567126 1127.0,199.36533615778774 1133.1,250.6033520868387 1139.2,262.3990510285052 1145.3,248.88737157401874 1151.4,256.2275919380118 1157.5,288.9373202714166 1163.6,321.7848555900741 1169.7,357.1124154585681 1175.8,332.2854788511816 1181.9,335.6502465500372 1188.0,330.6016976277507 1194.1000000000001,340.39934381024966 1200.2,344.7240590508297 1206.3,328.893685971699 1212.4,330.0640883019621 1218.5,309.0548075293492 1224.6000000000001,339.380269628413 1230.7,363.50237254379334 1236.8,425.3421385956807 1242.8999999999999,429.48853047479923 1249.0,435.58217643534624 1255.1,441.9558818536302 1261.2,434.6984602183653 1267.3,422.4425558061354 1273.3999999999999,420.2561756543697 1279.5,437.65676500354897 1285.6,432.77079989392155 1291.7,408.97551035658614 1297.8,390.1723549363365 1303.9,395.6702298068292 1310.0,395.2898614002548" fill="none" stroke="#2563eb" stroke-width="2.5"><title>narrow_cash_band_rebalance | end=2026-05-01 | return=140.62%</title></polyline>
<polyline points="90.0,696.6998755494807 96.1,679.7547815749722 102.2,682.2670921511335 108.3,660.2458714482794 114.4,646.8110755642371 120.5,648.2252319711938 126.6,632.8182178791988 132.7,665.7801620679431 138.8,673.3324998507999 144.9,671.3981610730287 151.0,657.7511622875259 157.1,679.2611213656373 163.2,687.0688567695502 169.3,686.2844837616263 175.4,685.6510452558463 181.5,689.202860667165 187.60000000000002,689.0776898427846 193.7,668.3315077269885 199.8,660.7429165520871 205.9,701.2859888435967 212.0,707.0872921158335 218.1,708.651772436846 224.2,700.1189711317516 230.3,701.7946776561959 236.4,710.0 242.5,706.122546970941 248.6,708.3201037903601 254.70000000000002,702.2271564224101 260.8,674.5632827949707 266.9,646.699734519174 273.0,648.1115039719605 279.1,642.1475655575775 285.20000000000005,661.2951419246144 291.3,634.0139768116162 297.4,646.8804625479381 303.5,653.6823518278806 309.6,673.8541461870986 315.7,611.6672190159514 321.8,614.2484703125543 327.9,604.8607837147129 334.0,604.4224555146354 340.1,577.1671332452913 346.2,608.6237814054929 352.3,596.3879935618005 358.4,588.4411754578408 364.5,613.0832185765956 370.6,612.443099659421 376.7,612.1888197126975 382.8,605.011870207198 388.9,611.6965363947337 395.0,618.7245338605941 401.1,593.1795160997399 407.2,591.8458239164991 413.3,595.5442069501327 419.40000000000003,591.9502299124099 425.5,595.7004411312322 431.6,598.4132347209265 437.7,601.5987205896428 443.79999999999995,599.590645843709 449.9,619.5268847605093 456.0,619.9921218531936 462.09999999999997,622.0939314322367 468.2,621.337820381887 474.3,618.8541218173626 480.40000000000003,621.6465574830769 486.5,616.3998385846725 492.6,614.2690891740231 498.70000000000005,623.2001541206789 504.8,610.8535030065918 510.9,587.0959698364036 517.0,581.3112728254332 523.0999999999999,559.2931503664099 529.2,567.8156436727047 535.3,558.0193976942079 541.4,555.0615679392837 547.5,525.7093532933148 553.6,538.8502321476353 559.7,527.9034285864709 565.8,534.3947297455175 571.9000000000001,530.2050253823263 578.0,521.2949598355929 584.1,525.7977727306144 590.2,535.4316762384433 596.3,529.9709279140742 602.4,511.33840626043633 608.5,484.04106239446435 614.6,482.08609725313573 620.7,429.594370662739 626.8,395.44738983920047 632.9,398.8682425914518 639.0,428.7911472278969 645.1,407.6094418171614 651.2,420.14601589043383 657.3000000000001,425.09109305881674 663.4,440.0323804065494 669.5,437.13326902581014 675.6,440.1121217877813 681.6999999999999,453.30553005713335 687.8,431.3217314435542 693.9,399.7639251659541 700.0,400.7705072208452 706.1,400.11644950001175 712.2,415.6786088447594 718.3000000000001,418.14444365386896 724.4,432.5390716624962 730.5,457.3744129561022 736.6,447.9619735479236 742.7,412.34374887998393 748.8000000000001,419.7698897994004 754.9000000000001,446.7296442731137 761.0,465.01765419466483 767.1,469.6738923403045 773.2,450.3858525428528 779.3,472.3669200046065 785.4,497.76487406809406 791.5,472.80091359945993 797.5999999999999,461.0842025576892 803.6999999999999,448.9305156590021 809.8,470.5904201692919 815.9,468.4675046309635 822.0,445.4514361891663 828.1,459.3705420398172 834.1999999999999,449.7217855825994 840.3,413.4705588332986 846.4,378.23129181382666 852.5,351.61082968711764 858.6,341.41281042816496 864.7,316.8908155659702 870.8000000000001,318.88753287417876 876.9,345.8697931291875 883.0,358.60804442813236 889.1,338.59639955869613 895.2,360.8059854678775 901.3000000000001,334.8210923583132 907.4000000000001,341.723728818634 913.5,346.0741804115422 919.6,388.7980753931342 925.7,382.11256994491754 931.8,387.5199088431532 937.9,428.13067627964625 944.0,428.94843608448684 950.0999999999999,445.1996260309743 956.1999999999999,442.32084148618554 962.3,445.3562292464694 968.4,450.4088151738996 974.5,464.4353984153622 980.6,461.4789295290963 986.6999999999999,434.7136606454639 992.8,428.2559818246494 998.9,391.79721299732114 1005.0,380.4344475731164 1011.1,375.6462962144893 1017.2,380.0344310615385 1023.3000000000001,382.5357998379334 1029.4,374.3024936326397 1035.5,388.1824197601923 1041.6,381.72064612585467 1047.7,375.55765872850304 1053.8000000000002,336.0895438423273 1059.9,301.0576638345851 1066.0,291.4675957421967 1072.1,310.86918839668647 1078.2,276.98217109080275 1084.3,253.82608752459947 1090.4,235.7491864429927 1096.5,268.999611607536 1102.6,267.99060592744 1108.6999999999998,242.1366688171803 1114.8,253.1582167289842 1120.8999999999999,280.7149469390953 1127.0,241.29009309221271 1133.1,284.60833458104275 1139.2,294.46882434779076 1145.3,283.0858592667931 1151.4,289.30166230886255 1157.5,317.0313065606497 1163.6,344.83261227409184 1169.7,374.75972181146375 1175.8,353.68541852703737 1181.9,356.52296304804145 1188.0,352.22281811129676 1194.1000000000001,360.5649074032483 1200.2,364.2550601939822 1206.3,350.7283797131367 1212.4,351.7502681136869 1218.5,333.80897139593816 1224.6000000000001,359.75864518693953 1230.7,380.4015133486519 1236.8,433.3738764917559 1242.8999999999999,436.9068365632664 1249.0,442.1529438809208 1255.1,447.61001955929873 1261.2,441.38450773076215 1267.3,430.83170316802443 1273.3999999999999,428.91874966317505 1279.5,443.9277337388483 1285.6,439.69203920275595 1291.7,419.13677428468077 1297.8,402.8586562397343 1303.9,407.6704693105065 1310.0,407.36205640441545" fill="none" stroke="#7c3aed" stroke-width="2.5"><title>drawdown_tilt_rebalance | end=2026-05-01 | return=134.99%</title></polyline>
<polyline points="90.0,696.6998755494807 96.1,679.7547815749722 102.2,682.2670921511335 108.3,660.2458714482794 114.4,646.8110755642371 120.5,648.2311633049508 126.6,633.0697081575946 132.7,665.0494498341421 138.8,672.320151485622 144.9,670.5750710694226 151.0,657.3938638089594 157.1,677.6773247101173 163.2,685.0257462563235 169.3,684.250524296168 175.4,683.6264946141498 181.5,687.0288858745844 187.60000000000002,686.9186230951598 193.7,667.267988951632 199.8,660.1837084138243 205.9,698.1716501544396 212.0,703.4441782186043 218.1,704.9214063636748 224.2,697.078160356143 230.3,698.5027731316557 236.4,705.9468417395037 242.5,702.4893196553392 248.6,704.5129731330422 254.70000000000002,699.0299482401032 260.8,673.1673821671566 266.9,647.8381123418094 273.0,648.5595909800379 279.1,643.4969770423897 285.20000000000005,660.2668975506709 291.3,635.9640420213515 297.4,647.3718908293486 303.5,653.4928245953602 309.6,671.2115963792988 315.7,615.7522827420405 321.8,617.6379487984433 327.9,609.2680565699297 334.0,609.7752417230142 340.1,585.3068595029101 346.2,614.1469208495979 352.3,601.5174040051276 358.4,595.2063923387324 364.5,618.6653753722723 370.6,618.0177582858653 376.7,618.0859922444477 382.8,611.1225538762604 388.9,618.6588942812912 395.0,626.0844893551912 401.1,595.352455051977 407.2,594.3319985849669 413.3,598.3479636454463 419.40000000000003,594.6711429984032 425.5,599.3680819083188 431.6,603.3022593222169 437.7,607.1068986101117 443.79999999999995,604.3880563092885 449.9,631.7452981086698 456.0,632.2091848139049 462.09999999999997,634.7346920159553 468.2,633.803516300212 474.3,630.1428878466588 480.40000000000003,632.7505554594197 486.5,627.3390205192685 492.6,623.4922638844251 498.70000000000005,633.4561182750554 504.8,617.4646467171542 510.9,588.3052424752668 517.0,581.5111385136328 523.0999999999999,555.9566286049784 529.2,565.6373777696988 535.3,553.6588644957366 541.4,548.7337785606192 547.5,507.3918075743552 553.6,525.8377565874289 559.7,510.05010004413384 565.8,520.7259611106247 571.9000000000001,512.3898181848665 578.0,504.5201502683592 584.1,511.43616155454436 590.2,523.5756354980778 596.3,515.5301284802383 602.4,488.4588474856289 608.5,449.1602051448617 614.6,448.34805341960174 620.7,371.1689609218035 626.8,321.86770742119126 632.9,325.91297201885385 639.0,370.723731380107 645.1,338.096641237205 651.2,356.58003827396124 657.3000000000001,363.7613631831024 663.4,386.5102992355542 669.5,382.796262436562 675.6,387.4749815020369 681.6999999999999,406.67737039302506 687.8,372.1452982374637 693.9,329.7371766217721 700.0,332.113864838756 706.1,329.43231439001534 712.2,352.9714004281325 718.3000000000001,358.0099443620971 724.4,380.04115322051007 730.5,413.86439612994667 736.6,401.47660974694344 742.7,354.2456203104182 748.8000000000001,362.778906118346 754.9000000000001,398.8154835663278 761.0,421.4349167730323 767.1,428.04172101713976 773.2,402.0927157404936 779.3,431.18996977151926 785.4,464.4981479105605 791.5,431.08855503774316 797.5999999999999,415.625612775532 803.6999999999999,399.68258980462554 809.8,427.75033118372863 815.9,424.9512842493779 822.0,393.74919452806915 828.1,411.8299812656908 834.1999999999999,397.84438003870497 840.3,347.5664014663958 846.4,291.5162179659599 852.5,250.48953117005505 858.6,240.12371691698615 864.7,207.51718146549712 870.8000000000001,208.08776743695802 876.9,246.71489235100557 883.0,267.4816896433397 889.1,237.09504048874788 895.2,269.53139276076257 901.3000000000001,224.51866924192126 907.4000000000001,232.11551517721455 913.5,240.91801755906613 919.6,302.3391943662988 925.7,292.72928251046653 931.8,301.17823755857904 937.9,366.4308274500478 944.0,364.41239389305116 950.0999999999999,387.94839780929794 956.1999999999999,384.2822398499191 962.3,387.72220034281185 968.4,394.42913572488186 974.5,412.1259261146295 980.6,407.60446696779854 986.6999999999999,366.2953244415944 992.8,356.34675843615037 998.9,305.7737890080077 1005.0,291.31784483531203 1011.1,281.37896908272495 1017.2,290.26771540109166 1023.3000000000001,292.9288627567439 1029.4,281.0526434480584 1035.5,300.9493108643684 1041.6,289.0183463696663 1047.7,280.49663619106116 1053.8000000000002,221.6117086819545 1059.9,178.6992688047825 1066.0,167.2547686275558 1072.1,196.04215609510538 1078.2,149.38913681143777 1084.3,116.47224080723606 1090.4,90.0 1096.5,146.96145239122177 1102.6,144.53708777468262 1108.6999999999998,100.30397968248155 1114.8,119.11018136012603 1120.8999999999999,167.26197004594064 1127.0,97.51721678615309 1133.1,172.90292821681373 1139.2,191.10477654589704 1145.3,172.0414860189394 1151.4,182.44423101726693 1157.5,228.76187768477843 1163.6,275.05936571126114 1169.7,322.8958447637012 1175.8,290.0750090254939 1181.9,294.6597766318055 1188.0,288.3180188910342 1194.1000000000001,300.6030794058103 1200.2,305.92247957523244 1206.3,286.62243322621566 1212.4,287.6723514469784 1218.5,261.78285367473296 1224.6000000000001,298.2159342180702 1230.7,327.4850472694073 1236.8,402.39814388919893 1242.8999999999999,407.8446965342162 1249.0,414.9478270784419 1255.1,423.0403130347297 1261.2,413.92106352595886 1267.3,399.0383641300871 1273.3999999999999,396.8906031020511 1279.5,418.06204323832696 1285.6,412.41599174526476 1291.7,383.2957780508746 1297.8,360.65149575965285 1303.9,366.43934664348467 1310.0,365.61526453101925" fill="none" stroke="#b45309" stroke-width="2.5"><title>btc_defensive_eth_aggressive | end=2026-05-01 | return=154.47%</title></polyline>
</svg>