<svg xmlns="http://www.w3.org/2000/svg" width="1400" height="800">
<rect width="1400" height="800" fill="#f8fafc"/>
<text x="700.0" y="42" text-anchor="middle" font-family="monospace" font-size="24" fill="#0f172a">Portfolio Value Over Time | start=2023-04-01 | interval=2d</text>
<line x1="90" y1="710" x2="1310" y2="710" stroke="#334155" stroke-width="2"/>
<line x1="90" y1="90" x2="90" y2="710" stroke="#334155" stroke-width="2"/>
<line x1="90.0" y1="710" x2="90.0" y2="90" stroke="#cbd5e1" stroke-width="1"/>
<text x="90.0" y="734" text-anchor="middle" font-family="monospace" font-size="11" fill="#475569">2023-04-01</text>
<line x1="90" y1="710.0" x2="1310" y2="710.0" stroke="#cbd5e1" stroke-width="1"/>
<text x="78" y="714.0" text-anchor="end" font-family="monospace" font-size="12" fill="#475569">9094</text>
<line x1="334.0" y1="710" x2="334.0" y2="90" stroke="#cbd5e1" stroke-width="1"/>
<text x="334.0" y="734" text-anchor="middle" font-family="monospace" font-size="11" fill="#475569">2023-11-13</text>
<line x1="90" y1="586.0" x2="1310" y2="586.0" stroke="#cbd5e1" stroke-width="1"/>
<text x="78" y="590.0" text-anchor="end" font-family="monospace" font-size="12" fill="#475569">13464</text>
<line x1="578.0" y1="710" x2="578.0" y2="90" stroke="#cbd5e1" stroke-width="1"/>
<text x="578.0" y="734" text-anchor="middle" font-family="monospace" font-size="11" fill="#475569">2024-06-28</text>
<line x1="90" y1="461.99999999999994" x2="1310" y2="461.99999999999994" stroke="#cbd5e1" stroke-width="1"/>
<text x="78" y="465.99999999999994" text-anchor="end" font-family="monospace" font-size="12" fill="#475569">17834</text>
<line x1="822.0" y1="710" x2="822.0" y2="90" stroke="#cbd5e1" stroke-width="1"/>
<text x="822.0" y="734" text-anchor="middle" font-family="monospace" font-size="11" fill="#475569">2025-02-09</text>
<line x1="90" y1="337.99999999999994" x2="1310" y2="337.99999999999994" stroke="#cbd5e1" stroke-width="1"/>
<text x="78" y="341.99999999999994" text-anchor="end" font-family="monospace" font-size="12" fill="#475569">22203</text>
<line x1="1066.0" y1="710" x2="1066.0" y2="90" stroke="#cbd5e1" stroke-width="1"/>
<text x="1066.0" y="734" text-anchor="middle" font-family="monospace" font-size="11" fill="#475569">2025-09-25</text>
<line x1="90" y1="214.0" x2="1310" y2="214.0" stroke="#cbd5e1" stroke-width="1"/>
<text x="78" y="218.0" text-anchor="end" font-family="monospace" font-size="12" fill="#475569">26573</text>
<line x1="1310.0" y1="710" x2="1310.0" y2="90" stroke="#cbd5e1" stroke-width="1"/>
<text x="1310.0" y="734" text-anchor="middle" font-family="monospace" font-size="11" fill="#475569">2026-05-09</text>
<line x1="90" y1="90.0" x2="1310" y2="90.0" stroke="#cbd5e1" stroke-width="1"/>
<text x="78" y="94.0" text-anchor="end" font-family="monospace" font-size="12" fill="#475569">30943</text>
<text x="700.0" y="782" text-anchor="middle" font-family="monospace" font-size="16" fill="#0f172a">time</text>
<text x="24" y="400.0" transform="rotate(-90 24,400.0)" text-anchor="middle" font-family="monospace" font-size="16" fill="#0f172a">portfolio_value_usd</text>
<line x1="970" y1="80" x2="988" y2="80" stroke="#0f766e" stroke-width="3"/>
<text x="998" y="84" font-family="monospace" font-size="12" fill="#0f172a">budgeted_static_50_50_rebalance</text>
<line x1="970" y1="104" x2="988" y2="104" stroke="#9333ea" stroke-width="3"/>
<text x="998" y="108" font-family="monospace" font-size="12" fill="#0f172a">budgeted_drawdown_tilt_rebalance</text>
<line x1="970" y1="128" x2="988" y2="128" stroke="#92400e" stroke-width="3"/>
<text x="998" y="132" font-family="monospace" font-size="12" fill="#0f172a">budgeted_btc_defensive_eth_aggressive</text>
<polyline points="90.0,684.297490403785 92.15167548500882,684.3965980923628 94.30335097001763,683.9411986150595 96.45502645502646,684.2723529881628 98.60670194003526,684.1121604883136 100.75837742504409,682.6771563072971 102.91005291005291,681.2056924328575 105.06172839506172,680.2791828502791 107.21340388007054,681.3432746641678 109.36507936507937,684.266431209507 111.51675485008818,687.6300607604902 113.668430335097,686.920317088504 115.82010582010582,685.8145772138132 117.97178130511463,683.0026189350535 120.12345679012346,683.3906514636514 122.27513227513228,687.548902374635 124.42680776014109,683.5918426749681 126.57848324514991,679.8546431382354 128.73015873015873,686.0524131674226 130.88183421516754,688.781430961226 133.03350970017635,692.2266397357114 135.1851851851852,692.6909019801616 137.336860670194,690.865358697219 139.4885361552028,689.9779473963706 141.64021164021165,691.8842275378017 143.79188712522046,692.6391366395984 145.94356261022926,688.8530188465031 148.0952380952381,693.6517915413633 150.2469135802469,691.0737955426118 152.39858906525572,684.702612251344 154.55026455026456,687.6416303159015 156.70194003527337,685.6596570028422 158.85361552028218,687.1542564532103 161.00529100529099,686.9743856610764 163.15696649029982,692.2747251512359 165.30864197530863,700.5290165307241 167.46031746031747,700.9058196552977 169.61199294532628,709.6688369064174 171.7636684303351,700.7176073012125 173.9153439153439,700.4706478673869 176.06701940035273,687.9606151647025 178.21869488536154,676.7959185109358 180.37037037037038,673.8954456081997 182.5220458553792,676.024885366129 184.673721340388,678.7678899703571 186.8253968253968,670.5876512591427 188.97707231040562,669.7777445439358 191.12874779541445,669.2078028106416 193.2804232804233,678.2590362815738 195.4320987654321,675.4855955466651 197.5837742504409,674.0413568234516 199.73544973544972,674.7512591907994 201.88712522045853,670.7394035266468 204.03880070546737,672.0325041854853 206.1904761904762,675.1389868001736 208.342151675485,675.7188415616068 210.49382716049382,677.328533355445 212.64550264550263,680.8072017260556 214.79717813051144,678.7324836139023 216.94885361552028,678.7460819643118 219.1005291005291,679.6526274751081 221.25220458553792,677.3162587159294 223.40388007054673,681.7683717627551 225.55555555555554,682.2483829832495 227.70723104056435,682.211896270198 229.8589065255732,679.0059784531512 232.010582010582,680.1012734179724 234.1622574955908,681.0757859300516 236.31393298059965,682.2270550798951 238.46560846560845,701.3182993761621 240.61728395061726,704.1663456082582 242.7689594356261,704.2065557294433 244.9206349206349,702.2502729826791 247.07231040564372,705.4171656767231 249.22398589065256,704.9517230636069 251.37566137566137,693.9753828971842 253.52733686067018,706.3290859552477 255.679012345679,707.1363083703831 257.8306878306878,707.7871401405075 259.9823633156966,707.9119850919409 262.13403880070547,707.0396785813728 264.2857142857143,708.5501423654624 266.4373897707231,710.0 268.58906525573195,705.1078234108463 270.74074074074076,704.4771361194156 272.89241622574957,703.57448049793 275.0440917107584,703.07398728218 277.1957671957672,707.0718771666808 279.347442680776,709.1479084834233 281.4991181657848,708.5345692788003 283.6507936507936,701.5275916817174 285.8024691358024,700.6614305992257 287.95414462081123,699.0354392208475 290.1058201058201,698.9312826900882 292.2574955908289,698.3484197116818 294.4091710758377,699.1603448619715 296.5608465608466,705.4363229864258 298.7125220458554,709.7835268129023 300.8641975308642,708.3748453364516 303.015873015873,698.9587509729719 305.1675485008818,702.0701299261256 307.31922398589063,694.162494189317 309.47089947089944,689.077391158183 311.62257495590825,666.3267248143845 313.77425044091706,664.2651776999746 315.9259259259259,666.3161957585662 318.07760141093473,662.5813139275004 320.22927689594354,656.5518661542667 322.3809523809524,660.0734401003175 324.5326278659612,654.9743153245945 326.68430335097,654.0819601734414 328.83597883597884,633.6721251547684 330.98765432098764,636.5739521960281 333.13932980599645,638.9604481775343 335.29100529100526,633.5158683494074 337.4426807760141,644.4426038254205 339.5943562610229,638.3769838183575 341.7460317460317,649.4243944138302 343.89770723104056,635.3613289689537 346.04938271604937,632.1737782459815 348.2010582010582,637.8901723742508 350.352733686067,635.5661817632512 352.50440917107585,628.6990667633994 354.65608465608466,617.2419484445938 356.80776014109347,596.23182225864 358.9594356261023,594.9858465099958 361.1111111111111,594.4275885409868 363.2627865961199,610.6942803699962 365.4144620811287,602.55955539327 367.56613756613757,608.4719306232829 369.7178130511464,612.1498786108461 371.8694885361552,610.109390346643 374.021164021164,600.4714406014419 376.1728395061728,596.4228922683828 378.3245149911816,599.3758405885071 380.4761904761905,592.6537549073099 382.6278659611993,602.7725538971182 384.7795414462081,603.178880774208 386.9312169312169,589.0628643899744 389.0828924162257,597.3315115724197 391.2345679012345,599.8106959536021 393.3862433862434,583.6438735825086 395.5379188712522,568.2075922497819 397.689594356261,585.5503564126616 399.8412698412698,592.6056416875639 401.99294532627863,580.1326401938297 404.14462081128744,594.1268309227577 406.2962962962963,592.6830463188425 408.4479717813051,610.3002614997688 410.5996472663139,613.1076404773214 412.75132275132273,604.7641261035626 414.90299823633154,604.6654147800112 417.05467372134035,595.9070179776352 419.2063492063492,597.9339624780562 421.358024691358,598.6634331110425 423.50970017636683,599.7141914073455 425.66137566137564,585.7497933017121 427.81305114638445,571.8623547730716 429.96472663139326,566.5525572616982 432.11640211640207,553.1576788056096 434.26807760141094,533.8417035744271 436.41975308641975,537.233627508712 438.57142857142856,526.821068278168 440.72310405643736,525.1670223435564 442.8747795414462,531.823280257052 445.026455026455,516.6615513252672 447.17813051146385,490.2086674910384 449.32980599647266,470.168298367349 451.48148148148147,462.2503356535344 453.6331569664903,428.26529597515133 455.7848324514991,424.54083370497386 457.9365079365079,413.098505083514 460.08818342151676,411.2564645166538 462.23985890652557,397.4011472813564 464.3915343915344,403.5992976638253 466.5432098765432,444.59621220724597 468.694885361552,436.8708418056844 470.8465608465608,436.3117667048497 472.9982363315697,460.10706429526203 475.1499118165785,442.1160004626356 477.3015873015873,425.1243054762875 479.4532627865961,424.15807363161355 481.6049382716049,431.13700872396856 483.7566137566137,431.06514803018814 485.9082892416225,454.4915703132527 488.0599647266314,448.21282649753323 490.2116402116402,435.1988789714045 492.363315696649,432.76987740482724 494.5149911816578,430.05245587447837 496.66666666666663,479.0497377692635 498.81834215167544,475.0096170044272 500.9700176366843,489.24902124094217 503.1216931216931,476.59385547523345 505.2733686067019,467.38553333410846 507.42504409171073,458.2832241135045 509.57671957671954,468.3569846823929 511.72839506172835,465.4209920436338 513.8800705467372,466.47448013670555 516.031746031746,499.6323949503525 518.1834215167548,476.32180032244787 520.3350970017636,470.6715137843411 522.4867724867725,484.37541583229853 524.6384479717813,480.06453955623795 526.7901234567901,495.112608515994 528.9417989417989,485.9936026657926 531.0934744268077,470.26319330437536 533.2451499118165,463.84666864015 535.3968253968253,467.7362476229548 537.5485008818341,408.9455622476065 539.7001763668429,416.39189001606684 541.8518518518518,414.0928943938512 544.0035273368607,404.99852395475006 546.1552028218695,418.71847470322484 548.3068783068783,419.25661763173366 550.4585537918871,417.1642432673666 552.6102292768959,406.15386746997694 554.7619047619048,405.29689643571317 556.9135802469136,417.8921363493792 559.0652557319224,418.16438489734145 561.2169312169312,428.56697970302474 563.36860670194,440.55011260798784 565.5202821869489,429.9325410064818 567.6719576719577,443.11980787467036 569.8236331569665,442.39547844222756 571.9753086419753,445.3551639152126 574.1269841269841,466.8686621478473 576.2786596119929,463.9248424261508 578.4303350970017,465.32718413813035 580.5820105820105,453.99163001421215 582.7336860670193,457.0428922232917 584.8853615520281,494.99055650297043 587.037037037037,490.4878539886804 589.1887125220458,498.61148125570185 591.3403880070546,490.1936760021075 593.4920634920634,487.3938259518851 595.6437389770723,470.9045691245865 597.7954144620811,444.3921930934534 599.9470899470899,449.3347320167975 602.0987654320987,433.14774282601553 604.2504409171075,436.6140861389366 606.4021164021163,450.26389484388415 608.5537918871252,445.6860771363065 610.705467372134,444.9698736311456 612.8571428571428,451.05338599667965 615.0088183421517,458.7722993259076 617.1604938271605,492.3513102382882 619.3121693121693,544.4266225411425 621.4638447971781,546.0522403950129 623.6155202821869,510.253662541488 625.7671957671957,520.0324196879137 627.9188712522046,503.8238056495445 630.0705467372134,522.5937434376029 632.2222222222222,513.4621482445382 634.373897707231,512.0321499839018 636.5255731922398,507.1673098496958 638.6772486772486,488.84778100886365 640.8289241622574,489.5358258619737 642.9805996472663,524.3685854459495 645.1322751322751,519.6688316849827 647.283950617284,521.9420096546037 649.4356261022928,519.6336980485153 651.5873015873016,529.3763170405189 653.7389770723104,557.6786436457423 655.8906525573192,549.554421513374 658.042328042328,534.5387969620367 660.1940035273368,534.9785896594431 662.3456790123456,525.1713381766588 664.4973544973544,539.6035091122042 666.6490299823632,523.0458227554645 668.8007054673722,504.79668836581766 670.952380952381,502.30558645017635 673.1040564373898,494.89944468536896 675.2557319223986,493.7583818075684 677.4074074074074,488.5792773041351 679.5590828924162,501.5344470927505 681.710758377425,526.6974351312883 683.8624338624338,518.6738432754353 686.0141093474426,514.6811772891701 688.1657848324514,516.720480599327 690.3174603174602,526.1910998835027 692.469135802469,510.89895273889204 694.620811287478,491.160162174686 696.7724867724868,488.00896676246157 698.9241622574956,483.31644094047556 701.0758377425044,473.94433989721153 703.2275132275132,487.861030393071 705.379188712522,491.9898441954974 707.530864197531,499.3158523507931 709.6825396825396,484.54676942296715 711.8342151675486,470.78545365495023 713.9858906525573,489.95044573004253 716.1375661375662,496.06167013448385 718.2892416225749,496.8776056437275 720.4409171075838,442.03437687495966 722.5925925925926,422.22910913176844 724.7442680776014,369.6788100074611 726.8959435626102,378.62272281954677 729.047619047619,384.53653692417026 731.1992945326278,388.78021133589687 733.3509700176368,379.2690449974872 735.5026455026455,344.4948549498995 737.6543209876544,343.4331442301121 739.8059964726631,354.79675266346817 741.957671957672,328.9887450506677 744.1093474426807,329.5993370036707 746.2610229276896,321.67693525987323 748.4126984126984,331.94376466281324 750.5643738977072,316.6150705936935 752.716049382716,293.81433565201394 754.8677248677249,321.0913680647038 757.0194003527337,302.12199120584796 759.1710758377426,296.388223934728 761.3227513227513,284.85008059265715 763.4744268077602,284.8611410287767 765.6261022927689,341.6031107451945 767.7777777777778,347.5205908112441 769.9294532627865,348.04792637954824 772.0811287477954,330.5271178967961 774.2328042328041,356.0877240035248 776.3844797178131,356.0889981520958 778.5361552028219,358.0930759666348 780.6878306878307,339.880486332119 782.8395061728395,321.5460383171806 784.9911816578483,308.5264695856508 787.1428571428571,353.7441597298094 789.294532627866,358.99374137835173 791.4462081128747,359.52996293996284 793.5978835978837,357.3891182026705 795.7495590828923,342.19452957176264 797.9012345679013,331.0181673364238 800.05291005291,338.6577585012634 802.2045855379189,337.7888341336499 804.3562610229277,329.5381933501138 806.5079365079365,341.2975249104448 808.6596119929453,356.49436264127684 810.8112874779541,334.4893708796598 812.9629629629629,354.8988302826808 815.1146384479719,371.13213190392844 817.2663139329806,390.6148545494904 819.4179894179895,404.3769792174736 821.5696649029982,404.1126171716326 823.7213403880071,407.99260741442475 825.8730158730158,399.6252822523291 828.0246913580247,395.8124890271915 830.1763668430335,395.8382639558873 832.3280423280423,396.25482366627284 834.4797178130511,401.92656851795243 836.63139329806,388.25793356876136 838.7830687830688,434.28200329348715 840.9347442680777,459.7094735136508 843.0864197530864,464.045683286192 845.2380952380953,469.830264878879 847.389770723104,450.7289433555281 849.5414462081129,469.0362366539283 851.6931216931216,494.44028565350175 853.8447971781305,498.25753283489246 855.9964726631393,508.21281092836193 858.1481481481482,493.4320046115543 860.299823633157,495.3228477446807 862.4514991181658,475.9318718425135 864.6031746031746,491.3697886201316 866.7548500881835,482.72671714441475 868.9065255731922,473.7643475818419 871.0582010582011,480.39857498243816 873.2098765432098,507.95109526032655 875.3615520282187,508.66832426444773 877.5132275132274,511.49851478515336 879.6649029982364,506.2282424212125 881.816578483245,542.4981378082479 883.968253968254,558.4929575075274 886.1199294532628,545.8308617514723 888.2716049382716,519.8621318897549 890.4232804232804,523.5148372450329 892.5749559082892,529.8483230436715 894.726631393298,527.6587832385667 896.878306878307,526.273309074429 899.0299823633156,489.7310441080283 901.1816578483246,487.12087791990706 903.3333333333333,480.13488868179184 905.4850088183422,481.6795450234555 907.6366843033509,484.18703671844406 909.7883597883598,473.09580360732184 911.9400352733686,482.31648464632065 914.0917107583774,476.10603083423473 916.2433862433862,420.5916055641507 918.395061728395,377.1164029944792 920.5467372134038,390.6350995550293 922.6984126984128,377.31402091867403 924.8500881834215,384.645099085247 927.0017636684304,381.8802143121083 929.1534391534391,378.3367620927708 931.305114638448,353.89488970971314 933.4567901234567,375.60419989775795 935.6084656084656,368.70516202977876 937.7601410934744,360.98658328856544 939.9118165784832,383.7093773572992 942.063492063492,379.1882588109135 944.2151675485009,374.5853026572511 946.3668430335097,400.1551321833576 948.5185185185186,380.66856020522204 950.6701940035273,355.6331602762465 952.8218694885362,350.74915794143647 954.9735449735449,374.3223086418209 957.1252204585538,378.4724457736433 959.2768959435625,384.19636643239414 961.4285714285714,383.0092514512391 963.5802469135803,409.455984275839 965.7319223985891,391.1790618710276 967.8835978835979,386.0948251255058 970.0352733686067,386.33668734925413 972.1869488536155,376.1924853379507 974.3386243386244,391.2107964292059 976.4902998236331,364.696788790254 978.641975308642,374.89993573495786 980.7936507936507,372.43355260380514 982.9453262786596,344.21204867701834 985.0970017636683,312.41107562729167 987.2486772486773,307.6361841533073 989.400352733686,295.4061197522541 991.5520282186949,260.83738471490886 993.7037037037037,253.72069944393945 995.8553791887125,239.99185969720247 998.0070546737213,248.1135910793958 1000.1587301587301,242.86707411150167 1002.3104056437389,226.00885476166877 1004.4620811287479,236.41789647071528 1006.6137566137565,249.55580583197514 1008.7654320987655,282.19822914973474 1010.9171075837742,249.47933793776218 1013.0687830687831,252.50978921501894 1015.2204585537918,222.2948742290855 1017.3721340388007,196.6850768927127 1019.5238095238095,168.36225174411857 1021.6754850088183,175.85644958499688 1023.8271604938271,187.75353280257036 1025.9788359788358,199.01120026010386 1028.1305114638449,202.7812734641937 1030.2821869488537,159.50906165559218 1032.4338624338625,172.53023113818585 1034.5855379188713,189.8822383786744 1036.73721340388,194.0764533837331 1038.888888888889,214.04892776494324 1041.0405643738977,217.1008361349102 1043.1922398589065,200.50842153552713 1045.3439153439153,213.62293082488287 1047.4955908289242,212.5037813844428 1049.647266313933,211.04439153764707 1051.7989417989418,189.53677019286033 1053.9506172839506,173.76290431038944 1056.1022927689596,185.43663426219462 1058.2539682539682,177.7150368482994 1060.4056437389772,188.3009063683968 1062.5573192239858,191.0818457251637 1064.7089947089949,219.61930055844834 1066.8606701940034,248.20231012878224 1069.0123456790125,235.96531763344325 1071.164021164021,209.03438937269942 1073.31569664903,187.82192984990706 1075.4673721340387,166.05401148371038 1077.6190476190477,162.87763535600925 1079.7707231040563,173.25612391392292 1081.9223985890653,178.06321487599405 1084.074074074074,251.7059254839554 1086.225749559083,203.35068027408073 1088.3774250440915,234.07988426045233 1090.5291005291006,256.9417265432755 1092.6807760141091,239.9043785299948 1094.8324514991182,248.80704944762886 1096.9841269841268,245.3252304997484 1099.1358024691358,234.04491909401088 1101.2874779541446,215.29933610978242 1103.4391534391534,242.0723166481049 1105.5908289241622,247.67529024603328 1107.742504409171,240.5903329510324 1109.8941798941798,310.7834616118816 1112.0458553791887,309.16301102859256 1114.1975308641975,299.7527135993948 1116.3492063492063,277.0421212633571 1118.500881834215,300.3488183801988 1120.652557319224,342.905923329457 1122.8042328042327,345.1168644661307 1124.9559082892417,346.11131778146273 1127.1075837742503,386.3353555545653 1129.2592592592594,396.32288936544967 1131.410934744268,371.63177656273615 1133.562610229277,359.6661952433516 1135.7142857142856,358.0555372028349 1137.8659611992946,362.74099083890655 1140.0176366843034,359.82905179279214 1142.1693121693122,346.55450647811386 1144.320987654321,361.8471871196344 1146.4726631393298,351.1741407162784 1148.6243386243386,331.3352417899993 1150.7760141093474,355.2994623770781 1152.9276895943563,362.786230402526 1155.079365079365,371.7180413000262 1157.2310405643739,389.1068280691441 1159.3827160493827,369.1315850765245 1161.5343915343915,365.98145986659114 1163.6860670194003,373.62413669699606 1165.837742504409,376.06315764713776 1167.989417989418,372.58143344801755 1170.1410934744267,369.4283361759814 1172.2927689594355,366.07920997719623 1174.4444444444443,350.9356217290702 1176.5961199294534,334.0109510960201 1178.747795414462,345.81728180845374 1180.899470899471,354.396926556629 1183.0511463844796,350.684634141332 1185.2028218694886,322.0895675778281 1187.3544973544972,321.96686594302713 1189.5061728395062,323.9466901564495 1191.6578483245148,340.48542269480123 1193.8095238095239,365.5732588745235 1195.9611992945327,367.4169247467198 1198.1128747795415,386.463849101686 1200.2645502645503,362.60712818841347 1202.416225749559,391.6948690210393 1204.567901234568,437.70706242597026 1206.7195767195767,446.42433954296246 1208.8712522045855,479.19490592775276 1211.0229276895943,493.1185389550461 1213.1746031746031,491.3929703575774 1215.326278659612,501.45015230253665 1217.4779541446208,515.4084961064547 1219.6296296296296,492.80628221019003 1221.7813051146384,503.4533653454788 1223.9329805996472,513.9964613216519 1226.084656084656,508.51334810987896 1228.2363315696648,510.56185083878535 1230.3880070546736,530.0032099622442 1232.5396825396826,504.13673364852633 1234.6913580246912,511.4781480460266 1236.8430335097003,500.51116115535524 1238.9947089947088,480.6525771999188 1241.1463844797179,506.97675549958296 1243.2980599647265,516.6612854035573 1245.4497354497355,496.46895922640283 1247.6014109347443,491.45372468014716 1249.7530864197531,487.4407527943013 1251.904761904762,453.76687966556705 1254.0564373897707,477.42926416593264 1256.2081128747795,484.7380402288136 1258.3597883597884,500.4287947595072 1260.5114638447972,483.73766816886155 1262.663139329806,497.3892833571298 1264.8148148148148,510.1111153688413 1266.9664902998236,506.0677353679077 1269.1181657848324,491.6915038621904 1271.2698412698412,502.7894639685214 1273.42151675485,492.03502992217955 1275.5731922398588,472.1169439441592 1277.7248677248676,476.91615249597817 1279.8765432098764,464.70668396277995 1282.0282186948853,453.34024125956563 1284.1798941798943,453.1289556139616 1286.3315696649029,441.60813189923346 1288.483245149912,464.4850323301134 1290.6349206349205,451.84698930092446 1292.7865961199295,446.2755321242877 1294.938271604938,448.98669185325105 1297.0899470899471,451.2418557333841 1299.241622574956,460.22950633985556 1301.3932980599648,449.5902602244971 1303.5449735449736,446.2851333304384 1305.6966490299824,436.543987330237 1307.8483245149912,445.2366398369572 1310.0,440.29560182284337" fill="none" stroke="#0f766e" stroke-width="2.5"><title>budgeted_static_50_50_rebalance | end=2026-05-09 | return=85.98%</title></polyline>
<polyline points="90.0,684.297490403785 92.15167548500882,684.4222863438207 94.30335097001763,683.782235717106 96.45502645502646,684.2402788861032 98.60670194003526,684.0519055732898 100.75837742504409,682.2313940730832 102.91005291005291,680.1255517096515 105.06172839506172,678.765229338616 107.21340388007054,680.1189150504543 109.36507936507937,684.1844480879685 111.51675485008818,688.6399719599125 113.668430335097,687.7109520604625 115.82010582010582,686.3287767232904 117.97178130511463,682.6621686137418 120.12345679012346,683.139756842707 122.27513227513228,688.6849595758317 124.42680776014109,683.3755240426696 126.57848324514991,678.2106820364291 128.73015873015873,686.6509797648528 130.88183421516754,690.1856262953544 133.03350970017635,694.708278377815 135.1851851851852,695.2491304759399 137.336860670194,692.9835524543096 139.4885361552028,691.9678112890535 141.64021164021165,694.0295800479423 143.79188712522046,694.8581143307409 145.94356261022926,690.6826387637982 148.0952380952381,695.6309323293458 150.2469135802469,693.0007136913334 152.39858906525572,686.5485126192448 154.55026455026456,689.339888424442 156.70194003527337,687.4879480925996 158.85361552028218,688.7999319549132 161.00529100529099,688.6786213048142 163.15696649029982,692.9866615702385 165.30864197530863,699.7307084248516 167.46031746031747,700.0671422835933 169.61199294532628,707.554686276178 171.7636684303351,699.7982618863713 173.9153439153439,699.5692564376902 176.06701940035273,688.2429090911892 178.21869488536154,677.8562228367975 180.37037037037038,675.3542227068772 182.5220458553792,677.2406752830838 184.673721340388,679.6840543890859 186.8253968253968,672.5430966049836 188.97707231040562,671.8788507324991 191.12874779541445,671.434175242794 193.2804232804233,678.8852273969751 195.4320987654321,676.6669927729627 197.5837742504409,675.5042206395494 199.73544973544972,676.0774378699136 201.88712522045853,672.7805893280936 204.03880070546737,673.8103979500332 206.1904761904762,676.2161956215266 208.342151675485,676.6690784268894 210.49382716049382,677.9638550703357 212.64550264550263,680.5662982274109 214.79717813051144,678.9588370927748 216.94885361552028,678.957522373558 219.1005291005291,679.6708467319727 221.25220458553792,677.942639344727 223.40388007054673,681.3198779215974 225.55555555555554,681.6604551088136 227.70723104056435,681.6740859141016 229.8589065255732,679.256833754832 232.010582010582,680.0719890422706 234.1622574955908,680.8034105493548 236.31393298059965,681.6807435889548 238.46560846560845,695.9511271114922 240.61728395061726,698.0752540449181 242.7689594356261,698.119093055977 244.9206349206349,696.5432796490652 247.07231040564372,699.2115883825031 249.22398589065256,698.8026957465778 251.37566137566137,689.1358788129661 253.52733686067018,700.3221645412278 255.679012345679,701.0934543052892 257.8306878306878,701.7257051299512 259.9823633156966,701.825765618254 262.13403880070547,700.9989873207674 264.2857142857143,702.5085924597913 266.4373897707231,703.9993083516231 268.58906525573195,699.238989936175 270.74074074074076,698.5970599085402 272.89241622574957,697.7520719440055 275.0440917107584,697.4234495295949 277.1957671957672,701.3631175722633 279.347442680776,703.3849822266296 281.4991181657848,702.6588396003233 283.6507936507936,695.351412180774 285.8024691358024,694.3282463034624 287.95414462081123,692.9067508705976 290.1058201058201,692.9970327890084 292.2574955908289,692.461865491239 294.4091710758377,693.3555644315913 296.5608465608466,699.9492075457607 298.7125220458554,704.417268070506 300.8641975308642,702.8290588498895 303.015873015873,693.1262168589562 305.1675485008818,696.7001466640634 307.31922398589063,688.3844408698377 309.47089947089944,682.4032802984802 311.62257495590825,658.6764667830206 313.77425044091706,656.3919951225578 315.9259259259259,658.7149671219319 318.07760141093473,654.794645053954 320.22927689594354,648.9135612684653 322.3809523809524,652.1289955815522 324.5326278659612,647.043675424739 326.68430335097,646.4237459218842 328.83597883597884,626.9509908261937 330.98765432098764,630.1087035282399 333.13932980599645,631.9290242182299 335.29100529100526,627.7180112797922 337.4426807760141,637.0772340295122 339.5943562610229,631.989849639448 341.7460317460317,641.0063923252166 343.89770723104056,629.3349411019799 346.04938271604937,626.7930703969276 348.2010582010582,631.4705669860709 350.352733686067,629.7413205756409 352.50440917107585,624.2605108647555 354.65608465608466,615.1269117575398 356.80776014109347,599.032652097414 358.9594356261023,597.7745324694232 361.1111111111111,597.4304055178596 363.2627865961199,609.9278624058063 365.4144620811287,603.7880755403692 367.56613756613757,608.288067372886 369.7178130511464,611.082286254549 371.8694885361552,609.6229935117802 374.021164021164,602.3582249122053 376.1728395061728,599.2082473867371 378.3245149911816,601.4708647135998 380.4761904761905,596.2703743056713 382.6278659611993,603.852896011876 384.7795414462081,604.1924632950664 386.9312169312169,593.7677665695547 389.0828924162257,599.9682681267427 391.2345679012345,601.8218234103492 393.3862433862434,589.9300677494093 395.5379188712522,578.374816859014 397.689594356261,591.0121409314925 399.8412698412698,596.1119320048199 401.99294532627863,587.1218752067437 404.14462081128744,597.0998201545999 406.2962962962963,596.1060113831759 408.4479717813051,608.5832722326602 410.5996472663139,610.7588638697471 412.75132275132273,604.8196395123108 414.90299823633154,604.764375396657 417.05467372134035,598.4657475086126 419.2063492063492,599.943212024134 421.358024691358,600.4686451774717 423.50970017636683,601.2198324346315 425.66137566137564,591.1686488687158 427.81305114638445,581.1654248193958 429.96472663139326,577.3513998272484 432.11640211640207,567.6964111742154 434.26807760141094,553.7540550119014 436.41975308641975,556.2067463480747 438.57142857142856,548.6542115695383 440.72310405643736,547.4572851788665 442.8747795414462,552.2392776981463 445.026455026455,541.2801974793506 447.17813051146385,522.5232598328557 449.32980599647266,508.33529369742035 451.48148148148147,502.6812114924203 453.6331569664903,478.68015610122757 455.7848324514991,475.87025887614755 457.9365079365079,467.83884793111554 460.08818342151676,466.571448157699 462.23985890652557,456.90980236772083 464.3915343915344,461.26637119550685 466.5432098765432,489.7040361470316 468.694885361552,484.41229722136416 470.8465608465608,484.0327932790244 472.9982363315697,500.1540143823668 475.1499118165785,487.76350069944795 477.3015873015873,475.85041143260935 479.4532627865961,475.1886428593923 481.6049382716049,480.00657591933646 483.7566137566137,479.9596765506464 485.9082892416225,495.9306446212131 488.0599647266314,491.6379574923452 490.2116402116402,482.4669408415849 492.363315696649,480.6959519883216 494.5149911816578,478.8031815388873 496.66666666666663,513.6659997117611 498.81834215167544,510.64657844808636 500.9700176366843,521.1065998370789 503.1216931216931,511.6176681993861 505.2733686067019,504.5152834749881 507.42504409171073,497.4132129085621 509.57671957671954,505.3427951503418 511.72839506172835,502.5793682539976 513.8800705467372,503.6208136349071 516.031746031746,531.0841573559114 518.1834215167548,511.60775446934593 520.3350970017636,506.8326392752507 522.4867724867725,518.9549274233876 524.6384479717813,515.1527210281238 526.7901234567901,528.9485731141124 528.9417989417989,520.7758965158789 531.0934744268077,506.2401328465 533.2451499118165,499.79547231383754 535.3968253968253,503.4666759881582 537.5485008818341,442.63564001355473 539.7001763668429,448.70121128957004 541.8518518518518,447.54271307389376 544.0035273368607,438.33985776317104 546.1552028218695,450.2826659834712 548.3068783068783,450.71926340511357 550.4585537918871,448.9735310292094 552.6102292768959,440.81447304917384 554.7619047619048,440.1973813233021 556.9135802469136,450.2809960395488 559.0652557319224,450.6267649893953 561.2169312169312,458.74038628265964 563.36860670194,467.5419377628933 565.5202821869489,459.130717489887 567.6719576719577,469.11004350636773 569.8236331569665,468.3953437739576 571.9753086419753,470.4810607309913 574.1269841269841,485.7134041561918 576.2786596119929,483.612689604016 578.4303350970017,484.5210759055723 580.5820105820105,476.2958063622963 582.7336860670193,478.553123892342 584.8853615520281,508.4199248123984 587.037037037037,505.1094761708314 589.1887125220458,511.4331622183503 591.3403880070546,504.4680821096631 593.4920634920634,502.05837021584983 595.6437389770723,488.3316450622132 597.7954144620811,465.72204743705106 599.9470899470899,469.9039179745035 602.0987654320987,455.840620198489 604.2504409171075,459.0850705259351 606.4021164021163,470.95728119562716 608.5537918871252,467.6159536918834 610.705467372134,467.06262515195516 612.8571428571428,472.02653453399 615.0088183421517,479.1458209998125 617.1604938271605,509.91101279197005 619.3121693121693,558.6891472776815 621.4638447971781,560.8058008042035 623.6155202821869,527.0313177110384 625.7671957671957,536.161867273828 627.9188712522046,519.4814603930037 630.0705467372134,538.433976446081 632.2222222222222,529.5497699658787 634.373897707231,527.8252714404153 636.5255731922398,523.6670806047812 638.6772486772486,504.53748182513664 640.8289241622574,505.5361101331494 642.9805996472663,543.2592664884287 645.1322751322751,537.4350599840479 647.283950617284,539.8215723117588 649.4356261022928,537.1698322512472 651.5873015873016,547.9270982878174 653.7389770723104,578.4707549043653 655.8906525573192,569.5427752230484 658.042328042328,554.0706474282788 660.1940035273368,555.0757567007656 662.3456790123456,544.9424481443405 664.4973544973544,560.9131113685866 666.6490299823632,543.9843862736786 668.8007054673722,522.5994684287294 670.952380952381,519.8402945496124 673.1040564373898,511.2041456819484 675.2557319223986,510.68077341593937 677.4074074074074,504.7955528853723 679.5590828924162,518.6959667427492 681.710758377425,548.0882596750162 683.8624338624338,539.3739513983919 686.0141093474426,535.023380397158 688.1657848324514,536.9310012406424 690.3174603174602,547.1551248686369 692.469135802469,530.6017182995341 694.620811287478,508.31934211169244 696.7724867724868,505.8429687346847 698.9241622574956,500.6195073331108 701.0758377425044,489.0128729937228 703.2275132275132,505.4937231799229 705.379188712522,511.71711301177345 707.530864197531,520.060556787682 709.6825396825396,503.8694085299861 711.8342151675486,488.4674562141256 713.9858906525573,510.42949097654406 716.1375661375662,517.5669126064871 718.2892416225749,519.1143157032216 720.4409171075838,455.6966241660365 722.5925925925926,431.4245781553201 724.7442680776014,375.69993490757116 726.8959435626102,388.4404157966543 729.047619047619,396.30321079076106 731.1992945326278,400.5791771388067 733.3509700176368,390.97770349314567 735.5026455026455,353.722625207197 737.6543209876544,352.00719663431437 739.8059964726631,362.13801002630845 741.957671957672,333.80158982051364 744.1093474426807,335.6619338651818 746.2610229276896,326.66281966116964 748.4126984126984,336.80101502402454 750.5643738977072,321.33141671373056 752.716049382716,299.84697693885977 754.8677248677249,325.4957953883589 757.0194003527337,309.5021565752668 759.1710758377426,304.07610169176957 761.3227513227513,295.05603958331335 763.4744268077602,296.0225795622219 765.6261022927689,342.87631949031766 767.7777777777778,348.1377509837121 769.9294532627865,347.52517823784126 772.0811287477954,333.6614799863719 774.2328042328041,354.31527052477907 776.3844797178131,354.0536913606993 778.5361552028219,355.7971318721748 780.6878306878307,340.494512835504 782.8395061728395,323.86946553234156 784.9911816578483,313.6986900058784 787.1428571428571,351.7128067139423 789.294532627866,356.3846098830451 791.4462081128747,356.79767154312367 793.5978835978837,355.64602421636084 795.7495590828923,342.8252062879941 797.9012345679013,334.034864849797 800.05291005291,340.38452812884043 802.2045855379189,340.2115917869053 804.3562610229277,332.6575411963406 806.5079365079365,343.2760173644692 808.6596119929453,358.0703951978449 810.8112874779541,337.4310833638518 812.9629629629629,356.2741474443044 815.1146384479719,374.160909908164 817.2663139329806,391.9062398366479 819.4179894179895,407.00631573307544 821.5696649029982,406.66617214270457 823.7213403880071,410.55141382368515 825.8730158730158,401.4351077097942 828.0246913580247,397.70979770973463 830.1763668430335,395.85328011445904 832.3280423280423,397.29640979299745 834.4797178130511,404.0868751477102 836.63139329806,386.3678222742819 838.7830687830688,437.9189102636767 840.9347442680777,466.53594219599114 843.0864197530864,473.7117551274721 845.2380952380953,481.4060528639527 847.389770723104,461.36203668546557 849.5414462081129,481.28840293339914 851.6931216931216,508.21383958298975 853.8447971781305,516.0060469026636 855.9964726631393,527.3079833900772 858.1481481481482,511.0481737514167 860.299823633157,513.252676287234 862.4514991181658,489.7218575115653 864.6031746031746,507.8778466014075 866.7548500881835,498.1884487372612 868.9065255731922,487.1552054674405 871.0582010582011,496.314314932157 873.2098765432098,529.9544027320334 875.3615520282187,530.8728256337555 877.5132275132274,534.8487196714312 879.6649029982364,529.0009167839415 881.816578483245,574.3350604773738 883.968253968254,594.4264153897462 886.1199294532628,580.4623075810318 888.2716049382716,550.64567180691 890.4232804232804,554.9867350630255 892.5749559082892,563.1492275560643 894.726631393298,560.5753121075812 896.878306878307,559.348180923294 899.0299823633156,517.2367866056022 901.1816578483246,514.1556319353108 903.3333333333333,505.16043527760144 905.4850088183422,507.62668633559065 907.6366843033509,510.31379978301186 909.7883597883598,497.4333535355546 911.9400352733686,507.84325712951534 914.0917107583774,501.5185656842252 916.2433862433862,429.9904584608127 918.395061728395,370.1192270982115 920.5467372134038,387.3955706918752 922.6984126984128,368.66592067548333 924.8500881834215,379.6463938318642 927.0017636684304,379.71857733210663 929.1534391534391,374.8638396591173 931.305114638448,344.08654635767056 933.4567901234567,372.1555382154269 935.6084656084656,363.8087051715491 937.7601410934744,349.332097029051 939.9118165784832,379.5005864667086 942.063492063492,374.9145341340184 944.2151675485009,367.179771233253 946.3668430335097,401.970156511359 948.5185185185186,377.21686880259057 950.6701940035273,344.521439996746 952.8218694885362,334.0467144148167 954.9735449735449,368.0765272288815 957.1252204585538,373.95859992221403 959.2768959435625,381.59087970648216 961.4285714285714,379.7986957313589 963.5802469135803,418.5809525438102 965.7319223985891,394.65840973999775 967.8835978835979,389.64623166842523 970.0352733686067,389.5982151977131 972.1869488536155,375.54049367160223 974.3386243386244,395.23318043712266 976.4902998236331,359.291687558786 978.641975308642,373.3602971938438 980.7936507936507,369.4922422293173 982.9453262786596,329.2285753450164 985.0970017636683,288.1700795182412 987.2486772486773,282.9383008260864 989.400352733686,260.8238847291097 991.5520282186949,207.0938509980919 993.7037037037037,193.35656488979305 995.8553791887125,171.8476536680746 998.0070546737213,185.78153039562335 1000.1587301587301,176.83118354447345 1002.3104056437389,157.31372645435977 1004.4620811287479,168.40926415776983 1006.6137566137565,181.7072342521941 1008.7654320987655,216.21341931934154 1010.9171075837742,180.80833570424477 1013.0687830687831,184.18359786127792 1015.2204585537918,152.73887817405125 1017.3721340388007,127.86787289857023 1019.5238095238095,99.4125707820516 1021.6754850088183,105.62330235087745 1023.8271604938271,116.64268026117327 1025.9788359788358,126.71211569879404 1028.1305114638449,128.96173638373205 1030.2821869488537,90.0 1032.4338624338625,99.78474949433564 1034.5855379188713,114.39991448328101 1036.73721340388,118.61997491997454 1038.888888888889,134.02961415262234 1041.0405643738977,136.9155073754515 1043.1922398589065,123.91337665907315 1045.3439153439153,134.60419312363672 1047.4955908289242,133.87612777972583 1049.647266313933,132.8369018021899 1051.7989417989418,116.47493455041365 1053.9506172839506,103.31984027634428 1056.1022927689596,112.87154600170334 1058.2539682539682,106.88101427126105 1060.4056437389772,115.38141436242665 1062.5573192239858,117.5289695416734 1064.7089947089949,139.93049757116273 1066.8606701940034,162.24938002440445 1069.0123456790125,152.54712215147492 1071.164021164021,131.9616654945719 1073.31569664903,115.89266917033171 1075.4673721340387,99.12671241826092 1077.6190476190477,96.87222098330972 1079.7707231040563,104.80612963079636 1081.9223985890653,108.88153786771773 1084.074074074074,166.49609888141197 1086.225749559083,128.13995168804752 1088.3774250440915,152.18278678146908 1090.5291005291006,170.00663380555943 1092.6807760141091,156.37737663869746 1094.8324514991182,163.80007192817675 1096.9841269841268,161.29440940509073 1099.1358024691358,152.03527287431154 1101.2874779541446,136.4242169720634 1103.4391534391534,158.62168597868754 1105.5908289241622,163.4066226118897 1107.742504409171,157.39832320606138 1109.8941798941798,217.74347531099522 1112.0458553791887,216.2732440115094 1114.1975308641975,208.04169556500807 1116.3492063492063,188.00479863795795 1118.500881834215,208.89971537021717 1120.652557319224,247.8929616839634 1122.8042328042327,249.94805546478892 1124.9559082892417,250.71256218814716 1127.1075837742503,289.20423406070756 1129.2592592592594,298.81195922554735 1131.410934744268,274.57199566352966 1133.562610229277,262.68189595607026 1135.7142857142856,261.0774168309687 1137.8659611992946,265.9918817220591 1140.0176366843034,263.0160638958668 1142.1693121693122,248.38151815974504 1144.320987654321,265.0734511360021 1146.4726631393298,253.064388829903 1148.6243386243386,229.9545836265434 1150.7760141093474,258.40118151224755 1152.9276895943563,266.82785258129036 1155.079365079365,277.9374597668537 1157.2310405643739,299.1779498337023 1159.3827160493827,274.51739229042073 1161.5343915343915,270.4782310973657 1163.6860670194003,280.07643800502944 1165.837742504409,283.1464735394205 1167.989417989418,278.832695019916 1170.1410934744267,274.9164229280698 1172.2927689594355,270.62520023470177 1174.4444444444443,251.39992887754403 1176.5961199294534,230.54100260403771 1178.747795414462,244.94685991329635 1180.899470899471,256.1280040258934 1183.0511463844796,251.30249462330943 1185.2028218694886,215.16852848116207 1187.3544973544972,215.12555221829706 1189.5061728395062,217.54028631615392 1191.6578483245148,238.64080055825332 1193.8095238095239,271.076429385603 1195.9611992945327,273.653348118005 1198.1128747795415,297.8431883879757 1200.2645502645503,266.9119182385179 1202.416225749559,303.7887064506334 1204.567901234568,362.7917310044788 1206.7195767195767,374.6295077970957 1208.8712522045855,416.1314355203414 1211.0229276895943,433.91078818349735 1213.1746031746031,431.2476253875788 1215.326278659612,444.6254084703481 1217.4779541446208,462.8797153345423 1219.6296296296296,432.6423981080797 1221.7813051146384,447.6392903387389 1223.9329805996472,461.20313005944826 1226.084656084656,454.4386712792651 1228.2363315696648,457.1748345652624 1230.3880070546736,483.11273175905797 1232.5396825396826,447.5843538188147 1234.6913580246912,458.1255101299412 1236.8430335097003,443.36786196229167 1238.9947089947088,417.034315764927 1241.1463844797179,452.561537505754 1243.2980599647265,465.21453085788517 1245.4497354497355,438.4622443741713 1247.6014109347443,431.4120659300253 1249.7530864197531,425.9878407259278 1251.904761904762,378.3070125783056 1254.0564373897707,411.0682840198519 1256.2081128747795,421.5987548845865 1258.3597883597884,443.21804326521027 1260.5114638447972,420.12013884400204 1262.663139329806,439.4747056408995 1264.8148148148148,456.6865682506275 1266.9664902998236,450.88341055069696 1269.1181657848324,430.1508763150917 1271.2698412698412,446.1393576868514 1273.42151675485,431.5656947421838 1275.5731922398588,403.6495531497476 1277.7248677248676,410.98568828398606 1279.8765432098764,393.28438081185806 1282.0282186948853,376.9050696850619 1284.1798941798943,376.9646073208101 1286.3315696649029,361.0935437114984 1288.483245149912,393.9452673090591 1290.6349206349205,376.50537810229486 1292.7865961199295,369.6256618553689 1294.938271604938,373.2915023141967 1297.0899470899471,376.5712180229572 1299.241622574956,389.20203328811175 1301.3932980599648,374.7816717468611 1303.5449735449736,369.89680736960537 1305.6966490299824,356.70439080137 1307.8483245149912,369.5944596833224 1310.0,362.36891792134475" fill="none" stroke="#9333ea" stroke-width="2.5"><title>budgeted_drawdown_tilt_rebalance | end=2026-05-09 | return=113.45%</title></polyline>
<polyline points="90.0,684.297490403785 92.15167548500882,684.4637602549648 94.30335097001763,683.8644766972301 96.45502645502646,684.3148669020674 98.60670194003526,684.0428543101264 100.75837742504409,682.1172873598455 102.91005291005291,680.7315009119742 105.06172839506172,679.9626403667453 107.21340388007054,681.1894916530405 109.36507936507937,683.8231636734276 111.51675485008818,687.1859562959335 113.668430335097,686.4713963101897 115.82010582010582,685.2572620791807 117.97178130511463,682.4967791471643 120.12345679012346,682.9227238089157 122.27513227513228,686.6825673742077 124.42680776014109,683.1996613189336 126.57848324514991,680.1952754793866 128.73015873015873,685.3463775629386 130.88183421516754,687.8971982974653 133.03350970017635,690.8246600345786 135.1851851851852,691.3128535581519 137.336860670194,689.7231274939268 139.4885361552028,688.8991282045263 141.64021164021165,690.6904249852807 143.79188712522046,691.3373775311187 145.94356261022926,688.3070687191846 148.0952380952381,692.3173058175081 150.2469135802469,690.1662336985207 152.39858906525572,684.926190130978 154.55026455026456,687.4922483050759 156.70194003527337,686.1521262294214 158.85361552028218,687.2993544294765 161.00529100529099,687.0281915494182 163.15696649029982,691.5717113147847 165.30864197530863,698.1940871565564 167.46031746031747,698.4352383087494 169.61199294532628,706.2925404111159 171.7636684303351,697.696637509859 173.9153439153439,697.4629596146251 176.06701940035273,684.7386980990084 178.21869488536154,673.1210583124443 180.37037037037038,669.9568312291677 182.5220458553792,672.1464762817491 184.673721340388,674.8545050071242 186.8253968253968,667.0295583126976 188.97707231040562,666.1650651761273 191.12874779541445,665.5091782875912 193.2804232804233,674.5043588254147 195.4320987654321,671.6497650316077 197.5837742504409,670.2131691521067 199.73544973544972,670.8908644303739 201.88712522045853,667.371373545722 204.03880070546737,668.6163875157048 206.1904761904762,671.813757354208 208.342151675485,672.3880885038014 210.49382716049382,673.8304152417345 212.64550264550263,677.6103854231143 214.79717813051144,675.5806260753644 216.94885361552028,675.6349731619423 219.1005291005291,676.4712444274758 221.25220458553792,673.9441323126357 223.40388007054673,678.448265947332 225.55555555555554,679.0160653849745 227.70723104056435,678.8285911307507 229.8589065255732,675.5883841349548 232.010582010582,676.7328738729258 234.1622574955908,677.7273231909694 236.31393298059965,678.8521969553464 238.46560846560845,698.4422620971652 240.61728395061726,701.5247501448766 242.7689594356261,701.5247427245382 244.9206349206349,699.4824292379259 247.07231040564372,702.6549561003859 249.22398589065256,702.2052604465272 251.37566137566137,690.8298488965727 253.52733686067018,703.5811302663386 255.679012345679,704.3517597372487 257.8306878306878,704.972606516402 259.9823633156966,705.1621231833008 262.13403880070547,704.2225155938886 264.2857142857143,705.6088055485098 266.4373897707231,706.8427760285147 268.58906525573195,701.8111095351788 270.74074074074076,701.2253093562456 272.89241622574957,700.2162566837234 275.0440917107584,699.3538707979214 277.1957671957672,703.4470557478913 279.347442680776,705.6281929233866 281.4991181657848,705.1525237202569 283.6507936507936,698.1416692797092 285.8024691358024,697.4786065960383 287.95414462081123,695.4220138223246 290.1058201058201,694.9871149179214 292.2574955908289,694.2915712240535 294.4091710758377,695.0029942192979 296.5608465608466,701.067207786501 298.7125220458554,705.5617389572238 300.8641975308642,704.2512502278954 303.015873015873,694.1260580799475 305.1675485008818,696.9833513142428 307.31922398589063,688.4959586706184 309.47089947089944,683.8099401470026 311.62257495590825,659.2308143306478 313.77425044091706,657.1727132367827 315.9259259259259,658.9563062584797 318.07760141093473,655.2802388067889 320.22927689594354,648.8650461554507 322.3809523809524,652.8846307425778 324.5326278659612,648.2730133550153 326.68430335097,646.9101839875707 328.83597883597884,628.2448677660376 330.98765432098764,629.9006820165217 333.13932980599645,632.946908070565 335.29100529100526,626.1646117394176 337.4426807760141,637.2305526129214 339.5943562610229,630.9855850343233 341.7460317460317,642.7947368256004 343.89770723104056,628.6572868788687 346.04938271604937,625.1982044613774 348.2010582010582,630.8535087716025 350.352733686067,627.9002933138919 352.50440917107585,620.8307196414952 354.65608465608466,609.2211818041693 356.80776014109347,584.9734324813267 358.9594356261023,585.272935619833 361.1111111111111,584.0814100344503 363.2627865961199,601.8713307109584 365.4144620811287,592.310325938164 367.56613756613757,598.85138402723 369.7178130511464,602.9266695913498 371.8694885361552,599.723102139359 374.021164021164,588.9485284327626 376.1728395061728,585.769056065335 378.3245149911816,588.4929410154816 380.4761904761905,582.9753780179346 382.6278659611993,593.8463366238615 384.7795414462081,593.8421671548717 386.9312169312169,577.5403516044071 389.0828924162257,585.8571785782954 391.2345679012345,588.3109947339872 393.3862433862434,569.7141460713262 395.5379188712522,557.0390208128042 397.689594356261,577.791334762404 399.8412698412698,585.4914590399217 401.99294532627863,572.513986414514 404.14462081128744,587.5200761923109 406.2962962962963,585.8266898979954 408.4479717813051,604.4862008374089 410.5996472663139,607.0265593061454 412.75132275132273,597.6017911849848 414.90299823633154,597.3690502682146 417.05467372134035,588.155245871426 419.2063492063492,590.0585442679737 421.358024691358,590.8156833257102 423.50970017636683,592.09730685266 425.66137566137564,577.225057176816 427.81305114638445,561.4609025618538 429.96472663139326,555.3497345968432 432.11640211640207,541.3450407941641 434.26807760141094,520.8422818114414 436.41975308641975,524.314219337854 438.57142857142856,514.4364362040287 440.72310405643736,512.8070284829747 442.8747795414462,520.3086583974823 445.026455026455,504.56485874621205 447.17813051146385,474.2481296490049 449.32980599647266,451.2889571642003 451.48148148148147,442.5481115388093 453.6331569664903,403.7912905168318 455.7848324514991,401.2136942915349 457.9365079365079,387.971836684773 460.08818342151676,385.64213852657525 462.23985890652557,369.6536499509551 464.3915343915344,376.4346933456992 466.5432098765432,423.50139679836917 468.694885361552,414.2705552500676 470.8465608465608,413.5479542524002 472.9982363315697,441.2138160763356 475.1499118165785,419.8817011321601 477.3015873015873,400.0382140675906 479.4532627865961,398.3653813510015 481.6049382716049,406.497155844173 483.7566137566137,406.37268803991947 485.9082892416225,433.45742779680774 488.0599647266314,425.394078833314 490.2116402116402,410.8802470854525 492.363315696649,408.64963909501466 494.5149911816578,405.03332290734113 496.66666666666663,459.80404658240485 498.81834215167544,456.525468891533 500.9700176366843,472.6976763028714 503.1216931216931,457.65513376959007 505.2733686067019,447.57980514890033 507.42504409171073,437.18949999388934 509.57671957671954,449.0613679521074 511.72839506172835,447.4386520609296 513.8800705467372,447.9882458215173 516.031746031746,486.3062657274738 518.1834215167548,458.6108208390245 520.3350970017636,451.908325278855 522.4867724867725,467.0856557828293 524.6384479717813,462.0725480469588 526.7901234567901,479.1219784461025 528.9417989417989,467.92049831909884 531.0934744268077,448.99947962593944 533.2451499118165,441.9597688673931 535.3968253968253,446.61585129314574 537.5485008818341,386.33207816271926 539.7001763668429,396.0451012436777 541.8518518518518,392.44509506026515 544.0035273368607,383.4473949706523 546.1552028218695,398.8745775417942 548.3068783068783,399.50008288339865 550.4585537918871,397.1581660658248 552.6102292768959,383.3898297417485 554.7619047619048,382.3041267072611 556.9135802469136,396.2338791317473 559.0652557319224,396.29192931010033 561.2169312169312,407.8756562765428 563.36860670194,421.9722919728222 565.5202821869489,410.4933189856852 567.6719576719577,425.3629683854495 569.8236331569665,424.74777252727034 571.9753086419753,428.22451597655447 574.1269841269841,453.16863793567654 576.2786596119929,449.73420786512946 578.4303350970017,451.4151227929283 580.5820105820105,438.21807771630995 582.7336860670193,441.7735800476064 584.8853615520281,485.5000660796891 587.037037037037,480.2135909246066 589.1887125220458,489.57355173958655 591.3403880070546,480.07484766286757 593.4920634920634,476.95695023917983 595.6437389770723,458.0734621645627 597.7954144620811,427.76680595201873 599.9470899470899,433.5260093903544 602.0987654320987,414.7454264141391 604.2504409171075,418.45305866961183 606.4021164021163,434.1340299764203 608.5537918871252,428.2048419178556 610.705467372134,427.2911643109822 612.8571428571428,434.8191296866389 615.0088183421517,443.4839724614402 617.1604938271605,481.56679318701424 619.3121693121693,539.8510156011416 621.4638447971781,540.6505203434775 623.6155202821869,501.13936030823544 625.7671957671957,512.462750135471 627.9188712522046,495.18226196775277 630.0705467372134,516.0536059711161 632.2222222222222,505.46900197664644 634.373897707231,504.1293305665778 636.5255731922398,497.86667996912615 638.6772486772486,477.485566373216 640.8289241622574,477.9961072162573 642.9805996472663,516.2175795285384 645.1322751322751,511.83562860744695 647.283950617284,514.3945735817756 649.4356261022928,512.0316711632728 651.5873015873016,522.4635434404454 653.7389770723104,553.3391310443862 655.8906525573192,544.7985127379449 658.042328042328,527.9162915742043 660.1940035273368,527.790479846049 662.3456790123456,516.6784931155821 664.4973544973544,531.981331175904 666.6490299823632,512.7645603030667 668.8007054673722,494.5370846657528 670.952380952381,491.835354958061 673.1040564373898,484.25557636815836 675.2557319223986,482.12918288861874 677.4074074074074,476.5616931167867 679.5590828924162,491.5436012565734 681.710758377425,517.9276729777051 683.8624338624338,508.83119689727374 686.0141093474426,504.3150167250906 688.1657848324514,507.0239368468895 690.3174603174602,517.9157742418498 692.469135802469,500.42868188966463 694.620811287478,478.92152711599226 696.7724867724868,474.13302096384535 698.9241622574956,468.8310974915554 701.0758377425044,459.52377264451025 703.2275132275132,474.3301069913242 705.379188712522,477.14555366753 707.530864197531,485.2717696664315 709.6825396825396,468.12564363269337 711.8342151675486,452.5551125296548 713.9858906525573,473.63393134862804 716.1375661375662,480.0882342460467 718.2892416225749,479.89348587361656 720.4409171075838,422.4241067950743 722.5925925925926,403.8268104607803 724.7442680776014,340.1733077816522 726.8959435626102,345.85844529316535 729.047619047619,350.43208530623497 731.1992945326278,355.9384073602827 733.3509700176368,343.654534850898 735.5026455026455,303.55993658649857 737.6543209876544,303.6032810955465 739.8059964726631,321.07033483283755 741.957671957672,293.22663438886605 744.1093474426807,291.5085949192847 746.2610229276896,284.6960634076342 748.4126984126984,295.92475845887964 750.5643738977072,280.4922303370777 752.716049382716,255.8150851968021 754.8677248677249,284.1103503926674 757.0194003527337,261.572099236347 759.1710758377426,256.1086971863801 761.3227513227513,241.4958796351546 763.4744268077602,239.11732163888723 765.6261022927689,302.33232462201977 767.7777777777778,307.8391854240202 769.9294532627865,311.8130294594664 772.0811287477954,289.59456439422934 774.2328042328041,319.8262774430962 776.3844797178131,320.6779092579278 778.5361552028219,322.77299455677024 780.6878306878307,301.4445267177925 782.8395061728395,283.10649940758464 784.9911816578483,265.7872463847296 787.1428571428571,316.40982965262464 789.294532627866,321.59032316775006 791.4462081128747,322.3378663201929 793.5978835978837,317.59758942865193 795.7495590828923,299.10459520876765 797.9012345679013,282.7622098275901 800.05291005291,292.9256282390831 802.2045855379189,289.96606064285186 804.3562610229277,280.76620543418494 806.5079365079365,294.7876015418767 808.6596119929453,310.48936177584073 810.8112874779541,285.3899291175038 812.9629629629629,310.06950782599097 815.1146384479719,323.6390691496611 817.2663139329806,348.593648205114 819.4179894179895,361.0961227234633 821.5696649029982,360.96356950798855 823.7213403880071,365.4728879147605 825.8730158730158,356.870681934255 828.0246913580247,351.9680808712417 830.1763668430335,355.0260165301338 832.3280423280423,353.97246950746586 834.4797178130511,359.67122688424416 836.63139329806,347.68344608125955 838.7830687830688,400.3031631809148 840.9347442680777,428.776001027974 843.0864197530864,430.08846572999806 845.2380952380953,434.6165139679022 847.389770723104,411.17165382785043 849.5414462081129,432.8892461637514 851.6931216931216,464.31626293404605 853.8447971781305,463.1713315869873 855.9964726631393,474.3769015108229 858.1481481481482,456.75223654077604 860.299823633157,458.85002527613165 862.4514991181658,438.57997083789843 864.6031746031746,455.82375288102105 866.7548500881835,445.2511659942852 868.9065255731922,435.81837608516423 871.0582010582011,441.2558302520776 873.2098765432098,471.2974142800347 875.3615520282187,471.997872307174 877.5132275132274,474.16682708815665 879.6649029982364,467.47181879153067 881.816578483245,505.275074595109 883.968253968254,521.0774364161679 886.1199294532628,505.14511626416873 888.2716049382716,474.86795968664524 890.4232804232804,478.85725223981456 892.5749559082892,484.3786852954586 894.726631393298,481.919136002409 896.878306878307,479.36233409277713 899.0299823633156,435.95270484062195 901.1816578483246,432.98407926340593 903.3333333333333,426.82841123690906 905.4850088183422,426.9927006042904 907.6366843033509,430.67133702549773 909.7883597883598,416.8287788854041 911.9400352733686,429.220627938754 914.0917107583774,419.0672081973033 916.2433862433862,366.5683643386725 918.395061728395,333.10318278451143 920.5467372134038,347.0835947957576 922.6984126984128,335.91242698339323 924.8500881834215,341.38247080638587 927.0017636684304,333.22155847368396 929.1534391534391,329.7288551294726 931.305114638448,301.4080215420096 933.4567901234567,325.9000436600042 935.6084656084656,317.2329074209928 937.7601410934744,314.7204391112954 939.9118165784832,339.841684363449 942.063492063492,333.0207276792204 944.2151675485009,329.94506252460445 946.3668430335097,357.568600874827 948.5185185185186,334.3589882177597 950.6701940035273,305.5376511675733 952.8218694885362,304.9366838178039 954.9735449735449,328.5323492604509 957.1252204585538,332.8274330759875 959.2768959435625,339.32336336992347 961.4285714285714,338.22643103085306 963.5802469135803,364.028526571117 965.7319223985891,343.3993919520284 967.8835978835979,335.4995620130527 970.0352733686067,336.26684289007665 972.1869488536155,325.9147700841387 974.3386243386244,342.87322463716623 976.4902998236331,314.5806677877065 978.641975308642,325.2388222383569 980.7936507936507,323.2920211655772 982.9453262786596,295.3874525666308 985.0970017636683,258.0375260427345 987.2486772486773,251.22207322987072 989.400352733686,244.1761799138368 991.5520282186949,213.55575719326947 993.7037037037037,210.10949585039663 995.8553791887125,199.1755069061365 998.0070546737213,204.48394903810873 1000.1587301587301,201.13632285061846 1002.3104056437389,183.24171921275354 1004.4620811287479,194.82179637462082 1006.6137566137565,209.76134625817633 1008.7654320987655,245.56178466831767 1010.9171075837742,209.6869158436499 1013.0687830687831,212.92359545006462 1015.2204585537918,179.4992340863887 1017.3721340388007,150.5600568401827 1019.5238095238095,119.25397534869978 1021.6754850088183,127.99110493255102 1023.8271604938271,141.489319785181 1025.9788359788358,154.34496244902425 1028.1305114638449,158.81763209447138 1030.2821869488537,109.40527107114451 1032.4338624338625,124.30172861248695 1034.5855379188713,144.2284034585365 1036.73721340388,149.1460419212283 1038.888888888889,171.97192298239838 1041.0405643738977,175.54488037800786 1043.1922398589065,156.56626435299268 1045.3439153439153,171.64561716547587 1047.4955908289242,170.39104878186356 1049.647266313933,168.74097091763815 1051.7989417989418,144.29792436118635 1053.9506172839506,126.22251253411366 1056.1022927689596,139.5979493232968 1058.2539682539682,130.79640847529902 1060.4056437389772,142.9084250172466 1062.5573192239858,146.07271886280887 1064.7089947089949,178.5291806989287 1066.8606701940034,210.8157052899777 1069.0123456790125,197.09183861332872 1071.164021164021,166.7411665296513 1073.31569664903,142.7892822254612 1075.4673721340387,118.21577565535858 1077.6190476190477,114.59281478084233 1079.7707231040563,126.36005230084311 1081.9223985890653,131.7516564173411 1084.074074074074,215.0874226880806 1086.225749559083,160.7896416898302 1088.3774250440915,195.43527376464795 1090.5291005291006,221.26806115625118 1092.6807760141091,201.8751681734846 1094.8324514991182,212.02758582376225 1096.9841269841268,208.08615588803417 1099.1358024691358,195.3101961441945 1101.2874779541446,174.05477997176945 1103.4391534391534,204.42657501687944 1105.5908289241622,210.7722855811847 1107.742504409171,202.75760457387776 1109.8941798941798,282.6009508396084 1112.0458553791887,280.85591234626673 1114.1975308641975,270.49889490749933 1116.3492063492063,245.22722889336825 1118.500881834215,271.4682404187544 1120.652557319224,319.2402473784005 1122.8042328042327,321.68868796354104 1124.9559082892417,323.1001947199312 1127.1075837742503,367.57359513020543 1129.2592592592594,378.60255281785265 1131.410934744268,351.8108098680191 1133.562610229277,338.6557143118133 1135.7142857142856,336.8374290269423 1137.8659611992946,341.89673237491394 1140.0176366843034,338.5528284209489 1142.1693121693122,324.4327743534548 1144.320987654321,341.35362043096234 1146.4726631393298,329.71409834316574 1148.6243386243386,308.3745315649278 1150.7760141093474,334.34580980936454 1152.9276895943563,342.8840222485722 1155.079365079365,352.49564981449 1157.2310405643739,371.6122085963853 1159.3827160493827,349.7558932743186 1161.5343915343915,346.3759740745988 1163.6860670194003,354.7094538539498 1165.837742504409,357.3734011420225 1167.989417989418,353.52805766868346 1170.1410934744267,350.0461569824631 1172.2927689594355,346.415270059788 1174.4444444444443,329.8810395843804 1176.5961199294534,310.9905619237167 1178.747795414462,324.2968587146615 1180.899470899471,333.633566360736 1183.0511463844796,329.5834526748214 1185.2028218694886,297.8339385070615 1187.3544973544972,297.64408236978966 1189.5061728395062,299.8999624209838 1191.6578483245148,318.3630703017199 1193.8095238095239,346.1887668428186 1195.9611992945327,348.11121920351735 1198.1128747795415,369.1443936614144 1200.2645502645503,343.384479118269 1202.416225749559,375.3738775189986 1204.567901234568,425.32565886722267 1206.7195767195767,434.11229075268784 1208.8712522045855,469.2761563886701 1211.0229276895943,484.07290150069116 1213.1746031746031,482.61796263486144 1215.326278659612,492.9805529013775 1217.4779541446208,507.66580752321187 1219.6296296296296,484.44294555194426 1221.7813051146384,494.8801157352467 1223.9329805996472,506.23578173144756 1226.084656084656,500.1374588794249 1228.2363315696648,502.2630201137132 1230.3880070546736,522.4741531388592 1232.5396825396826,496.63896869173084 1234.6913580246912,503.6665019514772 1236.8430335097003,492.39970448085523 1238.9947089947088,471.6332976621919 1241.1463844797179,498.863811926364 1243.2980599647265,509.20131583048135 1245.4497354497355,488.0132024401864 1247.6014109347443,483.03803655718184 1249.7530864197531,478.8800218869832 1251.904761904762,445.49223203863505 1254.0564373897707,469.77806699044515 1256.2081128747795,477.0475053202072 1258.3597883597884,493.33816905937374 1260.5114638447972,476.110679699302 1262.663139329806,489.94850735490456 1264.8148148148148,503.3310911814733 1266.9664902998236,499.3191384397767 1269.1181657848324,485.12710615366336 1271.2698412698412,496.1572423829763 1273.42151675485,484.9095618238856 1275.5731922398588,464.57892840749514 1277.7248677248676,469.13970932036653 1279.8765432098764,456.917699923869 1282.0282186948853,445.41232327615137 1284.1798941798943,444.9895065077227 1286.3315696649029,432.7548799116925 1288.483245149912,456.4262209867803 1290.6349206349205,442.9350051561451 1292.7865961199295,436.5122761409213 1294.938271604938,439.46535667239334 1297.0899470899471,441.78079020624773 1299.241622574956,451.296143697849 1301.3932980599648,439.67890344754005 1303.5449735449736,436.35551554529417 1305.6966490299824,425.64301566151636 1307.8483245149912,434.43349059323356 1310.0,429.35970185992943" fill="none" stroke="#92400e" stroke-width="2.5"><title>budgeted_btc_defensive_eth_aggressive | end=2026-05-09 | return=89.84%</title></polyline>
</svg>