<svg xmlns="http://www.w3.org/2000/svg" width="1400" height="800">
<rect width="1400" height="800" fill="#f8fafc"/>
<text x="700.0" y="42" text-anchor="middle" font-family="monospace" font-size="24" fill="#0f172a">budgeted_btc_defensive_eth_aggressive | weekly | start=2026-01-01 | return=2.96%</text>
<line x1="90" y1="420" x2="1310" y2="420" stroke="#334155" stroke-width="2"/>
<line x1="90" y1="90" x2="90" y2="420" stroke="#334155" stroke-width="2"/>
<line x1="90.0" y1="420" x2="90.0" y2="90" stroke="#94a3b8" stroke-width="1.2"/>
<line x1="90.0" y1="605" x2="90.0" y2="480" stroke="#94a3b8" stroke-width="1.2"/>
<line x1="90.0" y1="770" x2="90.0" y2="645" stroke="#94a3b8" stroke-width="1.2"/>
<text x="90.0" y="788" text-anchor="middle" font-family="monospace" font-size="11" fill="#334155">2026-01</text>
<line x1="428.8888888888889" y1="420" x2="428.8888888888889" y2="90" stroke="#94a3b8" stroke-width="1.2"/>
<line x1="428.8888888888889" y1="605" x2="428.8888888888889" y2="480" stroke="#94a3b8" stroke-width="1.2"/>
<line x1="428.8888888888889" y1="770" x2="428.8888888888889" y2="645" stroke="#94a3b8" stroke-width="1.2"/>
<text x="428.8888888888889" y="788" text-anchor="middle" font-family="monospace" font-size="11" fill="#334155">2026-02</text>
<line x1="700.0" y1="420" x2="700.0" y2="90" stroke="#94a3b8" stroke-width="1.2"/>
<line x1="700.0" y1="605" x2="700.0" y2="480" stroke="#94a3b8" stroke-width="1.2"/>
<line x1="700.0" y1="770" x2="700.0" y2="645" stroke="#94a3b8" stroke-width="1.2"/>
<text x="700.0" y="788" text-anchor="middle" font-family="monospace" font-size="11" fill="#334155">2026-03</text>
<line x1="971.1111111111111" y1="420" x2="971.1111111111111" y2="90" stroke="#94a3b8" stroke-width="1.2"/>
<line x1="971.1111111111111" y1="605" x2="971.1111111111111" y2="480" stroke="#94a3b8" stroke-width="1.2"/>
<line x1="971.1111111111111" y1="770" x2="971.1111111111111" y2="645" stroke="#94a3b8" stroke-width="1.2"/>
<text x="971.1111111111111" y="788" text-anchor="middle" font-family="monospace" font-size="11" fill="#334155">2026-04</text>
<line x1="1310.0" y1="420" x2="1310.0" y2="90" stroke="#94a3b8" stroke-width="1.2"/>
<line x1="1310.0" y1="605" x2="1310.0" y2="480" stroke="#94a3b8" stroke-width="1.2"/>
<line x1="1310.0" y1="770" x2="1310.0" y2="645" stroke="#94a3b8" stroke-width="1.2"/>
<text x="1310.0" y="788" text-anchor="middle" font-family="monospace" font-size="11" fill="#334155">2026-05</text>
<line x1="90" y1="420.0" x2="1310" y2="420.0" stroke="#cbd5e1" stroke-width="1"/>
<text x="78" y="424.0" text-anchor="end" font-family="monospace" font-size="12" fill="#475569">0</text>
<line x1="90" y1="354.0" x2="1310" y2="354.0" stroke="#cbd5e1" stroke-width="1"/>
<text x="78" y="358.0" text-anchor="end" font-family="monospace" font-size="12" fill="#475569">2059</text>
<line x1="90" y1="288.0" x2="1310" y2="288.0" stroke="#cbd5e1" stroke-width="1"/>
<text x="78" y="292.0" text-anchor="end" font-family="monospace" font-size="12" fill="#475569">4118</text>
<line x1="90" y1="222.0" x2="1310" y2="222.0" stroke="#cbd5e1" stroke-width="1"/>
<text x="78" y="226.0" text-anchor="end" font-family="monospace" font-size="12" fill="#475569">6177</text>
<line x1="90" y1="156.0" x2="1310" y2="156.0" stroke="#cbd5e1" stroke-width="1"/>
<text x="78" y="160.0" text-anchor="end" font-family="monospace" font-size="12" fill="#475569">8236</text>
<line x1="90" y1="90.0" x2="1310" y2="90.0" stroke="#cbd5e1" stroke-width="1"/>
<text x="78" y="94.0" text-anchor="end" font-family="monospace" font-size="12" fill="#475569">10296</text>
<polygon points="90.0,111.01348226750156 157.77777777777777,122.5523978674704 225.55555555555554,134.0913134674392 293.3333333333333,145.63022906740804 361.1111111111111,157.16914466737683 428.8888888888889,168.70806026734564 496.66666666666663,180.24697586731446 564.4444444444445,191.78589146728328 632.2222222222222,203.32480706725212 700.0,214.86372266722094 767.7777777777778,226.40263826718976 835.5555555555557,237.94155386715858 903.3333333333333,249.48046946712742 971.1111111111111,261.0193850670962 1038.888888888889,272.55830066706505 1106.6666666666667,284.0972162670339 1174.4444444444443,295.6361318670027 1242.2222222222222,307.1750474669715 1310.0,318.7139630669403 1310.0,420.0 1242.2222222222222,420.0 1174.4444444444443,420.0 1106.6666666666667,420.0 1038.888888888889,420.0 971.1111111111111,420.0 903.3333333333333,420.0 835.5555555555557,420.0 767.7777777777778,420.0 700.0,420.0 632.2222222222222,420.0 564.4444444444445,420.0 496.66666666666663,420.0 428.8888888888889,420.0 361.1111111111111,420.0 293.3333333333333,420.0 225.55555555555554,420.0 157.77777777777777,420.0 90.0,420.0" fill="#facc15" fill-opacity="0.70" stroke="#facc15" stroke-width="1.2"/>
<polygon points="90.0,106.39791602751404 157.77777777777777,113.16145017001759 225.55555555555554,119.43838722964398 293.3333333333333,127.98964322853692 361.1111111111111,135.6999334430834 428.8888888888889,150.20122963074527 496.66666666666663,155.8769514383216 564.4444444444445,162.77462981871832 632.2222222222222,168.51052126771873 700.0,174.6597811032161 767.7777777777778,181.56354234121915 835.5555555555557,187.1036682887879 903.3333333333333,195.91122332573065 971.1111111111111,202.88557267718107 1038.888888888889,206.03928864980787 1106.6666666666667,208.14990708074112 1174.4444444444443,215.64012634676715 1242.2222222222222,225.11255308291877 1310.0,229.72552225191316 1310.0,318.7139630669403 1242.2222222222222,307.1750474669715 1174.4444444444443,295.6361318670027 1106.6666666666667,284.0972162670339 1038.888888888889,272.55830066706505 971.1111111111111,261.0193850670962 903.3333333333333,249.48046946712742 835.5555555555557,237.94155386715858 767.7777777777778,226.40263826718976 700.0,214.86372266722094 632.2222222222222,203.32480706725212 564.4444444444445,191.78589146728328 496.66666666666663,180.24697586731446 428.8888888888889,168.70806026734564 361.1111111111111,157.16914466737683 293.3333333333333,145.63022906740804 225.55555555555554,134.0913134674392 157.77777777777777,122.5523978674704 90.0,111.01348226750156" fill="#2563eb" fill-opacity="0.70" stroke="#2563eb" stroke-width="1.2"/>
<polygon points="90.0,99.47456666753271 157.77777777777777,99.13626862744576 225.55555555555554,97.78700253384864 293.3333333333333,100.80207924739602 361.1111111111111,103.09339448901113 428.8888888888889,119.05211213673107 496.66666666666663,116.1093923819875 564.4444444444445,115.62452766601808 632.2222222222222,114.07237940577261 700.0,110.55818216336206 767.7777777777778,110.86055067817995 835.5555555555557,110.09207783511926 903.3333333333333,113.242159265304 971.1111111111111,115.546593540755 1038.888888888889,105.37479805624628 1106.6666666666667,95.84405246346898 1174.4444444444443,91.75178069448123 1242.2222222222222,97.42735596784996 1310.0,90.0 1310.0,229.72552225191316 1242.2222222222222,225.11255308291877 1174.4444444444443,215.64012634676715 1106.6666666666667,208.14990708074112 1038.888888888889,206.03928864980787 971.1111111111111,202.88557267718107 903.3333333333333,195.91122332573065 835.5555555555557,187.1036682887879 767.7777777777778,181.56354234121915 700.0,174.6597811032161 632.2222222222222,168.51052126771873 564.4444444444445,162.77462981871832 496.66666666666663,155.8769514383216 428.8888888888889,150.20122963074527 361.1111111111111,135.6999334430834 293.3333333333333,127.98964322853692 225.55555555555554,119.43838722964398 157.77777777777777,113.16145017001759 90.0,106.39791602751404" fill="#f97316" fill-opacity="0.70" stroke="#f97316" stroke-width="1.2"/>
<rect x="1100" y="76" width="16" height="12" fill="#f97316" fill-opacity="0.70" stroke="#f97316"/>
<text x="1124" y="86" font-family="monospace" font-size="12" fill="#0f172a">BTC</text>
<rect x="1100" y="98" width="16" height="12" fill="#2563eb" fill-opacity="0.70" stroke="#2563eb"/>
<text x="1124" y="108" font-family="monospace" font-size="12" fill="#0f172a">ETH</text>
<rect x="1100" y="120" width="16" height="12" fill="#facc15" fill-opacity="0.70" stroke="#facc15"/>
<text x="1124" y="130" font-family="monospace" font-size="12" fill="#0f172a">DAI</text>
<text x="700.0" y="782" text-anchor="middle" font-family="monospace" font-size="16" fill="#0f172a">time</text>
<text x="24" y="255.0" transform="rotate(-90 24,255.0)" text-anchor="middle" font-family="monospace" font-size="16" fill="#0f172a">asset value split (usd)</text>
<line x1="90" y1="605" x2="1310" y2="605" stroke="#334155" stroke-width="2"/>
<line x1="90" y1="480" x2="90" y2="605" stroke="#334155" stroke-width="2"/>
<line x1="90" y1="542.5" x2="1310" y2="542.5" stroke="#64748b" stroke-width="1.5" stroke-dasharray="6 4"/>
<line x1="90" y1="605.0" x2="1310" y2="605.0" stroke="#e2e8f0" stroke-width="1"/>
<text x="78" y="609.0" text-anchor="end" font-family="monospace" font-size="11" fill="#475569">-216</text>
<line x1="90" y1="542.5" x2="1310" y2="542.5" stroke="#e2e8f0" stroke-width="1"/>
<text x="78" y="546.5" text-anchor="end" font-family="monospace" font-size="11" fill="#475569">0</text>
<line x1="90" y1="480.0" x2="1310" y2="480.0" stroke="#e2e8f0" stroke-width="1"/>
<text x="78" y="484.0" text-anchor="end" font-family="monospace" font-size="11" fill="#475569">216</text>
<rect x="72.34210526315789" y="480.0" width="35.31578947368422" height="62.5" fill="#ea580c" opacity="0.85"><title>2026-01-01 | BTC buy 216.00 usd | reason=both_weak_btc_defensive</title></rect>
<rect x="140.11988304093566" y="480.0" width="35.31578947368422" height="62.5" fill="#ea580c" opacity="0.85"><title>2026-01-08 | BTC buy 216.00 usd | reason=both_weak_btc_defensive</title></rect>
<rect x="207.89766081871343" y="480.0" width="35.31578947368422" height="62.5" fill="#ea580c" opacity="0.85"><title>2026-01-15 | BTC buy 216.00 usd | reason=both_weak_btc_defensive</title></rect>
<rect x="275.6754385964912" y="480.0" width="35.31578947368422" height="62.5" fill="#ea580c" opacity="0.85"><title>2026-01-22 | BTC buy 216.00 usd | reason=both_weak_btc_defensive</title></rect>
<rect x="343.453216374269" y="480.0" width="35.31578947368422" height="62.5" fill="#ea580c" opacity="0.85"><title>2026-01-29 | BTC buy 216.00 usd | reason=both_weak_btc_defensive</title></rect>
<rect x="411.23099415204683" y="480.0" width="35.31578947368422" height="62.5" fill="#ea580c" opacity="0.85"><title>2026-02-05 | BTC buy 216.00 usd | reason=both_weak_btc_defensive</title></rect>
<rect x="479.00877192982455" y="480.0" width="35.31578947368422" height="62.5" fill="#ea580c" opacity="0.85"><title>2026-02-12 | BTC buy 216.00 usd | reason=both_weak_btc_defensive</title></rect>
<rect x="546.7865497076024" y="480.0" width="35.31578947368422" height="62.5" fill="#ea580c" opacity="0.85"><title>2026-02-19 | BTC buy 216.00 usd | reason=both_weak_btc_defensive</title></rect>
<rect x="614.5643274853801" y="480.0" width="35.31578947368422" height="62.5" fill="#ea580c" opacity="0.85"><title>2026-02-26 | BTC buy 216.00 usd | reason=both_weak_btc_defensive</title></rect>
<rect x="682.3421052631579" y="480.0" width="35.31578947368422" height="62.5" fill="#ea580c" opacity="0.85"><title>2026-03-05 | BTC buy 216.00 usd | reason=both_weak_btc_defensive</title></rect>
<rect x="750.1198830409357" y="480.0" width="35.31578947368422" height="62.5" fill="#ea580c" opacity="0.85"><title>2026-03-12 | BTC buy 216.00 usd | reason=both_weak_btc_defensive</title></rect>
<rect x="817.8976608187136" y="480.0" width="35.31578947368422" height="62.5" fill="#ea580c" opacity="0.85"><title>2026-03-19 | BTC buy 216.00 usd | reason=both_weak_btc_defensive</title></rect>
<rect x="885.6754385964912" y="480.0" width="35.31578947368422" height="62.5" fill="#ea580c" opacity="0.85"><title>2026-03-26 | BTC buy 216.00 usd | reason=both_weak_btc_defensive</title></rect>
<rect x="953.453216374269" y="480.0" width="35.31578947368422" height="62.5" fill="#ea580c" opacity="0.85"><title>2026-04-02 | BTC buy 216.00 usd | reason=both_weak_btc_defensive</title></rect>
<rect x="1021.2309941520468" y="480.0" width="35.31578947368422" height="62.5" fill="#ea580c" opacity="0.85"><title>2026-04-09 | BTC buy 216.00 usd | reason=both_weak_btc_defensive</title></rect>
<rect x="1089.0087719298247" y="480.0" width="35.31578947368422" height="62.5" fill="#ea580c" opacity="0.85"><title>2026-04-16 | BTC buy 216.00 usd | reason=both_weak_btc_defensive</title></rect>
<rect x="1156.7865497076023" y="480.0" width="35.31578947368422" height="62.5" fill="#ea580c" opacity="0.85"><title>2026-04-23 | BTC buy 216.00 usd | reason=both_weak_btc_defensive</title></rect>
<rect x="1224.56432748538" y="480.0" width="35.31578947368422" height="62.5" fill="#ea580c" opacity="0.85"><title>2026-04-30 | BTC buy 216.00 usd | reason=both_weak_btc_defensive</title></rect>
<rect x="1292.342105263158" y="489.6927212547012" width="35.31578947368422" height="52.80727874529879" fill="#ea580c" opacity="0.85"><title>2026-05-07 | BTC buy 182.50 usd | reason=both_weak_btc_defensive</title></rect>
<text x="24" y="542.5" transform="rotate(-90 24,542.5)" text-anchor="middle" font-family="monospace" font-size="14" fill="#0f172a">BTC weekly trade usd</text>
<line x1="90" y1="770" x2="1310" y2="770" stroke="#334155" stroke-width="2"/>
<line x1="90" y1="645" x2="90" y2="770" stroke="#334155" stroke-width="2"/>
<line x1="90" y1="707.5" x2="1310" y2="707.5" stroke="#64748b" stroke-width="1.5" stroke-dasharray="6 4"/>
<line x1="90" y1="770.0" x2="1310" y2="770.0" stroke="#e2e8f0" stroke-width="1"/>
<text x="78" y="774.0" text-anchor="end" font-family="monospace" font-size="11" fill="#475569">-177</text>
<line x1="90" y1="707.5" x2="1310" y2="707.5" stroke="#e2e8f0" stroke-width="1"/>
<text x="78" y="711.5" text-anchor="end" font-family="monospace" font-size="11" fill="#475569">0</text>
<line x1="90" y1="645.0" x2="1310" y2="645.0" stroke="#e2e8f0" stroke-width="1"/>
<text x="78" y="649.0" text-anchor="end" font-family="monospace" font-size="11" fill="#475569">177</text>
<rect x="72.34210526315789" y="656.7952160829157" width="35.31578947368422" height="50.70478391708434" fill="#2563eb" opacity="0.85"><title>2026-01-01 | ETH buy 144.00 usd | reason=both_weak_btc_defensive</title></rect>
<rect x="140.11988304093566" y="656.7952160829157" width="35.31578947368422" height="50.70478391708434" fill="#2563eb" opacity="0.85"><title>2026-01-08 | ETH buy 144.00 usd | reason=both_weak_btc_defensive</title></rect>
<rect x="207.89766081871343" y="656.7952160829157" width="35.31578947368422" height="50.70478391708434" fill="#2563eb" opacity="0.85"><title>2026-01-15 | ETH buy 144.00 usd | reason=both_weak_btc_defensive</title></rect>
<rect x="275.6754385964912" y="656.7952160829157" width="35.31578947368422" height="50.70478391708434" fill="#2563eb" opacity="0.85"><title>2026-01-22 | ETH buy 144.00 usd | reason=both_weak_btc_defensive</title></rect>
<rect x="343.453216374269" y="656.7952160829157" width="35.31578947368422" height="50.70478391708434" fill="#2563eb" opacity="0.85"><title>2026-01-29 | ETH buy 144.00 usd | reason=both_weak_btc_defensive</title></rect>
<rect x="411.23099415204683" y="656.7952160829157" width="35.31578947368422" height="50.70478391708434" fill="#2563eb" opacity="0.85"><title>2026-02-05 | ETH buy 144.00 usd | reason=both_weak_btc_defensive</title></rect>
<rect x="479.00877192982455" y="656.7952160829157" width="35.31578947368422" height="50.70478391708434" fill="#2563eb" opacity="0.85"><title>2026-02-12 | ETH buy 144.00 usd | reason=both_weak_btc_defensive</title></rect>
<rect x="546.7865497076024" y="656.7952160829157" width="35.31578947368422" height="50.70478391708434" fill="#2563eb" opacity="0.85"><title>2026-02-19 | ETH buy 144.00 usd | reason=both_weak_btc_defensive</title></rect>
<rect x="614.5643274853801" y="656.7952160829157" width="35.31578947368422" height="50.70478391708434" fill="#2563eb" opacity="0.85"><title>2026-02-26 | ETH buy 144.00 usd | reason=both_weak_btc_defensive</title></rect>
<rect x="682.3421052631579" y="656.7952160829157" width="35.31578947368422" height="50.70478391708434" fill="#2563eb" opacity="0.85"><title>2026-03-05 | ETH buy 144.00 usd | reason=both_weak_btc_defensive</title></rect>
<rect x="750.1198830409357" y="656.7952160829157" width="35.31578947368422" height="50.70478391708434" fill="#2563eb" opacity="0.85"><title>2026-03-12 | ETH buy 144.00 usd | reason=both_weak_btc_defensive</title></rect>
<rect x="817.8976608187136" y="656.7952160829157" width="35.31578947368422" height="50.70478391708434" fill="#2563eb" opacity="0.85"><title>2026-03-19 | ETH buy 144.00 usd | reason=both_weak_btc_defensive</title></rect>
<rect x="885.6754385964912" y="656.7952160829157" width="35.31578947368422" height="50.70478391708434" fill="#2563eb" opacity="0.85"><title>2026-03-26 | ETH buy 144.00 usd | reason=both_weak_btc_defensive</title></rect>
<rect x="953.453216374269" y="656.7952160829157" width="35.31578947368422" height="50.70478391708434" fill="#2563eb" opacity="0.85"><title>2026-04-02 | ETH buy 144.00 usd | reason=both_weak_btc_defensive</title></rect>
<rect x="1021.2309941520468" y="656.7952160829157" width="35.31578947368422" height="50.70478391708434" fill="#2563eb" opacity="0.85"><title>2026-04-09 | ETH buy 144.00 usd | reason=both_weak_btc_defensive</title></rect>
<rect x="1089.0087719298247" y="656.7952160829157" width="35.31578947368422" height="50.70478391708434" fill="#2563eb" opacity="0.85"><title>2026-04-16 | ETH buy 144.00 usd | reason=both_weak_btc_defensive</title></rect>
<rect x="1156.7865497076023" y="656.7952160829157" width="35.31578947368422" height="50.70478391708434" fill="#2563eb" opacity="0.85"><title>2026-04-23 | ETH buy 144.00 usd | reason=both_weak_btc_defensive</title></rect>
<rect x="1224.56432748538" y="656.7952160829157" width="35.31578947368422" height="50.70478391708434" fill="#2563eb" opacity="0.85"><title>2026-04-30 | ETH buy 144.00 usd | reason=both_weak_btc_defensive</title></rect>
<rect x="1292.342105263158" y="645.0" width="35.31578947368422" height="62.5" fill="#2563eb" opacity="0.85"><title>2026-05-07 | ETH buy 177.50 usd | reason=both_weak_btc_defensive</title></rect>
<text x="24" y="707.5" transform="rotate(-90 24,707.5)" text-anchor="middle" font-family="monospace" font-size="14" fill="#0f172a">ETH weekly trade usd</text>
<rect x="1040" y="478" width="14" height="10" fill="#ea580c" opacity="0.85"/>
<text x="1062" y="488" font-family="monospace" font-size="11" fill="#0f172a">BTC buy</text>
<rect x="1190" y="478" width="14" height="10" fill="#dc2626" opacity="0.85"/>
<text x="1212" y="488" font-family="monospace" font-size="11" fill="#0f172a">BTC sell</text>
<rect x="1040" y="498" width="14" height="10" fill="#2563eb" opacity="0.85"/>
<text x="1062" y="508" font-family="monospace" font-size="11" fill="#0f172a">ETH buy</text>
<rect x="1190" y="498" width="14" height="10" fill="#7c3aed" opacity="0.85"/>
<text x="1212" y="508" font-family="monospace" font-size="11" fill="#0f172a">ETH sell</text>
</svg>