<svg xmlns="http://www.w3.org/2000/svg" width="1400" height="800">
<rect width="1400" height="800" fill="#f8fafc"/>
<text x="700.0" y="42" text-anchor="middle" font-family="monospace" font-size="24" fill="#0f172a">budgeted_btc_defensive_eth_aggressive | weekly | start=2024-10-01 | return=1.67%</text>
<line x1="90" y1="420" x2="1310" y2="420" stroke="#334155" stroke-width="2"/>
<line x1="90" y1="90" x2="90" y2="420" stroke="#334155" stroke-width="2"/>
<line x1="90.0" y1="420" x2="90.0" y2="90" stroke="#94a3b8" stroke-width="1.2"/>
<line x1="90.0" y1="605" x2="90.0" y2="480" stroke="#94a3b8" stroke-width="1.2"/>
<line x1="90.0" y1="770" x2="90.0" y2="645" stroke="#94a3b8" stroke-width="1.2"/>
<text x="90.0" y="788" text-anchor="middle" font-family="monospace" font-size="11" fill="#334155">2024-10</text>
<line x1="163.49397590361446" y1="420" x2="163.49397590361446" y2="90" stroke="#94a3b8" stroke-width="1.2"/>
<line x1="163.49397590361446" y1="605" x2="163.49397590361446" y2="480" stroke="#94a3b8" stroke-width="1.2"/>
<line x1="163.49397590361446" y1="770" x2="163.49397590361446" y2="645" stroke="#94a3b8" stroke-width="1.2"/>
<text x="163.49397590361446" y="788" text-anchor="middle" font-family="monospace" font-size="11" fill="#334155">2024-11</text>
<line x1="222.289156626506" y1="420" x2="222.289156626506" y2="90" stroke="#94a3b8" stroke-width="1.2"/>
<line x1="222.289156626506" y1="605" x2="222.289156626506" y2="480" stroke="#94a3b8" stroke-width="1.2"/>
<line x1="222.289156626506" y1="770" x2="222.289156626506" y2="645" stroke="#94a3b8" stroke-width="1.2"/>
<text x="222.289156626506" y="788" text-anchor="middle" font-family="monospace" font-size="11" fill="#334155">2024-12</text>
<line x1="295.7831325301205" y1="420" x2="295.7831325301205" y2="90" stroke="#94a3b8" stroke-width="1.2"/>
<line x1="295.7831325301205" y1="605" x2="295.7831325301205" y2="480" stroke="#94a3b8" stroke-width="1.2"/>
<line x1="295.7831325301205" y1="770" x2="295.7831325301205" y2="645" stroke="#94a3b8" stroke-width="1.2"/>
<text x="295.7831325301205" y="788" text-anchor="middle" font-family="monospace" font-size="11" fill="#334155">2025-01</text>
<line x1="354.578313253012" y1="420" x2="354.578313253012" y2="90" stroke="#94a3b8" stroke-width="1.2"/>
<line x1="354.578313253012" y1="605" x2="354.578313253012" y2="480" stroke="#94a3b8" stroke-width="1.2"/>
<line x1="354.578313253012" y1="770" x2="354.578313253012" y2="645" stroke="#94a3b8" stroke-width="1.2"/>
<text x="354.578313253012" y="788" text-anchor="middle" font-family="monospace" font-size="11" fill="#334155">2025-02</text>
<line x1="413.3734939759036" y1="420" x2="413.3734939759036" y2="90" stroke="#94a3b8" stroke-width="1.2"/>
<line x1="413.3734939759036" y1="605" x2="413.3734939759036" y2="480" stroke="#94a3b8" stroke-width="1.2"/>
<line x1="413.3734939759036" y1="770" x2="413.3734939759036" y2="645" stroke="#94a3b8" stroke-width="1.2"/>
<text x="413.3734939759036" y="788" text-anchor="middle" font-family="monospace" font-size="11" fill="#334155">2025-03</text>
<line x1="472.1686746987952" y1="420" x2="472.1686746987952" y2="90" stroke="#94a3b8" stroke-width="1.2"/>
<line x1="472.1686746987952" y1="605" x2="472.1686746987952" y2="480" stroke="#94a3b8" stroke-width="1.2"/>
<line x1="472.1686746987952" y1="770" x2="472.1686746987952" y2="645" stroke="#94a3b8" stroke-width="1.2"/>
<text x="472.1686746987952" y="788" text-anchor="middle" font-family="monospace" font-size="11" fill="#334155">2025-04</text>
<line x1="545.6626506024096" y1="420" x2="545.6626506024096" y2="90" stroke="#94a3b8" stroke-width="1.2"/>
<line x1="545.6626506024096" y1="605" x2="545.6626506024096" y2="480" stroke="#94a3b8" stroke-width="1.2"/>
<line x1="545.6626506024096" y1="770" x2="545.6626506024096" y2="645" stroke="#94a3b8" stroke-width="1.2"/>
<text x="545.6626506024096" y="788" text-anchor="middle" font-family="monospace" font-size="11" fill="#334155">2025-05</text>
<line x1="604.4578313253012" y1="420" x2="604.4578313253012" y2="90" stroke="#94a3b8" stroke-width="1.2"/>
<line x1="604.4578313253012" y1="605" x2="604.4578313253012" y2="480" stroke="#94a3b8" stroke-width="1.2"/>
<line x1="604.4578313253012" y1="770" x2="604.4578313253012" y2="645" stroke="#94a3b8" stroke-width="1.2"/>
<text x="604.4578313253012" y="788" text-anchor="middle" font-family="monospace" font-size="11" fill="#334155">2025-06</text>
<line x1="663.2530120481928" y1="420" x2="663.2530120481928" y2="90" stroke="#94a3b8" stroke-width="1.2"/>
<line x1="663.2530120481928" y1="605" x2="663.2530120481928" y2="480" stroke="#94a3b8" stroke-width="1.2"/>
<line x1="663.2530120481928" y1="770" x2="663.2530120481928" y2="645" stroke="#94a3b8" stroke-width="1.2"/>
<text x="663.2530120481928" y="788" text-anchor="middle" font-family="monospace" font-size="11" fill="#334155">2025-07</text>
<line x1="736.7469879518072" y1="420" x2="736.7469879518072" y2="90" stroke="#94a3b8" stroke-width="1.2"/>
<line x1="736.7469879518072" y1="605" x2="736.7469879518072" y2="480" stroke="#94a3b8" stroke-width="1.2"/>
<line x1="736.7469879518072" y1="770" x2="736.7469879518072" y2="645" stroke="#94a3b8" stroke-width="1.2"/>
<text x="736.7469879518072" y="788" text-anchor="middle" font-family="monospace" font-size="11" fill="#334155">2025-08</text>
<line x1="795.5421686746988" y1="420" x2="795.5421686746988" y2="90" stroke="#94a3b8" stroke-width="1.2"/>
<line x1="795.5421686746988" y1="605" x2="795.5421686746988" y2="480" stroke="#94a3b8" stroke-width="1.2"/>
<line x1="795.5421686746988" y1="770" x2="795.5421686746988" y2="645" stroke="#94a3b8" stroke-width="1.2"/>
<text x="795.5421686746988" y="788" text-anchor="middle" font-family="monospace" font-size="11" fill="#334155">2025-09</text>
<line x1="869.0361445783132" y1="420" x2="869.0361445783132" y2="90" stroke="#94a3b8" stroke-width="1.2"/>
<line x1="869.0361445783132" y1="605" x2="869.0361445783132" y2="480" stroke="#94a3b8" stroke-width="1.2"/>
<line x1="869.0361445783132" y1="770" x2="869.0361445783132" y2="645" stroke="#94a3b8" stroke-width="1.2"/>
<text x="869.0361445783132" y="788" text-anchor="middle" font-family="monospace" font-size="11" fill="#334155">2025-10</text>
<line x1="927.8313253012049" y1="420" x2="927.8313253012049" y2="90" stroke="#94a3b8" stroke-width="1.2"/>
<line x1="927.8313253012049" y1="605" x2="927.8313253012049" y2="480" stroke="#94a3b8" stroke-width="1.2"/>
<line x1="927.8313253012049" y1="770" x2="927.8313253012049" y2="645" stroke="#94a3b8" stroke-width="1.2"/>
<text x="927.8313253012049" y="788" text-anchor="middle" font-family="monospace" font-size="11" fill="#334155">2025-11</text>
<line x1="986.6265060240964" y1="420" x2="986.6265060240964" y2="90" stroke="#94a3b8" stroke-width="1.2"/>
<line x1="986.6265060240964" y1="605" x2="986.6265060240964" y2="480" stroke="#94a3b8" stroke-width="1.2"/>
<line x1="986.6265060240964" y1="770" x2="986.6265060240964" y2="645" stroke="#94a3b8" stroke-width="1.2"/>
<text x="986.6265060240964" y="788" text-anchor="middle" font-family="monospace" font-size="11" fill="#334155">2025-12</text>
<line x1="1060.120481927711" y1="420" x2="1060.120481927711" y2="90" stroke="#94a3b8" stroke-width="1.2"/>
<line x1="1060.120481927711" y1="605" x2="1060.120481927711" y2="480" stroke="#94a3b8" stroke-width="1.2"/>
<line x1="1060.120481927711" y1="770" x2="1060.120481927711" y2="645" stroke="#94a3b8" stroke-width="1.2"/>
<text x="1060.120481927711" y="788" text-anchor="middle" font-family="monospace" font-size="11" fill="#334155">2026-01</text>
<line x1="1118.9156626506024" y1="420" x2="1118.9156626506024" y2="90" stroke="#94a3b8" stroke-width="1.2"/>
<line x1="1118.9156626506024" y1="605" x2="1118.9156626506024" y2="480" stroke="#94a3b8" stroke-width="1.2"/>
<line x1="1118.9156626506024" y1="770" x2="1118.9156626506024" y2="645" stroke="#94a3b8" stroke-width="1.2"/>
<text x="1118.9156626506024" y="788" text-anchor="middle" font-family="monospace" font-size="11" fill="#334155">2026-02</text>
<line x1="1177.7108433734938" y1="420" x2="1177.7108433734938" y2="90" stroke="#94a3b8" stroke-width="1.2"/>
<line x1="1177.7108433734938" y1="605" x2="1177.7108433734938" y2="480" stroke="#94a3b8" stroke-width="1.2"/>
<line x1="1177.7108433734938" y1="770" x2="1177.7108433734938" y2="645" stroke="#94a3b8" stroke-width="1.2"/>
<text x="1177.7108433734938" y="788" text-anchor="middle" font-family="monospace" font-size="11" fill="#334155">2026-03</text>
<line x1="1251.2048192771083" y1="420" x2="1251.2048192771083" y2="90" stroke="#94a3b8" stroke-width="1.2"/>
<line x1="1251.2048192771083" y1="605" x2="1251.2048192771083" y2="480" stroke="#94a3b8" stroke-width="1.2"/>
<line x1="1251.2048192771083" y1="770" x2="1251.2048192771083" y2="645" stroke="#94a3b8" stroke-width="1.2"/>
<text x="1251.2048192771083" y="788" text-anchor="middle" font-family="monospace" font-size="11" fill="#334155">2026-04</text>
<line x1="1310.0" y1="420" x2="1310.0" y2="90" stroke="#94a3b8" stroke-width="1.2"/>
<line x1="1310.0" y1="605" x2="1310.0" y2="480" stroke="#94a3b8" stroke-width="1.2"/>
<line x1="1310.0" y1="770" x2="1310.0" y2="645" stroke="#94a3b8" stroke-width="1.2"/>
<text x="1310.0" y="788" text-anchor="middle" font-family="monospace" font-size="11" fill="#334155">2026-05</text>
<line x1="90" y1="420.0" x2="1310" y2="420.0" stroke="#cbd5e1" stroke-width="1"/>
<text x="78" y="424.0" text-anchor="end" font-family="monospace" font-size="12" fill="#475569">0</text>
<line x1="90" y1="354.0" x2="1310" y2="354.0" stroke="#cbd5e1" stroke-width="1"/>
<text x="78" y="358.0" text-anchor="end" font-family="monospace" font-size="12" fill="#475569">3228</text>
<line x1="90" y1="288.0" x2="1310" y2="288.0" stroke="#cbd5e1" stroke-width="1"/>
<text x="78" y="292.0" text-anchor="end" font-family="monospace" font-size="12" fill="#475569">6457</text>
<line x1="90" y1="222.0" x2="1310" y2="222.0" stroke="#cbd5e1" stroke-width="1"/>
<text x="78" y="226.0" text-anchor="end" font-family="monospace" font-size="12" fill="#475569">9685</text>
<line x1="90" y1="156.0" x2="1310" y2="156.0" stroke="#cbd5e1" stroke-width="1"/>
<text x="78" y="160.0" text-anchor="end" font-family="monospace" font-size="12" fill="#475569">12914</text>
<line x1="90" y1="90.0" x2="1310" y2="90.0" stroke="#cbd5e1" stroke-width="1"/>
<text x="78" y="94.0" text-anchor="end" font-family="monospace" font-size="12" fill="#475569">16142</text>
<polygon points="90.0,224.76476491863667 104.6987951807229,233.96433096959095 119.3975903614458,238.5641139950681 134.09638554216866,243.16389702054528 148.7951807228916,247.7636800460224 163.49397590361446,252.36346307149955 178.19277108433735,256.9632460969767 192.89156626506025,261.5630291224538 207.59036144578315,266.162812147931 222.289156626506,270.76259517340816 236.9879518072289,275.36237819888527 251.6867469879518,279.96216122436243 266.3855421686747,284.5619442498396 281.08433734939763,289.1617272753167 295.7831325301205,293.7615103007939 310.48192771084337,298.36129332627104 325.1807228915663,302.96107635174815 339.87951807228916,307.5608593772253 354.578313253012,312.1606424027025 369.27710843373495,316.7604254281796 383.9759036144578,321.36020845365675 398.6746987951807,325.9599914791339 413.3734939759036,330.559774504611 428.07228915662654,339.75934055556536 442.7710843373494,348.95890660651963 457.46987951807233,353.5586896319968 472.1686746987952,361.0573836680743 486.86746987951807,367.51772729314655 501.56626506024094,371.0068476651168 516.2650602409639,375.606630690594 530.9638554216867,380.2064137160711 545.6626506024096,383.97719691197466 560.3614457831326,388.5769799374518 575.0602409638554,390.15708641927574 589.7590361445783,391.63518096165666 604.4578313253012,392.81944061811726 619.156626506024,395.9062210947622 633.8554216867469,396.131844419539 648.5542168674699,396.131844419539 663.2530120481928,396.131844419539 677.9518072289156,399.40154962104344 692.6506024096385,399.40154962104344 707.3493975903614,397.4631071743203 722.0481927710844,395.688090051953 736.7469879518072,394.1878397010692 751.4457831325301,394.15771879833324 766.1445783132531,392.6788996814705 780.843373493976,393.87339038561714 795.5421686746988,392.74014363321913 810.2409638554217,391.35525232324943 824.9397590361447,389.77043290008305 839.6385542168674,388.52007747827264 854.3373493975904,387.348827485195 869.0361445783132,386.04407244541926 883.7349397590361,385.0918335571826 898.4337349397591,385.0918335571826 913.1325301204819,385.0918335571826 927.8313253012049,385.61447378971855 942.5301204819277,386.32988647285197 957.2289156626506,387.5553983040079 971.9277108433735,388.7457210279678 986.6265060240964,388.7457210279678 1001.3253012048192,390.2489975213377 1016.0240963855422,390.26309357107 1030.7228915662652,390.3902576432819 1045.421686746988,390.3902576432819 1060.120481927711,390.8181328490527 1074.8192771084337,390.8181328490527 1089.5180722891566,390.8181328490527 1104.2168674698796,390.8181328490527 1118.9156626506024,390.8181328490527 1133.6144578313254,390.8181328490527 1148.313253012048,390.8181328490527 1163.012048192771,390.8181328490527 1177.7108433734938,390.8181328490527 1192.4096385542168,390.8181328490527 1207.1084337349398,390.8181328490527 1221.8072289156626,390.8181328490527 1236.5060240963855,390.8181328490527 1251.2048192771083,390.8181328490527 1265.9036144578313,390.8181328490527 1280.6024096385543,390.8181328490527 1295.301204819277,390.8181328490527 1310.0,390.8181328490527 1310.0,420.0 1295.301204819277,420.0 1280.6024096385543,420.0 1265.9036144578313,420.0 1251.2048192771083,420.0 1236.5060240963855,420.0 1221.8072289156626,420.0 1207.1084337349398,420.0 1192.4096385542168,420.0 1177.7108433734938,420.0 1163.012048192771,420.0 1148.313253012048,420.0 1133.6144578313254,420.0 1118.9156626506024,420.0 1104.2168674698796,420.0 1089.5180722891566,420.0 1074.8192771084337,420.0 1060.120481927711,420.0 1045.421686746988,420.0 1030.7228915662652,420.0 1016.0240963855422,420.0 1001.3253012048192,420.0 986.6265060240964,420.0 971.9277108433735,420.0 957.2289156626506,420.0 942.5301204819277,420.0 927.8313253012049,420.0 913.1325301204819,420.0 898.4337349397591,420.0 883.7349397590361,420.0 869.0361445783132,420.0 854.3373493975904,420.0 839.6385542168674,420.0 824.9397590361447,420.0 810.2409638554217,420.0 795.5421686746988,420.0 780.843373493976,420.0 766.1445783132531,420.0 751.4457831325301,420.0 736.7469879518072,420.0 722.0481927710844,420.0 707.3493975903614,420.0 692.6506024096385,420.0 677.9518072289156,420.0 663.2530120481928,420.0 648.5542168674699,420.0 633.8554216867469,420.0 619.156626506024,420.0 604.4578313253012,420.0 589.7590361445783,420.0 575.0602409638554,420.0 560.3614457831326,420.0 545.6626506024096,420.0 530.9638554216867,420.0 516.2650602409639,420.0 501.56626506024094,420.0 486.86746987951807,420.0 472.1686746987952,420.0 457.46987951807233,420.0 442.7710843373494,420.0 428.07228915662654,420.0 413.3734939759036,420.0 398.6746987951807,420.0 383.9759036144578,420.0 369.27710843373495,420.0 354.578313253012,420.0 339.87951807228916,420.0 325.1807228915663,420.0 310.48192771084337,420.0 295.7831325301205,420.0 281.08433734939763,420.0 266.3855421686747,420.0 251.6867469879518,420.0 236.9879518072289,420.0 222.289156626506,420.0 207.59036144578315,420.0 192.89156626506025,420.0 178.19277108433735,420.0 163.49397590361446,420.0 148.7951807228916,420.0 134.09638554216866,420.0 119.3975903614458,420.0 104.6987951807229,420.0 90.0,420.0" fill="#facc15" fill-opacity="0.70" stroke="#facc15" stroke-width="1.2"/>
<polygon points="90.0,221.08493849825496 104.6987951807229,226.61681115949594 119.3975903614458,228.87323846397774 134.09638554216866,231.5802786328252 148.7951807228916,234.26496745698836 163.49397590361446,238.12818182231413 178.19277108433735,236.03977897587387 192.89156626506025,239.67281037589927 207.59036144578315,240.94151148349937 222.289156626506,241.47100202187497 236.9879518072289,244.1276352037445 251.6867469879518,244.6229831405508 266.3855421686747,251.0352717450897 281.08433734939763,255.33946222603117 295.7831325301205,257.59184369649995 310.48192771084337,262.02436357541484 325.1807228915663,263.6165718050819 339.87951807228916,269.35024422663406 354.578313253012,276.38313521369594 369.27710843373495,280.8459288321272 383.9759036144578,282.6594998397036 398.6746987951807,288.00203501701804 413.3734939759036,295.65748017013425 428.07228915662654,305.16179068671676 442.7710843373494,309.38918613137866 457.46987951807233,309.37215797074475 472.1686746987952,313.72565726334676 486.86746987951807,325.0360436961447 501.56626506024094,321.667963152257 516.2650602409639,319.1990243031605 530.9638554216867,319.6984702305728 545.6626506024096,319.759451133305 560.3614457831326,293.8658242478536 575.0602409638554,300.91786538175916 589.7590361445783,297.55451880815053 604.4578313253012,301.1070167972081 619.156626506024,293.2799201919215 633.8554216867469,304.6481399363996 648.5542168674699,306.86463483571424 663.2530120481928,308.48792676016717 677.9518072289156,300.7923205997979 692.6506024096385,281.13883931844356 707.3493975903614,257.1574563945551 722.0481927710844,254.59389450123373 736.7469879518072,260.6068730261628 751.4457831325301,226.75330073746952 766.1445783132531,245.61191839642393 780.843373493976,230.213879485613 795.5421686746988,240.62258191125807 810.2409638554217,241.40199909287762 824.9397590361447,234.51937690455438 839.6385542168674,245.53139108052838 854.3373493975904,245.60489154497373 869.0361445783132,234.56579693749072 883.7349397590361,245.09906872039812 898.4337349397591,253.64236638280985 913.1325301204819,250.05704473654 927.8313253012049,274.1258302697678 942.5301204819277,270.4196402829698 957.2289156626506,281.6465981902078 971.9277108433735,288.38623073324754 986.6265060240964,287.0790539445385 1001.3253012048192,277.6635197013879 1016.0240963855422,289.7750229485738 1030.7228915662652,289.87199269579344 1045.421686746988,289.61517130232016 1060.120481927711,279.0112614994084 1074.8192771084337,278.0684521830776 1089.5180722891566,291.19382347858175 1104.2168674698796,288.2961860655622 1118.9156626506024,315.14640474939387 1133.6144578313254,322.22917916358534 1148.313253012048,323.2768204621926 1163.012048192771,327.9888314713752 1177.7108433734938,323.5468730767299 1192.4096385542168,321.71723268703147 1207.1084337349398,312.17616525156154 1221.8072289156626,317.6881562419993 1236.5060240963855,319.45062274014197 1251.2048192771083,314.83428363711454 1265.9036144578313,311.9878747979582 1280.6024096385543,311.8379209592327 1295.301204819277,313.15120446535593 1310.0,310.73531920389803 1310.0,390.8181328490527 1295.301204819277,390.8181328490527 1280.6024096385543,390.8181328490527 1265.9036144578313,390.8181328490527 1251.2048192771083,390.8181328490527 1236.5060240963855,390.8181328490527 1221.8072289156626,390.8181328490527 1207.1084337349398,390.8181328490527 1192.4096385542168,390.8181328490527 1177.7108433734938,390.8181328490527 1163.012048192771,390.8181328490527 1148.313253012048,390.8181328490527 1133.6144578313254,390.8181328490527 1118.9156626506024,390.8181328490527 1104.2168674698796,390.8181328490527 1089.5180722891566,390.8181328490527 1074.8192771084337,390.8181328490527 1060.120481927711,390.8181328490527 1045.421686746988,390.3902576432819 1030.7228915662652,390.3902576432819 1016.0240963855422,390.26309357107 1001.3253012048192,390.2489975213377 986.6265060240964,388.7457210279678 971.9277108433735,388.7457210279678 957.2289156626506,387.5553983040079 942.5301204819277,386.32988647285197 927.8313253012049,385.61447378971855 913.1325301204819,385.0918335571826 898.4337349397591,385.0918335571826 883.7349397590361,385.0918335571826 869.0361445783132,386.04407244541926 854.3373493975904,387.348827485195 839.6385542168674,388.52007747827264 824.9397590361447,389.77043290008305 810.2409638554217,391.35525232324943 795.5421686746988,392.74014363321913 780.843373493976,393.87339038561714 766.1445783132531,392.6788996814705 751.4457831325301,394.15771879833324 736.7469879518072,394.1878397010692 722.0481927710844,395.688090051953 707.3493975903614,397.4631071743203 692.6506024096385,399.40154962104344 677.9518072289156,399.40154962104344 663.2530120481928,396.131844419539 648.5542168674699,396.131844419539 633.8554216867469,396.131844419539 619.156626506024,395.9062210947622 604.4578313253012,392.81944061811726 589.7590361445783,391.63518096165666 575.0602409638554,390.15708641927574 560.3614457831326,388.5769799374518 545.6626506024096,383.97719691197466 530.9638554216867,380.2064137160711 516.2650602409639,375.606630690594 501.56626506024094,371.0068476651168 486.86746987951807,367.51772729314655 472.1686746987952,361.0573836680743 457.46987951807233,353.5586896319968 442.7710843373494,348.95890660651963 428.07228915662654,339.75934055556536 413.3734939759036,330.559774504611 398.6746987951807,325.9599914791339 383.9759036144578,321.36020845365675 369.27710843373495,316.7604254281796 354.578313253012,312.1606424027025 339.87951807228916,307.5608593772253 325.1807228915663,302.96107635174815 310.48192771084337,298.36129332627104 295.7831325301205,293.7615103007939 281.08433734939763,289.1617272753167 266.3855421686747,284.5619442498396 251.6867469879518,279.96216122436243 236.9879518072289,275.36237819888527 222.289156626506,270.76259517340816 207.59036144578315,266.162812147931 192.89156626506025,261.5630291224538 178.19277108433735,256.9632460969767 163.49397590361446,252.36346307149955 148.7951807228916,247.7636800460224 134.09638554216866,243.16389702054528 119.3975903614458,238.5641139950681 104.6987951807229,233.96433096959095 90.0,224.76476491863667" fill="#2563eb" fill-opacity="0.70" stroke="#2563eb" stroke-width="1.2"/>
<polygon points="90.0,215.56519886768237 104.6987951807229,215.45638431515098 119.3975903614458,214.06642814787543 134.09638554216866,213.9421706777615 148.7951807228916,212.4680181923777 163.49397590361446,214.57351285445165 178.19277108433735,203.39199343682063 192.89156626506025,202.63325211209272 207.59036144578315,201.34498057266958 222.289156626506,197.39385572194067 236.9879518072289,196.95231811822077 251.6867469879518,190.0629189366309 266.3855421686747,197.59259461303802 281.08433734939763,201.97736859053953 295.7831325301205,199.41908505872698 310.48192771084337,201.33597890838874 325.1807228915663,194.11783343018948 339.87951807228916,200.27936951179538 354.578313253012,206.93563931210906 369.27710843373495,210.073720679898 383.9759036144578,209.25058997419245 398.6746987951807,217.2261352165018 413.3734939759036,223.18736300517577 428.07228915662654,230.77297358751133 442.7710843373494,230.81955507618932 457.46987951807233,223.54966091005156 472.1686746987952,229.22169888876206 486.86746987951807,248.83297092301976 501.56626506024094,238.09144976394916 516.2650602409639,223.00960083114032 530.9638554216867,220.88199752087948 545.6626506024096,217.5558113722 560.3614457831326,179.36657240018386 575.0602409638554,181.81229613162262 589.7590361445783,174.63604208514676 604.4578313253012,180.98654343244692 619.156626506024,167.63183148751048 633.8554216867469,185.27872433380568 648.5542168674699,185.72555996926448 663.2530120481928,187.83872210140504 677.9518072289156,176.43814865058295 692.6506024096385,146.71426346318276 707.3493975903614,121.14012691336376 722.0481927710844,121.83595429818837 736.7469879518072,132.8997377727041 751.4457831325301,90.00000000000006 766.1445783132531,117.00885417917374 780.843373493976,99.25587365373815 795.5421686746988,109.67155281732937 810.2409638554217,109.90184005299966 824.9397590361447,96.9667302244672 839.6385542168674,114.27326751635132 854.3373493975904,112.52968376534614 869.0361445783132,93.59592991999176 883.7349397590361,114.27390894974036 898.4337349397591,128.26196444891906 913.1325301204819,119.41845903646822 927.8313253012049,156.19961930649401 942.5301204819277,149.98683510485444 957.2289156626506,171.7906653398939 971.9277108433735,183.94857239852274 986.6265060240964,177.87781905077816 1001.3253012048192,165.3062444389867 1016.0240963855422,183.2657582239495 1030.7228915662652,183.75043418929343 1045.421686746988,182.31843757411158 1060.120481927711,164.82377146920828 1074.8192771084337,161.85577372938974 1089.5180722891566,183.59939867846282 1104.2168674698796,179.71932155399497 1118.9156626506024,222.96319575670276 1133.6144578313254,238.40131313279514 1148.313253012048,241.07784571100547 1163.012048192771,249.93030719168277 1177.7108433734938,240.28878698970664 1192.4096385542168,236.47950060969418 1207.1084337349398,222.0975332576817 1221.8072289156626,231.7527160378229 1236.5060240963855,236.33160067993634 1251.2048192771083,227.22151001467836 1265.9036144578313,221.61082899569877 1280.6024096385543,218.81758648742678 1295.301204819277,220.16813973755177 1310.0,212.16029428855288 1310.0,310.73531920389803 1295.301204819277,313.15120446535593 1280.6024096385543,311.8379209592327 1265.9036144578313,311.9878747979582 1251.2048192771083,314.83428363711454 1236.5060240963855,319.45062274014197 1221.8072289156626,317.6881562419993 1207.1084337349398,312.17616525156154 1192.4096385542168,321.71723268703147 1177.7108433734938,323.5468730767299 1163.012048192771,327.9888314713752 1148.313253012048,323.2768204621926 1133.6144578313254,322.22917916358534 1118.9156626506024,315.14640474939387 1104.2168674698796,288.2961860655622 1089.5180722891566,291.19382347858175 1074.8192771084337,278.0684521830776 1060.120481927711,279.0112614994084 1045.421686746988,289.61517130232016 1030.7228915662652,289.87199269579344 1016.0240963855422,289.7750229485738 1001.3253012048192,277.6635197013879 986.6265060240964,287.0790539445385 971.9277108433735,288.38623073324754 957.2289156626506,281.6465981902078 942.5301204819277,270.4196402829698 927.8313253012049,274.1258302697678 913.1325301204819,250.05704473654 898.4337349397591,253.64236638280985 883.7349397590361,245.09906872039812 869.0361445783132,234.56579693749072 854.3373493975904,245.60489154497373 839.6385542168674,245.53139108052838 824.9397590361447,234.51937690455438 810.2409638554217,241.40199909287762 795.5421686746988,240.62258191125807 780.843373493976,230.213879485613 766.1445783132531,245.61191839642393 751.4457831325301,226.75330073746952 736.7469879518072,260.6068730261628 722.0481927710844,254.59389450123373 707.3493975903614,257.1574563945551 692.6506024096385,281.13883931844356 677.9518072289156,300.7923205997979 663.2530120481928,308.48792676016717 648.5542168674699,306.86463483571424 633.8554216867469,304.6481399363996 619.156626506024,293.2799201919215 604.4578313253012,301.1070167972081 589.7590361445783,297.55451880815053 575.0602409638554,300.91786538175916 560.3614457831326,293.8658242478536 545.6626506024096,319.759451133305 530.9638554216867,319.6984702305728 516.2650602409639,319.1990243031605 501.56626506024094,321.667963152257 486.86746987951807,325.0360436961447 472.1686746987952,313.72565726334676 457.46987951807233,309.37215797074475 442.7710843373494,309.38918613137866 428.07228915662654,305.16179068671676 413.3734939759036,295.65748017013425 398.6746987951807,288.00203501701804 383.9759036144578,282.6594998397036 369.27710843373495,280.8459288321272 354.578313253012,276.38313521369594 339.87951807228916,269.35024422663406 325.1807228915663,263.6165718050819 310.48192771084337,262.02436357541484 295.7831325301205,257.59184369649995 281.08433734939763,255.33946222603117 266.3855421686747,251.0352717450897 251.6867469879518,244.6229831405508 236.9879518072289,244.1276352037445 222.289156626506,241.47100202187497 207.59036144578315,240.94151148349937 192.89156626506025,239.67281037589927 178.19277108433735,236.03977897587387 163.49397590361446,238.12818182231413 148.7951807228916,234.26496745698836 134.09638554216866,231.5802786328252 119.3975903614458,228.87323846397774 104.6987951807229,226.61681115949594 90.0,221.08493849825496" fill="#f97316" fill-opacity="0.70" stroke="#f97316" stroke-width="1.2"/>
<rect x="1100" y="76" width="16" height="12" fill="#f97316" fill-opacity="0.70" stroke="#f97316"/>
<text x="1124" y="86" font-family="monospace" font-size="12" fill="#0f172a">BTC</text>
<rect x="1100" y="98" width="16" height="12" fill="#2563eb" fill-opacity="0.70" stroke="#2563eb"/>
<text x="1124" y="108" font-family="monospace" font-size="12" fill="#0f172a">ETH</text>
<rect x="1100" y="120" width="16" height="12" fill="#facc15" fill-opacity="0.70" stroke="#facc15"/>
<text x="1124" y="130" font-family="monospace" font-size="12" fill="#0f172a">DAI</text>
<text x="700.0" y="782" text-anchor="middle" font-family="monospace" font-size="16" fill="#0f172a">time</text>
<text x="24" y="255.0" transform="rotate(-90 24,255.0)" text-anchor="middle" font-family="monospace" font-size="16" fill="#0f172a">asset value split (usd)</text>
<line x1="90" y1="605" x2="1310" y2="605" stroke="#334155" stroke-width="2"/>
<line x1="90" y1="480" x2="90" y2="605" stroke="#334155" stroke-width="2"/>
<line x1="90" y1="542.5" x2="1310" y2="542.5" stroke="#64748b" stroke-width="1.5" stroke-dasharray="6 4"/>
<line x1="90" y1="605.0" x2="1310" y2="605.0" stroke="#e2e8f0" stroke-width="1"/>
<text x="78" y="609.0" text-anchor="end" font-family="monospace" font-size="11" fill="#475569">-270</text>
<line x1="90" y1="542.5" x2="1310" y2="542.5" stroke="#e2e8f0" stroke-width="1"/>
<text x="78" y="546.5" text-anchor="end" font-family="monospace" font-size="11" fill="#475569">0</text>
<line x1="90" y1="480.0" x2="1310" y2="480.0" stroke="#e2e8f0" stroke-width="1"/>
<text x="78" y="484.0" text-anchor="end" font-family="monospace" font-size="11" fill="#475569">270</text>
<rect x="86.00595238095238" y="480.0" width="7.988095238095239" height="62.5" fill="#ea580c" opacity="0.85"><title>2024-10-01 | BTC buy 270.00 usd | reason=both_weak_btc_defensive</title></rect>
<rect x="100.70474756167528" y="480.0" width="7.988095238095239" height="62.5" fill="#ea580c" opacity="0.85"><title>2024-10-08 | BTC buy 270.00 usd | reason=both_weak_btc_defensive</title></rect>
<rect x="115.40354274239817" y="511.25" width="7.988095238095239" height="31.25" fill="#ea580c" opacity="0.85"><title>2024-10-15 | BTC buy 135.00 usd | reason=btc_defensive_regime</title></rect>
<rect x="130.10233792312104" y="511.25" width="7.988095238095239" height="31.25" fill="#ea580c" opacity="0.85"><title>2024-10-22 | BTC buy 135.00 usd | reason=btc_defensive_regime</title></rect>
<rect x="144.80113310384397" y="511.25" width="7.988095238095239" height="31.25" fill="#ea580c" opacity="0.85"><title>2024-10-29 | BTC buy 135.00 usd | reason=btc_defensive_regime</title></rect>
<rect x="159.49992828456683" y="511.25" width="7.988095238095239" height="31.25" fill="#ea580c" opacity="0.85"><title>2024-11-05 | BTC buy 135.00 usd | reason=btc_defensive_regime</title></rect>
<rect x="174.19872346528973" y="511.25" width="7.988095238095239" height="31.25" fill="#ea580c" opacity="0.85"><title>2024-11-12 | BTC buy 135.00 usd | reason=btc_defensive_regime</title></rect>
<rect x="188.89751864601263" y="511.25" width="7.988095238095239" height="31.25" fill="#ea580c" opacity="0.85"><title>2024-11-19 | BTC buy 135.00 usd | reason=btc_defensive_regime</title></rect>
<rect x="203.59631382673552" y="511.25" width="7.988095238095239" height="31.25" fill="#ea580c" opacity="0.85"><title>2024-11-26 | BTC buy 135.00 usd | reason=btc_defensive_regime</title></rect>
<rect x="218.2951090074584" y="511.25" width="7.988095238095239" height="31.25" fill="#ea580c" opacity="0.85"><title>2024-12-03 | BTC buy 135.00 usd | reason=btc_defensive_regime</title></rect>
<rect x="232.9939041881813" y="511.25" width="7.988095238095239" height="31.25" fill="#ea580c" opacity="0.85"><title>2024-12-10 | BTC buy 135.00 usd | reason=btc_defensive_regime</title></rect>
<rect x="247.6926993689042" y="511.25" width="7.988095238095239" height="31.25" fill="#ea580c" opacity="0.85"><title>2024-12-17 | BTC buy 135.00 usd | reason=btc_defensive_regime</title></rect>
<rect x="262.3914945496271" y="511.25" width="7.988095238095239" height="31.25" fill="#ea580c" opacity="0.85"><title>2024-12-24 | BTC buy 135.00 usd | reason=btc_defensive_regime</title></rect>
<rect x="277.09028973035004" y="511.25" width="7.988095238095239" height="31.25" fill="#ea580c" opacity="0.85"><title>2024-12-31 | BTC buy 135.00 usd | reason=btc_defensive_regime</title></rect>
<rect x="291.7890849110729" y="511.25" width="7.988095238095239" height="31.25" fill="#ea580c" opacity="0.85"><title>2025-01-07 | BTC buy 135.00 usd | reason=btc_defensive_regime</title></rect>
<rect x="306.4878800917958" y="511.25" width="7.988095238095239" height="31.25" fill="#ea580c" opacity="0.85"><title>2025-01-14 | BTC buy 135.00 usd | reason=btc_defensive_regime</title></rect>
<rect x="321.1866752725187" y="511.25" width="7.988095238095239" height="31.25" fill="#ea580c" opacity="0.85"><title>2025-01-21 | BTC buy 135.00 usd | reason=btc_defensive_regime</title></rect>
<rect x="335.88547045324157" y="511.25" width="7.988095238095239" height="31.25" fill="#ea580c" opacity="0.85"><title>2025-01-28 | BTC buy 135.00 usd | reason=btc_defensive_regime</title></rect>
<rect x="350.58426563396443" y="511.25" width="7.988095238095239" height="31.25" fill="#ea580c" opacity="0.85"><title>2025-02-04 | BTC buy 135.00 usd | reason=btc_defensive_regime</title></rect>
<rect x="365.28306081468736" y="511.25" width="7.988095238095239" height="31.25" fill="#ea580c" opacity="0.85"><title>2025-02-11 | BTC buy 135.00 usd | reason=btc_defensive_regime</title></rect>
<rect x="379.9818559954102" y="511.25" width="7.988095238095239" height="31.25" fill="#ea580c" opacity="0.85"><title>2025-02-18 | BTC buy 135.00 usd | reason=btc_defensive_regime</title></rect>
<rect x="394.6806511761331" y="511.25" width="7.988095238095239" height="31.25" fill="#ea580c" opacity="0.85"><title>2025-02-25 | BTC buy 135.00 usd | reason=btc_defensive_regime</title></rect>
<rect x="409.379446356856" y="511.25" width="7.988095238095239" height="31.25" fill="#ea580c" opacity="0.85"><title>2025-03-04 | BTC buy 135.00 usd | reason=btc_defensive_regime</title></rect>
<rect x="424.07824153757895" y="480.0" width="7.988095238095239" height="62.5" fill="#ea580c" opacity="0.85"><title>2025-03-11 | BTC buy 270.00 usd | reason=both_weak_btc_defensive</title></rect>
<rect x="438.7770367183018" y="492.9689109776843" width="7.988095238095239" height="49.53108902231571" fill="#ea580c" opacity="0.85"><title>2025-03-18 | BTC buy 213.97 usd | reason=both_weak_btc_defensive</title></rect>
<rect x="453.47583189902474" y="511.25" width="7.988095238095239" height="31.25" fill="#ea580c" opacity="0.85"><title>2025-03-25 | BTC buy 135.00 usd | reason=btc_defensive_regime</title></rect>
<rect x="468.1746270797476" y="532.3374046635606" width="7.988095238095239" height="10.16259533643938" fill="#ea580c" opacity="0.85"><title>2025-04-01 | BTC buy 43.90 usd | reason=both_weak_btc_defensive</title></rect>
<rect x="482.8734222604705" y="536.2943154437728" width="7.988095238095239" height="6.205684556227197" fill="#ea580c" opacity="0.85"><title>2025-04-08 | BTC buy 26.81 usd | reason=both_weak_btc_defensive</title></rect>
<rect x="497.57221744119335" y="542.5" width="7.988095238095239" height="1.5" fill="#ea580c" opacity="0.85"><title>2025-04-15 | BTC buy 0.00 usd | reason=both_weak_btc_defensive</title></rect>
<rect x="512.2710126219163" y="511.25" width="7.988095238095239" height="31.25" fill="#ea580c" opacity="0.85"><title>2025-04-22 | BTC buy 135.00 usd | reason=btc_defensive_regime</title></rect>
<rect x="526.9698078026391" y="521.8641492653268" width="7.988095238095239" height="20.635850734673227" fill="#ea580c" opacity="0.85"><title>2025-04-29 | BTC buy 89.15 usd | reason=btc_defensive_regime</title></rect>
<rect x="541.668602983362" y="534.6275239045648" width="7.988095238095239" height="7.872476095435218" fill="#ea580c" opacity="0.85"><title>2025-05-06 | BTC buy 34.01 usd | reason=btc_defensive_regime</title></rect>
<rect x="556.367398164085" y="490.4166666666667" width="7.988095238095239" height="52.083333333333314" fill="#ea580c" opacity="0.85"><title>2025-05-13 | BTC buy 225.00 usd | reason=btc_defensive_regime</title></rect>
<rect x="571.0661933448079" y="524.6084576948149" width="7.988095238095239" height="17.891542305185112" fill="#ea580c" opacity="0.85"><title>2025-05-20 | BTC buy 77.29 usd | reason=btc_defensive_regime</title></rect>
<rect x="585.7649885255307" y="525.7635386663657" width="7.988095238095239" height="16.736461333634338" fill="#ea580c" opacity="0.85"><title>2025-05-27 | BTC buy 72.30 usd | reason=btc_defensive_regime</title></rect>
<rect x="600.4637837062536" y="529.0906304495184" width="7.988095238095239" height="13.409369550481642" fill="#ea580c" opacity="0.85"><title>2025-06-03 | BTC buy 57.93 usd | reason=btc_defensive_regime</title></rect>
<rect x="615.1625788869765" y="542.5" width="7.988095238095239" height="1.5" fill="#ea580c" opacity="0.85"><title>2025-06-10 | BTC buy 0.00 usd | reason=balanced_regime</title></rect>
<rect x="629.8613740676993" y="539.9452675773973" width="7.988095238095239" height="2.554732422602683" fill="#ea580c" opacity="0.85"><title>2025-06-17 | BTC buy 11.04 usd | reason=btc_defensive_regime</title></rect>
<rect x="644.5601692484223" y="542.5" width="7.988095238095239" height="1.5" fill="#ea580c" opacity="0.85"><title>2025-06-24 | BTC buy 0.00 usd | reason=btc_defensive_regime</title></rect>
<rect x="659.2589644291452" y="542.5" width="7.988095238095239" height="1.5" fill="#ea580c" opacity="0.85"><title>2025-07-01 | BTC buy 0.00 usd | reason=btc_defensive_regime</title></rect>
<rect x="673.957759609868" y="542.5" width="7.988095238095239" height="1.5" fill="#ea580c" opacity="0.85"><title>2025-07-08 | BTC buy 0.00 usd | reason=balanced_regime</title></rect>
<rect x="688.6565547905909" y="542.5" width="7.988095238095239" height="1.5" fill="#ea580c" opacity="0.85"><title>2025-07-15 | BTC buy 0.00 usd | reason=balanced_regime</title></rect>
<rect x="703.3553499713138" y="542.5" width="7.988095238095239" height="10.974489833646999" fill="#dc2626" opacity="0.85"><title>2025-07-22 | BTC sell 47.41 usd | reason=balanced_regime</title></rect>
<rect x="718.0541451520368" y="542.5" width="7.988095238095239" height="10.049257535038123" fill="#dc2626" opacity="0.85"><title>2025-07-29 | BTC sell 43.41 usd | reason=balanced_regime</title></rect>
<rect x="732.7529403327596" y="542.5" width="7.988095238095239" height="8.493665752899915" fill="#dc2626" opacity="0.85"><title>2025-08-05 | BTC sell 36.69 usd | reason=balanced_regime</title></rect>
<rect x="747.4517355134825" y="516.1045878326468" width="7.988095238095239" height="26.395412167353243" fill="#ea580c" opacity="0.85"><title>2025-08-12 | BTC buy 114.03 usd | reason=balanced_regime</title></rect>
<rect x="762.1505306942055" y="541.2305201584337" width="7.988095238095239" height="1.5" fill="#ea580c" opacity="0.85"><title>2025-08-19 | BTC buy 5.48 usd | reason=balanced_regime</title></rect>
<rect x="776.8493258749284" y="502.0523806080129" width="7.988095238095239" height="40.447619391987075" fill="#ea580c" opacity="0.85"><title>2025-08-26 | BTC buy 174.73 usd | reason=balanced_regime</title></rect>
<rect x="791.5481210556512" y="535.4151175181956" width="7.988095238095239" height="7.084882481804357" fill="#ea580c" opacity="0.85"><title>2025-09-02 | BTC buy 30.61 usd | reason=balanced_regime</title></rect>
<rect x="806.2469162363741" y="540.2991191832199" width="7.988095238095239" height="2.2008808167801135" fill="#ea580c" opacity="0.85"><title>2025-09-09 | BTC buy 9.51 usd | reason=balanced_regime</title></rect>
<rect x="820.9457114170971" y="542.5" width="7.988095238095239" height="1.9891263229930018" fill="#dc2626" opacity="0.85"><title>2025-09-16 | BTC sell 8.59 usd | reason=balanced_regime</title></rect>
<rect x="835.6445065978198" y="542.5" width="7.988095238095239" height="7.078885879898394" fill="#dc2626" opacity="0.85"><title>2025-09-23 | BTC sell 30.58 usd | reason=balanced_regime</title></rect>
<rect x="850.3433017785428" y="542.5" width="7.988095238095239" height="6.631030579947833" fill="#dc2626" opacity="0.85"><title>2025-09-30 | BTC sell 28.65 usd | reason=balanced_regime</title></rect>
<rect x="865.0420969592656" y="542.5" width="7.988095238095239" height="7.386869258679326" fill="#dc2626" opacity="0.85"><title>2025-10-07 | BTC sell 31.91 usd | reason=balanced_regime</title></rect>
<rect x="879.7408921399885" y="542.5" width="7.988095238095239" height="5.391099444723068" fill="#dc2626" opacity="0.85"><title>2025-10-14 | BTC sell 23.29 usd | reason=balanced_regime</title></rect>
<rect x="894.4396873207115" y="542.5" width="7.988095238095239" height="1.5" fill="#ea580c" opacity="0.85"><title>2025-10-21 | BTC buy 0.00 usd | reason=balanced_regime</title></rect>
<rect x="909.1384825014343" y="542.5" width="7.988095238095239" height="1.5" fill="#ea580c" opacity="0.85"><title>2025-10-28 | BTC buy 0.00 usd | reason=balanced_regime</title></rect>
<rect x="923.8372776821573" y="536.5821457677874" width="7.988095238095239" height="5.917854232212562" fill="#ea580c" opacity="0.85"><title>2025-11-04 | BTC buy 25.57 usd | reason=both_weak_btc_defensive</title></rect>
<rect x="938.5360728628801" y="534.399383723069" width="7.988095238095239" height="8.100616276930964" fill="#ea580c" opacity="0.85"><title>2025-11-11 | BTC buy 34.99 usd | reason=both_weak_btc_defensive</title></rect>
<rect x="953.234868043603" y="528.6235321639076" width="7.988095238095239" height="13.876467836092388" fill="#ea580c" opacity="0.85"><title>2025-11-18 | BTC buy 59.95 usd | reason=both_weak_btc_defensive</title></rect>
<rect x="967.9336632243259" y="529.021978349225" width="7.988095238095239" height="13.478021650774963" fill="#ea580c" opacity="0.85"><title>2025-11-25 | BTC buy 58.23 usd | reason=both_weak_btc_defensive</title></rect>
<rect x="982.6324584050489" y="542.5" width="7.988095238095239" height="1.5" fill="#ea580c" opacity="0.85"><title>2025-12-02 | BTC buy 0.00 usd | reason=both_weak_btc_defensive</title></rect>
<rect x="997.3312535857716" y="525.4784034893198" width="7.988095238095239" height="17.021596510680183" fill="#ea580c" opacity="0.85"><title>2025-12-09 | BTC buy 73.53 usd | reason=both_weak_btc_defensive</title></rect>
<rect x="1012.0300487664946" y="542.34039045911" width="7.988095238095239" height="1.5" fill="#ea580c" opacity="0.85"><title>2025-12-16 | BTC buy 0.69 usd | reason=both_weak_btc_defensive</title></rect>
<rect x="1026.7288439472175" y="541.060121483045" width="7.988095238095239" height="1.5" fill="#ea580c" opacity="0.85"><title>2025-12-23 | BTC buy 6.22 usd | reason=both_weak_btc_defensive</title></rect>
<rect x="1041.4276391279402" y="542.5" width="7.988095238095239" height="1.5" fill="#ea580c" opacity="0.85"><title>2025-12-30 | BTC buy 0.00 usd | reason=both_weak_btc_defensive</title></rect>
<rect x="1056.1264343086632" y="537.6551699626278" width="7.988095238095239" height="4.844830037372162" fill="#ea580c" opacity="0.85"><title>2026-01-06 | BTC buy 20.93 usd | reason=both_weak_btc_defensive</title></rect>
<rect x="1070.825229489386" y="542.5" width="7.988095238095239" height="1.5" fill="#ea580c" opacity="0.85"><title>2026-01-13 | BTC buy 0.00 usd | reason=both_weak_btc_defensive</title></rect>
<rect x="1085.524024670109" y="542.5" width="7.988095238095239" height="1.5" fill="#ea580c" opacity="0.85"><title>2026-01-20 | BTC buy 0.00 usd | reason=both_weak_btc_defensive</title></rect>
<rect x="1100.222819850832" y="542.5" width="7.988095238095239" height="1.5" fill="#ea580c" opacity="0.85"><title>2026-01-27 | BTC buy 0.00 usd | reason=both_weak_btc_defensive</title></rect>
<rect x="1114.9216150315547" y="542.5" width="7.988095238095239" height="1.5" fill="#ea580c" opacity="0.85"><title>2026-02-03 | BTC buy 0.00 usd | reason=both_weak_btc_defensive</title></rect>
<rect x="1129.6204102122776" y="542.5" width="7.988095238095239" height="1.5" fill="#ea580c" opacity="0.85"><title>2026-02-10 | BTC buy 0.00 usd | reason=both_weak_btc_defensive</title></rect>
<rect x="1144.3192053930004" y="542.5" width="7.988095238095239" height="1.5" fill="#ea580c" opacity="0.85"><title>2026-02-17 | BTC buy 0.00 usd | reason=both_weak_btc_defensive</title></rect>
<rect x="1159.0180005737234" y="542.5" width="7.988095238095239" height="1.5" fill="#ea580c" opacity="0.85"><title>2026-02-24 | BTC buy 0.00 usd | reason=both_weak_btc_defensive</title></rect>
<rect x="1173.7167957544461" y="542.5" width="7.988095238095239" height="1.5" fill="#ea580c" opacity="0.85"><title>2026-03-03 | BTC buy 0.00 usd | reason=both_weak_btc_defensive</title></rect>
<rect x="1188.4155909351691" y="542.5" width="7.988095238095239" height="1.5" fill="#ea580c" opacity="0.85"><title>2026-03-10 | BTC buy 0.00 usd | reason=both_weak_btc_defensive</title></rect>
<rect x="1203.114386115892" y="542.5" width="7.988095238095239" height="1.5" fill="#ea580c" opacity="0.85"><title>2026-03-17 | BTC buy 0.00 usd | reason=both_weak_btc_defensive</title></rect>
<rect x="1217.8131812966149" y="542.5" width="7.988095238095239" height="1.5" fill="#ea580c" opacity="0.85"><title>2026-03-24 | BTC buy 0.00 usd | reason=both_weak_btc_defensive</title></rect>
<rect x="1232.5119764773378" y="542.5" width="7.988095238095239" height="1.5" fill="#ea580c" opacity="0.85"><title>2026-03-31 | BTC buy 0.00 usd | reason=both_weak_btc_defensive</title></rect>
<rect x="1247.2107716580606" y="542.5" width="7.988095238095239" height="1.5" fill="#ea580c" opacity="0.85"><title>2026-04-07 | BTC buy 0.00 usd | reason=both_weak_btc_defensive</title></rect>
<rect x="1261.9095668387836" y="542.5" width="7.988095238095239" height="1.5" fill="#ea580c" opacity="0.85"><title>2026-04-14 | BTC buy 0.00 usd | reason=both_weak_btc_defensive</title></rect>
<rect x="1276.6083620195066" y="542.5" width="7.988095238095239" height="1.5" fill="#ea580c" opacity="0.85"><title>2026-04-21 | BTC buy 0.00 usd | reason=both_weak_btc_defensive</title></rect>
<rect x="1291.3071572002293" y="542.5" width="7.988095238095239" height="1.5" fill="#ea580c" opacity="0.85"><title>2026-04-28 | BTC buy 0.00 usd | reason=both_weak_btc_defensive</title></rect>
<rect x="1306.0059523809523" y="542.5" width="7.988095238095239" height="1.5" fill="#ea580c" opacity="0.85"><title>2026-05-05 | BTC buy 0.00 usd | reason=both_weak_btc_defensive</title></rect>
<text x="24" y="542.5" transform="rotate(-90 24,542.5)" text-anchor="middle" font-family="monospace" font-size="14" fill="#0f172a">BTC weekly trade usd</text>
<line x1="90" y1="770" x2="1310" y2="770" stroke="#334155" stroke-width="2"/>
<line x1="90" y1="645" x2="90" y2="770" stroke="#334155" stroke-width="2"/>
<line x1="90" y1="707.5" x2="1310" y2="707.5" stroke="#64748b" stroke-width="1.5" stroke-dasharray="6 4"/>
<line x1="90" y1="770.0" x2="1310" y2="770.0" stroke="#e2e8f0" stroke-width="1"/>
<text x="78" y="774.0" text-anchor="end" font-family="monospace" font-size="11" fill="#475569">-323</text>
<line x1="90" y1="707.5" x2="1310" y2="707.5" stroke="#e2e8f0" stroke-width="1"/>
<text x="78" y="711.5" text-anchor="end" font-family="monospace" font-size="11" fill="#475569">0</text>
<line x1="90" y1="645.0" x2="1310" y2="645.0" stroke="#e2e8f0" stroke-width="1"/>
<text x="78" y="649.0" text-anchor="end" font-family="monospace" font-size="11" fill="#475569">323</text>
<rect x="86.00595238095238" y="672.6593666141831" width="7.988095238095239" height="34.840633385816886" fill="#2563eb" opacity="0.85"><title>2024-10-01 | ETH buy 180.00 usd | reason=both_weak_btc_defensive</title></rect>
<rect x="100.70474756167528" y="672.6593666141831" width="7.988095238095239" height="34.840633385816886" fill="#2563eb" opacity="0.85"><title>2024-10-08 | ETH buy 180.00 usd | reason=both_weak_btc_defensive</title></rect>
<rect x="115.40354274239817" y="690.0796833070916" width="7.988095238095239" height="17.420316692908386" fill="#2563eb" opacity="0.85"><title>2024-10-15 | ETH buy 90.00 usd | reason=btc_defensive_regime</title></rect>
<rect x="130.10233792312104" y="690.0796833070916" width="7.988095238095239" height="17.420316692908386" fill="#2563eb" opacity="0.85"><title>2024-10-22 | ETH buy 90.00 usd | reason=btc_defensive_regime</title></rect>
<rect x="144.80113310384397" y="690.0796833070916" width="7.988095238095239" height="17.420316692908386" fill="#2563eb" opacity="0.85"><title>2024-10-29 | ETH buy 90.00 usd | reason=btc_defensive_regime</title></rect>
<rect x="159.49992828456683" y="690.0796833070916" width="7.988095238095239" height="17.420316692908386" fill="#2563eb" opacity="0.85"><title>2024-11-05 | ETH buy 90.00 usd | reason=btc_defensive_regime</title></rect>
<rect x="174.19872346528973" y="690.0796833070916" width="7.988095238095239" height="17.420316692908386" fill="#2563eb" opacity="0.85"><title>2024-11-12 | ETH buy 90.00 usd | reason=btc_defensive_regime</title></rect>
<rect x="188.89751864601263" y="690.0796833070916" width="7.988095238095239" height="17.420316692908386" fill="#2563eb" opacity="0.85"><title>2024-11-19 | ETH buy 90.00 usd | reason=btc_defensive_regime</title></rect>
<rect x="203.59631382673552" y="690.0796833070916" width="7.988095238095239" height="17.420316692908386" fill="#2563eb" opacity="0.85"><title>2024-11-26 | ETH buy 90.00 usd | reason=btc_defensive_regime</title></rect>
<rect x="218.2951090074584" y="690.0796833070916" width="7.988095238095239" height="17.420316692908386" fill="#2563eb" opacity="0.85"><title>2024-12-03 | ETH buy 90.00 usd | reason=btc_defensive_regime</title></rect>
<rect x="232.9939041881813" y="690.0796833070916" width="7.988095238095239" height="17.420316692908386" fill="#2563eb" opacity="0.85"><title>2024-12-10 | ETH buy 90.00 usd | reason=btc_defensive_regime</title></rect>
<rect x="247.6926993689042" y="690.0796833070916" width="7.988095238095239" height="17.420316692908386" fill="#2563eb" opacity="0.85"><title>2024-12-17 | ETH buy 90.00 usd | reason=btc_defensive_regime</title></rect>
<rect x="262.3914945496271" y="690.0796833070916" width="7.988095238095239" height="17.420316692908386" fill="#2563eb" opacity="0.85"><title>2024-12-24 | ETH buy 90.00 usd | reason=btc_defensive_regime</title></rect>
<rect x="277.09028973035004" y="690.0796833070916" width="7.988095238095239" height="17.420316692908386" fill="#2563eb" opacity="0.85"><title>2024-12-31 | ETH buy 90.00 usd | reason=btc_defensive_regime</title></rect>
<rect x="291.7890849110729" y="690.0796833070916" width="7.988095238095239" height="17.420316692908386" fill="#2563eb" opacity="0.85"><title>2025-01-07 | ETH buy 90.00 usd | reason=btc_defensive_regime</title></rect>
<rect x="306.4878800917958" y="690.0796833070916" width="7.988095238095239" height="17.420316692908386" fill="#2563eb" opacity="0.85"><title>2025-01-14 | ETH buy 90.00 usd | reason=btc_defensive_regime</title></rect>
<rect x="321.1866752725187" y="690.0796833070916" width="7.988095238095239" height="17.420316692908386" fill="#2563eb" opacity="0.85"><title>2025-01-21 | ETH buy 90.00 usd | reason=btc_defensive_regime</title></rect>
<rect x="335.88547045324157" y="690.0796833070916" width="7.988095238095239" height="17.420316692908386" fill="#2563eb" opacity="0.85"><title>2025-01-28 | ETH buy 90.00 usd | reason=btc_defensive_regime</title></rect>
<rect x="350.58426563396443" y="690.0796833070916" width="7.988095238095239" height="17.420316692908386" fill="#2563eb" opacity="0.85"><title>2025-02-04 | ETH buy 90.00 usd | reason=btc_defensive_regime</title></rect>
<rect x="365.28306081468736" y="690.0796833070916" width="7.988095238095239" height="17.420316692908386" fill="#2563eb" opacity="0.85"><title>2025-02-11 | ETH buy 90.00 usd | reason=btc_defensive_regime</title></rect>
<rect x="379.9818559954102" y="690.0796833070916" width="7.988095238095239" height="17.420316692908386" fill="#2563eb" opacity="0.85"><title>2025-02-18 | ETH buy 90.00 usd | reason=btc_defensive_regime</title></rect>
<rect x="394.6806511761331" y="690.0796833070916" width="7.988095238095239" height="17.420316692908386" fill="#2563eb" opacity="0.85"><title>2025-02-25 | ETH buy 90.00 usd | reason=btc_defensive_regime</title></rect>
<rect x="409.379446356856" y="690.0796833070916" width="7.988095238095239" height="17.420316692908386" fill="#2563eb" opacity="0.85"><title>2025-03-04 | ETH buy 90.00 usd | reason=btc_defensive_regime</title></rect>
<rect x="424.07824153757895" y="672.6593666141831" width="7.988095238095239" height="34.840633385816886" fill="#2563eb" opacity="0.85"><title>2025-03-11 | ETH buy 180.00 usd | reason=both_weak_btc_defensive</title></rect>
<rect x="438.7770367183018" y="661.8150848673001" width="7.988095238095239" height="45.68491513269987" fill="#2563eb" opacity="0.85"><title>2025-03-18 | ETH buy 236.03 usd | reason=both_weak_btc_defensive</title></rect>
<rect x="453.47583189902474" y="690.0796833070916" width="7.988095238095239" height="17.420316692908386" fill="#2563eb" opacity="0.85"><title>2025-03-25 | ETH buy 90.00 usd | reason=btc_defensive_regime</title></rect>
<rect x="468.1746270797476" y="645.0" width="7.988095238095239" height="62.5" fill="#2563eb" opacity="0.85"><title>2025-04-01 | ETH buy 322.90 usd | reason=both_weak_btc_defensive</title></rect>
<rect x="482.8734222604705" y="651.522441418003" width="7.988095238095239" height="55.97755858199696" fill="#2563eb" opacity="0.85"><title>2025-04-08 | ETH buy 289.20 usd | reason=both_weak_btc_defensive</title></rect>
<rect x="497.57221744119335" y="674.4649733896439" width="7.988095238095239" height="33.03502661035611" fill="#2563eb" opacity="0.85"><title>2025-04-15 | ETH buy 170.67 usd | reason=both_weak_btc_defensive</title></rect>
<rect x="512.2710126219163" y="690.0796833070916" width="7.988095238095239" height="17.420316692908386" fill="#2563eb" opacity="0.85"><title>2025-04-22 | ETH buy 90.00 usd | reason=btc_defensive_regime</title></rect>
<rect x="526.9698078026391" y="681.2043949089575" width="7.988095238095239" height="26.29560509104249" fill="#2563eb" opacity="0.85"><title>2025-04-29 | ETH buy 135.85 usd | reason=btc_defensive_regime</title></rect>
<rect x="541.668602983362" y="678.3809562365133" width="7.988095238095239" height="29.11904376348673" fill="#2563eb" opacity="0.85"><title>2025-05-06 | ETH buy 150.44 usd | reason=btc_defensive_regime</title></rect>
<rect x="556.367398164085" y="707.5" width="7.988095238095239" height="1.5" fill="#2563eb" opacity="0.85"><title>2025-05-13 | ETH buy 0.00 usd | reason=btc_defensive_regime</title></rect>
<rect x="571.0661933448079" y="707.5" width="7.988095238095239" height="1.5" fill="#2563eb" opacity="0.85"><title>2025-05-20 | ETH buy 0.00 usd | reason=btc_defensive_regime</title></rect>
<rect x="585.7649885255307" y="707.5" width="7.988095238095239" height="1.5" fill="#2563eb" opacity="0.85"><title>2025-05-27 | ETH buy 0.00 usd | reason=btc_defensive_regime</title></rect>
<rect x="600.4637837062536" y="707.5" width="7.988095238095239" height="1.5" fill="#2563eb" opacity="0.85"><title>2025-06-03 | ETH buy 0.00 usd | reason=btc_defensive_regime</title></rect>
<rect x="615.1625788869765" y="678.2743315462887" width="7.988095238095239" height="29.22566845371125" fill="#2563eb" opacity="0.85"><title>2025-06-10 | ETH buy 150.99 usd | reason=balanced_regime</title></rect>
<rect x="629.8613740676993" y="707.5" width="7.988095238095239" height="1.5" fill="#2563eb" opacity="0.85"><title>2025-06-17 | ETH buy 0.00 usd | reason=btc_defensive_regime</title></rect>
<rect x="644.5601692484223" y="707.5" width="7.988095238095239" height="1.5" fill="#2563eb" opacity="0.85"><title>2025-06-24 | ETH buy 0.00 usd | reason=btc_defensive_regime</title></rect>
<rect x="659.2589644291452" y="707.5" width="7.988095238095239" height="1.5" fill="#2563eb" opacity="0.85"><title>2025-07-01 | ETH buy 0.00 usd | reason=btc_defensive_regime</title></rect>
<rect x="673.957759609868" y="676.5423984201137" width="7.988095238095239" height="30.957601579886273" fill="#2563eb" opacity="0.85"><title>2025-07-08 | ETH buy 159.94 usd | reason=balanced_regime</title></rect>
<rect x="688.6565547905909" y="707.5" width="7.988095238095239" height="1.5" fill="#2563eb" opacity="0.85"><title>2025-07-15 | ETH buy 0.00 usd | reason=balanced_regime</title></rect>
<rect x="703.3553499713138" y="707.5" width="7.988095238095239" height="9.176596245371229" fill="#7c3aed" opacity="0.85"><title>2025-07-22 | ETH sell 47.41 usd | reason=balanced_regime</title></rect>
<rect x="718.0541451520368" y="707.5" width="7.988095238095239" height="8.402939941870159" fill="#7c3aed" opacity="0.85"><title>2025-07-29 | ETH sell 43.41 usd | reason=balanced_regime</title></rect>
<rect x="732.7529403327596" y="707.5" width="7.988095238095239" height="7.102192670362797" fill="#7c3aed" opacity="0.85"><title>2025-08-05 | ETH sell 36.69 usd | reason=balanced_regime</title></rect>
<rect x="747.4517355134825" y="707.5" width="7.988095238095239" height="22.356374090002078" fill="#7c3aed" opacity="0.85"><title>2025-08-12 | ETH sell 115.50 usd | reason=balanced_regime</title></rect>
<rect x="762.1505306942055" y="707.5" width="7.988095238095239" height="15.062981764489336" fill="#7c3aed" opacity="0.85"><title>2025-08-19 | ETH sell 77.82 usd | reason=balanced_regime</title></rect>
<rect x="776.8493258749284" y="707.5" width="7.988095238095239" height="22.51184634101685" fill="#7c3aed" opacity="0.85"><title>2025-08-26 | ETH sell 116.30 usd | reason=balanced_regime</title></rect>
<rect x="791.5481210556512" y="707.5" width="7.988095238095239" height="16.653794631422556" fill="#7c3aed" opacity="0.85"><title>2025-09-02 | ETH sell 86.04 usd | reason=balanced_regime</title></rect>
<rect x="806.2469162363741" y="707.5" width="7.988095238095239" height="14.952486746445857" fill="#7c3aed" opacity="0.85"><title>2025-09-09 | ETH sell 77.25 usd | reason=balanced_regime</title></rect>
<rect x="820.9457114170971" y="707.5" width="7.988095238095239" height="13.341828060233183" fill="#7c3aed" opacity="0.85"><title>2025-09-16 | ETH sell 68.93 usd | reason=balanced_regime</title></rect>
<rect x="835.6445065978198" y="707.5" width="7.988095238095239" height="5.91918882531786" fill="#7c3aed" opacity="0.85"><title>2025-09-23 | ETH sell 30.58 usd | reason=balanced_regime</title></rect>
<rect x="850.3433017785428" y="707.5" width="7.988095238095239" height="5.544703329746426" fill="#7c3aed" opacity="0.85"><title>2025-09-30 | ETH sell 28.65 usd | reason=balanced_regime</title></rect>
<rect x="865.0420969592656" y="707.5" width="7.988095238095239" height="6.176716889054546" fill="#7c3aed" opacity="0.85"><title>2025-10-07 | ETH sell 31.91 usd | reason=balanced_regime</title></rect>
<rect x="879.7408921399885" y="707.5" width="7.988095238095239" height="4.507903663201887" fill="#7c3aed" opacity="0.85"><title>2025-10-14 | ETH sell 23.29 usd | reason=balanced_regime</title></rect>
<rect x="894.4396873207115" y="707.5" width="7.988095238095239" height="1.5" fill="#2563eb" opacity="0.85"><title>2025-10-21 | ETH buy 0.00 usd | reason=balanced_regime</title></rect>
<rect x="909.1384825014343" y="707.5" width="7.988095238095239" height="1.5" fill="#2563eb" opacity="0.85"><title>2025-10-28 | ETH buy 0.00 usd | reason=balanced_regime</title></rect>
<rect x="923.8372776821573" y="707.5" width="7.988095238095239" height="1.5" fill="#2563eb" opacity="0.85"><title>2025-11-04 | ETH buy 0.00 usd | reason=both_weak_btc_defensive</title></rect>
<rect x="938.5360728628801" y="707.5" width="7.988095238095239" height="1.5" fill="#2563eb" opacity="0.85"><title>2025-11-11 | ETH buy 0.00 usd | reason=both_weak_btc_defensive</title></rect>
<rect x="953.234868043603" y="707.5" width="7.988095238095239" height="1.5" fill="#2563eb" opacity="0.85"><title>2025-11-18 | ETH buy 0.00 usd | reason=both_weak_btc_defensive</title></rect>
<rect x="967.9336632243259" y="707.5" width="7.988095238095239" height="1.5" fill="#2563eb" opacity="0.85"><title>2025-11-25 | ETH buy 0.00 usd | reason=both_weak_btc_defensive</title></rect>
<rect x="982.6324584050489" y="707.5" width="7.988095238095239" height="1.5" fill="#2563eb" opacity="0.85"><title>2025-12-02 | ETH buy 0.00 usd | reason=both_weak_btc_defensive</title></rect>
<rect x="997.3312535857716" y="707.5" width="7.988095238095239" height="1.5" fill="#2563eb" opacity="0.85"><title>2025-12-09 | ETH buy 0.00 usd | reason=both_weak_btc_defensive</title></rect>
<rect x="1012.0300487664946" y="707.5" width="7.988095238095239" height="1.5" fill="#2563eb" opacity="0.85"><title>2025-12-16 | ETH buy 0.00 usd | reason=both_weak_btc_defensive</title></rect>
<rect x="1026.7288439472175" y="707.5" width="7.988095238095239" height="1.5" fill="#2563eb" opacity="0.85"><title>2025-12-23 | ETH buy 0.00 usd | reason=both_weak_btc_defensive</title></rect>
<rect x="1041.4276391279402" y="707.5" width="7.988095238095239" height="1.5" fill="#2563eb" opacity="0.85"><title>2025-12-30 | ETH buy 0.00 usd | reason=both_weak_btc_defensive</title></rect>
<rect x="1056.1264343086632" y="707.5" width="7.988095238095239" height="1.5" fill="#2563eb" opacity="0.85"><title>2026-01-06 | ETH buy 0.00 usd | reason=both_weak_btc_defensive</title></rect>
<rect x="1070.825229489386" y="707.5" width="7.988095238095239" height="1.5" fill="#2563eb" opacity="0.85"><title>2026-01-13 | ETH buy 0.00 usd | reason=both_weak_btc_defensive</title></rect>
<rect x="1085.524024670109" y="707.5" width="7.988095238095239" height="1.5" fill="#2563eb" opacity="0.85"><title>2026-01-20 | ETH buy 0.00 usd | reason=both_weak_btc_defensive</title></rect>
<rect x="1100.222819850832" y="707.5" width="7.988095238095239" height="1.5" fill="#2563eb" opacity="0.85"><title>2026-01-27 | ETH buy 0.00 usd | reason=both_weak_btc_defensive</title></rect>
<rect x="1114.9216150315547" y="707.5" width="7.988095238095239" height="1.5" fill="#2563eb" opacity="0.85"><title>2026-02-03 | ETH buy 0.00 usd | reason=both_weak_btc_defensive</title></rect>
<rect x="1129.6204102122776" y="707.5" width="7.988095238095239" height="1.5" fill="#2563eb" opacity="0.85"><title>2026-02-10 | ETH buy 0.00 usd | reason=both_weak_btc_defensive</title></rect>
<rect x="1144.3192053930004" y="707.5" width="7.988095238095239" height="1.5" fill="#2563eb" opacity="0.85"><title>2026-02-17 | ETH buy 0.00 usd | reason=both_weak_btc_defensive</title></rect>
<rect x="1159.0180005737234" y="707.5" width="7.988095238095239" height="1.5" fill="#2563eb" opacity="0.85"><title>2026-02-24 | ETH buy 0.00 usd | reason=both_weak_btc_defensive</title></rect>
<rect x="1173.7167957544461" y="707.5" width="7.988095238095239" height="1.5" fill="#2563eb" opacity="0.85"><title>2026-03-03 | ETH buy 0.00 usd | reason=both_weak_btc_defensive</title></rect>
<rect x="1188.4155909351691" y="707.5" width="7.988095238095239" height="1.5" fill="#2563eb" opacity="0.85"><title>2026-03-10 | ETH buy 0.00 usd | reason=both_weak_btc_defensive</title></rect>
<rect x="1203.114386115892" y="707.5" width="7.988095238095239" height="1.5" fill="#2563eb" opacity="0.85"><title>2026-03-17 | ETH buy 0.00 usd | reason=both_weak_btc_defensive</title></rect>
<rect x="1217.8131812966149" y="707.5" width="7.988095238095239" height="1.5" fill="#2563eb" opacity="0.85"><title>2026-03-24 | ETH buy 0.00 usd | reason=both_weak_btc_defensive</title></rect>
<rect x="1232.5119764773378" y="707.5" width="7.988095238095239" height="1.5" fill="#2563eb" opacity="0.85"><title>2026-03-31 | ETH buy 0.00 usd | reason=both_weak_btc_defensive</title></rect>
<rect x="1247.2107716580606" y="707.5" width="7.988095238095239" height="1.5" fill="#2563eb" opacity="0.85"><title>2026-04-07 | ETH buy 0.00 usd | reason=both_weak_btc_defensive</title></rect>
<rect x="1261.9095668387836" y="707.5" width="7.988095238095239" height="1.5" fill="#2563eb" opacity="0.85"><title>2026-04-14 | ETH buy 0.00 usd | reason=both_weak_btc_defensive</title></rect>
<rect x="1276.6083620195066" y="707.5" width="7.988095238095239" height="1.5" fill="#2563eb" opacity="0.85"><title>2026-04-21 | ETH buy 0.00 usd | reason=both_weak_btc_defensive</title></rect>
<rect x="1291.3071572002293" y="707.5" width="7.988095238095239" height="1.5" fill="#2563eb" opacity="0.85"><title>2026-04-28 | ETH buy 0.00 usd | reason=both_weak_btc_defensive</title></rect>
<rect x="1306.0059523809523" y="707.5" width="7.988095238095239" height="1.5" fill="#2563eb" opacity="0.85"><title>2026-05-05 | ETH buy 0.00 usd | reason=both_weak_btc_defensive</title></rect>
<text x="24" y="707.5" transform="rotate(-90 24,707.5)" text-anchor="middle" font-family="monospace" font-size="14" fill="#0f172a">ETH weekly trade usd</text>
<rect x="1040" y="478" width="14" height="10" fill="#ea580c" opacity="0.85"/>
<text x="1062" y="488" font-family="monospace" font-size="11" fill="#0f172a">BTC buy</text>
<rect x="1190" y="478" width="14" height="10" fill="#dc2626" opacity="0.85"/>
<text x="1212" y="488" font-family="monospace" font-size="11" fill="#0f172a">BTC sell</text>
<rect x="1040" y="498" width="14" height="10" fill="#2563eb" opacity="0.85"/>
<text x="1062" y="508" font-family="monospace" font-size="11" fill="#0f172a">ETH buy</text>
<rect x="1190" y="498" width="14" height="10" fill="#7c3aed" opacity="0.85"/>
<text x="1212" y="508" font-family="monospace" font-size="11" fill="#0f172a">ETH sell</text>
</svg>