<svg xmlns="http://www.w3.org/2000/svg" width="1400" height="800">
<rect width="1400" height="800" fill="#f8fafc"/>
<text x="700.0" y="42" text-anchor="middle" font-family="monospace" font-size="24" fill="#0f172a">narrow_cash_band_rebalance | weekly | start=2024-04-01 | return=-0.53%</text>
<line x1="90" y1="420" x2="1310" y2="420" stroke="#334155" stroke-width="2"/>
<line x1="90" y1="90" x2="90" y2="420" stroke="#334155" stroke-width="2"/>
<line x1="90.0" y1="420" x2="90.0" y2="90" stroke="#94a3b8" stroke-width="1.2"/>
<line x1="90.0" y1="605" x2="90.0" y2="480" stroke="#94a3b8" stroke-width="1.2"/>
<line x1="90.0" y1="770" x2="90.0" y2="645" stroke="#94a3b8" stroke-width="1.2"/>
<text x="90.0" y="788" text-anchor="middle" font-family="monospace" font-size="11" fill="#334155">2024-04</text>
<line x1="145.96330275229357" y1="420" x2="145.96330275229357" y2="90" stroke="#94a3b8" stroke-width="1.2"/>
<line x1="145.96330275229357" y1="605" x2="145.96330275229357" y2="480" stroke="#94a3b8" stroke-width="1.2"/>
<line x1="145.96330275229357" y1="770" x2="145.96330275229357" y2="645" stroke="#94a3b8" stroke-width="1.2"/>
<text x="145.96330275229357" y="788" text-anchor="middle" font-family="monospace" font-size="11" fill="#334155">2024-05</text>
<line x1="190.73394495412845" y1="420" x2="190.73394495412845" y2="90" stroke="#94a3b8" stroke-width="1.2"/>
<line x1="190.73394495412845" y1="605" x2="190.73394495412845" y2="480" stroke="#94a3b8" stroke-width="1.2"/>
<line x1="190.73394495412845" y1="770" x2="190.73394495412845" y2="645" stroke="#94a3b8" stroke-width="1.2"/>
<text x="190.73394495412845" y="788" text-anchor="middle" font-family="monospace" font-size="11" fill="#334155">2024-06</text>
<line x1="235.50458715596332" y1="420" x2="235.50458715596332" y2="90" stroke="#94a3b8" stroke-width="1.2"/>
<line x1="235.50458715596332" y1="605" x2="235.50458715596332" y2="480" stroke="#94a3b8" stroke-width="1.2"/>
<line x1="235.50458715596332" y1="770" x2="235.50458715596332" y2="645" stroke="#94a3b8" stroke-width="1.2"/>
<text x="235.50458715596332" y="788" text-anchor="middle" font-family="monospace" font-size="11" fill="#334155">2024-07</text>
<line x1="291.4678899082569" y1="420" x2="291.4678899082569" y2="90" stroke="#94a3b8" stroke-width="1.2"/>
<line x1="291.4678899082569" y1="605" x2="291.4678899082569" y2="480" stroke="#94a3b8" stroke-width="1.2"/>
<line x1="291.4678899082569" y1="770" x2="291.4678899082569" y2="645" stroke="#94a3b8" stroke-width="1.2"/>
<text x="291.4678899082569" y="788" text-anchor="middle" font-family="monospace" font-size="11" fill="#334155">2024-08</text>
<line x1="336.2385321100918" y1="420" x2="336.2385321100918" y2="90" stroke="#94a3b8" stroke-width="1.2"/>
<line x1="336.2385321100918" y1="605" x2="336.2385321100918" y2="480" stroke="#94a3b8" stroke-width="1.2"/>
<line x1="336.2385321100918" y1="770" x2="336.2385321100918" y2="645" stroke="#94a3b8" stroke-width="1.2"/>
<text x="336.2385321100918" y="788" text-anchor="middle" font-family="monospace" font-size="11" fill="#334155">2024-09</text>
<line x1="392.20183486238534" y1="420" x2="392.20183486238534" y2="90" stroke="#94a3b8" stroke-width="1.2"/>
<line x1="392.20183486238534" y1="605" x2="392.20183486238534" y2="480" stroke="#94a3b8" stroke-width="1.2"/>
<line x1="392.20183486238534" y1="770" x2="392.20183486238534" y2="645" stroke="#94a3b8" stroke-width="1.2"/>
<text x="392.20183486238534" y="788" text-anchor="middle" font-family="monospace" font-size="11" fill="#334155">2024-10</text>
<line x1="436.9724770642202" y1="420" x2="436.9724770642202" y2="90" stroke="#94a3b8" stroke-width="1.2"/>
<line x1="436.9724770642202" y1="605" x2="436.9724770642202" y2="480" stroke="#94a3b8" stroke-width="1.2"/>
<line x1="436.9724770642202" y1="770" x2="436.9724770642202" y2="645" stroke="#94a3b8" stroke-width="1.2"/>
<text x="436.9724770642202" y="788" text-anchor="middle" font-family="monospace" font-size="11" fill="#334155">2024-11</text>
<line x1="481.7431192660551" y1="420" x2="481.7431192660551" y2="90" stroke="#94a3b8" stroke-width="1.2"/>
<line x1="481.7431192660551" y1="605" x2="481.7431192660551" y2="480" stroke="#94a3b8" stroke-width="1.2"/>
<line x1="481.7431192660551" y1="770" x2="481.7431192660551" y2="645" stroke="#94a3b8" stroke-width="1.2"/>
<text x="481.7431192660551" y="788" text-anchor="middle" font-family="monospace" font-size="11" fill="#334155">2024-12</text>
<line x1="537.7064220183486" y1="420" x2="537.7064220183486" y2="90" stroke="#94a3b8" stroke-width="1.2"/>
<line x1="537.7064220183486" y1="605" x2="537.7064220183486" y2="480" stroke="#94a3b8" stroke-width="1.2"/>
<line x1="537.7064220183486" y1="770" x2="537.7064220183486" y2="645" stroke="#94a3b8" stroke-width="1.2"/>
<text x="537.7064220183486" y="788" text-anchor="middle" font-family="monospace" font-size="11" fill="#334155">2025-01</text>
<line x1="582.4770642201836" y1="420" x2="582.4770642201836" y2="90" stroke="#94a3b8" stroke-width="1.2"/>
<line x1="582.4770642201836" y1="605" x2="582.4770642201836" y2="480" stroke="#94a3b8" stroke-width="1.2"/>
<line x1="582.4770642201836" y1="770" x2="582.4770642201836" y2="645" stroke="#94a3b8" stroke-width="1.2"/>
<text x="582.4770642201836" y="788" text-anchor="middle" font-family="monospace" font-size="11" fill="#334155">2025-02</text>
<line x1="627.2477064220184" y1="420" x2="627.2477064220184" y2="90" stroke="#94a3b8" stroke-width="1.2"/>
<line x1="627.2477064220184" y1="605" x2="627.2477064220184" y2="480" stroke="#94a3b8" stroke-width="1.2"/>
<line x1="627.2477064220184" y1="770" x2="627.2477064220184" y2="645" stroke="#94a3b8" stroke-width="1.2"/>
<text x="627.2477064220184" y="788" text-anchor="middle" font-family="monospace" font-size="11" fill="#334155">2025-03</text>
<line x1="683.2110091743119" y1="420" x2="683.2110091743119" y2="90" stroke="#94a3b8" stroke-width="1.2"/>
<line x1="683.2110091743119" y1="605" x2="683.2110091743119" y2="480" stroke="#94a3b8" stroke-width="1.2"/>
<line x1="683.2110091743119" y1="770" x2="683.2110091743119" y2="645" stroke="#94a3b8" stroke-width="1.2"/>
<text x="683.2110091743119" y="788" text-anchor="middle" font-family="monospace" font-size="11" fill="#334155">2025-04</text>
<line x1="727.9816513761467" y1="420" x2="727.9816513761467" y2="90" stroke="#94a3b8" stroke-width="1.2"/>
<line x1="727.9816513761467" y1="605" x2="727.9816513761467" y2="480" stroke="#94a3b8" stroke-width="1.2"/>
<line x1="727.9816513761467" y1="770" x2="727.9816513761467" y2="645" stroke="#94a3b8" stroke-width="1.2"/>
<text x="727.9816513761467" y="788" text-anchor="middle" font-family="monospace" font-size="11" fill="#334155">2025-05</text>
<line x1="772.7522935779816" y1="420" x2="772.7522935779816" y2="90" stroke="#94a3b8" stroke-width="1.2"/>
<line x1="772.7522935779816" y1="605" x2="772.7522935779816" y2="480" stroke="#94a3b8" stroke-width="1.2"/>
<line x1="772.7522935779816" y1="770" x2="772.7522935779816" y2="645" stroke="#94a3b8" stroke-width="1.2"/>
<text x="772.7522935779816" y="788" text-anchor="middle" font-family="monospace" font-size="11" fill="#334155">2025-06</text>
<line x1="828.7155963302753" y1="420" x2="828.7155963302753" y2="90" stroke="#94a3b8" stroke-width="1.2"/>
<line x1="828.7155963302753" y1="605" x2="828.7155963302753" y2="480" stroke="#94a3b8" stroke-width="1.2"/>
<line x1="828.7155963302753" y1="770" x2="828.7155963302753" y2="645" stroke="#94a3b8" stroke-width="1.2"/>
<text x="828.7155963302753" y="788" text-anchor="middle" font-family="monospace" font-size="11" fill="#334155">2025-07</text>
<line x1="873.4862385321102" y1="420" x2="873.4862385321102" y2="90" stroke="#94a3b8" stroke-width="1.2"/>
<line x1="873.4862385321102" y1="605" x2="873.4862385321102" y2="480" stroke="#94a3b8" stroke-width="1.2"/>
<line x1="873.4862385321102" y1="770" x2="873.4862385321102" y2="645" stroke="#94a3b8" stroke-width="1.2"/>
<text x="873.4862385321102" y="788" text-anchor="middle" font-family="monospace" font-size="11" fill="#334155">2025-08</text>
<line x1="918.256880733945" y1="420" x2="918.256880733945" y2="90" stroke="#94a3b8" stroke-width="1.2"/>
<line x1="918.256880733945" y1="605" x2="918.256880733945" y2="480" stroke="#94a3b8" stroke-width="1.2"/>
<line x1="918.256880733945" y1="770" x2="918.256880733945" y2="645" stroke="#94a3b8" stroke-width="1.2"/>
<text x="918.256880733945" y="788" text-anchor="middle" font-family="monospace" font-size="11" fill="#334155">2025-09</text>
<line x1="974.2201834862385" y1="420" x2="974.2201834862385" y2="90" stroke="#94a3b8" stroke-width="1.2"/>
<line x1="974.2201834862385" y1="605" x2="974.2201834862385" y2="480" stroke="#94a3b8" stroke-width="1.2"/>
<line x1="974.2201834862385" y1="770" x2="974.2201834862385" y2="645" stroke="#94a3b8" stroke-width="1.2"/>
<text x="974.2201834862385" y="788" text-anchor="middle" font-family="monospace" font-size="11" fill="#334155">2025-10</text>
<line x1="1018.9908256880734" y1="420" x2="1018.9908256880734" y2="90" stroke="#94a3b8" stroke-width="1.2"/>
<line x1="1018.9908256880734" y1="605" x2="1018.9908256880734" y2="480" stroke="#94a3b8" stroke-width="1.2"/>
<line x1="1018.9908256880734" y1="770" x2="1018.9908256880734" y2="645" stroke="#94a3b8" stroke-width="1.2"/>
<text x="1018.9908256880734" y="788" text-anchor="middle" font-family="monospace" font-size="11" fill="#334155">2025-11</text>
<line x1="1063.761467889908" y1="420" x2="1063.761467889908" y2="90" stroke="#94a3b8" stroke-width="1.2"/>
<line x1="1063.761467889908" y1="605" x2="1063.761467889908" y2="480" stroke="#94a3b8" stroke-width="1.2"/>
<line x1="1063.761467889908" y1="770" x2="1063.761467889908" y2="645" stroke="#94a3b8" stroke-width="1.2"/>
<text x="1063.761467889908" y="788" text-anchor="middle" font-family="monospace" font-size="11" fill="#334155">2025-12</text>
<line x1="1119.724770642202" y1="420" x2="1119.724770642202" y2="90" stroke="#94a3b8" stroke-width="1.2"/>
<line x1="1119.724770642202" y1="605" x2="1119.724770642202" y2="480" stroke="#94a3b8" stroke-width="1.2"/>
<line x1="1119.724770642202" y1="770" x2="1119.724770642202" y2="645" stroke="#94a3b8" stroke-width="1.2"/>
<text x="1119.724770642202" y="788" text-anchor="middle" font-family="monospace" font-size="11" fill="#334155">2026-01</text>
<line x1="1164.4954128440368" y1="420" x2="1164.4954128440368" y2="90" stroke="#94a3b8" stroke-width="1.2"/>
<line x1="1164.4954128440368" y1="605" x2="1164.4954128440368" y2="480" stroke="#94a3b8" stroke-width="1.2"/>
<line x1="1164.4954128440368" y1="770" x2="1164.4954128440368" y2="645" stroke="#94a3b8" stroke-width="1.2"/>
<text x="1164.4954128440368" y="788" text-anchor="middle" font-family="monospace" font-size="11" fill="#334155">2026-02</text>
<line x1="1209.2660550458716" y1="420" x2="1209.2660550458716" y2="90" stroke="#94a3b8" stroke-width="1.2"/>
<line x1="1209.2660550458716" y1="605" x2="1209.2660550458716" y2="480" stroke="#94a3b8" stroke-width="1.2"/>
<line x1="1209.2660550458716" y1="770" x2="1209.2660550458716" y2="645" stroke="#94a3b8" stroke-width="1.2"/>
<text x="1209.2660550458716" y="788" text-anchor="middle" font-family="monospace" font-size="11" fill="#334155">2026-03</text>
<line x1="1265.2293577981652" y1="420" x2="1265.2293577981652" y2="90" stroke="#94a3b8" stroke-width="1.2"/>
<line x1="1265.2293577981652" y1="605" x2="1265.2293577981652" y2="480" stroke="#94a3b8" stroke-width="1.2"/>
<line x1="1265.2293577981652" y1="770" x2="1265.2293577981652" y2="645" stroke="#94a3b8" stroke-width="1.2"/>
<text x="1265.2293577981652" y="788" text-anchor="middle" font-family="monospace" font-size="11" fill="#334155">2026-04</text>
<line x1="1310.0" y1="420" x2="1310.0" y2="90" stroke="#94a3b8" stroke-width="1.2"/>
<line x1="1310.0" y1="605" x2="1310.0" y2="480" stroke="#94a3b8" stroke-width="1.2"/>
<line x1="1310.0" y1="770" x2="1310.0" y2="645" stroke="#94a3b8" stroke-width="1.2"/>
<text x="1310.0" y="788" text-anchor="middle" font-family="monospace" font-size="11" fill="#334155">2026-05</text>
<line x1="90" y1="420.0" x2="1310" y2="420.0" stroke="#cbd5e1" stroke-width="1"/>
<text x="78" y="424.0" text-anchor="end" font-family="monospace" font-size="12" fill="#475569">0</text>
<line x1="90" y1="354.0" x2="1310" y2="354.0" stroke="#cbd5e1" stroke-width="1"/>
<text x="78" y="358.0" text-anchor="end" font-family="monospace" font-size="12" fill="#475569">17233</text>
<line x1="90" y1="288.0" x2="1310" y2="288.0" stroke="#cbd5e1" stroke-width="1"/>
<text x="78" y="292.0" text-anchor="end" font-family="monospace" font-size="12" fill="#475569">34465</text>
<line x1="90" y1="222.0" x2="1310" y2="222.0" stroke="#cbd5e1" stroke-width="1"/>
<text x="78" y="226.0" text-anchor="end" font-family="monospace" font-size="12" fill="#475569">51698</text>
<line x1="90" y1="156.0" x2="1310" y2="156.0" stroke="#cbd5e1" stroke-width="1"/>
<text x="78" y="160.0" text-anchor="end" font-family="monospace" font-size="12" fill="#475569">68930</text>
<line x1="90" y1="90.0" x2="1310" y2="90.0" stroke="#cbd5e1" stroke-width="1"/>
<text x="78" y="94.0" text-anchor="end" font-family="monospace" font-size="12" fill="#475569">86163</text>
<polygon points="90.0,359.7613563547729 101.19266055045871,346.38805788882223 112.38532110091744,346.80343374037216 123.57798165137615,346.36515828898507 134.77064220183487,347.13115157735473 145.96330275229357,347.6649522296768 157.1559633027523,347.8583871007962 168.348623853211,340.20250910894316 179.54128440366975,337.0757700215477 190.73394495412845,335.2182605961931 201.92660550458714,333.763577756785 213.1192660550459,333.58566719649957 224.3119266055046,334.3516604848692 235.50458715596332,335.1176537732389 246.69724770642202,335.8836470616085 257.88990825688074,335.93499206026627 269.0825688073395,336.7009853486359 280.27522935779814,337.4669786370056 291.4678899082569,338.2329719253752 302.66055045871565,338.99896521374484 313.8532110091743,339.7649585021145 325.04587155963304,340.53095179048415 336.2385321100918,341.2969450788538 347.4311926605505,342.0629383672234 358.6238532110092,342.82893165559307 369.8165137614679,343.5949249439627 381.00917431192664,344.3609182323323 392.20183486238534,345.126911520702 403.39449541284404,340.1777555137743 414.5871559633028,337.05947362313384 425.7798165137615,334.26108318241836 436.9724770642202,332.8557836070496 448.16513761467894,333.6217768954192 459.35779816513764,334.38777018378886 470.55045871559633,335.1537634721585 481.7431192660551,330.25003692653104 492.9357798165138,327.27629096624514 504.1284403669725,323.6040525757182 515.3211009174313,324.37004586408784 526.5137614678899,325.13603915245744 537.7064220183486,323.16562272828486 548.8990825688074,323.9316160166545 560.0917431192661,324.6976093050242 571.2844036697247,325.46360259339383 582.4770642201836,321.11201265383863 593.6697247706422,318.9284396625599 604.862385321101,318.4232437158373 616.0550458715596,318.53123790643565 627.2477064220184,318.81593035409884 638.4403669724771,319.5819236424685 649.6330275229358,320.3479169308381 660.8256880733945,319.830522212427 672.0183486238533,320.59651550079667 683.2110091743119,321.3625087891663 694.4036697247707,322.1285020775359 705.5963302752293,322.8944953659056 716.7889908256881,319.41593030822776 727.9816513761467,317.6201816218301 739.1743119266056,317.2809263081698 750.3669724770642,316.73434375518525 761.559633027523,315.8587550410408 772.7522935779816,316.3987464594948 783.9449541284404,317.1647397478645 795.137614678899,317.06074446407024 806.3302752293579,316.9796201269944 817.5229357798165,316.9794447896792 828.7155963302753,317.1071700473047 839.9082568807339,317.87316333567435 851.1009174311927,314.1652298396922 862.2935779816513,311.89229318602537 873.4862385321102,310.9471169319613 884.6788990825688,307.2962761724975 895.8715596330276,304.3851562896893 907.0642201834862,301.74821157756855 918.256880733945,300.6335261578485 929.4495412844036,300.46764072842296 940.6422018348625,299.467953905621 951.8348623853211,300.2339471939906 963.0275229357799,300.9999404823603 974.2201834862385,300.1864843237205 985.4128440366973,300.9524776120901 996.6055045871559,301.71847090045975 1007.7981651376148,302.48446418882935 1018.9908256880734,303.250457477199 1030.1834862385322,304.0164507655686 1041.3761467889908,304.7824440539383 1052.5688073394494,305.5484373423079 1063.761467889908,306.3144306306776 1074.9541284403672,307.08042391904723 1086.1467889908258,307.84641720741683 1097.3394495412845,308.6124104957865 1108.532110091743,309.37840378415615 1119.724770642202,310.14439707252575 1130.9174311926606,310.9103903608954 1142.1100917431193,311.67638364926506 1153.302752293578,312.44237693763466 1164.4954128440368,313.2083702260043 1175.6880733944954,313.974363514374 1186.8807339449543,314.7403568027436 1198.073394495413,315.50635009111323 1209.2660550458716,316.2723433794829 1220.4587155963302,317.0383366678525 1231.651376146789,317.80432995622215 1242.8440366972477,318.5703232445918 1254.0366972477066,319.33631653296146 1265.2293577981652,320.10230982133106 1276.4220183486239,320.8683031097007 1287.6146788990825,321.6342963980703 1298.8073394495414,322.40028968644 1310.0,323.16628297480963 1310.0,420.0 1298.8073394495414,420.0 1287.6146788990825,420.0 1276.4220183486239,420.0 1265.2293577981652,420.0 1254.0366972477066,420.0 1242.8440366972477,420.0 1231.651376146789,420.0 1220.4587155963302,420.0 1209.2660550458716,420.0 1198.073394495413,420.0 1186.8807339449543,420.0 1175.6880733944954,420.0 1164.4954128440368,420.0 1153.302752293578,420.0 1142.1100917431193,420.0 1130.9174311926606,420.0 1119.724770642202,420.0 1108.532110091743,420.0 1097.3394495412845,420.0 1086.1467889908258,420.0 1074.9541284403672,420.0 1063.761467889908,420.0 1052.5688073394494,420.0 1041.3761467889908,420.0 1030.1834862385322,420.0 1018.9908256880734,420.0 1007.7981651376148,420.0 996.6055045871559,420.0 985.4128440366973,420.0 974.2201834862385,420.0 963.0275229357799,420.0 951.8348623853211,420.0 940.6422018348625,420.0 929.4495412844036,420.0 918.256880733945,420.0 907.0642201834862,420.0 895.8715596330276,420.0 884.6788990825688,420.0 873.4862385321102,420.0 862.2935779816513,420.0 851.1009174311927,420.0 839.9082568807339,420.0 828.7155963302753,420.0 817.5229357798165,420.0 806.3302752293579,420.0 795.137614678899,420.0 783.9449541284404,420.0 772.7522935779816,420.0 761.559633027523,420.0 750.3669724770642,420.0 739.1743119266056,420.0 727.9816513761467,420.0 716.7889908256881,420.0 705.5963302752293,420.0 694.4036697247707,420.0 683.2110091743119,420.0 672.0183486238533,420.0 660.8256880733945,420.0 649.6330275229358,420.0 638.4403669724771,420.0 627.2477064220184,420.0 616.0550458715596,420.0 604.862385321101,420.0 593.6697247706422,420.0 582.4770642201836,420.0 571.2844036697247,420.0 560.0917431192661,420.0 548.8990825688074,420.0 537.7064220183486,420.0 526.5137614678899,420.0 515.3211009174313,420.0 504.1284403669725,420.0 492.9357798165138,420.0 481.7431192660551,420.0 470.55045871559633,420.0 459.35779816513764,420.0 448.16513761467894,420.0 436.9724770642202,420.0 425.7798165137615,420.0 414.5871559633028,420.0 403.39449541284404,420.0 392.20183486238534,420.0 381.00917431192664,420.0 369.8165137614679,420.0 358.6238532110092,420.0 347.4311926605505,420.0 336.2385321100918,420.0 325.04587155963304,420.0 313.8532110091743,420.0 302.66055045871565,420.0 291.4678899082569,420.0 280.27522935779814,420.0 269.0825688073395,420.0 257.88990825688074,420.0 246.69724770642202,420.0 235.50458715596332,420.0 224.3119266055046,420.0 213.1192660550459,420.0 201.92660550458714,420.0 190.73394495412845,420.0 179.54128440366975,420.0 168.348623853211,420.0 157.1559633027523,420.0 145.96330275229357,420.0 134.77064220183487,420.0 123.57798165137615,420.0 112.38532110091744,420.0 101.19266055045871,420.0 90.0,420.0" fill="#facc15" fill-opacity="0.70" stroke="#facc15" stroke-width="1.2"/>
<polygon points="90.0,292.24192045982056 101.19266055045871,274.8512448862492 112.38532110091744,286.3353307417976 123.57798165137615,283.5979840480458 134.77064220183487,283.7051271311772 145.96330275229357,286.8706856514334 157.1559633027523,288.9138471068766 168.348623853211,266.66315678887884 179.54128440366975,258.5500815830477 190.73394495412845,258.8249599539435 201.92660550458714,259.02039718380485 213.1192660550459,261.64649290780494 224.3119266055046,265.2878705823016 235.50458715596332,263.8569736998461 246.69724770642202,272.94624946007355 257.88990825688074,262.8691927547212 269.0825688073395,264.190593824461 280.27522935779814,267.17701927711164 291.4678899082569,286.56884645542846 302.66055045871565,280.49203972617454 313.8532110091743,282.7196267313979 325.04587155963304,282.1590602973207 336.2385321100918,285.6549109378807 347.4311926605505,289.93423783814944 358.6238532110092,291.7504921313032 369.8165137614679,284.31085717437827 381.00917431192664,285.7118915709991 392.20183486238534,290.1439791200531 403.39449541284404,280.1106413483308 414.5871559633028,275.7728186708375 425.7798165137615,274.88368837479965 436.9724770642202,276.9987119280347 448.16513761467894,254.573287788746 459.35779816513764,258.8567479792811 470.55045871559633,254.40292173769396 481.7431192660551,243.68191889081461 492.9357798165138,238.68503477240893 504.1284403669725,228.67675799625755 515.3211009174313,242.61657972749003 526.5137614678899,244.49347403907444 537.7064220183486,234.13554752538417 548.8990825688074,247.8573431528628 560.0917431192661,244.73946001728996 571.2844036697247,247.52261486180495 582.4770642201836,250.09509538834402 593.6697247706422,252.98971738132786 604.862385321101,250.06455787122994 616.0550458715596,255.53780320695253 627.2477064220184,264.60824123963295 638.4403669724771,272.1450383764445 649.6330275229358,270.94622870551234 660.8256880733945,266.06196259525655 672.0183486238533,273.1502082238964 683.2110091743119,280.5482159915667 694.4036697247707,279.05458163125553 705.5963302752293,280.61731509154015 716.7889908256881,270.84837694806106 727.9816513761467,268.1330376608647 739.1743119266056,249.04006162448482 750.3669724770642,247.21147903734112 761.559633027523,244.97385329375524 772.7522935779816,243.8877528101878 783.9449541284404,242.269901889422 795.137614678899,245.58227364291918 806.3302752293579,248.83267306048214 817.5229357798165,246.38362906161134 828.7155963302753,244.53167094320193 839.9082568807339,231.43654004468968 851.1009174311927,210.33690194910693 862.2935779816513,209.73478810801168 873.4862385321102,212.2308635381506 884.6788990825688,199.25287407648997 895.8715596330276,197.311308924547 907.0642201834862,196.1646330979909 918.256880733945,198.04948113790581 929.4495412844036,198.64455207627572 940.6422018348625,193.85533007090606 951.8348623853211,201.75774310963865 963.0275229357799,201.79322520112026 974.2201834862385,191.14180511948348 985.4128440366973,201.80096764157827 996.6055045871559,208.35703453115372 1007.7981651376148,205.4638127280228 1018.9908256880734,218.0263733023448 1030.1834862385322,219.27015476953872 1041.3761467889908,232.45126805598574 1052.5688073394494,234.63305446883646 1063.761467889908,238.72179231770863 1074.9541284403672,231.21507611760765 1086.1467889908258,235.49533263083435 1097.3394495412845,234.82176523125986 1108.532110091743,237.00801035748327 1119.724770642202,230.2136311374051 1130.9174311926606,233.89899897859067 1142.1100917431193,231.9016199769328 1153.302752293578,238.80823220156446 1164.4954128440368,253.82673369183345 1175.6880733944954,260.319295031476 1186.8807339449543,263.41969163043507 1198.073394495413,267.44525090721345 1209.2660550458716,263.3739343525886 1220.4587155963302,264.6518382119126 1231.651376146789,255.57961843441942 1242.8440366972477,261.284246186721 1254.0366972477066,265.05135744431846 1265.2293577981652,263.21453201849 1276.4220183486239,256.50096471077757 1287.6146788990825,258.3908481395432 1298.8073394495414,259.08394338348614 1310.0,258.27094871570216 1310.0,323.16628297480963 1298.8073394495414,322.40028968644 1287.6146788990825,321.6342963980703 1276.4220183486239,320.8683031097007 1265.2293577981652,320.10230982133106 1254.0366972477066,319.33631653296146 1242.8440366972477,318.5703232445918 1231.651376146789,317.80432995622215 1220.4587155963302,317.0383366678525 1209.2660550458716,316.2723433794829 1198.073394495413,315.50635009111323 1186.8807339449543,314.7403568027436 1175.6880733944954,313.974363514374 1164.4954128440368,313.2083702260043 1153.302752293578,312.44237693763466 1142.1100917431193,311.67638364926506 1130.9174311926606,310.9103903608954 1119.724770642202,310.14439707252575 1108.532110091743,309.37840378415615 1097.3394495412845,308.6124104957865 1086.1467889908258,307.84641720741683 1074.9541284403672,307.08042391904723 1063.761467889908,306.3144306306776 1052.5688073394494,305.5484373423079 1041.3761467889908,304.7824440539383 1030.1834862385322,304.0164507655686 1018.9908256880734,303.250457477199 1007.7981651376148,302.48446418882935 996.6055045871559,301.71847090045975 985.4128440366973,300.9524776120901 974.2201834862385,300.1864843237205 963.0275229357799,300.9999404823603 951.8348623853211,300.2339471939906 940.6422018348625,299.467953905621 929.4495412844036,300.46764072842296 918.256880733945,300.6335261578485 907.0642201834862,301.74821157756855 895.8715596330276,304.3851562896893 884.6788990825688,307.2962761724975 873.4862385321102,310.9471169319613 862.2935779816513,311.89229318602537 851.1009174311927,314.1652298396922 839.9082568807339,317.87316333567435 828.7155963302753,317.1071700473047 817.5229357798165,316.9794447896792 806.3302752293579,316.9796201269944 795.137614678899,317.06074446407024 783.9449541284404,317.1647397478645 772.7522935779816,316.3987464594948 761.559633027523,315.8587550410408 750.3669724770642,316.73434375518525 739.1743119266056,317.2809263081698 727.9816513761467,317.6201816218301 716.7889908256881,319.41593030822776 705.5963302752293,322.8944953659056 694.4036697247707,322.1285020775359 683.2110091743119,321.3625087891663 672.0183486238533,320.59651550079667 660.8256880733945,319.830522212427 649.6330275229358,320.3479169308381 638.4403669724771,319.5819236424685 627.2477064220184,318.81593035409884 616.0550458715596,318.53123790643565 604.862385321101,318.4232437158373 593.6697247706422,318.9284396625599 582.4770642201836,321.11201265383863 571.2844036697247,325.46360259339383 560.0917431192661,324.6976093050242 548.8990825688074,323.9316160166545 537.7064220183486,323.16562272828486 526.5137614678899,325.13603915245744 515.3211009174313,324.37004586408784 504.1284403669725,323.6040525757182 492.9357798165138,327.27629096624514 481.7431192660551,330.25003692653104 470.55045871559633,335.1537634721585 459.35779816513764,334.38777018378886 448.16513761467894,333.6217768954192 436.9724770642202,332.8557836070496 425.7798165137615,334.26108318241836 414.5871559633028,337.05947362313384 403.39449541284404,340.1777555137743 392.20183486238534,345.126911520702 381.00917431192664,344.3609182323323 369.8165137614679,343.5949249439627 358.6238532110092,342.82893165559307 347.4311926605505,342.0629383672234 336.2385321100918,341.2969450788538 325.04587155963304,340.53095179048415 313.8532110091743,339.7649585021145 302.66055045871565,338.99896521374484 291.4678899082569,338.2329719253752 280.27522935779814,337.4669786370056 269.0825688073395,336.7009853486359 257.88990825688074,335.93499206026627 246.69724770642202,335.8836470616085 235.50458715596332,335.1176537732389 224.3119266055046,334.3516604848692 213.1192660550459,333.58566719649957 201.92660550458714,333.763577756785 190.73394495412845,335.2182605961931 179.54128440366975,337.0757700215477 168.348623853211,340.20250910894316 157.1559633027523,347.8583871007962 145.96330275229357,347.6649522296768 134.77064220183487,347.13115157735473 123.57798165137615,346.36515828898507 112.38532110091744,346.80343374037216 101.19266055045871,346.38805788882223 90.0,359.7613563547729" fill="#2563eb" fill-opacity="0.70" stroke="#2563eb" stroke-width="1.2"/>
<polygon points="90.0,181.12438022729728 101.19266055045871,174.39526254969772 112.38532110091744,197.3064992547421 123.57798165137615,190.61012650781333 134.77064220183487,194.52659478893463 145.96330275229357,198.49481943939892 157.1559633027523,201.0491740787973 168.348623853211,174.97014049603263 179.54128440366975,173.01552294174414 190.73394495412845,176.24326051797684 201.92660550458714,177.42796734580085 213.1192660550459,184.15575126088814 224.3119266055046,194.66273456393088 235.50458715596332,189.84029673271158 246.69724770642202,205.7688120829051 257.88990825688074,186.47661523915662 269.0825688073395,184.11067164858878 280.27522935779814,187.6466957855033 291.4678899082569,221.83269600723122 302.66055045871565,208.9870460459202 313.8532110091743,210.718534286992 325.04587155963304,205.6726918582869 336.2385321100918,213.28924677616203 347.4311926605505,219.7379974542332 358.6238532110092,219.75038592147462 369.8165137614679,205.58215877211538 381.00917431192664,206.64695728352763 392.20183486238534,212.07118881678045 403.39449541284404,202.51825348773815 414.5871559633028,200.1777953949995 425.7798165137615,199.57589374624882 436.9724770642202,205.75921705691817 448.16513761467894,160.92651014959904 459.35779816513764,162.9813023496157 470.55045871559633,155.51807078775295 481.7431192660551,147.03975423125365 492.9357798165138,143.92580868993014 504.1284403669725,128.84484282836496 515.3211009174313,153.067282834109 526.5137614678899,156.58704607978888 537.7064220183486,139.41544877458983 548.8990825688074,159.9527204395892 560.0917431192661,149.34648801126377 571.2844036697247,151.82416872636742 582.4770642201836,159.6959051657853 593.6697247706422,168.73509254137147 604.862385321101,168.13568968363055 616.0550458715596,177.53720518613648 627.2477064220184,191.26586021301551 638.4403669724771,204.90291332692178 649.6330275229358,198.64107378503513 660.8256880733945,191.63437581082752 672.0183486238533,202.58238302150255 683.2110091743119,212.4995695644103 694.4036697247707,205.9364476174157 705.5963302752293,204.5820757635711 716.7889908256881,192.14122705186338 727.9816513761467,191.86017597792798 739.1743119266056,166.99512307017213 750.3669724770642,163.84869153174571 761.559633027523,159.83231655332554 772.7522935779816,161.35771319351704 783.9449541284404,155.93096891909084 795.137614678899,162.42909669257443 806.3302752293579,167.25954645381054 817.5229357798165,163.83657513141344 828.7155963302753,161.3952409755338 839.9082568807339,139.01460686859645 851.1009174311927,119.40943790666216 862.2935779816513,117.9273688269655 873.4862385321102,122.38771062634623 884.6788990825688,106.17647387527825 895.8715596330276,105.74562284722225 907.0642201834862,109.0656417073256 918.256880733945,111.26916331050649 929.4495412844036,109.23149064082548 940.6422018348625,101.41969651004666 951.8348623853211,111.05770209266024 963.0275229357799,109.40002548169957 974.2201834862385,90.0 985.4128440366973,107.93645188048544 996.6055045871559,117.94146584499674 1007.7981651376148,111.78763169015582 1018.9908256880734,130.14927675314522 1030.1834862385322,131.48722610257812 1041.3761467889908,155.7811634858603 1052.5688073394494,160.7719395061216 1063.761467889908,166.13775709687334 1074.9541284403672,154.57057054918062 1086.1467889908258,162.04951704039019 1097.3394495412845,159.17479776281635 1108.532110091743,162.2132398781559 1119.724770642202,149.23223332426403 1130.9174311926606,154.84833138468542 1142.1100917431193,151.27894603207324 1153.302752293578,161.55641622657618 1164.4954128440368,184.58077579096425 1175.6880733944954,198.2295000560099 1186.8807339449543,202.04859501798984 1198.073394495413,209.46331877008637 1209.2660550458716,201.23519669170656 1220.4587155963302,202.49106318823718 1231.651376146789,187.1730443706201 1242.8440366972477,196.1597379756304 1254.0366972477066,203.34528149620277 1265.2293577981652,199.16858036239228 1276.4220183486239,186.87011138936325 1287.6146788990825,187.0499096461035 1298.8073394495414,185.94986898339914 1310.0,182.40197067847802 1310.0,258.27094871570216 1298.8073394495414,259.08394338348614 1287.6146788990825,258.3908481395432 1276.4220183486239,256.50096471077757 1265.2293577981652,263.21453201849 1254.0366972477066,265.05135744431846 1242.8440366972477,261.284246186721 1231.651376146789,255.57961843441942 1220.4587155963302,264.6518382119126 1209.2660550458716,263.3739343525886 1198.073394495413,267.44525090721345 1186.8807339449543,263.41969163043507 1175.6880733944954,260.319295031476 1164.4954128440368,253.82673369183345 1153.302752293578,238.80823220156446 1142.1100917431193,231.9016199769328 1130.9174311926606,233.89899897859067 1119.724770642202,230.2136311374051 1108.532110091743,237.00801035748327 1097.3394495412845,234.82176523125986 1086.1467889908258,235.49533263083435 1074.9541284403672,231.21507611760765 1063.761467889908,238.72179231770863 1052.5688073394494,234.63305446883646 1041.3761467889908,232.45126805598574 1030.1834862385322,219.27015476953872 1018.9908256880734,218.0263733023448 1007.7981651376148,205.4638127280228 996.6055045871559,208.35703453115372 985.4128440366973,201.80096764157827 974.2201834862385,191.14180511948348 963.0275229357799,201.79322520112026 951.8348623853211,201.75774310963865 940.6422018348625,193.85533007090606 929.4495412844036,198.64455207627572 918.256880733945,198.04948113790581 907.0642201834862,196.1646330979909 895.8715596330276,197.311308924547 884.6788990825688,199.25287407648997 873.4862385321102,212.2308635381506 862.2935779816513,209.73478810801168 851.1009174311927,210.33690194910693 839.9082568807339,231.43654004468968 828.7155963302753,244.53167094320193 817.5229357798165,246.38362906161134 806.3302752293579,248.83267306048214 795.137614678899,245.58227364291918 783.9449541284404,242.269901889422 772.7522935779816,243.8877528101878 761.559633027523,244.97385329375524 750.3669724770642,247.21147903734112 739.1743119266056,249.04006162448482 727.9816513761467,268.1330376608647 716.7889908256881,270.84837694806106 705.5963302752293,280.61731509154015 694.4036697247707,279.05458163125553 683.2110091743119,280.5482159915667 672.0183486238533,273.1502082238964 660.8256880733945,266.06196259525655 649.6330275229358,270.94622870551234 638.4403669724771,272.1450383764445 627.2477064220184,264.60824123963295 616.0550458715596,255.53780320695253 604.862385321101,250.06455787122994 593.6697247706422,252.98971738132786 582.4770642201836,250.09509538834402 571.2844036697247,247.52261486180495 560.0917431192661,244.73946001728996 548.8990825688074,247.8573431528628 537.7064220183486,234.13554752538417 526.5137614678899,244.49347403907444 515.3211009174313,242.61657972749003 504.1284403669725,228.67675799625755 492.9357798165138,238.68503477240893 481.7431192660551,243.68191889081461 470.55045871559633,254.40292173769396 459.35779816513764,258.8567479792811 448.16513761467894,254.573287788746 436.9724770642202,276.9987119280347 425.7798165137615,274.88368837479965 414.5871559633028,275.7728186708375 403.39449541284404,280.1106413483308 392.20183486238534,290.1439791200531 381.00917431192664,285.7118915709991 369.8165137614679,284.31085717437827 358.6238532110092,291.7504921313032 347.4311926605505,289.93423783814944 336.2385321100918,285.6549109378807 325.04587155963304,282.1590602973207 313.8532110091743,282.7196267313979 302.66055045871565,280.49203972617454 291.4678899082569,286.56884645542846 280.27522935779814,267.17701927711164 269.0825688073395,264.190593824461 257.88990825688074,262.8691927547212 246.69724770642202,272.94624946007355 235.50458715596332,263.8569736998461 224.3119266055046,265.2878705823016 213.1192660550459,261.64649290780494 201.92660550458714,259.02039718380485 190.73394495412845,258.8249599539435 179.54128440366975,258.5500815830477 168.348623853211,266.66315678887884 157.1559633027523,288.9138471068766 145.96330275229357,286.8706856514334 134.77064220183487,283.7051271311772 123.57798165137615,283.5979840480458 112.38532110091744,286.3353307417976 101.19266055045871,274.8512448862492 90.0,292.24192045982056" fill="#f97316" fill-opacity="0.70" stroke="#f97316" stroke-width="1.2"/>
<rect x="1100" y="76" width="16" height="12" fill="#f97316" fill-opacity="0.70" stroke="#f97316"/>
<text x="1124" y="86" font-family="monospace" font-size="12" fill="#0f172a">BTC</text>
<rect x="1100" y="98" width="16" height="12" fill="#2563eb" fill-opacity="0.70" stroke="#2563eb"/>
<text x="1124" y="108" font-family="monospace" font-size="12" fill="#0f172a">ETH</text>
<rect x="1100" y="120" width="16" height="12" fill="#facc15" fill-opacity="0.70" stroke="#facc15"/>
<text x="1124" y="130" font-family="monospace" font-size="12" fill="#0f172a">DAI</text>
<text x="700.0" y="782" text-anchor="middle" font-family="monospace" font-size="16" fill="#0f172a">time</text>
<text x="24" y="255.0" transform="rotate(-90 24,255.0)" text-anchor="middle" font-family="monospace" font-size="16" fill="#0f172a">asset value split (usd)</text>
<line x1="90" y1="605" x2="1310" y2="605" stroke="#334155" stroke-width="2"/>
<line x1="90" y1="480" x2="90" y2="605" stroke="#334155" stroke-width="2"/>
<line x1="90" y1="542.5" x2="1310" y2="542.5" stroke="#64748b" stroke-width="1.5" stroke-dasharray="6 4"/>
<line x1="90" y1="605.0" x2="1310" y2="605.0" stroke="#e2e8f0" stroke-width="1"/>
<text x="78" y="609.0" text-anchor="end" font-family="monospace" font-size="11" fill="#475569">-5828</text>
<line x1="90" y1="542.5" x2="1310" y2="542.5" stroke="#e2e8f0" stroke-width="1"/>
<text x="78" y="546.5" text-anchor="end" font-family="monospace" font-size="11" fill="#475569">0</text>
<line x1="90" y1="480.0" x2="1310" y2="480.0" stroke="#e2e8f0" stroke-width="1"/>
<text x="78" y="484.0" text-anchor="end" font-family="monospace" font-size="11" fill="#475569">5828</text>
<rect x="86.95" y="542.5" width="6.1000000000000005" height="62.5" fill="#dc2626" opacity="0.85"><title>2024-04-01 | BTC sell 5828.24 usd | reason=both_assets_expensive</title></rect>
<rect x="98.14266055045871" y="542.5" width="6.1000000000000005" height="38.51668191717533" fill="#dc2626" opacity="0.85"><title>2024-04-08 | BTC sell 3591.75 usd | reason=both_assets_expensive</title></rect>
<rect x="109.33532110091744" y="542.4093404422609" width="6.1000000000000005" height="1.5" fill="#ea580c" opacity="0.85"><title>2024-04-15 | BTC buy 8.45 usd | reason=mixed_regime</title></rect>
<rect x="120.52798165137615" y="542.5" width="6.1000000000000005" height="2.2995054859856054" fill="#dc2626" opacity="0.85"><title>2024-04-22 | BTC sell 214.43 usd | reason=mixed_regime</title></rect>
<rect x="131.72064220183486" y="541.427635689602" width="6.1000000000000005" height="1.5" fill="#ea580c" opacity="0.85"><title>2024-04-29 | BTC buy 100.00 usd | reason=mixed_regime</title></rect>
<rect x="142.91330275229356" y="542.077759130147" width="6.1000000000000005" height="1.5" fill="#ea580c" opacity="0.85"><title>2024-05-06 | BTC buy 39.37 usd | reason=mixed_regime</title></rect>
<rect x="154.1059633027523" y="542.5" width="6.1000000000000005" height="1.5" fill="#dc2626" opacity="0.85"><title>2024-05-13 | BTC sell 49.49 usd | reason=mixed_regime</title></rect>
<rect x="165.29862385321098" y="542.5" width="6.1000000000000005" height="22.50829709957179" fill="#dc2626" opacity="0.85"><title>2024-05-20 | BTC sell 2098.94 usd | reason=both_assets_expensive</title></rect>
<rect x="176.49128440366974" y="542.5" width="6.1000000000000005" height="9.827019099569952" fill="#dc2626" opacity="0.85"><title>2024-05-27 | BTC sell 916.39 usd | reason=both_assets_expensive</title></rect>
<rect x="187.68394495412844" y="542.5" width="6.1000000000000005" height="6.273263180459708" fill="#dc2626" opacity="0.85"><title>2024-06-03 | BTC sell 584.99 usd | reason=both_assets_expensive</title></rect>
<rect x="198.87660550458713" y="542.5" width="6.1000000000000005" height="5.145376394485311" fill="#dc2626" opacity="0.85"><title>2024-06-10 | BTC sell 479.82 usd | reason=both_assets_expensive</title></rect>
<rect x="210.0692660550459" y="542.5" width="6.1000000000000005" height="1.5705016653587336" fill="#dc2626" opacity="0.85"><title>2024-06-17 | BTC sell 146.45 usd | reason=both_assets_expensive</title></rect>
<rect x="221.26192660550458" y="541.427635689602" width="6.1000000000000005" height="1.5" fill="#ea580c" opacity="0.85"><title>2024-06-24 | BTC buy 100.00 usd | reason=mixed_regime</title></rect>
<rect x="232.4545871559633" y="541.427635689602" width="6.1000000000000005" height="1.5" fill="#ea580c" opacity="0.85"><title>2024-07-01 | BTC buy 100.00 usd | reason=mixed_regime</title></rect>
<rect x="243.647247706422" y="541.427635689602" width="6.1000000000000005" height="1.5" fill="#ea580c" opacity="0.85"><title>2024-07-08 | BTC buy 100.00 usd | reason=both_assets_cheap</title></rect>
<rect x="254.83990825688073" y="542.5" width="6.1000000000000005" height="1.5" fill="#dc2626" opacity="0.85"><title>2024-07-15 | BTC sell 86.59 usd | reason=both_assets_expensive</title></rect>
<rect x="266.0325688073395" y="541.427635689602" width="6.1000000000000005" height="1.5" fill="#ea580c" opacity="0.85"><title>2024-07-22 | BTC buy 100.00 usd | reason=mixed_regime</title></rect>
<rect x="277.2252293577981" y="541.427635689602" width="6.1000000000000005" height="1.5" fill="#ea580c" opacity="0.85"><title>2024-07-29 | BTC buy 100.00 usd | reason=mixed_regime</title></rect>
<rect x="288.4178899082569" y="541.427635689602" width="6.1000000000000005" height="1.5" fill="#ea580c" opacity="0.85"><title>2024-08-05 | BTC buy 100.00 usd | reason=both_assets_cheap</title></rect>
<rect x="299.61055045871564" y="541.427635689602" width="6.1000000000000005" height="1.5" fill="#ea580c" opacity="0.85"><title>2024-08-12 | BTC buy 100.00 usd | reason=both_assets_cheap</title></rect>
<rect x="310.8032110091743" y="541.427635689602" width="6.1000000000000005" height="1.5" fill="#ea580c" opacity="0.85"><title>2024-08-19 | BTC buy 100.00 usd | reason=both_assets_cheap</title></rect>
<rect x="321.99587155963303" y="541.427635689602" width="6.1000000000000005" height="1.5" fill="#ea580c" opacity="0.85"><title>2024-08-26 | BTC buy 100.00 usd | reason=both_assets_cheap</title></rect>
<rect x="333.1885321100918" y="541.427635689602" width="6.1000000000000005" height="1.5" fill="#ea580c" opacity="0.85"><title>2024-09-02 | BTC buy 100.00 usd | reason=both_assets_cheap</title></rect>
<rect x="344.3811926605505" y="541.427635689602" width="6.1000000000000005" height="1.5" fill="#ea580c" opacity="0.85"><title>2024-09-09 | BTC buy 100.00 usd | reason=both_assets_cheap</title></rect>
<rect x="355.5738532110092" y="541.427635689602" width="6.1000000000000005" height="1.5" fill="#ea580c" opacity="0.85"><title>2024-09-16 | BTC buy 100.00 usd | reason=both_assets_cheap</title></rect>
<rect x="366.7665137614679" y="541.427635689602" width="6.1000000000000005" height="1.5" fill="#ea580c" opacity="0.85"><title>2024-09-23 | BTC buy 100.00 usd | reason=both_assets_cheap</title></rect>
<rect x="377.95917431192663" y="541.427635689602" width="6.1000000000000005" height="1.5" fill="#ea580c" opacity="0.85"><title>2024-09-30 | BTC buy 100.00 usd | reason=both_assets_cheap</title></rect>
<rect x="389.15183486238533" y="541.427635689602" width="6.1000000000000005" height="1.5" fill="#ea580c" opacity="0.85"><title>2024-10-07 | BTC buy 100.00 usd | reason=both_assets_cheap</title></rect>
<rect x="400.344495412844" y="542.5" width="6.1000000000000005" height="14.929661362484467" fill="#dc2626" opacity="0.85"><title>2024-10-14 | BTC sell 1392.22 usd | reason=mixed_regime_eth_tilt</title></rect>
<rect x="411.5371559633028" y="542.5" width="6.1000000000000005" height="9.803339529255595" fill="#dc2626" opacity="0.85"><title>2024-10-21 | BTC sell 914.18 usd | reason=mixed_regime_eth_tilt</title></rect>
<rect x="422.7298165137615" y="542.5" width="6.1000000000000005" height="8.90766543051484" fill="#dc2626" opacity="0.85"><title>2024-10-28 | BTC sell 830.66 usd | reason=mixed_regime_eth_tilt</title></rect>
<rect x="433.9224770642202" y="542.5" width="6.1000000000000005" height="5.007106645413842" fill="#dc2626" opacity="0.85"><title>2024-11-04 | BTC sell 466.92 usd | reason=mixed_regime_eth_tilt</title></rect>
<rect x="445.11513761467893" y="541.427635689602" width="6.1000000000000005" height="1.5" fill="#ea580c" opacity="0.85"><title>2024-11-11 | BTC buy 100.00 usd | reason=mixed_regime</title></rect>
<rect x="456.3077981651376" y="541.427635689602" width="6.1000000000000005" height="1.5" fill="#ea580c" opacity="0.85"><title>2024-11-18 | BTC buy 100.00 usd | reason=mixed_regime</title></rect>
<rect x="467.5004587155963" y="541.427635689602" width="6.1000000000000005" height="1.5" fill="#ea580c" opacity="0.85"><title>2024-11-25 | BTC buy 100.00 usd | reason=mixed_regime</title></rect>
<rect x="478.6931192660551" y="542.5" width="6.1000000000000005" height="14.80246198964744" fill="#dc2626" opacity="0.85"><title>2024-12-02 | BTC sell 1380.36 usd | reason=both_assets_expensive</title></rect>
<rect x="489.8857798165138" y="542.5" width="6.1000000000000005" height="9.398648846880974" fill="#dc2626" opacity="0.85"><title>2024-12-09 | BTC sell 876.44 usd | reason=both_assets_expensive</title></rect>
<rect x="501.0784403669725" y="542.5" width="6.1000000000000005" height="9.718541340187471" fill="#dc2626" opacity="0.85"><title>2024-12-16 | BTC sell 906.27 usd | reason=both_assets_expensive</title></rect>
<rect x="512.2711009174313" y="541.427635689602" width="6.1000000000000005" height="1.5" fill="#ea580c" opacity="0.85"><title>2024-12-23 | BTC buy 100.00 usd | reason=mixed_regime</title></rect>
<rect x="523.46376146789" y="541.427635689602" width="6.1000000000000005" height="1.5" fill="#ea580c" opacity="0.85"><title>2024-12-30 | BTC buy 100.00 usd | reason=mixed_regime</title></rect>
<rect x="534.6564220183486" y="542.5" width="6.1000000000000005" height="6.58939502590772" fill="#dc2626" opacity="0.85"><title>2025-01-06 | BTC sell 614.47 usd | reason=both_assets_expensive</title></rect>
<rect x="545.8490825688075" y="541.427635689602" width="6.1000000000000005" height="1.5" fill="#ea580c" opacity="0.85"><title>2025-01-13 | BTC buy 100.00 usd | reason=mixed_regime</title></rect>
<rect x="557.0417431192661" y="541.427635689602" width="6.1000000000000005" height="1.5" fill="#ea580c" opacity="0.85"><title>2025-01-20 | BTC buy 100.00 usd | reason=mixed_regime</title></rect>
<rect x="568.2344036697248" y="541.427635689602" width="6.1000000000000005" height="1.5" fill="#ea580c" opacity="0.85"><title>2025-01-27 | BTC buy 100.00 usd | reason=mixed_regime</title></rect>
<rect x="579.4270642201836" y="542.5" width="6.1000000000000005" height="13.256517397687844" fill="#dc2626" opacity="0.85"><title>2025-02-03 | BTC sell 1236.20 usd | reason=mixed_regime_eth_tilt</title></rect>
<rect x="590.6197247706423" y="542.5" width="6.1000000000000005" height="7.186218780272611" fill="#dc2626" opacity="0.85"><title>2025-02-10 | BTC sell 670.13 usd | reason=mixed_regime_eth_tilt</title></rect>
<rect x="601.812385321101" y="542.5" width="6.1000000000000005" height="2.4868782787283408" fill="#dc2626" opacity="0.85"><title>2025-02-17 | BTC sell 231.91 usd | reason=mixed_regime_eth_tilt</title></rect>
<rect x="613.0050458715597" y="542.5" width="6.1000000000000005" height="1.5" fill="#dc2626" opacity="0.85"><title>2025-02-24 | BTC sell 71.80 usd | reason=mixed_regime_eth_tilt</title></rect>
<rect x="624.1977064220184" y="542.5" width="6.1000000000000005" height="1.5" fill="#dc2626" opacity="0.85"><title>2025-03-03 | BTC sell 25.67 usd | reason=mixed_regime_eth_tilt</title></rect>
<rect x="635.3903669724772" y="541.427635689602" width="6.1000000000000005" height="1.5" fill="#ea580c" opacity="0.85"><title>2025-03-10 | BTC buy 100.00 usd | reason=both_assets_cheap</title></rect>
<rect x="646.5830275229358" y="541.427635689602" width="6.1000000000000005" height="1.5" fill="#ea580c" opacity="0.85"><title>2025-03-17 | BTC buy 100.00 usd | reason=both_assets_cheap</title></rect>
<rect x="657.7756880733946" y="542.5" width="6.1000000000000005" height="2.5210340019913247" fill="#dc2626" opacity="0.85"><title>2025-03-24 | BTC sell 235.09 usd | reason=mixed_regime_eth_tilt</title></rect>
<rect x="668.9683486238533" y="541.427635689602" width="6.1000000000000005" height="1.5" fill="#ea580c" opacity="0.85"><title>2025-03-31 | BTC buy 100.00 usd | reason=both_assets_cheap</title></rect>
<rect x="680.161009174312" y="541.427635689602" width="6.1000000000000005" height="1.5" fill="#ea580c" opacity="0.85"><title>2025-04-07 | BTC buy 100.00 usd | reason=both_assets_cheap</title></rect>
<rect x="691.3536697247707" y="541.427635689602" width="6.1000000000000005" height="1.5" fill="#ea580c" opacity="0.85"><title>2025-04-14 | BTC buy 100.00 usd | reason=both_assets_cheap</title></rect>
<rect x="702.5463302752294" y="541.427635689602" width="6.1000000000000005" height="1.5" fill="#ea580c" opacity="0.85"><title>2025-04-21 | BTC buy 100.00 usd | reason=both_assets_cheap</title></rect>
<rect x="713.7389908256881" y="542.5" width="6.1000000000000005" height="10.812107662956691" fill="#dc2626" opacity="0.85"><title>2025-04-28 | BTC sell 1008.25 usd | reason=mixed_regime_eth_tilt</title></rect>
<rect x="724.9316513761468" y="542.5" width="6.1000000000000005" height="6.100337351351641" fill="#dc2626" opacity="0.85"><title>2025-05-05 | BTC sell 568.87 usd | reason=mixed_regime_eth_tilt</title></rect>
<rect x="736.1243119266056" y="542.5" width="6.1000000000000005" height="2.0222558982383134" fill="#dc2626" opacity="0.85"><title>2025-05-12 | BTC sell 188.58 usd | reason=mixed_regime_eth_tilt</title></rect>
<rect x="747.3169724770643" y="542.5" width="6.1000000000000005" height="2.602757935006366" fill="#dc2626" opacity="0.85"><title>2025-05-19 | BTC sell 242.71 usd | reason=mixed_regime_eth_tilt</title></rect>
<rect x="758.509633027523" y="542.5" width="6.1000000000000005" height="3.523952599465815" fill="#dc2626" opacity="0.85"><title>2025-05-26 | BTC sell 328.62 usd | reason=mixed_regime_eth_tilt</title></rect>
<rect x="769.7022935779817" y="542.0604254099834" width="6.1000000000000005" height="1.5" fill="#ea580c" opacity="0.85"><title>2025-06-02 | BTC buy 40.99 usd | reason=mixed_regime_eth_tilt</title></rect>
<rect x="780.8949541284404" y="541.427635689602" width="6.1000000000000005" height="1.5" fill="#ea580c" opacity="0.85"><title>2025-06-09 | BTC buy 100.00 usd | reason=mixed_regime</title></rect>
<rect x="792.0876146788991" y="542.5" width="6.1000000000000005" height="1.5" fill="#dc2626" opacity="0.85"><title>2025-06-16 | BTC sell 127.15 usd | reason=mixed_regime_eth_tilt</title></rect>
<rect x="803.2802752293579" y="542.5" width="6.1000000000000005" height="1.5" fill="#dc2626" opacity="0.85"><title>2025-06-23 | BTC sell 121.18 usd | reason=mixed_regime_eth_tilt</title></rect>
<rect x="814.4729357798166" y="542.5" width="6.1000000000000005" height="1.5" fill="#dc2626" opacity="0.85"><title>2025-06-30 | BTC sell 100.05 usd | reason=mixed_regime_eth_tilt</title></rect>
<rect x="825.6655963302753" y="542.5" width="6.1000000000000005" height="1.5" fill="#dc2626" opacity="0.85"><title>2025-07-07 | BTC sell 66.65 usd | reason=mixed_regime_eth_tilt</title></rect>
<rect x="836.858256880734" y="541.427635689602" width="6.1000000000000005" height="1.5" fill="#ea580c" opacity="0.85"><title>2025-07-14 | BTC buy 100.00 usd | reason=mixed_regime</title></rect>
<rect x="848.0509174311927" y="541.427635689602" width="6.1000000000000005" height="1.5" fill="#ea580c" opacity="0.85"><title>2025-07-21 | BTC buy 100.00 usd | reason=both_assets_expensive</title></rect>
<rect x="859.2435779816514" y="541.427635689602" width="6.1000000000000005" height="1.5" fill="#ea580c" opacity="0.85"><title>2025-07-28 | BTC buy 100.00 usd | reason=both_assets_expensive</title></rect>
<rect x="870.4362385321102" y="541.427635689602" width="6.1000000000000005" height="1.5" fill="#ea580c" opacity="0.85"><title>2025-08-04 | BTC buy 100.00 usd | reason=both_assets_expensive</title></rect>
<rect x="881.6288990825689" y="541.427635689602" width="6.1000000000000005" height="1.5" fill="#ea580c" opacity="0.85"><title>2025-08-11 | BTC buy 100.00 usd | reason=both_assets_expensive</title></rect>
<rect x="892.8215596330276" y="541.427635689602" width="6.1000000000000005" height="1.5" fill="#ea580c" opacity="0.85"><title>2025-08-18 | BTC buy 100.00 usd | reason=both_assets_expensive</title></rect>
<rect x="904.0142201834863" y="541.427635689602" width="6.1000000000000005" height="1.5" fill="#ea580c" opacity="0.85"><title>2025-08-25 | BTC buy 100.00 usd | reason=both_assets_expensive</title></rect>
<rect x="915.206880733945" y="541.427635689602" width="6.1000000000000005" height="1.5" fill="#ea580c" opacity="0.85"><title>2025-09-01 | BTC buy 100.00 usd | reason=both_assets_expensive</title></rect>
<rect x="926.3995412844037" y="541.427635689602" width="6.1000000000000005" height="1.5" fill="#ea580c" opacity="0.85"><title>2025-09-08 | BTC buy 100.00 usd | reason=both_assets_expensive</title></rect>
<rect x="937.5922018348625" y="541.427635689602" width="6.1000000000000005" height="1.5" fill="#ea580c" opacity="0.85"><title>2025-09-15 | BTC buy 100.00 usd | reason=both_assets_expensive</title></rect>
<rect x="948.7848623853212" y="541.427635689602" width="6.1000000000000005" height="1.5" fill="#ea580c" opacity="0.85"><title>2025-09-22 | BTC buy 100.00 usd | reason=both_assets_expensive</title></rect>
<rect x="959.9775229357799" y="541.427635689602" width="6.1000000000000005" height="1.5" fill="#ea580c" opacity="0.85"><title>2025-09-29 | BTC buy 100.00 usd | reason=both_assets_expensive</title></rect>
<rect x="971.1701834862386" y="541.427635689602" width="6.1000000000000005" height="1.5" fill="#ea580c" opacity="0.85"><title>2025-10-06 | BTC buy 100.00 usd | reason=both_assets_expensive</title></rect>
<rect x="982.3628440366973" y="541.427635689602" width="6.1000000000000005" height="1.5" fill="#ea580c" opacity="0.85"><title>2025-10-13 | BTC buy 100.00 usd | reason=both_assets_expensive</title></rect>
<rect x="993.555504587156" y="541.427635689602" width="6.1000000000000005" height="1.5" fill="#ea580c" opacity="0.85"><title>2025-10-20 | BTC buy 100.00 usd | reason=mixed_regime</title></rect>
<rect x="1004.7481651376148" y="541.427635689602" width="6.1000000000000005" height="1.5" fill="#ea580c" opacity="0.85"><title>2025-10-27 | BTC buy 100.00 usd | reason=both_assets_expensive</title></rect>
<rect x="1015.9408256880735" y="541.427635689602" width="6.1000000000000005" height="1.5" fill="#ea580c" opacity="0.85"><title>2025-11-03 | BTC buy 100.00 usd | reason=mixed_regime_btc_tilt</title></rect>
<rect x="1027.1334862385322" y="541.427635689602" width="6.1000000000000005" height="1.5" fill="#ea580c" opacity="0.85"><title>2025-11-10 | BTC buy 100.00 usd | reason=mixed_regime_btc_tilt</title></rect>
<rect x="1038.3261467889909" y="541.427635689602" width="6.1000000000000005" height="1.5" fill="#ea580c" opacity="0.85"><title>2025-11-17 | BTC buy 100.00 usd | reason=both_assets_cheap</title></rect>
<rect x="1049.5188073394495" y="541.427635689602" width="6.1000000000000005" height="1.5" fill="#ea580c" opacity="0.85"><title>2025-11-24 | BTC buy 100.00 usd | reason=both_assets_cheap</title></rect>
<rect x="1060.7114678899081" y="541.427635689602" width="6.1000000000000005" height="1.5" fill="#ea580c" opacity="0.85"><title>2025-12-01 | BTC buy 100.00 usd | reason=both_assets_cheap</title></rect>
<rect x="1071.9041284403672" y="541.427635689602" width="6.1000000000000005" height="1.5" fill="#ea580c" opacity="0.85"><title>2025-12-08 | BTC buy 100.00 usd | reason=both_assets_cheap</title></rect>
<rect x="1083.0967889908259" y="541.427635689602" width="6.1000000000000005" height="1.5" fill="#ea580c" opacity="0.85"><title>2025-12-15 | BTC buy 100.00 usd | reason=both_assets_cheap</title></rect>
<rect x="1094.2894495412845" y="541.427635689602" width="6.1000000000000005" height="1.5" fill="#ea580c" opacity="0.85"><title>2025-12-22 | BTC buy 100.00 usd | reason=both_assets_cheap</title></rect>
<rect x="1105.4821100917432" y="541.427635689602" width="6.1000000000000005" height="1.5" fill="#ea580c" opacity="0.85"><title>2025-12-29 | BTC buy 100.00 usd | reason=both_assets_cheap</title></rect>
<rect x="1116.674770642202" y="541.427635689602" width="6.1000000000000005" height="1.5" fill="#ea580c" opacity="0.85"><title>2026-01-05 | BTC buy 100.00 usd | reason=both_assets_cheap</title></rect>
<rect x="1127.8674311926607" y="541.427635689602" width="6.1000000000000005" height="1.5" fill="#ea580c" opacity="0.85"><title>2026-01-12 | BTC buy 100.00 usd | reason=both_assets_cheap</title></rect>
<rect x="1139.0600917431193" y="541.427635689602" width="6.1000000000000005" height="1.5" fill="#ea580c" opacity="0.85"><title>2026-01-19 | BTC buy 100.00 usd | reason=both_assets_cheap</title></rect>
<rect x="1150.252752293578" y="541.427635689602" width="6.1000000000000005" height="1.5" fill="#ea580c" opacity="0.85"><title>2026-01-26 | BTC buy 100.00 usd | reason=both_assets_cheap</title></rect>
<rect x="1161.4454128440368" y="541.427635689602" width="6.1000000000000005" height="1.5" fill="#ea580c" opacity="0.85"><title>2026-02-02 | BTC buy 100.00 usd | reason=both_assets_cheap</title></rect>
<rect x="1172.6380733944954" y="541.427635689602" width="6.1000000000000005" height="1.5" fill="#ea580c" opacity="0.85"><title>2026-02-09 | BTC buy 100.00 usd | reason=both_assets_cheap</title></rect>
<rect x="1183.8307339449543" y="541.427635689602" width="6.1000000000000005" height="1.5" fill="#ea580c" opacity="0.85"><title>2026-02-16 | BTC buy 100.00 usd | reason=both_assets_cheap</title></rect>
<rect x="1195.023394495413" y="541.427635689602" width="6.1000000000000005" height="1.5" fill="#ea580c" opacity="0.85"><title>2026-02-23 | BTC buy 100.00 usd | reason=both_assets_cheap</title></rect>
<rect x="1206.2160550458716" y="541.427635689602" width="6.1000000000000005" height="1.5" fill="#ea580c" opacity="0.85"><title>2026-03-02 | BTC buy 100.00 usd | reason=both_assets_cheap</title></rect>
<rect x="1217.4087155963302" y="541.427635689602" width="6.1000000000000005" height="1.5" fill="#ea580c" opacity="0.85"><title>2026-03-09 | BTC buy 100.00 usd | reason=both_assets_cheap</title></rect>
<rect x="1228.601376146789" y="541.427635689602" width="6.1000000000000005" height="1.5" fill="#ea580c" opacity="0.85"><title>2026-03-16 | BTC buy 100.00 usd | reason=both_assets_cheap</title></rect>
<rect x="1239.7940366972477" y="541.427635689602" width="6.1000000000000005" height="1.5" fill="#ea580c" opacity="0.85"><title>2026-03-23 | BTC buy 100.00 usd | reason=both_assets_cheap</title></rect>
<rect x="1250.9866972477066" y="541.427635689602" width="6.1000000000000005" height="1.5" fill="#ea580c" opacity="0.85"><title>2026-03-30 | BTC buy 100.00 usd | reason=both_assets_cheap</title></rect>
<rect x="1262.1793577981653" y="541.427635689602" width="6.1000000000000005" height="1.5" fill="#ea580c" opacity="0.85"><title>2026-04-06 | BTC buy 100.00 usd | reason=both_assets_cheap</title></rect>
<rect x="1273.372018348624" y="541.427635689602" width="6.1000000000000005" height="1.5" fill="#ea580c" opacity="0.85"><title>2026-04-13 | BTC buy 100.00 usd | reason=both_assets_cheap</title></rect>
<rect x="1284.5646788990825" y="541.427635689602" width="6.1000000000000005" height="1.5" fill="#ea580c" opacity="0.85"><title>2026-04-20 | BTC buy 100.00 usd | reason=both_assets_cheap</title></rect>
<rect x="1295.7573394495414" y="541.427635689602" width="6.1000000000000005" height="1.5" fill="#ea580c" opacity="0.85"><title>2026-04-27 | BTC buy 100.00 usd | reason=both_assets_cheap</title></rect>
<rect x="1306.95" y="541.427635689602" width="6.1000000000000005" height="1.5" fill="#ea580c" opacity="0.85"><title>2026-05-04 | BTC buy 100.00 usd | reason=both_assets_cheap</title></rect>
<text x="24" y="542.5" transform="rotate(-90 24,542.5)" text-anchor="middle" font-family="monospace" font-size="14" fill="#0f172a">BTC weekly trade usd</text>
<line x1="90" y1="770" x2="1310" y2="770" stroke="#334155" stroke-width="2"/>
<line x1="90" y1="645" x2="90" y2="770" stroke="#334155" stroke-width="2"/>
<line x1="90" y1="707.5" x2="1310" y2="707.5" stroke="#64748b" stroke-width="1.5" stroke-dasharray="6 4"/>
<line x1="90" y1="770.0" x2="1310" y2="770.0" stroke="#e2e8f0" stroke-width="1"/>
<text x="78" y="774.0" text-anchor="end" font-family="monospace" font-size="11" fill="#475569">-1068</text>
<line x1="90" y1="707.5" x2="1310" y2="707.5" stroke="#e2e8f0" stroke-width="1"/>
<text x="78" y="711.5" text-anchor="end" font-family="monospace" font-size="11" fill="#475569">0</text>
<line x1="90" y1="645.0" x2="1310" y2="645.0" stroke="#e2e8f0" stroke-width="1"/>
<text x="78" y="649.0" text-anchor="end" font-family="monospace" font-size="11" fill="#475569">1068</text>
<rect x="86.95" y="701.648692487676" width="6.1000000000000005" height="5.851307512323956" fill="#2563eb" opacity="0.85"><title>2024-04-01 | ETH buy 100.00 usd | reason=both_assets_expensive</title></rect>
<rect x="98.14266055045871" y="701.648692487676" width="6.1000000000000005" height="5.851307512323956" fill="#2563eb" opacity="0.85"><title>2024-04-08 | ETH buy 100.00 usd | reason=both_assets_expensive</title></rect>
<rect x="109.33532110091744" y="701.648692487676" width="6.1000000000000005" height="5.851307512323956" fill="#2563eb" opacity="0.85"><title>2024-04-15 | ETH buy 100.00 usd | reason=mixed_regime</title></rect>
<rect x="120.52798165137615" y="701.648692487676" width="6.1000000000000005" height="5.851307512323956" fill="#2563eb" opacity="0.85"><title>2024-04-22 | ETH buy 100.00 usd | reason=mixed_regime</title></rect>
<rect x="131.72064220183486" y="701.648692487676" width="6.1000000000000005" height="5.851307512323956" fill="#2563eb" opacity="0.85"><title>2024-04-29 | ETH buy 100.00 usd | reason=mixed_regime</title></rect>
<rect x="142.91330275229356" y="701.648692487676" width="6.1000000000000005" height="5.851307512323956" fill="#2563eb" opacity="0.85"><title>2024-05-06 | ETH buy 100.00 usd | reason=mixed_regime</title></rect>
<rect x="154.1059633027523" y="701.648692487676" width="6.1000000000000005" height="5.851307512323956" fill="#2563eb" opacity="0.85"><title>2024-05-13 | ETH buy 100.00 usd | reason=mixed_regime</title></rect>
<rect x="165.29862385321098" y="701.648692487676" width="6.1000000000000005" height="5.851307512323956" fill="#2563eb" opacity="0.85"><title>2024-05-20 | ETH buy 100.00 usd | reason=both_assets_expensive</title></rect>
<rect x="176.49128440366974" y="701.648692487676" width="6.1000000000000005" height="5.851307512323956" fill="#2563eb" opacity="0.85"><title>2024-05-27 | ETH buy 100.00 usd | reason=both_assets_expensive</title></rect>
<rect x="187.68394495412844" y="701.648692487676" width="6.1000000000000005" height="5.851307512323956" fill="#2563eb" opacity="0.85"><title>2024-06-03 | ETH buy 100.00 usd | reason=both_assets_expensive</title></rect>
<rect x="198.87660550458713" y="701.648692487676" width="6.1000000000000005" height="5.851307512323956" fill="#2563eb" opacity="0.85"><title>2024-06-10 | ETH buy 100.00 usd | reason=both_assets_expensive</title></rect>
<rect x="210.0692660550459" y="701.648692487676" width="6.1000000000000005" height="5.851307512323956" fill="#2563eb" opacity="0.85"><title>2024-06-17 | ETH buy 100.00 usd | reason=both_assets_expensive</title></rect>
<rect x="221.26192660550458" y="701.648692487676" width="6.1000000000000005" height="5.851307512323956" fill="#2563eb" opacity="0.85"><title>2024-06-24 | ETH buy 100.00 usd | reason=mixed_regime</title></rect>
<rect x="232.4545871559633" y="701.648692487676" width="6.1000000000000005" height="5.851307512323956" fill="#2563eb" opacity="0.85"><title>2024-07-01 | ETH buy 100.00 usd | reason=mixed_regime</title></rect>
<rect x="243.647247706422" y="701.648692487676" width="6.1000000000000005" height="5.851307512323956" fill="#2563eb" opacity="0.85"><title>2024-07-08 | ETH buy 100.00 usd | reason=both_assets_cheap</title></rect>
<rect x="254.83990825688073" y="701.648692487676" width="6.1000000000000005" height="5.851307512323956" fill="#2563eb" opacity="0.85"><title>2024-07-15 | ETH buy 100.00 usd | reason=both_assets_expensive</title></rect>
<rect x="266.0325688073395" y="701.648692487676" width="6.1000000000000005" height="5.851307512323956" fill="#2563eb" opacity="0.85"><title>2024-07-22 | ETH buy 100.00 usd | reason=mixed_regime</title></rect>
<rect x="277.2252293577981" y="701.648692487676" width="6.1000000000000005" height="5.851307512323956" fill="#2563eb" opacity="0.85"><title>2024-07-29 | ETH buy 100.00 usd | reason=mixed_regime</title></rect>
<rect x="288.4178899082569" y="701.648692487676" width="6.1000000000000005" height="5.851307512323956" fill="#2563eb" opacity="0.85"><title>2024-08-05 | ETH buy 100.00 usd | reason=both_assets_cheap</title></rect>
<rect x="299.61055045871564" y="701.648692487676" width="6.1000000000000005" height="5.851307512323956" fill="#2563eb" opacity="0.85"><title>2024-08-12 | ETH buy 100.00 usd | reason=both_assets_cheap</title></rect>
<rect x="310.8032110091743" y="701.648692487676" width="6.1000000000000005" height="5.851307512323956" fill="#2563eb" opacity="0.85"><title>2024-08-19 | ETH buy 100.00 usd | reason=both_assets_cheap</title></rect>
<rect x="321.99587155963303" y="701.648692487676" width="6.1000000000000005" height="5.851307512323956" fill="#2563eb" opacity="0.85"><title>2024-08-26 | ETH buy 100.00 usd | reason=both_assets_cheap</title></rect>
<rect x="333.1885321100918" y="701.648692487676" width="6.1000000000000005" height="5.851307512323956" fill="#2563eb" opacity="0.85"><title>2024-09-02 | ETH buy 100.00 usd | reason=both_assets_cheap</title></rect>
<rect x="344.3811926605505" y="701.648692487676" width="6.1000000000000005" height="5.851307512323956" fill="#2563eb" opacity="0.85"><title>2024-09-09 | ETH buy 100.00 usd | reason=both_assets_cheap</title></rect>
<rect x="355.5738532110092" y="701.648692487676" width="6.1000000000000005" height="5.851307512323956" fill="#2563eb" opacity="0.85"><title>2024-09-16 | ETH buy 100.00 usd | reason=both_assets_cheap</title></rect>
<rect x="366.7665137614679" y="701.648692487676" width="6.1000000000000005" height="5.851307512323956" fill="#2563eb" opacity="0.85"><title>2024-09-23 | ETH buy 100.00 usd | reason=both_assets_cheap</title></rect>
<rect x="377.95917431192663" y="701.648692487676" width="6.1000000000000005" height="5.851307512323956" fill="#2563eb" opacity="0.85"><title>2024-09-30 | ETH buy 100.00 usd | reason=both_assets_cheap</title></rect>
<rect x="389.15183486238533" y="701.648692487676" width="6.1000000000000005" height="5.851307512323956" fill="#2563eb" opacity="0.85"><title>2024-10-07 | ETH buy 100.00 usd | reason=both_assets_cheap</title></rect>
<rect x="400.344495412844" y="701.648692487676" width="6.1000000000000005" height="5.851307512323956" fill="#2563eb" opacity="0.85"><title>2024-10-14 | ETH buy 100.00 usd | reason=mixed_regime_eth_tilt</title></rect>
<rect x="411.5371559633028" y="701.648692487676" width="6.1000000000000005" height="5.851307512323956" fill="#2563eb" opacity="0.85"><title>2024-10-21 | ETH buy 100.00 usd | reason=mixed_regime_eth_tilt</title></rect>
<rect x="422.7298165137615" y="701.648692487676" width="6.1000000000000005" height="5.851307512323956" fill="#2563eb" opacity="0.85"><title>2024-10-28 | ETH buy 100.00 usd | reason=mixed_regime_eth_tilt</title></rect>
<rect x="433.9224770642202" y="701.648692487676" width="6.1000000000000005" height="5.851307512323956" fill="#2563eb" opacity="0.85"><title>2024-11-04 | ETH buy 100.00 usd | reason=mixed_regime_eth_tilt</title></rect>
<rect x="445.11513761467893" y="701.648692487676" width="6.1000000000000005" height="5.851307512323956" fill="#2563eb" opacity="0.85"><title>2024-11-11 | ETH buy 100.00 usd | reason=mixed_regime</title></rect>
<rect x="456.3077981651376" y="701.648692487676" width="6.1000000000000005" height="5.851307512323956" fill="#2563eb" opacity="0.85"><title>2024-11-18 | ETH buy 100.00 usd | reason=mixed_regime</title></rect>
<rect x="467.5004587155963" y="701.648692487676" width="6.1000000000000005" height="5.851307512323956" fill="#2563eb" opacity="0.85"><title>2024-11-25 | ETH buy 100.00 usd | reason=mixed_regime</title></rect>
<rect x="478.6931192660551" y="701.648692487676" width="6.1000000000000005" height="5.851307512323956" fill="#2563eb" opacity="0.85"><title>2024-12-02 | ETH buy 100.00 usd | reason=both_assets_expensive</title></rect>
<rect x="489.8857798165138" y="701.648692487676" width="6.1000000000000005" height="5.851307512323956" fill="#2563eb" opacity="0.85"><title>2024-12-09 | ETH buy 100.00 usd | reason=both_assets_expensive</title></rect>
<rect x="501.0784403669725" y="707.5" width="6.1000000000000005" height="3.074570740805143" fill="#7c3aed" opacity="0.85"><title>2024-12-16 | ETH sell 52.55 usd | reason=both_assets_expensive</title></rect>
<rect x="512.2711009174313" y="701.648692487676" width="6.1000000000000005" height="5.851307512323956" fill="#2563eb" opacity="0.85"><title>2024-12-23 | ETH buy 100.00 usd | reason=mixed_regime</title></rect>
<rect x="523.46376146789" y="701.648692487676" width="6.1000000000000005" height="5.851307512323956" fill="#2563eb" opacity="0.85"><title>2024-12-30 | ETH buy 100.00 usd | reason=mixed_regime</title></rect>
<rect x="534.6564220183486" y="701.648692487676" width="6.1000000000000005" height="5.851307512323956" fill="#2563eb" opacity="0.85"><title>2025-01-06 | ETH buy 100.00 usd | reason=both_assets_expensive</title></rect>
<rect x="545.8490825688075" y="701.648692487676" width="6.1000000000000005" height="5.851307512323956" fill="#2563eb" opacity="0.85"><title>2025-01-13 | ETH buy 100.00 usd | reason=mixed_regime</title></rect>
<rect x="557.0417431192661" y="701.648692487676" width="6.1000000000000005" height="5.851307512323956" fill="#2563eb" opacity="0.85"><title>2025-01-20 | ETH buy 100.00 usd | reason=mixed_regime</title></rect>
<rect x="568.2344036697248" y="701.648692487676" width="6.1000000000000005" height="5.851307512323956" fill="#2563eb" opacity="0.85"><title>2025-01-27 | ETH buy 100.00 usd | reason=mixed_regime</title></rect>
<rect x="579.4270642201836" y="701.648692487676" width="6.1000000000000005" height="5.851307512323956" fill="#2563eb" opacity="0.85"><title>2025-02-03 | ETH buy 100.00 usd | reason=mixed_regime_eth_tilt</title></rect>
<rect x="590.6197247706423" y="701.648692487676" width="6.1000000000000005" height="5.851307512323956" fill="#2563eb" opacity="0.85"><title>2025-02-10 | ETH buy 100.00 usd | reason=mixed_regime_eth_tilt</title></rect>
<rect x="601.812385321101" y="701.648692487676" width="6.1000000000000005" height="5.851307512323956" fill="#2563eb" opacity="0.85"><title>2025-02-17 | ETH buy 100.00 usd | reason=mixed_regime_eth_tilt</title></rect>
<rect x="613.0050458715597" y="701.648692487676" width="6.1000000000000005" height="5.851307512323956" fill="#2563eb" opacity="0.85"><title>2025-02-24 | ETH buy 100.00 usd | reason=mixed_regime_eth_tilt</title></rect>
<rect x="624.1977064220184" y="701.648692487676" width="6.1000000000000005" height="5.851307512323956" fill="#2563eb" opacity="0.85"><title>2025-03-03 | ETH buy 100.00 usd | reason=mixed_regime_eth_tilt</title></rect>
<rect x="635.3903669724772" y="701.648692487676" width="6.1000000000000005" height="5.851307512323956" fill="#2563eb" opacity="0.85"><title>2025-03-10 | ETH buy 100.00 usd | reason=both_assets_cheap</title></rect>
<rect x="646.5830275229358" y="701.648692487676" width="6.1000000000000005" height="5.851307512323956" fill="#2563eb" opacity="0.85"><title>2025-03-17 | ETH buy 100.00 usd | reason=both_assets_cheap</title></rect>
<rect x="657.7756880733946" y="701.648692487676" width="6.1000000000000005" height="5.851307512323956" fill="#2563eb" opacity="0.85"><title>2025-03-24 | ETH buy 100.00 usd | reason=mixed_regime_eth_tilt</title></rect>
<rect x="668.9683486238533" y="701.648692487676" width="6.1000000000000005" height="5.851307512323956" fill="#2563eb" opacity="0.85"><title>2025-03-31 | ETH buy 100.00 usd | reason=both_assets_cheap</title></rect>
<rect x="680.161009174312" y="701.648692487676" width="6.1000000000000005" height="5.851307512323956" fill="#2563eb" opacity="0.85"><title>2025-04-07 | ETH buy 100.00 usd | reason=both_assets_cheap</title></rect>
<rect x="691.3536697247707" y="701.648692487676" width="6.1000000000000005" height="5.851307512323956" fill="#2563eb" opacity="0.85"><title>2025-04-14 | ETH buy 100.00 usd | reason=both_assets_cheap</title></rect>
<rect x="702.5463302752294" y="701.648692487676" width="6.1000000000000005" height="5.851307512323956" fill="#2563eb" opacity="0.85"><title>2025-04-21 | ETH buy 100.00 usd | reason=both_assets_cheap</title></rect>
<rect x="713.7389908256881" y="701.648692487676" width="6.1000000000000005" height="5.851307512323956" fill="#2563eb" opacity="0.85"><title>2025-04-28 | ETH buy 100.00 usd | reason=mixed_regime_eth_tilt</title></rect>
<rect x="724.9316513761468" y="701.648692487676" width="6.1000000000000005" height="5.851307512323956" fill="#2563eb" opacity="0.85"><title>2025-05-05 | ETH buy 100.00 usd | reason=mixed_regime_eth_tilt</title></rect>
<rect x="736.1243119266056" y="701.648692487676" width="6.1000000000000005" height="5.851307512323956" fill="#2563eb" opacity="0.85"><title>2025-05-12 | ETH buy 100.00 usd | reason=mixed_regime_eth_tilt</title></rect>
<rect x="747.3169724770643" y="701.648692487676" width="6.1000000000000005" height="5.851307512323956" fill="#2563eb" opacity="0.85"><title>2025-05-19 | ETH buy 100.00 usd | reason=mixed_regime_eth_tilt</title></rect>
<rect x="758.509633027523" y="701.648692487676" width="6.1000000000000005" height="5.851307512323956" fill="#2563eb" opacity="0.85"><title>2025-05-26 | ETH buy 100.00 usd | reason=mixed_regime_eth_tilt</title></rect>
<rect x="769.7022935779817" y="701.648692487676" width="6.1000000000000005" height="5.851307512323956" fill="#2563eb" opacity="0.85"><title>2025-06-02 | ETH buy 100.00 usd | reason=mixed_regime_eth_tilt</title></rect>
<rect x="780.8949541284404" y="701.648692487676" width="6.1000000000000005" height="5.851307512323956" fill="#2563eb" opacity="0.85"><title>2025-06-09 | ETH buy 100.00 usd | reason=mixed_regime</title></rect>
<rect x="792.0876146788991" y="701.648692487676" width="6.1000000000000005" height="5.851307512323956" fill="#2563eb" opacity="0.85"><title>2025-06-16 | ETH buy 100.00 usd | reason=mixed_regime_eth_tilt</title></rect>
<rect x="803.2802752293579" y="701.648692487676" width="6.1000000000000005" height="5.851307512323956" fill="#2563eb" opacity="0.85"><title>2025-06-23 | ETH buy 100.00 usd | reason=mixed_regime_eth_tilt</title></rect>
<rect x="814.4729357798166" y="701.648692487676" width="6.1000000000000005" height="5.851307512323956" fill="#2563eb" opacity="0.85"><title>2025-06-30 | ETH buy 100.00 usd | reason=mixed_regime_eth_tilt</title></rect>
<rect x="825.6655963302753" y="701.648692487676" width="6.1000000000000005" height="5.851307512323956" fill="#2563eb" opacity="0.85"><title>2025-07-07 | ETH buy 100.00 usd | reason=mixed_regime_eth_tilt</title></rect>
<rect x="836.858256880734" y="701.648692487676" width="6.1000000000000005" height="5.851307512323956" fill="#2563eb" opacity="0.85"><title>2025-07-14 | ETH buy 100.00 usd | reason=mixed_regime</title></rect>
<rect x="848.0509174311927" y="707.5" width="6.1000000000000005" height="62.5" fill="#7c3aed" opacity="0.85"><title>2025-07-21 | ETH sell 1068.14 usd | reason=both_assets_expensive</title></rect>
<rect x="859.2435779816514" y="707.5" width="6.1000000000000005" height="40.57654993564677" fill="#7c3aed" opacity="0.85"><title>2025-07-28 | ETH sell 693.46 usd | reason=both_assets_expensive</title></rect>
<rect x="870.4362385321102" y="707.5" width="6.1000000000000005" height="20.291425982934243" fill="#7c3aed" opacity="0.85"><title>2025-08-04 | ETH sell 346.78 usd | reason=both_assets_expensive</title></rect>
<rect x="881.6288990825689" y="707.5" width="6.1000000000000005" height="61.62775434677792" fill="#7c3aed" opacity="0.85"><title>2025-08-11 | ETH sell 1053.23 usd | reason=both_assets_expensive</title></rect>
<rect x="892.8215596330276" y="707.5" width="6.1000000000000005" height="50.32652132472299" fill="#7c3aed" opacity="0.85"><title>2025-08-18 | ETH sell 860.09 usd | reason=both_assets_expensive</title></rect>
<rect x="904.0142201834863" y="707.5" width="6.1000000000000005" height="46.13775554754329" fill="#7c3aed" opacity="0.85"><title>2025-08-25 | ETH sell 788.50 usd | reason=both_assets_expensive</title></rect>
<rect x="915.206880733945" y="707.5" width="6.1000000000000005" height="22.88113602209603" fill="#7c3aed" opacity="0.85"><title>2025-09-01 | ETH sell 391.04 usd | reason=both_assets_expensive</title></rect>
<rect x="926.3995412844037" y="707.5" width="6.1000000000000005" height="8.385655199491453" fill="#7c3aed" opacity="0.85"><title>2025-09-08 | ETH sell 143.31 usd | reason=both_assets_expensive</title></rect>
<rect x="937.5922018348625" y="707.5" width="6.1000000000000005" height="21.124222053604967" fill="#7c3aed" opacity="0.85"><title>2025-09-15 | ETH sell 361.02 usd | reason=both_assets_expensive</title></rect>
<rect x="948.7848623853212" y="701.648692487676" width="6.1000000000000005" height="5.851307512323956" fill="#2563eb" opacity="0.85"><title>2025-09-22 | ETH buy 100.00 usd | reason=both_assets_expensive</title></rect>
<rect x="959.9775229357799" y="701.648692487676" width="6.1000000000000005" height="5.851307512323956" fill="#2563eb" opacity="0.85"><title>2025-09-29 | ETH buy 100.00 usd | reason=both_assets_expensive</title></rect>
<rect x="971.1701834862386" y="707.5" width="6.1000000000000005" height="18.2790459906239" fill="#7c3aed" opacity="0.85"><title>2025-10-06 | ETH sell 312.39 usd | reason=both_assets_expensive</title></rect>
<rect x="982.3628440366973" y="701.648692487676" width="6.1000000000000005" height="5.851307512323956" fill="#2563eb" opacity="0.85"><title>2025-10-13 | ETH buy 100.00 usd | reason=both_assets_expensive</title></rect>
<rect x="993.555504587156" y="701.648692487676" width="6.1000000000000005" height="5.851307512323956" fill="#2563eb" opacity="0.85"><title>2025-10-20 | ETH buy 100.00 usd | reason=mixed_regime</title></rect>
<rect x="1004.7481651376148" y="701.648692487676" width="6.1000000000000005" height="5.851307512323956" fill="#2563eb" opacity="0.85"><title>2025-10-27 | ETH buy 100.00 usd | reason=both_assets_expensive</title></rect>
<rect x="1015.9408256880735" y="701.648692487676" width="6.1000000000000005" height="5.851307512323956" fill="#2563eb" opacity="0.85"><title>2025-11-03 | ETH buy 100.00 usd | reason=mixed_regime_btc_tilt</title></rect>
<rect x="1027.1334862385322" y="701.648692487676" width="6.1000000000000005" height="5.851307512323956" fill="#2563eb" opacity="0.85"><title>2025-11-10 | ETH buy 100.00 usd | reason=mixed_regime_btc_tilt</title></rect>
<rect x="1038.3261467889909" y="701.648692487676" width="6.1000000000000005" height="5.851307512323956" fill="#2563eb" opacity="0.85"><title>2025-11-17 | ETH buy 100.00 usd | reason=both_assets_cheap</title></rect>
<rect x="1049.5188073394495" y="701.648692487676" width="6.1000000000000005" height="5.851307512323956" fill="#2563eb" opacity="0.85"><title>2025-11-24 | ETH buy 100.00 usd | reason=both_assets_cheap</title></rect>
<rect x="1060.7114678899081" y="701.648692487676" width="6.1000000000000005" height="5.851307512323956" fill="#2563eb" opacity="0.85"><title>2025-12-01 | ETH buy 100.00 usd | reason=both_assets_cheap</title></rect>
<rect x="1071.9041284403672" y="701.648692487676" width="6.1000000000000005" height="5.851307512323956" fill="#2563eb" opacity="0.85"><title>2025-12-08 | ETH buy 100.00 usd | reason=both_assets_cheap</title></rect>
<rect x="1083.0967889908259" y="701.648692487676" width="6.1000000000000005" height="5.851307512323956" fill="#2563eb" opacity="0.85"><title>2025-12-15 | ETH buy 100.00 usd | reason=both_assets_cheap</title></rect>
<rect x="1094.2894495412845" y="701.648692487676" width="6.1000000000000005" height="5.851307512323956" fill="#2563eb" opacity="0.85"><title>2025-12-22 | ETH buy 100.00 usd | reason=both_assets_cheap</title></rect>
<rect x="1105.4821100917432" y="701.648692487676" width="6.1000000000000005" height="5.851307512323956" fill="#2563eb" opacity="0.85"><title>2025-12-29 | ETH buy 100.00 usd | reason=both_assets_cheap</title></rect>
<rect x="1116.674770642202" y="701.648692487676" width="6.1000000000000005" height="5.851307512323956" fill="#2563eb" opacity="0.85"><title>2026-01-05 | ETH buy 100.00 usd | reason=both_assets_cheap</title></rect>
<rect x="1127.8674311926607" y="701.648692487676" width="6.1000000000000005" height="5.851307512323956" fill="#2563eb" opacity="0.85"><title>2026-01-12 | ETH buy 100.00 usd | reason=both_assets_cheap</title></rect>
<rect x="1139.0600917431193" y="701.648692487676" width="6.1000000000000005" height="5.851307512323956" fill="#2563eb" opacity="0.85"><title>2026-01-19 | ETH buy 100.00 usd | reason=both_assets_cheap</title></rect>
<rect x="1150.252752293578" y="701.648692487676" width="6.1000000000000005" height="5.851307512323956" fill="#2563eb" opacity="0.85"><title>2026-01-26 | ETH buy 100.00 usd | reason=both_assets_cheap</title></rect>
<rect x="1161.4454128440368" y="701.648692487676" width="6.1000000000000005" height="5.851307512323956" fill="#2563eb" opacity="0.85"><title>2026-02-02 | ETH buy 100.00 usd | reason=both_assets_cheap</title></rect>
<rect x="1172.6380733944954" y="701.648692487676" width="6.1000000000000005" height="5.851307512323956" fill="#2563eb" opacity="0.85"><title>2026-02-09 | ETH buy 100.00 usd | reason=both_assets_cheap</title></rect>
<rect x="1183.8307339449543" y="701.648692487676" width="6.1000000000000005" height="5.851307512323956" fill="#2563eb" opacity="0.85"><title>2026-02-16 | ETH buy 100.00 usd | reason=both_assets_cheap</title></rect>
<rect x="1195.023394495413" y="701.648692487676" width="6.1000000000000005" height="5.851307512323956" fill="#2563eb" opacity="0.85"><title>2026-02-23 | ETH buy 100.00 usd | reason=both_assets_cheap</title></rect>
<rect x="1206.2160550458716" y="701.648692487676" width="6.1000000000000005" height="5.851307512323956" fill="#2563eb" opacity="0.85"><title>2026-03-02 | ETH buy 100.00 usd | reason=both_assets_cheap</title></rect>
<rect x="1217.4087155963302" y="701.648692487676" width="6.1000000000000005" height="5.851307512323956" fill="#2563eb" opacity="0.85"><title>2026-03-09 | ETH buy 100.00 usd | reason=both_assets_cheap</title></rect>
<rect x="1228.601376146789" y="701.648692487676" width="6.1000000000000005" height="5.851307512323956" fill="#2563eb" opacity="0.85"><title>2026-03-16 | ETH buy 100.00 usd | reason=both_assets_cheap</title></rect>
<rect x="1239.7940366972477" y="701.648692487676" width="6.1000000000000005" height="5.851307512323956" fill="#2563eb" opacity="0.85"><title>2026-03-23 | ETH buy 100.00 usd | reason=both_assets_cheap</title></rect>
<rect x="1250.9866972477066" y="701.648692487676" width="6.1000000000000005" height="5.851307512323956" fill="#2563eb" opacity="0.85"><title>2026-03-30 | ETH buy 100.00 usd | reason=both_assets_cheap</title></rect>
<rect x="1262.1793577981653" y="701.648692487676" width="6.1000000000000005" height="5.851307512323956" fill="#2563eb" opacity="0.85"><title>2026-04-06 | ETH buy 100.00 usd | reason=both_assets_cheap</title></rect>
<rect x="1273.372018348624" y="701.648692487676" width="6.1000000000000005" height="5.851307512323956" fill="#2563eb" opacity="0.85"><title>2026-04-13 | ETH buy 100.00 usd | reason=both_assets_cheap</title></rect>
<rect x="1284.5646788990825" y="701.648692487676" width="6.1000000000000005" height="5.851307512323956" fill="#2563eb" opacity="0.85"><title>2026-04-20 | ETH buy 100.00 usd | reason=both_assets_cheap</title></rect>
<rect x="1295.7573394495414" y="701.648692487676" width="6.1000000000000005" height="5.851307512323956" fill="#2563eb" opacity="0.85"><title>2026-04-27 | ETH buy 100.00 usd | reason=both_assets_cheap</title></rect>
<rect x="1306.95" y="701.648692487676" width="6.1000000000000005" height="5.851307512323956" fill="#2563eb" opacity="0.85"><title>2026-05-04 | ETH buy 100.00 usd | reason=both_assets_cheap</title></rect>
<text x="24" y="707.5" transform="rotate(-90 24,707.5)" text-anchor="middle" font-family="monospace" font-size="14" fill="#0f172a">ETH weekly trade usd</text>
<rect x="1040" y="478" width="14" height="10" fill="#ea580c" opacity="0.85"/>
<text x="1062" y="488" font-family="monospace" font-size="11" fill="#0f172a">BTC buy</text>
<rect x="1190" y="478" width="14" height="10" fill="#dc2626" opacity="0.85"/>
<text x="1212" y="488" font-family="monospace" font-size="11" fill="#0f172a">BTC sell</text>
<rect x="1040" y="498" width="14" height="10" fill="#2563eb" opacity="0.85"/>
<text x="1062" y="508" font-family="monospace" font-size="11" fill="#0f172a">ETH buy</text>
<rect x="1190" y="498" width="14" height="10" fill="#7c3aed" opacity="0.85"/>
<text x="1212" y="508" font-family="monospace" font-size="11" fill="#0f172a">ETH sell</text>
</svg>