<svg xmlns="http://www.w3.org/2000/svg" width="1400" height="800">
<rect width="1400" height="800" fill="#f8fafc"/>
<text x="700.0" y="42" text-anchor="middle" font-family="monospace" font-size="24" fill="#0f172a">budgeted_static_50_50_rebalance | weekly | start=2024-04-01 | return=5.69%</text>
<line x1="90" y1="420" x2="1310" y2="420" stroke="#334155" stroke-width="2"/>
<line x1="90" y1="90" x2="90" y2="420" stroke="#334155" stroke-width="2"/>
<line x1="90.0" y1="420" x2="90.0" y2="90" stroke="#94a3b8" stroke-width="1.2"/>
<line x1="90.0" y1="605" x2="90.0" y2="480" stroke="#94a3b8" stroke-width="1.2"/>
<line x1="90.0" y1="770" x2="90.0" y2="645" stroke="#94a3b8" stroke-width="1.2"/>
<text x="90.0" y="788" text-anchor="middle" font-family="monospace" font-size="11" fill="#334155">2024-04</text>
<line x1="145.96330275229357" y1="420" x2="145.96330275229357" y2="90" stroke="#94a3b8" stroke-width="1.2"/>
<line x1="145.96330275229357" y1="605" x2="145.96330275229357" y2="480" stroke="#94a3b8" stroke-width="1.2"/>
<line x1="145.96330275229357" y1="770" x2="145.96330275229357" y2="645" stroke="#94a3b8" stroke-width="1.2"/>
<text x="145.96330275229357" y="788" text-anchor="middle" font-family="monospace" font-size="11" fill="#334155">2024-05</text>
<line x1="190.73394495412845" y1="420" x2="190.73394495412845" y2="90" stroke="#94a3b8" stroke-width="1.2"/>
<line x1="190.73394495412845" y1="605" x2="190.73394495412845" y2="480" stroke="#94a3b8" stroke-width="1.2"/>
<line x1="190.73394495412845" y1="770" x2="190.73394495412845" y2="645" stroke="#94a3b8" stroke-width="1.2"/>
<text x="190.73394495412845" y="788" text-anchor="middle" font-family="monospace" font-size="11" fill="#334155">2024-06</text>
<line x1="235.50458715596332" y1="420" x2="235.50458715596332" y2="90" stroke="#94a3b8" stroke-width="1.2"/>
<line x1="235.50458715596332" y1="605" x2="235.50458715596332" y2="480" stroke="#94a3b8" stroke-width="1.2"/>
<line x1="235.50458715596332" y1="770" x2="235.50458715596332" y2="645" stroke="#94a3b8" stroke-width="1.2"/>
<text x="235.50458715596332" y="788" text-anchor="middle" font-family="monospace" font-size="11" fill="#334155">2024-07</text>
<line x1="291.4678899082569" y1="420" x2="291.4678899082569" y2="90" stroke="#94a3b8" stroke-width="1.2"/>
<line x1="291.4678899082569" y1="605" x2="291.4678899082569" y2="480" stroke="#94a3b8" stroke-width="1.2"/>
<line x1="291.4678899082569" y1="770" x2="291.4678899082569" y2="645" stroke="#94a3b8" stroke-width="1.2"/>
<text x="291.4678899082569" y="788" text-anchor="middle" font-family="monospace" font-size="11" fill="#334155">2024-08</text>
<line x1="336.2385321100918" y1="420" x2="336.2385321100918" y2="90" stroke="#94a3b8" stroke-width="1.2"/>
<line x1="336.2385321100918" y1="605" x2="336.2385321100918" y2="480" stroke="#94a3b8" stroke-width="1.2"/>
<line x1="336.2385321100918" y1="770" x2="336.2385321100918" y2="645" stroke="#94a3b8" stroke-width="1.2"/>
<text x="336.2385321100918" y="788" text-anchor="middle" font-family="monospace" font-size="11" fill="#334155">2024-09</text>
<line x1="392.20183486238534" y1="420" x2="392.20183486238534" y2="90" stroke="#94a3b8" stroke-width="1.2"/>
<line x1="392.20183486238534" y1="605" x2="392.20183486238534" y2="480" stroke="#94a3b8" stroke-width="1.2"/>
<line x1="392.20183486238534" y1="770" x2="392.20183486238534" y2="645" stroke="#94a3b8" stroke-width="1.2"/>
<text x="392.20183486238534" y="788" text-anchor="middle" font-family="monospace" font-size="11" fill="#334155">2024-10</text>
<line x1="436.9724770642202" y1="420" x2="436.9724770642202" y2="90" stroke="#94a3b8" stroke-width="1.2"/>
<line x1="436.9724770642202" y1="605" x2="436.9724770642202" y2="480" stroke="#94a3b8" stroke-width="1.2"/>
<line x1="436.9724770642202" y1="770" x2="436.9724770642202" y2="645" stroke="#94a3b8" stroke-width="1.2"/>
<text x="436.9724770642202" y="788" text-anchor="middle" font-family="monospace" font-size="11" fill="#334155">2024-11</text>
<line x1="481.7431192660551" y1="420" x2="481.7431192660551" y2="90" stroke="#94a3b8" stroke-width="1.2"/>
<line x1="481.7431192660551" y1="605" x2="481.7431192660551" y2="480" stroke="#94a3b8" stroke-width="1.2"/>
<line x1="481.7431192660551" y1="770" x2="481.7431192660551" y2="645" stroke="#94a3b8" stroke-width="1.2"/>
<text x="481.7431192660551" y="788" text-anchor="middle" font-family="monospace" font-size="11" fill="#334155">2024-12</text>
<line x1="537.7064220183486" y1="420" x2="537.7064220183486" y2="90" stroke="#94a3b8" stroke-width="1.2"/>
<line x1="537.7064220183486" y1="605" x2="537.7064220183486" y2="480" stroke="#94a3b8" stroke-width="1.2"/>
<line x1="537.7064220183486" y1="770" x2="537.7064220183486" y2="645" stroke="#94a3b8" stroke-width="1.2"/>
<text x="537.7064220183486" y="788" text-anchor="middle" font-family="monospace" font-size="11" fill="#334155">2025-01</text>
<line x1="582.4770642201836" y1="420" x2="582.4770642201836" y2="90" stroke="#94a3b8" stroke-width="1.2"/>
<line x1="582.4770642201836" y1="605" x2="582.4770642201836" y2="480" stroke="#94a3b8" stroke-width="1.2"/>
<line x1="582.4770642201836" y1="770" x2="582.4770642201836" y2="645" stroke="#94a3b8" stroke-width="1.2"/>
<text x="582.4770642201836" y="788" text-anchor="middle" font-family="monospace" font-size="11" fill="#334155">2025-02</text>
<line x1="627.2477064220184" y1="420" x2="627.2477064220184" y2="90" stroke="#94a3b8" stroke-width="1.2"/>
<line x1="627.2477064220184" y1="605" x2="627.2477064220184" y2="480" stroke="#94a3b8" stroke-width="1.2"/>
<line x1="627.2477064220184" y1="770" x2="627.2477064220184" y2="645" stroke="#94a3b8" stroke-width="1.2"/>
<text x="627.2477064220184" y="788" text-anchor="middle" font-family="monospace" font-size="11" fill="#334155">2025-03</text>
<line x1="683.2110091743119" y1="420" x2="683.2110091743119" y2="90" stroke="#94a3b8" stroke-width="1.2"/>
<line x1="683.2110091743119" y1="605" x2="683.2110091743119" y2="480" stroke="#94a3b8" stroke-width="1.2"/>
<line x1="683.2110091743119" y1="770" x2="683.2110091743119" y2="645" stroke="#94a3b8" stroke-width="1.2"/>
<text x="683.2110091743119" y="788" text-anchor="middle" font-family="monospace" font-size="11" fill="#334155">2025-04</text>
<line x1="727.9816513761467" y1="420" x2="727.9816513761467" y2="90" stroke="#94a3b8" stroke-width="1.2"/>
<line x1="727.9816513761467" y1="605" x2="727.9816513761467" y2="480" stroke="#94a3b8" stroke-width="1.2"/>
<line x1="727.9816513761467" y1="770" x2="727.9816513761467" y2="645" stroke="#94a3b8" stroke-width="1.2"/>
<text x="727.9816513761467" y="788" text-anchor="middle" font-family="monospace" font-size="11" fill="#334155">2025-05</text>
<line x1="772.7522935779816" y1="420" x2="772.7522935779816" y2="90" stroke="#94a3b8" stroke-width="1.2"/>
<line x1="772.7522935779816" y1="605" x2="772.7522935779816" y2="480" stroke="#94a3b8" stroke-width="1.2"/>
<line x1="772.7522935779816" y1="770" x2="772.7522935779816" y2="645" stroke="#94a3b8" stroke-width="1.2"/>
<text x="772.7522935779816" y="788" text-anchor="middle" font-family="monospace" font-size="11" fill="#334155">2025-06</text>
<line x1="828.7155963302753" y1="420" x2="828.7155963302753" y2="90" stroke="#94a3b8" stroke-width="1.2"/>
<line x1="828.7155963302753" y1="605" x2="828.7155963302753" y2="480" stroke="#94a3b8" stroke-width="1.2"/>
<line x1="828.7155963302753" y1="770" x2="828.7155963302753" y2="645" stroke="#94a3b8" stroke-width="1.2"/>
<text x="828.7155963302753" y="788" text-anchor="middle" font-family="monospace" font-size="11" fill="#334155">2025-07</text>
<line x1="873.4862385321102" y1="420" x2="873.4862385321102" y2="90" stroke="#94a3b8" stroke-width="1.2"/>
<line x1="873.4862385321102" y1="605" x2="873.4862385321102" y2="480" stroke="#94a3b8" stroke-width="1.2"/>
<line x1="873.4862385321102" y1="770" x2="873.4862385321102" y2="645" stroke="#94a3b8" stroke-width="1.2"/>
<text x="873.4862385321102" y="788" text-anchor="middle" font-family="monospace" font-size="11" fill="#334155">2025-08</text>
<line x1="918.256880733945" y1="420" x2="918.256880733945" y2="90" stroke="#94a3b8" stroke-width="1.2"/>
<line x1="918.256880733945" y1="605" x2="918.256880733945" y2="480" stroke="#94a3b8" stroke-width="1.2"/>
<line x1="918.256880733945" y1="770" x2="918.256880733945" y2="645" stroke="#94a3b8" stroke-width="1.2"/>
<text x="918.256880733945" y="788" text-anchor="middle" font-family="monospace" font-size="11" fill="#334155">2025-09</text>
<line x1="974.2201834862385" y1="420" x2="974.2201834862385" y2="90" stroke="#94a3b8" stroke-width="1.2"/>
<line x1="974.2201834862385" y1="605" x2="974.2201834862385" y2="480" stroke="#94a3b8" stroke-width="1.2"/>
<line x1="974.2201834862385" y1="770" x2="974.2201834862385" y2="645" stroke="#94a3b8" stroke-width="1.2"/>
<text x="974.2201834862385" y="788" text-anchor="middle" font-family="monospace" font-size="11" fill="#334155">2025-10</text>
<line x1="1018.9908256880734" y1="420" x2="1018.9908256880734" y2="90" stroke="#94a3b8" stroke-width="1.2"/>
<line x1="1018.9908256880734" y1="605" x2="1018.9908256880734" y2="480" stroke="#94a3b8" stroke-width="1.2"/>
<line x1="1018.9908256880734" y1="770" x2="1018.9908256880734" y2="645" stroke="#94a3b8" stroke-width="1.2"/>
<text x="1018.9908256880734" y="788" text-anchor="middle" font-family="monospace" font-size="11" fill="#334155">2025-11</text>
<line x1="1063.761467889908" y1="420" x2="1063.761467889908" y2="90" stroke="#94a3b8" stroke-width="1.2"/>
<line x1="1063.761467889908" y1="605" x2="1063.761467889908" y2="480" stroke="#94a3b8" stroke-width="1.2"/>
<line x1="1063.761467889908" y1="770" x2="1063.761467889908" y2="645" stroke="#94a3b8" stroke-width="1.2"/>
<text x="1063.761467889908" y="788" text-anchor="middle" font-family="monospace" font-size="11" fill="#334155">2025-12</text>
<line x1="1119.724770642202" y1="420" x2="1119.724770642202" y2="90" stroke="#94a3b8" stroke-width="1.2"/>
<line x1="1119.724770642202" y1="605" x2="1119.724770642202" y2="480" stroke="#94a3b8" stroke-width="1.2"/>
<line x1="1119.724770642202" y1="770" x2="1119.724770642202" y2="645" stroke="#94a3b8" stroke-width="1.2"/>
<text x="1119.724770642202" y="788" text-anchor="middle" font-family="monospace" font-size="11" fill="#334155">2026-01</text>
<line x1="1164.4954128440368" y1="420" x2="1164.4954128440368" y2="90" stroke="#94a3b8" stroke-width="1.2"/>
<line x1="1164.4954128440368" y1="605" x2="1164.4954128440368" y2="480" stroke="#94a3b8" stroke-width="1.2"/>
<line x1="1164.4954128440368" y1="770" x2="1164.4954128440368" y2="645" stroke="#94a3b8" stroke-width="1.2"/>
<text x="1164.4954128440368" y="788" text-anchor="middle" font-family="monospace" font-size="11" fill="#334155">2026-02</text>
<line x1="1209.2660550458716" y1="420" x2="1209.2660550458716" y2="90" stroke="#94a3b8" stroke-width="1.2"/>
<line x1="1209.2660550458716" y1="605" x2="1209.2660550458716" y2="480" stroke="#94a3b8" stroke-width="1.2"/>
<line x1="1209.2660550458716" y1="770" x2="1209.2660550458716" y2="645" stroke="#94a3b8" stroke-width="1.2"/>
<text x="1209.2660550458716" y="788" text-anchor="middle" font-family="monospace" font-size="11" fill="#334155">2026-03</text>
<line x1="1265.2293577981652" y1="420" x2="1265.2293577981652" y2="90" stroke="#94a3b8" stroke-width="1.2"/>
<line x1="1265.2293577981652" y1="605" x2="1265.2293577981652" y2="480" stroke="#94a3b8" stroke-width="1.2"/>
<line x1="1265.2293577981652" y1="770" x2="1265.2293577981652" y2="645" stroke="#94a3b8" stroke-width="1.2"/>
<text x="1265.2293577981652" y="788" text-anchor="middle" font-family="monospace" font-size="11" fill="#334155">2026-04</text>
<line x1="1310.0" y1="420" x2="1310.0" y2="90" stroke="#94a3b8" stroke-width="1.2"/>
<line x1="1310.0" y1="605" x2="1310.0" y2="480" stroke="#94a3b8" stroke-width="1.2"/>
<line x1="1310.0" y1="770" x2="1310.0" y2="645" stroke="#94a3b8" stroke-width="1.2"/>
<text x="1310.0" y="788" text-anchor="middle" font-family="monospace" font-size="11" fill="#334155">2026-05</text>
<line x1="90" y1="420.0" x2="1310" y2="420.0" stroke="#cbd5e1" stroke-width="1"/>
<text x="78" y="424.0" text-anchor="end" font-family="monospace" font-size="12" fill="#475569">0</text>
<line x1="90" y1="354.0" x2="1310" y2="354.0" stroke="#cbd5e1" stroke-width="1"/>
<text x="78" y="358.0" text-anchor="end" font-family="monospace" font-size="12" fill="#475569">3301</text>
<line x1="90" y1="288.0" x2="1310" y2="288.0" stroke="#cbd5e1" stroke-width="1"/>
<text x="78" y="292.0" text-anchor="end" font-family="monospace" font-size="12" fill="#475569">6602</text>
<line x1="90" y1="222.0" x2="1310" y2="222.0" stroke="#cbd5e1" stroke-width="1"/>
<text x="78" y="226.0" text-anchor="end" font-family="monospace" font-size="12" fill="#475569">9903</text>
<line x1="90" y1="156.0" x2="1310" y2="156.0" stroke="#cbd5e1" stroke-width="1"/>
<text x="78" y="160.0" text-anchor="end" font-family="monospace" font-size="12" fill="#475569">13204</text>
<line x1="90" y1="90.0" x2="1310" y2="90.0" stroke="#cbd5e1" stroke-width="1"/>
<text x="78" y="94.0" text-anchor="end" font-family="monospace" font-size="12" fill="#475569">16505</text>
<polygon points="90.0,224.86193051729788 101.19266055045871,229.66040763572497 112.38532110091744,234.45888475415208 123.57798165137615,239.25736187257917 134.77064220183487,244.05583899100628 145.96330275229357,248.85431610943337 157.1559633027523,253.65279322786049 168.348623853211,258.45127034628763 179.54128440366975,263.2497474647147 190.73394495412845,268.0482245831418 201.92660550458714,272.8467017015689 213.1192660550459,277.645178819996 224.3119266055046,282.4436559384231 235.50458715596332,287.2421330568502 246.69724770642202,292.0406101752773 257.88990825688074,296.83908729370444 269.0825688073395,301.6375644121315 280.27522935779814,306.4360415305586 291.4678899082569,311.2345186489857 302.66055045871565,316.0329957674128 313.8532110091743,320.8314728858399 325.04587155963304,325.629950004267 336.2385321100918,330.42842712269413 347.4311926605505,335.22690424112125 358.6238532110092,340.0253813595483 369.8165137614679,344.8238584779754 381.00917431192664,349.62233559640254 392.20183486238534,354.4208127148296 403.39449541284404,359.2192898332567 414.5871559633028,364.0177669516838 425.7798165137615,368.7578266661966 436.9724770642202,373.4528375036165 448.16513761467894,373.8283040772806 459.35779816513764,375.07281725110073 470.55045871559633,374.28711641963355 481.7431192660551,373.2955450399386 492.9357798165138,372.35171599459443 504.1284403669725,370.96247536710973 515.3211009174313,371.54346423043825 526.5137614678899,371.853493245689 537.7064220183486,370.9923295593637 548.8990825688074,372.9794160708004 560.0917431192661,373.4764151385789 571.2844036697247,373.99653564904634 582.4770642201836,375.91717220534923 593.6697247706422,377.6069070112646 604.862385321101,377.21187436929614 616.0550458715596,378.1306681356205 627.2477064220184,380.71641496674056 638.4403669724771,380.03355694207846 649.6330275229358,379.0672591266556 660.8256880733945,381.0071139732684 672.0183486238533,380.2036939225442 683.2110091743119,379.178709564026 694.4036697247707,382.7844317097912 705.5963302752293,381.39401693887487 716.7889908256881,380.1539848533846 727.9816513761467,379.2153577863257 739.1743119266056,378.9717807080469 750.3669724770642,377.9722132133718 761.559633027523,376.9508090279636 772.7522935779816,376.69186115360236 783.9449541284404,375.7094829812209 795.137614678899,375.1878671500647 806.3302752293579,375.06678587929633 817.5229357798165,374.72639622630015 828.7155963302753,374.33688211279514 839.9082568807339,373.24035457966073 851.1009174311927,373.77083076731196 862.2935779816513,374.25744994025285 873.4862385321102,373.72757309367023 884.6788990825688,373.3549242455842 895.8715596330276,372.73119859778853 907.0642201834862,372.8571351914313 918.256880733945,371.7264329283374 929.4495412844036,369.5036687177248 940.6422018348625,367.4592069860224 951.8348623853211,366.063690448082 963.0275229357799,364.83496585962376 974.2201834862385,362.93884683418963 985.4128440366973,362.18825698181996 996.6055045871559,362.0190879500994 1007.7981651376148,361.60326393605555 1018.9908256880734,363.6605311363244 1030.1834862385322,364.7603379100058 1041.3761467889908,367.82472449974495 1052.5688073394494,370.0019163645509 1063.761467889908,371.7966132590481 1074.9541284403672,372.0770751801693 1086.1467889908258,372.61787379545325 1097.3394495412845,372.4634631516375 1108.532110091743,372.51512810380905 1119.724770642202,371.92967102037244 1130.9174311926606,371.69913843910035 1142.1100917431193,371.37054192146377 1153.302752293578,372.00328490444775 1164.4954128440368,375.6301764300658 1175.6880733944954,378.638374255644 1186.8807339449543,380.7355173534625 1198.073394495413,380.7355173534625 1209.2660550458716,380.7355173534625 1220.4587155963302,380.7355173534625 1231.651376146789,380.21311891450694 1242.8440366972477,380.21311891450694 1254.0366972477066,380.21311891450694 1265.2293577981652,380.21311891450694 1276.4220183486239,379.6829079326709 1287.6146788990825,379.5344278745168 1298.8073394495414,379.4606431575546 1310.0,379.2509359950693 1310.0,420.0 1298.8073394495414,420.0 1287.6146788990825,420.0 1276.4220183486239,420.0 1265.2293577981652,420.0 1254.0366972477066,420.0 1242.8440366972477,420.0 1231.651376146789,420.0 1220.4587155963302,420.0 1209.2660550458716,420.0 1198.073394495413,420.0 1186.8807339449543,420.0 1175.6880733944954,420.0 1164.4954128440368,420.0 1153.302752293578,420.0 1142.1100917431193,420.0 1130.9174311926606,420.0 1119.724770642202,420.0 1108.532110091743,420.0 1097.3394495412845,420.0 1086.1467889908258,420.0 1074.9541284403672,420.0 1063.761467889908,420.0 1052.5688073394494,420.0 1041.3761467889908,420.0 1030.1834862385322,420.0 1018.9908256880734,420.0 1007.7981651376148,420.0 996.6055045871559,420.0 985.4128440366973,420.0 974.2201834862385,420.0 963.0275229357799,420.0 951.8348623853211,420.0 940.6422018348625,420.0 929.4495412844036,420.0 918.256880733945,420.0 907.0642201834862,420.0 895.8715596330276,420.0 884.6788990825688,420.0 873.4862385321102,420.0 862.2935779816513,420.0 851.1009174311927,420.0 839.9082568807339,420.0 828.7155963302753,420.0 817.5229357798165,420.0 806.3302752293579,420.0 795.137614678899,420.0 783.9449541284404,420.0 772.7522935779816,420.0 761.559633027523,420.0 750.3669724770642,420.0 739.1743119266056,420.0 727.9816513761467,420.0 716.7889908256881,420.0 705.5963302752293,420.0 694.4036697247707,420.0 683.2110091743119,420.0 672.0183486238533,420.0 660.8256880733945,420.0 649.6330275229358,420.0 638.4403669724771,420.0 627.2477064220184,420.0 616.0550458715596,420.0 604.862385321101,420.0 593.6697247706422,420.0 582.4770642201836,420.0 571.2844036697247,420.0 560.0917431192661,420.0 548.8990825688074,420.0 537.7064220183486,420.0 526.5137614678899,420.0 515.3211009174313,420.0 504.1284403669725,420.0 492.9357798165138,420.0 481.7431192660551,420.0 470.55045871559633,420.0 459.35779816513764,420.0 448.16513761467894,420.0 436.9724770642202,420.0 425.7798165137615,420.0 414.5871559633028,420.0 403.39449541284404,420.0 392.20183486238534,420.0 381.00917431192664,420.0 369.8165137614679,420.0 358.6238532110092,420.0 347.4311926605505,420.0 336.2385321100918,420.0 325.04587155963304,420.0 313.8532110091743,420.0 302.66055045871565,420.0 291.4678899082569,420.0 280.27522935779814,420.0 269.0825688073395,420.0 257.88990825688074,420.0 246.69724770642202,420.0 235.50458715596332,420.0 224.3119266055046,420.0 213.1192660550459,420.0 201.92660550458714,420.0 190.73394495412845,420.0 179.54128440366975,420.0 168.348623853211,420.0 157.1559633027523,420.0 145.96330275229357,420.0 134.77064220183487,420.0 123.57798165137615,420.0 112.38532110091744,420.0 101.19266055045871,420.0 90.0,420.0" fill="#facc15" fill-opacity="0.70" stroke="#facc15" stroke-width="1.2"/>
<polygon points="90.0,222.46269195808432 101.19266055045871,224.7327862845129 112.38532110091744,227.92084491857904 123.57798165137615,230.11291025042797 134.77064220183487,232.47196013499817 145.96330275229357,235.42180156352174 157.1559633027523,238.31436110400472 168.348623853211,237.0154289723116 179.54128440366975,238.07284914929173 190.73394495412845,241.27857001436413 201.92660550458714,244.39025104771628 213.1192660550459,248.00285503869853 224.3119266055046,251.74469985463304 235.50458715596332,253.3376600761886 246.69724770642202,259.87918025196757 257.88990825688074,257.2984518304969 269.0825688073395,260.20552179182465 280.27522935779814,264.0923453865614 291.4678899082569,277.9427805536547 302.66055045871565,276.17939988531623 313.8532110091743,279.8351317263799 325.04587155963304,281.5562668779847 336.2385321100918,286.30586512480045 347.4311926605505,291.7947835625887 358.6238532110092,295.38817080653166 369.8165137614679,290.9512480203821 381.00917431192664,294.2755977153779 392.20183486238534,300.49593929582846 403.39449541284404,298.284459556118 414.5871559633028,299.81216991171624 425.7798165137615,302.1551842030443 436.9724770642202,306.4300072034833 448.16513761467894,278.4084300649356 459.35779816513764,282.0417796534928 470.55045871559633,275.3759551890396 481.7431192660551,268.2237570112603 492.9357798165138,265.76112575130037 504.1284403669725,257.2010230461208 515.3211009174313,272.90865075946135 526.5137614678899,274.38321432871294 537.7064220183486,264.2778142674751 548.8990825688074,279.4126465131634 560.0917431192661,273.85166305454925 571.2844036697247,275.60651942963113 582.4770642201836,283.23126116050594 593.6697247706422,288.9714821708876 604.862385321101,285.45652903201096 616.0550458715596,292.43973318729496 627.2477064220184,303.9920979847726 638.4403669724771,313.4345647173244 649.6330275229358,310.24749068755335 660.8256880733945,303.9344703656718 672.0183486238533,312.74245275828304 683.2110091743119,321.6917189649259 694.4036697247707,317.85572650072066 705.5963302752293,318.2436217411339 716.7889908256881,308.17960578422867 727.9816513761467,306.4457766909705 739.1743119266056,280.50023305114314 750.3669724770642,279.24686811461993 761.559633027523,277.3458881573262 772.7522935779816,276.4219537501766 783.9449541284404,273.4449747354323 795.137614678899,278.40962313146395 806.3302752293579,283.1813300154422 817.5229357798165,280.22563121196896 828.7155963302753,277.8935220176721 839.9082568807339,260.30471230895466 851.1009174311927,237.03458772096042 862.2935779816513,239.83965302555234 873.4862385321102,244.98394523846264 884.6788990825688,231.1528473285151 895.8715596330276,231.23415061023059 907.0642201834862,233.10377547482176 918.256880733945,236.92507961774697 929.4495412844036,237.13926346763225 940.6422018348625,230.6475336017895 951.8348623853211,239.6905042576201 963.0275229357799,238.6301812190569 974.2201834862385,223.644803944445 985.4128440366973,236.39631814811 996.6055045871559,244.1434093672468 1007.7981651376148,239.79903065961216 1018.9908256880734,254.7096890185178 1030.1834862385322,255.48400963855727 1041.3761467889908,272.32695358341437 1052.5688073394494,275.619596763001 1063.761467889908,280.6627761789754 1074.9541284403672,270.79922681619314 1086.1467889908258,276.72478060340495 1097.3394495412845,275.2655037510828 1108.532110091743,277.62978364362147 1119.724770642202,267.9267458724686 1130.9174311926606,272.1084015541685 1142.1100917431193,269.06315045441784 1153.302752293578,277.34119935172504 1164.4954128440368,295.85871425876144 1175.6880733944954,304.5029158010161 1186.8807339449543,308.21327185203916 1198.073394495413,313.360649046164 1209.2660550458716,307.11633149485436 1220.4587155963302,308.36178181764274 1231.651376146789,295.29907763037954 1242.8440366972477,302.56116358565464 1254.0366972477066,307.1483709889991 1265.2293577981652,304.1606052670033 1276.4220183486239,294.673303290249 1287.6146788990825,296.58920069709006 1298.8073394495414,296.78135702670266 1310.0,294.86886669122435 1310.0,379.2509359950693 1298.8073394495414,379.4606431575546 1287.6146788990825,379.5344278745168 1276.4220183486239,379.6829079326709 1265.2293577981652,380.21311891450694 1254.0366972477066,380.21311891450694 1242.8440366972477,380.21311891450694 1231.651376146789,380.21311891450694 1220.4587155963302,380.7355173534625 1209.2660550458716,380.7355173534625 1198.073394495413,380.7355173534625 1186.8807339449543,380.7355173534625 1175.6880733944954,378.638374255644 1164.4954128440368,375.6301764300658 1153.302752293578,372.00328490444775 1142.1100917431193,371.37054192146377 1130.9174311926606,371.69913843910035 1119.724770642202,371.92967102037244 1108.532110091743,372.51512810380905 1097.3394495412845,372.4634631516375 1086.1467889908258,372.61787379545325 1074.9541284403672,372.0770751801693 1063.761467889908,371.7966132590481 1052.5688073394494,370.0019163645509 1041.3761467889908,367.82472449974495 1030.1834862385322,364.7603379100058 1018.9908256880734,363.6605311363244 1007.7981651376148,361.60326393605555 996.6055045871559,362.0190879500994 985.4128440366973,362.18825698181996 974.2201834862385,362.93884683418963 963.0275229357799,364.83496585962376 951.8348623853211,366.063690448082 940.6422018348625,367.4592069860224 929.4495412844036,369.5036687177248 918.256880733945,371.7264329283374 907.0642201834862,372.8571351914313 895.8715596330276,372.73119859778853 884.6788990825688,373.3549242455842 873.4862385321102,373.72757309367023 862.2935779816513,374.25744994025285 851.1009174311927,373.77083076731196 839.9082568807339,373.24035457966073 828.7155963302753,374.33688211279514 817.5229357798165,374.72639622630015 806.3302752293579,375.06678587929633 795.137614678899,375.1878671500647 783.9449541284404,375.7094829812209 772.7522935779816,376.69186115360236 761.559633027523,376.9508090279636 750.3669724770642,377.9722132133718 739.1743119266056,378.9717807080469 727.9816513761467,379.2153577863257 716.7889908256881,380.1539848533846 705.5963302752293,381.39401693887487 694.4036697247707,382.7844317097912 683.2110091743119,379.178709564026 672.0183486238533,380.2036939225442 660.8256880733945,381.0071139732684 649.6330275229358,379.0672591266556 638.4403669724771,380.03355694207846 627.2477064220184,380.71641496674056 616.0550458715596,378.1306681356205 604.862385321101,377.21187436929614 593.6697247706422,377.6069070112646 582.4770642201836,375.91717220534923 571.2844036697247,373.99653564904634 560.0917431192661,373.4764151385789 548.8990825688074,372.9794160708004 537.7064220183486,370.9923295593637 526.5137614678899,371.853493245689 515.3211009174313,371.54346423043825 504.1284403669725,370.96247536710973 492.9357798165138,372.35171599459443 481.7431192660551,373.2955450399386 470.55045871559633,374.28711641963355 459.35779816513764,375.07281725110073 448.16513761467894,373.8283040772806 436.9724770642202,373.4528375036165 425.7798165137615,368.7578266661966 414.5871559633028,364.0177669516838 403.39449541284404,359.2192898332567 392.20183486238534,354.4208127148296 381.00917431192664,349.62233559640254 369.8165137614679,344.8238584779754 358.6238532110092,340.0253813595483 347.4311926605505,335.22690424112125 336.2385321100918,330.42842712269413 325.04587155963304,325.629950004267 313.8532110091743,320.8314728858399 302.66055045871565,316.0329957674128 291.4678899082569,311.2345186489857 280.27522935779814,306.4360415305586 269.0825688073395,301.6375644121315 257.88990825688074,296.83908729370444 246.69724770642202,292.0406101752773 235.50458715596332,287.2421330568502 224.3119266055046,282.4436559384231 213.1192660550459,277.645178819996 201.92660550458714,272.8467017015689 190.73394495412845,268.0482245831418 179.54128440366975,263.2497474647147 168.348623853211,258.45127034628763 157.1559633027523,253.65279322786049 145.96330275229357,248.85431610943337 134.77064220183487,244.05583899100628 123.57798165137615,239.25736187257917 112.38532110091744,234.45888475415208 101.19266055045871,229.66040763572497 90.0,224.86193051729788" fill="#2563eb" fill-opacity="0.70" stroke="#2563eb" stroke-width="1.2"/>
<polygon points="90.0,220.06345339887076 101.19266055045871,219.86748791680944 112.38532110091744,221.21131757479972 123.57798165137615,220.64388418671277 134.77064220183487,221.03060291526296 145.96330275229357,221.70353334665143 157.1559633027523,222.2467800163545 168.348623853211,216.37848247770938 179.54128440366975,215.63280036355076 190.73394495412845,216.62616899201296 201.92660550458714,217.08534299535557 213.1192660550459,219.48363084535688 224.3119266055046,223.4939688712008 235.50458715596332,221.4842439903986 246.69724770642202,228.7346480634535 257.88990825688074,219.32863603520255 269.0825688073395,218.1940894789324 280.27522935779814,220.1709315523233 291.4678899082569,240.00387139241423 302.66055045871565,232.0987983436581 313.8532110091743,233.28556769117628 325.04587155963304,229.95529181186234 336.2385321100918,235.3440407405596 347.4311926605505,240.23120293076454 358.6238532110092,240.38163328786592 369.8165137614679,228.69757298821742 381.00917431192664,229.65965957453597 392.20183486238534,234.60459837176356 403.39449541284404,225.8991330320279 414.5871559633028,223.64751489962637 425.7798165137615,223.13297978384216 436.9724770642202,229.9037293217012 448.16513761467894,178.87719446746107 459.35779816513764,181.62381855204737 470.55045871559633,172.9154910707267 481.7431192660551,163.1049712497416 492.9357798165138,159.51118104700237 504.1284403669725,142.06599061626645 515.3211009174313,170.61310751685443 526.5137614678899,174.72970421505875 537.7064220183486,154.6627894762944 548.8990825688074,178.9815804587135 560.0917431192661,166.55784117872096 571.2844036697247,169.63553910071715 582.4770642201836,179.48501122651493 593.6697247706422,190.718817386238 604.862385321101,189.65710864783 616.0550458715596,201.6445355672766 627.2477064220184,219.42480091940976 638.4403669724771,237.0256281446244 649.6330275229358,229.4868111675996 660.8256880733945,220.56069538348717 672.0183486238533,234.9248351509714 683.2110091743119,248.09941641032933 694.4036697247707,240.3878979540952 705.5963302752293,239.48134874945225 716.7889908256881,223.88956706390954 727.9816513761467,223.36803419615492 739.1743119266056,189.2806165119323 750.3669724770642,185.48460800879076 761.559633027523,180.6780893409109 772.7522935779816,182.07462033681696 783.9449541284404,175.39135798568475 795.137614678899,183.64410544449797 806.3302752293579,189.94514759111928 817.5229357798165,185.60851073944792 828.7155963302753,182.5030064599291 839.9082568807339,154.37762314688297 851.1009174311927,128.4608319254075 862.2935779816513,126.57009182077519 873.4862385321102,132.24645011285264 884.6788990825688,111.24476989844953 895.8715596330276,110.62490351019164 907.0642201834862,114.99141272209391 918.256880733945,117.93081916927542 929.4495412844036,115.12461576704203 940.6422018348625,104.79900502367684 951.8348623853211,117.42413384609978 963.0275229357799,115.21203542731809 974.2201834862385,90.0 985.4128440366973,113.24880981752949 996.6055045871559,126.10788400279728 1007.7981651376148,118.21475363496006 1018.9908256880734,141.52939659709887 1030.1834862385322,143.244386226757 1041.3761467889908,174.4455554474206 1052.5688073394494,180.89554114678444 1063.761467889908,187.95655076772692 1074.9541284403672,172.62203922818853 1086.1467889908258,182.41269215065128 1097.3394495412845,178.67763629681662 1108.532110091743,182.6300226540886 1119.724770642202,165.84829527799835 1130.9174311926606,173.0617099226608 1142.1100917431193,168.49364824606477 1153.302752293578,181.54247365106693 1164.4954128440368,210.76036979891472 1175.6880733944954,228.2328604061113 1186.8807339449543,233.34080814008283 1198.073394495413,243.0902050491099 1209.2660550458716,232.27226920408327 1220.4587155963302,233.9524830891495 1231.651376146789,213.8717355345151 1242.8440366972477,225.4965059513586 1254.0366972477066,234.58210920134536 1265.2293577981652,229.29305634921838 1276.4220183486239,213.7249035370129 1287.6146788990825,214.17225228752312 1298.8073394495414,212.94988379496868 1310.0,208.6922202773955 1310.0,294.86886669122435 1298.8073394495414,296.78135702670266 1287.6146788990825,296.58920069709006 1276.4220183486239,294.673303290249 1265.2293577981652,304.1606052670033 1254.0366972477066,307.1483709889991 1242.8440366972477,302.56116358565464 1231.651376146789,295.29907763037954 1220.4587155963302,308.36178181764274 1209.2660550458716,307.11633149485436 1198.073394495413,313.360649046164 1186.8807339449543,308.21327185203916 1175.6880733944954,304.5029158010161 1164.4954128440368,295.85871425876144 1153.302752293578,277.34119935172504 1142.1100917431193,269.06315045441784 1130.9174311926606,272.1084015541685 1119.724770642202,267.9267458724686 1108.532110091743,277.62978364362147 1097.3394495412845,275.2655037510828 1086.1467889908258,276.72478060340495 1074.9541284403672,270.79922681619314 1063.761467889908,280.6627761789754 1052.5688073394494,275.619596763001 1041.3761467889908,272.32695358341437 1030.1834862385322,255.48400963855727 1018.9908256880734,254.7096890185178 1007.7981651376148,239.79903065961216 996.6055045871559,244.1434093672468 985.4128440366973,236.39631814811 974.2201834862385,223.644803944445 963.0275229357799,238.6301812190569 951.8348623853211,239.6905042576201 940.6422018348625,230.6475336017895 929.4495412844036,237.13926346763225 918.256880733945,236.92507961774697 907.0642201834862,233.10377547482176 895.8715596330276,231.23415061023059 884.6788990825688,231.1528473285151 873.4862385321102,244.98394523846264 862.2935779816513,239.83965302555234 851.1009174311927,237.03458772096042 839.9082568807339,260.30471230895466 828.7155963302753,277.8935220176721 817.5229357798165,280.22563121196896 806.3302752293579,283.1813300154422 795.137614678899,278.40962313146395 783.9449541284404,273.4449747354323 772.7522935779816,276.4219537501766 761.559633027523,277.3458881573262 750.3669724770642,279.24686811461993 739.1743119266056,280.50023305114314 727.9816513761467,306.4457766909705 716.7889908256881,308.17960578422867 705.5963302752293,318.2436217411339 694.4036697247707,317.85572650072066 683.2110091743119,321.6917189649259 672.0183486238533,312.74245275828304 660.8256880733945,303.9344703656718 649.6330275229358,310.24749068755335 638.4403669724771,313.4345647173244 627.2477064220184,303.9920979847726 616.0550458715596,292.43973318729496 604.862385321101,285.45652903201096 593.6697247706422,288.9714821708876 582.4770642201836,283.23126116050594 571.2844036697247,275.60651942963113 560.0917431192661,273.85166305454925 548.8990825688074,279.4126465131634 537.7064220183486,264.2778142674751 526.5137614678899,274.38321432871294 515.3211009174313,272.90865075946135 504.1284403669725,257.2010230461208 492.9357798165138,265.76112575130037 481.7431192660551,268.2237570112603 470.55045871559633,275.3759551890396 459.35779816513764,282.0417796534928 448.16513761467894,278.4084300649356 436.9724770642202,306.4300072034833 425.7798165137615,302.1551842030443 414.5871559633028,299.81216991171624 403.39449541284404,298.284459556118 392.20183486238534,300.49593929582846 381.00917431192664,294.2755977153779 369.8165137614679,290.9512480203821 358.6238532110092,295.38817080653166 347.4311926605505,291.7947835625887 336.2385321100918,286.30586512480045 325.04587155963304,281.5562668779847 313.8532110091743,279.8351317263799 302.66055045871565,276.17939988531623 291.4678899082569,277.9427805536547 280.27522935779814,264.0923453865614 269.0825688073395,260.20552179182465 257.88990825688074,257.2984518304969 246.69724770642202,259.87918025196757 235.50458715596332,253.3376600761886 224.3119266055046,251.74469985463304 213.1192660550459,248.00285503869853 201.92660550458714,244.39025104771628 190.73394495412845,241.27857001436413 179.54128440366975,238.07284914929173 168.348623853211,237.0154289723116 157.1559633027523,238.31436110400472 145.96330275229357,235.42180156352174 134.77064220183487,232.47196013499817 123.57798165137615,230.11291025042797 112.38532110091744,227.92084491857904 101.19266055045871,224.7327862845129 90.0,222.46269195808432" fill="#f97316" fill-opacity="0.70" stroke="#f97316" stroke-width="1.2"/>
<rect x="1100" y="76" width="16" height="12" fill="#f97316" fill-opacity="0.70" stroke="#f97316"/>
<text x="1124" y="86" font-family="monospace" font-size="12" fill="#0f172a">BTC</text>
<rect x="1100" y="98" width="16" height="12" fill="#2563eb" fill-opacity="0.70" stroke="#2563eb"/>
<text x="1124" y="108" font-family="monospace" font-size="12" fill="#0f172a">ETH</text>
<rect x="1100" y="120" width="16" height="12" fill="#facc15" fill-opacity="0.70" stroke="#facc15"/>
<text x="1124" y="130" font-family="monospace" font-size="12" fill="#0f172a">DAI</text>
<text x="700.0" y="782" text-anchor="middle" font-family="monospace" font-size="16" fill="#0f172a">time</text>
<text x="24" y="255.0" transform="rotate(-90 24,255.0)" text-anchor="middle" font-family="monospace" font-size="16" fill="#0f172a">asset value split (usd)</text>
<line x1="90" y1="605" x2="1310" y2="605" stroke="#334155" stroke-width="2"/>
<line x1="90" y1="480" x2="90" y2="605" stroke="#334155" stroke-width="2"/>
<line x1="90" y1="542.5" x2="1310" y2="542.5" stroke="#64748b" stroke-width="1.5" stroke-dasharray="6 4"/>
<line x1="90" y1="605.0" x2="1310" y2="605.0" stroke="#e2e8f0" stroke-width="1"/>
<text x="78" y="609.0" text-anchor="end" font-family="monospace" font-size="11" fill="#475569">-240</text>
<line x1="90" y1="542.5" x2="1310" y2="542.5" stroke="#e2e8f0" stroke-width="1"/>
<text x="78" y="546.5" text-anchor="end" font-family="monospace" font-size="11" fill="#475569">0</text>
<line x1="90" y1="480.0" x2="1310" y2="480.0" stroke="#e2e8f0" stroke-width="1"/>
<text x="78" y="484.0" text-anchor="end" font-family="monospace" font-size="11" fill="#475569">240</text>
<rect x="86.95" y="511.25" width="6.1000000000000005" height="31.25" fill="#ea580c" opacity="0.85"><title>2024-04-01 | BTC buy 120.00 usd | reason=budgeted_static_target_rebalance</title></rect>
<rect x="98.14266055045871" y="511.25" width="6.1000000000000005" height="31.25" fill="#ea580c" opacity="0.85"><title>2024-04-08 | BTC buy 120.00 usd | reason=budgeted_static_target_rebalance</title></rect>
<rect x="109.33532110091744" y="511.25" width="6.1000000000000005" height="31.25" fill="#ea580c" opacity="0.85"><title>2024-04-15 | BTC buy 120.00 usd | reason=budgeted_static_target_rebalance</title></rect>
<rect x="120.52798165137615" y="511.25" width="6.1000000000000005" height="31.25" fill="#ea580c" opacity="0.85"><title>2024-04-22 | BTC buy 120.00 usd | reason=budgeted_static_target_rebalance</title></rect>
<rect x="131.72064220183486" y="511.25" width="6.1000000000000005" height="31.25" fill="#ea580c" opacity="0.85"><title>2024-04-29 | BTC buy 120.00 usd | reason=budgeted_static_target_rebalance</title></rect>
<rect x="142.91330275229356" y="511.25" width="6.1000000000000005" height="31.25" fill="#ea580c" opacity="0.85"><title>2024-05-06 | BTC buy 120.00 usd | reason=budgeted_static_target_rebalance</title></rect>
<rect x="154.1059633027523" y="511.25" width="6.1000000000000005" height="31.25" fill="#ea580c" opacity="0.85"><title>2024-05-13 | BTC buy 120.00 usd | reason=budgeted_static_target_rebalance</title></rect>
<rect x="165.29862385321098" y="511.25" width="6.1000000000000005" height="31.25" fill="#ea580c" opacity="0.85"><title>2024-05-20 | BTC buy 120.00 usd | reason=budgeted_static_target_rebalance</title></rect>
<rect x="176.49128440366974" y="511.25" width="6.1000000000000005" height="31.25" fill="#ea580c" opacity="0.85"><title>2024-05-27 | BTC buy 120.00 usd | reason=budgeted_static_target_rebalance</title></rect>
<rect x="187.68394495412844" y="511.25" width="6.1000000000000005" height="31.25" fill="#ea580c" opacity="0.85"><title>2024-06-03 | BTC buy 120.00 usd | reason=budgeted_static_target_rebalance</title></rect>
<rect x="198.87660550458713" y="511.25" width="6.1000000000000005" height="31.25" fill="#ea580c" opacity="0.85"><title>2024-06-10 | BTC buy 120.00 usd | reason=budgeted_static_target_rebalance</title></rect>
<rect x="210.0692660550459" y="511.25" width="6.1000000000000005" height="31.25" fill="#ea580c" opacity="0.85"><title>2024-06-17 | BTC buy 120.00 usd | reason=budgeted_static_target_rebalance</title></rect>
<rect x="221.26192660550458" y="511.25" width="6.1000000000000005" height="31.25" fill="#ea580c" opacity="0.85"><title>2024-06-24 | BTC buy 120.00 usd | reason=budgeted_static_target_rebalance</title></rect>
<rect x="232.4545871559633" y="511.25" width="6.1000000000000005" height="31.25" fill="#ea580c" opacity="0.85"><title>2024-07-01 | BTC buy 120.00 usd | reason=budgeted_static_target_rebalance</title></rect>
<rect x="243.647247706422" y="511.25" width="6.1000000000000005" height="31.25" fill="#ea580c" opacity="0.85"><title>2024-07-08 | BTC buy 120.00 usd | reason=budgeted_static_target_rebalance</title></rect>
<rect x="254.83990825688073" y="511.25" width="6.1000000000000005" height="31.25" fill="#ea580c" opacity="0.85"><title>2024-07-15 | BTC buy 120.00 usd | reason=budgeted_static_target_rebalance</title></rect>
<rect x="266.0325688073395" y="511.25" width="6.1000000000000005" height="31.25" fill="#ea580c" opacity="0.85"><title>2024-07-22 | BTC buy 120.00 usd | reason=budgeted_static_target_rebalance</title></rect>
<rect x="277.2252293577981" y="511.25" width="6.1000000000000005" height="31.25" fill="#ea580c" opacity="0.85"><title>2024-07-29 | BTC buy 120.00 usd | reason=budgeted_static_target_rebalance</title></rect>
<rect x="288.4178899082569" y="511.25" width="6.1000000000000005" height="31.25" fill="#ea580c" opacity="0.85"><title>2024-08-05 | BTC buy 120.00 usd | reason=budgeted_static_target_rebalance</title></rect>
<rect x="299.61055045871564" y="511.25" width="6.1000000000000005" height="31.25" fill="#ea580c" opacity="0.85"><title>2024-08-12 | BTC buy 120.00 usd | reason=budgeted_static_target_rebalance</title></rect>
<rect x="310.8032110091743" y="511.25" width="6.1000000000000005" height="31.25" fill="#ea580c" opacity="0.85"><title>2024-08-19 | BTC buy 120.00 usd | reason=budgeted_static_target_rebalance</title></rect>
<rect x="321.99587155963303" y="511.25" width="6.1000000000000005" height="31.25" fill="#ea580c" opacity="0.85"><title>2024-08-26 | BTC buy 120.00 usd | reason=budgeted_static_target_rebalance</title></rect>
<rect x="333.1885321100918" y="511.25" width="6.1000000000000005" height="31.25" fill="#ea580c" opacity="0.85"><title>2024-09-02 | BTC buy 120.00 usd | reason=budgeted_static_target_rebalance</title></rect>
<rect x="344.3811926605505" y="511.25" width="6.1000000000000005" height="31.25" fill="#ea580c" opacity="0.85"><title>2024-09-09 | BTC buy 120.00 usd | reason=budgeted_static_target_rebalance</title></rect>
<rect x="355.5738532110092" y="511.25" width="6.1000000000000005" height="31.25" fill="#ea580c" opacity="0.85"><title>2024-09-16 | BTC buy 120.00 usd | reason=budgeted_static_target_rebalance</title></rect>
<rect x="366.7665137614679" y="511.25" width="6.1000000000000005" height="31.25" fill="#ea580c" opacity="0.85"><title>2024-09-23 | BTC buy 120.00 usd | reason=budgeted_static_target_rebalance</title></rect>
<rect x="377.95917431192663" y="511.25" width="6.1000000000000005" height="31.25" fill="#ea580c" opacity="0.85"><title>2024-09-30 | BTC buy 120.00 usd | reason=budgeted_static_target_rebalance</title></rect>
<rect x="389.15183486238533" y="511.25" width="6.1000000000000005" height="31.25" fill="#ea580c" opacity="0.85"><title>2024-10-07 | BTC buy 120.00 usd | reason=budgeted_static_target_rebalance</title></rect>
<rect x="400.344495412844" y="511.25" width="6.1000000000000005" height="31.25" fill="#ea580c" opacity="0.85"><title>2024-10-14 | BTC buy 120.00 usd | reason=budgeted_static_target_rebalance</title></rect>
<rect x="411.5371559633028" y="511.54826560840024" width="6.1000000000000005" height="30.951734391599757" fill="#ea580c" opacity="0.85"><title>2024-10-21 | BTC buy 118.85 usd | reason=budgeted_static_target_rebalance</title></rect>
<rect x="422.7298165137615" y="542.5" width="6.1000000000000005" height="1.5" fill="#dc2626" opacity="0.85"><title>2024-10-28 | BTC sell 2.92 usd | reason=budgeted_static_target_rebalance</title></rect>
<rect x="433.9224770642202" y="542.5" width="6.1000000000000005" height="1.5" fill="#dc2626" opacity="0.85"><title>2024-11-04 | BTC sell 5.17 usd | reason=budgeted_static_target_rebalance</title></rect>
<rect x="445.11513761467893" y="542.5" width="6.1000000000000005" height="8.515483283433241" fill="#dc2626" opacity="0.85"><title>2024-11-11 | BTC sell 32.70 usd | reason=budgeted_static_target_rebalance</title></rect>
<rect x="456.3077981651376" y="542.5" width="6.1000000000000005" height="14.000819703103616" fill="#dc2626" opacity="0.85"><title>2024-11-18 | BTC sell 53.76 usd | reason=budgeted_static_target_rebalance</title></rect>
<rect x="467.5004587155963" y="542.5" width="6.1000000000000005" height="9.226145544468295" fill="#dc2626" opacity="0.85"><title>2024-11-25 | BTC sell 35.43 usd | reason=budgeted_static_target_rebalance</title></rect>
<rect x="478.6931192660551" y="542.5" width="6.1000000000000005" height="6.457591617238563" fill="#dc2626" opacity="0.85"><title>2024-12-02 | BTC sell 24.80 usd | reason=budgeted_static_target_rebalance</title></rect>
<rect x="489.8857798165138" y="542.5" width="6.1000000000000005" height="6.146670482962236" fill="#dc2626" opacity="0.85"><title>2024-12-09 | BTC sell 23.60 usd | reason=budgeted_static_target_rebalance</title></rect>
<rect x="501.0784403669725" y="542.5" width="6.1000000000000005" height="9.047405778424832" fill="#dc2626" opacity="0.85"><title>2024-12-16 | BTC sell 34.74 usd | reason=budgeted_static_target_rebalance</title></rect>
<rect x="512.2711009174313" y="542.5" width="6.1000000000000005" height="7.019865960221182" fill="#dc2626" opacity="0.85"><title>2024-12-23 | BTC sell 26.96 usd | reason=budgeted_static_target_rebalance</title></rect>
<rect x="523.46376146789" y="542.5" width="6.1000000000000005" height="4.269718986610428" fill="#dc2626" opacity="0.85"><title>2024-12-30 | BTC sell 16.40 usd | reason=budgeted_static_target_rebalance</title></rect>
<rect x="534.6564220183486" y="542.5" width="6.1000000000000005" height="5.608313749026706" fill="#dc2626" opacity="0.85"><title>2025-01-06 | BTC sell 21.54 usd | reason=budgeted_static_target_rebalance</title></rect>
<rect x="545.8490825688075" y="542.5" width="6.1000000000000005" height="11.116961256353193" fill="#dc2626" opacity="0.85"><title>2025-01-13 | BTC sell 42.69 usd | reason=budgeted_static_target_rebalance</title></rect>
<rect x="557.0417431192661" y="542.5" width="6.1000000000000005" height="16.347795687662824" fill="#dc2626" opacity="0.85"><title>2025-01-20 | BTC sell 62.78 usd | reason=budgeted_static_target_rebalance</title></rect>
<rect x="568.2344036697248" y="542.5" width="6.1000000000000005" height="16.094268026794225" fill="#dc2626" opacity="0.85"><title>2025-01-27 | BTC sell 61.80 usd | reason=budgeted_static_target_rebalance</title></rect>
<rect x="579.4270642201836" y="542.5" width="6.1000000000000005" height="20.83275418394794" fill="#dc2626" opacity="0.85"><title>2025-02-03 | BTC sell 80.00 usd | reason=budgeted_static_target_rebalance</title></rect>
<rect x="590.6197247706423" y="542.5" width="6.1000000000000005" height="18.0697094746605" fill="#dc2626" opacity="0.85"><title>2025-02-10 | BTC sell 69.39 usd | reason=budgeted_static_target_rebalance</title></rect>
<rect x="601.812385321101" y="542.5" width="6.1000000000000005" height="10.118364462029035" fill="#dc2626" opacity="0.85"><title>2025-02-17 | BTC sell 38.85 usd | reason=budgeted_static_target_rebalance</title></rect>
<rect x="613.0050458715597" y="542.5" width="6.1000000000000005" height="9.540228081252849" fill="#dc2626" opacity="0.85"><title>2025-02-24 | BTC sell 36.63 usd | reason=budgeted_static_target_rebalance</title></rect>
<rect x="624.1977064220184" y="542.5" width="6.1000000000000005" height="11.983174510917479" fill="#dc2626" opacity="0.85"><title>2025-03-03 | BTC sell 46.02 usd | reason=budgeted_static_target_rebalance</title></rect>
<rect x="635.3903669724772" y="542.5" width="6.1000000000000005" height="8.894202366306104" fill="#dc2626" opacity="0.85"><title>2025-03-10 | BTC sell 34.15 usd | reason=budgeted_static_target_rebalance</title></rect>
<rect x="646.5830275229358" y="542.5" width="6.1000000000000005" height="12.58599592608391" fill="#dc2626" opacity="0.85"><title>2025-03-17 | BTC sell 48.33 usd | reason=budgeted_static_target_rebalance</title></rect>
<rect x="657.7756880733946" y="542.5" width="6.1000000000000005" height="9.940958526517761" fill="#dc2626" opacity="0.85"><title>2025-03-24 | BTC sell 38.17 usd | reason=budgeted_static_target_rebalance</title></rect>
<rect x="668.9683486238533" y="542.5" width="6.1000000000000005" height="10.464518623510116" fill="#dc2626" opacity="0.85"><title>2025-03-31 | BTC sell 40.18 usd | reason=budgeted_static_target_rebalance</title></rect>
<rect x="680.161009174312" y="542.5" width="6.1000000000000005" height="13.35038613842164" fill="#dc2626" opacity="0.85"><title>2025-04-07 | BTC sell 51.27 usd | reason=budgeted_static_target_rebalance</title></rect>
<rect x="691.3536697247707" y="542.5" width="6.1000000000000005" height="15.53559263731745" fill="#dc2626" opacity="0.85"><title>2025-04-14 | BTC sell 59.66 usd | reason=budgeted_static_target_rebalance</title></rect>
<rect x="702.5463302752294" y="542.5" width="6.1000000000000005" height="18.110104734802462" fill="#dc2626" opacity="0.85"><title>2025-04-21 | BTC sell 69.54 usd | reason=budgeted_static_target_rebalance</title></rect>
<rect x="713.7389908256881" y="542.5" width="6.1000000000000005" height="16.151375411486583" fill="#dc2626" opacity="0.85"><title>2025-04-28 | BTC sell 62.02 usd | reason=budgeted_static_target_rebalance</title></rect>
<rect x="724.9316513761468" y="542.5" width="6.1000000000000005" height="12.225585377055836" fill="#dc2626" opacity="0.85"><title>2025-05-05 | BTC sell 46.95 usd | reason=budgeted_static_target_rebalance</title></rect>
<rect x="736.1243119266056" y="528.587554060715" width="6.1000000000000005" height="13.912445939285021" fill="#ea580c" opacity="0.85"><title>2025-05-12 | BTC buy 53.42 usd | reason=budgeted_static_target_rebalance</title></rect>
<rect x="747.3169724770643" y="541.9282471087813" width="6.1000000000000005" height="1.5" fill="#ea580c" opacity="0.85"><title>2025-05-19 | BTC buy 2.20 usd | reason=budgeted_static_target_rebalance</title></rect>
<rect x="758.509633027523" y="542.5" width="6.1000000000000005" height="6.651877253187422" fill="#dc2626" opacity="0.85"><title>2025-05-26 | BTC sell 25.54 usd | reason=budgeted_static_target_rebalance</title></rect>
<rect x="769.7022935779817" y="531.7828178658792" width="6.1000000000000005" height="10.717182134120776" fill="#ea580c" opacity="0.85"><title>2025-06-02 | BTC buy 41.15 usd | reason=budgeted_static_target_rebalance</title></rect>
<rect x="780.8949541284404" y="542.5" width="6.1000000000000005" height="2.7373260676598647" fill="#dc2626" opacity="0.85"><title>2025-06-09 | BTC sell 10.51 usd | reason=budgeted_static_target_rebalance</title></rect>
<rect x="792.0876146788991" y="542.5" width="6.1000000000000005" height="2.9066495897759523" fill="#dc2626" opacity="0.85"><title>2025-06-16 | BTC sell 11.16 usd | reason=budgeted_static_target_rebalance</title></rect>
<rect x="803.2802752293579" y="542.5" width="6.1000000000000005" height="3.354793147254213" fill="#dc2626" opacity="0.85"><title>2025-06-23 | BTC sell 12.88 usd | reason=budgeted_static_target_rebalance</title></rect>
<rect x="814.4729357798166" y="542.5" width="6.1000000000000005" height="2.216781781720215" fill="#dc2626" opacity="0.85"><title>2025-06-30 | BTC sell 8.51 usd | reason=budgeted_static_target_rebalance</title></rect>
<rect x="825.6655963302753" y="542.5" width="6.1000000000000005" height="2.536703988914951" fill="#dc2626" opacity="0.85"><title>2025-07-07 | BTC sell 9.74 usd | reason=budgeted_static_target_rebalance</title></rect>
<rect x="836.858256880734" y="538.3077639630301" width="6.1000000000000005" height="4.192236036969916" fill="#ea580c" opacity="0.85"><title>2025-07-14 | BTC buy 16.10 usd | reason=budgeted_static_target_rebalance</title></rect>
<rect x="848.0509174311927" y="480.0" width="6.1000000000000005" height="62.5" fill="#ea580c" opacity="0.85"><title>2025-07-21 | BTC buy 240.00 usd | reason=budgeted_static_target_rebalance</title></rect>
<rect x="859.2435779816514" y="489.06635368804353" width="6.1000000000000005" height="53.433646311956466" fill="#ea580c" opacity="0.85"><title>2025-07-28 | BTC buy 205.19 usd | reason=budgeted_static_target_rebalance</title></rect>
<rect x="870.4362385321102" y="511.70996012241363" width="6.1000000000000005" height="30.790039877586366" fill="#ea580c" opacity="0.85"><title>2025-08-04 | BTC buy 118.23 usd | reason=budgeted_static_target_rebalance</title></rect>
<rect x="881.6288990825689" y="495.68808288215916" width="6.1000000000000005" height="46.811917117840835" fill="#ea580c" opacity="0.85"><title>2025-08-11 | BTC buy 179.76 usd | reason=budgeted_static_target_rebalance</title></rect>
<rect x="892.8215596330276" y="501.5912984165439" width="6.1000000000000005" height="40.90870158345609" fill="#ea580c" opacity="0.85"><title>2025-08-18 | BTC buy 157.09 usd | reason=budgeted_static_target_rebalance</title></rect>
<rect x="904.0142201834863" y="491.8189185026524" width="6.1000000000000005" height="50.68108149734758" fill="#ea580c" opacity="0.85"><title>2025-08-25 | BTC buy 194.62 usd | reason=budgeted_static_target_rebalance</title></rect>
<rect x="915.206880733945" y="518.6198730533481" width="6.1000000000000005" height="23.8801269466519" fill="#ea580c" opacity="0.85"><title>2025-09-01 | BTC buy 91.70 usd | reason=budgeted_static_target_rebalance</title></rect>
<rect x="926.3995412844037" y="542.5" width="6.1000000000000005" height="1.5" fill="#dc2626" opacity="0.85"><title>2025-09-08 | BTC sell 3.23 usd | reason=budgeted_static_target_rebalance</title></rect>
<rect x="937.5922018348625" y="539.4799088505839" width="6.1000000000000005" height="3.020091149416089" fill="#ea580c" opacity="0.85"><title>2025-09-15 | BTC buy 11.60 usd | reason=budgeted_static_target_rebalance</title></rect>
<rect x="948.7848623853212" y="542.5" width="6.1000000000000005" height="9.088277537714589" fill="#dc2626" opacity="0.85"><title>2025-09-22 | BTC sell 34.90 usd | reason=budgeted_static_target_rebalance</title></rect>
<rect x="959.9775229357799" y="542.5" width="6.1000000000000005" height="8.00204782510366" fill="#dc2626" opacity="0.85"><title>2025-09-29 | BTC sell 30.73 usd | reason=budgeted_static_target_rebalance</title></rect>
<rect x="971.1701834862386" y="542.5" width="6.1000000000000005" height="12.348442658457543" fill="#dc2626" opacity="0.85"><title>2025-10-06 | BTC sell 47.42 usd | reason=budgeted_static_target_rebalance</title></rect>
<rect x="982.3628440366973" y="542.5" width="6.1000000000000005" height="4.888203550346475" fill="#dc2626" opacity="0.85"><title>2025-10-13 | BTC sell 18.77 usd | reason=budgeted_static_target_rebalance</title></rect>
<rect x="993.555504587156" y="542.5" width="6.1000000000000005" height="1.5" fill="#dc2626" opacity="0.85"><title>2025-10-20 | BTC sell 4.23 usd | reason=budgeted_static_target_rebalance</title></rect>
<rect x="1004.7481651376148" y="542.5" width="6.1000000000000005" height="2.7080467652887137" fill="#dc2626" opacity="0.85"><title>2025-10-27 | BTC sell 10.40 usd | reason=budgeted_static_target_rebalance</title></rect>
<rect x="1015.9408256880735" y="542.5" width="6.1000000000000005" height="4.951206832181015" fill="#dc2626" opacity="0.85"><title>2025-11-03 | BTC sell 19.01 usd | reason=budgeted_static_target_rebalance</title></rect>
<rect x="1027.1334862385322" y="542.5" width="6.1000000000000005" height="4.247577618362811" fill="#dc2626" opacity="0.85"><title>2025-11-10 | BTC sell 16.31 usd | reason=budgeted_static_target_rebalance</title></rect>
<rect x="1038.3261467889909" y="538.0665662688731" width="6.1000000000000005" height="4.433433731126911" fill="#ea580c" opacity="0.85"><title>2025-11-17 | BTC buy 17.02 usd | reason=budgeted_static_target_rebalance</title></rect>
<rect x="1049.5188073394495" y="530.5466252310373" width="6.1000000000000005" height="11.953374768962703" fill="#ea580c" opacity="0.85"><title>2025-11-24 | BTC buy 45.90 usd | reason=budgeted_static_target_rebalance</title></rect>
<rect x="1060.7114678899081" y="541.0522192911753" width="6.1000000000000005" height="1.5" fill="#ea580c" opacity="0.85"><title>2025-12-01 | BTC buy 5.56 usd | reason=budgeted_static_target_rebalance</title></rect>
<rect x="1071.9041284403672" y="532.4187192413133" width="6.1000000000000005" height="10.081280758686717" fill="#ea580c" opacity="0.85"><title>2025-12-08 | BTC buy 38.71 usd | reason=budgeted_static_target_rebalance</title></rect>
<rect x="1083.0967889908259" y="533.0851029771247" width="6.1000000000000005" height="9.414897022875266" fill="#ea580c" opacity="0.85"><title>2025-12-15 | BTC buy 36.15 usd | reason=budgeted_static_target_rebalance</title></rect>
<rect x="1094.2894495412845" y="542.5" width="6.1000000000000005" height="1.5" fill="#dc2626" opacity="0.85"><title>2025-12-22 | BTC sell 2.95 usd | reason=budgeted_static_target_rebalance</title></rect>
<rect x="1105.4821100917432" y="542.5" width="6.1000000000000005" height="1.5" fill="#dc2626" opacity="0.85"><title>2025-12-29 | BTC sell 0.55 usd | reason=budgeted_static_target_rebalance</title></rect>
<rect x="1116.674770642202" y="542.5" width="6.1000000000000005" height="3.812779222628137" fill="#dc2626" opacity="0.85"><title>2026-01-05 | BTC sell 14.64 usd | reason=budgeted_static_target_rebalance</title></rect>
<rect x="1127.8674311926607" y="542.5" width="6.1000000000000005" height="1.501339484789014" fill="#dc2626" opacity="0.85"><title>2026-01-12 | BTC sell 5.77 usd | reason=budgeted_static_target_rebalance</title></rect>
<rect x="1139.0600917431193" y="542.0696747581885" width="6.1000000000000005" height="1.5" fill="#ea580c" opacity="0.85"><title>2026-01-19 | BTC buy 1.65 usd | reason=budgeted_static_target_rebalance</title></rect>
<rect x="1150.252752293578" y="542.5" width="6.1000000000000005" height="1.5" fill="#dc2626" opacity="0.85"><title>2026-01-26 | BTC sell 4.41 usd | reason=budgeted_static_target_rebalance</title></rect>
<rect x="1161.4454128440368" y="542.5" width="6.1000000000000005" height="3.874906248501702" fill="#dc2626" opacity="0.85"><title>2026-02-02 | BTC sell 14.88 usd | reason=budgeted_static_target_rebalance</title></rect>
<rect x="1172.6380733944954" y="536.8106892057838" width="6.1000000000000005" height="5.689310794216226" fill="#ea580c" opacity="0.85"><title>2026-02-09 | BTC buy 21.85 usd | reason=budgeted_static_target_rebalance</title></rect>
<rect x="1183.8307339449543" y="542.5" width="6.1000000000000005" height="1.5" fill="#dc2626" opacity="0.85"><title>2026-02-16 | BTC sell 2.22 usd | reason=budgeted_static_target_rebalance</title></rect>
<rect x="1195.023394495413" y="542.5" width="6.1000000000000005" height="1.5" fill="#ea580c" opacity="0.85"><title>2026-02-23 | BTC buy 0.00 usd | reason=budgeted_static_target_rebalance</title></rect>
<rect x="1206.2160550458716" y="542.5" width="6.1000000000000005" height="1.5" fill="#ea580c" opacity="0.85"><title>2026-03-02 | BTC buy 0.00 usd | reason=budgeted_static_target_rebalance</title></rect>
<rect x="1217.4087155963302" y="542.5" width="6.1000000000000005" height="1.5" fill="#ea580c" opacity="0.85"><title>2026-03-09 | BTC buy 0.00 usd | reason=budgeted_static_target_rebalance</title></rect>
<rect x="1228.601376146789" y="542.5" width="6.1000000000000005" height="1.5" fill="#ea580c" opacity="0.85"><title>2026-03-16 | BTC buy 0.00 usd | reason=budgeted_static_target_rebalance</title></rect>
<rect x="1239.7940366972477" y="542.5" width="6.1000000000000005" height="1.5" fill="#ea580c" opacity="0.85"><title>2026-03-23 | BTC buy 0.00 usd | reason=budgeted_static_target_rebalance</title></rect>
<rect x="1250.9866972477066" y="542.5" width="6.1000000000000005" height="1.5" fill="#ea580c" opacity="0.85"><title>2026-03-30 | BTC buy 0.00 usd | reason=budgeted_static_target_rebalance</title></rect>
<rect x="1262.1793577981653" y="542.5" width="6.1000000000000005" height="1.5" fill="#ea580c" opacity="0.85"><title>2026-04-06 | BTC buy 0.00 usd | reason=budgeted_static_target_rebalance</title></rect>
<rect x="1273.372018348624" y="542.5" width="6.1000000000000005" height="1.5" fill="#ea580c" opacity="0.85"><title>2026-04-13 | BTC buy 0.00 usd | reason=budgeted_static_target_rebalance</title></rect>
<rect x="1284.5646788990825" y="542.5" width="6.1000000000000005" height="1.5" fill="#dc2626" opacity="0.85"><title>2026-04-20 | BTC sell 3.71 usd | reason=budgeted_static_target_rebalance</title></rect>
<rect x="1295.7573394495414" y="542.5" width="6.1000000000000005" height="2.7944421587793613" fill="#dc2626" opacity="0.85"><title>2026-04-27 | BTC sell 10.73 usd | reason=budgeted_static_target_rebalance</title></rect>
<rect x="1306.95" y="542.5" width="6.1000000000000005" height="4.56850344163297" fill="#dc2626" opacity="0.85"><title>2026-05-04 | BTC sell 17.54 usd | reason=budgeted_static_target_rebalance</title></rect>
<text x="24" y="542.5" transform="rotate(-90 24,542.5)" text-anchor="middle" font-family="monospace" font-size="14" fill="#0f172a">BTC weekly trade usd</text>
<line x1="90" y1="770" x2="1310" y2="770" stroke="#334155" stroke-width="2"/>
<line x1="90" y1="645" x2="90" y2="770" stroke="#334155" stroke-width="2"/>
<line x1="90" y1="707.5" x2="1310" y2="707.5" stroke="#64748b" stroke-width="1.5" stroke-dasharray="6 4"/>
<line x1="90" y1="770.0" x2="1310" y2="770.0" stroke="#e2e8f0" stroke-width="1"/>
<text x="78" y="774.0" text-anchor="end" font-family="monospace" font-size="11" fill="#475569">-240</text>
<line x1="90" y1="707.5" x2="1310" y2="707.5" stroke="#e2e8f0" stroke-width="1"/>
<text x="78" y="711.5" text-anchor="end" font-family="monospace" font-size="11" fill="#475569">0</text>
<line x1="90" y1="645.0" x2="1310" y2="645.0" stroke="#e2e8f0" stroke-width="1"/>
<text x="78" y="649.0" text-anchor="end" font-family="monospace" font-size="11" fill="#475569">240</text>
<rect x="86.95" y="676.25" width="6.1000000000000005" height="31.25" fill="#2563eb" opacity="0.85"><title>2024-04-01 | ETH buy 120.00 usd | reason=budgeted_static_target_rebalance</title></rect>
<rect x="98.14266055045871" y="676.25" width="6.1000000000000005" height="31.25" fill="#2563eb" opacity="0.85"><title>2024-04-08 | ETH buy 120.00 usd | reason=budgeted_static_target_rebalance</title></rect>
<rect x="109.33532110091744" y="676.25" width="6.1000000000000005" height="31.25" fill="#2563eb" opacity="0.85"><title>2024-04-15 | ETH buy 120.00 usd | reason=budgeted_static_target_rebalance</title></rect>
<rect x="120.52798165137615" y="676.25" width="6.1000000000000005" height="31.25" fill="#2563eb" opacity="0.85"><title>2024-04-22 | ETH buy 120.00 usd | reason=budgeted_static_target_rebalance</title></rect>
<rect x="131.72064220183486" y="676.25" width="6.1000000000000005" height="31.25" fill="#2563eb" opacity="0.85"><title>2024-04-29 | ETH buy 120.00 usd | reason=budgeted_static_target_rebalance</title></rect>
<rect x="142.91330275229356" y="676.25" width="6.1000000000000005" height="31.25" fill="#2563eb" opacity="0.85"><title>2024-05-06 | ETH buy 120.00 usd | reason=budgeted_static_target_rebalance</title></rect>
<rect x="154.1059633027523" y="676.25" width="6.1000000000000005" height="31.25" fill="#2563eb" opacity="0.85"><title>2024-05-13 | ETH buy 120.00 usd | reason=budgeted_static_target_rebalance</title></rect>
<rect x="165.29862385321098" y="676.25" width="6.1000000000000005" height="31.25" fill="#2563eb" opacity="0.85"><title>2024-05-20 | ETH buy 120.00 usd | reason=budgeted_static_target_rebalance</title></rect>
<rect x="176.49128440366974" y="676.25" width="6.1000000000000005" height="31.25" fill="#2563eb" opacity="0.85"><title>2024-05-27 | ETH buy 120.00 usd | reason=budgeted_static_target_rebalance</title></rect>
<rect x="187.68394495412844" y="676.25" width="6.1000000000000005" height="31.25" fill="#2563eb" opacity="0.85"><title>2024-06-03 | ETH buy 120.00 usd | reason=budgeted_static_target_rebalance</title></rect>
<rect x="198.87660550458713" y="676.25" width="6.1000000000000005" height="31.25" fill="#2563eb" opacity="0.85"><title>2024-06-10 | ETH buy 120.00 usd | reason=budgeted_static_target_rebalance</title></rect>
<rect x="210.0692660550459" y="676.25" width="6.1000000000000005" height="31.25" fill="#2563eb" opacity="0.85"><title>2024-06-17 | ETH buy 120.00 usd | reason=budgeted_static_target_rebalance</title></rect>
<rect x="221.26192660550458" y="676.25" width="6.1000000000000005" height="31.25" fill="#2563eb" opacity="0.85"><title>2024-06-24 | ETH buy 120.00 usd | reason=budgeted_static_target_rebalance</title></rect>
<rect x="232.4545871559633" y="676.25" width="6.1000000000000005" height="31.25" fill="#2563eb" opacity="0.85"><title>2024-07-01 | ETH buy 120.00 usd | reason=budgeted_static_target_rebalance</title></rect>
<rect x="243.647247706422" y="676.25" width="6.1000000000000005" height="31.25" fill="#2563eb" opacity="0.85"><title>2024-07-08 | ETH buy 120.00 usd | reason=budgeted_static_target_rebalance</title></rect>
<rect x="254.83990825688073" y="676.25" width="6.1000000000000005" height="31.25" fill="#2563eb" opacity="0.85"><title>2024-07-15 | ETH buy 120.00 usd | reason=budgeted_static_target_rebalance</title></rect>
<rect x="266.0325688073395" y="676.25" width="6.1000000000000005" height="31.25" fill="#2563eb" opacity="0.85"><title>2024-07-22 | ETH buy 120.00 usd | reason=budgeted_static_target_rebalance</title></rect>
<rect x="277.2252293577981" y="676.25" width="6.1000000000000005" height="31.25" fill="#2563eb" opacity="0.85"><title>2024-07-29 | ETH buy 120.00 usd | reason=budgeted_static_target_rebalance</title></rect>
<rect x="288.4178899082569" y="676.25" width="6.1000000000000005" height="31.25" fill="#2563eb" opacity="0.85"><title>2024-08-05 | ETH buy 120.00 usd | reason=budgeted_static_target_rebalance</title></rect>
<rect x="299.61055045871564" y="676.25" width="6.1000000000000005" height="31.25" fill="#2563eb" opacity="0.85"><title>2024-08-12 | ETH buy 120.00 usd | reason=budgeted_static_target_rebalance</title></rect>
<rect x="310.8032110091743" y="676.25" width="6.1000000000000005" height="31.25" fill="#2563eb" opacity="0.85"><title>2024-08-19 | ETH buy 120.00 usd | reason=budgeted_static_target_rebalance</title></rect>
<rect x="321.99587155963303" y="676.25" width="6.1000000000000005" height="31.25" fill="#2563eb" opacity="0.85"><title>2024-08-26 | ETH buy 120.00 usd | reason=budgeted_static_target_rebalance</title></rect>
<rect x="333.1885321100918" y="676.25" width="6.1000000000000005" height="31.25" fill="#2563eb" opacity="0.85"><title>2024-09-02 | ETH buy 120.00 usd | reason=budgeted_static_target_rebalance</title></rect>
<rect x="344.3811926605505" y="676.25" width="6.1000000000000005" height="31.25" fill="#2563eb" opacity="0.85"><title>2024-09-09 | ETH buy 120.00 usd | reason=budgeted_static_target_rebalance</title></rect>
<rect x="355.5738532110092" y="676.25" width="6.1000000000000005" height="31.25" fill="#2563eb" opacity="0.85"><title>2024-09-16 | ETH buy 120.00 usd | reason=budgeted_static_target_rebalance</title></rect>
<rect x="366.7665137614679" y="676.25" width="6.1000000000000005" height="31.25" fill="#2563eb" opacity="0.85"><title>2024-09-23 | ETH buy 120.00 usd | reason=budgeted_static_target_rebalance</title></rect>
<rect x="377.95917431192663" y="676.25" width="6.1000000000000005" height="31.25" fill="#2563eb" opacity="0.85"><title>2024-09-30 | ETH buy 120.00 usd | reason=budgeted_static_target_rebalance</title></rect>
<rect x="389.15183486238533" y="676.25" width="6.1000000000000005" height="31.25" fill="#2563eb" opacity="0.85"><title>2024-10-07 | ETH buy 120.00 usd | reason=budgeted_static_target_rebalance</title></rect>
<rect x="400.344495412844" y="676.25" width="6.1000000000000005" height="31.25" fill="#2563eb" opacity="0.85"><title>2024-10-14 | ETH buy 120.00 usd | reason=budgeted_static_target_rebalance</title></rect>
<rect x="411.5371559633028" y="675.9517343915998" width="6.1000000000000005" height="31.548265608400243" fill="#2563eb" opacity="0.85"><title>2024-10-21 | ETH buy 121.15 usd | reason=budgeted_static_target_rebalance</title></rect>
<rect x="422.7298165137615" y="645.0" width="6.1000000000000005" height="62.5" fill="#2563eb" opacity="0.85"><title>2024-10-28 | ETH buy 240.00 usd | reason=budgeted_static_target_rebalance</title></rect>
<rect x="433.9224770642202" y="645.0" width="6.1000000000000005" height="62.5" fill="#2563eb" opacity="0.85"><title>2024-11-04 | ETH buy 240.00 usd | reason=budgeted_static_target_rebalance</title></rect>
<rect x="445.11513761467893" y="694.0940774636854" width="6.1000000000000005" height="13.40592253631462" fill="#2563eb" opacity="0.85"><title>2024-11-11 | ETH buy 51.48 usd | reason=budgeted_static_target_rebalance</title></rect>
<rect x="456.3077981651376" y="677.2894388635032" width="6.1000000000000005" height="30.210561136496835" fill="#2563eb" opacity="0.85"><title>2024-11-18 | ETH buy 116.01 usd | reason=budgeted_static_target_rebalance</title></rect>
<rect x="467.5004587155963" y="707.5" width="6.1000000000000005" height="1.5" fill="#7c3aed" opacity="0.85"><title>2024-11-25 | ETH sell 3.87 usd | reason=budgeted_static_target_rebalance</title></rect>
<rect x="478.6931192660551" y="707.5" width="6.1000000000000005" height="6.457591617238563" fill="#7c3aed" opacity="0.85"><title>2024-12-02 | ETH sell 24.80 usd | reason=budgeted_static_target_rebalance</title></rect>
<rect x="489.8857798165138" y="707.5" width="6.1000000000000005" height="6.146670482962236" fill="#7c3aed" opacity="0.85"><title>2024-12-09 | ETH sell 23.60 usd | reason=budgeted_static_target_rebalance</title></rect>
<rect x="501.0784403669725" y="707.5" width="6.1000000000000005" height="9.047405778424832" fill="#7c3aed" opacity="0.85"><title>2024-12-16 | ETH sell 34.74 usd | reason=budgeted_static_target_rebalance</title></rect>
<rect x="512.2711009174313" y="692.912774008283" width="6.1000000000000005" height="14.587225991716991" fill="#2563eb" opacity="0.85"><title>2024-12-23 | ETH buy 56.01 usd | reason=budgeted_static_target_rebalance</title></rect>
<rect x="523.46376146789" y="699.1921637159749" width="6.1000000000000005" height="8.307836284025143" fill="#2563eb" opacity="0.85"><title>2024-12-30 | ETH buy 31.90 usd | reason=budgeted_static_target_rebalance</title></rect>
<rect x="534.6564220183486" y="707.5" width="6.1000000000000005" height="5.608313749026706" fill="#7c3aed" opacity="0.85"><title>2025-01-06 | ETH sell 21.54 usd | reason=budgeted_static_target_rebalance</title></rect>
<rect x="545.8490825688075" y="670.5013050394532" width="6.1000000000000005" height="36.9986949605468" fill="#2563eb" opacity="0.85"><title>2025-01-13 | ETH buy 142.07 usd | reason=budgeted_static_target_rebalance</title></rect>
<rect x="557.0417431192661" y="684.6788084891358" width="6.1000000000000005" height="22.821191510864196" fill="#2563eb" opacity="0.85"><title>2025-01-20 | ETH buy 87.63 usd | reason=budgeted_static_target_rebalance</title></rect>
<rect x="568.2344036697248" y="684.6311801514663" width="6.1000000000000005" height="22.86881984853369" fill="#2563eb" opacity="0.85"><title>2025-01-27 | ETH buy 87.82 usd | reason=budgeted_static_target_rebalance</title></rect>
<rect x="579.4270642201836" y="661.6510204999084" width="6.1000000000000005" height="45.84897950009156" fill="#2563eb" opacity="0.85"><title>2025-02-03 | ETH buy 176.06 usd | reason=budgeted_static_target_rebalance</title></rect>
<rect x="590.6197247706423" y="667.4215525938506" width="6.1000000000000005" height="40.078447406149394" fill="#2563eb" opacity="0.85"><title>2025-02-10 | ETH buy 153.90 usd | reason=budgeted_static_target_rebalance</title></rect>
<rect x="601.812385321101" y="702.5269221598899" width="6.1000000000000005" height="4.973077840110136" fill="#2563eb" opacity="0.85"><title>2025-02-17 | ETH buy 19.10 usd | reason=budgeted_static_target_rebalance</title></rect>
<rect x="613.0050458715597" y="685.9925146039734" width="6.1000000000000005" height="21.507485396026595" fill="#2563eb" opacity="0.85"><title>2025-02-24 | ETH buy 82.59 usd | reason=budgeted_static_target_rebalance</title></rect>
<rect x="624.1977064220184" y="661.8375616400599" width="6.1000000000000005" height="45.6624383599401" fill="#2563eb" opacity="0.85"><title>2025-03-03 | ETH buy 175.34 usd | reason=budgeted_static_target_rebalance</title></rect>
<rect x="635.3903669724772" y="707.5" width="6.1000000000000005" height="1.5" fill="#2563eb" opacity="0.85"><title>2025-03-10 | ETH buy 0.00 usd | reason=budgeted_static_target_rebalance</title></rect>
<rect x="646.5830275229358" y="707.5" width="6.1000000000000005" height="1.5" fill="#2563eb" opacity="0.85"><title>2025-03-17 | ETH buy 0.00 usd | reason=budgeted_static_target_rebalance</title></rect>
<rect x="657.7756880733946" y="672.2924985847574" width="6.1000000000000005" height="35.20750141524263" fill="#2563eb" opacity="0.85"><title>2025-03-24 | ETH buy 135.20 usd | reason=budgeted_static_target_rebalance</title></rect>
<rect x="668.9683486238533" y="707.5" width="6.1000000000000005" height="1.5" fill="#2563eb" opacity="0.85"><title>2025-03-31 | ETH buy 0.00 usd | reason=budgeted_static_target_rebalance</title></rect>
<rect x="680.161009174312" y="707.5" width="6.1000000000000005" height="1.5" fill="#2563eb" opacity="0.85"><title>2025-04-07 | ETH buy 0.00 usd | reason=budgeted_static_target_rebalance</title></rect>
<rect x="691.3536697247707" y="645.0" width="6.1000000000000005" height="62.5" fill="#2563eb" opacity="0.85"><title>2025-04-14 | ETH buy 240.00 usd | reason=budgeted_static_target_rebalance</title></rect>
<rect x="702.5463302752294" y="707.5" width="6.1000000000000005" height="1.5" fill="#2563eb" opacity="0.85"><title>2025-04-21 | ETH buy 0.00 usd | reason=budgeted_static_target_rebalance</title></rect>
<rect x="713.7389908256881" y="707.5" width="6.1000000000000005" height="1.5" fill="#2563eb" opacity="0.85"><title>2025-04-28 | ETH buy 0.00 usd | reason=budgeted_static_target_rebalance</title></rect>
<rect x="724.9316513761468" y="707.5" width="6.1000000000000005" height="1.5" fill="#2563eb" opacity="0.85"><title>2025-05-05 | ETH buy 0.00 usd | reason=budgeted_static_target_rebalance</title></rect>
<rect x="736.1243119266056" y="707.5" width="6.1000000000000005" height="17.085029035277103" fill="#7c3aed" opacity="0.85"><title>2025-05-12 | ETH sell 65.61 usd | reason=budgeted_static_target_rebalance</title></rect>
<rect x="747.3169724770643" y="707.5" width="6.1000000000000005" height="13.591085249246248" fill="#7c3aed" opacity="0.85"><title>2025-05-19 | ETH sell 52.19 usd | reason=budgeted_static_target_rebalance</title></rect>
<rect x="758.509633027523" y="707.5" width="6.1000000000000005" height="6.651877253187422" fill="#7c3aed" opacity="0.85"><title>2025-05-26 | ETH sell 25.54 usd | reason=budgeted_static_target_rebalance</title></rect>
<rect x="769.7022935779817" y="707.5" width="6.1000000000000005" height="14.08996932225341" fill="#7c3aed" opacity="0.85"><title>2025-06-02 | ETH sell 54.11 usd | reason=budgeted_static_target_rebalance</title></rect>
<rect x="780.8949541284404" y="707.5" width="6.1000000000000005" height="10.058115956656025" fill="#7c3aed" opacity="0.85"><title>2025-06-09 | ETH sell 38.62 usd | reason=budgeted_static_target_rebalance</title></rect>
<rect x="792.0876146788991" y="707.5" width="6.1000000000000005" height="3.887378732682805" fill="#7c3aed" opacity="0.85"><title>2025-06-16 | ETH sell 14.93 usd | reason=budgeted_static_target_rebalance</title></rect>
<rect x="803.2802752293579" y="705.7222862544505" width="6.1000000000000005" height="1.7777137455494767" fill="#2563eb" opacity="0.85"><title>2025-06-23 | ETH buy 6.83 usd | reason=budgeted_static_target_rebalance</title></rect>
<rect x="814.4729357798166" y="707.5" width="6.1000000000000005" height="2.216781781720215" fill="#7c3aed" opacity="0.85"><title>2025-06-30 | ETH sell 8.51 usd | reason=budgeted_static_target_rebalance</title></rect>
<rect x="825.6655963302753" y="707.5" width="6.1000000000000005" height="2.536703988914951" fill="#7c3aed" opacity="0.85"><title>2025-07-07 | ETH sell 9.74 usd | reason=budgeted_static_target_rebalance</title></rect>
<rect x="836.858256880734" y="707.5" width="6.1000000000000005" height="18.47446957263071" fill="#7c3aed" opacity="0.85"><title>2025-07-14 | ETH sell 70.94 usd | reason=budgeted_static_target_rebalance</title></rect>
<rect x="848.0509174311927" y="707.5" width="6.1000000000000005" height="55.590565837881286" fill="#7c3aed" opacity="0.85"><title>2025-07-21 | ETH sell 213.47 usd | reason=budgeted_static_target_rebalance</title></rect>
<rect x="859.2435779816514" y="707.5" width="6.1000000000000005" height="47.095448263244634" fill="#7c3aed" opacity="0.85"><title>2025-07-28 | ETH sell 180.85 usd | reason=budgeted_static_target_rebalance</title></rect>
<rect x="870.4362385321102" y="707.5" width="6.1000000000000005" height="37.69166764282818" fill="#7c3aed" opacity="0.85"><title>2025-08-04 | ETH sell 144.74 usd | reason=budgeted_static_target_rebalance</title></rect>
<rect x="881.6288990825689" y="707.5" width="6.1000000000000005" height="51.665655591644736" fill="#7c3aed" opacity="0.85"><title>2025-08-11 | ETH sell 198.40 usd | reason=budgeted_static_target_rebalance</title></rect>
<rect x="892.8215596330276" y="707.5" width="6.1000000000000005" height="49.03270676783552" fill="#7c3aed" opacity="0.85"><title>2025-08-18 | ETH sell 188.29 usd | reason=budgeted_static_target_rebalance</title></rect>
<rect x="904.0142201834863" y="707.5" width="6.1000000000000005" height="49.04076168161964" fill="#7c3aed" opacity="0.85"><title>2025-08-25 | ETH sell 188.32 usd | reason=budgeted_static_target_rebalance</title></rect>
<rect x="915.206880733945" y="707.5" width="6.1000000000000005" height="38.60748516869887" fill="#7c3aed" opacity="0.85"><title>2025-09-01 | ETH sell 148.25 usd | reason=budgeted_static_target_rebalance</title></rect>
<rect x="926.3995412844037" y="707.5" width="6.1000000000000005" height="28.11139542217154" fill="#7c3aed" opacity="0.85"><title>2025-09-08 | ETH sell 107.95 usd | reason=budgeted_static_target_rebalance</title></rect>
<rect x="937.5922018348625" y="707.5" width="6.1000000000000005" height="29.649135131037156" fill="#7c3aed" opacity="0.85"><title>2025-09-15 | ETH sell 113.85 usd | reason=budgeted_static_target_rebalance</title></rect>
<rect x="948.7848623853212" y="707.5" width="6.1000000000000005" height="9.088277537714589" fill="#7c3aed" opacity="0.85"><title>2025-09-22 | ETH sell 34.90 usd | reason=budgeted_static_target_rebalance</title></rect>
<rect x="959.9775229357799" y="707.5" width="6.1000000000000005" height="8.00204782510366" fill="#7c3aed" opacity="0.85"><title>2025-09-29 | ETH sell 30.73 usd | reason=budgeted_static_target_rebalance</title></rect>
<rect x="971.1701834862386" y="707.5" width="6.1000000000000005" height="12.348442658457543" fill="#7c3aed" opacity="0.85"><title>2025-10-06 | ETH sell 47.42 usd | reason=budgeted_static_target_rebalance</title></rect>
<rect x="982.3628440366973" y="707.5" width="6.1000000000000005" height="4.888203550346475" fill="#7c3aed" opacity="0.85"><title>2025-10-13 | ETH sell 18.77 usd | reason=budgeted_static_target_rebalance</title></rect>
<rect x="993.555504587156" y="707.5" width="6.1000000000000005" height="1.5" fill="#7c3aed" opacity="0.85"><title>2025-10-20 | ETH sell 4.23 usd | reason=budgeted_static_target_rebalance</title></rect>
<rect x="1004.7481651376148" y="707.5" width="6.1000000000000005" height="2.7080467652887137" fill="#7c3aed" opacity="0.85"><title>2025-10-27 | ETH sell 10.40 usd | reason=budgeted_static_target_rebalance</title></rect>
<rect x="1015.9408256880735" y="675.7529583970272" width="6.1000000000000005" height="31.747041602972786" fill="#2563eb" opacity="0.85"><title>2025-11-03 | ETH buy 121.91 usd | reason=budgeted_static_target_rebalance</title></rect>
<rect x="1027.1334862385322" y="688.9274768502476" width="6.1000000000000005" height="18.572523149752442" fill="#2563eb" opacity="0.85"><title>2025-11-10 | ETH buy 71.32 usd | reason=budgeted_static_target_rebalance</title></rect>
<rect x="1038.3261467889909" y="672.019903431439" width="6.1000000000000005" height="35.48009656856095" fill="#2563eb" opacity="0.85"><title>2025-11-17 | ETH buy 136.24 usd | reason=budgeted_static_target_rebalance</title></rect>
<rect x="1049.5188073394495" y="691.0955253529843" width="6.1000000000000005" height="16.404474647015718" fill="#2563eb" opacity="0.85"><title>2025-11-24 | ETH buy 62.99 usd | reason=budgeted_static_target_rebalance</title></rect>
<rect x="1060.7114678899081" y="685.5719151711256" width="6.1000000000000005" height="21.928084828874375" fill="#2563eb" opacity="0.85"><title>2025-12-01 | ETH buy 84.20 usd | reason=budgeted_static_target_rebalance</title></rect>
<rect x="1071.9041284403672" y="707.5" width="6.1000000000000005" height="6.428273848899153" fill="#7c3aed" opacity="0.85"><title>2025-12-08 | ETH sell 24.68 usd | reason=budgeted_static_target_rebalance</title></rect>
<rect x="1083.0967889908259" y="707.5" width="6.1000000000000005" height="2.371013594641454" fill="#7c3aed" opacity="0.85"><title>2025-12-15 | ETH sell 9.10 usd | reason=budgeted_static_target_rebalance</title></rect>
<rect x="1094.2894495412845" y="707.5" width="6.1000000000000005" height="1.5" fill="#7c3aed" opacity="0.85"><title>2025-12-22 | ETH sell 4.78 usd | reason=budgeted_static_target_rebalance</title></rect>
<rect x="1105.4821100917432" y="706.6840317689494" width="6.1000000000000005" height="1.5" fill="#2563eb" opacity="0.85"><title>2025-12-29 | ETH buy 3.13 usd | reason=budgeted_static_target_rebalance</title></rect>
<rect x="1116.674770642202" y="707.5" width="6.1000000000000005" height="3.812779222628137" fill="#7c3aed" opacity="0.85"><title>2026-01-05 | ETH sell 14.64 usd | reason=budgeted_static_target_rebalance</title></rect>
<rect x="1127.8674311926607" y="707.5" width="6.1000000000000005" height="1.501339484789014" fill="#7c3aed" opacity="0.85"><title>2026-01-12 | ETH sell 5.77 usd | reason=budgeted_static_target_rebalance</title></rect>
<rect x="1139.0600917431193" y="707.5" width="6.1000000000000005" height="4.710283621402823" fill="#7c3aed" opacity="0.85"><title>2026-01-19 | ETH sell 18.09 usd | reason=budgeted_static_target_rebalance</title></rect>
<rect x="1150.252752293578" y="698.1099767559324" width="6.1000000000000005" height="9.390023244067606" fill="#2563eb" opacity="0.85"><title>2026-01-26 | ETH buy 36.06 usd | reason=budgeted_static_target_rebalance</title></rect>
<rect x="1161.4454128440368" y="656.3849559418113" width="6.1000000000000005" height="51.11504405818869" fill="#2563eb" opacity="0.85"><title>2026-02-02 | ETH buy 196.28 usd | reason=budgeted_static_target_rebalance</title></rect>
<rect x="1172.6380733944954" y="674.0076372218582" width="6.1000000000000005" height="33.492362778141796" fill="#2563eb" opacity="0.85"><title>2026-02-09 | ETH buy 128.61 usd | reason=budgeted_static_target_rebalance</title></rect>
<rect x="1183.8307339449543" y="679.6079314632972" width="6.1000000000000005" height="27.892068536702823" fill="#2563eb" opacity="0.85"><title>2026-02-16 | ETH buy 107.11 usd | reason=budgeted_static_target_rebalance</title></rect>
<rect x="1195.023394495413" y="707.5" width="6.1000000000000005" height="1.5" fill="#2563eb" opacity="0.85"><title>2026-02-23 | ETH buy 0.00 usd | reason=budgeted_static_target_rebalance</title></rect>
<rect x="1206.2160550458716" y="707.5" width="6.1000000000000005" height="1.5" fill="#2563eb" opacity="0.85"><title>2026-03-02 | ETH buy 0.00 usd | reason=budgeted_static_target_rebalance</title></rect>
<rect x="1217.4087155963302" y="707.5" width="6.1000000000000005" height="1.5" fill="#2563eb" opacity="0.85"><title>2026-03-09 | ETH buy 0.00 usd | reason=budgeted_static_target_rebalance</title></rect>
<rect x="1228.601376146789" y="707.5" width="6.1000000000000005" height="6.804221762221459" fill="#7c3aed" opacity="0.85"><title>2026-03-16 | ETH sell 26.13 usd | reason=budgeted_static_target_rebalance</title></rect>
<rect x="1239.7940366972477" y="707.5" width="6.1000000000000005" height="1.5" fill="#2563eb" opacity="0.85"><title>2026-03-23 | ETH buy 0.00 usd | reason=budgeted_static_target_rebalance</title></rect>
<rect x="1250.9866972477066" y="707.5" width="6.1000000000000005" height="1.5" fill="#2563eb" opacity="0.85"><title>2026-03-30 | ETH buy 0.00 usd | reason=budgeted_static_target_rebalance</title></rect>
<rect x="1262.1793577981653" y="707.5" width="6.1000000000000005" height="1.5" fill="#2563eb" opacity="0.85"><title>2026-04-06 | ETH buy 0.00 usd | reason=budgeted_static_target_rebalance</title></rect>
<rect x="1273.372018348624" y="707.5" width="6.1000000000000005" height="6.905979865465042" fill="#7c3aed" opacity="0.85"><title>2026-04-13 | ETH sell 26.52 usd | reason=budgeted_static_target_rebalance</title></rect>
<rect x="1284.5646788990825" y="707.5" width="6.1000000000000005" height="1.5" fill="#7c3aed" opacity="0.85"><title>2026-04-20 | ETH sell 3.71 usd | reason=budgeted_static_target_rebalance</title></rect>
<rect x="1295.7573394495414" y="705.666601250686" width="6.1000000000000005" height="1.8333987493140285" fill="#2563eb" opacity="0.85"><title>2026-04-27 | ETH buy 7.04 usd | reason=budgeted_static_target_rebalance</title></rect>
<rect x="1306.95" y="705.6629251620377" width="6.1000000000000005" height="1.837074837962291" fill="#2563eb" opacity="0.85"><title>2026-05-04 | ETH buy 7.05 usd | reason=budgeted_static_target_rebalance</title></rect>
<text x="24" y="707.5" transform="rotate(-90 24,707.5)" text-anchor="middle" font-family="monospace" font-size="14" fill="#0f172a">ETH weekly trade usd</text>
<rect x="1040" y="478" width="14" height="10" fill="#ea580c" opacity="0.85"/>
<text x="1062" y="488" font-family="monospace" font-size="11" fill="#0f172a">BTC buy</text>
<rect x="1190" y="478" width="14" height="10" fill="#dc2626" opacity="0.85"/>
<text x="1212" y="488" font-family="monospace" font-size="11" fill="#0f172a">BTC sell</text>
<rect x="1040" y="498" width="14" height="10" fill="#2563eb" opacity="0.85"/>
<text x="1062" y="508" font-family="monospace" font-size="11" fill="#0f172a">ETH buy</text>
<rect x="1190" y="498" width="14" height="10" fill="#7c3aed" opacity="0.85"/>
<text x="1212" y="508" font-family="monospace" font-size="11" fill="#0f172a">ETH sell</text>
</svg>