<svg xmlns="http://www.w3.org/2000/svg" width="1400" height="800">
<rect width="1400" height="800" fill="#f8fafc"/>
<text x="700.0" y="42" text-anchor="middle" font-family="monospace" font-size="24" fill="#0f172a">static_50_50_rebalance | weekly | start=2026-01-01 | return=-14.78%</text>
<line x1="90" y1="420" x2="1310" y2="420" stroke="#334155" stroke-width="2"/>
<line x1="90" y1="90" x2="90" y2="420" stroke="#334155" stroke-width="2"/>
<line x1="90.0" y1="420" x2="90.0" y2="90" stroke="#94a3b8" stroke-width="1.2"/>
<line x1="90.0" y1="605" x2="90.0" y2="480" stroke="#94a3b8" stroke-width="1.2"/>
<line x1="90.0" y1="770" x2="90.0" y2="645" stroke="#94a3b8" stroke-width="1.2"/>
<text x="90.0" y="788" text-anchor="middle" font-family="monospace" font-size="11" fill="#334155">2026-01</text>
<line x1="448.8235294117647" y1="420" x2="448.8235294117647" y2="90" stroke="#94a3b8" stroke-width="1.2"/>
<line x1="448.8235294117647" y1="605" x2="448.8235294117647" y2="480" stroke="#94a3b8" stroke-width="1.2"/>
<line x1="448.8235294117647" y1="770" x2="448.8235294117647" y2="645" stroke="#94a3b8" stroke-width="1.2"/>
<text x="448.8235294117647" y="788" text-anchor="middle" font-family="monospace" font-size="11" fill="#334155">2026-02</text>
<line x1="735.8823529411765" y1="420" x2="735.8823529411765" y2="90" stroke="#94a3b8" stroke-width="1.2"/>
<line x1="735.8823529411765" y1="605" x2="735.8823529411765" y2="480" stroke="#94a3b8" stroke-width="1.2"/>
<line x1="735.8823529411765" y1="770" x2="735.8823529411765" y2="645" stroke="#94a3b8" stroke-width="1.2"/>
<text x="735.8823529411765" y="788" text-anchor="middle" font-family="monospace" font-size="11" fill="#334155">2026-03</text>
<line x1="1022.9411764705882" y1="420" x2="1022.9411764705882" y2="90" stroke="#94a3b8" stroke-width="1.2"/>
<line x1="1022.9411764705882" y1="605" x2="1022.9411764705882" y2="480" stroke="#94a3b8" stroke-width="1.2"/>
<line x1="1022.9411764705882" y1="770" x2="1022.9411764705882" y2="645" stroke="#94a3b8" stroke-width="1.2"/>
<text x="1022.9411764705882" y="788" text-anchor="middle" font-family="monospace" font-size="11" fill="#334155">2026-04</text>
<line x1="90" y1="420.0" x2="1310" y2="420.0" stroke="#cbd5e1" stroke-width="1"/>
<text x="78" y="424.0" text-anchor="end" font-family="monospace" font-size="12" fill="#475569">0</text>
<line x1="90" y1="354.0" x2="1310" y2="354.0" stroke="#cbd5e1" stroke-width="1"/>
<text x="78" y="358.0" text-anchor="end" font-family="monospace" font-size="12" fill="#475569">2097</text>
<line x1="90" y1="288.0" x2="1310" y2="288.0" stroke="#cbd5e1" stroke-width="1"/>
<text x="78" y="292.0" text-anchor="end" font-family="monospace" font-size="12" fill="#475569">4194</text>
<line x1="90" y1="221.99999999999997" x2="1310" y2="221.99999999999997" stroke="#cbd5e1" stroke-width="1"/>
<text x="78" y="225.99999999999997" text-anchor="end" font-family="monospace" font-size="12" fill="#475569">6291</text>
<line x1="90" y1="156.0" x2="1310" y2="156.0" stroke="#cbd5e1" stroke-width="1"/>
<text x="78" y="160.0" text-anchor="end" font-family="monospace" font-size="12" fill="#475569">8387</text>
<line x1="90" y1="90.0" x2="1310" y2="90.0" stroke="#cbd5e1" stroke-width="1"/>
<text x="78" y="94.0" text-anchor="end" font-family="monospace" font-size="12" fill="#475569">10484</text>
<polygon points="90.0,231.14441202333057 161.76470588235293,293.7160132913938 233.52941176470588,323.8580066456969 305.29411764705884,340.9796663168786 377.05882352941177,350.69342090616755 448.8235294117647,362.52208822864236 520.5882352941177,367.39982843107794 592.3529411764705,369.72022802140174 664.1176470588235,370.4221269286485 735.8823529411765,370.06722091770376 807.6470588235294,369.9357410470619 879.4117647058824,369.64789666737045 951.1764705882354,370.04852758564 1022.9411764705882,370.52802656577023 1094.705882352941,369.41798200312655 1166.4705882352941,367.62348408937163 1238.235294117647,366.35813991962266 1310.0,366.3554960203063 1310.0,420.0 1238.235294117647,420.0 1166.4705882352941,420.0 1094.705882352941,420.0 1022.9411764705882,420.0 951.1764705882354,420.0 879.4117647058824,420.0 807.6470588235294,420.0 735.8823529411765,420.0 664.1176470588235,420.0 592.3529411764705,420.0 520.5882352941177,420.0 448.8235294117647,420.0 377.05882352941177,420.0 305.29411764705884,420.0 233.52941176470588,420.0 161.76470588235293,420.0 90.0,420.0" fill="#facc15" fill-opacity="0.70" stroke="#facc15" stroke-width="1.2"/>
<polygon points="90.0,168.19254936444077 161.76470588235293,197.4378339673495 233.52941176470588,206.4053323819994 305.29411764705884,226.87901710219816 377.05882352941177,236.5952684066294 448.8235294117647,279.96027193495246 520.5882352941177,275.6135597710107 592.3529411764705,275.8193782364754 664.1176470588235,272.67400333152693 735.8823529411765,269.8187678537549 807.6470588235294,269.5913542187569 879.4117647058824,267.2880135280535 951.1764705882354,271.21462782561866 1022.9411764705882,272.16564907670363 1094.705882352941,265.35562192572235 1166.4705882352941,257.65677145408677 1238.235294117647,256.8779745371968 1310.0,259.7125613739912 1310.0,366.3554960203063 1238.235294117647,366.35813991962266 1166.4705882352941,367.62348408937163 1094.705882352941,369.41798200312655 1022.9411764705882,370.52802656577023 951.1764705882354,370.04852758564 879.4117647058824,369.64789666737045 807.6470588235294,369.9357410470619 735.8823529411765,370.06722091770376 664.1176470588235,370.4221269286485 592.3529411764705,369.72022802140174 520.5882352941177,367.39982843107794 448.8235294117647,362.52208822864236 377.05882352941177,350.69342090616755 305.29411764705884,340.9796663168786 233.52941176470588,323.8580066456969 161.76470588235293,293.7160132913938 90.0,231.14441202333057" fill="#2563eb" fill-opacity="0.70" stroke="#2563eb" stroke-width="1.2"/>
<polygon points="90.0,105.24068670555096 161.76470588235293,101.43807279728458 233.52941176470588,90.0 305.29411764705884,110.50662994030125 377.05882352941177,122.03587747728238 448.8235294117647,191.75377775558593 520.5882352941177,181.38784316756744 592.3529411764705,180.20313805862799 664.1176470588235,175.62012917947632 735.8823529411765,168.56157453379498 807.6470588235294,169.02130588210028 879.4117647058824,166.80026143839518 951.1764705882354,172.24579251954748 1022.9411764705882,175.03762772950256 1094.705882352941,161.5396872024141 1166.4705882352941,149.14493087808364 1238.235294117647,145.46397874936838 1310.0,151.7642606049497 1310.0,259.7125613739912 1238.235294117647,256.8779745371968 1166.4705882352941,257.65677145408677 1094.705882352941,265.35562192572235 1022.9411764705882,272.16564907670363 951.1764705882354,271.21462782561866 879.4117647058824,267.2880135280535 807.6470588235294,269.5913542187569 735.8823529411765,269.8187678537549 664.1176470588235,272.67400333152693 592.3529411764705,275.8193782364754 520.5882352941177,275.6135597710107 448.8235294117647,279.96027193495246 377.05882352941177,236.5952684066294 305.29411764705884,226.87901710219816 233.52941176470588,206.4053323819994 161.76470588235293,197.4378339673495 90.0,168.19254936444077" fill="#f97316" fill-opacity="0.70" stroke="#f97316" stroke-width="1.2"/>
<rect x="1100" y="76" width="16" height="12" fill="#f97316" fill-opacity="0.70" stroke="#f97316"/>
<text x="1124" y="86" font-family="monospace" font-size="12" fill="#0f172a">BTC</text>
<rect x="1100" y="98" width="16" height="12" fill="#2563eb" fill-opacity="0.70" stroke="#2563eb"/>
<text x="1124" y="108" font-family="monospace" font-size="12" fill="#0f172a">ETH</text>
<rect x="1100" y="120" width="16" height="12" fill="#facc15" fill-opacity="0.70" stroke="#facc15"/>
<text x="1124" y="130" font-family="monospace" font-size="12" fill="#0f172a">DAI</text>
<text x="700.0" y="782" text-anchor="middle" font-family="monospace" font-size="16" fill="#0f172a">time</text>
<text x="24" y="255.0" transform="rotate(-90 24,255.0)" text-anchor="middle" font-family="monospace" font-size="16" fill="#0f172a">asset value split (usd)</text>
<line x1="90" y1="605" x2="1310" y2="605" stroke="#334155" stroke-width="2"/>
<line x1="90" y1="480" x2="90" y2="605" stroke="#334155" stroke-width="2"/>
<line x1="90" y1="542.5" x2="1310" y2="542.5" stroke="#64748b" stroke-width="1.5" stroke-dasharray="6 4"/>
<line x1="90" y1="605.0" x2="1310" y2="605.0" stroke="#e2e8f0" stroke-width="1"/>
<text x="78" y="609.0" text-anchor="end" font-family="monospace" font-size="11" fill="#475569">-2000</text>
<line x1="90" y1="542.5" x2="1310" y2="542.5" stroke="#e2e8f0" stroke-width="1"/>
<text x="78" y="546.5" text-anchor="end" font-family="monospace" font-size="11" fill="#475569">0</text>
<line x1="90" y1="480.0" x2="1310" y2="480.0" stroke="#e2e8f0" stroke-width="1"/>
<text x="78" y="484.0" text-anchor="end" font-family="monospace" font-size="11" fill="#475569">2000</text>
<rect x="71.36111111111111" y="480.0" width="37.27777777777778" height="62.5" fill="#ea580c" opacity="0.85"><title>2026-01-01 | BTC buy 2000.00 usd | reason=static_target_rebalance</title></rect>
<rect x="143.12581699346404" y="511.3005561077473" width="37.27777777777778" height="31.199443892252702" fill="#ea580c" opacity="0.85"><title>2026-01-08 | BTC buy 998.38 usd | reason=static_target_rebalance</title></rect>
<rect x="214.890522875817" y="527.0172694665707" width="37.27777777777778" height="15.482730533429276" fill="#ea580c" opacity="0.85"><title>2026-01-15 | BTC buy 495.45 usd | reason=static_target_rebalance</title></rect>
<rect x="286.6552287581699" y="535.1283348216642" width="37.27777777777778" height="7.371665178335775" fill="#ea580c" opacity="0.85"><title>2026-01-22 | BTC buy 235.89 usd | reason=static_target_rebalance</title></rect>
<rect x="358.41993464052285" y="537.9069487736926" width="37.27777777777778" height="4.593051226307352" fill="#ea580c" opacity="0.85"><title>2026-01-29 | BTC buy 146.98 usd | reason=static_target_rebalance</title></rect>
<rect x="430.1846405228758" y="539.4301993342583" width="37.27777777777778" height="3.0698006657416954" fill="#ea580c" opacity="0.85"><title>2026-02-05 | BTC buy 98.23 usd | reason=static_target_rebalance</title></rect>
<rect x="501.94934640522877" y="541.2896047888449" width="37.27777777777778" height="1.5" fill="#ea580c" opacity="0.85"><title>2026-02-12 | BTC buy 38.73 usd | reason=static_target_rebalance</title></rect>
<rect x="573.7140522875816" y="542.199666751383" width="37.27777777777778" height="1.5" fill="#ea580c" opacity="0.85"><title>2026-02-19 | BTC buy 9.61 usd | reason=static_target_rebalance</title></rect>
<rect x="645.4787581699346" y="541.8069365358363" width="37.27777777777778" height="1.5" fill="#ea580c" opacity="0.85"><title>2026-02-26 | BTC buy 22.18 usd | reason=static_target_rebalance</title></rect>
<rect x="717.2434640522875" y="542.5" width="37.27777777777778" height="1.5" fill="#dc2626" opacity="0.85"><title>2026-03-05 | BTC sell 21.66 usd | reason=static_target_rebalance</title></rect>
<rect x="789.0081699346405" y="542.5" width="37.27777777777778" height="1.5" fill="#dc2626" opacity="0.85"><title>2026-03-12 | BTC sell 5.67 usd | reason=static_target_rebalance</title></rect>
<rect x="860.7728758169935" y="541.7135425967498" width="37.27777777777778" height="1.5" fill="#ea580c" opacity="0.85"><title>2026-03-19 | BTC buy 25.17 usd | reason=static_target_rebalance</title></rect>
<rect x="932.5375816993464" y="542.3681058823175" width="37.27777777777778" height="1.5" fill="#ea580c" opacity="0.85"><title>2026-03-26 | BTC buy 4.22 usd | reason=static_target_rebalance</title></rect>
<rect x="1004.3022875816993" y="541.6492233859293" width="37.27777777777778" height="1.5" fill="#ea580c" opacity="0.85"><title>2026-04-02 | BTC buy 27.22 usd | reason=static_target_rebalance</title></rect>
<rect x="1076.066993464052" y="542.5" width="37.27777777777778" height="1.5" fill="#dc2626" opacity="0.85"><title>2026-04-09 | BTC sell 13.72 usd | reason=static_target_rebalance</title></rect>
<rect x="1147.8316993464052" y="542.5" width="37.27777777777778" height="1.5" fill="#dc2626" opacity="0.85"><title>2026-04-16 | BTC sell 5.40 usd | reason=static_target_rebalance</title></rect>
<rect x="1219.5964052287582" y="542.5" width="37.27777777777778" height="1.5881055976882408" fill="#dc2626" opacity="0.85"><title>2026-04-23 | BTC sell 50.82 usd | reason=static_target_rebalance</title></rect>
<rect x="1291.361111111111" y="542.5" width="37.27777777777778" height="1.5" fill="#dc2626" opacity="0.85"><title>2026-04-30 | BTC sell 20.78 usd | reason=static_target_rebalance</title></rect>
<text x="24" y="542.5" transform="rotate(-90 24,542.5)" text-anchor="middle" font-family="monospace" font-size="14" fill="#0f172a">BTC weekly trade usd</text>
<line x1="90" y1="770" x2="1310" y2="770" stroke="#334155" stroke-width="2"/>
<line x1="90" y1="645" x2="90" y2="770" stroke="#334155" stroke-width="2"/>
<line x1="90" y1="707.5" x2="1310" y2="707.5" stroke="#64748b" stroke-width="1.5" stroke-dasharray="6 4"/>
<line x1="90" y1="770.0" x2="1310" y2="770.0" stroke="#e2e8f0" stroke-width="1"/>
<text x="78" y="774.0" text-anchor="end" font-family="monospace" font-size="11" fill="#475569">-2000</text>
<line x1="90" y1="707.5" x2="1310" y2="707.5" stroke="#e2e8f0" stroke-width="1"/>
<text x="78" y="711.5" text-anchor="end" font-family="monospace" font-size="11" fill="#475569">0</text>
<line x1="90" y1="645.0" x2="1310" y2="645.0" stroke="#e2e8f0" stroke-width="1"/>
<text x="78" y="649.0" text-anchor="end" font-family="monospace" font-size="11" fill="#475569">2000</text>
<rect x="71.36111111111111" y="645.0" width="37.27777777777778" height="62.5" fill="#2563eb" opacity="0.85"><title>2026-01-01 | ETH buy 2000.00 usd | reason=static_target_rebalance</title></rect>
<rect x="143.12581699346404" y="676.576975801919" width="37.27777777777778" height="30.923024198080952" fill="#2563eb" opacity="0.85"><title>2026-01-08 | ETH buy 989.54 usd | reason=static_target_rebalance</title></rect>
<rect x="214.890522875817" y="693.0570936249253" width="37.27777777777778" height="14.442906375074699" fill="#2563eb" opacity="0.85"><title>2026-01-15 | ETH buy 462.17 usd | reason=static_target_rebalance</title></rect>
<rect x="286.6552287581699" y="697.8729031997219" width="37.27777777777778" height="9.627096800278082" fill="#2563eb" opacity="0.85"><title>2026-01-22 | ETH buy 308.07 usd | reason=static_target_rebalance</title></rect>
<rect x="358.41993464052285" y="702.4490210707545" width="37.27777777777778" height="5.0509789292455025" fill="#2563eb" opacity="0.85"><title>2026-01-29 | ETH buy 161.63 usd | reason=static_target_rebalance</title></rect>
<rect x="430.1846405228758" y="698.8260384253678" width="37.27777777777778" height="8.673961574632244" fill="#2563eb" opacity="0.85"><title>2026-02-05 | ETH buy 277.57 usd | reason=static_target_rebalance</title></rect>
<rect x="501.94934640522877" y="703.8676669776137" width="37.27777777777778" height="3.6323330223863195" fill="#2563eb" opacity="0.85"><title>2026-02-12 | ETH buy 116.23 usd | reason=static_target_rebalance</title></rect>
<rect x="573.7140522875816" y="705.4965892723494" width="37.27777777777778" height="2.0034107276505893" fill="#2563eb" opacity="0.85"><title>2026-02-19 | ETH buy 64.11 usd | reason=static_target_rebalance</title></rect>
<rect x="645.4787581699346" y="707.4962027224788" width="37.27777777777778" height="1.5" fill="#2563eb" opacity="0.85"><title>2026-02-26 | ETH buy 0.12 usd | reason=static_target_rebalance</title></rect>
<rect x="717.2434640522875" y="707.1754294583938" width="37.27777777777778" height="1.5" fill="#2563eb" opacity="0.85"><title>2026-03-05 | ETH buy 10.39 usd | reason=static_target_rebalance</title></rect>
<rect x="789.0081699346405" y="707.4532471946958" width="37.27777777777778" height="1.5" fill="#2563eb" opacity="0.85"><title>2026-03-12 | ETH buy 1.50 usd | reason=static_target_rebalance</title></rect>
<rect x="860.7728758169935" y="707.5" width="37.27777777777778" height="1.5" fill="#7c3aed" opacity="0.85"><title>2026-03-19 | ETH sell 34.31 usd | reason=static_target_rebalance</title></rect>
<rect x="932.5375816993464" y="707.2341388911608" width="37.27777777777778" height="1.5" fill="#2563eb" opacity="0.85"><title>2026-03-26 | ETH buy 8.51 usd | reason=static_target_rebalance</title></rect>
<rect x="1004.3022875816993" y="707.5" width="37.27777777777778" height="1.5" fill="#7c3aed" opacity="0.85"><title>2026-04-02 | ETH sell 11.99 usd | reason=static_target_rebalance</title></rect>
<rect x="1076.066993464052" y="707.5" width="37.27777777777778" height="1.5" fill="#7c3aed" opacity="0.85"><title>2026-04-09 | ETH sell 21.55 usd | reason=static_target_rebalance</title></rect>
<rect x="1147.8316993464052" y="707.5" width="37.27777777777778" height="1.6130231476646486" fill="#7c3aed" opacity="0.85"><title>2026-04-16 | ETH sell 51.62 usd | reason=static_target_rebalance</title></rect>
<rect x="1219.5964052287582" y="707.1681560484179" width="37.27777777777778" height="1.5" fill="#2563eb" opacity="0.85"><title>2026-04-23 | ETH buy 10.62 usd | reason=static_target_rebalance</title></rect>
<rect x="1291.361111111111" y="706.8533142982257" width="37.27777777777778" height="1.5" fill="#2563eb" opacity="0.85"><title>2026-04-30 | ETH buy 20.69 usd | reason=static_target_rebalance</title></rect>
<text x="24" y="707.5" transform="rotate(-90 24,707.5)" text-anchor="middle" font-family="monospace" font-size="14" fill="#0f172a">ETH weekly trade usd</text>
<rect x="1040" y="478" width="14" height="10" fill="#ea580c" opacity="0.85"/>
<text x="1062" y="488" font-family="monospace" font-size="11" fill="#0f172a">BTC buy</text>
<rect x="1190" y="478" width="14" height="10" fill="#dc2626" opacity="0.85"/>
<text x="1212" y="488" font-family="monospace" font-size="11" fill="#0f172a">BTC sell</text>
<rect x="1040" y="498" width="14" height="10" fill="#2563eb" opacity="0.85"/>
<text x="1062" y="508" font-family="monospace" font-size="11" fill="#0f172a">ETH buy</text>
<rect x="1190" y="498" width="14" height="10" fill="#7c3aed" opacity="0.85"/>
<text x="1212" y="508" font-family="monospace" font-size="11" fill="#0f172a">ETH sell</text>
</svg>