<svg xmlns="http://www.w3.org/2000/svg" width="1400" height="800">
<rect width="1400" height="800" fill="#f8fafc"/>
<text x="700.0" y="42" text-anchor="middle" font-family="monospace" font-size="24" fill="#0f172a">btc_defensive_eth_aggressive | weekly | start=2024-10-01 | return=20.55%</text>
<line x1="90" y1="420" x2="1310" y2="420" stroke="#334155" stroke-width="2"/>
<line x1="90" y1="90" x2="90" y2="420" stroke="#334155" stroke-width="2"/>
<line x1="90.0" y1="420" x2="90.0" y2="90" stroke="#94a3b8" stroke-width="1.2"/>
<line x1="90.0" y1="605" x2="90.0" y2="480" stroke="#94a3b8" stroke-width="1.2"/>
<line x1="90.0" y1="770" x2="90.0" y2="645" stroke="#94a3b8" stroke-width="1.2"/>
<text x="90.0" y="788" text-anchor="middle" font-family="monospace" font-size="11" fill="#334155">2024-10</text>
<line x1="163.49397590361446" y1="420" x2="163.49397590361446" y2="90" stroke="#94a3b8" stroke-width="1.2"/>
<line x1="163.49397590361446" y1="605" x2="163.49397590361446" y2="480" stroke="#94a3b8" stroke-width="1.2"/>
<line x1="163.49397590361446" y1="770" x2="163.49397590361446" y2="645" stroke="#94a3b8" stroke-width="1.2"/>
<text x="163.49397590361446" y="788" text-anchor="middle" font-family="monospace" font-size="11" fill="#334155">2024-11</text>
<line x1="222.289156626506" y1="420" x2="222.289156626506" y2="90" stroke="#94a3b8" stroke-width="1.2"/>
<line x1="222.289156626506" y1="605" x2="222.289156626506" y2="480" stroke="#94a3b8" stroke-width="1.2"/>
<line x1="222.289156626506" y1="770" x2="222.289156626506" y2="645" stroke="#94a3b8" stroke-width="1.2"/>
<text x="222.289156626506" y="788" text-anchor="middle" font-family="monospace" font-size="11" fill="#334155">2024-12</text>
<line x1="295.7831325301205" y1="420" x2="295.7831325301205" y2="90" stroke="#94a3b8" stroke-width="1.2"/>
<line x1="295.7831325301205" y1="605" x2="295.7831325301205" y2="480" stroke="#94a3b8" stroke-width="1.2"/>
<line x1="295.7831325301205" y1="770" x2="295.7831325301205" y2="645" stroke="#94a3b8" stroke-width="1.2"/>
<text x="295.7831325301205" y="788" text-anchor="middle" font-family="monospace" font-size="11" fill="#334155">2025-01</text>
<line x1="354.578313253012" y1="420" x2="354.578313253012" y2="90" stroke="#94a3b8" stroke-width="1.2"/>
<line x1="354.578313253012" y1="605" x2="354.578313253012" y2="480" stroke="#94a3b8" stroke-width="1.2"/>
<line x1="354.578313253012" y1="770" x2="354.578313253012" y2="645" stroke="#94a3b8" stroke-width="1.2"/>
<text x="354.578313253012" y="788" text-anchor="middle" font-family="monospace" font-size="11" fill="#334155">2025-02</text>
<line x1="413.3734939759036" y1="420" x2="413.3734939759036" y2="90" stroke="#94a3b8" stroke-width="1.2"/>
<line x1="413.3734939759036" y1="605" x2="413.3734939759036" y2="480" stroke="#94a3b8" stroke-width="1.2"/>
<line x1="413.3734939759036" y1="770" x2="413.3734939759036" y2="645" stroke="#94a3b8" stroke-width="1.2"/>
<text x="413.3734939759036" y="788" text-anchor="middle" font-family="monospace" font-size="11" fill="#334155">2025-03</text>
<line x1="472.1686746987952" y1="420" x2="472.1686746987952" y2="90" stroke="#94a3b8" stroke-width="1.2"/>
<line x1="472.1686746987952" y1="605" x2="472.1686746987952" y2="480" stroke="#94a3b8" stroke-width="1.2"/>
<line x1="472.1686746987952" y1="770" x2="472.1686746987952" y2="645" stroke="#94a3b8" stroke-width="1.2"/>
<text x="472.1686746987952" y="788" text-anchor="middle" font-family="monospace" font-size="11" fill="#334155">2025-04</text>
<line x1="545.6626506024096" y1="420" x2="545.6626506024096" y2="90" stroke="#94a3b8" stroke-width="1.2"/>
<line x1="545.6626506024096" y1="605" x2="545.6626506024096" y2="480" stroke="#94a3b8" stroke-width="1.2"/>
<line x1="545.6626506024096" y1="770" x2="545.6626506024096" y2="645" stroke="#94a3b8" stroke-width="1.2"/>
<text x="545.6626506024096" y="788" text-anchor="middle" font-family="monospace" font-size="11" fill="#334155">2025-05</text>
<line x1="604.4578313253012" y1="420" x2="604.4578313253012" y2="90" stroke="#94a3b8" stroke-width="1.2"/>
<line x1="604.4578313253012" y1="605" x2="604.4578313253012" y2="480" stroke="#94a3b8" stroke-width="1.2"/>
<line x1="604.4578313253012" y1="770" x2="604.4578313253012" y2="645" stroke="#94a3b8" stroke-width="1.2"/>
<text x="604.4578313253012" y="788" text-anchor="middle" font-family="monospace" font-size="11" fill="#334155">2025-06</text>
<line x1="663.2530120481928" y1="420" x2="663.2530120481928" y2="90" stroke="#94a3b8" stroke-width="1.2"/>
<line x1="663.2530120481928" y1="605" x2="663.2530120481928" y2="480" stroke="#94a3b8" stroke-width="1.2"/>
<line x1="663.2530120481928" y1="770" x2="663.2530120481928" y2="645" stroke="#94a3b8" stroke-width="1.2"/>
<text x="663.2530120481928" y="788" text-anchor="middle" font-family="monospace" font-size="11" fill="#334155">2025-07</text>
<line x1="736.7469879518072" y1="420" x2="736.7469879518072" y2="90" stroke="#94a3b8" stroke-width="1.2"/>
<line x1="736.7469879518072" y1="605" x2="736.7469879518072" y2="480" stroke="#94a3b8" stroke-width="1.2"/>
<line x1="736.7469879518072" y1="770" x2="736.7469879518072" y2="645" stroke="#94a3b8" stroke-width="1.2"/>
<text x="736.7469879518072" y="788" text-anchor="middle" font-family="monospace" font-size="11" fill="#334155">2025-08</text>
<line x1="795.5421686746988" y1="420" x2="795.5421686746988" y2="90" stroke="#94a3b8" stroke-width="1.2"/>
<line x1="795.5421686746988" y1="605" x2="795.5421686746988" y2="480" stroke="#94a3b8" stroke-width="1.2"/>
<line x1="795.5421686746988" y1="770" x2="795.5421686746988" y2="645" stroke="#94a3b8" stroke-width="1.2"/>
<text x="795.5421686746988" y="788" text-anchor="middle" font-family="monospace" font-size="11" fill="#334155">2025-09</text>
<line x1="869.0361445783132" y1="420" x2="869.0361445783132" y2="90" stroke="#94a3b8" stroke-width="1.2"/>
<line x1="869.0361445783132" y1="605" x2="869.0361445783132" y2="480" stroke="#94a3b8" stroke-width="1.2"/>
<line x1="869.0361445783132" y1="770" x2="869.0361445783132" y2="645" stroke="#94a3b8" stroke-width="1.2"/>
<text x="869.0361445783132" y="788" text-anchor="middle" font-family="monospace" font-size="11" fill="#334155">2025-10</text>
<line x1="927.8313253012049" y1="420" x2="927.8313253012049" y2="90" stroke="#94a3b8" stroke-width="1.2"/>
<line x1="927.8313253012049" y1="605" x2="927.8313253012049" y2="480" stroke="#94a3b8" stroke-width="1.2"/>
<line x1="927.8313253012049" y1="770" x2="927.8313253012049" y2="645" stroke="#94a3b8" stroke-width="1.2"/>
<text x="927.8313253012049" y="788" text-anchor="middle" font-family="monospace" font-size="11" fill="#334155">2025-11</text>
<line x1="986.6265060240964" y1="420" x2="986.6265060240964" y2="90" stroke="#94a3b8" stroke-width="1.2"/>
<line x1="986.6265060240964" y1="605" x2="986.6265060240964" y2="480" stroke="#94a3b8" stroke-width="1.2"/>
<line x1="986.6265060240964" y1="770" x2="986.6265060240964" y2="645" stroke="#94a3b8" stroke-width="1.2"/>
<text x="986.6265060240964" y="788" text-anchor="middle" font-family="monospace" font-size="11" fill="#334155">2025-12</text>
<line x1="1060.120481927711" y1="420" x2="1060.120481927711" y2="90" stroke="#94a3b8" stroke-width="1.2"/>
<line x1="1060.120481927711" y1="605" x2="1060.120481927711" y2="480" stroke="#94a3b8" stroke-width="1.2"/>
<line x1="1060.120481927711" y1="770" x2="1060.120481927711" y2="645" stroke="#94a3b8" stroke-width="1.2"/>
<text x="1060.120481927711" y="788" text-anchor="middle" font-family="monospace" font-size="11" fill="#334155">2026-01</text>
<line x1="1118.9156626506024" y1="420" x2="1118.9156626506024" y2="90" stroke="#94a3b8" stroke-width="1.2"/>
<line x1="1118.9156626506024" y1="605" x2="1118.9156626506024" y2="480" stroke="#94a3b8" stroke-width="1.2"/>
<line x1="1118.9156626506024" y1="770" x2="1118.9156626506024" y2="645" stroke="#94a3b8" stroke-width="1.2"/>
<text x="1118.9156626506024" y="788" text-anchor="middle" font-family="monospace" font-size="11" fill="#334155">2026-02</text>
<line x1="1177.7108433734938" y1="420" x2="1177.7108433734938" y2="90" stroke="#94a3b8" stroke-width="1.2"/>
<line x1="1177.7108433734938" y1="605" x2="1177.7108433734938" y2="480" stroke="#94a3b8" stroke-width="1.2"/>
<line x1="1177.7108433734938" y1="770" x2="1177.7108433734938" y2="645" stroke="#94a3b8" stroke-width="1.2"/>
<text x="1177.7108433734938" y="788" text-anchor="middle" font-family="monospace" font-size="11" fill="#334155">2026-03</text>
<line x1="1251.2048192771083" y1="420" x2="1251.2048192771083" y2="90" stroke="#94a3b8" stroke-width="1.2"/>
<line x1="1251.2048192771083" y1="605" x2="1251.2048192771083" y2="480" stroke="#94a3b8" stroke-width="1.2"/>
<line x1="1251.2048192771083" y1="770" x2="1251.2048192771083" y2="645" stroke="#94a3b8" stroke-width="1.2"/>
<text x="1251.2048192771083" y="788" text-anchor="middle" font-family="monospace" font-size="11" fill="#334155">2026-04</text>
<line x1="1310.0" y1="420" x2="1310.0" y2="90" stroke="#94a3b8" stroke-width="1.2"/>
<line x1="1310.0" y1="605" x2="1310.0" y2="480" stroke="#94a3b8" stroke-width="1.2"/>
<line x1="1310.0" y1="770" x2="1310.0" y2="645" stroke="#94a3b8" stroke-width="1.2"/>
<text x="1310.0" y="788" text-anchor="middle" font-family="monospace" font-size="11" fill="#334155">2026-05</text>
<line x1="90" y1="420.0" x2="1310" y2="420.0" stroke="#cbd5e1" stroke-width="1"/>
<text x="78" y="424.0" text-anchor="end" font-family="monospace" font-size="12" fill="#475569">0</text>
<line x1="90" y1="354.0" x2="1310" y2="354.0" stroke="#cbd5e1" stroke-width="1"/>
<text x="78" y="358.0" text-anchor="end" font-family="monospace" font-size="12" fill="#475569">3579</text>
<line x1="90" y1="288.0" x2="1310" y2="288.0" stroke="#cbd5e1" stroke-width="1"/>
<text x="78" y="292.0" text-anchor="end" font-family="monospace" font-size="12" fill="#475569">7158</text>
<line x1="90" y1="222.0" x2="1310" y2="222.0" stroke="#cbd5e1" stroke-width="1"/>
<text x="78" y="226.0" text-anchor="end" font-family="monospace" font-size="12" fill="#475569">10737</text>
<line x1="90" y1="156.0" x2="1310" y2="156.0" stroke="#cbd5e1" stroke-width="1"/>
<text x="78" y="160.0" text-anchor="end" font-family="monospace" font-size="12" fill="#475569">14317</text>
<line x1="90" y1="90.0" x2="1310" y2="90.0" stroke="#cbd5e1" stroke-width="1"/>
<text x="78" y="94.0" text-anchor="end" font-family="monospace" font-size="12" fill="#475569">17896</text>
<polygon points="90.0,290.9189449404205 104.6987951807229,324.0457819566727 119.3975903614458,350.9226674753743 134.09638554216866,367.0114562230269 148.7951807228916,376.2443770867104 163.49397590361446,382.343642922137 178.19277108433735,383.28965080118996 192.89156626506025,383.70023508007637 207.59036144578315,383.6676601180035 222.289156626506,382.8862442813906 236.9879518072289,382.3391028810947 251.6867469879518,380.85884693335225 266.3855421686747,381.16246331716667 281.08433734939763,382.0003788677309 295.7831325301205,382.1416106638457 310.48192771084337,382.49260073568627 325.1807228915663,381.7841790614711 339.87951807228916,382.1283530617066 354.578313253012,383.151063579486 369.27710843373495,384.13301302490885 383.9759036144578,384.6170580145495 398.6746987951807,385.7387550430846 413.3734939759036,387.0744491599727 428.07228915662654,380.91670402639085 442.7710843373494,377.2222353181002 457.46987951807233,382.17481981242 472.1686746987952,377.8068802620843 486.86746987951807,377.5141070108665 501.56626506024094,376.17225858766324 516.2650602409639,381.75263600240504 530.9638554216867,384.9636277925889 545.6626506024096,386.68425649288776 560.3614457831326,385.31853398891764 575.0602409638554,384.63670373452624 589.7590361445783,383.8057562516421 604.4578313253012,383.68381434173887 619.156626506024,382.83934734614564 633.8554216867469,383.3492731759259 648.5542168674699,383.6749317104469 663.2530120481928,383.9894260719704 677.9518072289156,383.5311761135269 692.6506024096385,381.55653299381265 707.3493975903614,378.8871296140122 722.0481927710844,377.32148993309966 736.7469879518072,377.00585745647317 751.4457831325301,374.4035144738839 766.1445783132531,374.3410431258462 780.843373493976,373.3506331152502 795.5421686746988,373.311491537256 810.2409638554217,373.29778555395893 824.9397590361447,372.5581892402882 839.6385542168674,373.07805034156894 854.3373493975904,373.2812779097709 869.0361445783132,372.3203702421551 883.7349397590361,372.92942165318203 898.4337349397591,374.0968346142125 913.1325301204819,374.2804765294188 927.8313253012049,365.8092368200475 942.5301204819277,360.16933148786234 957.2289156626506,358.76805231602236 971.9277108433735,359.0201146284395 986.6265060240964,358.58857964589527 1001.3253012048192,357.3508761708315 1016.0240963855422,358.0758197779028 1030.7228915662652,358.5611963969313 1045.421686746988,358.7134958710029 1060.120481927711,357.3432226866267 1074.8192771084337,356.24724108932037 1089.5180722891566,357.3931495966142 1104.2168674698796,357.7729342080308 1118.9156626506024,361.6024623562816 1133.6144578313254,365.2969800516971 1148.313253012048,367.7666003813622 1163.012048192771,370.07135397896377 1177.7108433734938,370.5267196875345 1192.4096385542168,370.43377177101723 1207.1084337349398,369.0469893318069 1221.8072289156626,369.11544181691823 1236.5060240963855,369.60235963050536 1251.2048192771083,369.02949860811447 1265.9036144578313,368.1552477295618 1280.6024096385543,367.337487448103 1295.301204819277,366.9584847929119 1310.0,365.94613050936977 1310.0,420.0 1295.301204819277,420.0 1280.6024096385543,420.0 1265.9036144578313,420.0 1251.2048192771083,420.0 1236.5060240963855,420.0 1221.8072289156626,420.0 1207.1084337349398,420.0 1192.4096385542168,420.0 1177.7108433734938,420.0 1163.012048192771,420.0 1148.313253012048,420.0 1133.6144578313254,420.0 1118.9156626506024,420.0 1104.2168674698796,420.0 1089.5180722891566,420.0 1074.8192771084337,420.0 1060.120481927711,420.0 1045.421686746988,420.0 1030.7228915662652,420.0 1016.0240963855422,420.0 1001.3253012048192,420.0 986.6265060240964,420.0 971.9277108433735,420.0 957.2289156626506,420.0 942.5301204819277,420.0 927.8313253012049,420.0 913.1325301204819,420.0 898.4337349397591,420.0 883.7349397590361,420.0 869.0361445783132,420.0 854.3373493975904,420.0 839.6385542168674,420.0 824.9397590361447,420.0 810.2409638554217,420.0 795.5421686746988,420.0 780.843373493976,420.0 766.1445783132531,420.0 751.4457831325301,420.0 736.7469879518072,420.0 722.0481927710844,420.0 707.3493975903614,420.0 692.6506024096385,420.0 677.9518072289156,420.0 663.2530120481928,420.0 648.5542168674699,420.0 633.8554216867469,420.0 619.156626506024,420.0 604.4578313253012,420.0 589.7590361445783,420.0 575.0602409638554,420.0 560.3614457831326,420.0 545.6626506024096,420.0 530.9638554216867,420.0 516.2650602409639,420.0 501.56626506024094,420.0 486.86746987951807,420.0 472.1686746987952,420.0 457.46987951807233,420.0 442.7710843373494,420.0 428.07228915662654,420.0 413.3734939759036,420.0 398.6746987951807,420.0 383.9759036144578,420.0 369.27710843373495,420.0 354.578313253012,420.0 339.87951807228916,420.0 325.1807228915663,420.0 310.48192771084337,420.0 295.7831325301205,420.0 281.08433734939763,420.0 266.3855421686747,420.0 251.6867469879518,420.0 236.9879518072289,420.0 222.289156626506,420.0 207.59036144578315,420.0 192.89156626506025,420.0 178.19277108433735,420.0 163.49397590361446,420.0 148.7951807228916,420.0 134.09638554216866,420.0 119.3975903614458,420.0 104.6987951807229,420.0 90.0,420.0" fill="#facc15" fill-opacity="0.70" stroke="#facc15" stroke-width="1.2"/>
<polygon points="90.0,268.79076407306405 104.6987951807229,288.6059477143729 119.3975903614458,302.1242415757751 134.09638554216866,311.4105927390085 148.7951807228916,315.55234730744667 163.49397590361446,323.05813425606027 178.19277108433735,303.6059398416307 192.89156626506025,305.53179483258396 207.59036144578315,300.5860570260842 222.289156626506,293.91649009262295 236.9879518072289,293.87911656132417 251.6867469879518,286.4337137501824 266.3855421686747,295.5630882119452 281.08433734939763,299.6930792725449 295.7831325301205,297.8833753917835 310.48192771084337,300.7461880589732 325.1807228915663,295.547749036576 339.87951807228916,300.4284520519734 354.578313253012,307.5941146152103 369.27710843373495,309.7726914427517 383.9759036144578,307.40305535065374 398.6746987951807,312.9640268872816 413.3734939759036,321.00526924600297 428.07228915662654,322.60725399503445 442.7710843373494,318.8945878993099 457.46987951807233,317.16294853037687 472.1686746987952,318.4530252984073 486.86746987951807,329.39532518019155 501.56626506024094,323.0085383688812 516.2650602409639,319.3856141545552 530.9638554216867,319.2663708832159 545.6626506024096,318.98647458923455 560.3614457831326,292.11042259155096 575.0602409638554,298.95288358617637 589.7590361445783,295.6601299840812 604.4578313253012,299.03522604204767 619.156626506024,284.16464936434954 633.8554216867469,298.0360931265793 648.5542168674699,301.2353868439623 663.2530120481928,303.203304442071 677.9518072289156,288.69307154116024 692.6506024096385,266.38639182138127 707.3493975903614,245.2062364373135 722.0481927710844,245.1242390312741 736.7469879518072,252.22622334611847 751.4457831325301,223.15538548669528 766.1445783132531,241.90150721197676 780.843373493976,229.08388813722016 795.5421686746988,238.9455188437759 810.2409638554217,240.03578853217726 824.9397590361447,234.0000505977637 839.6385542168674,243.88028346121396 854.3373493975904,243.5175522364612 869.0361445783132,233.0863795848838 883.7349397590361,243.14944757733394 898.4337349397591,250.94189155936897 913.1325301204819,246.86879033556835 927.8313253012049,270.5815047486597 942.5301204819277,267.9872193349178 957.2289156626506,277.8309515237676 971.9277108433735,283.9135137453401 986.6265060240964,283.149476574872 1001.3253012048192,276.2634768690241 1016.0240963855422,285.449479899402 1030.7228915662652,285.83114439179917 1045.421686746988,285.6561043416592 1060.120481927711,277.64841008017834 1074.8192771084337,276.6367075032561 1089.5180722891566,285.96114937291475 1104.2168674698796,284.07159988333467 1118.9156626506024,303.68941121680064 1133.6144578313254,310.20410387127646 1148.313253012048,311.9218692120137 1163.012048192771,316.59578808858987 1177.7108433734938,312.7536727963362 1192.4096385542168,310.9684465066324 1207.1084337349398,302.98548114472834 1221.8072289156626,307.8813730736404 1236.5060240963855,309.9070935796692 1251.2048192771083,306.0172396745199 1265.9036144578313,303.4166603222059 1280.6024096385543,302.55365269181885 1295.301204819277,303.00171035774787 1310.0,299.7036607283042 1310.0,365.94613050936977 1295.301204819277,366.9584847929119 1280.6024096385543,367.337487448103 1265.9036144578313,368.1552477295618 1251.2048192771083,369.02949860811447 1236.5060240963855,369.60235963050536 1221.8072289156626,369.11544181691823 1207.1084337349398,369.0469893318069 1192.4096385542168,370.43377177101723 1177.7108433734938,370.5267196875345 1163.012048192771,370.07135397896377 1148.313253012048,367.7666003813622 1133.6144578313254,365.2969800516971 1118.9156626506024,361.6024623562816 1104.2168674698796,357.7729342080308 1089.5180722891566,357.3931495966142 1074.8192771084337,356.24724108932037 1060.120481927711,357.3432226866267 1045.421686746988,358.7134958710029 1030.7228915662652,358.5611963969313 1016.0240963855422,358.0758197779028 1001.3253012048192,357.3508761708315 986.6265060240964,358.58857964589527 971.9277108433735,359.0201146284395 957.2289156626506,358.76805231602236 942.5301204819277,360.16933148786234 927.8313253012049,365.8092368200475 913.1325301204819,374.2804765294188 898.4337349397591,374.0968346142125 883.7349397590361,372.92942165318203 869.0361445783132,372.3203702421551 854.3373493975904,373.2812779097709 839.6385542168674,373.07805034156894 824.9397590361447,372.5581892402882 810.2409638554217,373.29778555395893 795.5421686746988,373.311491537256 780.843373493976,373.3506331152502 766.1445783132531,374.3410431258462 751.4457831325301,374.4035144738839 736.7469879518072,377.00585745647317 722.0481927710844,377.32148993309966 707.3493975903614,378.8871296140122 692.6506024096385,381.55653299381265 677.9518072289156,383.5311761135269 663.2530120481928,383.9894260719704 648.5542168674699,383.6749317104469 633.8554216867469,383.3492731759259 619.156626506024,382.83934734614564 604.4578313253012,383.68381434173887 589.7590361445783,383.8057562516421 575.0602409638554,384.63670373452624 560.3614457831326,385.31853398891764 545.6626506024096,386.68425649288776 530.9638554216867,384.9636277925889 516.2650602409639,381.75263600240504 501.56626506024094,376.17225858766324 486.86746987951807,377.5141070108665 472.1686746987952,377.8068802620843 457.46987951807233,382.17481981242 442.7710843373494,377.2222353181002 428.07228915662654,380.91670402639085 413.3734939759036,387.0744491599727 398.6746987951807,385.7387550430846 383.9759036144578,384.6170580145495 369.27710843373495,384.13301302490885 354.578313253012,383.151063579486 339.87951807228916,382.1283530617066 325.1807228915663,381.7841790614711 310.48192771084337,382.49260073568627 295.7831325301205,382.1416106638457 281.08433734939763,382.0003788677309 266.3855421686747,381.16246331716667 251.6867469879518,380.85884693335225 236.9879518072289,382.3391028810947 222.289156626506,382.8862442813906 207.59036144578315,383.6676601180035 192.89156626506025,383.70023508007637 178.19277108433735,383.28965080118996 163.49397590361446,382.343642922137 148.7951807228916,376.2443770867104 134.09638554216866,367.0114562230269 119.3975903614458,350.9226674753743 104.6987951807229,324.0457819566727 90.0,290.9189449404205" fill="#2563eb" fill-opacity="0.70" stroke="#2563eb" stroke-width="1.2"/>
<polygon points="90.0,235.59849277202932 104.6987951807229,234.9441499242042 119.3975903614458,228.25330502284407 134.09638554216866,227.63092896337292 148.7951807228916,220.62505588157092 163.49397590361446,229.9502778351791 178.19277108433735,184.72441746512905 192.89156626506025,182.10740998937308 207.59036144578315,177.45865116596133 222.289156626506,164.7608035098083 236.9879518072289,163.4559385376723 251.6867469879518,144.2564200782577 266.3855421686747,164.1192526192555 281.08433734939763,175.0483479571817 295.7831325301205,169.02305572011943 310.48192771084337,173.46057228964696 325.1807228915663,158.14364366765608 339.87951807228916,170.96409374706542 354.578313253012,184.56752904103413 369.27710843373495,190.70624795362116 383.9759036144578,188.95416999340335 398.6746987951807,202.8086705725813 413.3734939759036,213.85326890203248 428.07228915662654,226.72034530407205 442.7710843373494,226.72212902265713 457.46987951807233,217.35797702599865 472.1686746987952,225.01988374632265 486.86746987951807,248.29978853615916 501.56626506024094,236.6379438114332 516.2650602409639,220.82134749678497 530.9638554216867,218.5341031857651 545.6626506024096,215.10133028890687 560.3614457831326,175.13300155308323 575.0602409638554,177.42638901959367 589.7590361445783,170.3955668487729 604.4578313253012,176.6726765125597 619.156626506024,163.81764568503894 633.8554216867469,180.76107947064193 648.5542168674699,181.08946341485668 663.2530120481928,183.07445076170347 677.9518072289156,172.29200783907817 692.6506024096385,143.96378876160895 707.3493975903614,119.22016362874314 722.0481927710844,119.82020274487229 736.7469879518072,130.21605827688984 751.4457831325301,90.0 766.1445783132531,114.98224069193145 780.843373493976,99.1001206623746 795.5421686746988,108.35186113509843 810.2409638554217,108.51484386008866 824.9397590361447,96.32529846521362 839.6385542168674,112.3856132899341 854.3373493975904,110.57412841382546 869.0361445783132,92.52672493820882 883.7349397590361,112.28665846481641 898.4337349397591,125.65302703838864 913.1325301204819,117.03959601485542 927.8313253012049,152.40950902396185 942.5301204819277,146.83789395833844 957.2289156626506,166.66453423304932 971.9277108433735,177.59283238826134 986.6265060240964,171.7651086883152 1001.3253012048192,161.97728383294344 1016.0240963855422,176.65294075403864 1030.7228915662652,177.15704530189643 1045.421686746988,175.7677803284414 1060.120481927711,161.15125164024948 1074.8192771084337,158.41307477344333 1089.5180722891566,176.44804943021953 1104.2168674698796,173.37044450062302 1118.9156626506024,209.38701831463115 1133.6144578313254,223.35502637928184 1148.313253012048,225.88412350343927 1163.012048192771,234.11393750146453 1177.7108433734938,224.8390730015624 1192.4096385542168,221.1773995849654 1207.1084337349398,207.86726269196586 1221.8072289156626,216.87248217834087 1236.5060240963855,221.3309454035441 1251.2048192771083,212.6808282981127 1265.9036144578313,207.37548564693103 1280.6024096385543,204.44338810365915 1295.301204819277,205.559923240501 1310.0,197.71039633622658 1310.0,299.7036607283042 1295.301204819277,303.00171035774787 1280.6024096385543,302.55365269181885 1265.9036144578313,303.4166603222059 1251.2048192771083,306.0172396745199 1236.5060240963855,309.9070935796692 1221.8072289156626,307.8813730736404 1207.1084337349398,302.98548114472834 1192.4096385542168,310.9684465066324 1177.7108433734938,312.7536727963362 1163.012048192771,316.59578808858987 1148.313253012048,311.9218692120137 1133.6144578313254,310.20410387127646 1118.9156626506024,303.68941121680064 1104.2168674698796,284.07159988333467 1089.5180722891566,285.96114937291475 1074.8192771084337,276.6367075032561 1060.120481927711,277.64841008017834 1045.421686746988,285.6561043416592 1030.7228915662652,285.83114439179917 1016.0240963855422,285.449479899402 1001.3253012048192,276.2634768690241 986.6265060240964,283.149476574872 971.9277108433735,283.9135137453401 957.2289156626506,277.8309515237676 942.5301204819277,267.9872193349178 927.8313253012049,270.5815047486597 913.1325301204819,246.86879033556835 898.4337349397591,250.94189155936897 883.7349397590361,243.14944757733394 869.0361445783132,233.0863795848838 854.3373493975904,243.5175522364612 839.6385542168674,243.88028346121396 824.9397590361447,234.0000505977637 810.2409638554217,240.03578853217726 795.5421686746988,238.9455188437759 780.843373493976,229.08388813722016 766.1445783132531,241.90150721197676 751.4457831325301,223.15538548669528 736.7469879518072,252.22622334611847 722.0481927710844,245.1242390312741 707.3493975903614,245.2062364373135 692.6506024096385,266.38639182138127 677.9518072289156,288.69307154116024 663.2530120481928,303.203304442071 648.5542168674699,301.2353868439623 633.8554216867469,298.0360931265793 619.156626506024,284.16464936434954 604.4578313253012,299.03522604204767 589.7590361445783,295.6601299840812 575.0602409638554,298.95288358617637 560.3614457831326,292.11042259155096 545.6626506024096,318.98647458923455 530.9638554216867,319.2663708832159 516.2650602409639,319.3856141545552 501.56626506024094,323.0085383688812 486.86746987951807,329.39532518019155 472.1686746987952,318.4530252984073 457.46987951807233,317.16294853037687 442.7710843373494,318.8945878993099 428.07228915662654,322.60725399503445 413.3734939759036,321.00526924600297 398.6746987951807,312.9640268872816 383.9759036144578,307.40305535065374 369.27710843373495,309.7726914427517 354.578313253012,307.5941146152103 339.87951807228916,300.4284520519734 325.1807228915663,295.547749036576 310.48192771084337,300.7461880589732 295.7831325301205,297.8833753917835 281.08433734939763,299.6930792725449 266.3855421686747,295.5630882119452 251.6867469879518,286.4337137501824 236.9879518072289,293.87911656132417 222.289156626506,293.91649009262295 207.59036144578315,300.5860570260842 192.89156626506025,305.53179483258396 178.19277108433735,303.6059398416307 163.49397590361446,323.05813425606027 148.7951807228916,315.55234730744667 134.09638554216866,311.4105927390085 119.3975903614458,302.1242415757751 104.6987951807229,288.6059477143729 90.0,268.79076407306405" fill="#f97316" fill-opacity="0.70" stroke="#f97316" stroke-width="1.2"/>
<rect x="1100" y="76" width="16" height="12" fill="#f97316" fill-opacity="0.70" stroke="#f97316"/>
<text x="1124" y="86" font-family="monospace" font-size="12" fill="#0f172a">BTC</text>
<rect x="1100" y="98" width="16" height="12" fill="#2563eb" fill-opacity="0.70" stroke="#2563eb"/>
<text x="1124" y="108" font-family="monospace" font-size="12" fill="#0f172a">ETH</text>
<rect x="1100" y="120" width="16" height="12" fill="#facc15" fill-opacity="0.70" stroke="#facc15"/>
<text x="1124" y="130" font-family="monospace" font-size="12" fill="#0f172a">DAI</text>
<text x="700.0" y="782" text-anchor="middle" font-family="monospace" font-size="16" fill="#0f172a">time</text>
<text x="24" y="255.0" transform="rotate(-90 24,255.0)" text-anchor="middle" font-family="monospace" font-size="16" fill="#0f172a">asset value split (usd)</text>
<line x1="90" y1="605" x2="1310" y2="605" stroke="#334155" stroke-width="2"/>
<line x1="90" y1="480" x2="90" y2="605" stroke="#334155" stroke-width="2"/>
<line x1="90" y1="542.5" x2="1310" y2="542.5" stroke="#64748b" stroke-width="1.5" stroke-dasharray="6 4"/>
<line x1="90" y1="605.0" x2="1310" y2="605.0" stroke="#e2e8f0" stroke-width="1"/>
<text x="78" y="609.0" text-anchor="end" font-family="monospace" font-size="11" fill="#475569">-1800</text>
<line x1="90" y1="542.5" x2="1310" y2="542.5" stroke="#e2e8f0" stroke-width="1"/>
<text x="78" y="546.5" text-anchor="end" font-family="monospace" font-size="11" fill="#475569">0</text>
<line x1="90" y1="480.0" x2="1310" y2="480.0" stroke="#e2e8f0" stroke-width="1"/>
<text x="78" y="484.0" text-anchor="end" font-family="monospace" font-size="11" fill="#475569">1800</text>
<rect x="86.00595238095238" y="480.0" width="7.988095238095239" height="62.5" fill="#ea580c" opacity="0.85"><title>2024-10-01 | BTC buy 1800.00 usd | reason=both_weak_btc_defensive</title></rect>
<rect x="100.70474756167528" y="505.3260164399874" width="7.988095238095239" height="37.17398356001257" fill="#ea580c" opacity="0.85"><title>2024-10-08 | BTC buy 1070.61 usd | reason=both_weak_btc_defensive</title></rect>
<rect x="115.40354274239817" y="512.4730829047534" width="7.988095238095239" height="30.02691709524663" fill="#ea580c" opacity="0.85"><title>2024-10-15 | BTC buy 864.78 usd | reason=btc_defensive_regime</title></rect>
<rect x="130.10233792312104" y="524.513179208833" width="7.988095238095239" height="17.98682079116702" fill="#ea580c" opacity="0.85"><title>2024-10-22 | BTC buy 518.02 usd | reason=btc_defensive_regime</title></rect>
<rect x="144.80113310384397" y="534.0217084557768" width="7.988095238095239" height="8.478291544223225" fill="#ea580c" opacity="0.85"><title>2024-10-29 | BTC buy 244.17 usd | reason=btc_defensive_regime</title></rect>
<rect x="159.49992828456683" y="537.7078429034541" width="7.988095238095239" height="4.792157096545907" fill="#ea580c" opacity="0.85"><title>2024-11-05 | BTC buy 138.01 usd | reason=btc_defensive_regime</title></rect>
<rect x="174.19872346528973" y="541.1078276247098" width="7.988095238095239" height="1.5" fill="#ea580c" opacity="0.85"><title>2024-11-12 | BTC buy 40.09 usd | reason=btc_defensive_regime</title></rect>
<rect x="188.89751864601263" y="542.5" width="7.988095238095239" height="2.635106325848369" fill="#dc2626" opacity="0.85"><title>2024-11-19 | BTC sell 75.89 usd | reason=btc_defensive_regime</title></rect>
<rect x="203.59631382673552" y="541.7861264297552" width="7.988095238095239" height="1.5" fill="#ea580c" opacity="0.85"><title>2024-11-26 | BTC buy 20.56 usd | reason=btc_defensive_regime</title></rect>
<rect x="218.2951090074584" y="541.2242215489892" width="7.988095238095239" height="1.5" fill="#ea580c" opacity="0.85"><title>2024-12-03 | BTC buy 36.74 usd | reason=btc_defensive_regime</title></rect>
<rect x="232.9939041881813" y="541.9799324939509" width="7.988095238095239" height="1.5" fill="#ea580c" opacity="0.85"><title>2024-12-10 | BTC buy 14.98 usd | reason=btc_defensive_regime</title></rect>
<rect x="247.6926993689042" y="542.5" width="7.988095238095239" height="1.943308702041918" fill="#dc2626" opacity="0.85"><title>2024-12-17 | BTC sell 55.97 usd | reason=btc_defensive_regime</title></rect>
<rect x="262.3914945496271" y="542.5" width="7.988095238095239" height="1.5" fill="#dc2626" opacity="0.85"><title>2024-12-24 | BTC sell 34.15 usd | reason=btc_defensive_regime</title></rect>
<rect x="277.09028973035004" y="542.1477452738807" width="7.988095238095239" height="1.5" fill="#ea580c" opacity="0.85"><title>2024-12-31 | BTC buy 10.14 usd | reason=btc_defensive_regime</title></rect>
<rect x="291.7890849110729" y="542.5" width="7.988095238095239" height="1.5" fill="#dc2626" opacity="0.85"><title>2025-01-07 | BTC sell 31.17 usd | reason=btc_defensive_regime</title></rect>
<rect x="306.4878800917958" y="542.5" width="7.988095238095239" height="1.946371319124296" fill="#dc2626" opacity="0.85"><title>2025-01-14 | BTC sell 56.06 usd | reason=btc_defensive_regime</title></rect>
<rect x="321.1866752725187" y="542.5" width="7.988095238095239" height="4.842196049747713" fill="#dc2626" opacity="0.85"><title>2025-01-21 | BTC sell 139.46 usd | reason=btc_defensive_regime</title></rect>
<rect x="335.88547045324157" y="542.5" width="7.988095238095239" height="3.083104916247521" fill="#dc2626" opacity="0.85"><title>2025-01-28 | BTC sell 88.79 usd | reason=btc_defensive_regime</title></rect>
<rect x="350.58426563396443" y="542.5" width="7.988095238095239" height="3.7107350461875512" fill="#dc2626" opacity="0.85"><title>2025-02-04 | BTC sell 106.87 usd | reason=btc_defensive_regime</title></rect>
<rect x="365.28306081468736" y="542.5" width="7.988095238095239" height="2.669584743325231" fill="#dc2626" opacity="0.85"><title>2025-02-11 | BTC sell 76.88 usd | reason=btc_defensive_regime</title></rect>
<rect x="379.9818559954102" y="542.5" width="7.988095238095239" height="1.5" fill="#dc2626" opacity="0.85"><title>2025-02-18 | BTC sell 22.25 usd | reason=btc_defensive_regime</title></rect>
<rect x="394.6806511761331" y="541.7314705737134" width="7.988095238095239" height="1.5" fill="#ea580c" opacity="0.85"><title>2025-02-25 | BTC buy 22.13 usd | reason=btc_defensive_regime</title></rect>
<rect x="409.379446356856" y="542.5" width="7.988095238095239" height="2.532175168269987" fill="#dc2626" opacity="0.85"><title>2025-03-04 | BTC sell 72.93 usd | reason=btc_defensive_regime</title></rect>
<rect x="424.07824153757895" y="542.5" width="7.988095238095239" height="11.186168406716092" fill="#dc2626" opacity="0.85"><title>2025-03-11 | BTC sell 322.16 usd | reason=both_weak_btc_defensive</title></rect>
<rect x="438.7770367183018" y="542.5" width="7.988095238095239" height="6.524381446249663" fill="#dc2626" opacity="0.85"><title>2025-03-18 | BTC sell 187.90 usd | reason=both_weak_btc_defensive</title></rect>
<rect x="453.47583189902474" y="538.0531060978092" width="7.988095238095239" height="4.446893902190823" fill="#ea580c" opacity="0.85"><title>2025-03-25 | BTC buy 128.07 usd | reason=btc_defensive_regime</title></rect>
<rect x="468.1746270797476" y="542.5" width="7.988095238095239" height="7.145349673806436" fill="#dc2626" opacity="0.85"><title>2025-04-01 | BTC sell 205.79 usd | reason=both_weak_btc_defensive</title></rect>
<rect x="482.8734222604705" y="542.5" width="7.988095238095239" height="4.808400338344995" fill="#dc2626" opacity="0.85"><title>2025-04-08 | BTC sell 138.48 usd | reason=both_weak_btc_defensive</title></rect>
<rect x="497.57221744119335" y="542.5" width="7.988095238095239" height="4.842579714825433" fill="#dc2626" opacity="0.85"><title>2025-04-15 | BTC sell 139.47 usd | reason=both_weak_btc_defensive</title></rect>
<rect x="512.2710126219163" y="538.7129159381858" width="7.988095238095239" height="3.7870840618141983" fill="#ea580c" opacity="0.85"><title>2025-04-22 | BTC buy 109.07 usd | reason=btc_defensive_regime</title></rect>
<rect x="526.9698078026391" y="539.9701192993456" width="7.988095238095239" height="2.5298807006544166" fill="#ea580c" opacity="0.85"><title>2025-04-29 | BTC buy 72.86 usd | reason=btc_defensive_regime</title></rect>
<rect x="541.668602983362" y="541.730271048682" width="7.988095238095239" height="1.5" fill="#ea580c" opacity="0.85"><title>2025-05-06 | BTC buy 22.17 usd | reason=btc_defensive_regime</title></rect>
<rect x="556.367398164085" y="532.5770723379042" width="7.988095238095239" height="9.922927662095844" fill="#ea580c" opacity="0.85"><title>2025-05-13 | BTC buy 285.78 usd | reason=btc_defensive_regime</title></rect>
<rect x="571.0661933448079" y="539.7558282549192" width="7.988095238095239" height="2.7441717450808483" fill="#ea580c" opacity="0.85"><title>2025-05-20 | BTC buy 79.03 usd | reason=btc_defensive_regime</title></rect>
<rect x="585.7649885255307" y="539.9470741580006" width="7.988095238095239" height="2.552925841999354" fill="#ea580c" opacity="0.85"><title>2025-05-27 | BTC buy 73.52 usd | reason=btc_defensive_regime</title></rect>
<rect x="600.4637837062536" y="540.3228046003833" width="7.988095238095239" height="2.1771953996167213" fill="#ea580c" opacity="0.85"><title>2025-06-03 | BTC buy 62.70 usd | reason=btc_defensive_regime</title></rect>
<rect x="615.1625788869765" y="542.5" width="7.988095238095239" height="14.397808392690763" fill="#dc2626" opacity="0.85"><title>2025-06-10 | BTC sell 414.66 usd | reason=balanced_regime</title></rect>
<rect x="629.8613740676993" y="536.5537917056619" width="7.988095238095239" height="5.946208294338135" fill="#ea580c" opacity="0.85"><title>2025-06-17 | BTC buy 171.25 usd | reason=btc_defensive_regime</title></rect>
<rect x="644.5601692484223" y="540.367914524045" width="7.988095238095239" height="2.132085475955023" fill="#ea580c" opacity="0.85"><title>2025-06-24 | BTC buy 61.40 usd | reason=btc_defensive_regime</title></rect>
<rect x="659.2589644291452" y="541.6172939718577" width="7.988095238095239" height="1.5" fill="#ea580c" opacity="0.85"><title>2025-07-01 | BTC buy 25.42 usd | reason=btc_defensive_regime</title></rect>
<rect x="673.957759609868" y="542.5" width="7.988095238095239" height="13.965559096563311" fill="#dc2626" opacity="0.85"><title>2025-07-08 | BTC sell 402.21 usd | reason=balanced_regime</title></rect>
<rect x="688.6565547905909" y="542.5" width="7.988095238095239" height="6.411147689995687" fill="#dc2626" opacity="0.85"><title>2025-07-15 | BTC sell 184.64 usd | reason=balanced_regime</title></rect>
<rect x="703.3553499713138" y="540.1834998318365" width="7.988095238095239" height="2.316500168163543" fill="#ea580c" opacity="0.85"><title>2025-07-22 | BTC buy 66.72 usd | reason=balanced_regime</title></rect>
<rect x="718.0541451520368" y="539.6474564987103" width="7.988095238095239" height="2.852543501289688" fill="#ea580c" opacity="0.85"><title>2025-07-29 | BTC buy 82.15 usd | reason=balanced_regime</title></rect>
<rect x="732.7529403327596" y="541.0588887135284" width="7.988095238095239" height="1.5" fill="#ea580c" opacity="0.85"><title>2025-08-05 | BTC buy 41.50 usd | reason=balanced_regime</title></rect>
<rect x="747.4517355134825" y="533.5940430869174" width="7.988095238095239" height="8.905956913082605" fill="#ea580c" opacity="0.85"><title>2025-08-12 | BTC buy 256.49 usd | reason=balanced_regime</title></rect>
<rect x="762.1505306942055" y="539.0939847345838" width="7.988095238095239" height="3.4060152654161584" fill="#ea580c" opacity="0.85"><title>2025-08-19 | BTC buy 98.09 usd | reason=balanced_regime</title></rect>
<rect x="776.8493258749284" y="534.4676566852806" width="7.988095238095239" height="8.032343314719355" fill="#ea580c" opacity="0.85"><title>2025-08-26 | BTC buy 231.33 usd | reason=balanced_regime</title></rect>
<rect x="791.5481210556512" y="540.1691344649864" width="7.988095238095239" height="2.3308655350135723" fill="#ea580c" opacity="0.85"><title>2025-09-02 | BTC buy 67.13 usd | reason=balanced_regime</title></rect>
<rect x="806.2469162363741" y="541.4201217461491" width="7.988095238095239" height="1.5" fill="#ea580c" opacity="0.85"><title>2025-09-09 | BTC buy 31.10 usd | reason=balanced_regime</title></rect>
<rect x="820.9457114170971" y="542.5" width="7.988095238095239" height="1.5" fill="#dc2626" opacity="0.85"><title>2025-09-16 | BTC sell 4.09 usd | reason=balanced_regime</title></rect>
<rect x="835.6445065978198" y="542.5" width="7.988095238095239" height="1.5" fill="#dc2626" opacity="0.85"><title>2025-09-23 | BTC sell 27.42 usd | reason=balanced_regime</title></rect>
<rect x="850.3433017785428" y="542.5" width="7.988095238095239" height="1.804421559307798" fill="#dc2626" opacity="0.85"><title>2025-09-30 | BTC sell 51.97 usd | reason=balanced_regime</title></rect>
<rect x="865.0420969592656" y="542.5" width="7.988095238095239" height="1.7367405764257455" fill="#dc2626" opacity="0.85"><title>2025-10-07 | BTC sell 50.02 usd | reason=balanced_regime</title></rect>
<rect x="879.7408921399885" y="542.5" width="7.988095238095239" height="1.5" fill="#dc2626" opacity="0.85"><title>2025-10-14 | BTC sell 3.06 usd | reason=balanced_regime</title></rect>
<rect x="894.4396873207115" y="542.5" width="7.988095238095239" height="1.5" fill="#dc2626" opacity="0.85"><title>2025-10-21 | BTC sell 6.92 usd | reason=balanced_regime</title></rect>
<rect x="909.1384825014343" y="542.5" width="7.988095238095239" height="1.5" fill="#dc2626" opacity="0.85"><title>2025-10-28 | BTC sell 38.72 usd | reason=balanced_regime</title></rect>
<rect x="923.8372776821573" y="539.6834241243365" width="7.988095238095239" height="2.8165758756634887" fill="#ea580c" opacity="0.85"><title>2025-11-04 | BTC buy 81.12 usd | reason=both_weak_btc_defensive</title></rect>
<rect x="938.5360728628801" y="540.2735500456283" width="7.988095238095239" height="2.226449954371674" fill="#ea580c" opacity="0.85"><title>2025-11-11 | BTC buy 64.12 usd | reason=both_weak_btc_defensive</title></rect>
<rect x="953.234868043603" y="538.941764160119" width="7.988095238095239" height="3.5582358398810356" fill="#ea580c" opacity="0.85"><title>2025-11-18 | BTC buy 102.48 usd | reason=both_weak_btc_defensive</title></rect>
<rect x="967.9336632243259" y="539.0321444321218" width="7.988095238095239" height="3.467855567878246" fill="#ea580c" opacity="0.85"><title>2025-11-25 | BTC buy 99.87 usd | reason=both_weak_btc_defensive</title></rect>
<rect x="982.6324584050489" y="542.0966264746957" width="7.988095238095239" height="1.5" fill="#ea580c" opacity="0.85"><title>2025-12-02 | BTC buy 11.62 usd | reason=both_weak_btc_defensive</title></rect>
<rect x="997.3312535857716" y="540.2102736475509" width="7.988095238095239" height="2.2897263524490654" fill="#ea580c" opacity="0.85"><title>2025-12-09 | BTC buy 65.94 usd | reason=both_weak_btc_defensive</title></rect>
<rect x="1012.0300487664946" y="541.6091832933997" width="7.988095238095239" height="1.5" fill="#ea580c" opacity="0.85"><title>2025-12-16 | BTC buy 25.66 usd | reason=both_weak_btc_defensive</title></rect>
<rect x="1026.7288439472175" y="541.74024667425" width="7.988095238095239" height="1.5" fill="#ea580c" opacity="0.85"><title>2025-12-23 | BTC buy 21.88 usd | reason=both_weak_btc_defensive</title></rect>
<rect x="1041.4276391279402" y="542.4796955255576" width="7.988095238095239" height="1.5" fill="#ea580c" opacity="0.85"><title>2025-12-30 | BTC buy 0.58 usd | reason=both_weak_btc_defensive</title></rect>
<rect x="1056.1264343086632" y="542.5" width="7.988095238095239" height="1.5" fill="#dc2626" opacity="0.85"><title>2026-01-06 | BTC sell 0.55 usd | reason=both_weak_btc_defensive</title></rect>
<rect x="1070.825229489386" y="542.5" width="7.988095238095239" height="1.5" fill="#dc2626" opacity="0.85"><title>2026-01-13 | BTC sell 18.42 usd | reason=both_weak_btc_defensive</title></rect>
<rect x="1085.524024670109" y="542.3929497109274" width="7.988095238095239" height="1.5" fill="#ea580c" opacity="0.85"><title>2026-01-20 | BTC buy 3.08 usd | reason=both_weak_btc_defensive</title></rect>
<rect x="1100.222819850832" y="542.1458204212547" width="7.988095238095239" height="1.5" fill="#ea580c" opacity="0.85"><title>2026-01-27 | BTC buy 10.20 usd | reason=both_weak_btc_defensive</title></rect>
<rect x="1114.9216150315547" y="541.9056738239447" width="7.988095238095239" height="1.5" fill="#ea580c" opacity="0.85"><title>2026-02-03 | BTC buy 17.12 usd | reason=both_weak_btc_defensive</title></rect>
<rect x="1129.6204102122776" y="540.4398308539406" width="7.988095238095239" height="2.0601691460593656" fill="#ea580c" opacity="0.85"><title>2026-02-10 | BTC buy 59.33 usd | reason=both_weak_btc_defensive</title></rect>
<rect x="1144.3192053930004" y="540.850019116703" width="7.988095238095239" height="1.649980883296962" fill="#ea580c" opacity="0.85"><title>2026-02-17 | BTC buy 47.52 usd | reason=both_weak_btc_defensive</title></rect>
<rect x="1159.0180005737234" y="541.0352042665887" width="7.988095238095239" height="1.5" fill="#ea580c" opacity="0.85"><title>2026-02-24 | BTC buy 42.19 usd | reason=both_weak_btc_defensive</title></rect>
<rect x="1173.7167957544461" y="542.5" width="7.988095238095239" height="1.5" fill="#dc2626" opacity="0.85"><title>2026-03-03 | BTC sell 3.33 usd | reason=both_weak_btc_defensive</title></rect>
<rect x="1188.4155909351691" y="542.5" width="7.988095238095239" height="1.5" fill="#dc2626" opacity="0.85"><title>2026-03-10 | BTC sell 11.60 usd | reason=both_weak_btc_defensive</title></rect>
<rect x="1203.114386115892" y="542.0712941064459" width="7.988095238095239" height="1.5" fill="#ea580c" opacity="0.85"><title>2026-03-17 | BTC buy 12.35 usd | reason=both_weak_btc_defensive</title></rect>
<rect x="1217.8131812966149" y="541.9997679318766" width="7.988095238095239" height="1.5" fill="#ea580c" opacity="0.85"><title>2026-03-24 | BTC buy 14.41 usd | reason=both_weak_btc_defensive</title></rect>
<rect x="1232.5119764773378" y="541.4644597472726" width="7.988095238095239" height="1.5" fill="#ea580c" opacity="0.85"><title>2026-03-31 | BTC buy 29.82 usd | reason=both_weak_btc_defensive</title></rect>
<rect x="1247.2107716580606" y="542.5" width="7.988095238095239" height="1.5" fill="#dc2626" opacity="0.85"><title>2026-04-07 | BTC sell 1.55 usd | reason=both_weak_btc_defensive</title></rect>
<rect x="1261.9095668387836" y="542.5" width="7.988095238095239" height="1.5" fill="#dc2626" opacity="0.85"><title>2026-04-14 | BTC sell 13.02 usd | reason=both_weak_btc_defensive</title></rect>
<rect x="1276.6083620195066" y="542.5" width="7.988095238095239" height="1.5" fill="#dc2626" opacity="0.85"><title>2026-04-21 | BTC sell 40.12 usd | reason=both_weak_btc_defensive</title></rect>
<rect x="1291.3071572002293" y="542.5" width="7.988095238095239" height="1.5" fill="#dc2626" opacity="0.85"><title>2026-04-28 | BTC sell 34.12 usd | reason=both_weak_btc_defensive</title></rect>
<rect x="1306.0059523809523" y="542.5" width="7.988095238095239" height="2.46410618400796" fill="#dc2626" opacity="0.85"><title>2026-05-05 | BTC sell 70.97 usd | reason=both_weak_btc_defensive</title></rect>
<text x="24" y="542.5" transform="rotate(-90 24,542.5)" text-anchor="middle" font-family="monospace" font-size="14" fill="#0f172a">BTC weekly trade usd</text>
<line x1="90" y1="770" x2="1310" y2="770" stroke="#334155" stroke-width="2"/>
<line x1="90" y1="645" x2="90" y2="770" stroke="#334155" stroke-width="2"/>
<line x1="90" y1="707.5" x2="1310" y2="707.5" stroke="#64748b" stroke-width="1.5" stroke-dasharray="6 4"/>
<line x1="90" y1="770.0" x2="1310" y2="770.0" stroke="#e2e8f0" stroke-width="1"/>
<text x="78" y="774.0" text-anchor="end" font-family="monospace" font-size="11" fill="#475569">-1200</text>
<line x1="90" y1="707.5" x2="1310" y2="707.5" stroke="#e2e8f0" stroke-width="1"/>
<text x="78" y="711.5" text-anchor="end" font-family="monospace" font-size="11" fill="#475569">0</text>
<line x1="90" y1="645.0" x2="1310" y2="645.0" stroke="#e2e8f0" stroke-width="1"/>
<text x="78" y="649.0" text-anchor="end" font-family="monospace" font-size="11" fill="#475569">1200</text>
<rect x="86.00595238095238" y="645.0" width="7.988095238095239" height="62.5" fill="#2563eb" opacity="0.85"><title>2024-10-01 | ETH buy 1200.00 usd | reason=both_weak_btc_defensive</title></rect>
<rect x="100.70474756167528" y="669.6957913817632" width="7.988095238095239" height="37.80420861823677" fill="#2563eb" opacity="0.85"><title>2024-10-08 | ETH buy 725.84 usd | reason=both_weak_btc_defensive</title></rect>
<rect x="115.40354274239817" y="676.6278840111291" width="7.988095238095239" height="30.87211598887086" fill="#2563eb" opacity="0.85"><title>2024-10-15 | ETH buy 592.74 usd | reason=btc_defensive_regime</title></rect>
<rect x="130.10233792312104" y="689.0382085118691" width="7.988095238095239" height="18.46179148813087" fill="#2563eb" opacity="0.85"><title>2024-10-22 | ETH buy 354.47 usd | reason=btc_defensive_regime</title></rect>
<rect x="144.80113310384397" y="694.1394891361709" width="7.988095238095239" height="13.360510863829063" fill="#2563eb" opacity="0.85"><title>2024-10-29 | ETH buy 256.52 usd | reason=btc_defensive_regime</title></rect>
<rect x="159.49992828456683" y="697.4611478422008" width="7.988095238095239" height="10.03885215779917" fill="#2563eb" opacity="0.85"><title>2024-11-05 | ETH buy 192.75 usd | reason=btc_defensive_regime</title></rect>
<rect x="174.19872346528973" y="706.9163040631404" width="7.988095238095239" height="1.5" fill="#2563eb" opacity="0.85"><title>2024-11-12 | ETH buy 11.21 usd | reason=btc_defensive_regime</title></rect>
<rect x="188.89751864601263" y="702.3876646398026" width="7.988095238095239" height="5.112335360197449" fill="#2563eb" opacity="0.85"><title>2024-11-19 | ETH buy 98.16 usd | reason=btc_defensive_regime</title></rect>
<rect x="203.59631382673552" y="707.5" width="7.988095238095239" height="1.5" fill="#7c3aed" opacity="0.85"><title>2024-11-26 | ETH sell 22.33 usd | reason=btc_defensive_regime</title></rect>
<rect x="218.2951090074584" y="707.5" width="7.988095238095239" height="4.120739739107307" fill="#7c3aed" opacity="0.85"><title>2024-12-03 | ETH sell 79.12 usd | reason=btc_defensive_regime</title></rect>
<rect x="232.9939041881813" y="707.5" width="7.988095238095239" height="2.325476259552829" fill="#7c3aed" opacity="0.85"><title>2024-12-10 | ETH sell 44.65 usd | reason=btc_defensive_regime</title></rect>
<rect x="247.6926993689042" y="707.5" width="7.988095238095239" height="1.5" fill="#7c3aed" opacity="0.85"><title>2024-12-17 | ETH sell 24.31 usd | reason=btc_defensive_regime</title></rect>
<rect x="262.3914945496271" y="704.8636953924948" width="7.988095238095239" height="2.636304607505167" fill="#2563eb" opacity="0.85"><title>2024-12-24 | ETH buy 50.62 usd | reason=btc_defensive_regime</title></rect>
<rect x="277.09028973035004" y="705.6617292574715" width="7.988095238095239" height="1.8382707425284934" fill="#2563eb" opacity="0.85"><title>2024-12-31 | ETH buy 35.29 usd | reason=btc_defensive_regime</title></rect>
<rect x="291.7890849110729" y="705.4778316212581" width="7.988095238095239" height="2.022168378741867" fill="#2563eb" opacity="0.85"><title>2025-01-07 | ETH buy 38.83 usd | reason=btc_defensive_regime</title></rect>
<rect x="306.4878800917958" y="703.5890881683534" width="7.988095238095239" height="3.9109118316465583" fill="#2563eb" opacity="0.85"><title>2025-01-14 | ETH buy 75.09 usd | reason=btc_defensive_regime</title></rect>
<rect x="321.1866752725187" y="702.2376094295505" width="7.988095238095239" height="5.262390570449497" fill="#2563eb" opacity="0.85"><title>2025-01-21 | ETH buy 101.04 usd | reason=btc_defensive_regime</title></rect>
<rect x="335.88547045324157" y="701.9032394444563" width="7.988095238095239" height="5.59676055554371" fill="#2563eb" opacity="0.85"><title>2025-01-28 | ETH buy 107.46 usd | reason=btc_defensive_regime</title></rect>
<rect x="350.58426563396443" y="699.0452999565582" width="7.988095238095239" height="8.45470004344179" fill="#2563eb" opacity="0.85"><title>2025-02-04 | ETH buy 162.33 usd | reason=btc_defensive_regime</title></rect>
<rect x="365.28306081468736" y="700.7221531313613" width="7.988095238095239" height="6.777846868638676" fill="#2563eb" opacity="0.85"><title>2025-02-11 | ETH buy 130.13 usd | reason=btc_defensive_regime</title></rect>
<rect x="379.9818559954102" y="704.9738480417253" width="7.988095238095239" height="2.5261519582746814" fill="#2563eb" opacity="0.85"><title>2025-02-18 | ETH buy 48.50 usd | reason=btc_defensive_regime</title></rect>
<rect x="394.6806511761331" y="705.4846139485828" width="7.988095238095239" height="2.015386051417181" fill="#2563eb" opacity="0.85"><title>2025-02-25 | ETH buy 38.70 usd | reason=btc_defensive_regime</title></rect>
<rect x="409.379446356856" y="699.929132404661" width="7.988095238095239" height="7.570867595338996" fill="#2563eb" opacity="0.85"><title>2025-03-04 | ETH buy 145.36 usd | reason=btc_defensive_regime</title></rect>
<rect x="424.07824153757895" y="707.5" width="7.988095238095239" height="1.5" fill="#7c3aed" opacity="0.85"><title>2025-03-11 | ETH sell 11.77 usd | reason=both_weak_btc_defensive</title></rect>
<rect x="438.7770367183018" y="707.5" width="7.988095238095239" height="1.5" fill="#7c3aed" opacity="0.85"><title>2025-03-18 | ETH sell 12.45 usd | reason=both_weak_btc_defensive</title></rect>
<rect x="453.47583189902474" y="700.1820002503939" width="7.988095238095239" height="7.317999749606088" fill="#2563eb" opacity="0.85"><title>2025-03-25 | ETH buy 140.51 usd | reason=btc_defensive_regime</title></rect>
<rect x="468.1746270797476" y="707.5" width="7.988095238095239" height="1.6190141068077537" fill="#7c3aed" opacity="0.85"><title>2025-04-01 | ETH sell 31.09 usd | reason=both_weak_btc_defensive</title></rect>
<rect x="482.8734222604705" y="701.1143236897673" width="7.988095238095239" height="6.385676310232725" fill="#2563eb" opacity="0.85"><title>2025-04-08 | ETH buy 122.60 usd | reason=both_weak_btc_defensive</title></rect>
<rect x="497.57221744119335" y="704.0261178177294" width="7.988095238095239" height="3.473882182270586" fill="#2563eb" opacity="0.85"><title>2025-04-15 | ETH buy 66.70 usd | reason=both_weak_btc_defensive</title></rect>
<rect x="512.2710126219163" y="697.4191140862881" width="7.988095238095239" height="10.080885913711882" fill="#2563eb" opacity="0.85"><title>2025-04-22 | ETH buy 193.55 usd | reason=btc_defensive_regime</title></rect>
<rect x="526.9698078026391" y="702.2255266480898" width="7.988095238095239" height="5.27447335191016" fill="#2563eb" opacity="0.85"><title>2025-04-29 | ETH buy 101.27 usd | reason=btc_defensive_regime</title></rect>
<rect x="541.668602983362" y="703.7947590640304" width="7.988095238095239" height="3.705240935969641" fill="#2563eb" opacity="0.85"><title>2025-05-06 | ETH buy 71.14 usd | reason=btc_defensive_regime</title></rect>
<rect x="556.367398164085" y="707.5" width="7.988095238095239" height="18.741810094780817" fill="#7c3aed" opacity="0.85"><title>2025-05-13 | ETH sell 359.84 usd | reason=btc_defensive_regime</title></rect>
<rect x="571.0661933448079" y="707.5" width="7.988095238095239" height="6.042054914511937" fill="#7c3aed" opacity="0.85"><title>2025-05-20 | ETH sell 116.01 usd | reason=btc_defensive_regime</title></rect>
<rect x="585.7649885255307" y="707.5" width="7.988095238095239" height="6.176360617195542" fill="#7c3aed" opacity="0.85"><title>2025-05-27 | ETH sell 118.59 usd | reason=btc_defensive_regime</title></rect>
<rect x="600.4637837062536" y="707.5" width="7.988095238095239" height="3.610212255009401" fill="#7c3aed" opacity="0.85"><title>2025-06-03 | ETH sell 69.32 usd | reason=btc_defensive_regime</title></rect>
<rect x="615.1625788869765" y="688.2884444892139" width="7.988095238095239" height="19.21155551078607" fill="#2563eb" opacity="0.85"><title>2025-06-10 | ETH buy 368.86 usd | reason=balanced_regime</title></rect>
<rect x="629.8613740676993" y="707.5" width="7.988095238095239" height="7.479051059321819" fill="#7c3aed" opacity="0.85"><title>2025-06-17 | ETH sell 143.60 usd | reason=btc_defensive_regime</title></rect>
<rect x="644.5601692484223" y="707.5" width="7.988095238095239" height="2.2783210897242725" fill="#7c3aed" opacity="0.85"><title>2025-06-24 | ETH sell 43.74 usd | reason=btc_defensive_regime</title></rect>
<rect x="659.2589644291452" y="707.5" width="7.988095238095239" height="1.5" fill="#7c3aed" opacity="0.85"><title>2025-07-01 | ETH sell 8.37 usd | reason=btc_defensive_regime</title></rect>
<rect x="673.957759609868" y="687.8459666834782" width="7.988095238095239" height="19.654033316521804" fill="#2563eb" opacity="0.85"><title>2025-07-08 | ETH buy 377.36 usd | reason=balanced_regime</title></rect>
<rect x="688.6565547905909" y="703.4605645384496" width="7.988095238095239" height="4.039435461550397" fill="#2563eb" opacity="0.85"><title>2025-07-15 | ETH buy 77.56 usd | reason=balanced_regime</title></rect>
<rect x="703.3553499713138" y="707.5" width="7.988095238095239" height="11.01435381195995" fill="#7c3aed" opacity="0.85"><title>2025-07-22 | ETH sell 211.48 usd | reason=balanced_regime</title></rect>
<rect x="718.0541451520368" y="707.5" width="7.988095238095239" height="8.700890461984272" fill="#7c3aed" opacity="0.85"><title>2025-07-29 | ETH sell 167.06 usd | reason=balanced_regime</title></rect>
<rect x="732.7529403327596" y="707.5" width="7.988095238095239" height="3.0531559277143288" fill="#7c3aed" opacity="0.85"><title>2025-08-05 | ETH sell 58.62 usd | reason=balanced_regime</title></rect>
<rect x="747.4517355134825" y="707.5" width="7.988095238095239" height="20.70913000996893" fill="#7c3aed" opacity="0.85"><title>2025-08-12 | ETH sell 397.62 usd | reason=balanced_regime</title></rect>
<rect x="762.1505306942055" y="707.5" width="7.988095238095239" height="5.285470265206072" fill="#7c3aed" opacity="0.85"><title>2025-08-19 | ETH sell 101.48 usd | reason=balanced_regime</title></rect>
<rect x="776.8493258749284" y="707.5" width="7.988095238095239" height="14.845881191801482" fill="#7c3aed" opacity="0.85"><title>2025-08-26 | ETH sell 285.04 usd | reason=balanced_regime</title></rect>
<rect x="791.5481210556512" y="707.5" width="7.988095238095239" height="3.606851837820045" fill="#7c3aed" opacity="0.85"><title>2025-09-02 | ETH sell 69.25 usd | reason=balanced_regime</title></rect>
<rect x="806.2469162363741" y="707.5" width="7.988095238095239" height="1.658529282183963" fill="#7c3aed" opacity="0.85"><title>2025-09-09 | ETH sell 31.84 usd | reason=balanced_regime</title></rect>
<rect x="820.9457114170971" y="707.5" width="7.988095238095239" height="1.876171867698531" fill="#7c3aed" opacity="0.85"><title>2025-09-16 | ETH sell 36.02 usd | reason=balanced_regime</title></rect>
<rect x="835.6445065978198" y="704.6033402296594" width="7.988095238095239" height="2.896659770340648" fill="#2563eb" opacity="0.85"><title>2025-09-23 | ETH buy 55.62 usd | reason=balanced_regime</title></rect>
<rect x="850.3433017785428" y="704.2193610091241" width="7.988095238095239" height="3.2806389908759" fill="#2563eb" opacity="0.85"><title>2025-09-30 | ETH buy 62.99 usd | reason=balanced_regime</title></rect>
<rect x="865.0420969592656" y="707.5" width="7.988095238095239" height="1.5" fill="#7c3aed" opacity="0.85"><title>2025-10-07 | ETH sell 2.09 usd | reason=balanced_regime</title></rect>
<rect x="879.7408921399885" y="705.6204282701237" width="7.988095238095239" height="1.879571729876261" fill="#2563eb" opacity="0.85"><title>2025-10-14 | ETH buy 36.09 usd | reason=balanced_regime</title></rect>
<rect x="894.4396873207115" y="703.8422952510848" width="7.988095238095239" height="3.6577047489151937" fill="#2563eb" opacity="0.85"><title>2025-10-21 | ETH buy 70.23 usd | reason=balanced_regime</title></rect>
<rect x="909.1384825014343" y="704.9646102709722" width="7.988095238095239" height="2.53538972902777" fill="#2563eb" opacity="0.85"><title>2025-10-28 | ETH buy 48.68 usd | reason=balanced_regime</title></rect>
<rect x="923.8372776821573" y="707.5" width="7.988095238095239" height="28.151479607600436" fill="#7c3aed" opacity="0.85"><title>2025-11-04 | ETH sell 540.51 usd | reason=both_weak_btc_defensive</title></rect>
<rect x="938.5360728628801" y="707.5" width="7.988095238095239" height="19.269320724609088" fill="#7c3aed" opacity="0.85"><title>2025-11-11 | ETH sell 369.97 usd | reason=both_weak_btc_defensive</title></rect>
<rect x="953.234868043603" y="707.5" width="7.988095238095239" height="9.295200487710417" fill="#7c3aed" opacity="0.85"><title>2025-11-18 | ETH sell 178.47 usd | reason=both_weak_btc_defensive</title></rect>
<rect x="967.9336632243259" y="707.5" width="7.988095238095239" height="4.4898452751850755" fill="#7c3aed" opacity="0.85"><title>2025-11-25 | ETH sell 86.21 usd | reason=both_weak_btc_defensive</title></rect>
<rect x="982.6324584050489" y="707.5" width="7.988095238095239" height="1.8239104307084517" fill="#7c3aed" opacity="0.85"><title>2025-12-02 | ETH sell 35.02 usd | reason=both_weak_btc_defensive</title></rect>
<rect x="997.3312535857716" y="707.5" width="7.988095238095239" height="6.930424439603826" fill="#7c3aed" opacity="0.85"><title>2025-12-09 | ETH sell 133.06 usd | reason=both_weak_btc_defensive</title></rect>
<rect x="1012.0300487664946" y="706.7886561380107" width="7.988095238095239" height="1.5" fill="#2563eb" opacity="0.85"><title>2025-12-16 | ETH buy 13.66 usd | reason=both_weak_btc_defensive</title></rect>
<rect x="1026.7288439472175" y="707.2687066908119" width="7.988095238095239" height="1.5" fill="#2563eb" opacity="0.85"><title>2025-12-23 | ETH buy 4.44 usd | reason=both_weak_btc_defensive</title></rect>
<rect x="1041.4276391279402" y="707.1002940522684" width="7.988095238095239" height="1.5" fill="#2563eb" opacity="0.85"><title>2025-12-30 | ETH buy 7.67 usd | reason=both_weak_btc_defensive</title></rect>
<rect x="1056.1264343086632" y="707.5" width="7.988095238095239" height="3.841609843485571" fill="#7c3aed" opacity="0.85"><title>2026-01-06 | ETH sell 73.76 usd | reason=both_weak_btc_defensive</title></rect>
<rect x="1070.825229489386" y="707.5" width="7.988095238095239" height="2.136144902167871" fill="#7c3aed" opacity="0.85"><title>2026-01-13 | ETH sell 41.01 usd | reason=both_weak_btc_defensive</title></rect>
<rect x="1085.524024670109" y="704.424011066426" width="7.988095238095239" height="3.075988933573967" fill="#2563eb" opacity="0.85"><title>2026-01-20 | ETH buy 59.06 usd | reason=both_weak_btc_defensive</title></rect>
<rect x="1100.222819850832" y="706.9585857003631" width="7.988095238095239" height="1.5" fill="#2563eb" opacity="0.85"><title>2026-01-27 | ETH buy 10.40 usd | reason=both_weak_btc_defensive</title></rect>
<rect x="1114.9216150315547" y="697.5751681801047" width="7.988095238095239" height="9.924831819895303" fill="#2563eb" opacity="0.85"><title>2026-02-03 | ETH buy 190.56 usd | reason=both_weak_btc_defensive</title></rect>
<rect x="1129.6204102122776" y="700.1552632719481" width="7.988095238095239" height="7.344736728051885" fill="#2563eb" opacity="0.85"><title>2026-02-10 | ETH buy 141.02 usd | reason=both_weak_btc_defensive</title></rect>
<rect x="1144.3192053930004" y="702.9996455388223" width="7.988095238095239" height="4.5003544611777215" fill="#2563eb" opacity="0.85"><title>2026-02-17 | ETH buy 86.41 usd | reason=both_weak_btc_defensive</title></rect>
<rect x="1159.0180005737234" y="703.1875260990438" width="7.988095238095239" height="4.312473900956206" fill="#2563eb" opacity="0.85"><title>2026-02-24 | ETH buy 82.80 usd | reason=both_weak_btc_defensive</title></rect>
<rect x="1173.7167957544461" y="706.0402640849318" width="7.988095238095239" height="1.5" fill="#2563eb" opacity="0.85"><title>2026-03-03 | ETH buy 28.03 usd | reason=both_weak_btc_defensive</title></rect>
<rect x="1188.4155909351691" y="707.1583262213366" width="7.988095238095239" height="1.5" fill="#2563eb" opacity="0.85"><title>2026-03-10 | ETH buy 6.56 usd | reason=both_weak_btc_defensive</title></rect>
<rect x="1203.114386115892" y="707.5" width="7.988095238095239" height="4.55996023273201" fill="#7c3aed" opacity="0.85"><title>2026-03-17 | ETH sell 87.55 usd | reason=both_weak_btc_defensive</title></rect>
<rect x="1217.8131812966149" y="707.5" width="7.988095238095239" height="1.5" fill="#7c3aed" opacity="0.85"><title>2026-03-24 | ETH sell 10.69 usd | reason=both_weak_btc_defensive</title></rect>
<rect x="1232.5119764773378" y="707.5" width="7.988095238095239" height="1.5" fill="#7c3aed" opacity="0.85"><title>2026-03-31 | ETH sell 3.42 usd | reason=both_weak_btc_defensive</title></rect>
<rect x="1247.2107716580606" y="707.5" width="7.988095238095239" height="1.5374577255182658" fill="#7c3aed" opacity="0.85"><title>2026-04-07 | ETH sell 29.52 usd | reason=both_weak_btc_defensive</title></rect>
<rect x="1261.9095668387836" y="707.5" width="7.988095238095239" height="1.7911419288093384" fill="#7c3aed" opacity="0.85"><title>2026-04-14 | ETH sell 34.39 usd | reason=both_weak_btc_defensive</title></rect>
<rect x="1276.6083620195066" y="707.5" width="7.988095238095239" height="1.5" fill="#7c3aed" opacity="0.85"><title>2026-04-21 | ETH sell 4.22 usd | reason=both_weak_btc_defensive</title></rect>
<rect x="1291.3071572002293" y="706.7934187350378" width="7.988095238095239" height="1.5" fill="#2563eb" opacity="0.85"><title>2026-04-28 | ETH buy 13.57 usd | reason=both_weak_btc_defensive</title></rect>
<rect x="1306.0059523809523" y="706.6631875044873" width="7.988095238095239" height="1.5" fill="#2563eb" opacity="0.85"><title>2026-05-05 | ETH buy 16.07 usd | reason=both_weak_btc_defensive</title></rect>
<text x="24" y="707.5" transform="rotate(-90 24,707.5)" text-anchor="middle" font-family="monospace" font-size="14" fill="#0f172a">ETH weekly trade usd</text>
<rect x="1040" y="478" width="14" height="10" fill="#ea580c" opacity="0.85"/>
<text x="1062" y="488" font-family="monospace" font-size="11" fill="#0f172a">BTC buy</text>
<rect x="1190" y="478" width="14" height="10" fill="#dc2626" opacity="0.85"/>
<text x="1212" y="488" font-family="monospace" font-size="11" fill="#0f172a">BTC sell</text>
<rect x="1040" y="498" width="14" height="10" fill="#2563eb" opacity="0.85"/>
<text x="1062" y="508" font-family="monospace" font-size="11" fill="#0f172a">ETH buy</text>
<rect x="1190" y="498" width="14" height="10" fill="#7c3aed" opacity="0.85"/>
<text x="1212" y="508" font-family="monospace" font-size="11" fill="#0f172a">ETH sell</text>
</svg>