<svg xmlns="http://www.w3.org/2000/svg" width="1400" height="800">
<rect width="1400" height="800" fill="#f8fafc"/>
<text x="700.0" y="42" text-anchor="middle" font-family="monospace" font-size="24" fill="#0f172a">budgeted_btc_defensive_eth_aggressive | weekly | start=2024-04-01 | return=12.25%</text>
<line x1="90" y1="420" x2="1310" y2="420" stroke="#334155" stroke-width="2"/>
<line x1="90" y1="90" x2="90" y2="420" stroke="#334155" stroke-width="2"/>
<line x1="90.0" y1="420" x2="90.0" y2="90" stroke="#94a3b8" stroke-width="1.2"/>
<line x1="90.0" y1="605" x2="90.0" y2="480" stroke="#94a3b8" stroke-width="1.2"/>
<line x1="90.0" y1="770" x2="90.0" y2="645" stroke="#94a3b8" stroke-width="1.2"/>
<text x="90.0" y="788" text-anchor="middle" font-family="monospace" font-size="11" fill="#334155">2024-04</text>
<line x1="145.96330275229357" y1="420" x2="145.96330275229357" y2="90" stroke="#94a3b8" stroke-width="1.2"/>
<line x1="145.96330275229357" y1="605" x2="145.96330275229357" y2="480" stroke="#94a3b8" stroke-width="1.2"/>
<line x1="145.96330275229357" y1="770" x2="145.96330275229357" y2="645" stroke="#94a3b8" stroke-width="1.2"/>
<text x="145.96330275229357" y="788" text-anchor="middle" font-family="monospace" font-size="11" fill="#334155">2024-05</text>
<line x1="190.73394495412845" y1="420" x2="190.73394495412845" y2="90" stroke="#94a3b8" stroke-width="1.2"/>
<line x1="190.73394495412845" y1="605" x2="190.73394495412845" y2="480" stroke="#94a3b8" stroke-width="1.2"/>
<line x1="190.73394495412845" y1="770" x2="190.73394495412845" y2="645" stroke="#94a3b8" stroke-width="1.2"/>
<text x="190.73394495412845" y="788" text-anchor="middle" font-family="monospace" font-size="11" fill="#334155">2024-06</text>
<line x1="235.50458715596332" y1="420" x2="235.50458715596332" y2="90" stroke="#94a3b8" stroke-width="1.2"/>
<line x1="235.50458715596332" y1="605" x2="235.50458715596332" y2="480" stroke="#94a3b8" stroke-width="1.2"/>
<line x1="235.50458715596332" y1="770" x2="235.50458715596332" y2="645" stroke="#94a3b8" stroke-width="1.2"/>
<text x="235.50458715596332" y="788" text-anchor="middle" font-family="monospace" font-size="11" fill="#334155">2024-07</text>
<line x1="291.4678899082569" y1="420" x2="291.4678899082569" y2="90" stroke="#94a3b8" stroke-width="1.2"/>
<line x1="291.4678899082569" y1="605" x2="291.4678899082569" y2="480" stroke="#94a3b8" stroke-width="1.2"/>
<line x1="291.4678899082569" y1="770" x2="291.4678899082569" y2="645" stroke="#94a3b8" stroke-width="1.2"/>
<text x="291.4678899082569" y="788" text-anchor="middle" font-family="monospace" font-size="11" fill="#334155">2024-08</text>
<line x1="336.2385321100918" y1="420" x2="336.2385321100918" y2="90" stroke="#94a3b8" stroke-width="1.2"/>
<line x1="336.2385321100918" y1="605" x2="336.2385321100918" y2="480" stroke="#94a3b8" stroke-width="1.2"/>
<line x1="336.2385321100918" y1="770" x2="336.2385321100918" y2="645" stroke="#94a3b8" stroke-width="1.2"/>
<text x="336.2385321100918" y="788" text-anchor="middle" font-family="monospace" font-size="11" fill="#334155">2024-09</text>
<line x1="392.20183486238534" y1="420" x2="392.20183486238534" y2="90" stroke="#94a3b8" stroke-width="1.2"/>
<line x1="392.20183486238534" y1="605" x2="392.20183486238534" y2="480" stroke="#94a3b8" stroke-width="1.2"/>
<line x1="392.20183486238534" y1="770" x2="392.20183486238534" y2="645" stroke="#94a3b8" stroke-width="1.2"/>
<text x="392.20183486238534" y="788" text-anchor="middle" font-family="monospace" font-size="11" fill="#334155">2024-10</text>
<line x1="436.9724770642202" y1="420" x2="436.9724770642202" y2="90" stroke="#94a3b8" stroke-width="1.2"/>
<line x1="436.9724770642202" y1="605" x2="436.9724770642202" y2="480" stroke="#94a3b8" stroke-width="1.2"/>
<line x1="436.9724770642202" y1="770" x2="436.9724770642202" y2="645" stroke="#94a3b8" stroke-width="1.2"/>
<text x="436.9724770642202" y="788" text-anchor="middle" font-family="monospace" font-size="11" fill="#334155">2024-11</text>
<line x1="481.7431192660551" y1="420" x2="481.7431192660551" y2="90" stroke="#94a3b8" stroke-width="1.2"/>
<line x1="481.7431192660551" y1="605" x2="481.7431192660551" y2="480" stroke="#94a3b8" stroke-width="1.2"/>
<line x1="481.7431192660551" y1="770" x2="481.7431192660551" y2="645" stroke="#94a3b8" stroke-width="1.2"/>
<text x="481.7431192660551" y="788" text-anchor="middle" font-family="monospace" font-size="11" fill="#334155">2024-12</text>
<line x1="537.7064220183486" y1="420" x2="537.7064220183486" y2="90" stroke="#94a3b8" stroke-width="1.2"/>
<line x1="537.7064220183486" y1="605" x2="537.7064220183486" y2="480" stroke="#94a3b8" stroke-width="1.2"/>
<line x1="537.7064220183486" y1="770" x2="537.7064220183486" y2="645" stroke="#94a3b8" stroke-width="1.2"/>
<text x="537.7064220183486" y="788" text-anchor="middle" font-family="monospace" font-size="11" fill="#334155">2025-01</text>
<line x1="582.4770642201836" y1="420" x2="582.4770642201836" y2="90" stroke="#94a3b8" stroke-width="1.2"/>
<line x1="582.4770642201836" y1="605" x2="582.4770642201836" y2="480" stroke="#94a3b8" stroke-width="1.2"/>
<line x1="582.4770642201836" y1="770" x2="582.4770642201836" y2="645" stroke="#94a3b8" stroke-width="1.2"/>
<text x="582.4770642201836" y="788" text-anchor="middle" font-family="monospace" font-size="11" fill="#334155">2025-02</text>
<line x1="627.2477064220184" y1="420" x2="627.2477064220184" y2="90" stroke="#94a3b8" stroke-width="1.2"/>
<line x1="627.2477064220184" y1="605" x2="627.2477064220184" y2="480" stroke="#94a3b8" stroke-width="1.2"/>
<line x1="627.2477064220184" y1="770" x2="627.2477064220184" y2="645" stroke="#94a3b8" stroke-width="1.2"/>
<text x="627.2477064220184" y="788" text-anchor="middle" font-family="monospace" font-size="11" fill="#334155">2025-03</text>
<line x1="683.2110091743119" y1="420" x2="683.2110091743119" y2="90" stroke="#94a3b8" stroke-width="1.2"/>
<line x1="683.2110091743119" y1="605" x2="683.2110091743119" y2="480" stroke="#94a3b8" stroke-width="1.2"/>
<line x1="683.2110091743119" y1="770" x2="683.2110091743119" y2="645" stroke="#94a3b8" stroke-width="1.2"/>
<text x="683.2110091743119" y="788" text-anchor="middle" font-family="monospace" font-size="11" fill="#334155">2025-04</text>
<line x1="727.9816513761467" y1="420" x2="727.9816513761467" y2="90" stroke="#94a3b8" stroke-width="1.2"/>
<line x1="727.9816513761467" y1="605" x2="727.9816513761467" y2="480" stroke="#94a3b8" stroke-width="1.2"/>
<line x1="727.9816513761467" y1="770" x2="727.9816513761467" y2="645" stroke="#94a3b8" stroke-width="1.2"/>
<text x="727.9816513761467" y="788" text-anchor="middle" font-family="monospace" font-size="11" fill="#334155">2025-05</text>
<line x1="772.7522935779816" y1="420" x2="772.7522935779816" y2="90" stroke="#94a3b8" stroke-width="1.2"/>
<line x1="772.7522935779816" y1="605" x2="772.7522935779816" y2="480" stroke="#94a3b8" stroke-width="1.2"/>
<line x1="772.7522935779816" y1="770" x2="772.7522935779816" y2="645" stroke="#94a3b8" stroke-width="1.2"/>
<text x="772.7522935779816" y="788" text-anchor="middle" font-family="monospace" font-size="11" fill="#334155">2025-06</text>
<line x1="828.7155963302753" y1="420" x2="828.7155963302753" y2="90" stroke="#94a3b8" stroke-width="1.2"/>
<line x1="828.7155963302753" y1="605" x2="828.7155963302753" y2="480" stroke="#94a3b8" stroke-width="1.2"/>
<line x1="828.7155963302753" y1="770" x2="828.7155963302753" y2="645" stroke="#94a3b8" stroke-width="1.2"/>
<text x="828.7155963302753" y="788" text-anchor="middle" font-family="monospace" font-size="11" fill="#334155">2025-07</text>
<line x1="873.4862385321102" y1="420" x2="873.4862385321102" y2="90" stroke="#94a3b8" stroke-width="1.2"/>
<line x1="873.4862385321102" y1="605" x2="873.4862385321102" y2="480" stroke="#94a3b8" stroke-width="1.2"/>
<line x1="873.4862385321102" y1="770" x2="873.4862385321102" y2="645" stroke="#94a3b8" stroke-width="1.2"/>
<text x="873.4862385321102" y="788" text-anchor="middle" font-family="monospace" font-size="11" fill="#334155">2025-08</text>
<line x1="918.256880733945" y1="420" x2="918.256880733945" y2="90" stroke="#94a3b8" stroke-width="1.2"/>
<line x1="918.256880733945" y1="605" x2="918.256880733945" y2="480" stroke="#94a3b8" stroke-width="1.2"/>
<line x1="918.256880733945" y1="770" x2="918.256880733945" y2="645" stroke="#94a3b8" stroke-width="1.2"/>
<text x="918.256880733945" y="788" text-anchor="middle" font-family="monospace" font-size="11" fill="#334155">2025-09</text>
<line x1="974.2201834862385" y1="420" x2="974.2201834862385" y2="90" stroke="#94a3b8" stroke-width="1.2"/>
<line x1="974.2201834862385" y1="605" x2="974.2201834862385" y2="480" stroke="#94a3b8" stroke-width="1.2"/>
<line x1="974.2201834862385" y1="770" x2="974.2201834862385" y2="645" stroke="#94a3b8" stroke-width="1.2"/>
<text x="974.2201834862385" y="788" text-anchor="middle" font-family="monospace" font-size="11" fill="#334155">2025-10</text>
<line x1="1018.9908256880734" y1="420" x2="1018.9908256880734" y2="90" stroke="#94a3b8" stroke-width="1.2"/>
<line x1="1018.9908256880734" y1="605" x2="1018.9908256880734" y2="480" stroke="#94a3b8" stroke-width="1.2"/>
<line x1="1018.9908256880734" y1="770" x2="1018.9908256880734" y2="645" stroke="#94a3b8" stroke-width="1.2"/>
<text x="1018.9908256880734" y="788" text-anchor="middle" font-family="monospace" font-size="11" fill="#334155">2025-11</text>
<line x1="1063.761467889908" y1="420" x2="1063.761467889908" y2="90" stroke="#94a3b8" stroke-width="1.2"/>
<line x1="1063.761467889908" y1="605" x2="1063.761467889908" y2="480" stroke="#94a3b8" stroke-width="1.2"/>
<line x1="1063.761467889908" y1="770" x2="1063.761467889908" y2="645" stroke="#94a3b8" stroke-width="1.2"/>
<text x="1063.761467889908" y="788" text-anchor="middle" font-family="monospace" font-size="11" fill="#334155">2025-12</text>
<line x1="1119.724770642202" y1="420" x2="1119.724770642202" y2="90" stroke="#94a3b8" stroke-width="1.2"/>
<line x1="1119.724770642202" y1="605" x2="1119.724770642202" y2="480" stroke="#94a3b8" stroke-width="1.2"/>
<line x1="1119.724770642202" y1="770" x2="1119.724770642202" y2="645" stroke="#94a3b8" stroke-width="1.2"/>
<text x="1119.724770642202" y="788" text-anchor="middle" font-family="monospace" font-size="11" fill="#334155">2026-01</text>
<line x1="1164.4954128440368" y1="420" x2="1164.4954128440368" y2="90" stroke="#94a3b8" stroke-width="1.2"/>
<line x1="1164.4954128440368" y1="605" x2="1164.4954128440368" y2="480" stroke="#94a3b8" stroke-width="1.2"/>
<line x1="1164.4954128440368" y1="770" x2="1164.4954128440368" y2="645" stroke="#94a3b8" stroke-width="1.2"/>
<text x="1164.4954128440368" y="788" text-anchor="middle" font-family="monospace" font-size="11" fill="#334155">2026-02</text>
<line x1="1209.2660550458716" y1="420" x2="1209.2660550458716" y2="90" stroke="#94a3b8" stroke-width="1.2"/>
<line x1="1209.2660550458716" y1="605" x2="1209.2660550458716" y2="480" stroke="#94a3b8" stroke-width="1.2"/>
<line x1="1209.2660550458716" y1="770" x2="1209.2660550458716" y2="645" stroke="#94a3b8" stroke-width="1.2"/>
<text x="1209.2660550458716" y="788" text-anchor="middle" font-family="monospace" font-size="11" fill="#334155">2026-03</text>
<line x1="1265.2293577981652" y1="420" x2="1265.2293577981652" y2="90" stroke="#94a3b8" stroke-width="1.2"/>
<line x1="1265.2293577981652" y1="605" x2="1265.2293577981652" y2="480" stroke="#94a3b8" stroke-width="1.2"/>
<line x1="1265.2293577981652" y1="770" x2="1265.2293577981652" y2="645" stroke="#94a3b8" stroke-width="1.2"/>
<text x="1265.2293577981652" y="788" text-anchor="middle" font-family="monospace" font-size="11" fill="#334155">2026-04</text>
<line x1="1310.0" y1="420" x2="1310.0" y2="90" stroke="#94a3b8" stroke-width="1.2"/>
<line x1="1310.0" y1="605" x2="1310.0" y2="480" stroke="#94a3b8" stroke-width="1.2"/>
<line x1="1310.0" y1="770" x2="1310.0" y2="645" stroke="#94a3b8" stroke-width="1.2"/>
<text x="1310.0" y="788" text-anchor="middle" font-family="monospace" font-size="11" fill="#334155">2026-05</text>
<line x1="90" y1="420.0" x2="1310" y2="420.0" stroke="#cbd5e1" stroke-width="1"/>
<text x="78" y="424.0" text-anchor="end" font-family="monospace" font-size="12" fill="#475569">0</text>
<line x1="90" y1="354.0" x2="1310" y2="354.0" stroke="#cbd5e1" stroke-width="1"/>
<text x="78" y="358.0" text-anchor="end" font-family="monospace" font-size="12" fill="#475569">3689</text>
<line x1="90" y1="288.0" x2="1310" y2="288.0" stroke="#cbd5e1" stroke-width="1"/>
<text x="78" y="292.0" text-anchor="end" font-family="monospace" font-size="12" fill="#475569">7377</text>
<line x1="90" y1="222.0" x2="1310" y2="222.0" stroke="#cbd5e1" stroke-width="1"/>
<text x="78" y="226.0" text-anchor="end" font-family="monospace" font-size="12" fill="#475569">11066</text>
<line x1="90" y1="156.0" x2="1310" y2="156.0" stroke="#cbd5e1" stroke-width="1"/>
<text x="78" y="160.0" text-anchor="end" font-family="monospace" font-size="12" fill="#475569">14754</text>
<line x1="90" y1="90.0" x2="1310" y2="90.0" stroke="#cbd5e1" stroke-width="1"/>
<text x="78" y="94.0" text-anchor="end" font-family="monospace" font-size="12" fill="#475569">18443</text>
<polygon points="90.0,245.09367393925584 101.19266055045871,249.1196507539533 112.38532110091744,253.1456275686507 123.57798165137615,257.17160438334815 134.77064220183487,261.19758119804555 145.96330275229357,265.223558012743 157.1559633027523,269.24953482744047 168.348623853211,273.2755116421379 179.54128440366975,277.30148845683533 190.73394495412845,281.3274652715328 201.92660550458714,285.3534420862302 213.1192660550459,289.3794189009276 224.3119266055046,295.1947187443795 235.50458715596332,299.22069555907694 246.69724770642202,307.2726491884718 257.88990825688074,311.2986260031692 269.0825688073395,315.32460281786666 280.27522935779814,319.35057963256406 291.4678899082569,327.402533261959 302.66055045871565,335.45448689135384 313.8532110091743,343.5064405207487 325.04587155963304,351.5583941501436 336.2385321100918,359.6103477795385 347.4311926605505,367.66230140893333 358.6238532110092,372.5097964323106 369.8165137614679,374.129799131561 381.00917431192664,375.1949843522067 392.20183486238534,376.3211076421327 403.39449541284404,380.3470844568301 414.5871559633028,384.37306127152755 425.7798165137615,387.8015283607673 436.9724770642202,390.24988025863667 448.16513761467894,390.24988025863667 459.35779816513764,390.5970873344886 470.55045871559633,390.5970873344886 481.7431192660551,390.0756234975005 492.9357798165138,389.5537623622282 504.1284403669725,388.86062695203606 515.3211009174313,388.9565957400496 526.5137614678899,389.0176227897359 537.7064220183486,388.50945601093787 548.8990825688074,390.32883448508386 560.0917431192661,391.86390621660956 571.2844036697247,393.397103446806 582.4770642201836,396.1477400565156 593.6697247706422,398.586962193579 604.862385321101,399.18347579399835 616.0550458715596,400.4150802475872 627.2477064220184,402.83658434850776 638.4403669724771,402.83658434850776 649.6330275229358,402.83658434850776 660.8256880733945,405.0216188844904 672.0183486238533,405.0216188844904 683.2110091743119,406.3486190950074 694.4036697247707,407.38737098629923 705.5963302752293,408.8499197620701 716.7889908256881,411.9929658746247 727.9816513761467,413.64851975216675 739.1743119266056,413.64851975216675 750.3669724770642,413.64851975216675 761.559633027523,413.64851975216675 772.7522935779816,413.64851975216675 783.9449541284404,417.67449656686415 795.137614678899,417.67449656686415 806.3302752293579,417.67449656686415 817.5229357798165,417.67449656686415 828.7155963302753,417.67449656686415 839.9082568807339,419.52752245121883 851.1009174311927,416.0861287501938 862.2935779816513,412.8947329138144 873.4862385321102,410.03813041143246 884.6788990825688,407.14196903981264 895.8715596330276,404.47536621927185 907.0642201834862,402.0873554028624 918.256880733945,399.92902676041103 929.4495412844036,397.9059308768504 940.6422018348625,395.9081537522761 951.8348623853211,394.2380699625678 963.0275229357799,392.6725064724415 974.2201834862385,390.89870595464623 985.4128440366973,389.5746919109722 996.6055045871559,389.5746919109722 1007.7981651376148,388.42239470763406 1018.9908256880734,388.42239470763406 1030.1834862385322,388.42239470763406 1041.3761467889908,388.485627997771 1052.5688073394494,389.0576333977425 1063.761467889908,389.0576333977425 1074.9541284403672,389.8050331983801 1086.1467889908258,390.4009648042439 1097.3394495412845,390.45793088477524 1108.532110091743,390.45793088477524 1119.724770642202,390.45793088477524 1130.9174311926606,390.45793088477524 1142.1100917431193,390.5121157425366 1153.302752293578,390.5121157425366 1164.4954128440368,390.5121157425366 1175.6880733944954,390.5121157425366 1186.8807339449543,390.5121157425366 1198.073394495413,390.5121157425366 1209.2660550458716,390.5121157425366 1220.4587155963302,390.5121157425366 1231.651376146789,390.5121157425366 1242.8440366972477,390.5121157425366 1254.0366972477066,390.5121157425366 1265.2293577981652,390.5121157425366 1276.4220183486239,390.5121157425366 1287.6146788990825,390.5121157425366 1298.8073394495414,390.5121157425366 1310.0,390.5121157425366 1310.0,420.0 1298.8073394495414,420.0 1287.6146788990825,420.0 1276.4220183486239,420.0 1265.2293577981652,420.0 1254.0366972477066,420.0 1242.8440366972477,420.0 1231.651376146789,420.0 1220.4587155963302,420.0 1209.2660550458716,420.0 1198.073394495413,420.0 1186.8807339449543,420.0 1175.6880733944954,420.0 1164.4954128440368,420.0 1153.302752293578,420.0 1142.1100917431193,420.0 1130.9174311926606,420.0 1119.724770642202,420.0 1108.532110091743,420.0 1097.3394495412845,420.0 1086.1467889908258,420.0 1074.9541284403672,420.0 1063.761467889908,420.0 1052.5688073394494,420.0 1041.3761467889908,420.0 1030.1834862385322,420.0 1018.9908256880734,420.0 1007.7981651376148,420.0 996.6055045871559,420.0 985.4128440366973,420.0 974.2201834862385,420.0 963.0275229357799,420.0 951.8348623853211,420.0 940.6422018348625,420.0 929.4495412844036,420.0 918.256880733945,420.0 907.0642201834862,420.0 895.8715596330276,420.0 884.6788990825688,420.0 873.4862385321102,420.0 862.2935779816513,420.0 851.1009174311927,420.0 839.9082568807339,420.0 828.7155963302753,420.0 817.5229357798165,420.0 806.3302752293579,420.0 795.137614678899,420.0 783.9449541284404,420.0 772.7522935779816,420.0 761.559633027523,420.0 750.3669724770642,420.0 739.1743119266056,420.0 727.9816513761467,420.0 716.7889908256881,420.0 705.5963302752293,420.0 694.4036697247707,420.0 683.2110091743119,420.0 672.0183486238533,420.0 660.8256880733945,420.0 649.6330275229358,420.0 638.4403669724771,420.0 627.2477064220184,420.0 616.0550458715596,420.0 604.862385321101,420.0 593.6697247706422,420.0 582.4770642201836,420.0 571.2844036697247,420.0 560.0917431192661,420.0 548.8990825688074,420.0 537.7064220183486,420.0 526.5137614678899,420.0 515.3211009174313,420.0 504.1284403669725,420.0 492.9357798165138,420.0 481.7431192660551,420.0 470.55045871559633,420.0 459.35779816513764,420.0 448.16513761467894,420.0 436.9724770642202,420.0 425.7798165137615,420.0 414.5871559633028,420.0 403.39449541284404,420.0 392.20183486238534,420.0 381.00917431192664,420.0 369.8165137614679,420.0 358.6238532110092,420.0 347.4311926605505,420.0 336.2385321100918,420.0 325.04587155963304,420.0 313.8532110091743,420.0 302.66055045871565,420.0 291.4678899082569,420.0 280.27522935779814,420.0 269.0825688073395,420.0 257.88990825688074,420.0 246.69724770642202,420.0 235.50458715596332,420.0 224.3119266055046,420.0 213.1192660550459,420.0 201.92660550458714,420.0 190.73394495412845,420.0 179.54128440366975,420.0 168.348623853211,420.0 157.1559633027523,420.0 145.96330275229357,420.0 134.77064220183487,420.0 123.57798165137615,420.0 112.38532110091744,420.0 101.19266055045871,420.0 90.0,420.0" fill="#facc15" fill-opacity="0.70" stroke="#facc15" stroke-width="1.2"/>
<polygon points="90.0,243.0806855319071 101.19266055045871,245.38791814229643 112.38532110091744,248.40088487143805 123.57798165137615,250.66612258638335 134.77064220183487,253.05311792945355 145.96330275229357,255.8558251976644 157.1559633027523,258.61544956232535 168.348623853211,258.46710590040436 179.54128440366975,259.55313321072083 190.73394495412845,262.53724582273384 201.92660550458714,265.0503135418762 213.1192660550459,267.9290147758926 224.3119266055046,270.93593480486237 235.50458715596332,272.3117897561101 246.69724770642202,280.43055958769366 257.88990825688074,278.2872427491876 269.0825688073395,280.72420555267865 280.27522935779814,283.9794941204743 291.4678899082569,298.37622838451136 302.66055045871565,299.5781080799816 313.8532110091743,305.5403809263501 325.04587155963304,309.74357232188987 336.2385321100918,316.80464371824644 347.4311926605505,324.5182170073289 358.6238532110092,328.0299820415944 369.8165137614679,322.5033822917998 381.00917431192664,324.01158352875666 392.20183486238534,327.57620893757627 403.39449541284404,325.82397816959883 414.5871559633028,327.48023053915426 425.7798165137615,330.4120150220533 436.9724770642202,334.43607382102795 448.16513761467894,311.6453197680439 459.35779816513764,315.5238786909945 470.55045871559633,310.7163730717535 481.7431192660551,305.1581379352619 492.9357798165138,303.3666183253474 504.1284403669725,296.7641399869141 515.3211009174313,309.9166897403742 526.5137614678899,311.36100197304586 537.7064220183486,303.44069268747734 548.8990825688074,316.18599399316537 560.0917431192661,312.7739972520766 571.2844036697247,315.1480928915528 582.4770642201836,322.4840375348157 593.6697247706422,328.14876660251076 604.862385321101,325.9728027787878 616.0550458715596,332.1290517486722 627.2477064220184,342.0681350221809 638.4403669724771,350.08776046330365 649.6330275229358,348.32882493731586 660.8256880733945,343.9331839365608 672.0183486238533,351.5512635227163 683.2110091743119,359.45693962624273 694.4036697247707,357.3008718981956 705.5963302752293,358.67267382269137 716.7889908256881,351.6614238139672 727.9816513761467,350.9948565561342 739.1743119266056,327.73642887253925 750.3669724770642,326.60462520477256 761.559633027523,325.37884878721866 772.7522935779816,323.8308800846801 783.9449541284404,321.35247789249024 795.137614678899,326.2388277390523 806.3302752293579,330.9904634853011 817.5229357798165,328.3626404351907 828.7155963302753,326.3426474056937 839.9082568807339,309.381244082254 851.1009174311927,280.28520358626577 862.2935779816513,277.40104308751046 873.4862385321102,278.7753635466281 884.6788990825688,259.561211479452 895.8715596330276,255.05269914270994 907.0642201834862,251.7240198999858 918.256880733945,252.7836672059423 929.4495412844036,252.0763161620719 940.6422018348625,243.66984781734598 951.8348623853211,253.6738815174399 963.0275229357799,252.3950601298277 974.2201834862385,235.9055890591617 985.4128440366973,249.84984243237938 996.6055045871559,258.548966743391 1007.7981651376148,253.37489297517973 1018.9908256880734,270.32818751804524 1030.1834862385322,271.5209689039446 1041.3761467889908,289.23828448167166 1052.5688073394494,292.2784525185825 1063.761467889908,297.3357275949885 1074.9541284403672,287.37693931988235 1086.1467889908258,293.234679001548 1097.3394495412845,291.87269739877115 1108.532110091743,294.2818601320387 1119.724770642202,284.7435423717551 1130.9174311926606,289.11117412968565 1142.1100917431193,286.03279187971395 1153.302752293578,294.5766334858841 1164.4954128440368,313.644746798143 1175.6880733944954,321.55335610811284 1186.8807339449543,325.04582262824414 1198.073394495413,329.6923928196455 1209.2660550458716,324.0556075782848 1220.4587155963302,325.17988352047627 1231.651376146789,313.3880972171704 1242.8440366972477,319.98395867044144 1254.0366972477066,324.1503352014024 1265.2293577981652,321.4366674097396 1276.4220183486239,312.81973147846486 1287.6146788990825,314.63856739777117 1298.8073394495414,315.01059456814653 1310.0,313.58443578550066 1310.0,390.5121157425366 1298.8073394495414,390.5121157425366 1287.6146788990825,390.5121157425366 1276.4220183486239,390.5121157425366 1265.2293577981652,390.5121157425366 1254.0366972477066,390.5121157425366 1242.8440366972477,390.5121157425366 1231.651376146789,390.5121157425366 1220.4587155963302,390.5121157425366 1209.2660550458716,390.5121157425366 1198.073394495413,390.5121157425366 1186.8807339449543,390.5121157425366 1175.6880733944954,390.5121157425366 1164.4954128440368,390.5121157425366 1153.302752293578,390.5121157425366 1142.1100917431193,390.5121157425366 1130.9174311926606,390.45793088477524 1119.724770642202,390.45793088477524 1108.532110091743,390.45793088477524 1097.3394495412845,390.45793088477524 1086.1467889908258,390.4009648042439 1074.9541284403672,389.8050331983801 1063.761467889908,389.0576333977425 1052.5688073394494,389.0576333977425 1041.3761467889908,388.485627997771 1030.1834862385322,388.42239470763406 1018.9908256880734,388.42239470763406 1007.7981651376148,388.42239470763406 996.6055045871559,389.5746919109722 985.4128440366973,389.5746919109722 974.2201834862385,390.89870595464623 963.0275229357799,392.6725064724415 951.8348623853211,394.2380699625678 940.6422018348625,395.9081537522761 929.4495412844036,397.9059308768504 918.256880733945,399.92902676041103 907.0642201834862,402.0873554028624 895.8715596330276,404.47536621927185 884.6788990825688,407.14196903981264 873.4862385321102,410.03813041143246 862.2935779816513,412.8947329138144 851.1009174311927,416.0861287501938 839.9082568807339,419.52752245121883 828.7155963302753,417.67449656686415 817.5229357798165,417.67449656686415 806.3302752293579,417.67449656686415 795.137614678899,417.67449656686415 783.9449541284404,417.67449656686415 772.7522935779816,413.64851975216675 761.559633027523,413.64851975216675 750.3669724770642,413.64851975216675 739.1743119266056,413.64851975216675 727.9816513761467,413.64851975216675 716.7889908256881,411.9929658746247 705.5963302752293,408.8499197620701 694.4036697247707,407.38737098629923 683.2110091743119,406.3486190950074 672.0183486238533,405.0216188844904 660.8256880733945,405.0216188844904 649.6330275229358,402.83658434850776 638.4403669724771,402.83658434850776 627.2477064220184,402.83658434850776 616.0550458715596,400.4150802475872 604.862385321101,399.18347579399835 593.6697247706422,398.586962193579 582.4770642201836,396.1477400565156 571.2844036697247,393.397103446806 560.0917431192661,391.86390621660956 548.8990825688074,390.32883448508386 537.7064220183486,388.50945601093787 526.5137614678899,389.0176227897359 515.3211009174313,388.9565957400496 504.1284403669725,388.86062695203606 492.9357798165138,389.5537623622282 481.7431192660551,390.0756234975005 470.55045871559633,390.5970873344886 459.35779816513764,390.5970873344886 448.16513761467894,390.24988025863667 436.9724770642202,390.24988025863667 425.7798165137615,387.8015283607673 414.5871559633028,384.37306127152755 403.39449541284404,380.3470844568301 392.20183486238534,376.3211076421327 381.00917431192664,375.1949843522067 369.8165137614679,374.129799131561 358.6238532110092,372.5097964323106 347.4311926605505,367.66230140893333 336.2385321100918,359.6103477795385 325.04587155963304,351.5583941501436 313.8532110091743,343.5064405207487 302.66055045871565,335.45448689135384 291.4678899082569,327.402533261959 280.27522935779814,319.35057963256406 269.0825688073395,315.32460281786666 257.88990825688074,311.2986260031692 246.69724770642202,307.2726491884718 235.50458715596332,299.22069555907694 224.3119266055046,295.1947187443795 213.1192660550459,289.3794189009276 201.92660550458714,285.3534420862302 190.73394495412845,281.3274652715328 179.54128440366975,277.30148845683533 168.348623853211,273.2755116421379 157.1559633027523,269.24953482744047 145.96330275229357,265.223558012743 134.77064220183487,261.19758119804555 123.57798165137615,257.17160438334815 112.38532110091744,253.1456275686507 101.19266055045871,249.1196507539533 90.0,245.09367393925584" fill="#2563eb" fill-opacity="0.70" stroke="#2563eb" stroke-width="1.2"/>
<polygon points="90.0,241.06769712455838 101.19266055045871,240.90327985887419 112.38532110091744,242.01224623065582 123.57798165137615,241.5188674366654 134.77064220183487,241.90267717603976 145.96330275229357,242.409015525849 157.1559633027523,242.80199155531233 168.348623853211,238.1022574423979 179.54128440366975,237.76357255971945 190.73394495412845,238.51356797810615 201.92660550458714,238.76683805841412 213.1192660550459,240.7731472668641 224.3119266055046,244.28491365416755 235.50458715596332,242.5124793347411 246.69724770642202,248.70776844818792 257.88990825688074,240.04324000064435 269.0825688073395,238.81297652812734 280.27522935779814,240.54336677827237 291.4678899082569,258.39806244671036 302.66055045871565,250.82515526432152 313.8532110091743,251.8791415661497 325.04587155963304,248.1937989208765 336.2385321100918,254.04789650123254 347.4311926605505,259.25886631918536 358.6238532110092,259.1241558695061 369.8165137614679,246.2392127217464 381.00917431192664,247.17104873270102 392.20183486238534,252.04117030808655 403.39449541284404,243.17930911150196 414.5871559633028,240.8181369371735 425.7798165137615,239.62819329751233 436.9724770642202,246.14938736960482 448.16513761467894,196.06406522836866 459.35779816513764,197.66464924331763 470.55045871559633,189.62851192650493 481.7431192660551,180.52526248091357 492.9357798165138,177.01572871064823 504.1284403669725,159.2637982321741 515.3211009174313,187.10629652442444 526.5137614678899,191.32893708464826 537.7064220183486,171.10358703173242 548.8990825688074,193.90615234371342 560.0917431192661,180.61024540640702 571.2844036697247,183.09174588074177 582.4770642201836,191.2068898933401 593.6697247706422,202.06756236275493 604.862385321101,202.0428134828246 616.0550458715596,213.7251906491229 627.2477064220184,230.58616035968333 638.4403669724771,248.4604672869953 649.6330275229358,239.6283003831847 660.8256880733945,230.68827425910695 672.0183486238533,244.7619006776915 683.2110091743119,257.0594007181995 694.4036697247707,247.8512435831956 705.5963302752293,245.4297696565498 716.7889908256881,228.68790814856072 727.9816513761467,228.4206058460423 739.1743119266056,194.72547141587458 750.3669724770642,189.95014536747027 761.559633027523,183.74534423948742 772.7522935779816,186.8027799592949 783.9449541284404,178.63621719544315 795.137614678899,187.98356171108577 806.3302752293579,194.59060595196007 817.5229357798165,189.69355332141743 828.7155963302753,186.25465456910425 839.9082568807339,154.2921948341251 851.1009174311927,130.06734125603725 862.2935779816513,127.95787196967535 873.4862385321102,134.5813442269344 884.6788990825688,112.24075510789868 895.8715596330276,112.06289188702118 907.0642201834862,117.50154009435698 918.256880733945,120.72164914813453 929.4495412844036,117.6021881060206 940.6422018348625,106.22477879781354 951.8348623853211,120.21404253947912 963.0275229357799,117.79017557326495 974.2201834862385,90.0 985.4128440366973,115.65686939147372 996.6055045871559,129.8343144078628 1007.7981651376148,121.13984579496986 1018.9908256880734,146.81988155654648 1030.1834862385322,148.68330164852233 1041.3761467889908,182.42388075795841 1052.5688073394494,189.33901930643586 1063.761467889908,196.7099248006415 1074.9541284403672,180.90552549243398 1086.1467889908258,191.14286620062504 1097.3394495412845,187.19663003557844 1108.532110091743,191.31498503778823 1119.724770642202,173.78704831774948 1130.9174311926606,181.32482813309065 1142.1100917431193,176.57103484791995 1153.302752293578,190.2115012817101 1164.4954128440368,220.6127324070294 1175.6880733944954,238.65021021469383 1186.8807339449543,243.61367501962403 1198.073394495413,253.2654544714474 1209.2660550458716,242.65434968008145 1220.4587155963302,244.25147944359847 1231.651376146789,224.8267889311554 1242.8440366972477,236.1675558868153 1254.0366972477066,245.22643917426592 1265.2293577981652,240.00986518745506 1276.4220183486239,224.7793263604152 1287.6146788990825,224.9202076655609 1298.8073394495414,223.51884378875008 1310.0,219.15041643675937 1310.0,313.58443578550066 1298.8073394495414,315.01059456814653 1287.6146788990825,314.63856739777117 1276.4220183486239,312.81973147846486 1265.2293577981652,321.4366674097396 1254.0366972477066,324.1503352014024 1242.8440366972477,319.98395867044144 1231.651376146789,313.3880972171704 1220.4587155963302,325.17988352047627 1209.2660550458716,324.0556075782848 1198.073394495413,329.6923928196455 1186.8807339449543,325.04582262824414 1175.6880733944954,321.55335610811284 1164.4954128440368,313.644746798143 1153.302752293578,294.5766334858841 1142.1100917431193,286.03279187971395 1130.9174311926606,289.11117412968565 1119.724770642202,284.7435423717551 1108.532110091743,294.2818601320387 1097.3394495412845,291.87269739877115 1086.1467889908258,293.234679001548 1074.9541284403672,287.37693931988235 1063.761467889908,297.3357275949885 1052.5688073394494,292.2784525185825 1041.3761467889908,289.23828448167166 1030.1834862385322,271.5209689039446 1018.9908256880734,270.32818751804524 1007.7981651376148,253.37489297517973 996.6055045871559,258.548966743391 985.4128440366973,249.84984243237938 974.2201834862385,235.9055890591617 963.0275229357799,252.3950601298277 951.8348623853211,253.6738815174399 940.6422018348625,243.66984781734598 929.4495412844036,252.0763161620719 918.256880733945,252.7836672059423 907.0642201834862,251.7240198999858 895.8715596330276,255.05269914270994 884.6788990825688,259.561211479452 873.4862385321102,278.7753635466281 862.2935779816513,277.40104308751046 851.1009174311927,280.28520358626577 839.9082568807339,309.381244082254 828.7155963302753,326.3426474056937 817.5229357798165,328.3626404351907 806.3302752293579,330.9904634853011 795.137614678899,326.2388277390523 783.9449541284404,321.35247789249024 772.7522935779816,323.8308800846801 761.559633027523,325.37884878721866 750.3669724770642,326.60462520477256 739.1743119266056,327.73642887253925 727.9816513761467,350.9948565561342 716.7889908256881,351.6614238139672 705.5963302752293,358.67267382269137 694.4036697247707,357.3008718981956 683.2110091743119,359.45693962624273 672.0183486238533,351.5512635227163 660.8256880733945,343.9331839365608 649.6330275229358,348.32882493731586 638.4403669724771,350.08776046330365 627.2477064220184,342.0681350221809 616.0550458715596,332.1290517486722 604.862385321101,325.9728027787878 593.6697247706422,328.14876660251076 582.4770642201836,322.4840375348157 571.2844036697247,315.1480928915528 560.0917431192661,312.7739972520766 548.8990825688074,316.18599399316537 537.7064220183486,303.44069268747734 526.5137614678899,311.36100197304586 515.3211009174313,309.9166897403742 504.1284403669725,296.7641399869141 492.9357798165138,303.3666183253474 481.7431192660551,305.1581379352619 470.55045871559633,310.7163730717535 459.35779816513764,315.5238786909945 448.16513761467894,311.6453197680439 436.9724770642202,334.43607382102795 425.7798165137615,330.4120150220533 414.5871559633028,327.48023053915426 403.39449541284404,325.82397816959883 392.20183486238534,327.57620893757627 381.00917431192664,324.01158352875666 369.8165137614679,322.5033822917998 358.6238532110092,328.0299820415944 347.4311926605505,324.5182170073289 336.2385321100918,316.80464371824644 325.04587155963304,309.74357232188987 313.8532110091743,305.5403809263501 302.66055045871565,299.5781080799816 291.4678899082569,298.37622838451136 280.27522935779814,283.9794941204743 269.0825688073395,280.72420555267865 257.88990825688074,278.2872427491876 246.69724770642202,280.43055958769366 235.50458715596332,272.3117897561101 224.3119266055046,270.93593480486237 213.1192660550459,267.9290147758926 201.92660550458714,265.0503135418762 190.73394495412845,262.53724582273384 179.54128440366975,259.55313321072083 168.348623853211,258.46710590040436 157.1559633027523,258.61544956232535 145.96330275229357,255.8558251976644 134.77064220183487,253.05311792945355 123.57798165137615,250.66612258638335 112.38532110091744,248.40088487143805 101.19266055045871,245.38791814229643 90.0,243.0806855319071" fill="#f97316" fill-opacity="0.70" stroke="#f97316" stroke-width="1.2"/>
<rect x="1100" y="76" width="16" height="12" fill="#f97316" fill-opacity="0.70" stroke="#f97316"/>
<text x="1124" y="86" font-family="monospace" font-size="12" fill="#0f172a">BTC</text>
<rect x="1100" y="98" width="16" height="12" fill="#2563eb" fill-opacity="0.70" stroke="#2563eb"/>
<text x="1124" y="108" font-family="monospace" font-size="12" fill="#0f172a">ETH</text>
<rect x="1100" y="120" width="16" height="12" fill="#facc15" fill-opacity="0.70" stroke="#facc15"/>
<text x="1124" y="130" font-family="monospace" font-size="12" fill="#0f172a">DAI</text>
<text x="700.0" y="782" text-anchor="middle" font-family="monospace" font-size="16" fill="#0f172a">time</text>
<text x="24" y="255.0" transform="rotate(-90 24,255.0)" text-anchor="middle" font-family="monospace" font-size="16" fill="#0f172a">asset value split (usd)</text>
<line x1="90" y1="605" x2="1310" y2="605" stroke="#334155" stroke-width="2"/>
<line x1="90" y1="480" x2="90" y2="605" stroke="#334155" stroke-width="2"/>
<line x1="90" y1="542.5" x2="1310" y2="542.5" stroke="#64748b" stroke-width="1.5" stroke-dasharray="6 4"/>
<line x1="90" y1="605.0" x2="1310" y2="605.0" stroke="#e2e8f0" stroke-width="1"/>
<text x="78" y="609.0" text-anchor="end" font-family="monospace" font-size="11" fill="#475569">-270</text>
<line x1="90" y1="542.5" x2="1310" y2="542.5" stroke="#e2e8f0" stroke-width="1"/>
<text x="78" y="546.5" text-anchor="end" font-family="monospace" font-size="11" fill="#475569">0</text>
<line x1="90" y1="480.0" x2="1310" y2="480.0" stroke="#e2e8f0" stroke-width="1"/>
<text x="78" y="484.0" text-anchor="end" font-family="monospace" font-size="11" fill="#475569">270</text>
<rect x="86.95" y="516.4583333333334" width="6.1000000000000005" height="26.04166666666663" fill="#ea580c" opacity="0.85"><title>2024-04-01 | BTC buy 112.50 usd | reason=balanced_regime</title></rect>
<rect x="98.14266055045871" y="511.25" width="6.1000000000000005" height="31.25" fill="#ea580c" opacity="0.85"><title>2024-04-08 | BTC buy 135.00 usd | reason=btc_defensive_regime</title></rect>
<rect x="109.33532110091744" y="511.25" width="6.1000000000000005" height="31.25" fill="#ea580c" opacity="0.85"><title>2024-04-15 | BTC buy 135.00 usd | reason=btc_defensive_regime</title></rect>
<rect x="120.52798165137615" y="511.25" width="6.1000000000000005" height="31.25" fill="#ea580c" opacity="0.85"><title>2024-04-22 | BTC buy 135.00 usd | reason=btc_defensive_regime</title></rect>
<rect x="131.72064220183486" y="511.25" width="6.1000000000000005" height="31.25" fill="#ea580c" opacity="0.85"><title>2024-04-29 | BTC buy 135.00 usd | reason=btc_defensive_regime</title></rect>
<rect x="142.91330275229356" y="511.25" width="6.1000000000000005" height="31.25" fill="#ea580c" opacity="0.85"><title>2024-05-06 | BTC buy 135.00 usd | reason=btc_defensive_regime</title></rect>
<rect x="154.1059633027523" y="511.25" width="6.1000000000000005" height="31.25" fill="#ea580c" opacity="0.85"><title>2024-05-13 | BTC buy 135.00 usd | reason=btc_defensive_regime</title></rect>
<rect x="165.29862385321098" y="511.25" width="6.1000000000000005" height="31.25" fill="#ea580c" opacity="0.85"><title>2024-05-20 | BTC buy 135.00 usd | reason=btc_defensive_regime</title></rect>
<rect x="176.49128440366974" y="516.4583333333334" width="6.1000000000000005" height="26.04166666666663" fill="#ea580c" opacity="0.85"><title>2024-05-27 | BTC buy 112.50 usd | reason=balanced_regime</title></rect>
<rect x="187.68394495412844" y="511.25" width="6.1000000000000005" height="31.25" fill="#ea580c" opacity="0.85"><title>2024-06-03 | BTC buy 135.00 usd | reason=btc_defensive_regime</title></rect>
<rect x="198.87660550458713" y="516.4583333333334" width="6.1000000000000005" height="26.04166666666663" fill="#ea580c" opacity="0.85"><title>2024-06-10 | BTC buy 112.50 usd | reason=balanced_regime</title></rect>
<rect x="210.0692660550459" y="516.4583333333334" width="6.1000000000000005" height="26.04166666666663" fill="#ea580c" opacity="0.85"><title>2024-06-17 | BTC buy 112.50 usd | reason=balanced_regime</title></rect>
<rect x="221.26192660550458" y="516.1689814814815" width="6.1000000000000005" height="26.331018518518476" fill="#ea580c" opacity="0.85"><title>2024-06-24 | BTC buy 113.75 usd | reason=eth_strong_risk_on</title></rect>
<rect x="232.4545871559633" y="516.4583333333334" width="6.1000000000000005" height="26.04166666666663" fill="#ea580c" opacity="0.85"><title>2024-07-01 | BTC buy 112.50 usd | reason=balanced_regime</title></rect>
<rect x="243.647247706422" y="480.0" width="6.1000000000000005" height="62.5" fill="#ea580c" opacity="0.85"><title>2024-07-08 | BTC buy 270.00 usd | reason=both_weak_btc_defensive</title></rect>
<rect x="254.83990825688073" y="516.4583333333334" width="6.1000000000000005" height="26.04166666666663" fill="#ea580c" opacity="0.85"><title>2024-07-15 | BTC buy 112.50 usd | reason=balanced_regime</title></rect>
<rect x="266.0325688073395" y="516.4583333333334" width="6.1000000000000005" height="26.04166666666663" fill="#ea580c" opacity="0.85"><title>2024-07-22 | BTC buy 112.50 usd | reason=balanced_regime</title></rect>
<rect x="277.2252293577981" y="516.4583333333334" width="6.1000000000000005" height="26.04166666666663" fill="#ea580c" opacity="0.85"><title>2024-07-29 | BTC buy 112.50 usd | reason=balanced_regime</title></rect>
<rect x="288.4178899082569" y="480.0" width="6.1000000000000005" height="62.5" fill="#ea580c" opacity="0.85"><title>2024-08-05 | BTC buy 270.00 usd | reason=both_weak_btc_defensive</title></rect>
<rect x="299.61055045871564" y="480.0" width="6.1000000000000005" height="62.5" fill="#ea580c" opacity="0.85"><title>2024-08-12 | BTC buy 270.00 usd | reason=both_weak_btc_defensive</title></rect>
<rect x="310.8032110091743" y="480.0" width="6.1000000000000005" height="62.5" fill="#ea580c" opacity="0.85"><title>2024-08-19 | BTC buy 270.00 usd | reason=both_weak_btc_defensive</title></rect>
<rect x="321.99587155963303" y="480.0" width="6.1000000000000005" height="62.5" fill="#ea580c" opacity="0.85"><title>2024-08-26 | BTC buy 270.00 usd | reason=both_weak_btc_defensive</title></rect>
<rect x="333.1885321100918" y="480.0" width="6.1000000000000005" height="62.5" fill="#ea580c" opacity="0.85"><title>2024-09-02 | BTC buy 270.00 usd | reason=both_weak_btc_defensive</title></rect>
<rect x="344.3811926605505" y="481.48858627442485" width="6.1000000000000005" height="61.01141372557515" fill="#ea580c" opacity="0.85"><title>2024-09-09 | BTC buy 263.57 usd | reason=both_weak_btc_defensive</title></rect>
<rect x="355.5738532110092" y="512.4149644022466" width="6.1000000000000005" height="30.085035597753404" fill="#ea580c" opacity="0.85"><title>2024-09-16 | BTC buy 129.97 usd | reason=both_weak_btc_defensive</title></rect>
<rect x="366.7665137614679" y="525.8702823191463" width="6.1000000000000005" height="16.629717680853673" fill="#ea580c" opacity="0.85"><title>2024-09-23 | BTC buy 71.84 usd | reason=both_weak_btc_defensive</title></rect>
<rect x="377.95917431192663" y="534.4576688642863" width="6.1000000000000005" height="8.042331135713653" fill="#ea580c" opacity="0.85"><title>2024-09-30 | BTC buy 34.74 usd | reason=both_weak_btc_defensive</title></rect>
<rect x="389.15183486238533" y="542.0995215191056" width="6.1000000000000005" height="1.5" fill="#ea580c" opacity="0.85"><title>2024-10-07 | BTC buy 1.73 usd | reason=both_weak_btc_defensive</title></rect>
<rect x="400.344495412844" y="511.25" width="6.1000000000000005" height="31.25" fill="#ea580c" opacity="0.85"><title>2024-10-14 | BTC buy 135.00 usd | reason=btc_defensive_regime</title></rect>
<rect x="411.5371559633028" y="511.25" width="6.1000000000000005" height="31.25" fill="#ea580c" opacity="0.85"><title>2024-10-21 | BTC buy 135.00 usd | reason=btc_defensive_regime</title></rect>
<rect x="422.7298165137615" y="532.1005250779747" width="6.1000000000000005" height="10.39947492202532" fill="#ea580c" opacity="0.85"><title>2024-10-28 | BTC buy 44.93 usd | reason=btc_defensive_regime</title></rect>
<rect x="433.9224770642202" y="539.24745955181" width="6.1000000000000005" height="3.2525404481899614" fill="#ea580c" opacity="0.85"><title>2024-11-04 | BTC buy 14.05 usd | reason=btc_defensive_regime</title></rect>
<rect x="445.11513761467893" y="542.5" width="6.1000000000000005" height="1.5" fill="#ea580c" opacity="0.85"><title>2024-11-11 | BTC buy 0.00 usd | reason=btc_defensive_regime</title></rect>
<rect x="456.3077981651376" y="542.5" width="6.1000000000000005" height="1.5" fill="#ea580c" opacity="0.85"><title>2024-11-18 | BTC buy 0.00 usd | reason=btc_defensive_regime</title></rect>
<rect x="467.5004587155963" y="542.5" width="6.1000000000000005" height="1.5" fill="#ea580c" opacity="0.85"><title>2024-11-25 | BTC buy 0.00 usd | reason=btc_defensive_regime</title></rect>
<rect x="478.6931192660551" y="542.5" width="6.1000000000000005" height="2.361129145203563" fill="#dc2626" opacity="0.85"><title>2024-12-02 | BTC sell 10.20 usd | reason=btc_defensive_regime</title></rect>
<rect x="489.8857798165138" y="542.5" width="6.1000000000000005" height="2.362928066799782" fill="#dc2626" opacity="0.85"><title>2024-12-09 | BTC sell 10.21 usd | reason=btc_defensive_regime</title></rect>
<rect x="501.0784403669725" y="542.5" width="6.1000000000000005" height="3.138438569450841" fill="#dc2626" opacity="0.85"><title>2024-12-16 | BTC sell 13.56 usd | reason=btc_defensive_regime</title></rect>
<rect x="512.2711009174313" y="542.5" width="6.1000000000000005" height="1.5" fill="#ea580c" opacity="0.85"><title>2024-12-23 | BTC buy 0.00 usd | reason=btc_defensive_regime</title></rect>
<rect x="523.46376146789" y="542.5" width="6.1000000000000005" height="1.5" fill="#ea580c" opacity="0.85"><title>2024-12-30 | BTC buy 0.00 usd | reason=btc_defensive_regime</title></rect>
<rect x="534.6564220183486" y="542.5" width="6.1000000000000005" height="2.7449105710895765" fill="#dc2626" opacity="0.85"><title>2025-01-06 | BTC sell 11.86 usd | reason=btc_defensive_regime</title></rect>
<rect x="545.8490825688075" y="542.5" width="6.1000000000000005" height="1.5" fill="#ea580c" opacity="0.85"><title>2025-01-13 | BTC buy 0.00 usd | reason=btc_defensive_regime</title></rect>
<rect x="557.0417431192661" y="542.5" width="6.1000000000000005" height="1.5" fill="#ea580c" opacity="0.85"><title>2025-01-20 | BTC buy 0.00 usd | reason=btc_defensive_regime</title></rect>
<rect x="568.2344036697248" y="542.5" width="6.1000000000000005" height="1.5" fill="#ea580c" opacity="0.85"><title>2025-01-27 | BTC buy 0.00 usd | reason=btc_defensive_regime</title></rect>
<rect x="579.4270642201836" y="542.5" width="6.1000000000000005" height="1.5" fill="#ea580c" opacity="0.85"><title>2025-02-03 | BTC buy 0.00 usd | reason=btc_defensive_regime</title></rect>
<rect x="590.6197247706423" y="542.5" width="6.1000000000000005" height="1.5" fill="#ea580c" opacity="0.85"><title>2025-02-10 | BTC buy 0.00 usd | reason=btc_defensive_regime</title></rect>
<rect x="601.812385321101" y="542.5" width="6.1000000000000005" height="1.5" fill="#ea580c" opacity="0.85"><title>2025-02-17 | BTC buy 0.00 usd | reason=btc_defensive_regime</title></rect>
<rect x="613.0050458715597" y="542.5" width="6.1000000000000005" height="1.5" fill="#ea580c" opacity="0.85"><title>2025-02-24 | BTC buy 0.00 usd | reason=btc_defensive_regime</title></rect>
<rect x="624.1977064220184" y="542.5" width="6.1000000000000005" height="1.5" fill="#ea580c" opacity="0.85"><title>2025-03-03 | BTC buy 0.00 usd | reason=btc_defensive_regime</title></rect>
<rect x="635.3903669724772" y="542.5" width="6.1000000000000005" height="1.5" fill="#ea580c" opacity="0.85"><title>2025-03-10 | BTC buy 0.00 usd | reason=both_weak_btc_defensive</title></rect>
<rect x="646.5830275229358" y="542.5" width="6.1000000000000005" height="1.5" fill="#ea580c" opacity="0.85"><title>2025-03-17 | BTC buy 0.00 usd | reason=both_weak_btc_defensive</title></rect>
<rect x="657.7756880733946" y="542.5" width="6.1000000000000005" height="1.5" fill="#ea580c" opacity="0.85"><title>2025-03-24 | BTC buy 0.00 usd | reason=btc_defensive_regime</title></rect>
<rect x="668.9683486238533" y="542.5" width="6.1000000000000005" height="1.5" fill="#ea580c" opacity="0.85"><title>2025-03-31 | BTC buy 0.00 usd | reason=both_weak_btc_defensive</title></rect>
<rect x="680.161009174312" y="542.5" width="6.1000000000000005" height="1.5" fill="#ea580c" opacity="0.85"><title>2025-04-07 | BTC buy 0.00 usd | reason=both_weak_btc_defensive</title></rect>
<rect x="691.3536697247707" y="542.5" width="6.1000000000000005" height="1.5" fill="#ea580c" opacity="0.85"><title>2025-04-14 | BTC buy 0.00 usd | reason=both_weak_btc_defensive</title></rect>
<rect x="702.5463302752294" y="542.5" width="6.1000000000000005" height="1.5" fill="#ea580c" opacity="0.85"><title>2025-04-21 | BTC buy 0.00 usd | reason=both_weak_btc_defensive</title></rect>
<rect x="713.7389908256881" y="542.5" width="6.1000000000000005" height="1.5" fill="#ea580c" opacity="0.85"><title>2025-04-28 | BTC buy 0.00 usd | reason=btc_defensive_regime</title></rect>
<rect x="724.9316513761468" y="542.5" width="6.1000000000000005" height="1.5" fill="#ea580c" opacity="0.85"><title>2025-05-05 | BTC buy 0.00 usd | reason=btc_defensive_regime</title></rect>
<rect x="736.1243119266056" y="542.5" width="6.1000000000000005" height="1.5" fill="#ea580c" opacity="0.85"><title>2025-05-12 | BTC buy 0.00 usd | reason=btc_defensive_regime</title></rect>
<rect x="747.3169724770643" y="542.5" width="6.1000000000000005" height="1.5" fill="#ea580c" opacity="0.85"><title>2025-05-19 | BTC buy 0.00 usd | reason=btc_defensive_regime</title></rect>
<rect x="758.509633027523" y="542.5" width="6.1000000000000005" height="1.5" fill="#ea580c" opacity="0.85"><title>2025-05-26 | BTC buy 0.00 usd | reason=btc_defensive_regime</title></rect>
<rect x="769.7022935779817" y="542.5" width="6.1000000000000005" height="1.5" fill="#ea580c" opacity="0.85"><title>2025-06-02 | BTC buy 0.00 usd | reason=btc_defensive_regime</title></rect>
<rect x="780.8949541284404" y="542.5" width="6.1000000000000005" height="1.5" fill="#ea580c" opacity="0.85"><title>2025-06-09 | BTC buy 0.00 usd | reason=balanced_regime</title></rect>
<rect x="792.0876146788991" y="542.5" width="6.1000000000000005" height="1.5" fill="#ea580c" opacity="0.85"><title>2025-06-16 | BTC buy 0.00 usd | reason=btc_defensive_regime</title></rect>
<rect x="803.2802752293579" y="542.5" width="6.1000000000000005" height="1.5" fill="#ea580c" opacity="0.85"><title>2025-06-23 | BTC buy 0.00 usd | reason=btc_defensive_regime</title></rect>
<rect x="814.4729357798166" y="542.5" width="6.1000000000000005" height="1.5" fill="#ea580c" opacity="0.85"><title>2025-06-30 | BTC buy 0.00 usd | reason=btc_defensive_regime</title></rect>
<rect x="825.6655963302753" y="542.5" width="6.1000000000000005" height="1.5" fill="#ea580c" opacity="0.85"><title>2025-07-07 | BTC buy 0.00 usd | reason=btc_defensive_regime</title></rect>
<rect x="836.858256880734" y="542.5" width="6.1000000000000005" height="1.5" fill="#ea580c" opacity="0.85"><title>2025-07-14 | BTC buy 0.00 usd | reason=balanced_regime</title></rect>
<rect x="848.0509174311927" y="542.5" width="6.1000000000000005" height="22.26034370185414" fill="#dc2626" opacity="0.85"><title>2025-07-21 | BTC sell 96.16 usd | reason=balanced_regime</title></rect>
<rect x="859.2435779816514" y="542.5" width="6.1000000000000005" height="20.64325513971596" fill="#dc2626" opacity="0.85"><title>2025-07-28 | BTC sell 89.18 usd | reason=balanced_regime</title></rect>
<rect x="870.4362385321102" y="542.5" width="6.1000000000000005" height="18.477674758240482" fill="#dc2626" opacity="0.85"><title>2025-08-04 | BTC sell 79.82 usd | reason=balanced_regime</title></rect>
<rect x="881.6288990825689" y="542.5" width="6.1000000000000005" height="18.733557723746458" fill="#dc2626" opacity="0.85"><title>2025-08-11 | BTC sell 80.93 usd | reason=balanced_regime</title></rect>
<rect x="892.8215596330276" y="542.5" width="6.1000000000000005" height="17.24867901161383" fill="#dc2626" opacity="0.85"><title>2025-08-18 | BTC sell 74.51 usd | reason=balanced_regime</title></rect>
<rect x="904.0142201834863" y="542.5" width="6.1000000000000005" height="15.446631846041441" fill="#dc2626" opacity="0.85"><title>2025-08-25 | BTC sell 66.73 usd | reason=balanced_regime</title></rect>
<rect x="915.206880733945" y="542.5" width="6.1000000000000005" height="13.960953490503925" fill="#dc2626" opacity="0.85"><title>2025-09-01 | BTC sell 60.31 usd | reason=balanced_regime</title></rect>
<rect x="926.3995412844037" y="542.5" width="6.1000000000000005" height="13.086212628462704" fill="#dc2626" opacity="0.85"><title>2025-09-08 | BTC sell 56.53 usd | reason=balanced_regime</title></rect>
<rect x="937.5922018348625" y="542.5" width="6.1000000000000005" height="12.9224405273593" fill="#dc2626" opacity="0.85"><title>2025-09-15 | BTC sell 55.82 usd | reason=balanced_regime</title></rect>
<rect x="948.7848623853212" y="542.5" width="6.1000000000000005" height="10.802785847701557" fill="#dc2626" opacity="0.85"><title>2025-09-22 | BTC sell 46.67 usd | reason=balanced_regime</title></rect>
<rect x="959.9775229357799" y="542.5" width="6.1000000000000005" height="10.126705749157395" fill="#dc2626" opacity="0.85"><title>2025-09-29 | BTC sell 43.75 usd | reason=balanced_regime</title></rect>
<rect x="971.1701834862386" y="542.5" width="6.1000000000000005" height="11.473668116754425" fill="#dc2626" opacity="0.85"><title>2025-10-06 | BTC sell 49.57 usd | reason=balanced_regime</title></rect>
<rect x="982.3628440366973" y="542.5" width="6.1000000000000005" height="8.564265015504134" fill="#dc2626" opacity="0.85"><title>2025-10-13 | BTC sell 37.00 usd | reason=balanced_regime</title></rect>
<rect x="993.555504587156" y="542.5" width="6.1000000000000005" height="1.5" fill="#ea580c" opacity="0.85"><title>2025-10-20 | BTC buy 0.00 usd | reason=balanced_regime</title></rect>
<rect x="1004.7481651376148" y="542.5" width="6.1000000000000005" height="7.453530174519642" fill="#dc2626" opacity="0.85"><title>2025-10-27 | BTC sell 32.20 usd | reason=balanced_regime</title></rect>
<rect x="1015.9408256880735" y="542.5" width="6.1000000000000005" height="1.5" fill="#ea580c" opacity="0.85"><title>2025-11-03 | BTC buy 0.00 usd | reason=balanced_regime</title></rect>
<rect x="1027.1334862385322" y="542.5" width="6.1000000000000005" height="1.5" fill="#ea580c" opacity="0.85"><title>2025-11-10 | BTC buy 0.00 usd | reason=balanced_regime</title></rect>
<rect x="1038.3261467889909" y="541.6819623709843" width="6.1000000000000005" height="1.5" fill="#ea580c" opacity="0.85"><title>2025-11-17 | BTC buy 3.53 usd | reason=both_weak_btc_defensive</title></rect>
<rect x="1049.5188073394495" y="535.1000696759054" width="6.1000000000000005" height="7.399930324094612" fill="#ea580c" opacity="0.85"><title>2025-11-24 | BTC buy 31.97 usd | reason=both_weak_btc_defensive</title></rect>
<rect x="1060.7114678899081" y="542.5" width="6.1000000000000005" height="1.5" fill="#ea580c" opacity="0.85"><title>2025-12-01 | BTC buy 0.00 usd | reason=both_weak_btc_defensive</title></rect>
<rect x="1071.9041284403672" y="532.8310240615984" width="6.1000000000000005" height="9.668975938401559" fill="#ea580c" opacity="0.85"><title>2025-12-08 | BTC buy 41.77 usd | reason=both_weak_btc_defensive</title></rect>
<rect x="1083.0967889908259" y="534.7905406810178" width="6.1000000000000005" height="7.709459318982226" fill="#ea580c" opacity="0.85"><title>2025-12-15 | BTC buy 33.30 usd | reason=both_weak_btc_defensive</title></rect>
<rect x="1094.2894495412845" y="541.7630401272618" width="6.1000000000000005" height="1.5" fill="#ea580c" opacity="0.85"><title>2025-12-22 | BTC buy 3.18 usd | reason=both_weak_btc_defensive</title></rect>
<rect x="1105.4821100917432" y="542.5" width="6.1000000000000005" height="1.5" fill="#ea580c" opacity="0.85"><title>2025-12-29 | BTC buy 0.00 usd | reason=both_weak_btc_defensive</title></rect>
<rect x="1116.674770642202" y="542.5" width="6.1000000000000005" height="1.5" fill="#ea580c" opacity="0.85"><title>2026-01-05 | BTC buy 0.00 usd | reason=both_weak_btc_defensive</title></rect>
<rect x="1127.8674311926607" y="542.5" width="6.1000000000000005" height="1.5" fill="#ea580c" opacity="0.85"><title>2026-01-12 | BTC buy 0.00 usd | reason=both_weak_btc_defensive</title></rect>
<rect x="1139.0600917431193" y="541.7990203028244" width="6.1000000000000005" height="1.5" fill="#ea580c" opacity="0.85"><title>2026-01-19 | BTC buy 3.03 usd | reason=both_weak_btc_defensive</title></rect>
<rect x="1150.252752293578" y="542.5" width="6.1000000000000005" height="1.5" fill="#ea580c" opacity="0.85"><title>2026-01-26 | BTC buy 0.00 usd | reason=both_weak_btc_defensive</title></rect>
<rect x="1161.4454128440368" y="542.5" width="6.1000000000000005" height="1.5" fill="#ea580c" opacity="0.85"><title>2026-02-02 | BTC buy 0.00 usd | reason=both_weak_btc_defensive</title></rect>
<rect x="1172.6380733944954" y="542.5" width="6.1000000000000005" height="1.5" fill="#ea580c" opacity="0.85"><title>2026-02-09 | BTC buy 0.00 usd | reason=both_weak_btc_defensive</title></rect>
<rect x="1183.8307339449543" y="542.5" width="6.1000000000000005" height="1.5" fill="#ea580c" opacity="0.85"><title>2026-02-16 | BTC buy 0.00 usd | reason=both_weak_btc_defensive</title></rect>
<rect x="1195.023394495413" y="542.5" width="6.1000000000000005" height="1.5" fill="#ea580c" opacity="0.85"><title>2026-02-23 | BTC buy 0.00 usd | reason=both_weak_btc_defensive</title></rect>
<rect x="1206.2160550458716" y="542.5" width="6.1000000000000005" height="1.5" fill="#ea580c" opacity="0.85"><title>2026-03-02 | BTC buy 0.00 usd | reason=both_weak_btc_defensive</title></rect>
<rect x="1217.4087155963302" y="542.5" width="6.1000000000000005" height="1.5" fill="#ea580c" opacity="0.85"><title>2026-03-09 | BTC buy 0.00 usd | reason=both_weak_btc_defensive</title></rect>
<rect x="1228.601376146789" y="542.5" width="6.1000000000000005" height="1.5" fill="#ea580c" opacity="0.85"><title>2026-03-16 | BTC buy 0.00 usd | reason=both_weak_btc_defensive</title></rect>
<rect x="1239.7940366972477" y="542.5" width="6.1000000000000005" height="1.5" fill="#ea580c" opacity="0.85"><title>2026-03-23 | BTC buy 0.00 usd | reason=both_weak_btc_defensive</title></rect>
<rect x="1250.9866972477066" y="542.5" width="6.1000000000000005" height="1.5" fill="#ea580c" opacity="0.85"><title>2026-03-30 | BTC buy 0.00 usd | reason=both_weak_btc_defensive</title></rect>
<rect x="1262.1793577981653" y="542.5" width="6.1000000000000005" height="1.5" fill="#ea580c" opacity="0.85"><title>2026-04-06 | BTC buy 0.00 usd | reason=both_weak_btc_defensive</title></rect>
<rect x="1273.372018348624" y="542.5" width="6.1000000000000005" height="1.5" fill="#ea580c" opacity="0.85"><title>2026-04-13 | BTC buy 0.00 usd | reason=both_weak_btc_defensive</title></rect>
<rect x="1284.5646788990825" y="542.5" width="6.1000000000000005" height="1.5" fill="#ea580c" opacity="0.85"><title>2026-04-20 | BTC buy 0.00 usd | reason=both_weak_btc_defensive</title></rect>
<rect x="1295.7573394495414" y="542.5" width="6.1000000000000005" height="1.5" fill="#ea580c" opacity="0.85"><title>2026-04-27 | BTC buy 0.00 usd | reason=both_weak_btc_defensive</title></rect>
<rect x="1306.95" y="542.5" width="6.1000000000000005" height="1.5" fill="#ea580c" opacity="0.85"><title>2026-05-04 | BTC buy 0.00 usd | reason=both_weak_btc_defensive</title></rect>
<text x="24" y="542.5" transform="rotate(-90 24,542.5)" text-anchor="middle" font-family="monospace" font-size="14" fill="#0f172a">BTC weekly trade usd</text>
<line x1="90" y1="770" x2="1310" y2="770" stroke="#334155" stroke-width="2"/>
<line x1="90" y1="645" x2="90" y2="770" stroke="#334155" stroke-width="2"/>
<line x1="90" y1="707.5" x2="1310" y2="707.5" stroke="#64748b" stroke-width="1.5" stroke-dasharray="6 4"/>
<line x1="90" y1="770.0" x2="1310" y2="770.0" stroke="#e2e8f0" stroke-width="1"/>
<text x="78" y="774.0" text-anchor="end" font-family="monospace" font-size="11" fill="#475569">-225</text>
<line x1="90" y1="707.5" x2="1310" y2="707.5" stroke="#e2e8f0" stroke-width="1"/>
<text x="78" y="711.5" text-anchor="end" font-family="monospace" font-size="11" fill="#475569">0</text>
<line x1="90" y1="645.0" x2="1310" y2="645.0" stroke="#e2e8f0" stroke-width="1"/>
<text x="78" y="649.0" text-anchor="end" font-family="monospace" font-size="11" fill="#475569">225</text>
<rect x="86.95" y="676.25" width="6.1000000000000005" height="31.25" fill="#2563eb" opacity="0.85"><title>2024-04-01 | ETH buy 112.50 usd | reason=balanced_regime</title></rect>
<rect x="98.14266055045871" y="682.5" width="6.1000000000000005" height="25.0" fill="#2563eb" opacity="0.85"><title>2024-04-08 | ETH buy 90.00 usd | reason=btc_defensive_regime</title></rect>
<rect x="109.33532110091744" y="682.5" width="6.1000000000000005" height="25.0" fill="#2563eb" opacity="0.85"><title>2024-04-15 | ETH buy 90.00 usd | reason=btc_defensive_regime</title></rect>
<rect x="120.52798165137615" y="682.5" width="6.1000000000000005" height="25.0" fill="#2563eb" opacity="0.85"><title>2024-04-22 | ETH buy 90.00 usd | reason=btc_defensive_regime</title></rect>
<rect x="131.72064220183486" y="682.5" width="6.1000000000000005" height="25.0" fill="#2563eb" opacity="0.85"><title>2024-04-29 | ETH buy 90.00 usd | reason=btc_defensive_regime</title></rect>
<rect x="142.91330275229356" y="682.5" width="6.1000000000000005" height="25.0" fill="#2563eb" opacity="0.85"><title>2024-05-06 | ETH buy 90.00 usd | reason=btc_defensive_regime</title></rect>
<rect x="154.1059633027523" y="682.5" width="6.1000000000000005" height="25.0" fill="#2563eb" opacity="0.85"><title>2024-05-13 | ETH buy 90.00 usd | reason=btc_defensive_regime</title></rect>
<rect x="165.29862385321098" y="682.5" width="6.1000000000000005" height="25.0" fill="#2563eb" opacity="0.85"><title>2024-05-20 | ETH buy 90.00 usd | reason=btc_defensive_regime</title></rect>
<rect x="176.49128440366974" y="676.25" width="6.1000000000000005" height="31.25" fill="#2563eb" opacity="0.85"><title>2024-05-27 | ETH buy 112.50 usd | reason=balanced_regime</title></rect>
<rect x="187.68394495412844" y="682.5" width="6.1000000000000005" height="25.0" fill="#2563eb" opacity="0.85"><title>2024-06-03 | ETH buy 90.00 usd | reason=btc_defensive_regime</title></rect>
<rect x="198.87660550458713" y="676.25" width="6.1000000000000005" height="31.25" fill="#2563eb" opacity="0.85"><title>2024-06-10 | ETH buy 112.50 usd | reason=balanced_regime</title></rect>
<rect x="210.0692660550459" y="676.25" width="6.1000000000000005" height="31.25" fill="#2563eb" opacity="0.85"><title>2024-06-17 | ETH buy 112.50 usd | reason=balanced_regime</title></rect>
<rect x="221.26192660550458" y="648.8194444444445" width="6.1000000000000005" height="58.68055555555554" fill="#2563eb" opacity="0.85"><title>2024-06-24 | ETH buy 211.25 usd | reason=eth_strong_risk_on</title></rect>
<rect x="232.4545871559633" y="676.25" width="6.1000000000000005" height="31.25" fill="#2563eb" opacity="0.85"><title>2024-07-01 | ETH buy 112.50 usd | reason=balanced_regime</title></rect>
<rect x="243.647247706422" y="657.5" width="6.1000000000000005" height="50.0" fill="#2563eb" opacity="0.85"><title>2024-07-08 | ETH buy 180.00 usd | reason=both_weak_btc_defensive</title></rect>
<rect x="254.83990825688073" y="676.25" width="6.1000000000000005" height="31.25" fill="#2563eb" opacity="0.85"><title>2024-07-15 | ETH buy 112.50 usd | reason=balanced_regime</title></rect>
<rect x="266.0325688073395" y="676.25" width="6.1000000000000005" height="31.25" fill="#2563eb" opacity="0.85"><title>2024-07-22 | ETH buy 112.50 usd | reason=balanced_regime</title></rect>
<rect x="277.2252293577981" y="676.25" width="6.1000000000000005" height="31.25" fill="#2563eb" opacity="0.85"><title>2024-07-29 | ETH buy 112.50 usd | reason=balanced_regime</title></rect>
<rect x="288.4178899082569" y="657.5" width="6.1000000000000005" height="50.0" fill="#2563eb" opacity="0.85"><title>2024-08-05 | ETH buy 180.00 usd | reason=both_weak_btc_defensive</title></rect>
<rect x="299.61055045871564" y="657.5" width="6.1000000000000005" height="50.0" fill="#2563eb" opacity="0.85"><title>2024-08-12 | ETH buy 180.00 usd | reason=both_weak_btc_defensive</title></rect>
<rect x="310.8032110091743" y="657.5" width="6.1000000000000005" height="50.0" fill="#2563eb" opacity="0.85"><title>2024-08-19 | ETH buy 180.00 usd | reason=both_weak_btc_defensive</title></rect>
<rect x="321.99587155963303" y="657.5" width="6.1000000000000005" height="50.0" fill="#2563eb" opacity="0.85"><title>2024-08-26 | ETH buy 180.00 usd | reason=both_weak_btc_defensive</title></rect>
<rect x="333.1885321100918" y="657.5" width="6.1000000000000005" height="50.0" fill="#2563eb" opacity="0.85"><title>2024-09-02 | ETH buy 180.00 usd | reason=both_weak_btc_defensive</title></rect>
<rect x="344.3811926605505" y="655.7136964706903" width="6.1000000000000005" height="51.78630352930975" fill="#2563eb" opacity="0.85"><title>2024-09-09 | ETH buy 186.43 usd | reason=both_weak_btc_defensive</title></rect>
<rect x="355.5738532110092" y="668.3486438762953" width="6.1000000000000005" height="39.15135612370466" fill="#2563eb" opacity="0.85"><title>2024-09-16 | ETH buy 140.94 usd | reason=both_weak_btc_defensive</title></rect>
<rect x="366.7665137614679" y="702.3064431853852" width="6.1000000000000005" height="5.193556814614794" fill="#2563eb" opacity="0.85"><title>2024-09-23 | ETH buy 18.70 usd | reason=both_weak_btc_defensive</title></rect>
<rect x="377.95917431192663" y="700.6146672869659" width="6.1000000000000005" height="6.885332713034131" fill="#2563eb" opacity="0.85"><title>2024-09-30 | ETH buy 24.79 usd | reason=both_weak_btc_defensive</title></rect>
<rect x="389.15183486238533" y="690.4984303744984" width="6.1000000000000005" height="17.00156962550159" fill="#2563eb" opacity="0.85"><title>2024-10-07 | ETH buy 61.21 usd | reason=both_weak_btc_defensive</title></rect>
<rect x="400.344495412844" y="682.5" width="6.1000000000000005" height="25.0" fill="#2563eb" opacity="0.85"><title>2024-10-14 | ETH buy 90.00 usd | reason=btc_defensive_regime</title></rect>
<rect x="411.5371559633028" y="682.5" width="6.1000000000000005" height="25.0" fill="#2563eb" opacity="0.85"><title>2024-10-21 | ETH buy 90.00 usd | reason=btc_defensive_regime</title></rect>
<rect x="422.7298165137615" y="666.7552201062567" width="6.1000000000000005" height="40.74477989374327" fill="#2563eb" opacity="0.85"><title>2024-10-28 | ETH buy 146.68 usd | reason=btc_defensive_regime</title></rect>
<rect x="433.9224770642202" y="673.3943861286937" width="6.1000000000000005" height="34.10561387130633" fill="#2563eb" opacity="0.85"><title>2024-11-04 | ETH buy 122.78 usd | reason=btc_defensive_regime</title></rect>
<rect x="445.11513761467893" y="707.5" width="6.1000000000000005" height="1.5" fill="#2563eb" opacity="0.85"><title>2024-11-11 | ETH buy 0.00 usd | reason=btc_defensive_regime</title></rect>
<rect x="456.3077981651376" y="702.1098938867394" width="6.1000000000000005" height="5.390106113260572" fill="#2563eb" opacity="0.85"><title>2024-11-18 | ETH buy 19.40 usd | reason=btc_defensive_regime</title></rect>
<rect x="467.5004587155963" y="707.5" width="6.1000000000000005" height="1.5" fill="#2563eb" opacity="0.85"><title>2024-11-25 | ETH buy 0.00 usd | reason=btc_defensive_regime</title></rect>
<rect x="478.6931192660551" y="707.5" width="6.1000000000000005" height="5.261944952167937" fill="#7c3aed" opacity="0.85"><title>2024-12-02 | ETH sell 18.94 usd | reason=btc_defensive_regime</title></rect>
<rect x="489.8857798165138" y="707.5" width="6.1000000000000005" height="5.265953977439608" fill="#7c3aed" opacity="0.85"><title>2024-12-09 | ETH sell 18.96 usd | reason=btc_defensive_regime</title></rect>
<rect x="501.0784403669725" y="707.5" width="6.1000000000000005" height="6.994234526204764" fill="#7c3aed" opacity="0.85"><title>2024-12-16 | ETH sell 25.18 usd | reason=btc_defensive_regime</title></rect>
<rect x="512.2711009174313" y="706.0101629922583" width="6.1000000000000005" height="1.5" fill="#2563eb" opacity="0.85"><title>2024-12-23 | ETH buy 5.36 usd | reason=btc_defensive_regime</title></rect>
<rect x="523.46376146789" y="706.5526049252263" width="6.1000000000000005" height="1.5" fill="#2563eb" opacity="0.85"><title>2024-12-30 | ETH buy 3.41 usd | reason=btc_defensive_regime</title></rect>
<rect x="534.6564220183486" y="707.5" width="6.1000000000000005" height="4.594981279126273" fill="#7c3aed" opacity="0.85"><title>2025-01-06 | ETH sell 16.54 usd | reason=btc_defensive_regime</title></rect>
<rect x="545.8490825688075" y="679.2556359939769" width="6.1000000000000005" height="28.244364006023147" fill="#2563eb" opacity="0.85"><title>2025-01-13 | ETH buy 101.68 usd | reason=btc_defensive_regime</title></rect>
<rect x="557.0417431192661" y="683.6692658362788" width="6.1000000000000005" height="23.830734163721218" fill="#2563eb" opacity="0.85"><title>2025-01-20 | ETH buy 85.79 usd | reason=btc_defensive_regime</title></rect>
<rect x="568.2344036697248" y="683.6983659375654" width="6.1000000000000005" height="23.801634062434573" fill="#2563eb" opacity="0.85"><title>2025-01-27 | ETH buy 85.69 usd | reason=btc_defensive_regime</title></rect>
<rect x="579.4270642201836" y="664.7986144681086" width="6.1000000000000005" height="42.70138553189145" fill="#2563eb" opacity="0.85"><title>2025-02-03 | ETH buy 153.72 usd | reason=btc_defensive_regime</title></rect>
<rect x="590.6197247706423" y="669.6330696664929" width="6.1000000000000005" height="37.86693033350707" fill="#2563eb" opacity="0.85"><title>2025-02-10 | ETH buy 136.32 usd | reason=btc_defensive_regime</title></rect>
<rect x="601.812385321101" y="698.2396138273558" width="6.1000000000000005" height="9.26038617264419" fill="#2563eb" opacity="0.85"><title>2025-02-17 | ETH buy 33.34 usd | reason=btc_defensive_regime</title></rect>
<rect x="613.0050458715597" y="688.3803473312882" width="6.1000000000000005" height="19.11965266871175" fill="#2563eb" opacity="0.85"><title>2025-02-24 | ETH buy 68.83 usd | reason=btc_defensive_regime</title></rect>
<rect x="624.1977064220184" y="669.9081276983438" width="6.1000000000000005" height="37.59187230165617" fill="#2563eb" opacity="0.85"><title>2025-03-03 | ETH buy 135.33 usd | reason=btc_defensive_regime</title></rect>
<rect x="635.3903669724772" y="707.5" width="6.1000000000000005" height="1.5" fill="#2563eb" opacity="0.85"><title>2025-03-10 | ETH buy 0.00 usd | reason=both_weak_btc_defensive</title></rect>
<rect x="646.5830275229358" y="707.5" width="6.1000000000000005" height="1.5" fill="#2563eb" opacity="0.85"><title>2025-03-17 | ETH buy 0.00 usd | reason=both_weak_btc_defensive</title></rect>
<rect x="657.7756880733946" y="673.5791244499057" width="6.1000000000000005" height="33.92087555009425" fill="#2563eb" opacity="0.85"><title>2025-03-24 | ETH buy 122.12 usd | reason=btc_defensive_regime</title></rect>
<rect x="668.9683486238533" y="707.5" width="6.1000000000000005" height="1.5" fill="#2563eb" opacity="0.85"><title>2025-03-31 | ETH buy 0.00 usd | reason=both_weak_btc_defensive</title></rect>
<rect x="680.161009174312" y="686.899406162863" width="6.1000000000000005" height="20.600593837137012" fill="#2563eb" opacity="0.85"><title>2025-04-07 | ETH buy 74.16 usd | reason=both_weak_btc_defensive</title></rect>
<rect x="691.3536697247707" y="691.374225760881" width="6.1000000000000005" height="16.125774239118982" fill="#2563eb" opacity="0.85"><title>2025-04-14 | ETH buy 58.05 usd | reason=both_weak_btc_defensive</title></rect>
<rect x="702.5463302752294" y="684.7951254582548" width="6.1000000000000005" height="22.7048745417452" fill="#2563eb" opacity="0.85"><title>2025-04-21 | ETH buy 81.74 usd | reason=both_weak_btc_defensive</title></rect>
<rect x="713.7389908256881" y="658.7067776154285" width="6.1000000000000005" height="48.79322238457155" fill="#2563eb" opacity="0.85"><title>2025-04-28 | ETH buy 175.66 usd | reason=btc_defensive_regime</title></rect>
<rect x="724.9316513761468" y="681.7988789779819" width="6.1000000000000005" height="25.70112102201813" fill="#2563eb" opacity="0.85"><title>2025-05-05 | ETH buy 92.52 usd | reason=btc_defensive_regime</title></rect>
<rect x="736.1243119266056" y="707.5" width="6.1000000000000005" height="1.5" fill="#2563eb" opacity="0.85"><title>2025-05-12 | ETH buy 0.00 usd | reason=btc_defensive_regime</title></rect>
<rect x="747.3169724770643" y="707.5" width="6.1000000000000005" height="1.5" fill="#2563eb" opacity="0.85"><title>2025-05-19 | ETH buy 0.00 usd | reason=btc_defensive_regime</title></rect>
<rect x="758.509633027523" y="707.5" width="6.1000000000000005" height="1.5" fill="#2563eb" opacity="0.85"><title>2025-05-26 | ETH buy 0.00 usd | reason=btc_defensive_regime</title></rect>
<rect x="769.7022935779817" y="707.5" width="6.1000000000000005" height="1.5" fill="#2563eb" opacity="0.85"><title>2025-06-02 | ETH buy 0.00 usd | reason=btc_defensive_regime</title></rect>
<rect x="780.8949541284404" y="645.0" width="6.1000000000000005" height="62.5" fill="#2563eb" opacity="0.85"><title>2025-06-09 | ETH buy 225.00 usd | reason=balanced_regime</title></rect>
<rect x="792.0876146788991" y="707.5" width="6.1000000000000005" height="1.5" fill="#2563eb" opacity="0.85"><title>2025-06-16 | ETH buy 0.00 usd | reason=btc_defensive_regime</title></rect>
<rect x="803.2802752293579" y="707.5" width="6.1000000000000005" height="1.5" fill="#2563eb" opacity="0.85"><title>2025-06-23 | ETH buy 0.00 usd | reason=btc_defensive_regime</title></rect>
<rect x="814.4729357798166" y="707.5" width="6.1000000000000005" height="1.5" fill="#2563eb" opacity="0.85"><title>2025-06-30 | ETH buy 0.00 usd | reason=btc_defensive_regime</title></rect>
<rect x="825.6655963302753" y="707.5" width="6.1000000000000005" height="1.5" fill="#2563eb" opacity="0.85"><title>2025-07-07 | ETH buy 0.00 usd | reason=btc_defensive_regime</title></rect>
<rect x="836.858256880734" y="678.7332874473173" width="6.1000000000000005" height="28.766712552682748" fill="#2563eb" opacity="0.85"><title>2025-07-14 | ETH buy 103.56 usd | reason=balanced_regime</title></rect>
<rect x="848.0509174311927" y="707.5" width="6.1000000000000005" height="26.712412442224945" fill="#7c3aed" opacity="0.85"><title>2025-07-21 | ETH sell 96.16 usd | reason=balanced_regime</title></rect>
<rect x="859.2435779816514" y="707.5" width="6.1000000000000005" height="24.771906167659154" fill="#7c3aed" opacity="0.85"><title>2025-07-28 | ETH sell 89.18 usd | reason=balanced_regime</title></rect>
<rect x="870.4362385321102" y="707.5" width="6.1000000000000005" height="22.173209709888624" fill="#7c3aed" opacity="0.85"><title>2025-08-04 | ETH sell 79.82 usd | reason=balanced_regime</title></rect>
<rect x="881.6288990825689" y="707.5" width="6.1000000000000005" height="22.480269268495704" fill="#7c3aed" opacity="0.85"><title>2025-08-11 | ETH sell 80.93 usd | reason=balanced_regime</title></rect>
<rect x="892.8215596330276" y="707.5" width="6.1000000000000005" height="20.69841481393655" fill="#7c3aed" opacity="0.85"><title>2025-08-18 | ETH sell 74.51 usd | reason=balanced_regime</title></rect>
<rect x="904.0142201834863" y="707.5" width="6.1000000000000005" height="18.535958215249707" fill="#7c3aed" opacity="0.85"><title>2025-08-25 | ETH sell 66.73 usd | reason=balanced_regime</title></rect>
<rect x="915.206880733945" y="707.5" width="6.1000000000000005" height="16.753144188604665" fill="#7c3aed" opacity="0.85"><title>2025-09-01 | ETH sell 60.31 usd | reason=balanced_regime</title></rect>
<rect x="926.3995412844037" y="707.5" width="6.1000000000000005" height="15.703455154155222" fill="#7c3aed" opacity="0.85"><title>2025-09-08 | ETH sell 56.53 usd | reason=balanced_regime</title></rect>
<rect x="937.5922018348625" y="707.5" width="6.1000000000000005" height="15.506928632831091" fill="#7c3aed" opacity="0.85"><title>2025-09-15 | ETH sell 55.82 usd | reason=balanced_regime</title></rect>
<rect x="948.7848623853212" y="707.5" width="6.1000000000000005" height="12.963343017241868" fill="#7c3aed" opacity="0.85"><title>2025-09-22 | ETH sell 46.67 usd | reason=balanced_regime</title></rect>
<rect x="959.9775229357799" y="707.5" width="6.1000000000000005" height="12.152046898988829" fill="#7c3aed" opacity="0.85"><title>2025-09-29 | ETH sell 43.75 usd | reason=balanced_regime</title></rect>
<rect x="971.1701834862386" y="707.5" width="6.1000000000000005" height="13.768401740105332" fill="#7c3aed" opacity="0.85"><title>2025-10-06 | ETH sell 49.57 usd | reason=balanced_regime</title></rect>
<rect x="982.3628440366973" y="707.5" width="6.1000000000000005" height="10.277118018604938" fill="#7c3aed" opacity="0.85"><title>2025-10-13 | ETH sell 37.00 usd | reason=balanced_regime</title></rect>
<rect x="993.555504587156" y="707.5" width="6.1000000000000005" height="1.5" fill="#2563eb" opacity="0.85"><title>2025-10-20 | ETH buy 0.00 usd | reason=balanced_regime</title></rect>
<rect x="1004.7481651376148" y="707.5" width="6.1000000000000005" height="8.944236209423593" fill="#7c3aed" opacity="0.85"><title>2025-10-27 | ETH sell 32.20 usd | reason=balanced_regime</title></rect>
<rect x="1015.9408256880735" y="707.5" width="6.1000000000000005" height="1.5" fill="#2563eb" opacity="0.85"><title>2025-11-03 | ETH buy 0.00 usd | reason=balanced_regime</title></rect>
<rect x="1027.1334862385322" y="707.5" width="6.1000000000000005" height="1.5" fill="#2563eb" opacity="0.85"><title>2025-11-10 | ETH buy 0.00 usd | reason=balanced_regime</title></rect>
<rect x="1038.3261467889909" y="707.5" width="6.1000000000000005" height="1.5" fill="#2563eb" opacity="0.85"><title>2025-11-17 | ETH buy 0.00 usd | reason=both_weak_btc_defensive</title></rect>
<rect x="1049.5188073394495" y="707.5" width="6.1000000000000005" height="1.5" fill="#2563eb" opacity="0.85"><title>2025-11-24 | ETH buy 0.00 usd | reason=both_weak_btc_defensive</title></rect>
<rect x="1060.7114678899081" y="707.5" width="6.1000000000000005" height="1.5" fill="#2563eb" opacity="0.85"><title>2025-12-01 | ETH buy 0.00 usd | reason=both_weak_btc_defensive</title></rect>
<rect x="1071.9041284403672" y="707.5" width="6.1000000000000005" height="1.5" fill="#2563eb" opacity="0.85"><title>2025-12-08 | ETH buy 0.00 usd | reason=both_weak_btc_defensive</title></rect>
<rect x="1083.0967889908259" y="707.5" width="6.1000000000000005" height="1.5" fill="#2563eb" opacity="0.85"><title>2025-12-15 | ETH buy 0.00 usd | reason=both_weak_btc_defensive</title></rect>
<rect x="1094.2894495412845" y="707.5" width="6.1000000000000005" height="1.5" fill="#2563eb" opacity="0.85"><title>2025-12-22 | ETH buy 0.00 usd | reason=both_weak_btc_defensive</title></rect>
<rect x="1105.4821100917432" y="707.5" width="6.1000000000000005" height="1.5" fill="#2563eb" opacity="0.85"><title>2025-12-29 | ETH buy 0.00 usd | reason=both_weak_btc_defensive</title></rect>
<rect x="1116.674770642202" y="707.5" width="6.1000000000000005" height="1.5" fill="#2563eb" opacity="0.85"><title>2026-01-05 | ETH buy 0.00 usd | reason=both_weak_btc_defensive</title></rect>
<rect x="1127.8674311926607" y="707.5" width="6.1000000000000005" height="1.5" fill="#2563eb" opacity="0.85"><title>2026-01-12 | ETH buy 0.00 usd | reason=both_weak_btc_defensive</title></rect>
<rect x="1139.0600917431193" y="707.5" width="6.1000000000000005" height="1.5" fill="#2563eb" opacity="0.85"><title>2026-01-19 | ETH buy 0.00 usd | reason=both_weak_btc_defensive</title></rect>
<rect x="1150.252752293578" y="707.5" width="6.1000000000000005" height="1.5" fill="#2563eb" opacity="0.85"><title>2026-01-26 | ETH buy 0.00 usd | reason=both_weak_btc_defensive</title></rect>
<rect x="1161.4454128440368" y="707.5" width="6.1000000000000005" height="1.5" fill="#2563eb" opacity="0.85"><title>2026-02-02 | ETH buy 0.00 usd | reason=both_weak_btc_defensive</title></rect>
<rect x="1172.6380733944954" y="707.5" width="6.1000000000000005" height="1.5" fill="#2563eb" opacity="0.85"><title>2026-02-09 | ETH buy 0.00 usd | reason=both_weak_btc_defensive</title></rect>
<rect x="1183.8307339449543" y="707.5" width="6.1000000000000005" height="1.5" fill="#2563eb" opacity="0.85"><title>2026-02-16 | ETH buy 0.00 usd | reason=both_weak_btc_defensive</title></rect>
<rect x="1195.023394495413" y="707.5" width="6.1000000000000005" height="1.5" fill="#2563eb" opacity="0.85"><title>2026-02-23 | ETH buy 0.00 usd | reason=both_weak_btc_defensive</title></rect>
<rect x="1206.2160550458716" y="707.5" width="6.1000000000000005" height="1.5" fill="#2563eb" opacity="0.85"><title>2026-03-02 | ETH buy 0.00 usd | reason=both_weak_btc_defensive</title></rect>
<rect x="1217.4087155963302" y="707.5" width="6.1000000000000005" height="1.5" fill="#2563eb" opacity="0.85"><title>2026-03-09 | ETH buy 0.00 usd | reason=both_weak_btc_defensive</title></rect>
<rect x="1228.601376146789" y="707.5" width="6.1000000000000005" height="1.5" fill="#2563eb" opacity="0.85"><title>2026-03-16 | ETH buy 0.00 usd | reason=both_weak_btc_defensive</title></rect>
<rect x="1239.7940366972477" y="707.5" width="6.1000000000000005" height="1.5" fill="#2563eb" opacity="0.85"><title>2026-03-23 | ETH buy 0.00 usd | reason=both_weak_btc_defensive</title></rect>
<rect x="1250.9866972477066" y="707.5" width="6.1000000000000005" height="1.5" fill="#2563eb" opacity="0.85"><title>2026-03-30 | ETH buy 0.00 usd | reason=both_weak_btc_defensive</title></rect>
<rect x="1262.1793577981653" y="707.5" width="6.1000000000000005" height="1.5" fill="#2563eb" opacity="0.85"><title>2026-04-06 | ETH buy 0.00 usd | reason=both_weak_btc_defensive</title></rect>
<rect x="1273.372018348624" y="707.5" width="6.1000000000000005" height="1.5" fill="#2563eb" opacity="0.85"><title>2026-04-13 | ETH buy 0.00 usd | reason=both_weak_btc_defensive</title></rect>
<rect x="1284.5646788990825" y="707.5" width="6.1000000000000005" height="1.5" fill="#2563eb" opacity="0.85"><title>2026-04-20 | ETH buy 0.00 usd | reason=both_weak_btc_defensive</title></rect>
<rect x="1295.7573394495414" y="707.5" width="6.1000000000000005" height="1.5" fill="#2563eb" opacity="0.85"><title>2026-04-27 | ETH buy 0.00 usd | reason=both_weak_btc_defensive</title></rect>
<rect x="1306.95" y="707.5" width="6.1000000000000005" height="1.5" fill="#2563eb" opacity="0.85"><title>2026-05-04 | ETH buy 0.00 usd | reason=both_weak_btc_defensive</title></rect>
<text x="24" y="707.5" transform="rotate(-90 24,707.5)" text-anchor="middle" font-family="monospace" font-size="14" fill="#0f172a">ETH weekly trade usd</text>
<rect x="1040" y="478" width="14" height="10" fill="#ea580c" opacity="0.85"/>
<text x="1062" y="488" font-family="monospace" font-size="11" fill="#0f172a">BTC buy</text>
<rect x="1190" y="478" width="14" height="10" fill="#dc2626" opacity="0.85"/>
<text x="1212" y="488" font-family="monospace" font-size="11" fill="#0f172a">BTC sell</text>
<rect x="1040" y="498" width="14" height="10" fill="#2563eb" opacity="0.85"/>
<text x="1062" y="508" font-family="monospace" font-size="11" fill="#0f172a">ETH buy</text>
<rect x="1190" y="498" width="14" height="10" fill="#7c3aed" opacity="0.85"/>
<text x="1212" y="508" font-family="monospace" font-size="11" fill="#0f172a">ETH sell</text>
</svg>