<svg xmlns="http://www.w3.org/2000/svg" width="1400" height="800">
<rect width="1400" height="800" fill="#f8fafc"/>
<text x="700.0" y="42" text-anchor="middle" font-family="monospace" font-size="24" fill="#0f172a">budgeted_btc_defensive_eth_aggressive | weekly | start=2024-01-01 | return=14.77%</text>
<line x1="90" y1="420" x2="1310" y2="420" stroke="#334155" stroke-width="2"/>
<line x1="90" y1="90" x2="90" y2="420" stroke="#334155" stroke-width="2"/>
<line x1="90.0" y1="420" x2="90.0" y2="90" stroke="#94a3b8" stroke-width="1.2"/>
<line x1="90.0" y1="605" x2="90.0" y2="480" stroke="#94a3b8" stroke-width="1.2"/>
<line x1="90.0" y1="770" x2="90.0" y2="645" stroke="#94a3b8" stroke-width="1.2"/>
<text x="90.0" y="788" text-anchor="middle" font-family="monospace" font-size="11" fill="#334155">2024-01</text>
<line x1="140.0" y1="420" x2="140.0" y2="90" stroke="#94a3b8" stroke-width="1.2"/>
<line x1="140.0" y1="605" x2="140.0" y2="480" stroke="#94a3b8" stroke-width="1.2"/>
<line x1="140.0" y1="770" x2="140.0" y2="645" stroke="#94a3b8" stroke-width="1.2"/>
<text x="140.0" y="788" text-anchor="middle" font-family="monospace" font-size="11" fill="#334155">2024-02</text>
<line x1="180.0" y1="420" x2="180.0" y2="90" stroke="#94a3b8" stroke-width="1.2"/>
<line x1="180.0" y1="605" x2="180.0" y2="480" stroke="#94a3b8" stroke-width="1.2"/>
<line x1="180.0" y1="770" x2="180.0" y2="645" stroke="#94a3b8" stroke-width="1.2"/>
<text x="180.0" y="788" text-anchor="middle" font-family="monospace" font-size="11" fill="#334155">2024-03</text>
<line x1="220.0" y1="420" x2="220.0" y2="90" stroke="#94a3b8" stroke-width="1.2"/>
<line x1="220.0" y1="605" x2="220.0" y2="480" stroke="#94a3b8" stroke-width="1.2"/>
<line x1="220.0" y1="770" x2="220.0" y2="645" stroke="#94a3b8" stroke-width="1.2"/>
<text x="220.0" y="788" text-anchor="middle" font-family="monospace" font-size="11" fill="#334155">2024-04</text>
<line x1="270.0" y1="420" x2="270.0" y2="90" stroke="#94a3b8" stroke-width="1.2"/>
<line x1="270.0" y1="605" x2="270.0" y2="480" stroke="#94a3b8" stroke-width="1.2"/>
<line x1="270.0" y1="770" x2="270.0" y2="645" stroke="#94a3b8" stroke-width="1.2"/>
<text x="270.0" y="788" text-anchor="middle" font-family="monospace" font-size="11" fill="#334155">2024-05</text>
<line x1="310.0" y1="420" x2="310.0" y2="90" stroke="#94a3b8" stroke-width="1.2"/>
<line x1="310.0" y1="605" x2="310.0" y2="480" stroke="#94a3b8" stroke-width="1.2"/>
<line x1="310.0" y1="770" x2="310.0" y2="645" stroke="#94a3b8" stroke-width="1.2"/>
<text x="310.0" y="788" text-anchor="middle" font-family="monospace" font-size="11" fill="#334155">2024-06</text>
<line x1="350.0" y1="420" x2="350.0" y2="90" stroke="#94a3b8" stroke-width="1.2"/>
<line x1="350.0" y1="605" x2="350.0" y2="480" stroke="#94a3b8" stroke-width="1.2"/>
<line x1="350.0" y1="770" x2="350.0" y2="645" stroke="#94a3b8" stroke-width="1.2"/>
<text x="350.0" y="788" text-anchor="middle" font-family="monospace" font-size="11" fill="#334155">2024-07</text>
<line x1="400.0" y1="420" x2="400.0" y2="90" stroke="#94a3b8" stroke-width="1.2"/>
<line x1="400.0" y1="605" x2="400.0" y2="480" stroke="#94a3b8" stroke-width="1.2"/>
<line x1="400.0" y1="770" x2="400.0" y2="645" stroke="#94a3b8" stroke-width="1.2"/>
<text x="400.0" y="788" text-anchor="middle" font-family="monospace" font-size="11" fill="#334155">2024-08</text>
<line x1="440.0" y1="420" x2="440.0" y2="90" stroke="#94a3b8" stroke-width="1.2"/>
<line x1="440.0" y1="605" x2="440.0" y2="480" stroke="#94a3b8" stroke-width="1.2"/>
<line x1="440.0" y1="770" x2="440.0" y2="645" stroke="#94a3b8" stroke-width="1.2"/>
<text x="440.0" y="788" text-anchor="middle" font-family="monospace" font-size="11" fill="#334155">2024-09</text>
<line x1="489.99999999999994" y1="420" x2="489.99999999999994" y2="90" stroke="#94a3b8" stroke-width="1.2"/>
<line x1="489.99999999999994" y1="605" x2="489.99999999999994" y2="480" stroke="#94a3b8" stroke-width="1.2"/>
<line x1="489.99999999999994" y1="770" x2="489.99999999999994" y2="645" stroke="#94a3b8" stroke-width="1.2"/>
<text x="489.99999999999994" y="788" text-anchor="middle" font-family="monospace" font-size="11" fill="#334155">2024-10</text>
<line x1="530.0" y1="420" x2="530.0" y2="90" stroke="#94a3b8" stroke-width="1.2"/>
<line x1="530.0" y1="605" x2="530.0" y2="480" stroke="#94a3b8" stroke-width="1.2"/>
<line x1="530.0" y1="770" x2="530.0" y2="645" stroke="#94a3b8" stroke-width="1.2"/>
<text x="530.0" y="788" text-anchor="middle" font-family="monospace" font-size="11" fill="#334155">2024-11</text>
<line x1="570.0" y1="420" x2="570.0" y2="90" stroke="#94a3b8" stroke-width="1.2"/>
<line x1="570.0" y1="605" x2="570.0" y2="480" stroke="#94a3b8" stroke-width="1.2"/>
<line x1="570.0" y1="770" x2="570.0" y2="645" stroke="#94a3b8" stroke-width="1.2"/>
<text x="570.0" y="788" text-anchor="middle" font-family="monospace" font-size="11" fill="#334155">2024-12</text>
<line x1="620.0" y1="420" x2="620.0" y2="90" stroke="#94a3b8" stroke-width="1.2"/>
<line x1="620.0" y1="605" x2="620.0" y2="480" stroke="#94a3b8" stroke-width="1.2"/>
<line x1="620.0" y1="770" x2="620.0" y2="645" stroke="#94a3b8" stroke-width="1.2"/>
<text x="620.0" y="788" text-anchor="middle" font-family="monospace" font-size="11" fill="#334155">2025-01</text>
<line x1="660.0" y1="420" x2="660.0" y2="90" stroke="#94a3b8" stroke-width="1.2"/>
<line x1="660.0" y1="605" x2="660.0" y2="480" stroke="#94a3b8" stroke-width="1.2"/>
<line x1="660.0" y1="770" x2="660.0" y2="645" stroke="#94a3b8" stroke-width="1.2"/>
<text x="660.0" y="788" text-anchor="middle" font-family="monospace" font-size="11" fill="#334155">2025-02</text>
<line x1="700.0" y1="420" x2="700.0" y2="90" stroke="#94a3b8" stroke-width="1.2"/>
<line x1="700.0" y1="605" x2="700.0" y2="480" stroke="#94a3b8" stroke-width="1.2"/>
<line x1="700.0" y1="770" x2="700.0" y2="645" stroke="#94a3b8" stroke-width="1.2"/>
<text x="700.0" y="788" text-anchor="middle" font-family="monospace" font-size="11" fill="#334155">2025-03</text>
<line x1="750.0" y1="420" x2="750.0" y2="90" stroke="#94a3b8" stroke-width="1.2"/>
<line x1="750.0" y1="605" x2="750.0" y2="480" stroke="#94a3b8" stroke-width="1.2"/>
<line x1="750.0" y1="770" x2="750.0" y2="645" stroke="#94a3b8" stroke-width="1.2"/>
<text x="750.0" y="788" text-anchor="middle" font-family="monospace" font-size="11" fill="#334155">2025-04</text>
<line x1="790.0" y1="420" x2="790.0" y2="90" stroke="#94a3b8" stroke-width="1.2"/>
<line x1="790.0" y1="605" x2="790.0" y2="480" stroke="#94a3b8" stroke-width="1.2"/>
<line x1="790.0" y1="770" x2="790.0" y2="645" stroke="#94a3b8" stroke-width="1.2"/>
<text x="790.0" y="788" text-anchor="middle" font-family="monospace" font-size="11" fill="#334155">2025-05</text>
<line x1="830.0" y1="420" x2="830.0" y2="90" stroke="#94a3b8" stroke-width="1.2"/>
<line x1="830.0" y1="605" x2="830.0" y2="480" stroke="#94a3b8" stroke-width="1.2"/>
<line x1="830.0" y1="770" x2="830.0" y2="645" stroke="#94a3b8" stroke-width="1.2"/>
<text x="830.0" y="788" text-anchor="middle" font-family="monospace" font-size="11" fill="#334155">2025-06</text>
<line x1="880.0000000000001" y1="420" x2="880.0000000000001" y2="90" stroke="#94a3b8" stroke-width="1.2"/>
<line x1="880.0000000000001" y1="605" x2="880.0000000000001" y2="480" stroke="#94a3b8" stroke-width="1.2"/>
<line x1="880.0000000000001" y1="770" x2="880.0000000000001" y2="645" stroke="#94a3b8" stroke-width="1.2"/>
<text x="880.0000000000001" y="788" text-anchor="middle" font-family="monospace" font-size="11" fill="#334155">2025-07</text>
<line x1="920.0" y1="420" x2="920.0" y2="90" stroke="#94a3b8" stroke-width="1.2"/>
<line x1="920.0" y1="605" x2="920.0" y2="480" stroke="#94a3b8" stroke-width="1.2"/>
<line x1="920.0" y1="770" x2="920.0" y2="645" stroke="#94a3b8" stroke-width="1.2"/>
<text x="920.0" y="788" text-anchor="middle" font-family="monospace" font-size="11" fill="#334155">2025-08</text>
<line x1="960.0" y1="420" x2="960.0" y2="90" stroke="#94a3b8" stroke-width="1.2"/>
<line x1="960.0" y1="605" x2="960.0" y2="480" stroke="#94a3b8" stroke-width="1.2"/>
<line x1="960.0" y1="770" x2="960.0" y2="645" stroke="#94a3b8" stroke-width="1.2"/>
<text x="960.0" y="788" text-anchor="middle" font-family="monospace" font-size="11" fill="#334155">2025-09</text>
<line x1="1009.9999999999999" y1="420" x2="1009.9999999999999" y2="90" stroke="#94a3b8" stroke-width="1.2"/>
<line x1="1009.9999999999999" y1="605" x2="1009.9999999999999" y2="480" stroke="#94a3b8" stroke-width="1.2"/>
<line x1="1009.9999999999999" y1="770" x2="1009.9999999999999" y2="645" stroke="#94a3b8" stroke-width="1.2"/>
<text x="1009.9999999999999" y="788" text-anchor="middle" font-family="monospace" font-size="11" fill="#334155">2025-10</text>
<line x1="1050.0" y1="420" x2="1050.0" y2="90" stroke="#94a3b8" stroke-width="1.2"/>
<line x1="1050.0" y1="605" x2="1050.0" y2="480" stroke="#94a3b8" stroke-width="1.2"/>
<line x1="1050.0" y1="770" x2="1050.0" y2="645" stroke="#94a3b8" stroke-width="1.2"/>
<text x="1050.0" y="788" text-anchor="middle" font-family="monospace" font-size="11" fill="#334155">2025-11</text>
<line x1="1090.0" y1="420" x2="1090.0" y2="90" stroke="#94a3b8" stroke-width="1.2"/>
<line x1="1090.0" y1="605" x2="1090.0" y2="480" stroke="#94a3b8" stroke-width="1.2"/>
<line x1="1090.0" y1="770" x2="1090.0" y2="645" stroke="#94a3b8" stroke-width="1.2"/>
<text x="1090.0" y="788" text-anchor="middle" font-family="monospace" font-size="11" fill="#334155">2025-12</text>
<line x1="1140.0" y1="420" x2="1140.0" y2="90" stroke="#94a3b8" stroke-width="1.2"/>
<line x1="1140.0" y1="605" x2="1140.0" y2="480" stroke="#94a3b8" stroke-width="1.2"/>
<line x1="1140.0" y1="770" x2="1140.0" y2="645" stroke="#94a3b8" stroke-width="1.2"/>
<text x="1140.0" y="788" text-anchor="middle" font-family="monospace" font-size="11" fill="#334155">2026-01</text>
<line x1="1180.0" y1="420" x2="1180.0" y2="90" stroke="#94a3b8" stroke-width="1.2"/>
<line x1="1180.0" y1="605" x2="1180.0" y2="480" stroke="#94a3b8" stroke-width="1.2"/>
<line x1="1180.0" y1="770" x2="1180.0" y2="645" stroke="#94a3b8" stroke-width="1.2"/>
<text x="1180.0" y="788" text-anchor="middle" font-family="monospace" font-size="11" fill="#334155">2026-02</text>
<line x1="1220.0" y1="420" x2="1220.0" y2="90" stroke="#94a3b8" stroke-width="1.2"/>
<line x1="1220.0" y1="605" x2="1220.0" y2="480" stroke="#94a3b8" stroke-width="1.2"/>
<line x1="1220.0" y1="770" x2="1220.0" y2="645" stroke="#94a3b8" stroke-width="1.2"/>
<text x="1220.0" y="788" text-anchor="middle" font-family="monospace" font-size="11" fill="#334155">2026-03</text>
<line x1="1270.0" y1="420" x2="1270.0" y2="90" stroke="#94a3b8" stroke-width="1.2"/>
<line x1="1270.0" y1="605" x2="1270.0" y2="480" stroke="#94a3b8" stroke-width="1.2"/>
<line x1="1270.0" y1="770" x2="1270.0" y2="645" stroke="#94a3b8" stroke-width="1.2"/>
<text x="1270.0" y="788" text-anchor="middle" font-family="monospace" font-size="11" fill="#334155">2026-04</text>
<line x1="1310.0" y1="420" x2="1310.0" y2="90" stroke="#94a3b8" stroke-width="1.2"/>
<line x1="1310.0" y1="605" x2="1310.0" y2="480" stroke="#94a3b8" stroke-width="1.2"/>
<line x1="1310.0" y1="770" x2="1310.0" y2="645" stroke="#94a3b8" stroke-width="1.2"/>
<text x="1310.0" y="788" text-anchor="middle" font-family="monospace" font-size="11" fill="#334155">2026-05</text>
<line x1="90" y1="420.0" x2="1310" y2="420.0" stroke="#cbd5e1" stroke-width="1"/>
<text x="78" y="424.0" text-anchor="end" font-family="monospace" font-size="12" fill="#475569">0</text>
<line x1="90" y1="354.0" x2="1310" y2="354.0" stroke="#cbd5e1" stroke-width="1"/>
<text x="78" y="358.0" text-anchor="end" font-family="monospace" font-size="12" fill="#475569">3766</text>
<line x1="90" y1="288.0" x2="1310" y2="288.0" stroke="#cbd5e1" stroke-width="1"/>
<text x="78" y="292.0" text-anchor="end" font-family="monospace" font-size="12" fill="#475569">7533</text>
<line x1="90" y1="222.0" x2="1310" y2="222.0" stroke="#cbd5e1" stroke-width="1"/>
<text x="78" y="226.0" text-anchor="end" font-family="monospace" font-size="12" fill="#475569">11299</text>
<line x1="90" y1="156.0" x2="1310" y2="156.0" stroke="#cbd5e1" stroke-width="1"/>
<text x="78" y="160.0" text-anchor="end" font-family="monospace" font-size="12" fill="#475569">15065</text>
<line x1="90" y1="90.0" x2="1310" y2="90.0" stroke="#cbd5e1" stroke-width="1"/>
<text x="78" y="94.0" text-anchor="end" font-family="monospace" font-size="12" fill="#475569">18831</text>
<polygon points="90.0,248.70370070696646 100.0,252.6465822763713 110.0,256.5894638457762 120.0,262.28473722380545 130.0,266.2276187932103 140.0,270.17050036261514 150.0,274.11338193202005 160.0,278.0562635014249 170.0,281.99914507082974 180.0,285.94202664023464 190.0,289.8849082096395 200.0,293.82778977904434 210.0,297.77067134844924 220.0,301.7135529178541 230.0,305.65643448725893 240.0,309.59931605666384 250.0,313.5421976260687 260.0,317.48507919547353 270.0,321.4279607648784 280.0,325.3708423342833 290.0,329.3137239036881 300.0,333.256605473093 310.0,337.1994870424978 320.0,341.1423686119027 330.0,345.0852501813076 340.0,350.78052355933687 350.0,354.7234051287417 360.0,362.6091682675514 370.0,366.5520498369563 380.0,370.49493140636116 390.0,374.437812975766 400.0,376.97331216357145 410.0,378.07874007976596 420.0,378.4159101918129 429.99999999999994,378.4159101918129 440.0,378.5584119990342 450.0,379.2973471818252 460.0,380.2751660479374 470.0,380.2751660479374 480.0,380.2751660479374 489.99999999999994,380.75023731361813 500.0,384.69311888302303 510.0,388.09385755754965 520.0,390.26788384177854 530.0,392.19744753604607 540.0,392.19744753604607 550.0,392.41898581314433 560.0,392.41898581314433 570.0,391.7507494108691 580.0,391.0935307187968 590.0,390.2740827619595 600.0,390.40246092151904 610.0,390.47806809713217 620.0,389.85058138743074 630.0,391.6734177176996 640.0,393.2257386028615 650.0,394.76945759540325 660.0,397.5264791172211 670.0,399.96248787708583 680.0,400.5533278648289 690.0,401.7738116694737 700.0,404.17886159059987 710.0,404.17886159059987 720.0,404.17886159059987 730.0,406.35684007407804 740.0,406.35684007407804 750.0,407.6651144498818 760.0000000000001,408.7026156889838 769.9999999999999,410.16949224424457 780.0,413.330448643015 790.0,414.9961251104754 800.0,414.9961251104754 810.0,414.9961251104754 820.0,414.9961251104754 830.0,414.9961251104754 840.0,418.9390066798803 850.0,418.9390066798803 860.0,418.9390066798803 870.0,418.9390066798803 880.0000000000001,418.9390066798803 889.9999999999999,420.0 900.0,416.5185181637577 910.0,413.2902537394557 920.0,410.39997819207923 930.0,407.4740380215375 940.0,404.7807874709016 950.0,402.3695379555989 960.0,400.18974614511154 970.0,398.14639545199793 980.0,396.13026526122167 990.0,394.4425005540157 1000.0000000000001,392.86045953646044 1009.9999999999999,391.0716227735436 1020.0,389.7335944814268 1030.0,389.7335944814268 1040.0,388.5681086773582 1050.0,388.5681086773582 1060.0,388.5681086773582 1070.0,388.5681086773582 1080.0,388.7024619591123 1090.0,388.7024619591123 1100.0,389.17297515430516 1110.0,389.61671145387265 1120.0,389.61671145387265 1130.0,389.61671145387265 1140.0,389.61671145387265 1150.0,389.61671145387265 1160.0,389.61671145387265 1170.0,389.61671145387265 1180.0,389.61671145387265 1190.0,389.61671145387265 1200.0,389.61671145387265 1210.0,389.61671145387265 1220.0,389.61671145387265 1230.0,389.61671145387265 1240.0,389.61671145387265 1250.0,389.61671145387265 1260.0,389.61671145387265 1270.0,389.61671145387265 1280.0,389.61671145387265 1290.0,389.61671145387265 1300.0,389.61671145387265 1310.0,389.61671145387265 1310.0,420.0 1300.0,420.0 1290.0,420.0 1280.0,420.0 1270.0,420.0 1260.0,420.0 1250.0,420.0 1240.0,420.0 1230.0,420.0 1220.0,420.0 1210.0,420.0 1200.0,420.0 1190.0,420.0 1180.0,420.0 1170.0,420.0 1160.0,420.0 1150.0,420.0 1140.0,420.0 1130.0,420.0 1120.0,420.0 1110.0,420.0 1100.0,420.0 1090.0,420.0 1080.0,420.0 1070.0,420.0 1060.0,420.0 1050.0,420.0 1040.0,420.0 1030.0,420.0 1020.0,420.0 1009.9999999999999,420.0 1000.0000000000001,420.0 990.0,420.0 980.0,420.0 970.0,420.0 960.0,420.0 950.0,420.0 940.0,420.0 930.0,420.0 920.0,420.0 910.0,420.0 900.0,420.0 889.9999999999999,420.0 880.0000000000001,420.0 870.0,420.0 860.0,420.0 850.0,420.0 840.0,420.0 830.0,420.0 820.0,420.0 810.0,420.0 800.0,420.0 790.0,420.0 780.0,420.0 769.9999999999999,420.0 760.0000000000001,420.0 750.0,420.0 740.0,420.0 730.0,420.0 720.0,420.0 710.0,420.0 700.0,420.0 690.0,420.0 680.0,420.0 670.0,420.0 660.0,420.0 650.0,420.0 640.0,420.0 630.0,420.0 620.0,420.0 610.0,420.0 600.0,420.0 590.0,420.0 580.0,420.0 570.0,420.0 560.0,420.0 550.0,420.0 540.0,420.0 530.0,420.0 520.0,420.0 510.0,420.0 500.0,420.0 489.99999999999994,420.0 480.0,420.0 470.0,420.0 460.0,420.0 450.0,420.0 440.0,420.0 429.99999999999994,420.0 420.0,420.0 410.0,420.0 400.0,420.0 390.0,420.0 380.0,420.0 370.0,420.0 360.0,420.0 350.0,420.0 340.0,420.0 330.0,420.0 320.0,420.0 310.0,420.0 300.0,420.0 290.0,420.0 280.0,420.0 270.0,420.0 260.0,420.0 250.0,420.0 240.0,420.0 230.0,420.0 220.0,420.0 210.0,420.0 200.0,420.0 190.0,420.0 180.0,420.0 170.0,420.0 160.0,420.0 150.0,420.0 140.0,420.0 130.0,420.0 120.0,420.0 110.0,420.0 100.0,420.0 90.0,420.0" fill="#facc15" fill-opacity="0.70" stroke="#facc15" stroke-width="1.2"/>
<polygon points="90.0,247.1265480792045 100.0,249.5058514358801 110.0,251.23838225962697 120.0,253.65513439906735 130.0,255.99816309532258 140.0,258.4455980828993 150.0,258.9644423646248 160.0,259.3168264633947 170.0,259.80644548335385 180.0,258.9959135103851 190.0,257.75612680248116 200.0,264.43246850064065 210.0,266.210735203627 220.0,268.93069862575686 230.0,269.53181914620046 240.0,277.68042378918864 250.0,279.0347272743857 260.0,281.2488003753034 270.0,285.3369056763256 280.0,289.0281105480693 290.0,282.63142984875384 300.0,281.6807012072642 310.0,285.6985420841402 320.0,289.040619182148 330.0,293.23364629403284 340.0,295.5821898263721 350.0,296.10389985663994 360.0,310.95963725779313 370.0,304.9335182446334 380.0,307.11648127935734 390.0,310.05389991762735 400.0,329.9626926695502 410.0,325.19016648059727 420.0,327.1947930904366 429.99999999999994,326.3475659217271 440.0,329.124264592949 450.0,332.585887935727 460.0,333.87020071504963 470.0,326.7633088122767 480.0,327.68222502228787 489.99999999999994,331.3132076879844 500.0,329.45194076135255 510.0,330.1843189597118 520.0,332.350264108686 530.0,336.1576219597588 540.0,313.27457628701853 550.0,317.16884151281835 560.0,312.35000536461985 570.0,306.727730103479 580.0,304.8868358795904 590.0,298.2387054662785 600.0,311.3825279816623 610.0,312.82647524256106 620.0,304.7569788124936 630.0,317.5060016221969 640.0,314.092873930651 650.0,316.4682590008475 660.0,323.80909633942565 670.0,329.47795341177783 680.0,327.3005580960478 690.0,333.46034696093835 700.0,343.40342359557997 710.0,351.4239713328263 720.0,349.6648335206558 730.0,345.26868699970083 740.0,352.88673143460136 750.0,360.7923710598483 760.0000000000001,358.63717400797884 769.9999999999999,360.00839919838245 780.0,352.9994062281363 790.0,352.3328444905918 800.0,329.07084660621797 810.0,327.9388692050248 820.0,326.71290462909747 830.0,325.1646983112247 840.0,322.68591568087464 850.0,327.5687688738097 860.0,332.3170043673365 870.0,329.6910617775468 880.0000000000001,327.67251424748696 889.9999999999999,310.7232484406624 900.0,281.8232728148797 910.0,278.9311685771138 920.0,280.2651837627693 930.0,261.1888104082242 940.0,256.6948476291723 950.0,253.37364571562404 960.0,254.4031105285998 970.0,253.68282315952018 980.0,245.33656794749723 990.0,255.22890782382223 1000.0000000000001,253.9466138154447 1009.9999999999999,237.60129316061932 1020.0,251.3950347945665 1030.0,260.00785013996193 1040.0,254.87280070504525 1050.0,271.65634653874827 1060.0,272.8371849303194 1070.0,290.3145017124091 1080.0,292.8923045925505 1090.0,297.89894255450486 1100.0,287.7704658118329 1110.0,293.4233251396753 1120.0,292.01858499207657 1130.0,294.4036254367175 1140.0,284.96081224773104 1150.0,289.28471210145074 1160.0,286.1835105328204 1170.0,294.64180498588297 1180.0,313.51899448609254 1190.0,321.34841705048655 1200.0,324.8059144569694 1210.0,329.4059598097897 1220.0,323.82561415992717 1230.0,324.9386330340929 1240.0,313.26491466729607 1250.0,319.79473356083474 1260.0,323.9193933012198 1270.0,321.23289672418827 1280.0,312.70223981953995 1290.0,314.5028642314192 1300.0,314.87116639531956 1310.0,313.45928735115183 1310.0,389.61671145387265 1300.0,389.61671145387265 1290.0,389.61671145387265 1280.0,389.61671145387265 1270.0,389.61671145387265 1260.0,389.61671145387265 1250.0,389.61671145387265 1240.0,389.61671145387265 1230.0,389.61671145387265 1220.0,389.61671145387265 1210.0,389.61671145387265 1200.0,389.61671145387265 1190.0,389.61671145387265 1180.0,389.61671145387265 1170.0,389.61671145387265 1160.0,389.61671145387265 1150.0,389.61671145387265 1140.0,389.61671145387265 1130.0,389.61671145387265 1120.0,389.61671145387265 1110.0,389.61671145387265 1100.0,389.17297515430516 1090.0,388.7024619591123 1080.0,388.7024619591123 1070.0,388.5681086773582 1060.0,388.5681086773582 1050.0,388.5681086773582 1040.0,388.5681086773582 1030.0,389.7335944814268 1020.0,389.7335944814268 1009.9999999999999,391.0716227735436 1000.0000000000001,392.86045953646044 990.0,394.4425005540157 980.0,396.13026526122167 970.0,398.14639545199793 960.0,400.18974614511154 950.0,402.3695379555989 940.0,404.7807874709016 930.0,407.4740380215375 920.0,410.39997819207923 910.0,413.2902537394557 900.0,416.5185181637577 889.9999999999999,420.0 880.0000000000001,418.9390066798803 870.0,418.9390066798803 860.0,418.9390066798803 850.0,418.9390066798803 840.0,418.9390066798803 830.0,414.9961251104754 820.0,414.9961251104754 810.0,414.9961251104754 800.0,414.9961251104754 790.0,414.9961251104754 780.0,413.330448643015 769.9999999999999,410.16949224424457 760.0000000000001,408.7026156889838 750.0,407.6651144498818 740.0,406.35684007407804 730.0,406.35684007407804 720.0,404.17886159059987 710.0,404.17886159059987 700.0,404.17886159059987 690.0,401.7738116694737 680.0,400.5533278648289 670.0,399.96248787708583 660.0,397.5264791172211 650.0,394.76945759540325 640.0,393.2257386028615 630.0,391.6734177176996 620.0,389.85058138743074 610.0,390.47806809713217 600.0,390.40246092151904 590.0,390.2740827619595 580.0,391.0935307187968 570.0,391.7507494108691 560.0,392.41898581314433 550.0,392.41898581314433 540.0,392.19744753604607 530.0,392.19744753604607 520.0,390.26788384177854 510.0,388.09385755754965 500.0,384.69311888302303 489.99999999999994,380.75023731361813 480.0,380.2751660479374 470.0,380.2751660479374 460.0,380.2751660479374 450.0,379.2973471818252 440.0,378.5584119990342 429.99999999999994,378.4159101918129 420.0,378.4159101918129 410.0,378.07874007976596 400.0,376.97331216357145 390.0,374.437812975766 380.0,370.49493140636116 370.0,366.5520498369563 360.0,362.6091682675514 350.0,354.7234051287417 340.0,350.78052355933687 330.0,345.0852501813076 320.0,341.1423686119027 310.0,337.1994870424978 300.0,333.256605473093 290.0,329.3137239036881 280.0,325.3708423342833 270.0,321.4279607648784 260.0,317.48507919547353 250.0,313.5421976260687 240.0,309.59931605666384 230.0,305.65643448725893 220.0,301.7135529178541 210.0,297.77067134844924 200.0,293.82778977904434 190.0,289.8849082096395 180.0,285.94202664023464 170.0,281.99914507082974 160.0,278.0562635014249 150.0,274.11338193202005 140.0,270.17050036261514 130.0,266.2276187932103 120.0,262.28473722380545 110.0,256.5894638457762 100.0,252.6465822763713 90.0,248.70370070696646" fill="#2563eb" fill-opacity="0.70" stroke="#2563eb" stroke-width="1.2"/>
<polygon points="90.0,244.76081913756158 100.0,244.62597262656402 110.0,244.85484678019148 120.0,245.72383555668932 130.0,244.94222291633574 140.0,245.18949165483383 150.0,241.0790202805711 160.0,238.7991365992537 170.0,236.22919726508775 180.0,227.07505643432964 190.0,222.11236928182274 200.0,228.64627012432106 210.0,226.8535113572066 220.0,227.71942380739512 230.0,224.80703920651592 240.0,235.6919003554599 250.0,232.42595063438702 260.0,234.37563358685173 270.0,236.59916379625128 280.0,238.10201381450938 290.0,222.4614008416899 300.0,221.277353697862 310.0,223.4325197751224 320.0,224.1634609837418 330.0,229.2004532091275 340.0,237.5387593771161 350.0,233.61644956738726 360.0,246.8755549256026 370.0,229.77080952233732 380.0,227.31104324849895 390.0,230.51599559341454 400.0,263.10624378111856 410.0,250.63328791797997 420.0,252.18281501546718 429.99999999999994,247.06176257208654 440.0,254.50699961027598 450.0,260.60045993238424 460.0,260.4276878931465 470.0,246.84807661608878 480.0,247.8144583245407 489.99999999999994,252.83454491948373 500.0,243.73057633170546 510.0,241.29977046226443 520.0,240.0627671781301 530.0,246.66420259503352 540.0,196.1135172533721 550.0,197.69867142360775 560.0,189.60707352504045 570.0,180.4402052313611 580.0,176.90343839976563 590.0,159.0028750555387 600.0,187.0220582964822 610.0,191.27940112355648 620.0,170.89656150575982 630.0,193.8186159091001 640.0,180.40780588249 650.0,182.89183210774038 660.0,191.02083805728788 670.0,201.94544822027876 680.0,201.9440301458952 690.0,213.6935576014632 700.0,230.63819742144366 710.0,248.62686233663257 720.0,239.7130742904947 730.0,230.72023294236917 740.0,244.86813299599575 750.0,257.21615015420275 760.0000000000001,247.9276882011401 769.9999999999999,245.46197373748893 780.0,228.61036172636946 790.0,228.34766082036975 800.0,194.52882089625479 810.0,189.71138110020382 820.0,183.44907904193536 830.0,186.5592892338297 840.0,178.3268705083161 850.0,187.72206817975015 860.0,194.34706948385096 870.0,189.4257765681169 880.0000000000001,185.9719905141833 889.9999999999999,153.84899349009794 900.0,129.87651364647513 910.0,127.76808573321722 920.0,134.41206264833352 930.0,112.17150706871837 940.0,112.0560409239219 950.0,117.60112353078534 960.0,120.8142688300482 970.0,117.65241654127698 980.0,106.29845378196495 990.0,120.22137614097488 1000.0000000000001,117.77991889717191 1009.9999999999999,90.0 1020.0,115.64179414722292 1030.0,129.79662687406312 1040.0,121.1001462037969 1050.0,146.71190636392976 1060.0,148.57118153785314 1070.0,182.3220462739249 1080.0,189.26151730033027 1090.0,196.5973243107063 1100.0,180.86588291749464 1110.0,191.07078107095737 1120.0,187.13229802464156 1130.0,191.22996328714834 1140.0,173.78148568906877 1150.0,181.28190016790472 1160.0,176.55621653408693 1170.0,190.1188433451297 1180.0,220.34628952040595 1190.0,238.31989828079492 1200.0,243.25061853525784 1210.0,252.86344243280854 1220.0,242.3012546625634 1230.0,243.88784244604076 1240.0,224.56967677189616 1250.0,235.8515767996295 1260.0,244.87614214292483 1270.0,239.68295427253994 1280.0,224.52869284421934 1290.0,224.64882510257243 1300.0,223.24105435318918 1310.0,218.8824572019741 1310.0,313.45928735115183 1300.0,314.87116639531956 1290.0,314.5028642314192 1280.0,312.70223981953995 1270.0,321.23289672418827 1260.0,323.9193933012198 1250.0,319.79473356083474 1240.0,313.26491466729607 1230.0,324.9386330340929 1220.0,323.82561415992717 1210.0,329.4059598097897 1200.0,324.8059144569694 1190.0,321.34841705048655 1180.0,313.51899448609254 1170.0,294.64180498588297 1160.0,286.1835105328204 1150.0,289.28471210145074 1140.0,284.96081224773104 1130.0,294.4036254367175 1120.0,292.01858499207657 1110.0,293.4233251396753 1100.0,287.7704658118329 1090.0,297.89894255450486 1080.0,292.8923045925505 1070.0,290.3145017124091 1060.0,272.8371849303194 1050.0,271.65634653874827 1040.0,254.87280070504525 1030.0,260.00785013996193 1020.0,251.3950347945665 1009.9999999999999,237.60129316061932 1000.0000000000001,253.9466138154447 990.0,255.22890782382223 980.0,245.33656794749723 970.0,253.68282315952018 960.0,254.4031105285998 950.0,253.37364571562404 940.0,256.6948476291723 930.0,261.1888104082242 920.0,280.2651837627693 910.0,278.9311685771138 900.0,281.8232728148797 889.9999999999999,310.7232484406624 880.0000000000001,327.67251424748696 870.0,329.6910617775468 860.0,332.3170043673365 850.0,327.5687688738097 840.0,322.68591568087464 830.0,325.1646983112247 820.0,326.71290462909747 810.0,327.9388692050248 800.0,329.07084660621797 790.0,352.3328444905918 780.0,352.9994062281363 769.9999999999999,360.00839919838245 760.0000000000001,358.63717400797884 750.0,360.7923710598483 740.0,352.88673143460136 730.0,345.26868699970083 720.0,349.6648335206558 710.0,351.4239713328263 700.0,343.40342359557997 690.0,333.46034696093835 680.0,327.3005580960478 670.0,329.47795341177783 660.0,323.80909633942565 650.0,316.4682590008475 640.0,314.092873930651 630.0,317.5060016221969 620.0,304.7569788124936 610.0,312.82647524256106 600.0,311.3825279816623 590.0,298.2387054662785 580.0,304.8868358795904 570.0,306.727730103479 560.0,312.35000536461985 550.0,317.16884151281835 540.0,313.27457628701853 530.0,336.1576219597588 520.0,332.350264108686 510.0,330.1843189597118 500.0,329.45194076135255 489.99999999999994,331.3132076879844 480.0,327.68222502228787 470.0,326.7633088122767 460.0,333.87020071504963 450.0,332.585887935727 440.0,329.124264592949 429.99999999999994,326.3475659217271 420.0,327.1947930904366 410.0,325.19016648059727 400.0,329.9626926695502 390.0,310.05389991762735 380.0,307.11648127935734 370.0,304.9335182446334 360.0,310.95963725779313 350.0,296.10389985663994 340.0,295.5821898263721 330.0,293.23364629403284 320.0,289.040619182148 310.0,285.6985420841402 300.0,281.6807012072642 290.0,282.63142984875384 280.0,289.0281105480693 270.0,285.3369056763256 260.0,281.2488003753034 250.0,279.0347272743857 240.0,277.68042378918864 230.0,269.53181914620046 220.0,268.93069862575686 210.0,266.210735203627 200.0,264.43246850064065 190.0,257.75612680248116 180.0,258.9959135103851 170.0,259.80644548335385 160.0,259.3168264633947 150.0,258.9644423646248 140.0,258.4455980828993 130.0,255.99816309532258 120.0,253.65513439906735 110.0,251.23838225962697 100.0,249.5058514358801 90.0,247.1265480792045" fill="#f97316" fill-opacity="0.70" stroke="#f97316" stroke-width="1.2"/>
<rect x="1100" y="76" width="16" height="12" fill="#f97316" fill-opacity="0.70" stroke="#f97316"/>
<text x="1124" y="86" font-family="monospace" font-size="12" fill="#0f172a">BTC</text>
<rect x="1100" y="98" width="16" height="12" fill="#2563eb" fill-opacity="0.70" stroke="#2563eb"/>
<text x="1124" y="108" font-family="monospace" font-size="12" fill="#0f172a">ETH</text>
<rect x="1100" y="120" width="16" height="12" fill="#facc15" fill-opacity="0.70" stroke="#facc15"/>
<text x="1124" y="130" font-family="monospace" font-size="12" fill="#0f172a">DAI</text>
<text x="700.0" y="782" text-anchor="middle" font-family="monospace" font-size="16" fill="#0f172a">time</text>
<text x="24" y="255.0" transform="rotate(-90 24,255.0)" text-anchor="middle" font-family="monospace" font-size="16" fill="#0f172a">asset value split (usd)</text>
<line x1="90" y1="605" x2="1310" y2="605" stroke="#334155" stroke-width="2"/>
<line x1="90" y1="480" x2="90" y2="605" stroke="#334155" stroke-width="2"/>
<line x1="90" y1="542.5" x2="1310" y2="542.5" stroke="#64748b" stroke-width="1.5" stroke-dasharray="6 4"/>
<line x1="90" y1="605.0" x2="1310" y2="605.0" stroke="#e2e8f0" stroke-width="1"/>
<text x="78" y="609.0" text-anchor="end" font-family="monospace" font-size="11" fill="#475569">-439</text>
<line x1="90" y1="542.5" x2="1310" y2="542.5" stroke="#e2e8f0" stroke-width="1"/>
<text x="78" y="546.5" text-anchor="end" font-family="monospace" font-size="11" fill="#475569">0</text>
<line x1="90" y1="480.0" x2="1310" y2="480.0" stroke="#e2e8f0" stroke-width="1"/>
<text x="78" y="484.0" text-anchor="end" font-family="monospace" font-size="11" fill="#475569">439</text>
<rect x="87.27235772357723" y="523.2824173904268" width="5.455284552845528" height="19.217582609573242" fill="#ea580c" opacity="0.85"><title>2024-01-01 | BTC buy 135.00 usd | reason=btc_defensive_regime</title></rect>
<rect x="97.27235772357723" y="523.2824173904268" width="5.455284552845528" height="19.217582609573242" fill="#ea580c" opacity="0.85"><title>2024-01-08 | BTC buy 135.00 usd | reason=btc_defensive_regime</title></rect>
<rect x="107.27235772357723" y="526.4853478253556" width="5.455284552845528" height="16.014652174644425" fill="#ea580c" opacity="0.85"><title>2024-01-15 | BTC buy 112.50 usd | reason=balanced_regime</title></rect>
<rect x="117.27235772357723" y="526.3074072456374" width="5.455284552845528" height="16.192592754362636" fill="#ea580c" opacity="0.85"><title>2024-01-22 | BTC buy 113.75 usd | reason=eth_strong_risk_on</title></rect>
<rect x="127.27235772357723" y="523.2824173904268" width="5.455284552845528" height="19.217582609573242" fill="#ea580c" opacity="0.85"><title>2024-01-29 | BTC buy 135.00 usd | reason=btc_defensive_regime</title></rect>
<rect x="137.27235772357724" y="523.2824173904268" width="5.455284552845528" height="19.217582609573242" fill="#ea580c" opacity="0.85"><title>2024-02-05 | BTC buy 135.00 usd | reason=btc_defensive_regime</title></rect>
<rect x="147.27235772357724" y="523.2824173904268" width="5.455284552845528" height="19.217582609573242" fill="#ea580c" opacity="0.85"><title>2024-02-12 | BTC buy 135.00 usd | reason=btc_defensive_regime</title></rect>
<rect x="157.27235772357724" y="526.4853478253556" width="5.455284552845528" height="16.014652174644425" fill="#ea580c" opacity="0.85"><title>2024-02-19 | BTC buy 112.50 usd | reason=balanced_regime</title></rect>
<rect x="167.27235772357724" y="526.4853478253556" width="5.455284552845528" height="16.014652174644425" fill="#ea580c" opacity="0.85"><title>2024-02-26 | BTC buy 112.50 usd | reason=balanced_regime</title></rect>
<rect x="177.27235772357724" y="523.2824173904268" width="5.455284552845528" height="19.217582609573242" fill="#ea580c" opacity="0.85"><title>2024-03-04 | BTC buy 135.00 usd | reason=btc_defensive_regime</title></rect>
<rect x="187.27235772357724" y="526.4853478253556" width="5.455284552845528" height="16.014652174644425" fill="#ea580c" opacity="0.85"><title>2024-03-11 | BTC buy 112.50 usd | reason=balanced_regime</title></rect>
<rect x="197.27235772357724" y="523.2824173904268" width="5.455284552845528" height="19.217582609573242" fill="#ea580c" opacity="0.85"><title>2024-03-18 | BTC buy 135.00 usd | reason=btc_defensive_regime</title></rect>
<rect x="207.27235772357724" y="523.2824173904268" width="5.455284552845528" height="19.217582609573242" fill="#ea580c" opacity="0.85"><title>2024-03-25 | BTC buy 135.00 usd | reason=btc_defensive_regime</title></rect>
<rect x="217.27235772357724" y="526.4853478253556" width="5.455284552845528" height="16.014652174644425" fill="#ea580c" opacity="0.85"><title>2024-04-01 | BTC buy 112.50 usd | reason=balanced_regime</title></rect>
<rect x="227.27235772357724" y="523.2824173904268" width="5.455284552845528" height="19.217582609573242" fill="#ea580c" opacity="0.85"><title>2024-04-08 | BTC buy 135.00 usd | reason=btc_defensive_regime</title></rect>
<rect x="237.27235772357724" y="523.2824173904268" width="5.455284552845528" height="19.217582609573242" fill="#ea580c" opacity="0.85"><title>2024-04-15 | BTC buy 135.00 usd | reason=btc_defensive_regime</title></rect>
<rect x="247.27235772357724" y="523.2824173904268" width="5.455284552845528" height="19.217582609573242" fill="#ea580c" opacity="0.85"><title>2024-04-22 | BTC buy 135.00 usd | reason=btc_defensive_regime</title></rect>
<rect x="257.2723577235772" y="523.2824173904268" width="5.455284552845528" height="19.217582609573242" fill="#ea580c" opacity="0.85"><title>2024-04-29 | BTC buy 135.00 usd | reason=btc_defensive_regime</title></rect>
<rect x="267.2723577235772" y="523.2824173904268" width="5.455284552845528" height="19.217582609573242" fill="#ea580c" opacity="0.85"><title>2024-05-06 | BTC buy 135.00 usd | reason=btc_defensive_regime</title></rect>
<rect x="277.2723577235772" y="523.2824173904268" width="5.455284552845528" height="19.217582609573242" fill="#ea580c" opacity="0.85"><title>2024-05-13 | BTC buy 135.00 usd | reason=btc_defensive_regime</title></rect>
<rect x="287.2723577235772" y="523.2824173904268" width="5.455284552845528" height="19.217582609573242" fill="#ea580c" opacity="0.85"><title>2024-05-20 | BTC buy 135.00 usd | reason=btc_defensive_regime</title></rect>
<rect x="297.2723577235772" y="526.4853478253556" width="5.455284552845528" height="16.014652174644425" fill="#ea580c" opacity="0.85"><title>2024-05-27 | BTC buy 112.50 usd | reason=balanced_regime</title></rect>
<rect x="307.2723577235772" y="523.2824173904268" width="5.455284552845528" height="19.217582609573242" fill="#ea580c" opacity="0.85"><title>2024-06-03 | BTC buy 135.00 usd | reason=btc_defensive_regime</title></rect>
<rect x="317.2723577235772" y="526.4853478253556" width="5.455284552845528" height="16.014652174644425" fill="#ea580c" opacity="0.85"><title>2024-06-10 | BTC buy 112.50 usd | reason=balanced_regime</title></rect>
<rect x="327.2723577235772" y="526.4853478253556" width="5.455284552845528" height="16.014652174644425" fill="#ea580c" opacity="0.85"><title>2024-06-17 | BTC buy 112.50 usd | reason=balanced_regime</title></rect>
<rect x="337.2723577235772" y="542.5" width="5.455284552845528" height="1.5" fill="#ea580c" opacity="0.85"><title>2024-06-24 | BTC buy 0.00 usd | reason=eth_strong_risk_on</title></rect>
<rect x="347.2723577235772" y="526.4853478253556" width="5.455284552845528" height="16.014652174644425" fill="#ea580c" opacity="0.85"><title>2024-07-01 | BTC buy 112.50 usd | reason=balanced_regime</title></rect>
<rect x="357.2723577235772" y="480.0" width="5.455284552845528" height="62.5" fill="#ea580c" opacity="0.85"><title>2024-07-08 | BTC buy 439.05 usd | reason=both_weak_btc_defensive</title></rect>
<rect x="367.2723577235772" y="526.4853478253556" width="5.455284552845528" height="16.014652174644425" fill="#ea580c" opacity="0.85"><title>2024-07-15 | BTC buy 112.50 usd | reason=balanced_regime</title></rect>
<rect x="377.2723577235772" y="531.1957524787725" width="5.455284552845528" height="11.304247521227467" fill="#ea580c" opacity="0.85"><title>2024-07-22 | BTC buy 79.41 usd | reason=balanced_regime</title></rect>
<rect x="387.2723577235772" y="537.1234559198813" width="5.455284552845528" height="5.37654408011872" fill="#ea580c" opacity="0.85"><title>2024-07-29 | BTC buy 37.77 usd | reason=balanced_regime</title></rect>
<rect x="397.2723577235772" y="522.2147526878732" width="5.455284552845528" height="20.285247312126785" fill="#ea580c" opacity="0.85"><title>2024-08-05 | BTC buy 142.50 usd | reason=both_weak_btc_defensive</title></rect>
<rect x="407.2723577235772" y="533.5202509152875" width="5.455284552845528" height="8.979749084712466" fill="#ea580c" opacity="0.85"><title>2024-08-12 | BTC buy 63.08 usd | reason=both_weak_btc_defensive</title></rect>
<rect x="417.2723577235772" y="539.761057948067" width="5.455284552845528" height="2.7389420519330088" fill="#ea580c" opacity="0.85"><title>2024-08-19 | BTC buy 19.24 usd | reason=both_weak_btc_defensive</title></rect>
<rect x="427.27235772357716" y="542.5" width="5.455284552845528" height="1.5" fill="#ea580c" opacity="0.85"><title>2024-08-26 | BTC buy 0.00 usd | reason=both_weak_btc_defensive</title></rect>
<rect x="437.2723577235772" y="542.5" width="5.455284552845528" height="1.5" fill="#ea580c" opacity="0.85"><title>2024-09-02 | BTC buy 0.00 usd | reason=both_weak_btc_defensive</title></rect>
<rect x="447.2723577235772" y="542.5" width="5.455284552845528" height="1.5" fill="#ea580c" opacity="0.85"><title>2024-09-09 | BTC buy 0.00 usd | reason=both_weak_btc_defensive</title></rect>
<rect x="457.2723577235772" y="542.5" width="5.455284552845528" height="1.5" fill="#ea580c" opacity="0.85"><title>2024-09-16 | BTC buy 0.00 usd | reason=both_weak_btc_defensive</title></rect>
<rect x="467.2723577235772" y="542.5" width="5.455284552845528" height="1.5" fill="#ea580c" opacity="0.85"><title>2024-09-23 | BTC buy 0.00 usd | reason=both_weak_btc_defensive</title></rect>
<rect x="477.2723577235772" y="542.5" width="5.455284552845528" height="1.5" fill="#ea580c" opacity="0.85"><title>2024-09-30 | BTC buy 0.00 usd | reason=both_weak_btc_defensive</title></rect>
<rect x="487.27235772357716" y="542.5" width="5.455284552845528" height="1.5" fill="#ea580c" opacity="0.85"><title>2024-10-07 | BTC buy 0.00 usd | reason=both_weak_btc_defensive</title></rect>
<rect x="497.2723577235772" y="523.2824173904268" width="5.455284552845528" height="19.217582609573242" fill="#ea580c" opacity="0.85"><title>2024-10-14 | BTC buy 135.00 usd | reason=btc_defensive_regime</title></rect>
<rect x="507.2723577235772" y="530.3011038502996" width="5.455284552845528" height="12.198896149700431" fill="#ea580c" opacity="0.85"><title>2024-10-21 | BTC buy 85.70 usd | reason=btc_defensive_regime</title></rect>
<rect x="517.2723577235772" y="542.5" width="5.455284552845528" height="1.5" fill="#ea580c" opacity="0.85"><title>2024-10-28 | BTC buy 0.00 usd | reason=btc_defensive_regime</title></rect>
<rect x="527.2723577235772" y="542.5" width="5.455284552845528" height="1.5" fill="#ea580c" opacity="0.85"><title>2024-11-04 | BTC buy 0.00 usd | reason=btc_defensive_regime</title></rect>
<rect x="537.2723577235772" y="542.5" width="5.455284552845528" height="1.5" fill="#ea580c" opacity="0.85"><title>2024-11-11 | BTC buy 0.00 usd | reason=btc_defensive_regime</title></rect>
<rect x="547.2723577235772" y="542.5" width="5.455284552845528" height="1.5" fill="#ea580c" opacity="0.85"><title>2024-11-18 | BTC buy 0.00 usd | reason=btc_defensive_regime</title></rect>
<rect x="557.2723577235772" y="542.5" width="5.455284552845528" height="1.5" fill="#ea580c" opacity="0.85"><title>2024-11-25 | BTC buy 0.00 usd | reason=btc_defensive_regime</title></rect>
<rect x="567.2723577235772" y="542.5" width="5.455284552845528" height="1.899905273630111" fill="#dc2626" opacity="0.85"><title>2024-12-02 | BTC sell 13.35 usd | reason=btc_defensive_regime</title></rect>
<rect x="577.2723577235772" y="542.5" width="5.455284552845528" height="1.868580123359152" fill="#dc2626" opacity="0.85"><title>2024-12-09 | BTC sell 13.13 usd | reason=btc_defensive_regime</title></rect>
<rect x="587.2723577235772" y="542.5" width="5.455284552845528" height="2.3298244294380765" fill="#dc2626" opacity="0.85"><title>2024-12-16 | BTC sell 16.37 usd | reason=btc_defensive_regime</title></rect>
<rect x="597.2723577235772" y="542.5" width="5.455284552845528" height="1.5" fill="#ea580c" opacity="0.85"><title>2024-12-23 | BTC buy 0.00 usd | reason=btc_defensive_regime</title></rect>
<rect x="607.2723577235772" y="542.5" width="5.455284552845528" height="1.5" fill="#ea580c" opacity="0.85"><title>2024-12-30 | BTC buy 0.00 usd | reason=btc_defensive_regime</title></rect>
<rect x="617.2723577235772" y="542.5" width="5.455284552845528" height="2.939541632093551" fill="#dc2626" opacity="0.85"><title>2025-01-06 | BTC sell 20.65 usd | reason=btc_defensive_regime</title></rect>
<rect x="627.2723577235772" y="542.5" width="5.455284552845528" height="1.5" fill="#ea580c" opacity="0.85"><title>2025-01-13 | BTC buy 0.00 usd | reason=btc_defensive_regime</title></rect>
<rect x="637.2723577235772" y="542.5" width="5.455284552845528" height="1.5" fill="#ea580c" opacity="0.85"><title>2025-01-20 | BTC buy 0.00 usd | reason=btc_defensive_regime</title></rect>
<rect x="647.2723577235772" y="542.5" width="5.455284552845528" height="1.5" fill="#ea580c" opacity="0.85"><title>2025-01-27 | BTC buy 0.00 usd | reason=btc_defensive_regime</title></rect>
<rect x="657.2723577235772" y="542.5" width="5.455284552845528" height="1.5" fill="#ea580c" opacity="0.85"><title>2025-02-03 | BTC buy 0.00 usd | reason=btc_defensive_regime</title></rect>
<rect x="667.2723577235772" y="542.5" width="5.455284552845528" height="1.5" fill="#ea580c" opacity="0.85"><title>2025-02-10 | BTC buy 0.00 usd | reason=btc_defensive_regime</title></rect>
<rect x="677.2723577235772" y="542.5" width="5.455284552845528" height="1.5" fill="#ea580c" opacity="0.85"><title>2025-02-17 | BTC buy 0.00 usd | reason=btc_defensive_regime</title></rect>
<rect x="687.2723577235772" y="542.5" width="5.455284552845528" height="1.5" fill="#ea580c" opacity="0.85"><title>2025-02-24 | BTC buy 0.00 usd | reason=btc_defensive_regime</title></rect>
<rect x="697.2723577235772" y="542.5" width="5.455284552845528" height="1.5" fill="#ea580c" opacity="0.85"><title>2025-03-03 | BTC buy 0.00 usd | reason=btc_defensive_regime</title></rect>
<rect x="707.2723577235772" y="542.5" width="5.455284552845528" height="1.5" fill="#ea580c" opacity="0.85"><title>2025-03-10 | BTC buy 0.00 usd | reason=both_weak_btc_defensive</title></rect>
<rect x="717.2723577235772" y="542.5" width="5.455284552845528" height="1.5" fill="#ea580c" opacity="0.85"><title>2025-03-17 | BTC buy 0.00 usd | reason=both_weak_btc_defensive</title></rect>
<rect x="727.2723577235772" y="542.5" width="5.455284552845528" height="1.5" fill="#ea580c" opacity="0.85"><title>2025-03-24 | BTC buy 0.00 usd | reason=btc_defensive_regime</title></rect>
<rect x="737.2723577235772" y="542.5" width="5.455284552845528" height="1.5" fill="#ea580c" opacity="0.85"><title>2025-03-31 | BTC buy 0.00 usd | reason=both_weak_btc_defensive</title></rect>
<rect x="747.2723577235772" y="542.5" width="5.455284552845528" height="1.5" fill="#ea580c" opacity="0.85"><title>2025-04-07 | BTC buy 0.00 usd | reason=both_weak_btc_defensive</title></rect>
<rect x="757.2723577235773" y="542.5" width="5.455284552845528" height="1.5" fill="#ea580c" opacity="0.85"><title>2025-04-14 | BTC buy 0.00 usd | reason=both_weak_btc_defensive</title></rect>
<rect x="767.2723577235771" y="542.5" width="5.455284552845528" height="1.5" fill="#ea580c" opacity="0.85"><title>2025-04-21 | BTC buy 0.00 usd | reason=both_weak_btc_defensive</title></rect>
<rect x="777.2723577235772" y="542.5" width="5.455284552845528" height="1.5" fill="#ea580c" opacity="0.85"><title>2025-04-28 | BTC buy 0.00 usd | reason=btc_defensive_regime</title></rect>
<rect x="787.2723577235772" y="542.5" width="5.455284552845528" height="1.5" fill="#ea580c" opacity="0.85"><title>2025-05-05 | BTC buy 0.00 usd | reason=btc_defensive_regime</title></rect>
<rect x="797.2723577235772" y="542.5" width="5.455284552845528" height="1.5" fill="#ea580c" opacity="0.85"><title>2025-05-12 | BTC buy 0.00 usd | reason=btc_defensive_regime</title></rect>
<rect x="807.2723577235772" y="542.5" width="5.455284552845528" height="1.5" fill="#ea580c" opacity="0.85"><title>2025-05-19 | BTC buy 0.00 usd | reason=btc_defensive_regime</title></rect>
<rect x="817.2723577235772" y="542.5" width="5.455284552845528" height="1.5" fill="#ea580c" opacity="0.85"><title>2025-05-26 | BTC buy 0.00 usd | reason=btc_defensive_regime</title></rect>
<rect x="827.2723577235772" y="542.5" width="5.455284552845528" height="1.5" fill="#ea580c" opacity="0.85"><title>2025-06-02 | BTC buy 0.00 usd | reason=btc_defensive_regime</title></rect>
<rect x="837.2723577235772" y="542.5" width="5.455284552845528" height="1.5" fill="#ea580c" opacity="0.85"><title>2025-06-09 | BTC buy 0.00 usd | reason=balanced_regime</title></rect>
<rect x="847.2723577235772" y="542.5" width="5.455284552845528" height="1.5" fill="#ea580c" opacity="0.85"><title>2025-06-16 | BTC buy 0.00 usd | reason=btc_defensive_regime</title></rect>
<rect x="857.2723577235772" y="542.5" width="5.455284552845528" height="1.5" fill="#ea580c" opacity="0.85"><title>2025-06-23 | BTC buy 0.00 usd | reason=btc_defensive_regime</title></rect>
<rect x="867.2723577235772" y="542.5" width="5.455284552845528" height="1.5" fill="#ea580c" opacity="0.85"><title>2025-06-30 | BTC buy 0.00 usd | reason=btc_defensive_regime</title></rect>
<rect x="877.2723577235773" y="542.5" width="5.455284552845528" height="1.5" fill="#ea580c" opacity="0.85"><title>2025-07-07 | BTC buy 0.00 usd | reason=btc_defensive_regime</title></rect>
<rect x="887.2723577235771" y="542.5" width="5.455284552845528" height="1.5" fill="#ea580c" opacity="0.85"><title>2025-07-14 | BTC buy 0.00 usd | reason=balanced_regime</title></rect>
<rect x="897.2723577235772" y="542.5" width="5.455284552845528" height="14.140602419407287" fill="#dc2626" opacity="0.85"><title>2025-07-21 | BTC sell 99.34 usd | reason=balanced_regime</title></rect>
<rect x="907.2723577235772" y="542.5" width="5.455284552845528" height="13.112118883849462" fill="#dc2626" opacity="0.85"><title>2025-07-28 | BTC sell 92.11 usd | reason=balanced_regime</title></rect>
<rect x="917.2723577235772" y="542.5" width="5.455284552845528" height="11.739322311702153" fill="#dc2626" opacity="0.85"><title>2025-08-04 | BTC sell 82.47 usd | reason=balanced_regime</title></rect>
<rect x="927.2723577235772" y="542.5" width="5.455284552845528" height="11.884179955757077" fill="#dc2626" opacity="0.85"><title>2025-08-11 | BTC sell 83.48 usd | reason=balanced_regime</title></rect>
<rect x="937.2723577235772" y="542.5" width="5.455284552845528" height="10.939073372704456" fill="#dc2626" opacity="0.85"><title>2025-08-18 | BTC sell 76.84 usd | reason=balanced_regime</title></rect>
<rect x="947.2723577235772" y="542.5" width="5.455284552845528" height="9.793680488273253" fill="#dc2626" opacity="0.85"><title>2025-08-25 | BTC sell 68.80 usd | reason=balanced_regime</title></rect>
<rect x="957.2723577235772" y="542.5" width="5.455284552845528" height="8.85357752790992" fill="#dc2626" opacity="0.85"><title>2025-09-01 | BTC sell 62.19 usd | reason=balanced_regime</title></rect>
<rect x="967.2723577235772" y="542.5" width="5.455284552845528" height="8.29939982853" fill="#dc2626" opacity="0.85"><title>2025-09-08 | BTC sell 58.30 usd | reason=balanced_regime</title></rect>
<rect x="977.2723577235772" y="542.5" width="5.455284552845528" height="8.188839349023283" fill="#dc2626" opacity="0.85"><title>2025-09-15 | BTC sell 57.53 usd | reason=balanced_regime</title></rect>
<rect x="987.2723577235772" y="542.5" width="5.455284552845528" height="6.855129747816591" fill="#dc2626" opacity="0.85"><title>2025-09-22 | BTC sell 48.16 usd | reason=balanced_regime</title></rect>
<rect x="997.2723577235773" y="542.5" width="5.455284552845528" height="6.425715856839929" fill="#dc2626" opacity="0.85"><title>2025-09-29 | BTC sell 45.14 usd | reason=balanced_regime</title></rect>
<rect x="1007.2723577235771" y="542.5" width="5.455284552845528" height="7.26565027405934" fill="#dc2626" opacity="0.85"><title>2025-10-06 | BTC sell 51.04 usd | reason=balanced_regime</title></rect>
<rect x="1017.2723577235772" y="542.5" width="5.455284552845528" height="5.434618646514082" fill="#dc2626" opacity="0.85"><title>2025-10-13 | BTC sell 38.18 usd | reason=balanced_regime</title></rect>
<rect x="1027.2723577235772" y="542.5" width="5.455284552845528" height="1.5" fill="#ea580c" opacity="0.85"><title>2025-10-20 | BTC buy 0.00 usd | reason=balanced_regime</title></rect>
<rect x="1037.2723577235772" y="542.5" width="5.455284552845528" height="4.733809382324694" fill="#dc2626" opacity="0.85"><title>2025-10-27 | BTC sell 33.25 usd | reason=balanced_regime</title></rect>
<rect x="1047.2723577235772" y="542.5" width="5.455284552845528" height="1.5" fill="#ea580c" opacity="0.85"><title>2025-11-03 | BTC buy 0.00 usd | reason=balanced_regime</title></rect>
<rect x="1057.2723577235772" y="542.5" width="5.455284552845528" height="1.5" fill="#ea580c" opacity="0.85"><title>2025-11-10 | BTC buy 0.00 usd | reason=balanced_regime</title></rect>
<rect x="1067.2723577235772" y="542.5" width="5.455284552845528" height="1.5" fill="#ea580c" opacity="0.85"><title>2025-11-17 | BTC buy 0.00 usd | reason=both_weak_btc_defensive</title></rect>
<rect x="1077.2723577235772" y="541.4086047663668" width="5.455284552845528" height="1.5" fill="#ea580c" opacity="0.85"><title>2025-11-24 | BTC buy 7.67 usd | reason=both_weak_btc_defensive</title></rect>
<rect x="1087.2723577235772" y="542.5" width="5.455284552845528" height="1.5" fill="#ea580c" opacity="0.85"><title>2025-12-01 | BTC buy 0.00 usd | reason=both_weak_btc_defensive</title></rect>
<rect x="1097.2723577235772" y="538.677868884999" width="5.455284552845528" height="3.822131115000957" fill="#ea580c" opacity="0.85"><title>2025-12-08 | BTC buy 26.85 usd | reason=both_weak_btc_defensive</title></rect>
<rect x="1107.2723577235772" y="538.8953862829767" width="5.455284552845528" height="3.6046137170233123" fill="#ea580c" opacity="0.85"><title>2025-12-15 | BTC buy 25.32 usd | reason=both_weak_btc_defensive</title></rect>
<rect x="1117.2723577235772" y="542.5" width="5.455284552845528" height="1.5" fill="#ea580c" opacity="0.85"><title>2025-12-22 | BTC buy 0.00 usd | reason=both_weak_btc_defensive</title></rect>
<rect x="1127.2723577235772" y="542.5" width="5.455284552845528" height="1.5" fill="#ea580c" opacity="0.85"><title>2025-12-29 | BTC buy 0.00 usd | reason=both_weak_btc_defensive</title></rect>
<rect x="1137.2723577235772" y="542.5" width="5.455284552845528" height="1.5" fill="#ea580c" opacity="0.85"><title>2026-01-05 | BTC buy 0.00 usd | reason=both_weak_btc_defensive</title></rect>
<rect x="1147.2723577235772" y="542.5" width="5.455284552845528" height="1.5" fill="#ea580c" opacity="0.85"><title>2026-01-12 | BTC buy 0.00 usd | reason=both_weak_btc_defensive</title></rect>
<rect x="1157.2723577235772" y="542.5" width="5.455284552845528" height="1.5" fill="#ea580c" opacity="0.85"><title>2026-01-19 | BTC buy 0.00 usd | reason=both_weak_btc_defensive</title></rect>
<rect x="1167.2723577235772" y="542.5" width="5.455284552845528" height="1.5" fill="#ea580c" opacity="0.85"><title>2026-01-26 | BTC buy 0.00 usd | reason=both_weak_btc_defensive</title></rect>
<rect x="1177.2723577235772" y="542.5" width="5.455284552845528" height="1.5" fill="#ea580c" opacity="0.85"><title>2026-02-02 | BTC buy 0.00 usd | reason=both_weak_btc_defensive</title></rect>
<rect x="1187.2723577235772" y="542.5" width="5.455284552845528" height="1.5" fill="#ea580c" opacity="0.85"><title>2026-02-09 | BTC buy 0.00 usd | reason=both_weak_btc_defensive</title></rect>
<rect x="1197.2723577235772" y="542.5" width="5.455284552845528" height="1.5" fill="#ea580c" opacity="0.85"><title>2026-02-16 | BTC buy 0.00 usd | reason=both_weak_btc_defensive</title></rect>
<rect x="1207.2723577235772" y="542.5" width="5.455284552845528" height="1.5" fill="#ea580c" opacity="0.85"><title>2026-02-23 | BTC buy 0.00 usd | reason=both_weak_btc_defensive</title></rect>
<rect x="1217.2723577235772" y="542.5" width="5.455284552845528" height="1.5" fill="#ea580c" opacity="0.85"><title>2026-03-02 | BTC buy 0.00 usd | reason=both_weak_btc_defensive</title></rect>
<rect x="1227.2723577235772" y="542.5" width="5.455284552845528" height="1.5" fill="#ea580c" opacity="0.85"><title>2026-03-09 | BTC buy 0.00 usd | reason=both_weak_btc_defensive</title></rect>
<rect x="1237.2723577235772" y="542.5" width="5.455284552845528" height="1.5" fill="#ea580c" opacity="0.85"><title>2026-03-16 | BTC buy 0.00 usd | reason=both_weak_btc_defensive</title></rect>
<rect x="1247.2723577235772" y="542.5" width="5.455284552845528" height="1.5" fill="#ea580c" opacity="0.85"><title>2026-03-23 | BTC buy 0.00 usd | reason=both_weak_btc_defensive</title></rect>
<rect x="1257.2723577235772" y="542.5" width="5.455284552845528" height="1.5" fill="#ea580c" opacity="0.85"><title>2026-03-30 | BTC buy 0.00 usd | reason=both_weak_btc_defensive</title></rect>
<rect x="1267.2723577235772" y="542.5" width="5.455284552845528" height="1.5" fill="#ea580c" opacity="0.85"><title>2026-04-06 | BTC buy 0.00 usd | reason=both_weak_btc_defensive</title></rect>
<rect x="1277.2723577235772" y="542.5" width="5.455284552845528" height="1.5" fill="#ea580c" opacity="0.85"><title>2026-04-13 | BTC buy 0.00 usd | reason=both_weak_btc_defensive</title></rect>
<rect x="1287.2723577235772" y="542.5" width="5.455284552845528" height="1.5" fill="#ea580c" opacity="0.85"><title>2026-04-20 | BTC buy 0.00 usd | reason=both_weak_btc_defensive</title></rect>
<rect x="1297.2723577235772" y="542.5" width="5.455284552845528" height="1.5" fill="#ea580c" opacity="0.85"><title>2026-04-27 | BTC buy 0.00 usd | reason=both_weak_btc_defensive</title></rect>
<rect x="1307.2723577235772" y="542.5" width="5.455284552845528" height="1.5" fill="#ea580c" opacity="0.85"><title>2026-05-04 | BTC buy 0.00 usd | reason=both_weak_btc_defensive</title></rect>
<text x="24" y="542.5" transform="rotate(-90 24,542.5)" text-anchor="middle" font-family="monospace" font-size="14" fill="#0f172a">BTC weekly trade usd</text>
<line x1="90" y1="770" x2="1310" y2="770" stroke="#334155" stroke-width="2"/>
<line x1="90" y1="645" x2="90" y2="770" stroke="#334155" stroke-width="2"/>
<line x1="90" y1="707.5" x2="1310" y2="707.5" stroke="#64748b" stroke-width="1.5" stroke-dasharray="6 4"/>
<line x1="90" y1="770.0" x2="1310" y2="770.0" stroke="#e2e8f0" stroke-width="1"/>
<text x="78" y="774.0" text-anchor="end" font-family="monospace" font-size="11" fill="#475569">-325</text>
<line x1="90" y1="707.5" x2="1310" y2="707.5" stroke="#e2e8f0" stroke-width="1"/>
<text x="78" y="711.5" text-anchor="end" font-family="monospace" font-size="11" fill="#475569">0</text>
<line x1="90" y1="645.0" x2="1310" y2="645.0" stroke="#e2e8f0" stroke-width="1"/>
<text x="78" y="649.0" text-anchor="end" font-family="monospace" font-size="11" fill="#475569">325</text>
<rect x="87.27235772357723" y="690.1923076923077" width="5.455284552845528" height="17.307692307692264" fill="#2563eb" opacity="0.85"><title>2024-01-01 | ETH buy 90.00 usd | reason=btc_defensive_regime</title></rect>
<rect x="97.27235772357723" y="690.1923076923077" width="5.455284552845528" height="17.307692307692264" fill="#2563eb" opacity="0.85"><title>2024-01-08 | ETH buy 90.00 usd | reason=btc_defensive_regime</title></rect>
<rect x="107.27235772357723" y="685.8653846153846" width="5.455284552845528" height="21.63461538461536" fill="#2563eb" opacity="0.85"><title>2024-01-15 | ETH buy 112.50 usd | reason=balanced_regime</title></rect>
<rect x="117.27235772357723" y="666.875" width="5.455284552845528" height="40.625" fill="#2563eb" opacity="0.85"><title>2024-01-22 | ETH buy 211.25 usd | reason=eth_strong_risk_on</title></rect>
<rect x="127.27235772357723" y="690.1923076923077" width="5.455284552845528" height="17.307692307692264" fill="#2563eb" opacity="0.85"><title>2024-01-29 | ETH buy 90.00 usd | reason=btc_defensive_regime</title></rect>
<rect x="137.27235772357724" y="690.1923076923077" width="5.455284552845528" height="17.307692307692264" fill="#2563eb" opacity="0.85"><title>2024-02-05 | ETH buy 90.00 usd | reason=btc_defensive_regime</title></rect>
<rect x="147.27235772357724" y="690.1923076923077" width="5.455284552845528" height="17.307692307692264" fill="#2563eb" opacity="0.85"><title>2024-02-12 | ETH buy 90.00 usd | reason=btc_defensive_regime</title></rect>
<rect x="157.27235772357724" y="685.8653846153846" width="5.455284552845528" height="21.63461538461536" fill="#2563eb" opacity="0.85"><title>2024-02-19 | ETH buy 112.50 usd | reason=balanced_regime</title></rect>
<rect x="167.27235772357724" y="685.8653846153846" width="5.455284552845528" height="21.63461538461536" fill="#2563eb" opacity="0.85"><title>2024-02-26 | ETH buy 112.50 usd | reason=balanced_regime</title></rect>
<rect x="177.27235772357724" y="690.1923076923077" width="5.455284552845528" height="17.307692307692264" fill="#2563eb" opacity="0.85"><title>2024-03-04 | ETH buy 90.00 usd | reason=btc_defensive_regime</title></rect>
<rect x="187.27235772357724" y="685.8653846153846" width="5.455284552845528" height="21.63461538461536" fill="#2563eb" opacity="0.85"><title>2024-03-11 | ETH buy 112.50 usd | reason=balanced_regime</title></rect>
<rect x="197.27235772357724" y="690.1923076923077" width="5.455284552845528" height="17.307692307692264" fill="#2563eb" opacity="0.85"><title>2024-03-18 | ETH buy 90.00 usd | reason=btc_defensive_regime</title></rect>
<rect x="207.27235772357724" y="690.1923076923077" width="5.455284552845528" height="17.307692307692264" fill="#2563eb" opacity="0.85"><title>2024-03-25 | ETH buy 90.00 usd | reason=btc_defensive_regime</title></rect>
<rect x="217.27235772357724" y="685.8653846153846" width="5.455284552845528" height="21.63461538461536" fill="#2563eb" opacity="0.85"><title>2024-04-01 | ETH buy 112.50 usd | reason=balanced_regime</title></rect>
<rect x="227.27235772357724" y="690.1923076923077" width="5.455284552845528" height="17.307692307692264" fill="#2563eb" opacity="0.85"><title>2024-04-08 | ETH buy 90.00 usd | reason=btc_defensive_regime</title></rect>
<rect x="237.27235772357724" y="690.1923076923077" width="5.455284552845528" height="17.307692307692264" fill="#2563eb" opacity="0.85"><title>2024-04-15 | ETH buy 90.00 usd | reason=btc_defensive_regime</title></rect>
<rect x="247.27235772357724" y="690.1923076923077" width="5.455284552845528" height="17.307692307692264" fill="#2563eb" opacity="0.85"><title>2024-04-22 | ETH buy 90.00 usd | reason=btc_defensive_regime</title></rect>
<rect x="257.2723577235772" y="690.1923076923077" width="5.455284552845528" height="17.307692307692264" fill="#2563eb" opacity="0.85"><title>2024-04-29 | ETH buy 90.00 usd | reason=btc_defensive_regime</title></rect>
<rect x="267.2723577235772" y="690.1923076923077" width="5.455284552845528" height="17.307692307692264" fill="#2563eb" opacity="0.85"><title>2024-05-06 | ETH buy 90.00 usd | reason=btc_defensive_regime</title></rect>
<rect x="277.2723577235772" y="690.1923076923077" width="5.455284552845528" height="17.307692307692264" fill="#2563eb" opacity="0.85"><title>2024-05-13 | ETH buy 90.00 usd | reason=btc_defensive_regime</title></rect>
<rect x="287.2723577235772" y="690.1923076923077" width="5.455284552845528" height="17.307692307692264" fill="#2563eb" opacity="0.85"><title>2024-05-20 | ETH buy 90.00 usd | reason=btc_defensive_regime</title></rect>
<rect x="297.2723577235772" y="685.8653846153846" width="5.455284552845528" height="21.63461538461536" fill="#2563eb" opacity="0.85"><title>2024-05-27 | ETH buy 112.50 usd | reason=balanced_regime</title></rect>
<rect x="307.2723577235772" y="690.1923076923077" width="5.455284552845528" height="17.307692307692264" fill="#2563eb" opacity="0.85"><title>2024-06-03 | ETH buy 90.00 usd | reason=btc_defensive_regime</title></rect>
<rect x="317.2723577235772" y="685.8653846153846" width="5.455284552845528" height="21.63461538461536" fill="#2563eb" opacity="0.85"><title>2024-06-10 | ETH buy 112.50 usd | reason=balanced_regime</title></rect>
<rect x="327.2723577235772" y="685.8653846153846" width="5.455284552845528" height="21.63461538461536" fill="#2563eb" opacity="0.85"><title>2024-06-17 | ETH buy 112.50 usd | reason=balanced_regime</title></rect>
<rect x="337.2723577235772" y="645.0" width="5.455284552845528" height="62.5" fill="#2563eb" opacity="0.85"><title>2024-06-24 | ETH buy 325.00 usd | reason=eth_strong_risk_on</title></rect>
<rect x="347.2723577235772" y="685.8653846153846" width="5.455284552845528" height="21.63461538461536" fill="#2563eb" opacity="0.85"><title>2024-07-01 | ETH buy 112.50 usd | reason=balanced_regime</title></rect>
<rect x="357.2723577235772" y="705.394434461572" width="5.455284552845528" height="2.1055655384279817" fill="#2563eb" opacity="0.85"><title>2024-07-08 | ETH buy 10.95 usd | reason=both_weak_btc_defensive</title></rect>
<rect x="367.2723577235772" y="685.8653846153846" width="5.455284552845528" height="21.63461538461536" fill="#2563eb" opacity="0.85"><title>2024-07-15 | ETH buy 112.50 usd | reason=balanced_regime</title></rect>
<rect x="377.2723577235772" y="679.5019749158643" width="5.455284552845528" height="27.998025084135747" fill="#2563eb" opacity="0.85"><title>2024-07-22 | ETH buy 145.59 usd | reason=balanced_regime</title></rect>
<rect x="387.2723577235772" y="671.4940842252695" width="5.455284552845528" height="36.00591577473051" fill="#2563eb" opacity="0.85"><title>2024-07-29 | ETH buy 187.23 usd | reason=balanced_regime</title></rect>
<rect x="397.2723577235772" y="707.0792755981872" width="5.455284552845528" height="1.5" fill="#2563eb" opacity="0.85"><title>2024-08-05 | ETH buy 2.19 usd | reason=both_weak_btc_defensive</title></rect>
<rect x="407.2723577235772" y="707.5" width="5.455284552845528" height="1.5" fill="#2563eb" opacity="0.85"><title>2024-08-12 | ETH buy 0.00 usd | reason=both_weak_btc_defensive</title></rect>
<rect x="417.2723577235772" y="707.5" width="5.455284552845528" height="1.5" fill="#2563eb" opacity="0.85"><title>2024-08-19 | ETH buy 0.00 usd | reason=both_weak_btc_defensive</title></rect>
<rect x="427.27235772357716" y="707.5" width="5.455284552845528" height="1.5" fill="#2563eb" opacity="0.85"><title>2024-08-26 | ETH buy 0.00 usd | reason=both_weak_btc_defensive</title></rect>
<rect x="437.2723577235772" y="705.9361834173418" width="5.455284552845528" height="1.5638165826582053" fill="#2563eb" opacity="0.85"><title>2024-09-02 | ETH buy 8.13 usd | reason=both_weak_btc_defensive</title></rect>
<rect x="447.2723577235772" y="699.3909162284289" width="5.455284552845528" height="8.109083771571136" fill="#2563eb" opacity="0.85"><title>2024-09-09 | ETH buy 42.17 usd | reason=both_weak_btc_defensive</title></rect>
<rect x="457.2723577235772" y="696.7694037536862" width="5.455284552845528" height="10.73059624631378" fill="#2563eb" opacity="0.85"><title>2024-09-16 | ETH buy 55.80 usd | reason=both_weak_btc_defensive</title></rect>
<rect x="467.2723577235772" y="707.5" width="5.455284552845528" height="1.5" fill="#2563eb" opacity="0.85"><title>2024-09-23 | ETH buy 0.00 usd | reason=both_weak_btc_defensive</title></rect>
<rect x="477.2723577235772" y="707.5" width="5.455284552845528" height="1.5" fill="#2563eb" opacity="0.85"><title>2024-09-30 | ETH buy 0.00 usd | reason=both_weak_btc_defensive</title></rect>
<rect x="487.27235772357716" y="702.2865620955807" width="5.455284552845528" height="5.213437904419266" fill="#2563eb" opacity="0.85"><title>2024-10-07 | ETH buy 27.11 usd | reason=both_weak_btc_defensive</title></rect>
<rect x="497.2723577235772" y="690.1923076923077" width="5.455284552845528" height="17.307692307692264" fill="#2563eb" opacity="0.85"><title>2024-10-14 | ETH buy 90.00 usd | reason=btc_defensive_regime</title></rect>
<rect x="507.2723577235772" y="686.6600620965428" width="5.455284552845528" height="20.839937903457212" fill="#2563eb" opacity="0.85"><title>2024-10-21 | ETH buy 108.37 usd | reason=btc_defensive_regime</title></rect>
<rect x="517.2723577235772" y="683.6422088554209" width="5.455284552845528" height="23.857791144579096" fill="#2563eb" opacity="0.85"><title>2024-10-28 | ETH buy 124.06 usd | reason=btc_defensive_regime</title></rect>
<rect x="527.2723577235772" y="686.3249443201526" width="5.455284552845528" height="21.175055679847446" fill="#2563eb" opacity="0.85"><title>2024-11-04 | ETH buy 110.11 usd | reason=btc_defensive_regime</title></rect>
<rect x="537.2723577235772" y="707.5" width="5.455284552845528" height="1.5" fill="#2563eb" opacity="0.85"><title>2024-11-11 | ETH buy 0.00 usd | reason=btc_defensive_regime</title></rect>
<rect x="547.2723577235772" y="705.0688362261845" width="5.455284552845528" height="2.431163773815456" fill="#2563eb" opacity="0.85"><title>2024-11-18 | ETH buy 12.64 usd | reason=btc_defensive_regime</title></rect>
<rect x="557.2723577235772" y="707.5" width="5.455284552845528" height="1.5" fill="#2563eb" opacity="0.85"><title>2024-11-25 | ETH buy 0.00 usd | reason=btc_defensive_regime</title></rect>
<rect x="567.2723577235772" y="707.5" width="5.455284552845528" height="4.766602415813168" fill="#7c3aed" opacity="0.85"><title>2024-12-02 | ETH sell 24.79 usd | reason=btc_defensive_regime</title></rect>
<rect x="577.2723577235772" y="707.5" width="5.455284552845528" height="4.68801189920714" fill="#7c3aed" opacity="0.85"><title>2024-12-09 | ETH sell 24.38 usd | reason=btc_defensive_regime</title></rect>
<rect x="587.2723577235772" y="707.5" width="5.455284552845528" height="5.845210762829765" fill="#7c3aed" opacity="0.85"><title>2024-12-16 | ETH sell 30.40 usd | reason=btc_defensive_regime</title></rect>
<rect x="597.2723577235772" y="706.0911765002495" width="5.455284552845528" height="1.5" fill="#2563eb" opacity="0.85"><title>2024-12-23 | ETH buy 7.33 usd | reason=btc_defensive_regime</title></rect>
<rect x="607.2723577235772" y="706.6702859262119" width="5.455284552845528" height="1.5" fill="#2563eb" opacity="0.85"><title>2024-12-30 | ETH buy 4.31 usd | reason=btc_defensive_regime</title></rect>
<rect x="617.2723577235772" y="707.5" width="5.455284552845528" height="2.914942652507989" fill="#7c3aed" opacity="0.85"><title>2025-01-06 | ETH sell 15.16 usd | reason=btc_defensive_regime</title></rect>
<rect x="627.2723577235772" y="687.4961717235028" width="5.455284552845528" height="20.003828276497188" fill="#2563eb" opacity="0.85"><title>2025-01-13 | ETH buy 104.02 usd | reason=btc_defensive_regime</title></rect>
<rect x="637.2723577235772" y="690.4648115405842" width="5.455284552845528" height="17.03518845941585" fill="#2563eb" opacity="0.85"><title>2025-01-20 | ETH buy 88.58 usd | reason=btc_defensive_regime</title></rect>
<rect x="647.2723577235772" y="690.5592088158473" width="5.455284552845528" height="16.94079118415266" fill="#2563eb" opacity="0.85"><title>2025-01-27 | ETH buy 88.09 usd | reason=btc_defensive_regime</title></rect>
<rect x="657.2723577235772" y="677.2444119577557" width="5.455284552845528" height="30.255588042244312" fill="#2563eb" opacity="0.85"><title>2025-02-03 | ETH buy 157.33 usd | reason=btc_defensive_regime</title></rect>
<rect x="667.2723577235772" y="680.767209950116" width="5.455284552845528" height="26.732790049883988" fill="#2563eb" opacity="0.85"><title>2025-02-10 | ETH buy 139.01 usd | reason=btc_defensive_regime</title></rect>
<rect x="677.2723577235772" y="701.0161147177948" width="5.455284552845528" height="6.483885282205165" fill="#2563eb" opacity="0.85"><title>2025-02-17 | ETH buy 33.72 usd | reason=btc_defensive_regime</title></rect>
<rect x="687.2723577235772" y="694.1063957378117" width="5.455284552845528" height="13.393604262188319" fill="#2563eb" opacity="0.85"><title>2025-02-24 | ETH buy 69.65 usd | reason=btc_defensive_regime</title></rect>
<rect x="697.2723577235772" y="681.1069526266709" width="5.455284552845528" height="26.39304737332907" fill="#2563eb" opacity="0.85"><title>2025-03-03 | ETH buy 137.24 usd | reason=btc_defensive_regime</title></rect>
<rect x="707.2723577235772" y="707.5" width="5.455284552845528" height="1.5" fill="#2563eb" opacity="0.85"><title>2025-03-10 | ETH buy 0.00 usd | reason=both_weak_btc_defensive</title></rect>
<rect x="717.2723577235772" y="707.5" width="5.455284552845528" height="1.5" fill="#2563eb" opacity="0.85"><title>2025-03-17 | ETH buy 0.00 usd | reason=both_weak_btc_defensive</title></rect>
<rect x="727.2723577235772" y="683.5988373723177" width="5.455284552845528" height="23.90116262768231" fill="#2563eb" opacity="0.85"><title>2025-03-24 | ETH buy 124.29 usd | reason=btc_defensive_regime</title></rect>
<rect x="737.2723577235772" y="707.5" width="5.455284552845528" height="1.5" fill="#2563eb" opacity="0.85"><title>2025-03-31 | ETH buy 0.00 usd | reason=both_weak_btc_defensive</title></rect>
<rect x="747.2723577235772" y="693.1429809316671" width="5.455284552845528" height="14.357019068332875" fill="#2563eb" opacity="0.85"><title>2025-04-07 | ETH buy 74.66 usd | reason=both_weak_btc_defensive</title></rect>
<rect x="757.2723577235773" y="696.1144486594752" width="5.455284552845528" height="11.385551340524785" fill="#2563eb" opacity="0.85"><title>2025-04-14 | ETH buy 59.20 usd | reason=both_weak_btc_defensive</title></rect>
<rect x="767.2723577235771" y="691.4024786663493" width="5.455284552845528" height="16.09752133365066" fill="#2563eb" opacity="0.85"><title>2025-04-21 | ETH buy 83.71 usd | reason=both_weak_btc_defensive</title></rect>
<rect x="777.2723577235772" y="672.8116256569382" width="5.455284552845528" height="34.68837434306181" fill="#2563eb" opacity="0.85"><title>2025-04-28 | ETH buy 180.38 usd | reason=btc_defensive_regime</title></rect>
<rect x="787.2723577235772" y="689.2208459882044" width="5.455284552845528" height="18.27915401179564" fill="#2563eb" opacity="0.85"><title>2025-05-05 | ETH buy 95.05 usd | reason=btc_defensive_regime</title></rect>
<rect x="797.2723577235772" y="707.5" width="5.455284552845528" height="1.5" fill="#2563eb" opacity="0.85"><title>2025-05-12 | ETH buy 0.00 usd | reason=btc_defensive_regime</title></rect>
<rect x="807.2723577235772" y="707.5" width="5.455284552845528" height="1.5" fill="#2563eb" opacity="0.85"><title>2025-05-19 | ETH buy 0.00 usd | reason=btc_defensive_regime</title></rect>
<rect x="817.2723577235772" y="707.5" width="5.455284552845528" height="1.5" fill="#2563eb" opacity="0.85"><title>2025-05-26 | ETH buy 0.00 usd | reason=btc_defensive_regime</title></rect>
<rect x="827.2723577235772" y="707.5" width="5.455284552845528" height="1.5" fill="#2563eb" opacity="0.85"><title>2025-06-02 | ETH buy 0.00 usd | reason=btc_defensive_regime</title></rect>
<rect x="837.2723577235772" y="664.2307692307693" width="5.455284552845528" height="43.26923076923072" fill="#2563eb" opacity="0.85"><title>2025-06-09 | ETH buy 225.00 usd | reason=balanced_regime</title></rect>
<rect x="847.2723577235772" y="707.5" width="5.455284552845528" height="1.5" fill="#2563eb" opacity="0.85"><title>2025-06-16 | ETH buy 0.00 usd | reason=btc_defensive_regime</title></rect>
<rect x="857.2723577235772" y="707.5" width="5.455284552845528" height="1.5" fill="#2563eb" opacity="0.85"><title>2025-06-23 | ETH buy 0.00 usd | reason=btc_defensive_regime</title></rect>
<rect x="867.2723577235772" y="707.5" width="5.455284552845528" height="1.5" fill="#2563eb" opacity="0.85"><title>2025-06-30 | ETH buy 0.00 usd | reason=btc_defensive_regime</title></rect>
<rect x="877.2723577235773" y="707.5" width="5.455284552845528" height="1.5" fill="#2563eb" opacity="0.85"><title>2025-07-07 | ETH buy 0.00 usd | reason=btc_defensive_regime</title></rect>
<rect x="887.2723577235771" y="695.8566462738569" width="5.455284552845528" height="11.643353726143118" fill="#2563eb" opacity="0.85"><title>2025-07-14 | ETH buy 60.55 usd | reason=balanced_regime</title></rect>
<rect x="897.2723577235772" y="707.5" width="5.455284552845528" height="19.10291221529019" fill="#7c3aed" opacity="0.85"><title>2025-07-21 | ETH sell 99.34 usd | reason=balanced_regime</title></rect>
<rect x="907.2723577235772" y="707.5" width="5.455284552845528" height="17.713506720962187" fill="#7c3aed" opacity="0.85"><title>2025-07-28 | ETH sell 92.11 usd | reason=balanced_regime</title></rect>
<rect x="917.2723577235772" y="707.5" width="5.455284552845528" height="15.858959677677149" fill="#7c3aed" opacity="0.85"><title>2025-08-04 | ETH sell 82.47 usd | reason=balanced_regime</title></rect>
<rect x="927.2723577235772" y="707.5" width="5.455284552845528" height="16.054651684001897" fill="#7c3aed" opacity="0.85"><title>2025-08-11 | ETH sell 83.48 usd | reason=balanced_regime</title></rect>
<rect x="937.2723577235772" y="707.5" width="5.455284552845528" height="14.777882310628684" fill="#7c3aed" opacity="0.85"><title>2025-08-18 | ETH sell 76.84 usd | reason=balanced_regime</title></rect>
<rect x="947.2723577235772" y="707.5" width="5.455284552845528" height="13.230540897982905" fill="#7c3aed" opacity="0.85"><title>2025-08-25 | ETH sell 68.80 usd | reason=balanced_regime</title></rect>
<rect x="957.2723577235772" y="707.5" width="5.455284552845528" height="11.960531050276018" fill="#7c3aed" opacity="0.85"><title>2025-09-01 | ETH sell 62.19 usd | reason=balanced_regime</title></rect>
<rect x="967.2723577235772" y="707.5" width="5.455284552845528" height="11.211877801359492" fill="#7c3aed" opacity="0.85"><title>2025-09-08 | ETH sell 58.30 usd | reason=balanced_regime</title></rect>
<rect x="977.2723577235772" y="707.5" width="5.455284552845528" height="11.062518737873006" fill="#7c3aed" opacity="0.85"><title>2025-09-15 | ETH sell 57.53 usd | reason=balanced_regime</title></rect>
<rect x="987.2723577235772" y="707.5" width="5.455284552845528" height="9.260775313026215" fill="#7c3aed" opacity="0.85"><title>2025-09-22 | ETH sell 48.16 usd | reason=balanced_regime</title></rect>
<rect x="997.2723577235773" y="707.5" width="5.455284552845528" height="8.680668778661357" fill="#7c3aed" opacity="0.85"><title>2025-09-29 | ETH sell 45.14 usd | reason=balanced_regime</title></rect>
<rect x="1007.2723577235771" y="707.5" width="5.455284552845528" height="9.815358303396238" fill="#7c3aed" opacity="0.85"><title>2025-10-06 | ETH sell 51.04 usd | reason=balanced_regime</title></rect>
<rect x="1017.2723577235772" y="707.5" width="5.455284552845528" height="7.341769455695385" fill="#7c3aed" opacity="0.85"><title>2025-10-13 | ETH sell 38.18 usd | reason=balanced_regime</title></rect>
<rect x="1027.2723577235772" y="707.5" width="5.455284552845528" height="1.5" fill="#2563eb" opacity="0.85"><title>2025-10-20 | ETH buy 0.00 usd | reason=balanced_regime</title></rect>
<rect x="1037.2723577235772" y="707.5" width="5.455284552845528" height="6.395027764188967" fill="#7c3aed" opacity="0.85"><title>2025-10-27 | ETH sell 33.25 usd | reason=balanced_regime</title></rect>
<rect x="1047.2723577235772" y="707.5" width="5.455284552845528" height="1.5" fill="#2563eb" opacity="0.85"><title>2025-11-03 | ETH buy 0.00 usd | reason=balanced_regime</title></rect>
<rect x="1057.2723577235772" y="707.5" width="5.455284552845528" height="1.5" fill="#2563eb" opacity="0.85"><title>2025-11-10 | ETH buy 0.00 usd | reason=balanced_regime</title></rect>
<rect x="1067.2723577235772" y="707.5" width="5.455284552845528" height="1.5" fill="#2563eb" opacity="0.85"><title>2025-11-17 | ETH buy 0.00 usd | reason=both_weak_btc_defensive</title></rect>
<rect x="1077.2723577235772" y="707.5" width="5.455284552845528" height="1.5" fill="#2563eb" opacity="0.85"><title>2025-11-24 | ETH buy 0.00 usd | reason=both_weak_btc_defensive</title></rect>
<rect x="1087.2723577235772" y="707.5" width="5.455284552845528" height="1.5" fill="#2563eb" opacity="0.85"><title>2025-12-01 | ETH buy 0.00 usd | reason=both_weak_btc_defensive</title></rect>
<rect x="1097.2723577235772" y="707.5" width="5.455284552845528" height="1.5" fill="#2563eb" opacity="0.85"><title>2025-12-08 | ETH buy 0.00 usd | reason=both_weak_btc_defensive</title></rect>
<rect x="1107.2723577235772" y="707.5" width="5.455284552845528" height="1.5" fill="#2563eb" opacity="0.85"><title>2025-12-15 | ETH buy 0.00 usd | reason=both_weak_btc_defensive</title></rect>
<rect x="1117.2723577235772" y="707.5" width="5.455284552845528" height="1.5" fill="#2563eb" opacity="0.85"><title>2025-12-22 | ETH buy 0.00 usd | reason=both_weak_btc_defensive</title></rect>
<rect x="1127.2723577235772" y="707.5" width="5.455284552845528" height="1.5" fill="#2563eb" opacity="0.85"><title>2025-12-29 | ETH buy 0.00 usd | reason=both_weak_btc_defensive</title></rect>
<rect x="1137.2723577235772" y="707.5" width="5.455284552845528" height="1.5" fill="#2563eb" opacity="0.85"><title>2026-01-05 | ETH buy 0.00 usd | reason=both_weak_btc_defensive</title></rect>
<rect x="1147.2723577235772" y="707.5" width="5.455284552845528" height="1.5" fill="#2563eb" opacity="0.85"><title>2026-01-12 | ETH buy 0.00 usd | reason=both_weak_btc_defensive</title></rect>
<rect x="1157.2723577235772" y="707.5" width="5.455284552845528" height="1.5" fill="#2563eb" opacity="0.85"><title>2026-01-19 | ETH buy 0.00 usd | reason=both_weak_btc_defensive</title></rect>
<rect x="1167.2723577235772" y="707.5" width="5.455284552845528" height="1.5" fill="#2563eb" opacity="0.85"><title>2026-01-26 | ETH buy 0.00 usd | reason=both_weak_btc_defensive</title></rect>
<rect x="1177.2723577235772" y="707.5" width="5.455284552845528" height="1.5" fill="#2563eb" opacity="0.85"><title>2026-02-02 | ETH buy 0.00 usd | reason=both_weak_btc_defensive</title></rect>
<rect x="1187.2723577235772" y="707.5" width="5.455284552845528" height="1.5" fill="#2563eb" opacity="0.85"><title>2026-02-09 | ETH buy 0.00 usd | reason=both_weak_btc_defensive</title></rect>
<rect x="1197.2723577235772" y="707.5" width="5.455284552845528" height="1.5" fill="#2563eb" opacity="0.85"><title>2026-02-16 | ETH buy 0.00 usd | reason=both_weak_btc_defensive</title></rect>
<rect x="1207.2723577235772" y="707.5" width="5.455284552845528" height="1.5" fill="#2563eb" opacity="0.85"><title>2026-02-23 | ETH buy 0.00 usd | reason=both_weak_btc_defensive</title></rect>
<rect x="1217.2723577235772" y="707.5" width="5.455284552845528" height="1.5" fill="#2563eb" opacity="0.85"><title>2026-03-02 | ETH buy 0.00 usd | reason=both_weak_btc_defensive</title></rect>
<rect x="1227.2723577235772" y="707.5" width="5.455284552845528" height="1.5" fill="#2563eb" opacity="0.85"><title>2026-03-09 | ETH buy 0.00 usd | reason=both_weak_btc_defensive</title></rect>
<rect x="1237.2723577235772" y="707.5" width="5.455284552845528" height="1.5" fill="#2563eb" opacity="0.85"><title>2026-03-16 | ETH buy 0.00 usd | reason=both_weak_btc_defensive</title></rect>
<rect x="1247.2723577235772" y="707.5" width="5.455284552845528" height="1.5" fill="#2563eb" opacity="0.85"><title>2026-03-23 | ETH buy 0.00 usd | reason=both_weak_btc_defensive</title></rect>
<rect x="1257.2723577235772" y="707.5" width="5.455284552845528" height="1.5" fill="#2563eb" opacity="0.85"><title>2026-03-30 | ETH buy 0.00 usd | reason=both_weak_btc_defensive</title></rect>
<rect x="1267.2723577235772" y="707.5" width="5.455284552845528" height="1.5" fill="#2563eb" opacity="0.85"><title>2026-04-06 | ETH buy 0.00 usd | reason=both_weak_btc_defensive</title></rect>
<rect x="1277.2723577235772" y="707.5" width="5.455284552845528" height="1.5" fill="#2563eb" opacity="0.85"><title>2026-04-13 | ETH buy 0.00 usd | reason=both_weak_btc_defensive</title></rect>
<rect x="1287.2723577235772" y="707.5" width="5.455284552845528" height="1.5" fill="#2563eb" opacity="0.85"><title>2026-04-20 | ETH buy 0.00 usd | reason=both_weak_btc_defensive</title></rect>
<rect x="1297.2723577235772" y="707.5" width="5.455284552845528" height="1.5" fill="#2563eb" opacity="0.85"><title>2026-04-27 | ETH buy 0.00 usd | reason=both_weak_btc_defensive</title></rect>
<rect x="1307.2723577235772" y="707.5" width="5.455284552845528" height="1.5" fill="#2563eb" opacity="0.85"><title>2026-05-04 | ETH buy 0.00 usd | reason=both_weak_btc_defensive</title></rect>
<text x="24" y="707.5" transform="rotate(-90 24,707.5)" text-anchor="middle" font-family="monospace" font-size="14" fill="#0f172a">ETH weekly trade usd</text>
<rect x="1040" y="478" width="14" height="10" fill="#ea580c" opacity="0.85"/>
<text x="1062" y="488" font-family="monospace" font-size="11" fill="#0f172a">BTC buy</text>
<rect x="1190" y="478" width="14" height="10" fill="#dc2626" opacity="0.85"/>
<text x="1212" y="488" font-family="monospace" font-size="11" fill="#0f172a">BTC sell</text>
<rect x="1040" y="498" width="14" height="10" fill="#2563eb" opacity="0.85"/>
<text x="1062" y="508" font-family="monospace" font-size="11" fill="#0f172a">ETH buy</text>
<rect x="1190" y="498" width="14" height="10" fill="#7c3aed" opacity="0.85"/>
<text x="1212" y="508" font-family="monospace" font-size="11" fill="#0f172a">ETH sell</text>
</svg>