<svg xmlns="http://www.w3.org/2000/svg" width="1400" height="800">
<rect width="1400" height="800" fill="#f8fafc"/>
<text x="700.0" y="42" text-anchor="middle" font-family="monospace" font-size="24" fill="#0f172a">btc_defensive_eth_aggressive | weekly | start=2024-01-01 | return=33.08%</text>
<line x1="90" y1="420" x2="1310" y2="420" stroke="#334155" stroke-width="2"/>
<line x1="90" y1="90" x2="90" y2="420" stroke="#334155" stroke-width="2"/>
<line x1="90.0" y1="420" x2="90.0" y2="90" stroke="#94a3b8" stroke-width="1.2"/>
<line x1="90.0" y1="605" x2="90.0" y2="480" stroke="#94a3b8" stroke-width="1.2"/>
<line x1="90.0" y1="770" x2="90.0" y2="645" stroke="#94a3b8" stroke-width="1.2"/>
<text x="90.0" y="788" text-anchor="middle" font-family="monospace" font-size="11" fill="#334155">2024-01</text>
<line x1="140.0" y1="420" x2="140.0" y2="90" stroke="#94a3b8" stroke-width="1.2"/>
<line x1="140.0" y1="605" x2="140.0" y2="480" stroke="#94a3b8" stroke-width="1.2"/>
<line x1="140.0" y1="770" x2="140.0" y2="645" stroke="#94a3b8" stroke-width="1.2"/>
<text x="140.0" y="788" text-anchor="middle" font-family="monospace" font-size="11" fill="#334155">2024-02</text>
<line x1="180.0" y1="420" x2="180.0" y2="90" stroke="#94a3b8" stroke-width="1.2"/>
<line x1="180.0" y1="605" x2="180.0" y2="480" stroke="#94a3b8" stroke-width="1.2"/>
<line x1="180.0" y1="770" x2="180.0" y2="645" stroke="#94a3b8" stroke-width="1.2"/>
<text x="180.0" y="788" text-anchor="middle" font-family="monospace" font-size="11" fill="#334155">2024-03</text>
<line x1="220.0" y1="420" x2="220.0" y2="90" stroke="#94a3b8" stroke-width="1.2"/>
<line x1="220.0" y1="605" x2="220.0" y2="480" stroke="#94a3b8" stroke-width="1.2"/>
<line x1="220.0" y1="770" x2="220.0" y2="645" stroke="#94a3b8" stroke-width="1.2"/>
<text x="220.0" y="788" text-anchor="middle" font-family="monospace" font-size="11" fill="#334155">2024-04</text>
<line x1="270.0" y1="420" x2="270.0" y2="90" stroke="#94a3b8" stroke-width="1.2"/>
<line x1="270.0" y1="605" x2="270.0" y2="480" stroke="#94a3b8" stroke-width="1.2"/>
<line x1="270.0" y1="770" x2="270.0" y2="645" stroke="#94a3b8" stroke-width="1.2"/>
<text x="270.0" y="788" text-anchor="middle" font-family="monospace" font-size="11" fill="#334155">2024-05</text>
<line x1="310.0" y1="420" x2="310.0" y2="90" stroke="#94a3b8" stroke-width="1.2"/>
<line x1="310.0" y1="605" x2="310.0" y2="480" stroke="#94a3b8" stroke-width="1.2"/>
<line x1="310.0" y1="770" x2="310.0" y2="645" stroke="#94a3b8" stroke-width="1.2"/>
<text x="310.0" y="788" text-anchor="middle" font-family="monospace" font-size="11" fill="#334155">2024-06</text>
<line x1="350.0" y1="420" x2="350.0" y2="90" stroke="#94a3b8" stroke-width="1.2"/>
<line x1="350.0" y1="605" x2="350.0" y2="480" stroke="#94a3b8" stroke-width="1.2"/>
<line x1="350.0" y1="770" x2="350.0" y2="645" stroke="#94a3b8" stroke-width="1.2"/>
<text x="350.0" y="788" text-anchor="middle" font-family="monospace" font-size="11" fill="#334155">2024-07</text>
<line x1="400.0" y1="420" x2="400.0" y2="90" stroke="#94a3b8" stroke-width="1.2"/>
<line x1="400.0" y1="605" x2="400.0" y2="480" stroke="#94a3b8" stroke-width="1.2"/>
<line x1="400.0" y1="770" x2="400.0" y2="645" stroke="#94a3b8" stroke-width="1.2"/>
<text x="400.0" y="788" text-anchor="middle" font-family="monospace" font-size="11" fill="#334155">2024-08</text>
<line x1="440.0" y1="420" x2="440.0" y2="90" stroke="#94a3b8" stroke-width="1.2"/>
<line x1="440.0" y1="605" x2="440.0" y2="480" stroke="#94a3b8" stroke-width="1.2"/>
<line x1="440.0" y1="770" x2="440.0" y2="645" stroke="#94a3b8" stroke-width="1.2"/>
<text x="440.0" y="788" text-anchor="middle" font-family="monospace" font-size="11" fill="#334155">2024-09</text>
<line x1="489.99999999999994" y1="420" x2="489.99999999999994" y2="90" stroke="#94a3b8" stroke-width="1.2"/>
<line x1="489.99999999999994" y1="605" x2="489.99999999999994" y2="480" stroke="#94a3b8" stroke-width="1.2"/>
<line x1="489.99999999999994" y1="770" x2="489.99999999999994" y2="645" stroke="#94a3b8" stroke-width="1.2"/>
<text x="489.99999999999994" y="788" text-anchor="middle" font-family="monospace" font-size="11" fill="#334155">2024-10</text>
<line x1="530.0" y1="420" x2="530.0" y2="90" stroke="#94a3b8" stroke-width="1.2"/>
<line x1="530.0" y1="605" x2="530.0" y2="480" stroke="#94a3b8" stroke-width="1.2"/>
<line x1="530.0" y1="770" x2="530.0" y2="645" stroke="#94a3b8" stroke-width="1.2"/>
<text x="530.0" y="788" text-anchor="middle" font-family="monospace" font-size="11" fill="#334155">2024-11</text>
<line x1="570.0" y1="420" x2="570.0" y2="90" stroke="#94a3b8" stroke-width="1.2"/>
<line x1="570.0" y1="605" x2="570.0" y2="480" stroke="#94a3b8" stroke-width="1.2"/>
<line x1="570.0" y1="770" x2="570.0" y2="645" stroke="#94a3b8" stroke-width="1.2"/>
<text x="570.0" y="788" text-anchor="middle" font-family="monospace" font-size="11" fill="#334155">2024-12</text>
<line x1="620.0" y1="420" x2="620.0" y2="90" stroke="#94a3b8" stroke-width="1.2"/>
<line x1="620.0" y1="605" x2="620.0" y2="480" stroke="#94a3b8" stroke-width="1.2"/>
<line x1="620.0" y1="770" x2="620.0" y2="645" stroke="#94a3b8" stroke-width="1.2"/>
<text x="620.0" y="788" text-anchor="middle" font-family="monospace" font-size="11" fill="#334155">2025-01</text>
<line x1="660.0" y1="420" x2="660.0" y2="90" stroke="#94a3b8" stroke-width="1.2"/>
<line x1="660.0" y1="605" x2="660.0" y2="480" stroke="#94a3b8" stroke-width="1.2"/>
<line x1="660.0" y1="770" x2="660.0" y2="645" stroke="#94a3b8" stroke-width="1.2"/>
<text x="660.0" y="788" text-anchor="middle" font-family="monospace" font-size="11" fill="#334155">2025-02</text>
<line x1="700.0" y1="420" x2="700.0" y2="90" stroke="#94a3b8" stroke-width="1.2"/>
<line x1="700.0" y1="605" x2="700.0" y2="480" stroke="#94a3b8" stroke-width="1.2"/>
<line x1="700.0" y1="770" x2="700.0" y2="645" stroke="#94a3b8" stroke-width="1.2"/>
<text x="700.0" y="788" text-anchor="middle" font-family="monospace" font-size="11" fill="#334155">2025-03</text>
<line x1="750.0" y1="420" x2="750.0" y2="90" stroke="#94a3b8" stroke-width="1.2"/>
<line x1="750.0" y1="605" x2="750.0" y2="480" stroke="#94a3b8" stroke-width="1.2"/>
<line x1="750.0" y1="770" x2="750.0" y2="645" stroke="#94a3b8" stroke-width="1.2"/>
<text x="750.0" y="788" text-anchor="middle" font-family="monospace" font-size="11" fill="#334155">2025-04</text>
<line x1="790.0" y1="420" x2="790.0" y2="90" stroke="#94a3b8" stroke-width="1.2"/>
<line x1="790.0" y1="605" x2="790.0" y2="480" stroke="#94a3b8" stroke-width="1.2"/>
<line x1="790.0" y1="770" x2="790.0" y2="645" stroke="#94a3b8" stroke-width="1.2"/>
<text x="790.0" y="788" text-anchor="middle" font-family="monospace" font-size="11" fill="#334155">2025-05</text>
<line x1="830.0" y1="420" x2="830.0" y2="90" stroke="#94a3b8" stroke-width="1.2"/>
<line x1="830.0" y1="605" x2="830.0" y2="480" stroke="#94a3b8" stroke-width="1.2"/>
<line x1="830.0" y1="770" x2="830.0" y2="645" stroke="#94a3b8" stroke-width="1.2"/>
<text x="830.0" y="788" text-anchor="middle" font-family="monospace" font-size="11" fill="#334155">2025-06</text>
<line x1="880.0000000000001" y1="420" x2="880.0000000000001" y2="90" stroke="#94a3b8" stroke-width="1.2"/>
<line x1="880.0000000000001" y1="605" x2="880.0000000000001" y2="480" stroke="#94a3b8" stroke-width="1.2"/>
<line x1="880.0000000000001" y1="770" x2="880.0000000000001" y2="645" stroke="#94a3b8" stroke-width="1.2"/>
<text x="880.0000000000001" y="788" text-anchor="middle" font-family="monospace" font-size="11" fill="#334155">2025-07</text>
<line x1="920.0" y1="420" x2="920.0" y2="90" stroke="#94a3b8" stroke-width="1.2"/>
<line x1="920.0" y1="605" x2="920.0" y2="480" stroke="#94a3b8" stroke-width="1.2"/>
<line x1="920.0" y1="770" x2="920.0" y2="645" stroke="#94a3b8" stroke-width="1.2"/>
<text x="920.0" y="788" text-anchor="middle" font-family="monospace" font-size="11" fill="#334155">2025-08</text>
<line x1="960.0" y1="420" x2="960.0" y2="90" stroke="#94a3b8" stroke-width="1.2"/>
<line x1="960.0" y1="605" x2="960.0" y2="480" stroke="#94a3b8" stroke-width="1.2"/>
<line x1="960.0" y1="770" x2="960.0" y2="645" stroke="#94a3b8" stroke-width="1.2"/>
<text x="960.0" y="788" text-anchor="middle" font-family="monospace" font-size="11" fill="#334155">2025-09</text>
<line x1="1009.9999999999999" y1="420" x2="1009.9999999999999" y2="90" stroke="#94a3b8" stroke-width="1.2"/>
<line x1="1009.9999999999999" y1="605" x2="1009.9999999999999" y2="480" stroke="#94a3b8" stroke-width="1.2"/>
<line x1="1009.9999999999999" y1="770" x2="1009.9999999999999" y2="645" stroke="#94a3b8" stroke-width="1.2"/>
<text x="1009.9999999999999" y="788" text-anchor="middle" font-family="monospace" font-size="11" fill="#334155">2025-10</text>
<line x1="1050.0" y1="420" x2="1050.0" y2="90" stroke="#94a3b8" stroke-width="1.2"/>
<line x1="1050.0" y1="605" x2="1050.0" y2="480" stroke="#94a3b8" stroke-width="1.2"/>
<line x1="1050.0" y1="770" x2="1050.0" y2="645" stroke="#94a3b8" stroke-width="1.2"/>
<text x="1050.0" y="788" text-anchor="middle" font-family="monospace" font-size="11" fill="#334155">2025-11</text>
<line x1="1090.0" y1="420" x2="1090.0" y2="90" stroke="#94a3b8" stroke-width="1.2"/>
<line x1="1090.0" y1="605" x2="1090.0" y2="480" stroke="#94a3b8" stroke-width="1.2"/>
<line x1="1090.0" y1="770" x2="1090.0" y2="645" stroke="#94a3b8" stroke-width="1.2"/>
<text x="1090.0" y="788" text-anchor="middle" font-family="monospace" font-size="11" fill="#334155">2025-12</text>
<line x1="1140.0" y1="420" x2="1140.0" y2="90" stroke="#94a3b8" stroke-width="1.2"/>
<line x1="1140.0" y1="605" x2="1140.0" y2="480" stroke="#94a3b8" stroke-width="1.2"/>
<line x1="1140.0" y1="770" x2="1140.0" y2="645" stroke="#94a3b8" stroke-width="1.2"/>
<text x="1140.0" y="788" text-anchor="middle" font-family="monospace" font-size="11" fill="#334155">2026-01</text>
<line x1="1180.0" y1="420" x2="1180.0" y2="90" stroke="#94a3b8" stroke-width="1.2"/>
<line x1="1180.0" y1="605" x2="1180.0" y2="480" stroke="#94a3b8" stroke-width="1.2"/>
<line x1="1180.0" y1="770" x2="1180.0" y2="645" stroke="#94a3b8" stroke-width="1.2"/>
<text x="1180.0" y="788" text-anchor="middle" font-family="monospace" font-size="11" fill="#334155">2026-02</text>
<line x1="1220.0" y1="420" x2="1220.0" y2="90" stroke="#94a3b8" stroke-width="1.2"/>
<line x1="1220.0" y1="605" x2="1220.0" y2="480" stroke="#94a3b8" stroke-width="1.2"/>
<line x1="1220.0" y1="770" x2="1220.0" y2="645" stroke="#94a3b8" stroke-width="1.2"/>
<text x="1220.0" y="788" text-anchor="middle" font-family="monospace" font-size="11" fill="#334155">2026-03</text>
<line x1="1270.0" y1="420" x2="1270.0" y2="90" stroke="#94a3b8" stroke-width="1.2"/>
<line x1="1270.0" y1="605" x2="1270.0" y2="480" stroke="#94a3b8" stroke-width="1.2"/>
<line x1="1270.0" y1="770" x2="1270.0" y2="645" stroke="#94a3b8" stroke-width="1.2"/>
<text x="1270.0" y="788" text-anchor="middle" font-family="monospace" font-size="11" fill="#334155">2026-04</text>
<line x1="1310.0" y1="420" x2="1310.0" y2="90" stroke="#94a3b8" stroke-width="1.2"/>
<line x1="1310.0" y1="605" x2="1310.0" y2="480" stroke="#94a3b8" stroke-width="1.2"/>
<line x1="1310.0" y1="770" x2="1310.0" y2="645" stroke="#94a3b8" stroke-width="1.2"/>
<text x="1310.0" y="788" text-anchor="middle" font-family="monospace" font-size="11" fill="#334155">2026-05</text>
<line x1="90" y1="420.0" x2="1310" y2="420.0" stroke="#cbd5e1" stroke-width="1"/>
<text x="78" y="424.0" text-anchor="end" font-family="monospace" font-size="12" fill="#475569">0</text>
<line x1="90" y1="354.0" x2="1310" y2="354.0" stroke="#cbd5e1" stroke-width="1"/>
<text x="78" y="358.0" text-anchor="end" font-family="monospace" font-size="12" fill="#475569">17797</text>
<line x1="90" y1="288.0" x2="1310" y2="288.0" stroke="#cbd5e1" stroke-width="1"/>
<text x="78" y="292.0" text-anchor="end" font-family="monospace" font-size="12" fill="#475569">35593</text>
<line x1="90" y1="222.0" x2="1310" y2="222.0" stroke="#cbd5e1" stroke-width="1"/>
<text x="78" y="226.0" text-anchor="end" font-family="monospace" font-size="12" fill="#475569">53390</text>
<line x1="90" y1="156.0" x2="1310" y2="156.0" stroke="#cbd5e1" stroke-width="1"/>
<text x="78" y="160.0" text-anchor="end" font-family="monospace" font-size="12" fill="#475569">71186</text>
<line x1="90" y1="90.0" x2="1310" y2="90.0" stroke="#cbd5e1" stroke-width="1"/>
<text x="78" y="94.0" text-anchor="end" font-family="monospace" font-size="12" fill="#475569">88983</text>
<polygon points="90.0,383.65591719453926 100.0,383.18209106361985 110.0,379.83136627923454 120.0,371.76999203449185 130.0,372.5117080101135 140.0,373.2534239857352 150.0,373.9951399613568 160.0,373.33332976456626 170.0,372.8885902720326 180.0,373.6303062476543 190.0,370.1656769679968 200.0,370.90739294361845 210.0,371.64910891924006 220.0,368.3366454761907 230.0,369.0783614518124 240.0,369.82007742743406 250.0,370.5617934030557 260.0,371.3035093786773 270.0,372.04522535429896 280.0,372.78694132992064 290.0,373.52865730554225 300.0,372.1451819337619 310.0,371.5117896751773 320.0,369.8289237255293 330.0,369.40110106911357 340.0,361.629626115154 350.0,362.3713420907756 360.0,360.3372749469645 370.0,361.0789909225861 380.0,361.8207068982078 390.0,362.5624228738294 400.0,363.3041388494511 410.0,363.8007819181706 420.0,364.54249789379224 429.99999999999994,365.2842138694139 440.0,366.02592984503553 450.0,366.7676458206572 460.0,367.5093617962789 470.0,368.2510777719005 480.0,368.9927937475221 489.99999999999994,369.44444195943566 500.0,370.1861579350573 510.0,370.92787391067895 520.0,371.6695898863006 530.0,372.41130586192224 540.0,373.1530218375439 550.0,373.33343929971556 560.0,373.88135820902227 570.0,374.62307418464394 580.0,375.1839625982664 590.0,374.563928524039 600.0,374.7048549996812 610.0,375.2216674211321 620.0,374.6549080926296 630.0,373.88298972313004 640.0,372.2181312692525 650.0,370.9054784000521 660.0,368.9503808457573 670.0,367.8586434079934 680.0,368.18595907667657 690.0,368.45883068083634 700.0,368.28310160469465 710.0,364.0207351631251 720.0,360.4110718041366 730.0,361.1527877797582 740.0,358.8929830758866 750.0,357.30272697455234 760.0000000000001,355.4726363177115 769.9999999999999,353.5997748271595 780.0,354.3414908027811 790.0,355.08320677840277 800.0,355.8249227540244 810.0,356.56663872964606 820.0,357.3083547052677 830.0,358.05007068088935 840.0,353.4748371642341 850.0,354.2165531398557 860.0,354.9582691154774 870.0,355.699985091099 880.0000000000001,356.44170106672067 889.9999999999999,352.496863855518 900.0,353.23857983113965 910.0,353.98029580676126 920.0,354.72201178238294 930.0,355.46372775800455 940.0,356.2054437336262 950.0,356.94715970924784 960.0,357.6888756848695 970.0,358.43059166049113 980.0,359.1723076361128 990.0,359.9140236117345 1000.0000000000001,360.6557395873561 1009.9999999999999,361.39745556297777 1020.0,362.1391715385994 1030.0,362.88088751422106 1040.0,363.62260348984273 1050.0,364.36431946546435 1060.0,365.10603544108596 1070.0,358.854435831934 1080.0,355.3302335197212 1090.0,354.23842107693304 1100.0,351.95336682824006 1110.0,351.28791331880257 1120.0,351.02454552573835 1130.0,351.32261016192774 1140.0,350.57538524013125 1150.0,350.8087029505406 1160.0,350.64192294918206 1170.0,351.3836389248037 1180.0,352.12535490042535 1190.0,352.867070876047 1200.0,353.60878685166864 1210.0,354.35050282729026 1220.0,355.09221880291193 1230.0,355.8339347785336 1240.0,356.5756507541552 1250.0,357.3173667297769 1260.0,358.0590827053985 1270.0,358.8007986810202 1280.0,359.5425146566418 1290.0,360.2842306322635 1300.0,361.0259466078851 1310.0,361.76766258350676 1310.0,420.0 1300.0,420.0 1290.0,420.0 1280.0,420.0 1270.0,420.0 1260.0,420.0 1250.0,420.0 1240.0,420.0 1230.0,420.0 1220.0,420.0 1210.0,420.0 1200.0,420.0 1190.0,420.0 1180.0,420.0 1170.0,420.0 1160.0,420.0 1150.0,420.0 1140.0,420.0 1130.0,420.0 1120.0,420.0 1110.0,420.0 1100.0,420.0 1090.0,420.0 1080.0,420.0 1070.0,420.0 1060.0,420.0 1050.0,420.0 1040.0,420.0 1030.0,420.0 1020.0,420.0 1009.9999999999999,420.0 1000.0000000000001,420.0 990.0,420.0 980.0,420.0 970.0,420.0 960.0,420.0 950.0,420.0 940.0,420.0 930.0,420.0 920.0,420.0 910.0,420.0 900.0,420.0 889.9999999999999,420.0 880.0000000000001,420.0 870.0,420.0 860.0,420.0 850.0,420.0 840.0,420.0 830.0,420.0 820.0,420.0 810.0,420.0 800.0,420.0 790.0,420.0 780.0,420.0 769.9999999999999,420.0 760.0000000000001,420.0 750.0,420.0 740.0,420.0 730.0,420.0 720.0,420.0 710.0,420.0 700.0,420.0 690.0,420.0 680.0,420.0 670.0,420.0 660.0,420.0 650.0,420.0 640.0,420.0 630.0,420.0 620.0,420.0 610.0,420.0 600.0,420.0 590.0,420.0 580.0,420.0 570.0,420.0 560.0,420.0 550.0,420.0 540.0,420.0 530.0,420.0 520.0,420.0 510.0,420.0 500.0,420.0 489.99999999999994,420.0 480.0,420.0 470.0,420.0 460.0,420.0 450.0,420.0 440.0,420.0 429.99999999999994,420.0 420.0,420.0 410.0,420.0 400.0,420.0 390.0,420.0 380.0,420.0 370.0,420.0 360.0,420.0 350.0,420.0 340.0,420.0 330.0,420.0 320.0,420.0 310.0,420.0 300.0,420.0 290.0,420.0 280.0,420.0 270.0,420.0 260.0,420.0 250.0,420.0 240.0,420.0 230.0,420.0 220.0,420.0 210.0,420.0 200.0,420.0 190.0,420.0 180.0,420.0 170.0,420.0 160.0,420.0 150.0,420.0 140.0,420.0 130.0,420.0 120.0,420.0 110.0,420.0 100.0,420.0 90.0,420.0" fill="#facc15" fill-opacity="0.70" stroke="#facc15" stroke-width="1.2"/>
<polygon points="90.0,339.6580672366388 100.0,339.1920687729041 110.0,332.1242411164239 120.0,327.4668541221367 130.0,327.7211723198227 140.0,328.44978713014615 150.0,321.76326010586604 160.0,315.1482622854088 170.0,309.731678169303 180.0,301.0634000840661 190.0,288.57995520568113 200.0,299.896900706786 210.0,298.8486218754256 220.0,296.89194565442824 230.0,293.4171373121437 240.0,305.8999430807253 250.0,304.2453407074452 260.0,304.3247465173662 270.0,307.8792271477034 280.0,310.6066381912521 290.0,295.9855222431172 300.0,289.37722480404324 310.0,292.39935826196677 320.0,292.45111746499214 330.0,294.95177855683426 340.0,290.18152018489525 350.0,288.67586289573615 360.0,298.0504717711573 370.0,288.7766645843304 380.0,290.07612150158025 390.0,293.02291262872245 400.0,312.19965381398475 410.0,306.18068284742776 420.0,308.3681715753133 429.99999999999994,307.8098734233474 440.0,311.245720839632 450.0,315.45255982773455 460.0,317.2343054601709 470.0,309.90556948808035 480.0,311.2783480989641 489.99999999999994,315.3437063586896 500.0,311.08880936917456 510.0,310.636628969394 520.0,313.2625132044882 530.0,317.4729047053734 540.0,295.41046762267655 550.0,299.05605232841225 560.0,294.47657011422285 570.0,289.50373365441135 580.0,288.0810714722492 590.0,280.66272408951886 600.0,293.8430789404184 610.0,295.4666370078284 620.0,286.61260219687523 630.0,298.6606337513037 640.0,293.1632420928307 650.0,293.85277566247544 660.0,298.75060937835053 670.0,302.6863671764659 680.0,300.62953484899134 690.0,306.2123344755215 700.0,314.72577217605794 710.0,317.160520130472 720.0,311.6174218216585 730.0,308.0534387747921 740.0,312.04457065089775 750.0,317.01006799140407 760.0000000000001,312.956472934959 769.9999999999999,311.8772140560092 780.0,306.4181924022762 790.0,306.25957442262336 800.0,288.50601853786713 810.0,287.9900190191061 820.0,287.39516190795644 830.0,286.53996531595857 840.0,279.62064447083844 850.0,283.73807492569154 860.0,287.7714867146266 870.0,286.10558003910455 880.0000000000001,284.90240050059003 889.9999999999999,267.30101206834684 900.0,246.4976120205818 910.0,245.8557247515305 920.0,248.4630874108553 930.0,234.4520785495838 940.0,232.21936194441432 950.0,230.8189368342973 960.0,232.983879189142 970.0,233.6125426096401 980.0,227.64312699499422 990.0,237.3786105489883 1000.0000000000001,237.31705098317033 1009.9999999999999,223.9693770690153 1020.0,237.29119920466255 1030.0,245.4349625515666 1040.0,241.68443465578133 1050.0,257.3628967513452 1060.0,258.8144961939274 1070.0,275.23716507662914 1080.0,277.6874845005801 1090.0,282.11562770109015 1100.0,274.0679930325197 1110.0,278.4398811411419 1120.0,277.7469180140657 1130.0,279.9084876849649 1140.0,273.1968085361907 1150.0,276.7645930138518 1160.0,274.8467922351118 1170.0,281.4158296080632 1180.0,295.69347249838717 1190.0,301.87040550441196 1200.0,304.8240266885589 1210.0,308.6574575758742 1220.0,304.79347412199434 1230.0,306.0152595829643 1240.0,297.39436645743115 1250.0,302.826573157504 1260.0,306.41641733349616 1270.0,304.67550200008804 1280.0,298.29440650778827 1290.0,300.09912780338544 1300.0,300.76508855088844 1310.0,299.99767077112557 1310.0,361.76766258350676 1300.0,361.0259466078851 1290.0,360.2842306322635 1280.0,359.5425146566418 1270.0,358.8007986810202 1260.0,358.0590827053985 1250.0,357.3173667297769 1240.0,356.5756507541552 1230.0,355.8339347785336 1220.0,355.09221880291193 1210.0,354.35050282729026 1200.0,353.60878685166864 1190.0,352.867070876047 1180.0,352.12535490042535 1170.0,351.3836389248037 1160.0,350.64192294918206 1150.0,350.8087029505406 1140.0,350.57538524013125 1130.0,351.32261016192774 1120.0,351.02454552573835 1110.0,351.28791331880257 1100.0,351.95336682824006 1090.0,354.23842107693304 1080.0,355.3302335197212 1070.0,358.854435831934 1060.0,365.10603544108596 1050.0,364.36431946546435 1040.0,363.62260348984273 1030.0,362.88088751422106 1020.0,362.1391715385994 1009.9999999999999,361.39745556297777 1000.0000000000001,360.6557395873561 990.0,359.9140236117345 980.0,359.1723076361128 970.0,358.43059166049113 960.0,357.6888756848695 950.0,356.94715970924784 940.0,356.2054437336262 930.0,355.46372775800455 920.0,354.72201178238294 910.0,353.98029580676126 900.0,353.23857983113965 889.9999999999999,352.496863855518 880.0000000000001,356.44170106672067 870.0,355.699985091099 860.0,354.9582691154774 850.0,354.2165531398557 840.0,353.4748371642341 830.0,358.05007068088935 820.0,357.3083547052677 810.0,356.56663872964606 800.0,355.8249227540244 790.0,355.08320677840277 780.0,354.3414908027811 769.9999999999999,353.5997748271595 760.0000000000001,355.4726363177115 750.0,357.30272697455234 740.0,358.8929830758866 730.0,361.1527877797582 720.0,360.4110718041366 710.0,364.0207351631251 700.0,368.28310160469465 690.0,368.45883068083634 680.0,368.18595907667657 670.0,367.8586434079934 660.0,368.9503808457573 650.0,370.9054784000521 640.0,372.2181312692525 630.0,373.88298972313004 620.0,374.6549080926296 610.0,375.2216674211321 600.0,374.7048549996812 590.0,374.563928524039 580.0,375.1839625982664 570.0,374.62307418464394 560.0,373.88135820902227 550.0,373.33343929971556 540.0,373.1530218375439 530.0,372.41130586192224 520.0,371.6695898863006 510.0,370.92787391067895 500.0,370.1861579350573 489.99999999999994,369.44444195943566 480.0,368.9927937475221 470.0,368.2510777719005 460.0,367.5093617962789 450.0,366.7676458206572 440.0,366.02592984503553 429.99999999999994,365.2842138694139 420.0,364.54249789379224 410.0,363.8007819181706 400.0,363.3041388494511 390.0,362.5624228738294 380.0,361.8207068982078 370.0,361.0789909225861 360.0,360.3372749469645 350.0,362.3713420907756 340.0,361.629626115154 330.0,369.40110106911357 320.0,369.8289237255293 310.0,371.5117896751773 300.0,372.1451819337619 290.0,373.52865730554225 280.0,372.78694132992064 270.0,372.04522535429896 260.0,371.3035093786773 250.0,370.5617934030557 240.0,369.82007742743406 230.0,369.0783614518124 220.0,368.3366454761907 210.0,371.64910891924006 200.0,370.90739294361845 190.0,370.1656769679968 180.0,373.6303062476543 170.0,372.8885902720326 160.0,373.33332976456626 150.0,373.9951399613568 140.0,373.2534239857352 130.0,372.5117080101135 120.0,371.76999203449185 110.0,379.83136627923454 100.0,383.18209106361985 90.0,383.65591719453926" fill="#2563eb" fill-opacity="0.70" stroke="#2563eb" stroke-width="1.2"/>
<polygon points="90.0,257.28906179770235 100.0,252.500086928181 110.0,257.46411644892135 120.0,266.4503733916881 130.0,260.4954249822697 140.0,261.8598873005309 150.0,243.43174169732254 160.0,234.95523479740308 170.0,226.10135991093267 180.0,195.85822262156276 190.0,181.43778139909335 200.0,199.06688818700553 210.0,194.2517476130771 220.0,196.2903713185008 230.0,189.64284818659584 240.0,213.59286232940264 250.0,206.61108209011454 260.0,210.72143296235814 270.0,214.90583417771828 280.0,217.6007506898822 290.0,190.0471738366438 300.0,188.25343437331554 310.0,191.7468939893609 320.0,192.8183157544416 330.0,200.441317548686 340.0,212.65404492297753 350.0,207.47495414247928 360.0,224.40194840541912 370.0,204.2908655581556 380.0,201.56504554426454 390.0,205.171761602846 400.0,240.74271965267155 410.0,227.30407769298031 420.0,228.99594635981236 429.99999999999994,223.5445388284796 440.0,231.571273373247 450.0,238.21746401065732 460.0,238.06500628530205 470.0,223.38797327915793 480.0,224.44128086207687 489.99999999999994,229.93616671789744 500.0,220.00285136461628 510.0,217.41436346998395 520.0,216.10037161823115 530.0,222.88156645145713 540.0,171.20456741714767 550.0,172.59263579582353 560.0,164.37175815605437 570.0,155.02296237501497 580.0,151.35942267544215 590.0,132.6048693805339 600.0,161.83302382074584 610.0,166.29707889446655 620.0,144.91056371919427 630.0,168.87034533742477 640.0,154.91768863326166 650.0,157.40308036113987 660.0,165.43199196977983 670.0,176.1070898736812 680.0,176.25351300061186 690.0,187.48031612254076 700.0,203.48141138801867 710.0,220.3830608843663 720.0,212.08479963901738 730.0,203.98885110842505 740.0,216.54286656977092 750.0,227.3970851957936 760.0000000000001,219.37281812360277 769.9999999999999,217.29388152448163 780.0,203.33674949615863 790.0,203.14195378462634 800.0,176.23748732541503 810.0,172.27529742566685 820.0,167.09350057907477 830.0,169.77921676896335 840.0,162.95914298111182 850.0,170.35229596876735 860.0,175.53650564232572 870.0,171.63253273102038 880.0000000000001,168.8871709729261 889.9999999999999,143.1782074257854 900.0,124.52538894418518 910.0,122.8460118266828 920.0,128.22753627657477 930.0,110.03122785802083 940.0,109.95909092504797 950.0,114.66320927792759 960.0,117.39304516343202 970.0,114.65420188117338 980.0,104.80214247882344 990.0,116.98223618885805 1000.0000000000001,114.81069305303822 1009.9999999999999,89.99999999999994 1020.0,113.0975473803897 1030.0,125.94055916046494 1040.0,118.01607855373373 1050.0,141.48507227535538 1060.0,143.195019625751 1070.0,174.38805213379794 1080.0,180.66613810298122 1090.0,186.90404090018512 1100.0,173.66164853011787 1110.0,182.35478356070576 1120.0,178.91237053213348 1130.0,182.31689183489743 1140.0,167.66182553490185 1150.0,173.8740015980448 1160.0,170.03775423227913 1170.0,181.1159242162282 1180.0,205.91437974126953 1190.0,221.4951611369694 1200.0,225.50406860480027 1210.0,233.84202549448574 1220.0,224.73775091196947 1230.0,226.0537160960468 1240.0,209.52025192395266 1250.0,219.28968792215306 1260.0,227.38486494955626 1270.0,222.76677133713025 1280.0,209.36207203480035 1290.0,209.10098152249773 1300.0,207.59739671805326 1310.0,203.46295606104454 1310.0,299.99767077112557 1300.0,300.76508855088844 1290.0,300.09912780338544 1280.0,298.29440650778827 1270.0,304.67550200008804 1260.0,306.41641733349616 1250.0,302.826573157504 1240.0,297.39436645743115 1230.0,306.0152595829643 1220.0,304.79347412199434 1210.0,308.6574575758742 1200.0,304.8240266885589 1190.0,301.87040550441196 1180.0,295.69347249838717 1170.0,281.4158296080632 1160.0,274.8467922351118 1150.0,276.7645930138518 1140.0,273.1968085361907 1130.0,279.9084876849649 1120.0,277.7469180140657 1110.0,278.4398811411419 1100.0,274.0679930325197 1090.0,282.11562770109015 1080.0,277.6874845005801 1070.0,275.23716507662914 1060.0,258.8144961939274 1050.0,257.3628967513452 1040.0,241.68443465578133 1030.0,245.4349625515666 1020.0,237.29119920466255 1009.9999999999999,223.9693770690153 1000.0000000000001,237.31705098317033 990.0,237.3786105489883 980.0,227.64312699499422 970.0,233.6125426096401 960.0,232.983879189142 950.0,230.8189368342973 940.0,232.21936194441432 930.0,234.4520785495838 920.0,248.4630874108553 910.0,245.8557247515305 900.0,246.4976120205818 889.9999999999999,267.30101206834684 880.0000000000001,284.90240050059003 870.0,286.10558003910455 860.0,287.7714867146266 850.0,283.73807492569154 840.0,279.62064447083844 830.0,286.53996531595857 820.0,287.39516190795644 810.0,287.9900190191061 800.0,288.50601853786713 790.0,306.25957442262336 780.0,306.4181924022762 769.9999999999999,311.8772140560092 760.0000000000001,312.956472934959 750.0,317.01006799140407 740.0,312.04457065089775 730.0,308.0534387747921 720.0,311.6174218216585 710.0,317.160520130472 700.0,314.72577217605794 690.0,306.2123344755215 680.0,300.62953484899134 670.0,302.6863671764659 660.0,298.75060937835053 650.0,293.85277566247544 640.0,293.1632420928307 630.0,298.6606337513037 620.0,286.61260219687523 610.0,295.4666370078284 600.0,293.8430789404184 590.0,280.66272408951886 580.0,288.0810714722492 570.0,289.50373365441135 560.0,294.47657011422285 550.0,299.05605232841225 540.0,295.41046762267655 530.0,317.4729047053734 520.0,313.2625132044882 510.0,310.636628969394 500.0,311.08880936917456 489.99999999999994,315.3437063586896 480.0,311.2783480989641 470.0,309.90556948808035 460.0,317.2343054601709 450.0,315.45255982773455 440.0,311.245720839632 429.99999999999994,307.8098734233474 420.0,308.3681715753133 410.0,306.18068284742776 400.0,312.19965381398475 390.0,293.02291262872245 380.0,290.07612150158025 370.0,288.7766645843304 360.0,298.0504717711573 350.0,288.67586289573615 340.0,290.18152018489525 330.0,294.95177855683426 320.0,292.45111746499214 310.0,292.39935826196677 300.0,289.37722480404324 290.0,295.9855222431172 280.0,310.6066381912521 270.0,307.8792271477034 260.0,304.3247465173662 250.0,304.2453407074452 240.0,305.8999430807253 230.0,293.4171373121437 220.0,296.89194565442824 210.0,298.8486218754256 200.0,299.896900706786 190.0,288.57995520568113 180.0,301.0634000840661 170.0,309.731678169303 160.0,315.1482622854088 150.0,321.76326010586604 140.0,328.44978713014615 130.0,327.7211723198227 120.0,327.4668541221367 110.0,332.1242411164239 100.0,339.1920687729041 90.0,339.6580672366388" fill="#f97316" fill-opacity="0.70" stroke="#f97316" stroke-width="1.2"/>
<rect x="1100" y="76" width="16" height="12" fill="#f97316" fill-opacity="0.70" stroke="#f97316"/>
<text x="1124" y="86" font-family="monospace" font-size="12" fill="#0f172a">BTC</text>
<rect x="1100" y="98" width="16" height="12" fill="#2563eb" fill-opacity="0.70" stroke="#2563eb"/>
<text x="1124" y="108" font-family="monospace" font-size="12" fill="#0f172a">ETH</text>
<rect x="1100" y="120" width="16" height="12" fill="#facc15" fill-opacity="0.70" stroke="#facc15"/>
<text x="1124" y="130" font-family="monospace" font-size="12" fill="#0f172a">DAI</text>
<text x="700.0" y="782" text-anchor="middle" font-family="monospace" font-size="16" fill="#0f172a">time</text>
<text x="24" y="255.0" transform="rotate(-90 24,255.0)" text-anchor="middle" font-family="monospace" font-size="16" fill="#0f172a">asset value split (usd)</text>
<line x1="90" y1="605" x2="1310" y2="605" stroke="#334155" stroke-width="2"/>
<line x1="90" y1="480" x2="90" y2="605" stroke="#334155" stroke-width="2"/>
<line x1="90" y1="542.5" x2="1310" y2="542.5" stroke="#64748b" stroke-width="1.5" stroke-dasharray="6 4"/>
<line x1="90" y1="605.0" x2="1310" y2="605.0" stroke="#e2e8f0" stroke-width="1"/>
<text x="78" y="609.0" text-anchor="end" font-family="monospace" font-size="11" fill="#475569">-2274</text>
<line x1="90" y1="542.5" x2="1310" y2="542.5" stroke="#e2e8f0" stroke-width="1"/>
<text x="78" y="546.5" text-anchor="end" font-family="monospace" font-size="11" fill="#475569">0</text>
<line x1="90" y1="480.0" x2="1310" y2="480.0" stroke="#e2e8f0" stroke-width="1"/>
<text x="78" y="484.0" text-anchor="end" font-family="monospace" font-size="11" fill="#475569">2274</text>
<rect x="87.27235772357723" y="539.7511876334842" width="5.455284552845528" height="2.7488123665158355" fill="#ea580c" opacity="0.85"><title>2024-01-01 | BTC buy 100.00 usd | reason=btc_defensive_regime</title></rect>
<rect x="97.27235772357723" y="542.5" width="5.455284552845528" height="6.2608282083159565" fill="#dc2626" opacity="0.85"><title>2024-01-08 | BTC sell 227.76 usd | reason=btc_defensive_regime</title></rect>
<rect x="107.27235772357723" y="542.5" width="5.455284552845528" height="27.584501570566545" fill="#dc2626" opacity="0.85"><title>2024-01-15 | BTC sell 1003.51 usd | reason=balanced_regime</title></rect>
<rect x="117.27235772357723" y="542.5" width="5.455284552845528" height="62.5" fill="#dc2626" opacity="0.85"><title>2024-01-22 | BTC sell 2273.71 usd | reason=eth_strong_risk_on</title></rect>
<rect x="127.27235772357723" y="539.7511876334842" width="5.455284552845528" height="2.7488123665158355" fill="#ea580c" opacity="0.85"><title>2024-01-29 | BTC buy 100.00 usd | reason=btc_defensive_regime</title></rect>
<rect x="137.27235772357724" y="539.7511876334842" width="5.455284552845528" height="2.7488123665158355" fill="#ea580c" opacity="0.85"><title>2024-02-05 | BTC buy 100.00 usd | reason=btc_defensive_regime</title></rect>
<rect x="147.27235772357724" y="539.7511876334842" width="5.455284552845528" height="2.7488123665158355" fill="#ea580c" opacity="0.85"><title>2024-02-12 | BTC buy 100.00 usd | reason=btc_defensive_regime</title></rect>
<rect x="157.27235772357724" y="542.5" width="5.455284552845528" height="7.654172674278925" fill="#dc2626" opacity="0.85"><title>2024-02-19 | BTC sell 278.45 usd | reason=balanced_regime</title></rect>
<rect x="167.27235772357724" y="542.5" width="5.455284552845528" height="6.045237028071369" fill="#dc2626" opacity="0.85"><title>2024-02-26 | BTC sell 219.92 usd | reason=balanced_regime</title></rect>
<rect x="177.27235772357724" y="539.7511876334842" width="5.455284552845528" height="2.7488123665158355" fill="#ea580c" opacity="0.85"><title>2024-03-04 | BTC buy 100.00 usd | reason=btc_defensive_regime</title></rect>
<rect x="187.27235772357724" y="542.5" width="5.455284552845528" height="28.428765670294638" fill="#dc2626" opacity="0.85"><title>2024-03-11 | BTC sell 1034.22 usd | reason=balanced_regime</title></rect>
<rect x="197.27235772357724" y="539.7511876334842" width="5.455284552845528" height="2.7488123665158355" fill="#ea580c" opacity="0.85"><title>2024-03-18 | BTC buy 100.00 usd | reason=btc_defensive_regime</title></rect>
<rect x="207.27235772357724" y="539.7511876334842" width="5.455284552845528" height="2.7488123665158355" fill="#ea580c" opacity="0.85"><title>2024-03-25 | BTC buy 100.00 usd | reason=btc_defensive_regime</title></rect>
<rect x="217.27235772357724" y="542.5" width="5.455284552845528" height="27.30090717141536" fill="#dc2626" opacity="0.85"><title>2024-04-01 | BTC sell 993.19 usd | reason=balanced_regime</title></rect>
<rect x="227.27235772357724" y="539.7511876334842" width="5.455284552845528" height="2.7488123665158355" fill="#ea580c" opacity="0.85"><title>2024-04-08 | BTC buy 100.00 usd | reason=btc_defensive_regime</title></rect>
<rect x="237.27235772357724" y="539.7511876334842" width="5.455284552845528" height="2.7488123665158355" fill="#ea580c" opacity="0.85"><title>2024-04-15 | BTC buy 100.00 usd | reason=btc_defensive_regime</title></rect>
<rect x="247.27235772357724" y="539.7511876334842" width="5.455284552845528" height="2.7488123665158355" fill="#ea580c" opacity="0.85"><title>2024-04-22 | BTC buy 100.00 usd | reason=btc_defensive_regime</title></rect>
<rect x="257.2723577235772" y="539.7511876334842" width="5.455284552845528" height="2.7488123665158355" fill="#ea580c" opacity="0.85"><title>2024-04-29 | BTC buy 100.00 usd | reason=btc_defensive_regime</title></rect>
<rect x="267.2723577235772" y="539.7511876334842" width="5.455284552845528" height="2.7488123665158355" fill="#ea580c" opacity="0.85"><title>2024-05-06 | BTC buy 100.00 usd | reason=btc_defensive_regime</title></rect>
<rect x="277.2723577235772" y="539.7511876334842" width="5.455284552845528" height="2.7488123665158355" fill="#ea580c" opacity="0.85"><title>2024-05-13 | BTC buy 100.00 usd | reason=btc_defensive_regime</title></rect>
<rect x="287.2723577235772" y="539.7511876334842" width="5.455284552845528" height="2.7488123665158355" fill="#ea580c" opacity="0.85"><title>2024-05-20 | BTC buy 100.00 usd | reason=btc_defensive_regime</title></rect>
<rect x="297.2723577235772" y="542.5" width="5.455284552845528" height="13.003180172285852" fill="#dc2626" opacity="0.85"><title>2024-05-27 | BTC sell 473.05 usd | reason=balanced_regime</title></rect>
<rect x="307.2723577235772" y="539.7511876334842" width="5.455284552845528" height="2.7488123665158355" fill="#ea580c" opacity="0.85"><title>2024-06-03 | BTC buy 100.00 usd | reason=btc_defensive_regime</title></rect>
<rect x="317.2723577235772" y="542.5" width="5.455284552845528" height="15.222273598637003" fill="#dc2626" opacity="0.85"><title>2024-06-10 | BTC sell 553.78 usd | reason=balanced_regime</title></rect>
<rect x="327.2723577235772" y="542.5" width="5.455284552845528" height="5.919848847550156" fill="#dc2626" opacity="0.85"><title>2024-06-17 | BTC sell 215.36 usd | reason=balanced_regime</title></rect>
<rect x="337.2723577235772" y="542.5" width="5.455284552845528" height="60.351256325223744" fill="#dc2626" opacity="0.85"><title>2024-06-24 | BTC sell 2195.54 usd | reason=eth_strong_risk_on</title></rect>
<rect x="347.2723577235772" y="539.7511876334842" width="5.455284552845528" height="2.7488123665158355" fill="#ea580c" opacity="0.85"><title>2024-07-01 | BTC buy 100.00 usd | reason=balanced_regime</title></rect>
<rect x="357.2723577235772" y="539.7511876334842" width="5.455284552845528" height="2.7488123665158355" fill="#ea580c" opacity="0.85"><title>2024-07-08 | BTC buy 100.00 usd | reason=both_weak_btc_defensive</title></rect>
<rect x="367.2723577235772" y="539.7511876334842" width="5.455284552845528" height="2.7488123665158355" fill="#ea580c" opacity="0.85"><title>2024-07-15 | BTC buy 100.00 usd | reason=balanced_regime</title></rect>
<rect x="377.2723577235772" y="539.7511876334842" width="5.455284552845528" height="2.7488123665158355" fill="#ea580c" opacity="0.85"><title>2024-07-22 | BTC buy 100.00 usd | reason=balanced_regime</title></rect>
<rect x="387.2723577235772" y="539.7511876334842" width="5.455284552845528" height="2.7488123665158355" fill="#ea580c" opacity="0.85"><title>2024-07-29 | BTC buy 100.00 usd | reason=balanced_regime</title></rect>
<rect x="397.2723577235772" y="539.7511876334842" width="5.455284552845528" height="2.7488123665158355" fill="#ea580c" opacity="0.85"><title>2024-08-05 | BTC buy 100.00 usd | reason=both_weak_btc_defensive</title></rect>
<rect x="407.2723577235772" y="539.7511876334842" width="5.455284552845528" height="2.7488123665158355" fill="#ea580c" opacity="0.85"><title>2024-08-12 | BTC buy 100.00 usd | reason=both_weak_btc_defensive</title></rect>
<rect x="417.2723577235772" y="539.7511876334842" width="5.455284552845528" height="2.7488123665158355" fill="#ea580c" opacity="0.85"><title>2024-08-19 | BTC buy 100.00 usd | reason=both_weak_btc_defensive</title></rect>
<rect x="427.27235772357716" y="539.7511876334842" width="5.455284552845528" height="2.7488123665158355" fill="#ea580c" opacity="0.85"><title>2024-08-26 | BTC buy 100.00 usd | reason=both_weak_btc_defensive</title></rect>
<rect x="437.2723577235772" y="539.7511876334842" width="5.455284552845528" height="2.7488123665158355" fill="#ea580c" opacity="0.85"><title>2024-09-02 | BTC buy 100.00 usd | reason=both_weak_btc_defensive</title></rect>
<rect x="447.2723577235772" y="539.7511876334842" width="5.455284552845528" height="2.7488123665158355" fill="#ea580c" opacity="0.85"><title>2024-09-09 | BTC buy 100.00 usd | reason=both_weak_btc_defensive</title></rect>
<rect x="457.2723577235772" y="539.7511876334842" width="5.455284552845528" height="2.7488123665158355" fill="#ea580c" opacity="0.85"><title>2024-09-16 | BTC buy 100.00 usd | reason=both_weak_btc_defensive</title></rect>
<rect x="467.2723577235772" y="539.7511876334842" width="5.455284552845528" height="2.7488123665158355" fill="#ea580c" opacity="0.85"><title>2024-09-23 | BTC buy 100.00 usd | reason=both_weak_btc_defensive</title></rect>
<rect x="477.2723577235772" y="539.7511876334842" width="5.455284552845528" height="2.7488123665158355" fill="#ea580c" opacity="0.85"><title>2024-09-30 | BTC buy 100.00 usd | reason=both_weak_btc_defensive</title></rect>
<rect x="487.27235772357716" y="541.9011800354687" width="5.455284552845528" height="1.5" fill="#ea580c" opacity="0.85"><title>2024-10-07 | BTC buy 21.78 usd | reason=both_weak_btc_defensive</title></rect>
<rect x="497.2723577235772" y="539.7511876334842" width="5.455284552845528" height="2.7488123665158355" fill="#ea580c" opacity="0.85"><title>2024-10-14 | BTC buy 100.00 usd | reason=btc_defensive_regime</title></rect>
<rect x="507.2723577235772" y="539.7511876334842" width="5.455284552845528" height="2.7488123665158355" fill="#ea580c" opacity="0.85"><title>2024-10-21 | BTC buy 100.00 usd | reason=btc_defensive_regime</title></rect>
<rect x="517.2723577235772" y="539.7511876334842" width="5.455284552845528" height="2.7488123665158355" fill="#ea580c" opacity="0.85"><title>2024-10-28 | BTC buy 100.00 usd | reason=btc_defensive_regime</title></rect>
<rect x="527.2723577235772" y="539.7511876334842" width="5.455284552845528" height="2.7488123665158355" fill="#ea580c" opacity="0.85"><title>2024-11-04 | BTC buy 100.00 usd | reason=btc_defensive_regime</title></rect>
<rect x="537.2723577235772" y="539.7511876334842" width="5.455284552845528" height="2.7488123665158355" fill="#ea580c" opacity="0.85"><title>2024-11-11 | BTC buy 100.00 usd | reason=btc_defensive_regime</title></rect>
<rect x="547.2723577235772" y="542.5" width="5.455284552845528" height="1.5" fill="#dc2626" opacity="0.85"><title>2024-11-18 | BTC sell 51.35 usd | reason=btc_defensive_regime</title></rect>
<rect x="557.2723577235772" y="541.1876182618917" width="5.455284552845528" height="1.5" fill="#ea580c" opacity="0.85"><title>2024-11-25 | BTC buy 47.74 usd | reason=btc_defensive_regime</title></rect>
<rect x="567.2723577235772" y="539.7511876334842" width="5.455284552845528" height="2.7488123665158355" fill="#ea580c" opacity="0.85"><title>2024-12-02 | BTC buy 100.00 usd | reason=btc_defensive_regime</title></rect>
<rect x="577.2723577235772" y="541.0914878426407" width="5.455284552845528" height="1.5" fill="#ea580c" opacity="0.85"><title>2024-12-09 | BTC buy 51.24 usd | reason=btc_defensive_regime</title></rect>
<rect x="587.2723577235772" y="542.5" width="5.455284552845528" height="7.344526593835781" fill="#dc2626" opacity="0.85"><title>2024-12-16 | BTC sell 267.19 usd | reason=btc_defensive_regime</title></rect>
<rect x="597.2723577235772" y="542.5" width="5.455284552845528" height="1.7042604039130538" fill="#dc2626" opacity="0.85"><title>2024-12-23 | BTC sell 62.00 usd | reason=btc_defensive_regime</title></rect>
<rect x="607.2723577235772" y="541.4181806369978" width="5.455284552845528" height="1.5" fill="#ea580c" opacity="0.85"><title>2024-12-30 | BTC buy 39.36 usd | reason=btc_defensive_regime</title></rect>
<rect x="617.2723577235772" y="542.5" width="5.455284552845528" height="6.9496523166603765" fill="#dc2626" opacity="0.85"><title>2025-01-06 | BTC sell 252.82 usd | reason=btc_defensive_regime</title></rect>
<rect x="627.2723577235772" y="542.5" width="5.455284552845528" height="8.47029829849339" fill="#dc2626" opacity="0.85"><title>2025-01-13 | BTC sell 308.14 usd | reason=btc_defensive_regime</title></rect>
<rect x="637.2723577235772" y="542.5" width="5.455284552845528" height="15.088801410654582" fill="#dc2626" opacity="0.85"><title>2025-01-20 | BTC sell 548.92 usd | reason=btc_defensive_regime</title></rect>
<rect x="647.2723577235772" y="542.5" width="5.455284552845528" height="12.478241308036331" fill="#dc2626" opacity="0.85"><title>2025-01-27 | BTC sell 453.95 usd | reason=btc_defensive_regime</title></rect>
<rect x="657.2723577235772" y="542.5" width="5.455284552845528" height="17.24006376631519" fill="#dc2626" opacity="0.85"><title>2025-02-03 | BTC sell 627.18 usd | reason=btc_defensive_regime</title></rect>
<rect x="667.2723577235772" y="542.5" width="5.455284552845528" height="10.840808409606666" fill="#dc2626" opacity="0.85"><title>2025-02-10 | BTC sell 394.38 usd | reason=btc_defensive_regime</title></rect>
<rect x="677.2723577235772" y="542.5" width="5.455284552845528" height="1.5" fill="#dc2626" opacity="0.85"><title>2025-02-17 | BTC sell 11.74 usd | reason=btc_defensive_regime</title></rect>
<rect x="687.2723577235772" y="542.5" width="5.455284552845528" height="1.5" fill="#dc2626" opacity="0.85"><title>2025-02-24 | BTC sell 26.42 usd | reason=btc_defensive_regime</title></rect>
<rect x="697.2723577235772" y="542.5" width="5.455284552845528" height="4.0513224203133404" fill="#dc2626" opacity="0.85"><title>2025-03-03 | BTC sell 147.38 usd | reason=btc_defensive_regime</title></rect>
<rect x="707.2723577235772" y="542.5" width="5.455284552845528" height="34.34162139395664" fill="#dc2626" opacity="0.85"><title>2025-03-10 | BTC sell 1249.33 usd | reason=both_weak_btc_defensive</title></rect>
<rect x="717.2723577235772" y="542.5" width="5.455284552845528" height="29.50376333499287" fill="#dc2626" opacity="0.85"><title>2025-03-17 | BTC sell 1073.33 usd | reason=both_weak_btc_defensive</title></rect>
<rect x="727.2723577235772" y="539.7511876334842" width="5.455284552845528" height="2.7488123665158355" fill="#ea580c" opacity="0.85"><title>2025-03-24 | BTC buy 100.00 usd | reason=btc_defensive_regime</title></rect>
<rect x="737.2723577235772" y="542.5" width="5.455284552845528" height="19.498563807980645" fill="#dc2626" opacity="0.85"><title>2025-03-31 | BTC sell 709.35 usd | reason=both_weak_btc_defensive</title></rect>
<rect x="747.2723577235772" y="542.5" width="5.455284552845528" height="14.535846166377382" fill="#dc2626" opacity="0.85"><title>2025-04-07 | BTC sell 528.80 usd | reason=both_weak_btc_defensive</title></rect>
<rect x="757.2723577235773" y="542.5" width="5.455284552845528" height="16.313508273605862" fill="#dc2626" opacity="0.85"><title>2025-04-14 | BTC sell 593.47 usd | reason=both_weak_btc_defensive</title></rect>
<rect x="767.2723577235771" y="542.5" width="5.455284552845528" height="16.630527187842063" fill="#dc2626" opacity="0.85"><title>2025-04-21 | BTC sell 605.01 usd | reason=both_weak_btc_defensive</title></rect>
<rect x="777.2723577235772" y="539.7511876334842" width="5.455284552845528" height="2.7488123665158355" fill="#ea580c" opacity="0.85"><title>2025-04-28 | BTC buy 100.00 usd | reason=btc_defensive_regime</title></rect>
<rect x="787.2723577235772" y="539.7511876334842" width="5.455284552845528" height="2.7488123665158355" fill="#ea580c" opacity="0.85"><title>2025-05-05 | BTC buy 100.00 usd | reason=btc_defensive_regime</title></rect>
<rect x="797.2723577235772" y="539.7511876334842" width="5.455284552845528" height="2.7488123665158355" fill="#ea580c" opacity="0.85"><title>2025-05-12 | BTC buy 100.00 usd | reason=btc_defensive_regime</title></rect>
<rect x="807.2723577235772" y="539.7511876334842" width="5.455284552845528" height="2.7488123665158355" fill="#ea580c" opacity="0.85"><title>2025-05-19 | BTC buy 100.00 usd | reason=btc_defensive_regime</title></rect>
<rect x="817.2723577235772" y="539.7511876334842" width="5.455284552845528" height="2.7488123665158355" fill="#ea580c" opacity="0.85"><title>2025-05-26 | BTC buy 100.00 usd | reason=btc_defensive_regime</title></rect>
<rect x="827.2723577235772" y="539.7511876334842" width="5.455284552845528" height="2.7488123665158355" fill="#ea580c" opacity="0.85"><title>2025-06-02 | BTC buy 100.00 usd | reason=btc_defensive_regime</title></rect>
<rect x="837.2723577235772" y="542.5" width="5.455284552845528" height="36.66060308866963" fill="#dc2626" opacity="0.85"><title>2025-06-09 | BTC sell 1333.69 usd | reason=balanced_regime</title></rect>
<rect x="847.2723577235772" y="539.7511876334842" width="5.455284552845528" height="2.7488123665158355" fill="#ea580c" opacity="0.85"><title>2025-06-16 | BTC buy 100.00 usd | reason=btc_defensive_regime</title></rect>
<rect x="857.2723577235772" y="539.7511876334842" width="5.455284552845528" height="2.7488123665158355" fill="#ea580c" opacity="0.85"><title>2025-06-23 | BTC buy 100.00 usd | reason=btc_defensive_regime</title></rect>
<rect x="867.2723577235772" y="539.7511876334842" width="5.455284552845528" height="2.7488123665158355" fill="#ea580c" opacity="0.85"><title>2025-06-30 | BTC buy 100.00 usd | reason=btc_defensive_regime</title></rect>
<rect x="877.2723577235773" y="539.7511876334842" width="5.455284552845528" height="2.7488123665158355" fill="#ea580c" opacity="0.85"><title>2025-07-07 | BTC buy 100.00 usd | reason=btc_defensive_regime</title></rect>
<rect x="887.2723577235771" y="542.5" width="5.455284552845528" height="31.98808364136596" fill="#dc2626" opacity="0.85"><title>2025-07-14 | BTC sell 1163.71 usd | reason=balanced_regime</title></rect>
<rect x="897.2723577235772" y="539.7511876334842" width="5.455284552845528" height="2.7488123665158355" fill="#ea580c" opacity="0.85"><title>2025-07-21 | BTC buy 100.00 usd | reason=balanced_regime</title></rect>
<rect x="907.2723577235772" y="539.7511876334842" width="5.455284552845528" height="2.7488123665158355" fill="#ea580c" opacity="0.85"><title>2025-07-28 | BTC buy 100.00 usd | reason=balanced_regime</title></rect>
<rect x="917.2723577235772" y="539.7511876334842" width="5.455284552845528" height="2.7488123665158355" fill="#ea580c" opacity="0.85"><title>2025-08-04 | BTC buy 100.00 usd | reason=balanced_regime</title></rect>
<rect x="927.2723577235772" y="539.7511876334842" width="5.455284552845528" height="2.7488123665158355" fill="#ea580c" opacity="0.85"><title>2025-08-11 | BTC buy 100.00 usd | reason=balanced_regime</title></rect>
<rect x="937.2723577235772" y="539.7511876334842" width="5.455284552845528" height="2.7488123665158355" fill="#ea580c" opacity="0.85"><title>2025-08-18 | BTC buy 100.00 usd | reason=balanced_regime</title></rect>
<rect x="947.2723577235772" y="539.7511876334842" width="5.455284552845528" height="2.7488123665158355" fill="#ea580c" opacity="0.85"><title>2025-08-25 | BTC buy 100.00 usd | reason=balanced_regime</title></rect>
<rect x="957.2723577235772" y="539.7511876334842" width="5.455284552845528" height="2.7488123665158355" fill="#ea580c" opacity="0.85"><title>2025-09-01 | BTC buy 100.00 usd | reason=balanced_regime</title></rect>
<rect x="967.2723577235772" y="539.7511876334842" width="5.455284552845528" height="2.7488123665158355" fill="#ea580c" opacity="0.85"><title>2025-09-08 | BTC buy 100.00 usd | reason=balanced_regime</title></rect>
<rect x="977.2723577235772" y="539.7511876334842" width="5.455284552845528" height="2.7488123665158355" fill="#ea580c" opacity="0.85"><title>2025-09-15 | BTC buy 100.00 usd | reason=balanced_regime</title></rect>
<rect x="987.2723577235772" y="539.7511876334842" width="5.455284552845528" height="2.7488123665158355" fill="#ea580c" opacity="0.85"><title>2025-09-22 | BTC buy 100.00 usd | reason=balanced_regime</title></rect>
<rect x="997.2723577235773" y="539.7511876334842" width="5.455284552845528" height="2.7488123665158355" fill="#ea580c" opacity="0.85"><title>2025-09-29 | BTC buy 100.00 usd | reason=balanced_regime</title></rect>
<rect x="1007.2723577235771" y="539.7511876334842" width="5.455284552845528" height="2.7488123665158355" fill="#ea580c" opacity="0.85"><title>2025-10-06 | BTC buy 100.00 usd | reason=balanced_regime</title></rect>
<rect x="1017.2723577235772" y="539.7511876334842" width="5.455284552845528" height="2.7488123665158355" fill="#ea580c" opacity="0.85"><title>2025-10-13 | BTC buy 100.00 usd | reason=balanced_regime</title></rect>
<rect x="1027.2723577235772" y="539.7511876334842" width="5.455284552845528" height="2.7488123665158355" fill="#ea580c" opacity="0.85"><title>2025-10-20 | BTC buy 100.00 usd | reason=balanced_regime</title></rect>
<rect x="1037.2723577235772" y="539.7511876334842" width="5.455284552845528" height="2.7488123665158355" fill="#ea580c" opacity="0.85"><title>2025-10-27 | BTC buy 100.00 usd | reason=balanced_regime</title></rect>
<rect x="1047.2723577235772" y="539.7511876334842" width="5.455284552845528" height="2.7488123665158355" fill="#ea580c" opacity="0.85"><title>2025-11-03 | BTC buy 100.00 usd | reason=balanced_regime</title></rect>
<rect x="1057.2723577235772" y="539.7511876334842" width="5.455284552845528" height="2.7488123665158355" fill="#ea580c" opacity="0.85"><title>2025-11-10 | BTC buy 100.00 usd | reason=balanced_regime</title></rect>
<rect x="1067.2723577235772" y="539.7511876334842" width="5.455284552845528" height="2.7488123665158355" fill="#ea580c" opacity="0.85"><title>2025-11-17 | BTC buy 100.00 usd | reason=both_weak_btc_defensive</title></rect>
<rect x="1077.2723577235772" y="539.7511876334842" width="5.455284552845528" height="2.7488123665158355" fill="#ea580c" opacity="0.85"><title>2025-11-24 | BTC buy 100.00 usd | reason=both_weak_btc_defensive</title></rect>
<rect x="1087.2723577235772" y="539.7511876334842" width="5.455284552845528" height="2.7488123665158355" fill="#ea580c" opacity="0.85"><title>2025-12-01 | BTC buy 100.00 usd | reason=both_weak_btc_defensive</title></rect>
<rect x="1097.2723577235772" y="539.7511876334842" width="5.455284552845528" height="2.7488123665158355" fill="#ea580c" opacity="0.85"><title>2025-12-08 | BTC buy 100.00 usd | reason=both_weak_btc_defensive</title></rect>
<rect x="1107.2723577235772" y="539.7511876334842" width="5.455284552845528" height="2.7488123665158355" fill="#ea580c" opacity="0.85"><title>2025-12-15 | BTC buy 100.00 usd | reason=both_weak_btc_defensive</title></rect>
<rect x="1117.2723577235772" y="539.7511876334842" width="5.455284552845528" height="2.7488123665158355" fill="#ea580c" opacity="0.85"><title>2025-12-22 | BTC buy 100.00 usd | reason=both_weak_btc_defensive</title></rect>
<rect x="1127.2723577235772" y="539.7511876334842" width="5.455284552845528" height="2.7488123665158355" fill="#ea580c" opacity="0.85"><title>2025-12-29 | BTC buy 100.00 usd | reason=both_weak_btc_defensive</title></rect>
<rect x="1137.2723577235772" y="539.7511876334842" width="5.455284552845528" height="2.7488123665158355" fill="#ea580c" opacity="0.85"><title>2026-01-05 | BTC buy 100.00 usd | reason=both_weak_btc_defensive</title></rect>
<rect x="1147.2723577235772" y="539.7511876334842" width="5.455284552845528" height="2.7488123665158355" fill="#ea580c" opacity="0.85"><title>2026-01-12 | BTC buy 100.00 usd | reason=both_weak_btc_defensive</title></rect>
<rect x="1157.2723577235772" y="539.7511876334842" width="5.455284552845528" height="2.7488123665158355" fill="#ea580c" opacity="0.85"><title>2026-01-19 | BTC buy 100.00 usd | reason=both_weak_btc_defensive</title></rect>
<rect x="1167.2723577235772" y="539.7511876334842" width="5.455284552845528" height="2.7488123665158355" fill="#ea580c" opacity="0.85"><title>2026-01-26 | BTC buy 100.00 usd | reason=both_weak_btc_defensive</title></rect>
<rect x="1177.2723577235772" y="539.7511876334842" width="5.455284552845528" height="2.7488123665158355" fill="#ea580c" opacity="0.85"><title>2026-02-02 | BTC buy 100.00 usd | reason=both_weak_btc_defensive</title></rect>
<rect x="1187.2723577235772" y="539.7511876334842" width="5.455284552845528" height="2.7488123665158355" fill="#ea580c" opacity="0.85"><title>2026-02-09 | BTC buy 100.00 usd | reason=both_weak_btc_defensive</title></rect>
<rect x="1197.2723577235772" y="539.7511876334842" width="5.455284552845528" height="2.7488123665158355" fill="#ea580c" opacity="0.85"><title>2026-02-16 | BTC buy 100.00 usd | reason=both_weak_btc_defensive</title></rect>
<rect x="1207.2723577235772" y="539.7511876334842" width="5.455284552845528" height="2.7488123665158355" fill="#ea580c" opacity="0.85"><title>2026-02-23 | BTC buy 100.00 usd | reason=both_weak_btc_defensive</title></rect>
<rect x="1217.2723577235772" y="539.7511876334842" width="5.455284552845528" height="2.7488123665158355" fill="#ea580c" opacity="0.85"><title>2026-03-02 | BTC buy 100.00 usd | reason=both_weak_btc_defensive</title></rect>
<rect x="1227.2723577235772" y="539.7511876334842" width="5.455284552845528" height="2.7488123665158355" fill="#ea580c" opacity="0.85"><title>2026-03-09 | BTC buy 100.00 usd | reason=both_weak_btc_defensive</title></rect>
<rect x="1237.2723577235772" y="539.7511876334842" width="5.455284552845528" height="2.7488123665158355" fill="#ea580c" opacity="0.85"><title>2026-03-16 | BTC buy 100.00 usd | reason=both_weak_btc_defensive</title></rect>
<rect x="1247.2723577235772" y="539.7511876334842" width="5.455284552845528" height="2.7488123665158355" fill="#ea580c" opacity="0.85"><title>2026-03-23 | BTC buy 100.00 usd | reason=both_weak_btc_defensive</title></rect>
<rect x="1257.2723577235772" y="539.7511876334842" width="5.455284552845528" height="2.7488123665158355" fill="#ea580c" opacity="0.85"><title>2026-03-30 | BTC buy 100.00 usd | reason=both_weak_btc_defensive</title></rect>
<rect x="1267.2723577235772" y="539.7511876334842" width="5.455284552845528" height="2.7488123665158355" fill="#ea580c" opacity="0.85"><title>2026-04-06 | BTC buy 100.00 usd | reason=both_weak_btc_defensive</title></rect>
<rect x="1277.2723577235772" y="539.7511876334842" width="5.455284552845528" height="2.7488123665158355" fill="#ea580c" opacity="0.85"><title>2026-04-13 | BTC buy 100.00 usd | reason=both_weak_btc_defensive</title></rect>
<rect x="1287.2723577235772" y="539.7511876334842" width="5.455284552845528" height="2.7488123665158355" fill="#ea580c" opacity="0.85"><title>2026-04-20 | BTC buy 100.00 usd | reason=both_weak_btc_defensive</title></rect>
<rect x="1297.2723577235772" y="539.7511876334842" width="5.455284552845528" height="2.7488123665158355" fill="#ea580c" opacity="0.85"><title>2026-04-27 | BTC buy 100.00 usd | reason=both_weak_btc_defensive</title></rect>
<rect x="1307.2723577235772" y="539.7511876334842" width="5.455284552845528" height="2.7488123665158355" fill="#ea580c" opacity="0.85"><title>2026-05-04 | BTC buy 100.00 usd | reason=both_weak_btc_defensive</title></rect>
<text x="24" y="542.5" transform="rotate(-90 24,542.5)" text-anchor="middle" font-family="monospace" font-size="14" fill="#0f172a">BTC weekly trade usd</text>
<line x1="90" y1="770" x2="1310" y2="770" stroke="#334155" stroke-width="2"/>
<line x1="90" y1="645" x2="90" y2="770" stroke="#334155" stroke-width="2"/>
<line x1="90" y1="707.5" x2="1310" y2="707.5" stroke="#64748b" stroke-width="1.5" stroke-dasharray="6 4"/>
<line x1="90" y1="770.0" x2="1310" y2="770.0" stroke="#e2e8f0" stroke-width="1"/>
<text x="78" y="774.0" text-anchor="end" font-family="monospace" font-size="11" fill="#475569">-1786</text>
<line x1="90" y1="707.5" x2="1310" y2="707.5" stroke="#e2e8f0" stroke-width="1"/>
<text x="78" y="711.5" text-anchor="end" font-family="monospace" font-size="11" fill="#475569">0</text>
<line x1="90" y1="645.0" x2="1310" y2="645.0" stroke="#e2e8f0" stroke-width="1"/>
<text x="78" y="649.0" text-anchor="end" font-family="monospace" font-size="11" fill="#475569">1786</text>
<rect x="87.27235772357723" y="703.9999965799998" width="5.455284552845528" height="3.500003420000212" fill="#2563eb" opacity="0.85"><title>2024-01-01 | ETH buy 100.00 usd | reason=btc_defensive_regime</title></rect>
<rect x="97.27235772357723" y="703.9999965799998" width="5.455284552845528" height="3.500003420000212" fill="#2563eb" opacity="0.85"><title>2024-01-08 | ETH buy 100.00 usd | reason=btc_defensive_regime</title></rect>
<rect x="107.27235772357723" y="703.9999965799998" width="5.455284552845528" height="3.500003420000212" fill="#2563eb" opacity="0.85"><title>2024-01-15 | ETH buy 100.00 usd | reason=balanced_regime</title></rect>
<rect x="117.27235772357723" y="703.9999965799998" width="5.455284552845528" height="3.500003420000212" fill="#2563eb" opacity="0.85"><title>2024-01-22 | ETH buy 100.00 usd | reason=eth_strong_risk_on</title></rect>
<rect x="127.27235772357723" y="703.9999965799998" width="5.455284552845528" height="3.500003420000212" fill="#2563eb" opacity="0.85"><title>2024-01-29 | ETH buy 100.00 usd | reason=btc_defensive_regime</title></rect>
<rect x="137.27235772357724" y="703.9999965799998" width="5.455284552845528" height="3.500003420000212" fill="#2563eb" opacity="0.85"><title>2024-02-05 | ETH buy 100.00 usd | reason=btc_defensive_regime</title></rect>
<rect x="147.27235772357724" y="703.9999965799998" width="5.455284552845528" height="3.500003420000212" fill="#2563eb" opacity="0.85"><title>2024-02-12 | ETH buy 100.00 usd | reason=btc_defensive_regime</title></rect>
<rect x="157.27235772357724" y="703.9999965799998" width="5.455284552845528" height="3.500003420000212" fill="#2563eb" opacity="0.85"><title>2024-02-19 | ETH buy 100.00 usd | reason=balanced_regime</title></rect>
<rect x="167.27235772357724" y="703.9999965799998" width="5.455284552845528" height="3.500003420000212" fill="#2563eb" opacity="0.85"><title>2024-02-26 | ETH buy 100.00 usd | reason=balanced_regime</title></rect>
<rect x="177.27235772357724" y="703.9999965799998" width="5.455284552845528" height="3.500003420000212" fill="#2563eb" opacity="0.85"><title>2024-03-04 | ETH buy 100.00 usd | reason=btc_defensive_regime</title></rect>
<rect x="187.27235772357724" y="703.9999965799998" width="5.455284552845528" height="3.500003420000212" fill="#2563eb" opacity="0.85"><title>2024-03-11 | ETH buy 100.00 usd | reason=balanced_regime</title></rect>
<rect x="197.27235772357724" y="703.9999965799998" width="5.455284552845528" height="3.500003420000212" fill="#2563eb" opacity="0.85"><title>2024-03-18 | ETH buy 100.00 usd | reason=btc_defensive_regime</title></rect>
<rect x="207.27235772357724" y="703.9999965799998" width="5.455284552845528" height="3.500003420000212" fill="#2563eb" opacity="0.85"><title>2024-03-25 | ETH buy 100.00 usd | reason=btc_defensive_regime</title></rect>
<rect x="217.27235772357724" y="703.9999965799998" width="5.455284552845528" height="3.500003420000212" fill="#2563eb" opacity="0.85"><title>2024-04-01 | ETH buy 100.00 usd | reason=balanced_regime</title></rect>
<rect x="227.27235772357724" y="703.9999965799998" width="5.455284552845528" height="3.500003420000212" fill="#2563eb" opacity="0.85"><title>2024-04-08 | ETH buy 100.00 usd | reason=btc_defensive_regime</title></rect>
<rect x="237.27235772357724" y="703.9999965799998" width="5.455284552845528" height="3.500003420000212" fill="#2563eb" opacity="0.85"><title>2024-04-15 | ETH buy 100.00 usd | reason=btc_defensive_regime</title></rect>
<rect x="247.27235772357724" y="703.9999965799998" width="5.455284552845528" height="3.500003420000212" fill="#2563eb" opacity="0.85"><title>2024-04-22 | ETH buy 100.00 usd | reason=btc_defensive_regime</title></rect>
<rect x="257.2723577235772" y="703.9999965799998" width="5.455284552845528" height="3.500003420000212" fill="#2563eb" opacity="0.85"><title>2024-04-29 | ETH buy 100.00 usd | reason=btc_defensive_regime</title></rect>
<rect x="267.2723577235772" y="703.9999965799998" width="5.455284552845528" height="3.500003420000212" fill="#2563eb" opacity="0.85"><title>2024-05-06 | ETH buy 100.00 usd | reason=btc_defensive_regime</title></rect>
<rect x="277.2723577235772" y="703.9999965799998" width="5.455284552845528" height="3.500003420000212" fill="#2563eb" opacity="0.85"><title>2024-05-13 | ETH buy 100.00 usd | reason=btc_defensive_regime</title></rect>
<rect x="287.2723577235772" y="703.9999965799998" width="5.455284552845528" height="3.500003420000212" fill="#2563eb" opacity="0.85"><title>2024-05-20 | ETH buy 100.00 usd | reason=btc_defensive_regime</title></rect>
<rect x="297.2723577235772" y="703.9999965799998" width="5.455284552845528" height="3.500003420000212" fill="#2563eb" opacity="0.85"><title>2024-05-27 | ETH buy 100.00 usd | reason=balanced_regime</title></rect>
<rect x="307.2723577235772" y="707.5" width="5.455284552845528" height="9.477696078945428" fill="#7c3aed" opacity="0.85"><title>2024-06-03 | ETH sell 270.79 usd | reason=btc_defensive_regime</title></rect>
<rect x="317.2723577235772" y="703.9999965799998" width="5.455284552845528" height="3.500003420000212" fill="#2563eb" opacity="0.85"><title>2024-06-10 | ETH buy 100.00 usd | reason=balanced_regime</title></rect>
<rect x="327.2723577235772" y="703.9999965799998" width="5.455284552845528" height="3.500003420000212" fill="#2563eb" opacity="0.85"><title>2024-06-17 | ETH buy 100.00 usd | reason=balanced_regime</title></rect>
<rect x="337.2723577235772" y="703.9999965799998" width="5.455284552845528" height="3.500003420000212" fill="#2563eb" opacity="0.85"><title>2024-06-24 | ETH buy 100.00 usd | reason=eth_strong_risk_on</title></rect>
<rect x="347.2723577235772" y="703.9999965799998" width="5.455284552845528" height="3.500003420000212" fill="#2563eb" opacity="0.85"><title>2024-07-01 | ETH buy 100.00 usd | reason=balanced_regime</title></rect>
<rect x="357.2723577235772" y="707.5" width="5.455284552845528" height="22.696682995041897" fill="#7c3aed" opacity="0.85"><title>2024-07-08 | ETH sell 648.48 usd | reason=both_weak_btc_defensive</title></rect>
<rect x="367.2723577235772" y="703.9999965799998" width="5.455284552845528" height="3.500003420000212" fill="#2563eb" opacity="0.85"><title>2024-07-15 | ETH buy 100.00 usd | reason=balanced_regime</title></rect>
<rect x="377.2723577235772" y="703.9999965799998" width="5.455284552845528" height="3.500003420000212" fill="#2563eb" opacity="0.85"><title>2024-07-22 | ETH buy 100.00 usd | reason=balanced_regime</title></rect>
<rect x="387.2723577235772" y="703.9999965799998" width="5.455284552845528" height="3.500003420000212" fill="#2563eb" opacity="0.85"><title>2024-07-29 | ETH buy 100.00 usd | reason=balanced_regime</title></rect>
<rect x="397.2723577235772" y="703.9999965799998" width="5.455284552845528" height="3.500003420000212" fill="#2563eb" opacity="0.85"><title>2024-08-05 | ETH buy 100.00 usd | reason=both_weak_btc_defensive</title></rect>
<rect x="407.2723577235772" y="706.3128927302757" width="5.455284552845528" height="1.5" fill="#2563eb" opacity="0.85"><title>2024-08-12 | ETH buy 33.92 usd | reason=both_weak_btc_defensive</title></rect>
<rect x="417.2723577235772" y="703.9999965799998" width="5.455284552845528" height="3.500003420000212" fill="#2563eb" opacity="0.85"><title>2024-08-19 | ETH buy 100.00 usd | reason=both_weak_btc_defensive</title></rect>
<rect x="427.27235772357716" y="703.9999965799998" width="5.455284552845528" height="3.500003420000212" fill="#2563eb" opacity="0.85"><title>2024-08-26 | ETH buy 100.00 usd | reason=both_weak_btc_defensive</title></rect>
<rect x="437.2723577235772" y="703.9999965799998" width="5.455284552845528" height="3.500003420000212" fill="#2563eb" opacity="0.85"><title>2024-09-02 | ETH buy 100.00 usd | reason=both_weak_btc_defensive</title></rect>
<rect x="447.2723577235772" y="703.9999965799998" width="5.455284552845528" height="3.500003420000212" fill="#2563eb" opacity="0.85"><title>2024-09-09 | ETH buy 100.00 usd | reason=both_weak_btc_defensive</title></rect>
<rect x="457.2723577235772" y="703.9999965799998" width="5.455284552845528" height="3.500003420000212" fill="#2563eb" opacity="0.85"><title>2024-09-16 | ETH buy 100.00 usd | reason=both_weak_btc_defensive</title></rect>
<rect x="467.2723577235772" y="703.9999965799998" width="5.455284552845528" height="3.500003420000212" fill="#2563eb" opacity="0.85"><title>2024-09-23 | ETH buy 100.00 usd | reason=both_weak_btc_defensive</title></rect>
<rect x="477.2723577235772" y="703.9999965799998" width="5.455284552845528" height="3.500003420000212" fill="#2563eb" opacity="0.85"><title>2024-09-30 | ETH buy 100.00 usd | reason=both_weak_btc_defensive</title></rect>
<rect x="487.27235772357716" y="703.9999965799998" width="5.455284552845528" height="3.500003420000212" fill="#2563eb" opacity="0.85"><title>2024-10-07 | ETH buy 100.00 usd | reason=both_weak_btc_defensive</title></rect>
<rect x="497.2723577235772" y="703.9999965799998" width="5.455284552845528" height="3.500003420000212" fill="#2563eb" opacity="0.85"><title>2024-10-14 | ETH buy 100.00 usd | reason=btc_defensive_regime</title></rect>
<rect x="507.2723577235772" y="703.9999965799998" width="5.455284552845528" height="3.500003420000212" fill="#2563eb" opacity="0.85"><title>2024-10-21 | ETH buy 100.00 usd | reason=btc_defensive_regime</title></rect>
<rect x="517.2723577235772" y="703.9999965799998" width="5.455284552845528" height="3.500003420000212" fill="#2563eb" opacity="0.85"><title>2024-10-28 | ETH buy 100.00 usd | reason=btc_defensive_regime</title></rect>
<rect x="527.2723577235772" y="703.9999965799998" width="5.455284552845528" height="3.500003420000212" fill="#2563eb" opacity="0.85"><title>2024-11-04 | ETH buy 100.00 usd | reason=btc_defensive_regime</title></rect>
<rect x="537.2723577235772" y="703.9999965799998" width="5.455284552845528" height="3.500003420000212" fill="#2563eb" opacity="0.85"><title>2024-11-11 | ETH buy 100.00 usd | reason=btc_defensive_regime</title></rect>
<rect x="547.2723577235772" y="703.9999965799998" width="5.455284552845528" height="3.500003420000212" fill="#2563eb" opacity="0.85"><title>2024-11-18 | ETH buy 100.00 usd | reason=btc_defensive_regime</title></rect>
<rect x="557.2723577235772" y="703.9999965799998" width="5.455284552845528" height="3.500003420000212" fill="#2563eb" opacity="0.85"><title>2024-11-25 | ETH buy 100.00 usd | reason=btc_defensive_regime</title></rect>
<rect x="567.2723577235772" y="703.9999965799998" width="5.455284552845528" height="3.500003420000212" fill="#2563eb" opacity="0.85"><title>2024-12-02 | ETH buy 100.00 usd | reason=btc_defensive_regime</title></rect>
<rect x="577.2723577235772" y="703.9999965799998" width="5.455284552845528" height="3.500003420000212" fill="#2563eb" opacity="0.85"><title>2024-12-09 | ETH buy 100.00 usd | reason=btc_defensive_regime</title></rect>
<rect x="587.2723577235772" y="703.9999965799998" width="5.455284552845528" height="3.500003420000212" fill="#2563eb" opacity="0.85"><title>2024-12-16 | ETH buy 100.00 usd | reason=btc_defensive_regime</title></rect>
<rect x="597.2723577235772" y="703.9999965799998" width="5.455284552845528" height="3.500003420000212" fill="#2563eb" opacity="0.85"><title>2024-12-23 | ETH buy 100.00 usd | reason=btc_defensive_regime</title></rect>
<rect x="607.2723577235772" y="703.9999965799998" width="5.455284552845528" height="3.500003420000212" fill="#2563eb" opacity="0.85"><title>2024-12-30 | ETH buy 100.00 usd | reason=btc_defensive_regime</title></rect>
<rect x="617.2723577235772" y="703.9999965799998" width="5.455284552845528" height="3.500003420000212" fill="#2563eb" opacity="0.85"><title>2025-01-06 | ETH buy 100.00 usd | reason=btc_defensive_regime</title></rect>
<rect x="627.2723577235772" y="703.9999965799998" width="5.455284552845528" height="3.500003420000212" fill="#2563eb" opacity="0.85"><title>2025-01-13 | ETH buy 100.00 usd | reason=btc_defensive_regime</title></rect>
<rect x="637.2723577235772" y="703.9999965799998" width="5.455284552845528" height="3.500003420000212" fill="#2563eb" opacity="0.85"><title>2025-01-20 | ETH buy 100.00 usd | reason=btc_defensive_regime</title></rect>
<rect x="647.2723577235772" y="703.9999965799998" width="5.455284552845528" height="3.500003420000212" fill="#2563eb" opacity="0.85"><title>2025-01-27 | ETH buy 100.00 usd | reason=btc_defensive_regime</title></rect>
<rect x="657.2723577235772" y="703.9999965799998" width="5.455284552845528" height="3.500003420000212" fill="#2563eb" opacity="0.85"><title>2025-02-03 | ETH buy 100.00 usd | reason=btc_defensive_regime</title></rect>
<rect x="667.2723577235772" y="703.9999965799998" width="5.455284552845528" height="3.500003420000212" fill="#2563eb" opacity="0.85"><title>2025-02-10 | ETH buy 100.00 usd | reason=btc_defensive_regime</title></rect>
<rect x="677.2723577235772" y="703.9999965799998" width="5.455284552845528" height="3.500003420000212" fill="#2563eb" opacity="0.85"><title>2025-02-17 | ETH buy 100.00 usd | reason=btc_defensive_regime</title></rect>
<rect x="687.2723577235772" y="703.9999965799998" width="5.455284552845528" height="3.500003420000212" fill="#2563eb" opacity="0.85"><title>2025-02-24 | ETH buy 100.00 usd | reason=btc_defensive_regime</title></rect>
<rect x="697.2723577235772" y="703.9999965799998" width="5.455284552845528" height="3.500003420000212" fill="#2563eb" opacity="0.85"><title>2025-03-03 | ETH buy 100.00 usd | reason=btc_defensive_regime</title></rect>
<rect x="707.2723577235772" y="703.9999965799998" width="5.455284552845528" height="3.500003420000212" fill="#2563eb" opacity="0.85"><title>2025-03-10 | ETH buy 100.00 usd | reason=both_weak_btc_defensive</title></rect>
<rect x="717.2723577235772" y="703.9999965799998" width="5.455284552845528" height="3.500003420000212" fill="#2563eb" opacity="0.85"><title>2025-03-17 | ETH buy 100.00 usd | reason=both_weak_btc_defensive</title></rect>
<rect x="727.2723577235772" y="703.9999965799998" width="5.455284552845528" height="3.500003420000212" fill="#2563eb" opacity="0.85"><title>2025-03-24 | ETH buy 100.00 usd | reason=btc_defensive_regime</title></rect>
<rect x="737.2723577235772" y="703.9999965799998" width="5.455284552845528" height="3.500003420000212" fill="#2563eb" opacity="0.85"><title>2025-03-31 | ETH buy 100.00 usd | reason=both_weak_btc_defensive</title></rect>
<rect x="747.2723577235772" y="703.9999965799998" width="5.455284552845528" height="3.500003420000212" fill="#2563eb" opacity="0.85"><title>2025-04-07 | ETH buy 100.00 usd | reason=both_weak_btc_defensive</title></rect>
<rect x="757.2723577235773" y="703.9999965799998" width="5.455284552845528" height="3.500003420000212" fill="#2563eb" opacity="0.85"><title>2025-04-14 | ETH buy 100.00 usd | reason=both_weak_btc_defensive</title></rect>
<rect x="767.2723577235771" y="703.9999965799998" width="5.455284552845528" height="3.500003420000212" fill="#2563eb" opacity="0.85"><title>2025-04-21 | ETH buy 100.00 usd | reason=both_weak_btc_defensive</title></rect>
<rect x="777.2723577235772" y="703.9999965799998" width="5.455284552845528" height="3.500003420000212" fill="#2563eb" opacity="0.85"><title>2025-04-28 | ETH buy 100.00 usd | reason=btc_defensive_regime</title></rect>
<rect x="787.2723577235772" y="703.9999965799998" width="5.455284552845528" height="3.500003420000212" fill="#2563eb" opacity="0.85"><title>2025-05-05 | ETH buy 100.00 usd | reason=btc_defensive_regime</title></rect>
<rect x="797.2723577235772" y="703.9999965799998" width="5.455284552845528" height="3.500003420000212" fill="#2563eb" opacity="0.85"><title>2025-05-12 | ETH buy 100.00 usd | reason=btc_defensive_regime</title></rect>
<rect x="807.2723577235772" y="703.9999965799998" width="5.455284552845528" height="3.500003420000212" fill="#2563eb" opacity="0.85"><title>2025-05-19 | ETH buy 100.00 usd | reason=btc_defensive_regime</title></rect>
<rect x="817.2723577235772" y="703.9999965799998" width="5.455284552845528" height="3.500003420000212" fill="#2563eb" opacity="0.85"><title>2025-05-26 | ETH buy 100.00 usd | reason=btc_defensive_regime</title></rect>
<rect x="827.2723577235772" y="703.9999965799998" width="5.455284552845528" height="3.500003420000212" fill="#2563eb" opacity="0.85"><title>2025-06-02 | ETH buy 100.00 usd | reason=btc_defensive_regime</title></rect>
<rect x="837.2723577235772" y="703.9999965799998" width="5.455284552845528" height="3.500003420000212" fill="#2563eb" opacity="0.85"><title>2025-06-09 | ETH buy 100.00 usd | reason=balanced_regime</title></rect>
<rect x="847.2723577235772" y="703.9999965799998" width="5.455284552845528" height="3.500003420000212" fill="#2563eb" opacity="0.85"><title>2025-06-16 | ETH buy 100.00 usd | reason=btc_defensive_regime</title></rect>
<rect x="857.2723577235772" y="703.9999965799998" width="5.455284552845528" height="3.500003420000212" fill="#2563eb" opacity="0.85"><title>2025-06-23 | ETH buy 100.00 usd | reason=btc_defensive_regime</title></rect>
<rect x="867.2723577235772" y="703.9999965799998" width="5.455284552845528" height="3.500003420000212" fill="#2563eb" opacity="0.85"><title>2025-06-30 | ETH buy 100.00 usd | reason=btc_defensive_regime</title></rect>
<rect x="877.2723577235773" y="703.9999965799998" width="5.455284552845528" height="3.500003420000212" fill="#2563eb" opacity="0.85"><title>2025-07-07 | ETH buy 100.00 usd | reason=btc_defensive_regime</title></rect>
<rect x="887.2723577235771" y="703.9999965799998" width="5.455284552845528" height="3.500003420000212" fill="#2563eb" opacity="0.85"><title>2025-07-14 | ETH buy 100.00 usd | reason=balanced_regime</title></rect>
<rect x="897.2723577235772" y="703.9999965799998" width="5.455284552845528" height="3.500003420000212" fill="#2563eb" opacity="0.85"><title>2025-07-21 | ETH buy 100.00 usd | reason=balanced_regime</title></rect>
<rect x="907.2723577235772" y="703.9999965799998" width="5.455284552845528" height="3.500003420000212" fill="#2563eb" opacity="0.85"><title>2025-07-28 | ETH buy 100.00 usd | reason=balanced_regime</title></rect>
<rect x="917.2723577235772" y="703.9999965799998" width="5.455284552845528" height="3.500003420000212" fill="#2563eb" opacity="0.85"><title>2025-08-04 | ETH buy 100.00 usd | reason=balanced_regime</title></rect>
<rect x="927.2723577235772" y="703.9999965799998" width="5.455284552845528" height="3.500003420000212" fill="#2563eb" opacity="0.85"><title>2025-08-11 | ETH buy 100.00 usd | reason=balanced_regime</title></rect>
<rect x="937.2723577235772" y="703.9999965799998" width="5.455284552845528" height="3.500003420000212" fill="#2563eb" opacity="0.85"><title>2025-08-18 | ETH buy 100.00 usd | reason=balanced_regime</title></rect>
<rect x="947.2723577235772" y="703.9999965799998" width="5.455284552845528" height="3.500003420000212" fill="#2563eb" opacity="0.85"><title>2025-08-25 | ETH buy 100.00 usd | reason=balanced_regime</title></rect>
<rect x="957.2723577235772" y="703.9999965799998" width="5.455284552845528" height="3.500003420000212" fill="#2563eb" opacity="0.85"><title>2025-09-01 | ETH buy 100.00 usd | reason=balanced_regime</title></rect>
<rect x="967.2723577235772" y="703.9999965799998" width="5.455284552845528" height="3.500003420000212" fill="#2563eb" opacity="0.85"><title>2025-09-08 | ETH buy 100.00 usd | reason=balanced_regime</title></rect>
<rect x="977.2723577235772" y="703.9999965799998" width="5.455284552845528" height="3.500003420000212" fill="#2563eb" opacity="0.85"><title>2025-09-15 | ETH buy 100.00 usd | reason=balanced_regime</title></rect>
<rect x="987.2723577235772" y="703.9999965799998" width="5.455284552845528" height="3.500003420000212" fill="#2563eb" opacity="0.85"><title>2025-09-22 | ETH buy 100.00 usd | reason=balanced_regime</title></rect>
<rect x="997.2723577235773" y="703.9999965799998" width="5.455284552845528" height="3.500003420000212" fill="#2563eb" opacity="0.85"><title>2025-09-29 | ETH buy 100.00 usd | reason=balanced_regime</title></rect>
<rect x="1007.2723577235771" y="703.9999965799998" width="5.455284552845528" height="3.500003420000212" fill="#2563eb" opacity="0.85"><title>2025-10-06 | ETH buy 100.00 usd | reason=balanced_regime</title></rect>
<rect x="1017.2723577235772" y="703.9999965799998" width="5.455284552845528" height="3.500003420000212" fill="#2563eb" opacity="0.85"><title>2025-10-13 | ETH buy 100.00 usd | reason=balanced_regime</title></rect>
<rect x="1027.2723577235772" y="703.9999965799998" width="5.455284552845528" height="3.500003420000212" fill="#2563eb" opacity="0.85"><title>2025-10-20 | ETH buy 100.00 usd | reason=balanced_regime</title></rect>
<rect x="1037.2723577235772" y="703.9999965799998" width="5.455284552845528" height="3.500003420000212" fill="#2563eb" opacity="0.85"><title>2025-10-27 | ETH buy 100.00 usd | reason=balanced_regime</title></rect>
<rect x="1047.2723577235772" y="703.9999965799998" width="5.455284552845528" height="3.500003420000212" fill="#2563eb" opacity="0.85"><title>2025-11-03 | ETH buy 100.00 usd | reason=balanced_regime</title></rect>
<rect x="1057.2723577235772" y="703.9999965799998" width="5.455284552845528" height="3.500003420000212" fill="#2563eb" opacity="0.85"><title>2025-11-10 | ETH buy 100.00 usd | reason=balanced_regime</title></rect>
<rect x="1067.2723577235772" y="707.5" width="5.455284552845528" height="62.5" fill="#7c3aed" opacity="0.85"><title>2025-11-17 | ETH sell 1785.71 usd | reason=both_weak_btc_defensive</title></rect>
<rect x="1077.2723577235772" y="707.5" width="5.455284552845528" height="36.759958850189264" fill="#7c3aed" opacity="0.85"><title>2025-11-24 | ETH sell 1050.28 usd | reason=both_weak_btc_defensive</title></rect>
<rect x="1087.2723577235772" y="707.5" width="5.455284552845528" height="13.804075084506735" fill="#7c3aed" opacity="0.85"><title>2025-12-01 | ETH sell 394.40 usd | reason=both_weak_btc_defensive</title></rect>
<rect x="1097.2723577235772" y="707.5" width="5.455284552845528" height="25.06539488567148" fill="#7c3aed" opacity="0.85"><title>2025-12-08 | ETH sell 716.15 usd | reason=both_weak_btc_defensive</title></rect>
<rect x="1107.2723577235772" y="707.5" width="5.455284552845528" height="9.780276827702664" fill="#7c3aed" opacity="0.85"><title>2025-12-15 | ETH sell 279.44 usd | reason=both_weak_btc_defensive</title></rect>
<rect x="1117.2723577235772" y="707.5" width="5.455284552845528" height="5.985559095595022" fill="#7c3aed" opacity="0.85"><title>2025-12-22 | ETH sell 171.02 usd | reason=both_weak_btc_defensive</title></rect>
<rect x="1127.2723577235772" y="707.5" width="5.455284552845528" height="1.5" fill="#7c3aed" opacity="0.85"><title>2025-12-29 | ETH sell 19.63 usd | reason=both_weak_btc_defensive</title></rect>
<rect x="1137.2723577235772" y="707.5" width="5.455284552845528" height="10.552001402395945" fill="#7c3aed" opacity="0.85"><title>2026-01-05 | ETH sell 301.49 usd | reason=both_weak_btc_defensive</title></rect>
<rect x="1147.2723577235772" y="707.5" width="5.455284552845528" height="1.5" fill="#7c3aed" opacity="0.85"><title>2026-01-12 | ETH sell 37.09 usd | reason=both_weak_btc_defensive</title></rect>
<rect x="1157.2723577235772" y="707.5" width="5.455284552845528" height="5.074003695923238" fill="#7c3aed" opacity="0.85"><title>2026-01-19 | ETH sell 144.97 usd | reason=both_weak_btc_defensive</title></rect>
<rect x="1167.2723577235772" y="703.9999965799998" width="5.455284552845528" height="3.500003420000212" fill="#2563eb" opacity="0.85"><title>2026-01-26 | ETH buy 100.00 usd | reason=both_weak_btc_defensive</title></rect>
<rect x="1177.2723577235772" y="703.9999965799998" width="5.455284552845528" height="3.500003420000212" fill="#2563eb" opacity="0.85"><title>2026-02-02 | ETH buy 100.00 usd | reason=both_weak_btc_defensive</title></rect>
<rect x="1187.2723577235772" y="703.9999965799998" width="5.455284552845528" height="3.500003420000212" fill="#2563eb" opacity="0.85"><title>2026-02-09 | ETH buy 100.00 usd | reason=both_weak_btc_defensive</title></rect>
<rect x="1197.2723577235772" y="703.9999965799998" width="5.455284552845528" height="3.500003420000212" fill="#2563eb" opacity="0.85"><title>2026-02-16 | ETH buy 100.00 usd | reason=both_weak_btc_defensive</title></rect>
<rect x="1207.2723577235772" y="703.9999965799998" width="5.455284552845528" height="3.500003420000212" fill="#2563eb" opacity="0.85"><title>2026-02-23 | ETH buy 100.00 usd | reason=both_weak_btc_defensive</title></rect>
<rect x="1217.2723577235772" y="703.9999965799998" width="5.455284552845528" height="3.500003420000212" fill="#2563eb" opacity="0.85"><title>2026-03-02 | ETH buy 100.00 usd | reason=both_weak_btc_defensive</title></rect>
<rect x="1227.2723577235772" y="703.9999965799998" width="5.455284552845528" height="3.500003420000212" fill="#2563eb" opacity="0.85"><title>2026-03-09 | ETH buy 100.00 usd | reason=both_weak_btc_defensive</title></rect>
<rect x="1237.2723577235772" y="703.9999965799998" width="5.455284552845528" height="3.500003420000212" fill="#2563eb" opacity="0.85"><title>2026-03-16 | ETH buy 100.00 usd | reason=both_weak_btc_defensive</title></rect>
<rect x="1247.2723577235772" y="703.9999965799998" width="5.455284552845528" height="3.500003420000212" fill="#2563eb" opacity="0.85"><title>2026-03-23 | ETH buy 100.00 usd | reason=both_weak_btc_defensive</title></rect>
<rect x="1257.2723577235772" y="703.9999965799998" width="5.455284552845528" height="3.500003420000212" fill="#2563eb" opacity="0.85"><title>2026-03-30 | ETH buy 100.00 usd | reason=both_weak_btc_defensive</title></rect>
<rect x="1267.2723577235772" y="703.9999965799998" width="5.455284552845528" height="3.500003420000212" fill="#2563eb" opacity="0.85"><title>2026-04-06 | ETH buy 100.00 usd | reason=both_weak_btc_defensive</title></rect>
<rect x="1277.2723577235772" y="703.9999965799998" width="5.455284552845528" height="3.500003420000212" fill="#2563eb" opacity="0.85"><title>2026-04-13 | ETH buy 100.00 usd | reason=both_weak_btc_defensive</title></rect>
<rect x="1287.2723577235772" y="703.9999965799998" width="5.455284552845528" height="3.500003420000212" fill="#2563eb" opacity="0.85"><title>2026-04-20 | ETH buy 100.00 usd | reason=both_weak_btc_defensive</title></rect>
<rect x="1297.2723577235772" y="703.9999965799998" width="5.455284552845528" height="3.500003420000212" fill="#2563eb" opacity="0.85"><title>2026-04-27 | ETH buy 100.00 usd | reason=both_weak_btc_defensive</title></rect>
<rect x="1307.2723577235772" y="703.9999965799998" width="5.455284552845528" height="3.500003420000212" fill="#2563eb" opacity="0.85"><title>2026-05-04 | ETH buy 100.00 usd | reason=both_weak_btc_defensive</title></rect>
<text x="24" y="707.5" transform="rotate(-90 24,707.5)" text-anchor="middle" font-family="monospace" font-size="14" fill="#0f172a">ETH weekly trade usd</text>
<rect x="1040" y="478" width="14" height="10" fill="#ea580c" opacity="0.85"/>
<text x="1062" y="488" font-family="monospace" font-size="11" fill="#0f172a">BTC buy</text>
<rect x="1190" y="478" width="14" height="10" fill="#dc2626" opacity="0.85"/>
<text x="1212" y="488" font-family="monospace" font-size="11" fill="#0f172a">BTC sell</text>
<rect x="1040" y="498" width="14" height="10" fill="#2563eb" opacity="0.85"/>
<text x="1062" y="508" font-family="monospace" font-size="11" fill="#0f172a">ETH buy</text>
<rect x="1190" y="498" width="14" height="10" fill="#7c3aed" opacity="0.85"/>
<text x="1212" y="508" font-family="monospace" font-size="11" fill="#0f172a">ETH sell</text>
</svg>