<svg xmlns="http://www.w3.org/2000/svg" width="1400" height="800">
<rect width="1400" height="800" fill="#f8fafc"/>
<text x="700.0" y="42" text-anchor="middle" font-family="monospace" font-size="24" fill="#0f172a">budgeted_static_50_50_rebalance | weekly | start=2025-04-01 | return=-11.07%</text>
<line x1="90" y1="420" x2="1310" y2="420" stroke="#334155" stroke-width="2"/>
<line x1="90" y1="90" x2="90" y2="420" stroke="#334155" stroke-width="2"/>
<line x1="90.0" y1="420" x2="90.0" y2="90" stroke="#94a3b8" stroke-width="1.2"/>
<line x1="90.0" y1="605" x2="90.0" y2="480" stroke="#94a3b8" stroke-width="1.2"/>
<line x1="90.0" y1="770" x2="90.0" y2="645" stroke="#94a3b8" stroke-width="1.2"/>
<text x="90.0" y="788" text-anchor="middle" font-family="monospace" font-size="11" fill="#334155">2025-04</text>
<line x1="197.01754385964912" y1="420" x2="197.01754385964912" y2="90" stroke="#94a3b8" stroke-width="1.2"/>
<line x1="197.01754385964912" y1="605" x2="197.01754385964912" y2="480" stroke="#94a3b8" stroke-width="1.2"/>
<line x1="197.01754385964912" y1="770" x2="197.01754385964912" y2="645" stroke="#94a3b8" stroke-width="1.2"/>
<text x="197.01754385964912" y="788" text-anchor="middle" font-family="monospace" font-size="11" fill="#334155">2025-05</text>
<line x1="282.63157894736844" y1="420" x2="282.63157894736844" y2="90" stroke="#94a3b8" stroke-width="1.2"/>
<line x1="282.63157894736844" y1="605" x2="282.63157894736844" y2="480" stroke="#94a3b8" stroke-width="1.2"/>
<line x1="282.63157894736844" y1="770" x2="282.63157894736844" y2="645" stroke="#94a3b8" stroke-width="1.2"/>
<text x="282.63157894736844" y="788" text-anchor="middle" font-family="monospace" font-size="11" fill="#334155">2025-06</text>
<line x1="368.2456140350877" y1="420" x2="368.2456140350877" y2="90" stroke="#94a3b8" stroke-width="1.2"/>
<line x1="368.2456140350877" y1="605" x2="368.2456140350877" y2="480" stroke="#94a3b8" stroke-width="1.2"/>
<line x1="368.2456140350877" y1="770" x2="368.2456140350877" y2="645" stroke="#94a3b8" stroke-width="1.2"/>
<text x="368.2456140350877" y="788" text-anchor="middle" font-family="monospace" font-size="11" fill="#334155">2025-07</text>
<line x1="475.2631578947368" y1="420" x2="475.2631578947368" y2="90" stroke="#94a3b8" stroke-width="1.2"/>
<line x1="475.2631578947368" y1="605" x2="475.2631578947368" y2="480" stroke="#94a3b8" stroke-width="1.2"/>
<line x1="475.2631578947368" y1="770" x2="475.2631578947368" y2="645" stroke="#94a3b8" stroke-width="1.2"/>
<text x="475.2631578947368" y="788" text-anchor="middle" font-family="monospace" font-size="11" fill="#334155">2025-08</text>
<line x1="560.8771929824561" y1="420" x2="560.8771929824561" y2="90" stroke="#94a3b8" stroke-width="1.2"/>
<line x1="560.8771929824561" y1="605" x2="560.8771929824561" y2="480" stroke="#94a3b8" stroke-width="1.2"/>
<line x1="560.8771929824561" y1="770" x2="560.8771929824561" y2="645" stroke="#94a3b8" stroke-width="1.2"/>
<text x="560.8771929824561" y="788" text-anchor="middle" font-family="monospace" font-size="11" fill="#334155">2025-09</text>
<line x1="667.8947368421052" y1="420" x2="667.8947368421052" y2="90" stroke="#94a3b8" stroke-width="1.2"/>
<line x1="667.8947368421052" y1="605" x2="667.8947368421052" y2="480" stroke="#94a3b8" stroke-width="1.2"/>
<line x1="667.8947368421052" y1="770" x2="667.8947368421052" y2="645" stroke="#94a3b8" stroke-width="1.2"/>
<text x="667.8947368421052" y="788" text-anchor="middle" font-family="monospace" font-size="11" fill="#334155">2025-10</text>
<line x1="753.5087719298245" y1="420" x2="753.5087719298245" y2="90" stroke="#94a3b8" stroke-width="1.2"/>
<line x1="753.5087719298245" y1="605" x2="753.5087719298245" y2="480" stroke="#94a3b8" stroke-width="1.2"/>
<line x1="753.5087719298245" y1="770" x2="753.5087719298245" y2="645" stroke="#94a3b8" stroke-width="1.2"/>
<text x="753.5087719298245" y="788" text-anchor="middle" font-family="monospace" font-size="11" fill="#334155">2025-11</text>
<line x1="839.1228070175439" y1="420" x2="839.1228070175439" y2="90" stroke="#94a3b8" stroke-width="1.2"/>
<line x1="839.1228070175439" y1="605" x2="839.1228070175439" y2="480" stroke="#94a3b8" stroke-width="1.2"/>
<line x1="839.1228070175439" y1="770" x2="839.1228070175439" y2="645" stroke="#94a3b8" stroke-width="1.2"/>
<text x="839.1228070175439" y="788" text-anchor="middle" font-family="monospace" font-size="11" fill="#334155">2025-12</text>
<line x1="946.140350877193" y1="420" x2="946.140350877193" y2="90" stroke="#94a3b8" stroke-width="1.2"/>
<line x1="946.140350877193" y1="605" x2="946.140350877193" y2="480" stroke="#94a3b8" stroke-width="1.2"/>
<line x1="946.140350877193" y1="770" x2="946.140350877193" y2="645" stroke="#94a3b8" stroke-width="1.2"/>
<text x="946.140350877193" y="788" text-anchor="middle" font-family="monospace" font-size="11" fill="#334155">2026-01</text>
<line x1="1031.7543859649122" y1="420" x2="1031.7543859649122" y2="90" stroke="#94a3b8" stroke-width="1.2"/>
<line x1="1031.7543859649122" y1="605" x2="1031.7543859649122" y2="480" stroke="#94a3b8" stroke-width="1.2"/>
<line x1="1031.7543859649122" y1="770" x2="1031.7543859649122" y2="645" stroke="#94a3b8" stroke-width="1.2"/>
<text x="1031.7543859649122" y="788" text-anchor="middle" font-family="monospace" font-size="11" fill="#334155">2026-02</text>
<line x1="1117.3684210526314" y1="420" x2="1117.3684210526314" y2="90" stroke="#94a3b8" stroke-width="1.2"/>
<line x1="1117.3684210526314" y1="605" x2="1117.3684210526314" y2="480" stroke="#94a3b8" stroke-width="1.2"/>
<line x1="1117.3684210526314" y1="770" x2="1117.3684210526314" y2="645" stroke="#94a3b8" stroke-width="1.2"/>
<text x="1117.3684210526314" y="788" text-anchor="middle" font-family="monospace" font-size="11" fill="#334155">2026-03</text>
<line x1="1224.3859649122808" y1="420" x2="1224.3859649122808" y2="90" stroke="#94a3b8" stroke-width="1.2"/>
<line x1="1224.3859649122808" y1="605" x2="1224.3859649122808" y2="480" stroke="#94a3b8" stroke-width="1.2"/>
<line x1="1224.3859649122808" y1="770" x2="1224.3859649122808" y2="645" stroke="#94a3b8" stroke-width="1.2"/>
<text x="1224.3859649122808" y="788" text-anchor="middle" font-family="monospace" font-size="11" fill="#334155">2026-04</text>
<line x1="1310.0" y1="420" x2="1310.0" y2="90" stroke="#94a3b8" stroke-width="1.2"/>
<line x1="1310.0" y1="605" x2="1310.0" y2="480" stroke="#94a3b8" stroke-width="1.2"/>
<line x1="1310.0" y1="770" x2="1310.0" y2="645" stroke="#94a3b8" stroke-width="1.2"/>
<text x="1310.0" y="788" text-anchor="middle" font-family="monospace" font-size="11" fill="#334155">2026-05</text>
<line x1="90" y1="420.0" x2="1310" y2="420.0" stroke="#cbd5e1" stroke-width="1"/>
<text x="78" y="424.0" text-anchor="end" font-family="monospace" font-size="12" fill="#475569">0</text>
<line x1="90" y1="354.0" x2="1310" y2="354.0" stroke="#cbd5e1" stroke-width="1"/>
<text x="78" y="358.0" text-anchor="end" font-family="monospace" font-size="12" fill="#475569">2652</text>
<line x1="90" y1="288.0" x2="1310" y2="288.0" stroke="#cbd5e1" stroke-width="1"/>
<text x="78" y="292.0" text-anchor="end" font-family="monospace" font-size="12" fill="#475569">5304</text>
<line x1="90" y1="222.0" x2="1310" y2="222.0" stroke="#cbd5e1" stroke-width="1"/>
<text x="78" y="226.0" text-anchor="end" font-family="monospace" font-size="12" fill="#475569">7956</text>
<line x1="90" y1="156.0" x2="1310" y2="156.0" stroke="#cbd5e1" stroke-width="1"/>
<text x="78" y="160.0" text-anchor="end" font-family="monospace" font-size="12" fill="#475569">10608</text>
<line x1="90" y1="90.0" x2="1310" y2="90.0" stroke="#cbd5e1" stroke-width="1"/>
<text x="78" y="94.0" text-anchor="end" font-family="monospace" font-size="12" fill="#475569">13260</text>
<polygon points="90.0,178.5914157194848 111.40350877192982,186.0576605941399 132.80701754385964,193.52390546879502 154.21052631578948,200.99015034345013 175.6140350877193,208.45639521810523 197.01754385964912,215.92264009276033 218.42105263157893,223.38888496741544 239.82456140350877,230.85512984207057 261.2280701754386,238.32137471672564 282.63157894736844,245.78761959138077 304.03508771929825,253.25386446603588 325.43859649122805,260.720109340691 346.84210526315786,268.1863542153461 368.2456140350877,275.6525990900012 389.64912280701753,283.1188439646563 411.05263157894734,290.5850888393114 432.45614035087715,298.0513337139665 453.859649122807,305.51757858862163 475.2631578947368,312.98382346327674 496.66666666666663,319.1870275456424 518.0701754385965,326.6532724202975 539.4736842105262,332.48853593957256 560.8771929824561,339.43745555350426 582.280701754386,346.54897189075524 603.6842105263157,351.60502677936756 625.0877192982456,354.6885130058263 646.4912280701755,356.06374086557594 667.8947368421052,355.7056387084218 689.2982456140351,356.7377793802781 710.7017543859649,358.52602886800514 732.1052631578947,359.0639398668362 753.5087719298245,362.947243193507 774.9122807017543,363.9698707759933 796.3157894736843,366.16920496871415 817.719298245614,368.41888525418454 839.1228070175439,369.2679599283289 860.5263157894736,369.73467700872357 881.9298245614035,370.1733689854908 903.3333333333333,370.39271619939774 924.7368421052632,370.5181523161522 946.140350877193,370.01308679698036 967.5438596491229,369.38296512513597 988.9473684210526,370.1762411513036 1010.3508771929825,370.13880059356006 1031.7543859649122,374.59172023239006 1053.157894736842,377.86529781578207 1074.561403508772,379.7667253387199 1095.9649122807018,381.62584871592105 1117.3684210526314,381.7637546451583 1138.7719298245613,381.58101287300474 1160.1754385964912,381.20631652275455 1181.578947368421,381.0401945681672 1202.982456140351,381.2699293075748 1224.3859649122808,380.8222592732257 1245.7894736842104,380.2496721853647 1267.1929824561403,379.68440783375416 1288.5964912280701,379.2701161486075 1310.0,378.71146774076084 1310.0,420.0 1288.5964912280701,420.0 1267.1929824561403,420.0 1245.7894736842104,420.0 1224.3859649122808,420.0 1202.982456140351,420.0 1181.578947368421,420.0 1160.1754385964912,420.0 1138.7719298245613,420.0 1117.3684210526314,420.0 1095.9649122807018,420.0 1074.561403508772,420.0 1053.157894736842,420.0 1031.7543859649122,420.0 1010.3508771929825,420.0 988.9473684210526,420.0 967.5438596491229,420.0 946.140350877193,420.0 924.7368421052632,420.0 903.3333333333333,420.0 881.9298245614035,420.0 860.5263157894736,420.0 839.1228070175439,420.0 817.719298245614,420.0 796.3157894736843,420.0 774.9122807017543,420.0 753.5087719298245,420.0 732.1052631578947,420.0 710.7017543859649,420.0 689.2982456140351,420.0 667.8947368421052,420.0 646.4912280701755,420.0 625.0877192982456,420.0 603.6842105263157,420.0 582.280701754386,420.0 560.8771929824561,420.0 539.4736842105262,420.0 518.0701754385965,420.0 496.66666666666663,420.0 475.2631578947368,420.0 453.859649122807,420.0 432.45614035087715,420.0 411.05263157894734,420.0 389.64912280701753,420.0 368.2456140350877,420.0 346.84210526315786,420.0 325.43859649122805,420.0 304.03508771929825,420.0 282.63157894736844,420.0 261.2280701754386,420.0 239.82456140350877,420.0 218.42105263157893,420.0 197.01754385964912,420.0 175.6140350877193,420.0 154.21052631578948,420.0 132.80701754385964,420.0 111.40350877192982,420.0 90.0,420.0" fill="#facc15" fill-opacity="0.70" stroke="#facc15" stroke-width="1.2"/>
<polygon points="90.0,174.85829328215723 111.40350877192982,179.44025611810636 132.80701754385964,182.6487300627283 154.21052631578948,185.22932925289766 175.6140350877193,188.59278553362782 197.01754385964912,192.11768476979842 218.42105263157893,184.54716750796467 239.82456140350877,190.52436920042558 261.2280701754386,192.06945144041094 282.63157894736844,196.96684690847653 304.03508771929825,196.53341384313828 325.43859649122805,206.42492925063524 346.84210526315786,211.47353175522613 368.2456140350877,216.2379563598517 389.64912280701753,214.75415441929704 411.05263157894734,204.86173531633088 432.45614035087715,191.91437015334256 453.859649122807,194.37960914869822 475.2631578947368,203.43993593654542 496.66666666666663,181.232692381992 518.0701754385965,203.5925320734026 539.4736842105262,195.1851434011808 560.8771929824561,210.8589065053227 582.280701754386,218.81966482969932 603.6842105263157,218.67746161151172 625.0877192982456,230.97867187993714 646.4912280701755,231.9329175514597 667.8947368421052,222.65780366736172 689.2982456140351,232.81871835066954 710.7017543859649,240.66196292115202 732.1052631578947,237.19696171307663 753.5087719298245,258.07038342875967 774.9122807017543,253.71454264542967 796.3157894736843,264.1668326175802 817.719298245614,270.7585768616808 839.1228070175439,269.32729810210753 860.5263157894736,259.90338111987273 881.9298245614035,271.6806560116321 903.3333333333333,271.74362574252905 924.7368421052632,271.4106774903345 946.140350877193,260.7390885810678 967.5438596491229,259.5274061285808 988.9473684210526,272.20668954376197 1010.3508771929825,269.39748535608067 1031.7543859649122,295.5322060424631 1053.157894736842,303.1743494925025 1074.561403508772,304.6598262269406 1095.9649122807018,310.1772828522442 1117.3684210526314,305.0192892246048 1138.7719298245613,302.8406261710483 1160.1754385964912,292.45182650682176 1181.578947368421,298.8322728357757 1202.982456140351,301.28871334819996 1224.3859649122808,296.1167448902501 1245.7894736842104,292.797307731806 1267.1929824561403,292.3483204268962 1288.5964912280701,293.5933996459721 1310.0,290.2780837706091 1310.0,378.71146774076084 1288.5964912280701,379.2701161486075 1267.1929824561403,379.68440783375416 1245.7894736842104,380.2496721853647 1224.3859649122808,380.8222592732257 1202.982456140351,381.2699293075748 1181.578947368421,381.0401945681672 1160.1754385964912,381.20631652275455 1138.7719298245613,381.58101287300474 1117.3684210526314,381.7637546451583 1095.9649122807018,381.62584871592105 1074.561403508772,379.7667253387199 1053.157894736842,377.86529781578207 1031.7543859649122,374.59172023239006 1010.3508771929825,370.13880059356006 988.9473684210526,370.1762411513036 967.5438596491229,369.38296512513597 946.140350877193,370.01308679698036 924.7368421052632,370.5181523161522 903.3333333333333,370.39271619939774 881.9298245614035,370.1733689854908 860.5263157894736,369.73467700872357 839.1228070175439,369.2679599283289 817.719298245614,368.41888525418454 796.3157894736843,366.16920496871415 774.9122807017543,363.9698707759933 753.5087719298245,362.947243193507 732.1052631578947,359.0639398668362 710.7017543859649,358.52602886800514 689.2982456140351,356.7377793802781 667.8947368421052,355.7056387084218 646.4912280701755,356.06374086557594 625.0877192982456,354.6885130058263 603.6842105263157,351.60502677936756 582.280701754386,346.54897189075524 560.8771929824561,339.43745555350426 539.4736842105262,332.48853593957256 518.0701754385965,326.6532724202975 496.66666666666663,319.1870275456424 475.2631578947368,312.98382346327674 453.859649122807,305.51757858862163 432.45614035087715,298.0513337139665 411.05263157894734,290.5850888393114 389.64912280701753,283.1188439646563 368.2456140350877,275.6525990900012 346.84210526315786,268.1863542153461 325.43859649122805,260.720109340691 304.03508771929825,253.25386446603588 282.63157894736844,245.78761959138077 261.2280701754386,238.32137471672564 239.82456140350877,230.85512984207057 218.42105263157893,223.38888496741544 197.01754385964912,215.92264009276033 175.6140350877193,208.45639521810523 154.21052631578948,200.99015034345013 132.80701754385964,193.52390546879502 111.40350877192982,186.0576605941399 90.0,178.5914157194848" fill="#2563eb" fill-opacity="0.70" stroke="#2563eb" stroke-width="1.2"/>
<polygon points="90.0,171.12517084482965 111.40350877192982,172.36493018715743 132.80701754385964,171.15567025181042 154.21052631578948,168.64820197843102 175.6140350877193,168.1398429077146 197.01754385964912,167.3744521496878 218.42105263157893,154.2076724575851 239.82456140350877,155.64987999943946 261.2280701754386,152.77819915587725 282.63157894736844,155.21541426127726 304.03508771929825,149.12757212787864 325.43859649122805,157.73997494449793 346.84210526315786,158.3336974328762 368.2456140350877,159.57988997889532 389.64912280701753,152.62307611499892 411.05263157894734,133.96605839795131 432.45614035087715,115.93438229633045 453.859649122807,115.99144376219101 475.2631578947368,123.85802464186185 496.66666666666663,89.99999999999994 518.0701754385965,110.96067508483816 539.4736842105262,95.96379891385743 560.8771929824561,104.65067509521464 582.280701754386,104.85746153819451 603.6842105263157,93.7470000399461 625.0877192982456,108.8599961614251 646.4912280701755,107.19484362662786 667.8947368421052,90.08721412347569 689.2982456140351,108.84960026067199 710.7017543859649,121.57139177866105 732.1052631578947,113.36221399699718 753.5087719298245,147.1579926646536 774.9122807017543,141.31396255014988 796.3157894736843,161.84269580717552 817.719298245614,173.3428276982747 839.1228070175439,167.62751208590902 860.5263157894736,155.35484187239894 881.9298245614035,172.61100494976884 903.3333333333333,173.06031706652342 924.7368421052632,171.7154662736417 946.140350877193,154.86122050317374 967.5438596491229,152.06195764649044 988.9473684210526,172.8199845868069 1010.3508771929825,169.06298147102822 1031.7543859649122,210.59602681708645 1053.157894736842,225.69437699587067 1074.561403508772,228.34076430828864 1095.9649122807018,237.42486046561098 1117.3684210526314,227.52741343162992 1138.7719298245613,223.59757973568978 1160.1754385964912,208.2251014869642 1181.578947368421,218.31990771799747 1202.982456140351,222.9398410945102 1224.3859649122808,213.5304747603273 1245.7894736842104,207.75166528438493 1267.1929824561403,205.097950880809 1288.5964912280701,206.5851338788654 1310.0,198.68746000551877 1310.0,290.2780837706091 1288.5964912280701,293.5933996459721 1267.1929824561403,292.3483204268962 1245.7894736842104,292.797307731806 1224.3859649122808,296.1167448902501 1202.982456140351,301.28871334819996 1181.578947368421,298.8322728357757 1160.1754385964912,292.45182650682176 1138.7719298245613,302.8406261710483 1117.3684210526314,305.0192892246048 1095.9649122807018,310.1772828522442 1074.561403508772,304.6598262269406 1053.157894736842,303.1743494925025 1031.7543859649122,295.5322060424631 1010.3508771929825,269.39748535608067 988.9473684210526,272.20668954376197 967.5438596491229,259.5274061285808 946.140350877193,260.7390885810678 924.7368421052632,271.4106774903345 903.3333333333333,271.74362574252905 881.9298245614035,271.6806560116321 860.5263157894736,259.90338111987273 839.1228070175439,269.32729810210753 817.719298245614,270.7585768616808 796.3157894736843,264.1668326175802 774.9122807017543,253.71454264542967 753.5087719298245,258.07038342875967 732.1052631578947,237.19696171307663 710.7017543859649,240.66196292115202 689.2982456140351,232.81871835066954 667.8947368421052,222.65780366736172 646.4912280701755,231.9329175514597 625.0877192982456,230.97867187993714 603.6842105263157,218.67746161151172 582.280701754386,218.81966482969932 560.8771929824561,210.8589065053227 539.4736842105262,195.1851434011808 518.0701754385965,203.5925320734026 496.66666666666663,181.232692381992 475.2631578947368,203.43993593654542 453.859649122807,194.37960914869822 432.45614035087715,191.91437015334256 411.05263157894734,204.86173531633088 389.64912280701753,214.75415441929704 368.2456140350877,216.2379563598517 346.84210526315786,211.47353175522613 325.43859649122805,206.42492925063524 304.03508771929825,196.53341384313828 282.63157894736844,196.96684690847653 261.2280701754386,192.06945144041094 239.82456140350877,190.52436920042558 218.42105263157893,184.54716750796467 197.01754385964912,192.11768476979842 175.6140350877193,188.59278553362782 154.21052631578948,185.22932925289766 132.80701754385964,182.6487300627283 111.40350877192982,179.44025611810636 90.0,174.85829328215723" fill="#f97316" fill-opacity="0.70" stroke="#f97316" stroke-width="1.2"/>
<rect x="1100" y="76" width="16" height="12" fill="#f97316" fill-opacity="0.70" stroke="#f97316"/>
<text x="1124" y="86" font-family="monospace" font-size="12" fill="#0f172a">BTC</text>
<rect x="1100" y="98" width="16" height="12" fill="#2563eb" fill-opacity="0.70" stroke="#2563eb"/>
<text x="1124" y="108" font-family="monospace" font-size="12" fill="#0f172a">ETH</text>
<rect x="1100" y="120" width="16" height="12" fill="#facc15" fill-opacity="0.70" stroke="#facc15"/>
<text x="1124" y="130" font-family="monospace" font-size="12" fill="#0f172a">DAI</text>
<text x="700.0" y="782" text-anchor="middle" font-family="monospace" font-size="16" fill="#0f172a">time</text>
<text x="24" y="255.0" transform="rotate(-90 24,255.0)" text-anchor="middle" font-family="monospace" font-size="16" fill="#0f172a">asset value split (usd)</text>
<line x1="90" y1="605" x2="1310" y2="605" stroke="#334155" stroke-width="2"/>
<line x1="90" y1="480" x2="90" y2="605" stroke="#334155" stroke-width="2"/>
<line x1="90" y1="542.5" x2="1310" y2="542.5" stroke="#64748b" stroke-width="1.5" stroke-dasharray="6 4"/>
<line x1="90" y1="605.0" x2="1310" y2="605.0" stroke="#e2e8f0" stroke-width="1"/>
<text x="78" y="609.0" text-anchor="end" font-family="monospace" font-size="11" fill="#475569">-300</text>
<line x1="90" y1="542.5" x2="1310" y2="542.5" stroke="#e2e8f0" stroke-width="1"/>
<text x="78" y="546.5" text-anchor="end" font-family="monospace" font-size="11" fill="#475569">0</text>
<line x1="90" y1="480.0" x2="1310" y2="480.0" stroke="#e2e8f0" stroke-width="1"/>
<text x="78" y="484.0" text-anchor="end" font-family="monospace" font-size="11" fill="#475569">300</text>
<rect x="84.2155172413793" y="511.25" width="11.56896551724138" height="31.25" fill="#ea580c" opacity="0.85"><title>2025-04-01 | BTC buy 150.00 usd | reason=budgeted_static_target_rebalance</title></rect>
<rect x="105.61902601330914" y="511.25" width="11.56896551724138" height="31.25" fill="#ea580c" opacity="0.85"><title>2025-04-08 | BTC buy 150.00 usd | reason=budgeted_static_target_rebalance</title></rect>
<rect x="127.02253478523895" y="511.25" width="11.56896551724138" height="31.25" fill="#ea580c" opacity="0.85"><title>2025-04-15 | BTC buy 150.00 usd | reason=budgeted_static_target_rebalance</title></rect>
<rect x="148.42604355716878" y="511.25" width="11.56896551724138" height="31.25" fill="#ea580c" opacity="0.85"><title>2025-04-22 | BTC buy 150.00 usd | reason=budgeted_static_target_rebalance</title></rect>
<rect x="169.8295523290986" y="511.25" width="11.56896551724138" height="31.25" fill="#ea580c" opacity="0.85"><title>2025-04-29 | BTC buy 150.00 usd | reason=budgeted_static_target_rebalance</title></rect>
<rect x="191.23306110102843" y="511.25" width="11.56896551724138" height="31.25" fill="#ea580c" opacity="0.85"><title>2025-05-06 | BTC buy 150.00 usd | reason=budgeted_static_target_rebalance</title></rect>
<rect x="212.63656987295823" y="511.25" width="11.56896551724138" height="31.25" fill="#ea580c" opacity="0.85"><title>2025-05-13 | BTC buy 150.00 usd | reason=budgeted_static_target_rebalance</title></rect>
<rect x="234.04007864488807" y="511.25" width="11.56896551724138" height="31.25" fill="#ea580c" opacity="0.85"><title>2025-05-20 | BTC buy 150.00 usd | reason=budgeted_static_target_rebalance</title></rect>
<rect x="255.44358741681788" y="511.25" width="11.56896551724138" height="31.25" fill="#ea580c" opacity="0.85"><title>2025-05-27 | BTC buy 150.00 usd | reason=budgeted_static_target_rebalance</title></rect>
<rect x="276.84709618874774" y="511.25" width="11.56896551724138" height="31.25" fill="#ea580c" opacity="0.85"><title>2025-06-03 | BTC buy 150.00 usd | reason=budgeted_static_target_rebalance</title></rect>
<rect x="298.25060496067755" y="511.25" width="11.56896551724138" height="31.25" fill="#ea580c" opacity="0.85"><title>2025-06-10 | BTC buy 150.00 usd | reason=budgeted_static_target_rebalance</title></rect>
<rect x="319.65411373260736" y="511.25" width="11.56896551724138" height="31.25" fill="#ea580c" opacity="0.85"><title>2025-06-17 | BTC buy 150.00 usd | reason=budgeted_static_target_rebalance</title></rect>
<rect x="341.05762250453716" y="511.25" width="11.56896551724138" height="31.25" fill="#ea580c" opacity="0.85"><title>2025-06-24 | BTC buy 150.00 usd | reason=budgeted_static_target_rebalance</title></rect>
<rect x="362.46113127646703" y="511.25" width="11.56896551724138" height="31.25" fill="#ea580c" opacity="0.85"><title>2025-07-01 | BTC buy 150.00 usd | reason=budgeted_static_target_rebalance</title></rect>
<rect x="383.86464004839684" y="511.25" width="11.56896551724138" height="31.25" fill="#ea580c" opacity="0.85"><title>2025-07-08 | BTC buy 150.00 usd | reason=budgeted_static_target_rebalance</title></rect>
<rect x="405.26814882032664" y="511.25" width="11.56896551724138" height="31.25" fill="#ea580c" opacity="0.85"><title>2025-07-15 | BTC buy 150.00 usd | reason=budgeted_static_target_rebalance</title></rect>
<rect x="426.67165759225645" y="511.25" width="11.56896551724138" height="31.25" fill="#ea580c" opacity="0.85"><title>2025-07-22 | BTC buy 150.00 usd | reason=budgeted_static_target_rebalance</title></rect>
<rect x="448.0751663641863" y="511.25" width="11.56896551724138" height="31.25" fill="#ea580c" opacity="0.85"><title>2025-07-29 | BTC buy 150.00 usd | reason=budgeted_static_target_rebalance</title></rect>
<rect x="469.4786751361161" y="511.25" width="11.56896551724138" height="31.25" fill="#ea580c" opacity="0.85"><title>2025-08-05 | BTC buy 150.00 usd | reason=budgeted_static_target_rebalance</title></rect>
<rect x="490.88218390804593" y="480.0" width="11.56896551724138" height="62.5" fill="#ea580c" opacity="0.85"><title>2025-08-12 | BTC buy 300.00 usd | reason=budgeted_static_target_rebalance</title></rect>
<rect x="512.2856926799758" y="484.64582287085994" width="11.56896551724138" height="57.854177129140055" fill="#ea580c" opacity="0.85"><title>2025-08-19 | BTC buy 277.70 usd | reason=budgeted_static_target_rebalance</title></rect>
<rect x="533.6892014519055" y="480.0" width="11.56896551724138" height="62.5" fill="#ea580c" opacity="0.85"><title>2025-08-26 | BTC buy 300.00 usd | reason=budgeted_static_target_rebalance</title></rect>
<rect x="555.0927102238354" y="480.0" width="11.56896551724138" height="62.5" fill="#ea580c" opacity="0.85"><title>2025-09-02 | BTC buy 300.00 usd | reason=budgeted_static_target_rebalance</title></rect>
<rect x="576.4962189957653" y="480.0" width="11.56896551724138" height="62.5" fill="#ea580c" opacity="0.85"><title>2025-09-09 | BTC buy 300.00 usd | reason=budgeted_static_target_rebalance</title></rect>
<rect x="597.899727767695" y="495.8673008823488" width="11.56896551724138" height="46.632699117651214" fill="#ea580c" opacity="0.85"><title>2025-09-16 | BTC buy 223.84 usd | reason=budgeted_static_target_rebalance</title></rect>
<rect x="619.3032365396249" y="522.9342255029351" width="11.56896551724138" height="19.565774497064922" fill="#ea580c" opacity="0.85"><title>2025-09-23 | BTC buy 93.92 usd | reason=budgeted_static_target_rebalance</title></rect>
<rect x="640.7067453115548" y="539.2856279247173" width="11.56896551724138" height="3.214372075282654" fill="#ea580c" opacity="0.85"><title>2025-09-30 | BTC buy 15.43 usd | reason=budgeted_static_target_rebalance</title></rect>
<rect x="662.1102540834845" y="542.5" width="11.56896551724138" height="1.5" fill="#dc2626" opacity="0.85"><title>2025-10-07 | BTC sell 7.19 usd | reason=budgeted_static_target_rebalance</title></rect>
<rect x="683.5137628554144" y="538.3894848248901" width="11.56896551724138" height="4.110515175109867" fill="#ea580c" opacity="0.85"><title>2025-10-14 | BTC buy 19.73 usd | reason=budgeted_static_target_rebalance</title></rect>
<rect x="704.9172716273442" y="540.1488168520457" width="11.56896551724138" height="2.351183147954316" fill="#ea580c" opacity="0.85"><title>2025-10-21 | BTC buy 11.29 usd | reason=budgeted_static_target_rebalance</title></rect>
<rect x="726.320780399274" y="542.5" width="11.56896551724138" height="2.094637706198" fill="#dc2626" opacity="0.85"><title>2025-10-28 | BTC sell 10.05 usd | reason=budgeted_static_target_rebalance</title></rect>
<rect x="747.7242891712038" y="542.5" width="11.56896551724138" height="3.15285535971816" fill="#dc2626" opacity="0.85"><title>2025-11-04 | BTC sell 15.13 usd | reason=budgeted_static_target_rebalance</title></rect>
<rect x="769.1277979431336" y="542.5" width="11.56896551724138" height="1.644562211229072" fill="#dc2626" opacity="0.85"><title>2025-11-11 | BTC sell 7.89 usd | reason=budgeted_static_target_rebalance</title></rect>
<rect x="790.5313067150636" y="534.6414238140657" width="11.56896551724138" height="7.858576185934339" fill="#ea580c" opacity="0.85"><title>2025-11-18 | BTC buy 37.72 usd | reason=budgeted_static_target_rebalance</title></rect>
<rect x="811.9348154869933" y="532.0603497958068" width="11.56896551724138" height="10.439650204193185" fill="#ea580c" opacity="0.85"><title>2025-11-25 | BTC buy 50.11 usd | reason=budgeted_static_target_rebalance</title></rect>
<rect x="833.3383242589232" y="542.5" width="11.56896551724138" height="1.5" fill="#dc2626" opacity="0.85"><title>2025-12-02 | BTC sell 6.40 usd | reason=budgeted_static_target_rebalance</title></rect>
<rect x="854.741833030853" y="531.5379633139617" width="11.56896551724138" height="10.962036686038346" fill="#ea580c" opacity="0.85"><title>2025-12-09 | BTC buy 52.62 usd | reason=budgeted_static_target_rebalance</title></rect>
<rect x="876.1453418027828" y="542.5" width="11.56896551724138" height="1.5" fill="#dc2626" opacity="0.85"><title>2025-12-16 | BTC sell 0.97 usd | reason=budgeted_static_target_rebalance</title></rect>
<rect x="897.5488505747126" y="541.7251417970228" width="11.56896551724138" height="1.5" fill="#ea580c" opacity="0.85"><title>2025-12-23 | BTC buy 3.72 usd | reason=budgeted_static_target_rebalance</title></rect>
<rect x="918.9523593466425" y="542.5" width="11.56896551724138" height="1.5" fill="#dc2626" opacity="0.85"><title>2025-12-30 | BTC sell 3.25 usd | reason=budgeted_static_target_rebalance</title></rect>
<rect x="940.3558681185723" y="541.0129428864611" width="11.56896551724138" height="1.5" fill="#ea580c" opacity="0.85"><title>2026-01-06 | BTC buy 7.14 usd | reason=budgeted_static_target_rebalance</title></rect>
<rect x="961.7593768905022" y="542.5" width="11.56896551724138" height="2.4295307209232533" fill="#dc2626" opacity="0.85"><title>2026-01-13 | BTC sell 11.66 usd | reason=budgeted_static_target_rebalance</title></rect>
<rect x="983.1628856624319" y="542.5" width="11.56896551724138" height="1.5" fill="#dc2626" opacity="0.85"><title>2026-01-20 | BTC sell 4.39 usd | reason=budgeted_static_target_rebalance</title></rect>
<rect x="1004.5663944343618" y="542.1626188330534" width="11.56896551724138" height="1.5" fill="#ea580c" opacity="0.85"><title>2026-01-27 | BTC buy 1.62 usd | reason=budgeted_static_target_rebalance</title></rect>
<rect x="1025.9699032062915" y="542.5" width="11.56896551724138" height="2.085682366029687" fill="#dc2626" opacity="0.85"><title>2026-02-03 | BTC sell 10.01 usd | reason=budgeted_static_target_rebalance</title></rect>
<rect x="1047.3734119782214" y="540.4718996204978" width="11.56896551724138" height="2.0281003795022343" fill="#ea580c" opacity="0.85"><title>2026-02-10 | BTC buy 9.73 usd | reason=budgeted_static_target_rebalance</title></rect>
<rect x="1068.7769207501512" y="539.6150795696302" width="11.56896551724138" height="2.884920430369789" fill="#ea580c" opacity="0.85"><title>2026-02-17 | BTC buy 13.85 usd | reason=budgeted_static_target_rebalance</title></rect>
<rect x="1090.180429522081" y="540.1759281959726" width="11.56896551724138" height="2.324071804027426" fill="#ea580c" opacity="0.85"><title>2026-02-24 | BTC buy 11.16 usd | reason=budgeted_static_target_rebalance</title></rect>
<rect x="1111.5839382940107" y="542.5" width="11.56896551724138" height="1.5" fill="#dc2626" opacity="0.85"><title>2026-03-03 | BTC sell 4.29 usd | reason=budgeted_static_target_rebalance</title></rect>
<rect x="1132.9874470659406" y="542.5" width="11.56896551724138" height="1.5" fill="#dc2626" opacity="0.85"><title>2026-03-10 | BTC sell 3.67 usd | reason=budgeted_static_target_rebalance</title></rect>
<rect x="1154.3909558378705" y="538.4548408079515" width="11.56896551724138" height="4.045159192048459" fill="#ea580c" opacity="0.85"><title>2026-03-17 | BTC buy 19.42 usd | reason=budgeted_static_target_rebalance</title></rect>
<rect x="1175.7944646098003" y="541.163386031873" width="11.56896551724138" height="1.5" fill="#ea580c" opacity="0.85"><title>2026-03-24 | BTC buy 6.42 usd | reason=budgeted_static_target_rebalance</title></rect>
<rect x="1197.1979733817302" y="538.5221694733787" width="11.56896551724138" height="3.9778305266213465" fill="#ea580c" opacity="0.85"><title>2026-03-31 | BTC buy 19.09 usd | reason=budgeted_static_target_rebalance</title></rect>
<rect x="1218.60148215366" y="542.4871089318316" width="11.56896551724138" height="1.5" fill="#ea580c" opacity="0.85"><title>2026-04-07 | BTC buy 0.06 usd | reason=budgeted_static_target_rebalance</title></rect>
<rect x="1240.0049909255897" y="542.5" width="11.56896551724138" height="1.5" fill="#dc2626" opacity="0.85"><title>2026-04-14 | BTC sell 5.88 usd | reason=budgeted_static_target_rebalance</title></rect>
<rect x="1261.4084996975196" y="542.5" width="11.56896551724138" height="2.3659163722036283" fill="#dc2626" opacity="0.85"><title>2026-04-21 | BTC sell 11.36 usd | reason=budgeted_static_target_rebalance</title></rect>
<rect x="1282.8120084694494" y="542.5" width="11.56896551724138" height="1.734019628097485" fill="#dc2626" opacity="0.85"><title>2026-04-28 | BTC sell 8.32 usd | reason=budgeted_static_target_rebalance</title></rect>
<rect x="1304.2155172413793" y="542.5" width="11.56896551724138" height="5.443503113047996" fill="#dc2626" opacity="0.85"><title>2026-05-05 | BTC sell 26.13 usd | reason=budgeted_static_target_rebalance</title></rect>
<text x="24" y="542.5" transform="rotate(-90 24,542.5)" text-anchor="middle" font-family="monospace" font-size="14" fill="#0f172a">BTC weekly trade usd</text>
<line x1="90" y1="770" x2="1310" y2="770" stroke="#334155" stroke-width="2"/>
<line x1="90" y1="645" x2="90" y2="770" stroke="#334155" stroke-width="2"/>
<line x1="90" y1="707.5" x2="1310" y2="707.5" stroke="#64748b" stroke-width="1.5" stroke-dasharray="6 4"/>
<line x1="90" y1="770.0" x2="1310" y2="770.0" stroke="#e2e8f0" stroke-width="1"/>
<text x="78" y="774.0" text-anchor="end" font-family="monospace" font-size="11" fill="#475569">-189</text>
<line x1="90" y1="707.5" x2="1310" y2="707.5" stroke="#e2e8f0" stroke-width="1"/>
<text x="78" y="711.5" text-anchor="end" font-family="monospace" font-size="11" fill="#475569">0</text>
<line x1="90" y1="645.0" x2="1310" y2="645.0" stroke="#e2e8f0" stroke-width="1"/>
<text x="78" y="649.0" text-anchor="end" font-family="monospace" font-size="11" fill="#475569">189</text>
<rect x="84.2155172413793" y="657.8793222773725" width="11.56896551724138" height="49.62067772262753" fill="#2563eb" opacity="0.85"><title>2025-04-01 | ETH buy 150.00 usd | reason=budgeted_static_target_rebalance</title></rect>
<rect x="105.61902601330914" y="657.8793222773725" width="11.56896551724138" height="49.62067772262753" fill="#2563eb" opacity="0.85"><title>2025-04-08 | ETH buy 150.00 usd | reason=budgeted_static_target_rebalance</title></rect>
<rect x="127.02253478523895" y="657.8793222773725" width="11.56896551724138" height="49.62067772262753" fill="#2563eb" opacity="0.85"><title>2025-04-15 | ETH buy 150.00 usd | reason=budgeted_static_target_rebalance</title></rect>
<rect x="148.42604355716878" y="657.8793222773725" width="11.56896551724138" height="49.62067772262753" fill="#2563eb" opacity="0.85"><title>2025-04-22 | ETH buy 150.00 usd | reason=budgeted_static_target_rebalance</title></rect>
<rect x="169.8295523290986" y="657.8793222773725" width="11.56896551724138" height="49.62067772262753" fill="#2563eb" opacity="0.85"><title>2025-04-29 | ETH buy 150.00 usd | reason=budgeted_static_target_rebalance</title></rect>
<rect x="191.23306110102843" y="657.8793222773725" width="11.56896551724138" height="49.62067772262753" fill="#2563eb" opacity="0.85"><title>2025-05-06 | ETH buy 150.00 usd | reason=budgeted_static_target_rebalance</title></rect>
<rect x="212.63656987295823" y="657.8793222773725" width="11.56896551724138" height="49.62067772262753" fill="#2563eb" opacity="0.85"><title>2025-05-13 | ETH buy 150.00 usd | reason=budgeted_static_target_rebalance</title></rect>
<rect x="234.04007864488807" y="657.8793222773725" width="11.56896551724138" height="49.62067772262753" fill="#2563eb" opacity="0.85"><title>2025-05-20 | ETH buy 150.00 usd | reason=budgeted_static_target_rebalance</title></rect>
<rect x="255.44358741681788" y="657.8793222773725" width="11.56896551724138" height="49.62067772262753" fill="#2563eb" opacity="0.85"><title>2025-05-27 | ETH buy 150.00 usd | reason=budgeted_static_target_rebalance</title></rect>
<rect x="276.84709618874774" y="657.8793222773725" width="11.56896551724138" height="49.62067772262753" fill="#2563eb" opacity="0.85"><title>2025-06-03 | ETH buy 150.00 usd | reason=budgeted_static_target_rebalance</title></rect>
<rect x="298.25060496067755" y="657.8793222773725" width="11.56896551724138" height="49.62067772262753" fill="#2563eb" opacity="0.85"><title>2025-06-10 | ETH buy 150.00 usd | reason=budgeted_static_target_rebalance</title></rect>
<rect x="319.65411373260736" y="657.8793222773725" width="11.56896551724138" height="49.62067772262753" fill="#2563eb" opacity="0.85"><title>2025-06-17 | ETH buy 150.00 usd | reason=budgeted_static_target_rebalance</title></rect>
<rect x="341.05762250453716" y="657.8793222773725" width="11.56896551724138" height="49.62067772262753" fill="#2563eb" opacity="0.85"><title>2025-06-24 | ETH buy 150.00 usd | reason=budgeted_static_target_rebalance</title></rect>
<rect x="362.46113127646703" y="657.8793222773725" width="11.56896551724138" height="49.62067772262753" fill="#2563eb" opacity="0.85"><title>2025-07-01 | ETH buy 150.00 usd | reason=budgeted_static_target_rebalance</title></rect>
<rect x="383.86464004839684" y="657.8793222773725" width="11.56896551724138" height="49.62067772262753" fill="#2563eb" opacity="0.85"><title>2025-07-08 | ETH buy 150.00 usd | reason=budgeted_static_target_rebalance</title></rect>
<rect x="405.26814882032664" y="657.8793222773725" width="11.56896551724138" height="49.62067772262753" fill="#2563eb" opacity="0.85"><title>2025-07-15 | ETH buy 150.00 usd | reason=budgeted_static_target_rebalance</title></rect>
<rect x="426.67165759225645" y="657.8793222773725" width="11.56896551724138" height="49.62067772262753" fill="#2563eb" opacity="0.85"><title>2025-07-22 | ETH buy 150.00 usd | reason=budgeted_static_target_rebalance</title></rect>
<rect x="448.0751663641863" y="657.8793222773725" width="11.56896551724138" height="49.62067772262753" fill="#2563eb" opacity="0.85"><title>2025-07-29 | ETH buy 150.00 usd | reason=budgeted_static_target_rebalance</title></rect>
<rect x="469.4786751361161" y="657.8793222773725" width="11.56896551724138" height="49.62067772262753" fill="#2563eb" opacity="0.85"><title>2025-08-05 | ETH buy 150.00 usd | reason=budgeted_static_target_rebalance</title></rect>
<rect x="490.88218390804593" y="707.5" width="11.56896551724138" height="16.788343044433873" fill="#7c3aed" opacity="0.85"><title>2025-08-12 | ETH sell 50.75 usd | reason=budgeted_static_target_rebalance</title></rect>
<rect x="512.2856926799758" y="700.1230758581967" width="11.56896551724138" height="7.376924141803329" fill="#2563eb" opacity="0.85"><title>2025-08-19 | ETH buy 22.30 usd | reason=budgeted_static_target_rebalance</title></rect>
<rect x="533.6892014519055" y="707.5" width="11.56896551724138" height="21.679010417045333" fill="#7c3aed" opacity="0.85"><title>2025-08-26 | ETH sell 65.53 usd | reason=budgeted_static_target_rebalance</title></rect>
<rect x="555.0927102238354" y="707.5" width="11.56896551724138" height="6.87628934520194" fill="#7c3aed" opacity="0.85"><title>2025-09-02 | ETH sell 20.79 usd | reason=budgeted_static_target_rebalance</title></rect>
<rect x="576.4962189957653" y="707.5" width="11.56896551724138" height="4.715053076627555" fill="#7c3aed" opacity="0.85"><title>2025-09-09 | ETH sell 14.25 usd | reason=budgeted_static_target_rebalance</title></rect>
<rect x="597.899727767695" y="707.5" width="11.56896551724138" height="6.841175368487029" fill="#7c3aed" opacity="0.85"><title>2025-09-16 | ETH sell 20.68 usd | reason=budgeted_static_target_rebalance</title></rect>
<rect x="619.3032365396249" y="697.5820329810252" width="11.56896551724138" height="9.917967018974764" fill="#2563eb" opacity="0.85"><title>2025-09-23 | ETH buy 29.98 usd | reason=budgeted_static_target_rebalance</title></rect>
<rect x="640.7067453115548" y="694.3244442920782" width="11.56896551724138" height="13.17555570792183" fill="#2563eb" opacity="0.85"><title>2025-09-30 | ETH buy 39.83 usd | reason=budgeted_static_target_rebalance</title></rect>
<rect x="662.1102540834845" y="707.5" width="11.56896551724138" height="2.379947621627366" fill="#7c3aed" opacity="0.85"><title>2025-10-07 | ETH sell 7.19 usd | reason=budgeted_static_target_rebalance</title></rect>
<rect x="683.5137628554144" y="700.3077118008564" width="11.56896551724138" height="7.192288199143604" fill="#2563eb" opacity="0.85"><title>2025-10-14 | ETH buy 21.74 usd | reason=budgeted_static_target_rebalance</title></rect>
<rect x="704.9172716273442" y="687.4639346060239" width="11.56896551724138" height="20.03606539397606" fill="#2563eb" opacity="0.85"><title>2025-10-21 | ETH buy 60.57 usd | reason=budgeted_static_target_rebalance</title></rect>
<rect x="726.320780399274" y="697.0240899830179" width="11.56896551724138" height="10.475910016982084" fill="#2563eb" opacity="0.85"><title>2025-10-28 | ETH buy 31.67 usd | reason=budgeted_static_target_rebalance</title></rect>
<rect x="747.7242891712038" y="650.8768190907789" width="11.56896551724138" height="56.623180909221105" fill="#2563eb" opacity="0.85"><title>2025-11-04 | ETH buy 171.17 usd | reason=budgeted_static_target_rebalance</title></rect>
<rect x="769.1277979431336" y="691.2958929329659" width="11.56896551724138" height="16.2041070670341" fill="#2563eb" opacity="0.85"><title>2025-11-11 | ETH buy 48.98 usd | reason=budgeted_static_target_rebalance</title></rect>
<rect x="790.5313067150636" y="690.7447735350756" width="11.56896551724138" height="16.755226464924363" fill="#2563eb" opacity="0.85"><title>2025-11-18 | ETH buy 50.65 usd | reason=budgeted_static_target_rebalance</title></rect>
<rect x="811.9348154869933" y="694.1739616228133" width="11.56896551724138" height="13.326038377186705" fill="#2563eb" opacity="0.85"><title>2025-11-25 | ETH buy 40.28 usd | reason=budgeted_static_target_rebalance</title></rect>
<rect x="833.3383242589232" y="694.0972293938712" width="11.56896551724138" height="13.402770606128797" fill="#2563eb" opacity="0.85"><title>2025-12-02 | ETH buy 40.52 usd | reason=budgeted_static_target_rebalance</title></rect>
<rect x="854.741833030853" y="707.5" width="11.56896551724138" height="11.202592847999654" fill="#7c3aed" opacity="0.85"><title>2025-12-09 | ETH sell 33.86 usd | reason=budgeted_static_target_rebalance</title></rect>
<rect x="876.1453418027828" y="701.347330194123" width="11.56896551724138" height="6.1526698058770535" fill="#2563eb" opacity="0.85"><title>2025-12-16 | ETH buy 18.60 usd | reason=budgeted_static_target_rebalance</title></rect>
<rect x="897.5488505747126" y="705.8148036468264" width="11.56896551724138" height="1.6851963531736374" fill="#2563eb" opacity="0.85"><title>2025-12-23 | ETH buy 5.09 usd | reason=budgeted_static_target_rebalance</title></rect>
<rect x="918.9523593466425" y="704.757345678864" width="11.56896551724138" height="2.7426543211360013" fill="#2563eb" opacity="0.85"><title>2025-12-30 | ETH buy 8.29 usd | reason=budgeted_static_target_rebalance</title></rect>
<rect x="940.3558681185723" y="707.5" width="11.56896551724138" height="9.074573830737904" fill="#7c3aed" opacity="0.85"><title>2026-01-06 | ETH sell 27.43 usd | reason=budgeted_static_target_rebalance</title></rect>
<rect x="961.7593768905022" y="707.5" width="11.56896551724138" height="4.517820924019361" fill="#7c3aed" opacity="0.85"><title>2026-01-13 | ETH sell 13.66 usd | reason=budgeted_static_target_rebalance</title></rect>
<rect x="983.1628856624319" y="695.5045705651237" width="11.56896551724138" height="11.995429434876314" fill="#2563eb" opacity="0.85"><title>2026-01-20 | ETH buy 36.26 usd | reason=budgeted_static_target_rebalance</title></rect>
<rect x="1004.5663944343618" y="707.5" width="11.56896551724138" height="1.5" fill="#7c3aed" opacity="0.85"><title>2026-01-27 | ETH sell 3.12 usd | reason=budgeted_static_target_rebalance</title></rect>
<rect x="1025.9699032062915" y="645.0" width="11.56896551724138" height="62.5" fill="#2563eb" opacity="0.85"><title>2026-02-03 | ETH buy 188.93 usd | reason=budgeted_static_target_rebalance</title></rect>
<rect x="1047.3734119782214" y="667.2079371246931" width="11.56896551724138" height="40.2920628753069" fill="#2563eb" opacity="0.85"><title>2026-02-10 | ETH buy 121.80 usd | reason=budgeted_static_target_rebalance</title></rect>
<rect x="1068.7769207501512" y="686.8070727106373" width="11.56896551724138" height="20.69292728936273" fill="#2563eb" opacity="0.85"><title>2026-02-17 | ETH buy 62.55 usd | reason=budgeted_static_target_rebalance</title></rect>
<rect x="1090.180429522081" y="686.4788295316107" width="11.56896551724138" height="21.0211704683893" fill="#2563eb" opacity="0.85"><title>2026-02-24 | ETH buy 63.55 usd | reason=budgeted_static_target_rebalance</title></rect>
<rect x="1111.5839382940107" y="704.2491851673861" width="11.56896551724138" height="3.2508148326138553" fill="#2563eb" opacity="0.85"><title>2026-03-03 | ETH buy 9.83 usd | reason=budgeted_static_target_rebalance</title></rect>
<rect x="1132.9874470659406" y="707.5" width="11.56896551724138" height="1.5" fill="#7c3aed" opacity="0.85"><title>2026-03-10 | ETH sell 3.67 usd | reason=budgeted_static_target_rebalance</title></rect>
<rect x="1154.3909558378705" y="707.5" width="11.56896551724138" height="11.403618620760994" fill="#7c3aed" opacity="0.85"><title>2026-03-17 | ETH sell 34.47 usd | reason=budgeted_static_target_rebalance</title></rect>
<rect x="1175.7944646098003" y="707.5" width="11.56896551724138" height="4.330451766543661" fill="#7c3aed" opacity="0.85"><title>2026-03-24 | ETH sell 13.09 usd | reason=budgeted_static_target_rebalance</title></rect>
<rect x="1197.1979733817302" y="707.5" width="11.56896551724138" height="3.2626096557551136" fill="#7c3aed" opacity="0.85"><title>2026-03-31 | ETH sell 9.86 usd | reason=budgeted_static_target_rebalance</title></rect>
<rect x="1218.60148215366" y="707.5" width="11.56896551724138" height="5.970901042932951" fill="#7c3aed" opacity="0.85"><title>2026-04-07 | ETH sell 18.05 usd | reason=budgeted_static_target_rebalance</title></rect>
<rect x="1240.0049909255897" y="707.5" width="11.56896551724138" height="5.666095807965007" fill="#7c3aed" opacity="0.85"><title>2026-04-14 | ETH sell 17.13 usd | reason=budgeted_static_target_rebalance</title></rect>
<rect x="1261.4084996975196" y="707.5" width="11.56896551724138" height="3.7567479623618283" fill="#7c3aed" opacity="0.85"><title>2026-04-21 | ETH sell 11.36 usd | reason=budgeted_static_target_rebalance</title></rect>
<rect x="1282.8120084694494" y="707.5" width="11.56896551724138" height="2.7533833321771226" fill="#7c3aed" opacity="0.85"><title>2026-04-28 | ETH sell 8.32 usd | reason=budgeted_static_target_rebalance</title></rect>
<rect x="1304.2155172413793" y="706.2820267379474" width="11.56896551724138" height="1.5" fill="#2563eb" opacity="0.85"><title>2026-05-05 | ETH buy 3.68 usd | reason=budgeted_static_target_rebalance</title></rect>
<text x="24" y="707.5" transform="rotate(-90 24,707.5)" text-anchor="middle" font-family="monospace" font-size="14" fill="#0f172a">ETH weekly trade usd</text>
<rect x="1040" y="478" width="14" height="10" fill="#ea580c" opacity="0.85"/>
<text x="1062" y="488" font-family="monospace" font-size="11" fill="#0f172a">BTC buy</text>
<rect x="1190" y="478" width="14" height="10" fill="#dc2626" opacity="0.85"/>
<text x="1212" y="488" font-family="monospace" font-size="11" fill="#0f172a">BTC sell</text>
<rect x="1040" y="498" width="14" height="10" fill="#2563eb" opacity="0.85"/>
<text x="1062" y="508" font-family="monospace" font-size="11" fill="#0f172a">ETH buy</text>
<rect x="1190" y="498" width="14" height="10" fill="#7c3aed" opacity="0.85"/>
<text x="1212" y="508" font-family="monospace" font-size="11" fill="#0f172a">ETH sell</text>
</svg>