<svg xmlns="http://www.w3.org/2000/svg" width="1400" height="800">
<rect width="1400" height="800" fill="#f8fafc"/>
<text x="700.0" y="42" text-anchor="middle" font-family="monospace" font-size="24" fill="#0f172a">narrow_cash_band_rebalance | weekly | start=2024-07-01 | return=4.19%</text>
<line x1="90" y1="420" x2="1310" y2="420" stroke="#334155" stroke-width="2"/>
<line x1="90" y1="90" x2="90" y2="420" stroke="#334155" stroke-width="2"/>
<line x1="90.0" y1="420" x2="90.0" y2="90" stroke="#94a3b8" stroke-width="1.2"/>
<line x1="90.0" y1="605" x2="90.0" y2="480" stroke="#94a3b8" stroke-width="1.2"/>
<line x1="90.0" y1="770" x2="90.0" y2="645" stroke="#94a3b8" stroke-width="1.2"/>
<text x="90.0" y="788" text-anchor="middle" font-family="monospace" font-size="11" fill="#334155">2024-07</text>
<line x1="153.54166666666669" y1="420" x2="153.54166666666669" y2="90" stroke="#94a3b8" stroke-width="1.2"/>
<line x1="153.54166666666669" y1="605" x2="153.54166666666669" y2="480" stroke="#94a3b8" stroke-width="1.2"/>
<line x1="153.54166666666669" y1="770" x2="153.54166666666669" y2="645" stroke="#94a3b8" stroke-width="1.2"/>
<text x="153.54166666666669" y="788" text-anchor="middle" font-family="monospace" font-size="11" fill="#334155">2024-08</text>
<line x1="204.375" y1="420" x2="204.375" y2="90" stroke="#94a3b8" stroke-width="1.2"/>
<line x1="204.375" y1="605" x2="204.375" y2="480" stroke="#94a3b8" stroke-width="1.2"/>
<line x1="204.375" y1="770" x2="204.375" y2="645" stroke="#94a3b8" stroke-width="1.2"/>
<text x="204.375" y="788" text-anchor="middle" font-family="monospace" font-size="11" fill="#334155">2024-09</text>
<line x1="267.9166666666667" y1="420" x2="267.9166666666667" y2="90" stroke="#94a3b8" stroke-width="1.2"/>
<line x1="267.9166666666667" y1="605" x2="267.9166666666667" y2="480" stroke="#94a3b8" stroke-width="1.2"/>
<line x1="267.9166666666667" y1="770" x2="267.9166666666667" y2="645" stroke="#94a3b8" stroke-width="1.2"/>
<text x="267.9166666666667" y="788" text-anchor="middle" font-family="monospace" font-size="11" fill="#334155">2024-10</text>
<line x1="318.75" y1="420" x2="318.75" y2="90" stroke="#94a3b8" stroke-width="1.2"/>
<line x1="318.75" y1="605" x2="318.75" y2="480" stroke="#94a3b8" stroke-width="1.2"/>
<line x1="318.75" y1="770" x2="318.75" y2="645" stroke="#94a3b8" stroke-width="1.2"/>
<text x="318.75" y="788" text-anchor="middle" font-family="monospace" font-size="11" fill="#334155">2024-11</text>
<line x1="369.5833333333333" y1="420" x2="369.5833333333333" y2="90" stroke="#94a3b8" stroke-width="1.2"/>
<line x1="369.5833333333333" y1="605" x2="369.5833333333333" y2="480" stroke="#94a3b8" stroke-width="1.2"/>
<line x1="369.5833333333333" y1="770" x2="369.5833333333333" y2="645" stroke="#94a3b8" stroke-width="1.2"/>
<text x="369.5833333333333" y="788" text-anchor="middle" font-family="monospace" font-size="11" fill="#334155">2024-12</text>
<line x1="433.125" y1="420" x2="433.125" y2="90" stroke="#94a3b8" stroke-width="1.2"/>
<line x1="433.125" y1="605" x2="433.125" y2="480" stroke="#94a3b8" stroke-width="1.2"/>
<line x1="433.125" y1="770" x2="433.125" y2="645" stroke="#94a3b8" stroke-width="1.2"/>
<text x="433.125" y="788" text-anchor="middle" font-family="monospace" font-size="11" fill="#334155">2025-01</text>
<line x1="483.95833333333337" y1="420" x2="483.95833333333337" y2="90" stroke="#94a3b8" stroke-width="1.2"/>
<line x1="483.95833333333337" y1="605" x2="483.95833333333337" y2="480" stroke="#94a3b8" stroke-width="1.2"/>
<line x1="483.95833333333337" y1="770" x2="483.95833333333337" y2="645" stroke="#94a3b8" stroke-width="1.2"/>
<text x="483.95833333333337" y="788" text-anchor="middle" font-family="monospace" font-size="11" fill="#334155">2025-02</text>
<line x1="534.7916666666666" y1="420" x2="534.7916666666666" y2="90" stroke="#94a3b8" stroke-width="1.2"/>
<line x1="534.7916666666666" y1="605" x2="534.7916666666666" y2="480" stroke="#94a3b8" stroke-width="1.2"/>
<line x1="534.7916666666666" y1="770" x2="534.7916666666666" y2="645" stroke="#94a3b8" stroke-width="1.2"/>
<text x="534.7916666666666" y="788" text-anchor="middle" font-family="monospace" font-size="11" fill="#334155">2025-03</text>
<line x1="598.3333333333334" y1="420" x2="598.3333333333334" y2="90" stroke="#94a3b8" stroke-width="1.2"/>
<line x1="598.3333333333334" y1="605" x2="598.3333333333334" y2="480" stroke="#94a3b8" stroke-width="1.2"/>
<line x1="598.3333333333334" y1="770" x2="598.3333333333334" y2="645" stroke="#94a3b8" stroke-width="1.2"/>
<text x="598.3333333333334" y="788" text-anchor="middle" font-family="monospace" font-size="11" fill="#334155">2025-04</text>
<line x1="649.1666666666666" y1="420" x2="649.1666666666666" y2="90" stroke="#94a3b8" stroke-width="1.2"/>
<line x1="649.1666666666666" y1="605" x2="649.1666666666666" y2="480" stroke="#94a3b8" stroke-width="1.2"/>
<line x1="649.1666666666666" y1="770" x2="649.1666666666666" y2="645" stroke="#94a3b8" stroke-width="1.2"/>
<text x="649.1666666666666" y="788" text-anchor="middle" font-family="monospace" font-size="11" fill="#334155">2025-05</text>
<line x1="700.0" y1="420" x2="700.0" y2="90" stroke="#94a3b8" stroke-width="1.2"/>
<line x1="700.0" y1="605" x2="700.0" y2="480" stroke="#94a3b8" stroke-width="1.2"/>
<line x1="700.0" y1="770" x2="700.0" y2="645" stroke="#94a3b8" stroke-width="1.2"/>
<text x="700.0" y="788" text-anchor="middle" font-family="monospace" font-size="11" fill="#334155">2025-06</text>
<line x1="763.5416666666667" y1="420" x2="763.5416666666667" y2="90" stroke="#94a3b8" stroke-width="1.2"/>
<line x1="763.5416666666667" y1="605" x2="763.5416666666667" y2="480" stroke="#94a3b8" stroke-width="1.2"/>
<line x1="763.5416666666667" y1="770" x2="763.5416666666667" y2="645" stroke="#94a3b8" stroke-width="1.2"/>
<text x="763.5416666666667" y="788" text-anchor="middle" font-family="monospace" font-size="11" fill="#334155">2025-07</text>
<line x1="814.375" y1="420" x2="814.375" y2="90" stroke="#94a3b8" stroke-width="1.2"/>
<line x1="814.375" y1="605" x2="814.375" y2="480" stroke="#94a3b8" stroke-width="1.2"/>
<line x1="814.375" y1="770" x2="814.375" y2="645" stroke="#94a3b8" stroke-width="1.2"/>
<text x="814.375" y="788" text-anchor="middle" font-family="monospace" font-size="11" fill="#334155">2025-08</text>
<line x1="865.2083333333333" y1="420" x2="865.2083333333333" y2="90" stroke="#94a3b8" stroke-width="1.2"/>
<line x1="865.2083333333333" y1="605" x2="865.2083333333333" y2="480" stroke="#94a3b8" stroke-width="1.2"/>
<line x1="865.2083333333333" y1="770" x2="865.2083333333333" y2="645" stroke="#94a3b8" stroke-width="1.2"/>
<text x="865.2083333333333" y="788" text-anchor="middle" font-family="monospace" font-size="11" fill="#334155">2025-09</text>
<line x1="928.75" y1="420" x2="928.75" y2="90" stroke="#94a3b8" stroke-width="1.2"/>
<line x1="928.75" y1="605" x2="928.75" y2="480" stroke="#94a3b8" stroke-width="1.2"/>
<line x1="928.75" y1="770" x2="928.75" y2="645" stroke="#94a3b8" stroke-width="1.2"/>
<text x="928.75" y="788" text-anchor="middle" font-family="monospace" font-size="11" fill="#334155">2025-10</text>
<line x1="979.5833333333333" y1="420" x2="979.5833333333333" y2="90" stroke="#94a3b8" stroke-width="1.2"/>
<line x1="979.5833333333333" y1="605" x2="979.5833333333333" y2="480" stroke="#94a3b8" stroke-width="1.2"/>
<line x1="979.5833333333333" y1="770" x2="979.5833333333333" y2="645" stroke="#94a3b8" stroke-width="1.2"/>
<text x="979.5833333333333" y="788" text-anchor="middle" font-family="monospace" font-size="11" fill="#334155">2025-11</text>
<line x1="1030.4166666666667" y1="420" x2="1030.4166666666667" y2="90" stroke="#94a3b8" stroke-width="1.2"/>
<line x1="1030.4166666666667" y1="605" x2="1030.4166666666667" y2="480" stroke="#94a3b8" stroke-width="1.2"/>
<line x1="1030.4166666666667" y1="770" x2="1030.4166666666667" y2="645" stroke="#94a3b8" stroke-width="1.2"/>
<text x="1030.4166666666667" y="788" text-anchor="middle" font-family="monospace" font-size="11" fill="#334155">2025-12</text>
<line x1="1093.9583333333333" y1="420" x2="1093.9583333333333" y2="90" stroke="#94a3b8" stroke-width="1.2"/>
<line x1="1093.9583333333333" y1="605" x2="1093.9583333333333" y2="480" stroke="#94a3b8" stroke-width="1.2"/>
<line x1="1093.9583333333333" y1="770" x2="1093.9583333333333" y2="645" stroke="#94a3b8" stroke-width="1.2"/>
<text x="1093.9583333333333" y="788" text-anchor="middle" font-family="monospace" font-size="11" fill="#334155">2026-01</text>
<line x1="1144.7916666666667" y1="420" x2="1144.7916666666667" y2="90" stroke="#94a3b8" stroke-width="1.2"/>
<line x1="1144.7916666666667" y1="605" x2="1144.7916666666667" y2="480" stroke="#94a3b8" stroke-width="1.2"/>
<line x1="1144.7916666666667" y1="770" x2="1144.7916666666667" y2="645" stroke="#94a3b8" stroke-width="1.2"/>
<text x="1144.7916666666667" y="788" text-anchor="middle" font-family="monospace" font-size="11" fill="#334155">2026-02</text>
<line x1="1195.625" y1="420" x2="1195.625" y2="90" stroke="#94a3b8" stroke-width="1.2"/>
<line x1="1195.625" y1="605" x2="1195.625" y2="480" stroke="#94a3b8" stroke-width="1.2"/>
<line x1="1195.625" y1="770" x2="1195.625" y2="645" stroke="#94a3b8" stroke-width="1.2"/>
<text x="1195.625" y="788" text-anchor="middle" font-family="monospace" font-size="11" fill="#334155">2026-03</text>
<line x1="1259.1666666666667" y1="420" x2="1259.1666666666667" y2="90" stroke="#94a3b8" stroke-width="1.2"/>
<line x1="1259.1666666666667" y1="605" x2="1259.1666666666667" y2="480" stroke="#94a3b8" stroke-width="1.2"/>
<line x1="1259.1666666666667" y1="770" x2="1259.1666666666667" y2="645" stroke="#94a3b8" stroke-width="1.2"/>
<text x="1259.1666666666667" y="788" text-anchor="middle" font-family="monospace" font-size="11" fill="#334155">2026-04</text>
<line x1="1310.0" y1="420" x2="1310.0" y2="90" stroke="#94a3b8" stroke-width="1.2"/>
<line x1="1310.0" y1="605" x2="1310.0" y2="480" stroke="#94a3b8" stroke-width="1.2"/>
<line x1="1310.0" y1="770" x2="1310.0" y2="645" stroke="#94a3b8" stroke-width="1.2"/>
<text x="1310.0" y="788" text-anchor="middle" font-family="monospace" font-size="11" fill="#334155">2026-05</text>
<line x1="90" y1="420.0" x2="1310" y2="420.0" stroke="#cbd5e1" stroke-width="1"/>
<text x="78" y="424.0" text-anchor="end" font-family="monospace" font-size="12" fill="#475569">0</text>
<line x1="90" y1="354.0" x2="1310" y2="354.0" stroke="#cbd5e1" stroke-width="1"/>
<text x="78" y="358.0" text-anchor="end" font-family="monospace" font-size="12" fill="#475569">16976</text>
<line x1="90" y1="288.0" x2="1310" y2="288.0" stroke="#cbd5e1" stroke-width="1"/>
<text x="78" y="292.0" text-anchor="end" font-family="monospace" font-size="12" fill="#475569">33952</text>
<line x1="90" y1="221.99999999999997" x2="1310" y2="221.99999999999997" stroke="#cbd5e1" stroke-width="1"/>
<text x="78" y="225.99999999999997" text-anchor="end" font-family="monospace" font-size="12" fill="#475569">50927</text>
<line x1="90" y1="156.0" x2="1310" y2="156.0" stroke="#cbd5e1" stroke-width="1"/>
<text x="78" y="160.0" text-anchor="end" font-family="monospace" font-size="12" fill="#475569">67903</text>
<line x1="90" y1="90.0" x2="1310" y2="90.0" stroke="#cbd5e1" stroke-width="1"/>
<text x="78" y="94.0" text-anchor="end" font-family="monospace" font-size="12" fill="#475569">84879</text>
<polygon points="90.0,369.11235662654616 102.70833333333333,367.49709724159027 115.41666666666666,353.7092890101598 128.125,351.40491226020737 140.83333333333331,350.05857108846993 153.54166666666669,350.8361498222065 166.25,351.6137285559431 178.95833333333334,352.3913072896797 191.66666666666666,353.16888602341623 204.375,353.94646475715285 217.08333333333334,354.7240434908894 229.79166666666666,355.501622224626 242.5,356.2792009583626 255.20833333333331,357.05677969209916 267.9166666666667,357.7793872760983 280.625,346.6002695707464 293.3333333333333,339.69183480608973 306.0416666666667,334.57673068226427 318.75,331.8379004443367 331.4583333333333,332.6154791780733 344.1666666666667,333.3930579118099 356.875,334.1706366455465 369.5833333333333,328.03852202829887 382.2916666666667,324.31241222833455 395.0,320.70844324049096 407.70833333333337,321.4860219742275 420.41666666666663,322.2636007079641 433.125,320.0256575596162 445.83333333333337,320.8032362933528 458.54166666666663,321.58081502708944 471.25,322.35839376082595 483.95833333333337,317.94235286108665 496.66666666666663,315.7534248529248 509.375,315.23867431816154 522.0833333333334,315.37514757647654 534.7916666666666,315.72887589810466 547.5,316.5064546318413 560.2083333333334,317.28403336557784 572.9166666666666,316.81219283196566 585.625,317.5897715657022 598.3333333333334,318.36735029943884 611.0416666666666,319.1449290331754 623.75,319.92250776691196 636.4583333333334,316.4882738589788 649.1666666666666,314.71952582862536 661.875,314.306622656072 674.5833333333334,313.7106242469055 687.2916666666666,312.79905184552746 700.0,313.3182397676942 712.7083333333333,314.0958185014308 725.4166666666667,313.9859210178772 738.125,313.92039214376393 750.8333333333333,313.92163482705695 763.5416666666667,314.04492343744073 776.25,314.8225021711773 788.9583333333333,312.48845315168836 801.6666666666667,311.0476617395555 814.375,310.5958300251658 827.0833333333333,307.27095480564924 839.7916666666667,304.5593569704087 852.5,302.0425411381011 865.2083333333333,301.0010722204656 877.9166666666667,300.8828126666966 890.625,299.9168015906629 903.3333333333333,300.6943803243995 916.0416666666667,301.47195905813606 928.75,300.68160089303507 941.4583333333333,301.45917962677163 954.1666666666667,302.2367583605082 966.875,303.0143370942448 979.5833333333333,303.79191582798137 992.2916666666667,304.569494561718 1005.0,305.34707329545455 1017.7083333333333,306.1246520291911 1030.4166666666667,306.90223076292773 1043.125,307.6798094966643 1055.8333333333333,308.45738823040085 1068.5416666666667,309.23496696413747 1081.25,310.01254569787403 1093.9583333333333,310.7901244316106 1106.6666666666667,311.56770316534715 1119.375,312.3452818990838 1132.0833333333333,313.12286063282033 1144.7916666666667,313.90043936655695 1157.5,314.6780181002935 1170.2083333333333,315.4555968340301 1182.9166666666667,316.2331755677667 1195.625,317.01075430150325 1208.3333333333333,317.7883330352398 1221.0416666666667,318.56591176897643 1233.75,319.343490502713 1246.4583333333333,320.12106923644956 1259.1666666666667,320.8986479701862 1271.875,321.67622670392274 1284.5833333333333,322.4538054376593 1297.2916666666667,323.2313841713959 1310.0,324.0089629051325 1310.0,420.0 1297.2916666666667,420.0 1284.5833333333333,420.0 1271.875,420.0 1259.1666666666667,420.0 1246.4583333333333,420.0 1233.75,420.0 1221.0416666666667,420.0 1208.3333333333333,420.0 1195.625,420.0 1182.9166666666667,420.0 1170.2083333333333,420.0 1157.5,420.0 1144.7916666666667,420.0 1132.0833333333333,420.0 1119.375,420.0 1106.6666666666667,420.0 1093.9583333333333,420.0 1081.25,420.0 1068.5416666666667,420.0 1055.8333333333333,420.0 1043.125,420.0 1030.4166666666667,420.0 1017.7083333333333,420.0 1005.0,420.0 992.2916666666667,420.0 979.5833333333333,420.0 966.875,420.0 954.1666666666667,420.0 941.4583333333333,420.0 928.75,420.0 916.0416666666667,420.0 903.3333333333333,420.0 890.625,420.0 877.9166666666667,420.0 865.2083333333333,420.0 852.5,420.0 839.7916666666667,420.0 827.0833333333333,420.0 814.375,420.0 801.6666666666667,420.0 788.9583333333333,420.0 776.25,420.0 763.5416666666667,420.0 750.8333333333333,420.0 738.125,420.0 725.4166666666667,420.0 712.7083333333333,420.0 700.0,420.0 687.2916666666666,420.0 674.5833333333334,420.0 661.875,420.0 649.1666666666666,420.0 636.4583333333334,420.0 623.75,420.0 611.0416666666666,420.0 598.3333333333334,420.0 585.625,420.0 572.9166666666666,420.0 560.2083333333334,420.0 547.5,420.0 534.7916666666666,420.0 522.0833333333334,420.0 509.375,420.0 496.66666666666663,420.0 483.95833333333337,420.0 471.25,420.0 458.54166666666663,420.0 445.83333333333337,420.0 433.125,420.0 420.41666666666663,420.0 407.70833333333337,420.0 395.0,420.0 382.2916666666667,420.0 369.5833333333333,420.0 356.875,420.0 344.1666666666667,420.0 331.4583333333333,420.0 318.75,420.0 306.0416666666667,420.0 293.3333333333333,420.0 280.625,420.0 267.9166666666667,420.0 255.20833333333331,420.0 242.5,420.0 229.79166666666666,420.0 217.08333333333334,420.0 204.375,420.0 191.66666666666666,420.0 178.95833333333334,420.0 166.25,420.0 153.54166666666669,420.0 140.83333333333331,420.0 128.125,420.0 115.41666666666666,420.0 102.70833333333333,420.0 90.0,420.0" fill="#facc15" fill-opacity="0.70" stroke="#facc15" stroke-width="1.2"/>
<polygon points="90.0,301.87920580869616 102.70833333333333,308.08937247368146 115.41666666666666,284.71391436304776 128.125,282.90687507337526 140.83333333333331,283.6311129037309 153.54166666666669,301.98417920212523 166.25,296.26478185838516 178.95833333333334,298.3985976938489 191.66666666666666,297.8943161346909 204.375,301.2307856499092 217.08333333333334,305.31098742911263 229.79166666666666,307.05836889286184 242.5,300.02810380342834 255.20833333333331,301.38284815068437 267.9166666666667,305.56035862795073 280.625,289.5275874647336 293.3333333333333,281.43552211958496 306.0416666666667,278.11054389769924 318.75,278.69486861252676 331.4583333333333,257.3834757948565 344.1666666666667,261.484413110804 356.875,257.2683478271337 369.5833333333333,245.57215978737898 382.2916666666667,239.89483201191314 395.0,229.6727715283318 407.70833333333337,243.0626127375715 420.41666666666663,244.88444896672715 433.125,234.57712668318783 445.83333333333337,247.76811546616216 458.54166666666663,244.7958845026243 471.25,247.48957940197158 483.95833333333337,249.7037960695799 496.66666666666663,252.37361476674957 509.375,249.51215739229391 522.0833333333334,254.78675130183177 534.7916666666666,263.5703773177612 547.5,270.8425350579025 560.2083333333334,269.7086385243374 572.9166666666666,265.0114107073348 585.625,271.86005587484533 598.3333333333334,279.01005560046724 611.0416666666666,277.58920637206586 623.75,279.1161511572245 636.4583333333334,269.591269145869 649.1666666666666,266.91559468858713 661.875,248.3680239563237 674.5833333333334,246.514562782963 687.2916666666666,244.26792732230794 700.0,243.19650837050537 712.7083333333333,241.6503787898448 725.4166666666667,244.82679933532935 738.125,247.96647191848461 750.8333333333333,245.57953473989096 763.5416666666667,243.76832021396316 776.25,231.1059141608058 788.9583333333333,210.6880961729188 801.6666666666667,210.1110161946627 814.375,212.5876314560984 827.0833333333333,199.71126808143904 839.7916666666667,197.78590282422024 852.5,196.64931118132282 865.2083333333333,198.53724437141082 877.9166666666667,199.13785950481383 890.625,194.35839920249637 903.3333333333333,202.26274450084173 916.0416666666667,202.30417659279146 928.75,191.6628795950811 941.4583333333333,202.32538861549747 954.1666666666667,208.88614506371903 966.875,205.99909578408884 979.5833333333333,218.56676991356943 992.2916666666667,219.8163548272851 1005.0,233.00429435606765 1017.7083333333333,235.19216204286687 1030.4166666666667,239.28758656056547 1043.125,231.7840944580353 1055.8333333333333,236.07170368171677 1068.5416666666667,235.40342373131597 1081.25,237.59646101855247 1093.9583333333333,230.8033430645988 1106.6666666666667,234.4968179281834 1119.375,232.50339273004857 1132.0833333333333,239.42128689370202 1144.7916666666667,254.4589832790354 1157.5,260.9634919617555 1170.2083333333333,264.0726925595984 1182.9166666666667,268.1084620744397 1195.625,264.0370424543676 1208.3333333333333,265.322012969531 1221.0416666666667,256.2411789469388 1233.75,261.9601535228556 1246.4583333333333,265.73880303050015 1259.1666666666667,263.9037912419844 1271.875,257.18265891174065 1284.5833333333333,259.0812901862266 1297.2916666666667,259.78081100091686 1310.0,258.9710736257613 1310.0,324.0089629051325 1297.2916666666667,323.2313841713959 1284.5833333333333,322.4538054376593 1271.875,321.67622670392274 1259.1666666666667,320.8986479701862 1246.4583333333333,320.12106923644956 1233.75,319.343490502713 1221.0416666666667,318.56591176897643 1208.3333333333333,317.7883330352398 1195.625,317.01075430150325 1182.9166666666667,316.2331755677667 1170.2083333333333,315.4555968340301 1157.5,314.6780181002935 1144.7916666666667,313.90043936655695 1132.0833333333333,313.12286063282033 1119.375,312.3452818990838 1106.6666666666667,311.56770316534715 1093.9583333333333,310.7901244316106 1081.25,310.01254569787403 1068.5416666666667,309.23496696413747 1055.8333333333333,308.45738823040085 1043.125,307.6798094966643 1030.4166666666667,306.90223076292773 1017.7083333333333,306.1246520291911 1005.0,305.34707329545455 992.2916666666667,304.569494561718 979.5833333333333,303.79191582798137 966.875,303.0143370942448 954.1666666666667,302.2367583605082 941.4583333333333,301.45917962677163 928.75,300.68160089303507 916.0416666666667,301.47195905813606 903.3333333333333,300.6943803243995 890.625,299.9168015906629 877.9166666666667,300.8828126666966 865.2083333333333,301.0010722204656 852.5,302.0425411381011 839.7916666666667,304.5593569704087 827.0833333333333,307.27095480564924 814.375,310.5958300251658 801.6666666666667,311.0476617395555 788.9583333333333,312.48845315168836 776.25,314.8225021711773 763.5416666666667,314.04492343744073 750.8333333333333,313.92163482705695 738.125,313.92039214376393 725.4166666666667,313.9859210178772 712.7083333333333,314.0958185014308 700.0,313.3182397676942 687.2916666666666,312.79905184552746 674.5833333333334,313.7106242469055 661.875,314.306622656072 649.1666666666666,314.71952582862536 636.4583333333334,316.4882738589788 623.75,319.92250776691196 611.0416666666666,319.1449290331754 598.3333333333334,318.36735029943884 585.625,317.5897715657022 572.9166666666666,316.81219283196566 560.2083333333334,317.28403336557784 547.5,316.5064546318413 534.7916666666666,315.72887589810466 522.0833333333334,315.37514757647654 509.375,315.23867431816154 496.66666666666663,315.7534248529248 483.95833333333337,317.94235286108665 471.25,322.35839376082595 458.54166666666663,321.58081502708944 445.83333333333337,320.8032362933528 433.125,320.0256575596162 420.41666666666663,322.2636007079641 407.70833333333337,321.4860219742275 395.0,320.70844324049096 382.2916666666667,324.31241222833455 369.5833333333333,328.03852202829887 356.875,334.1706366455465 344.1666666666667,333.3930579118099 331.4583333333333,332.6154791780733 318.75,331.8379004443367 306.0416666666667,334.57673068226427 293.3333333333333,339.69183480608973 280.625,346.6002695707464 267.9166666666667,357.7793872760983 255.20833333333331,357.05677969209916 242.5,356.2792009583626 229.79166666666666,355.501622224626 217.08333333333334,354.7240434908894 204.375,353.94646475715285 191.66666666666666,353.16888602341623 178.95833333333334,352.3913072896797 166.25,351.6137285559431 153.54166666666669,350.8361498222065 140.83333333333331,350.05857108846993 128.125,351.40491226020737 115.41666666666666,353.7092890101598 102.70833333333333,367.49709724159027 90.0,369.11235662654616" fill="#2563eb" fill-opacity="0.70" stroke="#2563eb" stroke-width="1.2"/>
<polygon points="90.0,192.13826954742743 102.70833333333333,211.06054426535505 115.41666666666666,188.07261920829575 128.125,184.77854316357357 140.83333333333331,188.38069515970392 153.54166666666669,224.52208604535625 166.25,210.77271214876546 178.95833333333334,212.38251261667426 191.66666666666666,206.58865480480313 204.375,214.91263140259628 217.08333333333334,221.64858465126963 229.79166666666666,221.31373377846762 242.5,206.3377352631875 255.20833333333331,207.35933745775006 267.9166666666667,212.83833809754003 280.625,202.6113630241225 293.3333333333333,200.13189106220221 306.0416666666667,199.19809362008618 318.75,205.2991753019604 331.4583333333333,160.90810019834078 344.1666666666667,162.7188283564326 356.875,155.40839265754062 369.5833333333333,147.09748712771136 382.2916666666667,144.0333085357987 395.0,129.1609392537244 407.70833333333337,152.90024545103518 420.41666666666663,156.37302732720582 433.125,139.4622635709091 445.83333333333337,159.4929366981679 458.54166666666663,148.99661158057387 471.25,151.37936981429715 483.95833333333337,158.9655156906888 496.66666666666663,167.80446868265363 509.375,167.28948167624498 522.0833333333334,176.48276049853203 534.7916666666666,189.87909669103087 547.5,203.2765593928655 560.2083333333334,197.05130035277307 572.9166666666666,190.17715567149122 585.625,200.90295189656217 598.3333333333334,210.582347170446 611.0416666666666,204.06011174025596 623.75,202.64991552577132 636.4583333333334,190.37755034362758 649.1666666666666,190.11660087169773 661.875,165.83159580469308 674.5833333333334,162.7020310572217 687.2916666666666,158.7020362793212 700.0,160.28250912272512 712.7083333333333,154.90575495359957 725.4166666666667,161.2923074407302 738.125,166.0073449367827 750.8333333333333,162.6444334037177 763.5416666666667,160.25010158711234 776.25,138.25551649004194 788.9583333333333,119.33507877158848 801.6666666666667,117.86992499571954 814.375,122.31610170098332 827.0833333333333,106.18710817036043 839.7916666666667,105.77577432915291 852.5,109.12362412918611 865.2083333333333,111.32787562369543 877.9166666666667,109.27883144330195 890.625,101.45784084980443 903.3333333333333,111.10264186685458 916.0416666666667,109.43847694379446 928.75,90.0 941.4583333333333,107.97347083579882 954.1666666666667,117.99727943352593 966.875,111.82876167017713 979.5833333333333,130.2223387841426 992.2916666666667,131.56283644106645 1005.0,155.91943453208052 1017.7083333333333,160.92776649975207 1030.4166666666667,166.30354202882742 1043.125,154.71352036467198 1055.8333333333333,162.21393751989206 1068.5416666666667,159.328515109592 1081.25,162.37494425583293 1093.9583333333333,149.35629326420565 1106.6666666666667,154.98800980951358 1119.375,151.40989459617657 1132.0833333333333,161.71477594867343 1144.7916666666667,184.8019134832366 1157.5,198.50155221128358 1170.2083333333333,202.33026162862953 1182.9166666666667,209.77222687931564 1195.625,201.51514886325435 1208.3333333333333,202.77451501709362 1221.0416666666667,187.40561478116732 1233.75,196.42384676246286 1246.4583333333333,203.63917319589703 1259.1666666666667,199.44601223881247 1271.875,187.1007363065405 1284.5833333333333,187.2748927950946 1297.2916666666667,186.16628462676422 1310.0,182.6004001136542 1310.0,258.9710736257613 1297.2916666666667,259.78081100091686 1284.5833333333333,259.0812901862266 1271.875,257.18265891174065 1259.1666666666667,263.9037912419844 1246.4583333333333,265.73880303050015 1233.75,261.9601535228556 1221.0416666666667,256.2411789469388 1208.3333333333333,265.322012969531 1195.625,264.0370424543676 1182.9166666666667,268.1084620744397 1170.2083333333333,264.0726925595984 1157.5,260.9634919617555 1144.7916666666667,254.4589832790354 1132.0833333333333,239.42128689370202 1119.375,232.50339273004857 1106.6666666666667,234.4968179281834 1093.9583333333333,230.8033430645988 1081.25,237.59646101855247 1068.5416666666667,235.40342373131597 1055.8333333333333,236.07170368171677 1043.125,231.7840944580353 1030.4166666666667,239.28758656056547 1017.7083333333333,235.19216204286687 1005.0,233.00429435606765 992.2916666666667,219.8163548272851 979.5833333333333,218.56676991356943 966.875,205.99909578408884 954.1666666666667,208.88614506371903 941.4583333333333,202.32538861549747 928.75,191.6628795950811 916.0416666666667,202.30417659279146 903.3333333333333,202.26274450084173 890.625,194.35839920249637 877.9166666666667,199.13785950481383 865.2083333333333,198.53724437141082 852.5,196.64931118132282 839.7916666666667,197.78590282422024 827.0833333333333,199.71126808143904 814.375,212.5876314560984 801.6666666666667,210.1110161946627 788.9583333333333,210.6880961729188 776.25,231.1059141608058 763.5416666666667,243.76832021396316 750.8333333333333,245.57953473989096 738.125,247.96647191848461 725.4166666666667,244.82679933532935 712.7083333333333,241.6503787898448 700.0,243.19650837050537 687.2916666666666,244.26792732230794 674.5833333333334,246.514562782963 661.875,248.3680239563237 649.1666666666666,266.91559468858713 636.4583333333334,269.591269145869 623.75,279.1161511572245 611.0416666666666,277.58920637206586 598.3333333333334,279.01005560046724 585.625,271.86005587484533 572.9166666666666,265.0114107073348 560.2083333333334,269.7086385243374 547.5,270.8425350579025 534.7916666666666,263.5703773177612 522.0833333333334,254.78675130183177 509.375,249.51215739229391 496.66666666666663,252.37361476674957 483.95833333333337,249.7037960695799 471.25,247.48957940197158 458.54166666666663,244.7958845026243 445.83333333333337,247.76811546616216 433.125,234.57712668318783 420.41666666666663,244.88444896672715 407.70833333333337,243.0626127375715 395.0,229.6727715283318 382.2916666666667,239.89483201191314 369.5833333333333,245.57215978737898 356.875,257.2683478271337 344.1666666666667,261.484413110804 331.4583333333333,257.3834757948565 318.75,278.69486861252676 306.0416666666667,278.11054389769924 293.3333333333333,281.43552211958496 280.625,289.5275874647336 267.9166666666667,305.56035862795073 255.20833333333331,301.38284815068437 242.5,300.02810380342834 229.79166666666666,307.05836889286184 217.08333333333334,305.31098742911263 204.375,301.2307856499092 191.66666666666666,297.8943161346909 178.95833333333334,298.3985976938489 166.25,296.26478185838516 153.54166666666669,301.98417920212523 140.83333333333331,283.6311129037309 128.125,282.90687507337526 115.41666666666666,284.71391436304776 102.70833333333333,308.08937247368146 90.0,301.87920580869616" fill="#f97316" fill-opacity="0.70" stroke="#f97316" stroke-width="1.2"/>
<rect x="1100" y="76" width="16" height="12" fill="#f97316" fill-opacity="0.70" stroke="#f97316"/>
<text x="1124" y="86" font-family="monospace" font-size="12" fill="#0f172a">BTC</text>
<rect x="1100" y="98" width="16" height="12" fill="#2563eb" fill-opacity="0.70" stroke="#2563eb"/>
<text x="1124" y="108" font-family="monospace" font-size="12" fill="#0f172a">ETH</text>
<rect x="1100" y="120" width="16" height="12" fill="#facc15" fill-opacity="0.70" stroke="#facc15"/>
<text x="1124" y="130" font-family="monospace" font-size="12" fill="#0f172a">DAI</text>
<text x="700.0" y="782" text-anchor="middle" font-family="monospace" font-size="16" fill="#0f172a">time</text>
<text x="24" y="255.0" transform="rotate(-90 24,255.0)" text-anchor="middle" font-family="monospace" font-size="16" fill="#0f172a">asset value split (usd)</text>
<line x1="90" y1="605" x2="1310" y2="605" stroke="#334155" stroke-width="2"/>
<line x1="90" y1="480" x2="90" y2="605" stroke="#334155" stroke-width="2"/>
<line x1="90" y1="542.5" x2="1310" y2="542.5" stroke="#64748b" stroke-width="1.5" stroke-dasharray="6 4"/>
<line x1="90" y1="605.0" x2="1310" y2="605.0" stroke="#e2e8f0" stroke-width="1"/>
<text x="78" y="609.0" text-anchor="end" font-family="monospace" font-size="11" fill="#475569">-3646</text>
<line x1="90" y1="542.5" x2="1310" y2="542.5" stroke="#e2e8f0" stroke-width="1"/>
<text x="78" y="546.5" text-anchor="end" font-family="monospace" font-size="11" fill="#475569">0</text>
<line x1="90" y1="480.0" x2="1310" y2="480.0" stroke="#e2e8f0" stroke-width="1"/>
<text x="78" y="484.0" text-anchor="end" font-family="monospace" font-size="11" fill="#475569">3646</text>
<rect x="86.54123711340206" y="542.5" width="6.917525773195877" height="54.65652092969788" fill="#dc2626" opacity="0.85"><title>2024-07-01 | BTC sell 3188.74 usd | reason=mixed_regime</title></rect>
<rect x="99.24957044673539" y="542.5" width="6.917525773195877" height="8.835198017050288" fill="#dc2626" opacity="0.85"><title>2024-07-08 | BTC sell 515.46 usd | reason=both_assets_cheap</title></rect>
<rect x="111.95790378006872" y="542.5" width="6.917525773195877" height="62.5" fill="#dc2626" opacity="0.85"><title>2024-07-15 | BTC sell 3646.34 usd | reason=both_assets_expensive</title></rect>
<rect x="124.66623711340206" y="542.5" width="6.917525773195877" height="11.873291961217546" fill="#dc2626" opacity="0.85"><title>2024-07-22 | BTC sell 692.71 usd | reason=mixed_regime</title></rect>
<rect x="137.3745704467354" y="542.5" width="6.917525773195877" height="7.649625229954495" fill="#dc2626" opacity="0.85"><title>2024-07-29 | BTC sell 446.29 usd | reason=mixed_regime</title></rect>
<rect x="150.08290378006876" y="540.7859543511213" width="6.917525773195877" height="1.7140456488787095" fill="#ea580c" opacity="0.85"><title>2024-08-05 | BTC buy 100.00 usd | reason=both_assets_cheap</title></rect>
<rect x="162.79123711340208" y="540.7859543511213" width="6.917525773195877" height="1.7140456488787095" fill="#ea580c" opacity="0.85"><title>2024-08-12 | BTC buy 100.00 usd | reason=both_assets_cheap</title></rect>
<rect x="175.4995704467354" y="540.7859543511213" width="6.917525773195877" height="1.7140456488787095" fill="#ea580c" opacity="0.85"><title>2024-08-19 | BTC buy 100.00 usd | reason=both_assets_cheap</title></rect>
<rect x="188.2079037800687" y="540.7859543511213" width="6.917525773195877" height="1.7140456488787095" fill="#ea580c" opacity="0.85"><title>2024-08-26 | BTC buy 100.00 usd | reason=both_assets_cheap</title></rect>
<rect x="200.91623711340208" y="540.7859543511213" width="6.917525773195877" height="1.7140456488787095" fill="#ea580c" opacity="0.85"><title>2024-09-02 | BTC buy 100.00 usd | reason=both_assets_cheap</title></rect>
<rect x="213.6245704467354" y="540.7859543511213" width="6.917525773195877" height="1.7140456488787095" fill="#ea580c" opacity="0.85"><title>2024-09-09 | BTC buy 100.00 usd | reason=both_assets_cheap</title></rect>
<rect x="226.3329037800687" y="540.7859543511213" width="6.917525773195877" height="1.7140456488787095" fill="#ea580c" opacity="0.85"><title>2024-09-16 | BTC buy 100.00 usd | reason=both_assets_cheap</title></rect>
<rect x="239.04123711340208" y="540.7859543511213" width="6.917525773195877" height="1.7140456488787095" fill="#ea580c" opacity="0.85"><title>2024-09-23 | BTC buy 100.00 usd | reason=both_assets_cheap</title></rect>
<rect x="251.7495704467354" y="540.7859543511213" width="6.917525773195877" height="1.7140456488787095" fill="#ea580c" opacity="0.85"><title>2024-09-30 | BTC buy 100.00 usd | reason=both_assets_cheap</title></rect>
<rect x="264.45790378006876" y="541.0283042404207" width="6.917525773195877" height="1.5" fill="#ea580c" opacity="0.85"><title>2024-10-07 | BTC buy 85.86 usd | reason=both_assets_cheap</title></rect>
<rect x="277.1662371134021" y="542.5" width="6.917525773195877" height="50.9991333957679" fill="#dc2626" opacity="0.85"><title>2024-10-14 | BTC sell 2975.37 usd | reason=mixed_regime_eth_tilt</title></rect>
<rect x="289.8745704467354" y="542.5" width="6.917525773195877" height="32.17108372145947" fill="#dc2626" opacity="0.85"><title>2024-10-21 | BTC sell 1876.91 usd | reason=mixed_regime_eth_tilt</title></rect>
<rect x="302.58290378006876" y="542.5" width="6.917525773195877" height="24.264873202695753" fill="#dc2626" opacity="0.85"><title>2024-10-28 | BTC sell 1415.65 usd | reason=mixed_regime_eth_tilt</title></rect>
<rect x="315.2912371134021" y="542.5" width="6.917525773195877" height="13.788655842442495" fill="#dc2626" opacity="0.85"><title>2024-11-04 | BTC sell 804.45 usd | reason=mixed_regime_eth_tilt</title></rect>
<rect x="327.9995704467354" y="540.7859543511213" width="6.917525773195877" height="1.7140456488787095" fill="#ea580c" opacity="0.85"><title>2024-11-11 | BTC buy 100.00 usd | reason=mixed_regime</title></rect>
<rect x="340.70790378006876" y="540.7859543511213" width="6.917525773195877" height="1.7140456488787095" fill="#ea580c" opacity="0.85"><title>2024-11-18 | BTC buy 100.00 usd | reason=mixed_regime</title></rect>
<rect x="353.4162371134021" y="540.7859543511213" width="6.917525773195877" height="1.7140456488787095" fill="#ea580c" opacity="0.85"><title>2024-11-25 | BTC buy 100.00 usd | reason=mixed_regime</title></rect>
<rect x="366.1245704467354" y="542.5" width="6.917525773195877" height="28.74854112076582" fill="#dc2626" opacity="0.85"><title>2024-12-02 | BTC sell 1677.23 usd | reason=both_assets_expensive</title></rect>
<rect x="378.83290378006876" y="542.5" width="6.917525773195877" height="18.141249770530635" fill="#dc2626" opacity="0.85"><title>2024-12-09 | BTC sell 1058.39 usd | reason=both_assets_expensive</title></rect>
<rect x="391.5412371134021" y="542.5" width="6.917525773195877" height="17.602770724016295" fill="#dc2626" opacity="0.85"><title>2024-12-16 | BTC sell 1026.97 usd | reason=both_assets_expensive</title></rect>
<rect x="404.24957044673545" y="540.7859543511213" width="6.917525773195877" height="1.7140456488787095" fill="#ea580c" opacity="0.85"><title>2024-12-23 | BTC buy 100.00 usd | reason=mixed_regime</title></rect>
<rect x="416.9579037800687" y="540.7859543511213" width="6.917525773195877" height="1.7140456488787095" fill="#ea580c" opacity="0.85"><title>2024-12-30 | BTC buy 100.00 usd | reason=mixed_regime</title></rect>
<rect x="429.6662371134021" y="542.5" width="6.917525773195877" height="11.58040785616356" fill="#dc2626" opacity="0.85"><title>2025-01-06 | BTC sell 675.62 usd | reason=both_assets_expensive</title></rect>
<rect x="442.37457044673545" y="540.7859543511213" width="6.917525773195877" height="1.7140456488787095" fill="#ea580c" opacity="0.85"><title>2025-01-13 | BTC buy 100.00 usd | reason=mixed_regime</title></rect>
<rect x="455.0829037800687" y="540.7859543511213" width="6.917525773195877" height="1.7140456488787095" fill="#ea580c" opacity="0.85"><title>2025-01-20 | BTC buy 100.00 usd | reason=mixed_regime</title></rect>
<rect x="467.7912371134021" y="540.7859543511213" width="6.917525773195877" height="1.7140456488787095" fill="#ea580c" opacity="0.85"><title>2025-01-27 | BTC buy 100.00 usd | reason=mixed_regime</title></rect>
<rect x="480.49957044673545" y="542.5" width="6.917525773195877" height="21.182931206216722" fill="#dc2626" opacity="0.85"><title>2025-02-03 | BTC sell 1235.84 usd | reason=mixed_regime_eth_tilt</title></rect>
<rect x="493.2079037800687" y="542.5" width="6.917525773195877" height="11.364316072476527" fill="#dc2626" opacity="0.85"><title>2025-02-10 | BTC sell 663.01 usd | reason=mixed_regime_eth_tilt</title></rect>
<rect x="505.9162371134021" y="542.5" width="6.917525773195877" height="3.983413048187913" fill="#dc2626" opacity="0.85"><title>2025-02-17 | BTC sell 232.40 usd | reason=mixed_regime_eth_tilt</title></rect>
<rect x="518.6245704467354" y="542.5" width="6.917525773195877" height="1.5" fill="#dc2626" opacity="0.85"><title>2025-02-24 | BTC sell 64.90 usd | reason=mixed_regime_eth_tilt</title></rect>
<rect x="531.3329037800687" y="542.5" width="6.917525773195877" height="1.5" fill="#dc2626" opacity="0.85"><title>2025-03-03 | BTC sell 9.02 usd | reason=mixed_regime_eth_tilt</title></rect>
<rect x="544.0412371134021" y="540.7859543511213" width="6.917525773195877" height="1.7140456488787095" fill="#ea580c" opacity="0.85"><title>2025-03-10 | BTC buy 100.00 usd | reason=both_assets_cheap</title></rect>
<rect x="556.7495704467354" y="540.7859543511213" width="6.917525773195877" height="1.7140456488787095" fill="#ea580c" opacity="0.85"><title>2025-03-17 | BTC buy 100.00 usd | reason=both_assets_cheap</title></rect>
<rect x="569.4579037800687" y="542.5" width="6.917525773195877" height="3.7942368334194043" fill="#dc2626" opacity="0.85"><title>2025-03-24 | BTC sell 221.36 usd | reason=mixed_regime_eth_tilt</title></rect>
<rect x="582.1662371134021" y="540.7859543511213" width="6.917525773195877" height="1.7140456488787095" fill="#ea580c" opacity="0.85"><title>2025-03-31 | BTC buy 100.00 usd | reason=both_assets_cheap</title></rect>
<rect x="594.8745704467354" y="540.7859543511213" width="6.917525773195877" height="1.7140456488787095" fill="#ea580c" opacity="0.85"><title>2025-04-07 | BTC buy 100.00 usd | reason=both_assets_cheap</title></rect>
<rect x="607.5829037800687" y="540.7859543511213" width="6.917525773195877" height="1.7140456488787095" fill="#ea580c" opacity="0.85"><title>2025-04-14 | BTC buy 100.00 usd | reason=both_assets_cheap</title></rect>
<rect x="620.2912371134021" y="540.7859543511213" width="6.917525773195877" height="1.7140456488787095" fill="#ea580c" opacity="0.85"><title>2025-04-21 | BTC buy 100.00 usd | reason=both_assets_cheap</title></rect>
<rect x="632.9995704467354" y="542.5" width="6.917525773195877" height="16.85446405728294" fill="#dc2626" opacity="0.85"><title>2025-04-28 | BTC sell 983.31 usd | reason=mixed_regime_eth_tilt</title></rect>
<rect x="645.7079037800687" y="542.5" width="6.917525773195877" height="9.511879447191404" fill="#dc2626" opacity="0.85"><title>2025-05-05 | BTC sell 554.94 usd | reason=mixed_regime_eth_tilt</title></rect>
<rect x="658.4162371134021" y="542.5" width="6.917525773195877" height="3.5344012106164655" fill="#dc2626" opacity="0.85"><title>2025-05-12 | BTC sell 206.20 usd | reason=mixed_regime_eth_tilt</title></rect>
<rect x="671.1245704467354" y="542.5" width="6.917525773195877" height="4.341608455442383" fill="#dc2626" opacity="0.85"><title>2025-05-19 | BTC sell 253.30 usd | reason=mixed_regime_eth_tilt</title></rect>
<rect x="683.8329037800687" y="542.5" width="6.917525773195877" height="5.732871371417787" fill="#dc2626" opacity="0.85"><title>2025-05-26 | BTC sell 334.46 usd | reason=mixed_regime_eth_tilt</title></rect>
<rect x="696.5412371134021" y="541.925115254232" width="6.917525773195877" height="1.5" fill="#ea580c" opacity="0.85"><title>2025-06-02 | BTC buy 33.54 usd | reason=mixed_regime_eth_tilt</title></rect>
<rect x="709.2495704467353" y="540.7859543511213" width="6.917525773195877" height="1.7140456488787095" fill="#ea580c" opacity="0.85"><title>2025-06-09 | BTC buy 100.00 usd | reason=mixed_regime</title></rect>
<rect x="721.9579037800688" y="542.5" width="6.917525773195877" height="2.1985478486817556" fill="#dc2626" opacity="0.85"><title>2025-06-16 | BTC sell 128.27 usd | reason=mixed_regime_eth_tilt</title></rect>
<rect x="734.6662371134021" y="542.5" width="6.917525773195877" height="2.0029411051884836" fill="#dc2626" opacity="0.85"><title>2025-06-23 | BTC sell 116.85 usd | reason=mixed_regime_eth_tilt</title></rect>
<rect x="747.3745704467353" y="542.5" width="6.917525773195877" height="1.708567063112696" fill="#dc2626" opacity="0.85"><title>2025-06-30 | BTC sell 99.68 usd | reason=mixed_regime_eth_tilt</title></rect>
<rect x="760.0829037800688" y="542.5" width="6.917525773195877" height="1.5" fill="#dc2626" opacity="0.85"><title>2025-07-07 | BTC sell 68.29 usd | reason=mixed_regime_eth_tilt</title></rect>
<rect x="772.7912371134021" y="540.7859543511213" width="6.917525773195877" height="1.7140456488787095" fill="#ea580c" opacity="0.85"><title>2025-07-14 | BTC buy 100.00 usd | reason=mixed_regime</title></rect>
<rect x="785.4995704467353" y="540.7859543511213" width="6.917525773195877" height="1.7140456488787095" fill="#ea580c" opacity="0.85"><title>2025-07-21 | BTC buy 100.00 usd | reason=both_assets_expensive</title></rect>
<rect x="798.2079037800688" y="540.7859543511213" width="6.917525773195877" height="1.7140456488787095" fill="#ea580c" opacity="0.85"><title>2025-07-28 | BTC buy 100.00 usd | reason=both_assets_expensive</title></rect>
<rect x="810.9162371134021" y="540.7859543511213" width="6.917525773195877" height="1.7140456488787095" fill="#ea580c" opacity="0.85"><title>2025-08-04 | BTC buy 100.00 usd | reason=both_assets_expensive</title></rect>
<rect x="823.6245704467353" y="540.7859543511213" width="6.917525773195877" height="1.7140456488787095" fill="#ea580c" opacity="0.85"><title>2025-08-11 | BTC buy 100.00 usd | reason=both_assets_expensive</title></rect>
<rect x="836.3329037800688" y="540.7859543511213" width="6.917525773195877" height="1.7140456488787095" fill="#ea580c" opacity="0.85"><title>2025-08-18 | BTC buy 100.00 usd | reason=both_assets_expensive</title></rect>
<rect x="849.0412371134021" y="540.7859543511213" width="6.917525773195877" height="1.7140456488787095" fill="#ea580c" opacity="0.85"><title>2025-08-25 | BTC buy 100.00 usd | reason=both_assets_expensive</title></rect>
<rect x="861.7495704467353" y="540.7859543511213" width="6.917525773195877" height="1.7140456488787095" fill="#ea580c" opacity="0.85"><title>2025-09-01 | BTC buy 100.00 usd | reason=both_assets_expensive</title></rect>
<rect x="874.4579037800688" y="540.7859543511213" width="6.917525773195877" height="1.7140456488787095" fill="#ea580c" opacity="0.85"><title>2025-09-08 | BTC buy 100.00 usd | reason=both_assets_expensive</title></rect>
<rect x="887.1662371134021" y="540.7859543511213" width="6.917525773195877" height="1.7140456488787095" fill="#ea580c" opacity="0.85"><title>2025-09-15 | BTC buy 100.00 usd | reason=both_assets_expensive</title></rect>
<rect x="899.8745704467353" y="540.7859543511213" width="6.917525773195877" height="1.7140456488787095" fill="#ea580c" opacity="0.85"><title>2025-09-22 | BTC buy 100.00 usd | reason=both_assets_expensive</title></rect>
<rect x="912.5829037800688" y="540.7859543511213" width="6.917525773195877" height="1.7140456488787095" fill="#ea580c" opacity="0.85"><title>2025-09-29 | BTC buy 100.00 usd | reason=both_assets_expensive</title></rect>
<rect x="925.2912371134021" y="540.7859543511213" width="6.917525773195877" height="1.7140456488787095" fill="#ea580c" opacity="0.85"><title>2025-10-06 | BTC buy 100.00 usd | reason=both_assets_expensive</title></rect>
<rect x="937.9995704467353" y="540.7859543511213" width="6.917525773195877" height="1.7140456488787095" fill="#ea580c" opacity="0.85"><title>2025-10-13 | BTC buy 100.00 usd | reason=both_assets_expensive</title></rect>
<rect x="950.7079037800688" y="540.7859543511213" width="6.917525773195877" height="1.7140456488787095" fill="#ea580c" opacity="0.85"><title>2025-10-20 | BTC buy 100.00 usd | reason=mixed_regime</title></rect>
<rect x="963.4162371134021" y="540.7859543511213" width="6.917525773195877" height="1.7140456488787095" fill="#ea580c" opacity="0.85"><title>2025-10-27 | BTC buy 100.00 usd | reason=both_assets_expensive</title></rect>
<rect x="976.1245704467353" y="540.7859543511213" width="6.917525773195877" height="1.7140456488787095" fill="#ea580c" opacity="0.85"><title>2025-11-03 | BTC buy 100.00 usd | reason=mixed_regime_btc_tilt</title></rect>
<rect x="988.8329037800688" y="540.7859543511213" width="6.917525773195877" height="1.7140456488787095" fill="#ea580c" opacity="0.85"><title>2025-11-10 | BTC buy 100.00 usd | reason=mixed_regime_btc_tilt</title></rect>
<rect x="1001.5412371134021" y="540.7859543511213" width="6.917525773195877" height="1.7140456488787095" fill="#ea580c" opacity="0.85"><title>2025-11-17 | BTC buy 100.00 usd | reason=both_assets_cheap</title></rect>
<rect x="1014.2495704467353" y="540.7859543511213" width="6.917525773195877" height="1.7140456488787095" fill="#ea580c" opacity="0.85"><title>2025-11-24 | BTC buy 100.00 usd | reason=both_assets_cheap</title></rect>
<rect x="1026.9579037800688" y="540.7859543511213" width="6.917525773195877" height="1.7140456488787095" fill="#ea580c" opacity="0.85"><title>2025-12-01 | BTC buy 100.00 usd | reason=both_assets_cheap</title></rect>
<rect x="1039.666237113402" y="540.7859543511213" width="6.917525773195877" height="1.7140456488787095" fill="#ea580c" opacity="0.85"><title>2025-12-08 | BTC buy 100.00 usd | reason=both_assets_cheap</title></rect>
<rect x="1052.3745704467353" y="540.7859543511213" width="6.917525773195877" height="1.7140456488787095" fill="#ea580c" opacity="0.85"><title>2025-12-15 | BTC buy 100.00 usd | reason=both_assets_cheap</title></rect>
<rect x="1065.0829037800688" y="540.7859543511213" width="6.917525773195877" height="1.7140456488787095" fill="#ea580c" opacity="0.85"><title>2025-12-22 | BTC buy 100.00 usd | reason=both_assets_cheap</title></rect>
<rect x="1077.791237113402" y="540.7859543511213" width="6.917525773195877" height="1.7140456488787095" fill="#ea580c" opacity="0.85"><title>2025-12-29 | BTC buy 100.00 usd | reason=both_assets_cheap</title></rect>
<rect x="1090.4995704467353" y="540.7859543511213" width="6.917525773195877" height="1.7140456488787095" fill="#ea580c" opacity="0.85"><title>2026-01-05 | BTC buy 100.00 usd | reason=both_assets_cheap</title></rect>
<rect x="1103.2079037800688" y="540.7859543511213" width="6.917525773195877" height="1.7140456488787095" fill="#ea580c" opacity="0.85"><title>2026-01-12 | BTC buy 100.00 usd | reason=both_assets_cheap</title></rect>
<rect x="1115.916237113402" y="540.7859543511213" width="6.917525773195877" height="1.7140456488787095" fill="#ea580c" opacity="0.85"><title>2026-01-19 | BTC buy 100.00 usd | reason=both_assets_cheap</title></rect>
<rect x="1128.6245704467353" y="540.7859543511213" width="6.917525773195877" height="1.7140456488787095" fill="#ea580c" opacity="0.85"><title>2026-01-26 | BTC buy 100.00 usd | reason=both_assets_cheap</title></rect>
<rect x="1141.3329037800688" y="540.7859543511213" width="6.917525773195877" height="1.7140456488787095" fill="#ea580c" opacity="0.85"><title>2026-02-02 | BTC buy 100.00 usd | reason=both_assets_cheap</title></rect>
<rect x="1154.041237113402" y="540.7859543511213" width="6.917525773195877" height="1.7140456488787095" fill="#ea580c" opacity="0.85"><title>2026-02-09 | BTC buy 100.00 usd | reason=both_assets_cheap</title></rect>
<rect x="1166.7495704467353" y="540.7859543511213" width="6.917525773195877" height="1.7140456488787095" fill="#ea580c" opacity="0.85"><title>2026-02-16 | BTC buy 100.00 usd | reason=both_assets_cheap</title></rect>
<rect x="1179.4579037800688" y="540.7859543511213" width="6.917525773195877" height="1.7140456488787095" fill="#ea580c" opacity="0.85"><title>2026-02-23 | BTC buy 100.00 usd | reason=both_assets_cheap</title></rect>
<rect x="1192.166237113402" y="540.7859543511213" width="6.917525773195877" height="1.7140456488787095" fill="#ea580c" opacity="0.85"><title>2026-03-02 | BTC buy 100.00 usd | reason=both_assets_cheap</title></rect>
<rect x="1204.8745704467353" y="540.7859543511213" width="6.917525773195877" height="1.7140456488787095" fill="#ea580c" opacity="0.85"><title>2026-03-09 | BTC buy 100.00 usd | reason=both_assets_cheap</title></rect>
<rect x="1217.5829037800688" y="540.7859543511213" width="6.917525773195877" height="1.7140456488787095" fill="#ea580c" opacity="0.85"><title>2026-03-16 | BTC buy 100.00 usd | reason=both_assets_cheap</title></rect>
<rect x="1230.291237113402" y="540.7859543511213" width="6.917525773195877" height="1.7140456488787095" fill="#ea580c" opacity="0.85"><title>2026-03-23 | BTC buy 100.00 usd | reason=both_assets_cheap</title></rect>
<rect x="1242.9995704467353" y="540.7859543511213" width="6.917525773195877" height="1.7140456488787095" fill="#ea580c" opacity="0.85"><title>2026-03-30 | BTC buy 100.00 usd | reason=both_assets_cheap</title></rect>
<rect x="1255.7079037800688" y="540.7859543511213" width="6.917525773195877" height="1.7140456488787095" fill="#ea580c" opacity="0.85"><title>2026-04-06 | BTC buy 100.00 usd | reason=both_assets_cheap</title></rect>
<rect x="1268.416237113402" y="540.7859543511213" width="6.917525773195877" height="1.7140456488787095" fill="#ea580c" opacity="0.85"><title>2026-04-13 | BTC buy 100.00 usd | reason=both_assets_cheap</title></rect>
<rect x="1281.1245704467353" y="540.7859543511213" width="6.917525773195877" height="1.7140456488787095" fill="#ea580c" opacity="0.85"><title>2026-04-20 | BTC buy 100.00 usd | reason=both_assets_cheap</title></rect>
<rect x="1293.8329037800688" y="540.7859543511213" width="6.917525773195877" height="1.7140456488787095" fill="#ea580c" opacity="0.85"><title>2026-04-27 | BTC buy 100.00 usd | reason=both_assets_cheap</title></rect>
<rect x="1306.541237113402" y="540.7859543511213" width="6.917525773195877" height="1.7140456488787095" fill="#ea580c" opacity="0.85"><title>2026-05-04 | BTC buy 100.00 usd | reason=both_assets_cheap</title></rect>
<text x="24" y="542.5" transform="rotate(-90 24,542.5)" text-anchor="middle" font-family="monospace" font-size="14" fill="#0f172a">BTC weekly trade usd</text>
<line x1="90" y1="770" x2="1310" y2="770" stroke="#334155" stroke-width="2"/>
<line x1="90" y1="645" x2="90" y2="770" stroke="#334155" stroke-width="2"/>
<line x1="90" y1="707.5" x2="1310" y2="707.5" stroke="#64748b" stroke-width="1.5" stroke-dasharray="6 4"/>
<line x1="90" y1="770.0" x2="1310" y2="770.0" stroke="#e2e8f0" stroke-width="1"/>
<text x="78" y="774.0" text-anchor="end" font-family="monospace" font-size="11" fill="#475569">-955</text>
<line x1="90" y1="707.5" x2="1310" y2="707.5" stroke="#e2e8f0" stroke-width="1"/>
<text x="78" y="711.5" text-anchor="end" font-family="monospace" font-size="11" fill="#475569">0</text>
<line x1="90" y1="645.0" x2="1310" y2="645.0" stroke="#e2e8f0" stroke-width="1"/>
<text x="78" y="649.0" text-anchor="end" font-family="monospace" font-size="11" fill="#475569">955</text>
<rect x="86.54123711340206" y="700.9567770287185" width="6.917525773195877" height="6.543222971281466" fill="#2563eb" opacity="0.85"><title>2024-07-01 | ETH buy 100.00 usd | reason=mixed_regime</title></rect>
<rect x="99.24957044673539" y="700.9567770287185" width="6.917525773195877" height="6.543222971281466" fill="#2563eb" opacity="0.85"><title>2024-07-08 | ETH buy 100.00 usd | reason=both_assets_cheap</title></rect>
<rect x="111.95790378006872" y="700.9567770287185" width="6.917525773195877" height="6.543222971281466" fill="#2563eb" opacity="0.85"><title>2024-07-15 | ETH buy 100.00 usd | reason=both_assets_expensive</title></rect>
<rect x="124.66623711340206" y="700.9567770287185" width="6.917525773195877" height="6.543222971281466" fill="#2563eb" opacity="0.85"><title>2024-07-22 | ETH buy 100.00 usd | reason=mixed_regime</title></rect>
<rect x="137.3745704467354" y="700.9567770287185" width="6.917525773195877" height="6.543222971281466" fill="#2563eb" opacity="0.85"><title>2024-07-29 | ETH buy 100.00 usd | reason=mixed_regime</title></rect>
<rect x="150.08290378006876" y="700.9567770287185" width="6.917525773195877" height="6.543222971281466" fill="#2563eb" opacity="0.85"><title>2024-08-05 | ETH buy 100.00 usd | reason=both_assets_cheap</title></rect>
<rect x="162.79123711340208" y="700.9567770287185" width="6.917525773195877" height="6.543222971281466" fill="#2563eb" opacity="0.85"><title>2024-08-12 | ETH buy 100.00 usd | reason=both_assets_cheap</title></rect>
<rect x="175.4995704467354" y="700.9567770287185" width="6.917525773195877" height="6.543222971281466" fill="#2563eb" opacity="0.85"><title>2024-08-19 | ETH buy 100.00 usd | reason=both_assets_cheap</title></rect>
<rect x="188.2079037800687" y="700.9567770287185" width="6.917525773195877" height="6.543222971281466" fill="#2563eb" opacity="0.85"><title>2024-08-26 | ETH buy 100.00 usd | reason=both_assets_cheap</title></rect>
<rect x="200.91623711340208" y="700.9567770287185" width="6.917525773195877" height="6.543222971281466" fill="#2563eb" opacity="0.85"><title>2024-09-02 | ETH buy 100.00 usd | reason=both_assets_cheap</title></rect>
<rect x="213.6245704467354" y="700.9567770287185" width="6.917525773195877" height="6.543222971281466" fill="#2563eb" opacity="0.85"><title>2024-09-09 | ETH buy 100.00 usd | reason=both_assets_cheap</title></rect>
<rect x="226.3329037800687" y="700.9567770287185" width="6.917525773195877" height="6.543222971281466" fill="#2563eb" opacity="0.85"><title>2024-09-16 | ETH buy 100.00 usd | reason=both_assets_cheap</title></rect>
<rect x="239.04123711340208" y="700.9567770287185" width="6.917525773195877" height="6.543222971281466" fill="#2563eb" opacity="0.85"><title>2024-09-23 | ETH buy 100.00 usd | reason=both_assets_cheap</title></rect>
<rect x="251.7495704467354" y="700.9567770287185" width="6.917525773195877" height="6.543222971281466" fill="#2563eb" opacity="0.85"><title>2024-09-30 | ETH buy 100.00 usd | reason=both_assets_cheap</title></rect>
<rect x="264.45790378006876" y="700.9567770287185" width="6.917525773195877" height="6.543222971281466" fill="#2563eb" opacity="0.85"><title>2024-10-07 | ETH buy 100.00 usd | reason=both_assets_cheap</title></rect>
<rect x="277.1662371134021" y="700.9567770287185" width="6.917525773195877" height="6.543222971281466" fill="#2563eb" opacity="0.85"><title>2024-10-14 | ETH buy 100.00 usd | reason=mixed_regime_eth_tilt</title></rect>
<rect x="289.8745704467354" y="700.9567770287185" width="6.917525773195877" height="6.543222971281466" fill="#2563eb" opacity="0.85"><title>2024-10-21 | ETH buy 100.00 usd | reason=mixed_regime_eth_tilt</title></rect>
<rect x="302.58290378006876" y="700.9567770287185" width="6.917525773195877" height="6.543222971281466" fill="#2563eb" opacity="0.85"><title>2024-10-28 | ETH buy 100.00 usd | reason=mixed_regime_eth_tilt</title></rect>
<rect x="315.2912371134021" y="700.9567770287185" width="6.917525773195877" height="6.543222971281466" fill="#2563eb" opacity="0.85"><title>2024-11-04 | ETH buy 100.00 usd | reason=mixed_regime_eth_tilt</title></rect>
<rect x="327.9995704467354" y="700.9567770287185" width="6.917525773195877" height="6.543222971281466" fill="#2563eb" opacity="0.85"><title>2024-11-11 | ETH buy 100.00 usd | reason=mixed_regime</title></rect>
<rect x="340.70790378006876" y="700.9567770287185" width="6.917525773195877" height="6.543222971281466" fill="#2563eb" opacity="0.85"><title>2024-11-18 | ETH buy 100.00 usd | reason=mixed_regime</title></rect>
<rect x="353.4162371134021" y="700.9567770287185" width="6.917525773195877" height="6.543222971281466" fill="#2563eb" opacity="0.85"><title>2024-11-25 | ETH buy 100.00 usd | reason=mixed_regime</title></rect>
<rect x="366.1245704467354" y="700.9567770287185" width="6.917525773195877" height="6.543222971281466" fill="#2563eb" opacity="0.85"><title>2024-12-02 | ETH buy 100.00 usd | reason=both_assets_expensive</title></rect>
<rect x="378.83290378006876" y="700.9567770287185" width="6.917525773195877" height="6.543222971281466" fill="#2563eb" opacity="0.85"><title>2024-12-09 | ETH buy 100.00 usd | reason=both_assets_expensive</title></rect>
<rect x="391.5412371134021" y="700.9567770287185" width="6.917525773195877" height="6.543222971281466" fill="#2563eb" opacity="0.85"><title>2024-12-16 | ETH buy 100.00 usd | reason=both_assets_expensive</title></rect>
<rect x="404.24957044673545" y="700.9567770287185" width="6.917525773195877" height="6.543222971281466" fill="#2563eb" opacity="0.85"><title>2024-12-23 | ETH buy 100.00 usd | reason=mixed_regime</title></rect>
<rect x="416.9579037800687" y="700.9567770287185" width="6.917525773195877" height="6.543222971281466" fill="#2563eb" opacity="0.85"><title>2024-12-30 | ETH buy 100.00 usd | reason=mixed_regime</title></rect>
<rect x="429.6662371134021" y="700.9567770287185" width="6.917525773195877" height="6.543222971281466" fill="#2563eb" opacity="0.85"><title>2025-01-06 | ETH buy 100.00 usd | reason=both_assets_expensive</title></rect>
<rect x="442.37457044673545" y="700.9567770287185" width="6.917525773195877" height="6.543222971281466" fill="#2563eb" opacity="0.85"><title>2025-01-13 | ETH buy 100.00 usd | reason=mixed_regime</title></rect>
<rect x="455.0829037800687" y="700.9567770287185" width="6.917525773195877" height="6.543222971281466" fill="#2563eb" opacity="0.85"><title>2025-01-20 | ETH buy 100.00 usd | reason=mixed_regime</title></rect>
<rect x="467.7912371134021" y="700.9567770287185" width="6.917525773195877" height="6.543222971281466" fill="#2563eb" opacity="0.85"><title>2025-01-27 | ETH buy 100.00 usd | reason=mixed_regime</title></rect>
<rect x="480.49957044673545" y="700.9567770287185" width="6.917525773195877" height="6.543222971281466" fill="#2563eb" opacity="0.85"><title>2025-02-03 | ETH buy 100.00 usd | reason=mixed_regime_eth_tilt</title></rect>
<rect x="493.2079037800687" y="700.9567770287185" width="6.917525773195877" height="6.543222971281466" fill="#2563eb" opacity="0.85"><title>2025-02-10 | ETH buy 100.00 usd | reason=mixed_regime_eth_tilt</title></rect>
<rect x="505.9162371134021" y="700.9567770287185" width="6.917525773195877" height="6.543222971281466" fill="#2563eb" opacity="0.85"><title>2025-02-17 | ETH buy 100.00 usd | reason=mixed_regime_eth_tilt</title></rect>
<rect x="518.6245704467354" y="700.9567770287185" width="6.917525773195877" height="6.543222971281466" fill="#2563eb" opacity="0.85"><title>2025-02-24 | ETH buy 100.00 usd | reason=mixed_regime_eth_tilt</title></rect>
<rect x="531.3329037800687" y="700.9567770287185" width="6.917525773195877" height="6.543222971281466" fill="#2563eb" opacity="0.85"><title>2025-03-03 | ETH buy 100.00 usd | reason=mixed_regime_eth_tilt</title></rect>
<rect x="544.0412371134021" y="700.9567770287185" width="6.917525773195877" height="6.543222971281466" fill="#2563eb" opacity="0.85"><title>2025-03-10 | ETH buy 100.00 usd | reason=both_assets_cheap</title></rect>
<rect x="556.7495704467354" y="700.9567770287185" width="6.917525773195877" height="6.543222971281466" fill="#2563eb" opacity="0.85"><title>2025-03-17 | ETH buy 100.00 usd | reason=both_assets_cheap</title></rect>
<rect x="569.4579037800687" y="700.9567770287185" width="6.917525773195877" height="6.543222971281466" fill="#2563eb" opacity="0.85"><title>2025-03-24 | ETH buy 100.00 usd | reason=mixed_regime_eth_tilt</title></rect>
<rect x="582.1662371134021" y="700.9567770287185" width="6.917525773195877" height="6.543222971281466" fill="#2563eb" opacity="0.85"><title>2025-03-31 | ETH buy 100.00 usd | reason=both_assets_cheap</title></rect>
<rect x="594.8745704467354" y="700.9567770287185" width="6.917525773195877" height="6.543222971281466" fill="#2563eb" opacity="0.85"><title>2025-04-07 | ETH buy 100.00 usd | reason=both_assets_cheap</title></rect>
<rect x="607.5829037800687" y="700.9567770287185" width="6.917525773195877" height="6.543222971281466" fill="#2563eb" opacity="0.85"><title>2025-04-14 | ETH buy 100.00 usd | reason=both_assets_cheap</title></rect>
<rect x="620.2912371134021" y="700.9567770287185" width="6.917525773195877" height="6.543222971281466" fill="#2563eb" opacity="0.85"><title>2025-04-21 | ETH buy 100.00 usd | reason=both_assets_cheap</title></rect>
<rect x="632.9995704467354" y="700.9567770287185" width="6.917525773195877" height="6.543222971281466" fill="#2563eb" opacity="0.85"><title>2025-04-28 | ETH buy 100.00 usd | reason=mixed_regime_eth_tilt</title></rect>
<rect x="645.7079037800687" y="700.9567770287185" width="6.917525773195877" height="6.543222971281466" fill="#2563eb" opacity="0.85"><title>2025-05-05 | ETH buy 100.00 usd | reason=mixed_regime_eth_tilt</title></rect>
<rect x="658.4162371134021" y="700.9567770287185" width="6.917525773195877" height="6.543222971281466" fill="#2563eb" opacity="0.85"><title>2025-05-12 | ETH buy 100.00 usd | reason=mixed_regime_eth_tilt</title></rect>
<rect x="671.1245704467354" y="700.9567770287185" width="6.917525773195877" height="6.543222971281466" fill="#2563eb" opacity="0.85"><title>2025-05-19 | ETH buy 100.00 usd | reason=mixed_regime_eth_tilt</title></rect>
<rect x="683.8329037800687" y="700.9567770287185" width="6.917525773195877" height="6.543222971281466" fill="#2563eb" opacity="0.85"><title>2025-05-26 | ETH buy 100.00 usd | reason=mixed_regime_eth_tilt</title></rect>
<rect x="696.5412371134021" y="700.9567770287185" width="6.917525773195877" height="6.543222971281466" fill="#2563eb" opacity="0.85"><title>2025-06-02 | ETH buy 100.00 usd | reason=mixed_regime_eth_tilt</title></rect>
<rect x="709.2495704467353" y="700.9567770287185" width="6.917525773195877" height="6.543222971281466" fill="#2563eb" opacity="0.85"><title>2025-06-09 | ETH buy 100.00 usd | reason=mixed_regime</title></rect>
<rect x="721.9579037800688" y="700.9567770287185" width="6.917525773195877" height="6.543222971281466" fill="#2563eb" opacity="0.85"><title>2025-06-16 | ETH buy 100.00 usd | reason=mixed_regime_eth_tilt</title></rect>
<rect x="734.6662371134021" y="700.9567770287185" width="6.917525773195877" height="6.543222971281466" fill="#2563eb" opacity="0.85"><title>2025-06-23 | ETH buy 100.00 usd | reason=mixed_regime_eth_tilt</title></rect>
<rect x="747.3745704467353" y="700.9567770287185" width="6.917525773195877" height="6.543222971281466" fill="#2563eb" opacity="0.85"><title>2025-06-30 | ETH buy 100.00 usd | reason=mixed_regime_eth_tilt</title></rect>
<rect x="760.0829037800688" y="700.9567770287185" width="6.917525773195877" height="6.543222971281466" fill="#2563eb" opacity="0.85"><title>2025-07-07 | ETH buy 100.00 usd | reason=mixed_regime_eth_tilt</title></rect>
<rect x="772.7912371134021" y="700.9567770287185" width="6.917525773195877" height="6.543222971281466" fill="#2563eb" opacity="0.85"><title>2025-07-14 | ETH buy 100.00 usd | reason=mixed_regime</title></rect>
<rect x="785.4995704467353" y="707.5" width="6.917525773195877" height="45.824655185940856" fill="#7c3aed" opacity="0.85"><title>2025-07-21 | ETH sell 700.34 usd | reason=both_assets_expensive</title></rect>
<rect x="798.2079037800688" y="707.5" width="6.917525773195877" height="30.79136417079735" fill="#7c3aed" opacity="0.85"><title>2025-07-28 | ETH sell 470.58 usd | reason=both_assets_expensive</title></rect>
<rect x="810.9162371134021" y="707.5" width="6.917525773195877" height="14.147432100153537" fill="#7c3aed" opacity="0.85"><title>2025-08-04 | ETH sell 216.22 usd | reason=both_assets_expensive</title></rect>
<rect x="823.6245704467353" y="707.5" width="6.917525773195877" height="62.5" fill="#7c3aed" opacity="0.85"><title>2025-08-11 | ETH sell 955.19 usd | reason=both_assets_expensive</title></rect>
<rect x="836.3329037800688" y="707.5" width="6.917525773195877" height="52.17870263303223" fill="#7c3aed" opacity="0.85"><title>2025-08-18 | ETH sell 797.45 usd | reason=both_assets_expensive</title></rect>
<rect x="849.0412371134021" y="707.5" width="6.917525773195877" height="48.900572661914225" fill="#7c3aed" opacity="0.85"><title>2025-08-25 | ETH sell 747.35 usd | reason=both_assets_expensive</title></rect>
<rect x="861.7495704467353" y="707.5" width="6.917525773195877" height="24.07087142689693" fill="#7c3aed" opacity="0.85"><title>2025-09-01 | ETH sell 367.87 usd | reason=both_assets_expensive</title></rect>
<rect x="874.4579037800688" y="707.5" width="6.917525773195877" height="8.533500213243087" fill="#7c3aed" opacity="0.85"><title>2025-09-08 | ETH sell 130.42 usd | reason=both_assets_expensive</title></rect>
<rect x="887.1662371134021" y="707.5" width="6.917525773195877" height="22.800935763507596" fill="#7c3aed" opacity="0.85"><title>2025-09-15 | ETH sell 348.47 usd | reason=both_assets_expensive</title></rect>
<rect x="899.8745704467353" y="700.9567770287185" width="6.917525773195877" height="6.543222971281466" fill="#2563eb" opacity="0.85"><title>2025-09-22 | ETH buy 100.00 usd | reason=both_assets_expensive</title></rect>
<rect x="912.5829037800688" y="700.9567770287185" width="6.917525773195877" height="6.543222971281466" fill="#2563eb" opacity="0.85"><title>2025-09-29 | ETH buy 100.00 usd | reason=both_assets_expensive</title></rect>
<rect x="925.2912371134021" y="707.5" width="6.917525773195877" height="19.844743388584448" fill="#7c3aed" opacity="0.85"><title>2025-10-06 | ETH sell 303.29 usd | reason=both_assets_expensive</title></rect>
<rect x="937.9995704467353" y="700.9567770287185" width="6.917525773195877" height="6.543222971281466" fill="#2563eb" opacity="0.85"><title>2025-10-13 | ETH buy 100.00 usd | reason=both_assets_expensive</title></rect>
<rect x="950.7079037800688" y="700.9567770287185" width="6.917525773195877" height="6.543222971281466" fill="#2563eb" opacity="0.85"><title>2025-10-20 | ETH buy 100.00 usd | reason=mixed_regime</title></rect>
<rect x="963.4162371134021" y="700.9567770287185" width="6.917525773195877" height="6.543222971281466" fill="#2563eb" opacity="0.85"><title>2025-10-27 | ETH buy 100.00 usd | reason=both_assets_expensive</title></rect>
<rect x="976.1245704467353" y="700.9567770287185" width="6.917525773195877" height="6.543222971281466" fill="#2563eb" opacity="0.85"><title>2025-11-03 | ETH buy 100.00 usd | reason=mixed_regime_btc_tilt</title></rect>
<rect x="988.8329037800688" y="700.9567770287185" width="6.917525773195877" height="6.543222971281466" fill="#2563eb" opacity="0.85"><title>2025-11-10 | ETH buy 100.00 usd | reason=mixed_regime_btc_tilt</title></rect>
<rect x="1001.5412371134021" y="700.9567770287185" width="6.917525773195877" height="6.543222971281466" fill="#2563eb" opacity="0.85"><title>2025-11-17 | ETH buy 100.00 usd | reason=both_assets_cheap</title></rect>
<rect x="1014.2495704467353" y="700.9567770287185" width="6.917525773195877" height="6.543222971281466" fill="#2563eb" opacity="0.85"><title>2025-11-24 | ETH buy 100.00 usd | reason=both_assets_cheap</title></rect>
<rect x="1026.9579037800688" y="700.9567770287185" width="6.917525773195877" height="6.543222971281466" fill="#2563eb" opacity="0.85"><title>2025-12-01 | ETH buy 100.00 usd | reason=both_assets_cheap</title></rect>
<rect x="1039.666237113402" y="700.9567770287185" width="6.917525773195877" height="6.543222971281466" fill="#2563eb" opacity="0.85"><title>2025-12-08 | ETH buy 100.00 usd | reason=both_assets_cheap</title></rect>
<rect x="1052.3745704467353" y="700.9567770287185" width="6.917525773195877" height="6.543222971281466" fill="#2563eb" opacity="0.85"><title>2025-12-15 | ETH buy 100.00 usd | reason=both_assets_cheap</title></rect>
<rect x="1065.0829037800688" y="700.9567770287185" width="6.917525773195877" height="6.543222971281466" fill="#2563eb" opacity="0.85"><title>2025-12-22 | ETH buy 100.00 usd | reason=both_assets_cheap</title></rect>
<rect x="1077.791237113402" y="700.9567770287185" width="6.917525773195877" height="6.543222971281466" fill="#2563eb" opacity="0.85"><title>2025-12-29 | ETH buy 100.00 usd | reason=both_assets_cheap</title></rect>
<rect x="1090.4995704467353" y="700.9567770287185" width="6.917525773195877" height="6.543222971281466" fill="#2563eb" opacity="0.85"><title>2026-01-05 | ETH buy 100.00 usd | reason=both_assets_cheap</title></rect>
<rect x="1103.2079037800688" y="700.9567770287185" width="6.917525773195877" height="6.543222971281466" fill="#2563eb" opacity="0.85"><title>2026-01-12 | ETH buy 100.00 usd | reason=both_assets_cheap</title></rect>
<rect x="1115.916237113402" y="700.9567770287185" width="6.917525773195877" height="6.543222971281466" fill="#2563eb" opacity="0.85"><title>2026-01-19 | ETH buy 100.00 usd | reason=both_assets_cheap</title></rect>
<rect x="1128.6245704467353" y="700.9567770287185" width="6.917525773195877" height="6.543222971281466" fill="#2563eb" opacity="0.85"><title>2026-01-26 | ETH buy 100.00 usd | reason=both_assets_cheap</title></rect>
<rect x="1141.3329037800688" y="700.9567770287185" width="6.917525773195877" height="6.543222971281466" fill="#2563eb" opacity="0.85"><title>2026-02-02 | ETH buy 100.00 usd | reason=both_assets_cheap</title></rect>
<rect x="1154.041237113402" y="700.9567770287185" width="6.917525773195877" height="6.543222971281466" fill="#2563eb" opacity="0.85"><title>2026-02-09 | ETH buy 100.00 usd | reason=both_assets_cheap</title></rect>
<rect x="1166.7495704467353" y="700.9567770287185" width="6.917525773195877" height="6.543222971281466" fill="#2563eb" opacity="0.85"><title>2026-02-16 | ETH buy 100.00 usd | reason=both_assets_cheap</title></rect>
<rect x="1179.4579037800688" y="700.9567770287185" width="6.917525773195877" height="6.543222971281466" fill="#2563eb" opacity="0.85"><title>2026-02-23 | ETH buy 100.00 usd | reason=both_assets_cheap</title></rect>
<rect x="1192.166237113402" y="700.9567770287185" width="6.917525773195877" height="6.543222971281466" fill="#2563eb" opacity="0.85"><title>2026-03-02 | ETH buy 100.00 usd | reason=both_assets_cheap</title></rect>
<rect x="1204.8745704467353" y="700.9567770287185" width="6.917525773195877" height="6.543222971281466" fill="#2563eb" opacity="0.85"><title>2026-03-09 | ETH buy 100.00 usd | reason=both_assets_cheap</title></rect>
<rect x="1217.5829037800688" y="700.9567770287185" width="6.917525773195877" height="6.543222971281466" fill="#2563eb" opacity="0.85"><title>2026-03-16 | ETH buy 100.00 usd | reason=both_assets_cheap</title></rect>
<rect x="1230.291237113402" y="700.9567770287185" width="6.917525773195877" height="6.543222971281466" fill="#2563eb" opacity="0.85"><title>2026-03-23 | ETH buy 100.00 usd | reason=both_assets_cheap</title></rect>
<rect x="1242.9995704467353" y="700.9567770287185" width="6.917525773195877" height="6.543222971281466" fill="#2563eb" opacity="0.85"><title>2026-03-30 | ETH buy 100.00 usd | reason=both_assets_cheap</title></rect>
<rect x="1255.7079037800688" y="700.9567770287185" width="6.917525773195877" height="6.543222971281466" fill="#2563eb" opacity="0.85"><title>2026-04-06 | ETH buy 100.00 usd | reason=both_assets_cheap</title></rect>
<rect x="1268.416237113402" y="700.9567770287185" width="6.917525773195877" height="6.543222971281466" fill="#2563eb" opacity="0.85"><title>2026-04-13 | ETH buy 100.00 usd | reason=both_assets_cheap</title></rect>
<rect x="1281.1245704467353" y="700.9567770287185" width="6.917525773195877" height="6.543222971281466" fill="#2563eb" opacity="0.85"><title>2026-04-20 | ETH buy 100.00 usd | reason=both_assets_cheap</title></rect>
<rect x="1293.8329037800688" y="700.9567770287185" width="6.917525773195877" height="6.543222971281466" fill="#2563eb" opacity="0.85"><title>2026-04-27 | ETH buy 100.00 usd | reason=both_assets_cheap</title></rect>
<rect x="1306.541237113402" y="700.9567770287185" width="6.917525773195877" height="6.543222971281466" fill="#2563eb" opacity="0.85"><title>2026-05-04 | ETH buy 100.00 usd | reason=both_assets_cheap</title></rect>
<text x="24" y="707.5" transform="rotate(-90 24,707.5)" text-anchor="middle" font-family="monospace" font-size="14" fill="#0f172a">ETH weekly trade usd</text>
<rect x="1040" y="478" width="14" height="10" fill="#ea580c" opacity="0.85"/>
<text x="1062" y="488" font-family="monospace" font-size="11" fill="#0f172a">BTC buy</text>
<rect x="1190" y="478" width="14" height="10" fill="#dc2626" opacity="0.85"/>
<text x="1212" y="488" font-family="monospace" font-size="11" fill="#0f172a">BTC sell</text>
<rect x="1040" y="498" width="14" height="10" fill="#2563eb" opacity="0.85"/>
<text x="1062" y="508" font-family="monospace" font-size="11" fill="#0f172a">ETH buy</text>
<rect x="1190" y="498" width="14" height="10" fill="#7c3aed" opacity="0.85"/>
<text x="1212" y="508" font-family="monospace" font-size="11" fill="#0f172a">ETH sell</text>
</svg>