<svg xmlns="http://www.w3.org/2000/svg" width="1400" height="800">
<rect width="1400" height="800" fill="#f8fafc"/>
<text x="700.0" y="42" text-anchor="middle" font-family="monospace" font-size="24" fill="#0f172a">Portfolio Value Over Time | start=2023-01-01 | interval=7d</text>
<line x1="90" y1="710" x2="1310" y2="710" stroke="#334155" stroke-width="2"/>
<line x1="90" y1="90" x2="90" y2="710" stroke="#334155" stroke-width="2"/>
<line x1="90.0" y1="710" x2="90.0" y2="90" stroke="#cbd5e1" stroke-width="1"/>
<text x="90.0" y="734" text-anchor="middle" font-family="monospace" font-size="11" fill="#475569">2023-01-01</text>
<line x1="90" y1="710.0" x2="1310" y2="710.0" stroke="#cbd5e1" stroke-width="1"/>
<text x="78" y="714.0" text-anchor="end" font-family="monospace" font-size="12" fill="#475569">24305</text>
<line x1="334.0" y1="710" x2="334.0" y2="90" stroke="#cbd5e1" stroke-width="1"/>
<text x="334.0" y="734" text-anchor="middle" font-family="monospace" font-size="11" fill="#475569">2023-09-03</text>
<line x1="90" y1="586.0" x2="1310" y2="586.0" stroke="#cbd5e1" stroke-width="1"/>
<text x="78" y="590.0" text-anchor="end" font-family="monospace" font-size="12" fill="#475569">39842</text>
<line x1="578.0" y1="710" x2="578.0" y2="90" stroke="#cbd5e1" stroke-width="1"/>
<text x="578.0" y="734" text-anchor="middle" font-family="monospace" font-size="11" fill="#475569">2024-04-28</text>
<line x1="90" y1="462.0" x2="1310" y2="462.0" stroke="#cbd5e1" stroke-width="1"/>
<text x="78" y="466.0" text-anchor="end" font-family="monospace" font-size="12" fill="#475569">55378</text>
<line x1="822.0" y1="710" x2="822.0" y2="90" stroke="#cbd5e1" stroke-width="1"/>
<text x="822.0" y="734" text-anchor="middle" font-family="monospace" font-size="11" fill="#475569">2024-12-29</text>
<line x1="90" y1="337.9999999999999" x2="1310" y2="337.9999999999999" stroke="#cbd5e1" stroke-width="1"/>
<text x="78" y="341.9999999999999" text-anchor="end" font-family="monospace" font-size="12" fill="#475569">70915</text>
<line x1="1066.0" y1="710" x2="1066.0" y2="90" stroke="#cbd5e1" stroke-width="1"/>
<text x="1066.0" y="734" text-anchor="middle" font-family="monospace" font-size="11" fill="#475569">2025-08-24</text>
<line x1="90" y1="214.00000000000006" x2="1310" y2="214.00000000000006" stroke="#cbd5e1" stroke-width="1"/>
<text x="78" y="218.00000000000006" text-anchor="end" font-family="monospace" font-size="12" fill="#475569">86451</text>
<line x1="1310.0" y1="710" x2="1310.0" y2="90" stroke="#cbd5e1" stroke-width="1"/>
<text x="1310.0" y="734" text-anchor="middle" font-family="monospace" font-size="11" fill="#475569">2026-04-26</text>
<line x1="90" y1="90.0" x2="1310" y2="90.0" stroke="#cbd5e1" stroke-width="1"/>
<text x="78" y="94.0" text-anchor="end" font-family="monospace" font-size="12" fill="#475569">101987</text>
<text x="700.0" y="782" text-anchor="middle" font-family="monospace" font-size="16" fill="#0f172a">time</text>
<text x="24" y="400.0" transform="rotate(-90 24,400.0)" text-anchor="middle" font-family="monospace" font-size="16" fill="#0f172a">portfolio_value_usd</text>
<line x1="970" y1="80" x2="988" y2="80" stroke="#0f766e" stroke-width="3"/>
<text x="998" y="84" font-family="monospace" font-size="12" fill="#0f172a">static_50_50_rebalance</text>
<line x1="970" y1="104" x2="988" y2="104" stroke="#dc2626" stroke-width="3"/>
<text x="998" y="108" font-family="monospace" font-size="12" fill="#0f172a">target_50_50_with_cash_band</text>
<line x1="970" y1="128" x2="988" y2="128" stroke="#2563eb" stroke-width="3"/>
<text x="998" y="132" font-family="monospace" font-size="12" fill="#0f172a">narrow_cash_band_rebalance</text>
<line x1="970" y1="152" x2="988" y2="152" stroke="#7c3aed" stroke-width="3"/>
<text x="998" y="156" font-family="monospace" font-size="12" fill="#0f172a">drawdown_tilt_rebalance</text>
<line x1="970" y1="176" x2="988" y2="176" stroke="#b45309" stroke-width="3"/>
<text x="998" y="180" font-family="monospace" font-size="12" fill="#0f172a">btc_defensive_eth_aggressive</text>
<polyline points="90.0,710.0 97.05202312138728,703.9361449525395 104.10404624277456,675.0395863611479 111.15606936416185,663.2634614117893 118.20809248554913,657.9271703560686 125.26011560693641,662.1913669328375 132.3121387283237,673.4537432398133 139.36416184971097,653.2582276569682 146.41618497109826,658.581316970816 153.46820809248555,667.8274663250654 160.52023121387282,667.0753515663183 167.5722543352601,630.8098221987404 174.6242774566474,631.6969153184782 181.67630057803467,629.7318899942197 188.72832369942196,625.1990359380756 195.78034682080926,601.6508695680627 202.83236994219652,627.647081770206 209.88439306358384,620.5343772534169 216.9364161849711,623.4206232539369 223.98843930635837,633.8845715402823 231.04046242774567,634.2745256221999 238.09248554913293,622.7776495375043 245.14450867052022,627.7041310579322 252.1965317919075,640.5719735928658 259.2485549132948,640.8980931410771 266.3005780346821,613.4064265991541 273.35260115606934,610.6038030463681 280.40462427745666,616.8338168406096 287.4566473988439,612.8369948392938 294.50867052023125,615.5890551409393 301.5606936416185,620.3083621922317 308.6127167630058,623.3213495658556 315.66473988439304,621.7076895381177 322.7167630057803,643.0354079524938 329.7687861271677,645.1375659355172 336.82080924855495,646.9706264838316 343.8728323699422,648.7046543067836 350.9248554913295,645.5529403947787 357.97687861271675,649.3231935632163 365.02890173410407,632.7588597091833 372.08092485549133,639.2975013152118 379.1329479768786,647.0174601363711 386.18497109826586,629.3635629322616 393.2369942196532,603.8393880636365 400.28901734104045,595.586011824062 407.3410404624277,578.2377443107455 414.393063583815,579.3420473145853 421.4450867052023,575.809134867851 428.49710982658956,558.567907941054 435.5491329479769,535.2621522647916 442.6011560693642,553.5750648955108 449.6531791907515,543.385686297381 456.70520231213874,544.8756158403396 463.757225433526,542.9377558065404 470.8092485549133,534.554650724053 477.8612716763006,535.9847147503249 484.91329479768785,546.4400233301925 491.9653179190751,542.5918338598173 499.01734104046244,509.1903574263778 506.0693641618497,472.8674670545181 513.121387283237,460.1002614920838 520.1734104046243,399.2290491885029 527.2254335260116,356.9390683525715 534.2774566473988,373.002596433419 541.3294797687861,387.3979438542559 548.3815028901734,363.42041159000763 555.4335260115606,380.7185548311794 562.4855491329479,409.2992311474132 569.5375722543354,412.4033178832525 576.5895953757226,410.91198818532604 583.6416184971099,415.77801823606984 590.6936416184972,436.55664775902994 597.7456647398844,412.8902989009472 604.7976878612717,358.5208340625598 611.849710982659,363.4915990343261 618.9017341040462,361.8081483224765 625.9537572254335,376.13052120128395 633.0057803468208,398.90800551952066 640.0578034682081,399.6837863570917 647.1098265895954,450.9361672657426 654.1618497109827,416.00535698174036 661.2138728323699,374.875259734827 668.2658959537572,390.6469295307355 675.3179190751445,457.4431202397616 682.3699421965317,463.94371108084067 689.4219653179191,461.1391875879503 696.4739884393064,434.62229212432896 703.5260115606936,476.90088790382407 710.5780346820809,492.92947619571214 717.6300578034683,478.93141987267586 724.6820809248554,446.88286738792755 731.7341040462428,435.52182417070503 738.78612716763,459.01566838661586 745.8381502890173,456.9155348391115 752.8901734104046,419.2138207454343 759.9421965317919,439.49331140781527 766.9942196531791,440.7839705164844 774.0462427745665,354.7017147092929 781.0982658959538,336.6482614232877 788.150289017341,294.2869740611905 795.2023121387284,271.2059370476815 802.2543352601156,240.2397459847449 809.306358381503,235.07407960040177 816.3583815028901,305.39806679427824 823.4104046242775,304.32976177723725 830.4624277456647,272.0300143317426 837.514450867052,307.7069206975973 844.5664739884393,294.6457781433243 851.6184971098266,289.7452728413956 858.6705202312138,328.32703108643625 865.7225433526012,349.31882161984134 872.7745664739884,347.5790444066625 879.8265895953757,334.89514659513 886.878612716763,363.5105488634906 893.9306358381502,435.3548092163453 900.9826589595375,442.0799127814371 908.0346820809249,423.8930662403574 915.0867052023121,449.5623795598752 922.1387283236994,478.8189260350621 929.1907514450868,465.43411463191546 936.2427745664739,463.24876637344556 943.2947976878613,425.30354069146625 950.3468208092486,422.58706997438816 957.3988439306358,330.82005264004056 964.4508670520231,327.5134485569035 971.5028901734105,316.92726207247574 978.5549132947976,325.21793224824205 985.606936416185,327.7576733009769 992.6589595375722,324.7342222661197 999.7109826589596,364.00750994430473 1006.7630057803468,322.6559017376669 1013.8150289017341,314.3334958992698 1020.8670520231213,255.75119153658898 1027.9190751445087,189.16367088528568 1034.9710982658958,174.86116817577977 1042.0231213872833,216.38429314399542 1049.0751445086707,145.30516911014752 1056.1271676300578,132.7018040389089 1063.1791907514453,120.14544046187825 1070.2312138728323,159.24465225375798 1077.2832369942198,158.20433223404575 1084.335260115607,127.3102007447211 1091.3872832369943,138.2145070742455 1098.4393063583816,166.77722302187192 1105.4913294797689,112.0630483347503 1112.5433526011561,158.74963513669036 1119.5953757225434,187.3929205786535 1126.6473988439307,159.6127451037671 1133.699421965318,188.12615637000965 1140.7514450867052,226.67894768913396 1147.8034682080925,289.9921691097574 1154.8554913294797,330.9423012065861 1161.907514450867,307.07109701506334 1168.9595375722542,301.6257488107638 1176.0115606936415,307.3533310242501 1183.063583815029,310.92732762726337 1190.1156069364163,317.0916461753311 1197.1676300578035,292.06330063124824 1204.2196531791908,295.6487048939969 1211.271676300578,275.4332433241311 1218.3236994219653,330.6440574281927 1225.3757225433526,399.45957648246366 1232.4277456647399,431.4462830376982 1239.4797687861271,445.56679083962763 1246.5317919075144,449.4174089038047 1253.5838150289017,455.85411251067615 1260.635838150289,455.5533287391995 1267.6878612716764,415.05525318626593 1274.7398843930634,439.79460140648973 1281.791907514451,451.2942488462712 1288.8439306358382,431.50120037325996 1295.8959537572255,419.26627965638943 1302.9479768786127,404.42753769101915 1310.0,381.75849656470314" fill="none" stroke="#0f766e" stroke-width="2.5"><title>static_50_50_rebalance | end=2026-04-26 | return=169.21%</title></polyline>
<polyline points="90.0,710.0 97.05202312138728,703.9361449525395 104.10404624277456,674.9941014149856 111.15606936416185,662.7846814905553 118.20809248554913,657.0486609533187 125.26011560693641,661.6862204864519 132.3121387283237,673.5208711163316 139.36416184971097,651.9941099474645 146.41618497109826,657.7808356118444 153.46820809248555,667.94626230372 160.52023121387282,667.1457853765459 167.5722543352601,626.5008735273789 174.6242774566474,627.5023829895814 181.67630057803467,625.2700743470011 188.72832369942196,620.1059911438732 195.78034682080926,593.8980019014455 202.83236994219652,619.8657862728338 209.88439306358384,613.5080732097434 216.9364161849711,615.9247962884399 223.98843930635837,625.6110877703754 231.04046242774567,625.9381889704614 238.09248554913293,616.5704550735359 245.14450867052022,619.8133267646125 252.1965317919075,627.4030912838532 259.2485549132948,627.6164849805399 266.3005780346821,609.4853265791464 273.35260115606934,607.854839251284 280.40462427745666,611.241819256362 287.4566473988439,609.1384608068065 294.50867052023125,610.5598732160944 301.5606936416185,612.9799123061068 308.6127167630058,614.5249018014564 315.66473988439304,613.6950664840265 322.7167630057803,624.6622980891286 329.7687861271677,625.8164431410668 336.82080924855495,626.8865896878315 343.8728323699422,627.9610915655222 350.9248554913295,625.8898675369176 357.97687861271675,628.503490001276 365.02890173410407,616.3859531596653 372.08092485549133,621.40475975539 379.1329479768786,627.6450619417051 386.18497109826586,612.5605946757316 393.2369942196532,590.632000340776 400.28901734104045,584.1405257564036 407.3410404624277,572.7843621559133 414.393063583815,573.4249226979719 421.4450867052023,571.4976969865177 428.49710982658956,562.4225989854922 435.5491329479769,550.5243455567386 442.6011560693642,559.5907028051278 449.6531791907515,554.5646743722375 456.70520231213874,555.293283721619 463.757225433526,554.3489638934865 470.8092485549133,550.2780662335279 477.8612716763006,550.9682425133537 484.91329479768785,555.9965840167545 491.9653179190751,554.1343475512572 499.01734104046244,537.9685596308497 506.0693641618497,520.7577302627167 513.121387283237,514.8916709554694 520.1734104046243,487.56904519708473 527.2254335260116,469.3390380661646 534.2774566473988,475.9971621753137 541.3294797687861,481.8811867986398 548.3815028901734,471.6135023171329 555.4335260115606,478.75722679983323 562.4855491329479,491.06595999497256 569.5375722543354,492.48727546060394 576.5895953757226,491.9852023320327 583.6416184971099,494.2551452693578 590.6936416184972,504.7099534538966 597.7456647398844,492.20230149889085 604.7976878612717,463.5512306484583 611.849710982659,465.9086504408523 618.9017341040462,465.127780501231 625.9537572254335,471.1888762567905 633.0057803468208,480.66908402240415 640.0578034682081,481.0060082718136 647.1098265895954,504.15533049660087 654.1618497109827,487.8466789284771 661.2138728323699,467.766593374608 668.2658959537572,474.84719150289845 675.3179190751445,506.25425163488876 682.3699421965317,509.26858093111355 689.4219653179191,507.9488205095353 696.4739884393064,493.70222458807405 703.5260115606936,516.886837497814 710.5780346820809,525.8953189180313 717.6300578034683,517.1460450124387 724.6820809248554,498.0070981252054 731.7341040462428,490.7674092614883 738.78612716763,505.63436795794416 745.8381502890173,504.33892908034244 752.8901734104046,478.3900420577917 759.9421965317919,491.9596876620068 766.9942196531791,492.7094484274311 774.0462427745665,433.16108181397294 781.0982658959538,421.25758613492815 788.150289017341,395.21068296763775 795.2023121387284,381.5635151649936 802.2543352601156,365.9315641886582 809.306358381503,363.5918175671239 816.3583815028901,393.8366555473267 823.4104046242775,393.40789469773375 830.4624277456647,378.67002597190464 837.514450867052,394.1948098071215 844.5664739884393,388.09767653447244 851.6184971098266,385.7561750149533 858.6705202312138,404.1801991650403 865.7225433526012,414.27003740511645 872.7745664739884,413.5036882719086 879.8265895953757,407.2324474632562 886.878612716763,422.0574244427029 893.9306358381502,462.4769723578671 900.9826589595375,465.4435743800027 908.0346820809249,454.5279544047197 915.0867052023121,469.91042045546743 922.1387283236994,487.83539782692293 929.1907514450868,477.8050825582882 936.2427745664739,475.8092621475102 943.2947976878613,448.64573609115416 950.3468208092486,446.80382507657924 957.3988439306358,387.3732811490204 964.4508670520231,384.68126319894253 971.5028901734105,377.1044975267019 978.5549132947976,383.1357799079049 985.606936416185,385.0119153684042 992.6589595375722,382.7115462726111 999.7109826589596,412.68884988380205 1006.7630057803468,381.26895729413934 1013.8150289017341,374.7493542719314 1020.8670520231213,328.74039492729366 1027.9190751445087,280.6074903766313 1034.9710982658958,272.27384938374956 1042.0231213872833,293.68473098631074 1049.0751445086707,259.47639396406686 1056.1271676300578,253.8546198878259 1063.1791907514453,248.66394371358524 1070.2312138728323,266.00589378590087 1077.2832369942198,265.20967154067614 1084.335260115607,251.53850648030948 1091.3872832369943,256.1673250155244 1098.4393063583816,268.4764920073238 1105.4913294797689,244.54206049972913 1112.5433526011561,264.4486222729261 1119.5953757225434,276.7125427085368 1126.6473988439307,264.5543761770547 1133.699421965318,276.91211962453355 1140.7514450867052,294.04985164254657 1147.8034682080925,322.9376512998665 1154.8554913294797,342.13655162913653 1161.907514450867,330.70534407312846 1168.9595375722542,328.09540897528495 1176.0115606936415,331.08624483285803 1183.063583815029,332.87783991724433 1190.1156069364163,336.1557817689141 1197.1676300578035,322.4325576226385 1204.2196531791908,324.47278554886515 1211.271676300578,312.6729254038648 1218.3236994219653,345.9442550881309 1225.3757225433526,388.3023327223561 1232.4277456647399,408.7170402685193 1239.4797687861271,417.7061532407546 1246.5317919075144,420.3429011452818 1253.5838150289017,424.8391375068099 1260.635838150289,424.59817044489165 1267.6878612716764,396.234795800383 1274.7398843930634,414.3469241255039 1281.791907514451,422.8719023380427 1288.8439306358382,407.88524004811717 1295.8959537572255,398.36632881350096 1302.9479768786127,386.25401912193456 1310.0,367.1631359486543" fill="none" stroke="#dc2626" stroke-width="2.5"><title>target_50_50_with_cash_band | end=2026-04-26 | return=176.73%</title></polyline>
<polyline points="90.0,710.0 97.05202312138728,703.9361449525395 104.10404624277456,674.9941014149856 111.15606936416185,662.7893976167622 118.20809248554913,657.0677281730932 125.26011560693641,661.7014087840736 132.3121387283237,673.5262466470368 139.36416184971097,652.02074986767 146.41618497109826,657.8088861320344 153.46820809248555,667.9757494839627 160.52023121387282,667.1864329559502 167.5722543352601,626.6699265119395 174.6242774566474,627.6666142804927 181.67630057803467,625.4396688319189 188.72832369942196,620.2999434315269 195.78034682080926,593.9823503433812 202.83236994219652,621.9856364128366 209.88439306358384,615.2214444959912 216.9364161849711,617.7487662561359 223.98843930635837,628.2404558925247 231.04046242774567,628.5738632325365 238.09248554913293,616.8541414569441 245.14450867052022,621.4356790830192 252.1965317919075,633.0445286828067 259.2485549132948,633.3938883937433 266.3005780346821,606.881426392026 273.35260115606934,604.3237788792709 280.40462427745666,609.8100598737017 287.4566473988439,606.3748697060691 294.50867052023125,608.7116939490351 301.5606936416185,612.6895498472393 308.6127167630058,615.2168941246864 315.66473988439304,613.8656846316285 322.7167630057803,631.703737538398 329.7687861271677,633.5296486618116 336.82080924855495,635.1813117819595 343.8728323699422,636.8029466793973 350.9248554913295,633.739622286129 357.97687861271675,637.5346459561015 365.02890173410407,620.2324123641612 372.08092485549133,627.2928679305951 379.1329479768786,635.9016374029045 386.18497109826586,615.7437495765867 393.2369942196532,588.3160019254461 400.28901734104045,579.2627173830076 407.3410404624277,561.9893445194069 414.393063583815,563.0666976023575 421.4450867052023,559.8454371846664 428.49710982658956,544.5820112435367 435.5491329479769,524.2931736628556 442.6011560693642,540.0327532804774 449.6531791907515,531.3393794228062 456.70520231213874,532.6071402766157 463.757225433526,530.9688743706063 470.8092485549133,523.9584892210556 477.8612716763006,525.1632889332411 484.91329479768785,534.0051983984157 491.9653179190751,530.7750143085218 499.01734104046244,502.73718802782184 506.0693641618497,472.41647576178116 513.121387283237,461.8303504400901 520.1734104046243,411.7995077293533 527.2254335260116,377.3627150904183 534.2774566473988,390.29740053400315 541.3294797687861,401.7743657642927 548.3815028901734,382.1644714336722 555.4335260115606,396.0339540231985 562.4855491329479,419.4249730109728 569.5375722543354,422.0810172009377 576.5895953757226,421.2373323938216 583.6416184971099,425.23955275868315 590.6936416184972,443.5881536526538 597.7456647398844,421.94629634450155 604.7976878612717,373.53274899526315 611.849710982659,377.872308663558 618.9017341040462,376.38084526578706 625.9537572254335,388.1703415356524 633.0057803468208,406.6230946020282 640.0578034682081,407.2639333490577 647.1098265895954,450.39939100781487 654.1618497109827,420.68777114160963 661.2138728323699,384.79534799803395 668.2658959537572,398.0427953220983 675.3179190751445,455.7627413900989 682.3699421965317,461.1501770924406 689.4219653179191,458.8472270397448 696.4739884393064,434.1542677795813 703.5260115606936,471.4833026932729 710.5780346820809,485.7992457739829 717.6300578034683,472.58200595967605 724.6820809248554,443.00873532749637 731.7341040462428,432.0442195193595 738.78612716763,453.9372375605306 745.8381502890173,451.9652907717051 752.8901734104046,415.2555832325553 759.9421965317919,435.0763503928312 766.9942196531791,436.6001191523352 774.0462427745665,355.4833416777418 781.0982658959538,340.7401618067802 788.150289017341,300.070166740065 795.2023121387284,277.05109951270776 802.2543352601156,248.68875998042262 809.306358381503,244.36963744684448 816.3583815028901,303.87738982836794 823.4104046242775,302.9926516771274 830.4624277456647,275.07306614415137 837.514450867052,305.09760166659834 844.5664739884393,293.5879164827807 851.6184971098266,289.22464831930296 858.6705202312138,323.04164884713185 865.7225433526012,341.00324403683953 872.7745664739884,339.5295761193062 879.8265895953757,328.6809940809365 886.878612716763,353.1218248693795 893.9306358381502,413.897818665894 900.9826589595375,419.79567758574694 908.0346820809249,403.8814757701612 915.0867052023121,426.2010235535524 922.1387283236994,451.986604362385 929.1907514450868,439.59507466163933 936.2427745664739,437.371426162035 943.2947976878613,401.39718501826366 950.3468208092486,398.9224105569827 957.3988439306358,316.9204204772855 964.4508670520231,314.13091830795287 971.5028901734105,304.4142903115704 978.5549132947976,311.5536901843348 985.606936416185,314.25114986681245 992.6589595375722,310.9335549990743 999.7109826589596,350.9883558016684 1006.7630057803468,310.28080379460994 1013.8150289017341,301.59233769177087 1020.8670520231213,242.03421342446836 1027.9190751445087,168.12082603610884 1034.9710982658958,154.43671879171882 1042.0231213872833,192.78990588684667 1049.0751445086707,128.82847250731356 1056.1271676300578,117.40666255993051 1063.1791907514453,106.14018003719946 1070.2312138728323,139.6985495445167 1077.2832369942198,138.8506217929796 1084.335260115607,112.71013025242985 1091.3872832369943,121.8642207151737 1098.4393063583816,145.85433720630328 1105.4913294797689,99.70487644694731 1112.5433526011561,138.68421110086217 1119.5953757225434,162.56342153184335 1126.6473988439307,139.25967487910418 1133.699421965318,163.11918145693733 1140.7514450867052,195.70447187502805 1147.8034682080925,249.72035983077677 1154.8554913294797,285.0261912318889 1161.907514450867,264.3782039413248 1168.9595375722542,259.7519873977549 1176.0115606936415,265.0231127806951 1183.063583815029,268.0968345474263 1190.1156069364163,273.682662122422 1197.1676300578035,250.58507020574814 1204.2196531791908,253.98189267354445 1211.271676300578,234.57674732477017 1218.3236994219653,288.716139774893 1225.3757225433526,356.90372208518824 1232.4277456647399,389.4329783803676 1239.4797687861271,403.5158692354321 1246.5317919075144,407.6318198890543 1253.5838150289017,414.56498651784403 1260.635838150289,414.1908870067895 1267.6878612716764,371.67951063484054 1274.7398843930634,398.6251807291788 1281.791907514451,411.15879412388915 1288.8439306358382,389.3444104805929 1295.8959537572255,375.65415477252213 1302.9479768786127,358.41441497804107 1310.0,331.68961325043193" fill="none" stroke="#2563eb" stroke-width="2.5"><title>narrow_cash_band_rebalance | end=2026-04-26 | return=195.02%</title></polyline>
<polyline points="90.0,710.0 97.05202312138728,703.9361449525395 104.10404624277456,674.9941014149856 111.15606936416185,662.7846814905553 118.20809248554913,656.9706363557575 125.26011560693641,661.6784265967862 132.3121387283237,673.6470596694497 139.36416184971097,651.8344883240081 146.41618497109826,657.6993277829325 153.46820809248555,667.9880605897331 160.52023121387282,667.1995050996019 167.5722543352601,625.2749920072424 174.6242774566474,626.2872952686809 181.67630057803467,624.0854098289542 188.72832369942196,618.8479418200291 195.78034682080926,592.4000832198398 202.83236994219652,621.2092402919934 209.88439306358384,613.8809023848266 216.9364161849711,616.7480616843959 223.98843930635837,627.9821330223313 231.04046242774567,628.3273507670348 238.09248554913293,616.8397344356953 245.14450867052022,621.2176852719459 252.1965317919075,631.980448771181 259.2485549132948,632.2446501030562 266.3005780346821,607.6836596645969 273.35260115606934,605.2853938674729 280.40462427745666,610.422664520872 287.4566473988439,607.0899949696015 294.50867052023125,609.3020321291673 301.5606936416185,612.8780026154622 308.6127167630058,615.2533716776755 315.66473988439304,614.0186252419164 322.7167630057803,630.3400286022182 329.7687861271677,632.0920644164642 336.82080924855495,633.666447116971 343.8728323699422,635.2066406585261 350.9248554913295,632.4548477744781 357.97687861271675,636.0549881703759 365.02890173410407,619.8418360675861 372.08092485549133,626.5672082475671 379.1329479768786,634.2767848746767 386.18497109826586,616.79357721003 393.2369942196532,592.3196286127373 400.28901734104045,583.5815711924729 407.3410404624277,567.7639993372024 414.393063583815,568.9167333637558 421.4450867052023,565.89400157756 428.49710982658956,552.203065019994 435.5491329479769,534.0452566718151 442.6011560693642,548.1503642883588 449.6531791907515,540.3529916239769 456.70520231213874,541.463000809687 463.757225433526,540.0261459350754 470.8092485549133,533.2979557191986 477.8612716763006,534.3695285618271 484.91329479768785,541.9947969789894 491.9653179190751,539.1067838954423 499.01734104046244,513.9879086260859 506.0693641618497,486.5970538889014 513.121387283237,476.98230913465864 520.1734104046243,432.4572247266923 527.2254335260116,402.00245150831654 534.2774566473988,413.4052465195214 541.3294797687861,423.59582028255073 548.3815028901734,406.33445796748174 555.4335260115606,418.70349958370014 562.4855491329479,439.5437498524165 569.5375722543354,441.8274480765326 576.5895953757226,440.65803201041115 583.6416184971099,444.56635272918345 590.6936416184972,461.01068846512294 597.7456647398844,442.01051442710383 604.7976878612717,397.6069008029179 611.849710982659,401.38550993360076 618.9017341040462,400.23299366849017 625.9537572254335,410.4182137246036 633.0057803468208,426.5942340281878 640.0578034682081,427.114949507474 647.1098265895954,465.27783977380966 654.1618497109827,438.9437395728455 661.2138728323699,407.206198584021 668.2658959537572,419.3594570952145 675.3179190751445,470.0973516026832 682.3699421965317,475.1914673590376 689.4219653179191,473.0012020226859 696.4739884393064,451.4826015643373 703.5260115606936,485.67783392847736 710.5780346820809,498.7495015497915 717.6300578034683,487.01022018134853 724.6820809248554,460.7868380496365 731.7341040462428,451.4178801358952 738.78612716763,471.23008044576125 745.8381502890173,469.3936291039676 752.8901734104046,437.64760117662183 759.9421965317919,455.9799315036314 766.9942196531791,457.6109764879709 774.0462427745665,384.03006844419633 781.0982658959538,373.50097539988275 788.150289017341,337.8353617680464 795.2023121387284,314.16522552355036 802.2543352601156,288.6138905619066 809.306358381503,285.5202039330695 816.3583815028901,337.45051977530875 823.4104046242775,336.36169919115645 830.4624277456647,311.9645402075995 837.514450867052,338.35853023757613 844.5664739884393,329.0430586939191 851.6184971098266,325.4062334307043 858.6705202312138,354.5892500633427 865.7225433526012,370.7487792967808 872.7745664739884,369.38658486944485 879.8265895953757,359.50121473796344 886.878612716763,381.90605002591997 893.9306358381502,437.8275323218122 900.9826589595375,443.199353315054 908.0346820809249,428.6368423946078 915.0867052023121,448.9766179693113 922.1387283236994,472.418000642141 929.1907514450868,461.82218480991713 936.2427745664739,460.19975155119846 943.2947976878613,430.37371207098585 950.3468208092486,428.22713627706406 957.3988439306358,354.25592938244534 964.4508670520231,352.2496050469702 971.5028901734105,343.859288232386 978.5549132947976,349.72110754145666 985.606936416185,352.27139681818835 992.6589595375722,349.1180806480716 999.7109826589596,385.99099102128923 1006.7630057803468,349.148377529817 1013.8150289017341,341.13885737196676 1020.8670520231213,287.07914680970134 1027.9190751445087,211.34371983183252 1034.9710982658958,198.7519767634986 1042.0231213872833,233.16461630474038 1049.0751445086707,175.0748840042222 1056.1271676300578,164.71440364794967 1063.1791907514453,154.51542634109944 1070.2312138728323,182.77280767196328 1077.2832369942198,182.03814338736106 1084.335260115607,159.7113932098615 1091.3872832369943,167.52396371933753 1098.4393063583816,188.20694545398976 1105.4913294797689,148.7854347518827 1112.5433526011561,182.2273754769716 1119.5953757225434,202.55316427109204 1126.6473988439307,182.6205242464323 1133.699421965318,203.49773607925732 1140.7514450867052,231.99613861887394 1147.8034682080925,279.22950993277743 1154.8554913294797,310.0706324437533 1161.907514450867,291.8564255048956 1168.9595375722542,287.6256283884412 1176.0115606936415,292.0468655394332 1183.063583815029,294.958947742054 1190.1156069364163,299.95905042463716 1197.1676300578035,279.3358584178025 1204.2196531791908,282.35650123023066 1211.271676300578,264.9271029819809 1218.3236994219653,313.73810077597716 1225.3757225433526,375.16274543203735 1232.4277456647399,404.1377604306677 1239.4797687861271,416.96385878478173 1246.5317919075144,420.57861126627756 1253.5838150289017,426.70170872628 1260.635838150289,426.390322451719 1267.6878612716764,387.8705603194656 1274.7398843930634,412.195081733542 1281.791907514451,423.6079215062466 1288.8439306358382,403.67171688073273 1295.8959537572255,391.0781059787893 1302.9479768786127,375.2704177924349 1310.0,350.7830971756391" fill="none" stroke="#7c3aed" stroke-width="2.5"><title>drawdown_tilt_rebalance | end=2026-04-26 | return=185.18%</title></polyline>
<polyline points="90.0,710.0 97.05202312138728,703.9361449525395 104.10404624277456,675.461116935488 111.15606936416185,663.6017227398985 118.20809248554913,658.0081343939901 125.26011560693641,662.4887158590119 132.3121387283237,672.9624842205534 139.36416184971097,653.7503752442956 146.41618497109826,658.8928108728912 153.46820809248555,667.5988384505488 160.52023121387282,667.3665183180491 167.5722543352601,630.9839828096967 174.6242774566474,631.7439396954242 181.67630057803467,629.9740817196736 188.72832369942196,626.3514191702258 195.78034682080926,604.8182147800528 202.83236994219652,630.0806925763615 209.88439306358384,621.607473876829 216.9364161849711,625.2580267665085 223.98843930635837,636.5388057786437 231.04046242774567,637.1586492640691 238.09248554913293,625.3142337883879 245.14450867052022,631.043274057969 252.1965317919075,643.866768138907 259.2485549132948,643.6650893559138 266.3005780346821,615.1649611336302 273.35260115606934,612.5477559396467 280.40462427745666,618.5445945997104 287.4566473988439,615.0108764306539 294.50867052023125,617.6085262115174 301.5606936416185,622.8684209217612 308.6127167630058,625.8011528751491 315.66473988439304,624.059947240637 322.7167630057803,647.0343433859778 329.7687861271677,648.8683773771597 336.82080924855495,650.4722564673702 343.8728323699422,651.9963348852638 350.9248554913295,648.5888621831575 357.97687861271675,651.8165367636575 365.02890173410407,636.935215828458 372.08092485549133,641.8821423853894 379.1329479768786,648.6848139182167 386.18497109826586,631.5407849285787 393.2369942196532,604.9761075898315 400.28901734104045,597.6310156766215 407.3410404624277,580.3487152458267 414.393063583815,580.808370957975 421.4450867052023,577.7450774251379 428.49710982658956,559.4994620048942 435.5491329479769,534.1811446092679 442.6011560693642,553.3141727703768 449.6531791907515,542.2159057180991 456.70520231213874,544.5542613168125 463.757225433526,540.5007607729386 470.8092485549133,536.6265100473161 477.8612716763006,538.0599951904262 484.91329479768785,547.6701401637312 491.9653179190751,543.7021194890388 499.01734104046244,507.8974899859468 506.0693641618497,471.58329322383616 513.121387283237,460.3066464355761 520.1734104046243,395.39956065517526 527.2254335260116,351.0641252956262 534.2774566473988,367.77740380317647 541.3294797687861,382.9620967385042 548.3815028901734,357.75405701901707 555.4335260115606,375.4632269059301 562.4855491329479,404.28061814338776 569.5375722543354,407.73962998908905 576.5895953757226,408.15046100396876 583.6416184971099,411.49663049121426 590.6936416184972,432.2155830153653 597.7456647398844,406.29113867138466 604.7976878612717,356.9299482555367 611.849710982659,362.10891817867673 618.9017341040462,358.90159560053996 625.9537572254335,374.5546167791702 633.0057803468208,397.763952718692 640.0578034682081,398.785516719946 647.1098265895954,450.1687410213564 654.1618497109827,416.2658166699696 661.2138728323699,377.7724982526184 668.2658959537572,391.94471449693594 675.3179190751445,456.1072004124965 682.3699421965317,461.0698255053831 689.4219653179191,459.0477828117636 696.4739884393064,432.4092701762521 703.5260115606936,473.45690726895197 710.5780346820809,488.55529869755867 717.6300578034683,473.0627402747011 724.6820809248554,443.67524973973457 731.7341040462428,432.79828452798944 738.78612716763,454.3497973712151 745.8381502890173,452.69171526674154 752.8901734104046,417.05493053842804 759.9421965317919,434.3256214840507 766.9942196531791,434.4276095116984 774.0462427745665,350.5944694141893 781.0982658959538,324.3469084398604 788.150289017341,279.16787959671575 795.2023121387284,260.4054993779553 802.2543352601156,229.3105757552778 809.306358381503,222.04264455562003 816.3583815028901,292.8670085765171 823.4104046242775,293.3641591264024 830.4624277456647,260.14547757222067 837.514450867052,295.364734964059 844.5664739884393,276.7903087852926 851.6184971098266,271.0557131528597 858.6705202312138,310.06606707214627 865.7225433526012,329.76752501943076 872.7745664739884,328.6071325683707 879.8265895953757,317.2596649062428 886.878612716763,344.4337289762439 893.9306358381502,421.56234720578715 900.9826589595375,425.638044577081 908.0346820809249,407.04647593137986 915.0867052023121,432.53892046788707 922.1387283236994,460.8956975112394 929.1907514450868,445.2787459101656 936.2427745664739,442.3432352203814 943.2947976878613,403.488494109553 950.3468208092486,400.75320064218374 957.3988439306358,312.75082480064475 964.4508670520231,307.97236671845485 971.5028901734105,296.548771038024 978.5549132947976,306.6512367893515 985.606936416185,308.822692701823 992.6589595375722,306.31994467725633 999.7109826589596,345.09974457275507 1006.7630057803468,301.78165060695704 1013.8150289017341,293.6645705519364 1020.8670520231213,232.68919084718567 1027.9190751445087,172.41385925029704 1034.9710982658958,157.14103522092557 1042.0231213872833,202.15128281775162 1049.0751445086707,125.6237181913882 1056.1271676300578,112.31754461462958 1063.1791907514453,99.17145271897084 1070.2312138728323,142.96567120848295 1077.2832369942198,141.43752012152822 1084.335260115607,107.0991814753263 1091.3872832369943,119.0252143342176 1098.4393063583816,150.55934617353284 1105.4913294797689,90.0 1112.5433526011561,141.29620331621913 1119.5953757225434,172.61564082747884 1126.6473988439307,142.41040677894716 1133.699421965318,173.3835340408241 1140.7514450867052,213.39695931184127 1147.8034682080925,279.13966544826206 1154.8554913294797,320.2495202566884 1161.907514450867,297.24333296043335 1168.9595375722542,292.73400466308794 1176.0115606936415,299.2780697073731 1183.063583815029,301.6354073093061 1190.1156069364163,307.14376348612166 1197.1676300578035,284.3263940299267 1204.2196531791908,287.69382894656735 1211.271676300578,269.47653693699453 1218.3236994219653,318.69565438932227 1225.3757225433526,381.1263278851168 1232.4277456647399,412.4910711160507 1239.4797687861271,424.9702218135509 1246.5317919075144,429.1814773867645 1253.5838150289017,436.13491373037476 1260.635838150289,435.690503665347 1267.6878612716764,396.78993447744006 1274.7398843930634,421.34986872253893 1281.791907514451,432.3153383239685 1288.8439306358382,413.6404586233795 1295.8959537572255,402.2371254176396 1302.9479768786127,387.41621474026965 1310.0,364.6374613394421" fill="none" stroke="#b45309" stroke-width="2.5"><title>btc_defensive_eth_aggressive | end=2026-04-26 | return=178.03%</title></polyline>
</svg>