<svg xmlns="http://www.w3.org/2000/svg" width="1400" height="800">
<rect width="1400" height="800" fill="#f8fafc"/>
<text x="700.0" y="42" text-anchor="middle" font-family="monospace" font-size="24" fill="#0f172a">Portfolio Value Over Time | start=2020-01-01 | interval=7d</text>
<line x1="90" y1="710" x2="1310" y2="710" stroke="#334155" stroke-width="2"/>
<line x1="90" y1="90" x2="90" y2="710" stroke="#334155" stroke-width="2"/>
<line x1="90.0" y1="710" x2="90.0" y2="90" stroke="#cbd5e1" stroke-width="1"/>
<text x="90.0" y="734" text-anchor="middle" font-family="monospace" font-size="11" fill="#475569">2020-01-01</text>
<line x1="90" y1="710.0" x2="1310" y2="710.0" stroke="#cbd5e1" stroke-width="1"/>
<text x="78" y="714.0" text-anchor="end" font-family="monospace" font-size="12" fill="#475569">10713</text>
<line x1="334.0" y1="710" x2="334.0" y2="90" stroke="#cbd5e1" stroke-width="1"/>
<text x="334.0" y="734" text-anchor="middle" font-family="monospace" font-size="11" fill="#475569">2021-04-07</text>
<line x1="90" y1="586.0" x2="1310" y2="586.0" stroke="#cbd5e1" stroke-width="1"/>
<text x="78" y="590.0" text-anchor="end" font-family="monospace" font-size="12" fill="#475569">60085</text>
<line x1="578.0" y1="710" x2="578.0" y2="90" stroke="#cbd5e1" stroke-width="1"/>
<text x="578.0" y="734" text-anchor="middle" font-family="monospace" font-size="11" fill="#475569">2022-07-13</text>
<line x1="90" y1="462.0" x2="1310" y2="462.0" stroke="#cbd5e1" stroke-width="1"/>
<text x="78" y="466.0" text-anchor="end" font-family="monospace" font-size="12" fill="#475569">109457</text>
<line x1="822.0" y1="710" x2="822.0" y2="90" stroke="#cbd5e1" stroke-width="1"/>
<text x="822.0" y="734" text-anchor="middle" font-family="monospace" font-size="11" fill="#475569">2023-10-18</text>
<line x1="90" y1="338.0" x2="1310" y2="338.0" stroke="#cbd5e1" stroke-width="1"/>
<text x="78" y="342.0" text-anchor="end" font-family="monospace" font-size="12" fill="#475569">158830</text>
<line x1="1066.0" y1="710" x2="1066.0" y2="90" stroke="#cbd5e1" stroke-width="1"/>
<text x="1066.0" y="734" text-anchor="middle" font-family="monospace" font-size="11" fill="#475569">2025-01-22</text>
<line x1="90" y1="214.0" x2="1310" y2="214.0" stroke="#cbd5e1" stroke-width="1"/>
<text x="78" y="218.0" text-anchor="end" font-family="monospace" font-size="12" fill="#475569">208202</text>
<line x1="1310.0" y1="710" x2="1310.0" y2="90" stroke="#cbd5e1" stroke-width="1"/>
<text x="1310.0" y="734" text-anchor="middle" font-family="monospace" font-size="11" fill="#475569">2026-04-29</text>
<line x1="90" y1="90.00000000000011" x2="1310" y2="90.00000000000011" stroke="#cbd5e1" stroke-width="1"/>
<text x="78" y="94.00000000000011" text-anchor="end" font-family="monospace" font-size="12" fill="#475569">257574</text>
<text x="700.0" y="782" text-anchor="middle" font-family="monospace" font-size="16" fill="#0f172a">time</text>
<text x="24" y="400.0" transform="rotate(-90 24,400.0)" text-anchor="middle" font-family="monospace" font-size="16" fill="#0f172a">portfolio_value_usd</text>
<line x1="970" y1="80" x2="988" y2="80" stroke="#0f766e" stroke-width="3"/>
<text x="998" y="84" font-family="monospace" font-size="12" fill="#0f172a">static_50_50_rebalance</text>
<line x1="970" y1="104" x2="988" y2="104" stroke="#dc2626" stroke-width="3"/>
<text x="998" y="108" font-family="monospace" font-size="12" fill="#0f172a">target_50_50_with_cash_band</text>
<line x1="970" y1="128" x2="988" y2="128" stroke="#2563eb" stroke-width="3"/>
<text x="998" y="132" font-family="monospace" font-size="12" fill="#0f172a">narrow_cash_band_rebalance</text>
<line x1="970" y1="152" x2="988" y2="152" stroke="#7c3aed" stroke-width="3"/>
<text x="998" y="156" font-family="monospace" font-size="12" fill="#0f172a">drawdown_tilt_rebalance</text>
<line x1="970" y1="176" x2="988" y2="176" stroke="#b45309" stroke-width="3"/>
<text x="998" y="180" font-family="monospace" font-size="12" fill="#0f172a">btc_defensive_eth_aggressive</text>
<polyline points="90.0,701.1457622578881 93.6969696969697,699.6681421864079 97.39393939393939,697.6570237205849 101.0909090909091,697.8532878096532 104.78787878787878,696.4914384134581 108.48484848484848,694.2927033444662 112.18181818181819,689.2742022425847 115.87878787878788,691.1287632029604 119.57575757575758,695.0262954610027 123.27272727272728,694.98395352322 126.96969696969697,698.7298839778673 130.66666666666666,709.3077129350231 134.36363636363637,705.2948246151905 138.06060606060606,705.3534730716643 141.75757575757575,700.632924394766 145.45454545454544,703.875506243461 149.15151515151516,700.2323645837365 152.84848484848484,694.1825748206517 156.54545454545456,694.800889911169 160.24242424242425,694.4303619095339 163.93939393939394,693.2363878984116 167.63636363636363,693.9229281345556 171.33333333333331,690.0634831125841 175.03030303030303,689.3503080599731 178.72727272727272,691.3148306042178 182.42424242424244,691.5871619119323 186.12121212121212,691.9411388077036 189.8181818181818,690.3088484046216 193.5151515151515,691.4637279584525 197.2121212121212,688.7992677198116 200.9090909090909,681.6418401404767 204.6060606060606,674.3704042551358 208.3030303030303,675.6990650844577 212.0,673.9722479529307 215.6969696969697,675.9615565428555 219.3939393939394,672.6915683684747 223.0909090909091,680.6627567827175 226.78787878787878,678.1676816679981 230.4848484848485,682.5663598429637 234.1818181818182,678.822542895518 237.87878787878788,680.242315898889 241.57575757575756,676.1736870556116 245.27272727272725,672.416270072113 248.96969696969697,671.6253703764479 252.66666666666666,668.8828391984248 256.3636363636364,661.7858144793786 260.06060606060606,656.7537427316371 263.75757575757575,649.0319524378115 267.45454545454544,646.2570962617007 271.1515151515151,649.0296997507927 274.8484848484849,639.7235205504749 278.5454545454545,639.5048926847508 282.24242424242425,618.8374935011825 285.93939393939394,576.3145507551603 289.6363636363636,580.1108167706066 293.3333333333333,569.3547600873595 297.030303030303,585.3602063244772 300.72727272727275,550.7235145557663 304.4242424242424,534.2077329785625 308.1212121212121,515.8307021561063 311.8181818181818,530.8438368754305 315.5151515151515,532.5521247788711 319.2121212121212,512.2012182118551 322.9090909090909,505.78144054871075 326.6060606060606,528.6083163397914 330.30303030303025,500.969851027701 334.0,503.3125966765901 337.6969696969697,469.0667187740419 341.3939393939394,487.6400883657154 345.09090909090907,468.32320733686277 348.7878787878788,431.43263901347245 352.4848484848485,433.84758795432913 356.1818181818182,504.30348996391245 359.8787878787879,483.9648829205997 363.57575757575756,493.51119573082576 367.27272727272725,497.22570842888257 370.969696969697,504.24025008172725 374.6666666666667,527.7339512143586 378.3636363636364,513.5876427992097 382.06060606060606,514.4069259274056 385.75757575757575,528.8425828678107 389.45454545454544,530.1600056614807 393.1515151515151,501.66696159632147 396.8484848484849,485.39697212652425 400.5454545454545,456.01578673877395 404.24242424242425,463.34036749548966 407.93939393939394,446.04066148854577 411.6363636363636,424.53628485187363 415.3333333333333,442.16651825105305 419.03030303030306,433.459734519609 422.7272727272727,462.2141221207605 426.42424242424244,474.8392359616773 430.1212121212121,416.8850312645227 433.8181818181818,411.0000769029288 437.5151515151515,371.4290050472399 441.21212121212125,396.936213211222 444.9090909090909,362.86873076523375 448.6060606060606,357.4356939882974 452.3030303030303,379.41441249097073 456.0,387.5012620365603 459.6969696969697,376.9130572311411 463.3939393939394,397.6248095964962 467.09090909090907,414.7129378590685 470.7878787878788,416.6662964560558 474.48484848484844,433.1214327012271 478.1818181818182,443.6310699323581 481.8787878787879,447.80839793510194 485.57575757575756,463.0453460571207 489.27272727272725,496.2234787709294 492.969696969697,488.6248391373978 496.66666666666663,449.54619199572153 500.3636363636364,455.13959105542136 504.06060606060606,491.41091915405457 507.75757575757575,460.9492908060008 511.45454545454544,473.942906336511 515.1515151515152,474.3080700134053 518.8484848484848,460.0289163299911 522.5454545454545,436.5486968590569 526.2424242424242,454.4275073343431 529.939393939394,461.42926204045943 533.6363636363636,462.31814670134906 537.3333333333333,474.59959357124626 541.030303030303,471.6827054637928 544.7272727272727,531.3175045241809 548.4242424242424,538.1348000170703 552.1212121212121,534.7829005407478 555.8181818181818,538.7353159739484 559.5151515151515,538.6654432995831 563.2121212121212,580.7535704349349 566.909090909091,595.3642467857084 570.6060606060605,592.9283825309484 574.3030303030303,587.9741156064123 578.0,592.0178276808332 581.6969696969697,565.105964327441 585.3939393939394,560.7317559366894 589.0909090909091,561.9139753080256 592.7878787878788,548.2159823039754 596.4848484848485,550.9443745369497 600.1818181818181,564.4645588612277 603.8787878787879,572.9156005502238 607.5757575757576,572.1710343994755 611.2727272727273,568.7192857331156 614.969696969697,590.7261204525838 618.6666666666666,583.8098287357205 622.3636363636364,580.7450937040346 626.060606060606,586.4667655396146 629.7575757575758,586.9966151515969 633.4545454545454,568.9128461923328 637.1515151515151,573.0451784146062 640.8484848484849,605.0597135715946 644.5454545454545,597.4189400702428 648.2424242424242,599.0503343844331 651.939393939394,592.0079959658975 655.6363636363636,595.9721128054114 659.3333333333334,589.2823460060087 663.0303030303031,596.7966162507315 666.7272727272727,598.8719567661377 670.4242424242425,594.7623379120798 674.1212121212121,585.0016184745747 677.8181818181818,570.3638047334947 681.5151515151515,557.9758358776432 685.2121212121211,554.5103345296718 688.9090909090909,556.5487283538198 692.6060606060606,551.1973067243164 696.3030303030303,553.0564839733338 700.0,553.7633740072389 703.6969696969697,565.6105981354946 707.3939393939395,551.7067666780358 711.090909090909,538.9533768829574 714.7878787878788,533.4180747979713 718.4848484848485,528.7347289379476 722.1818181818182,523.1795957039949 725.8787878787879,525.6701389796872 729.5757575757576,529.7894775156847 733.2727272727273,526.2712149845779 736.9696969696969,533.1902429922086 740.6666666666666,534.7072031471439 744.3636363636364,538.908574690133 748.0606060606061,532.9464304188361 751.7575757575759,537.3855568876188 755.4545454545454,549.0014709394972 759.1515151515151,523.7749235459196 762.8484848484849,526.3274527703275 766.5454545454546,521.3523888392522 770.2424242424242,523.4296355686056 773.9393939393939,523.9681577813453 777.6363636363636,526.3279575291048 781.3333333333334,528.356781317038 785.030303030303,526.5317729071483 788.7272727272727,531.1921547465638 792.4242424242425,543.4307528878167 796.121212121212,539.687070188866 799.8181818181818,547.5699051743428 803.5151515151515,547.2827803920952 807.2121212121212,544.013407541933 810.909090909091,547.3763305830114 814.6060606060606,540.9532868698035 818.3030303030303,547.367864478513 822.0,543.370283510629 825.6969696969697,515.2585724249599 829.3939393939394,509.80206150268873 833.0909090909091,507.2601541897502 836.7878787878788,493.08423790253124 840.4848484848484,494.0572562658876 844.1818181818181,494.5761765647462 847.8787878787879,469.66741138132954 851.5757575757576,470.5390621487443 855.2727272727274,471.35367279264085 858.9696969696969,463.29922799262874 862.6666666666666,472.8060527613567 866.3636363636364,445.65947896076204 870.0606060606061,458.051473945835 873.7575757575758,478.0232396427978 877.4545454545455,469.555436978746 881.1515151515151,458.3960365122997 884.8484848484849,423.16884097301187 888.5454545454545,414.4759052966132 892.2424242424242,369.3986308671041 895.939393939394,341.5577794053999 899.6363636363637,316.7704531915329 903.3333333333333,349.9456124101949 907.030303030303,347.0236090747255 910.7272727272727,362.9387682485361 914.4242424242425,342.23702686248186 918.1212121212121,387.8737101939146 921.8181818181818,374.32817110128116 925.5151515151515,395.48933942121516 929.2121212121212,388.64733771267277 932.9090909090909,374.3319284994263 936.6060606060606,335.7165650056057 940.3030303030304,338.02764382340933 944.0,325.42606173786834 947.6969696969696,345.21672761043476 951.3939393939394,352.7927897814781 955.0909090909091,370.54453125558354 958.7878787878789,375.47607626932717 962.4848484848485,389.5555664261688 966.1818181818181,361.76935610439205 969.8787878787879,361.06678396532976 973.5757575757576,367.4261480722108 977.2727272727273,429.17887499229903 980.969696969697,406.6752753189827 984.6666666666666,402.48886492920667 988.3636363636364,411.96189571484183 992.060606060606,418.0022599988005 995.7575757575758,424.58021136500014 999.4545454545455,413.2644713062626 1003.1515151515152,400.4190661596657 1006.8484848484848,416.3190755954656 1010.5454545454545,416.1893388451992 1014.2424242424242,389.1652038476746 1017.939393939394,395.74705935747244 1021.6363636363636,376.95586326770433 1025.3333333333335,366.80406952366286 1029.030303030303,312.9310566603819 1032.7272727272727,311.6315634535501 1036.4242424242425,277.83501497782254 1040.121212121212,263.017002335148 1043.818181818182,258.7819657148008 1047.5151515151515,271.31133520108006 1051.212121212121,279.42774423228667 1054.909090909091,295.80220871206916 1058.6060606060605,295.96922354563986 1062.3030303030305,279.3243442134018 1066.0,284.43695113583397 1069.6969696969695,290.95770557303456 1073.3939393939395,320.6243096653758 1077.090909090909,321.1396144983797 1080.7878787878788,324.5062160504099 1084.4848484848485,366.6490306910851 1088.1818181818182,360.425068944064 1091.878787878788,390.6173097488865 1095.5757575757575,376.8921591947213 1099.2727272727273,379.4861302783613 1102.969696969697,399.1102265887615 1106.6666666666667,406.1890313278264 1110.3636363636363,409.2477358111714 1114.060606060606,380.8072943633421 1117.7575757575758,380.248173464253 1121.4545454545455,374.76623769643186 1125.1515151515152,315.84846890293676 1128.848484848485,310.0853652212871 1132.5454545454545,304.8340507064669 1136.2424242424242,314.18021358089777 1139.939393939394,297.71683382172307 1143.6363636363637,319.2629926617994 1147.3333333333333,322.06600129731794 1151.030303030303,310.01410090032414 1154.7272727272727,293.3737684190215 1158.4242424242425,242.81398917021738 1162.121212121212,226.7834603907216 1165.8181818181818,217.74841213065207 1169.5151515151515,229.43417223231774 1173.2121212121212,156.25428542661507 1176.9090909090908,192.81509973007883 1180.6060606060605,189.0293050459153 1184.3030303030303,190.92292386612883 1188.0,192.28617535579895 1191.6969696969697,176.040706617772 1195.3939393939393,202.9434115518622 1199.090909090909,184.17444890396382 1202.7878787878788,167.35576715374577 1206.4848484848485,215.9411862196804 1210.1818181818182,230.65313069652575 1213.878787878788,221.41730191989973 1217.5757575757575,256.7495613993559 1221.2727272727273,261.1885996825042 1224.969696969697,299.52437050182976 1228.6666666666667,301.1273665088219 1232.3636363636365,287.14236271531996 1236.0606060606062,282.54593879550174 1239.7575757575758,319.5368441636594 1243.4545454545455,310.877714737127 1247.1515151515152,309.90241959391886 1250.848484848485,291.93791790007174 1254.5454545454545,270.79774853193976 1258.2424242424242,305.9932697065649 1261.939393939394,304.89709551042984 1265.6363636363635,384.4990536646909 1269.3333333333333,407.6069267736674 1273.030303030303,407.89175071850497 1276.7272727272727,398.8398044333482 1280.4242424242423,385.4679336060884 1284.121212121212,394.77345982083165 1287.8181818181818,383.69543823131073 1291.5151515151515,385.72924217512724 1295.2121212121212,393.70284488275547 1298.909090909091,384.7111591528397 1302.6060606060605,366.6756652457638 1306.3030303030303,359.08041117929776 1310.0,371.6561284981643" fill="none" stroke="#0f766e" stroke-width="2.5"><title>static_50_50_rebalance | end=2026-04-29 | return=921.41%</title></polyline>
<polyline points="90.0,701.1457622578881 93.6969696969697,699.6681421864079 97.39393939393939,697.7039893493377 101.0909090909091,697.8790150582507 104.78787878787878,696.6332278665162 108.48484848484848,694.5008192661547 112.18181818181819,689.6419607938059 115.87878787878788,691.2970465667886 119.57575757575758,694.7793853654231 123.27272727272728,694.7410186554521 126.96969696969697,698.0484569740603 130.66666666666666,707.4276099106439 134.36363636363637,703.7691379050191 138.06060606060606,703.8227463305906 141.75757575757575,699.4973530815603 145.45454545454544,702.4460725646788 149.15151515151516,699.1264446591462 152.84848484848484,693.6437066229392 156.54545454545456,694.1983124841823 160.24242424242425,693.8677964574257 163.93939393939394,692.8060223715181 167.63636363636363,693.4146432942746 171.33333333333331,689.9955371496865 175.03030303030303,689.3671510600461 178.72727272727272,691.091913416428 182.42424242424244,691.3311652447469 186.12121212121212,691.6424130977714 189.8181818181818,690.205912183858 193.5151515151515,691.2204729314413 197.2121212121212,688.8781585177718 200.9090909090909,683.9346138443166 204.6060606060606,679.6513701457761 208.3030303030303,680.3499120217177 212.0,679.4953155092791 215.6969696969697,680.4413247720323 219.3939393939394,678.9039483947133 223.0909090909091,682.5761348699453 226.78787878787878,681.2999655907187 230.4848484848485,683.7646200587915 234.1818181818182,681.4903365888681 237.87878787878788,682.3825814768302 241.57575757575756,679.7480443908829 245.27272727272725,677.3084610259351 248.96969696969697,676.7993052969462 252.66666666666666,675.0506229780697 256.3636363636364,670.5706016147914 260.06060606060606,667.8633286770212 263.75757575757575,664.1233065865898 267.45454545454544,662.8740876109744 271.1515151515151,664.0650524015184 274.8484848484849,660.1380525807535 278.5454545454545,660.0489076850096 282.24242424242425,651.7180129503058 285.93939393939394,635.4547608964765 289.6363636363636,636.7948813225424 293.3333333333333,633.1737606246867 297.030303030303,638.4297433524656 300.72727272727275,626.2051573813276 304.4242424242424,620.7211149511853 308.1212121212121,615.0378503684962 311.8181818181818,619.4231492951665 315.5151515151515,619.9267095991131 319.2121212121212,613.3028282043956 322.9090909090909,611.3475249594462 326.6060606060606,617.8807701895215 330.30303030303025,609.6303702439419 334.0,610.3167255403348 337.6969696969697,600.7902822441528 341.3939393939394,605.7964607364852 345.09090909090907,600.2058733681259 348.7878787878788,590.0604484265733 352.4848484848485,591.1194602470449 356.1818181818182,611.8461837317351 359.8787878787879,605.6566266598937 363.57575757575756,608.7027365129137 367.27272727272725,609.9156122797035 370.969696969697,612.2330026442688 374.6666666666667,620.4706591028896 378.3636363636364,615.3956487901626 382.06060606060606,615.7421363749309 385.75757575757575,621.2130218401119 389.45454545454544,621.7518552159129 393.1515151515151,610.0937858307008 396.8484848484849,603.5333548629885 400.5454545454545,591.0994934409065 404.24242424242425,594.2904560679394 407.93939393939394,586.7003347914102 411.6363636363636,577.2781970400789 415.3333333333333,584.4515959301675 419.03030303030306,580.771108391556 422.7272727272727,592.0312863764628 426.42424242424244,597.0715305855822 430.1212121212121,573.2536943143854 433.8181818181818,571.2702834966789 437.5151515151515,559.6074931454382 441.21212121212125,566.4813594703189 444.9090909090909,557.6277591604239 448.6060606060606,556.2540492591738 452.3030303030303,561.6342301718132 456.0,563.6211680259796 459.6969696969697,560.9157334760251 463.3939393939394,566.3450247453063 467.09090909090907,571.1656294658208 470.7878787878788,571.7266068351951 474.48484848484844,576.585579330964 478.1818181818182,579.692037619551 481.8787878787879,581.0345239112979 485.57575757575756,585.8704492776571 489.27272727272725,596.67226764148 492.969696969697,594.0755927311019 496.66666666666663,580.6869655341757 500.3636363636364,582.6769189814413 504.06060606060606,595.8682643432105 507.75757575757575,584.5214484430016 511.45454545454544,589.519674478941 515.1515151515152,589.6951312664428 518.8484848484848,583.9413567390554 522.5454545454545,574.1453003719115 526.2424242424242,581.8788850186377 529.939393939394,584.9740664268273 533.6363636363636,585.3855603105211 537.3333333333333,591.0701845753397 541.030303030303,589.6937077834092 544.7272727272727,618.4132045150592 548.4242424242424,621.7812177964564 552.1212121212121,620.1134258636881 555.8181818181818,622.14204333197 559.5151515151515,622.093446272283 563.2121212121212,644.9259220138408 566.909090909091,653.0109331854541 570.6060606060605,651.6515567775695 574.3030303030303,648.8147101003489 578.0,651.1726625833367 581.6969696969697,635.0422046638946 585.3939393939394,632.418807619475 589.0909090909091,633.1711835802909 592.7878787878788,624.2710800718555 596.4848484848485,626.057848796186 600.1818181818181,635.0120358692794 603.8787878787879,640.6184274073605 607.5757575757576,640.1205233095989 611.2727272727273,637.8195417279843 614.969696969697,652.4111520866377 618.6666666666666,647.8131020543402 622.3636363636364,645.7884591142155 626.060606060606,649.5934564919462 629.7575757575758,649.9462080772403 633.4545454545454,638.039962391464 637.1515151515151,640.7656374459814 640.8484848484849,661.8927464167015 644.5454545454545,656.8572375762878 648.2424242424242,657.923653167909 651.939393939394,653.3565376912544 655.6363636363636,655.9276811520908 659.3333333333334,651.5972398091319 663.0303030303031,656.471990899523 666.7272727272727,657.8153006113671 670.4242424242425,655.1606949487389 674.1212121212121,648.8508445071469 677.8181818181818,639.3469041976188 681.5151515151515,631.2444066109979 685.2121212121211,628.9602943442837 688.9090909090909,630.3103578888587 692.6060606060606,626.7589476641781 696.3030303030303,627.9961640932322 700.0,628.466855587793 703.6969696969697,636.3574134904261 707.3939393939395,627.136861218265 711.090909090909,618.6563266433534 714.7878787878788,614.9562168762504 718.4848484848485,611.8117896541111 722.1818181818182,608.0695897518638 725.8787878787879,609.4360668406165 729.5757575757576,612.1470599649633 733.2727272727273,610.0055233784731 736.9696969696969,614.0541416514012 740.6666666666666,614.7563681940713 744.3636363636364,616.2813310616126 748.0606060606061,613.9243902228727 751.7575757575759,615.4523648074187 755.4545454545454,619.2693226250598 759.1515151515151,610.7083526897525 762.8484848484849,611.5270522891801 766.5454545454546,609.9925220537278 770.2424242424242,610.6188429824849 773.9393939393939,610.7791775822775 777.6363636363636,611.4807381843564 781.3333333333334,612.0845098480437 785.030303030303,611.5399056015453 788.7272727272727,612.9295754169572 792.4242424242425,616.5982664435573 796.121212121212,615.4262870588923 799.8181818181818,618.0165014902512 803.5151515151515,617.919140257818 807.2121212121212,616.7427266547154 810.909090909091,618.0099247125538 814.6060606060606,615.4875798264891 818.3030303030303,618.0969063957127 822.0,616.3550206840612 825.6969696969697,603.8511762126326 829.3939393939394,601.5247774242225 833.0909090909091,600.6094575246086 836.7878787878788,595.9344648354493 840.4848484848484,596.2378499362865 844.1818181818181,596.3917577636976 847.8787878787879,589.0451125865138 851.5757575757576,589.2953214563746 855.2727272727274,589.5239612552358 858.9696969696969,587.2735235052701 862.6666666666666,589.9020541720472 866.3636363636364,582.3714989011662 870.0606060606061,585.7342090990943 873.7575757575758,591.1746772467928 877.4545454545455,588.8214426610766 881.1515151515151,585.727927936993 884.8484848484849,576.0627405133588 888.5454545454545,573.7561504348402 892.2424242424242,562.0674397345745 895.939393939394,555.1413134816623 899.6363636363637,549.205389629745 903.3333333333333,556.8876403081763 907.030303030303,556.2114712698899 910.7272727272727,559.9388064569234 914.4242424242425,554.928388904392 918.1212121212121,565.7403458568016 921.8181818181818,562.4302380458563 925.5151515151515,567.7722677797384 929.2121212121212,565.9948409261914 932.9090909090909,562.1509759733494 936.6060606060606,551.5619513243163 940.3030303030304,552.169749202842 944.0,549.0625122991067 947.6969696969696,553.743148885414 951.3939393939394,555.5338617807672 955.0909090909091,559.7404230742969 958.7878787878789,560.9438957338948 962.4848484848485,564.4797434068129 966.1818181818181,557.3087207285961 969.8787878787879,557.1132358899982 973.5757575757576,558.8557871419682 977.2727272727273,576.3067905213718 980.969696969697,569.7033015351499 984.6666666666666,568.3453019314679 988.3636363636364,571.3391353680756 992.060606060606,573.2832823312801 995.7575757575758,575.412429323329 999.4545454545455,571.3452232063528 1003.1515151515152,566.9412466491119 1006.8484848484848,572.6085059951581 1010.5454545454545,572.5706352885004 1014.2424242424242,562.1064295607041 1017.939393939394,564.5698410931918 1021.6363636363636,557.2236266022618 1025.3333333333335,553.244385937188 1029.030303030303,532.286101993036 1032.7272727272727,531.7326874348857 1036.4242424242425,519.9027693902583 1040.121212121212,515.5404939781534 1043.818181818182,514.4209561905808 1047.5151515151515,517.5376123825472 1051.212121212121,519.511347722487 1054.909090909091,523.4632076882745 1058.6060606060605,523.5077146146982 1062.3030303030305,519.2783715995926 1066.0,520.5819110065705 1069.6969696969695,522.3079313140809 1073.3939393939395,530.5762484101855 1077.090909090909,530.6691058025065 1080.7878787878788,531.6812383835057 1084.4848484848485,544.5229383791939 1088.1818181818182,542.3478768334884 1091.878787878788,551.938181075741 1095.5757575757575,547.4386741145602 1099.2727272727273,548.2621966634753 1102.969696969697,555.0224412170589 1106.6666666666667,557.3811686951575 1110.3636363636363,558.2956551706189 1114.060606060606,547.2608732061606 1117.7575757575758,547.0168351624361 1121.4545454545455,544.7535867932298 1125.1515151515152,522.2298912610511 1128.848484848485,519.5864057527672 1132.5454545454545,517.6723321040339 1136.2424242424242,521.4407765440149 1139.939393939394,514.8185723126367 1143.6363636363637,522.8904715506542 1147.3333333333333,523.8785406092984 1151.030303030303,519.2479684074335 1154.7272727272727,512.7701323572396 1158.4242424242425,494.13391308358837 1162.121212121212,488.47737463666607 1165.8181818181818,485.7790065688787 1169.5151515151515,489.0287471441015 1173.2121212121212,469.8805816429932 1176.9090909090908,479.20842277109307 1180.6060606060605,478.44606706537763 1184.3030303030303,478.8671760049489 1188.0,479.0496759066989 1191.6969696969697,475.0521951979111 1195.3939393939393,481.55726235367524 1199.090909090909,476.81770594022964 1202.7878787878788,472.62458088976973 1206.4848484848485,484.4720189541526 1210.1818181818182,488.1123579289166 1213.878787878788,485.766830910163 1217.5757575757575,494.80412703898116 1221.2727272727273,496.01089927430417 1224.969696969697,506.3345533975911 1228.6666666666667,506.79384643014 1232.3636363636365,502.89032661111537 1236.0606060606062,501.6594915698389 1239.7575757575758,512.309472096149 1243.4545454545455,509.7647899358816 1247.1515151515152,509.48133784304457 1250.848484848485,503.9765138719439 1254.5454545454545,497.35236018428634 1258.2424242424242,508.5035952083665 1261.939393939394,508.1638790922059 1265.6363636363635,534.1796209228712 1269.3333333333333,541.9509176972839 1273.030303030303,542.0656187249984 1276.7272727272727,538.9173148784083 1280.4242424242423,534.099470172562 1284.121212121212,537.5176506994376 1287.8181818181818,533.4516840830421 1291.5151515151515,534.1981827547363 1295.2121212121212,537.358808508382 1298.909090909091,533.7761717613704 1302.6060606060605,526.5803509781792 1306.3030303030303,523.3723545354687 1310.0,528.5790756122371" fill="none" stroke="#dc2626" stroke-width="2.5"><title>target_50_50_with_cash_band | end=2026-04-29 | return=482.58%</title></polyline>
<polyline points="90.0,701.1457622578881 93.6969696969697,699.6681421864079 97.39393939393939,697.6570237205849 101.0909090909091,697.8503883652897 104.78787878787878,696.5033498690871 108.48484848484848,694.3091637609895 112.18181818181819,689.2993136180052 115.87878787878788,691.1420622768494 119.57575757575758,694.9995967660706 123.27272727272728,694.9581342300047 126.96969696969697,698.6633668518834 130.66666666666666,709.1348097057614 134.36363636363637,705.177021644696 138.06060606060606,705.2355138031331 141.75757575757575,700.5635428458503 145.45454545454544,703.8044718340428 149.15151515151516,700.160736172423 152.84848484848484,694.1005253055018 156.54545454545456,694.7333436792687 160.24242424242425,694.3598431656751 163.93939393939394,693.1617758568453 167.63636363636363,693.8533772968598 171.33333333333331,689.980469412927 175.03030303030303,689.2644850518877 178.72727272727272,691.2410630815169 182.42424242424244,691.5127031422803 186.12121212121212,691.8682266707091 189.8181818181818,690.2308625947745 193.5151515151515,691.3892972718518 197.2121212121212,688.7159307053082 200.9090909090909,682.0654137654774 204.6060606060606,675.5994268955818 208.3030303030303,676.7420584895433 212.0,675.2901117280073 215.6969696969697,676.9296470689245 219.3939393939394,674.2479942023485 223.0909090909091,680.6963736023894 226.78787878787878,678.5769540495926 230.4848484848485,682.5293465198421 234.1818181818182,679.0456194677936 237.87878787878788,680.4025683365473 241.57575757575756,676.441971752302 245.27272727272725,672.7389783595363 248.96969696969697,671.9499467276585 252.66666666666666,669.2191687799121 256.3636363636364,662.1588260256971 260.06060606060606,657.49023739625 263.75757575757575,650.72458883436 267.45454545454544,648.3652400576838 271.1515151515151,650.6673127399778 274.8484848484849,643.0632445004092 278.5454545454545,642.8908442544621 282.24242424242425,626.3341459452037 285.93939393939394,592.8653268194278 289.6363636363636,595.8259631410898 293.3333333333333,587.5947733826504 297.030303030303,599.7465611665505 300.72727272727275,572.3041373159435 304.4242424242424,559.6110402419447 308.1212121212121,545.884254963162 311.8181818181818,556.8989315150741 315.5151515151515,558.13089451008 319.2121212121212,542.4804894126697 322.9090909090909,537.6274080921787 326.6060606060606,554.2292917131824 330.30303030303025,533.9460439664942 334.0,535.7173711174565 337.6969696969697,511.22322807062596 341.3939393939394,524.4330088543571 345.09090909090907,509.9466292439879 348.7878787878788,482.80138175915783 352.4848484848485,484.4814983765201 356.1818181818182,538.2860498942648 359.8787878787879,522.5811097359942 363.57575757575756,529.6530268593053 367.27272727272725,532.4285769273536 370.969696969697,537.7045854866591 374.6666666666667,555.4028579189937 378.3636363636364,544.6756010507845 382.06060606060606,545.2953439196173 385.75757575757575,556.4048563942499 389.45454545454544,557.4176867156186 393.1515151515151,535.3284128419039 396.8484848484849,522.6218560946236 400.5454545454545,500.22976496070885 404.24242424242425,505.99609825906794 407.93939393939394,492.7224222644003 411.6363636363636,476.34333455004924 415.3333333333333,490.3596445873752 419.03030303030306,483.3696666911769 422.7272727272727,506.76426597875576 426.42424242424244,516.6051905950706 430.1212121212121,471.7293971529628 433.8181818181818,467.34472637002204 437.5151515151515,439.1992654410188 441.21212121212125,456.9618410065651 444.9090909090909,433.6992191833116 448.6060606060606,429.9966407794717 452.3030303030303,444.7447172888129 456.0,450.1462293751365 459.6969696969697,442.92098944668606 463.3939393939394,457.0426560708876 467.09090909090907,469.3842188790078 470.7878787878788,470.78767302537085 474.48484848484844,482.6994657563426 478.1818181818182,490.0169337223719 481.8787878787879,492.9516599962244 485.57575757575756,503.6188737422875 489.27272727272725,526.9658719712328 492.969696969697,521.5615091527468 496.66666666666663,493.7096809116381 500.3636363636364,497.73934065301927 504.06060606060606,524.2869397726934 507.75757575757575,501.77006909171405 511.45454545454544,511.47099811956883 515.1515151515152,511.8705573856355 518.8484848484848,501.0590100921693 522.5454545454545,482.7783762739082 526.2424242424242,497.1097306995123 529.939393939394,502.8214918559937 533.6363636363636,503.52999636268385 537.3333333333333,513.6616922867148 541.030303030303,511.24296984315083 544.7272727272727,561.3557031219635 548.4242424242424,567.0728674862446 552.1212121212121,564.2229263917129 555.8181818181818,567.5322782287215 559.5151515151515,567.4172325052655 563.2121212121212,604.7031971499631 566.909090909091,617.6951656925705 570.6060606060605,615.5826009872053 574.3030303030303,611.2256997547212 578.0,614.7870790291066 581.6969696969697,590.8057876128524 585.3939393939394,586.9921449862526 589.0909090909091,588.087179876891 592.7878787878788,575.250796476847 596.4848484848485,577.8406611747889 600.1818181818181,590.7498462017604 603.8787878787879,598.7965933387093 607.5757575757576,598.0724670027547 611.2727272727273,594.8048427381958 614.969696969697,615.7310216811957 618.6666666666666,609.1614761806808 622.3636363636364,606.2586513543938 626.060606060606,611.697313081637 629.7575757575758,612.1992542698379 633.4545454545454,595.2033261525703 637.1515151515151,599.1098203120725 640.8484848484849,629.4134000418835 644.5454545454545,622.2198160211402 648.2424242424242,623.7451539891537 651.939393939394,617.2140621409568 655.6363636363636,620.8988659209912 659.3333333333334,614.6985844006359 663.0303030303031,621.6835975575842 666.7272727272727,623.6072241117832 670.4242424242425,619.8083087748786 674.1212121212121,610.7690179981072 677.8181818181818,597.1563133817003 681.5151515151515,585.5291569917254 685.2121212121211,582.2463121897295 688.9090909090909,584.1952920146344 692.6060606060606,579.0937892246634 696.3030303030303,580.8669180043858 700.0,581.5498589779834 703.6969696969697,592.8623743525226 707.3939393939395,579.6591284539747 711.090909090909,567.4992801814078 714.7878787878788,562.189418113567 718.4848484848485,557.7074968023189 722.1818181818182,552.3337953111429 725.8787878787879,554.3956189014764 729.5757575757576,558.2903457641811 733.2727272727273,555.1913680900475 736.9696969696969,561.051993704539 740.6666666666666,562.2954737355992 744.3636363636364,565.3845912735513 748.0606060606061,560.7207138968465 751.7575757575759,564.0079415083383 755.4545454545454,572.5801597235442 759.1515151515151,553.9488079314829 762.8484848484849,555.8194366223406 766.5454545454546,552.2593389245723 770.2424242424242,553.7309454509675 773.9393939393939,554.1107868077453 777.6363636363636,555.7655823473042 781.3333333333334,557.1869238139375 785.030303030303,555.9097257262799 788.7272727272727,559.1701006065817 792.4242424242425,567.7392296768843 796.121212121212,565.083740874227 799.8181818181818,570.793698855991 803.5151515151515,570.5849635072409 807.2121212121212,568.122633995361 810.909090909091,570.7152188326347 814.6060606060606,565.6662542877111 818.3030303030303,570.7840263593353 822.0,567.4243604096534 825.6969696969697,545.1902744670351 829.3939393939394,540.7563920744309 833.0909090909091,538.8090510292081 836.7878787878788,528.2721982820269 840.4848484848484,528.982201280349 844.1818181818181,529.3521090726435 847.8787878787879,511.72315087001385 851.5757575757576,512.3428583713312 855.2727272727274,512.9020979064175 858.9696969696969,507.35402983508476 862.6666666666666,513.9015452497088 866.3636363636364,495.2544518431639 870.0606060606061,503.7110370041071 873.7575757575758,517.408399036589 877.4545454545455,511.6019769306182 881.1515151515151,503.95879650010306 884.8484848484849,479.8826756148613 888.5454545454545,473.9944890361687 892.2424242424242,443.6398804650878 895.939393939394,425.08964825434816 899.6363636363637,408.7779864694624 903.3333333333333,430.38367671517443 907.030303030303,428.4861514772442 910.7272727272727,438.86438710574754 914.4242424242425,425.2266311067496 918.1212121212121,455.03318650183047 921.8181818181818,446.12551082318464 925.5151515151515,460.2098017558102 929.2121212121212,455.6118546670554 932.9090909090909,445.89172074740594 936.6060606060606,419.8471028591657 940.3030303030304,421.45288539870785 944.0,413.0307691811598 947.6969696969696,425.98499753374426 951.3939393939394,430.9383167150018 955.0909090909091,442.5072667285231 958.7878787878789,445.7436280492485 962.4848484848485,455.04093035447335 966.1818181818181,436.6077890479861 969.8787878787879,436.11886820765034 973.5757575757576,440.4338443632572 977.2727272727273,482.86172100024567 980.969696969697,467.1662505968875 984.6666666666666,463.97648946395464 988.3636363636364,470.8412274807886 992.060606060606,475.2143753628402 995.7575757575758,479.9032077167018 999.4545454545455,470.98061866970477 1003.1515151515152,461.60819868202617 1006.8484848484848,473.5315978645669 1010.5454545454545,473.4571699039345 1014.2424242424242,451.9085354502983 1017.939393939394,456.75293401914615 1021.6363636363636,443.05413832237235 1025.3333333333335,435.8406610658708 1029.030303030303,398.0181076095371 1032.7272727272727,397.1228008963593 1036.4242424242425,372.5862956326962 1040.121212121212,362.2019359052191 1043.818181818182,359.3091702504755 1047.5151515151515,367.63890701066833 1051.212121212121,372.9828122428122 1054.909090909091,383.73397837670717 1058.6060606060605,383.8451978783328 1062.3030303030305,372.74613121051414 1066.0,376.0520648085065 1069.6969696969695,380.4044598789061 1073.3939393939395,401.0366659247985 1077.090909090909,401.33303437662204 1080.7878787878788,403.6150191584521 1084.4848484848485,431.96283965077214 1088.1818181818182,427.91215338398507 1091.878787878788,448.3600591482036 1095.5757575757575,439.0211025878916 1099.2727272727273,440.8199929398253 1102.969696969697,454.2530226529738 1106.6666666666667,459.20974213505053 1110.3636363636363,461.3772324018505 1114.060606060606,441.05610223584796 1117.7575757575758,440.6647677828719 1121.4545454545455,436.86056193615406 1125.1515151515152,394.9495472228162 1128.848484848485,391.15432013886647 1132.5454545454545,387.2095470051747 1136.2424242424242,393.7013614114472 1139.939393939394,382.11954844719645 1143.6363636363637,397.53157747141836 1147.3333333333333,399.8896889138845 1151.030303030303,391.1879965574814 1154.7272727272727,379.2059421007114 1158.4242424242425,342.33761371408644 1162.121212121212,329.9155414181781 1165.8181818181818,323.16358492994254 1169.5151515151515,331.2236533193169 1173.2121212121212,281.2970748814181 1176.9090909090908,305.9059053886505 1180.6060606060605,303.39272275039946 1184.3030303030303,304.63599318735174 1188.0,305.4606402361772 1191.6969696969697,294.7943784240778 1195.3939393939393,312.3721995747007 1199.090909090909,299.90574375673623 1202.7878787878788,288.7251885817059 1206.4848484848485,320.84759658715944 1210.1818181818182,330.5706768700172 1213.878787878788,324.4179045399888 1217.5757575757575,347.82918206765163 1221.2727272727273,350.8749586763009 1224.969696969697,376.68814201432826 1228.6666666666667,377.8081228196592 1232.3636363636365,368.36315803427163 1236.0606060606062,365.40060987169215 1239.7575757575758,390.43266974252055 1243.4545454545455,384.54722099641486 1247.1515151515152,383.89895850977274 1250.848484848485,371.54094168290567 1254.5454545454545,356.87037877810224 1258.2424242424242,381.2895743026951 1261.939393939394,380.5528734955741 1265.6363636363635,436.12501556314714 1269.3333333333333,452.4676103481834 1273.030303030303,452.70760656968815 1276.7272727272727,446.29854752096145 1280.4242424242423,436.6032244037017 1284.121212121212,443.3841640280986 1287.8181818181818,435.45604672873964 1291.5151515151515,436.8887541268036 1295.2121212121212,442.96055187482574 1298.909090909091,436.1685815019858 1302.6060606060605,422.72582247290563 1306.3030303030303,416.74209669455126 1310.0,426.28138405649867" fill="none" stroke="#2563eb" stroke-width="2.5"><title>narrow_cash_band_rebalance | end=2026-04-29 | return=768.65%</title></polyline>
<polyline points="90.0,701.1457622578881 93.6969696969697,699.6681421864079 97.39393939393939,697.671462768594 101.0909090909091,697.8572517351583 104.78787878787878,696.5554316858693 108.48484848484848,694.3900456417814 112.18181818181819,689.4522650274519 115.87878787878788,691.2059116718423 119.57575757575758,694.8883507645556 123.27272727272728,694.8482073045168 126.96969696969697,698.3621192473577 130.66666666666666,708.3025480470201 134.36363636363637,704.4921342218661 138.06060606060606,704.5482240453756 141.75757575757575,700.0416472233823 145.45454545454544,703.1415938337273 149.15151515151516,699.6549824527008 152.84848484848484,693.8763193934406 156.54545454545456,694.4703931522648 160.24242424242425,694.1180577265717 163.93939393939394,692.9874035214797 167.63636363636363,693.6377071756854 171.33333333333331,689.9903412081129 175.03030303030303,689.3179688335696 178.72727272727272,691.1688033638063 182.42424242424244,691.4243616482745 186.12121212121212,691.7576744313194 189.8181818181818,690.2210261310886 193.5151515151515,691.3074924684461 197.2121212121212,688.8000200478859 200.9090909090909,682.671939968262 204.6060606060606,676.784600029306 208.3030303030303,677.8121089306661 212.0,676.5082815143594 215.6969696969697,677.9859027446475 219.3939393939394,675.5020489201296 223.0909090909091,681.3385251872511 226.78787878787878,679.4193293582696 230.4848484848485,682.9784698514808 234.1818181818182,679.8033934436052 237.87878787878788,681.0824892740486 241.57575757575756,677.3402256968718 245.27272727272725,674.087265775607 248.96969696969697,673.5011257340167 252.66666666666666,671.0974598524596 256.3636363636364,664.4993694344427 260.06060606060606,660.5703964722451 263.75757575757575,654.3730502313322 267.45454545454544,652.2638727345551 271.1515151515151,654.2869019241355 274.8484848484849,647.6316362112346 278.5454545454545,647.543401913628 282.24242424242425,633.0988838556233 285.93939393939394,603.8670028766895 289.6363636363636,606.439883748736 293.3333333333333,599.200878144129 297.030303030303,609.2228109307013 300.72727272727275,586.5979173996532 304.4242424242424,575.9667153846106 308.1212121212121,564.5067219036422 311.8181818181818,573.5255888394564 315.5151515151515,574.5103106515306 319.2121212121212,561.5958753478619 322.9090909090909,557.6425287080273 326.6060606060606,571.3533004386034 330.30303030303025,554.4456476861461 334.0,555.8749518498544 337.6969696969697,535.6255732956556 341.3939393939394,546.5350589405218 345.09090909090907,534.7366136259113 348.7878787878788,513.7800918368405 352.4848484848485,515.9746679821028 356.1818181818182,556.8605334022484 359.8787878787879,545.0094148191127 363.57575757575756,550.7396405308025 367.27272727272725,552.9614067315911 370.969696969697,557.1032975448948 374.6666666666667,571.6909760253986 378.3636363636364,562.916995561806 382.06060606060606,563.5171086070552 385.75757575757575,572.6575136922569 389.45454545454544,573.5445201298961 393.1515151515151,554.6999022824643 396.8484848484849,544.2383156949064 400.5454545454545,524.1494360457732 404.24242424242425,529.3631893199934 407.93939393939394,517.0157905547374 411.6363636363636,501.43144701861905 415.3333333333333,513.5109392642341 419.03030303030306,507.41637774266803 422.7272727272727,527.0330255878143 426.42424242424244,535.7010758848685 430.1212121212121,495.2472665258516 433.8181818181818,491.4591977194974 437.5151515151515,467.41396630026634 441.21212121212125,482.28054641639994 444.9090909090909,462.82072055237666 448.6060606060606,459.66950530215115 452.3030303030303,471.94632277392304 456.0,476.49019225811486 459.6969696969697,470.4945336968646 463.3939393939394,482.40090864168394 467.09090909090907,492.7311367992782 470.7878787878788,493.9113977612185 474.48484848484844,503.95076201191364 478.1818181818182,510.2480983605036 481.8787878787879,512.9271330723294 485.57575757575756,522.3866244706066 489.27272727272725,543.1352816691788 492.969696969697,538.2450189558939 496.66666666666663,513.5183902777403 500.3636363636364,517.1434805971055 504.06060606060606,540.8247831807033 507.75757575757575,520.7793878573402 511.45454545454544,529.4964171222405 515.1515151515152,529.7996417944623 518.8484848484848,520.0237072141932 522.5454545454545,503.561750847432 526.2424242424242,516.434176182437 529.939393939394,521.5357052780284 533.6363636363636,522.2060020043126 537.3333333333333,531.3887498662033 541.030303030303,529.1870347926975 544.7272727272727,574.7031808127977 548.4242424242424,579.9746721105073 552.1212121212121,577.3948894093649 555.8181818181818,580.4915356385128 559.5151515151515,580.4147248344527 563.2121212121212,614.5802166180428 566.909090909091,626.5122113153986 570.6060606060605,624.5444008119132 574.3030303030303,620.4901897065178 578.0,623.81793177429 581.6969696969697,601.4512650079897 585.3939393939394,597.8364477866604 589.0909090909091,598.863197631687 592.7878787878788,586.6908596362839 596.4848484848485,589.1041058699388 600.1818181818181,601.2044385335328 603.8787878787879,608.768645527726 607.5757575757576,608.0489830446843 611.2727272727273,604.9766905130944 614.969696969697,624.7147178856405 618.6666666666666,618.4918762593336 622.3636363636364,615.7169270564925 626.060606060606,620.895176698901 629.7575757575758,621.3741647760298 633.4545454545454,604.9796815405825 637.1515151515151,608.7471189533433 640.8484848484849,638.093002234666 644.5454545454545,631.1270574575358 648.2424242424242,632.6143745569798 651.939393939394,626.2212024442966 655.6363636363636,629.8338916329683 659.3333333333334,623.7864560397499 663.0303030303031,630.6280619760954 666.7272727272727,632.5081553148589 670.4242424242425,628.7420212364793 674.1212121212121,619.8926884551233 677.8181818181818,606.636119530519 681.5151515151515,595.2808965959329 685.2121212121211,592.0739425475075 688.9090909090909,593.92415613549 692.6060606060606,588.9591211794993 696.3030303030303,590.7356659093908 700.0,591.3180882791991 703.6969696969697,602.4965623659723 707.3939393939395,589.532717818826 711.090909090909,577.6977993161433 714.7878787878788,572.5289572446418 718.4848484848485,567.9705071865285 722.1818181818182,563.314224011589 725.8787878787879,565.2182220899133 729.5757575757576,568.9299541488645 733.2727272727273,565.884757502047 736.9696969696969,571.7782502365435 740.6666666666666,572.9243105447206 744.3636363636364,575.7513597943489 748.0606060606061,571.5724866793597 751.7575757575759,574.4831849737557 755.4545454545454,581.9050034948366 759.1515151515151,565.5456394399962 762.8484848484849,567.2239175522365 766.5454545454546,564.0477400331301 770.2424242424242,565.3775023606664 773.9393939393939,565.6020889722445 777.6363636363636,566.9943411910274 781.3333333333334,568.2580291268998 785.030303030303,567.1692822877117 788.7272727272727,569.9811545615481 792.4242424242425,577.3778806520097 796.121212121212,575.117931336761 799.8181818181818,580.0577459137332 803.5151515151515,579.9668136568669 807.2121212121212,577.8763033358778 810.909090909091,580.1194671845274 814.6060606060606,575.7298458140508 818.3030303030303,580.271631068436 822.0,577.4947719919548 825.6969696969697,557.1054295220647 829.3939393939394,553.1710885556414 833.0909090909091,551.3914867215315 836.7878787878788,542.1514517804587 840.4848484848484,542.7008650522786 844.1818181818181,543.0941943995458 847.8787878787879,528.1090766908814 851.5757575757576,528.5650311870496 855.2727272727274,529.1125701438505 858.9696969696969,524.1629861800213 862.6666666666666,529.799478575878 866.3636363636364,513.7740208721443 870.0606060606061,520.9457250574335 873.7575757575758,532.4285400640663 877.4545454545455,527.484542119126 881.1515151515151,521.006309931618 884.8484848484849,500.55692939410187 888.5454545454545,495.53618418765774 892.2424242424242,469.9014545816816 895.939393939394,454.29795946129633 899.6363636363637,440.60343788587477 903.3333333333333,458.57493842408337 907.030303030303,457.0495790577848 910.7272727272727,465.4928237195103 914.4242424242425,454.377824289342 918.1212121212121,478.7205840646903 921.8181818181818,471.44808592512874 925.5151515151515,482.8256442293932 929.2121212121212,479.2116826026896 932.9090909090909,471.43046359711184 936.6060606060606,449.29064114379474 940.3030303030304,450.5278837079256 944.0,443.5712756519034 947.6969696969696,454.40547440961745 951.3939393939394,458.38428849715217 955.0909090909091,467.978407716997 958.7878787878789,470.7004938944759 962.4848484848485,478.50522830503974 966.1818181818181,463.096931554649 969.8787878787879,462.76069233340354 973.5757575757576,466.4310768236868 977.2727272727273,502.4602282849834 980.969696969697,489.1005163051608 984.6666666666666,486.497919618157 988.3636363636364,492.3050815888922 992.060606060606,496.0283099947982 995.7575757575758,500.0656742925212 999.4545454545455,492.855318965745 1003.1515151515152,484.9420303751921 1006.8484848484848,494.7715005785405 1010.5454545454545,494.68958451919053 1014.2424242424242,478.02068507275925 1017.939393939394,482.086159006565 1021.6363636363636,470.8209405984535 1025.3333333333335,464.90565311027717 1029.030303030303,433.320684211444 1032.7272727272727,433.28209713714364 1036.4242424242425,411.81323582104164 1040.121212121212,403.2529664131165 1043.818181818182,401.1319248114335 1047.5151515151515,408.192609800844 1051.212121212121,412.71261194539613 1054.909090909091,421.3982454686587 1058.6060606060605,421.5814492533824 1062.3030303030305,412.6297152612983 1066.0,415.9344894953412 1069.6969696969695,419.75297257333796 1073.3939393939395,436.4930411177598 1077.090909090909,436.8968041879916 1080.7878787878788,438.82218986370674 1084.4848484848485,463.38412058446363 1088.1818181818182,459.97652603866686 1091.878787878788,477.74839860580767 1095.5757575757575,469.5486764722554 1099.2727272727273,471.1479270142702 1102.969696969697,482.8170928628992 1106.6666666666667,487.24275604628633 1110.3636363636363,489.3031064846431 1114.060606060606,472.45501147363996 1117.7575757575758,472.16113702997563 1121.4545454545455,469.09462700452957 1125.1515151515152,432.12365167900373 1128.848484848485,429.4221226395603 1132.5454545454545,425.6082225506514 1136.2424242424242,431.0830418132711 1139.939393939394,421.0860680475935 1143.6363636363637,434.5826747068413 1147.3333333333333,436.9936942841867 1151.030303030303,429.2892768712529 1154.7272727272727,418.7083829895879 1158.4242424242425,386.12265855571576 1162.121212121212,374.60347274429813 1165.8181818181818,368.3925680407676 1169.5151515151515,375.16973926578265 1173.2121212121212,332.86218109879644 1176.9090909090908,352.99094117586174 1180.6060606060605,350.7863946588957 1184.3030303030303,351.80482913747784 1188.0,352.4975055413569 1191.6969696969697,343.8036945845522 1195.3939393939393,358.11096012777597 1199.090909090909,347.99139874399276 1202.7878787878788,338.93974001148024 1206.4848484848485,365.05013621785355 1210.1818181818182,373.00040834040647 1213.878787878788,367.9817721156535 1217.5757575757575,387.28560918722826 1221.2727272727273,389.724045963066 1224.969696969697,410.9102738133719 1228.6666666666667,411.8011817016615 1232.3636363636365,403.97428729088864 1236.0606060606062,401.38393899594826 1239.7575757575758,422.32556831525625 1243.4545454545455,417.39287857806613 1247.1515151515152,416.83367570026314 1250.848484848485,406.4818725448361 1254.5454545454545,394.23695046887565 1258.2424242424242,414.7567466673438 1261.939393939394,414.11239435600686 1265.6363636363635,461.04042294834795 1269.3333333333333,474.8032665237325 1273.030303030303,474.9761543203877 1276.7272727272727,469.5087954308827 1280.4242424242423,461.3548009034611 1284.121212121212,467.1161464703724 1287.8181818181818,460.25652014546745 1291.5151515151515,461.51305152107807 1295.2121212121212,466.64277597822 1298.909090909091,460.85858586284644 1302.6060606060605,449.2617708232488 1306.3030303030303,444.19510265719595 1310.0,452.4623892032852" fill="none" stroke="#7c3aed" stroke-width="2.5"><title>drawdown_tilt_rebalance | end=2026-04-29 | return=695.43%</title></polyline>
<polyline points="90.0,701.1457622578881 93.6969696969697,699.6681421864079 97.39393939393939,697.6570237205849 101.0909090909091,697.8570017497995 104.78787878787878,696.4649316850831 108.48484848484848,694.2423660227961 112.18181818181819,689.1603921534219 115.87878787878788,691.0834765708041 119.57575757575758,695.097338537062 123.27272727272728,695.0548210990108 126.96969696969697,698.9595569588408 130.66666666666666,710.0 134.36363636363637,705.8668955181591 138.06060606060606,705.9278977184449 141.75757575757575,701.0667284844711 145.45454545454544,704.4487635999349 149.15151515151516,700.6493689551965 152.84848484848484,694.3159603966693 156.54545454545456,694.9797953903646 160.24242424242425,694.5867283549011 163.93939393939394,693.3238149717944 167.63636363636363,694.0540603953633 171.33333333333331,689.9621458920276 175.03030303030303,689.2038620319076 178.72727272727272,691.300898589799 182.42424242424244,691.5891345601601 186.12121212121212,691.9663018381488 189.8181818181818,690.2297119470413 193.5151515151515,691.4592393423098 197.2121212121212,688.6223572257668 200.9090909090909,680.9894108124688 204.6060606060606,673.1508033773982 208.3030303030303,674.596384870943 212.0,672.712012540263 215.6969696969697,674.8808485368392 219.3939393939394,671.307129533138 223.0909090909091,679.9978265743728 226.78787878787878,677.452410108649 230.4848484848485,682.1558643990563 234.1818181818182,678.1753145642006 237.87878787878788,679.7167934463796 241.57575757575756,675.3983873408763 245.27272727272725,671.4490471477046 248.96969696969697,670.6135591820798 252.66666666666666,667.6378469277488 256.3636363636364,660.166548356077 260.06060606060606,654.2241439390768 263.75757575757575,646.6176477061299 267.45454545454544,643.7589398056389 271.1515151515151,646.750912865566 274.8484848484849,636.3009646215788 278.5454545454545,634.6205684047283 282.24242424242425,611.7913839590681 285.93939393939394,567.5854776206367 289.6363636363636,570.6397353529787 293.3333333333333,562.2588519027228 297.030303030303,580.6909456967148 300.72727272727275,543.3962236610662 304.4242424242424,525.1368266966198 308.1212121212121,504.7887837584125 311.8181818181818,521.4322381043263 315.5151515151515,523.2945681393061 319.2121212121212,500.6839059928433 322.9090909090909,493.4950193408955 326.6060606060606,518.9487241257907 330.30303030303025,488.27138907936705 334.0,491.16195315109735 337.6969696969697,453.96963550746244 341.3939393939394,474.51904750603615 345.09090909090907,453.8944159800349 348.7878787878788,413.50805032025914 352.4848484848485,414.91986775576515 356.1818181818182,498.0009173720763 359.8787878787879,476.4401968315474 363.57575757575756,486.6467418020812 367.27272727272725,490.22457823494017 370.969696969697,496.13279156696615 374.6666666666667,517.7727110211479 378.3636363636364,505.1916962153762 382.06060606060606,506.3403669982257 385.75757575757575,518.4675904240745 389.45454545454544,519.8411827101959 393.1515151515151,493.15049339073346 396.8484848484849,480.32223879089815 400.5454545454545,453.26724134655933 404.24242424242425,459.90092276383325 407.93939393939394,443.6476613132821 411.6363636363636,424.6045045624263 415.3333333333333,441.1682792865878 419.03030303030306,433.04673054947267 422.7272727272727,460.23608198295955 426.42424242424244,472.07507998765504 430.1212121212121,419.446843731362 433.8181818181818,414.19454614203374 437.5151515151515,377.0653455616805 441.21212121212125,401.17729883563277 444.9090909090909,369.4517879896647 448.6060606060606,364.39366754308827 452.3030303030303,385.5590277761656 456.0,393.08142676855823 459.6969696969697,383.11697928423956 463.3939393939394,401.7228786725513 467.09090909090907,418.3908924740945 470.7878787878788,420.25457888178425 474.48484848484844,435.9762647539321 478.1818181818182,445.2006312522878 481.8787878787879,449.6431256774075 485.57575757575756,463.02652576043835 489.27272727272725,491.1304744698781 492.969696969697,484.60524916242696 496.66666666666663,451.85622155621525 500.3636363636364,456.40558131108884 504.06060606060606,486.32538491021137 507.75757575757575,460.79399534567165 511.45454545454544,471.5353463520431 515.1515151515152,472.1348445892273 518.8484848484848,460.3753109199067 522.5454545454545,440.5346038741695 526.2424242424242,456.04605982793765 529.939393939394,462.37586772142896 533.6363636363636,462.9213934938278 537.3333333333333,473.31552786892485 541.030303030303,470.88744197535044 544.7272727272727,522.029314790741 548.4242424242424,527.3544537918305 552.1212121212121,524.3094811407923 555.8181818181818,527.1462931110848 559.5151515151515,526.8232175304968 563.2121212121212,565.0384581576427 566.909090909091,578.3509422886802 570.6060606060605,576.3463927769419 574.3030303030303,572.0924186489408 578.0,575.5572123600391 581.6969696969697,551.5547665427789 585.3939393939394,548.260704180713 589.0909090909091,549.3285345704899 592.7878787878788,537.3148983584715 596.4848484848485,540.0467483353818 600.1818181818181,552.6493446333228 603.8787878787879,560.6129990181603 607.5757575757576,560.7062659499827 611.2727272727273,557.0658046088017 614.969696969697,576.4807809071017 618.6666666666666,569.8593990741499 622.3636363636364,566.4935871569949 626.060606060606,572.3842366481144 629.7575757575758,572.8575460492954 633.4545454545454,555.9950778961797 637.1515151515151,560.1625810530093 640.8484848484849,591.7196189933677 644.5454545454545,584.4687452485746 648.2424242424242,585.881936566471 651.939393939394,579.3402281273676 655.6363636363636,583.028467570052 659.3333333333334,576.2428997845614 663.0303030303031,583.7188517650787 666.7272727272727,585.8071298228868 670.4242424242425,582.0287774732234 674.1212121212121,572.5324405506543 677.8181818181818,556.8374332239686 681.5151515151515,543.5036280878654 685.2121212121211,539.7875808641347 688.9090909090909,542.4509108848946 692.6060606060606,536.3477344539895 696.3030303030303,538.0398265155364 700.0,539.3124067766391 703.6969696969697,551.343804651143 707.3939393939395,536.6904846915422 711.090909090909,522.6468411898366 714.7878787878788,516.8796321063203 718.4848484848485,513.3148306107175 722.1818181818182,506.72721276988085 725.8787878787879,510.1435671355773 729.5757575757576,514.092157623579 733.2727272727273,510.3282976920534 736.9696969696969,518.0965460115937 740.6666666666666,519.704926441321 744.3636363636364,524.7922299006622 748.0606060606061,518.3129769556206 751.7575757575759,523.4242176081352 755.4545454545454,535.359001280916 759.1515151515151,509.642775867635 762.8484848484849,511.9364524977176 766.5454545454546,507.09146760618205 770.2424242424242,509.07479544663573 773.9393939393939,509.9617651571126 777.6363636363636,512.6053235548574 781.3333333333334,514.6200662003292 785.030303030303,512.5826832097435 788.7272727272727,517.6759474244473 792.4242424242425,531.1400569090215 796.121212121212,526.9575331273909 799.8181818181818,535.2842329838943 803.5151515151515,534.5029106759725 807.2121212121212,530.8184579252413 810.909090909091,534.4131519069074 814.6060606060606,527.6017469114213 818.3030303030303,533.8015557180391 822.0,528.9218550009688 825.6969696969697,498.727352035815 829.3939393939394,493.0709851738749 833.0909090909091,490.7078341222946 836.7878787878788,475.79872041589874 840.4848484848484,477.22625254225795 844.1818181818181,477.1487787398799 847.8787878787879,447.7188797361727 851.5757575757576,449.54808463082736 855.2727272727274,449.3708395449732 858.9696969696969,442.2454064258196 862.6666666666666,451.6692969302623 866.3636363636364,422.44746010013296 870.0606060606061,437.48123865077264 873.7575757575758,458.7897893789499 877.4545454545455,449.1342509107351 881.1515151515151,437.2893855983018 884.8484848484849,399.000904884289 888.5454545454545,390.5985920859734 892.2424242424242,340.91083671794485 895.939393939394,311.18282070808345 899.6363636363637,283.21469385990264 903.3333333333333,319.986017569133 907.030303030303,316.3991428433981 910.7272727272727,333.8690461646104 914.4242424242425,311.1273555484916 918.1212121212121,360.629795113423 921.8181818181818,345.77414353245183 925.5151515151515,369.9859006371523 929.2121212121212,361.4752588766259 932.9090909090909,344.28124588521075 936.6060606060606,305.85932088949477 940.3030303030304,309.2767096875476 944.0,294.6296412905995 947.6969696969696,315.3375325231435 951.3939393939394,324.67026864977754 955.0909090909091,343.79329183689356 958.7878787878789,348.62423901311456 962.4848484848485,362.1057873438304 966.1818181818181,336.04234331685495 969.8787878787879,335.12041681908175 973.5757575757576,341.0313897188194 977.2727272727273,399.3996716175499 980.969696969697,377.8809670972996 984.6666666666666,373.12875343701995 988.3636363636364,382.516700549485 992.060606060606,388.4018125059486 995.7575757575758,394.54860083735014 999.4545454545455,382.01728189739 1003.1515151515152,369.77287228185946 1006.8484848484848,385.38674232884443 1010.5454545454545,385.3105409549404 1014.2424242424242,356.51322402992105 1017.939393939394,363.06654218393044 1021.6363636363636,341.940751984292 1025.3333333333335,330.16401246466734 1029.030303030303,269.3070372287864 1032.7272727272727,264.47945883277663 1036.4242424242425,233.1496787025966 1040.121212121212,217.14905654710236 1043.818181818182,211.05717677103996 1047.5151515151515,223.60784161566642 1051.212121212121,231.85389061293552 1054.909090909091,251.47017974327161 1058.6060606060605,251.04589827803585 1062.3030303030305,230.73100268919768 1066.0,232.69209806383975 1069.6969696969695,238.68755794100053 1073.3939393939395,272.5196969173196 1077.090909090909,271.9399037972674 1080.7878787878788,276.1336125787589 1084.4848484848485,326.0950287787222 1088.1818181818182,314.75988676482655 1091.878787878788,348.83047452080586 1095.5757575757575,333.30566347846377 1099.2727272727273,335.6921011469292 1102.969696969697,357.7249997580474 1106.6666666666667,364.28261079441205 1110.3636363636363,366.2319541418777 1114.060606060606,333.7308115925674 1117.7575757575758,332.9210691217596 1121.4545454545455,325.82454001054083 1125.1515151515152,265.81327516845823 1128.848484848485,256.0327328228172 1132.5454545454545,252.4195467006806 1136.2424242424242,263.39387709106956 1139.939393939394,245.10623404355192 1143.6363636363637,267.75702039519444 1147.3333333333333,268.96530014793785 1151.030303030303,256.5968591399341 1154.7272727272727,239.28331370795286 1158.4242424242425,186.7971953618561 1162.121212121212,170.4608596971907 1165.8181818181818,161.11438232672344 1169.5151515151515,174.78523301597374 1173.2121212121212,90.0 1176.9090909090908,134.01325864838338 1180.6060606060605,129.92870499252194 1184.3030303030303,132.11401280916004 1188.0,133.481746972295 1191.6969696969697,114.03612102922273 1195.3939393939393,146.1707749195897 1199.090909090909,123.435085519204 1202.7878787878788,103.08831843031999 1206.4848484848485,161.7390045432944 1210.1818181818182,179.42062181583458 1213.878787878788,168.81498442677173 1217.5757575757575,209.7001538039077 1221.2727272727273,214.6707219359642 1224.969696969697,256.12863182234696 1228.6666666666667,257.9300484471964 1232.3636363636365,243.76685215065544 1236.0606060606062,240.05038766828477 1239.7575757575758,275.08523025421067 1243.4545454545455,266.8609636320904 1247.1515151515152,266.05163846779715 1250.848484848485,248.73965268359427 1254.5454545454545,227.98819809277273 1258.2424242424242,261.3593334609048 1261.939393939394,260.5391205161883 1265.6363636363635,335.59776678972537 1269.3333333333333,358.1515992415485 1273.030303030303,358.70806021818015 1276.7272727272727,350.2408887835498 1280.4242424242423,336.4481863170578 1284.121212121212,345.7234314993352 1287.8181818181818,335.7175713860345 1291.5151515151515,337.4145176719025 1295.2121212121212,346.1016481447877 1298.909090909091,336.66276364273494 1302.6060606060605,318.95590447862213 1306.3030303030303,310.3420267614831 1310.0,322.6799106105087" fill="none" stroke="#b45309" stroke-width="2.5"><title>btc_defensive_eth_aggressive | end=2026-04-29 | return=1058.37%</title></polyline>
</svg>