<svg xmlns="http://www.w3.org/2000/svg" width="1400" height="800">
<rect width="1400" height="800" fill="#f8fafc"/>
<text x="700.0" y="42" text-anchor="middle" font-family="monospace" font-size="24" fill="#0f172a">Portfolio Value Over Time | start=2023-04-01 | interval=7d</text>
<line x1="90" y1="710" x2="1310" y2="710" stroke="#334155" stroke-width="2"/>
<line x1="90" y1="90" x2="90" y2="710" stroke="#334155" stroke-width="2"/>
<line x1="90.0" y1="710" x2="90.0" y2="90" stroke="#cbd5e1" stroke-width="1"/>
<text x="90.0" y="734" text-anchor="middle" font-family="monospace" font-size="11" fill="#475569">2023-04-01</text>
<line x1="90" y1="710.0" x2="1310" y2="710.0" stroke="#cbd5e1" stroke-width="1"/>
<text x="78" y="714.0" text-anchor="end" font-family="monospace" font-size="12" fill="#475569">9060</text>
<line x1="334.0" y1="710" x2="334.0" y2="90" stroke="#cbd5e1" stroke-width="1"/>
<text x="334.0" y="734" text-anchor="middle" font-family="monospace" font-size="11" fill="#475569">2023-11-11</text>
<line x1="90" y1="586.0" x2="1310" y2="586.0" stroke="#cbd5e1" stroke-width="1"/>
<text x="78" y="590.0" text-anchor="end" font-family="monospace" font-size="12" fill="#475569">13657</text>
<line x1="578.0" y1="710" x2="578.0" y2="90" stroke="#cbd5e1" stroke-width="1"/>
<text x="578.0" y="734" text-anchor="middle" font-family="monospace" font-size="11" fill="#475569">2024-06-22</text>
<line x1="90" y1="462.00000000000006" x2="1310" y2="462.00000000000006" stroke="#cbd5e1" stroke-width="1"/>
<text x="78" y="466.00000000000006" text-anchor="end" font-family="monospace" font-size="12" fill="#475569">18254</text>
<line x1="822.0" y1="710" x2="822.0" y2="90" stroke="#cbd5e1" stroke-width="1"/>
<text x="822.0" y="734" text-anchor="middle" font-family="monospace" font-size="11" fill="#475569">2025-02-08</text>
<line x1="90" y1="337.99999999999994" x2="1310" y2="337.99999999999994" stroke="#cbd5e1" stroke-width="1"/>
<text x="78" y="341.99999999999994" text-anchor="end" font-family="monospace" font-size="12" fill="#475569">22851</text>
<line x1="1066.0" y1="710" x2="1066.0" y2="90" stroke="#cbd5e1" stroke-width="1"/>
<text x="1066.0" y="734" text-anchor="middle" font-family="monospace" font-size="11" fill="#475569">2025-09-20</text>
<line x1="90" y1="214.0" x2="1310" y2="214.0" stroke="#cbd5e1" stroke-width="1"/>
<text x="78" y="218.0" text-anchor="end" font-family="monospace" font-size="12" fill="#475569">27448</text>
<line x1="1310.0" y1="710" x2="1310.0" y2="90" stroke="#cbd5e1" stroke-width="1"/>
<text x="1310.0" y="734" text-anchor="middle" font-family="monospace" font-size="11" fill="#475569">2026-05-02</text>
<line x1="90" y1="90.0" x2="1310" y2="90.0" stroke="#cbd5e1" stroke-width="1"/>
<text x="78" y="94.0" text-anchor="end" font-family="monospace" font-size="12" fill="#475569">32046</text>
<text x="700.0" y="782" text-anchor="middle" font-family="monospace" font-size="16" fill="#0f172a">time</text>
<text x="24" y="400.0" transform="rotate(-90 24,400.0)" text-anchor="middle" font-family="monospace" font-size="16" fill="#0f172a">portfolio_value_usd</text>
<line x1="970" y1="80" x2="988" y2="80" stroke="#0f766e" stroke-width="3"/>
<text x="998" y="84" font-family="monospace" font-size="12" fill="#0f172a">budgeted_static_50_50_rebalance</text>
<line x1="970" y1="104" x2="988" y2="104" stroke="#9333ea" stroke-width="3"/>
<text x="998" y="108" font-family="monospace" font-size="12" fill="#0f172a">budgeted_drawdown_tilt_rebalance</text>
<line x1="970" y1="128" x2="988" y2="128" stroke="#92400e" stroke-width="3"/>
<text x="998" y="132" font-family="monospace" font-size="12" fill="#0f172a">budgeted_btc_defensive_eth_aggressive</text>
<line x1="970" y1="152" x2="988" y2="152" stroke="#0f766e" stroke-width="3"/>
<text x="998" y="156" font-family="monospace" font-size="12" fill="#0f172a">static_50_50_rebalance</text>
<line x1="970" y1="176" x2="988" y2="176" stroke="#dc2626" stroke-width="3"/>
<text x="998" y="180" font-family="monospace" font-size="12" fill="#0f172a">target_50_50_with_cash_band</text>
<line x1="970" y1="200" x2="988" y2="200" stroke="#2563eb" stroke-width="3"/>
<text x="998" y="204" font-family="monospace" font-size="12" fill="#0f172a">narrow_cash_band_rebalance</text>
<line x1="970" y1="224" x2="988" y2="224" stroke="#7c3aed" stroke-width="3"/>
<text x="998" y="228" font-family="monospace" font-size="12" fill="#0f172a">drawdown_tilt_rebalance</text>
<line x1="970" y1="248" x2="988" y2="248" stroke="#b45309" stroke-width="3"/>
<text x="998" y="252" font-family="monospace" font-size="12" fill="#0f172a">btc_defensive_eth_aggressive</text>
<polyline points="90.0,684.6338049287286 97.5776397515528,684.64373605254 105.15527950310559,682.8969161669671 112.73291925465838,685.3308851715863 120.31055900621118,684.2300781738526 127.88819875776397,684.5680182545495 135.46583850931677,687.6789946640365 143.04347826086956,686.9969033369428 150.62111801242236,687.0934730739259 158.19875776397515,685.6181009055015 165.77639751552795,690.4088087397389 173.35403726708074,689.9701361523951 180.93167701863354,678.9839720269937 188.50931677018633,677.5385523177804 196.08695652173913,679.9206439862634 203.66459627329192,677.7330758107825 211.24223602484471,681.156588842671 218.8198757763975,681.7026274877123 226.3975155279503,684.2911835500917 233.9751552795031,682.6978031180968 241.5527950310559,699.9116821603525 249.1304347826087,701.2449284409045 256.7080745341615,702.1463507907573 264.2857142857143,702.1331766625973 271.8633540372671,699.8236850844553 279.44099378881987,702.0751824614541 287.01863354037266,696.0978146608868 294.5962732919255,694.4635239844167 302.17391304347825,703.6246891718774 309.7515527950311,687.4199471046622 317.32919254658384,662.7449838033608 324.90683229813664,653.9498772841985 332.48447204968943,634.0526986755721 340.0621118012422,641.6695407158055 347.639751552795,629.8456125061981 355.2173913043478,618.9472254458904 362.7950310559006,593.4770320587245 370.3726708074534,605.5435665135278 377.9503105590062,595.4517156742932 385.52795031055905,601.8424105564302 393.1055900621118,598.7336619705809 400.6832298136646,581.4411681289813 408.2608695652174,591.9578670545354 415.83850931677017,602.474454318138 423.416149068323,597.7817110921683 430.99378881987576,569.2256510106994 438.57142857142856,538.815472173593 446.14906832298135,526.652987741114 453.72670807453414,466.78057599378735 461.304347826087,417.33382843153174 468.88198757763973,450.4108215772028 476.45962732919253,465.296143148808 484.0372670807453,437.50840368498757 491.6149068322982,448.7192189779289 499.19254658385097,483.6168551539814 506.7701863354037,471.9392875723833 514.3478260869565,470.66575916286587 521.9254658385094,477.39251890405995 529.5031055900622,499.1387133071507 537.0807453416149,467.75622917708745 544.6583850931677,422.03673159525914 552.2360248447205,422.9172816106975 559.8136645962733,425.8718393038823 567.3913043478261,442.07650900973573 574.9689440993789,452.3101962688116 582.5465838509317,469.67627300488766 590.1242236024844,495.59430413347695 597.7018633540373,486.0925821258458 605.27950310559,440.9026601109853 612.8571428571428,454.42842469424374 620.4347826086956,497.24529084490086 628.0124223602485,514.3692238145712 635.5900621118012,518.3649505876833 643.1677018633541,494.45643641201985 650.7453416149068,526.5204465863903 658.3229813664597,556.5704695561456 665.9006211180124,529.5069805054493 673.4782608695652,506.33815656175364 681.0559006211181,494.8970391538617 688.6335403726708,523.6264863650738 696.2111801242236,516.1506369675541 703.7888198757763,489.59685975308105 711.3664596273292,505.16542736936935 718.9440993788819,497.7940592092075 726.5217391304348,432.2238396877722 734.0993788819876,394.2117810990051 741.6770186335403,356.57694033710567 749.2546583850932,338.15230444291296 756.832298136646,308.5964138023684 764.4099378881988,313.8126504332844 771.9875776397515,360.88212046086215 779.5652173913043,361.92069491802516 787.1428571428571,336.18301667248267 794.72049689441,371.0482548313484 802.2981366459627,344.94214026240377 809.8757763975156,343.18535449969596 817.4534161490683,367.70887179204016 825.0310559006211,413.3573308486865 832.608695652174,406.06168781733203 840.1863354037267,402.8354901356385 847.7639751552795,470.4615869955487 855.3416149068322,471.15709941704614 862.9192546583851,498.0235356594544 870.4968944099379,495.29559179093064 878.0745341614906,511.95976339207687 885.6521739130435,512.1428653041842 893.2298136645963,523.8203934057907 900.8074534161491,527.3397984913331 908.3850931677019,486.162220091223 915.9627329192546,482.4768231086223 923.5403726708074,387.4489184254528 931.1180124223603,401.7724054415416 938.695652173913,386.57277231126983 946.2732919254659,393.36703283423384 953.8509316770186,391.6014837216528 961.4285714285714,391.38261676560205 969.0062111801243,419.9617525680292 976.583850931677,396.0779921459627 984.1614906832299,386.84828678466886 991.7391304347825,328.57140303420766 999.3167701863354,269.47006329330344 1006.8944099378882,256.23051925086816 1014.472049689441,298.8924371883113 1022.0496894409938,215.4612312572096 1029.6273291925465,199.45478491219416 1037.2049689440994,175.17738796881383 1044.7826086956522,224.684925125971 1052.3602484472049,229.28612491529714 1059.9378881987577,182.64548739480188 1067.5155279503106,197.96531341351135 1075.0931677018634,250.11861037951974 1082.6708074534163,180.35235391975664 1090.248447204969,267.6540520286569 1097.8260869565217,266.0595822969699 1105.4037267080746,249.79404485307623 1112.9813664596272,260.0594341918345 1120.55900621118,314.57789151600815 1128.136645962733,349.00870700025985 1135.7142857142856,406.48507929460436 1143.2919254658384,373.62054420393144 1150.8695652173913,373.82605286812475 1158.447204968944,365.44048806743734 1166.024844720497,381.01036614231356 1173.6024844720498,384.6497997020194 1181.1801242236024,363.6378333732924 1188.7577639751553,367.47474735514896 1196.3354037267081,337.8934434443079 1203.9130434782608,380.71161760306103 1211.4906832298136,445.9519950617054 1219.0683229813665,499.25367189895604 1226.6459627329193,497.90376605949075 1234.223602484472,512.2701226023826 1241.8012422360248,515.5706269112081 1249.3788819875776,514.3748347610499 1256.9565217391305,492.69092768908774 1264.5341614906833,499.7989835793916 1272.1118012422362,514.6449486968163 1279.6894409937888,505.72686577556897 1287.2670807453417,471.0637302077381 1294.8447204968943,458.4026909890817 1302.4223602484471,456.03600101679604 1310.0,453.61691569711473" fill="none" stroke="#0f766e" stroke-width="2.5"><title>budgeted_static_50_50_rebalance | end=2026-05-02 | return=85.65%</title></polyline>
<polyline points="90.0,684.6338049287286 97.5776397515528,684.6300502465396 105.15527950310559,682.2540912727065 112.73291925465838,685.535158273239 120.31055900621118,684.1190480254573 127.88819875776397,684.5540727901375 135.46583850931677,688.653604894983 143.04347826086956,687.8006166370344 150.62111801242236,687.8674693622381 158.19875776397515,686.2586606657648 165.77639751552795,690.8448791811013 173.35403726708074,690.5411479555836 180.93167701863354,680.7720589474925 188.50931677018633,679.4904021513307 196.08695652173913,681.412615666949 203.66459627329192,679.7180930051163 211.24223602484471,682.1217482933632 218.8198757763975,682.4193328163179 226.3975155279503,684.0437012103473 233.9751552795031,683.1289693981314 241.5527950310559,692.6047544908457 249.1304347826087,693.3801633100039 256.7080745341615,693.8968569271326 264.2857142857143,693.8948509077374 271.8633540372671,692.6068874730474 279.44099378881987,694.02396914545 287.01863354037266,690.3501379736119 294.5962732919255,689.4845252728012 302.17391304347825,695.3982952150935 309.7515527950311,684.3087076134392 317.32919254658384,666.5451355772371 324.90683229813664,659.8747439377721 332.48447204968943,644.8918536607505 340.0621118012422,650.6240755065597 347.639751552795,641.8381883011753 355.2173913043478,633.8940256186665 362.7950310559006,615.4790279489247 370.3726708074534,624.1728996254594 377.9503105590062,616.9539154905355 385.52795031055905,621.469209076272 393.1055900621118,619.3274665598476 400.6832298136646,607.1437562012376 408.2608695652174,614.3786897844811 415.83850931677017,621.6052448396183 423.416149068323,618.4568100621636 430.99378881987576,599.3093069372367 438.57142857142856,579.0395109803828 446.14906832298135,570.8632995033477 453.72670807453414,530.8568823473216 461.304347826087,497.88978738898425 468.88198757763973,519.8943846805312 476.45962732919253,529.7750103086266 484.0372670807453,510.87652897738155 491.6149068322982,518.4109931555761 499.19254658385097,542.4878666456887 506.7701863354037,534.2257161307391 514.3478260869565,533.2619561448428 521.9254658385094,538.4017469902137 529.5031055900622,554.9550581283305 537.0807453416149,530.5592757631325 544.6583850931677,492.99147598160744 552.2360248447205,493.2174259962277 559.8136645962733,496.423049851667 567.3913043478261,508.8182888949454 574.9689440993789,516.5528514757837 582.5465838509317,529.4456555984959 590.1242236024844,549.9832701363392 597.7018633540373,542.4028139208535 605.27950310559,506.98642023879586 612.8571428571428,518.53530624251 620.4347826086956,552.5662163182203 628.0124223602485,567.3799605606766 635.5900621118012,570.5177673357941 643.1677018633541,550.1080318126436 650.7453416149068,579.003578470075 658.3229813664597,606.9104355982086 665.9006211180124,582.6395610847305 673.4782608695652,559.9742293428271 681.0559006211181,549.3019914383095 688.6335403726708,578.695679631759 696.2111801242236,571.1070892494298 703.7888198757763,544.9790992172043 711.3664596273292,562.0781901153191 718.9440993788819,555.4020750356709 726.5217391304348,482.5881151713662 734.0993788819876,449.6537672895489 741.6770186335403,410.21810660024636 749.2546583850932,386.4750668544193 756.832298136646,353.2689446730097 764.4099378881988,361.13641686721144 771.9875776397515,415.7832581684278 779.5652173913043,415.3176012734429 787.1428571428571,386.6262279341814 794.72049689441,426.08385526290044 802.2981366459627,402.60804022008125 809.8757763975156,400.7648916623463 817.4534161490683,426.4306586977768 825.0310559006211,475.44250958588975 832.608695652174,467.72766623764346 840.1863354037267,463.5722917777423 847.7639751552795,536.5871668247265 855.3416149068322,537.4756880231546 862.9192546583851,567.7114277008047 870.4968944099379,564.2854859341485 878.0745341614906,583.0817336483574 885.6521739130435,583.5268990795 893.2298136645963,596.6923520737903 900.8074534161491,600.3821922975095 908.3850931677019,557.6384825980433 915.9627329192546,553.7449569275907 923.5403726708074,455.3290714423016 931.1180124223603,470.2715537485956 938.695652173913,454.4687535583347 946.2732919254659,461.45265608812235 953.8509316770186,459.68273906950856 961.4285714285714,459.40022959400983 969.0062111801243,491.2888095268065 976.583850931677,465.324318485955 984.1614906832299,454.9638895388766 991.7391304347825,389.9620840963203 999.3167701863354,320.48969686996196 1006.8944099378882,304.77169431893157 1014.472049689441,352.85846877738095 1022.0496894409938,254.02575933137126 1029.6273291925465,235.15761855237935 1037.2049689440994,203.22937123091742 1044.7826086956522,258.0492400948846 1052.3602484472049,265.4570721049811 1059.9378881987577,213.62593405276016 1067.5155279503106,232.91020284134783 1075.0931677018634,291.6194867218105 1082.6708074534163,218.2881755876823 1090.248447204969,315.88979843530575 1097.8260869565217,309.2072621769985 1105.4037267080746,293.604263316418 1112.9813664596272,305.07183633537875 1120.55900621118,367.50148900625373 1128.136645962733,404.7240694338855 1135.7142857142856,467.0720503247479 1143.2919254658384,431.9755997071491 1150.8695652173913,430.5489786353213 1158.447204968944,420.89062348873034 1166.024844720497,438.88233981167684 1173.6024844720498,443.0023467062218 1181.1801242236024,419.08911386034526 1188.7577639751553,423.8118141987457 1196.3354037267081,390.6808516333198 1203.9130434782608,440.04324682313523 1211.4906832298136,513.2344235943201 1219.0683229813665,570.6326116509833 1226.6459627329193,569.459096729541 1234.223602484472,584.7664072894421 1241.8012422360248,587.8697241850168 1249.3788819875776,586.7077701901914 1256.9565217391305,564.8313431924039 1264.5341614906833,571.3855036335818 1272.1118012422362,586.5625177942652 1279.6894409937888,577.0780514703208 1287.2670807453417,541.4229934607163 1294.8447204968943,528.6034589885414 1302.4223602484471,527.2382672981365 1310.0,525.1154584532399" fill="none" stroke="#9333ea" stroke-width="2.5"><title>budgeted_drawdown_tilt_rebalance | end=2026-05-02 | return=59.14%</title></polyline>
<polyline points="90.0,684.6338049287286 97.5776397515528,684.6894322388832 105.15527950310559,682.8123132422305 112.73291925465838,685.1987510151978 120.31055900621118,684.0673754789735 127.88819875776397,684.399478607937 135.46583850931677,687.2101265019523 143.04347826086956,686.6307233062778 150.62111801242236,686.7901198661782 158.19875776397515,685.7141156118299 165.77639751552795,689.4609569054408 173.35403726708074,688.8973330000705 180.93167701863354,679.3173555795915 188.50931677018633,678.25276824556 196.08695652173913,680.0933920129984 203.66459627329192,678.5380696495894 211.24223602484471,681.2129679484035 218.8198757763975,681.8462758599718 226.3975155279503,683.8253450380541 233.9751552795031,682.4880968716817 241.5527950310559,696.5532456956291 249.1304347826087,697.5674811381734 256.7080745341615,698.3545610854061 264.2857142857143,698.3153099083258 271.8633540372671,695.8024959176231 279.44099378881987,697.5606673228019 287.01863354037266,692.4675284748378 294.5962732919255,689.8397793227955 302.17391304347825,698.3713703201345 309.7515527950311,681.696330916827 317.32919254658384,656.174873555293 324.90683229813664,647.526954746378 332.48447204968943,627.8393187631701 340.0621118012422,635.1216823294728 347.639751552795,623.1791757987359 355.2173913043478,611.2828590357263 362.7950310559006,582.9064032532891 370.3726708074534,595.6083177688056 377.9503105590062,584.6242613504157 385.52795031055905,592.5212431497898 393.1055900621118,587.1131473226818 400.6832298136646,573.6877883484351 408.2608695652174,584.8273895422125 415.83850931677017,594.95089682222 423.416149068323,589.5651617243333 430.99378881987576,557.0326213147318 438.57142857142856,523.4364906859545 446.14906832298135,511.6960243046003 453.72670807453414,441.77106792133486 461.304347826087,384.90244046990534 468.88198757763973,422.44166417853194 476.45962732919253,439.4651063694325 484.0372670807453,405.38685378887493 491.6149068322982,417.90151422558927 499.19254658385097,459.0382033095299 506.7701863354037,446.1350576639628 514.3478260869565,446.43897448188176 521.9254658385094,452.92710122945556 529.5031055900622,478.30648170351736 537.0807453416149,440.21850946733065 544.6583850931677,391.6631244331141 552.2360248447205,394.19705495078153 559.8136645962733,395.6344833867814 567.3913043478261,415.38900490331883 574.9689440993789,427.89305245613497 582.5465838509317,449.0436330745312 590.1242236024844,479.7327048744291 597.7018633540373,468.61861117493413 605.27950310559,413.13849739597254 612.8571428571428,428.44939191443865 620.4347826086956,481.10877943801665 628.0124223602485,499.77354949914525 635.5900621118012,505.3001496801696 643.1677018633541,475.9724913553737 650.7453416149068,514.3432261434533 658.3229813664597,549.9777309072063 665.9006211180124,516.531600456422 673.4782608695652,489.8209941339554 681.0559006211181,475.51724460688126 688.6335403726708,508.5626486561928 696.2111801242236,499.8322852611836 703.7888198757763,467.3059618076352 711.3664596273292,484.1641294268129 718.9440993788819,473.76182083691873 726.5217391304348,401.12768729541597 734.0993788819876,344.5951705132111 741.6770186335403,297.97417403762404 749.2546583850932,282.34833711954974 756.832298136646,248.66819602310647 764.4099378881988,251.50669363550173 771.9875776397515,303.5151205457425 779.5652173913043,307.88250759889667 787.1428571428571,278.4010194678631 794.72049689441,317.6220966702485 802.2981366459627,276.76223072038334 809.8757763975156,274.60580080737316 817.4534161490683,304.7873530207587 825.0310559006211,354.91773724314294 832.608695652174,346.07597185123245 840.1863354037267,344.97456813434 847.7639751552795,427.7402787151113 855.3416149068322,428.0257474275346 862.9192546583851,456.2934350194847 870.4968944099379,454.79437272457506 878.0745341614906,472.22688826557624 885.6521739130435,470.5303583021466 893.2298136645963,476.63036565599026 900.8074534161491,480.00032584147834 908.3850931677019,424.27339501205347 915.9627329192546,418.4655074022674 923.5403726708074,320.07497649453853 931.1180124223603,335.69690654949 938.695652173913,312.61659163800215 946.2732919254659,325.32577574635644 953.8509316770186,321.70524574159987 961.4285714285714,321.83158638615964 969.0062111801243,354.62887038978795 976.583850931677,322.22358390987046 984.1614906832299,311.97700384372735 991.7391304347825,239.45061283603428 999.3167701863354,183.40768763175583 1006.8944099378882,170.76355305102675 1014.472049689441,221.68710854256784 1022.0496894409938,132.14899139259978 1029.6273291925465,114.57798597562453 1037.2049689440994,93.02805857244493 1044.7826086956522,152.50732784689262 1052.3602484472049,155.5257909655595 1059.9378881987577,100.17907568910789 1067.5155279503106,116.52008267725671 1075.0931677018634,178.31500302548488 1082.6708074534163,90.0 1090.248447204969,196.1275564049032 1097.8260869565217,198.11002057058425 1105.4037267080746,175.40922925400707 1112.9813664596272,188.726549100679 1120.55900621118,259.30799844347735 1128.136645962733,305.46239237687365 1135.7142857142856,381.59677933643286 1143.2919254658384,338.8054585039255 1150.8695652173913,340.60878561054096 1158.447204968944,330.26521054309853 1166.024844720497,349.6354375977231 1173.6024844720498,354.2093257690178 1181.1801242236024,328.04580078634456 1188.7577639751553,332.57412593671927 1196.3354037267081,294.8105023445686 1203.9130434782608,349.1050731959038 1211.4906832298136,432.36062807835225 1219.0683229813665,499.89543371399327 1226.6459627329193,497.87259000173526 1234.223602484472,514.6160261787469 1241.8012422360248,519.1371035618353 1249.3788819875776,517.5905622262248 1256.9565217391305,491.33072751710006 1264.5341614906833,501.3092972440462 1272.1118012422362,519.196138822729 1279.6894409937888,509.2305064944147 1287.2670807453417,467.88951638909145 1294.8447204968943,452.02423832742613 1302.4223602484471,447.3553626160883 1310.0,443.6460426778897" fill="none" stroke="#92400e" stroke-width="2.5"><title>budgeted_btc_defensive_eth_aggressive | end=2026-05-02 | return=89.34%</title></polyline>
<polyline points="90.0,684.6338049287286 97.5776397515528,684.7662199128798 105.15527950310559,667.3106658794729 112.73291925465838,686.4179654279912 120.31055900621118,679.4515490025802 127.88819875776397,681.2160342711094 135.46583850931677,694.9745953834754 143.04347826086956,692.3735201289675 150.62111801242236,692.7006812885935 158.19875776397515,688.3433134136936 165.77639751552795,701.0643705420911 173.35403726708074,699.9677374612731 180.93167701863354,675.6728557832159 188.50931677018633,672.6857980534409 196.08695652173913,677.2221424732103 203.66459627329192,673.2685975584938 211.24223602484471,678.9661660962298 218.8198757763975,679.7666067146521 226.3975155279503,683.6136346739773 233.9751552795031,681.3874480980274 241.5527950310559,704.3088119649666 249.1304347826087,706.026992877839 256.7080745341615,707.1294401938891 264.2857142857143,707.1168252659673 271.8633540372671,704.5702863518369 279.44099378881987,707.0233202222726 287.01863354037266,700.8644389525267 294.5962732919255,699.2576165402703 302.17391304347825,708.3471136764355 309.7515527950311,692.3688471425885 317.32919254658384,668.0921945690252 324.90683229813664,659.4476820944269 332.48447204968943,639.902628555874 340.0621118012422,647.3826571419642 347.639751552795,635.7730102466218 355.2173913043478,625.0729622831198 362.7950310559006,600.0671284325119 370.3726708074534,611.9135113330387 377.9503105590062,602.0058715853296 385.52795031055905,608.2798853546457 393.1055900621118,605.2279049674663 400.6832298136646,588.2511718520984 408.2608695652174,598.5147765311445 415.83850931677017,608.7828176197622 423.416149068323,604.1787427973022 430.99378881987576,576.1511136603137 438.57142857142856,546.2981032554419 446.14906832298135,534.3581575628647 453.72670807453414,475.62650110599134 461.304347826087,427.4806632030985 468.88198757763973,459.3168317130504 476.45962732919253,473.78415287549865 484.0372670807453,446.602930928945 491.6149068322982,457.587067158256 499.19254658385097,491.83056701766577 506.7701863354037,480.3647106830505 514.3478260869565,479.1144333637415 521.9254658385094,485.7223828946278 529.5031055900622,507.0870957711951 537.0807453416149,476.25376430041774 544.6583850931677,431.333621709448 552.2360248447205,432.2815606796972 559.8136645962733,434.93827749003805 567.3913043478261,450.7550875505739 574.9689440993789,460.77937923221657 582.5465838509317,477.82187396303334 590.1242236024844,503.2659830958574 597.7018633540373,493.93040209294156 605.27950310559,449.5085628353993 612.8571428571428,462.80358674899435 620.4347826086956,504.8213137648274 628.0124223602485,521.6602450567275 635.5900621118012,525.5856394111702 643.1677018633541,502.080297963942 650.7453416149068,533.6089067032786 658.3229813664597,563.159136639843 665.9006211180124,536.5450878471349 673.4782608695652,513.7604117092435 681.0559006211181,502.5089491812023 688.6335403726708,530.7623508326972 696.2111801242236,523.410365214304 703.7888198757763,497.2965269145568 711.3664596273292,512.6071695897235 718.9440993788819,505.3579244177545 726.5217391304348,440.87399749917756 734.0993788819876,403.4994990535826 741.6770186335403,367.0826051565924 749.2546583850932,348.9442724292537 756.832298136646,320.5531902518212 764.4099378881988,325.3989276052079 771.9875776397515,370.4996877550483 779.5652173913043,371.53490199841605 787.1428571428571,346.38560742762036 794.72049689441,380.56149261772924 802.2981366459627,354.913942957605 809.8757763975156,353.1966828929822 817.4534161490683,377.2054753217573 825.0310559006211,422.04920370623205 832.608695652174,414.83182131247605 840.1863354037267,411.613436540946 847.7639751552795,478.2443545867253 855.3416149068322,478.9340007801854 862.9192546583851,505.4143970293012 870.4968944099379,502.7181562838424 878.0745341614906,519.1343387006058 885.6521739130435,519.3161681602166 893.2298136645963,530.8102688197255 900.8074534161491,534.2717537438973 908.3850931677019,493.79427716371504 915.9627329192546,490.1708648237859 923.5403726708074,396.69665168808325 931.1180124223603,410.1898919775955 938.695652173913,395.58350236077194 946.2732919254659,402.26638456129933 953.8509316770186,400.51028141140205 961.4285714285714,400.3186229849667 969.0062111801243,427.8599385567113 976.583850931677,404.5157423779108 984.1614906832299,395.47626566652747 991.7391304347825,338.2187216194602 999.3167701863354,281.04526998508516 1006.8944099378882,268.91286364046283 1014.472049689441,308.11091763234316 1022.0496894409938,232.5139381091994 1029.6273291925465,218.48519246613165 1037.2049689440994,199.1626565770398 1044.7826086956522,242.40659873862933 1052.3602484472049,245.44122166183558 1059.9378881987577,204.56303738470996 1067.5155279503106,217.254159530246 1075.0931677018634,263.07793961313024 1082.6708074534163,199.07351971672819 1090.248447204969,278.0409134317929 1097.8260869565217,277.10726791204814 1105.4037267080746,261.49737056973856 1112.9813664596272,271.27199497344475 1120.55900621118,323.70758682140513 1128.136645962733,357.3076456406209 1135.7142857142856,413.6933499407979 1143.2919254658384,381.3546638517469 1150.8695652173913,381.564246156625 1158.447204968944,373.29739286020765 1166.024844720497,388.6532840837521 1173.6024844720498,392.2434931441918 1181.1801242236024,371.5137061791192 1188.7577639751553,375.29923206387974 1196.3354037267081,346.1129794712026 1203.9130434782608,388.35975126972886 1211.4906832298136,452.7299403413113 1219.0683229813665,505.3208575114418 1226.6459627329193,503.9893762874356 1234.223602484472,518.1954090407227 1241.8012422360248,521.4529443913547 1249.3788819875776,520.2728199776584 1256.9565217391305,498.8749782145462 1264.5341614906833,505.8880283562064 1272.1118012422362,520.5359210730388 1279.6894409937888,511.7369943107984 1287.2670807453417,477.53774078708716 1294.8447204968943,465.04623683487637 1302.4223602484471,462.71126716778747 1310.0,460.324587551501" fill="none" stroke="#0f766e" stroke-width="2.5"><title>static_50_50_rebalance | end=2026-05-02 | return=83.16%</title></polyline>
<polyline points="90.0,684.6338049287286 97.5776397515528,684.7827717858988 105.15527950310559,666.098690389127 112.73291925465838,684.4079170947631 120.31055900621118,678.019683162468 127.88819875776397,679.6403289587181 135.46583850931677,692.3498107356099 143.04347826086956,689.9781949516363 150.62111801242236,690.1766614209068 158.19875776397515,687.0977913442962 165.77639751552795,694.7660839330453 173.35403726708074,693.9577281120844 180.93167701863354,676.312027728527 188.50931677018633,674.4827304888843 196.08695652173913,677.0010434829458 203.66459627329192,674.916128690215 211.24223602484471,677.8361616412593 218.8198757763975,678.2426236246346 226.3975155279503,680.1854420083027 233.9751552795031,679.0596653323604 241.5527950310559,690.6344488016949 249.1304347826087,692.0931547642695 256.7080745341615,693.2177083837001 264.2857142857143,693.2037380427628 271.8633540372671,690.2840208175669 279.44099378881987,693.1492529680626 287.01863354037266,685.89344329757 294.5962732919255,683.9901700284727 302.17391304347825,694.7932203525247 309.7515527950311,675.815349446117 317.32919254658384,649.0209156974868 324.90683229813664,639.2574910740586 332.48447204968943,622.8257493122812 340.0621118012422,628.0279037268784 347.639751552795,620.9534039484134 355.2173913043478,614.9283710010329 362.7950310559006,601.4507173766551 370.3726708074534,607.6054343128166 377.9503105590062,602.5255468423727 385.52795031055905,605.697884548743 393.1055900621118,604.1597626715201 400.6832298136646,595.613903521111 408.2608695652174,600.7116302224201 415.83850931677017,605.8143638171572 423.416149068323,603.5099993241672 430.99378881987576,589.4754378557744 438.57142857142856,574.7985172498384 446.14906832298135,569.0847745230457 453.72670807453414,541.5593074623876 461.304347826087,519.8798668366444 468.88198757763973,533.6246834840108 476.45962732919253,539.8216401391328 484.0372670807453,525.9437248992117 491.6149068322982,531.0684861884243 499.19254658385097,549.0932232851561 506.7701863354037,542.6123767516794 514.3478260869565,541.8803676127766 521.9254658385094,545.7729831061049 529.5031055900622,558.4668123572719 537.0807453416149,537.3513245418195 544.6583850931677,508.4923330157202 552.2360248447205,508.9716033576861 559.8136645962733,510.2889978206125 567.3913043478261,517.4735557522638 574.9689440993789,521.9240323843369 582.5465838509317,529.439698984611 590.1242236024844,544.9973095554137 597.7018633540373,537.3509535293704 605.27950310559,501.57389477017944 612.8571428571428,509.92013073466575 620.4347826086956,536.188099581279 628.0124223602485,550.3482376687176 635.5900621118012,554.0382033973897 643.1677018633541,530.5849139610425 650.7453416149068,561.2901458608814 658.3229813664597,591.2258843560361 665.9006211180124,564.0562324806532 673.4782608695652,540.3416246614128 681.0559006211181,528.567768496298 688.6335403726708,557.3908274655657 696.2111801242236,549.8050408595542 703.7888198757763,522.69527293684 711.3664596273292,538.7455408723687 718.9440993788819,532.5074130372088 726.5217391304348,466.694797072697 734.0993788819876,439.73602965956076 741.6770186335403,413.33015299435726 749.2546583850932,400.48749305556964 756.832298136646,384.16733196356086 764.4099378881988,386.73398223983355 771.9875776397515,408.52005910991744 779.5652173913043,409.06464243118415 787.1428571428571,393.8775431370569 794.72049689441,412.09399958035567 802.2981366459627,396.9653094658508 809.8757763975156,395.90835473668125 817.4534161490683,410.9642092065676 825.0310559006211,439.55117903226403 832.608695652174,433.492969296465 840.1863354037267,429.4691399673299 847.7639751552795,494.5837466830506 855.3416149068322,495.5167736222022 862.9192546583851,524.2783360726911 870.4968944099379,520.7727633708445 878.0745341614906,538.5376272204642 885.6521739130435,538.9162323335709 893.2298136645963,551.5517171861486 900.8074534161491,555.2682483363315 908.3850931677019,512.0896756336576 915.9627329192546,508.5216655073201 923.5403726708074,407.7381598976323 931.1180124223603,422.1370880984307 938.695652173913,408.66967129135696 946.2732919254659,414.0010635688395 953.8509316770186,412.72846456334383 961.4285714285714,412.3789597208984 969.0062111801243,441.9834304615862 976.583850931677,418.86704523567516 984.1614906832299,409.0143097746029 991.7391304347825,349.4373608165314 999.3167701863354,296.4099201919102 1006.8944099378882,287.62174286204777 1014.472049689441,310.75587206211713 1022.0496894409938,262.0688633732264 1029.6273291925465,254.14419732977888 1037.2049689440994,243.93692815867507 1044.7826086956522,265.3378216952828 1052.3602484472049,266.84609784658636 1059.9378881987577,246.93018769547376 1067.5155279503106,253.02150623467122 1075.0931677018634,274.9092422261649 1082.6708074534163,237.95147091185453 1090.248447204969,279.5144157300699 1097.8260869565217,278.9076667705161 1105.4037267080746,265.69185932465655 1112.9813664596272,272.87423615955987 1120.55900621118,310.0092103718078 1128.136645962733,341.4190619601764 1135.7142857142856,400.4129015853623 1143.2919254658384,364.8217851604546 1150.8695652173913,365.0630004715943 1158.447204968944,355.61298162197954 1166.024844720497,373.2900244416745 1173.6024844720498,377.4308796229656 1181.1801242236024,353.5085198261613 1188.7577639751553,357.8877956296731 1196.3354037267081,324.094524230704 1203.9130434782608,373.17493259976385 1211.4906832298136,447.7442386197252 1219.0683229813665,508.0697892179168 1226.6459627329193,506.56169612746976 1234.223602484472,522.5466938977694 1241.8012422360248,526.1938286690012 1249.3788819875776,524.8767000240722 1256.9565217391305,501.0275506840486 1264.5341614906833,508.862053114938 1272.1118012422362,525.2284885929352 1279.6894409937888,515.417094410341 1287.2670807453417,477.2727134409971 1294.8447204968943,463.2766140213806 1302.4223602484471,460.65018765281155 1310.0,457.9599178171404" fill="none" stroke="#dc2626" stroke-width="2.5"><title>target_50_50_with_cash_band | end=2026-05-02 | return=84.04%</title></polyline>
<polyline points="90.0,684.6338049287286 97.5776397515528,684.7529784144647 105.15527950310559,668.7553010434025 112.73291925465838,686.4274682940103 120.31055900621118,680.2717794698557 127.88819875776397,681.8438948469507 135.46583850931677,695.0218271228445 143.04347826086956,692.466308680331 150.62111801242236,692.7146002091966 158.19875776397515,688.5369756772759 165.77639751552795,699.9383620020169 173.35403726708074,698.942931186047 180.93167701863354,675.565368883908 188.50931677018633,672.8704669975742 196.08695652173913,676.8068339767561 203.66459627329192,673.469808932289 211.24223602484471,678.2168735137936 218.8198757763975,678.8802352066823 226.3975155279503,682.0401773299515 233.9751552795031,680.2162326859938 241.5527950310559,698.9653418419689 249.1304347826087,700.5975425595332 256.7080745341615,701.7320789762821 264.2857142857143,701.7184569314676 271.8633540372671,698.9026673381256 279.44099378881987,701.6548413994244 287.01863354037266,694.6828604711535 294.5962732919255,692.8416703040307 302.17391304347825,703.2624498351631 309.7515527950311,684.9149974878177 317.32919254658384,658.5648311373517 324.90683229813664,649.0354481165315 332.48447204968943,629.3634085118172 340.0621118012422,636.4997707770091 347.639751552795,626.0084122271329 355.2173913043478,616.6687650121911 362.7950310559006,595.2271392648587 370.3726708074534,605.2716998598157 377.9503105590062,596.9508993665507 385.52795031055905,602.1824169677154 393.1055900621118,599.6581496619488 400.6832298136646,585.6163364993151 408.2608695652174,594.103006200087 415.83850931677017,602.6392377192215 423.416149068323,598.8429710914193 430.99378881987576,575.7242520548823 438.57142857142856,551.2065112031289 446.14906832298135,541.4743405041315 453.72670807453414,493.86961421006805 461.304347826087,455.2225040431908 468.88198757763973,480.48742586886823 476.45962732919253,491.87295387038307 484.0372670807453,468.5650698408711 491.6149068322982,477.6135760457785 499.19254658385097,507.7128100576287 506.7701863354037,497.2765049941926 514.3478260869565,496.1400668112925 521.9254658385094,502.3929118621528 529.5031055900622,522.7440671588729 537.0807453416149,493.24938728373866 544.6583850931677,450.2000212982144 552.2360248447205,450.99145352931686 559.8136645962733,453.36933449479346 567.3913043478261,466.38747371425643 574.9689440993789,474.4890713275547 582.5465838509317,488.1242823793415 590.1242236024844,510.31173723165637 597.7018633540373,501.3026126994822 605.27950310559,458.1263421188707 612.8571428571428,470.13719875626634 620.4347826086956,509.52593783020234 628.0124223602485,526.3946203871159 635.5900621118012,530.5401617163052 643.1677018633541,505.3200479460321 650.7453416149068,538.2988162706564 658.3229813664597,569.9576454639723 665.9006211180124,541.3695990238713 673.4782608695652,516.4213567387606 681.0559006211181,504.0104796340736 688.6335403726708,534.6422518196445 696.2111801242236,526.633589565263 703.7888198757763,498.0764435303787 711.3664596273292,515.0432383783061 718.9440993788819,508.25494281451427 726.5217391304348,438.60828367465786 734.0993788819876,404.21978645279626 741.6770186335403,367.3722762640521 749.2546583850932,348.30756539405724 756.832298136646,321.5161979355201 764.4099378881988,326.05089388564863 771.9875776397515,365.02773468852547 779.5652173913043,365.94546993859825 787.1428571428571,341.94121508617167 794.72049689441,372.76525210069127 802.2981366459627,348.5307707709068 809.8757763975156,346.86392893701156 817.4534161490683,370.5438657522448 825.0310559006211,415.0731547755147 832.608695652174,407.677224080091 840.1863354037267,403.4976772415136 847.7639751552795,473.75316054854244 855.3416149068322,474.7027672047362 862.9192546583851,504.5592693372168 870.4968944099379,500.9878883479055 878.0745341614906,519.3934493333486 885.6521739130435,519.8228612513753 893.2298136645963,533.0099646365535 900.8074534161491,536.8553068114375 908.3850931677019,492.0264788835328 915.9627329192546,488.2403043687154 923.5403726708074,383.23224453418925 931.1180124223603,398.4124754361107 938.695652173913,384.173380415501 946.2732919254659,389.80571225199355 953.8509316770186,388.4684330462372 961.4285714285714,388.101549574078 969.0062111801243,419.1219857823969 976.583850931677,394.97078517748383 984.1614906832299,384.68636744206924 991.7391304347825,322.4047499721951 999.3167701863354,256.62975808355014 1006.8944099378882,243.8512593353118 1014.472049689441,280.8116123028595 1022.0496894409938,205.30984969073108 1029.6273291925465,192.03104121885167 1037.2049689440994,173.92072456824167 1044.7826086956522,211.92569614744002 1052.3602484472049,214.7243863974445 1059.9378881987577,179.62228840547687 1067.5155279503106,190.5031551890446 1075.0931677018634,229.37427436386105 1082.6708074534163,170.04270730823907 1090.248447204969,240.70576792646153 1097.8260869565217,239.87761969033835 1105.4037267080746,223.74896356555678 1112.9813664596272,233.62691482938607 1120.55900621118,287.39063170094784 1128.136645962733,324.1707684557332 1135.7142857142856,387.82786847304476 1143.2919254658384,350.8117591256992 1150.8695652173913,351.10353907649636 1158.447204968944,341.43910332947627 1166.024844720497,359.5124915292269 1173.6024844720498,363.7436917927956 1181.1801242236024,339.29822019275133 1188.7577639751553,343.78016568219897 1196.3354037267081,309.2004835569636 1203.9130434782608,359.47494648994143 1211.4906832298136,435.75479241200117 1219.0683229813665,497.3359731493322 1226.6459627329193,495.78735772586106 1234.223602484472,512.0611408818861 1241.8012422360248,515.7966116536954 1249.3788819875776,514.4495235565121 1256.9565217391305,490.07085889776414 1264.5341614906833,498.0999477271313 1272.1118012422362,514.8562393248167 1279.6894409937888,504.8117411200516 1287.2670807453417,465.7516458382145 1294.8447204968943,451.4112323342471 1302.4223602484471,448.73498141652584 1310.0,445.97475813066245" fill="none" stroke="#2563eb" stroke-width="2.5"><title>narrow_cash_band_rebalance | end=2026-05-02 | return=88.48%</title></polyline>
<polyline points="90.0,684.6338049287286 97.5776397515528,684.5979007802955 105.15527950310559,667.0023704093066 112.73291925465838,686.5674116300477 120.31055900621118,679.6241206511288 127.88819875776397,681.3991240910708 135.46583850931677,695.65684645509 143.04347826086956,693.0601963446948 150.62111801242236,693.3080393255395 158.19875776397515,689.3389994551317 165.77639751552795,699.9464821595392 173.35403726708074,699.0048110042814 180.93167701863354,677.1022214065425 188.50931677018633,674.4717246954926 196.08695652173913,678.2160256706953 203.66459627329192,674.9178915672014 211.24223602484471,679.3583969788189 218.8198757763975,679.8402810823692 226.3975155279503,682.8049669385662 233.9751552795031,681.1525146566545 241.5527950310559,698.3027522728976 249.1304347826087,699.8009128587855 256.7080745341615,700.7913485174524 264.2857142857143,700.7896504779832 271.8633540372671,698.514296840007 279.44099378881987,700.9897529669574 287.01863354037266,694.876796326938 294.5962732919255,693.7533435392862 302.17391304347825,702.5256157377809 309.7515527950311,686.9978139236428 317.32919254658384,663.7062970479908 324.90683229813664,655.054772759948 332.48447204968943,637.230605476342 340.0621118012422,643.6890039855685 347.639751552795,634.2589429620143 355.2173913043478,625.9563927831178 362.7950310559006,606.892926633204 370.3726708074534,615.8301485632201 377.9503105590062,608.419539707957 385.52795031055905,613.0498149220219 393.1055900621118,610.8028415908001 400.6832298136646,597.941990168883 408.2608695652174,605.4717603583732 415.83850931677017,612.6891587126413 423.416149068323,609.2808201554428 430.99378881987576,588.5958447718208 438.57142857142856,566.6051051080915 446.14906832298135,557.7939830730022 453.72670807453414,515.6487035710811 461.304347826087,481.63554685320054 468.88198757763973,503.71583334371576 476.45962732919253,513.7342543993772 484.0372670807453,493.1048781427618 491.6149068322982,501.3797299709731 499.19254658385097,528.6606088631617 506.7701863354037,518.0776460043965 514.3478260869565,516.0006355060221 521.9254658385094,522.4894162662983 529.5031055900622,541.2495345739834 537.0807453416149,513.4653906698406 544.6583850931677,469.8785106199831 552.2360248447205,470.02202388719354 559.8136645962733,472.54182926186394 567.3913043478261,484.0003010367882 574.9689440993789,491.1364117468079 582.5465838509317,503.17680360895054 590.1242236024844,523.4113675199023 597.7018633540373,515.5135639087171 605.27950310559,477.3137210901556 612.8571428571428,488.4061828776805 620.4347826086956,523.5535080388503 628.0124223602485,540.6903101500341 635.5900621118012,543.8713385544808 643.1677018633541,521.2133209410694 650.7453416149068,553.0834123060508 658.3229813664597,583.1797450462512 665.9006211180124,557.6900313743132 673.4782608695652,533.9765767789222 681.0559006211181,523.187996910165 688.6335403726708,553.4194357454433 696.2111801242236,545.7398993323634 703.7888198757763,519.9685827578567 711.3664596273292,537.5354456504398 718.9440993788819,531.7327542025394 726.5217391304348,459.1731633509354 734.0993788819876,432.9003702186253 741.6770186335403,399.03762315114926 749.2546583850932,377.87980894207215 756.832298136646,353.01268004292206 764.4099378881988,357.74304393531685 771.9875776397515,392.8999606507721 779.5652173913043,393.0903775370648 787.1428571428571,370.93704585138664 794.72049689441,398.8347846327953 802.2981366459627,378.4673126515212 809.8757763975156,376.94035414505544 817.4534161490683,398.7800720867176 825.0310559006211,442.40097918213326 832.608695652174,435.10737323936365 840.1863354037267,430.19311437833824 847.7639751552795,501.4363141803823 855.3416149068322,502.50255982694523 862.9192546583851,533.8026275073828 870.4968944099379,529.5274032068749 878.0745341614906,550.7127607029922 885.6521739130435,552.2049301748526 893.2298136645963,571.3002265791389 900.8074534161491,576.0475849293753 908.3850931677019,531.7361446105426 915.9627329192546,528.2682267435205 923.5403726708074,401.99312142039804 931.1180124223603,419.246300832147 938.695652173913,405.50128444420216 946.2732919254659,410.1823326854958 953.8509316770186,409.1444376525095 961.4285714285714,408.65801271326774 969.0062111801243,442.12262984667984 976.583850931677,417.2278526684676 984.1614906832299,405.9486536559028 991.7391304347825,339.54043793432083 999.3167701863354,261.46800149513194 1006.8944099378882,247.43054333960026 1014.472049689441,283.69234494123776 1022.0496894409938,207.44008905052442 1029.6273291925465,194.77905125507573 1037.2049689440994,177.49087998515665 1044.7826086956522,212.29094817084496 1052.3602484472049,214.69156335789893 1059.9378881987577,182.45362709154244 1067.5155279503106,192.28929077376324 1075.0931677018634,227.96642961288313 1082.6708074534163,172.16734404777048 1090.248447204969,238.4376629777522 1097.8260869565217,236.3094943691736 1105.4037267080746,221.98872207124236 1112.9813664596272,231.54239557690477 1120.55900621118,283.79462796031487 1128.136645962733,318.95398818372354 1135.7142857142856,380.2866873359808 1143.2919254658384,344.51001912485265 1150.8695652173913,343.84018568003734 1158.447204968944,334.2040625169381 1166.024844720497,352.07965742287513 1173.6024844720498,356.2302737237109 1181.1801242236024,332.14702527137 1188.7577639751553,336.6978312702862 1196.3354037267081,303.15003031866354 1203.9130434782608,352.2030433526843 1211.4906832298136,426.2624327083524 1219.0683229813665,485.9125883648532 1226.6459627329193,484.5419169369527 1234.223602484472,502.30070198219175 1241.8012422360248,505.9758433484392 1249.3788819875776,504.58627959354897 1256.9565217391305,478.2423544118019 1264.5341614906833,486.08332523686306 1272.1118012422362,504.38617718565763 1279.6894409937888,492.9572739485409 1287.2670807453417,450.123129898121 1294.8447204968943,434.7583071019076 1302.4223602484471,432.96556686475566 1310.0,430.4359543001396" fill="none" stroke="#7c3aed" stroke-width="2.5"><title>drawdown_tilt_rebalance | end=2026-05-02 | return=94.24%</title></polyline>
<polyline points="90.0,684.6338049287286 97.5776397515528,685.0046536630928 105.15527950310559,670.5524437188279 112.73291925465838,687.8229350577594 120.31055900621118,680.4335942725212 127.88819875776397,682.3565372254362 135.46583850931677,696.8101245176259 143.04347826086956,694.1556736503961 150.62111801242236,694.8184089787376 158.19875776397515,690.8355560625583 165.77639751552795,703.4974836333278 173.35403726708074,702.3615923048689 180.93167701863354,676.5213874906996 188.50931677018633,673.5783406066431 196.08695652173913,678.0775726199888 203.66459627329192,674.5356932520431 211.24223602484471,680.2169292137564 218.8198757763975,681.5443581726197 226.3975155279503,685.300030725448 233.9751552795031,682.8401134026898 241.5527950310559,707.4257714651237 249.1304347826087,708.9359016311469 256.7080745341615,710.0 264.2857142857143,709.9470643262576 271.8633540372671,707.0651034072398 279.44099378881987,708.8858533998306 287.01863354037266,703.7561021298673 294.5962732919255,701.1314583638574 302.17391304347825,709.4591294955246 309.7515527950311,693.3004227649782 317.32919254658384,668.2774312001021 324.90683229813664,659.8293568882667 332.48447204968943,640.7235363454276 340.0621118012422,647.7685082656806 347.639751552795,636.2552878718328 355.2173913043478,624.8087143074735 362.7950310559006,597.5250158694308 370.3726708074534,609.7352825573569 377.9503105590062,599.1798171531751 385.52795031055905,606.7668363244273 393.1055900621118,601.571937435339 400.6832298136646,588.672596919524 408.2608695652174,599.2885360216321 415.83850931677017,609.2390390229726 423.416149068323,604.2949546092945 430.99378881987576,574.1862221925062 438.57142857142856,543.1112181091994 446.14906832298135,532.5793016135123 453.72670807453414,468.8737024435486 461.304347826087,417.5236874581489 468.88198757763973,451.5574821791582 476.45962732919253,467.0457955058044 484.0372670807453,436.9886755726771 491.6149068322982,447.8305370117847 499.19254658385097,483.87463289559776 506.7701863354037,472.68083752096896 514.3478260869565,473.4426499742989 521.9254658385094,478.609020991055 529.5031055900622,500.9583365439779 537.0807453416149,466.67919939714034 544.6583850931677,424.92828900080946 552.2360248447205,427.7066018152485 559.8136645962733,428.0420749729248 567.3913043478261,445.6945252603201 574.9689440993789,456.69571169700953 582.5465838509317,475.21958127075845 590.1242236024844,503.8939477591757 597.7018633540373,494.38768767846227 605.27950310559,447.6713216337719 612.8571428571428,463.1465948737564 620.4347826086956,507.8101122334263 628.0124223602485,522.7924821479871 635.5900621118012,527.2674758082118 643.1677018633541,504.17941240100777 650.7453416149068,535.3166097618159 658.3229813664597,563.6159131704951 665.9006211180124,536.8899460099983 673.4782608695652,516.0164535164744 681.0559006211181,504.8792897811095 688.6335403726708,531.4292910003262 696.2111801242236,524.529809532832 703.7888198757763,499.15648358085986 711.3664596273292,512.8122749765232 718.9440993788819,504.2883782632522 726.5217391304348,442.6516617547514 734.0993788819876,395.7924686721768 741.6770186335403,357.02235856475204 749.2546583850932,342.95144862661994 756.832298136646,314.79975763833227 764.4099378881988,317.4322732619932 771.9875776397515,360.8257725158014 779.5652173913043,363.97528371368617 787.1428571428571,339.10431884039747 794.72049689441,372.3903895761288 802.2981366459627,339.8570501179121 809.8757763975156,338.06493678138156 817.4534161490683,363.06405635271926 825.0310559006211,406.0457480781238 832.608695652174,398.6828834827409 840.1863354037267,396.945992451761 847.7639751552795,465.286030397087 855.3416149068322,465.6904282600274 862.9192546583851,490.3809179255643 870.4968944099379,488.5591169569253 878.0745341614906,503.2286164928888 885.6521739130435,502.57247803050103 893.2298136645963,510.0630600908832 900.8074534161491,512.9342010794594 908.3850931677019,473.28599602123774 915.9627329192546,469.2819104919613 923.5403726708074,382.20204372273605 931.1180124223603,395.3631331697672 938.695652173913,378.5632629559647 946.2732919254659,387.19159326815475 953.8509316770186,384.78636820000594 961.4285714285714,384.75568338740476 969.0062111801243,411.8902591982997 976.583850931677,386.77373302915856 984.1614906832299,378.0572694301239 991.7391304347825,319.5256241712786 999.3167701863354,264.03111037173096 1006.8944099378882,251.56735573193993 1014.472049689441,293.87239626853756 1022.0496894409938,212.56986352381148 1029.6273291925465,197.2516080302213 1037.2049689440994,175.88678631200958 1044.7826086956522,223.4034770559657 1052.3602484472049,226.83218670294838 1059.9378881987577,182.15031435992262 1067.5155279503106,196.09419153635065 1075.0931677018634,246.23671416969978 1082.6708074534163,176.49021048728412 1090.248447204969,262.73610029391847 1097.8260869565217,261.85443553885244 1105.4037267080746,245.4147709984964 1112.9813664596272,256.3194682777578 1120.55900621118,313.1530158948375 1128.136645962733,347.866471867812 1135.7142857142856,403.80451119127764 1143.2919254658384,372.4570954003866 1150.8695652173913,373.99343290170435 1158.447204968944,366.6447606970962 1166.024844720497,380.31137207806586 1173.6024844720498,383.5567271792144 1181.1801242236024,365.02774839889196 1188.7577639751553,368.12205912570926 1196.3354037267081,341.3176526317703 1203.9130434782608,379.28224029447557 1211.4906832298136,438.29831605502915 1219.0683229813665,487.50505293735034 1226.6459627329193,485.9430610065036 1234.223602484472,498.6749354260395 1241.8012422360248,502.19063020814895 1249.3788819875776,500.97995996558507 1256.9565217391305,480.3148101601266 1264.5341614906833,488.121941361666 1272.1118012422362,502.1616823869474 1279.6894409937888,494.31065232066123 1287.2670807453417,461.72986957225595 1294.8447204968943,449.30507079836906 1302.4223602484471,445.5669571498616 1310.0,442.6780231984461" fill="none" stroke="#b45309" stroke-width="2.5"><title>btc_defensive_eth_aggressive | end=2026-05-02 | return=89.70%</title></polyline>
</svg>