<svg xmlns="http://www.w3.org/2000/svg" width="1400" height="800">
<rect width="1400" height="800" fill="#f8fafc"/>
<text x="700.0" y="42" text-anchor="middle" font-family="monospace" font-size="24" fill="#0f172a">Portfolio Value Over Time | start=2024-07-01 | interval=7d</text>
<line x1="90" y1="710" x2="1310" y2="710" stroke="#334155" stroke-width="2"/>
<line x1="90" y1="90" x2="90" y2="710" stroke="#334155" stroke-width="2"/>
<line x1="90.0" y1="710" x2="90.0" y2="90" stroke="#cbd5e1" stroke-width="1"/>
<text x="90.0" y="734" text-anchor="middle" font-family="monospace" font-size="11" fill="#475569">2024-07-01</text>
<line x1="90" y1="710.0" x2="1310" y2="710.0" stroke="#cbd5e1" stroke-width="1"/>
<text x="78" y="714.0" text-anchor="end" font-family="monospace" font-size="12" fill="#475569">8103</text>
<line x1="334.0" y1="710" x2="334.0" y2="90" stroke="#cbd5e1" stroke-width="1"/>
<text x="334.0" y="734" text-anchor="middle" font-family="monospace" font-size="11" fill="#475569">2024-11-11</text>
<line x1="90" y1="586.0" x2="1310" y2="586.0" stroke="#cbd5e1" stroke-width="1"/>
<text x="78" y="590.0" text-anchor="end" font-family="monospace" font-size="12" fill="#475569">10358</text>
<line x1="578.0" y1="710" x2="578.0" y2="90" stroke="#cbd5e1" stroke-width="1"/>
<text x="578.0" y="734" text-anchor="middle" font-family="monospace" font-size="11" fill="#475569">2025-03-24</text>
<line x1="90" y1="462.00000000000006" x2="1310" y2="462.00000000000006" stroke="#cbd5e1" stroke-width="1"/>
<text x="78" y="466.00000000000006" text-anchor="end" font-family="monospace" font-size="12" fill="#475569">12613</text>
<line x1="822.0" y1="710" x2="822.0" y2="90" stroke="#cbd5e1" stroke-width="1"/>
<text x="822.0" y="734" text-anchor="middle" font-family="monospace" font-size="11" fill="#475569">2025-08-11</text>
<line x1="90" y1="338.0" x2="1310" y2="338.0" stroke="#cbd5e1" stroke-width="1"/>
<text x="78" y="342.0" text-anchor="end" font-family="monospace" font-size="12" fill="#475569">14868</text>
<line x1="1066.0" y1="710" x2="1066.0" y2="90" stroke="#cbd5e1" stroke-width="1"/>
<text x="1066.0" y="734" text-anchor="middle" font-family="monospace" font-size="11" fill="#475569">2025-12-22</text>
<line x1="90" y1="214.00000000000006" x2="1310" y2="214.00000000000006" stroke="#cbd5e1" stroke-width="1"/>
<text x="78" y="218.00000000000006" text-anchor="end" font-family="monospace" font-size="12" fill="#475569">17123</text>
<line x1="1310.0" y1="710" x2="1310.0" y2="90" stroke="#cbd5e1" stroke-width="1"/>
<text x="1310.0" y="734" text-anchor="middle" font-family="monospace" font-size="11" fill="#475569">2026-05-04</text>
<line x1="90" y1="90.0" x2="1310" y2="90.0" stroke="#cbd5e1" stroke-width="1"/>
<text x="78" y="94.0" text-anchor="end" font-family="monospace" font-size="12" fill="#475569">19378</text>
<text x="700.0" y="782" text-anchor="middle" font-family="monospace" font-size="16" fill="#0f172a">time</text>
<text x="24" y="400.0" transform="rotate(-90 24,400.0)" text-anchor="middle" font-family="monospace" font-size="16" fill="#0f172a">portfolio_value_usd</text>
<line x1="970" y1="80" x2="988" y2="80" stroke="#0f766e" stroke-width="3"/>
<text x="998" y="84" font-family="monospace" font-size="12" fill="#0f172a">budgeted_static_50_50_rebalance</text>
<line x1="970" y1="104" x2="988" y2="104" stroke="#9333ea" stroke-width="3"/>
<text x="998" y="108" font-family="monospace" font-size="12" fill="#0f172a">budgeted_drawdown_tilt_rebalance</text>
<line x1="970" y1="128" x2="988" y2="128" stroke="#92400e" stroke-width="3"/>
<text x="998" y="132" font-family="monospace" font-size="12" fill="#0f172a">budgeted_btc_defensive_eth_aggressive</text>
<line x1="970" y1="152" x2="988" y2="152" stroke="#0f766e" stroke-width="3"/>
<text x="998" y="156" font-family="monospace" font-size="12" fill="#0f172a">static_50_50_rebalance</text>
<line x1="970" y1="176" x2="988" y2="176" stroke="#dc2626" stroke-width="3"/>
<text x="998" y="180" font-family="monospace" font-size="12" fill="#0f172a">target_50_50_with_cash_band</text>
<line x1="970" y1="200" x2="988" y2="200" stroke="#2563eb" stroke-width="3"/>
<text x="998" y="204" font-family="monospace" font-size="12" fill="#0f172a">narrow_cash_band_rebalance</text>
<line x1="970" y1="224" x2="988" y2="224" stroke="#7c3aed" stroke-width="3"/>
<text x="998" y="228" font-family="monospace" font-size="12" fill="#0f172a">drawdown_tilt_rebalance</text>
<line x1="970" y1="248" x2="988" y2="248" stroke="#b45309" stroke-width="3"/>
<text x="998" y="252" font-family="monospace" font-size="12" fill="#0f172a">btc_defensive_eth_aggressive</text>
<polyline points="90.0,605.6751185330803 102.70833333333333,607.4875647634528 115.41666666666666,602.8595392483701 128.125,602.0632776983335 140.83333333333331,603.6996491717592 153.54166666666669,623.085438802818 166.25,614.0313495970955 178.95833333333334,615.5583675677792 191.66666666666666,610.9427450273067 204.375,619.001644897998 217.08333333333334,626.8431671839023 229.79166666666666,627.1775627340144 242.5,606.3506420226147 255.20833333333331,608.1658090594584 267.9166666666667,617.7340318269239 280.625,600.5585933345953 293.3333333333333,596.034990172758 306.0416666666667,595.2754526155665 318.75,609.5381166449945 331.4583333333333,500.06425059125786 344.1666666666667,505.55586341153753 356.875,485.92082807108363 369.5833333333333,462.9127936369385 382.2916666666667,454.02608246122327 395.0,409.16786670579484 407.70833333333337,483.17152766144625 420.41666666666663,494.00697560487947 433.125,440.70354330541807 445.83333333333337,505.4596225259302 458.54166666666663,472.5994408979043 471.25,480.87477593979486 483.95833333333337,507.3344661587755 496.66666666666663,537.0632977902062 509.375,533.9715092274017 522.0833333333334,565.8340551132244 534.7916666666666,613.3122942700422 547.5,660.0841081727662 560.2083333333334,639.9142003557295 572.9166666666666,614.956277780847 585.625,654.3572600789347 598.3333333333334,691.5292063494636 611.0416666666666,670.3574643901294 623.75,668.6527355357795 636.4583333333334,625.0082990508638 649.1666666666666,623.3414272394991 661.875,525.4989541634541 674.5833333333334,515.1247568078977 687.2916666666666,502.0061764418363 700.0,505.717843960147 712.7083333333333,487.6524333382804 725.4166666666667,509.78727128117345 738.125,526.6708637207626 750.8333333333333,514.934837862128 763.5416666666667,506.51768534991334 776.25,430.31503959583523 788.9583333333333,361.72362992271763 801.6666666666667,356.6300620944369 814.375,371.9730062659452 827.0833333333333,316.02291441029786 839.7916666666667,314.5424568247143 852.5,326.5514528006415 865.2083333333333,334.43113725886167 877.9166666666667,326.78191696292976 890.625,299.36459591184894 903.3333333333333,332.47628525692375 916.0416666666667,326.522501948885 928.75,259.4492109070153 941.4583333333333,321.0434804995902 954.1666666666667,355.3053689995914 966.875,334.0468537666098 979.5833333333333,396.90811083999307 992.2916666666667,401.546335022413 1005.0,486.0127497839736 1017.7083333333333,503.5274003479358 1030.4166666666667,522.7525573396629 1043.125,480.9683920769757 1055.8333333333333,507.5258892371427 1068.5416666666667,497.3732396969442 1081.25,508.10584126256117 1093.9583333333333,462.43281576193175 1106.6666666666667,481.9630722366792 1119.375,469.58711010626746 1132.0833333333333,504.9120061447303 1144.7916666666667,584.2722288228019 1157.5,631.7063059349575 1170.2083333333333,645.6257809661281 1182.9166666666667,672.2056133626876 1195.625,642.2071430448182 1208.3333333333333,646.8785443312349 1221.0416666666667,591.0572741389658 1233.75,622.9710793864881 1246.4583333333333,647.9602439051864 1259.1666666666667,633.319273250929 1271.875,590.266626579399 1284.5833333333333,591.3675695715915 1297.2916666666667,587.9695805460725 1310.0,576.3192431299394" fill="none" stroke="#0f766e" stroke-width="2.5"><title>budgeted_static_50_50_rebalance | end=2026-05-04 | return=5.34%</title></polyline>
<polyline points="90.0,605.6751185330803 102.70833333333333,607.0364994789686 115.41666666666666,602.1315233256 128.125,601.5841829147229 140.83333333333331,602.8041242369995 153.54166666666669,617.1589306373033 166.25,609.3483582718615 178.95833333333334,610.9380117644674 191.66666666666666,606.6946888022048 204.375,614.8612343080758 217.08333333333334,623.5248855606895 229.79166666666666,624.5112340588457 242.5,600.5619559480679 255.20833333333331,602.9347544568208 267.9166666666667,614.9778072524884 280.625,594.724162080568 293.3333333333333,589.6373703750086 306.0416666666667,591.2181297843808 318.75,609.296835065701 331.4583333333333,476.0521768718039 344.1666666666667,486.67990144724985 356.875,462.39850076322966 369.5833333333333,434.99643837711415 382.2916666666667,425.47250481853297 395.0,381.4076515165061 407.70833333333337,456.1270058964585 420.41666666666663,466.55703541890284 433.125,414.3932384690726 445.83333333333337,479.3195088970657 458.54166666666663,448.35838065358126 471.25,457.3671005147014 483.95833333333337,486.47961594752803 496.66666666666663,518.171153400427 509.375,513.1236052814935 522.0833333333334,549.6118557692045 534.7916666666666,606.2165158033105 547.5,660.6331216644419 560.2083333333334,638.893970958425 572.9166666666666,606.7175190114434 585.625,658.4262248065761 598.3333333333334,710.0 611.0416666666666,685.2709701495894 623.75,685.8544867330336 636.4583333333334,631.2596659560659 649.1666666666666,628.650381593489 661.875,496.55493506914524 674.5833333333334,484.4493117051194 687.2916666666666,469.468190617262 700.0,470.2730684034225 712.7083333333333,447.9114493009145 725.4166666666667,478.77650578045655 738.125,504.2954972416917 750.8333333333333,487.93172267468844 763.5416666666667,475.9422367952617 776.25,369.6801560229152 788.9583333333333,250.3367036032177 801.6666666666667,242.94767134615455 814.375,262.70384484667045 827.0833333333333,172.7459081020353 839.7916666666667,163.643149141943 852.5,167.8160536313793 865.2083333333333,179.56587978520895 877.9166666666667,174.53661505655293 890.625,133.6624066953235 903.3333333333333,188.23418677392783 916.0416666666667,182.34173742880728 928.75,90.0 941.4583333333333,175.47655196143478 954.1666666666667,223.97026112936305 966.875,195.75553224992132 979.5833333333333,286.1545013449595 992.2916666666667,292.75002478345476 1005.0,406.95016822201075 1017.7083333333333,428.68006763900996 1030.4166666666667,456.32127376910614 1043.125,397.2237924886849 1055.8333333333333,433.0550018763729 1068.5416666666667,420.1357753770315 1081.25,435.0859421738658 1093.9583333333333,372.57560152013014 1106.6666666666667,399.913843824969 1119.375,382.0863010361026 1132.0833333333333,432.60985260597545 1144.7916666666667,545.2543943529183 1157.5,606.9899493239219 1170.2083333333333,626.0312845546774 1182.9166666666667,659.8851851201335 1195.625,621.6792691306881 1208.3333333333333,627.8756149615938 1221.0416666666667,555.5533688299616 1233.75,597.5478537871013 1246.4583333333333,629.3660532781979 1259.1666666666667,610.5428432510104 1271.875,554.4548561835342 1284.5833333333333,557.6073496680507 1297.2916666666667,554.1826785950996 1310.0,539.5950320305019" fill="none" stroke="#9333ea" stroke-width="2.5"><title>budgeted_drawdown_tilt_rebalance | end=2026-05-04 | return=12.02%</title></polyline>
<polyline points="90.0,605.6751185330803 102.70833333333333,607.0344532058597 115.41666666666666,601.75802213517 128.125,600.7880481574564 140.83333333333331,602.2874111802397 153.54166666666669,619.8761420695371 166.25,610.5810939323368 178.95833333333334,612.0374893899665 191.66666666666666,606.2864862881366 204.375,616.0666283147383 217.08333333333334,625.2910801575615 229.79166666666666,624.9859679184991 242.5,599.1970660593184 255.20833333333331,601.1979215782542 267.9166666666667,612.570665033194 280.625,590.1973308297196 293.3333333333333,584.1630554282823 306.0416666666667,580.861872608395 318.75,597.5147144985281 331.4583333333333,466.5902886888864 344.1666666666667,470.024448977201 356.875,448.3534205050524 369.5833333333333,423.155576430801 382.2916666666667,413.08566469346306 395.0,361.1659331050374 407.70833333333337,442.683993970248 420.41666666666663,455.1885197944846 433.125,394.9134393175349 445.83333333333337,463.16157729852796 458.54166666666663,423.5736540732919 471.25,431.1237459937306 483.95833333333337,455.8099605483485 496.66666666666663,488.4716362165191 509.375,488.1795062066037 522.0833333333334,523.3479463459767 534.7916666666666,574.2377891300553 547.5,627.9475762483673 560.2083333333334,601.6465863012515 572.9166666666666,574.7414561724124 585.625,617.1825468294542 598.3333333333334,654.4043673898564 611.0416666666666,626.9372314508975 623.75,619.9347573379098 636.4583333333334,569.6485197499409 649.1666666666666,568.7849691298838 661.875,466.64864140960697 674.5833333333334,452.40849786056486 687.2916666666666,433.9321797240276 700.0,442.80302133290337 712.7083333333333,418.3912422938697 725.4166666666667,446.5461853479466 738.125,466.58556221283015 750.8333333333333,451.82801097131403 763.5416666666667,441.4460623680741 776.25,345.14561728242296 788.9583333333333,270.7562214456447 801.6666666666667,264.35283390518504 814.375,284.4247359582494 827.0833333333333,215.5615739528469 839.7916666666667,214.67729554046122 852.5,230.84023130988788 865.2083333333333,240.8074341067171 877.9166666666667,231.40328403353806 890.625,196.12547792607302 903.3333333333333,239.72937376901535 916.0416666666667,232.33327926254185 928.75,146.4797525429077 941.4583333333333,225.7639991920804 954.1666666666667,269.57452514190703 966.875,242.79227077632362 979.5833333333333,322.1005881890469 992.2916666666667,327.85109739629644 1005.0,431.5169214931028 1017.7083333333333,452.69345764261266 1030.4166666666667,475.53208716007816 1043.125,426.56212347090576 1055.8333333333333,458.15449660472325 1068.5416666666667,446.0233347916801 1081.25,458.7638614566039 1093.9583333333333,404.5983680443916 1106.6666666666667,427.9138148931875 1119.375,413.1785325083757 1132.0833333333333,455.43145206164854 1144.7916666666667,549.6048723737118 1157.5,605.2046664718473 1170.2083333333333,620.6105079769161 1182.9166666666667,650.39517599223 1195.625,617.6074844542942 1208.3333333333333,622.5647715672536 1221.0416666666667,562.424801649186 1233.75,597.5131996499648 1246.4583333333333,625.4525256187472 1259.1666666666667,609.3382523387675 1271.875,562.2343357680398 1284.5833333333333,562.8103171189198 1297.2916666666667,558.5702352124977 1310.0,545.1441923652975" fill="none" stroke="#92400e" stroke-width="2.5"><title>budgeted_btc_defensive_eth_aggressive | end=2026-05-04 | return=11.01%</title></polyline>
<polyline points="90.0,605.6751185330803 102.70833333333333,629.8410682713807 115.41666666666666,584.0947251951955 128.125,577.9341277953533 140.83333333333331,588.2531953169089 153.54166666666669,689.5619344671985 166.25,649.9096094661841 178.95833333333334,655.8377876082133 191.66666666666666,641.1449901024403 204.375,664.2535424070658 217.08333333333334,684.7798967756386 229.79166666666666,686.0239332833521 242.5,641.1384943798764 255.20833333333331,644.8451731542766 267.9166666666667,662.5480055643031 280.625,633.5760481253448 293.3333333333333,626.5803966696634 306.0416666666667,626.3577266884065 318.75,646.5760380182189 331.4583333333333,501.44875792399716 344.1666666666667,509.56951148981557 356.875,485.79522749358836 369.5833333333333,459.23383119870766 382.2916666666667,449.6076931633003 395.0,403.0414767509257 407.70833333333337,478.98318511926425 420.41666666666663,489.97367747122615 433.125,436.11477866918756 445.83333333333337,501.4515223169446 458.54166666666663,468.3589699910208 471.25,476.6928863212561 483.95833333333337,503.327715258563 496.66666666666663,533.2451555566458 509.375,530.1336084117336 522.0833333333334,562.1942028485571 534.7916666666666,609.966559133453 547.5,657.0274756383958 560.2083333333334,636.7330374270105 572.9166666666666,611.6210623426092 585.625,651.2651960218468 598.3333333333334,688.6665114070671 611.0416666666666,667.3641399905749 623.75,665.6488937170373 636.4583333333334,621.7351811094375 649.1666666666666,620.058025121853 661.875,521.6118919736596 674.5833333333334,511.3262544390668 687.2916666666666,498.3029768239695 700.0,502.1655340664573 712.7083333333333,484.1012003192002 725.4166666666667,506.25996933841066 738.125,523.1885744515837 750.8333333333333,511.40103799522524 763.5416666666667,502.9425346004768 776.25,426.3411674321896 788.9583333333333,357.3896095139623 801.6666666666667,352.44170609648336 814.375,367.37945267750507 827.0833333333333,313.9426546255349 839.7916666666667,313.06240425158205 852.5,325.5295408862372 865.2083333333333,332.993432579344 877.9166666666667,325.2788275156935 890.625,298.5862356052207 903.3333333333333,331.06985278231053 916.0416666666667,325.1223728527195 928.75,258.1859129383879 941.4583333333333,319.75799913650036 954.1666666666667,354.03767610939445 966.875,332.75521130808045 979.5833333333333,395.6978950130291 992.2916666666667,400.34285301429594 1005.0,484.9390091716797 1017.7083333333333,502.48130600870786 1030.4166666666667,521.7369151098087 1043.125,479.8861138950041 1055.8333333333333,506.48611604668986 1068.5416666666667,496.31719186756317 1081.25,507.0670026659625 1093.9583333333333,461.32071530262317 1106.6666666666667,480.88230390773845 1119.375,468.4864856748459 1132.0833333333333,503.86805999339055 1144.7916666666667,583.3556179918555 1157.5,630.8658054066774 1170.2083333333333,644.8076150117486 1182.9166666666667,671.4300964185292 1195.625,641.3834915984551 1208.3333333333333,646.0623884576931 1221.0416666666667,590.1515492971355 1233.75,622.1165623930094 1246.4583333333333,647.145823712293 1259.1666666666667,632.4813606317467 1271.875,589.3596330792784 1284.5833333333333,590.4623426088283 1297.2916666666667,587.0589012801727 1310.0,575.3898701099882" fill="none" stroke="#0f766e" stroke-width="2.5"><title>static_50_50_rebalance | end=2026-05-04 | return=5.51%</title></polyline>
<polyline points="90.0,605.6751185330803 102.70833333333333,622.2892089781618 115.41666666666666,576.6748659798803 128.125,572.2441360298513 140.83333333333331,579.5369603183261 153.54166666666669,650.6786006884575 166.25,612.064055812918 178.95833333333334,618.5743286978319 191.66666666666666,601.6892061761627 204.375,628.9808288162608 217.08333333333334,653.4873473591365 229.79166666666666,654.9814775886472 242.5,601.2035857952022 255.20833333333331,605.671032648101 267.9166666666667,627.0603232170831 280.625,592.0885103319758 293.3333333333333,584.2107878556394 306.0416666666667,586.558064924514 318.75,610.018644911497 331.4583333333333,449.32858421619176 344.1666666666667,458.7279138084021 356.875,438.51359748843385 369.5833333333333,417.4395847379025 382.2916666666667,411.0879004205085 395.0,383.49986931346245 407.70833333333337,425.57533508495476 420.41666666666663,432.69772512976107 433.125,395.11612207967516 445.83333333333337,435.2254178354236 458.54166666666663,412.5396237052742 471.25,418.50729240577397 483.95833333333337,437.98902618029297 496.66666666666663,466.53622249259877 509.375,461.35351400391414 522.0833333333334,497.3737735239396 534.7916666666666,553.470567619374 547.5,606.7388281107793 560.2083333333334,583.9017718254088 572.9166666666666,553.3220962166434 585.625,601.1214475579663 598.3333333333334,647.2303853963048 611.0416666666666,621.655451164531 623.75,619.776550671278 636.4583333333334,565.9215403806425 649.1666666666666,563.616804822172 661.875,441.4983150955116 674.5833333333334,430.4802060194634 687.2916666666666,416.9548112294334 700.0,418.4212536523111 712.7083333333333,398.80975073886566 725.4166666666667,420.51200979672944 738.125,439.84710667814056 750.8333333333333,426.3686220343511 763.5416666666667,416.30660220331833 776.25,325.87008847639675 788.9583333333333,250.72274315297358 801.6666666666667,246.80643130413563 814.375,256.75633452232455 827.0833333333333,222.9224438787125 839.7916666666667,222.24000348859676 852.5,229.21782047498635 865.2083333333333,233.43956883784563 877.9166666666667,229.11492029388683 890.625,214.15442443773316 903.3333333333333,232.18336455069073 916.0416666666667,228.86927434469874 928.75,191.5401601307151 941.4583333333333,225.25101672211395 954.1666666666667,244.1750409920657 966.875,229.96235794558072 979.5833333333333,268.68392548289404 992.2916666666667,272.6784279125714 1005.0,358.98992376038586 1017.7083333333333,380.2020026226603 1030.4166666666667,404.20206114607936 1043.125,350.17423519821597 1055.8333333333333,385.2613090649942 1068.5416666666667,371.7498992400143 1081.25,386.0684785775358 1093.9583333333333,325.0631448125318 1106.6666666666667,351.2677029872726 1119.375,334.6534141581406 1132.0833333333333,382.1438019690257 1144.7916666666667,488.5506174861681 1157.5,551.491160504562 1170.2083333333333,569.7470588448205 1182.9166666666667,604.3515853027723 1195.625,565.5860870492774 1208.3333333333333,571.6240732798792 1221.0416666666667,499.5027144908565 1233.75,540.9784369297771 1246.4583333333333,573.4376559147191 1259.1666666666667,554.4846338323489 1271.875,498.7454235028556 1284.5833333333333,500.1768212477791 1297.2916666666667,495.7462569250912 1310.0,480.53308478341506" fill="none" stroke="#dc2626" stroke-width="2.5"><title>target_50_50_with_cash_band | end=2026-05-04 | return=22.76%</title></polyline>
<polyline points="90.0,605.6751185330803 102.70833333333333,625.0078783237207 115.41666666666666,582.7063004130392 128.125,577.4613584285164 140.83333333333331,586.7905585032617 153.54166666666669,681.9285568702327 166.25,641.6603133340578 178.95833333333334,647.946755577646 191.66666666666666,631.8185413802541 204.375,657.5971559109404 217.08333333333334,680.6337896656545 229.79166666666666,681.9837156889213 242.5,631.4059263764585 255.20833333333331,635.6111875652126 267.9166666666667,655.794436486603 280.625,622.773379368228 293.3333333333333,615.2086783829434 306.0416666666667,617.026821515987 318.75,639.2944875424317 331.4583333333333,486.45382445173266 344.1666666666667,496.8279227161727 356.875,471.7572215724252 369.5833333333333,444.05330917932366 382.2916666666667,434.8567525982507 395.0,392.79627935301113 407.70833333333337,459.322824422072 420.41666666666663,469.59698671443766 433.125,417.220662774649 445.83333333333337,477.25467029656477 458.54166666666663,445.30357708658954 471.25,453.53688263683307 483.95833333333337,480.2717327157778 496.66666666666663,511.4630007597299 509.375,506.8349512824361 522.0833333333334,541.3779784797307 534.7916666666666,594.0547891689116 547.5,643.7520987440471 560.2083333333334,622.790337938054 572.9166666666666,594.6818623845043 585.625,638.9997012667487 598.3333333333334,681.6010093683855 611.0416666666666,658.0292666717778 623.75,656.2576003195215 636.4583333333334,606.4519136721366 649.1666666666666,604.3632250219929 661.875,490.882668108089 674.5833333333334,480.46679515295494 687.2916666666666,467.71751442554694 700.0,469.11069520444454 712.7083333333333,450.7348255698744 725.4166666666667,474.80269682305664 738.125,494.2060741515265 750.8333333333333,481.258788952079 763.5416666666667,471.79390425949293 776.25,387.3970794209978 788.9583333333333,304.61177743391625 801.6666666666667,299.56480622784653 814.375,313.58768861809057 827.0833333333333,263.226898705119 839.7916666666667,261.9590488978556 852.5,272.40005740577226 865.2083333333333,278.98829178293016 877.9166666666667,272.3978813854945 890.625,249.13589154179152 903.3333333333333,277.3728601313967 916.0416666666667,272.23450758499314 928.75,214.3529867068816 941.4583333333333,267.3869854050787 954.1666666666667,296.91071040458223 966.875,276.80660347430063 979.5833333333333,334.29717371833107 992.2916666666667,338.7195919605345 1005.0,424.1031877325954 1017.7083333333333,443.79443688894196 1030.4166666666667,465.519303034101 1043.125,416.7735183964151 1055.8333333333333,448.6303784290837 1068.5416666666667,436.31939023959325 1081.25,449.3796823543382 1093.9583333333333,393.6283042280544 1106.6666666666667,417.62705829050304 1119.375,402.40402276798307 1132.0833333333333,445.9570253379047 1144.7916666666667,543.4564549569417 1157.5,601.0691794167666 1170.2083333333333,617.7022299069804 1182.9166666666667,649.3278338538295 1195.625,613.9106052114446 1208.3333333333333,619.4320144703871 1221.0416666666667,553.3658750018145 1233.75,591.4680177400962 1246.4583333333333,621.2638802881839 1259.1666666666667,603.8771264607069 1271.875,552.7259471283836 1284.5833333333333,554.0725173384288 1297.2916666666667,550.0068226615999 1310.0,536.0281211228357" fill="none" stroke="#2563eb" stroke-width="2.5"><title>narrow_cash_band_rebalance | end=2026-05-04 | return=12.67%</title></polyline>
<polyline points="90.0,605.6751185330803 102.70833333333333,626.095832721405 115.41666666666666,582.4989929756847 128.125,577.5971677965317 140.83333333333331,586.9294726911515 153.54166666666669,679.7762221725519 166.25,640.2651884261868 178.95833333333334,647.2091988487505 191.66666666666666,632.9768202253449 204.375,657.30934714577 217.08333333333334,680.5093380970652 229.79166666666666,683.5977190684096 242.5,633.1651882509652 255.20833333333331,637.9258229216165 267.9166666666667,659.4318437746576 280.625,627.3191090441197 293.3333333333333,620.1062212380552 306.0416666666667,624.2414988014144 318.75,648.0696472693254 331.4583333333333,487.7827008670224 344.1666666666667,500.84885886491173 356.875,475.1986791029042 369.5833333333333,447.63629994972274 382.2916666666667,439.01368502837107 395.0,400.79353421973445 407.70833333333337,461.7798222747367 420.41666666666663,471.2753360967406 433.125,422.2360125199091 445.83333333333337,478.5163326506498 458.54166666666663,449.3963065883309 471.25,458.005729530957 483.95833333333337,486.3658284005837 496.66666666666663,518.3415437787708 509.375,512.330914286339 522.0833333333334,548.8940957970756 534.7916666666666,605.2272858880349 547.5,657.8123106131471 560.2083333333334,637.3159754706139 572.9166666666666,605.9808536928683 585.625,655.0491742429517 598.3333333333334,705.0234401872989 611.0416666666666,682.5592322747099 623.75,685.5046899745722 636.4583333333334,631.3894953123973 649.1666666666666,628.0884490803758 661.875,485.5788304197421 674.5833333333334,475.06026859891404 687.2916666666666,462.52485890867706 700.0,461.5186196810183 712.7083333333333,442.3145521662925 725.4166666666667,469.37612422227454 738.125,492.0958688230868 750.8333333333333,477.6555519358184 763.5416666666667,466.9985504639729 776.25,373.40495581910864 788.9583333333333,273.4086420623374 801.6666666666667,268.2298305284235 814.375,281.7606586216373 827.0833333333333,231.81092985151975 839.7916666666667,230.31825988525384 852.5,239.8334251891875 865.2083333333333,246.12798588291224 877.9166666666667,239.79448020028963 890.625,217.53549865593646 903.3333333333333,244.50241369162705 916.0416666666667,239.65128556401584 928.75,184.07652898545155 941.4583333333333,234.8299803489124 954.1666666666667,263.2693169257042 966.875,243.59285572651333 979.5833333333333,300.0166971169918 992.2916666666667,304.8888312969059 1005.0,398.6604113844957 1017.7083333333333,418.18984307548106 1030.4166666666667,441.5782998886073 1043.125,390.18462282130025 1055.8333333333333,422.04327667828306 1068.5416666666667,410.1625470263207 1081.25,423.2646697244997 1093.9583333333333,367.8514350285853 1106.6666666666667,391.75950768072937 1119.375,376.39383924580983 1132.0833333333333,420.01480402235774 1144.7916666666667,518.0206386356114 1157.5,577.2601192215229 1170.2083333333333,596.0720478361246 1182.9166666666667,630.5540198563491 1195.625,591.1272350413226 1208.3333333333333,597.5661546766036 1221.0416666666667,522.0786863434878 1233.75,565.3675795960585 1246.4583333333333,598.270312102665 1259.1666666666667,578.8075607032825 1271.875,520.9629533537975 1284.5833333333333,523.8826274176126 1297.2916666666667,520.2725032966644 1310.0,505.3424825049374" fill="none" stroke="#7c3aed" stroke-width="2.5"><title>drawdown_tilt_rebalance | end=2026-05-04 | return=18.25%</title></polyline>
<polyline points="90.0,605.6751185330803 102.70833333333333,626.2161758106356 115.41666666666666,588.0252291552462 128.125,581.7703870947552 140.83333333333331,591.5533753558323 153.54166666666669,692.1674855830657 166.25,654.5241331339189 178.95833333333334,659.2346472510328 191.66666666666666,644.1653056776622 204.375,666.0458708046186 217.08333333333334,684.0260384855462 229.79166666666666,683.5463791975195 242.5,643.6086360492744 255.20833333333331,646.4333130838106 267.9166666666667,661.0360702716048 280.625,634.6488327274576 293.3333333333333,627.5069115245942 306.0416666666667,623.9820719709613 318.75,643.4734666202132 331.4583333333333,494.7195763079508 344.1666666666667,499.36153507744393 356.875,475.8669514979017 369.5833333333333,449.41107913047875 382.2916666666667,439.2681254002522 395.0,388.04963133293637 407.70833333333337,467.9946632058309 420.41666666666663,480.15248440493565 433.125,421.7241817371517 445.83333333333337,487.80871728025613 458.54166666666663,449.8315230556259 471.25,457.1192872310053 483.95833333333337,480.8699805817982 496.66666666666663,511.58446389032036 509.375,510.8893866753798 522.0833333333334,543.7569544805458 534.7916666666666,591.4941537811479 547.5,641.1172826522029 560.2083333333334,618.3589340993638 572.9166666666666,594.5650271040071 585.625,632.8337914027886 598.3333333333334,666.4289666696698 611.0416666666666,644.0440264588357 623.75,639.7702933868557 636.4583333333334,598.1638817856685 649.1666666666666,597.0847213692919 661.875,505.38847114770397 674.5833333333334,493.67139931485076 687.2916666666666,478.4140072600113 700.0,485.40289329571664 712.7083333333333,465.0081307641833 725.4166666666667,488.52588989658017 738.125,505.37624367781086 750.8333333333333,493.13899498503645 763.5416666666667,484.5410074043052 776.25,405.16163435506627 788.9583333333333,339.63014659755163 801.6666666666667,334.34342070813744 814.375,350.62184839302347 827.0833333333333,292.9596682041734 839.7916666666667,292.00296435548466 852.5,305.45951756696127 865.2083333333333,313.61305557842155 877.9166666666667,305.30008801434667 890.625,276.2078407501369 903.3333333333333,311.692440490908 916.0416666666667,305.22087886693873 928.75,232.3957891774731 941.4583333333333,299.62954102662684 954.1666666666667,336.9671333082479 966.875,313.8553496089594 979.5833333333333,382.1865511854798 992.2916666666667,387.20513936435447 1005.0,478.56138971253176 1017.7083333333333,496.84801437999135 1030.4166666666667,514.8955041030497 1043.125,476.8207062092474 1055.8333333333333,502.06222589626145 1068.5416666666667,491.9346520033438 1081.25,501.74867367501724 1093.9583333333333,459.43754941425885 1106.6666666666667,477.25836488035225 1119.375,466.34864782445743 1132.0833333333333,497.88474198831955 1144.7916666666667,568.583372959056 1157.5,614.1585933015386 1170.2083333333333,626.144649671098 1182.9166666666667,651.340604262769 1195.625,623.3947016821497 1208.3333333333333,627.4642503546257 1221.0416666666667,576.7496158128574 1233.75,606.1284895237371 1246.4583333333333,630.2694958543018 1259.1666666666667,616.4663253921814 1271.875,576.5894195094152 1284.5833333333333,575.8032794029302 1297.2916666666667,571.4407598263348 1310.0,559.5744852477322" fill="none" stroke="#b45309" stroke-width="2.5"><title>btc_defensive_eth_aggressive | end=2026-05-04 | return=8.38%</title></polyline>
</svg>