<svg xmlns="http://www.w3.org/2000/svg" width="1400" height="800">
<rect width="1400" height="800" fill="#f8fafc"/>
<text x="700.0" y="42" text-anchor="middle" font-family="monospace" font-size="24" fill="#0f172a">Portfolio Value Over Time | start=2020-07-01 | interval=7d</text>
<line x1="90" y1="710" x2="1310" y2="710" stroke="#334155" stroke-width="2"/>
<line x1="90" y1="90" x2="90" y2="710" stroke="#334155" stroke-width="2"/>
<line x1="90.0" y1="710" x2="90.0" y2="90" stroke="#cbd5e1" stroke-width="1"/>
<text x="90.0" y="734" text-anchor="middle" font-family="monospace" font-size="11" fill="#475569">2020-07-01</text>
<line x1="90" y1="710.0" x2="1310" y2="710.0" stroke="#cbd5e1" stroke-width="1"/>
<text x="78" y="714.0" text-anchor="end" font-family="monospace" font-size="12" fill="#475569">8283</text>
<line x1="334.0" y1="710" x2="334.0" y2="90" stroke="#cbd5e1" stroke-width="1"/>
<text x="334.0" y="734" text-anchor="middle" font-family="monospace" font-size="11" fill="#475569">2021-09-01</text>
<line x1="90" y1="586.0" x2="1310" y2="586.0" stroke="#cbd5e1" stroke-width="1"/>
<text x="78" y="590.0" text-anchor="end" font-family="monospace" font-size="12" fill="#475569">33042</text>
<line x1="578.0" y1="710" x2="578.0" y2="90" stroke="#cbd5e1" stroke-width="1"/>
<text x="578.0" y="734" text-anchor="middle" font-family="monospace" font-size="11" fill="#475569">2022-11-02</text>
<line x1="90" y1="462.0" x2="1310" y2="462.0" stroke="#cbd5e1" stroke-width="1"/>
<text x="78" y="466.0" text-anchor="end" font-family="monospace" font-size="12" fill="#475569">57802</text>
<line x1="822.0" y1="710" x2="822.0" y2="90" stroke="#cbd5e1" stroke-width="1"/>
<text x="822.0" y="734" text-anchor="middle" font-family="monospace" font-size="11" fill="#475569">2023-12-27</text>
<line x1="90" y1="338.0" x2="1310" y2="338.0" stroke="#cbd5e1" stroke-width="1"/>
<text x="78" y="342.0" text-anchor="end" font-family="monospace" font-size="12" fill="#475569">82561</text>
<line x1="1066.0" y1="710" x2="1066.0" y2="90" stroke="#cbd5e1" stroke-width="1"/>
<text x="1066.0" y="734" text-anchor="middle" font-family="monospace" font-size="11" fill="#475569">2025-02-26</text>
<line x1="90" y1="214.00000000000006" x2="1310" y2="214.00000000000006" stroke="#cbd5e1" stroke-width="1"/>
<text x="78" y="218.00000000000006" text-anchor="end" font-family="monospace" font-size="12" fill="#475569">107321</text>
<line x1="1310.0" y1="710" x2="1310.0" y2="90" stroke="#cbd5e1" stroke-width="1"/>
<text x="1310.0" y="734" text-anchor="middle" font-family="monospace" font-size="11" fill="#475569">2026-04-29</text>
<line x1="90" y1="90.0" x2="1310" y2="90.0" stroke="#cbd5e1" stroke-width="1"/>
<text x="78" y="94.0" text-anchor="end" font-family="monospace" font-size="12" fill="#475569">132080</text>
<text x="700.0" y="782" text-anchor="middle" font-family="monospace" font-size="16" fill="#0f172a">time</text>
<text x="24" y="400.0" transform="rotate(-90 24,400.0)" text-anchor="middle" font-family="monospace" font-size="16" fill="#0f172a">portfolio_value_usd</text>
<line x1="970" y1="80" x2="988" y2="80" stroke="#0f766e" stroke-width="3"/>
<text x="998" y="84" font-family="monospace" font-size="12" fill="#0f172a">budgeted_static_50_50_rebalance</text>
<line x1="970" y1="104" x2="988" y2="104" stroke="#9333ea" stroke-width="3"/>
<text x="998" y="108" font-family="monospace" font-size="12" fill="#0f172a">budgeted_drawdown_tilt_rebalance</text>
<line x1="970" y1="128" x2="988" y2="128" stroke="#92400e" stroke-width="3"/>
<text x="998" y="132" font-family="monospace" font-size="12" fill="#0f172a">budgeted_btc_defensive_eth_aggressive</text>
<line x1="970" y1="152" x2="988" y2="152" stroke="#0f766e" stroke-width="3"/>
<text x="998" y="156" font-family="monospace" font-size="12" fill="#0f172a">static_50_50_rebalance</text>
<line x1="970" y1="176" x2="988" y2="176" stroke="#dc2626" stroke-width="3"/>
<text x="998" y="180" font-family="monospace" font-size="12" fill="#0f172a">target_50_50_with_cash_band</text>
<line x1="970" y1="200" x2="988" y2="200" stroke="#2563eb" stroke-width="3"/>
<text x="998" y="204" font-family="monospace" font-size="12" fill="#0f172a">narrow_cash_band_rebalance</text>
<line x1="970" y1="224" x2="988" y2="224" stroke="#7c3aed" stroke-width="3"/>
<text x="998" y="228" font-family="monospace" font-size="12" fill="#0f172a">drawdown_tilt_rebalance</text>
<line x1="970" y1="248" x2="988" y2="248" stroke="#b45309" stroke-width="3"/>
<text x="998" y="252" font-family="monospace" font-size="12" fill="#0f172a">btc_defensive_eth_aggressive</text>
<polyline points="90.0,701.4013557348932 94.01315789473684,701.3877030711299 98.02631578947368,701.4066774467628 102.03947368421052,701.3408728064621 106.05263157894737,701.1072934289757 110.0657894736842,700.8136892215674 114.07894736842105,700.8769852092554 118.09210526315789,700.7820353416587 122.10526315789474,700.903690791286 126.11842105263158,700.6725432177617 130.1315789473684,701.2655975392233 134.14473684210526,701.0761970064325 138.1578947368421,701.4512420283004 142.17105263157896,701.1106589298756 146.18421052631578,701.2511197089544 150.19736842105263,700.8298646101705 154.21052631578948,700.4243269005042 158.2236842105263,700.3338787382265 162.23684210526315,699.9956325279545 166.25,699.0783388909534 170.26315789473682,698.3834779769443 174.2763157894737,697.3014547947929 178.28947368421052,696.8887075250752 182.30263157894737,697.319918965679 186.31578947368422,695.8286834316347 190.32894736842104,695.7866873803624 194.34210526315792,692.2500524929243 198.35526315789474,684.8242297523102 202.36842105263156,685.5216285148299 206.38157894736844,683.4718510450263 210.39473684210526,686.6624146239678 214.40789473684208,679.457465397062 218.42105263157893,676.171776261066 222.4342105263158,672.4116167315958 226.44736842105263,675.8321260840313 230.46052631578948,676.2703911076039 234.4736842105263,671.684220240176 238.48684210526315,670.2583493832989 242.5,675.4945908896296 246.51315789473685,669.1379731320999 250.52631578947367,669.6519437886475 254.53947368421052,661.4727859707675 258.5526315789474,665.7749808841736 262.56578947368416,660.6041436040065 266.57894736842104,650.1756739213516 270.5921052631579,649.6697151732051 274.60526315789474,670.8949663696105 278.61842105263156,664.613444494697 282.63157894736844,667.4696103409839 286.64473684210526,668.6783637044191 290.6578947368421,671.2197941141899 294.67105263157896,677.9370191056494 298.68421052631584,673.6281392099088 302.6973684210526,673.6298573834647 306.7105263157895,678.0372278067017 310.72368421052636,678.3010840168096 314.7368421052631,671.1276640453544 318.75,665.9637882464989 322.7631578947369,657.9225193283638 326.77631578947364,660.1372827137777 330.7894736842105,655.5581150448158 334.8026315789474,648.2523931490484 338.81578947368416,653.4947962270099 342.82894736842104,651.143422687642 346.84210526315786,659.6284664252256 350.85526315789474,663.304684007104 354.8684210526316,648.0269870852072 358.8815789473684,646.6528406133276 362.89473684210526,635.8568672875748 366.90789473684214,642.4089927791331 370.92105263157896,632.2675712232827 374.9342105263158,630.9643203607374 378.9473684210526,637.1405537841824 382.9605263157895,639.0019208830943 386.9736842105263,635.4925080765762 390.9868421052631,640.6298625296207 395.0,645.9837239263286 399.0131578947368,646.5638237134368 403.0263157894737,651.4622957269103 407.0394736842105,654.1120833223031 411.05263157894734,655.616158751269 415.0657894736842,659.972801871666 419.07894736842104,669.392695191643 423.09210526315786,666.9791880291965 427.1052631578948,656.552776698765 431.1184210526316,658.187627671048 435.1315789473684,667.9980398851865 439.1447368421052,660.0687540496082 443.15789473684214,663.6718545659973 447.17105263157896,663.6278873200008 451.1842105263158,659.6124604249419 455.19736842105266,653.2019238884483 459.2105263157895,658.0126190625477 463.2236842105263,659.7906340796673 467.2368421052632,660.1304124667013 471.25,663.5742721399886 475.2631578947368,662.7391493408642 479.2763157894737,679.3377571681314 483.2894736842105,681.4347377088313 487.30263157894734,680.5758913612977 491.3157894736842,681.8695996806026 495.32894736842104,681.9237580816565 499.34210526315786,693.4484861204406 503.3552631578948,697.3985606302762 507.3684210526316,696.701227866104 511.3815789473684,695.3338046748879 515.3947368421052,696.4423701817848 519.4078947368421,689.2478669881816 523.421052631579,687.9728783406679 527.4342105263158,688.2935396198225 531.4473684210527,684.4590476637168 535.4605263157895,685.1498870276168 539.4736842105262,688.879945728158 543.4868421052631,691.1799393013549 547.5,690.7191276359648 551.5131578947369,689.9114548010057 555.5263157894738,696.5136812215953 559.5394736842105,694.5638065050472 563.5526315789473,693.7843113203976 567.5657894736842,695.3546647082492 571.578947368421,695.5123491077095 575.5921052631579,690.2732477106836 579.6052631578948,691.446890568748 583.6184210526317,700.7783365923244 587.6315789473683,698.5165758238355 591.6447368421052,699.0229629001409 595.6578947368421,696.9202205613319 599.671052631579,698.1232664488192 603.6842105263157,696.1859654971154 607.6973684210526,698.4189063456841 611.7105263157895,699.0338068859636 615.7236842105262,697.7487177084422 619.7368421052632,694.7482903536093 623.75,690.4600662899367 627.7631578947368,686.7533372738301 631.7763157894738,685.687875916324 635.7894736842105,686.2491677503376 639.8026315789474,684.6208403265547 643.8157894736843,685.2602025748683 647.828947368421,685.4170502328784 651.8421052631579,689.3510886770237 655.8552631578948,684.8205194174036 659.8684210526316,680.6801278282836 663.8815789473684,678.8101388227566 667.8947368421052,677.1201073669029 671.9078947368421,675.2562453244752 675.921052631579,676.0933686719769 679.9342105263157,677.5639847063719 683.9473684210526,676.3199804834575 687.9605263157895,678.7748398120709 691.9736842105262,679.3156469479123 695.9868421052632,680.8098726195597 700.0,678.681571408286 704.0131578947368,680.2689822815449 708.0263157894736,684.4410502756231 712.0394736842104,675.419959158106 716.0526315789474,676.3315462885328 720.0657894736843,674.5464789566688 724.078947368421,675.2906550587451 728.0921052631579,675.4961108062613 732.1052631578947,676.3510593646264 736.1184210526316,677.0792579974631 740.1315789473684,676.423159294398 744.1447368421053,678.0957628864791 748.1578947368421,682.4790415202904 752.171052631579,681.1434704382305 756.1842105263157,683.9563763937238 760.1973684210526,683.8541928531014 764.2105263157896,682.6861190457147 768.2236842105264,683.8922570510184 772.2368421052632,681.5914338328392 776.25,683.8903719224469 780.2631578947368,682.4455708829058 784.2763157894736,672.3000330625871 788.2894736842104,670.3178912173397 792.3026315789474,669.4023426546989 796.3157894736843,664.2363709609056 800.328947368421,664.6037611233395 804.3421052631579,664.7802368846843 808.3552631578947,655.6441281182049 812.3684210526316,655.9933094663782 816.3815789473684,656.254935028195 820.3947368421053,653.3718317181606 824.4078947368421,656.8410923689308 828.421052631579,646.9652051152342 832.4342105263157,651.4943521937681 836.4473684210526,658.862283319079 840.4605263157896,655.7945008557234 844.4736842105264,651.7533878654206 848.4868421052632,638.9926373964211 852.5,635.8330331379742 856.5131578947368,619.3347075961024 860.5263157894736,609.0219446471282 864.5394736842104,599.8368278447537 868.5526315789474,612.2839751420266 872.5657894736843,611.1909851472241 876.578947368421,617.1295938932437 880.5921052631579,609.436558425526 884.6052631578947,626.3066007560749 888.6184210526316,621.3302905539974 892.6315789473684,629.0896995489024 896.6447368421053,626.5885043929865 900.6578947368421,621.3775719729097 904.671052631579,607.429080571943 908.6842105263157,608.2788150800626 912.6973684210526,603.6388491898678 916.7105263157896,610.9404447473532 920.7236842105264,613.6848890938937 924.7368421052632,620.1432034103663 928.75,621.9346031469164 932.7631578947368,627.015575493194 936.7763157894736,617.0612426104653 940.7894736842104,616.8099181302914 944.8026315789474,619.0933873960205 948.8157894736843,641.2764933253483 952.828947368421,633.1872874116647 956.8421052631579,631.6394989297854 960.8552631578947,635.0579787446334 964.8684210526316,637.2224630907504 968.8815789473684,639.5523795695935 972.8947368421053,635.4281670877073 976.9078947368421,630.8868956832491 980.921052631579,636.5275062356338 984.9342105263157,636.4851510604466 988.9473684210526,626.825129479337 992.9605263157896,629.1435023062388 996.9736842105264,622.3768795831782 1000.9868421052632,618.6968436844597 1005.0,599.3206962528272 1009.0131578947368,598.582180358173 1013.0263157894736,586.9727082468215 1017.0394736842104,581.6449128848659 1021.0526315789474,580.0484217998292 1025.0657894736842,584.5475009548363 1029.078947368421,587.4596414114586 1033.092105263158,593.4280470553487 1037.1052631578946,593.4692667503944 1041.1184210526317,587.4440087492768 1045.1315789473683,589.1528989310782 1049.1447368421054,591.4426790474232 1053.157894736842,602.1614077096845 1057.171052631579,602.2876831325291 1061.1842105263158,603.5179283758462 1065.1973684210525,618.7236647834286 1069.2105263157896,616.3144133345295 1073.2236842105262,627.0644386344741 1077.2368421052633,622.1835381545918 1081.25,623.0720162412304 1085.2631578947367,630.0003890529383 1089.2763157894738,632.4092279799137 1093.2894736842104,633.3731044620544 1097.3026315789475,623.1852473144589 1101.3157894736842,622.9686298530667 1105.328947368421,620.9399115408584 1109.342105263158,600.7744483311566 1113.3552631578946,598.4466786578741 1117.3684210526314,596.814063574612 1121.3815789473686,600.092863441971 1125.3947368421052,594.4324284375576 1129.407894736842,601.763192111555 1133.421052631579,602.5561465021342 1137.4342105263158,598.5059612479373 1141.4473684210525,592.9088679356911 1145.4605263157896,575.7793127977945 1149.4736842105265,570.2253776693826 1153.4868421052631,566.9938217794333 1157.5,571.2421519003334 1161.5131578947369,544.4519189505878 1165.5263157894735,558.0534911572911 1169.5394736842104,556.4736427451329 1173.5526315789475,557.226712987479 1177.5657894736842,557.848424328505 1181.578947368421,551.8313997583059 1185.592105263158,561.802920264342 1189.6052631578948,554.9969289014994 1193.6184210526314,548.933098022726 1197.6315789473686,566.3747333339943 1201.6447368421052,571.6468730448713 1205.657894736842,568.3621262188966 1209.671052631579,580.9499061905968 1213.6842105263158,582.4891582319792 1217.6973684210525,595.9342994898622 1221.7105263157896,596.4801058097349 1225.7236842105265,591.6097345688604 1229.7368421052631,589.9604081158064 1233.75,602.7658671945824 1237.7631578947369,599.7853147202586 1241.7763157894735,599.445026449552 1245.7894736842104,593.3455629444628 1249.8026315789475,586.2310818153077 1253.8157894736842,598.0844141648869 1257.828947368421,597.7060624057322 1261.842105263158,624.2917354767452 1265.8552631578948,631.9597542736844 1269.8684210526314,632.044217974094 1273.8815789473686,629.0666418213078 1277.8947368421052,624.725079780125 1281.907894736842,627.7705718186487 1285.921052631579,624.1592295036854 1289.9342105263158,624.8166629993647 1293.9473684210525,627.4211892799378 1297.9605263157896,624.5090825011788 1301.9736842105265,618.7048599432861 1305.9868421052631,616.2160139644886 1310.0,620.2751789938089" fill="none" stroke="#0f766e" stroke-width="2.5"><title>budgeted_static_50_50_rebalance | end=2026-04-29 | return=161.99%</title></polyline>
<polyline points="90.0,701.4013557348932 94.01315789473684,701.3877030711299 98.02631578947368,701.4066774467628 102.03947368421052,701.3408728064621 106.05263157894737,701.162722793071 110.0657894736842,700.9744849497388 114.07894736842105,701.010048981317 118.09210526315789,700.962332269642 122.10526315789474,701.017266361184 126.11842105263158,700.9187186777691 130.1315789473684,701.1434883848974 134.14473684210526,701.059251028594 138.1578947368421,701.2413189900294 142.17105263157896,701.0506994671596 146.18421052631578,701.1333343217749 150.19736842105263,700.8729843830289 154.21052631578948,700.6375919123851 158.2236842105263,700.5900824025077 162.23684210526315,700.3851220397867 166.25,699.7986478433774 170.26315789473682,699.403773046294 174.2763157894737,698.7326370449214 178.28947368421052,698.489154852558 182.30263157894737,698.7311214339633 186.31578947368422,697.9347689551814 190.32894736842104,697.9744463780906 194.34210526315792,696.1465711109581 198.35526315789474,692.252081288318 202.36842105263156,692.6558806418603 206.38157894736844,691.4722847036533 210.39473684210526,693.0270775269936 214.40789473684208,689.3064137688777 218.42105263157893,687.7491589171716 222.4342105263158,685.9572164389667 226.44736842105263,687.709782439514 230.46052631578948,687.9655434061715 234.4736842105263,685.6726016651537 238.48684210526315,685.0086749262028 242.5,687.5750690367246 246.51315789473685,684.3969925806117 250.52631578947367,684.5751172287876 254.53947368421052,680.4984723799485 258.5526315789474,682.4456913986187 262.56578947368416,679.7662177444921 266.57894736842104,674.4022083090176 270.5921052631579,673.8446287628105 274.60526315789474,684.682754815675 278.61842105263156,681.3939782716441 282.63157894736844,682.8795878598518 286.64473684210526,683.5337736045857 290.6578947368421,684.9637219000326 294.67105263157896,688.5331698207343 298.68421052631584,686.1553081948854 302.6973684210526,686.1206922325377 306.7105263157895,688.6030896500076 310.72368421052636,688.737302433094 314.7368421052631,684.7422868370859 318.75,681.6959038022042 322.7631578947369,677.0695768743199 326.77631578947364,678.3821414277323 330.7894736842105,675.7167397760998 334.8026315789474,671.1970655019735 338.81578947368416,674.3731506586428 342.82894736842104,672.9634119944516 346.84210526315786,678.2173023168797 350.85526315789474,680.5026300456742 354.8684210526316,671.1768927795399 358.8815789473684,670.3815778331224 362.89473684210526,663.8824517151637 366.90789473684214,667.6836283328079 370.92105263157896,661.5746224269353 374.9342105263158,660.8561204251812 378.9473684210526,664.428566065938 382.9605263157895,665.4193709735308 386.9736842105263,663.270829246619 390.9868421052631,666.115404869222 395.0,669.3999350233713 399.0131578947368,669.7534761336589 403.0263157894737,672.7710920434862 407.0394736842105,674.3054746108459 411.05263157894734,675.3030800932411 415.0657894736842,678.0071214237164 419.07894736842104,683.88721558819 423.09210526315786,682.3100848642557 427.1052631578948,675.8275261050042 431.1184210526316,676.8824795960595 435.1315789473684,683.0687361372412 439.1447368421052,678.1008885745387 443.15789473684214,680.4229313770128 447.17105263157896,680.3525666748761 451.1842105263158,677.7160566966766 455.19736842105266,673.5522242147458 459.2105263157895,676.6538046475955 463.2236842105263,677.7788699101327 467.2368421052632,678.0235130916167 471.25,680.3083716678824 475.2631578947368,679.7472377598888 479.2763157894737,690.8487859786123 483.2894736842105,692.3098999876005 487.30263157894734,691.7349625364069 491.3157894736842,692.6731930797633 495.32894736842104,692.7284830663325 499.34210526315786,700.8315952833427 503.3552631578948,703.6477820659638 507.3684210526316,703.1277772185346 511.3815789473684,702.1024442475052 515.3947368421052,702.9465239076254 519.4078947368421,697.4400653670257 523.421052631579,696.4155116460576 527.4342105263158,696.6653220877059 531.4473684210527,693.6282686274658 535.4605263157895,694.1608912513881 539.4736842105262,697.1211434453808 543.4868421052631,698.9580077242639 547.5,698.5486710293585 551.5131578947369,697.9079625109384 555.5263157894738,703.3835197107604 559.5394736842105,701.7640479569257 563.5526315789473,701.1216412677602 567.5657894736842,702.4418175671108 571.578947368421,702.5774667565754 575.5921052631579,698.0496621956237 579.6052631578948,699.0643885922752 583.6184210526317,707.2072901466878 587.6315789473683,705.2090972331629 591.6447368421052,705.6624233351984 595.6578947368421,703.7717363502345 599.671052631579,704.8614564561258 603.6842105263157,703.1012637226025 607.6973684210526,705.1469404054974 611.7105263157895,705.7141388485427 615.7236842105262,704.5149766281221 619.7368421052632,701.7030340652451 623.75,697.6758123911118 627.7631578947368,694.1754082638205 631.7763157894738,693.1640711294452 635.7894736842105,693.6943323122039 639.8026315789474,692.1415417875081 643.8157894736843,692.761118388673 647.828947368421,692.904246026011 651.8421052631579,696.7326878549658 655.8552631578948,692.3168651014644 659.8684210526316,688.287072490331 663.8815789473684,686.4489095686903 667.8947368421052,684.7194306724454 671.9078947368421,682.9322034624344 675.921052631579,683.6983380460158 679.9342105263157,685.1868009059866 683.9473684210526,683.9643298197725 687.9605263157895,686.3388457388575 691.9736842105262,686.8507417483377 695.9868421052632,688.1308383194424 700.0,686.2186090367189 704.0131578947368,687.562347636201 708.0263157894736,691.1610316720385 712.0394736842104,683.7622147500973 716.0526315789474,684.5698063446745 720.0657894736843,683.1132232005764 724.078947368421,683.7154214391711 728.0921052631579,683.8329337927405 732.1052631578947,684.4552237234127 736.1184210526316,685.0082789034071 740.1315789473684,684.539366634672 744.1447368421053,685.737582984623 748.1578947368421,688.8462608442986 752.171052631579,687.9170387768199 756.1842105263157,689.908660993937 760.1973684210526,689.8761137418551 764.2105263157896,689.0691592990471 768.2236842105264,689.920347279984 772.2368421052632,688.2853896522087 776.25,689.965476940607 780.2631578947368,688.9557131673866 784.2763157894736,681.5466584160354 788.2894736842104,680.0794626542081 792.3026315789474,679.3998397532295 796.3157894736843,675.6581976419081 800.328947368421,675.9087943624202 804.3421052631579,676.0557907129413 808.3552631578947,669.70535237324 812.3684210526316,669.9276370105356 816.3815789473684,670.1336270967033 820.3947368421053,668.1415198839373 824.4078947368421,670.507142339298 828.421052631579,663.8605373463866 832.4342105263157,666.8609922530554 836.4473684210526,671.7390581984904 840.4605263157896,669.7333092744699 844.4736842105264,667.0801218237532 848.4868421052632,658.757749283939 852.5,656.6798695679938 856.5131578947368,646.047383896235 860.5263157894736,639.4017063279954 864.5394736842104,633.5857867389067 868.5526315789474,641.4679187729655 872.5657894736843,640.7972824993708 876.578947368421,644.4877354241285 880.5921052631579,639.6869649255265 884.6052631578947,650.1566271425374 888.6184210526316,647.0546790775293 892.6315789473684,651.8928133905085 896.6447368421053,650.3391037819084 900.6578947368421,647.065285822353 904.671052631579,638.195998695996 908.6842105263157,638.7213747082121 912.6973684210526,635.8390242723137 916.7105263157896,640.4005187153514 920.7236842105264,642.0543767022924 924.7368421052632,646.0090299079634 928.75,647.1217425657416 932.7631578947368,650.2673438336202 936.7763157894736,644.1541744733192 940.7894736842104,644.0349476806701 944.8026315789474,645.4664134959414 948.8157894736843,659.3362083569704 952.828947368421,654.2484491418047 956.8421052631579,653.2886119761878 960.8552631578947,655.4605068045106 964.8684210526316,656.8447433548689 968.8815789473684,658.3394904206145 972.8947368421053,655.6451818374076 976.9078947368421,652.6921725787801 980.921052631579,656.3967514424219 984.9342105263157,656.3696326323067 988.9473684210526,649.9024167488816 992.9605263157896,651.4584441967512 996.9736842105264,646.8445489978835 1000.9868421052632,644.3071501113958 1005.0,630.8620833507288 1009.0131578947368,630.283945149775 1013.0263157894736,622.3691421281875 1017.0394736842104,618.7753233347237 1021.0526315789474,617.6769141962927 1025.0657894736842,620.5706468622654 1029.078947368421,622.4322828999827 1033.092105263158,626.2609731828884 1037.1052631578946,626.2754551171498 1041.1184210526317,622.3706854048331 1045.1315789473683,623.3702811814425 1049.1447368421054,624.8094810598899 1053.157894736842,631.732562253379 1057.171052631579,631.7809212751795 1061.1842105263158,632.6005151994361 1065.1973684210525,642.7304318671881 1069.2105263157896,640.9966557951036 1073.2236842105262,648.2019685347362 1077.2368421052633,644.8915932521501 1081.25,645.4812367184842 1085.2631578947367,650.2489866016617 1089.2763157894738,651.8812443124331 1093.2894736842104,652.5092340862775 1097.3026315789475,645.1776130610763 1101.3157894736842,645.0138173145099 1105.328947368421,643.4935744156725 1109.342105263158,628.7903828497471 1113.3552631578946,626.9619251107135 1117.3684210526314,625.8136919399426 1121.3815789473686,628.2796548749498 1125.3947368421052,624.0349646879696 1129.407894736842,629.5341801174737 1133.421052631579,630.1022821801174 1137.4342105263158,627.0441515846021 1141.4473684210525,622.7979635385354 1145.4605263157896,609.7619345400718 1149.4736842105265,605.5178102064316 1153.4868421052631,603.0777539680987 1157.5,606.187223211804 1161.5131578947369,586.6610461185966 1165.5263157894735,596.327571613465 1169.5394736842104,595.145672732952 1173.5526315789475,595.6803596699136 1177.5657894736842,596.126557193285 1181.578947368421,592.0279880393393 1185.592105263158,598.7453647220567 1189.6052631578948,594.204909627408 1193.6184210526314,590.1947027602976 1197.6315789473686,601.6391247184235 1201.6447368421052,605.1065168396524 1205.657894736842,602.9509858201654 1209.671052631579,611.2542263941222 1213.6842105263158,612.2529421445159 1217.6973684210525,621.1199694326098 1221.7105263157896,621.4728282003036 1225.7236842105265,618.2331839979233 1229.7368421052631,617.0974715978771 1233.75,625.6893086233936 1237.7631578947369,623.6841243581255 1241.7763157894735,623.4502823199974 1245.7894736842104,619.3383444752576 1249.8026315789475,614.5506134059453 1253.8157894736842,622.5769338834248 1257.828947368421,622.312482257231 1261.842105263158,640.4241301864008 1265.8552631578948,645.6515136676169 1269.8684210526314,645.6985446152433 1273.8815789473686,643.6305132634501 1277.8947368421052,640.6527021179154 1281.907894736842,642.769960465074 1285.921052631579,640.199395357564 1289.9342105263158,640.6761917158955 1293.9473684210525,642.4831908593015 1297.9605263157896,640.4377699768105 1301.9736842105265,636.2808615797843 1305.9868421052631,634.5434901438134 1310.0,637.4802757491776" fill="none" stroke="#9333ea" stroke-width="2.5"><title>budgeted_drawdown_tilt_rebalance | end=2026-04-29 | return=127.63%</title></polyline>
<polyline points="90.0,701.4013557348932 94.01315789473684,701.3877030711299 98.02631578947368,701.4066774467628 102.03947368421052,701.3408728064621 106.05263157894737,701.1211507699995 110.0657894736842,700.8538881536102 114.07894736842105,700.9102511522708 118.09210526315789,700.8271095736545 122.10526315789474,700.9320846837605 126.11842105263158,700.7340870827635 130.1315789473684,701.2350702506418 134.14473684210526,701.0733588425375 138.1578947368421,701.3971454917673 142.17105263157896,701.0932588081505 146.18421052631578,701.2193015739792 150.19736842105263,700.8543709838192 154.21052631578948,700.5197888105421 158.2236842105263,700.4491781858768 162.23684210526315,700.1684876298552 166.25,699.3988354395653 170.26315789473682,698.8285168116616 174.2763157894737,697.9231395845163 178.28947368421052,697.5804947979888 182.30263157894737,697.9365793106192 186.31578947368422,696.7088195996955 190.32894736842104,696.6713694372985 194.34210526315792,693.7718108209606 198.35526315789474,687.7148893530884 202.36842105263156,688.2742316766501 206.38157894736844,686.639869628526 210.39473684210526,689.2459024772234 214.40789473684208,683.3648533005679 218.42105263157893,680.663990788585 222.4342105263158,677.5799330444845 226.44736842105263,680.3613055442053 230.46052631578948,680.7125063162308 234.4736842105263,676.9757180952886 238.48684210526315,675.8075636719077 242.5,680.0714138633232 246.51315789473685,674.9063813613925 250.52631578947367,675.337683843772 254.53947368421052,668.7081119427728 258.5526315789474,672.2293459931902 262.56578947368416,668.0480194106628 266.57894736842104,659.6158194334922 270.5921052631579,659.194696731675 274.60526315789474,676.8501585166207 278.61842105263156,671.6110075974494 282.63157894736844,673.9974460196671 286.64473684210526,675.0059228168818 290.6578947368421,677.0963861533512 294.67105263157896,682.7685810706564 298.68421052631584,679.1608911198753 302.6973684210526,679.2127869652944 306.7105263157895,682.8773799874723 310.72368421052636,683.1332522185947 314.7368421052631,676.7383259786008 318.75,672.5486652760075 322.7631578947369,665.5542273547338 326.77631578947364,667.447418120481 330.7894736842105,663.3676925597275 334.8026315789474,657.2221061412549 338.81578947368416,661.8728903544028 342.82894736842104,659.737470675164 346.84210526315786,667.4321245764576 350.85526315789474,670.7721200989507 354.8684210526316,656.7777177306241 358.8815789473684,655.508616247721 362.89473684210526,645.6151059519431 366.90789473684214,651.6470805991073 370.92105263157896,642.359644088657 374.9342105263158,641.1620940458472 378.9473684210526,646.9054885664527 382.9605263157895,648.6116435907995 386.9736842105263,645.3221056801026 390.9868421052631,650.0546402082832 395.0,655.1999484824526 399.0131578947368,655.7560622073147 403.0263157894737,660.4786448422813 407.0394736842105,662.9303482690023 411.05263157894734,664.4490772081948 415.0657894736842,668.6399895703639 419.07894736842104,677.7079177664518 423.09210526315786,675.3520105190283 427.1052631578948,665.3400918451498 431.1184210526316,666.9188083814311 435.1315789473684,676.38778392467 439.1447368421052,668.6977887688143 443.15789473684214,672.1809433631452 447.17105263157896,672.1663830848618 451.1842105263158,668.2953090513057 455.19736842105266,662.0432129526233 459.2105263157895,666.7925422850749 463.2236842105263,668.5955289004808 467.2368421052632,668.8926054816628 471.25,672.2729500525141 475.2631578947368,671.4611605210516 479.2763157894737,687.8809318317393 483.2894736842105,689.8300646789731 487.30263157894734,688.9354591606718 491.3157894736842,690.0547743038834 495.32894736842104,690.0371964722812 499.34210526315786,701.6629727915878 503.3552631578948,705.6676273114205 507.3684210526316,705.020047257442 511.3815789473684,703.7049207916085 515.3947368421052,704.7679310345653 519.4078947368421,697.64784400554 523.421052631579,696.5644495654925 527.4342105263158,696.8832607631599 531.4473684210527,693.1980322935306 535.4605263157895,693.9775979227352 539.4736842105262,697.8167913068147 543.4868421052631,700.2257737278178 547.5,700.082905765327 551.5131578947369,699.0594359109587 555.5263157894738,705.3271194889869 559.5394736842105,703.3072852144553 563.5526315789473,702.3406450800233 567.5657894736842,704.081176204754 571.578947368421,704.2249855226476 575.5921052631579,699.197022948163 579.6052631578948,700.4424850580423 583.6184210526317,710.0 587.6315789473683,707.8217815806688 591.6447368421052,708.2510191320987 595.6578947368421,706.3051080123219 599.671052631579,707.410639222112 603.6842105263157,705.4105148991251 607.6973684210526,707.6303809163911 611.7105263157895,708.2466406173972 615.7236842105262,707.1222250228245 619.7368421052632,704.3076447574787 623.75,699.6957433372356 627.7631578947368,695.714612167986 631.7763157894738,694.5822743297955 635.7894736842105,695.3950889686789 639.8026315789474,693.5071171860898 643.8157894736843,694.0424828672523 647.828947368421,694.4412308239539 651.8421052631579,698.2429015077387 655.8552631578948,693.6567716811901 659.8684210526316,689.2352817044631 663.8815789473684,687.3946688967512 667.8947368421052,686.2932456224378 671.9078947368421,684.1282383163621 675.921052631579,685.2466218356617 679.9342105263157,686.487720696347 683.9473684210526,685.3068601022618 687.9605263157895,687.7212722885662 691.9736842105262,688.2112022706601 695.9868421052632,689.7609419923582 700.0,687.8168094760376 704.0131578947368,689.3474251880675 708.0263157894736,692.9403512738182 712.0394736842104,684.338837626767 716.0526315789474,684.9963875588438 720.0657894736843,683.491533510264 724.078947368421,684.0967565861243 728.0921052631579,684.429865245384 732.1052631578947,685.289931690769 736.1184210526316,685.9107017093486 740.1315789473684,685.2634559280123 744.1447368421053,686.8538192105246 748.1578947368421,691.0239410215315 752.171052631579,689.6863613460724 756.1842105263157,692.3851355231055 760.1973684210526,692.1216832968016 764.2105263157896,690.9086677564017 768.2236842105264,692.0963529865649 772.2368421052632,689.8447594071181 776.25,691.8823016841463 780.2631578947368,690.226594686712 784.2763157894736,680.3081737832148 788.2894736842104,678.4781858083085 792.3026315789474,677.7335433379549 796.3157894736843,673.0061055232982 800.328947368421,673.4716593155913 804.3421052631579,673.420859563803 808.3552631578947,664.1584271959946 812.3684210526316,664.7753685485209 816.3815789473684,664.6648121308515 820.3947368421053,662.5399621237799 824.4078947368421,665.4333559516044 828.421052631579,656.3640382245462 832.4342105263157,661.3349812723517 836.4473684210526,668.0666465677655 840.4605263157896,664.8445746765354 844.4736842105264,661.0617612778038 848.4868421052632,648.6074617189264 852.5,646.031868359097 856.5131578947368,629.6204622000687 860.5263157894736,620.0984632236111 864.5394736842104,610.6797385631658 868.5526315789474,622.5497630961785 872.5657894736843,621.2585223529268 876.578947368421,627.1366868025273 880.5921052631579,619.4691651159923 884.6052631578947,636.0921090896308 888.6184210526316,631.1362822894941 892.6315789473684,639.2254345216903 896.6447368421053,636.3516074382657 900.6578947368421,630.621770001715 904.671052631579,618.3201538987128 908.6842105263157,619.4647318611621 912.6973684210526,614.612737762872 916.7105263157896,621.4837468969583 920.7236842105264,624.6687631863695 924.7368421052632,631.1355934119074 928.75,632.8186209631491 932.7631578947368,637.7291198533735 936.7763157894736,627.7666529873245 940.7894736842104,627.2600867127204 944.8026315789474,629.3924061656062 948.8157894736843,650.6177936736008 952.828947368421,642.8703824721522 956.8421052631579,640.9334848702844 960.8552631578947,644.362168525715 964.8684210526316,646.4594191884843 968.8815789473684,648.5595160623172 972.8947368421053,643.8824698056058 976.9078947368421,639.7715275288783 980.921052631579,645.115716251295 984.9342105263157,645.0989598547669 988.9473684210526,635.0741310305261 992.9605263157896,637.2596686045057 996.9736842105264,629.9101898649914 1000.9868421052632,625.8166770065324 1005.0,605.0845863218686 1009.0131578947368,603.0563024913824 1013.0263157894736,593.239698606561 1017.0394736842104,587.9464591491665 1021.0526315789474,585.7658571429931 1025.0657894736842,589.7715260834451 1029.078947368421,592.4058644576203 1033.092105263158,598.9736073482915 1037.1052631578946,598.7731916961427 1041.1184210526317,591.9458954980022 1045.1315789473683,592.1671097558495 1049.1447368421054,593.9794543777859 1053.157894736842,605.3058809034676 1057.171052631579,604.9339789145172 1061.1842105263158,606.406176486526 1065.1973684210525,623.6012037278476 1069.2105263157896,619.0755912666236 1073.2236842105262,630.516960979063 1077.2368421052633,625.2805934041193 1081.25,625.9730104352358 1085.2631578947367,633.3841101540376 1089.2763157894738,635.2849115738934 1093.2894736842104,635.4669428283269 1097.3026315789475,623.0135390400249 1101.3157894736842,622.646378417247 1105.328947368421,619.731641011936 1109.342105263158,600.3596239122012 1113.3552631578946,595.7423808826788 1117.3684210526314,595.2360855140147 1121.3815789473686,599.280677087667 1125.3947368421052,592.903806206331 1129.407894736842,600.5888766247346 1133.421052631579,600.1550945026954 1137.4342105263158,596.1623882718281 1141.4473684210525,590.4942065256257 1145.4605263157896,573.1182645952613 1149.4736842105265,568.4504916473809 1153.4868421052631,566.1265505201841 1157.5,570.8281382689636 1161.5131578947369,544.6038391046167 1165.5263157894735,559.7238661353557 1169.5394736842104,559.1816156302559 1173.5526315789475,559.7488055271078 1177.5657894736842,559.7755810564443 1181.578947368421,553.3597113164385 1185.592105263158,563.8447203750205 1189.6052631578948,556.0352649210465 1193.6184210526314,549.1140333181319 1197.6315789473686,568.7959583074962 1201.6447368421052,574.6435059747878 1205.657894736842,570.9223224911694 1209.671052631579,584.6332252165855 1213.6842105263158,586.5567397326215 1217.6973684210525,601.7712796772316 1221.7105263157896,602.4843009117931 1225.7236842105265,597.1164616218853 1229.7368421052631,595.7085598158708 1233.75,609.4197871669985 1237.7631578947369,606.2295863907169 1241.7763157894735,605.9114787318949 1245.7894736842104,599.2626440113945 1249.8026315789475,591.3145306415524 1253.8157894736842,604.2177879890482 1257.828947368421,603.880847278457 1261.842105263158,632.5391880331413 1265.8552631578948,640.9974547011525 1269.8684210526314,641.1804784366019 1273.8815789473686,638.0429292811846 1277.8947368421052,633.0816569292144 1281.907894736842,636.4151913050948 1285.921052631579,632.7936863255858 1289.9342105263158,633.4095291657728 1293.9473684210525,636.4153866086514 1297.9605263157896,633.1638429393377 1301.9736842105265,627.068429596995 1305.9868421052631,624.1644164958108 1310.0,628.3752195987755" fill="none" stroke="#92400e" stroke-width="2.5"><title>budgeted_btc_defensive_eth_aggressive | end=2026-04-29 | return=145.81%</title></polyline>
<polyline points="90.0,701.4013557348932 94.01315789473684,700.4911781506727 98.02631578947368,701.4435155274725 102.03947368421052,698.8795398521916 106.05263157894737,691.5234748210648 110.0657894736842,683.8529422841227 114.07894736842105,685.2716965319847 118.09210526315789,683.4161553707003 122.10526315789474,685.56078928456 126.11842105263158,682.030202626827 130.1315789473684,690.6448539094387 134.14473684210526,687.9469783887349 138.1578947368421,692.7040182893307 142.17105263157896,688.6547209942175 146.18421052631578,690.1904199325387 150.19736842105263,685.7894503211509 154.21052631578948,681.7250579079534 158.2236842105263,680.8695378215243 162.23684210526315,677.9029228769643 166.25,670.2260124025967 170.26315789473682,664.782774934872 174.2763157894737,656.4300426089017 178.28947368421052,653.4284544532923 182.30263157894737,656.4276060734935 186.31578947368422,646.3610229584796 190.32894736842104,646.1245310814597 194.34210526315792,623.6864599964663 198.35526315789474,577.5623218358478 202.36842105263156,581.6816218592085 206.38157894736844,570.0208880477666 210.39473684210526,587.6817893743696 214.40789473684208,549.2776534515086 218.42105263157893,530.3969864979218 222.4342105263158,509.91586148391775 226.44736842105263,526.3631221363462 230.46052631578948,528.2713715853247 234.4736842105263,505.6083998713747 238.48684210526315,498.5532301302618 242.5,523.6384658481103 246.51315789473685,493.1452653871699 250.52631578947367,495.6937826228045 254.53947368421052,458.02493039172816 258.5526315789474,478.6210693335352 262.56578947368416,457.33994819966335 266.57894736842104,416.440233116296 270.5921052631579,421.5429347347911 274.60526315789474,505.25093261079235 278.61842105263156,481.2175545260791 282.63157894736844,492.7869736539838 286.64473684210526,496.9077528131518 290.6578947368421,503.74786540736125 294.67105263157896,532.1677089741595 298.68421052631584,515.4896435474169 302.6973684210526,516.9499062402358 306.7105263157895,533.1327572890863 310.72368421052636,534.8757302418564 314.7368421052631,500.5402570231645 318.75,482.98358538390886 322.7631578947369,449.41159215100737 326.77631578947364,457.55063333136934 330.7894736842105,437.81404750228154 334.8026315789474,414.6867631357462 338.81578947368416,434.3605236066495 342.82894736842104,424.45692100106686 346.84210526315786,456.45617563652024 350.85526315789474,470.5597440845885 354.8684210526316,405.2515260325513 358.8815789473684,398.7189181673199 362.89473684210526,355.2810048908623 366.90789473684214,383.1084583791522 370.92105263157896,346.0129093973386 374.9342105263158,340.0437528815712 378.9473684210526,363.9716880880778 382.9605263157895,372.7828578102833 386.9736842105263,361.3009470268502 390.9868421052631,384.2801977474531 395.0,403.07643948638355 399.0131578947368,405.24172898173236 403.0263157894737,423.41133426399006 407.0394736842105,435.2351044299622 411.05263157894734,439.722925282985 415.0657894736842,456.59051430386523 419.07894736842104,493.4324994631336 423.09210526315786,484.58846536881526 427.1052631578948,440.82201762328197 431.1184210526316,447.0408473044868 435.1315789473684,486.78570404287484 439.1447368421052,453.3397687174977 443.15789473684214,467.64888118644467 447.17105263157896,467.97457320124283 451.1842105263158,452.3090043927259 455.19736842105266,426.78397811337396 459.2105263157895,446.1547900300107 463.2236842105263,453.72974037038324 467.2368421052632,454.68900086346883 471.25,467.9867629171872 475.2631578947368,464.83164476287163 479.2763157894737,529.3142154329713 483.2894736842105,536.907023602033 487.30263157894734,533.1914244464342 491.3157894736842,537.8260816208219 495.32894736842104,537.8448452607313 499.34210526315786,585.5797635220033 503.3552631578948,602.525297829761 507.3684210526316,599.4693708610882 511.3815789473684,593.4288824533473 515.3947368421052,598.2493885631446 519.4078947368421,566.932637908606 523.421052631579,561.8720048325036 527.4342105263158,563.1726242316972 531.4473684210527,548.2462643902359 535.4605263157895,551.2026668455767 539.4736842105262,565.8247550855612 543.4868421052631,574.9439119188103 547.5,574.1415460904412 551.5131578947369,570.3925175703172 555.5263157894738,594.1218715115764 559.5394736842105,586.4787842306263 563.5526315789473,583.1428348643726 567.5657894736842,589.4097661286121 571.578947368421,589.9918610765708 575.5921052631579,570.3438657022922 579.6052631578948,574.8119943834847 583.6184210526317,609.3850735371352 587.6315789473683,601.0227343572445 591.6447368421052,602.7992111162005 595.6578947368421,595.1741000371849 599.671052631579,599.4584204592791 603.6842105263157,592.237319543635 607.6973684210526,600.3461103759213 611.7105263157895,602.5852062051105 615.7236842105262,598.1515532942843 619.7368421052632,587.6219780195885 623.75,571.8316745103259 627.7631578947368,558.4684351071014 631.7763157894738,554.7301139668306 635.7894736842105,556.9289692641488 639.8026315789474,551.1562744970437 643.8157894736843,553.1618107909266 647.828947368421,553.9243474670559 651.8421052631579,566.7042048651052 655.8552631578948,551.7058418412937 659.8684210526316,537.9484855149245 663.8815789473684,531.9774359033107 667.8947368421052,526.9254097830476 671.9078947368421,520.9329679609183 675.921052631579,523.6195706101341 679.9342105263157,528.0631897905256 683.9473684210526,524.2679642437437 687.9605263157895,531.7316687325422 691.9736842105262,533.3680463140491 695.9868421052632,537.9001562585725 700.0,531.4686628601175 704.0131578947368,536.2572441622673 708.0263157894736,548.7875807560565 712.0394736842104,521.53518204479 716.0526315789474,524.2941003474829 720.0657894736843,518.9232845931155 724.078947368421,521.1651813055291 728.0921052631579,521.7460058184523 732.1052631578947,524.2920630621766 736.1184210526316,526.4810372572668 740.1315789473684,524.5120228416131 744.1447368421053,529.5401257441541 748.1578947368421,542.7443547083969 752.171052631579,538.7053020288084 756.1842105263157,547.2100759938799 760.1973684210526,546.9002988796386 764.2105263157896,543.3729816617326 768.2236842105264,547.0012298681178 772.2368421052632,540.0714263180523 776.25,546.9920957674085 780.2631578947368,542.6791172196856 784.2763157894736,512.3494732496821 788.2894736842104,506.4624593686224 792.3026315789474,503.7200029092153 796.3157894736843,488.42564778599433 800.328947368421,489.4754344857837 804.3421052631579,490.0352960971358 808.3552631578947,463.16130132962104 812.3684210526316,464.1017228232233 816.3815789473684,464.98060389271006 820.3947368421053,456.290686676419 824.4078947368421,466.54757244324014 828.421052631579,437.2592124276446 832.4342105263157,450.628900002188 836.4473684210526,472.2681943332666 840.4605263157896,463.08346153790626 844.4736842105264,451.02228785016047 848.4868421052632,412.976241842534 852.5,403.5959433557535 856.5131578947368,354.94647240728557 860.5263157894736,324.9043117113188 864.5394736842104,298.15704970707276 868.5526315789474,333.9537475832697 872.5657894736843,330.80999507049063 876.578947368421,348.15208547091834 880.5921052631579,325.54019749475935 884.6052631578947,375.24266524050626 888.6184210526316,360.39044869174717 892.6315789473684,383.46247181279057 896.6447368421053,376.01915473441494 900.6578947368421,360.4665628533093 904.671052631579,317.8427153994212 908.6842105263157,320.36624760787697 912.6973684210526,306.52783882442935 916.7105263157896,328.0583638555381 920.7236842105264,336.29820724651194 924.7368421052632,355.62028640757086 928.75,360.9843934263228 932.7631578947368,376.2966482016406 936.7763157894736,346.06023761143484 940.7894736842104,345.2907991718773 944.8026315789474,352.1815621582328 948.8157894736843,419.198490864869 952.828947368421,393.7207763273539 956.8421052631579,389.29888860548283 960.8552631578947,399.9554016804011 964.8684210526316,406.8131299109117 968.8815789473684,414.3972143489579 972.8947368421053,402.00945656021736 976.9078947368421,387.0408204044926 980.921052631579,405.1307611276901 984.9342105263157,404.96924959449314 988.9473684210526,374.77087554249664 992.9605263157896,382.1835201157561 996.9736842105264,361.43243674109533 1000.9868421052632,350.2596091796476 1005.0,290.7682896528778 1009.0131578947368,289.5270059409668 1013.0263157894736,251.72246690201683 1017.0394736842104,235.40707756984762 1021.0526315789474,230.77220554081293 1025.0657894736842,244.4677316749033 1029.078947368421,253.36186951646397 1033.092105263158,271.3174841040681 1037.1052631578946,271.5253665858567 1041.1184210526317,253.27034682183154 1045.1315789473683,259.0287821616524 1049.1447368421054,266.4004267678248 1053.157894736842,299.76437170796106 1057.171052631579,300.570534479956 1061.1842105263158,304.3666378366879 1065.1973684210525,352.52495455955733 1069.2105263157896,346.4335648611408 1073.2236842105262,382.35315097980236 1077.2368421052633,365.60916297111754 1081.25,369.0379062417817 1085.2631578947367,393.0719601942555 1089.2763157894738,402.6129521711927 1093.2894736842104,407.5545860179217 1097.3026315789475,372.8952299388613 1101.3157894736842,372.3467153993866 1105.328947368421,366.1814017379044 1109.342105263158,288.0706239078778 1113.3552631578946,282.1737814808627 1117.3684210526314,275.5048540676881 1121.3815789473686,286.18699363635784 1125.3947368421052,267.49504559049313 1129.407894736842,291.68236641049435 1133.421052631579,294.8947849387249 1137.4342105263158,281.18603345890153 1141.4473684210525,262.453281632198 1145.4605263157896,206.09835669141592 1149.4736842105265,188.286194269681 1153.4868421052631,178.35019631739 1157.5,191.59572123202918 1161.5131578947369,109.66629969441249 1165.5263157894735,151.87886015958486 1169.5394736842104,148.4230390542118 1173.5526315789475,150.36528452686355 1177.5657894736842,151.2040126670537 1181.578947368421,132.62041159494288 1185.592105263158,163.11030215846142 1189.6052631578948,141.04390768165013 1193.6184210526314,121.44161261816316 1197.6315789473686,177.37180544372836 1201.6447368421052,194.3027382965323 1205.657894736842,183.59076817311689 1209.671052631579,224.13736187724555 1213.6842105263158,229.29353750022773 1217.6973684210525,273.8170813612552 1221.7105263157896,275.66666932296073 1225.7236842105265,259.2492234581706 1229.7368421052631,253.83226675403853 1233.75,296.2787712368485 1237.7631578947369,286.24590356693295 1241.7763157894735,285.1122497960274 1245.7894736842104,264.56437541183465 1249.8026315789475,240.70411675135864 1253.8157894736842,279.8862326263943 1257.828947368421,278.6531546026923 1261.842105263158,366.952481998169 1265.8552631578948,393.2907926485582 1269.8684210526314,393.47911015469293 1273.8815789473686,382.72845282008166 1277.8947368421052,367.6022910345046 1281.907894736842,378.30844436847735 1285.921052631579,365.1577184641259 1289.9342105263158,367.56470187158766 1293.9473684210525,376.39938111283584 1297.9605263157896,366.39457414412567 1301.9736842105265,346.24697929031225 1305.9868421052631,337.9163727118896 1310.0,351.7627978811931" fill="none" stroke="#0f766e" stroke-width="2.5"><title>static_50_50_rebalance | end=2026-04-29 | return=698.13%</title></polyline>
<polyline points="90.0,701.4013557348932 94.01315789473684,700.6049503487002 98.02631578947368,701.437018553479 102.03947368421052,699.1947836093417 106.05263157894737,694.2270574039239 110.0657894736842,689.7978163392759 114.07894736842105,690.5329767115297 118.09210526315789,689.6238523732574 122.10526315789474,690.6364646859934 126.11842105263158,688.9859536892185 130.1315789473684,692.9360160769327 134.14473684210526,691.1763425048728 138.1578947368421,694.2833013269683 142.17105263157896,691.2288105159233 146.18421052631578,692.3153901261951 150.19736842105263,689.3000919985587 154.21052631578948,686.5859633017968 158.2236842105263,686.0264380262546 162.23684210526315,684.1108029992763 166.25,679.2158614892971 170.26315789473682,676.2619056754253 174.2763157894737,672.1831007449694 178.28947368421052,670.8213178943454 182.30263157894737,672.1192849385334 186.31578947368422,667.840023448632 190.32894736842104,667.7429237219745 194.34210526315792,658.6655165281696 198.35526315789474,640.9451810420767 202.36842105263156,642.405361742546 206.38157894736844,638.459845888476 210.39473684210526,644.1866624864091 214.40789473684208,629.3128183030483 218.42105263157893,622.7927791496983 222.4342105263158,616.2610916572843 226.44736842105263,621.188068009852 230.46052631578948,621.8599253226712 234.4736842105263,613.3792758740534 238.48684210526315,611.0670546657682 242.5,618.6674355039158 246.51315789473685,607.9200998097131 250.52631578947367,608.7184896297451 254.53947368421052,597.507203099553 258.5526315789474,603.2635370078243 262.56578947368416,596.336740704563 266.57894736842104,584.2242207122722 270.5921052631579,585.5475009630982 274.60526315789474,611.4012849280889 278.61842105263156,599.8711843076154 282.63157894736844,605.7756829006214 286.64473684210526,608.0645345331603 290.6578947368421,612.0352045961861 294.67105263157896,629.6342147216102 298.68421052631584,619.2792411686903 302.6973684210526,620.2022281510638 306.7105263157895,630.3572783608187 310.72368421052636,631.4494059240243 314.7368421052631,609.9967482009674 318.75,598.9459928188556 322.7631578947369,578.9119216553464 326.77631578947364,583.2971667497164 330.7894736842105,572.0108529496796 334.8026315789474,560.5702529574254 338.81578947368416,569.5628998655664 342.82894736842104,564.7852459026664 346.84210526315786,578.7427410710688 350.85526315789474,585.7767964041248 354.8684210526316,548.9601246094938 358.8815789473684,545.9907101850027 362.89473684210526,530.3759062410905 366.90789473684214,539.4067664021793 370.92105263157896,528.2310083295055 374.9342105263158,526.490403463781 378.9473684210526,533.2269291595208 382.9605263157895,535.7132877301299 386.9736842105263,531.8571014282504 390.9868421052631,540.1886452681614 395.0,547.2988111623032 399.0131578947368,548.2653230029443 403.0263157894737,556.9896116324628 407.0394736842105,563.6495592983838 411.05263157894734,565.5373260688282 415.0657894736842,575.8052366640951 419.07894736842104,599.3817582659852 423.09210526315786,593.6750002404972 427.1052631578948,564.7936291663281 431.1184210526316,568.9388243096855 435.1315789473684,595.6131006737583 439.1447368421052,573.309321104944 443.15789473684214,582.8886802841539 447.17105263157896,583.1072026961525 451.1842105263158,572.6350627211095 455.19736842105266,555.5204413699299 459.2105263157895,568.5897817463431 463.2236842105263,573.6975601750348 467.2368421052632,574.3431401693251 471.25,583.2822007071038 475.2631578947368,581.1688073952347 479.2763157894737,624.3156529219949 483.2894736842105,629.2962417756994 487.30263157894734,626.8877628832494 491.3157894736842,629.8766320310197 495.32894736842104,629.8883793125065 499.34210526315786,660.5097018209121 503.3552631578948,671.1625168470473 507.3684210526316,669.2773365071547 511.3815789473684,665.576858814155 515.3947368421052,668.5271826955061 519.4078947368421,649.4071421710795 523.421052631579,646.2900633842389 527.4342105263158,647.0965433503858 531.4473684210527,637.8154458833358 535.4605263157895,639.6649213511998 539.4736842105262,648.8297587537191 543.4868421052631,654.5236861733392 547.5,654.0254209095293 551.5131578947369,651.7023613241072 555.5263157894738,666.4092240963408 559.5394736842105,661.7176474380958 563.5526315789473,659.6726385619794 567.5657894736842,663.5158877271493 571.578947368421,663.872070968979 575.5921052631579,651.8649106012566 579.6052631578948,654.6121968247948 583.6184210526317,675.9038818312 587.6315789473683,670.8296516531261 591.6447368421052,671.9042204791258 595.6578947368421,667.3023980431279 599.671052631579,669.8930408799661 603.6842105263157,665.5298022528812 607.6973684210526,670.4414606855579 611.7105263157895,671.7949384707931 615.7236842105262,669.1202403468616 619.7368421052632,662.762634986152 623.75,653.1867685491976 627.7631578947368,645.0229514475199 631.7763157894738,642.7215531256827 635.7894736842105,644.0818338398492 639.8026315789474,640.5035467869361 643.8157894736843,641.7501263905043 647.828947368421,642.2243800411974 651.8421052631579,650.1746531328475 655.8552631578948,640.8843203739291 659.8684210526316,632.3396057161272 663.8815789473684,628.6114937813494 667.8947368421052,625.4432697573626 671.9078947368421,621.6727491526807 675.921052631579,623.0416229017101 679.9342105263157,625.7902335842496 683.9473684210526,623.6276400224087 687.9605263157895,627.7107510594869 691.9736842105262,628.4188881272705 695.9868421052632,629.9556649229222 700.0,627.2091226240443 704.0131578947368,628.8997116659156 708.0263157894736,632.9189951035028 712.0394736842104,621.5810749062666 716.0526315789474,622.5482993383293 720.0657894736843,620.8464055330917 724.078947368421,621.5165389404445 728.0921052631579,621.6856692828125 732.1052631578947,622.4153047273724 736.1184210526316,623.0397966957712 740.1315789473684,622.4779047174857 744.1447368421053,623.9097928751102 748.1578947368421,627.6874278953626 752.171052631579,625.754266479902 756.1842105263157,630.6173248060373 760.1973684210526,630.4253579958422 764.2105263157896,628.1595609885601 768.2236842105264,630.5341909905508 772.2368421052632,625.9607576748962 776.25,630.5559026011124 780.2631578947368,627.6896072758828 784.2763157894736,608.9860624464503 788.2894736842104,605.9071259497405 792.3026315789474,604.7626666084224 796.3157894736843,599.3408768839747 800.328947368421,599.6734875372883 804.3421052631579,599.8500002497551 808.3552631578947,591.8496605269414 812.3684210526316,592.1189379023103 816.3815789473684,592.3678926223589 820.3947368421053,589.9338004391915 824.4078947368421,592.7740120315561 828.421052631579,584.6408260566561 832.4342105263157,588.2718137533301 836.4473684210526,594.1461570149837 840.4605263157896,591.6054161578962 844.4736842105264,588.2654439811502 848.4868421052632,577.8303618429542 852.5,575.3400417181704 856.5131578947368,562.7203342330837 860.5263157894736,555.2425523920181 864.5394736842104,548.8338469750383 868.5526315789474,557.1279687320223 872.5657894736843,556.3979448585123 876.578947368421,560.4221512874767 880.5921052631579,554.110793927226 884.6052631578947,566.810173266541 888.6184210526316,561.7044121238353 892.6315789473684,569.5155740481017 896.6447368421053,566.6405252667556 900.6578947368421,560.288477618896 904.671052631579,544.4315078926018 908.6842105263157,545.1955893802132 912.6973684210526,541.4236548866604 916.7105263157896,546.9141202872389 920.7236842105264,548.9548650913919 924.7368421052632,553.7076657714072 928.75,555.5430744776792 932.7631578947368,561.5291831626115 936.7763157894736,546.9855774606677 940.7894736842104,546.6651214077999 944.8026315789474,549.2857993812147 948.8157894736843,573.693799658484 952.828947368421,561.2559887717871 956.8421052631579,558.8799147596987 960.8552631578947,564.9588436951169 964.8684210526316,568.9634948685156 968.8815789473684,573.4388590154801 972.8947368421053,566.1082641751527 976.9078947368421,557.2097157506664 980.921052631579,568.0103004993359 984.9342105263157,567.9139454248797 988.9473684210526,549.9088503129974 992.9605263157896,554.2570541808561 996.9736842105264,543.2248259560008 1000.9868421052632,537.4851911939202 1005.0,505.9445033841563 1009.0131578947368,506.13651007537055 1013.0263157894736,489.9180389705475 1017.0394736842104,484.35770946388465 1021.0526315789474,483.0190716901234 1025.0657894736842,486.8661413916702 1029.078947368421,489.2741840176145 1033.092105263158,494.05462375493494 1037.1052631578946,494.12250919666644 1041.1184210526317,487.85768498838394 1045.1315789473683,489.898948190566 1049.1447368421054,492.5503083081086 1053.157894736842,504.6685674153223 1057.171052631579,505.3485865993957 1061.1842105263158,507.1875432895138 1065.1973684210525,532.6004312951616 1069.2105263157896,531.2248283291367 1073.2236842105262,551.7475584841103 1077.2368421052633,542.1386040193811 1081.25,544.3843335053568 1085.2631578947367,558.2978206186228 1089.2763157894738,564.3035532970192 1093.2894736842104,567.4775689609301 1097.3026315789475,546.846833543428 1101.3157894736842,546.5897720941347 1105.328947368421,543.4397244992076 1109.342105263158,495.19558351190415 1113.3552631578946,493.49995807515444 1117.3684210526314,488.44294792379935 1121.3815789473686,494.33381665612 1125.3947368421052,483.47827295638604 1129.407894736842,495.39513330375627 1133.421052631579,498.0491409632008 1137.4342105263158,489.8869864376153 1141.4473684210525,478.5809028764446 1145.4605263157896,450.7003589365673 1149.4736842105265,442.6444973872072 1153.4868421052631,438.9255802047961 1157.5,443.08604822217734 1161.5131578947369,418.74598176946415 1165.5263157894735,430.4557653512568 1169.5394736842104,429.48422172744955 1173.5526315789475,430.01221185303655 1177.5657894736842,430.2429008929196 1181.578947368421,425.25933691574625 1185.592105263158,433.3666508868098 1189.6052631578948,427.45093241564126 1193.6184210526314,422.2219876176268 1197.6315789473686,436.98983439351866 1201.6447368421052,442.42371153352894 1205.657894736842,437.7601607932807 1209.671052631579,453.9343243085498 1213.6842105263158,456.7188711779798 1217.6973684210525,481.62691240146023 1221.7105263157896,482.7724782847133 1225.7236842105265,472.66808549588694 1229.7368421052631,469.31688630685414 1233.75,496.1284437407785 1237.7631578947369,489.7938119006533 1241.7763157894735,489.07784656527866 1245.7894736842104,476.0794282168859 1249.8026315789475,460.94079894955485 1253.8157894736842,485.90608088714373 1257.828947368421,485.12276438540187 1261.842105263158,541.1521060136366 1265.8552631578948,557.6036411352724 1269.8684210526314,557.7205468487252 1273.8815789473686,551.1345505857245 1277.8947368421052,541.8776074917168 1281.907894736842,548.4416182906256 1285.921052631579,540.3856011275676 1289.9342105263158,541.8626144103276 1293.9473684210525,547.286793659807 1297.9605263157896,541.1518169799732 1301.9736842105265,528.7845761478698 1305.9868421052631,523.6526469597857 1310.0,532.208062160412" fill="none" stroke="#dc2626" stroke-width="2.5"><title>target_50_50_with_cash_band | end=2026-04-29 | return=337.83%</title></polyline>
<polyline points="90.0,701.4013557348932 94.01315789473684,700.6732136675167 98.02631578947368,701.4851029287536 102.03947368421052,699.1897699218836 106.05263157894737,692.9498592928128 110.0657894736842,686.5997042854405 114.07894736842105,687.7534305502531 118.09210526315789,686.2611745351059 122.10526315789474,687.9659500970357 126.11842105263158,685.1604827136664 130.1315789473684,691.9417611066575 134.14473684210526,689.6240843332561 138.1578947368421,693.9330173480232 142.17105263157896,690.1584718465758 146.18421052631578,691.617844292697 150.19736842105263,687.3908298406523 154.21052631578948,683.4553253410967 158.2236842105263,682.6184267221894 162.23684210526315,679.7202021809965 166.25,672.2287158729827 170.26315789473682,667.2771735346472 174.2763157894737,660.1008612294992 178.28947368421052,657.5986480404327 182.30263157894737,660.0399201851352 186.31578947368422,651.9764319524879 190.32894736842104,651.7937561480642 194.34210526315792,634.2372383730599 198.35526315789474,598.7474540763944 202.36842105263156,601.8868724989024 206.38157894736844,593.1586711907623 210.39473684210526,606.0441158945812 214.40789473684208,575.4651101997999 218.42105263157893,561.226914076156 222.4342105263158,546.1176958198105 226.44736842105263,558.0247218976031 230.46052631578948,559.4958520092862 234.4736842105263,541.1326867740594 238.48684210526315,535.703264243977 242.5,554.233885025377 246.51315789473685,530.2109181801279 250.52631578947367,532.1324185555545 254.53947368421052,504.5216977141458 258.5526315789474,519.1418050199422 262.56578947368416,502.59670957135654 266.57894736842104,471.8976970304359 270.5921052631579,474.84347197736963 274.60526315789474,539.5507079461116 278.61842105263156,519.0897555943692 282.63157894736844,528.8101686905623 286.64473684210526,532.4057895946017 290.6578947368421,538.4975242182701 294.67105263157896,565.1693265191032 298.68421052631584,549.5851892976907 302.6973684210526,551.0075040978409 306.7105263157895,566.449785554111 310.72368421052636,568.1176704055591 314.7368421052631,535.4323355445374 318.75,518.6818108042919 322.7631578947369,487.67932354474925 326.77631578947364,494.95506736547065 330.7894736842105,477.0031140354231 334.8026315789474,457.7399190654256 338.81578947368416,475.0038603762959 342.82894736842104,466.28227731191794 346.84210526315786,494.2829000975429 350.85526315789474,506.3481208284709 354.8684210526316,448.42219085528785 358.8815789473684,442.8037600470477 362.89473684210526,409.1335859663121 366.90789473684214,430.2937779748968 370.92105263157896,403.3718036999616 374.9342105263158,399.0474085842365 378.9473684210526,416.07242979833114 382.9605263157895,422.31725586096854 386.9736842105263,413.4502932967553 390.9868421052631,432.01939820737437 395.0,447.73718772778307 399.0131578947368,449.5732449975018 403.0263157894737,465.13865045405225 407.0394736842105,475.68866140481 411.05263157894734,478.74926470449645 415.0657894736842,493.85033046863737 419.07894736842104,528.0452023692043 423.09210526315786,519.9060199048347 427.1052631578948,477.9641759401879 431.1184210526316,483.9880877557514 435.1315789473684,522.94627450743 439.1447368421052,490.3563096289976 443.15789473684214,504.35397144067707 447.17105263157896,504.6993951009613 451.1842105263158,489.3848844803828 455.19736842105266,464.30241426612133 459.2105263157895,483.4727350106716 463.2236842105263,490.94914112856907 467.2368421052632,491.90585070016215 471.25,505.00549605493575 475.2631578947368,501.9100667649988 479.2763157894737,565.0931899022804 483.2894736842105,572.3546668308301 487.30263157894734,568.8372453767373 491.3157894736842,573.1660993660889 495.32894736842104,573.1648493964866 499.34210526315786,617.9232203893205 503.3552631578948,633.446191488283 507.3684210526316,630.722033223745 511.3815789473684,625.3412478532907 515.3947368421052,629.6521281930849 519.4078947368421,601.6793698420333 523.421052631579,597.0634597743481 527.4342105263158,598.2531883842769 531.4473684210527,584.5349717805392 535.4605263157895,587.2414109647226 539.4736842105262,600.7355296229199 543.4868421052631,609.0995147420684 547.5,608.3373022781361 551.5131578947369,604.9505140786163 555.5263157894738,626.5865355129578 559.5394736842105,619.7223861035071 563.5526315789473,616.7143788368297 567.5657894736842,622.353962382578 571.578947368421,622.874467566455 575.5921052631579,605.2956148120599 579.6052631578948,609.330352361358 583.6184210526317,640.6166998078257 587.6315789473683,633.1922448368157 591.6447368421052,634.7662912582091 595.6578947368421,628.0282580442995 599.671052631579,631.8294696496446 603.6842105263157,625.4338207686843 607.6973684210526,632.6387739971789 611.7105263157895,634.622934745473 615.7236842105262,630.704492242905 619.7368421052632,621.380880101932 623.75,607.3400804560762 627.7631578947368,595.3472860302728 631.7763157894738,591.961208072375 635.7894736842105,593.9714731834231 639.8026315789474,588.7095516215146 643.8157894736843,590.5384376719779 647.828947368421,591.2428534951955 651.8421052631579,602.9110946835236 655.8552631578948,589.2926691090312 659.8684210526316,576.750451445224 663.8815789473684,571.2736194721705 667.8947368421052,566.6507629963274 671.9078947368421,561.1080842499646 675.921052631579,563.2240117887757 679.9342105263157,567.2718329037001 683.9473684210526,564.0642089873842 687.9605263157895,570.1198794132245 691.9736842105262,571.4044572337463 695.9868421052632,574.5918618824167 700.0,569.6238734927041 704.0131578947368,573.105180371559 708.0263157894736,582.0294809465735 712.0394736842104,561.4011794467847 716.0526315789474,563.4056538376617 720.0657894736843,559.6261690915475 724.078947368421,561.1747549361431 728.0921052631579,561.5755385474586 732.1052631578947,563.3046187641374 736.1184210526316,564.7855989277439 740.1315789473684,563.4560678739263 744.1447368421053,566.8471294154435 748.1578947368421,575.7554207854379 752.171052631579,572.5913247124811 756.1842105263157,579.8050466192099 760.1973684210526,579.530820972067 764.2105263157896,576.3205109039639 768.2236842105264,579.6775952711815 772.2368421052632,573.2124292135886 776.25,579.7118217111054 780.2631578947368,575.6401672042256 784.2763157894736,548.671547225667 788.2894736842104,543.4554211088977 792.3026315789474,541.2107321290218 796.3157894736843,529.524984843661 800.328947368421,530.2842111193875 804.3421052631579,530.7008277578097 808.3552631578947,511.7985217019154 812.3684210526316,512.4537644301648 816.3815789473684,513.0571746554176 820.3947368421053,507.13364265255973 824.4078947368421,514.1140908657542 828.421052631579,494.2497208512384 832.4342105263157,503.25384805043916 836.4473684210526,517.843471832834 840.4605263157896,511.6594357237966 844.4736842105264,503.52165538112797 848.4868421052632,477.889439634534 852.5,471.62136427934945 856.5131578947368,439.3077694314384 860.5263157894736,419.56094335221024 864.5394736842104,402.1970913086728 868.5526315789474,425.1961982159806 872.5657894736843,423.17628822038535 876.578947368421,434.22379368418274 880.5921052631579,418.4730756815216 884.6052631578947,451.8976892875234 888.6184210526316,441.1914578182081 892.6315789473684,458.49851886081103 896.6447368421053,452.78960436507924 900.6578947368421,440.67735530640874 904.671052631579,407.2987813717394 908.6842105263157,409.1215038918222 912.6973684210526,399.48620740509864 916.7105263157896,414.1052979253093 920.7236842105264,419.56664776975293 924.7368421052632,432.2807596235921 928.75,436.12992452811835 932.7631578947368,447.6561099821643 936.7763157894736,423.0081791912327 940.7894736842104,422.3770000356239 944.8026315789474,427.9718200228706 948.8157894736843,482.3107863338583 952.828947368421,460.7612312719662 956.8421052631579,456.85405491268244 960.8552631578947,466.3421229675881 964.8684210526316,472.4969199119988 968.8815789473684,479.32298177540275 972.8947368421053,468.08189365789224 976.9078947368421,454.5530641860035 980.921052631579,471.0355660635537 984.9342105263157,470.8898885570801 988.9473684210526,443.37937996030513 992.9605263157896,450.04972452038226 996.9736842105264,432.84701936289247 1000.9868421052632,423.88956331315546 1005.0,375.05371933064725 1009.0131578947368,375.27146876657446 1013.0263157894736,342.7259632522167 1017.0394736842104,330.10917436815237 1021.0526315789474,326.8790229123887 1025.0657894736842,336.62775044133997 1029.078947368421,342.7774851915883 1033.092105263158,354.9511535627407 1037.1052631578946,355.10811144233213 1041.1184210526317,341.0138545529899 1045.1315789473683,345.5650845652352 1049.1447368421054,351.46879163326986 1053.157894736842,378.5507571424001 1057.171052631579,379.53373097368933 1061.1842105263158,382.56859347437654 1065.1973684210525,422.3371826344694 1069.2105263157896,419.8866208801673 1073.2236842105262,450.75806564860056 1077.2368421052633,436.3990905541251 1081.25,439.7326617644175 1085.2631578947367,460.56732696559504 1089.2763157894738,469.562575996271 1093.2894736842104,474.34837372829776 1097.3026315789475,443.6918377733443 1101.3157894736842,443.2910538445201 1105.328947368421,438.4598967889575 1109.342105263158,366.2293881498125 1113.3552631578946,363.65208197891656 1117.3684210526314,355.9642453584839 1121.3815789473686,364.8859471217953 1125.3947368421052,348.46392175828606 1129.407894736842,369.81084156521166 1133.421052631579,374.0134804563703 1137.4342105263158,361.4498236120581 1141.4473684210525,344.33463861661807 1145.4605263157896,294.54502216751285 1149.4736842105265,278.4966403555404 1153.4868421052631,270.1045063010665 1157.5,280.0438170279533 1161.5131578947369,219.86736780070362 1165.5263157894735,249.7280616724156 1169.5394736842104,247.0531421464882 1173.5526315789475,248.44994658052946 1177.5657894736842,249.12861805876963 1181.578947368421,236.39135583375918 1185.592105263158,257.2189761347637 1189.6052631578948,242.1944430031951 1193.6184210526314,228.86530462793866 1197.6315789473686,266.7964862716401 1201.6447368421052,279.3890952501579 1205.657894736842,271.0335572559604 1209.671052631579,303.18317823732184 1213.6842105263158,307.81040776152315 1217.6973684210525,346.6319156150614 1221.7105263157896,348.3851693672847 1225.7236842105265,333.31955700254514 1229.7368421052631,328.383903103123 1233.75,368.39046463021594 1237.7631578947369,358.94950350098287 1241.7763157894735,357.8837665635414 1245.7894736842104,338.44046129333105 1249.8026315789475,315.759072598801 1253.8157894736842,353.2101921386723 1257.828947368421,352.0385409364377 1261.842105263158,435.99419868708105 1265.8552631578948,460.5672808479668 1269.8684210526314,460.76080302319946 1273.8815789473686,450.94564975319804 1277.8947368421052,437.08406162313196 1281.907894736842,446.9169437942826 1285.921052631579,434.8647399539995 1289.9342105263158,437.0818396668801 1293.9473684210525,445.21280195558495 1297.9605263157896,436.0202344427784 1301.9736842105265,417.4656341653714 1305.9868421052631,409.77432140470603 1310.0,422.61881901635263" fill="none" stroke="#2563eb" stroke-width="2.5"><title>narrow_cash_band_rebalance | end=2026-04-29 | return=556.65%</title></polyline>
<polyline points="90.0,701.4013557348932 94.01315789473684,700.6333933982071 98.02631578947368,701.462773026327 102.03947368421052,699.1743571077676 106.05263157894737,693.1591382780704 110.0657894736842,687.1658493540743 114.07894736842105,688.2335517692239 118.09210526315789,686.8617642852505 122.10526315789474,688.4280823112929 126.11842105263158,685.7849156468358 130.1315789473684,692.0118704910698 134.14473684210526,689.7259490582805 138.1578947368421,694.0431299328134 142.17105263157896,690.0003992941756 146.18421052631578,691.5585795138297 150.19736842105263,687.111900484122 154.21052631578948,683.5234190342344 158.2236842105263,682.8995774623436 162.23684210526315,680.2743225292253 166.25,673.0772547444012 170.26315789473682,668.8174017538752 174.2763157894737,662.0820737116347 178.28947368421052,659.7935924718562 182.30263157894737,661.9866877478863 186.31578947368422,654.7750875915194 190.32894736842104,654.6809367002777 194.34210526315792,638.9457492777977 198.35526315789474,607.1367455243912 202.36842105263156,609.9390134287885 206.38157894736844,602.0669954915879 210.39473684210526,613.3612574687825 214.40789473684208,584.9374479595626 218.42105263157893,571.1981112129722 222.4342105263158,557.3341372434631 226.44736842105263,567.6448608440778 230.46052631578948,568.9685226254301 234.4736842105263,552.4036546748105 238.48684210526315,547.7449670277753 242.5,563.9400483915636 246.51315789473685,542.3323304510933 250.52631578947367,543.9269327485279 254.53947368421052,519.815422905828 258.5526315789474,532.5001204235244 262.56578947368416,518.4966358037802 266.57894736842104,493.5581677025099 270.5921052631579,497.96303846156206 274.60526315789474,552.1295317105273 278.61842105263156,534.4516807650468 282.63157894736844,543.5657102054315 286.64473684210526,546.8040293366493 290.6578947368421,552.0415948509095 294.67105263157896,576.0343417831174 298.68421052631584,560.9657602681464 302.6973684210526,562.1774497262024 306.7105263157895,576.2453987060001 310.72368421052636,577.7931483801342 314.7368421052631,546.1492528803798 318.75,529.5380842030605 322.7631578947369,499.4759542955769 326.77631578947364,506.7241662435127 330.7894736842105,489.13033356854476 334.8026315789474,469.7772950455651 338.81578947368416,485.6731404153189 342.82894736842104,477.1292692669981 346.84210526315786,502.9088676792312 350.85526315789474,514.7809870648862 354.8684210526316,457.33409868002434 358.8815789473684,452.19138462736703 362.89473684210526,421.2498961319132 366.90789473684214,440.06755542280393 370.92105263157896,415.90168432486524 374.9342105263158,411.99813391216173 378.9473684210526,427.10890244428657 382.9605263157895,432.69334735645725 386.9736842105263,424.83123635093426 390.9868421052631,442.4224872634506 395.0,456.7330736178263 399.0131578947368,458.51392758681925 403.0263157894737,473.76168338071204 407.0394736842105,484.64512417920935 411.05263157894734,488.0403586460804 415.0657894736842,502.826007373772 419.07894736842104,535.299684387903 423.09210526315786,527.5440587360379 427.1052631578948,488.5820161359085 431.1184210526316,494.1082023854234 435.1315789473684,529.7490798364996 439.1447368421052,499.90120843345767 443.15789473684214,512.7603143459279 447.17105263157896,512.9317608655474 451.1842105263158,498.7542605353134 455.19736842105266,475.83095096874797 459.2105263157895,493.2474847948173 463.2236842105263,500.0692825451839 467.2368421052632,500.8947396570549 471.25,512.8072778049349 475.2631578947368,509.99584635471945 479.2763157894737,567.6605763219526 483.2894736842105,574.6715984404029 487.30263157894734,571.1401644816465 491.3157894736842,575.7110323384763 495.32894736842104,575.8082273109829 499.34210526315786,622.4343875989987 503.3552631578948,638.5672716184664 507.3684210526316,635.615222090354 511.3815789473684,629.9002503985329 515.3947368421052,634.4667816024222 519.4078947368421,605.2084587521285 523.421052631579,600.2032519296695 527.4342105263158,601.4352337706107 531.4473684210527,587.2285205834019 535.4605263157895,590.0421624489478 539.4736842105262,603.9871637510956 543.4868421052631,612.6394215065828 547.5,612.0108566862809 551.5131578947369,608.4028662223453 555.5263157894738,630.2743702472959 559.5394736842105,623.2112149515647 563.5526315789473,620.1128902489346 567.5657894736842,625.914491194087 571.578947368421,626.4541083857841 575.5921052631579,608.2731929678941 579.6052631578948,612.4303176081423 583.6184210526317,644.6464152646095 587.6315789473683,637.025841626892 591.6447368421052,638.6453217089826 595.6578947368421,631.7049301983792 599.671052631579,635.6212980521892 603.6842105263157,629.0711542540479 607.6973684210526,636.4785371654741 611.7105263157895,638.5136174616207 615.7236842105262,634.4375372374768 619.7368421052632,624.8606325632006 623.75,610.4819487493235 627.7631578947368,598.1767796164979 631.7763157894738,594.7010039669822 635.7894736842105,596.7049111266873 639.8026315789474,591.3283690679642 643.8157894736843,593.2519569938115 647.828947368421,593.8824591022243 651.8421052631579,605.9841474856854 655.8552631578948,591.9500913689628 659.8684210526316,579.1383593866983 663.8815789473684,573.4886083157069 667.8947368421052,568.4896629476802 671.9078947368421,563.4443098041424 675.921052631579,565.5037689084797 679.9342105263157,569.5303297212787 683.9473684210526,566.2298839153094 687.9605263157895,572.6154459900735 691.9736842105262,573.8571660617503 695.9868421052632,576.9196354883002 700.0,572.2641464216107 704.0131578947368,575.4868418717986 708.0263157894736,583.5817488561975 712.0394736842104,564.4415673580089 716.0526315789474,566.3774715063254 720.0657894736843,562.8039062987149 724.078947368421,564.2812539346843 728.0921052631579,564.5250984300867 732.1052631578947,566.0508017341713 736.1184210526316,567.4339349356328 740.1315789473684,566.2442119804255 744.1447368421053,569.315234742957 748.1578947368421,577.3908471585605 752.171052631579,574.6595061474313 756.1842105263157,580.8146459268634 760.1973684210526,580.690925099761 764.2105263157896,578.0882953218943 768.2236842105264,580.8263567974363 772.2368421052632,575.5612241317903 776.25,581.0419595740506 780.2631578947368,577.8655665228977 784.2763157894736,552.7527789558153 788.2894736842104,547.8622550583281 792.3026315789474,545.6940028681797 796.3157894736843,534.9965631804874 800.328947368421,535.600914507761 804.3421052631579,536.0645754322513 808.3552631578947,519.3232803712858 812.3684210526316,519.8237462528739 816.3815789473684,520.4399108530146 820.3947368421053,514.9243535276826 824.4078947368421,521.2053557177182 828.421052631579,503.353847196489 832.4342105263157,511.3433792919054 836.4473684210526,524.2551053158602 840.4605263157896,518.677952528536 844.4736842105264,511.3710870720339 848.4868421052632,488.4636193483256 852.5,482.8481995495802 856.5131578947368,454.2614510420076 860.5263157894736,436.87062992525006 864.5394736842104,421.617667438918 868.5526315789474,441.63189203041935 872.5657894736843,439.94683916895104 876.578947368421,449.619393062683 880.5921052631579,435.5557082421034 884.6052631578947,465.2257495086609 888.6184210526316,454.9498600666226 892.6315789473684,470.66405405941833 896.6447368421053,465.5209461074354 900.6578947368421,454.13499235775816 904.671052631579,417.6313961328579 908.6842105263157,419.05950473938464 912.6973684210526,410.2740478473035 916.7105263157896,423.7124876121696 920.7236842105264,428.404238781728 924.7368421052632,439.81334842146964 928.75,443.36551187235443 932.7631578947368,454.0307609073325 936.7763157894736,432.41955560625115 940.7894736842104,431.9881967469963 944.8026315789474,437.1391401292373 948.8157894736843,487.3207708465041 952.828947368421,466.55061591918104 956.8421052631579,463.78483516569395 960.8552631578947,472.65690442477114 964.8684210526316,478.6159598499649 968.8815789473684,485.65142122921026 972.8947368421053,476.64701291471465 976.9078947368421,462.53177498143043 980.921052631579,478.952920179114 984.9342105263157,478.73814392290325 988.9473684210526,453.8753428888324 992.9605263157896,460.71052574928615 996.9736842105264,444.4339794888213 1000.9868421052632,435.9342800032475 1005.0,387.33522982176487 1009.0131578947368,389.6033098423279 1013.0263157894736,354.36946961625046 1017.0394736842104,342.3920406063009 1021.0526315789474,339.86538641539954 1025.0657894736842,349.0462650308214 1029.078947368421,354.76323868627736 1033.092105263158,365.52921969281476 1037.1052631578946,365.8048840346195 1041.1184210526317,353.07572643619 1045.1315789473683,358.39427512798994 1049.1447368421054,364.5409245752247 1053.157894736842,390.05650305074175 1057.171052631579,391.51922777687923 1061.1842105263158,394.4778205529401 1065.1973684210525,434.7853779052728 1069.2105263157896,433.1074110798174 1073.2236842105262,465.32256476075344 1077.2368421052633,449.4387097617995 1081.25,453.2600317390843 1085.2631578947367,475.6044938451317 1089.2763157894738,486.65530553835447 1093.2894736842104,493.9465987502326 1097.3026315789475,462.5772325369501 1101.3157894736842,462.39195394917726 1105.328947368421,457.95603699714843 1109.342105263158,367.2203531625855 1113.3552631578946,366.89124969123384 1117.3684210526314,356.69562284046197 1121.3815789473686,366.1864491227808 1125.3947368421052,348.2694690554031 1129.407894736842,372.6077747119787 1133.421052631579,378.63723745961977 1137.4342105263158,364.21486538472215 1141.4473684210525,344.8183751137341 1145.4605263157896,286.65859282141133 1149.4736842105265,267.81700688760475 1153.4868421052631,258.2134991186928 1157.5,267.9106852126854 1161.5131578947369,208.56354848220394 1165.5263157894735,236.87763188179792 1169.5394736842104,234.15907178766514 1173.5526315789475,235.45860821862686 1177.5657894736842,236.01127608097335 1181.578947368421,223.94840771693265 1185.592105263158,243.60461296740374 1189.6052631578948,229.37344021580145 1193.6184210526314,216.75208970159287 1197.6315789473686,252.71750154842437 1201.6447368421052,265.0362500885302 1205.657894736842,256.8271545176472 1209.671052631579,289.5675471204438 1213.6842105263158,293.63611711787263 1217.6973684210525,333.401854499947 1221.7105263157896,334.8640627033814 1225.7236842105265,319.4570521500143 1229.7368421052631,313.4433324292371 1233.75,354.1493848427324 1237.7631578947369,344.5091919897621 1241.7763157894735,343.3228830597971 1245.7894736842104,323.8687779014961 1249.8026315789475,301.6738177990892 1253.8157894736842,338.81895067928986 1257.828947368421,337.4951756789993 1261.842105263158,421.3567009668259 1265.8552631578948,447.0149150509818 1269.8684210526314,446.9123885719013 1273.8815789473686,435.7129998981685 1277.8947368421052,421.1394411389427 1281.907894736842,432.00223032801034 1285.921052631579,417.4770631502479 1289.9342105263158,420.27551606987527 1293.9473684210525,428.68267794288306 1297.9605263157896,418.8054959587411 1301.9736842105265,397.7145004150654 1305.9868421052631,389.87387901032656 1310.0,404.6236650044471" fill="none" stroke="#7c3aed" stroke-width="2.5"><title>drawdown_tilt_rebalance | end=2026-04-29 | return=592.58%</title></polyline>
<polyline points="90.0,701.4013557348932 94.01315789473684,700.6277047883058 98.02631578947368,701.4908139054821 102.03947368421052,699.051507212029 106.05263157894737,691.7971463578606 110.0657894736842,684.003916613364 114.07894736842105,685.4772506990151 118.09210526315789,683.5279595277509 122.10526315789474,685.7926063340101 126.11842105263158,682.0431106577465 130.1315789473684,691.1979586121815 134.14473684210526,688.3959500886316 138.1578947368421,693.5880681178304 142.17105263157896,688.9283750489336 146.18421052631578,690.690067204266 150.19736842105263,685.9444488690627 154.21052631578948,681.7059503842485 158.2236842105263,680.8192532973155 162.23684210526315,677.5943170473015 166.25,669.5550107345184 170.26315789473682,663.1761847362814 174.2763157894737,655.0325828251179 178.28947368421052,651.9743651810554 182.30263157894737,655.1735510645099 186.31578947368422,644.0037100669255 190.32894736842104,642.2074528398635 194.34210526315792,617.8135462461457 198.35526315789474,570.5808504680298 202.36842105263156,573.8440765696595 206.38157894736844,564.8898368728865 210.39473684210526,584.5831387194762 214.40789473684208,541.3502933853536 218.42105263157893,520.9756964693015 222.4342105263158,498.44015125443417 226.44736842105263,516.9225719246385 230.46052631578948,519.0480918175369 234.4736842105263,493.9006164537167 238.48684210526315,486.0203978973615 242.5,514.0154699706604 246.51315789473685,480.19244834327253 250.52631578947367,483.70059444728486 254.53947368421052,442.33632392075265 258.5526315789474,466.8604882173369 262.56578947368416,441.31041824471754 266.57894736842104,393.05763099034925 270.5921052631579,397.1516294202097 274.60526315789474,498.24706265060513 278.61842105263156,472.12379387863626 282.63157894736844,485.2909457632765 286.64473684210526,489.68344235850844 290.6578947368421,495.8456012275837 294.67105263157896,523.5521630531614 298.68421052631584,508.7050222499555 302.6973684210526,510.94347995535634 306.7105263157895,524.7858992397203 310.72368421052636,526.831698163279 314.7368421052631,491.99771707369734 318.75,478.6875611371371 322.7631578947369,444.9628083554232 326.77631578947364,453.86605316941774 330.7894736842105,432.86402635042356 334.8026315789474,409.451622267472 338.81578947368416,431.54892897789153 342.82894736842104,420.83404006249907 346.84210526315786,458.6036817259884 350.85526315789474,475.2090530114291 354.8684210526316,405.62734997540355 358.8815789473684,399.2230442206237 362.89473684210526,352.38386359795027 366.90789473684214,381.8278048117182 370.92105263157896,342.60514463195045 374.9342105263158,336.0970684767671 378.9473684210526,361.8315212586894 382.9605263157895,371.32460022556984 386.9736842105263,360.004621417019 390.9868421052631,383.9057924126634 395.0,406.46462765042793 399.0131578947368,409.00582842715266 403.0263157894737,430.81377774248955 407.0394736842105,442.22313298561346 411.05263157894734,449.42091412740405 415.0657894736842,467.01585582381017 419.07894736842104,502.5288692784195 423.09210526315786,495.00800799331364 427.1052631578948,454.8836478453822 431.1184210526316,460.08143924460387 435.1315789473684,495.72552835202396 439.1447368421052,464.8044005018759 443.15789473684214,477.13640289099226 447.17105263157896,478.18999870130074 451.1842105263158,465.09417139095615 455.19736842105266,442.4938236114143 459.2105263157895,460.32409933085614 463.2236842105263,467.77203253837547 467.2368421052632,468.2338033369823 471.25,479.9207831184425 475.2631578947368,477.23190856285953 479.2763157894737,534.4414956920698 483.2894736842105,540.2052108441095 487.30263157894734,536.6173267857807 491.3157894736842,539.6541227813094 495.32894736842104,539.2355861503331 499.34210526315786,582.5423562490433 503.3552631578948,597.9367771281205 507.3684210526316,595.5229955809924 511.3815789473684,590.4678014179847 515.3947368421052,594.4921710821202 519.4078947368421,567.1800718268314 523.421052631579,563.6101489034271 527.4342105263158,564.7599368519581 531.4473684210527,552.107480608937 535.4605263157895,555.0627460210881 539.4736842105262,568.3845607970304 543.4868421052631,576.7966112120998 547.5,577.1407149345323 551.5131578947369,573.1692006307313 555.5263157894738,593.0487625063048 559.5394736842105,586.1449334342693 563.5526315789473,582.6803832990256 567.5657894736842,588.6573986406047 571.578947368421,589.1328578233897 575.5921052631579,572.2962488760046 579.6052631578948,576.4441818175582 583.6184210526317,607.7911532057792 587.6315789473683,600.5497484373037 591.6447368421052,601.9581241505412 595.6578947368421,595.4601843950279 599.671052631579,599.1192296921637 603.6842105263157,592.3943757263736 607.6973684210526,599.8011869502427 611.7105263157895,601.8696459588388 615.7236842105262,598.1274383029702 619.7368421052632,588.7231044059672 623.75,573.1812559839902 627.7631578947368,559.9778193749061 631.7763157894738,556.2981420783972 635.7894736842105,558.9353663785159 639.8026315789474,552.8919962019469 643.8157894736843,554.5675112557426 647.828947368421,555.8276136893521 651.8421052631579,567.7410847059431 655.8552631578948,553.2314024528536 659.8684210526316,539.3254259847589 663.8815789473684,533.6147520775236 667.8947368421052,530.0848952326381 671.9078947368421,523.5618564568408 675.921052631579,527.0272855039645 679.9342105263157,531.0927669489412 683.9473684210526,527.1979764651015 687.9605263157895,535.2056445227929 691.9736842105262,536.8477105167274 695.9868421052632,542.0515421049455 700.0,535.4977688103027 704.0131578947368,540.6603506600744 708.0263157894736,553.1291736295566 712.0394736842104,524.3535059604916 716.0526315789474,527.108727538308 720.0657894736843,521.7669756176609 724.078947368421,523.8938749399025 728.0921052631579,524.9069621704248 732.1052631578947,527.7536271302906 736.1184210526316,529.8472421165982 740.1315789473684,527.6864807625911 744.1447368421053,533.010835428434 748.1578947368421,546.9962839117302 752.171052631579,542.7031240547924 756.1842105263157,551.1282457246402 760.1973684210526,550.3271119000461 764.2105263157896,546.635487670307 768.2236842105264,550.2238319425771 772.2368421052632,543.4364691094808 776.25,549.6058363560361 780.2631578947368,544.7494966240911 784.2763157894736,513.7698108255607 788.2894736842104,507.9153350482776 792.3026315789474,505.42782665973556 796.3157894736843,490.0527450769498 800.328947368421,491.47646501447866 804.3421052631579,491.4324272541921 808.3552631578947,461.83635355915146 812.3684210526316,463.6588528355568 816.3815789473684,463.4935371459929 820.3947368421053,456.3343288332328 824.4078947368421,465.786323098557 828.421052631579,436.5001955222385 832.4342105263157,451.7220283775492 836.4473684210526,474.1835468756895 840.4605263157896,464.28637762494714 844.4736842105264,451.5957394025901 848.4868421052632,411.23305132807286 852.5,402.135608987587 856.5131578947368,349.7228420982512 860.5263157894736,317.8027392684118 864.5394736842104,288.7089123933614 868.5526315789474,327.4638273577782 872.5657894736843,323.5999652927624 876.578947368421,342.2835495871782 880.5921052631579,317.8682813228922 884.6052631578947,370.7640092149693 888.6184210526316,354.8513752062173 892.6315789473684,380.96664028806026 896.6447368421053,371.53486798098567 900.6578947368421,352.8267752365389 904.671052631579,313.14919320999905 908.6842105263157,316.93608395754256 912.6973684210526,301.23037481671633 916.7105263157896,322.91617135568737 920.7236842105264,332.8310285372566 924.7368421052632,353.6742888316047 928.75,359.71855289854074 932.7631578947368,377.1860304277883 936.7763157894736,346.0105576730624 940.7894736842104,345.3301890656034 944.8026315789474,352.6214186627703 948.8157894736843,423.49509695950326 952.828947368421,398.89198352766545 956.8421052631579,393.65264424459707 960.8552631578947,403.69686880693126 964.8684210526316,409.8550193651739 968.8815789473684,416.1276472252075 972.8947368421053,403.00372060232957 976.9078947368421,390.63989184271065 980.921052631579,406.3038982846076 984.9342105263157,406.2295547239293 988.9473684210526,377.6524541313626 992.9605263157896,384.3743549478455 996.9736842105264,362.35291859335933 1000.9868421052632,350.0814334584212 1005.0,286.7902572075795 1009.0131578947368,282.19571905124275 1013.0263157894736,248.67972025624317 1017.0394736842104,232.21976720398277 1021.0526315789474,226.0844410147929 1025.0657894736842,238.80792532631506 1029.078947368421,247.1571531550519 1033.092105263158,266.92334657505745 1037.1052631578946,266.5263255654735 1041.1184210526317,246.096013218756 1045.1315789473683,248.27352423132726 1049.1447368421054,254.52319077091943 1053.157894736842,289.30523110607277 1057.171052631579,288.9466675724622 1061.1842105263158,293.2510163847804 1065.1973684210525,345.22876025906623 1069.2105263157896,334.5767205756871 1073.2236842105262,371.2127456683046 1077.2368421052633,354.1944664228777 1081.25,357.1121129717606 1085.2631578947367,381.48634245285587 1089.2763157894738,389.25738636054336 1093.2894736842104,392.1406563427321 1097.3026315789475,357.91879225404625 1101.3157894736842,357.1479380678212 1105.328947368421,349.84676792057434 1109.342105263158,277.81282579013066 1113.3552631578946,268.3090534028402 1117.3684210526314,263.7556170991325 1121.3815789473686,275.40178496831106 1125.3947368421052,256.070759874689 1129.407894736842,281.04941479645174 1133.421052631579,282.59556693070067 1137.4342105263158,269.29945489844573 1141.4473684210525,250.9940144115941 1145.4605263157896,193.28608483742755 1149.4736842105265,175.00119877248017 1153.4868421052631,164.59006408708444 1157.5,178.9879205036441 1161.5131578947369,90.0 1165.5263157894735,136.2210127957561 1169.5394736842104,132.27477980711546 1173.5526315789475,134.44686477677521 1177.5657894736842,135.46272550686865 1181.578947368421,115.15291456216255 1185.592105263158,148.52526787611362 1189.6052631578948,124.47589436845044 1193.6184210526314,103.09122994375866 1197.6315789473686,164.21531208387273 1201.6447368421052,182.63371477368173 1205.657894736842,170.64348110167214 1209.671052631579,216.50589885508413 1213.6842105263158,221.94495579210246 1217.6973684210525,267.7010739888724 1221.7105263157896,269.78787172532526 1225.7236842105265,254.35082047149933 1229.7368421052631,250.9479943810524 1233.75,288.5279250877992 1237.7631578947369,279.70625186769735 1241.7763157894735,278.923306567901 1245.7894736842104,260.22056658591737 1249.8026315789475,237.50758800440775 1253.8157894736842,273.3576461536011 1257.828947368421,272.5834032413351 1261.842105263158,352.56211861051673 1265.8552631578948,377.45858182188067 1269.8684210526314,378.1138879210982 1273.8815789473686,368.53841035135537 1277.8947368421052,352.90476275849466 1281.907894736842,363.27099699343984 1285.921052631579,352.20036247034676 1289.9342105263158,354.0259116415083 1293.9473684210525,363.549618492212 1297.9605263157896,353.2846404962818 1301.9736842105265,334.48540510217157 1305.9868421052631,325.20399729924736 1310.0,337.9809416209299" fill="none" stroke="#b45309" stroke-width="2.5"><title>btc_defensive_eth_aggressive | end=2026-04-29 | return=725.65%</title></polyline>
</svg>