<svg xmlns="http://www.w3.org/2000/svg" width="1400" height="800">
<rect width="1400" height="800" fill="#f8fafc"/>
<text x="700.0" y="42" text-anchor="middle" font-family="monospace" font-size="24" fill="#0f172a">Portfolio Value Over Time | start=2024-07-01 | interval=7d</text>
<line x1="90" y1="710" x2="1310" y2="710" stroke="#334155" stroke-width="2"/>
<line x1="90" y1="90" x2="90" y2="710" stroke="#334155" stroke-width="2"/>
<line x1="90.0" y1="710" x2="90.0" y2="90" stroke="#cbd5e1" stroke-width="1"/>
<text x="90.0" y="734" text-anchor="middle" font-family="monospace" font-size="11" fill="#475569">2024-07-01</text>
<line x1="90" y1="710.0" x2="1310" y2="710.0" stroke="#cbd5e1" stroke-width="1"/>
<text x="78" y="714.0" text-anchor="end" font-family="monospace" font-size="12" fill="#475569">8193</text>
<line x1="334.0" y1="710" x2="334.0" y2="90" stroke="#cbd5e1" stroke-width="1"/>
<text x="334.0" y="734" text-anchor="middle" font-family="monospace" font-size="11" fill="#475569">2024-11-11</text>
<line x1="90" y1="586.0" x2="1310" y2="586.0" stroke="#cbd5e1" stroke-width="1"/>
<text x="78" y="590.0" text-anchor="end" font-family="monospace" font-size="12" fill="#475569">10088</text>
<line x1="578.0" y1="710" x2="578.0" y2="90" stroke="#cbd5e1" stroke-width="1"/>
<text x="578.0" y="734" text-anchor="middle" font-family="monospace" font-size="11" fill="#475569">2025-03-24</text>
<line x1="90" y1="462.0" x2="1310" y2="462.0" stroke="#cbd5e1" stroke-width="1"/>
<text x="78" y="466.0" text-anchor="end" font-family="monospace" font-size="12" fill="#475569">11983</text>
<line x1="822.0" y1="710" x2="822.0" y2="90" stroke="#cbd5e1" stroke-width="1"/>
<text x="822.0" y="734" text-anchor="middle" font-family="monospace" font-size="11" fill="#475569">2025-08-11</text>
<line x1="90" y1="338.0" x2="1310" y2="338.0" stroke="#cbd5e1" stroke-width="1"/>
<text x="78" y="342.0" text-anchor="end" font-family="monospace" font-size="12" fill="#475569">13878</text>
<line x1="1066.0" y1="710" x2="1066.0" y2="90" stroke="#cbd5e1" stroke-width="1"/>
<text x="1066.0" y="734" text-anchor="middle" font-family="monospace" font-size="11" fill="#475569">2025-12-22</text>
<line x1="90" y1="214.0" x2="1310" y2="214.0" stroke="#cbd5e1" stroke-width="1"/>
<text x="78" y="218.0" text-anchor="end" font-family="monospace" font-size="12" fill="#475569">15773</text>
<line x1="1310.0" y1="710" x2="1310.0" y2="90" stroke="#cbd5e1" stroke-width="1"/>
<text x="1310.0" y="734" text-anchor="middle" font-family="monospace" font-size="11" fill="#475569">2026-05-04</text>
<line x1="90" y1="90.0" x2="1310" y2="90.0" stroke="#cbd5e1" stroke-width="1"/>
<text x="78" y="94.0" text-anchor="end" font-family="monospace" font-size="12" fill="#475569">17668</text>
<text x="700.0" y="782" text-anchor="middle" font-family="monospace" font-size="16" fill="#0f172a">time</text>
<text x="24" y="400.0" transform="rotate(-90 24,400.0)" text-anchor="middle" font-family="monospace" font-size="16" fill="#0f172a">portfolio_value_usd</text>
<line x1="970" y1="80" x2="988" y2="80" stroke="#0f766e" stroke-width="3"/>
<text x="998" y="84" font-family="monospace" font-size="12" fill="#0f172a">budgeted_static_50_50_rebalance</text>
<line x1="970" y1="104" x2="988" y2="104" stroke="#9333ea" stroke-width="3"/>
<text x="998" y="108" font-family="monospace" font-size="12" fill="#0f172a">budgeted_drawdown_tilt_rebalance</text>
<line x1="970" y1="128" x2="988" y2="128" stroke="#92400e" stroke-width="3"/>
<text x="998" y="132" font-family="monospace" font-size="12" fill="#0f172a">budgeted_btc_defensive_eth_aggressive</text>
<line x1="970" y1="152" x2="988" y2="152" stroke="#0f766e" stroke-width="3"/>
<text x="998" y="156" font-family="monospace" font-size="12" fill="#0f172a">static_50_50_rebalance</text>
<line x1="970" y1="176" x2="988" y2="176" stroke="#dc2626" stroke-width="3"/>
<text x="998" y="180" font-family="monospace" font-size="12" fill="#0f172a">target_50_50_with_cash_band</text>
<line x1="970" y1="200" x2="988" y2="200" stroke="#2563eb" stroke-width="3"/>
<text x="998" y="204" font-family="monospace" font-size="12" fill="#0f172a">narrow_cash_band_rebalance</text>
<line x1="970" y1="224" x2="988" y2="224" stroke="#7c3aed" stroke-width="3"/>
<text x="998" y="228" font-family="monospace" font-size="12" fill="#0f172a">drawdown_tilt_rebalance</text>
<line x1="970" y1="248" x2="988" y2="248" stroke="#b45309" stroke-width="3"/>
<text x="998" y="252" font-family="monospace" font-size="12" fill="#0f172a">btc_defensive_eth_aggressive</text>
<polyline points="90.0,591.7615421051045 102.70833333333333,592.1929552255849 115.41666666666666,591.0913551363429 128.125,590.9018225177949 140.83333333333331,591.2913248995956 153.54166666666669,595.9056874431906 166.25,593.7505598527046 178.95833333333334,594.1140330287484 191.66666666666666,593.0153851959045 204.375,594.9336297664698 217.08333333333334,596.8001323649955 229.79166666666666,596.879727900207 242.5,591.9223356733186 255.20833333333331,592.3543964221756 267.9166666666667,594.6319022440808 280.625,590.5436653676296 293.3333333333333,589.4669207320318 306.0416666666667,589.2861294554802 318.75,592.6810441802243 331.4583333333333,566.6231885738905 344.1666666666667,567.9303467028133 356.875,563.25665667824 369.5833333333333,557.7800981105886 382.2916666666667,555.6678379901016 395.0,544.9280817871236 407.70833333333337,562.8744321291321 420.41666666666663,565.5743639586698 433.125,552.0963908760884 445.83333333333337,568.5884727869338 458.54166666666663,559.6335291175251 471.25,561.6747979058207 483.95833333333337,568.3434698570111 496.66666666666663,576.5391083468362 509.375,576.1923764269903 522.0833333333334,585.3090591656052 534.7916666666666,598.8785750008761 547.5,613.0351603099131 560.2083333333334,606.130269404919 572.9166666666666,598.5069154940991 585.625,610.726521352609 598.3333333333334,621.9620263428454 611.0416666666666,614.0156087191067 623.75,612.2000144978375 636.4583333333334,596.7046636086775 649.1666666666666,596.3904788292523 661.875,563.7974871181123 674.5833333333334,559.3347696467936 687.2916666666666,553.4656618759507 700.0,556.1173639539654 712.7083333333333,548.0145708314843 725.4166666666667,557.516654351826 738.125,564.4941952736478 750.8333333333333,559.3283133159998 763.5416666666667,555.6155669951692 776.25,520.7608633530053 788.9583333333333,492.49392354617044 801.6666666666667,490.1048387238148 814.375,497.6262322477626 827.0833333333333,470.5905115208062 839.7916666666667,469.9702565827404 852.5,475.9677448878227 865.2083333333333,480.04512729741555 877.9166666666667,476.32844570311124 890.625,461.41217434707676 903.3333333333333,480.2836153875787 916.0416666666667,477.1343847792217 928.75,439.1678948499853 941.4583333333333,474.78480145475896 954.1666666666667,494.84218161555594 966.875,482.5027228067348 979.5833333333333,519.9046172860641 992.2916666666667,522.6444200815129 1005.0,572.3108374608014 1017.7083333333333,582.4711836534728 1030.4166666666667,593.7423206737828 1043.125,569.2655482403186 1055.8333333333333,585.028180917295 1068.5416666666667,578.9882961910507 1081.25,585.5191270825627 1093.9583333333333,557.4926124035062 1106.6666666666667,569.7259283802096 1119.375,561.8584261523848 1132.0833333333333,584.6076934722457 1144.7916666666667,635.9179308450464 1157.5,666.201485536684 1170.2083333333333,674.8972513069745 1182.9166666666667,691.6845806994271 1195.625,672.8217184453591 1208.3333333333333,675.7580702402005 1221.0416666666667,639.8749359301096 1233.75,661.0395065029146 1246.4583333333333,677.9499582712865 1259.1666666666667,668.0036077217294 1271.875,638.4107431013105 1284.5833333333333,639.0731727257777 1297.2916666666667,636.5456349909614 1310.0,627.9831576850445" fill="none" stroke="#0f766e" stroke-width="2.5"><title>budgeted_static_50_50_rebalance | end=2026-05-04 | return=-5.54%</title></polyline>
<polyline points="90.0,591.7615421051045 102.70833333333333,592.0855890159513 115.41666666666666,590.9180668943314 128.125,590.7877844999274 140.83333333333331,591.0781648068445 153.54166666666669,594.495012004443 166.25,592.6358763564739 178.95833333333334,593.0142585463757 191.66666666666666,592.004228472281 204.375,593.9480957281437 217.08333333333334,596.0102881170872 229.79166666666666,596.245066769463 242.5,590.544465764103 255.20833333333331,591.1092584689999 267.9166666666667,593.9758433638361 280.625,589.1549068205633 293.3333333333333,587.9441074897175 306.0416666666667,588.3203726379452 318.75,592.5972978935499 331.4583333333333,561.0936358844003 344.1666666666667,563.489165744566 356.875,557.6837927686333 369.5833333333333,550.9888200177934 382.2916666666667,548.6099755784337 395.0,537.355074801018 407.70833333333337,556.5338576339376 420.41666666666663,559.2467999605627 433.125,545.5886564269485 445.83333333333337,562.968228697632 458.54166666666663,554.658861214164 471.25,557.0271011370819 483.95833333333337,564.6050150410452 496.66666666666663,572.98557911874 509.375,572.0061764010997 522.0833333333334,581.5226826146421 534.7916666666666,596.1501911200703 547.5,610.7294735827235 560.2083333333334,604.2614631551769 572.9166666666666,595.8934534899608 585.625,609.6692568140215 598.3333333333334,623.164046263061 611.0416666666666,615.2069770080525 623.75,614.4463840247164 636.4583333333334,596.7552961787121 649.1666666666666,596.0621314170219 661.875,552.4851818224219 674.5833333333334,547.8482000441059 687.2916666666666,541.9035372817604 700.0,543.0825077008967 712.7083333333333,534.2189150764908 725.4166666666667,546.0188006051242 738.125,555.6214092710278 750.8333333333333,549.1204416252792 763.5416666666667,544.3065857706671 776.25,500.35259544473985 788.9583333333333,454.0646711627463 801.6666666666667,450.98223584018626 814.375,459.6175581081324 827.0833333333333,422.4378620513739 839.7916666666667,419.36848624256237 852.5,422.5554423009775 865.2083333333333,427.48592623325663 877.9166666666667,424.7635289158984 890.625,407.512939405848 903.3333333333333,430.08970454302846 916.0416666666667,427.3082996344397 928.75,386.9139110976726 941.4583333333333,424.35999753380463 954.1666666666667,445.6732656053228 966.875,433.11651510150153 979.5833333333333,473.1835231638165 992.2916666666667,476.10161460724595 1005.0,526.3634566280111 1017.7083333333333,535.8561265034699 1030.4166666666667,548.2406511001789 1043.125,521.3479735239534 1055.8333333333333,537.5192017684861 1068.5416666666667,531.7435214914727 1081.25,538.7159309278818 1093.9583333333333,509.22299132612727 1106.6666666666667,522.3352281495988 1119.375,513.59375571948 1132.0833333333333,538.6047674345743 1144.7916666666667,595.200916342878 1157.5,626.2699777904968 1170.2083333333333,636.3185707075129 1182.9166666666667,654.1996276761156 1195.625,633.4846588128751 1208.3333333333333,636.9641751099899 1221.0416666666667,595.6739937887359 1233.75,619.939721162294 1246.4583333333333,638.5156761925889 1259.1666666666667,627.2320391929616 1271.875,592.821936510378 1284.5833333333333,595.1426962399719 1297.2916666666667,593.2186698798835 1310.0,584.0475001580825" fill="none" stroke="#9333ea" stroke-width="2.5"><title>budgeted_drawdown_tilt_rebalance | end=2026-05-04 | return=1.18%</title></polyline>
<polyline points="90.0,591.7615421051045 102.70833333333333,592.0851019454648 115.41666666666666,590.8291631181166 128.125,590.5982820616208 140.83333333333331,590.9551725831446 153.54166666666669,595.1417846608346 166.25,592.9293020753178 178.95833333333334,593.2759651092332 191.66666666666666,591.9070648061645 204.375,594.235013365262 217.08333333333334,596.430692049432 229.79166666666666,596.3580667649161 242.5,590.2195836262774 255.20833333333331,590.6958434504802 267.9166666666667,593.4028758910011 280.625,588.077393809093 293.3333333333333,586.6410667406552 306.0416666666667,585.8552924883007 318.75,589.8191366919501 331.4583333333333,558.6554452460377 344.1666666666667,559.4728718716578 356.875,554.3145582839126 369.5833333333333,548.3329537747792 382.2916666666667,545.9409178679264 395.0,533.4516527704976 407.70833333333337,553.2554838210942 420.41666666666663,556.3533973665167 433.125,541.2674572897567 445.83333333333337,558.3772211414196 458.54166666666663,548.0203708083847 471.25,549.8231076717252 483.95833333333337,555.7738051219576 496.66666666666663,564.168704964058 509.375,564.4705367442002 522.0833333333334,573.6636260843716 534.7916666666666,586.917913039312 547.5,601.4605257995295 560.2083333333334,593.5357977520587 572.9166666666666,585.6424080845268 585.625,597.9816972501601 598.3333333333334,609.0172337137504 611.0416666666666,599.7707921825274 623.75,596.890165809262 636.4583333333334,579.6931069496417 649.1666666666666,579.5550784823577 661.875,547.2470907037574 674.5833333333334,542.0341099052347 687.2916666666666,535.1152718576359 700.0,539.1261780360957 712.7083333333333,530.0369993094744 725.4166666666667,539.8352219344083 738.125,546.4626234789496 750.8333333333333,541.221445660323 763.5416666666667,537.5476130777454 776.25,502.4603042789524 788.9583333333333,480.23984495234515 801.6666666666667,477.92007915994327 814.375,485.73896151178394 827.0833333333333,461.43268132862886 839.7916666666667,462.18437106873847 852.5,470.3672339691417 865.2083333333333,474.1991539817792 877.9166666666667,469.6509454214622 890.625,455.6237722596302 903.3333333333333,472.55076009133546 916.0416666666667,469.1081877661881 928.75,432.4811049503883 941.4583333333333,466.6773370425459 954.1666666666667,485.5998551866122 966.875,473.6422620626451 979.5833333333333,508.2231054147451 992.2916666666667,510.7682610593463 1005.0,558.6365783822581 1017.7083333333333,569.0471059865091 1030.4166666666667,579.4643478437506 1043.125,556.6252101375139 1055.8333333333333,572.2573674695332 1068.5416666666667,565.9134763208369 1081.25,572.3099408214586 1093.9583333333333,544.3118034118727 1106.6666666666667,556.4488529020141 1119.375,548.8167667887215 1132.0833333333333,571.247265608713 1144.7916666666667,622.0806122171 1157.5,654.2972248745413 1170.2083333333333,662.7822338456838 1182.9166666666667,680.6005663843941 1195.625,660.7969485634583 1208.3333333333333,663.7137925377418 1221.0416666666667,626.6170806893167 1233.75,648.8006537787996 1246.4583333333333,667.3901872233718 1259.1666666666667,656.6292296262357 1271.875,624.9726344401486 1284.5833333333333,624.3788793066373 1297.2916666666667,620.7622947514561 1310.0,610.6773210396866" fill="none" stroke="#92400e" stroke-width="2.5"><title>budgeted_btc_defensive_eth_aggressive | end=2026-05-04 | return=-2.89%</title></polyline>
<polyline points="90.0,591.7615421051045 102.70833333333333,620.5224168037952 115.41666666666666,566.077842707366 128.125,558.7458664430471 140.83333333333331,571.0270062785909 153.54166666666669,691.5986363670982 166.25,644.406799786454 178.95833333333334,651.4621644868198 191.66666666666666,633.9756716068385 204.375,661.4780948303761 217.08333333333334,685.9073397973054 229.79166666666666,687.3879179871309 242.5,633.9679407845553 255.20833333333331,638.3794091908583 267.9166666666667,659.4482664164342 280.625,624.967567470137 293.3333333333333,616.6417595821201 306.0416666666667,616.3767510267171 318.75,640.4393815077465 331.4583333333333,467.7175326521075 344.1666666666667,477.38237009051704 356.875,449.0876326408699 369.5833333333333,417.47584005948494 382.2916666666667,406.01938364594434 395.0,350.5990451145852 407.70833333333337,440.9803453506215 420.41666666666663,454.0605750471484 433.125,389.96092009339134 445.83333333333337,467.72082266801993 458.54166666666663,428.33603700005574 471.25,438.2545680703817 483.95833333333337,469.9537558110916 496.66666666666663,505.5597121685608 509.375,501.8565339974974 522.0833333333334,540.01314482176 534.7916666666666,596.8689592238522 547.5,652.8780603542345 560.2083333333334,628.724828190845 572.9166666666666,598.8380504452788 585.625,646.020138202401 598.3333333333334,690.5329571484601 611.0416666666666,665.1801428899881 623.75,663.1387588895726 636.4583333333334,610.875272474231 649.1666666666666,608.8792212645149 661.875,491.7144944191905 674.5833333333334,479.4731409639309 687.2916666666666,463.9736112657275 700.0,468.57059694478187 712.7083333333333,447.0715023490182 725.4166666666667,473.44355005003115 738.125,493.59096803923313 750.8333333333333,479.5621439003554 763.5416666666667,469.4953367229306 776.25,378.32894985489065 788.9583333333333,296.2669105375351 801.6666666666667,290.37821045529523 814.375,308.1562271419994 827.0833333333333,244.55893137190412 839.7916666666667,243.51130978107506 852.5,258.3489535932892 865.2083333333333,267.23203313598214 877.9166666666667,258.05056946547376 890.625,226.2826356729248 903.3333333333333,264.9427029786935 916.0416666666667,257.8643664398717 928.75,178.20057680122727 941.4583333333333,251.48000820194136 954.1666666666667,292.27763895122786 966.875,266.94851636103346 979.5833333333333,341.8591513181293 992.2916666666667,347.3873038013476 1005.0,448.0686125676754 1017.7083333333333,468.94640991148833 1030.4166666666667,491.8632895127895 1043.125,442.0549574251363 1055.8333333333333,473.7126963989549 1068.5416666666667,461.61024823103463 1081.25,474.4040330710895 1093.9583333333333,419.9595252807728 1106.6666666666667,443.24056347176855 1119.375,428.4877985755091 1132.0833333333333,470.5968419459536 1144.7916666666667,565.1982013154753 1157.5,621.7419979361954 1170.2083333333333,638.3347097255833 1182.9166666666667,670.0192021705506 1195.625,634.2595218886036 1208.3333333333333,639.8280663800855 1221.0416666666667,573.2863141704934 1233.75,611.3291697730347 1246.4583333333333,641.1175065195849 1259.1666666666667,623.6647355856655 1271.875,572.3438226334215 1284.5833333333333,573.6562018675045 1297.2916666666667,569.605628616387 1310.0,555.7178424140975" fill="none" stroke="#0f766e" stroke-width="2.5"><title>static_50_50_rebalance | end=2026-05-04 | return=5.51%</title></polyline>
<polyline points="90.0,591.7615421051045 102.70833333333333,611.5346434604543 115.41666666666666,557.24716799834 128.125,551.9739769879923 140.83333333333331,560.6534622899071 153.54166666666669,645.3220073585838 166.25,599.365274900757 178.95833333333334,607.1134141100567 191.66666666666666,587.0177465125985 204.375,619.498611017244 217.08333333333334,648.6648104319398 229.79166666666666,650.4430352805324 242.5,586.4397900457852 255.20833333333331,591.7566793280486 267.9166666666667,617.2129395872262 280.625,575.5915698803899 293.3333333333333,566.215973576228 306.0416666666667,569.0095630023459 318.75,596.9309486160396 331.4583333333333,405.68720479338504 344.1666666666667,416.873727300498 356.875,392.81585144234884 369.5833333333333,367.73481607314807 382.2916666666667,360.1754195356025 395.0,327.34178731978307 407.70833333333337,377.4175017877735 420.41666666666663,385.8941463993948 433.125,341.16675980774045 445.83333333333337,388.9024557756713 458.54166666666663,361.9031741631868 471.25,369.0055381752391 483.95833333333337,392.19153790088444 496.66666666666663,426.1667114416904 509.375,419.9985603424329 522.0833333333334,462.86772881661307 534.7916666666666,529.6307935191762 547.5,593.0275059182921 560.2083333333334,565.8482010938056 572.9166666666666,529.4540916946455 585.625,586.3420340057912 598.3333333333334,641.2181468016557 611.0416666666666,610.7803826403937 623.75,608.5442271305562 636.4583333333334,544.4492000515751 649.1666666666666,541.7062409985017 661.875,396.36808464806825 674.5833333333334,383.2549871706499 687.2916666666666,367.1578675035568 700.0,368.9031399730425 712.7083333333333,345.56269674383793 725.4166666666667,371.39143346642135 738.125,394.4029146916744 750.8333333333333,378.36162468791906 763.5416666666667,366.38640771072653 776.25,258.7542530611598 788.9583333333333,169.31835643009208 801.6666666666667,164.6573952187515 814.375,176.49917767801423 827.0833333333333,136.23209527868767 839.7916666666667,135.4198953543314 852.5,143.72447771874295 865.2083333333333,148.74895128541425 877.9166666666667,143.6020120491903 890.625,125.79692052956455 903.3333333333333,147.2538917288863 916.0416666666667,143.30965886459182 928.75,98.88276945416135 941.4583333333333,139.0034240491724 954.1666666666667,161.52567112479437 966.875,144.61058189143785 979.5833333333333,190.69468634989073 992.2916666666667,195.44870533559958 1005.0,298.1715092815676 1017.7083333333333,323.4168627174274 1030.4166666666667,351.98030356822534 1043.125,287.6796015823058 1055.8333333333333,329.4381480476549 1068.5416666666667,313.35767245339287 1081.25,330.39879314798054 1093.9583333333333,257.7938767524835 1106.6666666666667,288.98098184704526 1119.375,269.2076443868091 1132.0833333333333,325.7278766976601 1144.7916666666667,452.36693377245405 1157.5,527.2750210118546 1170.2083333333333,549.0021043817273 1182.9166666666667,590.1863516487529 1195.625,544.0499634672433 1208.3333333333333,551.2360152173854 1221.0416666666667,465.40146761245944 1233.75,514.7634032707499 1246.4583333333333,553.3944333007304 1259.1666666666667,530.8376747551047 1271.875,464.50018496260674 1284.5833333333333,466.2037493427183 1297.2916666666667,460.9307554521717 1310.0,442.82494366018153" fill="none" stroke="#dc2626" stroke-width="2.5"><title>target_50_50_with_cash_band | end=2026-05-04 | return=22.76%</title></polyline>
<polyline points="90.0,591.7615421051045 102.70833333333333,614.770241864057 115.41666666666666,564.425422189216 128.125,558.18320448818 140.83333333333331,569.2862630186507 153.54166666666669,682.5138447916951 166.25,634.5889786381938 178.95833333333334,642.0707279435746 191.66666666666666,622.8758875723865 204.375,653.5560598996445 217.08333333333334,680.9728899466294 229.79166666666666,682.5794915339092 242.5,622.3848177592206 255.20833333333331,627.3896692728084 267.9166666666667,651.4105705627164 280.625,612.1108742344279 293.3333333333333,603.1078174736994 306.0416666666667,605.2716631905047 318.75,631.7733136265248 331.4583333333333,449.871455531973 344.1666666666667,462.21808968153357 356.875,432.38043372295783 369.5833333333333,399.4088864992759 382.2916666666667,388.46369235826296 395.0,338.40582110246345 407.70833333333337,417.5817544958688 420.41666666666663,429.80945080098917 433.125,367.47426818564054 445.83333333333337,438.92316991291455 458.54166666666663,400.8968809298725 471.25,410.6956710395486 483.95833333333337,442.5138979884426 496.66666666666663,479.63588829381814 509.375,474.12785932921145 522.0833333333334,515.2389138374597 534.7916666666666,577.9317178929534 547.5,637.0784971021795 560.2083333333334,612.1310573146345 572.9166666666666,578.6780231023855 585.625,631.4224765508199 598.3333333333334,682.124017254995 611.0416666666666,654.070332402194 623.75,651.9618005829637 636.4583333333334,592.6860374343959 649.1666666666666,590.2002045496179 661.875,455.14240158788897 674.5833333333334,442.7460496884514 687.2916666666666,427.5726147740245 700.0,429.2306955963558 712.7083333333333,407.36082953428576 725.4166666666667,436.00497705892917 738.125,459.0977216073081 750.8333333333333,443.68863355812846 763.5416666666667,432.4240912732628 776.25,331.980014775816 788.9583333333333,233.45387683677495 801.6666666666667,227.44727217039122 814.375,244.13647196215783 827.0833333333333,184.20005795404325 839.7916666666667,182.691138592779 852.5,195.11740533073475 865.2083333333333,202.9583296667949 877.9166666666667,195.114815560946 890.625,167.42978011304842 903.3333333333333,201.03573908719034 916.0416666666667,194.92037778977817 928.75,126.0332375212289 941.4583333333333,189.15114548045665 954.1666666666667,224.2885253287456 966.875,200.36181412506784 979.5833333333333,268.7836682235329 992.2916666666667,274.04696713405036 1005.0,375.66543965085225 1017.7083333333333,399.10079211079704 1030.4166666666667,424.95643444280375 1043.125,366.9421035666673 1055.8333333333333,404.8562418320954 1068.5416666666667,390.20443660327686 1081.25,405.7480187553638 1093.9583333333333,339.3960475755156 1106.6666666666667,367.9579359345254 1119.375,349.84038533385507 1132.0833333333333,401.6745761366273 1144.7916666666667,517.712592801978 1157.5,586.2798275758325 1170.2083333333333,606.0754940481439 1182.9166666666667,643.714405087678 1195.625,601.5629280636201 1208.3333333333333,608.1341806556486 1221.0416666666667,529.5061945984586 1233.75,574.8530965375346 1246.4583333333333,610.3143582948896 1259.1666666666667,589.621678981049 1271.875,528.7445905405483 1284.5833333333333,530.3471982387147 1297.2916666666667,525.5084504787586 1310.0,508.8718321061896" fill="none" stroke="#2563eb" stroke-width="2.5"><title>narrow_cash_band_rebalance | end=2026-05-04 | return=12.67%</title></polyline>
<polyline points="90.0,591.7615421051045 102.70833333333333,616.065060418616 115.41666666666666,564.1786972189818 128.125,558.3448367128058 140.83333333333331,569.451590415051 153.54166666666669,679.9522641702006 166.25,632.9285840292989 178.95833333333334,641.1929318340626 191.66666666666666,624.2544020975989 204.375,653.2135270415574 217.08333333333334,680.8247750987126 229.79166666666666,684.5003822691554 242.5,624.4785865075136 255.20833333333331,630.1444104760142 267.9166666666667,655.7395961699344 280.625,617.5209310721791 293.3333333333333,608.9365814127427 306.0416666666667,613.8581425817449 318.75,642.2169863188578 331.4583333333333,451.4530051289922 344.1666666666667,467.003568505982 356.875,436.4762515942539 369.5833333333333,403.6731488067776 382.2916666666667,393.4110258604978 395.0,347.9236777415007 407.70833333333337,420.50592706680834 420.41666666666663,431.80692231805256 433.125,373.4432388719 445.83333333333337,440.4247253357658 458.54166666666663,405.7678039289657 471.25,416.0142265675289 483.95833333333337,449.76672787059493 496.66666666666663,487.82232069240274 509.375,480.66882730339245 522.0833333333334,524.1841492089548 534.7916666666666,591.228558351947 547.5,653.8121242173319 560.2083333333334,629.4186063460899 572.9166666666666,592.1254098908473 585.625,650.5236038082774 598.3333333333334,710.0 611.0416666666666,683.2644371118871 623.75,686.7699455133125 636.4583333333334,622.3652624849711 649.1666666666666,618.4365537819448 661.875,448.8300897264198 674.5833333333334,436.3115236524451 687.2916666666666,421.39262531400084 700.0,420.19505929002895 712.7083333333333,397.3395214163882 725.4166666666667,429.54659341149966 738.125,456.586280852982 750.8333333333333,439.40027537412914 763.5416666666667,426.71694666928903 776.25,315.3274222627758 788.9583333333333,196.3177627445598 801.6666666666667,190.1542495688717 814.375,206.25783562995133 827.0833333333333,146.81064212221656 839.7916666666667,145.0341551920036 852.5,156.35853846712234 865.2083333333333,163.849949868537 877.9166666666667,156.31218845986143 890.625,129.8208737774106 903.3333333333333,161.91529062222025 916.0416666666667,156.14176672862413 928.75,90.0 941.4583333333333,150.40373629003705 954.1666666666667,184.25054159488525 966.875,160.83278888117047 979.5833333333333,227.98508580407548 992.2916666666667,233.78360985056185 1005.0,345.3849619349382 1017.7083333333333,368.62772888114523 1030.4166666666667,396.46327778704847 1043.125,335.29758297907176 1055.8333333333333,373.21385614740615 1068.5416666666667,359.07411901522335 1081.25,374.667485437399 1093.9583333333333,308.71795243756674 1106.6666666666667,337.1719171805998 1119.375,318.88461337900594 1132.0833333333333,370.7996887540873 1144.7916666666667,487.4403984955711 1157.5,557.9437015644596 1170.2083333333333,580.3325390645133 1182.9166666666667,621.3709293358314 1195.625,574.4475172573884 1208.3333333333333,582.1107360768725 1221.0416666666667,492.2700452883296 1233.75,543.789908904902 1246.4583333333333,582.9487823245236 1259.1666666666667,559.7853742916816 1271.875,490.9421663073176 1284.5833333333333,494.41698856010566 1297.2916666666667,490.1204337541195 1310.0,472.3516118418919" fill="none" stroke="#7c3aed" stroke-width="2.5"><title>drawdown_tilt_rebalance | end=2026-05-04 | return=18.25%</title></polyline>
<polyline points="90.0,591.7615421051045 102.70833333333333,616.2082855989916 115.41666666666666,570.7556945245682 128.125,563.3115538758451 140.83333333333331,574.9546840901592 153.54166666666669,694.6996081880286 166.25,649.8987311377601 178.95833333333334,655.5049046072849 191.66666666666666,637.5702713949771 204.375,663.6112173858379 217.08333333333334,685.0101425401435 229.79166666666666,684.4392806112563 242.5,636.9077563436754 255.20833333333331,640.2695187877065 267.9166666666667,657.6488510416307 280.625,626.2443318371154 293.3333333333333,617.7444424039298 306.0416666666667,613.549388212687 318.75,636.7468857362951 331.4583333333333,459.70886130338295 344.1666666666667,465.2334442794986 356.875,437.2715896142885 369.5833333333333,405.7853853291713 382.2916666666667,393.7138456434241 395.0,332.75664321280686 407.70833333333337,427.9024607527244 420.41666666666663,442.3719757481293 433.125,372.834088345261 445.83333333333337,451.4839683151789 458.54166666666663,406.28577265844785 471.25,414.95923571500197 483.95833333333337,443.2258969828832 496.66666666666663,479.78044648074047 509.375,478.9532069597902 522.0833333333334,518.0702294452296 534.7916666666666,574.8842020976283 547.5,633.9426958490833 560.2083333333334,606.8570642821211 572.9166666666666,578.5389727071328 585.625,624.0841777079767 598.3333333333334,664.0671552774432 611.0416666666666,637.4259320888875 623.75,632.3395894162443 636.4583333333334,582.8221152973873 649.1666666666666,581.5377628158456 661.875,472.4063447866549 674.5833333333334,458.4613834476784 687.2916666666666,440.3029437476008 700.0,448.6206998355304 712.7083333333333,424.34806763894306 725.4166666666667,452.33750446744256 738.125,472.3917923799303 750.8333333333333,457.8277475101444 763.5416666666667,447.59493455852305 776.25,353.1223304749581 788.9583333333333,275.13065505466443 801.6666666666667,268.83870863756243 814.375,288.21232415885464 827.0833333333333,219.58623012057933 839.7916666666667,218.4476181556508 852.5,234.46280667431887 865.2083333333333,244.16666220816364 877.9166666666667,234.2730631121717 890.625,199.64920237711618 903.3333333333333,241.88086047164649 916.0416666666667,234.17879310051234 928.75,147.506706873334 941.4583333333333,227.52431567402033 954.1666666666667,271.9612951758252 966.875,244.4550261387356 979.5833333333333,325.77875427008 992.2916666666667,331.7515791472328 1005.0,440.47834956842013 1017.7083333333333,462.24200158368666 1030.4166666666667,483.7210494246301 1043.125,438.4066916915235 1055.8333333333333,468.4476457108957 1068.5416666666667,456.39441019190053 1081.25,468.07447452398355 1093.9583333333333,417.718293351607 1106.6666666666667,438.92756698658764 1119.375,425.94347123861604 1132.0833333333333,463.47585306325595 1144.7916666666667,547.6171547186043 1157.5,601.8580687248893 1170.2083333333333,616.1231594459043 1182.9166666666667,646.1098846014419 1195.625,612.8503350630616 1208.3333333333333,617.6936696191956 1221.0416666666667,557.3361307994418 1233.75,592.3011172674924 1246.4583333333333,621.0323058072605 1259.1666666666667,604.6045940721606 1271.875,557.1454746961066 1284.5833333333333,556.2098575429187 1297.2916666666667,551.01784645824 1310.0,536.8953128938113" fill="none" stroke="#b45309" stroke-width="2.5"><title>btc_defensive_eth_aggressive | end=2026-05-04 | return=8.38%</title></polyline>
</svg>