<svg xmlns="http://www.w3.org/2000/svg" width="1400" height="800">
<rect width="1400" height="800" fill="#f8fafc"/>
<text x="700.0" y="42" text-anchor="middle" font-family="monospace" font-size="24" fill="#0f172a">static_50_50_rebalance | weekly | start=2025-01-01 | return=-17.07%</text>
<line x1="90" y1="420" x2="1310" y2="420" stroke="#334155" stroke-width="2"/>
<line x1="90" y1="90" x2="90" y2="420" stroke="#334155" stroke-width="2"/>
<line x1="90.0" y1="420" x2="90.0" y2="90" stroke="#94a3b8" stroke-width="1.2"/>
<line x1="90.0" y1="605" x2="90.0" y2="480" stroke="#94a3b8" stroke-width="1.2"/>
<line x1="90.0" y1="770" x2="90.0" y2="645" stroke="#94a3b8" stroke-width="1.2"/>
<text x="90.0" y="788" text-anchor="middle" font-family="monospace" font-size="11" fill="#334155">2025-01</text>
<line x1="178.40579710144928" y1="420" x2="178.40579710144928" y2="90" stroke="#94a3b8" stroke-width="1.2"/>
<line x1="178.40579710144928" y1="605" x2="178.40579710144928" y2="480" stroke="#94a3b8" stroke-width="1.2"/>
<line x1="178.40579710144928" y1="770" x2="178.40579710144928" y2="645" stroke="#94a3b8" stroke-width="1.2"/>
<text x="178.40579710144928" y="788" text-anchor="middle" font-family="monospace" font-size="11" fill="#334155">2025-02</text>
<line x1="249.1304347826087" y1="420" x2="249.1304347826087" y2="90" stroke="#94a3b8" stroke-width="1.2"/>
<line x1="249.1304347826087" y1="605" x2="249.1304347826087" y2="480" stroke="#94a3b8" stroke-width="1.2"/>
<line x1="249.1304347826087" y1="770" x2="249.1304347826087" y2="645" stroke="#94a3b8" stroke-width="1.2"/>
<text x="249.1304347826087" y="788" text-anchor="middle" font-family="monospace" font-size="11" fill="#334155">2025-03</text>
<line x1="319.8550724637681" y1="420" x2="319.8550724637681" y2="90" stroke="#94a3b8" stroke-width="1.2"/>
<line x1="319.8550724637681" y1="605" x2="319.8550724637681" y2="480" stroke="#94a3b8" stroke-width="1.2"/>
<line x1="319.8550724637681" y1="770" x2="319.8550724637681" y2="645" stroke="#94a3b8" stroke-width="1.2"/>
<text x="319.8550724637681" y="788" text-anchor="middle" font-family="monospace" font-size="11" fill="#334155">2025-04</text>
<line x1="408.2608695652174" y1="420" x2="408.2608695652174" y2="90" stroke="#94a3b8" stroke-width="1.2"/>
<line x1="408.2608695652174" y1="605" x2="408.2608695652174" y2="480" stroke="#94a3b8" stroke-width="1.2"/>
<line x1="408.2608695652174" y1="770" x2="408.2608695652174" y2="645" stroke="#94a3b8" stroke-width="1.2"/>
<text x="408.2608695652174" y="788" text-anchor="middle" font-family="monospace" font-size="11" fill="#334155">2025-05</text>
<line x1="478.98550724637676" y1="420" x2="478.98550724637676" y2="90" stroke="#94a3b8" stroke-width="1.2"/>
<line x1="478.98550724637676" y1="605" x2="478.98550724637676" y2="480" stroke="#94a3b8" stroke-width="1.2"/>
<line x1="478.98550724637676" y1="770" x2="478.98550724637676" y2="645" stroke="#94a3b8" stroke-width="1.2"/>
<text x="478.98550724637676" y="788" text-anchor="middle" font-family="monospace" font-size="11" fill="#334155">2025-06</text>
<line x1="549.7101449275362" y1="420" x2="549.7101449275362" y2="90" stroke="#94a3b8" stroke-width="1.2"/>
<line x1="549.7101449275362" y1="605" x2="549.7101449275362" y2="480" stroke="#94a3b8" stroke-width="1.2"/>
<line x1="549.7101449275362" y1="770" x2="549.7101449275362" y2="645" stroke="#94a3b8" stroke-width="1.2"/>
<text x="549.7101449275362" y="788" text-anchor="middle" font-family="monospace" font-size="11" fill="#334155">2025-07</text>
<line x1="638.1159420289855" y1="420" x2="638.1159420289855" y2="90" stroke="#94a3b8" stroke-width="1.2"/>
<line x1="638.1159420289855" y1="605" x2="638.1159420289855" y2="480" stroke="#94a3b8" stroke-width="1.2"/>
<line x1="638.1159420289855" y1="770" x2="638.1159420289855" y2="645" stroke="#94a3b8" stroke-width="1.2"/>
<text x="638.1159420289855" y="788" text-anchor="middle" font-family="monospace" font-size="11" fill="#334155">2025-08</text>
<line x1="708.840579710145" y1="420" x2="708.840579710145" y2="90" stroke="#94a3b8" stroke-width="1.2"/>
<line x1="708.840579710145" y1="605" x2="708.840579710145" y2="480" stroke="#94a3b8" stroke-width="1.2"/>
<line x1="708.840579710145" y1="770" x2="708.840579710145" y2="645" stroke="#94a3b8" stroke-width="1.2"/>
<text x="708.840579710145" y="788" text-anchor="middle" font-family="monospace" font-size="11" fill="#334155">2025-09</text>
<line x1="779.5652173913043" y1="420" x2="779.5652173913043" y2="90" stroke="#94a3b8" stroke-width="1.2"/>
<line x1="779.5652173913043" y1="605" x2="779.5652173913043" y2="480" stroke="#94a3b8" stroke-width="1.2"/>
<line x1="779.5652173913043" y1="770" x2="779.5652173913043" y2="645" stroke="#94a3b8" stroke-width="1.2"/>
<text x="779.5652173913043" y="788" text-anchor="middle" font-family="monospace" font-size="11" fill="#334155">2025-10</text>
<line x1="867.9710144927535" y1="420" x2="867.9710144927535" y2="90" stroke="#94a3b8" stroke-width="1.2"/>
<line x1="867.9710144927535" y1="605" x2="867.9710144927535" y2="480" stroke="#94a3b8" stroke-width="1.2"/>
<line x1="867.9710144927535" y1="770" x2="867.9710144927535" y2="645" stroke="#94a3b8" stroke-width="1.2"/>
<text x="867.9710144927535" y="788" text-anchor="middle" font-family="monospace" font-size="11" fill="#334155">2025-11</text>
<line x1="938.695652173913" y1="420" x2="938.695652173913" y2="90" stroke="#94a3b8" stroke-width="1.2"/>
<line x1="938.695652173913" y1="605" x2="938.695652173913" y2="480" stroke="#94a3b8" stroke-width="1.2"/>
<line x1="938.695652173913" y1="770" x2="938.695652173913" y2="645" stroke="#94a3b8" stroke-width="1.2"/>
<text x="938.695652173913" y="788" text-anchor="middle" font-family="monospace" font-size="11" fill="#334155">2025-12</text>
<line x1="1027.1014492753623" y1="420" x2="1027.1014492753623" y2="90" stroke="#94a3b8" stroke-width="1.2"/>
<line x1="1027.1014492753623" y1="605" x2="1027.1014492753623" y2="480" stroke="#94a3b8" stroke-width="1.2"/>
<line x1="1027.1014492753623" y1="770" x2="1027.1014492753623" y2="645" stroke="#94a3b8" stroke-width="1.2"/>
<text x="1027.1014492753623" y="788" text-anchor="middle" font-family="monospace" font-size="11" fill="#334155">2026-01</text>
<line x1="1097.8260869565217" y1="420" x2="1097.8260869565217" y2="90" stroke="#94a3b8" stroke-width="1.2"/>
<line x1="1097.8260869565217" y1="605" x2="1097.8260869565217" y2="480" stroke="#94a3b8" stroke-width="1.2"/>
<line x1="1097.8260869565217" y1="770" x2="1097.8260869565217" y2="645" stroke="#94a3b8" stroke-width="1.2"/>
<text x="1097.8260869565217" y="788" text-anchor="middle" font-family="monospace" font-size="11" fill="#334155">2026-02</text>
<line x1="1168.5507246376812" y1="420" x2="1168.5507246376812" y2="90" stroke="#94a3b8" stroke-width="1.2"/>
<line x1="1168.5507246376812" y1="605" x2="1168.5507246376812" y2="480" stroke="#94a3b8" stroke-width="1.2"/>
<line x1="1168.5507246376812" y1="770" x2="1168.5507246376812" y2="645" stroke="#94a3b8" stroke-width="1.2"/>
<text x="1168.5507246376812" y="788" text-anchor="middle" font-family="monospace" font-size="11" fill="#334155">2026-03</text>
<line x1="1239.2753623188405" y1="420" x2="1239.2753623188405" y2="90" stroke="#94a3b8" stroke-width="1.2"/>
<line x1="1239.2753623188405" y1="605" x2="1239.2753623188405" y2="480" stroke="#94a3b8" stroke-width="1.2"/>
<line x1="1239.2753623188405" y1="770" x2="1239.2753623188405" y2="645" stroke="#94a3b8" stroke-width="1.2"/>
<text x="1239.2753623188405" y="788" text-anchor="middle" font-family="monospace" font-size="11" fill="#334155">2026-04</text>
<line x1="90" y1="420.0" x2="1310" y2="420.0" stroke="#cbd5e1" stroke-width="1"/>
<text x="78" y="424.0" text-anchor="end" font-family="monospace" font-size="12" fill="#475569">0</text>
<line x1="90" y1="354.0" x2="1310" y2="354.0" stroke="#cbd5e1" stroke-width="1"/>
<text x="78" y="358.0" text-anchor="end" font-family="monospace" font-size="12" fill="#475569">2663</text>
<line x1="90" y1="288.0" x2="1310" y2="288.0" stroke="#cbd5e1" stroke-width="1"/>
<text x="78" y="292.0" text-anchor="end" font-family="monospace" font-size="12" fill="#475569">5326</text>
<line x1="90" y1="222.0" x2="1310" y2="222.0" stroke="#cbd5e1" stroke-width="1"/>
<text x="78" y="226.0" text-anchor="end" font-family="monospace" font-size="12" fill="#475569">7989</text>
<line x1="90" y1="156.0" x2="1310" y2="156.0" stroke="#cbd5e1" stroke-width="1"/>
<text x="78" y="160.0" text-anchor="end" font-family="monospace" font-size="12" fill="#475569">10652</text>
<line x1="90" y1="90.00000000000006" x2="1310" y2="90.00000000000006" stroke="#cbd5e1" stroke-width="1"/>
<text x="78" y="94.00000000000006" text-anchor="end" font-family="monospace" font-size="12" fill="#475569">13315</text>
<polygon points="90.0,271.29850989947874 107.68115942028986,320.87133219501163 125.36231884057972,344.94934171269927 143.04347826086956,357.2492521557536 160.72463768115944,363.7548333352612 178.40579710144928,368.66601565128565 196.08695652173913,371.1627389436484 213.768115942029,372.6045389321248 231.44927536231884,375.7901294758845 249.1304347826087,377.0706713919492 266.81159420289856,379.55568582383006 284.4927536231884,379.9377497466244 302.17391304347825,380.3050330639486 319.8550724637681,381.72424557209126 337.536231884058,382.9243869679145 355.2173913043478,383.77853426212545 372.8985507246377,382.423574673439 390.57971014492756,381.71789252874464 408.2608695652174,381.04805399482154 425.94202898550725,376.6969560190124 443.6231884057971,374.2182124094422 461.304347826087,372.63594763730134 478.98550724637676,372.3940535650281 496.66666666666663,371.3120317115949 514.3478260869565,372.0146485857156 532.0289855072464,372.53112840413723 549.7101449275362,372.08451202560633 567.3913043478261,370.8980309310028 585.072463768116,367.4072162605863 602.7536231884058,364.74596951928265 620.4347826086956,362.9044717104812 638.1159420289855,362.66476160383894 655.7971014492754,358.3323808019195 673.4782608695652,358.33661336439565 691.1594202898551,358.161043350311 708.840579710145,358.1731218466508 726.5217391304348,358.22228557709934 744.2028985507247,357.29136334427045 761.8840579710145,358.393586298864 779.5652173913043,357.8101205610062 797.2463768115942,356.51050589393594 814.927536231884,358.73643444402427 832.608695652174,360.7199283684099 850.2898550724638,361.16090310343924 867.9710144927535,363.46615522113746 885.6521739130435,364.88389388754587 903.3333333333333,367.8820089086134 921.0144927536232,369.4761657957573 938.695652173913,369.42911630402807 956.376811594203,369.1270704949035 974.0579710144928,371.15849914126545 991.7391304347825,371.6583583222334 1009.4202898550725,371.849999380819 1027.1014492753623,370.88931971382016 1044.7826086956522,369.18216841130806 1062.463768115942,370.3432008085098 1080.144927536232,370.8603164261198 1097.8260869565217,375.6589183767899 1115.5072463768115,379.41244363108643 1133.1884057971015,381.29888888907414 1150.8695652173913,381.6893501291324 1168.5507246376812,381.1068461476742 1186.231884057971,381.3660673050374 1203.9130434782608,380.81951332092547 1221.5942028985507,380.6699950396201 1239.2753623188405,381.0494843617541 1256.9565217391305,380.72481666421555 1274.6376811594203,379.5265635996742 1292.3188405797102,378.4991062668171 1310.0,378.6973125984221 1310.0,420.0 1292.3188405797102,420.0 1274.6376811594203,420.0 1256.9565217391305,420.0 1239.2753623188405,420.0 1221.5942028985507,420.0 1203.9130434782608,420.0 1186.231884057971,420.0 1168.5507246376812,420.0 1150.8695652173913,420.0 1133.1884057971015,420.0 1115.5072463768115,420.0 1097.8260869565217,420.0 1080.144927536232,420.0 1062.463768115942,420.0 1044.7826086956522,420.0 1027.1014492753623,420.0 1009.4202898550725,420.0 991.7391304347825,420.0 974.0579710144928,420.0 956.376811594203,420.0 938.695652173913,420.0 921.0144927536232,420.0 903.3333333333333,420.0 885.6521739130435,420.0 867.9710144927535,420.0 850.2898550724638,420.0 832.608695652174,420.0 814.927536231884,420.0 797.2463768115942,420.0 779.5652173913043,420.0 761.8840579710145,420.0 744.2028985507247,420.0 726.5217391304348,420.0 708.840579710145,420.0 691.1594202898551,420.0 673.4782608695652,420.0 655.7971014492754,420.0 638.1159420289855,420.0 620.4347826086956,420.0 602.7536231884058,420.0 585.072463768116,420.0 567.3913043478261,420.0 549.7101449275362,420.0 532.0289855072464,420.0 514.3478260869565,420.0 496.66666666666663,420.0 478.98550724637676,420.0 461.304347826087,420.0 443.6231884057971,420.0 425.94202898550725,420.0 408.2608695652174,420.0 390.57971014492756,420.0 372.8985507246377,420.0 355.2173913043478,420.0 337.536231884058,420.0 319.8550724637681,420.0 302.17391304347825,420.0 284.4927536231884,420.0 266.81159420289856,420.0 249.1304347826087,420.0 231.44927536231884,420.0 213.768115942029,420.0 196.08695652173913,420.0 178.40579710144928,420.0 160.72463768115944,420.0 143.04347826086956,420.0 125.36231884057972,420.0 107.68115942028986,420.0 90.0,420.0" fill="#facc15" fill-opacity="0.70" stroke="#facc15" stroke-width="1.2"/>
<polygon points="90.0,221.7313465326383 107.68115942028986,246.73167723171818 125.36231884057972,255.51057148671822 143.04347826086956,264.80281304867844 160.72463768115944,269.60767310916503 178.40579710144928,280.0935672024689 196.08695652173913,281.3256735691152 213.768115942029,282.1146787094641 231.44927536231884,295.8919051715293 249.1304347826087,297.0379068855962 266.81159420289856,307.5355186397552 284.4927536231884,301.43281483835085 302.17391304347825,302.62821578265067 319.8550724637681,310.1846174575454 337.536231884058,313.7790220283792 355.2173913043478,315.74396913033445 372.8985507246377,304.75924098864476 390.57971014492756,303.94399186095325 408.2608695652174,302.1586419813211 425.94202898550725,272.1996249841909 443.6231884057971,274.88156869365787 461.304347826087,271.4825450528398 478.98550724637676,275.34774837240985 496.66666666666663,269.9814843495664 514.3478260869565,278.5778104409548 532.0289855072464,280.8109725790561 549.7101449275362,275.00016092844066 567.3913043478261,268.31600786376384 585.072463768116,248.86103465096326 602.7536231884058,243.03768390374483 620.4347826086956,240.09434834842378 638.1159420289855,245.72554907363372 655.7971014492754,216.91677860191288 673.4782608695652,232.14613296881816 691.1594202898551,230.56990082008923 708.840579710145,233.33490247103364 726.5217391304348,235.51019181979066 744.2028985507247,228.87998887071203 761.8840579710145,239.81140536187635 779.5652173913043,232.9392104680537 797.2463768115942,226.74892586864968 814.927536231884,242.55345769941522 832.608695652174,247.97469554799105 850.2898550724638,244.93749719133257 867.9710144927535,258.2749892711555 885.6521739130435,258.74094556664795 903.3333333333333,271.7681217387667 921.0144927536232,272.4366092905008 938.695652173913,267.6724145102627 956.376811594203,264.91677489340543 974.0579710144928,279.96529393761125 991.7391304347825,276.40367568435863 1009.4202898550725,275.912236505981 1027.1014492753623,269.6348120905444 1044.7826086956522,263.0044253729113 1062.463768115942,274.6962898161411 1080.144927536232,273.9878366665994 1097.8260869565217,301.57864785441194 1115.5072463768115,309.06539902387857 1133.1884057971015,309.0285073235531 1150.8695652173913,305.7357276920539 1168.5507246376812,302.36431236116806 1186.231884057971,305.0146201431089 1203.9130434782608,300.10377165203926 1221.5942028985507,301.48262153827363 1239.2753623188405,303.39193311429653 1256.9565217391305,301.38852036518705 1274.6376811594203,295.10128068306506 1292.3188405797102,293.4968552947448 1310.0,297.29906406126514 1310.0,378.6973125984221 1292.3188405797102,378.4991062668171 1274.6376811594203,379.5265635996742 1256.9565217391305,380.72481666421555 1239.2753623188405,381.0494843617541 1221.5942028985507,380.6699950396201 1203.9130434782608,380.81951332092547 1186.231884057971,381.3660673050374 1168.5507246376812,381.1068461476742 1150.8695652173913,381.6893501291324 1133.1884057971015,381.29888888907414 1115.5072463768115,379.41244363108643 1097.8260869565217,375.6589183767899 1080.144927536232,370.8603164261198 1062.463768115942,370.3432008085098 1044.7826086956522,369.18216841130806 1027.1014492753623,370.88931971382016 1009.4202898550725,371.849999380819 991.7391304347825,371.6583583222334 974.0579710144928,371.15849914126545 956.376811594203,369.1270704949035 938.695652173913,369.42911630402807 921.0144927536232,369.4761657957573 903.3333333333333,367.8820089086134 885.6521739130435,364.88389388754587 867.9710144927535,363.46615522113746 850.2898550724638,361.16090310343924 832.608695652174,360.7199283684099 814.927536231884,358.73643444402427 797.2463768115942,356.51050589393594 779.5652173913043,357.8101205610062 761.8840579710145,358.393586298864 744.2028985507247,357.29136334427045 726.5217391304348,358.22228557709934 708.840579710145,358.1731218466508 691.1594202898551,358.161043350311 673.4782608695652,358.33661336439565 655.7971014492754,358.3323808019195 638.1159420289855,362.66476160383894 620.4347826086956,362.9044717104812 602.7536231884058,364.74596951928265 585.072463768116,367.4072162605863 567.3913043478261,370.8980309310028 549.7101449275362,372.08451202560633 532.0289855072464,372.53112840413723 514.3478260869565,372.0146485857156 496.66666666666663,371.3120317115949 478.98550724637676,372.3940535650281 461.304347826087,372.63594763730134 443.6231884057971,374.2182124094422 425.94202898550725,376.6969560190124 408.2608695652174,381.04805399482154 390.57971014492756,381.71789252874464 372.8985507246377,382.423574673439 355.2173913043478,383.77853426212545 337.536231884058,382.9243869679145 319.8550724637681,381.72424557209126 302.17391304347825,380.3050330639486 284.4927536231884,379.9377497466244 266.81159420289856,379.55568582383006 249.1304347826087,377.0706713919492 231.44927536231884,375.7901294758845 213.768115942029,372.6045389321248 196.08695652173913,371.1627389436484 178.40579710144928,368.66601565128565 160.72463768115944,363.7548333352612 143.04347826086956,357.2492521557536 125.36231884057972,344.94934171269927 107.68115942028986,320.87133219501163 90.0,271.29850989947874" fill="#2563eb" fill-opacity="0.70" stroke="#2563eb" stroke-width="1.2"/>
<polygon points="90.0,172.16418316579788 107.68115942028986,172.2207724527224 125.36231884057972,165.13675615193463 143.04347826086956,167.74581299403957 160.72463768115944,171.30207257384404 178.40579710144928,187.88598983655072 196.08695652173913,188.29731118005515 213.768115942029,190.23169460300628 231.44927536231884,214.87860009822097 249.1304347826087,211.75606654006916 266.81159420289856,230.20350127855454 284.4927536231884,221.59906834709375 302.17391304347825,223.36158190636405 319.8550724637681,235.7172904011695 337.536231884058,240.62264181868835 355.2173913043478,243.163407781682 372.8985507246377,225.34307542376283 390.57971014492756,225.06105192025146 408.2608695652174,221.89107730449226 425.94202898550725,181.72929021601638 443.6231884057971,178.69734399935962 461.304347826087,175.26841432580247 478.98550724637676,180.7607974637745 496.66666666666663,171.1500492908083 514.3478260869565,183.58632729918122 532.0289855072464,185.23804111279483 549.7101449275362,178.18947823537707 567.3913043478261,168.557749181996 585.072463768116,139.58200795084952 602.7536231884058,130.42361388989502 620.4347826086956,125.31486950839803 638.1159420289855,132.12525748598375 655.7971014492754,90.00000000000006 673.4782608695652,111.70422963435931 691.1594202898551,109.92736668113156 708.840579710145,110.92600171495332 726.5217391304348,111.35724653773946 744.2028985507247,101.80220555720786 761.8840579710145,117.47904626728803 779.5652173913043,106.13327411574215 797.2463768115942,96.05445613432829 814.927536231884,124.8118149705632 832.608695652174,133.51711146397753 850.2898550724638,128.00938919234312 867.9710144927535,148.85703669417825 885.6521739130435,151.50816276977122 903.3333333333333,174.40061964840464 921.0144927536232,175.35161341450612 938.695652173913,166.9103340614942 956.376811594203,164.12512342889417 974.0579710144928,185.94963893813727 991.7391304347825,180.79108751600705 1009.4202898550725,180.20820219702256 1027.1014492753623,169.6432002341069 1044.7826086956522,157.37508554397976 1062.463768115942,177.52116602855742 1080.144927536232,176.88716021864934 1097.8260869565217,222.28760163730013 1115.5072463768115,235.82984442691492 1133.1884057971015,235.92667073530887 1150.8695652173913,230.3990568459531 1168.5507246376812,222.6217108310807 1186.231884057971,228.12644231200275 1203.9130434782608,221.36479668406756 1221.5942028985507,222.602383791574 1239.2753623188405,227.14486841943997 1256.9565217391305,222.0007448333853 1274.6376811594203,211.6415526756642 1292.3188405797102,207.35824466979966 1310.0,214.47759465013593 1310.0,297.29906406126514 1292.3188405797102,293.4968552947448 1274.6376811594203,295.10128068306506 1256.9565217391305,301.38852036518705 1239.2753623188405,303.39193311429653 1221.5942028985507,301.48262153827363 1203.9130434782608,300.10377165203926 1186.231884057971,305.0146201431089 1168.5507246376812,302.36431236116806 1150.8695652173913,305.7357276920539 1133.1884057971015,309.0285073235531 1115.5072463768115,309.06539902387857 1097.8260869565217,301.57864785441194 1080.144927536232,273.9878366665994 1062.463768115942,274.6962898161411 1044.7826086956522,263.0044253729113 1027.1014492753623,269.6348120905444 1009.4202898550725,275.912236505981 991.7391304347825,276.40367568435863 974.0579710144928,279.96529393761125 956.376811594203,264.91677489340543 938.695652173913,267.6724145102627 921.0144927536232,272.4366092905008 903.3333333333333,271.7681217387667 885.6521739130435,258.74094556664795 867.9710144927535,258.2749892711555 850.2898550724638,244.93749719133257 832.608695652174,247.97469554799105 814.927536231884,242.55345769941522 797.2463768115942,226.74892586864968 779.5652173913043,232.9392104680537 761.8840579710145,239.81140536187635 744.2028985507247,228.87998887071203 726.5217391304348,235.51019181979066 708.840579710145,233.33490247103364 691.1594202898551,230.56990082008923 673.4782608695652,232.14613296881816 655.7971014492754,216.91677860191288 638.1159420289855,245.72554907363372 620.4347826086956,240.09434834842378 602.7536231884058,243.03768390374483 585.072463768116,248.86103465096326 567.3913043478261,268.31600786376384 549.7101449275362,275.00016092844066 532.0289855072464,280.8109725790561 514.3478260869565,278.5778104409548 496.66666666666663,269.9814843495664 478.98550724637676,275.34774837240985 461.304347826087,271.4825450528398 443.6231884057971,274.88156869365787 425.94202898550725,272.1996249841909 408.2608695652174,302.1586419813211 390.57971014492756,303.94399186095325 372.8985507246377,304.75924098864476 355.2173913043478,315.74396913033445 337.536231884058,313.7790220283792 319.8550724637681,310.1846174575454 302.17391304347825,302.62821578265067 284.4927536231884,301.43281483835085 266.81159420289856,307.5355186397552 249.1304347826087,297.0379068855962 231.44927536231884,295.8919051715293 213.768115942029,282.1146787094641 196.08695652173913,281.3256735691152 178.40579710144928,280.0935672024689 160.72463768115944,269.60767310916503 143.04347826086956,264.80281304867844 125.36231884057972,255.51057148671822 107.68115942028986,246.73167723171818 90.0,221.7313465326383" fill="#f97316" fill-opacity="0.70" stroke="#f97316" stroke-width="1.2"/>
<rect x="1100" y="76" width="16" height="12" fill="#f97316" fill-opacity="0.70" stroke="#f97316"/>
<text x="1124" y="86" font-family="monospace" font-size="12" fill="#0f172a">BTC</text>
<rect x="1100" y="98" width="16" height="12" fill="#2563eb" fill-opacity="0.70" stroke="#2563eb"/>
<text x="1124" y="108" font-family="monospace" font-size="12" fill="#0f172a">ETH</text>
<rect x="1100" y="120" width="16" height="12" fill="#facc15" fill-opacity="0.70" stroke="#facc15"/>
<text x="1124" y="130" font-family="monospace" font-size="12" fill="#0f172a">DAI</text>
<text x="700.0" y="782" text-anchor="middle" font-family="monospace" font-size="16" fill="#0f172a">time</text>
<text x="24" y="255.0" transform="rotate(-90 24,255.0)" text-anchor="middle" font-family="monospace" font-size="16" fill="#0f172a">asset value split (usd)</text>
<line x1="90" y1="605" x2="1310" y2="605" stroke="#334155" stroke-width="2"/>
<line x1="90" y1="480" x2="90" y2="605" stroke="#334155" stroke-width="2"/>
<line x1="90" y1="542.5" x2="1310" y2="542.5" stroke="#64748b" stroke-width="1.5" stroke-dasharray="6 4"/>
<line x1="90" y1="605.0" x2="1310" y2="605.0" stroke="#e2e8f0" stroke-width="1"/>
<text x="78" y="609.0" text-anchor="end" font-family="monospace" font-size="11" fill="#475569">-2000</text>
<line x1="90" y1="542.5" x2="1310" y2="542.5" stroke="#e2e8f0" stroke-width="1"/>
<text x="78" y="546.5" text-anchor="end" font-family="monospace" font-size="11" fill="#475569">0</text>
<line x1="90" y1="480.0" x2="1310" y2="480.0" stroke="#e2e8f0" stroke-width="1"/>
<text x="78" y="484.0" text-anchor="end" font-family="monospace" font-size="11" fill="#475569">2000</text>
<rect x="85.20714285714286" y="480.0" width="9.585714285714285" height="62.5" fill="#ea580c" opacity="0.85"><title>2025-01-01 | BTC buy 2000.00 usd | reason=static_target_rebalance</title></rect>
<rect x="102.88830227743271" y="511.4804895911534" width="9.585714285714285" height="31.0195104088466" fill="#ea580c" opacity="0.85"><title>2025-01-08 | BTC buy 992.62 usd | reason=static_target_rebalance</title></rect>
<rect x="120.56946169772257" y="527.9093397997135" width="9.585714285714285" height="14.590660200286493" fill="#ea580c" opacity="0.85"><title>2025-01-15 | BTC buy 466.90 usd | reason=static_target_rebalance</title></rect>
<rect x="138.25062111801242" y="537.6521903733787" width="9.585714285714285" height="4.847809626621256" fill="#ea580c" opacity="0.85"><title>2025-01-22 | BTC buy 155.13 usd | reason=static_target_rebalance</title></rect>
<rect x="155.9317805383023" y="541.0202269564329" width="9.585714285714285" height="1.5" fill="#ea580c" opacity="0.85"><title>2025-01-29 | BTC buy 47.35 usd | reason=static_target_rebalance</title></rect>
<rect x="173.61293995859214" y="541.6955023041922" width="9.585714285714285" height="1.5" fill="#ea580c" opacity="0.85"><title>2025-02-05 | BTC buy 25.74 usd | reason=static_target_rebalance</title></rect>
<rect x="191.29409937888198" y="542.5" width="9.585714285714285" height="1.5" fill="#dc2626" opacity="0.85"><title>2025-02-12 | BTC sell 14.01 usd | reason=static_target_rebalance</title></rect>
<rect x="208.97525879917185" y="542.4693117748141" width="9.585714285714285" height="1.5" fill="#ea580c" opacity="0.85"><title>2025-02-19 | BTC buy 0.98 usd | reason=static_target_rebalance</title></rect>
<rect x="226.6564182194617" y="541.1946311616857" width="9.585714285714285" height="1.5" fill="#ea580c" opacity="0.85"><title>2025-02-26 | BTC buy 41.77 usd | reason=static_target_rebalance</title></rect>
<rect x="244.33757763975154" y="542.5" width="9.585714285714285" height="2.5019927846049086" fill="#dc2626" opacity="0.85"><title>2025-03-05 | BTC sell 80.06 usd | reason=static_target_rebalance</title></rect>
<rect x="262.0187370600414" y="542.5" width="9.585714285714285" height="1.7822003729589824" fill="#dc2626" opacity="0.85"><title>2025-03-12 | BTC sell 57.03 usd | reason=static_target_rebalance</title></rect>
<rect x="279.69989648033123" y="542.5" width="9.585714285714285" height="1.5" fill="#dc2626" opacity="0.85"><title>2025-03-19 | BTC sell 19.10 usd | reason=static_target_rebalance</title></rect>
<rect x="297.3810559006211" y="542.5" width="9.585714285714285" height="1.5" fill="#dc2626" opacity="0.85"><title>2025-03-26 | BTC sell 24.66 usd | reason=static_target_rebalance</title></rect>
<rect x="315.062215320911" y="542.5" width="9.585714285714285" height="1.5" fill="#dc2626" opacity="0.85"><title>2025-04-02 | BTC sell 30.43 usd | reason=static_target_rebalance</title></rect>
<rect x="332.74337474120085" y="542.5" width="9.585714285714285" height="1.7721370884751195" fill="#dc2626" opacity="0.85"><title>2025-04-09 | BTC sell 56.71 usd | reason=static_target_rebalance</title></rect>
<rect x="350.42453416149067" y="542.5" width="9.585714285714285" height="2.3275545945405156" fill="#dc2626" opacity="0.85"><title>2025-04-16 | BTC sell 74.48 usd | reason=static_target_rebalance</title></rect>
<rect x="368.10569358178054" y="542.5" width="9.585714285714285" height="1.9587006155801419" fill="#dc2626" opacity="0.85"><title>2025-04-23 | BTC sell 62.68 usd | reason=static_target_rebalance</title></rect>
<rect x="385.7868530020704" y="542.5" width="9.585714285714285" height="1.5" fill="#dc2626" opacity="0.85"><title>2025-04-30 | BTC sell 36.61 usd | reason=static_target_rebalance</title></rect>
<rect x="403.46801242236023" y="542.5" width="9.585714285714285" height="1.5" fill="#dc2626" opacity="0.85"><title>2025-05-07 | BTC sell 41.32 usd | reason=static_target_rebalance</title></rect>
<rect x="421.1491718426501" y="536.399755381383" width="9.585714285714285" height="6.100244618617012" fill="#ea580c" opacity="0.85"><title>2025-05-14 | BTC buy 195.21 usd | reason=static_target_rebalance</title></rect>
<rect x="438.83033126294" y="542.0752761466989" width="9.585714285714285" height="1.5" fill="#ea580c" opacity="0.85"><title>2025-05-21 | BTC buy 13.59 usd | reason=static_target_rebalance</title></rect>
<rect x="456.51149068322985" y="540.3835490213812" width="9.585714285714285" height="2.1164509786187864" fill="#ea580c" opacity="0.85"><title>2025-05-28 | BTC buy 67.73 usd | reason=static_target_rebalance</title></rect>
<rect x="474.1926501035196" y="541.1019851266637" width="9.585714285714285" height="1.5" fill="#ea580c" opacity="0.85"><title>2025-06-04 | BTC buy 44.74 usd | reason=static_target_rebalance</title></rect>
<rect x="491.8738095238095" y="541.6065844089227" width="9.585714285714285" height="1.5" fill="#ea580c" opacity="0.85"><title>2025-06-11 | BTC buy 28.59 usd | reason=static_target_rebalance</title></rect>
<rect x="509.55496894409936" y="542.5" width="9.585714285714285" height="1.5" fill="#dc2626" opacity="0.85"><title>2025-06-18 | BTC sell 17.19 usd | reason=static_target_rebalance</title></rect>
<rect x="527.2361283643893" y="542.5" width="9.585714285714285" height="2.103393403604514" fill="#dc2626" opacity="0.85"><title>2025-06-25 | BTC sell 67.31 usd | reason=static_target_rebalance</title></rect>
<rect x="544.9172877846792" y="542.5" width="9.585714285714285" height="1.5" fill="#dc2626" opacity="0.85"><title>2025-07-02 | BTC sell 3.49 usd | reason=static_target_rebalance</title></rect>
<rect x="562.598447204969" y="541.4677621359741" width="9.585714285714285" height="1.5" fill="#ea580c" opacity="0.85"><title>2025-07-09 | BTC buy 33.03 usd | reason=static_target_rebalance</title></rect>
<rect x="580.2796066252589" y="538.8582617965101" width="9.585714285714285" height="3.641738203489922" fill="#ea580c" opacity="0.85"><title>2025-07-16 | BTC buy 116.54 usd | reason=static_target_rebalance</title></rect>
<rect x="597.9607660455487" y="538.444285223683" width="9.585714285714285" height="4.055714776317018" fill="#ea580c" opacity="0.85"><title>2025-07-23 | BTC buy 129.78 usd | reason=static_target_rebalance</title></rect>
<rect x="615.6419254658385" y="538.5980047747128" width="9.585714285714285" height="3.901995225287237" fill="#ea580c" opacity="0.85"><title>2025-07-30 | BTC buy 124.86 usd | reason=static_target_rebalance</title></rect>
<rect x="633.3230848861284" y="540.5460786528068" width="9.585714285714285" height="1.953921347193159" fill="#ea580c" opacity="0.85"><title>2025-08-06 | BTC buy 62.53 usd | reason=static_target_rebalance</title></rect>
<rect x="651.0042443064183" y="536.0904878189382" width="9.585714285714285" height="6.409512181061814" fill="#ea580c" opacity="0.85"><title>2025-08-13 | BTC buy 205.10 usd | reason=static_target_rebalance</title></rect>
<rect x="668.6854037267082" y="538.8730968543258" width="9.585714285714285" height="3.6269031456741914" fill="#ea580c" opacity="0.85"><title>2025-08-20 | BTC buy 116.06 usd | reason=static_target_rebalance</title></rect>
<rect x="686.366563146998" y="538.229885776993" width="9.585714285714285" height="4.270114223006999" fill="#ea580c" opacity="0.85"><title>2025-08-27 | BTC buy 136.64 usd | reason=static_target_rebalance</title></rect>
<rect x="704.0477225672879" y="540.9608023802672" width="9.585714285714285" height="1.5391976197328177" fill="#ea580c" opacity="0.85"><title>2025-09-03 | BTC buy 49.25 usd | reason=static_target_rebalance</title></rect>
<rect x="721.7288819875777" y="542.5" width="9.585714285714285" height="1.5" fill="#dc2626" opacity="0.85"><title>2025-09-10 | BTC sell 28.08 usd | reason=static_target_rebalance</title></rect>
<rect x="739.4100414078677" y="542.246134272751" width="9.585714285714285" height="1.5" fill="#ea580c" opacity="0.85"><title>2025-09-17 | BTC buy 8.12 usd | reason=static_target_rebalance</title></rect>
<rect x="757.0912008281574" y="542.5" width="9.585714285714285" height="1.6694237570457062" fill="#dc2626" opacity="0.85"><title>2025-09-24 | BTC sell 53.42 usd | reason=static_target_rebalance</title></rect>
<rect x="774.7723602484472" y="542.5" width="9.585714285714285" height="1.5878026815969406" fill="#dc2626" opacity="0.85"><title>2025-10-01 | BTC sell 50.81 usd | reason=static_target_rebalance</title></rect>
<rect x="792.4535196687372" y="542.5" width="9.585714285714285" height="1.5" fill="#dc2626" opacity="0.85"><title>2025-10-08 | BTC sell 45.04 usd | reason=static_target_rebalance</title></rect>
<rect x="810.1346790890269" y="542.0793191749073" width="9.585714285714285" height="1.5" fill="#ea580c" opacity="0.85"><title>2025-10-15 | BTC buy 13.46 usd | reason=static_target_rebalance</title></rect>
<rect x="827.8158385093169" y="542.3290560206763" width="9.585714285714285" height="1.5" fill="#ea580c" opacity="0.85"><title>2025-10-22 | BTC buy 5.47 usd | reason=static_target_rebalance</title></rect>
<rect x="845.4969979296067" y="542.5" width="9.585714285714285" height="1.5" fill="#dc2626" opacity="0.85"><title>2025-10-29 | BTC sell 5.32 usd | reason=static_target_rebalance</title></rect>
<rect x="863.1781573498964" y="542.5" width="9.585714285714285" height="1.5" fill="#dc2626" opacity="0.85"><title>2025-11-05 | BTC sell 38.77 usd | reason=static_target_rebalance</title></rect>
<rect x="880.8593167701864" y="542.2932702770363" width="9.585714285714285" height="1.5" fill="#ea580c" opacity="0.85"><title>2025-11-12 | BTC buy 6.62 usd | reason=static_target_rebalance</title></rect>
<rect x="898.5404761904762" y="541.4001664723319" width="9.585714285714285" height="1.5" fill="#ea580c" opacity="0.85"><title>2025-11-19 | BTC buy 35.19 usd | reason=static_target_rebalance</title></rect>
<rect x="916.2216356107662" y="541.5235991107763" width="9.585714285714285" height="1.5" fill="#ea580c" opacity="0.85"><title>2025-11-26 | BTC buy 31.24 usd | reason=static_target_rebalance</title></rect>
<rect x="933.9027950310559" y="541.902596025206" width="9.585714285714285" height="1.5" fill="#ea580c" opacity="0.85"><title>2025-12-03 | BTC buy 19.12 usd | reason=static_target_rebalance</title></rect>
<rect x="951.5839544513459" y="540.5351165745577" width="9.585714285714285" height="1.964883425442281" fill="#ea580c" opacity="0.85"><title>2025-12-10 | BTC buy 62.88 usd | reason=static_target_rebalance</title></rect>
<rect x="969.2651138716357" y="542.5" width="9.585714285714285" height="1.5" fill="#dc2626" opacity="0.85"><title>2025-12-17 | BTC sell 15.96 usd | reason=static_target_rebalance</title></rect>
<rect x="986.9462732919254" y="542.4105042274657" width="9.585714285714285" height="1.5" fill="#ea580c" opacity="0.85"><title>2025-12-24 | BTC buy 2.86 usd | reason=static_target_rebalance</title></rect>
<rect x="1004.6274327122154" y="542.2318224432946" width="9.585714285714285" height="1.5" fill="#ea580c" opacity="0.85"><title>2025-12-31 | BTC buy 8.58 usd | reason=static_target_rebalance</title></rect>
<rect x="1022.3085921325052" y="542.3094655316446" width="9.585714285714285" height="1.5" fill="#ea580c" opacity="0.85"><title>2026-01-07 | BTC buy 6.10 usd | reason=static_target_rebalance</title></rect>
<rect x="1039.989751552795" y="542.5" width="9.585714285714285" height="1.5" fill="#dc2626" opacity="0.85"><title>2026-01-14 | BTC sell 23.38 usd | reason=static_target_rebalance</title></rect>
<rect x="1057.6709109730848" y="542.5" width="9.585714285714285" height="1.5" fill="#dc2626" opacity="0.85"><title>2026-01-21 | BTC sell 7.41 usd | reason=static_target_rebalance</title></rect>
<rect x="1075.3520703933748" y="542.3178488353253" width="9.585714285714285" height="1.5" fill="#ea580c" opacity="0.85"><title>2026-01-28 | BTC buy 5.83 usd | reason=static_target_rebalance</title></rect>
<rect x="1093.0332298136645" y="542.5" width="9.585714285714285" height="1.5" fill="#dc2626" opacity="0.85"><title>2026-02-04 | BTC sell 8.32 usd | reason=static_target_rebalance</title></rect>
<rect x="1110.7143892339543" y="541.9546444625681" width="9.585714285714285" height="1.5" fill="#ea580c" opacity="0.85"><title>2026-02-11 | BTC buy 17.45 usd | reason=static_target_rebalance</title></rect>
<rect x="1128.3955486542443" y="541.8348732787466" width="9.585714285714285" height="1.5" fill="#ea580c" opacity="0.85"><title>2026-02-18 | BTC buy 21.28 usd | reason=static_target_rebalance</title></rect>
<rect x="1146.076708074534" y="541.8648688197692" width="9.585714285714285" height="1.5" fill="#ea580c" opacity="0.85"><title>2026-02-25 | BTC buy 20.32 usd | reason=static_target_rebalance</title></rect>
<rect x="1163.757867494824" y="542.5" width="9.585714285714285" height="1.5" fill="#dc2626" opacity="0.85"><title>2026-03-04 | BTC sell 31.93 usd | reason=static_target_rebalance</title></rect>
<rect x="1181.4390269151138" y="542.5" width="9.585714285714285" height="1.5" fill="#dc2626" opacity="0.85"><title>2026-03-11 | BTC sell 5.60 usd | reason=static_target_rebalance</title></rect>
<rect x="1199.1201863354036" y="541.5983113746231" width="9.585714285714285" height="1.5" fill="#ea580c" opacity="0.85"><title>2026-03-18 | BTC buy 28.85 usd | reason=static_target_rebalance</title></rect>
<rect x="1216.8013457556935" y="542.4006288496787" width="9.585714285714285" height="1.5" fill="#ea580c" opacity="0.85"><title>2026-03-25 | BTC buy 3.18 usd | reason=static_target_rebalance</title></rect>
<rect x="1234.4825051759833" y="541.3714959201623" width="9.585714285714285" height="1.5" fill="#ea580c" opacity="0.85"><title>2026-04-01 | BTC buy 36.11 usd | reason=static_target_rebalance</title></rect>
<rect x="1252.1636645962733" y="542.5" width="9.585714285714285" height="1.5" fill="#dc2626" opacity="0.85"><title>2026-04-08 | BTC sell 7.59 usd | reason=static_target_rebalance</title></rect>
<rect x="1269.844824016563" y="542.5" width="9.585714285714285" height="1.5" fill="#dc2626" opacity="0.85"><title>2026-04-15 | BTC sell 4.69 usd | reason=static_target_rebalance</title></rect>
<rect x="1287.525983436853" y="542.5" width="9.585714285714285" height="1.5" fill="#dc2626" opacity="0.85"><title>2026-04-22 | BTC sell 43.65 usd | reason=static_target_rebalance</title></rect>
<rect x="1305.2071428571428" y="542.5" width="9.585714285714285" height="1.5" fill="#dc2626" opacity="0.85"><title>2026-04-29 | BTC sell 24.71 usd | reason=static_target_rebalance</title></rect>
<text x="24" y="542.5" transform="rotate(-90 24,542.5)" text-anchor="middle" font-family="monospace" font-size="14" fill="#0f172a">BTC weekly trade usd</text>
<line x1="90" y1="770" x2="1310" y2="770" stroke="#334155" stroke-width="2"/>
<line x1="90" y1="645" x2="90" y2="770" stroke="#334155" stroke-width="2"/>
<line x1="90" y1="707.5" x2="1310" y2="707.5" stroke="#64748b" stroke-width="1.5" stroke-dasharray="6 4"/>
<line x1="90" y1="770.0" x2="1310" y2="770.0" stroke="#e2e8f0" stroke-width="1"/>
<text x="78" y="774.0" text-anchor="end" font-family="monospace" font-size="11" fill="#475569">-2000</text>
<line x1="90" y1="707.5" x2="1310" y2="707.5" stroke="#e2e8f0" stroke-width="1"/>
<text x="78" y="711.5" text-anchor="end" font-family="monospace" font-size="11" fill="#475569">0</text>
<line x1="90" y1="645.0" x2="1310" y2="645.0" stroke="#e2e8f0" stroke-width="1"/>
<text x="78" y="649.0" text-anchor="end" font-family="monospace" font-size="11" fill="#475569">2000</text>
<rect x="85.20714285714286" y="645.0" width="9.585714285714285" height="62.5" fill="#2563eb" opacity="0.85"><title>2025-01-01 | ETH buy 2000.00 usd | reason=static_target_rebalance</title></rect>
<rect x="102.88830227743271" y="676.0123749784677" width="9.585714285714285" height="31.487625021532267" fill="#2563eb" opacity="0.85"><title>2025-01-08 | ETH buy 1007.60 usd | reason=static_target_rebalance</title></rect>
<rect x="120.56946169772257" y="691.7303270152285" width="9.585714285714285" height="15.769672984771546" fill="#2563eb" opacity="0.85"><title>2025-01-15 | ETH buy 504.63 usd | reason=static_target_rebalance</title></rect>
<rect x="138.25062111801242" y="696.8386630369423" width="9.585714285714285" height="10.661336963057693" fill="#2563eb" opacity="0.85"><title>2025-01-22 | ETH buy 341.16 usd | reason=static_target_rebalance</title></rect>
<rect x="155.9317805383023" y="700.7767854989695" width="9.585714285714285" height="6.723214501030498" fill="#2563eb" opacity="0.85"><title>2025-01-29 | ETH buy 215.14 usd | reason=static_target_rebalance</title></rect>
<rect x="173.61293995859214" y="702.1119122440272" width="9.585714285714285" height="5.388087755972833" fill="#2563eb" opacity="0.85"><title>2025-02-05 | ETH buy 172.42 usd | reason=static_target_rebalance</title></rect>
<rect x="191.29409937888198" y="703.9139437781664" width="9.585714285714285" height="3.586056221833587" fill="#2563eb" opacity="0.85"><title>2025-02-12 | ETH buy 114.75 usd | reason=static_target_rebalance</title></rect>
<rect x="208.97525879917185" y="705.7127004050465" width="9.585714285714285" height="1.787299594953538" fill="#2563eb" opacity="0.85"><title>2025-02-19 | ETH buy 57.19 usd | reason=static_target_rebalance</title></rect>
<rect x="226.6564182194617" y="704.7886086394005" width="9.585714285714285" height="2.711391360599464" fill="#2563eb" opacity="0.85"><title>2025-02-26 | ETH buy 86.76 usd | reason=static_target_rebalance</title></rect>
<rect x="244.33757763975154" y="703.3833521833586" width="9.585714285714285" height="4.116647816641375" fill="#2563eb" opacity="0.85"><title>2025-03-05 | ETH buy 131.73 usd | reason=static_target_rebalance</title></rect>
<rect x="262.0187370600414" y="702.5844066417878" width="9.585714285714285" height="4.915593358212163" fill="#2563eb" opacity="0.85"><title>2025-03-12 | ETH buy 157.30 usd | reason=static_target_rebalance</title></rect>
<rect x="279.69989648033123" y="706.4213653571444" width="9.585714285714285" height="1.5" fill="#2563eb" opacity="0.85"><title>2025-03-19 | ETH buy 34.52 usd | reason=static_target_rebalance</title></rect>
<rect x="297.3810559006211" y="706.2661312831815" width="9.585714285714285" height="1.5" fill="#2563eb" opacity="0.85"><title>2025-03-26 | ETH buy 39.48 usd | reason=static_target_rebalance</title></rect>
<rect x="315.062215320911" y="704.7594561886403" width="9.585714285714285" height="2.7405438113596574" fill="#2563eb" opacity="0.85"><title>2025-04-02 | ETH buy 87.70 usd | reason=static_target_rebalance</title></rect>
<rect x="332.74337474120085" y="704.2145861342394" width="9.585714285714285" height="3.2854138657605745" fill="#2563eb" opacity="0.85"><title>2025-04-09 | ETH buy 105.13 usd | reason=static_target_rebalance</title></rect>
<rect x="350.42453416149067" y="704.0954379218338" width="9.585714285714285" height="3.4045620781662365" fill="#2563eb" opacity="0.85"><title>2025-04-16 | ETH buy 108.95 usd | reason=static_target_rebalance</title></rect>
<rect x="368.10569358178054" y="707.2497888064623" width="9.585714285714285" height="1.5" fill="#2563eb" opacity="0.85"><title>2025-04-23 | ETH buy 8.01 usd | reason=static_target_rebalance</title></rect>
<rect x="385.7868530020704" y="707.2457003911346" width="9.585714285714285" height="1.5" fill="#2563eb" opacity="0.85"><title>2025-04-30 | ETH buy 8.14 usd | reason=static_target_rebalance</title></rect>
<rect x="403.46801242236023" y="707.053437900408" width="9.585714285714285" height="1.5" fill="#2563eb" opacity="0.85"><title>2025-05-07 | ETH buy 14.29 usd | reason=static_target_rebalance</title></rect>
<rect x="421.1491718426501" y="707.5" width="9.585714285714285" height="11.586611096267802" fill="#7c3aed" opacity="0.85"><title>2025-05-14 | ETH sell 370.77 usd | reason=static_target_rebalance</title></rect>
<rect x="438.83033126294" y="707.5" width="9.585714285714285" height="3.5502098620844436" fill="#7c3aed" opacity="0.85"><title>2025-05-21 | ETH sell 113.61 usd | reason=static_target_rebalance</title></rect>
<rect x="456.51149068322985" y="707.5" width="9.585714285714285" height="4.111553008704959" fill="#7c3aed" opacity="0.85"><title>2025-05-28 | ETH sell 131.57 usd | reason=static_target_rebalance</title></rect>
<rect x="474.1926501035196" y="707.5" width="9.585714285714285" height="1.7030228360712272" fill="#7c3aed" opacity="0.85"><title>2025-06-04 | ETH sell 54.50 usd | reason=static_target_rebalance</title></rect>
<rect x="491.8738095238095" y="707.5" width="9.585714285714285" height="2.2577536174251236" fill="#7c3aed" opacity="0.85"><title>2025-06-11 | ETH sell 72.25 usd | reason=static_target_rebalance</title></rect>
<rect x="509.55496894409936" y="706.0768918638562" width="9.585714285714285" height="1.5" fill="#2563eb" opacity="0.85"><title>2025-06-18 | ETH buy 45.54 usd | reason=static_target_rebalance</title></rect>
<rect x="527.2361283643893" y="704.745369235636" width="9.585714285714285" height="2.7546307643640375" fill="#2563eb" opacity="0.85"><title>2025-06-25 | ETH buy 88.15 usd | reason=static_target_rebalance</title></rect>
<rect x="544.9172877846792" y="707.5" width="9.585714285714285" height="1.5" fill="#7c3aed" opacity="0.85"><title>2025-07-02 | ETH sell 14.53 usd | reason=static_target_rebalance</title></rect>
<rect x="562.598447204969" y="707.5" width="9.585714285714285" height="2.5282901570310514" fill="#7c3aed" opacity="0.85"><title>2025-07-09 | ETH sell 80.91 usd | reason=static_target_rebalance</title></rect>
<rect x="580.2796066252589" y="707.5" width="9.585714285714285" height="8.043360206474745" fill="#7c3aed" opacity="0.85"><title>2025-07-16 | ETH sell 257.39 usd | reason=static_target_rebalance</title></rect>
<rect x="597.9607660455487" y="707.5" width="9.585714285714285" height="7.411321795837239" fill="#7c3aed" opacity="0.85"><title>2025-07-23 | ETH sell 237.16 usd | reason=static_target_rebalance</title></rect>
<rect x="615.6419254658385" y="707.5" width="9.585714285714285" height="6.223968185456442" fill="#7c3aed" opacity="0.85"><title>2025-07-30 | ETH sell 199.17 usd | reason=static_target_rebalance</title></rect>
<rect x="633.3230848861284" y="707.5" width="9.585714285714285" height="2.256175514014444" fill="#7c3aed" opacity="0.85"><title>2025-08-06 | ETH sell 72.20 usd | reason=static_target_rebalance</title></rect>
<rect x="651.0042443064183" y="707.5" width="9.585714285714285" height="11.87227788576854" fill="#7c3aed" opacity="0.85"><title>2025-08-13 | ETH sell 379.91 usd | reason=static_target_rebalance</title></rect>
<rect x="668.6854037267082" y="707.5" width="9.585714285714285" height="3.621566242434369" fill="#7c3aed" opacity="0.85"><title>2025-08-20 | ETH sell 115.89 usd | reason=static_target_rebalance</title></rect>
<rect x="686.366563146998" y="707.5" width="9.585714285714285" height="4.4914931588779154" fill="#7c3aed" opacity="0.85"><title>2025-08-27 | ETH sell 143.73 usd | reason=static_target_rebalance</title></rect>
<rect x="704.0477225672879" y="707.5" width="9.585714285714285" height="1.523967657597268" fill="#7c3aed" opacity="0.85"><title>2025-09-03 | ETH sell 48.77 usd | reason=static_target_rebalance</title></rect>
<rect x="721.7288819875777" y="706.5606084035894" width="9.585714285714285" height="1.5" fill="#2563eb" opacity="0.85"><title>2025-09-10 | ETH buy 30.06 usd | reason=static_target_rebalance</title></rect>
<rect x="739.4100414078677" y="707.5" width="9.585714285714285" height="1.5" fill="#7c3aed" opacity="0.85"><title>2025-09-17 | ETH sell 45.69 usd | reason=static_target_rebalance</title></rect>
<rect x="757.0912008281574" y="704.4407663369029" width="9.585714285714285" height="3.059233663097075" fill="#2563eb" opacity="0.85"><title>2025-09-24 | ETH buy 97.90 usd | reason=static_target_rebalance</title></rect>
<rect x="774.7723602484472" y="706.6478982570713" width="9.585714285714285" height="1.5" fill="#2563eb" opacity="0.85"><title>2025-10-01 | ETH buy 27.27 usd | reason=static_target_rebalance</title></rect>
<rect x="792.4535196687372" y="707.5" width="9.585714285714285" height="1.5" fill="#7c3aed" opacity="0.85"><title>2025-10-08 | ETH sell 7.40 usd | reason=static_target_rebalance</title></rect>
<rect x="810.1346790890269" y="705.113973220082" width="9.585714285714285" height="2.3860267799179837" fill="#2563eb" opacity="0.85"><title>2025-10-15 | ETH buy 76.35 usd | reason=static_target_rebalance</title></rect>
<rect x="827.8158385093169" y="705.169925929196" width="9.585714285714285" height="2.3300740708040166" fill="#2563eb" opacity="0.85"><title>2025-10-22 | ETH buy 74.56 usd | reason=static_target_rebalance</title></rect>
<rect x="845.4969979296067" y="706.7776992215636" width="9.585714285714285" height="1.5" fill="#2563eb" opacity="0.85"><title>2025-10-29 | ETH buy 23.11 usd | reason=static_target_rebalance</title></rect>
<rect x="863.1781573498964" y="703.381825851906" width="9.585714285714285" height="4.118174148093999" fill="#2563eb" opacity="0.85"><title>2025-11-05 | ETH buy 131.78 usd | reason=static_target_rebalance</title></rect>
<rect x="880.8593167701864" y="705.919081194547" width="9.585714285714285" height="1.5809188054530523" fill="#2563eb" opacity="0.85"><title>2025-11-12 | ETH buy 50.59 usd | reason=static_target_rebalance</title></rect>
<rect x="898.5404761904762" y="704.8194641038638" width="9.585714285714285" height="2.6805358961362344" fill="#2563eb" opacity="0.85"><title>2025-11-19 | ETH buy 85.78 usd | reason=static_target_rebalance</title></rect>
<rect x="916.2216356107662" y="706.466303908101" width="9.585714285714285" height="1.5" fill="#2563eb" opacity="0.85"><title>2025-11-26 | ETH buy 33.08 usd | reason=static_target_rebalance</title></rect>
<rect x="933.9027950310559" y="707.5" width="9.585714285714285" height="1.5" fill="#7c3aed" opacity="0.85"><title>2025-12-03 | ETH sell 21.02 usd | reason=static_target_rebalance</title></rect>
<rect x="951.5839544513459" y="707.5" width="9.585714285714285" height="2.345737639966842" fill="#7c3aed" opacity="0.85"><title>2025-12-10 | ETH sell 75.06 usd | reason=static_target_rebalance</title></rect>
<rect x="969.2651138716357" y="704.4398349428312" width="9.585714285714285" height="3.060165057168774" fill="#2563eb" opacity="0.85"><title>2025-12-17 | ETH buy 97.93 usd | reason=static_target_rebalance</title></rect>
<rect x="986.9462732919254" y="706.9592156296242" width="9.585714285714285" height="1.5" fill="#2563eb" opacity="0.85"><title>2025-12-24 | ETH buy 17.31 usd | reason=static_target_rebalance</title></rect>
<rect x="1004.6274327122154" y="707.5" width="9.585714285714285" height="1.5" fill="#7c3aed" opacity="0.85"><title>2025-12-31 | ETH sell 0.85 usd | reason=static_target_rebalance</title></rect>
<rect x="1022.3085921325052" y="707.5" width="9.585714285714285" height="1.5" fill="#7c3aed" opacity="0.85"><title>2026-01-07 | ETH sell 44.86 usd | reason=static_target_rebalance</title></rect>
<rect x="1039.989751552795" y="707.5" width="9.585714285714285" height="1.5" fill="#7c3aed" opacity="0.85"><title>2026-01-14 | ETH sell 45.51 usd | reason=static_target_rebalance</title></rect>
<rect x="1057.6709109730848" y="705.8045446510413" width="9.585714285714285" height="1.695455348958717" fill="#2563eb" opacity="0.85"><title>2026-01-21 | ETH buy 54.25 usd | reason=static_target_rebalance</title></rect>
<rect x="1075.3520703933748" y="707.0301121149224" width="9.585714285714285" height="1.5" fill="#2563eb" opacity="0.85"><title>2026-01-28 | ETH buy 15.04 usd | reason=static_target_rebalance</title></rect>
<rect x="1093.0332298136645" y="701.1895107532395" width="9.585714285714285" height="6.31048924676054" fill="#2563eb" opacity="0.85"><title>2026-02-04 | ETH buy 201.94 usd | reason=static_target_rebalance</title></rect>
<rect x="1110.7143892339543" y="703.3124777114946" width="9.585714285714285" height="4.18752228850542" fill="#2563eb" opacity="0.85"><title>2026-02-11 | ETH buy 134.00 usd | reason=static_target_rebalance</title></rect>
<rect x="1128.3955486542443" y="705.7864788298732" width="9.585714285714285" height="1.7135211701267963" fill="#2563eb" opacity="0.85"><title>2026-02-18 | ETH buy 54.83 usd | reason=static_target_rebalance</title></rect>
<rect x="1146.076708074534" y="707.5" width="9.585714285714285" height="1.5" fill="#7c3aed" opacity="0.85"><title>2026-02-25 | ETH sell 4.57 usd | reason=static_target_rebalance</title></rect>
<rect x="1163.757867494824" y="707.2367437093429" width="9.585714285714285" height="1.5" fill="#2563eb" opacity="0.85"><title>2026-03-04 | ETH buy 8.42 usd | reason=static_target_rebalance</title></rect>
<rect x="1181.4390269151138" y="706.9981860391058" width="9.585714285714285" height="1.5" fill="#2563eb" opacity="0.85"><title>2026-03-11 | ETH buy 16.06 usd | reason=static_target_rebalance</title></rect>
<rect x="1199.1201863354036" y="707.5" width="9.585714285714285" height="1.5908469650257757" fill="#7c3aed" opacity="0.85"><title>2026-03-18 | ETH sell 50.91 usd | reason=static_target_rebalance</title></rect>
<rect x="1216.8013457556935" y="707.5" width="9.585714285714285" height="1.5" fill="#7c3aed" opacity="0.85"><title>2026-03-25 | ETH sell 9.21 usd | reason=static_target_rebalance</title></rect>
<rect x="1234.4825051759833" y="707.5" width="9.585714285714285" height="1.5" fill="#7c3aed" opacity="0.85"><title>2026-04-01 | ETH sell 20.80 usd | reason=static_target_rebalance</title></rect>
<rect x="1252.1636645962733" y="707.5" width="9.585714285714285" height="1.5" fill="#7c3aed" opacity="0.85"><title>2026-04-08 | ETH sell 5.51 usd | reason=static_target_rebalance</title></rect>
<rect x="1269.844824016563" y="707.5" width="9.585714285714285" height="1.5" fill="#7c3aed" opacity="0.85"><title>2026-04-15 | ETH sell 43.65 usd | reason=static_target_rebalance</title></rect>
<rect x="1287.525983436853" y="707.4313416933846" width="9.585714285714285" height="1.5" fill="#2563eb" opacity="0.85"><title>2026-04-22 | ETH buy 2.20 usd | reason=static_target_rebalance</title></rect>
<rect x="1305.2071428571428" y="706.4777587270974" width="9.585714285714285" height="1.5" fill="#2563eb" opacity="0.85"><title>2026-04-29 | ETH buy 32.71 usd | reason=static_target_rebalance</title></rect>
<text x="24" y="707.5" transform="rotate(-90 24,707.5)" text-anchor="middle" font-family="monospace" font-size="14" fill="#0f172a">ETH weekly trade usd</text>
<rect x="1040" y="478" width="14" height="10" fill="#ea580c" opacity="0.85"/>
<text x="1062" y="488" font-family="monospace" font-size="11" fill="#0f172a">BTC buy</text>
<rect x="1190" y="478" width="14" height="10" fill="#dc2626" opacity="0.85"/>
<text x="1212" y="488" font-family="monospace" font-size="11" fill="#0f172a">BTC sell</text>
<rect x="1040" y="498" width="14" height="10" fill="#2563eb" opacity="0.85"/>
<text x="1062" y="508" font-family="monospace" font-size="11" fill="#0f172a">ETH buy</text>
<rect x="1190" y="498" width="14" height="10" fill="#7c3aed" opacity="0.85"/>
<text x="1212" y="508" font-family="monospace" font-size="11" fill="#0f172a">ETH sell</text>
</svg>