<svg xmlns="http://www.w3.org/2000/svg" width="1400" height="800">
<rect width="1400" height="800" fill="#f8fafc"/>
<text x="700.0" y="42" text-anchor="middle" font-family="monospace" font-size="24" fill="#0f172a">Portfolio Value Over Time | start=2025-04-01 | interval=7d</text>
<line x1="90" y1="710" x2="1310" y2="710" stroke="#334155" stroke-width="2"/>
<line x1="90" y1="90" x2="90" y2="710" stroke="#334155" stroke-width="2"/>
<line x1="90.0" y1="710" x2="90.0" y2="90" stroke="#cbd5e1" stroke-width="1"/>
<text x="90.0" y="734" text-anchor="middle" font-family="monospace" font-size="11" fill="#475569">2025-04-01</text>
<line x1="90" y1="710.0" x2="1310" y2="710.0" stroke="#cbd5e1" stroke-width="1"/>
<text x="78" y="714.0" text-anchor="end" font-family="monospace" font-size="12" fill="#475569">7039</text>
<line x1="334.0" y1="710" x2="334.0" y2="90" stroke="#cbd5e1" stroke-width="1"/>
<text x="334.0" y="734" text-anchor="middle" font-family="monospace" font-size="11" fill="#475569">2025-06-17</text>
<line x1="90" y1="586.0" x2="1310" y2="586.0" stroke="#cbd5e1" stroke-width="1"/>
<text x="78" y="590.0" text-anchor="end" font-family="monospace" font-size="12" fill="#475569">9556</text>
<line x1="578.0" y1="710" x2="578.0" y2="90" stroke="#cbd5e1" stroke-width="1"/>
<text x="578.0" y="734" text-anchor="middle" font-family="monospace" font-size="11" fill="#475569">2025-09-09</text>
<line x1="90" y1="462.0" x2="1310" y2="462.0" stroke="#cbd5e1" stroke-width="1"/>
<text x="78" y="466.0" text-anchor="end" font-family="monospace" font-size="12" fill="#475569">12073</text>
<line x1="822.0000000000001" y1="710" x2="822.0000000000001" y2="90" stroke="#cbd5e1" stroke-width="1"/>
<text x="822.0000000000001" y="734" text-anchor="middle" font-family="monospace" font-size="11" fill="#475569">2025-11-25</text>
<line x1="90" y1="338.0" x2="1310" y2="338.0" stroke="#cbd5e1" stroke-width="1"/>
<text x="78" y="342.0" text-anchor="end" font-family="monospace" font-size="12" fill="#475569">14590</text>
<line x1="1066.0" y1="710" x2="1066.0" y2="90" stroke="#cbd5e1" stroke-width="1"/>
<text x="1066.0" y="734" text-anchor="middle" font-family="monospace" font-size="11" fill="#475569">2026-02-17</text>
<line x1="90" y1="214.00000000000006" x2="1310" y2="214.00000000000006" stroke="#cbd5e1" stroke-width="1"/>
<text x="78" y="218.00000000000006" text-anchor="end" font-family="monospace" font-size="12" fill="#475569">17107</text>
<line x1="1310.0" y1="710" x2="1310.0" y2="90" stroke="#cbd5e1" stroke-width="1"/>
<text x="1310.0" y="734" text-anchor="middle" font-family="monospace" font-size="11" fill="#475569">2026-05-05</text>
<line x1="90" y1="90.0" x2="1310" y2="90.0" stroke="#cbd5e1" stroke-width="1"/>
<text x="78" y="94.0" text-anchor="end" font-family="monospace" font-size="12" fill="#475569">19624</text>
<text x="700.0" y="782" text-anchor="middle" font-family="monospace" font-size="16" fill="#0f172a">time</text>
<text x="24" y="400.0" transform="rotate(-90 24,400.0)" text-anchor="middle" font-family="monospace" font-size="16" fill="#0f172a">portfolio_value_usd</text>
<line x1="970" y1="80" x2="988" y2="80" stroke="#0f766e" stroke-width="3"/>
<text x="998" y="84" font-family="monospace" font-size="12" fill="#0f172a">budgeted_static_50_50_rebalance</text>
<line x1="970" y1="104" x2="988" y2="104" stroke="#9333ea" stroke-width="3"/>
<text x="998" y="108" font-family="monospace" font-size="12" fill="#0f172a">budgeted_drawdown_tilt_rebalance</text>
<line x1="970" y1="128" x2="988" y2="128" stroke="#92400e" stroke-width="3"/>
<text x="998" y="132" font-family="monospace" font-size="12" fill="#0f172a">budgeted_btc_defensive_eth_aggressive</text>
<line x1="970" y1="152" x2="988" y2="152" stroke="#0f766e" stroke-width="3"/>
<text x="998" y="156" font-family="monospace" font-size="12" fill="#0f172a">static_50_50_rebalance</text>
<line x1="970" y1="176" x2="988" y2="176" stroke="#dc2626" stroke-width="3"/>
<text x="998" y="180" font-family="monospace" font-size="12" fill="#0f172a">target_50_50_with_cash_band</text>
<line x1="970" y1="200" x2="988" y2="200" stroke="#2563eb" stroke-width="3"/>
<text x="998" y="204" font-family="monospace" font-size="12" fill="#0f172a">narrow_cash_band_rebalance</text>
<line x1="970" y1="224" x2="988" y2="224" stroke="#7c3aed" stroke-width="3"/>
<text x="998" y="228" font-family="monospace" font-size="12" fill="#0f172a">drawdown_tilt_rebalance</text>
<line x1="970" y1="248" x2="988" y2="248" stroke="#b45309" stroke-width="3"/>
<text x="998" y="252" font-family="monospace" font-size="12" fill="#0f172a">btc_defensive_eth_aggressive</text>
<polyline points="90.0,564.134892757477 111.40350877192982,566.5890172440138 132.80701754385964,564.1952668469804 154.21052631578948,559.2316911925632 175.6140350877193,558.2253858550646 197.01754385964912,556.7102819660182 218.42105263157893,530.6464199340912 239.82456140350877,533.5012940393246 261.2280701754386,527.8167534715785 282.63157894736844,532.6412617974354 304.03508771929825,520.5902758200348 325.43859649122805,537.6386721648435 346.84210526315786,538.8139558244937 368.2456140350877,541.2808149460252 389.64912280701753,527.5096848010326 411.05263157894734,490.5778041836322 432.45614035087715,454.88379782010765 453.859649122807,454.9967519522727 475.2631578947368,470.5687812187539 496.66666666666663,403.54625152089875 518.0701754385965,445.0382606744312 539.4736842105262,415.35169185724527 560.8771929824561,432.5475094811344 582.280701754386,432.95684672577084 603.6842105263157,410.9635011718028 625.0877192982456,440.87993138560324 646.4912280701755,437.5837339140911 667.8947368421052,403.71889334636114 689.2982456140351,440.8593525250724 710.7017543859649,466.04235297602406 732.1052631578947,449.79214737524387 753.5087719298245,516.6914601193965 774.9122807017543,505.1231041373937 796.3157894736843,545.7600771720582 817.719298245614,568.5247818278484 839.1228070175439,557.2112183694301 860.5263157894736,532.917261100583 881.9298245614035,567.0761263786861 903.3333333333333,567.9655472769023 924.7368421052632,565.3033924950295 946.140350877193,531.9401292912603 967.5438596491229,526.3989413475255 988.9473684210526,567.4898050878779 1010.3508771929825,560.0527541799853 1031.7543859649122,642.2681165525104 1053.157894736842,672.155554876217 1074.561403508772,677.3941231067826 1095.9649122807018,695.376244359348 1117.3684210526314,675.7840813556097 1138.7719298245613,668.0049094050958 1160.1754385964912,637.5748299526464 1181.578947368421,657.5576688090221 1202.982456140351,666.7029046934156 1224.3859649122808,648.0769056506052 1245.7894736842104,636.6376550204686 1267.1929824561403,631.3845826896219 1288.5964912280701,634.328486467462 1310.0,618.6949080966228" fill="none" stroke="#0f766e" stroke-width="2.5"><title>budgeted_static_50_50_rebalance | end=2026-05-05 | return=-11.07%</title></polyline>
<polyline points="90.0,564.134892757477 111.40350877192982,568.7188334244561 132.80701754385964,564.9069104335492 154.21052631578948,556.8664275145856 175.6140350877193,554.9081714442927 197.01754385964912,552.8105890555822 218.42105263157893,497.5890003065326 239.82456140350877,505.931852182174 261.2280701754386,495.02041673073495 282.63157894736844,502.52859709963496 304.03508771929825,481.15167075797353 325.43859649122805,511.63807821601813 346.84210526315786,515.6556530697487 368.2456140350877,520.2815935048691 389.64912280701753,495.81720087464697 411.05263157894734,431.4421716364845 432.45614035087715,365.298378429128 453.859649122807,363.3921630536772 475.2631578947368,384.70443254385816 496.66666666666663,291.72237271365407 518.0701754385965,342.8104019658096 539.4736842105262,302.52956713994894 560.8771929824561,323.71202439420074 582.280701754386,324.54518597549156 603.6842105263157,305.02622521295007 625.0877192982456,333.132938627288 646.4912280701755,331.949940759516 667.8947368421052,303.95900391662565 689.2982456140351,333.9349520109793 710.7017543859649,354.9372182246243 732.1052631578947,342.7037808912086 753.5087719298245,401.9421534436096 774.9122807017543,391.0200202293292 796.3157894736843,426.51890974286835 817.719298245614,447.30002283649657 839.1228070175439,437.7480301492674 860.5263157894736,409.05398266840524 881.9298245614035,448.11109008635935 903.3333333333333,448.8643414153874 924.7368421052632,446.16225048223424 946.140350877193,403.9951190299912 967.5438596491229,397.34539132097717 988.9473684210526,451.50626531916225 1010.3508771929825,441.33981476626786 1031.7543859649122,551.5489886648253 1053.157894736842,591.6115175450167 1074.561403508772,598.7394070887216 1095.9649122807018,624.4689076165059 1117.3684210526314,596.7759939035202 1138.7719298245613,585.6362682221809 1160.1754385964912,539.7476015863344 1181.578947368421,569.5885941332739 1202.982456140351,582.660540383647 1224.3859649122808,555.1011231908643 1245.7894736842104,538.0805473299112 1267.1929824561403,531.1790344425528 1288.5964912280701,536.0689496115624 1310.0,513.7975534138199" fill="none" stroke="#9333ea" stroke-width="2.5"><title>budgeted_drawdown_tilt_rebalance | end=2026-05-05 | return=10.22%</title></polyline>
<polyline points="90.0,564.134892757477 111.40350877192982,567.5441405188751 132.80701754385964,563.8585201177272 154.21052631578948,556.292947440418 175.6140350877193,555.0802799721862 197.01754385964912,553.058319451517 218.42105263157893,527.5130230740062 239.82456140350877,529.3347742807193 261.2280701754386,523.8912724704919 282.63157894736844,528.9511803884395 304.03508771929825,517.5908944924211 325.43859649122805,533.2245266881471 346.84210526315786,533.6555492112018 368.2456140350877,535.7438040079147 389.64912280701753,523.885406219174 411.05263157894734,492.09023162484823 432.45614035087715,463.7090415457012 453.859649122807,464.5649941794434 475.2631578947368,477.96531403609004 496.66666666666663,424.17091922113366 518.0701754385965,459.255911448202 539.4736842105262,435.2341150836062 560.8771929824561,449.83568552865574 582.280701754386,450.19944614105435 603.6842105263157,431.2252934614824 625.0877192982456,457.6676804223536 646.4912280701755,455.095463384156 667.8947368421052,424.6155107946067 689.2982456140351,458.80360039330674 710.7017543859649,482.67859994060893 732.1052631578947,467.3576403100161 753.5087719298245,533.2167120703389 774.9122807017543,521.8992863130721 796.3157894736843,562.4507397172864 817.719298245614,585.3092063180474 839.1228070175439,573.5952118786355 860.5263157894736,550.5526159076816 881.9298245614035,584.0715181215737 903.3333333333333,585.0395208755292 924.7368421052632,582.2350343718884 946.140350877193,549.3851360749566 967.5438596491229,543.6476341687785 988.9473684210526,584.573369761938 1010.3508771929825,577.3692240101846 1031.7543859649122,658.6296996888905 1053.157894736842,688.0854821804425 1074.561403508772,693.2243905470152 1095.9649122807018,710.0 1117.3684210526314,691.5868144282143 1138.7719298245613,684.3255045662194 1160.1754385964912,657.3897551718305 1181.578947368421,675.6380452795868 1202.982456140351,684.449487791666 1224.3859649122808,667.0842471989487 1245.7894736842104,656.3900582890013 1267.1929824561403,650.8231635575404 1288.5964912280701,653.27698558453 1310.0,637.6980991708047" fill="none" stroke="#92400e" stroke-width="2.5"><title>budgeted_btc_defensive_eth_aggressive | end=2026-05-05 | return=-14.93%</title></polyline>
<polyline points="90.0,564.134892757477 111.40350877192982,596.8565525779667 132.80701754385964,573.377485551895 154.21052631578948,535.4974737649814 175.6140350877193,529.2148944746083 197.01754385964912,521.4331231077367 218.42105263157893,405.1061431925168 239.82456140350877,415.1617224079294 261.2280701754386,395.9087764225809 282.63157894736844,411.20442605401837 304.03508771929825,377.15072430218436 325.43859649122805,421.2548513175683 346.84210526315786,423.5528182203302 368.2456140350877,429.11672423706216 389.64912280701753,399.58965138875163 411.05263157894734,325.3279366371914 432.45614035087715,260.3138527511844 453.859649122807,261.5632124716683 475.2631578947368,287.50310530078065 496.66666666666663,187.04271410901083 518.0701754385965,248.88063060616145 539.4736842105262,209.7360110702914 560.8771929824561,232.47130018899662 582.280701754386,232.8577137304598 603.6842105263157,202.52433714980714 625.0877192982456,242.38669700881832 646.4912280701755,237.87611361581708 667.8947368421052,192.92121663390446 689.2982456140351,242.0192182326025 710.7017543859649,275.3085775579722 732.1052631578947,253.80909303135616 753.5087719298245,342.16589335378376 774.9122807017543,326.89924004209155 796.3157894736843,380.4514089057126 817.719298245614,410.51638345946657 839.1228070175439,395.5642217182573 860.5263157894736,363.4268608996308 881.9298245614035,408.16912949091306 903.3333333333333,409.3455337225669 924.7368421052632,405.8245014819058 946.140350877193,361.7187113717995 967.5438596491229,354.41498857243715 988.9473684210526,408.25493728296505 1010.3508771929825,398.46979714788273 1031.7543859649122,506.9774881661152 1053.157894736842,546.4277593972837 1074.561403508772,553.360142031391 1095.9649122807018,577.1922036778922 1117.3684210526314,551.2103817105187 1138.7719298245613,540.9032589295831 1160.1754385964912,500.60484922718024 1181.578947368421,526.7936915408203 1202.982456140351,538.8360925162035 1224.3859649122808,514.307634304638 1245.7894736842104,499.2662012236953 1267.1929824561403,492.3045177891566 1288.5964912280701,496.14734714367006 1310.0,475.61663775429986" fill="none" stroke="#0f766e" stroke-width="2.5"><title>static_50_50_rebalance | end=2026-05-05 | return=17.97%</title></polyline>
<polyline points="90.0,564.134892757477 111.40350877192982,600.9467600555279 132.80701754385964,574.6948219311499 154.21052631578948,532.2582925503123 175.6140350877193,525.2818735948271 197.01754385964912,517.7722072859243 218.42105263157893,384.0848190373693 239.82456140350877,398.8006117959567 261.2280701754386,377.21955455378645 282.63157894736844,392.5879023718463 304.03508771929825,355.44575454806034 325.43859649122805,395.56127225021413 346.84210526315786,399.3115159107461 368.2456140350877,405.5038622870464 389.64912280701753,372.71069293082036 411.05263157894734,305.06536507110695 432.45614035087715,250.84985473193439 453.859649122807,251.3378614654577 475.2631578947368,266.5007034963198 496.66666666666663,210.8379794400148 518.0701754385965,242.9731635860387 539.4736842105262,222.83033414340895 560.8771929824561,234.2734042755518 582.280701754386,234.46900582237436 603.6842105263157,219.31457153582153 625.0877192982456,239.04602198546434 646.4912280701755,236.7987633336433 667.8947368421052,214.34010922270255 689.2982456140351,238.57613581601612 710.7017543859649,255.1506542157403 732.1052631578947,242.20337793864752 753.5087719298245,299.6428897234788 774.9122807017543,285.46981286848745 796.3157894736843,342.10011174283267 817.719298245614,375.89248881950243 839.1228070175439,358.6295294495538 860.5263157894736,320.96582731698066 881.9298245614035,373.8824961690784 903.3333333333333,375.2747869454036 924.7368421052632,371.1063366009836 946.140350877193,318.86527556461084 967.5438596491229,310.1783676903954 988.9473684210526,374.387227015285 1010.3508771929825,362.76143824881404 1031.7543859649122,491.56762749271695 1053.157894736842,537.7793532509888 1074.561403508772,545.8033369417151 1095.9649122807018,573.1979687347242 1117.3684210526314,543.5307488943694 1138.7719298245613,531.7604003482911 1160.1754385964912,485.6820850773586 1181.578947368421,515.7790720038442 1202.982456140351,529.6137331667504 1224.3859649122808,501.48164210695177 1245.7894736842104,484.19531737693933 1267.1929824561403,476.1731360148493 1288.5964912280701,480.61053627109584 1310.0,456.8883965027276" fill="none" stroke="#dc2626" stroke-width="2.5"><title>target_50_50_with_cash_band | end=2026-05-05 | return=21.77%</title></polyline>
<polyline points="90.0,564.134892757477 111.40350877192982,593.5843865959177 132.80701754385964,571.0381452434359 154.21052631578948,532.7571863455694 175.6140350877193,526.2465030385526 197.01754385964912,518.9381196108923 218.42105263157893,389.585691293756 239.82456140350877,404.149583841492 261.2280701754386,382.73604458882875 282.63157894736844,397.9899354175115 304.03508771929825,361.0633492401164 325.43859649122805,408.33182655703064 346.84210526315786,412.22472500879985 368.2456140350877,418.49990660227866 389.64912280701753,385.89600582354404 411.05263157894734,306.53733295169604 432.45614035087715,235.73767587952744 453.859649122807,236.3644965139065 475.2631578947368,260.3102628032989 496.66666666666663,169.39829337588105 518.0701754385965,223.5435604097513 539.4736842105262,189.2083355383745 560.8771929824561,208.82600852766853 582.280701754386,209.1780189754756 603.6842105263157,183.71759458199585 625.0877192982456,217.11935589216841 646.4912280701755,213.3560045841199 667.8947368421052,175.76232631171558 689.2982456140351,216.72046596647812 710.7017543859649,244.50720361140583 732.1052631578947,224.80692109983903 753.5087719298245,309.9484978722778 774.9122807017543,293.98866041978096 796.3157894736843,352.7825708963497 817.719298245614,386.5966698421456 839.1228070175439,369.56422553443986 860.5263157894736,332.64278630941783 881.9298245614035,384.6344632811926 903.3333333333333,386.00022967639393 924.7368421052632,381.90748870179425 946.140350877193,330.59249055381264 967.5438596491229,322.05159939006614 988.9473684210526,385.2745035849239 1010.3508771929825,373.8488157177594 1031.7543859649122,500.4960377883258 1053.157894736842,545.8303113259499 1074.561403508772,553.7019748202895 1095.9649122807018,580.5340814581438 1117.3684210526314,551.4381277428008 1138.7719298245613,539.8784310880328 1160.1754385964912,494.61104611296315 1181.578947368421,524.2617395386204 1202.982456140351,537.8781106451079 1224.3859649122808,510.1891307638944 1245.7894736842104,493.1664726244036 1267.1929824561403,485.2775429598745 1288.5964912280701,489.64950693909424 1310.0,466.2758664409532" fill="none" stroke="#2563eb" stroke-width="2.5"><title>narrow_cash_band_rebalance | end=2026-05-05 | return=19.86%</title></polyline>
<polyline points="90.0,564.134892757477 111.40350877192982,603.3275854601485 132.80701754385964,578.7738884218601 154.21052631578948,537.4474770129859 175.6140350877193,528.9819431345873 197.01754385964912,521.5173494500623 218.42105263157893,346.2563363850104 239.82456140350877,367.8988626018763 261.2280701754386,341.57307216145114 282.63157894736844,358.62459743000767 304.03508771929825,315.3690789983895 325.43859649122805,372.2128591842819 346.84210526315786,378.34735082957434 368.2456140350877,385.9962278118413 389.64912280701753,347.0641141461976 411.05263157894734,250.16082263510367 432.45614035087715,162.13274224826182 453.859649122807,161.4282855467385 475.2631578947368,186.39422043666661 496.66666666666663,90.0 518.0701754385965,145.16459028865677 539.4736842105262,108.99541202817568 560.8771929824561,128.7166267194707 582.280701754386,129.07088577233196 603.6842105263157,103.38958314774015 625.0877192982456,137.12582043031603 646.4912280701755,133.49126153736802 667.8947368421052,95.41160957633667 689.2982456140351,136.74698751654932 710.7017543859649,165.07614349492394 732.1052631578947,145.01083765792703 753.5087719298245,234.86198040895107 774.9122807017543,217.33558721112553 796.3157894736843,278.7043996899879 817.719298245614,314.0482553406492 839.1228070175439,297.07715813619814 860.5263157894736,255.22866953116147 881.9298245614035,311.4050015901851 903.3333333333333,312.69859585645975 924.7368421052632,308.6384735625122 946.140350877193,253.43757309628404 967.5438596491229,244.74550149070927 988.9473684210526,311.9891136805933 1010.3508771929825,299.48037857669993 1031.7543859649122,435.2704125712648 1053.157894736842,485.48540712482594 1074.561403508772,494.32812019441985 1095.9649122807018,526.1165815695281 1117.3684210526314,492.0098219747247 1138.7719298245613,478.3219711111466 1160.1754385964912,421.9804359748416 1181.578947368421,458.0644202882978 1202.982456140351,473.9081512198645 1224.3859649122808,440.72117787032295 1245.7894736842104,420.3014292900418 1267.1929824561403,411.8575943132226 1288.5964912280701,417.6614393104392 1310.0,391.02619266223167" fill="none" stroke="#7c3aed" stroke-width="2.5"><title>drawdown_tilt_rebalance | end=2026-05-05 | return=35.14%</title></polyline>
<polyline points="90.0,564.134892757477 111.40350877192982,586.8632111667979 132.80701754385964,567.4258088131235 154.21052631578948,534.8094546841053 175.6140350877193,529.512841432534 197.01754385964912,521.2007075433432 218.42105263157893,420.65695215369703 239.82456140350877,426.533057620897 261.2280701754386,408.49270875975157 282.63157894736844,424.6721143047926 304.03508771929825,391.4305637178065 325.43859649122805,435.32369385671296 346.84210526315786,436.1765901399953 368.2456140350877,441.32789798370027 389.64912280701753,413.33521729760895 411.05263157894734,339.77386179687414 432.45614035087715,275.51212527589354 453.859649122807,277.07038245333354 475.2631578947368,304.0718974024523 496.66666666666663,199.61436053525705 518.0701754385965,264.50419443473487 539.4736842105262,223.2509565523264 560.8771929824561,247.28212475843333 582.280701754386,247.70547011777404 603.6842105263157,216.043272523211 625.0877192982456,257.7597953411197 646.4912280701755,253.0544768205907 667.8947368421052,206.17645626304517 689.2982456140351,257.5027754890916 710.7017543859649,292.22185020652796 732.1052631578947,269.84850463462703 753.5087719298245,361.721688716944 774.9122807017543,347.2494440718397 796.3157894736843,398.749052638267 817.719298245614,427.13525817529626 839.1228070175439,411.9977717969745 860.5263157894736,386.5739401731675 881.9298245614035,424.69389403616725 903.3333333333333,426.0033033703134 924.7368421052632,422.39469374049656 946.140350877193,384.4283250353523 967.5438596491229,377.3159227151566 988.9473684210526,424.1616897569567 1010.3508771929825,416.16762453945387 1031.7543859649122,509.7205160241781 1053.157894736842,546.0023553123298 1074.561403508772,552.5716739282852 1095.9649122807018,573.9485794603237 1117.3684210526314,549.8571598623049 1138.7719298245613,540.3459793257206 1160.1754385964912,505.77295749837504 1181.578947368421,529.1639753643989 1202.982456140351,540.744813911835 1224.3859649122808,518.2761729127917 1245.7894736842104,504.4955687945492 1267.1929824561403,496.87945836840765 1288.5964912280701,499.77965345788175 1310.0,479.3905419724459" fill="none" stroke="#b45309" stroke-width="2.5"><title>btc_defensive_eth_aggressive | end=2026-05-05 | return=17.20%</title></polyline>
</svg>