<svg xmlns="http://www.w3.org/2000/svg" width="1400" height="800">
<rect width="1400" height="800" fill="#f8fafc"/>
<text x="700.0" y="42" text-anchor="middle" font-family="monospace" font-size="24" fill="#0f172a">Portfolio Value Over Time | start=2022-01-01 | interval=7d</text>
<line x1="90" y1="710" x2="1310" y2="710" stroke="#334155" stroke-width="2"/>
<line x1="90" y1="90" x2="90" y2="710" stroke="#334155" stroke-width="2"/>
<line x1="90.0" y1="710" x2="90.0" y2="90" stroke="#cbd5e1" stroke-width="1"/>
<text x="90.0" y="734" text-anchor="middle" font-family="monospace" font-size="11" fill="#475569">2022-01-01</text>
<line x1="90" y1="710.0" x2="1310" y2="710.0" stroke="#cbd5e1" stroke-width="1"/>
<text x="78" y="714.0" text-anchor="end" font-family="monospace" font-size="12" fill="#475569">4127</text>
<line x1="334.0" y1="710" x2="334.0" y2="90" stroke="#cbd5e1" stroke-width="1"/>
<text x="334.0" y="734" text-anchor="middle" font-family="monospace" font-size="11" fill="#475569">2022-11-12</text>
<line x1="90" y1="586.0" x2="1310" y2="586.0" stroke="#cbd5e1" stroke-width="1"/>
<text x="78" y="590.0" text-anchor="end" font-family="monospace" font-size="12" fill="#475569">8460</text>
<line x1="578.0" y1="710" x2="578.0" y2="90" stroke="#cbd5e1" stroke-width="1"/>
<text x="578.0" y="734" text-anchor="middle" font-family="monospace" font-size="11" fill="#475569">2023-09-23</text>
<line x1="90" y1="462.0" x2="1310" y2="462.0" stroke="#cbd5e1" stroke-width="1"/>
<text x="78" y="466.0" text-anchor="end" font-family="monospace" font-size="12" fill="#475569">12793</text>
<line x1="822.0" y1="710" x2="822.0" y2="90" stroke="#cbd5e1" stroke-width="1"/>
<text x="822.0" y="734" text-anchor="middle" font-family="monospace" font-size="11" fill="#475569">2024-08-10</text>
<line x1="90" y1="338.0" x2="1310" y2="338.0" stroke="#cbd5e1" stroke-width="1"/>
<text x="78" y="342.0" text-anchor="end" font-family="monospace" font-size="12" fill="#475569">17126</text>
<line x1="1066.0" y1="710" x2="1066.0" y2="90" stroke="#cbd5e1" stroke-width="1"/>
<text x="1066.0" y="734" text-anchor="middle" font-family="monospace" font-size="11" fill="#475569">2025-06-21</text>
<line x1="90" y1="214.0" x2="1310" y2="214.0" stroke="#cbd5e1" stroke-width="1"/>
<text x="78" y="218.0" text-anchor="end" font-family="monospace" font-size="12" fill="#475569">21459</text>
<line x1="1310.0" y1="710" x2="1310.0" y2="90" stroke="#cbd5e1" stroke-width="1"/>
<text x="1310.0" y="734" text-anchor="middle" font-family="monospace" font-size="11" fill="#475569">2026-05-02</text>
<line x1="90" y1="90.0" x2="1310" y2="90.0" stroke="#cbd5e1" stroke-width="1"/>
<text x="78" y="94.0" text-anchor="end" font-family="monospace" font-size="12" fill="#475569">25791</text>
<text x="700.0" y="782" text-anchor="middle" font-family="monospace" font-size="16" fill="#0f172a">time</text>
<text x="24" y="400.0" transform="rotate(-90 24,400.0)" text-anchor="middle" font-family="monospace" font-size="16" fill="#0f172a">portfolio_value_usd</text>
<line x1="970" y1="80" x2="988" y2="80" stroke="#0f766e" stroke-width="3"/>
<text x="998" y="84" font-family="monospace" font-size="12" fill="#0f172a">budgeted_static_50_50_rebalance</text>
<line x1="970" y1="104" x2="988" y2="104" stroke="#9333ea" stroke-width="3"/>
<text x="998" y="108" font-family="monospace" font-size="12" fill="#0f172a">budgeted_drawdown_tilt_rebalance</text>
<line x1="970" y1="128" x2="988" y2="128" stroke="#92400e" stroke-width="3"/>
<text x="998" y="132" font-family="monospace" font-size="12" fill="#0f172a">budgeted_btc_defensive_eth_aggressive</text>
<line x1="970" y1="152" x2="988" y2="152" stroke="#0f766e" stroke-width="3"/>
<text x="998" y="156" font-family="monospace" font-size="12" fill="#0f172a">static_50_50_rebalance</text>
<line x1="970" y1="176" x2="988" y2="176" stroke="#dc2626" stroke-width="3"/>
<text x="998" y="180" font-family="monospace" font-size="12" fill="#0f172a">target_50_50_with_cash_band</text>
<line x1="970" y1="200" x2="988" y2="200" stroke="#2563eb" stroke-width="3"/>
<text x="998" y="204" font-family="monospace" font-size="12" fill="#0f172a">narrow_cash_band_rebalance</text>
<line x1="970" y1="224" x2="988" y2="224" stroke="#7c3aed" stroke-width="3"/>
<text x="998" y="228" font-family="monospace" font-size="12" fill="#0f172a">drawdown_tilt_rebalance</text>
<line x1="970" y1="248" x2="988" y2="248" stroke="#b45309" stroke-width="3"/>
<text x="998" y="252" font-family="monospace" font-size="12" fill="#0f172a">btc_defensive_eth_aggressive</text>
<polyline points="90.0,541.9218727323428 95.39823008849558,543.2469661363737 100.79646017699115,542.3469243507169 106.19469026548673,548.1993217497818 111.5929203539823,545.8278968909394 116.99115044247787,541.15443833256 122.38938053097345,541.4442656013396 127.78761061946904,544.5924998227878 133.1858407079646,545.2117198686917 138.58407079646017,546.4825869683821 143.98230088495575,548.5392095181685 149.38053097345133,538.216246049508 154.7787610619469,531.7961503763423 160.17699115044246,524.2507444905058 165.57522123893807,532.5566093324055 170.97345132743362,540.6219291163842 176.3716814159292,545.116699421665 181.76991150442478,553.4761581556342 187.16814159292034,560.0262974946959 192.56637168141594,587.1853898809337 197.9646017699115,590.9762079969535 203.3628318584071,597.7757264182153 208.76106194690266,595.2791844697374 214.15929203539824,609.1281516092799 219.5575221238938,656.4248024233948 224.9557522123894,637.980337518516 230.35398230088495,653.4888913743372 235.75221238938053,637.6772112396235 241.1504424778761,631.1074273550018 246.5486725663717,615.4341781896038 251.94690265486727,602.5022033241605 257.3451327433628,605.4948623629147 262.7433628318584,583.3918275533542 268.141592920354,618.7106790654044 273.53982300884957,627.6478498294041 278.9380530973451,624.8377946869153 284.33628318584067,605.8128236597241 289.7345132743363,628.3527785200779 295.1327433628319,641.3423615797409 300.53097345132744,640.0638857209065 305.929203539823,639.4239569383412 311.3274336283186,643.1250616237053 316.7256637168142,640.3461378072421 322.12389380530976,616.3936041310242 327.5221238938053,614.0888861148607 332.92035398230087,652.9738117789304 338.3185840707965,655.5616754382366 343.716814159292,657.153995972674 349.1150442477876,653.3031930658545 354.5132743362832,650.8691773806565 359.9115044247788,656.7778081679107 365.30973451327435,654.6424753441181 370.7079646017699,657.3491911700069 376.1061946902655,651.7263111103873 381.50442477876106,618.8076269929526 386.9026548672566,606.9365406159309 392.3008849557522,609.0090883758287 397.6991150442478,602.5178574877035 403.0973451327434,615.4990830908972 408.49557522123894,595.9475725740842 413.89380530973455,607.171220799976 419.29203539823004,611.8949056876431 424.69026548672565,623.2832198360832 430.0884955752212,582.6846464638628 435.4867256637168,581.8079721201259 440.8849557522124,573.6681152807349 446.283185840708,574.0307308002607 451.6814159292036,551.6142731041891 457.07964601769913,573.0324690873751 462.4778761061947,565.7976158409402 467.87610619469024,567.5710370118262 473.27433628318585,581.1034285743947 478.6725663716814,578.5879599936226 484.070796460177,578.9068459764325 489.46902654867256,574.732867938478 494.86725663716817,586.9433891987601 500.2654867256637,585.9029193516981 505.6637168141593,562.6437433219431 511.0619469026548,559.7919167853327 516.4601769911504,564.1452845057611 521.858407079646,560.3775160412179 527.2566371681417,565.8613068290825 532.6548672566372,566.6528556839191 538.0530973451328,570.3405460602917 543.4513274336284,568.2064342443348 548.8495575221239,590.1485362134218 554.2477876106195,591.7860930726209 559.646017699115,592.8366168218547 565.0442477876106,592.8245018461492 570.4424778761062,590.3997667700929 575.8407079646017,592.7340124744416 581.2389380530974,586.8595840641289 586.637168141593,585.3124223411797 592.0353982300885,594.0347449153583 597.433628318584,578.6480589202168 602.8318584070796,555.1061487453574 608.2300884955752,546.7132833672193 613.6283185840708,527.7329158611187 619.0265486725664,535.0111175120367 624.4247787610619,523.7099481330281 629.8230088495576,513.226831302919 635.221238938053,488.6880454806917 640.6194690265487,500.29745471173953 646.0176991150443,490.58683066173137 651.4159292035398,496.8124365117711 656.8141592920354,493.70487872700187 662.212389380531,477.54486762541893 667.6106194690266,487.6088205320398 673.0088495575221,497.78539730661385 678.4070796460177,493.31049486433244 683.8053097345132,466.10922059002985 689.2035398230088,437.11414425966217 694.6017699115044,425.56065154390654 700.0,367.9937529902222 705.3982300884956,320.287221506028 710.7964601769912,352.21675306204276 716.1946902654868,366.60110381798626 721.5929203539823,339.736566137857 726.9911504424779,350.45524436281937 732.3893805309735,384.09706966703845 737.7876106194691,372.94992714549716 743.1858407079646,371.8959571671912 748.5840707964601,378.302770206673 753.9823008849557,399.0300929666413 759.3805309734513,369.15004727851436 764.7787610619469,325.84168771717174 770.1769911504424,326.6957126317202 775.5752212389381,329.5464463070749 780.9734513274336,345.023088380084 786.3716814159292,354.7898073738482 791.7699115044248,371.3353395017668 797.1681415929204,396.13147603626635 802.566371681416,387.11460896802157 807.9646017699115,344.40361124285505 813.3628318584072,357.2295993937441 818.7610619469027,398.1150498876807 824.1592920353983,414.2464264034662 829.5575221238938,418.1427348369721 834.9557522123894,395.24330102771995 840.3539823008849,425.9100679200523 845.7522123893805,454.55776734824207 851.150442477876,428.7914456032089 856.5486725663717,406.7688387741484 861.9469026548672,395.8027508356291 867.3451327433628,423.17377655956886 872.7433628318583,416.04282097104795 878.141592920354,390.65523740020336 883.5398230088496,405.42163408965854 888.9380530973451,398.263966204074 894.3362831858408,335.791047986723 899.7345132743363,299.2020799585602 905.1327433628319,263.2047286589827 910.5309734513274,245.82200745299104 915.9292035398231,217.67214266149318 921.3274336283185,222.6388910885005 926.7256637168141,267.6470554402809 932.1238938053096,268.72041262576334 937.5221238938053,244.19012022787302 942.9203539823009,277.59497451374386 948.3185840707964,252.4840842097326 953.716814159292,250.805584548505 959.1150442477876,274.274570390986 964.5132743362832,317.72834090361306 969.9115044247787,310.71332439469944 975.3097345132744,307.75093198795037 980.70796460177,372.458528508455 986.1061946902655,373.10345905301455 991.5044247787611,398.5840794625805 996.9026548672567,396.0481530658264 1002.3008849557523,411.8518598524776 1007.6991150442477,411.9527729384939 1013.0973451327433,422.7982089388114 1018.4955752212389,426.1310712642064 1023.8938053097345,386.3333675556942 1029.29203539823,382.72914146656126 1034.6902654867256,292.1810286716886 1040.0884955752213,305.7127696524709 1045.4867256637167,291.26287473217167 1050.8849557522124,297.7313524696383 1056.283185840708,296.0556276048162 1061.6814159292035,295.8442673689862 1067.0796460176991,323.26754560343784 1072.4778761061948,300.48267930115 1077.8761061946902,291.6623671997068 1083.274336283186,235.79712888023403 1088.6725663716816,178.7930557140328 1094.070796460177,166.19976179150945 1099.4690265486724,206.45738703330346 1104.867256637168,128.1576079199441 1110.2654867256638,113.36243317404853 1115.6637168141592,91.70061407152912 1121.0619469026549,136.78191329543722 1126.4601769911503,140.51354234023893 1131.858407079646,98.56741455758049 1137.2566371681417,111.90901090373325 1142.654867256637,158.487589282145 1148.0530973451328,94.95086615907974 1153.4513274336284,173.59975036198216 1158.8495575221239,172.71482527748458 1164.2477876106195,157.4282098391941 1169.6460176991152,166.98717847830846 1175.0442477876106,218.09104523888658 1180.442477876106,250.83239632374375 1185.8407079646017,305.5866026950273 1191.2389380530974,274.2598768236664 1196.6371681415928,274.4716853905913 1202.0353982300885,266.4543134683361 1207.433628318584,281.3892476365175 1212.8318584070796,284.8692667073636 1218.2300884955753,264.80381504462355 1223.6283185840707,268.4867042120674 1229.0265486725664,240.15325691875955 1234.424778761062,281.36269165523885 1239.8230088495575,343.89198533654314 1245.2212389380531,394.837512869569 1250.6194690265488,393.5505535606617 1256.0176991150443,407.27081393058484 1261.41592920354,410.4190220598398 1266.8141592920354,409.2795750973748 1272.212389380531,388.6279768188413 1277.6106194690265,395.41624798761984 1283.0088495575221,409.6155725762874 1288.4070796460176,401.0968886296345 1293.8053097345132,367.94813143871914 1299.203539823009,355.7944923561728 1304.6017699115043,353.5961440069571 1310.0,351.2701452899987" fill="none" stroke="#0f766e" stroke-width="2.5"><title>budgeted_static_50_50_rebalance | end=2026-05-02 | return=66.62%</title></polyline>
<polyline points="90.0,541.9218727323428 95.39823008849558,543.6646305833824 100.79646017699115,542.4864536167125 106.19469026548673,550.2158219434659 111.5929203539823,547.042341315677 116.99115044247787,540.8334347447441 122.38938053097345,541.1903836182782 127.78761061946904,545.3917586872412 133.1858407079646,546.2282621805681 138.58407079646017,547.9085660435308 143.98230088495575,550.6499225187844 149.38053097345133,536.8695736028674 154.7787610619469,528.3009363668424 160.17699115044246,518.2194819965458 165.57522123893807,529.3024483213406 170.97345132743362,540.062596875107 176.3716814159292,546.0512088784624 181.76991150442478,557.1905042113156 187.16814159292034,565.9451001905015 192.56637168141594,602.1308424763708 197.9646017699115,607.2678129322746 203.3628318584071,616.6194343806814 208.76106194690266,613.2677161851982 214.15929203539824,632.9890772722838 219.5575221238938,695.8031125892959 224.9557522123894,671.8719072047525 230.35398230088495,690.3612593743678 235.75221238938053,672.995091123062 241.1504424778761,665.3059957990044 246.5486725663717,648.5807085333215 251.94690265486727,634.727483443776 257.3451327433628,637.6348368344308 262.7433628318584,613.3700420172333 268.141592920354,651.5143416846306 273.53982300884957,660.8764319094549 278.9380530973451,657.3006191983804 284.33628318584067,636.8643732172679 289.7345132743363,662.0401255365191 295.1327433628319,676.0470052750582 300.53097345132744,675.011524342659 305.929203539823,674.3876373419023 311.3274336283186,678.2458258953285 316.7256637168142,675.2510649817316 322.12389380530976,649.7733288355358 327.5221238938053,647.6371018138049 332.92035398230087,687.6387687893016 338.3185840707965,690.5117296924079 343.716814159292,692.0646838535176 349.1150442477876,688.1839557739181 354.5132743362832,685.6870707035898 359.9115044247788,692.034850258027 365.30973451327435,689.6823038099585 370.7079646017699,692.3993116969687 376.1061946902655,686.5073174730616 381.50442477876106,653.8182394390138 386.9026548672566,642.3725964641388 392.3008849557522,645.0395415016237 397.6991150442478,637.8777855536713 403.0973451327434,651.3270273716961 408.49557522123894,631.63165169993 413.89380530973455,643.1431669636141 419.29203539823004,647.8026809872086 424.69026548672565,659.2934535002921 430.0884955752212,618.6869018423928 435.4867256637168,618.1695010293936 440.8849557522124,609.6565735632815 446.283185840708,609.645897926316 451.6814159292036,585.6241525853986 457.07964601769913,608.557423697529 462.4778761061947,601.2716421489396 467.87610619469024,603.070790914883 473.27433628318585,617.2789178487784 478.6725663716814,614.6288672662239 484.070796460177,614.7852544072113 489.46902654867256,610.4059546960113 494.86725663716817,622.1705080498491 500.2654867256637,621.6399250944155 505.6637168141593,601.1766108570442 511.0619469026548,598.4479604806685 516.4601769911504,602.3189275403979 521.858407079646,598.9325653626349 527.2566371681417,603.4339319717328 532.6548672566372,603.8461846623176 538.0530973451328,606.7546763816058 543.4513274336284,605.2184586223946 548.8495575221239,621.0189894450137 554.2477876106195,622.3274678763752 559.646017699115,623.1503973243467 565.0442477876106,623.151016481546 570.4424778761062,621.3106646856266 575.8407079646017,623.3267591976306 581.2389380530974,618.3459548704785 586.637168141593,617.4075105334173 592.0353982300885,624.6538652828148 597.433628318584,611.8908158970769 602.8318584070796,592.0092999823877 608.2300884955752,584.6483437726379 613.6283185840708,568.3940452293343 619.0265486725664,574.5937473024343 624.4247787610619,565.3897393794962 629.8230088495576,557.3172277746692 635.221238938053,538.9647364140308 640.6194690265487,547.7583540056928 646.0176991150443,540.6496625151383 651.4159292035398,544.850312009361 656.8141592920354,543.2517791033192 662.212389380531,530.5162337788472 667.6106194690266,537.5565413941077 673.0088495575221,545.0803602361027 678.4070796460177,542.1336107041924 683.8053097345132,524.1428368584168 689.2035398230088,504.76985750775276 694.6017699115044,496.68291263022604 700.0,459.31938478974297 705.3982300884956,428.1113190528516 710.7964601769912,449.05812877349143 716.1946902654868,458.4717115744252 721.5929203539823,441.0334126390528 726.9911504424779,448.18969465460515 732.3893805309735,470.7961992252018 737.7876106194691,462.8836811555024 743.1858407079646,461.65115231989125 748.5840707964601,466.72777467720675 753.9823008849557,482.2701054740337 759.3805309734513,459.5261097780834 764.7787610619469,423.8354914890494 770.1769911504424,423.84500181642113 775.5752212389381,426.9745339436555 780.9734513274336,437.82685316491114 786.3716814159292,444.5268671169016 791.7699115044248,455.6493495783467 797.1681415929204,473.7305997992493 802.566371681416,467.03512470563635 807.9646017699115,435.79505692730174 813.3628318584072,445.8950321603316 818.7610619469027,475.73767854538096 824.1592920353983,488.8886076592029 829.5575221238938,491.6437652921069 834.9557522123894,473.396915860395 840.3539823008849,499.48415998934274 845.7522123893805,524.4142109395573 851.150442477876,502.9664499915685 856.5486725663717,482.9913192474454 861.9469026548672,473.6075724521354 867.3451327433628,499.4127941903528 872.7433628318583,492.7549989649549 878.141592920354,469.8293333141356 883.5398230088496,484.81111706113165 888.9380530973451,478.94435888657404 894.3362831858408,415.1416980214462 899.7345132743363,386.55942423213054 905.1327433628319,352.6884618811755 910.5309734513274,332.4412483719487 915.9292035398231,305.26106766480433 921.3274336283185,311.6369261500672 926.7256637168141,353.6352868979917 932.1238938053096,353.12186343819604 937.5221238938053,331.1294310990171 942.9203539823009,360.59798045269457 948.3185840707964,342.8418764182017 953.716814159292,341.4438491098553 959.1150442477876,361.01962099610836 964.5132743362832,399.1949182489316 969.9115044247787,393.15532503056056 975.3097345132744,389.65108626331295 980.70796460177,449.25512772046505 986.1061946902655,450.0686563131343 991.5044247787611,476.2354516620003 996.9026548672567,472.99714215918505 1002.3008849557523,490.5548191670522 1007.6991150442477,491.5410684501801 1013.0973451327433,506.6746379228051 1018.4955752212389,510.45024508650107 1023.8938053097345,471.6350346332556 1029.29203539823,468.3151631323047 1034.6902654867256,370.12053116653766 1040.0884955752213,384.82789483652766 1045.4867256637167,371.2081887323413 1050.8849557522124,376.48729546485055 1056.283185840708,375.2672955150783 1061.6814159292035,374.8648599627673 1067.0796460176991,406.41132146696503 1072.4778761061948,382.40676696855905 1077.8761061946902,372.03683942232334 1083.274336283186,309.40534188803343 1088.6725663716816,236.13364991408338 1094.070796460177,220.23464375540362 1099.4690265486724,263.08702063363893 1104.867256637168,172.49475419542182 1110.2654867256638,156.35166085083347 1115.6637168141592,129.9607150722013 1121.0619469026549,171.65158872045663 1126.4601769911503,176.91609713669152 1131.858407079646,140.3483935726632 1137.2566371681417,153.05195601183004 1142.654867256637,191.8544596299712 1148.0530973451328,141.47818022878994 1153.4513274336284,205.80580428318865 1158.8495575221239,202.794316477679 1164.2477876106195,191.32036118553867 1169.6460176991152,199.32268402309785 1175.0442477876106,243.27232849684663 1180.442477876106,270.8335034064938 1185.8407079646017,317.98661089341834 1191.2389380530974,290.6551903878141 1196.6371681415928,290.11616313154815 1202.0353982300885,282.4392484951686 1207.433628318584,297.09097857925644 1212.8318584070796,300.5607616479144 1218.2300884955753,279.96490988518906 1223.6283185840707,283.9348723822419 1229.0265486725664,254.63077975823057 1234.424778761062,297.9576752878913 1239.8230088495575,363.5339296575474 1245.2212389380531,416.73923050982575 1250.6194690265488,415.51133756162193 1256.0176991150443,430.835015212581 1261.41592920354,434.0718636349581 1266.8141592920354,432.8516791637049 1272.212389380531,409.73662909349207 1277.6106194690265,416.6492121084706 1283.0088495575221,432.8071668374836 1288.4070796460176,422.69072381377555 1293.8053097345132,384.6104217665542 1299.203539823009,370.9037227467384 1304.6017699115043,369.4208302177419 1310.0,367.1432664884319" fill="none" stroke="#9333ea" stroke-width="2.5"><title>budgeted_drawdown_tilt_rebalance | end=2026-05-02 | return=61.07%</title></polyline>
<polyline points="90.0,541.9218727323428 95.39823008849558,543.4344743100434 100.79646017699115,542.2644214756332 106.19469026548673,550.1621348634209 111.5929203539823,546.7856643402781 116.99115044247787,540.3641925758327 122.38938053097345,540.4950572170179 127.78761061946904,545.0511458278045 133.1858407079646,546.1857623293929 138.58407079646017,547.6121537419576 143.98230088495575,550.4220590304476 149.38053097345133,535.8658422509437 154.7787610619469,526.5729638567606 160.17699115044246,516.5125645895624 165.57522123893807,528.919304916725 170.97345132743362,540.6407479673104 176.3716814159292,546.7550304767271 181.76991150442478,558.0155743457509 187.16814159292034,567.4450003010802 192.56637168141594,601.5773767329525 197.9646017699115,606.1213967549113 203.3628318584071,613.2611598733322 208.76106194690266,610.0461102752906 214.15929203539824,624.3117040224877 219.5575221238938,675.4657486891513 224.9557522123894,656.7232938604099 230.35398230088495,671.800408135497 235.75221238938053,657.0185711687164 241.1504424778761,652.5704684203945 246.5486725663717,639.8396064925826 251.94690265486727,629.1429404884843 257.3451327433628,632.0150350716817 262.7433628318584,613.9845105057464 268.141592920354,643.9582377816332 273.53982300884957,651.7899035032804 278.9380530973451,649.7745117711005 284.33628318584067,633.4340363748478 289.7345132743363,652.4638839820867 295.1327433628319,663.6134203602097 300.53097345132744,662.2781050953581 305.929203539823,661.6955922423265 311.3274336283186,664.8025559134353 316.7256637168142,662.6130095975941 322.12389380530976,643.2577052158601 327.5221238938053,641.0607809893145 332.92035398230087,674.7815490328597 338.3185840707965,676.8313605047877 343.716814159292,678.2500576685006 349.1150442477876,674.9455377496392 354.5132743362832,672.8925663831566 359.9115044247788,677.6482867570453 365.30973451327435,676.0149329111746 370.7079646017699,678.3301883514157 376.1061946902655,673.7555905514291 381.50442477876106,645.2935712920521 386.9026548672566,634.5723706556337 392.3008849557522,635.8901330331097 397.6991150442478,630.6809640236207 403.0973451327434,642.0606090183417 408.49557522123894,624.2857804427368 413.89380530973455,634.4198621122614 419.29203539823004,638.8956902211135 424.69026548672565,649.4658417169198 430.0884955752212,611.6790644754628 435.4867256637168,610.4417736367733 440.8849557522124,603.1398479825685 446.283185840708,604.0407369148904 451.6814159292036,584.1601065013028 457.07964601769913,603.5893072610195 462.4778761061947,596.27877937541 467.87610619469024,598.0734518971911 473.27433628318585,611.1300368191464 478.6725663716814,608.7866031852415 484.070796460177,609.3477790104168 489.46902654867256,605.8838572443592 494.86725663716817,616.817913211011 500.2654867256637,615.3042201706855 505.6637168141593,591.2031376896973 511.0619469026548,588.6867038287386 516.4601769911504,592.7311737789109 521.858407079646,589.5167701589253 527.2566371681417,594.6860479260465 532.6548672566372,595.8194206334279 538.0530973451328,599.2319975445114 543.4513274336284,597.0575420928402 548.8495575221239,618.8264214188669 554.2477876106195,620.2613731961435 559.646017699115,621.2722314700139 565.0442477876106,621.2288379812795 570.4424778761062,618.516971600661 575.8407079646017,620.3751833668978 581.2389380530974,615.2655678838852 586.637168141593,612.8229709674658 592.0353982300885,621.075791104315 597.433628318584,605.166268462035 602.8318584070796,581.4736746227883 608.2300884955752,573.640789019796 613.6283185840708,556.2010663333452 619.0265486725664,562.5573775314579 624.4247787610619,552.1635765065262 629.8230088495576,541.7436992645626 635.221238938053,516.8653220019473 640.6194690265487,527.9193301238171 646.0176991150443,518.3175542123693 651.4159292035398,525.3478310142564 656.8141592920354,520.3665994431012 662.212389380531,509.40905980760886 667.6106194690266,519.0885368767384 673.0088495575221,527.5340366995079 678.4070796460177,522.790307427076 683.8053097345132,494.5314038433123 689.2035398230088,465.4149990119963 694.6017699115044,455.2138737995947 700.0,394.9477714108482 705.3982300884956,346.2434786904978 710.7964601769912,378.2770091403099 716.1946902654868,392.75903714051606 721.5929203539823,363.7499513637278 726.9911504424779,374.3640423070144 732.3893805309735,409.308502549606 737.7876106194691,398.36031400632527 743.1858407079646,398.6508535215885 748.5840707964601,404.13908992578376 753.9823008849557,425.6764836555348 759.3805309734513,393.3338040646909 764.7787610619469,352.1782083636118 770.1769911504424,354.34438344808524 775.5752212389381,355.5145807886856 780.9734513274336,372.20780332872226 786.3716814159292,382.76002268572665 791.7699115044248,400.60039743636287 797.1681415929204,426.66840924832735 802.566371681416,417.2287588719108 807.9646017699115,370.030245541569 813.3628318584072,383.22474112771357 818.7610619469027,427.90259235012616 824.1592920353983,443.9415131066304 829.5575221238938,448.5815262085335 834.9557522123894,423.7464678153969 840.3539823008849,456.3051961177604 845.7522123893805,486.5441385465647 851.150442477876,458.25869143795853 856.5486725663717,435.5739655159972 861.9469026548672,423.4766730336426 867.3451327433628,451.5656935881819 872.7433628318583,444.15414986109124 878.141592920354,416.6092269449529 883.5398230088496,430.98147567273816 888.9380530973451,422.2220414979966 894.3362831858408,360.40918665839683 899.7345132743363,312.88921304262595 905.1327433628319,273.38828087213875 910.5309734513274,259.8818551310391 915.9292035398231,231.37873816562615 921.3274336283185,233.8398131151119 926.7256637168141,277.4683831093135 932.1238938053096,281.07822433204973 937.5221238938053,256.3370646250916 942.9203539823009,289.152306028472 948.3185840707964,255.10285070919684 953.716814159292,253.2964794386213 959.1150442477876,278.5936943115665 964.5132743362832,320.75477534104994 969.9115044247787,313.3068525463141 975.3097345132744,312.3039254614425 980.70796460177,381.86951032432734 986.1061946902655,382.12274016694596 991.5044247787611,405.97576288578523 996.9026548672567,404.6619373872556 1002.3008849557523,419.41631662703253 1007.6991150442477,418.03705926857475 1013.0973451327433,423.36398838098063 1018.4955752212389,426.22500137648484 1023.8938053097345,379.15398474205534 1029.29203539823,374.26560417610125 1034.6902654867256,289.2673984419137 1040.0884955752213,302.7169553705307 1045.4867256637167,283.2685042785623 1050.8849557522124,293.8621539783025 1056.283185840708,290.85907168376065 1061.6814159292035,290.94069029521665 1067.0796460176991,319.2120645583741 1072.4778761061948,291.6517359448772 1077.8761061946902,282.792372141696 1083.274336283186,220.64563653765447 1088.6725663716816,171.32785901154273 1094.070796460177,160.1956012817675 1099.4690265486724,203.55925295814302 1104.867256637168,124.89979390406234 1110.2654867256638,109.65256735527691 1115.6637168141592,90.0 1121.0619469026549,139.8107098340273 1126.4601769911503,142.89144499556699 1131.858407079646,96.88712869542928 1137.2566371681417,110.89024130156486 1142.654867256637,161.94155632747265 1148.0530973451328,90.30442436685496 1153.4513274336284,177.26550854093364 1158.8495575221239,177.80125295268056 1164.2477876106195,159.78961395297438 1169.6460176991152,170.70331068212454 1175.0442477876106,229.04800862519824 1180.442477876106,266.67307741173533 1185.8407079646017,328.81977488514474 1191.2389380530974,293.9028249400831 1196.6371681415928,294.96129326730676 1202.0353982300885,286.3631104036691 1207.433628318584,302.43864058965266 1212.8318584070796,306.2155208688016 1218.2300884955753,284.55974035844275 1223.6283185840707,288.3937084343495 1229.0265486725664,257.3577986104401 1234.424778761062,302.22235851791066 1239.8230088495575,370.6398176192847 1245.2212389380531,425.8401750053723 1250.6194690265488,424.2694893490643 1256.0176991150443,438.11367404960373 1261.41592920354,441.6952553159852 1266.8141592920354,440.45543407322896 1272.212389380531,419.0919868690448 1277.6106194690265,426.95268836658863 1283.0088495575221,441.5405254141863 1288.4070796460176,433.2629563182782 1293.8053097345132,399.4845199879358 1299.203539823009,386.6570883191403 1304.6017699115043,383.2420905945628 1310.0,380.3737436814341" fill="none" stroke="#92400e" stroke-width="2.5"><title>budgeted_btc_defensive_eth_aggressive | end=2026-05-02 | return=56.45%</title></polyline>
<polyline points="90.0,541.9218727323428 95.39823008849558,559.5897847860887 100.79646017699115,550.7224444357544 106.19469026548673,595.3825263705725 111.5929203539823,581.2478157253524 116.99115044247787,558.4188109923653 122.38938053097345,559.656100353051 127.78761061946904,570.7704986722498 133.1858407079646,572.6392420177483 138.58407079646017,576.1804220255615 143.98230088495575,581.2923416092596 149.38053097345133,558.0558415414171 154.7787610619469,544.9320156073887 160.17699115044246,530.6974806700525 165.57522123893807,545.1994095802021 170.97345132743362,558.3898958505018 176.3716814159292,565.2908022018628 181.76991150442478,577.4691482145427 187.16814159292034,586.5965894402444 192.56637168141594,622.3392193064755 197.9646017699115,627.1456242426182 203.3628318584071,635.4379193237779 208.76106194690266,632.6520458447224 214.15929203539824,648.0340502994142 219.5575221238938,696.5532253918756 224.9557522123894,677.6669648797764 230.35398230088495,692.4004008931742 235.75221238938053,678.3034248985881 241.1504424778761,672.5204618740446 246.5486725663717,659.686060326208 251.94690265486727,649.3843482318439 257.3451327433628,651.751222696717 262.7433628318584,634.6521615180261 268.141592920354,661.6381263408847 273.53982300884957,668.5946809570665 278.9380530973451,666.4251191852788 284.33628318584067,651.5208859125166 289.7345132743363,668.9767792894589 295.1327433628319,679.1687210385562 300.53097345132744,678.1639881940422 305.929203539823,677.660593741954 311.3274336283186,680.5861515083727 316.7256637168142,678.3803405430726 322.12389380530976,659.3734106509675 327.5221238938053,657.5566932474113 332.92035398230087,687.8786535690524 338.3185840707965,689.9130477387203 343.716814159292,691.1813655731925 349.1150442477876,688.1072128352026 354.5132743362832,686.1623401608826 359.9115044247788,690.8773004303836 365.30973451327435,689.1714224551636 370.7079646017699,691.333631994975 376.1061946902655,686.8358076383461 381.50442477876106,660.5817007468411 386.9026548672566,651.2188433924697 392.3008849557522,652.8464822599315 397.6991150442478,647.7329344464101 403.0973451327434,657.8777350620063 408.49557522123894,642.5292523415774 413.89380530973455,651.3240906944133 419.29203539823004,655.023176006453 424.69026548672565,664.015588985696 430.0884955752212,631.7321102458448 435.4867256637168,631.0801589063008 440.8849557522124,624.6956791660457 446.283185840708,624.9157922026822 451.6814159292036,607.3029622995338 457.07964601769913,624.0123909192379 462.4778761061947,618.3442568159782 467.87610619469024,619.7340324743049 473.27433628318585,630.3977444401751 478.6725663716814,628.3987253829588 484.070796460177,628.6490913870811 489.46902654867256,625.3208175621833 494.86725663716817,635.0276786308682 500.2654867256637,634.1913625447573 505.6637168141593,615.6678133799564 511.0619469026548,613.3906119018591 516.4601769911504,616.8487210363838 521.858407079646,613.8349786931802 527.2566371681417,618.1781084461514 532.6548672566372,618.7882622417785 538.0530973451328,621.7207325960899 543.4513274336284,620.0237827046584 548.8495575221239,637.495978750238 554.2477876106195,638.8056904151331 559.646017699115,639.6460488005936 565.0442477876106,639.6364328676358 570.4424778761062,637.6952925668146 575.8407079646017,639.5651570785791 581.2389380530974,634.8704508712759 586.637168141593,633.6456246775869 592.0353982300885,640.5742398379068 597.433628318584,628.3945496015938 602.8318584070796,609.8892813732541 608.2300884955752,603.299862939729 613.6283185840708,588.4013320598908 619.0265486725664,594.1031039502029 624.4247787610619,585.2534641982658 629.8230088495576,577.0971808369519 635.221238938053,558.0360824881723 640.6194690265487,567.0661780607452 646.0176991150443,559.5139205850734 651.4159292035398,564.2963883168737 656.8141592920354,561.9699672638712 662.212389380531,549.0291798667193 667.6106194690266,556.8527773266867 673.0088495575221,564.6797565110805 678.4070796460177,561.1702265542193 683.8053097345132,539.8057162304065 689.2035398230088,517.0497797266631 694.6017699115044,507.94836441365044 700.0,463.1792162786217 705.3982300884956,426.4792783032228 710.7964601769912,450.7469089143287 716.1946902654868,461.77485675901914 721.5929203539823,441.0555339061058 726.9911504424779,449.4283681091808 732.3893805309735,475.5310256937403 737.7876106194691,466.79099260585565 743.1858407079646,465.8379486446469 748.5840707964601,470.8749642723991 753.9823008849557,487.16055969632066 759.3805309734513,463.65735771996765 764.7787610619469,429.4162577881373 770.1769911504424,430.1388394884034 775.5752212389381,432.16396453357055 780.9734513274336,444.2205819583439 786.3716814159292,451.86175924360805 791.7699115044248,464.8526744880067 797.1681415929204,484.2478552074145 802.566371681416,477.13165869501074 807.9646017699115,443.2703984798887 813.3628318584072,453.40474392413046 818.7610619469027,485.43343098236653 824.1592920353983,498.2691767270179 829.5575221238938,501.2613716001779 834.9557522123894,483.34404767814453 840.3539823008849,507.37723591589145 845.7522123893805,529.9023731461966 851.150442477876,509.61538713638527 856.5486725663717,492.24740191746116 861.9469026548672,483.6707939509638 867.3451327433628,505.20740299898273 872.7433628318583,499.60323391721784 878.141592920354,479.69754138709095 883.5398230088496,491.3683245952974 888.9380530973451,485.84247106842923 894.3362831858408,436.6885624149933 899.7345132743363,408.1992508865183 905.1327433628319,380.43988880060226 910.5309734513274,366.613653448481 915.9292035398231,344.97209520895524 921.3274336283185,348.66583631017056 926.7256637168141,383.04461487626196 932.1238938053096,383.83372355476223 937.5221238938053,364.66326996882987 942.9203539823009,390.7143871860875 948.3185840707964,371.16413065828556 953.716814159292,369.8551216015443 959.1150442477876,388.15620911771623 964.5132743362832,422.33906109373237 969.9115044247787,416.83749548114884 975.3097345132744,414.3842300143737 980.70796460177,465.17471712680293 986.1061946902655,465.7004110107894 991.5044247787611,485.8855182233101 996.9026548672567,483.8302654239993 1002.3008849557523,496.34376405088375 1007.6991150442477,496.4823664759424 1013.0973451327433,505.2439292539706 1018.4955752212389,507.8825017153348 1023.8938053097345,477.0278952820737 1029.29203539823,474.2658910481272 1034.6902654867256,403.01367125503515 1040.0884955752213,413.29911031439974 1045.4867256637167,402.165155307466 1050.8849557522124,407.2592895657778 1056.283185840708,405.9206717436179 1061.6814159292035,405.7745770307825 1067.0796460176991,426.76838703119347 1072.4778761061948,408.97389867738195 1077.8761061946902,402.0834124154761 1083.274336283186,358.43793013330406 1088.6725663716816,314.85654864290206 1094.070796460177,305.6084271077023 1099.4690265486724,335.4877731305059 1104.867256637168,277.8627616970632 1110.2654867256638,267.1691250838288 1115.6637168141592,252.44021185798823 1121.0619469026549,285.40360109929816 1126.4601769911503,287.71679114669166 1131.858407079646,256.5567388376364 1137.2566371681417,266.23075046287386 1142.654867256637,301.1606625818013 1148.0530973451328,252.37226585502617 1153.4513274336284,312.566429621935 1158.8495575221239,311.8547433338129 1164.2477876106195,299.9558484507167 1169.6460176991152,307.40671284469335 1175.0442477876106,347.3765846413965 1180.442477876106,372.9887689619207 1185.8407079646017,415.96967739868796 1191.2389380530974,391.31899469444636 1196.6371681415928,391.4787521714121 1202.0353982300885,385.17721051287526 1207.433628318584,396.88248515359754 1212.8318584070796,399.61917965463834 1218.2300884955753,383.8175667011813 1223.6283185840707,386.7031445875853 1229.0265486725664,364.4554549317113 1234.424778761062,396.65873505311896 1239.8230088495575,445.7259452064981 1245.2212389380531,485.8142162239429 1250.6194690265488,484.7992732825614 1256.0176991150443,495.6280498420985 1261.41592920354,498.1111584663994 1266.8141592920354,497.2115896838752 1272.212389380531,480.9007412342644 1277.6106194690265,486.2465513069109 1283.0088495575221,497.4121427182039 1288.4070796460176,490.705019517324 1293.8053097345132,464.6360894125737 1299.203539823009,455.1142399602862 1304.6017699115043,453.334371841064 1310.0,451.5150869828063" fill="none" stroke="#0f766e" stroke-width="2.5"><title>static_50_50_rebalance | end=2026-05-02 | return=31.59%</title></polyline>
<polyline points="90.0,541.9218727323428 95.39823008849558,558.9573029536072 100.79646017699115,549.5133694553449 106.19469026548673,598.9655223211133 111.5929203539823,583.2606763473182 116.99115044247787,557.8847379575607 122.38938053097345,559.2551567126281 127.78761061946904,571.7417706624581 133.1858407079646,573.8408272371464 138.58407079646017,577.8084891605112 143.98230088495575,583.5299352377897 149.38053097345133,557.5743574435816 154.7787610619469,542.8497766378889 160.17699115044246,526.799993215334 165.57522123893807,543.2395047863254 170.97345132743362,558.1868114754403 176.3716814159292,565.9813164143729 181.76991150442478,579.6909836019735 187.16814159292034,589.9168908458788 192.56637168141594,629.7655927286102 197.9646017699115,635.0483975820808 203.3628318584071,644.0838102345889 208.76106194690266,641.0687415759968 214.15929203539824,657.6686967586684 219.5575221238938,709.6787541076084 224.9557522123894,690.0306713206348 230.35398230088495,705.3013356043252 235.75221238938053,690.8223115494919 241.1504424778761,684.8724007740616 246.5486725663717,671.6238425418729 251.94690265486727,660.9242088632814 257.3451327433628,663.3992766597513 262.7433628318584,645.4802843797733 268.141592920354,673.9470246575243 273.53982300884957,681.2395874641239 278.9380530973451,678.979327980535 284.33628318584067,663.4819425970214 289.7345132743363,681.7098046771762 295.1327433628319,692.3047675878777 300.53097345132744,691.2669708527986 305.929203539823,690.7486424922913 311.3274336283186,693.757133270816 316.7256637168142,691.4930461948078 322.12389380530976,671.9833810487746 327.5221238938053,670.1053114537297 332.92035398230087,701.5754748076141 338.3185840707965,703.6631395317123 343.716814159292,704.9562896876632 349.1150442477876,701.8339991338382 354.5132743362832,699.8596184349415 359.9115044247788,704.6490744107375 365.30973451327435,702.919442786509 370.7079646017699,705.1115105373146 376.1061946902655,700.5564059184405 381.50442477876106,673.9286541148211 386.9026548672566,664.3355532187408 392.3008849557522,666.016984122423 397.6991150442478,660.7156293953866 403.0973451327434,671.2695368939958 408.49557522123894,655.3316582353893 413.89380530973455,664.5034082455259 419.29203539823004,668.3578026742257 424.69026548672565,677.7112598323105 430.0884955752212,644.2792410910449 435.4867256637168,643.5989434630358 440.8849557522124,636.9026476552896 446.283185840708,637.134120099206 451.6814159292036,619.2232312784602 457.07964601769913,634.5933122797601 462.4778761061947,629.6361908774023 467.87610619469024,630.845603716452 473.27433628318585,640.1467320203622 478.6725663716814,638.4283170794838 484.070796460177,638.5717354557004 489.46902654867256,636.3558110718332 494.86725663716817,641.8676011407184 500.2654867256637,641.2872588078623 505.6637168141593,628.6231801331468 511.0619469026548,627.3105147420623 516.4601769911504,629.1174322537312 521.858407079646,627.6215695492663 527.2566371681417,629.7165426147608 532.6548672566372,630.0081537847419 538.0530973451328,631.401991522261 543.4513274336284,630.5943280228773 548.8495575221239,638.8983820639224 554.2477876106195,639.9448944472485 559.646017699115,640.7516772257442 565.0442477876106,640.7416545561914 570.4424778761062,638.6469771268429 575.8407079646017,640.7025655486185 581.2389380530974,635.4970682785215 586.637168141593,634.1316129815011 592.0353982300885,641.8819883285508 597.433628318584,628.266794643279 602.8318584070796,609.0438055796632 608.2300884955752,602.0392834301445 613.6283185840708,590.2507457448521 619.0265486725664,593.9828999038027 624.4247787610619,588.9074789022674 629.8230088495576,584.5849713451908 635.221238938053,574.91576950837 640.6194690265487,579.3313155642405 646.0176991150443,575.6868787336106 651.4159292035398,577.9627922146722 656.8141592920354,576.8593055622728 662.212389380531,570.7282949802167 667.6106194690266,574.3855301159787 673.0088495575221,578.0463573208402 678.4070796460177,576.3931492767136 683.8053097345132,566.3244079877744 689.2035398230088,555.7948223764049 694.6017699115044,551.695642117927 700.0,531.9481917030968 705.3982300884956,516.394825148601 710.7964601769912,526.2556963413278 716.1946902654868,530.7015462155625 721.5929203539823,520.7451868027459 726.9911504424779,524.4218172200808 732.3893805309735,537.3532091297499 737.7876106194691,532.7036896398927 743.1858407079646,532.1785281906126 748.5840707964601,534.9711867590977 753.9823008849557,544.0780536165914 759.3805309734513,528.92928074739 764.7787610619469,508.22512692039845 770.1769911504424,508.56896730982464 775.5752212389381,509.51409865949734 780.9734513274336,514.6684781000024 786.3716814159292,517.8613600380473 791.7699115044248,523.253285021418 797.1681415929204,534.4146993815497 802.566371681416,528.9290145738885 807.9646017699115,503.2616683203753 813.3628318584072,509.2494642947708 818.7610619469027,528.0947544093283 824.1592920353983,538.2535874686412 829.5575221238938,540.9008600870784 834.9557522123894,524.0748905517279 840.3539823008849,546.1035828562657 845.7522123893805,567.5802215727552 851.150442477876,548.0880417665068 856.5486725663717,531.0745959642761 861.9469026548672,522.6277405376424 867.3451327433628,543.3061154602196 872.7433628318583,537.8638846515805 878.141592920354,518.414667073125 883.5398230088496,529.9295260036972 888.9380530973451,525.4541389072776 894.3362831858408,478.23854152738784 899.7345132743363,458.89765544677516 905.1327433628319,439.9534268545008 910.5309734513274,430.7397851830679 915.9292035398231,419.0312982311019 921.3274336283185,420.8726765790591 926.7256637168141,436.50254661096744 932.1238938053096,436.8932441460814 937.5221238938053,425.99764373374416 942.9203539823009,439.06657984135745 948.3185840707964,428.21288361817807 953.716814159292,427.45459817077756 959.1150442477876,438.2560403022329 964.5132743362832,458.7650390378093 969.9115044247787,454.41872963289734 975.3097345132744,451.53193501539903 980.70796460177,498.2467633075484 986.1061946902655,498.9161398952733 991.5044247787611,519.5503956952724 996.9026548672567,517.0354111919125 1002.3008849557523,529.7803636108301 1007.6991150442477,530.0519842769355 1013.0973451327433,539.1169934207858 1018.4955752212389,541.7833247292308 1023.8938053097345,510.8059494298342 1029.29203539823,508.246170774882 1034.6902654867256,435.94159278991253 1040.0884955752213,446.27173977871234 1045.4867256637167,436.60988208788854 1050.8849557522124,440.4347546834955 1056.283185840708,439.5217607021906 1061.6814159292035,439.27101728952755 1067.0796460176991,460.5099963310349 1072.4778761061948,443.92573020349505 1077.8761061946902,436.8571342541803 1083.274336283186,394.11515851136255 1088.6725663716816,356.071961930813 1094.070796460177,349.7671062974553 1099.4690265486724,366.3641023906333 1104.867256637168,331.4348389630037 1110.2654867256638,325.7494876698828 1115.6637168141592,318.42654047400055 1121.0619469026549,333.7800704619169 1126.4601769911503,334.8621450528439 1131.858407079646,320.5739788499376 1137.2566371681417,324.9440413287561 1142.654867256637,340.6468441270669 1148.0530973451328,314.13242550290107 1153.4513274336284,343.95070942459836 1158.8495575221239,343.51541272403244 1164.2477876106195,334.03406580795905 1169.6460176991152,339.186880475747 1175.0442477876106,365.82842883880795 1180.442477876106,388.36263272394456 1185.8407079646017,430.68627141866773 1191.2389380530974,405.15232479169606 1196.6371681415928,405.3253786180138 1202.0353982300885,398.5457015196839 1207.433628318584,411.2276489610657 1212.8318584070796,414.1984008174226 1218.2300884955753,397.0359086114929 1223.6283185840707,400.1777093152608 1229.0265486725664,375.93358114713806 1234.424778761062,411.1450792289601 1239.8230088495575,464.6429424932745 1245.2212389380531,507.9219835558617 1250.6194690265488,506.8400402973178 1256.0176991150443,518.3080727980755 1261.41592920354,520.9246174289945 1266.8141592920354,519.9796767837233 1272.212389380531,502.8697075690272 1277.6106194690265,508.4903732579296 1283.0088495575221,520.232058598165 1288.4070796460176,513.1931219038607 1293.8053097345132,485.8274001838059 1299.203539823009,475.7862525193236 1304.6017699115043,473.9019893252705 1310.0,471.9719232499028" fill="none" stroke="#dc2626" stroke-width="2.5"><title>target_50_50_with_cash_band | end=2026-05-02 | return=24.44%</title></polyline>
<polyline points="90.0,541.9218727323428 95.39823008849558,555.5502169093543 100.79646017699115,547.5213878782893 106.19469026548673,591.8007526271161 111.5929203539823,577.0799917851785 116.99115044247787,552.6373549161021 122.38938053097345,553.9670157680564 127.78761061946904,566.4181179116923 133.1858407079646,568.5393344500179 138.58407079646017,572.544798533663 143.98230088495575,578.3424460186385 149.38053097345133,551.9806391219848 154.7787610619469,536.9772372964643 160.17699115044246,520.587304283885 165.57522123893807,537.3754646626567 170.97345132743362,552.6429561777832 176.3716814159292,560.604772588359 181.76991150442478,574.5895516103076 187.16814159292034,585.0104865460614 192.56637168141594,625.6040305446445 197.9646017699115,630.9688104727821 203.3628318584071,640.120139065609 208.76106194690266,637.0377269062045 214.15929203539824,653.8669929255121 219.5575221238938,706.8425698964397 224.9557522123894,686.9776408368947 230.35398230088495,702.488182489042 235.75221238938053,687.7645140514359 241.1504424778761,681.7151877387495 246.5486725663717,668.1584893435165 251.94690265486727,657.1827727581648 257.3451327433628,659.6949988145116 262.7433628318584,641.2537336031398 268.141592920354,670.5228699626881 273.53982300884957,677.9796767170313 278.9380530973451,675.6575495177154 284.33628318584067,659.8164651685877 289.7345132743363,678.5029930035081 295.1327433628319,689.3207656361324 300.53097345132744,688.2549692316986 305.929203539823,687.7252004299976 311.3274336283186,690.7915555553024 316.7256637168142,688.4870998167377 322.12389380530976,668.5858417577153 327.5221238938053,666.6717550894886 332.92035398230087,698.8778131594408 338.3185840707965,701.0122453733368 343.716814159292,702.3299654062537 349.1150442477876,699.1476192891475 354.5132743362832,697.1338594789186 359.9115044247788,702.0227370957331 365.30973451327435,700.2603099276139 370.7079646017699,702.4977067156453 376.1061946902655,697.849250811412 381.50442477876106,670.6571969840605 386.9026548672566,660.8436832982187 392.3008849557522,662.5624727369534 397.6991150442478,657.1481089804302 403.0973451327434,667.9476514790415 408.49557522123894,651.6544605236365 413.89380530973455,661.0346124152037 419.29203539823004,664.9759264929893 424.69026548672565,674.5289582324077 430.0884955752212,640.4289890947548 435.4867256637168,639.7253861007732 440.8849557522124,632.8816830731462 446.283185840708,633.1321248232686 451.6814159292036,614.6881582122544 457.07964601769913,631.6405145277394 462.4778761061947,626.3184321207232 467.87610619469024,627.5926446672536 473.27433628318585,637.8285460378215 478.6725663716814,635.8902461585467 484.070796460177,636.0771377359868 489.46902654867256,632.9734569527436 494.86725663716817,641.4076464821646 500.2654867256637,640.6738774261652 505.6637168141593,623.4732834070911 511.0619469026548,621.4922185497251 516.4601769911504,624.3842639076693 521.858407079646,621.9335057372583 527.2566371681417,625.4190419092904 532.6548672566372,625.9060541124741 538.0530973451328,628.2256921552387 543.4513274336284,626.8868501268253 548.8495575221239,640.6489197524145 554.2477876106195,641.8469425427752 559.646017699115,642.6796735379075 565.0442477876106,642.6696752135307 570.4424778761062,640.6029528607876 575.8407079646017,642.622978361086 581.2389380530974,637.5057282875614 586.637168141593,636.1543439777431 592.0353982300885,643.8029130176485 597.433628318584,630.3363848101244 602.8318584070796,610.9960859797561 608.2300884955752,604.0017810386465 613.6283185840708,589.5630458167291 619.0265486725664,594.8009390120312 624.4247787610619,587.1005711431006 629.8230088495576,580.2455277029608 635.221238938053,564.507965939133 640.6194690265487,571.8803962719905 646.0176991150443,565.7731583078148 651.4159292035398,569.6129478675459 656.8141592920354,567.7602053212455 662.212389380531,557.4539019532618 667.6106194690266,563.6828833172962 673.0088495575221,569.9482416867722 678.4070796460177,567.1618867438079 683.8053097345132,550.1933849569614 689.2035398230088,532.1980397660833 694.6017699115044,525.0548950432947 700.0,490.1143396500442 705.3982300884956,461.7484272987812 710.7964601769912,480.29218270431886 716.1946902654868,488.64884606069694 721.5929203539823,471.5415023909155 726.9911504424779,478.1828562413684 732.3893805309735,500.2748633830302 737.7876106194691,492.61490346833193 743.1858407079646,491.7807892034051 748.5840707964601,496.37020491627084 753.9823008849557,511.3073912904772 759.3805309734513,489.65911020181477 764.7787610619469,458.0620635653132 770.1769911504424,458.6429529824579 775.5752212389381,460.38825199075166 780.9734513274336,469.94320692728076 786.3716814159292,475.88955600251745 791.7699115044248,485.89742463516365 797.1681415929204,502.1824042083724 802.566371681416,495.5699554189322 807.9646017699115,463.8797643117161 813.3628318584072,472.6954016301315 818.7610619469027,501.6056491327453 824.1592920353983,513.9867966187815 829.5575221238938,517.0295095534151 834.9557522123894,498.51864202414356 840.3539823008849,522.7241478872936 845.7522123893805,545.9608548533051 851.150442477876,524.9780176863638 856.5486725663717,506.66669632459434 861.9469026548672,497.557455022213 867.3451327433628,520.0403304873615 872.7433628318583,514.1621934009115 878.141592920354,493.2020362786669 883.5398230088496,505.65519547878546 888.9380530973451,500.6727738658027 894.3362831858408,449.55404803698366 899.7345132743363,424.3138400663552 905.1327433628319,397.2687844373321 910.5309734513274,383.2758127714268 915.9292035398231,363.611688395526 921.3274336283185,366.94003008275877 926.7256637168141,395.5479556212227 932.1238938053096,396.221547968814 937.5221238938053,378.6030873322136 942.9203539823009,401.227079876041 948.3185840707964,383.4396393584247 953.716814159292,382.21622345076725 959.1150442477876,399.5966435979979 964.5132743362832,432.2799129040217 969.9115044247787,426.8515038728131 975.3097345132744,423.7838318327097 980.70796460177,475.3494177990287 986.1061946902655,476.0464028791847 991.5044247787611,497.96025151983577 996.9026548672567,495.3389564300561 1002.3008849557523,508.8481302707011 1007.6991150442477,509.16330676841596 1013.0973451327433,518.842276739819 1018.4955752212389,521.6646517795343 1023.8938053097345,488.7615291836298 1029.29203539823,485.9825815736036 1034.6902654867256,408.90956347350766 1040.0884955752213,420.0514340395492 1045.4867256637167,409.60033123866117 1050.8849557522124,413.7343073759576 1056.283185840708,412.7527813426935 1061.6814159292035,412.48349899870095 1067.0796460176991,435.2516431309149 1072.4778761061948,417.5253283671267 1077.8761061946902,409.9768495596939 1083.274336283186,364.2638610698277 1088.6725663716816,315.9868321602775 1094.070796460177,306.6077667164725 1099.4690265486724,333.7356458311108 1104.867256637168,278.3194356319732 1110.2654867256638,268.573156657639 1115.6637168141592,255.2806840111537 1121.0619469026549,283.175284359289 1126.4601769911503,285.2294457697089 1131.858407079646,259.4654745264584 1137.2566371681417,267.4517304755367 1142.654867256637,295.98205925651433 1148.0530973451328,252.4343263606679 1153.4513274336284,304.2990628258374 1158.8495575221239,303.69122487422806 1164.2477876106195,291.8532363674945 1169.6460176991152,299.1033800016944 1175.0442477876106,338.56446451368424 1180.442477876106,365.56006990142913 1185.8407079646017,412.28262462308794 1191.2389380530974,385.11382186433957 1196.6371681415928,385.3279802962205 1202.0353982300885,378.23455115915175 1207.433628318584,391.4999193417895 1212.8318584070796,394.6055035704007 1218.2300884955753,376.6632020169335 1223.6283185840707,379.9528263217363 1229.0265486725664,354.57229390799915 1234.424778761062,391.4723623190526 1239.8230088495575,447.459664195574 1245.2212389380531,492.65855145311247 1250.6194690265488,491.5219104681122 1256.0176991150443,503.46641821083085 1261.41592920354,506.20815067271735 1266.8141592920354,505.21942518383344 1272.212389380531,487.32615808166327 1277.6106194690265,493.21928771045793 1283.0088495575221,505.5179433339787 1288.4070796460176,498.1455588411866 1293.8053097345132,469.47652681266914 1299.203539823009,458.9510590409969 1304.6017699115043,456.9867647216183 1310.0,454.9608370013376" fill="none" stroke="#2563eb" stroke-width="2.5"><title>narrow_cash_band_rebalance | end=2026-05-02 | return=30.39%</title></polyline>
<polyline points="90.0,541.9218727323428 95.39823008849558,558.5869946829088 100.79646017699115,549.9628075303381 106.19469026548673,594.8118082803276 111.5929203539823,580.2495937778558 116.99115044247787,556.4307351244253 122.38938053097345,557.7113079535652 127.78761061946904,569.5065951645566 133.1858407079646,571.4571424766742 138.58407079646017,575.2655930608275 143.98230088495575,580.7462928348644 149.38053097345133,555.8490010372414 154.7787610619469,541.7972037727155 160.17699115044246,526.4162274720748 165.57522123893807,542.0336647193101 170.97345132743362,556.2021151321036 176.3716814159292,563.542570615452 181.76991150442478,576.5071229883843 187.16814159292034,586.307470874726 192.56637168141594,624.2242050728573 197.9646017699115,629.5742126408894 203.3628318584071,639.0873623002816 208.76106194690266,635.9405425702325 214.15929203539824,654.1425444852674 219.5575221238938,710.0 224.9557522123894,688.7588821443721 230.35398230088495,705.1544929067646 235.75221238938053,689.7564550939859 241.1504424778761,682.8737305927024 246.5486725663717,668.4173007055913 251.94690265486727,656.8050109423697 257.3451327433628,659.4298827197408 262.7433628318584,639.9990158504579 268.141592920354,670.7722964725666 273.53982300884957,678.6520880519763 278.9380530973451,676.273253156041 284.33628318584067,659.6744443657907 289.7345132743363,679.0660619729033 295.1327433628319,690.4054735659657 300.53097345132744,689.2723358706342 305.929203539823,688.7162859009476 311.3274336283186,691.9436393454112 316.7256637168142,689.5059069801838 322.12389380530976,668.5136730503865 327.5221238938053,666.488158849088 332.92035398230087,700.3956606923427 338.3185840707965,702.6128852593333 343.716814159292,703.9932032695647 349.1150442477876,700.664609643616 354.5132743362832,698.5497815164074 359.9115044247788,703.7337344027703 365.30973451327435,701.8428359335898 370.7079646017699,704.181578491331 376.1061946902655,699.2698189801691 381.50442477876106,670.9113837427265 386.9026548672566,660.6664980144149 392.3008849557522,662.5230971368871 397.6991150442478,656.7262462804543 403.0973451327434,668.1421762101331 408.49557522123894,651.010958038059 413.89380530973455,660.9101252999665 419.29203539823004,665.0263292494673 424.69026548672565,675.0583688040539 430.0884955752212,639.2754505788778 435.4867256637168,638.6758483736518 440.8849557522124,631.5739985450418 446.283185840708,631.5950817401543 451.6814159292036,612.7373820177463 457.07964601769913,630.3856585735706 462.4778761061947,624.6882015045894 467.87610619469024,626.0779551240573 473.27433628318585,636.9573064829618 478.6725663716814,635.002993905917 484.070796460177,635.1878066089907 489.46902654867256,632.2362119135516 494.86725663716817,640.1043691183283 500.2654867256637,639.4075211286327 505.6637168141593,623.2062730226364 511.0619469026548,621.2612273666676 516.4601769911504,624.0291959349559 521.858407079646,621.5914128234193 527.2566371681417,624.8733226556442 532.6548672566372,625.2294617786528 538.0530973451328,627.4204568400928 543.4513274336284,626.1992608389492 548.8495575221239,638.8735346763951 554.2477876106195,639.9806910073391 559.646017699115,640.7126315188788 565.0442477876106,640.7113766529696 570.4424778761062,639.0298737902375 575.8407079646017,640.8592531920324 581.2389380530974,636.3417362758476 586.637168141593,635.5114970084875 592.0353982300885,641.9942654204526 597.433628318584,630.5191153456466 602.8318584070796,613.3065278353381 608.2300884955752,606.9129932952338 613.6283185840708,593.7408140385968 619.0265486725664,598.5136138745673 624.4247787610619,591.5447355085678 629.8230088495576,585.4090952260809 635.221238938053,571.321065854311 640.6194690265487,577.9257328141657 646.0176991150443,572.44924315828 651.4159292035398,575.8710476020469 656.8141592920354,574.2105192373036 662.212389380531,564.7062637647517 667.6106194690266,570.2708144451192 673.0088495575221,575.6045202438022 678.4070796460177,573.0857351866375 683.8053097345132,557.7993996217828 689.2035398230088,541.5480954947834 694.6017699115044,535.0366172052003 700.0,503.89097293966506 705.3982300884956,478.755021962414 710.7964601769912,495.0725017950764 716.1946902654868,502.4761821595086 721.5929203539823,487.23093472251105 726.9911504424779,493.34610573186797 732.3893805309735,513.5068582353178 737.7876106194691,505.6859776914048 743.1858407079646,504.1510530003685 748.5840707964601,508.94630550942657 753.9823008849557,522.8101587830456 759.3805309734513,502.2774900598234 764.7787610619469,470.06649331901303 770.1769911504424,470.17255058617906 775.5752212389381,472.0347036610985 780.9734513274336,480.5025911670306 786.3716814159292,485.7762248512855 791.7699115044248,494.67415520523434 797.1681415929204,509.627633670356 802.566371681416,503.7911038226483 807.9646017699115,475.5611637324039 813.3628318584072,483.75856740242625 818.7610619469027,509.7326764673476 824.1592920353983,522.3968881824289 829.5575221238938,524.7476895118851 834.9557522123894,508.00326250394187 840.3539823008849,531.555473809557 845.7522123893805,553.7968655929569 851.150442477876,534.9597962025391 856.5486725663717,517.4353941849648 861.9469026548672,509.46256129137385 867.3451327433628,531.8037973853377 872.7433628318583,526.1285684611822 878.141592920354,507.0833926367534 883.5398230088496,520.0654221541679 888.9380530973451,515.7771942492926 894.3362831858408,462.15516987493766 899.7345132743363,442.739399510351 905.1327433628319,417.7146022737128 910.5309734513274,402.07883564504624 915.9292035398231,383.7018605780628 921.3274336283185,387.19763122616797 926.7256637168141,413.17882851404704 932.1238938053096,413.31954787034766 937.5221238938053,396.9480871484693 942.9203539823009,417.5647032479937 948.3185840707964,402.5130048273468 953.716814159292,401.38457224811975 959.1150442477876,417.5242703094266 964.5132743362832,449.76041326516014 969.9115044247787,444.3703895474136 975.3097345132744,440.7387192839095 980.70796460177,493.38792184219255 986.1061946902655,494.175884527456 991.5044247787611,517.3068445064329 996.9026548672567,514.1474250698416 1002.3008849557523,529.803546372393 1007.6991150442477,530.9062696216795 1013.0973451327433,545.0178217570858 1018.4955752212389,548.526151423536 1023.8938053097345,515.7796997835502 1029.29203539823,513.2168852167752 1034.6902654867256,419.89873532038524 1040.0884955752213,432.6489506412517 1045.4867256637167,422.4912913279896 1050.8849557522124,425.95061737911806 1056.283185840708,425.18360598746574 1061.6814159292035,424.82413469439206 1067.0796460176991,449.5547112390725 1072.4778761061948,431.1573039083954 1077.8761061946902,422.82190017642154 1083.274336283186,373.74578328702535 1088.6725663716816,316.0497290428754 1094.070796460177,305.6759533016459 1099.4690265486724,332.47366793206197 1104.867256637168,276.1227393231392 1110.2654867256638,266.7661474611392 1115.6637168141592,253.99007292235694 1121.0619469026549,279.7075567529724 1126.4601769911503,281.4816274797067 1131.858407079646,257.6575763244451 1137.2566371681417,264.9261977639546 1142.654867256637,291.2918426909096 1148.0530973451328,250.0559441539619 1153.4513274336284,299.0301543893438 1158.8495575221239,297.4574235116943 1164.2477876106195,286.87427671873957 1169.6460176991152,293.93450552616173 1175.0442477876106,332.54925576928196 1180.442477876106,358.5322588259298 1185.8407079646017,403.85753492366035 1191.2389380530974,377.4183371231409 1196.6371681415928,376.9233257141307 1202.0353982300885,369.8021660567846 1207.433628318584,383.0123506030644 1212.8318584070796,386.07968389201847 1218.2300884955753,368.28200173355407 1223.6283185840707,371.6450778938912 1229.0265486725664,346.8530279495502 1234.424778761062,383.1035336328752 1239.8230088495575,437.83391916249104 1245.2212389380531,481.9157843302333 1250.6194690265488,480.902848950451 1256.0176991150443,494.0267102261061 1261.41592920354,496.7426643488789 1266.8141592920354,495.71576741272014 1272.212389380531,476.24742998644047 1277.6106194690265,482.04196002396395 1283.0088495575221,495.5678903909869 1288.4070796460176,487.12185423284245 1293.8053097345132,455.46713444502444 1299.203539823009,444.1124273302725 1304.6017699115043,442.78758026918507 1310.0,440.9181796151085" fill="none" stroke="#7c3aed" stroke-width="2.5"><title>drawdown_tilt_rebalance | end=2026-05-02 | return=35.29%</title></polyline>
<polyline points="90.0,541.9218727323428 95.39823008849558,558.6768440545643 100.79646017699115,551.1505127225431 106.19469026548673,589.0162325381295 111.5929203539823,576.3011554896539 116.99115044247787,556.6071360186198 122.38938053097345,556.8075566114277 127.78761061946904,567.1265337449463 133.1858407079646,569.4432205720713 138.58407079646017,571.8673755715763 143.98230088495575,576.3086895719194 149.38053097345133,555.3469370380328 154.7787610619469,543.1331466396255 160.17699115044246,531.0703492027424 165.57522123893807,545.0052980315513 170.97345132743362,557.2848563043555 176.3716814159292,563.3982780553507 181.76991150442478,574.3850172076852 187.16814159292034,583.4574827237143 192.56637168141594,615.936742100388 197.9646017699115,620.2314142705592 203.3628318584071,626.9505279773258 208.76106194690266,623.9290752766019 214.15929203539824,637.2895169793627 219.5575221238938,684.8199474240316 224.9557522123894,667.3082334516599 230.35398230088495,681.4154304642605 235.75221238938053,667.5691896142416 241.1504424778761,663.3934833495631 246.5486725663717,651.6919812605674 251.94690265486727,642.0909055521173 257.3451327433628,644.748898998854 262.7433628318584,629.4464606918178 268.141592920354,654.6035916042947 273.53982300884957,661.3650629935865 278.9380530973451,659.9081695122578 284.33628318584067,646.021358687844 289.7345132743363,661.5687906007079 295.1327433628319,670.9969119752419 300.53097345132744,669.7174194246002 305.929203539823,669.1923530813822 311.3274336283186,671.9247108272157 316.7256637168142,670.016791020998 322.12389380530976,653.0177255899973 327.5221238938053,650.9983925623247 332.92035398230087,680.4482093243785 338.3185840707965,682.174272875095 343.716814159292,683.4690665574171 349.1150442477876,680.4811262217148 354.5132743362832,678.6354417809272 359.9115044247788,682.8082656714234 365.30973451327435,681.3902459677648 370.7079646017699,683.5008386727922 376.1061946902655,679.4029009828213 381.50442477876106,653.3686740291856 386.9026548672566,643.607591316834 392.3008849557522,644.5897308369598 397.6991150442478,640.1933605483999 403.0973451327434,649.9702218940611 408.49557522123894,634.519626775745 413.89380530973455,643.2094817430328 419.29203539823004,647.0870200990196 424.69026548672565,656.2279896640346 430.0884955752212,623.1595899995943 435.4867256637168,622.0367762770491 440.8849557522124,615.8733154760714 446.283185840708,616.6438367164177 451.6814159292036,599.2590980559105 457.07964601769913,616.546702330289 462.4778761061947,609.8688572865675 467.87610619469024,611.5173009533934 473.27433628318585,623.5363957554832 478.6725663716814,621.3702195996389 484.070796460177,621.9051724686517 489.46902654867256,618.7105483956391 494.86725663716817,628.828268976604 500.2654867256637,627.9205450982005 505.6637168141593,607.3488514505348 511.0619469026548,605.0082587235645 516.4601769911504,608.5853643751965 521.858407079646,605.7701754250496 527.2566371681417,610.2852227784754 532.6548672566372,611.3400912513152 538.0530973451328,614.3243671027268 543.4513274336284,612.3697715601019 548.8495575221239,631.9045488747023 554.2477876106195,633.1044204370271 559.646017699115,633.9498912832114 565.0442477876106,633.9078318396496 570.4424778761062,631.6180127602707 575.8407079646017,633.0646590376375 581.2389380530974,628.9889059962468 586.637168141593,626.9035428921272 592.0353982300885,633.5201391880648 597.433628318584,620.6815424589422 602.8318584070796,600.7999981998851 608.2300884955752,594.0877412798942 613.6283185840708,578.9075753084064 619.0265486725664,584.5050234771973 624.4247787610619,575.35741377198 629.8230088495576,566.2627571074494 635.221238938053,544.5850151057849 640.6194690265487,554.2864494911511 646.0176991150443,545.8998059012413 651.4159292035398,551.9279271829138 656.8141592920354,547.8004194191753 662.212389380531,537.5514946150604 667.6106194690266,545.9861864075474 673.0088495575221,553.8921686454235 678.4070796460177,549.9639407405693 683.8053097345132,526.0416220752144 689.2035398230088,501.3515707009486 694.6017699115044,492.9836374692942 700.0,442.36756958134896 705.3982300884956,401.5683952795983 710.7964601769912,428.60929728056675 716.1946902654868,440.91524101263406 721.5929203539823,417.0339300626177 726.9911504424779,425.64812413311176 732.3893805309735,454.2862725527762 737.7876106194691,445.3924560910947 743.1858407079646,445.9977396353608 748.5840707964601,450.10258111746555 753.9823008849557,467.85980321412626 759.3805309734513,440.6239690716055 764.7787610619469,407.45158010560743 770.1769911504424,409.6590355233434 775.5752212389381,409.925579317681 780.9734513274336,423.9509967655332 786.3716814159292,432.6917794718521 791.7699115044248,447.4095664811099 797.1681415929204,470.1922370738673 802.566371681416,462.6392195703957 807.9646017699115,425.5216225934309 813.3628318584072,437.81720557350815 818.7610619469027,473.30375081001034 824.1592920353983,485.20770686079743 829.5575221238938,488.76322766042017 834.9557522123894,470.4190475564412 840.3539823008849,495.1585134114068 845.7522123893805,517.6431847928956 851.150442477876,496.4085776975163 856.5486725663717,479.8239426440289 861.9469026548672,470.9751217704128 867.3451327433628,492.06991848576683 872.7433628318583,486.58806717448334 878.141592920354,466.4281753338056 883.5398230088496,477.27812374248214 888.9380530973451,470.50562430248283 894.3362831858408,421.53334764557457 899.7345132743363,384.30227017176355 905.1327433628319,353.49821918151093 910.5309734513274,342.318446258182 915.9292035398231,319.95105750787314 921.3274336283185,322.0426725504716 926.7256637168141,356.52014914148623 932.1238938053096,359.0225331498161 937.5221238938053,339.2617827157634 942.9203539823009,365.7085948957541 948.3185840707964,339.8598509851151 953.716814159292,338.43596153920333 959.1150442477876,358.2985348425335 964.5132743362832,392.4488176219243 969.9115044247787,386.59879409085715 975.3097345132744,385.21878047380613 980.70796460177,439.5170532336883 986.1061946902655,439.83835983704455 991.5044247787611,459.45571713946424 996.9026548672567,458.00823995210123 1002.3008849557523,469.66361081525406 1007.6991150442477,469.142288523518 1013.0973451327433,475.09378752868844 1018.4955752212389,477.3749978003964 1023.8938053097345,445.87327322697155 1029.29203539823,442.69190349468533 1034.6902654867256,373.50425742529984 1040.0884955752213,383.96114984294564 1045.4867256637167,370.61313361957946 1050.8849557522124,377.4686087823013 1056.283185840708,375.55758311234587 1061.6814159292035,375.5332030801672 1067.0796460176991,397.092462379707 1072.4778761061948,377.136605905003 1077.8761061946902,370.2111061213973 1083.274336283186,323.7059045601678 1088.6725663716816,279.6137978309387 1094.070796460177,269.7109594745268 1099.4690265486724,303.32362196692685 1104.867256637168,238.72624637614672 1110.2654867256638,226.5554188495077 1115.6637168141592,209.58040753842533 1121.0619469026549,247.33388722959006 1126.4601769911503,250.05810303665834 1131.858407079646,214.5569741984679 1137.2566371681417,225.63581566562812 1142.654867256637,265.4755999658996 1148.0530973451328,210.05984669948015 1153.4513274336284,278.58487229115326 1158.8495575221239,277.88436238813483 1164.2477876106195,264.82254070744807 1169.6460176991152,273.48665979539743 1175.0442477876106,318.64267028653586 1180.442477876106,346.2235841626255 1185.8407079646017,390.6680856314207 1191.2389380530974,365.7615947352205 1196.6371681415928,366.98226237319466 1202.0353982300885,361.1435151353308 1207.433628318584,372.00206035681396 1212.8318584070796,374.58059530913306 1218.2300884955753,359.85874887731063 1223.6283185840707,362.3172744049518 1229.0265486725664,341.0203448343384 1234.424778761062,371.1843833409488 1239.8230088495575,418.07447991110405 1245.2212389380531,457.1707535040098 1250.6194690265488,455.92970262871336 1256.0176991150443,466.0455704385849 1261.41592920354,468.83889862450417 1266.8141592920354,467.87698369104163 1272.212389380531,451.4578833437707 1277.6106194690265,457.66089042715157 1283.0088495575221,468.81589868568847 1288.4070796460176,462.5780125972099 1293.8053097345132,436.6915735258901 1299.203539823009,426.81968680919124 1304.6017699115043,423.84963995822983 1310.0,421.55429262750783" fill="none" stroke="#b45309" stroke-width="2.5"><title>btc_defensive_eth_aggressive | end=2026-05-02 | return=42.06%</title></polyline>
</svg>