<svg xmlns="http://www.w3.org/2000/svg" width="1400" height="800">
<rect width="1400" height="800" fill="#f8fafc"/>
<text x="700.0" y="42" text-anchor="middle" font-family="monospace" font-size="24" fill="#0f172a">btc_defensive_eth_aggressive | weekly | start=2024-04-01 | return=1.13%</text>
<line x1="90" y1="420" x2="1310" y2="420" stroke="#334155" stroke-width="2"/>
<line x1="90" y1="90" x2="90" y2="420" stroke="#334155" stroke-width="2"/>
<line x1="90.0" y1="420" x2="90.0" y2="90" stroke="#94a3b8" stroke-width="1.2"/>
<line x1="90.0" y1="605" x2="90.0" y2="480" stroke="#94a3b8" stroke-width="1.2"/>
<line x1="90.0" y1="770" x2="90.0" y2="645" stroke="#94a3b8" stroke-width="1.2"/>
<text x="90.0" y="788" text-anchor="middle" font-family="monospace" font-size="11" fill="#334155">2024-04</text>
<line x1="145.96330275229357" y1="420" x2="145.96330275229357" y2="90" stroke="#94a3b8" stroke-width="1.2"/>
<line x1="145.96330275229357" y1="605" x2="145.96330275229357" y2="480" stroke="#94a3b8" stroke-width="1.2"/>
<line x1="145.96330275229357" y1="770" x2="145.96330275229357" y2="645" stroke="#94a3b8" stroke-width="1.2"/>
<text x="145.96330275229357" y="788" text-anchor="middle" font-family="monospace" font-size="11" fill="#334155">2024-05</text>
<line x1="190.73394495412845" y1="420" x2="190.73394495412845" y2="90" stroke="#94a3b8" stroke-width="1.2"/>
<line x1="190.73394495412845" y1="605" x2="190.73394495412845" y2="480" stroke="#94a3b8" stroke-width="1.2"/>
<line x1="190.73394495412845" y1="770" x2="190.73394495412845" y2="645" stroke="#94a3b8" stroke-width="1.2"/>
<text x="190.73394495412845" y="788" text-anchor="middle" font-family="monospace" font-size="11" fill="#334155">2024-06</text>
<line x1="235.50458715596332" y1="420" x2="235.50458715596332" y2="90" stroke="#94a3b8" stroke-width="1.2"/>
<line x1="235.50458715596332" y1="605" x2="235.50458715596332" y2="480" stroke="#94a3b8" stroke-width="1.2"/>
<line x1="235.50458715596332" y1="770" x2="235.50458715596332" y2="645" stroke="#94a3b8" stroke-width="1.2"/>
<text x="235.50458715596332" y="788" text-anchor="middle" font-family="monospace" font-size="11" fill="#334155">2024-07</text>
<line x1="291.4678899082569" y1="420" x2="291.4678899082569" y2="90" stroke="#94a3b8" stroke-width="1.2"/>
<line x1="291.4678899082569" y1="605" x2="291.4678899082569" y2="480" stroke="#94a3b8" stroke-width="1.2"/>
<line x1="291.4678899082569" y1="770" x2="291.4678899082569" y2="645" stroke="#94a3b8" stroke-width="1.2"/>
<text x="291.4678899082569" y="788" text-anchor="middle" font-family="monospace" font-size="11" fill="#334155">2024-08</text>
<line x1="336.2385321100918" y1="420" x2="336.2385321100918" y2="90" stroke="#94a3b8" stroke-width="1.2"/>
<line x1="336.2385321100918" y1="605" x2="336.2385321100918" y2="480" stroke="#94a3b8" stroke-width="1.2"/>
<line x1="336.2385321100918" y1="770" x2="336.2385321100918" y2="645" stroke="#94a3b8" stroke-width="1.2"/>
<text x="336.2385321100918" y="788" text-anchor="middle" font-family="monospace" font-size="11" fill="#334155">2024-09</text>
<line x1="392.20183486238534" y1="420" x2="392.20183486238534" y2="90" stroke="#94a3b8" stroke-width="1.2"/>
<line x1="392.20183486238534" y1="605" x2="392.20183486238534" y2="480" stroke="#94a3b8" stroke-width="1.2"/>
<line x1="392.20183486238534" y1="770" x2="392.20183486238534" y2="645" stroke="#94a3b8" stroke-width="1.2"/>
<text x="392.20183486238534" y="788" text-anchor="middle" font-family="monospace" font-size="11" fill="#334155">2024-10</text>
<line x1="436.9724770642202" y1="420" x2="436.9724770642202" y2="90" stroke="#94a3b8" stroke-width="1.2"/>
<line x1="436.9724770642202" y1="605" x2="436.9724770642202" y2="480" stroke="#94a3b8" stroke-width="1.2"/>
<line x1="436.9724770642202" y1="770" x2="436.9724770642202" y2="645" stroke="#94a3b8" stroke-width="1.2"/>
<text x="436.9724770642202" y="788" text-anchor="middle" font-family="monospace" font-size="11" fill="#334155">2024-11</text>
<line x1="481.7431192660551" y1="420" x2="481.7431192660551" y2="90" stroke="#94a3b8" stroke-width="1.2"/>
<line x1="481.7431192660551" y1="605" x2="481.7431192660551" y2="480" stroke="#94a3b8" stroke-width="1.2"/>
<line x1="481.7431192660551" y1="770" x2="481.7431192660551" y2="645" stroke="#94a3b8" stroke-width="1.2"/>
<text x="481.7431192660551" y="788" text-anchor="middle" font-family="monospace" font-size="11" fill="#334155">2024-12</text>
<line x1="537.7064220183486" y1="420" x2="537.7064220183486" y2="90" stroke="#94a3b8" stroke-width="1.2"/>
<line x1="537.7064220183486" y1="605" x2="537.7064220183486" y2="480" stroke="#94a3b8" stroke-width="1.2"/>
<line x1="537.7064220183486" y1="770" x2="537.7064220183486" y2="645" stroke="#94a3b8" stroke-width="1.2"/>
<text x="537.7064220183486" y="788" text-anchor="middle" font-family="monospace" font-size="11" fill="#334155">2025-01</text>
<line x1="582.4770642201836" y1="420" x2="582.4770642201836" y2="90" stroke="#94a3b8" stroke-width="1.2"/>
<line x1="582.4770642201836" y1="605" x2="582.4770642201836" y2="480" stroke="#94a3b8" stroke-width="1.2"/>
<line x1="582.4770642201836" y1="770" x2="582.4770642201836" y2="645" stroke="#94a3b8" stroke-width="1.2"/>
<text x="582.4770642201836" y="788" text-anchor="middle" font-family="monospace" font-size="11" fill="#334155">2025-02</text>
<line x1="627.2477064220184" y1="420" x2="627.2477064220184" y2="90" stroke="#94a3b8" stroke-width="1.2"/>
<line x1="627.2477064220184" y1="605" x2="627.2477064220184" y2="480" stroke="#94a3b8" stroke-width="1.2"/>
<line x1="627.2477064220184" y1="770" x2="627.2477064220184" y2="645" stroke="#94a3b8" stroke-width="1.2"/>
<text x="627.2477064220184" y="788" text-anchor="middle" font-family="monospace" font-size="11" fill="#334155">2025-03</text>
<line x1="683.2110091743119" y1="420" x2="683.2110091743119" y2="90" stroke="#94a3b8" stroke-width="1.2"/>
<line x1="683.2110091743119" y1="605" x2="683.2110091743119" y2="480" stroke="#94a3b8" stroke-width="1.2"/>
<line x1="683.2110091743119" y1="770" x2="683.2110091743119" y2="645" stroke="#94a3b8" stroke-width="1.2"/>
<text x="683.2110091743119" y="788" text-anchor="middle" font-family="monospace" font-size="11" fill="#334155">2025-04</text>
<line x1="727.9816513761467" y1="420" x2="727.9816513761467" y2="90" stroke="#94a3b8" stroke-width="1.2"/>
<line x1="727.9816513761467" y1="605" x2="727.9816513761467" y2="480" stroke="#94a3b8" stroke-width="1.2"/>
<line x1="727.9816513761467" y1="770" x2="727.9816513761467" y2="645" stroke="#94a3b8" stroke-width="1.2"/>
<text x="727.9816513761467" y="788" text-anchor="middle" font-family="monospace" font-size="11" fill="#334155">2025-05</text>
<line x1="772.7522935779816" y1="420" x2="772.7522935779816" y2="90" stroke="#94a3b8" stroke-width="1.2"/>
<line x1="772.7522935779816" y1="605" x2="772.7522935779816" y2="480" stroke="#94a3b8" stroke-width="1.2"/>
<line x1="772.7522935779816" y1="770" x2="772.7522935779816" y2="645" stroke="#94a3b8" stroke-width="1.2"/>
<text x="772.7522935779816" y="788" text-anchor="middle" font-family="monospace" font-size="11" fill="#334155">2025-06</text>
<line x1="828.7155963302753" y1="420" x2="828.7155963302753" y2="90" stroke="#94a3b8" stroke-width="1.2"/>
<line x1="828.7155963302753" y1="605" x2="828.7155963302753" y2="480" stroke="#94a3b8" stroke-width="1.2"/>
<line x1="828.7155963302753" y1="770" x2="828.7155963302753" y2="645" stroke="#94a3b8" stroke-width="1.2"/>
<text x="828.7155963302753" y="788" text-anchor="middle" font-family="monospace" font-size="11" fill="#334155">2025-07</text>
<line x1="873.4862385321102" y1="420" x2="873.4862385321102" y2="90" stroke="#94a3b8" stroke-width="1.2"/>
<line x1="873.4862385321102" y1="605" x2="873.4862385321102" y2="480" stroke="#94a3b8" stroke-width="1.2"/>
<line x1="873.4862385321102" y1="770" x2="873.4862385321102" y2="645" stroke="#94a3b8" stroke-width="1.2"/>
<text x="873.4862385321102" y="788" text-anchor="middle" font-family="monospace" font-size="11" fill="#334155">2025-08</text>
<line x1="918.256880733945" y1="420" x2="918.256880733945" y2="90" stroke="#94a3b8" stroke-width="1.2"/>
<line x1="918.256880733945" y1="605" x2="918.256880733945" y2="480" stroke="#94a3b8" stroke-width="1.2"/>
<line x1="918.256880733945" y1="770" x2="918.256880733945" y2="645" stroke="#94a3b8" stroke-width="1.2"/>
<text x="918.256880733945" y="788" text-anchor="middle" font-family="monospace" font-size="11" fill="#334155">2025-09</text>
<line x1="974.2201834862385" y1="420" x2="974.2201834862385" y2="90" stroke="#94a3b8" stroke-width="1.2"/>
<line x1="974.2201834862385" y1="605" x2="974.2201834862385" y2="480" stroke="#94a3b8" stroke-width="1.2"/>
<line x1="974.2201834862385" y1="770" x2="974.2201834862385" y2="645" stroke="#94a3b8" stroke-width="1.2"/>
<text x="974.2201834862385" y="788" text-anchor="middle" font-family="monospace" font-size="11" fill="#334155">2025-10</text>
<line x1="1018.9908256880734" y1="420" x2="1018.9908256880734" y2="90" stroke="#94a3b8" stroke-width="1.2"/>
<line x1="1018.9908256880734" y1="605" x2="1018.9908256880734" y2="480" stroke="#94a3b8" stroke-width="1.2"/>
<line x1="1018.9908256880734" y1="770" x2="1018.9908256880734" y2="645" stroke="#94a3b8" stroke-width="1.2"/>
<text x="1018.9908256880734" y="788" text-anchor="middle" font-family="monospace" font-size="11" fill="#334155">2025-11</text>
<line x1="1063.761467889908" y1="420" x2="1063.761467889908" y2="90" stroke="#94a3b8" stroke-width="1.2"/>
<line x1="1063.761467889908" y1="605" x2="1063.761467889908" y2="480" stroke="#94a3b8" stroke-width="1.2"/>
<line x1="1063.761467889908" y1="770" x2="1063.761467889908" y2="645" stroke="#94a3b8" stroke-width="1.2"/>
<text x="1063.761467889908" y="788" text-anchor="middle" font-family="monospace" font-size="11" fill="#334155">2025-12</text>
<line x1="1119.724770642202" y1="420" x2="1119.724770642202" y2="90" stroke="#94a3b8" stroke-width="1.2"/>
<line x1="1119.724770642202" y1="605" x2="1119.724770642202" y2="480" stroke="#94a3b8" stroke-width="1.2"/>
<line x1="1119.724770642202" y1="770" x2="1119.724770642202" y2="645" stroke="#94a3b8" stroke-width="1.2"/>
<text x="1119.724770642202" y="788" text-anchor="middle" font-family="monospace" font-size="11" fill="#334155">2026-01</text>
<line x1="1164.4954128440368" y1="420" x2="1164.4954128440368" y2="90" stroke="#94a3b8" stroke-width="1.2"/>
<line x1="1164.4954128440368" y1="605" x2="1164.4954128440368" y2="480" stroke="#94a3b8" stroke-width="1.2"/>
<line x1="1164.4954128440368" y1="770" x2="1164.4954128440368" y2="645" stroke="#94a3b8" stroke-width="1.2"/>
<text x="1164.4954128440368" y="788" text-anchor="middle" font-family="monospace" font-size="11" fill="#334155">2026-02</text>
<line x1="1209.2660550458716" y1="420" x2="1209.2660550458716" y2="90" stroke="#94a3b8" stroke-width="1.2"/>
<line x1="1209.2660550458716" y1="605" x2="1209.2660550458716" y2="480" stroke="#94a3b8" stroke-width="1.2"/>
<line x1="1209.2660550458716" y1="770" x2="1209.2660550458716" y2="645" stroke="#94a3b8" stroke-width="1.2"/>
<text x="1209.2660550458716" y="788" text-anchor="middle" font-family="monospace" font-size="11" fill="#334155">2026-03</text>
<line x1="1265.2293577981652" y1="420" x2="1265.2293577981652" y2="90" stroke="#94a3b8" stroke-width="1.2"/>
<line x1="1265.2293577981652" y1="605" x2="1265.2293577981652" y2="480" stroke="#94a3b8" stroke-width="1.2"/>
<line x1="1265.2293577981652" y1="770" x2="1265.2293577981652" y2="645" stroke="#94a3b8" stroke-width="1.2"/>
<text x="1265.2293577981652" y="788" text-anchor="middle" font-family="monospace" font-size="11" fill="#334155">2026-04</text>
<line x1="1310.0" y1="420" x2="1310.0" y2="90" stroke="#94a3b8" stroke-width="1.2"/>
<line x1="1310.0" y1="605" x2="1310.0" y2="480" stroke="#94a3b8" stroke-width="1.2"/>
<line x1="1310.0" y1="770" x2="1310.0" y2="645" stroke="#94a3b8" stroke-width="1.2"/>
<text x="1310.0" y="788" text-anchor="middle" font-family="monospace" font-size="11" fill="#334155">2026-05</text>
<line x1="90" y1="420.0" x2="1310" y2="420.0" stroke="#cbd5e1" stroke-width="1"/>
<text x="78" y="424.0" text-anchor="end" font-family="monospace" font-size="12" fill="#475569">0</text>
<line x1="90" y1="354.0" x2="1310" y2="354.0" stroke="#cbd5e1" stroke-width="1"/>
<text x="78" y="358.0" text-anchor="end" font-family="monospace" font-size="12" fill="#475569">3133</text>
<line x1="90" y1="288.0" x2="1310" y2="288.0" stroke="#cbd5e1" stroke-width="1"/>
<text x="78" y="292.0" text-anchor="end" font-family="monospace" font-size="12" fill="#475569">6266</text>
<line x1="90" y1="221.99999999999997" x2="1310" y2="221.99999999999997" stroke="#cbd5e1" stroke-width="1"/>
<text x="78" y="225.99999999999997" text-anchor="end" font-family="monospace" font-size="12" fill="#475569">9399</text>
<line x1="90" y1="156.0" x2="1310" y2="156.0" stroke="#cbd5e1" stroke-width="1"/>
<text x="78" y="160.0" text-anchor="end" font-family="monospace" font-size="12" fill="#475569">12532</text>
<line x1="90" y1="90.0" x2="1310" y2="90.0" stroke="#cbd5e1" stroke-width="1"/>
<text x="78" y="94.0" text-anchor="end" font-family="monospace" font-size="12" fill="#475569">15665</text>
<polygon points="90.0,280.9609700607007 101.19266055045871,323.76116133642597 112.38532110091744,350.38718063557695 123.57798165137615,366.0196601876547 134.77064220183487,375.6242325971949 145.96330275229357,381.62727653762886 157.1559633027523,385.3884997606816 168.348623853211,385.9619226698904 179.54128440366975,386.20908514198766 190.73394495412845,386.5752909761435 201.92660550458714,386.8580700401119 213.1192660550459,387.5055612361239 224.3119266055046,392.5998995192906 235.50458715596332,391.3622401122297 246.69724770642202,384.4199561712042 257.88990825688074,386.2940906793499 269.0825688073395,387.25464465080245 280.27522935779814,388.0780797264608 291.4678899082569,384.35349816933933 302.66055045871565,380.6939976404721 313.8532110091743,378.67389680758527 325.04587155963304,376.912812449562 336.2385321100918,376.64834216192395 347.4311926605505,377.1377006696119 358.6238532110092,377.4143211254538 369.8165137614679,376.1487315702611 381.00917431192664,375.4905431584265 392.20183486238534,375.61819517592807 403.39449541284404,382.1989494621494 414.5871559633028,385.99417094599363 425.7798165137615,388.1956969731232 436.9724770642202,389.9347227132107 448.16513761467894,387.78737908940104 459.35779816513764,386.5985424346726 470.55045871559633,385.38129999645884 481.7431192660551,384.08350116288403 492.9357798165138,383.0872661560233 504.1284403669725,381.39094520326233 515.3211009174313,382.087882748695 526.5137614678899,382.76681645411793 537.7064220183486,381.92095799916683 548.8990825688074,382.8308784183451 560.0917431192661,382.5622647671117 571.2844036697247,382.5574104851829 582.4770642201836,383.06392211065304 593.6697247706422,384.02661827691503 604.862385321101,384.5893273959914 616.0550458715596,385.63192313074836 627.2477064220184,387.28138674535506 638.4403669724771,381.9798153476574 649.6330275229358,377.98530665037293 660.8256880733945,382.7592834442546 672.0183486238533,378.97043496723506 683.2110091743119,377.8980868120434 694.4036697247707,376.45446067319847 705.5963302752293,375.4355075031066 716.7889908256881,381.3065951112758 727.9816513761467,384.8061009685991 739.1743119266056,384.9390289622196 750.3669724770642,384.7674685016906 761.559633027523,384.3372793101183 772.7522935779816,384.22906908935045 783.9449541284404,383.7266995543582 795.137614678899,383.92970579906404 806.3302752293579,384.41292959578834 817.5229357798165,384.4403894420925 828.7155963302753,384.27244874113126 839.9082568807339,382.46909116785616 851.1009174311927,379.9815041425763 862.2935779816513,378.3755579441386 873.4862385321102,377.7611431403526 884.6788990825688,376.15570906580905 895.8715596330276,375.1719284612559 907.0642201834862,374.8702871621638 918.256880733945,374.8641860767376 929.4495412844036,374.68222215714536 940.6422018348625,373.94904969853445 951.8348623853211,374.27024868895876 963.0275229357799,374.3241607824629 974.2201834862385,372.79449646947774 985.4128440366973,373.3187819034072 996.6055045871559,374.4342001157489 1007.7981651376148,374.60773076770386 1018.9908256880734,376.17747217214475 1030.1834862385322,377.22695976306153 1041.3761467889908,370.1361081702396 1052.5688073394494,366.5353078018348 1063.761467889908,365.01998956778965 1074.9541284403672,362.7497000679148 1086.1467889908258,362.28986066744153 1097.3394495412845,361.65191633360485 1108.532110091743,361.61998155641487 1119.724770642202,360.0882818595452 1130.9174311926606,359.80632087300904 1142.1100917431193,359.24714351968663 1153.302752293578,360.03898996867923 1164.4954128440368,363.04143376872366 1175.6880733944954,366.47212384470294 1186.8807339449543,368.9590156488218 1198.073394495413,371.3518561688975 1209.2660550458716,371.78854985320316 1220.4587155963302,372.1960443628746 1231.651376146789,370.62759340155515 1242.8440366972477,370.7367593302233 1254.0366972477066,371.66525201562945 1265.2293577981652,371.72891164110086 1276.4220183486239,370.3415870681562 1287.6146788990825,369.48108937373297 1298.8073394495414,368.80883932884484 1310.0,367.98129350499676 1310.0,420.0 1298.8073394495414,420.0 1287.6146788990825,420.0 1276.4220183486239,420.0 1265.2293577981652,420.0 1254.0366972477066,420.0 1242.8440366972477,420.0 1231.651376146789,420.0 1220.4587155963302,420.0 1209.2660550458716,420.0 1198.073394495413,420.0 1186.8807339449543,420.0 1175.6880733944954,420.0 1164.4954128440368,420.0 1153.302752293578,420.0 1142.1100917431193,420.0 1130.9174311926606,420.0 1119.724770642202,420.0 1108.532110091743,420.0 1097.3394495412845,420.0 1086.1467889908258,420.0 1074.9541284403672,420.0 1063.761467889908,420.0 1052.5688073394494,420.0 1041.3761467889908,420.0 1030.1834862385322,420.0 1018.9908256880734,420.0 1007.7981651376148,420.0 996.6055045871559,420.0 985.4128440366973,420.0 974.2201834862385,420.0 963.0275229357799,420.0 951.8348623853211,420.0 940.6422018348625,420.0 929.4495412844036,420.0 918.256880733945,420.0 907.0642201834862,420.0 895.8715596330276,420.0 884.6788990825688,420.0 873.4862385321102,420.0 862.2935779816513,420.0 851.1009174311927,420.0 839.9082568807339,420.0 828.7155963302753,420.0 817.5229357798165,420.0 806.3302752293579,420.0 795.137614678899,420.0 783.9449541284404,420.0 772.7522935779816,420.0 761.559633027523,420.0 750.3669724770642,420.0 739.1743119266056,420.0 727.9816513761467,420.0 716.7889908256881,420.0 705.5963302752293,420.0 694.4036697247707,420.0 683.2110091743119,420.0 672.0183486238533,420.0 660.8256880733945,420.0 649.6330275229358,420.0 638.4403669724771,420.0 627.2477064220184,420.0 616.0550458715596,420.0 604.862385321101,420.0 593.6697247706422,420.0 582.4770642201836,420.0 571.2844036697247,420.0 560.0917431192661,420.0 548.8990825688074,420.0 537.7064220183486,420.0 526.5137614678899,420.0 515.3211009174313,420.0 504.1284403669725,420.0 492.9357798165138,420.0 481.7431192660551,420.0 470.55045871559633,420.0 459.35779816513764,420.0 448.16513761467894,420.0 436.9724770642202,420.0 425.7798165137615,420.0 414.5871559633028,420.0 403.39449541284404,420.0 392.20183486238534,420.0 381.00917431192664,420.0 369.8165137614679,420.0 358.6238532110092,420.0 347.4311926605505,420.0 336.2385321100918,420.0 325.04587155963304,420.0 313.8532110091743,420.0 302.66055045871565,420.0 291.4678899082569,420.0 280.27522935779814,420.0 269.0825688073395,420.0 257.88990825688074,420.0 246.69724770642202,420.0 235.50458715596332,420.0 224.3119266055046,420.0 213.1192660550459,420.0 201.92660550458714,420.0 190.73394495412845,420.0 179.54128440366975,420.0 168.348623853211,420.0 157.1559633027523,420.0 145.96330275229357,420.0 134.77064220183487,420.0 123.57798165137615,420.0 112.38532110091744,420.0 101.19266055045871,420.0 90.0,420.0" fill="#facc15" fill-opacity="0.70" stroke="#facc15" stroke-width="1.2"/>
<polygon points="90.0,245.14788659148724 101.19266055045871,272.06839407723123 112.38532110091744,297.43231113748664 123.57798165137615,305.5579358820653 134.77064220183487,312.0159545337412 145.96330275229357,318.64923060117934 157.1559633027523,322.72359690638575 168.348623853211,309.21635802862806 179.54128440366975,299.4031292272004 190.73394495412845,306.3530617650568 201.92660550458714,302.92561441994076 213.1192660550459,303.56708905332096 224.3119266055046,298.2828316006358 235.50458715596332,298.72556265256213 246.69724770642202,313.55182017302064 257.88990825688074,302.1751533357321 269.0825688073395,301.95303904189143 280.27522935779814,303.95639207802196 291.4678899082569,327.7381102765703 302.66055045871565,320.9757138910901 313.8532110091743,322.68159346592245 325.04587155963304,320.8119124584687 336.2385321100918,323.78363578695337 347.4311926605505,327.4184201145156 358.6238532110092,328.16100063049583 369.8165137614679,320.1110365007693 381.00917431192664,320.60686541476366 392.20183486238534,323.75011185591177 403.39449541284404,323.0940584054921 414.5871559633028,324.366899796074 425.7798165137615,326.76050622298277 436.9724770642202,330.6026549740278 448.16513761467894,305.5252106378936 459.35779816513764,307.775856361061 470.55045871559633,302.01604948121985 481.7431192660551,296.3689194354116 492.9357798165138,294.63897453489983 504.1284403669725,287.0933900327334 515.3211009174313,300.16366590736493 526.5137614678899,301.6757604715565 537.7064220183486,292.76154066620234 548.8990825688074,304.8876227069493 560.0917431192661,299.3353167999588 571.2844036697247,300.16566002805587 582.4770642201836,305.4636161063029 593.6697247706422,309.7403073805124 604.862385321101,307.30024530807043 616.0550458715596,313.41553459495947 627.2477064220184,322.836638218089 638.4403669724771,326.3490186583704 649.6330275229358,320.45070776934483 660.8256880733945,318.18237650272397 672.0183486238533,322.63399596139527 683.2110091743119,328.1128730523071 694.4036697247707,323.2685956926327 705.5963302752293,322.27339946937855 716.7889908256881,317.85499472348965 727.9816513761467,319.1647102262192 739.1743119266056,299.32583984739426 750.3669724770642,300.54535134849607 761.559633027523,300.1731280090768 772.7522935779816,300.26551913270424 783.9449541284404,289.9946811941395 795.137614678899,298.1158264126566 806.3302752293579,303.99186881735875 817.5229357798165,302.52160801871696 828.7155963302753,301.3881317405146 839.9082568807339,277.9022049985636 851.1009174311927,252.06498175471904 862.2935779816513,250.99297451238292 873.4862385321102,253.99729190279564 884.6788990825688,239.42729631840297 895.8715596330276,238.89227288660396 907.0642201834862,240.274549203325 918.256880733945,244.09116626203812 929.4495412844036,244.71113337904902 940.6422018348625,238.56770940273933 951.8348623853211,247.54376647956786 963.0275229357799,246.34564640414507 974.2201834862385,231.36662572412493 985.4128440366973,244.44470242130663 996.6055045871559,252.17886348902414 1007.7981651376148,247.53086510024147 1018.9908256880734,262.5059982992934 1030.1834862385322,263.02095847130107 1041.3761467889908,282.9206428698036 1052.5688073394494,287.2517666377258 1063.761467889908,292.45424642050216 1074.9541284403672,285.01338434003367 1086.1467889908258,290.01214372032473 1097.3394495412845,289.1855905042147 1108.532110091743,291.1573155339029 1119.724770642202,283.7573282233087 1130.9174311926606,286.8039569171698 1142.1100917431193,284.52787092517303 1153.302752293578,290.6623914152667 1164.4954128440368,304.5106879779773 1175.6880733944954,311.74360442024374 1186.8807339449543,315.0758529994621 1198.073394495413,319.6883585988412 1209.2660550458716,315.09046413126083 1220.4587155963302,316.10020314842893 1231.651376146789,306.0672203595295 1242.8440366972477,311.74560949471913 1254.0366972477066,315.8293018095188 1265.2293577981652,313.73310689012146 1276.4220183486239,306.3683203070813 1287.6146788990825,307.1270906429292 1298.8073394495414,306.52410537833777 1310.0,304.33973799865726 1310.0,367.98129350499676 1298.8073394495414,368.80883932884484 1287.6146788990825,369.48108937373297 1276.4220183486239,370.3415870681562 1265.2293577981652,371.72891164110086 1254.0366972477066,371.66525201562945 1242.8440366972477,370.7367593302233 1231.651376146789,370.62759340155515 1220.4587155963302,372.1960443628746 1209.2660550458716,371.78854985320316 1198.073394495413,371.3518561688975 1186.8807339449543,368.9590156488218 1175.6880733944954,366.47212384470294 1164.4954128440368,363.04143376872366 1153.302752293578,360.03898996867923 1142.1100917431193,359.24714351968663 1130.9174311926606,359.80632087300904 1119.724770642202,360.0882818595452 1108.532110091743,361.61998155641487 1097.3394495412845,361.65191633360485 1086.1467889908258,362.28986066744153 1074.9541284403672,362.7497000679148 1063.761467889908,365.01998956778965 1052.5688073394494,366.5353078018348 1041.3761467889908,370.1361081702396 1030.1834862385322,377.22695976306153 1018.9908256880734,376.17747217214475 1007.7981651376148,374.60773076770386 996.6055045871559,374.4342001157489 985.4128440366973,373.3187819034072 974.2201834862385,372.79449646947774 963.0275229357799,374.3241607824629 951.8348623853211,374.27024868895876 940.6422018348625,373.94904969853445 929.4495412844036,374.68222215714536 918.256880733945,374.8641860767376 907.0642201834862,374.8702871621638 895.8715596330276,375.1719284612559 884.6788990825688,376.15570906580905 873.4862385321102,377.7611431403526 862.2935779816513,378.3755579441386 851.1009174311927,379.9815041425763 839.9082568807339,382.46909116785616 828.7155963302753,384.27244874113126 817.5229357798165,384.4403894420925 806.3302752293579,384.41292959578834 795.137614678899,383.92970579906404 783.9449541284404,383.7266995543582 772.7522935779816,384.22906908935045 761.559633027523,384.3372793101183 750.3669724770642,384.7674685016906 739.1743119266056,384.9390289622196 727.9816513761467,384.8061009685991 716.7889908256881,381.3065951112758 705.5963302752293,375.4355075031066 694.4036697247707,376.45446067319847 683.2110091743119,377.8980868120434 672.0183486238533,378.97043496723506 660.8256880733945,382.7592834442546 649.6330275229358,377.98530665037293 638.4403669724771,381.9798153476574 627.2477064220184,387.28138674535506 616.0550458715596,385.63192313074836 604.862385321101,384.5893273959914 593.6697247706422,384.02661827691503 582.4770642201836,383.06392211065304 571.2844036697247,382.5574104851829 560.0917431192661,382.5622647671117 548.8990825688074,382.8308784183451 537.7064220183486,381.92095799916683 526.5137614678899,382.76681645411793 515.3211009174313,382.087882748695 504.1284403669725,381.39094520326233 492.9357798165138,383.0872661560233 481.7431192660551,384.08350116288403 470.55045871559633,385.38129999645884 459.35779816513764,386.5985424346726 448.16513761467894,387.78737908940104 436.9724770642202,389.9347227132107 425.7798165137615,388.1956969731232 414.5871559633028,385.99417094599363 403.39449541284404,382.1989494621494 392.20183486238534,375.61819517592807 381.00917431192664,375.4905431584265 369.8165137614679,376.1487315702611 358.6238532110092,377.4143211254538 347.4311926605505,377.1377006696119 336.2385321100918,376.64834216192395 325.04587155963304,376.912812449562 313.8532110091743,378.67389680758527 302.66055045871565,380.6939976404721 291.4678899082569,384.35349816933933 280.27522935779814,388.0780797264608 269.0825688073395,387.25464465080245 257.88990825688074,386.2940906793499 246.69724770642202,384.4199561712042 235.50458715596332,391.3622401122297 224.3119266055046,392.5998995192906 213.1192660550459,387.5055612361239 201.92660550458714,386.8580700401119 190.73394495412845,386.5752909761435 179.54128440366975,386.20908514198766 168.348623853211,385.9619226698904 157.1559633027523,385.3884997606816 145.96330275229357,381.62727653762886 134.77064220183487,375.6242325971949 123.57798165137615,366.0196601876547 112.38532110091744,350.38718063557695 101.19266055045871,323.76116133642597 90.0,280.9609700607007" fill="#2563eb" fill-opacity="0.70" stroke="#2563eb" stroke-width="1.2"/>
<polygon points="90.0,209.3348031222738 101.19266055045871,206.4096550000929 112.38532110091744,222.17473056202223 123.57798165137615,216.45586343847594 134.77064220183487,220.2072747433679 145.96330275229357,224.21228298853237 157.1559633027523,226.86889730173823 168.348623853211,198.81371355802378 179.54128440366975,197.19885900088994 190.73394495412845,200.8306648491821 201.92660550458714,201.88159090709667 213.1192660550459,209.84532020094625 224.3119266055046,222.41406944040668 235.50458715596332,216.70500667758904 246.69724770642202,236.02612103866352 257.88990825688074,214.03528294379024 269.0825688073395,211.303170719875 280.27522935779814,215.42154893298945 291.4678899082569,255.06650333462798 302.66055045871565,240.81898738868503 313.8532110091743,242.57498223302028 325.04587155963304,237.08474365010846 336.2385321100918,245.0065469218673 347.4311926605505,251.4869537245754 358.6238532110092,251.31700723686637 369.8165137614679,237.00138894988822 381.00917431192664,238.0130421626982 392.20183486238534,243.2386928087219 403.39449541284404,233.80053927654305 414.5871559633028,231.2466878117329 425.7798165137615,229.9865734254498 436.9724770642202,236.95507548894665 448.16513761467894,183.7757576912437 459.35779816513764,185.43524968386575 470.55045871559633,177.0362422609218 481.7431192660551,167.57868608347854 492.9357798165138,163.95275763821445 504.1284403669725,145.64309182747297 515.3211009174313,174.22192711229306 526.5137614678899,178.5681134150151 537.7064220183486,157.6811354449348 548.8990825688074,181.305060314083 560.0917431192661,167.7289619350775 571.2844036697247,170.33419374859778 582.4770642201836,178.82459699238808 593.6697247706422,189.80441684205334 604.862385321101,189.55594049737297 616.0550458715596,201.30544488589234 627.2477064220184,218.37054778176713 638.4403669724771,236.10983300444363 649.6330275229358,227.97417441778492 660.8256880733945,219.46832423384728 672.0183486238533,233.14864900682304 683.2110091743119,245.15825831702352 694.4036697247707,237.15608585972436 705.5963302752293,235.62831099187528 716.7889908256881,220.7548434901972 727.9816513761467,220.3690650305598 739.1743119266056,187.58947301766943 750.3669724770642,183.40085207264673 761.559633027523,177.94663681839896 772.7522935779816,180.44502505465786 783.9449541284404,173.15430167913235 795.137614678899,181.56143444081863 806.3302752293579,187.58510193916578 817.5229357798165,183.21052807699195 828.7155963302753,180.1369179312626 839.9082568807339,151.7603653862899 851.1009174311927,128.33415736437627 862.2935779816513,126.44425764321448 873.4862385321102,132.2634728978236 884.6788990825688,111.65038635995774 895.8715596330276,111.30838369617459 907.0642201834862,116.11883475683692 918.256880733945,119.03356299065592 929.4495412844036,116.0618418517131 940.6422018348625,105.66194007078701 951.8348623853211,118.34698116396834 963.0275229357799,116.03352615146093 974.2201834862385,90.0 985.4128440366973,114.03473369534305 996.6055045871559,127.38218289507637 1007.7981651376148,119.12017830424139 1018.9908256880734,143.54722852537435 1030.1834862385322,145.34127432957808 1041.3761467889908,177.99932312402686 1052.5688073394494,184.5364289969102 1063.761467889908,190.98804886688785 1074.9541284403672,177.3770632724098 1086.1467889908258,186.40040626692655 1097.3394495412845,182.7799993313994 1108.532110091743,186.28831756251967 1119.724770642202,171.16292925696285 1130.9174311926606,177.53351757281928 1142.1100917431193,173.633509958812 1153.302752293578,184.9070385686724 1164.4954128440368,210.18039787516128 1175.6880733944954,226.4726358346875 1186.8807339449543,230.75741342000023 1198.073394495413,239.76446779604404 1209.2660550458716,229.77436151864703 1220.4587155963302,231.22914450952706 1231.651376146789,213.09966783830387 1242.8440366972477,223.60203289290243 1254.0366972477066,232.23196417495413 1265.2293577981652,227.2976043172324 1276.4220183486239,213.04240083495628 1287.6146788990825,212.7613713283926 1298.8073394495414,211.20185704605066 1310.0,206.95989907689827 1310.0,304.33973799865726 1298.8073394495414,306.52410537833777 1287.6146788990825,307.1270906429292 1276.4220183486239,306.3683203070813 1265.2293577981652,313.73310689012146 1254.0366972477066,315.8293018095188 1242.8440366972477,311.74560949471913 1231.651376146789,306.0672203595295 1220.4587155963302,316.10020314842893 1209.2660550458716,315.09046413126083 1198.073394495413,319.6883585988412 1186.8807339449543,315.0758529994621 1175.6880733944954,311.74360442024374 1164.4954128440368,304.5106879779773 1153.302752293578,290.6623914152667 1142.1100917431193,284.52787092517303 1130.9174311926606,286.8039569171698 1119.724770642202,283.7573282233087 1108.532110091743,291.1573155339029 1097.3394495412845,289.1855905042147 1086.1467889908258,290.01214372032473 1074.9541284403672,285.01338434003367 1063.761467889908,292.45424642050216 1052.5688073394494,287.2517666377258 1041.3761467889908,282.9206428698036 1030.1834862385322,263.02095847130107 1018.9908256880734,262.5059982992934 1007.7981651376148,247.53086510024147 996.6055045871559,252.17886348902414 985.4128440366973,244.44470242130663 974.2201834862385,231.36662572412493 963.0275229357799,246.34564640414507 951.8348623853211,247.54376647956786 940.6422018348625,238.56770940273933 929.4495412844036,244.71113337904902 918.256880733945,244.09116626203812 907.0642201834862,240.274549203325 895.8715596330276,238.89227288660396 884.6788990825688,239.42729631840297 873.4862385321102,253.99729190279564 862.2935779816513,250.99297451238292 851.1009174311927,252.06498175471904 839.9082568807339,277.9022049985636 828.7155963302753,301.3881317405146 817.5229357798165,302.52160801871696 806.3302752293579,303.99186881735875 795.137614678899,298.1158264126566 783.9449541284404,289.9946811941395 772.7522935779816,300.26551913270424 761.559633027523,300.1731280090768 750.3669724770642,300.54535134849607 739.1743119266056,299.32583984739426 727.9816513761467,319.1647102262192 716.7889908256881,317.85499472348965 705.5963302752293,322.27339946937855 694.4036697247707,323.2685956926327 683.2110091743119,328.1128730523071 672.0183486238533,322.63399596139527 660.8256880733945,318.18237650272397 649.6330275229358,320.45070776934483 638.4403669724771,326.3490186583704 627.2477064220184,322.836638218089 616.0550458715596,313.41553459495947 604.862385321101,307.30024530807043 593.6697247706422,309.7403073805124 582.4770642201836,305.4636161063029 571.2844036697247,300.16566002805587 560.0917431192661,299.3353167999588 548.8990825688074,304.8876227069493 537.7064220183486,292.76154066620234 526.5137614678899,301.6757604715565 515.3211009174313,300.16366590736493 504.1284403669725,287.0933900327334 492.9357798165138,294.63897453489983 481.7431192660551,296.3689194354116 470.55045871559633,302.01604948121985 459.35779816513764,307.775856361061 448.16513761467894,305.5252106378936 436.9724770642202,330.6026549740278 425.7798165137615,326.76050622298277 414.5871559633028,324.366899796074 403.39449541284404,323.0940584054921 392.20183486238534,323.75011185591177 381.00917431192664,320.60686541476366 369.8165137614679,320.1110365007693 358.6238532110092,328.16100063049583 347.4311926605505,327.4184201145156 336.2385321100918,323.78363578695337 325.04587155963304,320.8119124584687 313.8532110091743,322.68159346592245 302.66055045871565,320.9757138910901 291.4678899082569,327.7381102765703 280.27522935779814,303.95639207802196 269.0825688073395,301.95303904189143 257.88990825688074,302.1751533357321 246.69724770642202,313.55182017302064 235.50458715596332,298.72556265256213 224.3119266055046,298.2828316006358 213.1192660550459,303.56708905332096 201.92660550458714,302.92561441994076 190.73394495412845,306.3530617650568 179.54128440366975,299.4031292272004 168.348623853211,309.21635802862806 157.1559633027523,322.72359690638575 145.96330275229357,318.64923060117934 134.77064220183487,312.0159545337412 123.57798165137615,305.5579358820653 112.38532110091744,297.43231113748664 101.19266055045871,272.06839407723123 90.0,245.14788659148724" fill="#f97316" fill-opacity="0.70" stroke="#f97316" stroke-width="1.2"/>
<rect x="1100" y="76" width="16" height="12" fill="#f97316" fill-opacity="0.70" stroke="#f97316"/>
<text x="1124" y="86" font-family="monospace" font-size="12" fill="#0f172a">BTC</text>
<rect x="1100" y="98" width="16" height="12" fill="#2563eb" fill-opacity="0.70" stroke="#2563eb"/>
<text x="1124" y="108" font-family="monospace" font-size="12" fill="#0f172a">ETH</text>
<rect x="1100" y="120" width="16" height="12" fill="#facc15" fill-opacity="0.70" stroke="#facc15"/>
<text x="1124" y="130" font-family="monospace" font-size="12" fill="#0f172a">DAI</text>
<text x="700.0" y="782" text-anchor="middle" font-family="monospace" font-size="16" fill="#0f172a">time</text>
<text x="24" y="255.0" transform="rotate(-90 24,255.0)" text-anchor="middle" font-family="monospace" font-size="16" fill="#0f172a">asset value split (usd)</text>
<line x1="90" y1="605" x2="1310" y2="605" stroke="#334155" stroke-width="2"/>
<line x1="90" y1="480" x2="90" y2="605" stroke="#334155" stroke-width="2"/>
<line x1="90" y1="542.5" x2="1310" y2="542.5" stroke="#64748b" stroke-width="1.5" stroke-dasharray="6 4"/>
<line x1="90" y1="605.0" x2="1310" y2="605.0" stroke="#e2e8f0" stroke-width="1"/>
<text x="78" y="609.0" text-anchor="end" font-family="monospace" font-size="11" fill="#475569">-1700</text>
<line x1="90" y1="542.5" x2="1310" y2="542.5" stroke="#e2e8f0" stroke-width="1"/>
<text x="78" y="546.5" text-anchor="end" font-family="monospace" font-size="11" fill="#475569">0</text>
<line x1="90" y1="480.0" x2="1310" y2="480.0" stroke="#e2e8f0" stroke-width="1"/>
<text x="78" y="484.0" text-anchor="end" font-family="monospace" font-size="11" fill="#475569">1700</text>
<rect x="86.95" y="480.0" width="6.1000000000000005" height="62.5" fill="#ea580c" opacity="0.85"><title>2024-04-01 | BTC buy 1700.00 usd | reason=balanced_regime</title></rect>
<rect x="98.14266055045871" y="492.15487856086963" width="6.1000000000000005" height="50.34512143913037" fill="#ea580c" opacity="0.85"><title>2024-04-08 | BTC buy 1369.39 usd | reason=btc_defensive_regime</title></rect>
<rect x="109.33532110091744" y="512.676975894927" width="6.1000000000000005" height="29.823024105073046" fill="#ea580c" opacity="0.85"><title>2024-04-15 | BTC buy 811.19 usd | reason=btc_defensive_regime</title></rect>
<rect x="120.52798165137615" y="525.3909858978524" width="6.1000000000000005" height="17.109014102147626" fill="#ea580c" opacity="0.85"><title>2024-04-22 | BTC buy 465.37 usd | reason=btc_defensive_regime</title></rect>
<rect x="131.72064220183486" y="530.7659153286127" width="6.1000000000000005" height="11.734084671387336" fill="#ea580c" opacity="0.85"><title>2024-04-29 | BTC buy 319.17 usd | reason=btc_defensive_regime</title></rect>
<rect x="142.91330275229356" y="536.2001747002876" width="6.1000000000000005" height="6.299825299712438" fill="#ea580c" opacity="0.85"><title>2024-05-06 | BTC buy 171.36 usd | reason=btc_defensive_regime</title></rect>
<rect x="154.1059633027523" y="539.4259805408158" width="6.1000000000000005" height="3.0740194591842283" fill="#ea580c" opacity="0.85"><title>2024-05-13 | BTC buy 83.61 usd | reason=btc_defensive_regime</title></rect>
<rect x="165.29862385321098" y="539.7049767593213" width="6.1000000000000005" height="2.795023240678688" fill="#ea580c" opacity="0.85"><title>2024-05-20 | BTC buy 76.02 usd | reason=btc_defensive_regime</title></rect>
<rect x="176.49128440366974" y="542.5" width="6.1000000000000005" height="8.741899809869665" fill="#dc2626" opacity="0.85"><title>2024-05-27 | BTC sell 237.78 usd | reason=balanced_regime</title></rect>
<rect x="187.68394495412844" y="535.2238369737852" width="6.1000000000000005" height="7.276163026214817" fill="#ea580c" opacity="0.85"><title>2024-06-03 | BTC buy 197.91 usd | reason=btc_defensive_regime</title></rect>
<rect x="198.87660550458713" y="542.5" width="6.1000000000000005" height="9.707462143377484" fill="#dc2626" opacity="0.85"><title>2024-06-10 | BTC sell 264.04 usd | reason=balanced_regime</title></rect>
<rect x="210.0692660550459" y="542.5" width="6.1000000000000005" height="5.126187497888054" fill="#dc2626" opacity="0.85"><title>2024-06-17 | BTC sell 139.43 usd | reason=balanced_regime</title></rect>
<rect x="221.26192660550458" y="542.5" width="6.1000000000000005" height="15.856860949613406" fill="#dc2626" opacity="0.85"><title>2024-06-24 | BTC sell 431.31 usd | reason=eth_strong_risk_on</title></rect>
<rect x="232.4545871559633" y="537.4043108425994" width="6.1000000000000005" height="5.095689157400557" fill="#ea580c" opacity="0.85"><title>2024-07-01 | BTC buy 138.60 usd | reason=balanced_regime</title></rect>
<rect x="243.647247706422" y="536.37729998781" width="6.1000000000000005" height="6.122700012189966" fill="#ea580c" opacity="0.85"><title>2024-07-08 | BTC buy 166.54 usd | reason=both_weak_btc_defensive</title></rect>
<rect x="254.83990825688073" y="542.5" width="6.1000000000000005" height="1.5" fill="#dc2626" opacity="0.85"><title>2024-07-15 | BTC sell 19.14 usd | reason=balanced_regime</title></rect>
<rect x="266.0325688073395" y="542.5" width="6.1000000000000005" height="2.2730471761375384" fill="#dc2626" opacity="0.85"><title>2024-07-22 | BTC sell 61.83 usd | reason=balanced_regime</title></rect>
<rect x="277.2252293577981" y="542.5" width="6.1000000000000005" height="1.8487208300552993" fill="#dc2626" opacity="0.85"><title>2024-07-29 | BTC sell 50.29 usd | reason=balanced_regime</title></rect>
<rect x="288.4178899082569" y="540.6984394069207" width="6.1000000000000005" height="1.80156059307933" fill="#ea580c" opacity="0.85"><title>2024-08-05 | BTC buy 49.00 usd | reason=both_weak_btc_defensive</title></rect>
<rect x="299.61055045871564" y="541.9476772095794" width="6.1000000000000005" height="1.5" fill="#ea580c" opacity="0.85"><title>2024-08-12 | BTC buy 15.02 usd | reason=both_weak_btc_defensive</title></rect>
<rect x="310.8032110091743" y="542.5" width="6.1000000000000005" height="1.5" fill="#dc2626" opacity="0.85"><title>2024-08-19 | BTC sell 8.40 usd | reason=both_weak_btc_defensive</title></rect>
<rect x="321.99587155963303" y="542.5" width="6.1000000000000005" height="1.646632219532421" fill="#dc2626" opacity="0.85"><title>2024-08-26 | BTC sell 44.79 usd | reason=both_weak_btc_defensive</title></rect>
<rect x="333.1885321100918" y="542.5" width="6.1000000000000005" height="1.5" fill="#dc2626" opacity="0.85"><title>2024-09-02 | BTC sell 0.95 usd | reason=both_weak_btc_defensive</title></rect>
<rect x="344.3811926605505" y="542.5" width="6.1000000000000005" height="1.5" fill="#dc2626" opacity="0.85"><title>2024-09-09 | BTC sell 3.18 usd | reason=both_weak_btc_defensive</title></rect>
<rect x="355.5738532110092" y="542.5" width="6.1000000000000005" height="1.5" fill="#dc2626" opacity="0.85"><title>2024-09-16 | BTC sell 29.64 usd | reason=both_weak_btc_defensive</title></rect>
<rect x="366.7665137614679" y="542.5" width="6.1000000000000005" height="1.5" fill="#dc2626" opacity="0.85"><title>2024-09-23 | BTC sell 24.06 usd | reason=both_weak_btc_defensive</title></rect>
<rect x="377.95917431192663" y="542.5" width="6.1000000000000005" height="1.5" fill="#dc2626" opacity="0.85"><title>2024-09-30 | BTC sell 22.14 usd | reason=both_weak_btc_defensive</title></rect>
<rect x="389.15183486238533" y="542.5" width="6.1000000000000005" height="1.5" fill="#dc2626" opacity="0.85"><title>2024-10-07 | BTC sell 30.66 usd | reason=both_weak_btc_defensive</title></rect>
<rect x="400.344495412844" y="535.9053362498946" width="6.1000000000000005" height="6.594663750105383" fill="#ea580c" opacity="0.85"><title>2024-10-14 | BTC buy 179.37 usd | reason=btc_defensive_regime</title></rect>
<rect x="411.5371559633028" y="538.84214542201" width="6.1000000000000005" height="3.6578545779899514" fill="#ea580c" opacity="0.85"><title>2024-10-21 | BTC buy 99.49 usd | reason=btc_defensive_regime</title></rect>
<rect x="422.7298165137615" y="542.3453605700624" width="6.1000000000000005" height="1.5" fill="#ea580c" opacity="0.85"><title>2024-10-28 | BTC buy 4.21 usd | reason=btc_defensive_regime</title></rect>
<rect x="433.9224770642202" y="542.5" width="6.1000000000000005" height="1.5" fill="#dc2626" opacity="0.85"><title>2024-11-04 | BTC sell 9.33 usd | reason=btc_defensive_regime</title></rect>
<rect x="445.11513761467893" y="542.5" width="6.1000000000000005" height="1.5" fill="#dc2626" opacity="0.85"><title>2024-11-11 | BTC sell 40.35 usd | reason=btc_defensive_regime</title></rect>
<rect x="456.3077981651376" y="542.5" width="6.1000000000000005" height="3.155950927704339" fill="#dc2626" opacity="0.85"><title>2024-11-18 | BTC sell 85.84 usd | reason=btc_defensive_regime</title></rect>
<rect x="467.5004587155963" y="542.5" width="6.1000000000000005" height="1.5" fill="#dc2626" opacity="0.85"><title>2024-11-25 | BTC sell 33.81 usd | reason=btc_defensive_regime</title></rect>
<rect x="478.6931192660551" y="542.5" width="6.1000000000000005" height="1.5" fill="#dc2626" opacity="0.85"><title>2024-12-02 | BTC sell 1.75 usd | reason=btc_defensive_regime</title></rect>
<rect x="489.8857798165138" y="542.5" width="6.1000000000000005" height="1.5" fill="#dc2626" opacity="0.85"><title>2024-12-09 | BTC sell 3.23 usd | reason=btc_defensive_regime</title></rect>
<rect x="501.0784403669725" y="542.5" width="6.1000000000000005" height="1.7780688057124507" fill="#dc2626" opacity="0.85"><title>2024-12-16 | BTC sell 48.36 usd | reason=btc_defensive_regime</title></rect>
<rect x="512.2711009174313" y="542.5" width="6.1000000000000005" height="1.5" fill="#dc2626" opacity="0.85"><title>2024-12-23 | BTC sell 18.83 usd | reason=btc_defensive_regime</title></rect>
<rect x="523.46376146789" y="542.4736885010424" width="6.1000000000000005" height="1.5" fill="#ea580c" opacity="0.85"><title>2024-12-30 | BTC buy 0.72 usd | reason=btc_defensive_regime</title></rect>
<rect x="534.6564220183486" y="542.5" width="6.1000000000000005" height="1.509904775559562" fill="#dc2626" opacity="0.85"><title>2025-01-06 | BTC sell 41.07 usd | reason=btc_defensive_regime</title></rect>
<rect x="545.8490825688075" y="542.5" width="6.1000000000000005" height="2.1502187818191487" fill="#dc2626" opacity="0.85"><title>2025-01-13 | BTC sell 58.49 usd | reason=btc_defensive_regime</title></rect>
<rect x="557.0417431192661" y="542.5" width="6.1000000000000005" height="3.429991181743617" fill="#dc2626" opacity="0.85"><title>2025-01-20 | BTC sell 93.30 usd | reason=btc_defensive_regime</title></rect>
<rect x="568.2344036697248" y="542.5" width="6.1000000000000005" height="2.910836916851167" fill="#dc2626" opacity="0.85"><title>2025-01-27 | BTC sell 79.17 usd | reason=btc_defensive_regime</title></rect>
<rect x="579.4270642201836" y="542.5" width="6.1000000000000005" height="4.234443611417305" fill="#dc2626" opacity="0.85"><title>2025-02-03 | BTC sell 115.18 usd | reason=btc_defensive_regime</title></rect>
<rect x="590.6197247706423" y="542.5" width="6.1000000000000005" height="2.9506710981830793" fill="#dc2626" opacity="0.85"><title>2025-02-10 | BTC sell 80.26 usd | reason=btc_defensive_regime</title></rect>
<rect x="601.812385321101" y="542.5" width="6.1000000000000005" height="1.5" fill="#dc2626" opacity="0.85"><title>2025-02-17 | BTC sell 6.89 usd | reason=btc_defensive_regime</title></rect>
<rect x="613.0050458715597" y="542.5" width="6.1000000000000005" height="1.5" fill="#dc2626" opacity="0.85"><title>2025-02-24 | BTC sell 18.22 usd | reason=btc_defensive_regime</title></rect>
<rect x="624.1977064220184" y="542.5" width="6.1000000000000005" height="1.9023189835411358" fill="#dc2626" opacity="0.85"><title>2025-03-03 | BTC sell 51.74 usd | reason=btc_defensive_regime</title></rect>
<rect x="635.3903669724772" y="542.5" width="6.1000000000000005" height="8.712610239639503" fill="#dc2626" opacity="0.85"><title>2025-03-10 | BTC sell 236.98 usd | reason=both_weak_btc_defensive</title></rect>
<rect x="646.5830275229358" y="542.5" width="6.1000000000000005" height="7.056210621993387" fill="#dc2626" opacity="0.85"><title>2025-03-17 | BTC sell 191.93 usd | reason=both_weak_btc_defensive</title></rect>
<rect x="657.7756880733946" y="538.3614957308839" width="6.1000000000000005" height="4.138504269116083" fill="#ea580c" opacity="0.85"><title>2025-03-24 | BTC buy 112.57 usd | reason=btc_defensive_regime</title></rect>
<rect x="668.9683486238533" y="542.5" width="6.1000000000000005" height="6.285225123902251" fill="#dc2626" opacity="0.85"><title>2025-03-31 | BTC sell 170.96 usd | reason=both_weak_btc_defensive</title></rect>
<rect x="680.161009174312" y="542.5" width="6.1000000000000005" height="4.9747077554536645" fill="#dc2626" opacity="0.85"><title>2025-04-07 | BTC sell 135.31 usd | reason=both_weak_btc_defensive</title></rect>
<rect x="691.3536697247707" y="542.5" width="6.1000000000000005" height="4.459204219177764" fill="#dc2626" opacity="0.85"><title>2025-04-14 | BTC sell 121.29 usd | reason=both_weak_btc_defensive</title></rect>
<rect x="702.5463302752294" y="542.5" width="6.1000000000000005" height="4.278962774187448" fill="#dc2626" opacity="0.85"><title>2025-04-21 | BTC sell 116.39 usd | reason=both_weak_btc_defensive</title></rect>
<rect x="713.7389908256881" y="537.2471727399707" width="6.1000000000000005" height="5.252827260029335" fill="#ea580c" opacity="0.85"><title>2025-04-28 | BTC buy 142.88 usd | reason=btc_defensive_regime</title></rect>
<rect x="724.9316513761468" y="538.9908871440006" width="6.1000000000000005" height="3.509112855999433" fill="#ea580c" opacity="0.85"><title>2025-05-05 | BTC buy 95.45 usd | reason=btc_defensive_regime</title></rect>
<rect x="736.1243119266056" y="534.5966942882953" width="6.1000000000000005" height="7.903305711704661" fill="#ea580c" opacity="0.85"><title>2025-05-12 | BTC buy 214.97 usd | reason=btc_defensive_regime</title></rect>
<rect x="747.3169724770643" y="538.4034219876099" width="6.1000000000000005" height="4.096578012390069" fill="#ea580c" opacity="0.85"><title>2025-05-19 | BTC buy 111.43 usd | reason=btc_defensive_regime</title></rect>
<rect x="758.509633027523" y="541.0797508507051" width="6.1000000000000005" height="1.5" fill="#ea580c" opacity="0.85"><title>2025-05-26 | BTC buy 38.63 usd | reason=btc_defensive_regime</title></rect>
<rect x="769.7022935779817" y="539.7629379682562" width="6.1000000000000005" height="2.7370620317437897" fill="#ea580c" opacity="0.85"><title>2025-06-02 | BTC buy 74.45 usd | reason=btc_defensive_regime</title></rect>
<rect x="780.8949541284404" y="542.5" width="6.1000000000000005" height="13.881051016470451" fill="#dc2626" opacity="0.85"><title>2025-06-09 | BTC sell 377.56 usd | reason=balanced_regime</title></rect>
<rect x="792.0876146788991" y="536.6254285047285" width="6.1000000000000005" height="5.874571495271539" fill="#ea580c" opacity="0.85"><title>2025-06-16 | BTC buy 159.79 usd | reason=btc_defensive_regime</title></rect>
<rect x="803.2802752293579" y="540.0278690925679" width="6.1000000000000005" height="2.4721309074320743" fill="#ea580c" opacity="0.85"><title>2025-06-23 | BTC buy 67.24 usd | reason=btc_defensive_regime</title></rect>
<rect x="814.4729357798166" y="540.8111959392148" width="6.1000000000000005" height="1.6888040607851735" fill="#ea580c" opacity="0.85"><title>2025-06-30 | BTC buy 45.94 usd | reason=btc_defensive_regime</title></rect>
<rect x="825.6655963302753" y="541.244688228801" width="6.1000000000000005" height="1.5" fill="#ea580c" opacity="0.85"><title>2025-07-07 | BTC buy 34.14 usd | reason=btc_defensive_regime</title></rect>
<rect x="836.858256880734" y="542.5" width="6.1000000000000005" height="14.124254934051123" fill="#dc2626" opacity="0.85"><title>2025-07-14 | BTC sell 384.18 usd | reason=balanced_regime</title></rect>
<rect x="848.0509174311927" y="542.2357125899805" width="6.1000000000000005" height="1.5" fill="#ea580c" opacity="0.85"><title>2025-07-21 | BTC buy 7.19 usd | reason=balanced_regime</title></rect>
<rect x="859.2435779816514" y="542.252797939697" width="6.1000000000000005" height="1.5" fill="#ea580c" opacity="0.85"><title>2025-07-28 | BTC buy 6.72 usd | reason=balanced_regime</title></rect>
<rect x="870.4362385321102" y="541.855211187543" width="6.1000000000000005" height="1.5" fill="#ea580c" opacity="0.85"><title>2025-08-04 | BTC buy 17.54 usd | reason=balanced_regime</title></rect>
<rect x="881.6288990825689" y="538.6935747106394" width="6.1000000000000005" height="3.806425289360618" fill="#ea580c" opacity="0.85"><title>2025-08-11 | BTC buy 103.53 usd | reason=balanced_regime</title></rect>
<rect x="892.8215596330276" y="538.2998965403712" width="6.1000000000000005" height="4.200103459628849" fill="#ea580c" opacity="0.85"><title>2025-08-18 | BTC buy 114.24 usd | reason=balanced_regime</title></rect>
<rect x="904.0142201834863" y="536.6899948541745" width="6.1000000000000005" height="5.810005145825471" fill="#ea580c" opacity="0.85"><title>2025-08-25 | BTC buy 158.03 usd | reason=balanced_regime</title></rect>
<rect x="915.206880733945" y="539.1805282441428" width="6.1000000000000005" height="3.319471755857194" fill="#ea580c" opacity="0.85"><title>2025-09-01 | BTC buy 90.29 usd | reason=balanced_regime</title></rect>
<rect x="926.3995412844037" y="541.8898578921387" width="6.1000000000000005" height="1.5" fill="#ea580c" opacity="0.85"><title>2025-09-08 | BTC buy 16.60 usd | reason=balanced_regime</title></rect>
<rect x="937.5922018348625" y="541.6996568579998" width="6.1000000000000005" height="1.5" fill="#ea580c" opacity="0.85"><title>2025-09-15 | BTC buy 21.77 usd | reason=balanced_regime</title></rect>
<rect x="948.7848623853212" y="542.5" width="6.1000000000000005" height="1.5" fill="#dc2626" opacity="0.85"><title>2025-09-22 | BTC sell 31.46 usd | reason=balanced_regime</title></rect>
<rect x="959.9775229357799" y="542.5" width="6.1000000000000005" height="1.5" fill="#dc2626" opacity="0.85"><title>2025-09-29 | BTC sell 35.64 usd | reason=balanced_regime</title></rect>
<rect x="971.1701834862386" y="542.5" width="6.1000000000000005" height="1.5" fill="#dc2626" opacity="0.85"><title>2025-10-06 | BTC sell 35.34 usd | reason=balanced_regime</title></rect>
<rect x="982.3628440366973" y="542.5" width="6.1000000000000005" height="1.5" fill="#dc2626" opacity="0.85"><title>2025-10-13 | BTC sell 11.86 usd | reason=balanced_regime</title></rect>
<rect x="993.555504587156" y="542.5" width="6.1000000000000005" height="1.5" fill="#dc2626" opacity="0.85"><title>2025-10-20 | BTC sell 13.74 usd | reason=balanced_regime</title></rect>
<rect x="1004.7481651376148" y="542.5" width="6.1000000000000005" height="1.5" fill="#dc2626" opacity="0.85"><title>2025-10-27 | BTC sell 16.99 usd | reason=balanced_regime</title></rect>
<rect x="1015.9408256880735" y="542.5" width="6.1000000000000005" height="1.7060128068183076" fill="#dc2626" opacity="0.85"><title>2025-11-03 | BTC sell 46.40 usd | reason=balanced_regime</title></rect>
<rect x="1027.1334862385322" y="542.5" width="6.1000000000000005" height="1.5" fill="#dc2626" opacity="0.85"><title>2025-11-10 | BTC sell 30.05 usd | reason=balanced_regime</title></rect>
<rect x="1038.3261467889909" y="537.8706573327319" width="6.1000000000000005" height="4.6293426672681335" fill="#ea580c" opacity="0.85"><title>2025-11-17 | BTC buy 125.92 usd | reason=both_weak_btc_defensive</title></rect>
<rect x="1049.5188073394495" y="538.7266242338468" width="6.1000000000000005" height="3.773375766153208" fill="#ea580c" opacity="0.85"><title>2025-11-24 | BTC buy 102.64 usd | reason=both_weak_btc_defensive</title></rect>
<rect x="1060.7114678899081" y="540.6510708955799" width="6.1000000000000005" height="1.8489291044201082" fill="#ea580c" opacity="0.85"><title>2025-12-01 | BTC buy 50.29 usd | reason=both_weak_btc_defensive</title></rect>
<rect x="1071.9041284403672" y="540.7036354801277" width="6.1000000000000005" height="1.796364519872327" fill="#ea580c" opacity="0.85"><title>2025-12-08 | BTC buy 48.86 usd | reason=both_weak_btc_defensive</title></rect>
<rect x="1083.0967889908259" y="540.7454273918016" width="6.1000000000000005" height="1.754572608198373" fill="#ea580c" opacity="0.85"><title>2025-12-15 | BTC buy 47.72 usd | reason=both_weak_btc_defensive</title></rect>
<rect x="1094.2894495412845" y="542.1004612760793" width="6.1000000000000005" height="1.5" fill="#ea580c" opacity="0.85"><title>2025-12-22 | BTC buy 10.87 usd | reason=both_weak_btc_defensive</title></rect>
<rect x="1105.4821100917432" y="542.1495006197224" width="6.1000000000000005" height="1.5" fill="#ea580c" opacity="0.85"><title>2025-12-29 | BTC buy 9.53 usd | reason=both_weak_btc_defensive</title></rect>
<rect x="1116.674770642202" y="542.5" width="6.1000000000000005" height="1.5" fill="#dc2626" opacity="0.85"><title>2026-01-05 | BTC sell 19.55 usd | reason=both_weak_btc_defensive</title></rect>
<rect x="1127.8674311926607" y="542.5" width="6.1000000000000005" height="1.5" fill="#dc2626" opacity="0.85"><title>2026-01-12 | BTC sell 5.08 usd | reason=both_weak_btc_defensive</title></rect>
<rect x="1139.0600917431193" y="542.5" width="6.1000000000000005" height="1.5" fill="#dc2626" opacity="0.85"><title>2026-01-19 | BTC sell 0.93 usd | reason=both_weak_btc_defensive</title></rect>
<rect x="1150.252752293578" y="542.4575576461062" width="6.1000000000000005" height="1.5" fill="#ea580c" opacity="0.85"><title>2026-01-26 | BTC buy 1.15 usd | reason=both_weak_btc_defensive</title></rect>
<rect x="1161.4454128440368" y="542.396998940069" width="6.1000000000000005" height="1.5" fill="#ea580c" opacity="0.85"><title>2026-02-02 | BTC buy 2.80 usd | reason=both_weak_btc_defensive</title></rect>
<rect x="1172.6380733944954" y="540.386776385326" width="6.1000000000000005" height="2.1132236146739842" fill="#ea580c" opacity="0.85"><title>2026-02-09 | BTC buy 57.48 usd | reason=both_weak_btc_defensive</title></rect>
<rect x="1183.8307339449543" y="541.5218607511358" width="6.1000000000000005" height="1.5" fill="#ea580c" opacity="0.85"><title>2026-02-16 | BTC buy 26.61 usd | reason=both_weak_btc_defensive</title></rect>
<rect x="1195.023394495413" y="541.1246894355438" width="6.1000000000000005" height="1.5" fill="#ea580c" opacity="0.85"><title>2026-02-23 | BTC buy 37.41 usd | reason=both_weak_btc_defensive</title></rect>
<rect x="1206.2160550458716" y="542.167911514051" width="6.1000000000000005" height="1.5" fill="#ea580c" opacity="0.85"><title>2026-03-02 | BTC buy 9.03 usd | reason=both_weak_btc_defensive</title></rect>
<rect x="1217.4087155963302" y="542.4117799925036" width="6.1000000000000005" height="1.5" fill="#ea580c" opacity="0.85"><title>2026-03-09 | BTC buy 2.40 usd | reason=both_weak_btc_defensive</title></rect>
<rect x="1228.601376146789" y="542.3399130776048" width="6.1000000000000005" height="1.5" fill="#ea580c" opacity="0.85"><title>2026-03-16 | BTC buy 4.35 usd | reason=both_weak_btc_defensive</title></rect>
<rect x="1239.7940366972477" y="542.225997952932" width="6.1000000000000005" height="1.5" fill="#ea580c" opacity="0.85"><title>2026-03-23 | BTC buy 7.45 usd | reason=both_weak_btc_defensive</title></rect>
<rect x="1250.9866972477066" y="541.4548995324128" width="6.1000000000000005" height="1.5" fill="#ea580c" opacity="0.85"><title>2026-03-30 | BTC buy 28.43 usd | reason=both_weak_btc_defensive</title></rect>
<rect x="1262.1793577981653" y="542.17356496428" width="6.1000000000000005" height="1.5" fill="#ea580c" opacity="0.85"><title>2026-04-06 | BTC buy 8.88 usd | reason=both_weak_btc_defensive</title></rect>
<rect x="1273.372018348624" y="542.5" width="6.1000000000000005" height="1.5" fill="#dc2626" opacity="0.85"><title>2026-04-13 | BTC sell 6.17 usd | reason=both_weak_btc_defensive</title></rect>
<rect x="1284.5646788990825" y="542.5" width="6.1000000000000005" height="1.5" fill="#dc2626" opacity="0.85"><title>2026-04-20 | BTC sell 35.07 usd | reason=both_weak_btc_defensive</title></rect>
<rect x="1295.7573394495414" y="542.5" width="6.1000000000000005" height="1.5858775980823339" fill="#dc2626" opacity="0.85"><title>2026-04-27 | BTC sell 43.14 usd | reason=both_weak_btc_defensive</title></rect>
<rect x="1306.95" y="542.5" width="6.1000000000000005" height="1.7588933986266966" fill="#dc2626" opacity="0.85"><title>2026-05-04 | BTC sell 47.84 usd | reason=both_weak_btc_defensive</title></rect>
<text x="24" y="542.5" transform="rotate(-90 24,542.5)" text-anchor="middle" font-family="monospace" font-size="14" fill="#0f172a">BTC weekly trade usd</text>
<line x1="90" y1="770" x2="1310" y2="770" stroke="#334155" stroke-width="2"/>
<line x1="90" y1="645" x2="90" y2="770" stroke="#334155" stroke-width="2"/>
<line x1="90" y1="707.5" x2="1310" y2="707.5" stroke="#64748b" stroke-width="1.5" stroke-dasharray="6 4"/>
<line x1="90" y1="770.0" x2="1310" y2="770.0" stroke="#e2e8f0" stroke-width="1"/>
<text x="78" y="774.0" text-anchor="end" font-family="monospace" font-size="11" fill="#475569">-1700</text>
<line x1="90" y1="707.5" x2="1310" y2="707.5" stroke="#e2e8f0" stroke-width="1"/>
<text x="78" y="711.5" text-anchor="end" font-family="monospace" font-size="11" fill="#475569">0</text>
<line x1="90" y1="645.0" x2="1310" y2="645.0" stroke="#e2e8f0" stroke-width="1"/>
<text x="78" y="649.0" text-anchor="end" font-family="monospace" font-size="11" fill="#475569">1700</text>
<rect x="86.95" y="645.0" width="6.1000000000000005" height="62.5" fill="#2563eb" opacity="0.85"><title>2024-04-01 | ETH buy 1700.00 usd | reason=balanced_regime</title></rect>
<rect x="98.14266055045871" y="683.1514146815877" width="6.1000000000000005" height="24.348585318412347" fill="#2563eb" opacity="0.85"><title>2024-04-08 | ETH buy 662.28 usd | reason=btc_defensive_regime</title></rect>
<rect x="109.33532110091744" y="690.8560336928263" width="6.1000000000000005" height="16.64396630717374" fill="#2563eb" opacity="0.85"><title>2024-04-15 | ETH buy 452.72 usd | reason=btc_defensive_regime</title></rect>
<rect x="120.52798165137615" y="697.3276443523254" width="6.1000000000000005" height="10.172355647674635" fill="#2563eb" opacity="0.85"><title>2024-04-22 | ETH buy 276.69 usd | reason=btc_defensive_regime</title></rect>
<rect x="131.72064220183486" y="702.4724512836257" width="6.1000000000000005" height="5.027548716374326" fill="#2563eb" opacity="0.85"><title>2024-04-29 | ETH buy 136.75 usd | reason=btc_defensive_regime</title></rect>
<rect x="142.91330275229356" y="703.3234795083858" width="6.1000000000000005" height="4.176520491614156" fill="#2563eb" opacity="0.85"><title>2024-05-06 | ETH buy 113.60 usd | reason=btc_defensive_regime</title></rect>
<rect x="154.1059633027523" y="704.0100370072716" width="6.1000000000000005" height="3.4899629927283513" fill="#2563eb" opacity="0.85"><title>2024-05-13 | ETH buy 94.93 usd | reason=btc_defensive_regime</title></rect>
<rect x="165.29862385321098" y="707.5" width="6.1000000000000005" height="1.7943014833253983" fill="#7c3aed" opacity="0.85"><title>2024-05-20 | ETH sell 48.81 usd | reason=btc_defensive_regime</title></rect>
<rect x="176.49128440366974" y="698.3267590988402" width="6.1000000000000005" height="9.17324090115983" fill="#2563eb" opacity="0.85"><title>2024-05-27 | ETH buy 249.51 usd | reason=balanced_regime</title></rect>
<rect x="187.68394495412844" y="707.5" width="6.1000000000000005" height="6.637070761109612" fill="#7c3aed" opacity="0.85"><title>2024-06-03 | ETH sell 180.53 usd | reason=btc_defensive_regime</title></rect>
<rect x="198.87660550458713" y="697.2990396770196" width="6.1000000000000005" height="10.20096032298045" fill="#2563eb" opacity="0.85"><title>2024-06-10 | ETH buy 277.47 usd | reason=balanced_regime</title></rect>
<rect x="210.0692660550459" y="701.2438288249025" width="6.1000000000000005" height="6.256171175097506" fill="#2563eb" opacity="0.85"><title>2024-06-17 | ETH buy 170.17 usd | reason=balanced_regime</title></rect>
<rect x="221.26192660550458" y="682.7526411693084" width="6.1000000000000005" height="24.74735883069161" fill="#2563eb" opacity="0.85"><title>2024-06-24 | ETH buy 673.13 usd | reason=eth_strong_risk_on</title></rect>
<rect x="232.4545871559633" y="707.5" width="6.1000000000000005" height="7.255618028306117" fill="#7c3aed" opacity="0.85"><title>2024-07-01 | ETH sell 197.35 usd | reason=balanced_regime</title></rect>
<rect x="243.647247706422" y="707.5" width="6.1000000000000005" height="18.238181402869145" fill="#7c3aed" opacity="0.85"><title>2024-07-08 | ETH sell 496.08 usd | reason=both_weak_btc_defensive</title></rect>
<rect x="254.83990825688073" y="703.5255826056234" width="6.1000000000000005" height="3.9744173943765873" fill="#2563eb" opacity="0.85"><title>2024-07-15 | ETH buy 108.10 usd | reason=balanced_regime</title></rect>
<rect x="266.0325688073395" y="703.5506206737032" width="6.1000000000000005" height="3.949379326296821" fill="#2563eb" opacity="0.85"><title>2024-07-22 | ETH buy 107.42 usd | reason=balanced_regime</title></rect>
<rect x="277.2252293577981" y="704.2142431137534" width="6.1000000000000005" height="3.285756886246645" fill="#2563eb" opacity="0.85"><title>2024-07-29 | ETH buy 89.37 usd | reason=balanced_regime</title></rect>
<rect x="288.4178899082569" y="707.5" width="6.1000000000000005" height="8.301597025859792" fill="#7c3aed" opacity="0.85"><title>2024-08-05 | ETH sell 225.80 usd | reason=both_weak_btc_defensive</title></rect>
<rect x="299.61055045871564" y="707.5" width="6.1000000000000005" height="6.93878161770408" fill="#7c3aed" opacity="0.85"><title>2024-08-12 | ETH sell 188.73 usd | reason=both_weak_btc_defensive</title></rect>
<rect x="310.8032110091743" y="707.5" width="6.1000000000000005" height="3.2166992056893378" fill="#7c3aed" opacity="0.85"><title>2024-08-19 | ETH sell 87.49 usd | reason=both_weak_btc_defensive</title></rect>
<rect x="321.99587155963303" y="707.5" width="6.1000000000000005" height="1.5" fill="#7c3aed" opacity="0.85"><title>2024-08-26 | ETH sell 38.81 usd | reason=both_weak_btc_defensive</title></rect>
<rect x="333.1885321100918" y="707.5" width="6.1000000000000005" height="1.5" fill="#7c3aed" opacity="0.85"><title>2024-09-02 | ETH sell 11.60 usd | reason=both_weak_btc_defensive</title></rect>
<rect x="344.3811926605505" y="706.5289473768149" width="6.1000000000000005" height="1.5" fill="#2563eb" opacity="0.85"><title>2024-09-09 | ETH buy 26.41 usd | reason=both_weak_btc_defensive</title></rect>
<rect x="355.5738532110092" y="705.9275098150187" width="6.1000000000000005" height="1.5724901849813477" fill="#2563eb" opacity="0.85"><title>2024-09-16 | ETH buy 42.77 usd | reason=both_weak_btc_defensive</title></rect>
<rect x="366.7665137614679" y="707.5" width="6.1000000000000005" height="1.5" fill="#7c3aed" opacity="0.85"><title>2024-09-23 | ETH sell 36.02 usd | reason=both_weak_btc_defensive</title></rect>
<rect x="377.95917431192663" y="707.5" width="6.1000000000000005" height="1.5" fill="#7c3aed" opacity="0.85"><title>2024-09-30 | ETH sell 9.10 usd | reason=both_weak_btc_defensive</title></rect>
<rect x="389.15183486238533" y="706.1500407986784" width="6.1000000000000005" height="1.5" fill="#2563eb" opacity="0.85"><title>2024-10-07 | ETH buy 36.72 usd | reason=both_weak_btc_defensive</title></rect>
<rect x="400.344495412844" y="702.6101138860199" width="6.1000000000000005" height="4.889886113980083" fill="#2563eb" opacity="0.85"><title>2024-10-14 | ETH buy 133.00 usd | reason=btc_defensive_regime</title></rect>
<rect x="411.5371559633028" y="704.5345393042808" width="6.1000000000000005" height="2.96546069571923" fill="#2563eb" opacity="0.85"><title>2024-10-21 | ETH buy 80.66 usd | reason=btc_defensive_regime</title></rect>
<rect x="422.7298165137615" y="703.8125972663836" width="6.1000000000000005" height="3.687402733616409" fill="#2563eb" opacity="0.85"><title>2024-10-28 | ETH buy 100.30 usd | reason=btc_defensive_regime</title></rect>
<rect x="433.9224770642202" y="704.122269580763" width="6.1000000000000005" height="3.3777304192369684" fill="#2563eb" opacity="0.85"><title>2024-11-04 | ETH buy 91.87 usd | reason=btc_defensive_regime</title></rect>
<rect x="445.11513761467893" y="707.5" width="6.1000000000000005" height="2.2639841342283944" fill="#7c3aed" opacity="0.85"><title>2024-11-11 | ETH sell 61.58 usd | reason=btc_defensive_regime</title></rect>
<rect x="456.3077981651376" y="706.4187738299224" width="6.1000000000000005" height="1.5" fill="#2563eb" opacity="0.85"><title>2024-11-18 | ETH buy 29.41 usd | reason=btc_defensive_regime</title></rect>
<rect x="467.5004587155963" y="707.5" width="6.1000000000000005" height="1.5" fill="#7c3aed" opacity="0.85"><title>2024-11-25 | ETH sell 23.97 usd | reason=btc_defensive_regime</title></rect>
<rect x="478.6931192660551" y="707.5" width="6.1000000000000005" height="2.2004702525836137" fill="#7c3aed" opacity="0.85"><title>2024-12-02 | ETH sell 59.85 usd | reason=btc_defensive_regime</title></rect>
<rect x="489.8857798165138" y="707.5" width="6.1000000000000005" height="1.6197865454594194" fill="#7c3aed" opacity="0.85"><title>2024-12-09 | ETH sell 44.06 usd | reason=btc_defensive_regime</title></rect>
<rect x="501.0784403669725" y="707.5" width="6.1000000000000005" height="1.5" fill="#7c3aed" opacity="0.85"><title>2024-12-16 | ETH sell 32.16 usd | reason=btc_defensive_regime</title></rect>
<rect x="512.2711009174313" y="705.5915634483364" width="6.1000000000000005" height="1.9084365516636126" fill="#2563eb" opacity="0.85"><title>2024-12-23 | ETH buy 51.91 usd | reason=btc_defensive_regime</title></rect>
<rect x="523.46376146789" y="706.3414552263775" width="6.1000000000000005" height="1.5" fill="#2563eb" opacity="0.85"><title>2024-12-30 | ETH buy 31.51 usd | reason=btc_defensive_regime</title></rect>
<rect x="534.6564220183486" y="707.4662639402643" width="6.1000000000000005" height="1.5" fill="#2563eb" opacity="0.85"><title>2025-01-06 | ETH buy 0.92 usd | reason=btc_defensive_regime</title></rect>
<rect x="545.8490825688075" y="703.7618133391367" width="6.1000000000000005" height="3.7381866608633345" fill="#2563eb" opacity="0.85"><title>2025-01-13 | ETH buy 101.68 usd | reason=btc_defensive_regime</title></rect>
<rect x="557.0417431192661" y="704.5387859124298" width="6.1000000000000005" height="2.96121408757017" fill="#2563eb" opacity="0.85"><title>2025-01-20 | ETH buy 80.55 usd | reason=btc_defensive_regime</title></rect>
<rect x="568.2344036697248" y="704.5976346413382" width="6.1000000000000005" height="2.9023653586617684" fill="#2563eb" opacity="0.85"><title>2025-01-27 | ETH buy 78.94 usd | reason=btc_defensive_regime</title></rect>
<rect x="579.4270642201836" y="702.3816063478358" width="6.1000000000000005" height="5.118393652164173" fill="#2563eb" opacity="0.85"><title>2025-02-03 | ETH buy 139.22 usd | reason=btc_defensive_regime</title></rect>
<rect x="590.6197247706423" y="702.8692582526895" width="6.1000000000000005" height="4.630741747310481" fill="#2563eb" opacity="0.85"><title>2025-02-10 | ETH buy 125.96 usd | reason=btc_defensive_regime</title></rect>
<rect x="601.812385321101" y="706.2645365416465" width="6.1000000000000005" height="1.5" fill="#2563eb" opacity="0.85"><title>2025-02-17 | ETH buy 33.60 usd | reason=btc_defensive_regime</title></rect>
<rect x="613.0050458715597" y="705.0104998930917" width="6.1000000000000005" height="2.489500106908281" fill="#2563eb" opacity="0.85"><title>2025-02-24 | ETH buy 67.71 usd | reason=btc_defensive_regime</title></rect>
<rect x="624.1977064220184" y="702.719082863872" width="6.1000000000000005" height="4.780917136127982" fill="#2563eb" opacity="0.85"><title>2025-03-03 | ETH buy 130.04 usd | reason=btc_defensive_regime</title></rect>
<rect x="635.3903669724772" y="707.5" width="6.1000000000000005" height="1.5" fill="#7c3aed" opacity="0.85"><title>2025-03-10 | ETH sell 14.68 usd | reason=both_weak_btc_defensive</title></rect>
<rect x="646.5830275229358" y="707.414895169411" width="6.1000000000000005" height="1.5" fill="#2563eb" opacity="0.85"><title>2025-03-17 | ETH buy 2.31 usd | reason=both_weak_btc_defensive</title></rect>
<rect x="657.7756880733946" y="703.3070923739605" width="6.1000000000000005" height="4.192907626039528" fill="#2563eb" opacity="0.85"><title>2025-03-24 | ETH buy 114.05 usd | reason=btc_defensive_regime</title></rect>
<rect x="668.9683486238533" y="707.5" width="6.1000000000000005" height="1.5" fill="#7c3aed" opacity="0.85"><title>2025-03-31 | ETH sell 8.89 usd | reason=both_weak_btc_defensive</title></rect>
<rect x="680.161009174312" y="704.3967245035724" width="6.1000000000000005" height="3.1032754964276137" fill="#2563eb" opacity="0.85"><title>2025-04-07 | ETH buy 84.41 usd | reason=both_weak_btc_defensive</title></rect>
<rect x="691.3536697247707" y="705.5601720795811" width="6.1000000000000005" height="1.9398279204189066" fill="#2563eb" opacity="0.85"><title>2025-04-14 | ETH buy 52.76 usd | reason=both_weak_btc_defensive</title></rect>
<rect x="702.5463302752294" y="704.9992860377444" width="6.1000000000000005" height="2.500713962255645" fill="#2563eb" opacity="0.85"><title>2025-04-21 | ETH buy 68.02 usd | reason=both_weak_btc_defensive</title></rect>
<rect x="713.7389908256881" y="702.5067679999822" width="6.1000000000000005" height="4.99323200001777" fill="#2563eb" opacity="0.85"><title>2025-04-28 | ETH buy 135.82 usd | reason=btc_defensive_regime</title></rect>
<rect x="724.9316513761468" y="704.9018722920663" width="6.1000000000000005" height="2.5981277079337133" fill="#2563eb" opacity="0.85"><title>2025-05-05 | ETH buy 70.67 usd | reason=btc_defensive_regime</title></rect>
<rect x="736.1243119266056" y="707.5" width="6.1000000000000005" height="7.671323463975909" fill="#7c3aed" opacity="0.85"><title>2025-05-12 | ETH sell 208.66 usd | reason=btc_defensive_regime</title></rect>
<rect x="747.3169724770643" y="707.5" width="6.1000000000000005" height="4.395980569901781" fill="#7c3aed" opacity="0.85"><title>2025-05-19 | ETH sell 119.57 usd | reason=btc_defensive_regime</title></rect>
<rect x="758.509633027523" y="707.5" width="6.1000000000000005" height="2.171003395194475" fill="#7c3aed" opacity="0.85"><title>2025-05-26 | ETH sell 59.05 usd | reason=btc_defensive_regime</title></rect>
<rect x="769.7022935779817" y="707.5" width="6.1000000000000005" height="2.9259075078335854" fill="#7c3aed" opacity="0.85"><title>2025-06-02 | ETH sell 79.58 usd | reason=btc_defensive_regime</title></rect>
<rect x="780.8949541284404" y="694.4956703628548" width="6.1000000000000005" height="13.004329637145247" fill="#2563eb" opacity="0.85"><title>2025-06-09 | ETH buy 353.72 usd | reason=balanced_regime</title></rect>
<rect x="792.0876146788991" y="707.5" width="6.1000000000000005" height="5.520290627358577" fill="#7c3aed" opacity="0.85"><title>2025-06-16 | ETH sell 150.15 usd | reason=btc_defensive_regime</title></rect>
<rect x="803.2802752293579" y="707.5" width="6.1000000000000005" height="1.6288221395278697" fill="#7c3aed" opacity="0.85"><title>2025-06-23 | ETH sell 44.30 usd | reason=btc_defensive_regime</title></rect>
<rect x="814.4729357798166" y="707.5" width="6.1000000000000005" height="1.640881898609905" fill="#7c3aed" opacity="0.85"><title>2025-06-30 | ETH sell 44.63 usd | reason=btc_defensive_regime</title></rect>
<rect x="825.6655963302753" y="707.5" width="6.1000000000000005" height="1.5483972247064912" fill="#7c3aed" opacity="0.85"><title>2025-07-07 | ETH sell 42.12 usd | reason=btc_defensive_regime</title></rect>
<rect x="836.858256880734" y="696.5229146869782" width="6.1000000000000005" height="10.977085313021803" fill="#2563eb" opacity="0.85"><title>2025-07-14 | ETH buy 298.58 usd | reason=balanced_regime</title></rect>
<rect x="848.0509174311927" y="707.5" width="6.1000000000000005" height="4.605555293686734" fill="#7c3aed" opacity="0.85"><title>2025-07-21 | ETH sell 125.27 usd | reason=balanced_regime</title></rect>
<rect x="859.2435779816514" y="707.5" width="6.1000000000000005" height="3.049854825140642" fill="#7c3aed" opacity="0.85"><title>2025-07-28 | ETH sell 82.96 usd | reason=balanced_regime</title></rect>
<rect x="870.4362385321102" y="707.5" width="6.1000000000000005" height="1.7170484873224723" fill="#7c3aed" opacity="0.85"><title>2025-08-04 | ETH sell 46.70 usd | reason=balanced_regime</title></rect>
<rect x="881.6288990825689" y="707.5" width="6.1000000000000005" height="6.608184309782018" fill="#7c3aed" opacity="0.85"><title>2025-08-11 | ETH sell 179.74 usd | reason=balanced_regime</title></rect>
<rect x="892.8215596330276" y="707.5" width="6.1000000000000005" height="5.916970085688149" fill="#7c3aed" opacity="0.85"><title>2025-08-18 | ETH sell 160.94 usd | reason=balanced_regime</title></rect>
<rect x="904.0142201834863" y="707.5" width="6.1000000000000005" height="6.33642117502518" fill="#7c3aed" opacity="0.85"><title>2025-08-25 | ETH sell 172.35 usd | reason=balanced_regime</title></rect>
<rect x="915.206880733945" y="707.5" width="6.1000000000000005" height="3.3301192009301985" fill="#7c3aed" opacity="0.85"><title>2025-09-01 | ETH sell 90.58 usd | reason=balanced_regime</title></rect>
<rect x="926.3995412844037" y="707.5" width="6.1000000000000005" height="1.5" fill="#7c3aed" opacity="0.85"><title>2025-09-08 | ETH sell 25.23 usd | reason=balanced_regime</title></rect>
<rect x="937.5922018348625" y="707.5" width="6.1000000000000005" height="2.0798553823403836" fill="#7c3aed" opacity="0.85"><title>2025-09-15 | ETH sell 56.57 usd | reason=balanced_regime</title></rect>
<rect x="948.7848623853212" y="705.7826913926682" width="6.1000000000000005" height="1.7173086073318018" fill="#2563eb" opacity="0.85"><title>2025-09-22 | ETH buy 46.71 usd | reason=balanced_regime</title></rect>
<rect x="959.9775229357799" y="706.0954423049179" width="6.1000000000000005" height="1.5" fill="#2563eb" opacity="0.85"><title>2025-09-29 | ETH buy 38.20 usd | reason=balanced_regime</title></rect>
<rect x="971.1701834862386" y="707.5" width="6.1000000000000005" height="1.5" fill="#7c3aed" opacity="0.85"><title>2025-10-06 | ETH sell 37.27 usd | reason=balanced_regime</title></rect>
<rect x="982.3628440366973" y="706.1490520305975" width="6.1000000000000005" height="1.5" fill="#2563eb" opacity="0.85"><title>2025-10-13 | ETH buy 36.75 usd | reason=balanced_regime</title></rect>
<rect x="993.555504587156" y="705.0483405332867" width="6.1000000000000005" height="2.451659466713295" fill="#2563eb" opacity="0.85"><title>2025-10-20 | ETH buy 66.69 usd | reason=balanced_regime</title></rect>
<rect x="1004.7481651376148" y="706.572663679462" width="6.1000000000000005" height="1.5" fill="#2563eb" opacity="0.85"><title>2025-10-27 | ETH buy 25.22 usd | reason=balanced_regime</title></rect>
<rect x="1015.9408256880735" y="703.0545180306926" width="6.1000000000000005" height="4.445481969307366" fill="#2563eb" opacity="0.85"><title>2025-11-03 | ETH buy 120.92 usd | reason=balanced_regime</title></rect>
<rect x="1027.1334862385322" y="704.5635066926279" width="6.1000000000000005" height="2.936493307372075" fill="#2563eb" opacity="0.85"><title>2025-11-10 | ETH buy 79.87 usd | reason=balanced_regime</title></rect>
<rect x="1038.3261467889909" y="707.5" width="6.1000000000000005" height="17.004100203360963" fill="#7c3aed" opacity="0.85"><title>2025-11-17 | ETH sell 462.51 usd | reason=both_weak_btc_defensive</title></rect>
<rect x="1049.5188073394495" y="707.5" width="6.1000000000000005" height="10.057392701437834" fill="#7c3aed" opacity="0.85"><title>2025-11-24 | ETH sell 273.56 usd | reason=both_weak_btc_defensive</title></rect>
<rect x="1060.7114678899081" y="707.5" width="6.1000000000000005" height="4.493420459352933" fill="#7c3aed" opacity="0.85"><title>2025-12-01 | ETH sell 122.22 usd | reason=both_weak_btc_defensive</title></rect>
<rect x="1071.9041284403672" y="707.5" width="6.1000000000000005" height="5.75841078891699" fill="#7c3aed" opacity="0.85"><title>2025-12-08 | ETH sell 156.63 usd | reason=both_weak_btc_defensive</title></rect>
<rect x="1083.0967889908259" y="707.5" width="6.1000000000000005" height="2.5570715763278713" fill="#7c3aed" opacity="0.85"><title>2025-12-15 | ETH sell 69.55 usd | reason=both_weak_btc_defensive</title></rect>
<rect x="1094.2894495412845" y="707.5" width="6.1000000000000005" height="1.512861482042581" fill="#7c3aed" opacity="0.85"><title>2025-12-22 | ETH sell 41.15 usd | reason=both_weak_btc_defensive</title></rect>
<rect x="1105.4821100917432" y="707.5" width="6.1000000000000005" height="1.5" fill="#7c3aed" opacity="0.85"><title>2025-12-29 | ETH sell 11.05 usd | reason=both_weak_btc_defensive</title></rect>
<rect x="1116.674770642202" y="707.5" width="6.1000000000000005" height="1.95439795855782" fill="#7c3aed" opacity="0.85"><title>2026-01-05 | ETH sell 53.16 usd | reason=both_weak_btc_defensive</title></rect>
<rect x="1127.8674311926607" y="707.5" width="6.1000000000000005" height="1.5" fill="#7c3aed" opacity="0.85"><title>2026-01-12 | ETH sell 8.30 usd | reason=both_weak_btc_defensive</title></rect>
<rect x="1139.0600917431193" y="707.5" width="6.1000000000000005" height="1.5" fill="#7c3aed" opacity="0.85"><title>2026-01-19 | ETH sell 25.61 usd | reason=both_weak_btc_defensive</title></rect>
<rect x="1150.252752293578" y="706.1605338928539" width="6.1000000000000005" height="1.5" fill="#2563eb" opacity="0.85"><title>2026-01-26 | ETH buy 36.43 usd | reason=both_weak_btc_defensive</title></rect>
<rect x="1161.4454128440368" y="702.3632194124197" width="6.1000000000000005" height="5.136780587580347" fill="#2563eb" opacity="0.85"><title>2026-02-02 | ETH buy 139.72 usd | reason=both_weak_btc_defensive</title></rect>
<rect x="1172.6380733944954" y="703.626078443747" width="6.1000000000000005" height="3.8739215562529807" fill="#2563eb" opacity="0.85"><title>2026-02-09 | ETH buy 105.37 usd | reason=both_weak_btc_defensive</title></rect>
<rect x="1183.8307339449543" y="704.1380846458852" width="6.1000000000000005" height="3.3619153541147853" fill="#2563eb" opacity="0.85"><title>2026-02-16 | ETH buy 91.44 usd | reason=both_weak_btc_defensive</title></rect>
<rect x="1195.023394495413" y="704.6993916538912" width="6.1000000000000005" height="2.8006083461087883" fill="#2563eb" opacity="0.85"><title>2026-02-23 | ETH buy 76.18 usd | reason=both_weak_btc_defensive</title></rect>
<rect x="1206.2160550458716" y="707.0699827797323" width="6.1000000000000005" height="1.5" fill="#2563eb" opacity="0.85"><title>2026-03-02 | ETH buy 11.70 usd | reason=both_weak_btc_defensive</title></rect>
<rect x="1217.4087155963302" y="706.8770718910166" width="6.1000000000000005" height="1.5" fill="#2563eb" opacity="0.85"><title>2026-03-09 | ETH buy 16.94 usd | reason=both_weak_btc_defensive</title></rect>
<rect x="1228.601376146789" y="707.5" width="6.1000000000000005" height="2.8973040393389056" fill="#7c3aed" opacity="0.85"><title>2026-03-16 | ETH sell 78.81 usd | reason=both_weak_btc_defensive</title></rect>
<rect x="1239.7940366972477" y="707.5" width="6.1000000000000005" height="1.5" fill="#7c3aed" opacity="0.85"><title>2026-03-23 | ETH sell 2.27 usd | reason=both_weak_btc_defensive</title></rect>
<rect x="1250.9866972477066" y="706.9247207846212" width="6.1000000000000005" height="1.5" fill="#2563eb" opacity="0.85"><title>2026-03-30 | ETH buy 15.65 usd | reason=both_weak_btc_defensive</title></rect>
<rect x="1262.1793577981653" y="707.5" width="6.1000000000000005" height="1.5" fill="#7c3aed" opacity="0.85"><title>2026-04-06 | ETH sell 5.86 usd | reason=both_weak_btc_defensive</title></rect>
<rect x="1273.372018348624" y="707.5" width="6.1000000000000005" height="2.1942481500079793" fill="#7c3aed" opacity="0.85"><title>2026-04-13 | ETH sell 59.68 usd | reason=both_weak_btc_defensive</title></rect>
<rect x="1284.5646788990825" y="707.5" width="6.1000000000000005" height="1.5" fill="#7c3aed" opacity="0.85"><title>2026-04-20 | ETH sell 5.77 usd | reason=both_weak_btc_defensive</title></rect>
<rect x="1295.7573394495414" y="707.0873145355027" width="6.1000000000000005" height="1.5" fill="#2563eb" opacity="0.85"><title>2026-04-27 | ETH buy 11.23 usd | reason=both_weak_btc_defensive</title></rect>
<rect x="1306.95" y="707.1853166212944" width="6.1000000000000005" height="1.5" fill="#2563eb" opacity="0.85"><title>2026-05-04 | ETH buy 8.56 usd | reason=both_weak_btc_defensive</title></rect>
<text x="24" y="707.5" transform="rotate(-90 24,707.5)" text-anchor="middle" font-family="monospace" font-size="14" fill="#0f172a">ETH weekly trade usd</text>
<rect x="1040" y="478" width="14" height="10" fill="#ea580c" opacity="0.85"/>
<text x="1062" y="488" font-family="monospace" font-size="11" fill="#0f172a">BTC buy</text>
<rect x="1190" y="478" width="14" height="10" fill="#dc2626" opacity="0.85"/>
<text x="1212" y="488" font-family="monospace" font-size="11" fill="#0f172a">BTC sell</text>
<rect x="1040" y="498" width="14" height="10" fill="#2563eb" opacity="0.85"/>
<text x="1062" y="508" font-family="monospace" font-size="11" fill="#0f172a">ETH buy</text>
<rect x="1190" y="498" width="14" height="10" fill="#7c3aed" opacity="0.85"/>
<text x="1212" y="508" font-family="monospace" font-size="11" fill="#0f172a">ETH sell</text>
</svg>