<svg xmlns="http://www.w3.org/2000/svg" width="1400" height="800">
<rect width="1400" height="800" fill="#f8fafc"/>
<text x="700.0" y="42" text-anchor="middle" font-family="monospace" font-size="24" fill="#0f172a">Portfolio Value Over Time | start=2023-07-01 | interval=7d</text>
<line x1="90" y1="710" x2="1310" y2="710" stroke="#334155" stroke-width="2"/>
<line x1="90" y1="90" x2="90" y2="710" stroke="#334155" stroke-width="2"/>
<line x1="90.0" y1="710" x2="90.0" y2="90" stroke="#cbd5e1" stroke-width="1"/>
<text x="90.0" y="734" text-anchor="middle" font-family="monospace" font-size="11" fill="#475569">2023-07-01</text>
<line x1="90" y1="710.0" x2="1310" y2="710.0" stroke="#cbd5e1" stroke-width="1"/>
<text x="78" y="714.0" text-anchor="end" font-family="monospace" font-size="12" fill="#475569">8809</text>
<line x1="334.0" y1="710" x2="334.0" y2="90" stroke="#cbd5e1" stroke-width="1"/>
<text x="334.0" y="734" text-anchor="middle" font-family="monospace" font-size="11" fill="#475569">2024-01-27</text>
<line x1="90" y1="586.0" x2="1310" y2="586.0" stroke="#cbd5e1" stroke-width="1"/>
<text x="78" y="590.0" text-anchor="end" font-family="monospace" font-size="12" fill="#475569">12686</text>
<line x1="578.0" y1="710" x2="578.0" y2="90" stroke="#cbd5e1" stroke-width="1"/>
<text x="578.0" y="734" text-anchor="middle" font-family="monospace" font-size="11" fill="#475569">2024-08-17</text>
<line x1="90" y1="462.0" x2="1310" y2="462.0" stroke="#cbd5e1" stroke-width="1"/>
<text x="78" y="466.0" text-anchor="end" font-family="monospace" font-size="12" fill="#475569">16562</text>
<line x1="822.0" y1="710" x2="822.0" y2="90" stroke="#cbd5e1" stroke-width="1"/>
<text x="822.0" y="734" text-anchor="middle" font-family="monospace" font-size="11" fill="#475569">2025-03-15</text>
<line x1="90" y1="338.0" x2="1310" y2="338.0" stroke="#cbd5e1" stroke-width="1"/>
<text x="78" y="342.0" text-anchor="end" font-family="monospace" font-size="12" fill="#475569">20439</text>
<line x1="1066.0" y1="710" x2="1066.0" y2="90" stroke="#cbd5e1" stroke-width="1"/>
<text x="1066.0" y="734" text-anchor="middle" font-family="monospace" font-size="11" fill="#475569">2025-10-04</text>
<line x1="90" y1="214.0000000000001" x2="1310" y2="214.0000000000001" stroke="#cbd5e1" stroke-width="1"/>
<text x="78" y="218.0000000000001" text-anchor="end" font-family="monospace" font-size="12" fill="#475569">24316</text>
<line x1="1310.0" y1="710" x2="1310.0" y2="90" stroke="#cbd5e1" stroke-width="1"/>
<text x="1310.0" y="734" text-anchor="middle" font-family="monospace" font-size="11" fill="#475569">2026-05-02</text>
<line x1="90" y1="90.0" x2="1310" y2="90.0" stroke="#cbd5e1" stroke-width="1"/>
<text x="78" y="94.0" text-anchor="end" font-family="monospace" font-size="12" fill="#475569">28193</text>
<text x="700.0" y="782" text-anchor="middle" font-family="monospace" font-size="16" fill="#0f172a">time</text>
<text x="24" y="400.0" transform="rotate(-90 24,400.0)" text-anchor="middle" font-family="monospace" font-size="16" fill="#0f172a">portfolio_value_usd</text>
<line x1="970" y1="80" x2="988" y2="80" stroke="#0f766e" stroke-width="3"/>
<text x="998" y="84" font-family="monospace" font-size="12" fill="#0f172a">budgeted_static_50_50_rebalance</text>
<line x1="970" y1="104" x2="988" y2="104" stroke="#9333ea" stroke-width="3"/>
<text x="998" y="108" font-family="monospace" font-size="12" fill="#0f172a">budgeted_drawdown_tilt_rebalance</text>
<line x1="970" y1="128" x2="988" y2="128" stroke="#92400e" stroke-width="3"/>
<text x="998" y="132" font-family="monospace" font-size="12" fill="#0f172a">budgeted_btc_defensive_eth_aggressive</text>
<line x1="970" y1="152" x2="988" y2="152" stroke="#0f766e" stroke-width="3"/>
<text x="998" y="156" font-family="monospace" font-size="12" fill="#0f172a">static_50_50_rebalance</text>
<line x1="970" y1="176" x2="988" y2="176" stroke="#dc2626" stroke-width="3"/>
<text x="998" y="180" font-family="monospace" font-size="12" fill="#0f172a">target_50_50_with_cash_band</text>
<line x1="970" y1="200" x2="988" y2="200" stroke="#2563eb" stroke-width="3"/>
<text x="998" y="204" font-family="monospace" font-size="12" fill="#0f172a">narrow_cash_band_rebalance</text>
<line x1="970" y1="224" x2="988" y2="224" stroke="#7c3aed" stroke-width="3"/>
<text x="998" y="228" font-family="monospace" font-size="12" fill="#0f172a">drawdown_tilt_rebalance</text>
<line x1="970" y1="248" x2="988" y2="248" stroke="#b45309" stroke-width="3"/>
<text x="998" y="252" font-family="monospace" font-size="12" fill="#0f172a">btc_defensive_eth_aggressive</text>
<polyline points="90.0,671.8979001959646 98.24324324324324,671.9363840296586 106.48648648648648,671.8685513401192 114.72972972972973,672.0149842071118 122.97297297297297,672.0423691952961 131.21621621621622,672.2083107618851 139.45945945945945,672.0929527642918 147.7027027027027,673.4825921791876 155.94594594594594,673.6024627604178 164.1891891891892,673.6894328375568 172.43243243243245,673.6883460448294 180.67567567567568,673.43928948886 188.9189189189189,673.7015952965456 197.16216216216216,672.9854854178205 205.40540540540542,672.774763631334 213.64864864864865,674.0129084925804 221.8918918918919,671.6587167565013 230.13513513513513,667.8412524501979 238.3783783783784,666.421424683895 246.6216216216216,663.0430700319125 254.86486486486487,664.3941830722498 263.1081081081081,662.1778565953732 271.35135135135135,660.0045401381198 279.5945945945946,654.690121147578 287.8378378378378,657.2804420579556 296.08108108108104,655.0238809152017 304.3243243243243,656.5542404281913 312.56756756756755,655.7109024371103 320.81081081081084,651.8231512511977 329.05405405405406,654.4472995824207 337.2972972972973,657.1194730541016 345.5405405405405,655.8693640875857 353.7837837837838,648.090379357123 362.02702702702703,639.6339120874501 370.27027027027026,636.2673411423877 378.5135135135135,618.4103761972829 386.7567567567568,603.3584470999513 395.0,613.6239899350111 403.2432432432432,618.3413870409282 411.48648648648646,609.1519475848121 419.72972972972974,612.7733728825691 427.97297297297297,624.498118147653 436.2162162162162,620.6777752569826 444.4594594594594,620.5407678198412 452.7027027027027,622.6682169594093 460.94594594594594,630.3211120038309 469.18918918918916,618.9083191723971 477.4324324324324,603.2245171594063 485.6756756756757,603.7679347917534 493.9189189189189,604.6436028779731 502.16216216216213,610.8776559727993 510.40540540540536,614.8632992415379 518.6486486486486,621.693640234689 526.8918918918919,631.8309305689545 535.1351351351351,628.1120485102783 543.3783783783783,610.0011350890462 551.6216216216217,615.2765265488655 559.8648648648649,632.982302236077 568.1081081081081,639.5457172648365 576.3513513513514,641.3994451602504 584.5945945945946,631.1965003262482 592.8378378378379,644.7900190860761 601.081081081081,657.5865401570486 609.3243243243243,645.5409174495599 617.5675675675676,635.651474100491 625.8108108108108,630.373560656038 634.0540540540541,642.9490403744431 642.2972972972973,639.6011270729794 650.5405405405405,627.1088693163226 658.7837837837837,633.852262330752 667.027027027027,629.8780272968702 675.2702702702702,600.3561405648145 683.5135135135135,578.571259000204 691.7567567567568,559.7002578174141 700.0,552.6321773560235 708.2432432432433,538.3912026178724 716.4864864864865,539.9821820763465 724.7297297297298,562.7940877913102 732.9729729729729,564.3161340352675 741.2162162162163,551.3384661023891 749.4594594594595,568.9461020536835 757.7027027027027,552.0538925471708 765.9459459459459,551.1073565914155 774.1891891891893,564.3831733405934 782.4324324324324,586.9592899792478 790.6756756756757,583.0785492258331 798.9189189189188,582.4296480656167 807.1621621621622,618.7795055523181 815.4054054054054,618.9240848614594 823.6486486486486,631.3259385987174 831.8918918918919,630.6517493992656 840.1351351351352,638.3363270869838 848.3783783783783,637.6612224241082 856.6216216216217,640.8472517149283 864.8648648648648,642.4077861324682 873.1081081081081,617.7805937196345 881.3513513513514,615.2685745267329 889.5945945945946,568.2314977335355 897.8378378378378,575.6673461714729 906.0810810810812,565.6591569170178 914.3243243243243,570.8445323180329 922.5675675675676,569.4177974752427 930.8108108108107,569.3921645623532 939.0540540540541,585.8470302377326 947.2972972972973,570.7961380386637 955.5405405405405,565.4497074738098 963.7837837837837,529.5401303402642 972.0270270270271,495.9906984098151 980.2702702702702,488.3434574396385 988.5135135135135,514.8804704071297 996.7567567567567,463.8911481803481 1005.0,454.0209714745703 1013.2432432432433,439.5333732221901 1021.4864864864865,470.7120089301055 1029.7297297297298,473.45715744001734 1037.972972972973,443.9722922175816 1046.2162162162163,453.62711119209195 1054.4594594594596,486.9992776016703 1062.7027027027027,441.5069119856977 1070.9459459459458,498.5611853126148 1079.1891891891892,497.83343454676293 1087.4324324324325,486.7686902742181 1095.6756756756758,493.7714183529738 1103.9189189189187,531.447890229934 1112.162162162162,555.4134948157915 1120.4054054054054,595.3010422465318 1128.6486486486485,572.7551439731875 1136.8918918918919,573.064780530923 1145.1351351351352,567.3002568891202 1153.3783783783783,578.1173764321625 1161.6216216216217,580.6567289744839 1169.8648648648648,565.9581322280462 1178.1081081081081,568.6582521328069 1186.3513513513515,547.5365609852195 1194.5945945945946,578.2372007180047 1202.837837837838,624.9270751580295 1211.081081081081,662.542483234861 1219.3243243243244,661.5669300514495 1227.5675675675675,671.3633203545882 1235.8108108108108,673.7020837562796 1244.054054054054,672.8649634067345 1252.2972972972973,657.8340640416624 1260.5405405405404,662.9300248520879 1268.7837837837837,673.3910395213736 1277.027027027027,667.128312926853 1285.2702702702702,642.4072493364263 1293.5135135135135,633.3041718619273 1301.7567567567567,631.5746428941426 1310.0,629.8119700428832" fill="none" stroke="#0f766e" stroke-width="2.5"><title>budgeted_static_50_50_rebalance | end=2026-05-02 | return=13.16%</title></polyline>
<polyline points="90.0,671.8979001959646 98.24324324324324,671.8979001959646 106.48648648648648,671.8979001959646 114.72972972972973,671.8979001959646 122.97297297297297,671.8979001959646 131.21621621621622,671.8979001959646 139.45945945945945,671.8979001959646 147.7027027027027,671.8979001959646 155.94594594594594,671.9107005134191 164.1891891891892,671.9267274808811 172.43243243243245,671.9266683505571 180.67567567567568,671.8562790463168 188.9189189189189,671.9495260195207 197.16216216216216,671.6749123418629 205.40540540540542,671.6100215687246 213.64864864864865,672.1372521998101 221.8918918918919,671.0372568880347 230.13513513513513,669.1734305445328 238.3783783783784,668.4336594069897 246.6216216216216,666.7416398854062 254.86486486486487,667.4050590056082 263.1081081081081,666.382521770438 271.35135135135135,665.447633717175 279.5945945945946,663.2561177856736 287.8378378378378,664.3207540957251 296.08108108108104,663.4346641285258 304.3243243243243,663.9864798495342 312.56756756756755,663.7427898899999 320.81081081081084,662.1651197129274 329.05405405405406,663.1056035853408 337.2972972972973,664.1211996153113 345.5405405405405,663.7137177829528 353.7837837837838,661.2101708416795 362.02702702702703,658.4921808848881 370.27027027027026,657.3541643211593 378.5135135135135,651.9556542077951 386.7567567567568,647.3687927051438 395.0,650.5062817332667 403.2432432432432,651.9363227241192 411.48648648648646,649.242996568189 419.72972972972974,650.3618566964776 427.97297297297297,653.9320526197281 436.2162162162162,652.6679210868833 444.4594594594594,652.5180669260435 452.7027027027027,653.317612414856 460.94594594594594,655.9108189677162 469.18918918918916,651.994552321255 477.4324324324324,646.0319403619019 485.6756756756757,646.1106795738481 493.9189189189189,646.5797566421851 502.16216216216213,648.6807605520156 510.40540540540536,650.0085921279788 518.6486486486486,652.2533825251804 526.8918918918919,655.8278331534607 535.1351351351351,654.4979770347411 543.3783783783783,648.2053443723747 551.6216216216217,650.2761440322396 559.8648648648649,656.4727060976229 568.1081081081081,659.13543298692 576.3513513513514,659.7537193807732 584.5945945945946,655.8744790088189 592.8378378378379,661.3222657687216 601.081081081081,666.616281448118 609.3243243243243,661.7003341471737 617.5675675675676,657.3055501616186 625.8108108108108,655.04293492863 634.0540540540541,660.987936264377 642.2972972972973,659.3954577807428 650.5405405405405,653.5588173592839 658.7837837837837,657.141769548821 667.027027027027,655.4204025657689 675.2702702702702,639.470984271431 683.5135135135135,630.2795735682747 691.7567567567568,620.7801658406863 700.0,615.950042232265 708.2432432432433,608.2252716313395 716.4864864864865,609.6624521608061 724.7297297297298,622.260528083616 732.9729729729729,622.5330421103674 741.2162162162163,615.5511143960175 749.4594594594595,625.1097247967447 757.7027027027027,617.9223396869859 765.9459459459459,617.4383116010214 774.1891891891893,624.2678295464527 782.4324324324324,636.8391840419978 790.6756756756757,634.7874864456556 798.9189189189188,634.0411308456357 807.1621621621622,653.6611233224229 815.4054054054054,653.8241396812103 823.6486486486486,661.3792615823899 831.8918918918919,660.7248822941887 840.1351351351352,665.5623512634758 848.3783783783783,665.4532050896858 856.6216216216217,668.4838567272166 864.8648648648648,669.5431438650655 873.1081081081081,655.243800176074 881.3513513513514,653.8479005297262 889.5945945945946,621.6048203373872 897.8378378378378,626.6377935399565 906.0810810810812,620.7507994728836 914.3243243243243,623.5585394830846 922.5675675675676,622.8131735969857 930.8108108108107,622.7387267001682 939.0540540540541,634.364113603734 947.2972972972973,624.3961514619281 955.5405405405405,620.5138646796689 963.7837837837837,595.330308566592 972.0270270270271,569.2019797787234 980.2702702702702,563.3036929828127 988.5135135135135,582.0280226894731 996.7567567567567,544.172682253872 1005.0,536.9184560090979 1013.2432432432433,525.2028857875573 1021.4864864864865,546.8761900397351 1029.7297297297298,549.4382683924516 1037.972972972973,528.971210609459 1046.2162162162163,536.2504589966013 1054.4594594594596,559.3963518855139 1062.7027027027027,529.5292503451219 1070.9459459459458,568.4534645852186 1079.1891891891892,566.5212091182083 1087.4324324324325,559.821157306899 1095.6756756756758,564.5295619737045 1103.9189189189187,590.2192151123327 1112.162162162162,605.9325729455593 1120.4054054054054,632.3579951514167 1128.6486486486485,617.3399060709493 1136.8918918918919,616.9511339138774 1145.1351351351352,612.8354182399796 1153.3783783783783,620.5636551655751 1161.6216216216217,622.3611112456035 1169.8648648648648,611.8261454677958 1178.1081081081081,613.8933256118595 1186.3513513513515,598.9349917703174 1194.5945945945946,621.3048947958523 1202.837837837838,654.9784742836341 1211.081081081081,681.8425774241787 1219.3243243243244,681.2521742809322 1227.5675675675675,688.6110916893554 1235.8108108108108,690.1823567971203 1244.054054054054,689.5918375450519 1252.2972972972973,678.4433572710516 1260.5405405405404,681.9566979131326 1268.7837837837837,689.9212868421715 1277.027027027027,684.9268956210336 1285.2702702702702,665.6894855706662 1293.5135135135135,658.6460694526468 1301.7567567567567,657.751685868375 1310.0,656.5045538215246" fill="none" stroke="#9333ea" stroke-width="2.5"><title>budgeted_drawdown_tilt_rebalance | end=2026-05-02 | return=4.81%</title></polyline>
<polyline points="90.0,671.8979001959646 98.24324324324324,671.9237717058538 106.48648648648648,671.8828837057573 114.72972972972973,671.9851386407422 122.97297297297297,672.0182970449679 131.21621621621622,672.1326378106745 139.45945945945945,672.0420492312059 147.7027027027027,673.1002270028827 155.94594594594594,673.1899148533807 164.1891891891892,673.2707530318154 172.43243243243245,673.2658566414456 180.67567567567568,672.9522287759845 188.9189189189189,673.1785618625046 197.16216216216216,672.4598393532177 205.40540540540542,672.0422129941063 213.64864864864865,673.4764505092837 221.8918918918919,670.4185094507042 230.13513513513513,665.7133989725493 238.3783783783784,664.1276408641119 246.6216216216216,660.4811824781151 254.86486486486487,661.8461274996705 263.1081081081081,659.5282119403445 271.35135135135135,657.1147711569433 279.5945945945946,651.181753352892 287.8378378378378,653.8735626239846 296.08108108108104,651.4710109986397 304.3243243243243,653.2961582570301 312.56756756756755,651.943421166638 320.81081081081084,649.1743837819997 329.05405405405406,651.7443213317007 337.2972972972973,653.7586274150481 345.5405405405405,652.4209343850309 353.7837837837838,644.3757455618367 362.02702702702703,636.1146127678904 370.27027027027026,633.4589806666485 378.5135135135135,615.2025758852807 386.7567567567568,600.738763664475 395.0,610.1531870588763 403.2432432432432,614.3895817890797 411.48648648648646,604.9247163037757 419.72972972972974,608.0639888632683 427.97297297297297,619.2349179226251 436.2162162162162,615.859530793578 444.4594594594594,616.3796736807798 452.7027027027027,617.8394792765795 460.94594594594594,625.062120849911 469.18918918918916,613.6668177381304 477.4324324324324,600.5721096885898 485.6756756756757,601.6646420396527 493.9189189189189,601.6481759332826 502.16216216216213,607.7789092876644 510.40540540540536,611.6834854268579 518.6486486486486,618.3717581980183 526.8918918918919,627.3326403427684 535.1351351351351,624.0094117798121 543.3783783783783,606.3780059456834 551.6216216216217,610.2126965612745 559.8648648648649,627.2059415693134 568.1081081081081,632.2752488655512 576.3513513513514,634.3927875298532 584.5945945945946,624.0815496872292 592.8378378378379,637.3423907454559 601.081081081081,649.8977150360664 609.3243243243243,637.3315284300645 617.5675675675676,627.6254251300185 625.8108108108108,622.0571902874988 634.0540540540541,634.2582428640404 642.2972972972973,630.9228027276064 650.5405405405405,617.9044585469119 658.7837837837837,624.1834643583489 667.027027027027,619.6830367748909 675.2702702702702,591.5479411854473 683.5135135135135,566.3006173930288 691.7567567567568,547.0538830836783 700.0,542.0021153032637 708.2432432432433,528.5384752047619 716.4864864864865,529.0247637435805 724.7297297297298,549.7934828002853 732.9729729729729,552.1877868373258 741.2162162162163,540.0085473693471 749.4594594594595,556.2183163430807 757.7027027027027,537.0730830940171 765.9459459459459,536.1451003188322 774.1891891891893,549.1083669639851 782.4324324324324,569.4948932039159 790.6756756756757,565.7625297130786 798.9189189189188,565.8861019020314 807.1621621621622,600.7681973679676 815.4054054054054,600.7619849178185 823.6486486486486,611.5345060300116 831.8918918918919,611.352880488249 840.1351351351352,618.058151337628 848.3783783783783,616.9253213029001 856.6216216216217,618.1665316774385 864.8648648648648,619.5387012428603 873.1081081081081,593.2839814130708 881.3513513513514,590.4514913796638 889.5945945945946,546.7894416931817 897.8378378378378,553.8558055938913 906.0810810810812,542.4858733392668 914.3243243243243,549.0112076812737 922.5675675675676,547.1146733628757 930.8108108108107,547.2279947569135 939.0540540540541,562.3946536041096 947.2972972972973,546.580583460133 955.5405405405405,541.842322004915 963.7837837837837,507.0258578377608 972.0270270270271,482.342518692824 980.2702702702702,476.72948242939697 988.5135135135135,501.1620854681762 996.7567567567567,460.0598668356158 1005.0,451.8525666278354 1013.2432432432433,442.6561086322709 1021.4864864864865,471.83887006071416 1029.7297297297298,472.89439693236216 1037.972972972973,445.4598897262435 1046.2162162162163,453.3004541923495 1054.4594594594596,484.2685246381824 1062.7027027027027,439.06961995726175 1070.9459459459458,493.102518749773 1079.1891891891892,494.65057892905855 1087.4324324324325,482.85334250317294 1095.6756756756758,489.61623316899124 1103.9189189189187,525.4554861743674 1112.162162162162,549.1782866930317 1120.4054054054054,588.3896693424101 1128.6486486486485,566.1260511526307 1136.8918918918919,567.3161446757026 1145.1351351351352,561.9968725226652 1153.3783783783783,571.9979125395449 1161.6216216216217,574.3754435070355 1169.8648648648648,560.8025995464006 1178.1081081081081,563.0903344003685 1186.3513513513515,543.3273694396374 1194.5945945945946,571.5642139517927 1202.837837837838,615.1670387970357 1211.081081081081,651.1624351200902 1219.3243243243244,650.0205054575546 1227.5675675675675,659.0833498421642 1235.8108108108108,661.6310728984117 1244.054054054054,660.7566953143125 1252.2972972972973,645.8173772004687 1260.5405405405404,651.5274762781988 1268.7837837837837,661.7493317988296 1277.027027027027,656.0346556686383 1285.2702702702702,632.2388420460269 1293.5135135135135,623.0936551747749 1301.7567567567567,620.3674669301712 1310.0,618.216628673042" fill="none" stroke="#92400e" stroke-width="2.5"><title>budgeted_btc_defensive_eth_aggressive | end=2026-05-02 | return=16.78%</title></polyline>
<polyline points="90.0,671.8979001959646 98.24324324324324,674.463489108897 106.48648648648648,671.0729053695037 114.72972972972973,676.7565837799359 122.97297297297297,677.6119627287238 131.21621621621622,681.8721449178928 139.45945945945945,679.3655881929451 147.7027027027027,705.3849446769256 155.94594594594594,707.3440998377155 164.1891891891892,708.6039267606161 172.43243243243245,708.589496417527 180.67567567567568,705.6746679628882 188.9189189189189,708.4832374422851 197.16216216216216,701.4307641533859 205.40540540540542,699.5906986377623 213.64864864864865,710.0 221.8918918918919,691.7013669103272 230.13513513513513,663.8990300920995 238.3783783783784,653.9990425346116 246.6216216216216,631.6153476705543 254.86486486486487,640.1817513128997 263.1081081081081,626.8859515327262 271.35135135135135,614.631855866354 279.5945945945946,585.9942354623166 287.8378378378378,599.5611589188542 296.08108108108104,588.214556793858 304.3243243243243,595.39979370079 312.56756756756755,591.9045507769105 320.81081081081084,572.4621562948985 329.05405405405406,584.2164231385792 337.2972972972973,595.9757707354214 345.5405405405405,590.7030107465825 353.7837837837838,558.604713645753 362.02702702702703,524.415921124748 370.27027027027026,510.74184536226085 378.5135135135135,443.480139091813 386.7567567567568,388.3417111542613 395.0,424.8016910748879 403.2432432432432,441.37021246980436 411.48648648648646,410.2412527747061 419.72972972972974,422.8206995207076 427.97297297297297,462.0376460229526 436.2162162162162,448.906515258772 444.4594594594594,447.47465055610934 452.7027027027027,455.0423233788731 460.94594594594594,479.50999769243083 469.18918918918916,444.1985045407301 477.4324324324324,392.75426443395486 485.6756756756757,393.8398798656805 493.9189189189189,396.8824520750206 502.16216216216213,414.9964590114332 510.40540540540536,426.476655609795 518.6486486486486,445.9943628204316 526.8918918918919,475.1339154583417 535.1351351351351,464.4424562832588 543.3783783783783,413.5688919324416 551.6216216216217,428.79485434008996 559.8648648648649,476.9151387529448 568.1081081081081,496.19971744206373 576.3513513513514,500.6952269849102 584.5945945945946,473.776024162833 592.8378378378379,509.8837750439505 601.081081081081,543.7258119651033 609.3243243243243,513.2464003396211 617.5675675675676,487.1525305880049 625.8108108108108,474.2669316905227 634.0540540540541,506.62379198875465 642.2972972972973,498.2040209996435 650.5405405405405,468.29746928108864 658.7837837837837,485.83179425290325 667.027027027027,477.5296854948018 675.2702702702702,403.6802623165703 683.5135135135135,360.8775782420097 691.7567567567568,319.17157898375393 700.0,298.3988768029426 708.2432432432433,265.88433957792853 716.4864864864865,271.43386060621003 724.7297297297298,323.0849507479609 732.9729729729729,324.2705171114226 741.2162162162163,295.46859722000806 749.4594594594595,334.6081088549285 757.7027027027027,305.2355684585158 765.9459459459459,303.2688975177163 774.1891891891893,330.7646713763667 782.4324324324324,382.12139905420145 790.6756756756757,373.85578075045544 798.9189189189188,370.1699652255541 807.1621621621622,446.47820355182836 815.4054054054054,447.2680123618347 823.6486486486486,477.59436005771045 831.8918918918919,474.50652354841725 840.1351351351352,493.30695429447576 848.3783783783783,493.51519224384924 856.6216216216217,506.67866947328446 864.8648648648648,510.64289245419894 873.1081081081081,464.2865608844529 881.3513513513514,460.13689252479276 889.5945945945946,353.08670107433915 897.8378378378378,368.5396683454543 906.0810810810812,351.81188051576834 914.3243243243243,359.46536905563636 922.5675675675676,357.45421354978225 930.8108108108107,357.2347190971976 939.0540540540541,388.7760715819988 947.2972972972973,362.0414183940699 955.5405405405405,351.6890690123141 963.7837837837837,286.11557182413424 972.0270270270271,220.63838043598457 980.2702702702702,206.74389148146412 988.5135135135135,251.63498008815992 996.7567567567567,165.0584702727749 1005.0,148.9922220902962 1013.2432432432433,126.86332582205364 1021.4864864864865,176.38791802963794 1029.7297297297298,179.8632825607899 1037.972972972973,133.04804543587022 1046.2162162162163,147.58239678075267 1054.4594594594596,200.06151659676743 1062.7027027027027,126.7612429305102 1070.9459459459458,217.19767809224362 1079.1891891891892,216.12843205868313 1087.4324324324325,198.25138936467067 1095.6756756756758,209.44565758765032 1103.9189189189187,269.4968734025714 1112.162162162162,307.9769269775793 1120.4054054054054,372.5519604324168 1128.6486486486485,335.5164784427134 1136.8918918918919,335.7564999963504 1145.1351351351352,326.2889880656585 1153.3783783783783,343.875133380263 1161.6216216216217,347.9867760929891 1169.8648648648648,324.24624286040137 1178.1081081081081,328.581569760837 1186.3513513513515,295.15637341035796 1194.5945945945946,343.5389685398854 1202.837837837838,417.2581348495382 1211.081081081081,477.4872350768295 1219.3243243243244,475.96237260234557 1227.5675675675675,492.2316566644964 1235.8108108108108,495.96230890797165 1244.054054054054,494.6107859565225 1252.2972972972973,470.10517119363396 1260.5405405405404,478.1367805020369 1268.7837837837837,494.91209924589367 1277.027027027027,484.83523673099995 1285.2702702702702,445.6689627998043 1293.5135135135135,431.36322173251193 1301.7567567567567,428.6891264766366 1310.0,425.95581103825526" fill="none" stroke="#0f766e" stroke-width="2.5"><title>static_50_50_rebalance | end=2026-05-02 | return=76.89%</title></polyline>
<polyline points="90.0,671.8979001959646 98.24324324324324,673.1806946524308 106.48648648648648,671.480798939776 114.72972972972973,674.3238940615732 122.97297297297297,674.7534197911573 131.21621621621622,676.8979877451249 139.45945945945945,675.63028185692 147.7027027027027,688.7926509522923 155.94594594594594,690.4633771785967 164.1891891891892,691.7536248448407 172.43243243243245,691.7375864855924 180.67567567567568,688.3844523608798 188.9189189189189,691.6754801470013 197.16216216216216,683.3408468077456 205.40540540540542,681.1545239408238 213.64864864864865,693.5644067530726 221.8918918918919,671.7636130709626 230.13513513513513,640.9834459689645 238.3783783783784,629.7676668797553 246.6216216216216,610.8916166029317 254.86486486486487,616.8676217616174 263.1081081081081,608.7407466529562 271.35135135135135,601.8194518327188 279.5945945945946,586.3369101245629 287.8378378378378,593.4071813793975 296.08108108108104,587.571627325895 304.3243243243243,591.2158711232261 312.56756756756755,589.4489434935182 320.81081081081084,579.6318314747986 329.05405405405406,585.4878786248806 337.2972972972973,591.3496774828786 345.5405405405405,588.7025235785266 353.7837837837838,572.5802285556346 362.02702702702703,555.7200192361428 370.27027027027026,549.1563196043298 378.5135135135135,517.5362578245534 386.7567567567568,492.6318574583042 395.0,508.4213062110788 403.2432432432432,515.5401010295116 411.48648648648646,499.59775439083757 419.72972972972974,505.48485771296606 427.97297297297297,526.1908933025791 436.2162162162162,518.7459781144762 444.4594594594594,517.9050777895112 452.7027027027027,522.3767455042197 460.94594594594594,536.9588655558289 469.18918918918916,512.7023096985872 477.4324324324324,479.55035289538154 485.6756756756757,480.10091786088094 493.9189189189189,481.6142834366745 502.16216216216213,489.86759173349515 510.40540540540536,494.9801061097072 518.6486486486486,503.61377767284046 526.8918918918919,521.4856853983027 535.1351351351351,512.70188349559 543.3783783783783,471.6027513426943 551.6216216216217,481.19054493949335 559.8648648648649,511.36604735520734 568.1081081081081,527.6325993508877 576.3513513513514,531.8714718122353 584.5945945945946,504.9293509282227 592.8378378378379,540.2021885343212 601.081081081081,574.5910655179783 609.3243243243243,543.3797487775358 617.5675675675676,516.137436678119 625.8108108108108,502.6121417751406 634.0540540540541,535.7228208167577 642.2972972972973,527.0085984346832 650.5405405405405,495.86607377972564 658.7837837837837,514.3039249013531 667.027027027027,507.13783441835534 675.2702702702702,431.5351578803243 683.5135135135135,400.566096056397 691.7567567567568,370.2321711247543 700.0,355.47908083939564 708.2432432432433,336.73118817466644 716.4864864864865,339.67964460326255 724.7297297297298,364.7065440586769 732.9729729729729,365.3321377398024 741.2162162162163,347.885857286462 749.4594594594595,368.8121317395924 757.7027027027027,351.4329492164759 765.9459459459459,350.21876550209754 774.1891891891893,367.5142775982019 782.4324324324324,400.35374767943983 790.6756756756757,393.39433929940907 798.9189189189188,388.77193882563245 807.1621621621622,463.57277263664946 815.4054054054054,464.64459348510184 823.6486486486486,497.68462799528174 831.8918918918919,493.6575782393327 840.1351351351352,514.0650827228071 848.3783783783783,514.500007842898 856.6216216216217,529.0151043819222 864.8648648648648,533.2844940463948 873.1081081081081,483.6828239475435 881.3513513513514,479.5840487885166 889.5945945945946,363.80833218295373 897.8378378378378,380.349195895867 906.0810810810812,364.87841203860376 914.3243243243243,371.00288407097537 922.5675675675676,369.54097757227333 930.8108108108107,369.13948157998317 939.0540540540541,403.1478125464155 947.2972972972973,376.59271259558756 955.5405405405405,365.27431776867616 963.7837837837837,296.8349048204253 972.0270270270271,235.91928275573372 980.2702702702702,225.823806101429 988.5135135135135,252.39928955956998 996.7567567567567,196.46976730056508 1005.0,187.36625493026588 1013.2432432432433,175.64058716626607 1021.4864864864865,200.22500472756525 1029.7297297297298,201.95764690149912 1037.972972972973,179.07911379582572 1046.2162162162163,186.07655613206998 1054.4594594594596,211.2202371735138 1062.7027027027027,168.7647536876575 1070.9459459459458,216.51046060126788 1079.1891891891892,215.8134537332583 1087.4324324324325,200.63170778872717 1095.6756756756758,208.88251053627698 1103.9189189189187,251.54155701956222 1112.162162162162,287.62383113891184 1120.4054054054054,355.393393396161 1128.6486486486485,314.50786372582144 1136.8918918918919,314.7849614049951 1145.1351351351352,303.92918994088905 1153.3783783783783,324.2358094371717 1161.6216216216217,328.9926441302463 1169.8648648648648,301.5116755767483 1178.1081081081081,306.5423975316734 1186.3513513513515,267.7221541893359 1194.5945945945946,324.10359692489544 1202.837837837838,409.7655789031317 1211.081081081081,479.0649529215269 1219.3243243243244,477.3325210399589 1227.5675675675675,495.69539262890737 1235.8108108108108,499.8850627454809 1244.054054054054,498.37200252986463 1252.2972972972973,470.97513497132127 1260.5405405405404,479.97507129718235 1268.7837837837837,498.776121967935 1277.027027027027,487.5052182072674 1285.2702702702702,443.6866090560407 1293.5135135135135,427.60849756164305 1301.7567567567567,424.5913729528756 1310.0,421.5009077403101" fill="none" stroke="#dc2626" stroke-width="2.5"><title>target_50_50_with_cash_band | end=2026-05-02 | return=78.29%</title></polyline>
<polyline points="90.0,671.8979001959646 98.24324324324324,673.5655329893707 106.48648648648648,671.2127506367914 114.72972972972973,675.3537706518825 122.97297297297297,675.9999681555577 131.21621621621622,679.3061546165325 139.45945945945945,677.3246897900481 147.7027027027027,698.1469843190166 155.94594594594594,699.9909827787644 164.1891891891892,701.2828705698046 172.43243243243245,701.2673062292222 180.67567567567568,698.0403044866314 188.9189189189189,701.1986864074522 197.16216216216216,693.1916279200003 205.40540540540542,691.0762992068778 213.64864864864865,703.0524233926276 221.8918918918919,681.9632163729318 230.13513513513513,651.6728831038957 238.3783783783784,640.7179462168959 246.6216216216216,618.1024791958766 254.86486486486487,626.3067603132489 263.1081081081081,614.2453024944213 271.35135135135135,603.5078481872854 279.5945945945946,578.8570780978957 287.8378378378378,590.4050292680296 296.08108108108104,580.8388219587882 304.3243243243243,586.8533663612352 312.56756756756755,583.9512785335548 320.81081081081084,567.8077385361812 329.05405405405406,577.5646627136975 337.2972972972973,587.3785684332535 345.5405405405405,583.0140892673185 353.7837837837838,556.4350360494543 362.02702702702703,528.2475592048786 370.27027027027026,517.0587085347178 378.5135135135135,462.328659830285 386.7567567567568,417.8969742044386 395.0,446.94346855450436 403.2432432432432,460.03314591997605 411.48648648648646,433.236612435753 419.72972972972974,443.639470085934 427.97297297297297,478.24386111093975 436.2162162162162,466.2454833041798 444.4594594594594,464.9389466903307 452.7027027027027,472.127697579397 460.94594594594594,495.52494867789693 469.18918918918916,461.61559950020046 477.4324324324324,412.12274216821476 485.6756756756757,413.0326334431291 493.9189189189189,415.76642802255304 502.16216216216213,430.73308066365325 510.40540540540536,440.04729948343703 518.6486486486486,455.723385294216 526.8918918918919,481.23178739133664 535.1351351351351,470.8742059274184 543.3783783783783,421.23544932572185 551.6216216216217,435.0440525511565 559.8648648648649,480.3283720499624 568.1081081081081,499.7219050340316 576.3513513513514,504.48793772408936 584.5945945945946,475.492958026322 592.8378378378379,513.4078828652797 601.081081081081,549.8053043074175 609.3243243243243,516.9382905548224 617.5675675675676,488.2558751961564 625.8108108108108,473.98737771990596 634.0540540540541,509.20401554785127 642.2972972972973,499.9966423540881 650.5405405405405,467.1651540804844 658.7837837837837,486.67148448933904 667.027027027027,478.86713856737134 675.2702702702702,398.79599034924627 683.5135135135135,359.2603329026924 691.7567567567568,316.8976052969489 700.0,294.97934950894825 708.2432432432433,264.1779358986987 716.4864864864865,269.3913706281054 724.7297297297298,314.20214024067707 732.9729729729729,315.257239166327 741.2162162162163,287.6601042586115 749.4594594594595,323.0977844998761 757.7027027027027,295.23596355237146 765.9459459459459,293.3196341664927 774.1891891891893,320.5439081509905 782.4324324324324,371.73819866634915 790.6756756756757,363.2352687306137 798.9189189189188,358.4301406953364 807.1621621621622,439.20123993380474 815.4054054054054,440.2929806756589 823.6486486486486,474.61830850974786 831.8918918918919,470.5123746419898 840.1351351351352,491.6728210999272 848.3783783783783,492.1665060197725 856.6216216216217,507.327412842338 864.8648648648648,511.748313529279 873.1081081081081,460.20965008453186 881.3513513513514,455.856773083686 889.5945945945946,335.13144286757495 897.8378378378378,352.58380215579723 906.0810810810812,336.2134449560684 914.3243243243243,342.6888061989937 922.5675675675676,341.15136732086876 930.8108108108107,340.7295699045842 939.0540540540541,376.3930457425198 947.2972972972973,348.62697071229604 955.5405405405405,336.80321423927023 963.7837837837837,265.1994835609526 972.0270270270271,189.57950135928343 980.2702702702702,174.8883578082241 988.5135135135135,217.38081813881809 996.7567567567567,130.57819329638983 1005.0,115.31185526319177 1013.2432432432433,94.49084436737542 1021.4864864864865,138.18427848074487 1029.7297297297298,141.4018677318636 1037.972972972973,101.04580003537956 1046.2162162162163,113.55528014151355 1054.4594594594596,158.2445040510347 1062.7027027027027,90.03237789313175 1070.9459459459458,171.27205931053004 1079.1891891891892,170.31995649640874 1087.4324324324325,151.7772147328269 1095.6756756756758,163.13366613344942 1103.9189189189187,224.94456410826086 1112.162162162162,267.2298340400383 1120.4054054054054,340.4149250920983 1128.6486486486485,297.85836294519294 1136.8918918918919,298.1938155853611 1145.1351351351352,287.0828380208773 1153.3783783783783,307.86139313347695 1161.6216216216217,312.7259059131129 1169.8648648648648,284.6215143468421 1178.1081081081081,289.77430309540904 1186.3513513513515,250.01884480091542 1194.5945945945946,307.81822847285133 1202.837837837838,395.5153976452588 1211.081081081081,466.3138524622281 1219.3243243243244,464.5334452375738 1227.5675675675675,483.2430361820448 1235.8108108108108,487.5376202658757 1244.054054054054,485.98890433284225 1252.2972972972973,457.9613191570661 1260.5405405405404,467.19217631019615 1268.7837837837837,486.45649601590014 1277.027027027027,474.90856946115497 1285.2702702702702,430.0020841056175 1293.5135135135135,413.51524339615025 1301.7567567567567,410.4384198047782 1310.0,407.26505512990315" fill="none" stroke="#2563eb" stroke-width="2.5"><title>narrow_cash_band_rebalance | end=2026-05-02 | return=82.74%</title></polyline>
<polyline points="90.0,671.8979001959646 98.24324324324324,673.7090897905344 106.48648648648648,671.1305191930416 114.72972972972973,675.2922739621889 122.97297297297297,675.7855046969105 131.21621621621622,679.0033725175116 139.45945945945945,677.1606234434179 147.7027027027027,696.5658111910436 155.94594594594594,698.2774179924554 164.1891891891892,699.4139578031854 172.43243243243245,699.4120035638462 180.67567567567568,696.7923155327371 188.9189189189189,699.6441241802748 197.16216216216216,692.5994955591023 205.40540540540542,691.3046514283157 213.64864864864865,701.4165505007282 221.8918918918919,683.5164845782807 230.13513513513513,656.6658869624928 238.3783783783784,646.6922100431409 246.6216216216216,626.1439676393862 254.86486486486487,633.5894347816476 263.1081081081081,622.7181070857246 271.35135135135135,613.1466037788967 279.5945945945946,591.1694799405583 287.8378378378378,601.4726702156386 296.08108108108104,592.9294190625969 304.3243243243243,598.2673892316174 312.56756756756755,595.6769865335762 320.81081081081084,580.8504703180678 329.05405405405406,589.5310978960842 337.2972972972973,597.851610528823 345.5405405405405,593.9223381193145 353.7837837837838,570.0758504472917 362.02702702702703,544.724024127074 370.27027027027026,534.5662013713722 378.5135135135135,485.9793950999747 386.7567567567568,446.7676333997656 395.0,472.22269302419147 403.2432432432432,483.77233960361735 411.48648648648646,459.9899487850738 419.72972972972974,469.52953726810335 427.97297297297297,500.9800530589799 436.2162162162162,488.7795795396921 444.4594594594594,486.38511667299974 452.7027027027027,493.86564919448483 460.94594594594594,515.4930828052393 469.18918918918916,483.46238247256946 477.4324324324324,433.21363994768564 485.6756756756757,433.3790879266347 493.9189189189189,436.2840228827461 502.16216216216213,449.4938189793776 510.40540540540536,457.7206200095677 518.6486486486486,471.6012774433558 526.8918918918919,494.92851240263695 535.1351351351351,485.8236005641039 543.3783783783783,441.78525544543766 551.6216216216217,454.57310022099995 559.8648648648649,495.09237782110256 568.1081081081081,514.8483859593323 576.3513513513514,518.5156059364583 584.5945945945946,492.3945141795209 592.8378378378379,529.1356622821647 601.081081081081,563.8319487123053 609.3243243243243,534.4463616303775 617.5675675675676,507.10851884427535 625.8108108108108,494.67100160481255 634.0540540540541,529.5230438811469 642.2972972972973,520.6697594182526 650.5405405405405,490.9595289636115 658.7837837837837,511.21132880452507 667.027027027027,504.5217481742193 675.2702702702702,420.8720766619717 683.5135135135135,390.58372346932987 691.7567567567568,351.5453601675049 700.0,327.1537644082884 708.2432432432433,298.4859185804251 716.4864864864865,303.9392760358369 724.7297297297298,344.46961117300464 732.9729729729729,344.68913156723255 741.2162162162163,319.14986244154585 749.4594594594595,351.3115196065094 757.7027027027027,327.8310627740984 765.9459459459459,326.07072239759447 774.1891891891893,351.2484447399994 782.4324324324324,401.5364150382376 790.6756756756757,393.12804704591775 798.9189189189188,387.46268793037865 807.1621621621622,469.59476986439154 815.4054054054054,470.8239815652784 823.6486486486486,506.90798299156046 831.8918918918919,501.97932911987505 840.1351351351352,526.4026779097555 848.3783783783783,528.1229120607034 856.6216216216217,550.1367527246385 864.8648648648648,555.609702087878 873.1081081081081,504.52565677558323 881.3513513513514,500.52769886260194 889.5945945945946,354.9525797573079 897.8378378378378,374.842752419476 906.0810810810812,358.9969339372094 914.3243243243243,364.3934382879301 922.5675675675676,363.1969103368416 930.8108108108107,362.6361397218837 939.0540540540541,401.21552251110154 947.2972972972973,372.51580261346635 955.5405405405405,359.5126795080461 963.7837837837837,282.95456547201593 972.0270270270271,192.94945952185458 980.2702702702702,176.766502178853 988.5135135135135,218.57059391667485 996.7567567567567,130.6638667361011 1005.0,116.06770322190152 1013.2432432432433,96.13719051085525 1021.4864864864865,136.25613603096087 1029.7297297297298,139.02366365160378 1037.972972972973,101.85844886382097 1046.2162162162163,113.19740525079101 1054.4594594594596,154.32747378291333 1062.7027027027027,90.0 1070.9459459459458,166.39914096045788 1079.1891891891892,163.9457009266746 1087.4324324324325,147.43612742351638 1095.6756756756758,158.44999397243805 1103.9189189189187,218.6885099750025 1112.162162162162,259.2216620883307 1120.4054054054054,329.92851251060546 1128.6486486486485,288.683702437405 1136.8918918918919,287.9114909768785 1145.1351351351352,276.80257308216045 1153.3783783783783,297.4102918470821 1161.6216216216217,302.19529250741334 1169.8648648648648,274.43113620027185 1178.1081081081081,279.6774919536257 1186.3513513513515,241.00221144796848 1194.5945945945946,297.5525362061893 1202.837837837838,382.93123693052416 1211.081081081081,451.6983822211514 1219.3243243243244,450.11821599709447 1227.5675675675675,470.59127156502046 1235.8108108108108,474.82812522474416 1244.054054054054,473.2261791514867 1252.2972972972973,442.85582201560896 1260.5405405405404,451.89521468796977 1268.7837837837837,472.9954928908219 1277.027027027027,459.81978461697975 1285.2702702702702,410.4388270168488 1293.5135135135135,392.7256292898149 1301.7567567567567,390.6588848362628 1310.0,387.7426437494553" fill="none" stroke="#7c3aed" stroke-width="2.5"><title>drawdown_tilt_rebalance | end=2026-05-02 | return=88.84%</title></polyline>
<polyline points="90.0,671.8979001959646 98.24324324324324,673.8526364987091 106.48648648648648,671.3813084996074 114.72972972972973,676.4219181206824 122.97297297297297,677.782692286723 131.21621621621622,681.7429063535336 139.45945945945945,679.0433268751618 147.7027027027027,706.5449150969666 155.94594594594594,708.2520010025177 164.1891891891892,709.4660144795681 172.43243243243245,709.4051461964434 180.67567567567568,706.0898652243959 188.9189189189189,708.1866169338119 197.16216216216216,702.2713010975657 205.40540540540542,699.2419583513816 213.64864864864865,708.8555526792344 221.8918918918919,690.1969407058913 230.13513513513513,661.2986977463165 238.3783783783784,651.5416137700811 246.6216216216216,629.4744829004023 254.86486486486487,637.6115738908708 263.1081081081081,624.3133696360038 271.35135135135135,611.092035942959 279.5945945945946,579.5779281766543 287.8378378378378,593.6814639249221 296.08108108108104,581.4892955015501 304.3243243243243,590.252746615827 312.56756756756755,584.2523307349602 320.81081081081084,569.3528247212685 329.05405405405406,581.614868991691 337.2972972972973,593.1082963606078 345.5405405405405,587.3975822002013 353.7837837837838,552.6201879792332 362.02702702702703,516.7266910528276 370.27027027027026,504.56169450255646 378.5135135135135,430.9778979857822 386.7567567567568,371.66554366148256 395.0,410.97662267222915 403.2432432432432,428.86655574696897 411.48648648648646,394.1487751150136 419.72972972972974,406.6717769243404 427.97297297297297,448.3048747683753 436.2162162162162,435.3753680973805 444.4594594594594,436.25530728405175 452.7027027027027,442.22277643133873 460.94594594594594,468.03757962647944 469.18918918918916,428.44311521997486 477.4324324324324,380.21830347594715 485.6756756756757,383.4274218202301 493.9189189189189,383.81491348737455 502.16216216216213,404.2045549074919 510.40540540540536,416.9115866786314 518.6486486486486,438.3077697678798 526.8918918918919,471.42838708341105 535.1351351351351,460.44808513454245 543.3783783783783,406.4878735719104 551.6216216216217,424.3627446014863 559.8648648648649,475.95179250718513 568.1081081081081,493.25733056051297 576.3513513513514,498.4262172931891 584.5945945945946,471.7581159080588 592.8378378378379,507.72345095680794 601.081081081081,540.4108478649332 609.3243243243243,509.5407489189374 617.5675675675676,485.4306100882643 625.8108108108108,472.56651636159654 634.0540540540541,503.2333640656143 642.2972972972973,495.26404814531253 650.5405405405405,465.9563311215432 658.7837837837837,481.7295912261618 667.027027027027,471.88397803042835 675.2702702702702,400.68986460892677 683.5135135135135,346.56467923016413 691.7567567567568,301.78287103680543 700.0,285.5301240569927 708.2432432432433,253.01322836948827 716.4864864864865,256.053942192538 724.7297297297298,306.1760428272364 732.9729729729729,309.81391762242555 741.2162162162163,281.08645784856014 749.4594594594595,319.5338708444966 757.7027027027027,281.9559077314056 765.9459459459459,279.8859090784511 774.1891891891893,308.76139523375315 782.4324324324324,358.40783341357445 790.6756756756757,349.9032821200521 798.9189189189188,347.8970685502017 807.1621621621622,426.83392126263055 815.4054054054054,427.30102510839777 823.6486486486486,455.8200251663942 831.8918918918919,453.71573551341123 840.1351351351352,470.65988946840025 848.3783783783783,469.90201009458565 856.6216216216217,478.55408273908427 864.8648648648648,481.8704232057544 873.1081081081081,436.0743625495272 881.3513513513514,431.44940302103925 889.5945945945946,330.8669213010335 897.8378378378378,346.0687709114559 906.0810810810812,326.66391073687134 914.3243243243243,336.630151018336 922.5675675675676,333.8519714525506 930.8108108108107,333.81652864909853 939.0540540540541,365.1585951535456 947.2972972972973,336.14749731881057 955.5405405405405,326.07945779210286 963.7837837837837,258.47188835367234 972.0270270270271,194.37238835562857 980.2702702702702,179.97600237421966 988.5135135135135,228.84086774790273 996.7567567567567,134.93155418339666 1005.0,117.23804809145884 1013.2432432432433,92.56039446552745 1021.4864864864865,147.4450291746631 1029.7297297297298,151.4053949651252 1037.972972972973,99.7951459500647 1046.2162162162163,115.90116245237425 1054.4594594594596,173.81879086962647 1062.7027027027027,93.25738566832536 1070.9459459459458,192.87657385439604 1079.1891891891892,191.85819805296524 1087.4324324324325,172.8693970882655 1095.6756756756758,185.46497808128936 1103.9189189189187,251.111142646831 1112.162162162162,291.207271412084 1120.4054054054054,355.81907005684104 1128.6486486486485,319.6109200821443 1136.8918918918919,321.38548226712754 1145.1351351351352,312.89732403825514 1153.3783783783783,328.68308187644465 1161.6216216216217,332.43166214243513 1169.8648648648648,311.02957761236564 1178.1081081081081,314.60369254459147 1186.3513513513515,283.6429914523726 1194.5945945945946,327.49437279074107 1202.837837837838,395.66148858460883 1211.081081081081,452.4982281961161 1219.3243243243244,450.69403360257655 1227.5675675675675,465.4001140500601 1235.8108108108108,469.4609529014996 1244.054054054054,468.0625559808388 1252.2972972972973,444.19306548130476 1260.5405405405404,453.2107714160828 1268.7837837837837,469.42751642754916 1277.027027027027,460.35910466460734 1285.2702702702702,422.72634169886186 1293.5135135135135,408.3749520847601 1301.7567567567567,404.05720606988916 1310.0,400.7203136613532" fill="none" stroke="#b45309" stroke-width="2.5"><title>btc_defensive_eth_aggressive | end=2026-05-02 | return=84.78%</title></polyline>
</svg>