<svg xmlns="http://www.w3.org/2000/svg" width="1400" height="800">
<rect width="1400" height="800" fill="#f8fafc"/>
<text x="700.0" y="42" text-anchor="middle" font-family="monospace" font-size="24" fill="#0f172a">Portfolio Value Over Time | start=2024-01-01 | interval=7d</text>
<line x1="90" y1="710" x2="1310" y2="710" stroke="#334155" stroke-width="2"/>
<line x1="90" y1="90" x2="90" y2="710" stroke="#334155" stroke-width="2"/>
<line x1="90.0" y1="710" x2="90.0" y2="90" stroke="#cbd5e1" stroke-width="1"/>
<text x="90.0" y="734" text-anchor="middle" font-family="monospace" font-size="11" fill="#475569">2024-01-01</text>
<line x1="90" y1="710.0" x2="1310" y2="710.0" stroke="#cbd5e1" stroke-width="1"/>
<text x="78" y="714.0" text-anchor="end" font-family="monospace" font-size="12" fill="#475569">8258</text>
<line x1="334.0" y1="710" x2="334.0" y2="90" stroke="#cbd5e1" stroke-width="1"/>
<text x="334.0" y="734" text-anchor="middle" font-family="monospace" font-size="11" fill="#475569">2024-06-17</text>
<line x1="90" y1="586.0" x2="1310" y2="586.0" stroke="#cbd5e1" stroke-width="1"/>
<text x="78" y="590.0" text-anchor="end" font-family="monospace" font-size="12" fill="#475569">11183</text>
<line x1="578.0" y1="710" x2="578.0" y2="90" stroke="#cbd5e1" stroke-width="1"/>
<text x="578.0" y="734" text-anchor="middle" font-family="monospace" font-size="11" fill="#475569">2024-12-09</text>
<line x1="90" y1="462.0" x2="1310" y2="462.0" stroke="#cbd5e1" stroke-width="1"/>
<text x="78" y="466.0" text-anchor="end" font-family="monospace" font-size="12" fill="#475569">14108</text>
<line x1="822.0" y1="710" x2="822.0" y2="90" stroke="#cbd5e1" stroke-width="1"/>
<text x="822.0" y="734" text-anchor="middle" font-family="monospace" font-size="11" fill="#475569">2025-05-26</text>
<line x1="90" y1="338.00000000000006" x2="1310" y2="338.00000000000006" stroke="#cbd5e1" stroke-width="1"/>
<text x="78" y="342.00000000000006" text-anchor="end" font-family="monospace" font-size="12" fill="#475569">17033</text>
<line x1="1066.0" y1="710" x2="1066.0" y2="90" stroke="#cbd5e1" stroke-width="1"/>
<text x="1066.0" y="734" text-anchor="middle" font-family="monospace" font-size="11" fill="#475569">2025-11-17</text>
<line x1="90" y1="213.9999999999999" x2="1310" y2="213.9999999999999" stroke="#cbd5e1" stroke-width="1"/>
<text x="78" y="217.9999999999999" text-anchor="end" font-family="monospace" font-size="12" fill="#475569">19959</text>
<line x1="1310.0" y1="710" x2="1310.0" y2="90" stroke="#cbd5e1" stroke-width="1"/>
<text x="1310.0" y="734" text-anchor="middle" font-family="monospace" font-size="11" fill="#475569">2026-05-04</text>
<line x1="90" y1="90.0" x2="1310" y2="90.0" stroke="#cbd5e1" stroke-width="1"/>
<text x="78" y="94.0" text-anchor="end" font-family="monospace" font-size="12" fill="#475569">22884</text>
<text x="700.0" y="782" text-anchor="middle" font-family="monospace" font-size="16" fill="#0f172a">time</text>
<text x="24" y="400.0" transform="rotate(-90 24,400.0)" text-anchor="middle" font-family="monospace" font-size="16" fill="#0f172a">portfolio_value_usd</text>
<line x1="970" y1="80" x2="988" y2="80" stroke="#0f766e" stroke-width="3"/>
<text x="998" y="84" font-family="monospace" font-size="12" fill="#0f172a">budgeted_static_50_50_rebalance</text>
<line x1="970" y1="104" x2="988" y2="104" stroke="#9333ea" stroke-width="3"/>
<text x="998" y="108" font-family="monospace" font-size="12" fill="#0f172a">budgeted_drawdown_tilt_rebalance</text>
<line x1="970" y1="128" x2="988" y2="128" stroke="#92400e" stroke-width="3"/>
<text x="998" y="132" font-family="monospace" font-size="12" fill="#0f172a">budgeted_btc_defensive_eth_aggressive</text>
<line x1="970" y1="152" x2="988" y2="152" stroke="#0f766e" stroke-width="3"/>
<text x="998" y="156" font-family="monospace" font-size="12" fill="#0f172a">static_50_50_rebalance</text>
<line x1="970" y1="176" x2="988" y2="176" stroke="#dc2626" stroke-width="3"/>
<text x="998" y="180" font-family="monospace" font-size="12" fill="#0f172a">target_50_50_with_cash_band</text>
<line x1="970" y1="200" x2="988" y2="200" stroke="#2563eb" stroke-width="3"/>
<text x="998" y="204" font-family="monospace" font-size="12" fill="#0f172a">narrow_cash_band_rebalance</text>
<line x1="970" y1="224" x2="988" y2="224" stroke="#7c3aed" stroke-width="3"/>
<text x="998" y="228" font-family="monospace" font-size="12" fill="#0f172a">drawdown_tilt_rebalance</text>
<line x1="970" y1="248" x2="988" y2="248" stroke="#b45309" stroke-width="3"/>
<text x="998" y="252" font-family="monospace" font-size="12" fill="#0f172a">btc_defensive_eth_aggressive</text>
<polyline points="90.0,636.1414808900112 100.0,636.0726443722286 110.0,636.1314611442515 120.0,636.7020111080842 130.0,636.2430237875571 140.0,636.3883543117914 150.0,633.9234974348025 160.0,632.4911035052942 170.0,630.8998310621523 180.0,625.365544857854 190.0,622.2330309528918 200.0,626.368538651187 210.0,625.2804167860673 220.0,625.853137906823 230.0,624.0016437213529 240.0,630.866933151584 250.0,628.880110465115 260.0,629.977269608871 270.0,631.461566803709 280.0,632.4911633134578 290.0,622.4099863836343 300.0,621.3229685992305 310.0,622.775808866678 320.0,623.3850225757014 330.0,626.5596225979191 340.0,631.6410644103205 350.0,629.2229058576663 360.0,637.5423591373842 370.0,627.1761686415474 380.0,625.9337853869581 390.0,627.9691517180386 400.0,647.9278045808256 410.0,640.2175516635481 420.0,641.3254659041756 429.99999999999994,638.2051735361213 440.0,643.1070813371064 450.0,647.4267931808312 460.0,647.5176745216769 470.0,637.5790684159515 480.0,638.3707983822376 489.99999999999994,642.4134812263339 500.0,635.319891970564 510.0,633.4948277733604 520.0,632.9780330865017 530.0,638.2079319389535 540.0,598.7752720284125 550.0,600.4180190910693 560.0,593.7547213834775 570.0,586.0900811453346 580.0,583.1404805999928 590.0,568.2068169983061 600.0,592.4608740256139 610.0,596.1102081135938 620.0,578.2601888422323 630.0,599.3526278568456 640.0,587.6244269661863 650.0,590.0565030227323 660.0,597.939032607844 670.0,607.9377520853568 680.0,607.7772722370073 690.0,618.6157038485791 700.0,634.4128725810161 710.0,650.9981031027263 720.0,642.7270796890228 730.0,634.1036385662303 740.0,647.6741240556138 750.0,659.8003155095367 760.0000000000001,650.7644102512534 769.9999999999999,648.3908598815904 780.0,631.6697401057761 790.0,631.428195261306 800.0,598.4113426189137 810.0,593.5547305320132 820.0,587.1671198757865 830.0,590.436094438334 840.0,581.8954366652824 850.0,591.4905237425058 860.0,598.2576969412985 870.0,593.1188590609622 880.0000000000001,589.4798448253508 889.9999999999999,555.1754122962515 900.0,530.1755692975353 910.0,527.8755705647733 920.0,535.322607604882 930.0,510.28859945751367 940.0,510.28803791110954 950.0,517.0316783076755 960.0,520.8521114436699 970.0,516.9205228939925 980.0,503.0058436856568 990.0,520.2183289095392 1000.0000000000001,517.0866821065453 1009.9999999999999,481.5086088387983 1020.0,514.7486370780849 1030.0,533.2844552376503 1040.0,521.7712076087922 1050.0,555.8861793469848 1060.0,558.3845335840592 1070.0,604.3075064587518 1080.0,613.8951171930411 1090.0,623.9956404513357 1100.0,602.1157391847944 1110.0,616.4817350565311 1120.0,610.8783693886991 1130.0,616.7290106655454 1140.0,591.5679868565542 1150.0,602.4642072511178 1160.0,595.5522090646838 1170.0,615.5660084051408 1180.0,660.5614684520255 1190.0,687.6811491183483 1200.0,695.1750471351563 1210.0,710.0 1220.0,693.5196369036433 1230.0,696.0204818668168 1240.0,665.2030866820428 1250.0,683.3790709288451 1260.0,698.0711999650183 1270.0,689.5243284868687 1280.0,664.3195905937002 1290.0,664.5355410663155 1300.0,662.1628018471657 1310.0,654.7235480166493" fill="none" stroke="#0f766e" stroke-width="2.5"><title>budgeted_static_50_50_rebalance | end=2026-05-04 | return=-4.38%</title></polyline>
<polyline points="90.0,636.1414808900112 100.0,636.1414808900112 110.0,636.1414808900112 120.0,636.1414808900112 130.0,636.0440082107289 140.0,636.0676294720798 150.0,635.741333719997 160.0,635.5824914018685 170.0,635.4213553722001 180.0,634.8939126552448 190.0,634.6284165441688 200.0,634.9572053735159 210.0,634.8721390951222 220.0,634.9110571547088 230.0,634.7876526041593 240.0,635.2268992188156 250.0,635.023133861903 260.0,635.1619642890624 270.0,635.418859165355 280.0,635.6322522405283 290.0,633.0697143677664 300.0,632.7314573589342 310.0,633.08791899877 320.0,633.2556966654803 330.0,633.9353490552564 340.0,634.9464400290757 350.0,634.4098998739291 360.0,636.4626159426157 370.0,633.5109956883086 380.0,633.2176825642491 390.0,633.8284978905015 400.0,639.9361558837991 410.0,637.2972419246695 420.0,637.7609118238983 429.99999999999994,636.5925711077793 440.0,638.6681778385463 450.0,640.7239618678299 460.0,640.9140758972113 470.0,635.6795309556865 480.0,636.1713379309381 489.99999999999994,638.6376320201784 500.0,634.5075877634586 510.0,633.4751403576475 520.0,633.6829478994313 530.0,637.1527791798807 540.0,611.6689914949676 550.0,613.4608831004649 560.0,608.8598918110987 570.0,603.5727428446222 580.0,601.675649732332 590.0,592.6228335563659 600.0,607.8988886232829 610.0,610.0747826287051 620.0,599.2036550043189 630.0,612.8513173892215 640.0,606.186653428248 650.0,607.9937666207218 660.0,613.7708149464121 670.0,620.2635557891854 680.0,619.6043122988873 690.0,626.886874212091 700.0,637.9678927034311 710.0,649.0632343280616 720.0,644.0659119959084 730.0,637.8179868967084 740.0,648.0209322649918 750.0,657.8809167023362 760.0000000000001,651.8962842935512 769.9999999999999,651.1785802732985 780.0,638.2464833633832 790.0,637.780497524508 800.0,606.7999839449199 810.0,603.3780311503756 820.0,598.9806170400386 830.0,600.0416611487807 840.0,593.5918762951569 850.0,602.0035830141601 860.0,608.7456886040492 870.0,604.1332609364938 880.0000000000001,600.7360238586028 889.9999999999999,569.6416770770787 900.0,537.9405571326907 910.0,535.7851616191584 920.0,541.8938580461663 930.0,516.5162510328817 940.0,514.6262388551378 950.0,517.2786534540998 960.0,520.7384875964514 970.0,518.6681999906566 980.0,506.4766765593314 990.0,522.4119492494111 1000.0000000000001,520.3776275715195 1009.9999999999999,491.8231506093616 1020.0,518.3247361660644 1030.0,533.2841020945966 1040.0,524.4196302417051 1050.0,552.4291315637237 1060.0,554.4697210869878 1070.0,589.8764484480265 1080.0,596.6459613925977 1090.0,605.2506294401788 1100.0,586.5774046250123 1110.0,597.9133602925424 1120.0,593.8229997822255 1130.0,598.6756901119131 1140.0,578.1187500452255 1150.0,587.2290102718244 1160.0,581.1891010573563 1170.0,598.4866569681627 1180.0,637.5902478532213 1190.0,659.2672601593846 1200.0,666.1637693563126 1210.0,678.5642505903922 1220.0,664.2626698373468 1230.0,666.6412123698271 1240.0,638.322489010468 1250.0,654.9676594761585 1260.0,667.7738700695123 1270.0,660.028841692275 1280.0,636.4874283050076 1290.0,637.9500309366333 1300.0,636.5535219320496 1310.0,630.2223104834434" fill="none" stroke="#9333ea" stroke-width="2.5"><title>budgeted_drawdown_tilt_rebalance | end=2026-05-04 | return=1.40%</title></polyline>
<polyline points="90.0,636.1414808900112 100.0,636.0762444909376 110.0,636.1869698297928 120.0,636.6073715012534 130.0,636.2292408863062 140.0,636.3488652057175 150.0,634.3602905739538 160.0,633.2573224617254 170.0,632.0140304643421 180.0,627.5854161828711 190.0,625.1845543647725 200.0,628.3455420663793 210.0,627.4782365238866 220.0,627.8971499221296 230.0,626.488188854669 240.0,631.754095554954 250.0,630.1740858255089 260.0,631.1173085623291 270.0,632.1930138439807 280.0,632.9200665709176 290.0,625.3534097690414 300.0,624.7805883335799 310.0,625.8232202359238 320.0,626.17683689261 330.0,628.6136462139228 340.0,632.6475738606066 350.0,630.7342761790749 360.0,637.1259927639304 370.0,628.8383492971536 380.0,627.6827067318408 390.0,629.2422072047519 400.0,644.9877261654751 410.0,638.6610230314768 420.0,639.4998338779477 429.99999999999994,636.6454494800831 440.0,641.0349817141401 450.0,644.8277797904419 460.0,644.7226304769639 470.0,635.5735147363673 480.0,636.2492980005647 489.99999999999994,639.9130520789312 500.0,633.0098109272069 510.0,631.1810238236951 520.0,630.19518808624 530.0,635.0787833001831 540.0,597.2696876652657 550.0,598.2355561637058 560.0,592.1203480859845 570.0,585.1005762291287 580.0,582.3160785660018 590.0,567.8917201739378 600.0,590.557755257376 610.0,594.0775301172166 620.0,577.0916222462532 630.0,596.1664470391116 640.0,584.6673404813199 650.0,586.6315370448601 660.0,593.0680286078946 670.0,602.1448447428542 680.0,602.5099787379811 690.0,612.2959573514073 700.0,626.2701334595905 710.0,641.5382027871404 720.0,633.2926472137286 730.0,625.2935599854095 740.0,637.6852603129141 750.0,648.5390028260733 760.0000000000001,639.3742715808808 769.9999999999999,636.4370495413044 780.0,619.977437496061 790.0,619.8839568057047 800.0,589.8780275153262 810.0,584.8915075892851 820.0,578.2815684671216 830.0,582.2496852948714 840.0,573.6901957417775 850.0,582.7436644679635 860.0,588.7438391011307 870.0,583.9416160547341 880.0000000000001,580.6013720478285 889.9999999999999,548.658460381391 900.0,529.6830210992603 910.0,527.5967290972385 920.0,534.7201100420339 930.0,513.347655839196 940.0,514.3003252204778 950.0,522.0956447213551 960.0,525.4836706085323 970.0,521.241136691226 980.0,508.88015595437093 990.0,523.5939526840875 1000.0000000000001,520.4652144440404 1009.9999999999999,488.1456534115763 1020.0,518.2417357390349 1030.0,534.7971447473495 1040.0,524.2824884156348 1050.0,554.2844757379319 1060.0,556.4915284441345 1070.0,598.3251148987439 1080.0,607.4950906670506 1090.0,616.3843186286477 1100.0,596.9740502957194 1110.0,610.3748355437352 1120.0,604.9019399231669 1130.0,610.3068293515435 1140.0,586.6776831387558 1150.0,596.8557665166323 1160.0,590.516821897911 1170.0,609.1257934502685 1180.0,651.1410508045169 1190.0,677.9910045135954 1200.0,684.9052309760211 1210.0,699.5759934726653 1220.0,683.3997667822845 1230.0,685.7453700579545 1240.0,655.8414313309435 1250.0,673.6905654783166 1260.0,688.7024017996907 1270.0,680.0758985875877 1280.0,654.8553187054129 1290.0,654.2131495733353 1300.0,651.234947380324 1310.0,643.1891930684582" fill="none" stroke="#92400e" stroke-width="2.5"><title>budgeted_btc_defensive_eth_aggressive | end=2026-05-04 | return=-1.66%</title></polyline>
<polyline points="90.0,636.1414808900112 100.0,631.552379704508 110.0,634.3700429386473 120.0,656.6114613629692 130.0,642.073558991924 140.0,645.8120109117151 150.0,592.3123777926144 160.0,565.294579340924 170.0,538.8164385276355 180.0,455.4986024939374 190.0,412.7545214939182 200.0,464.7071617584879 210.0,451.8841511434999 220.0,458.3345763099079 230.0,438.7499595563045 240.0,507.1505216561402 250.0,488.4581236838667 260.0,497.8706042134915 270.0,510.97591570539976 280.0,519.7557396674398 290.0,439.08089303222465 300.0,430.19980625800616 310.0,440.6454618415122 320.0,444.79100642177855 330.0,465.97227403673946 340.0,498.84516258348384 350.0,483.5783341978648 360.0,534.1910891882874 370.0,472.5440528540014 380.0,465.3425498384403 390.0,476.63097725671446 400.0,584.0506949762064 410.0,542.8137040468365 420.0,548.9239464494938 429.99999999999994,533.8298551206512 440.0,557.5175196374153 450.0,578.5348993791715 460.0,579.8074677615083 470.0,533.8849022592776 480.0,537.6767330737441 489.99999999999994,555.7853101447213 500.0,526.1501544008726 510.0,518.9944668994434 520.0,518.7666839677247 530.0,539.4472696834766 540.0,391.00204440070803 550.0,399.30844752248544 560.0,374.9906564127283 570.0,347.82204118894276 580.0,337.9758412066133 590.0,290.34508236432777 600.0,368.0228794498888 610.0,379.2646231956311 620.0,324.1744675138397 630.0,391.0048604063734 640.0,357.15578639969306 650.0,365.68022257902163 660.0,392.9239445418868 670.0,423.5253209258923 680.0,420.3426413801815 690.0,453.1361660782033 700.0,502.000635785972 710.0,550.1374016435117 720.0,529.3790167046378 730.0,503.6929622327143 740.0,544.2433918087617 750.0,582.4997305107181 760.0000000000001,560.7103702256509 769.9999999999999,558.9559120810137 780.0,514.0382976636487 790.0,512.3228005786893 800.0,411.62611184403 810.0,401.1053365922554 820.0,387.784336666962 830.0,391.7351949884475 840.0,373.25789644581903 850.0,395.9232322524754 860.0,413.2388385163301 870.0,401.1818297589866 880.0000000000001,392.5299583622718 889.9999999999999,314.1774240399443 900.0,243.6495795891147 910.0,238.58856323036116 920.0,253.8677983792121 930.0,199.20939333738096 940.0,198.30901975154336 950.0,211.06116487869144 960.0,218.69568697250065 970.0,210.80472000444468 980.0,183.50191456988262 990.0,216.7281326371101 1000.0000000000001,210.64468866553108 1009.9999999999999,142.17800893472827 1020.0,205.15768117133763 1030.0,240.22101836578065 1040.0,218.45201977669228 1050.0,282.83362245092127 1060.0,287.5847678243512 1070.0,374.1148582638141 1080.0,392.0581857242245 1090.0,411.75399310683645 1100.0,368.9464498498615 1110.0,396.1545488513476 1120.0,385.75315511361254 1130.0,396.7487149929773 1140.0,349.9566317279281 1150.0,369.9654135452854 1160.0,357.28621721433353 1170.0,393.476641989408 1180.0,474.7813477212285 1190.0,523.3776551722679 1200.0,537.6381854470974 1210.0,564.8692775970281 1220.0,534.1357838949874 1230.0,538.9216439952213 1240.0,481.732639330415 1250.0,514.428397621593 1260.0,540.0298474269638 1270.0,525.0301432531107 1280.0,480.92261928855663 1290.0,482.0505376202466 1300.0,478.569290961402 1310.0,466.6334966137432" fill="none" stroke="#0f766e" stroke-width="2.5"><title>static_50_50_rebalance | end=2026-05-04 | return=39.99%</title></polyline>
<polyline points="90.0,636.1414808900112 100.0,633.8469302972595 110.0,635.2512206519256 120.0,646.3417978062729 130.0,637.4554632459871 140.0,639.5360968668167 150.0,611.1033452111551 160.0,597.4443158818731 170.0,584.5534096376689 180.0,545.2597279458165 190.0,526.0636426481689 200.0,548.4633013556651 210.0,542.9440488359639 220.0,545.7031715481262 230.0,537.3291751134494 240.0,566.3404311895108 250.0,556.6206944679066 260.0,561.9073957462278 270.0,569.5927672708459 280.0,574.8644952642844 290.0,525.7422037929497 300.0,521.0800652064016 310.0,526.0527936730689 320.0,527.9427180294389 330.0,537.3190530564714 340.0,551.822606610777 350.0,542.3721750147944 360.0,573.6440707418951 370.0,522.3501888109693 380.0,517.7014079167785 390.0,524.8881983525877 400.0,592.952215691638 410.0,556.8083602460106 420.0,562.8629461500432 429.99999999999994,547.1910145500756 440.0,572.4900847888337 450.0,595.1935852828642 460.0,596.5770606572212 470.0,546.7770754344778 480.0,550.9137809659035 489.99999999999994,570.7190091073027 500.0,538.3376382208754 510.0,531.043486441205 520.0,533.2168477515783 530.0,554.9393515994741 540.0,406.15414521976527 550.0,414.8571115318116 560.0,396.1404004626854 570.0,376.62768704537064 580.0,370.7465769043641 590.0,345.2024478899555 600.0,384.16068648163105 610.0,390.75540294001064 620.0,355.9580929267711 630.0,393.09582739724976 640.0,372.09074661287326 650.0,377.6162910258136 660.0,395.65468936710226 670.0,422.0869209390319 680.0,417.2881817064783 690.0,450.6398226314715 700.0,502.58059592453145 710.0,551.9023920538605 720.0,530.7572556460536 730.0,502.4431242636254 740.0,546.7011841327769 750.0,589.3940674896899 760.0000000000001,565.7138932066499 769.9999999999999,563.9741940646104 780.0,514.1091184347197 790.0,511.97513290004395 800.0,398.90398699987173 810.0,388.7021721750209 820.0,376.17882791254243 830.0,377.5366266007062 840.0,359.3780732791635 850.0,379.4724857288067 860.0,397.3751110017321 870.0,384.8952014722056 880.0000000000001,375.5786424899277 889.9999999999999,291.84226267383207 900.0,222.26232874167926 910.0,218.63616312628642 920.0,227.84891183448462 930.0,196.52165914820205 940.0,195.88977844699411 950.0,202.35063269026836 960.0,206.25960606652893 970.0,202.25535603383173 980.0,188.4032324653499 990.0,205.09646968520593 1000.0000000000001,202.0279091580752 1009.9999999999999,167.4643821355818 1020.0,198.67771594439023 1030.0,216.19972357841505 1040.0,203.04000991032865 1050.0,238.89282812233643 1060.0,242.59139144420192 1070.0,322.5083619350319 1080.0,342.14890997366825 1090.0,364.37088573662027 1100.0,314.3457977741524 1110.0,346.8333895981317 1120.0,334.3229942021775 1130.0,347.58075866503594 1140.0,291.09510272324377 1150.0,315.35825425138455 1160.0,299.97486161009596 1170.0,343.9468480065834 1180.0,442.4703442358751 1190.0,500.747836355196 1200.0,517.6512172387169 1210.0,549.6920119512243 1220.0,513.7985177004776 1230.0,519.3891700542019 1240.0,452.61103759936003 1250.0,491.0139647376111 1260.0,521.0683905159436 1270.0,503.51953341885996 1280.0,451.909851726649 1290.0,453.2352020779324 1300.0,449.1328832065472 1310.0,435.0468032796977" fill="none" stroke="#dc2626" stroke-width="2.5"><title>target_50_50_with_cash_band | end=2026-05-04 | return=47.44%</title></polyline>
<polyline points="90.0,636.1414808900112 100.0,633.1585651194341 110.0,635.1317242663812 120.0,651.2993577937814 130.0,639.1311465174026 140.0,642.2172174440127 150.0,598.3439222810774 160.0,576.3803989539215 170.0,554.9869652948776 180.0,488.27562799635905 190.0,454.44442074544224 200.0,495.0945849720531 210.0,485.1146817537755 220.0,490.0917148728731 230.0,474.9888480655534 240.0,527.6346228113206 250.0,511.80633181795497 260.0,520.2254447727992 270.0,532.2535352219609 280.0,540.4494765680946 290.0,464.30061800881094 300.0,456.40866409558583 310.0,465.26122835982267 320.0,468.71510755793383 330.0,485.72782229917334 340.0,511.8567899871922 350.0,498.6252628780934 360.0,544.6742214923988 370.0,483.9228164046568 380.0,477.3564922904427 390.0,487.9544050480132 400.0,590.6072434904395 410.0,548.8278961104683 420.0,555.2228223930872 429.99999999999994,538.9423653542135 440.0,564.8032692134823 450.0,587.8279491118325 460.0,589.1710631811452 470.0,538.787373111929 480.0,542.9733235375968 489.99999999999994,563.0571709119238 500.0,530.2058131443837 510.0,522.6808768573189 520.0,524.4886126890481 530.0,546.6357277492694 540.0,394.62667663143264 550.0,404.94399344217834 560.0,380.0103565637125 570.0,352.45804392621585 580.0,343.3118321578932 590.0,301.4816851425348 600.0,367.6438263328455 610.0,377.86170204732923 620.0,325.7723515984179 630.0,385.4774098885432 640.0,353.70139322075835 650.0,361.8895826720504 660.0,388.4779325105464 670.0,419.49827977091167 680.0,414.8955912094481 690.0,449.2493295907352 700.0,501.63748154695463 710.0,551.062459297762 720.0,530.2155650118433 730.0,502.2611187307233 740.0,546.3361039679069 750.0,588.7039646685176 760.0000000000001,565.2613908274055 769.9999999999999,563.4994328821472 780.0,513.9666723488908 790.0,511.8894293334595 800.0,399.03072526991286 810.0,388.67192940754296 820.0,375.9925124240877 830.0,377.3780588253605 840.0,359.102885620963 850.0,383.0388693081272 860.0,402.3359196506053 870.0,389.4595832240881 880.0000000000001,380.0465643817253 889.9999999999999,296.11221882520937 900.0,213.7805652674095 910.0,208.76125054751878 920.0,222.70729008743115 930.0,172.62246816265508 940.0,171.36156594222007 950.0,181.74535961856554 960.0,188.29749166710678 970.0,181.74319552248403 980.0,158.60867716105395 990.0,186.69091228782133 1000.0000000000001,181.58071698075696 1009.9999999999999,124.01637633151358 1020.0,176.75975834255894 1030.0,206.12169868764573 1040.0,186.12775861443004 1050.0,243.30329096810885 1060.0,247.70147516101758 1070.0,332.6171843254403 1080.0,352.20052901038804 1090.0,373.80634683215266 1100.0,325.3276802468812 1110.0,357.00997046861704 1120.0,344.76644425995056 1130.0,357.75516834436047 1140.0,302.30929765128786 1150.0,326.17654289726795 1160.0,311.0369268464179 1170.0,354.35126686716194 1180.0,451.31641730811316 1190.0,508.61343449465505 1200.0,525.1553388870948 1210.0,556.6076402643881 1220.0,521.3844916067076 1230.0,526.8756445450513 1240.0,461.17153552970797 1250.0,499.064885441354 1260.0,528.6974720706518 1270.0,511.4059944984393 1280.0,460.535114344876 1290.0,461.87430559457385 1300.0,457.830890186647 1310.0,443.9287893951695" fill="none" stroke="#2563eb" stroke-width="2.5"><title>narrow_cash_band_rebalance | end=2026-05-04 | return=45.35%</title></polyline>
<polyline points="90.0,636.1414808900112 100.0,633.0916845817505 110.0,634.7993890746645 120.0,650.6591442698187 130.0,638.3127653882509 140.0,641.271995382662 150.0,599.8576159982281 160.0,579.3104869325773 170.0,559.54883431183 180.0,498.3150581512738 190.0,467.54877513563633 200.0,504.25772807258045 210.0,495.2923488973508 220.0,499.9695071620713 230.0,485.99475072532584 240.0,534.2068248542826 250.0,519.8764578467011 260.0,526.69451837039 270.0,538.6047466024643 280.0,546.8936120746932 290.0,469.1776992580941 300.0,459.68297637694053 310.0,468.2065733665114 320.0,471.6451449231789 330.0,487.2659070967164 340.0,510.90997569014405 350.0,498.5277341380421 360.0,542.1043444222216 370.0,483.8842078822454 380.0,478.05361534641224 390.0,488.2513741795704 400.0,585.8601700246091 410.0,545.4451683505446 420.0,552.4536453469236 429.99999999999994,538.1313799676332 440.0,562.523867291916 450.0,585.7354071544265 460.0,588.8197656978116 470.0,538.4332546749266 480.0,543.1880972097109 489.99999999999994,564.6659012632928 500.0,532.597133444294 510.0,525.394373073123 520.0,529.52352266297 530.0,553.3171927946769 540.0,393.26308312803957 550.0,406.31018343713924 560.0,380.6973852427279 570.0,353.17519619359643 580.0,344.56515698608285 590.0,306.4007585096822 600.0,367.2980715817918 610.0,376.77973099118384 620.0,327.8119616821725 630.0,384.01016016951644 640.0,354.9326250629028 650.0,363.5294852726202 660.0,391.8482014558918 670.0,423.77725825787957 680.0,417.7753994241267 690.0,454.28522830771055 700.0,510.5362175495759 710.0,563.0445107033944 720.0,542.5780836213544 730.0,511.28868576487673 740.0,560.2854062715868 750.0,610.186750224178 760.0000000000001,587.7553218783238 769.9999999999999,590.6964815931123 780.0,536.6602513289166 790.0,533.364021953431 800.0,391.0623520276734 810.0,380.55913879624865 820.0,368.04202066142204 830.0,367.0372497288639 840.0,347.86120461418966 850.0,374.8832886712029 860.0,397.5698808280427 870.0,383.15063511938826 880.0000000000001,372.50918424683067 889.9999999999999,279.05216052110234 900.0,179.20176047276186 910.0,174.0305058133746 920.0,187.541589845722 930.0,137.6647472639662 940.0,136.17425538809243 950.0,145.67553624965353 960.0,151.9609119778604 970.0,145.6366480889278 980.0,123.41014664730062 990.0,150.33771180668123 1000.0000000000001,145.4936624009605 1009.9999999999999,90.0 1020.0,140.67939239042585 1030.0,169.07723054683288 1040.0,149.42948106024915 1050.0,205.77098929631552 1060.0,210.63601410249902 1070.0,304.2707635562189 1080.0,323.7716980787137 1090.0,347.1260266691098 1100.0,295.80734278634174 1110.0,327.6195087863703 1120.0,315.75611538668824 1130.0,328.83911958700077 1140.0,273.506743377433 1150.0,297.379929588157 1160.0,282.03668259638494 1170.0,325.5939960592319 1180.0,423.4568214530552 1190.0,482.609860329537 1200.0,501.3943387495889 1210.0,535.8259949909366 1220.0,496.4567413804889 1230.0,502.8862654030019 1240.0,427.50894769475155 1250.0,470.73467418935843 1260.0,503.5893953289737 1270.0,484.15504379880895 1280.0,426.39484277245714 1290.0,429.31025647452435 1300.0,425.70540021374603 1310.0,410.79716517210153" fill="none" stroke="#7c3aed" stroke-width="2.5"><title>drawdown_tilt_rebalance | end=2026-05-04 | return=53.16%</title></polyline>
<polyline points="90.0,636.1414808900112 100.0,631.2125085155682 110.0,637.839077052335 120.0,658.6595292458148 130.0,645.4174723874432 140.0,649.2523672190667 150.0,594.0454795757905 160.0,567.8721855432108 170.0,540.6108722664285 180.0,451.67564118825646 190.0,408.010066930057 200.0,462.21184109227227 210.0,448.06587292627665 220.0,454.1276241216731 230.0,433.7871669315182 240.0,505.3730737583639 250.0,484.55430001324225 260.0,496.80804953660476 270.0,509.10133856094905 280.0,516.9691559017846 290.0,435.6344911132148 300.0,430.99771529334487 310.0,441.3472401372339 320.0,444.33124855786684 330.0,466.8902163295294 340.0,502.44421857463533 350.0,486.3103078889113 360.0,540.8788568129787 370.0,478.78940398162615 380.0,471.07658148233725 390.0,482.7007217373838 400.0,594.5919136505455 410.0,554.3825976436556 420.0,559.3382124816626 429.99999999999994,543.8443737212815 440.0,566.2000121337978 450.0,584.4878453870887 460.0,584.0082535755994 470.0,543.609579630722 480.0,546.4644607598349 489.99999999999994,561.2112132929656 500.0,534.5768181629694 510.0,527.369871664849 520.0,523.8138402864442 530.0,543.4788864661298 540.0,393.40736911317043 550.0,398.0904391452917 560.0,374.38852300364744 570.0,347.6993929652724 580.0,337.46705879066513 590.0,285.7973633143039 600.0,366.4465531171752 610.0,378.71144775401825 620.0,319.7686031476297 630.0,386.4350847173952 640.0,348.123469811483 650.0,355.4754081350535 660.0,379.4352418287927 670.0,410.4201844777175 680.0,409.7189866991628 690.0,442.87597147620113 700.0,491.0335224859083 710.0,541.0936093305368 720.0,518.1348615415377 730.0,494.1314367391068 740.0,532.7371774774447 750.0,566.6281757608775 760.0000000000001,544.0461245043397 769.9999999999999,539.7347589897472 780.0,497.76198131252227 790.0,496.6733183281047 800.0,404.1696349905404 810.0,392.3493882538788 820.0,376.95764693704297 830.0,384.0080737443776 840.0,363.43372473582 850.0,387.1585699522583 860.0,404.15729985038257 870.0,391.8122958270211 880.0000000000001,383.1385984999818 889.9999999999999,303.06024884268817 900.0,236.9517222995073 910.0,231.61844404279998 920.0,248.0402117381925 930.0,189.8702861040191 940.0,188.90515798104718 950.0,202.4802031326562 960.0,210.70553728111668 970.0,202.31936972002592 980.0,172.9709501086361 990.0,208.76801018022246 1000.0000000000001,202.23946309493522 1009.9999999999999,128.7731106666405 1020.0,196.59889062089326 1030.0,234.26525979506465 1040.0,210.9499648364366 1050.0,279.88285813290224 1060.0,284.94563758726116 1070.0,377.10632716863694 1080.0,395.55397506405546 1090.0,413.7603823076846 1100.0,375.3503160430249 1110.0,400.81410042089914 1120.0,390.5973479797646 1130.0,400.4977872094932 1140.0,357.8140915239404 1150.0,375.7918285260413 1160.0,364.78604574514776 1170.0,396.5998315974337 1180.0,467.921000733534 1190.0,513.8975345621266 1200.0,525.989134383374 1210.0,551.4069524415747 1220.0,523.2149716741066 1230.0,527.3203548362981 1240.0,476.1591515970709 1250.0,505.79672154986224 1260.0,530.1503019795957 1270.0,516.2255874324243 1280.0,475.9975446819735 1290.0,475.2044822035431 1300.0,470.80354837625737 1310.0,458.83278508684907" fill="none" stroke="#b45309" stroke-width="2.5"><title>btc_defensive_eth_aggressive | end=2026-05-04 | return=41.83%</title></polyline>
</svg>