<svg xmlns="http://www.w3.org/2000/svg" width="1400" height="800">
<rect width="1400" height="800" fill="#f8fafc"/>
<text x="700.0" y="42" text-anchor="middle" font-family="monospace" font-size="24" fill="#0f172a">Portfolio Value Over Time | start=2022-10-01 | interval=7d</text>
<line x1="90" y1="710" x2="1310" y2="710" stroke="#334155" stroke-width="2"/>
<line x1="90" y1="90" x2="90" y2="710" stroke="#334155" stroke-width="2"/>
<line x1="90.0" y1="710" x2="90.0" y2="90" stroke="#cbd5e1" stroke-width="1"/>
<text x="90.0" y="734" text-anchor="middle" font-family="monospace" font-size="11" fill="#475569">2022-10-01</text>
<line x1="90" y1="710.0" x2="1310" y2="710.0" stroke="#cbd5e1" stroke-width="1"/>
<text x="78" y="714.0" text-anchor="end" font-family="monospace" font-size="12" fill="#475569">8893</text>
<line x1="334.0" y1="710" x2="334.0" y2="90" stroke="#cbd5e1" stroke-width="1"/>
<text x="334.0" y="734" text-anchor="middle" font-family="monospace" font-size="11" fill="#475569">2023-06-17</text>
<line x1="90" y1="586.0" x2="1310" y2="586.0" stroke="#cbd5e1" stroke-width="1"/>
<text x="78" y="590.0" text-anchor="end" font-family="monospace" font-size="12" fill="#475569">15411</text>
<line x1="578.0" y1="710" x2="578.0" y2="90" stroke="#cbd5e1" stroke-width="1"/>
<text x="578.0" y="734" text-anchor="middle" font-family="monospace" font-size="11" fill="#475569">2024-03-09</text>
<line x1="90" y1="461.99999999999994" x2="1310" y2="461.99999999999994" stroke="#cbd5e1" stroke-width="1"/>
<text x="78" y="465.99999999999994" text-anchor="end" font-family="monospace" font-size="12" fill="#475569">21928</text>
<line x1="822.0" y1="710" x2="822.0" y2="90" stroke="#cbd5e1" stroke-width="1"/>
<text x="822.0" y="734" text-anchor="middle" font-family="monospace" font-size="11" fill="#475569">2024-11-23</text>
<line x1="90" y1="338.0" x2="1310" y2="338.0" stroke="#cbd5e1" stroke-width="1"/>
<text x="78" y="342.0" text-anchor="end" font-family="monospace" font-size="12" fill="#475569">28446</text>
<line x1="1066.0" y1="710" x2="1066.0" y2="90" stroke="#cbd5e1" stroke-width="1"/>
<text x="1066.0" y="734" text-anchor="middle" font-family="monospace" font-size="11" fill="#475569">2025-08-16</text>
<line x1="90" y1="214.0" x2="1310" y2="214.0" stroke="#cbd5e1" stroke-width="1"/>
<text x="78" y="218.0" text-anchor="end" font-family="monospace" font-size="12" fill="#475569">34963</text>
<line x1="1310.0" y1="710" x2="1310.0" y2="90" stroke="#cbd5e1" stroke-width="1"/>
<text x="1310.0" y="734" text-anchor="middle" font-family="monospace" font-size="11" fill="#475569">2026-05-02</text>
<line x1="90" y1="90.0" x2="1310" y2="90.0" stroke="#cbd5e1" stroke-width="1"/>
<text x="78" y="94.0" text-anchor="end" font-family="monospace" font-size="12" fill="#475569">41481</text>
<text x="700.0" y="782" text-anchor="middle" font-family="monospace" font-size="16" fill="#0f172a">time</text>
<text x="24" y="400.0" transform="rotate(-90 24,400.0)" text-anchor="middle" font-family="monospace" font-size="16" fill="#0f172a">portfolio_value_usd</text>
<line x1="970" y1="80" x2="988" y2="80" stroke="#0f766e" stroke-width="3"/>
<text x="998" y="84" font-family="monospace" font-size="12" fill="#0f172a">budgeted_static_50_50_rebalance</text>
<line x1="970" y1="104" x2="988" y2="104" stroke="#9333ea" stroke-width="3"/>
<text x="998" y="108" font-family="monospace" font-size="12" fill="#0f172a">budgeted_drawdown_tilt_rebalance</text>
<line x1="970" y1="128" x2="988" y2="128" stroke="#92400e" stroke-width="3"/>
<text x="998" y="132" font-family="monospace" font-size="12" fill="#0f172a">budgeted_btc_defensive_eth_aggressive</text>
<line x1="970" y1="152" x2="988" y2="152" stroke="#0f766e" stroke-width="3"/>
<text x="998" y="156" font-family="monospace" font-size="12" fill="#0f172a">static_50_50_rebalance</text>
<line x1="970" y1="176" x2="988" y2="176" stroke="#dc2626" stroke-width="3"/>
<text x="998" y="180" font-family="monospace" font-size="12" fill="#0f172a">target_50_50_with_cash_band</text>
<line x1="970" y1="200" x2="988" y2="200" stroke="#2563eb" stroke-width="3"/>
<text x="998" y="204" font-family="monospace" font-size="12" fill="#0f172a">narrow_cash_band_rebalance</text>
<line x1="970" y1="224" x2="988" y2="224" stroke="#7c3aed" stroke-width="3"/>
<text x="998" y="228" font-family="monospace" font-size="12" fill="#0f172a">drawdown_tilt_rebalance</text>
<line x1="970" y1="248" x2="988" y2="248" stroke="#b45309" stroke-width="3"/>
<text x="998" y="252" font-family="monospace" font-size="12" fill="#0f172a">btc_defensive_eth_aggressive</text>
<polyline points="90.0,688.9395691491342 96.524064171123,688.9347737356807 103.04812834224599,688.9906484286737 109.57219251336899,688.927239210325 116.09625668449198,688.1996354220408 122.62032085561498,688.1154748867946 129.14438502673798,689.8085499353865 135.66844919786095,689.9427950662111 142.19251336898395,690.0369712143948 148.71657754010695,689.7772323184495 155.24064171122996,689.592961559881 161.76470588235293,690.089621831442 168.28877005347596,689.8935558950794 174.81283422459893,690.1638149357634 181.3368983957219,689.5552717337216 187.86096256684493,685.7326083671554 194.3850267379679,684.2672886407107 200.9090909090909,684.5410897673692 207.4331550802139,683.644356317644 213.9572192513369,685.5268609982795 220.48128342245988,682.5548185715337 227.00534759358288,684.3383433104258 233.52941176470588,685.1213371460713 240.05347593582889,687.0863711192865 246.5775401069519,679.8197563051023 253.1016042780749,679.6525105381949 259.62566844919786,678.0948540099213 266.14973262032083,678.1821666095466 272.6737967914438,673.6103380862055 279.1978609625669,678.1249287297667 285.72192513368987,676.5362538319885 292.24598930481284,676.9368734439953 298.7700534759358,680.0561967256427 305.29411764705884,679.4646071563099 311.8181818181818,679.5495460175867 318.34224598930484,678.5319274577606 324.8663101604278,681.6007664713372 331.3903743315508,681.3170330083483 337.9144385026738,675.171879993364 344.4385026737968,674.4296523366862 350.96256684491976,675.6040861616129 357.4866310160428,674.5894114501058 364.01069518716577,676.1388038529833 370.5347593582888,676.3974769945154 377.05882352941177,677.4788834460668 383.58288770053474,676.8249395855862 390.10695187165777,683.6317910478098 396.63101604278074,684.131358522049 403.1550802139038,684.4639905805823 409.67914438502675,684.4574505874295 416.2032085561498,683.6309052202499 422.7272727272727,684.373067670996 429.2513368983957,682.4407702868126 435.77540106951875,681.8101966513298 442.2994652406417,684.848450915266 448.8235294117647,679.2442120115078 455.34759358288767,670.6101593169533 461.8716577540107,667.5747830209888 468.3957219251337,660.6237502002839 474.91978609625664,663.2892370570974 481.4438502673797,658.9930594705095 487.9679144385027,654.8132831956966 494.4919786096257,644.7907138372684 501.0160427807487,649.4973591258383 507.5401069518716,645.4468344153872 514.0641711229946,648.2349879072558 520.5882352941177,646.5693850926019 527.1122994652407,640.5407174210168 533.6363636363636,644.8575971173788 540.1604278074866,648.9213615780448 546.6844919786097,646.8743784701501 553.2085561497327,634.4356919945994 559.7326203208556,621.2925375648862 566.2566844919786,616.3954600883576 572.7807486631016,588.8657141231117 579.3048128342245,566.2633786542344 585.8288770053476,581.3641125786132 592.3529411764705,588.207294049533 598.8770053475936,574.4463263371243 605.4010695187166,579.5690725939689 611.9251336898395,596.4746883934223 618.4491978609626,591.1269636181893 624.9732620320856,591.2206707958586 631.4973262032086,593.9690677247477 638.0213903743315,604.6466500572651 644.5454545454545,588.5689512084957 651.0695187165776,567.7522060786926 657.5935828877006,568.7484895242784 664.1176470588235,569.5732463743595 670.6417112299465,578.1009941548775 677.1657754010695,583.5143938220907 683.6898395721926,592.7349008031226 690.2139037433155,605.8924648341941 696.7379679144385,601.096403761616 703.2620320855615,577.2849380744748 709.7860962566846,583.6129543363205 716.3101604278075,606.460731061141 722.8342245989304,614.4120490803457 729.3582887700535,616.8538253230513 735.8823529411765,603.9603398164082 742.4064171122996,620.8824630495203 748.9304812834225,636.6863584022842 755.4545454545454,621.8457168041937 761.9786096256685,609.8430210891798 768.5026737967914,603.492610850831 775.0267379679144,618.5265974493009 781.5508021390375,614.5618340854219 788.0748663101604,599.9753639398667 794.5989304812834,607.9415318986102 801.1229946524064,603.4901937525731 807.6470588235294,569.1827889754019 814.1711229946525,545.6299397992171 820.6951871657753,524.4270716525973 827.2192513368983,515.6163636012144 833.7433155080214,499.3392428590473 840.2673796791444,501.64698985107236 846.7914438502675,527.9096064743455 853.3155080213903,529.1037873277161 859.8395721925133,514.4830586685955 866.3636363636364,534.422837856371 872.8877005347593,517.6554610064403 879.4117647058824,516.62959424419 885.9358288770054,530.975238023784 892.4598930481283,556.4138923389048 898.9839572192514,552.2377210746137 905.5080213903743,551.0640221103333 912.0320855614974,589.6552851556856 918.5561497326204,589.9090309583476 925.0802139037432,603.7316676350025 931.6042780748663,602.7209513923094 938.1283422459893,611.1044159672606 944.6524064171123,610.7097616355356 951.1764705882354,615.0336478136362 957.7005347593582,616.7038301430822 964.2245989304813,592.8131917989579 970.7486631016043,590.4487773274087 977.2727272727273,542.3510889810741 983.7967914438503,549.8552559020709 990.3208556149732,540.3893003753057 996.8449197860962,545.1234351827493 1003.3689839572193,543.8432956828678 1009.8930481283422,543.7855971057763 1016.4171122994653,560.1008575210673 1022.9411764705882,545.6426084061468 1029.4652406417113,540.3577726787021 1035.9893048128342,505.53584124980955 1042.5133689839572,472.03366566681234 1049.0374331550802,464.4448432562921 1055.5614973262032,489.8509831900952 1062.0855614973261,440.47988736393046 1068.609625668449,430.9409911860588 1075.133689839572,416.36120891732486 1081.6577540106953,445.9503497658158 1088.1818181818182,448.91103616147547 1094.705882352941,420.85221561957826 1101.2299465240642,430.37619303862067 1107.7540106951872,462.2292278925172 1114.2780748663101,419.9266370030674 1120.802139037433,473.7436816500443 1127.326203208556,472.2479707169799 1133.850267379679,462.39345404191664 1140.374331550802,468.8330409659701 1146.8983957219252,503.42518581920007 1153.4224598930482,524.8905344979985 1159.9465240641712,560.3913571712004 1166.4705882352941,540.490306731158 1172.9946524064171,540.4823647261633 1179.51871657754,535.3668625788805 1186.042780748663,544.8807102704423 1192.566844919786,547.0841471494741 1199.090909090909,534.4203721686551 1205.614973262032,536.7650568627927 1212.1390374331552,518.9773625074785 1218.6631016042782,544.9231534696962 1225.1871657754011,583.9357853250245 1231.711229946524,615.1690873307241 1238.235294117647,614.3839427367932 1244.75935828877,622.5289599005488 1251.283422459893,624.4250299403441 1257.8074866310162,623.7431942043936 1264.331550802139,611.4415246162507 1270.855614973262,615.5485576157186 1277.3796791443851,624.0832588360602 1283.903743315508,618.9576476971381 1290.427807486631,598.9255456185366 1296.951871657754,591.5641092032042 1303.475935828877,590.204333923901 1310.0,588.7839922619294" fill="none" stroke="#0f766e" stroke-width="2.5"><title>budgeted_static_50_50_rebalance | end=2026-05-02 | return=52.64%</title></polyline>
<polyline points="90.0,688.9395691491342 96.524064171123,688.9316069244012 103.04812834224599,689.0250667587119 109.57219251336899,688.9184222470401 116.09625668449198,687.6976930223701 122.62032085561498,687.5579578229413 129.14438502673798,690.3817629650151 135.66844919786095,690.6055483244724 142.19251336898395,690.7625181990337 148.71657754010695,690.3293262143034 155.24064171122996,690.0215383442472 161.76470588235293,690.8546078296165 168.28877005347596,690.52400881503 174.81283422459893,690.9750106542926 181.3368983957219,689.9535528710869 187.86096256684493,683.5819825931981 194.3850267379679,681.1493802481739 200.9090909090909,681.619492196509 207.4331550802139,680.1090488564757 213.9572192513369,683.2521662408701 220.48128342245988,678.3090148808978 227.00534759358288,681.2798380116337 233.52941176470588,682.5765722826792 240.05347593582889,685.8400701139226 246.5775401069519,673.7806267107238 253.1016042780749,673.5220565084312 259.62566844919786,670.9374500693742 266.14973262032083,671.0550397216198 272.6737967914438,663.5232945548929 279.1978609625669,670.9143930224933 285.72192513368987,668.3641015089324 292.24598930481284,669.0045081572856 298.7700534759358,674.0080440812982 305.29411764705884,673.0663640603277 311.8181818181818,673.1834367529186 318.34224598930484,671.5972430685665 324.8663101604278,676.2303349480746 331.3903743315508,675.8465787247113 337.9144385026738,666.9042087443103 344.4385026737968,665.8141942562362 350.96256684491976,667.4889533491705 357.4866310160428,666.0551000148611 364.01069518716577,668.1725899628825 370.5347593582888,668.4986654392528 377.05882352941177,669.9239125837146 383.58288770053474,669.0880343814947 390.10695187165777,677.6602935731581 396.63101604278074,678.2923793034286 403.1550802139038,678.705556820447 409.67914438502675,678.6989467603386 416.2032085561498,677.7053353179483 422.7272727272727,678.6244950354478 429.2513368983957,676.2700270652193 435.77540106951875,675.5587381303053 442.2994652406417,679.1825218351333 448.8235294117647,672.5540302180359 455.34759358288767,662.3679986815828 461.8716577540107,658.7725122714029 468.3957219251337,650.6342887771455 474.91978609625664,653.7319949824922 481.4438502673797,648.8242237859536 487.9679144385027,644.1346836826124 494.4919786096257,633.0262393048872 501.0160427807487,638.2165942973054 507.5401069518716,633.8063969945471 514.0641711229946,636.7883576369943 520.5882352941177,635.0594345110362 527.1122994652407,628.5686958954342 533.6363636363636,633.103667907973 540.1604278074866,637.3830346565808 546.6844919786097,635.2835918110029 553.2085561497327,622.6265166463733 559.7326203208556,609.3844878456789 566.2566844919786,604.4370049009037 572.7807486631016,577.2909997344676 579.3048128342245,555.1150280595008 585.8288770053476,569.8723195217298 592.3529411764705,576.5190592289554 598.8770053475936,563.3675543277592 605.4010695187166,568.3148076930454 611.9251336898395,584.4351488107363 618.4491978609626,579.2670262857116 624.9732620320856,579.1876964647512 631.4973262032086,581.9484865471617 638.0213903743315,592.1106626236764 644.5454545454545,576.952303115211 651.0695187165776,556.6072971554177 657.5935828877006,557.3674413027035 664.1176470588235,558.3939441550992 670.6417112299465,566.2239533746991 677.1657754010695,571.1525806949962 683.6898395721926,579.4673680259199 690.2139037433155,591.6595058951555 696.7379679144385,587.2240177337792 703.2620320855615,565.7249093300919 709.7860962566846,571.8505716291936 716.3101604278075,592.3823991245192 722.8342245989304,599.9709678074884 729.3582887700535,602.0985885948612 735.8823529411765,590.4169649041833 742.4064171122996,605.9400015748188 748.9304812834225,620.4966543600284 755.4545454545454,606.911847809204 761.9786096256685,595.723382403007 768.5026737967914,589.8363989571503 775.0267379679144,604.0469107595338 781.5508021390375,600.2890372997082 788.0748663101604,586.4720915966689 794.5989304812834,594.1875055008875 801.1229946524064,589.9894009257189 807.6470588235294,556.5502731511122 814.1711229946525,534.2653992675723 820.6951871657753,513.7975586641535 827.2192513368983,505.0395213290128 833.7433155080214,489.302286102501 840.2673796791444,491.5551136348356 846.7914438502675,516.6510669558797 853.3155080213903,517.8081785740511 859.8395721925133,503.8488219071392 866.3636363636364,522.750483765002 872.8877005347593,506.5814455216364 879.4117647058824,505.6049084607198 885.9358288770054,519.2578798332532 892.4598930481283,543.2804094279761 898.9839572192514,539.2926074679821 905.5080213903743,538.2456012022328 912.0320855614974,575.4250624669326 918.5561497326204,575.6555653414989 925.0802139037432,588.9912397963178 931.6042780748663,588.0394030074215 938.1283422459893,596.279258723352 944.6524064171123,595.8579394670719 951.1764705882354,600.1142281091682 957.7005347593582,601.7998994114654 964.2245989304813,577.3724898678433 970.7486631016043,574.9381203461483 977.2727272727273,525.1601230026565 983.7967914438503,532.9518580398692 990.3208556149732,523.0758586975696 996.8449197860962,528.0403963142259 1003.3689839572193,526.6909112057306 1009.8930481283422,526.6324791949571 1016.4171122994653,543.8376301422884 1022.9411764705882,528.4987527192246 1029.4652406417113,522.8948074028563 1035.9893048128342,485.7841247021885 1042.5133689839572,450.0801050937906 1049.0374331550802,441.9905917157305 1055.5614973262032,469.1967133916291 1062.0855614973261,416.40984287563407 1068.609625668449,406.2028025083617 1075.133689839572,390.5631725233248 1081.6577540106953,422.1519275371372 1088.1818181818182,425.3930581060864 1094.705882352941,395.5068212229718 1101.2299465240642,405.76738157466986 1107.7540106951872,439.6506172404899 1114.2780748663101,395.1715384860347 1120.802139037433,452.2678646236495 1127.326203208556,450.2627271818043 1133.850267379679,440.0824986668685 1140.374331550802,446.9019088697668 1146.8983957219252,483.687242964998 1153.4224598930482,506.43266671550566 1159.9465240641712,544.3685827322377 1166.4705882352941,522.9601609442173 1172.9946524064171,522.6444951163401 1179.51871657754,516.9602250738048 1186.042780748663,527.5614633809947 1192.566844919786,530.0102760445814 1199.090909090909,515.8454758165523 1205.614973262032,518.5452530687775 1212.1390374331552,498.6938911359894 1218.6631016042782,527.9523045322652 1225.1871657754011,571.9385803237446 1231.711229946524,606.9857915616923 1238.235294117647,606.1754339143572 1244.75935828877,615.4949229975978 1251.283422459893,617.5450917784264 1257.8074866310162,616.7913710188377 1264.331550802139,602.8741993435134 1270.855614973262,607.3230233857661 1277.3796791443851,617.0837420139499 1283.903743315508,611.0746720948293 1290.427807486631,587.9224408274498 1296.951871657754,579.4558369587265 1303.475935828877,578.2724213729159 1310.0,576.7638630232502" fill="none" stroke="#9333ea" stroke-width="2.5"><title>budgeted_drawdown_tilt_rebalance | end=2026-05-02 | return=58.96%</title></polyline>
<polyline points="90.0,688.9395691491342 96.524064171123,688.9319686192955 103.04812834224599,689.0113658259519 109.57219251336899,688.9278704230006 116.09625668449198,687.9398788493622 122.62032085561498,687.7971099758629 129.14438502673798,690.2971049959446 135.66844919786095,690.4706454122093 142.19251336898395,690.6172182199906 148.71657754010695,690.2331428222643 155.24064171122996,689.9675298525782 161.76470588235293,690.6346612771316 168.28877005347596,690.386976078356 174.81283422459893,690.7868869681466 181.3368983957219,689.9465616315839 187.86096256684493,684.2056805702264 194.3850267379679,681.8907944381591 200.9090909090909,682.1429928390609 207.4331550802139,680.966857145159 213.9572192513369,683.7361520055354 220.48128342245988,679.1606489602791 227.00534759358288,681.8587829454342 233.52941176470588,683.1159251234877 240.05347593582889,686.1799029238792 246.5775401069519,674.7597998293882 253.1016042780749,674.3370512573525 259.62566844919786,672.0256645538512 266.14973262032083,672.3671538847431 272.6737967914438,665.8481449496144 279.1978609625669,672.3157857083756 285.72192513368987,669.7939512971914 292.24598930481284,670.4202495025221 298.7700534759358,674.983631710539 305.29411764705884,674.161688005317 311.8181818181818,674.3802128076011 318.34224598930484,673.1627706317677 324.8663101604278,677.1122833455337 331.3903743315508,676.4740293146127 337.9144385026738,667.7910426953888 344.4385026737968,666.9768729023072 350.96256684491976,668.3755002039484 357.4866310160428,667.3043231495503 364.01069518716577,669.1892310605929 370.5347593582888,669.6941141353722 377.05882352941177,670.97156569639 383.58288770053474,670.1015979591798 390.10695187165777,678.8332579922596 396.63101604278074,679.3891594723118 403.1550802139038,679.8105157421779 409.67914438502675,679.7858736902987 416.2032085561498,678.5283446139855 422.7272727272727,679.2845614801947 429.2513368983957,677.0502882782084 435.77540106951875,675.7393040346807 442.2994652406417,679.6320501492175 448.8235294117647,671.737404004218 455.34759358288767,659.9947282655301 461.8716577540107,656.1938209489807 468.3957219251337,647.6857469921046 474.91978609625664,650.768243103111 481.4438502673797,645.5825765107569 487.9679144385027,640.1995870951891 494.4919786096257,627.1509024862196 501.0160427807487,632.9013846123511 507.5401069518716,627.8106143977363 514.0641711229946,631.7195932361851 520.5882352941177,628.7180079300971 527.1122994652407,623.6909048438238 533.6363636363636,628.7694743029296 540.1604278074866,632.3765144801692 546.6844919786097,629.732429766196 553.2085561497327,614.1480659227591 559.7326203208556,598.5539117241998 566.2566844919786,593.9286333824822 572.7807486631016,559.6026568871754 579.3048128342245,533.118461421557 585.8288770053476,550.0067807632704 592.3529411764705,557.5098867600167 598.8770053475936,540.2622747456597 605.4010695187166,545.6961109268673 611.9251336898395,565.4169090902326 618.4491978609626,559.6187181965482 624.9732620320856,560.8194410297982 631.4973262032086,563.0921004937077 638.0213903743315,575.4845098106118 644.5454545454545,555.7835848803372 651.0695187165776,534.3606316488739 657.5935828877006,536.4569389640337 664.1176470588235,536.0626459043401 670.6417112299465,546.3881257571102 677.1657754010695,552.9083629350947 683.6898395721926,563.9887886834654 690.2139037433155,578.3380362765865 696.7379679144385,573.0634411975623 703.2620320855615,544.8876890611486 709.7860962566846,550.6184872367767 716.3101604278075,577.3800779680489 722.8342245989304,585.0209101459546 729.3582887700535,588.3102172194841 735.8823529411765,572.6416458179909 742.4064171122996,592.6646469948364 748.9304812834225,611.4065505503308 755.4545454545454,592.9535999535469 761.9786096256685,578.7644167414377 768.5026737967914,570.7915660103538 775.0267379679144,588.4276736134593 781.5508021390375,583.6690286319526 788.0748663101604,565.4560967151166 794.5989304812834,574.4900223419127 801.1229946524064,568.4172066521126 807.6470588235294,528.5560831060409 814.1711229946525,495.19148991990846 820.6951871657753,468.7715900902213 827.2192513368983,460.77593682133784 833.7433155080214,441.8989354333264 840.2673796791444,443.1762744208793 846.7914438502675,472.57591794472137 853.3155080213903,475.30475380697544 859.8395721925133,458.3951031626642 866.3636363636364,481.0275485762277 872.8877005347593,456.8491937972316 879.4117647058824,455.6003792937281 885.9358288770054,473.0226435320795 892.4598930481283,501.4619373708537 898.9839572192514,496.44569668605084 905.5080213903743,496.1110431873907 912.0320855614974,542.665185867322 918.5561497326204,542.7573460487472 925.0802139037432,557.8165677209804 931.6042780748663,557.2607779221144 938.1283422459893,566.5319261264464 944.6524064171123,565.3935242684477 951.1764705882354,568.1971953326506 957.7005347593582,570.0375305420966 964.2245989304813,537.8519310253828 970.7486631016043,534.4545486689997 977.2727272727273,478.4444642721454 983.7967914438503,487.40772687514334 990.3208556149732,473.8631525322695 996.8449197860962,481.38967203785603 1003.3689839572193,479.2392157699189 1009.8930481283422,479.3219631693436 1016.4171122994653,498.515297511022 1022.9411764705882,479.4057288241012 1029.4652406417113,473.3581610297679 1035.9893048128342,430.36708531476063 1042.5133689839572,396.94237951295645 1049.0374331550802,389.36453104835164 1055.5614973262032,419.7805364122265 1062.0855614973261,366.5099557764188 1068.609625668449,355.9868813435109 1075.133689839572,343.03863582306707 1081.6577540106953,378.8336342394095 1088.1818181818182,380.6619229491566 1094.705882352941,347.17390370770397 1101.2299465240642,357.09501686562396 1107.7540106951872,394.67872462026327 1114.2780748663101,340.8946959007118 1120.802139037433,405.84188114799434 1127.326203208556,407.04760481195655 1133.850267379679,393.3135121709803 1140.374331550802,401.34118036922985 1146.8983957219252,443.8581009008143 1153.4224598930482,471.722927436452 1159.9465240641712,517.67792101346 1166.4705882352941,491.8474365989093 1172.9946524064171,492.98477118466 1179.51871657754,486.7596532562942 1186.042780748663,498.4204059036038 1192.566844919786,501.17610494516885 1199.090909090909,485.41903137624223 1205.614973262032,488.1360939398139 1212.1390374331552,465.36667638150095 1218.6631016042782,498.07469055520403 1225.1871657754011,548.2739664736887 1231.711229946524,589.0295653012597 1238.235294117647,587.799060761441 1244.75935828877,597.8845662751154 1251.283422459893,600.6263623108114 1257.8074866310162,599.6901971644731 1264.331550802139,583.8311815524544 1270.855614973262,589.8878902697303 1277.3796791443851,600.6859609993044 1283.903743315508,594.6875407212752 1290.427807486631,569.737837898743 1296.951871657754,560.1469696116668 1303.475935828877,557.2820402796892 1310.0,555.0242462372015" fill="none" stroke="#92400e" stroke-width="2.5"><title>budgeted_btc_defensive_eth_aggressive | end=2026-05-02 | return=70.39%</title></polyline>
<polyline points="90.0,688.9395691491342 96.524064171123,688.6198749188965 103.04812834224599,691.4149268248107 109.57219251336899,688.9511559929231 116.09625668449198,666.269076467252 122.62032085561498,664.0407793723433 129.14438502673798,701.7596890528448 135.66844919786095,704.3125299911118 142.19251336898395,705.9109585302712 148.71657754010695,702.0284995276712 155.24064171122996,699.5697526544557 161.76470588235293,705.5334724157818 168.28877005347596,703.3752270142694 174.81283422459893,706.1111578553149 181.3368983957219,700.4195103100905 187.86096256684493,667.1959497147942 194.3850267379679,655.3474613800684 200.9090909090909,657.4072153696668 207.4331550802139,650.9360721483924 213.9572192513369,663.7742349207492 220.48128342245988,644.3508381851696 227.00534759358288,655.4806484713781 233.52941176470588,660.1618176457267 240.05347593582889,671.5416608781755 246.5775401069519,630.6871151051042 253.1016042780749,629.8620746387281 259.62566844919786,621.7825541253104 266.14973262032083,622.0611058426856 272.6737967914438,599.7721758918183 279.1978609625669,620.9178569974722 285.72192513368987,613.7448674821912 292.24598930481284,615.5036201947631 298.7700534759358,628.9984833672082 305.29411764705884,626.4687368075523 311.8181818181818,626.7855734756764 318.34224598930484,622.5736630247401 324.8663101604278,634.8576371603934 331.3903743315508,633.7992841976412 337.9144385026738,610.3578444538532 344.4385026737968,607.4760597181936 350.96256684491976,611.8522759704555 357.4866310160428,608.0384032124246 364.01069518716577,613.5346077193582 370.5347593582888,614.3067536676008 377.05882352941177,618.017777213879 383.58288770053474,615.8702973613724 390.10695187165777,637.981256074052 396.63101604278074,639.6386882864921 403.1550802139038,640.7021567546971 409.67914438502675,640.6899878495371 416.2032085561498,638.2334865067746 422.7272727272727,640.5997887683836 429.2513368983957,634.6586663790143 435.77540106951875,633.1086562184015 442.2994652406417,641.876776914062 448.8235294117647,626.4634523814265 455.34759358288767,603.045147052406 461.8716577540107,594.70627776865 468.3957219251337,575.8522768002352 474.91978609625664,583.0678347373674 481.4438502673797,571.8686690076148 487.9679144385027,561.5469416082387 494.4919786096257,537.4252366142736 501.0160427807487,548.852768096627 507.5401069518716,539.2954318123677 514.0641711229946,545.3476158816574 520.5882352941177,542.4035440708183 527.1122994652407,526.0270556716746 533.6363636363636,535.9277710694812 540.1604278074866,545.8327660191528 546.6844919786097,541.3914770263647 553.2085561497327,514.3548180709515 559.7326203208556,485.5573176771799 566.2566844919786,474.03953149346256 572.7807486631016,417.3844445522928 579.3048128342245,370.94089439894736 585.8288770053476,401.6514345678509 592.3529411764705,415.60723605058615 598.8770053475936,389.38705794816843 605.4010695187166,399.98282913167367 611.9251336898395,433.01558486757534 618.4491978609626,421.95512571009203 624.9732620320856,420.7490543254371 631.4973262032086,427.1233672217561 638.0213903743315,447.7326900046722 644.5454545454545,417.9895296624211 651.0695187165776,374.6576242228071 657.5935828877006,375.5720470062652 664.1176470588235,378.1348305364462 670.6417112299465,393.3924071683881 677.1657754010695,403.06227093536927 683.6898395721926,419.50219582285905 690.2139037433155,444.04668004184697 696.7379679144385,435.0411762765155 703.2620320855615,392.1899557074048 709.7860962566846,405.01490874210685 716.3101604278075,445.5470190342857 722.8342245989304,461.79057785574537 729.3582887700535,465.57718242039994 735.8823529411765,442.9029170648424 742.4064171122996,473.3167718242921 748.9304812834225,501.8221971295864 755.4545454545454,476.14913869448833 761.9786096256685,454.17005815439654 768.5026737967914,443.3164125023355 775.0267379679144,470.5708613552232 781.5508021390375,463.4788191836192 788.0748663101604,438.28828534730224 794.5989304812834,453.05759110532557 801.1229946524064,446.0646567960857 807.6470588235294,383.8606818654169 814.1711229946525,347.80762995851836 820.6951871657753,312.6783246685111 827.2192513368983,295.18130722290533 833.7433155080214,267.79404580116346 840.2673796791444,272.4684528860682 846.7914438502675,315.974589806935 853.3155080213903,316.973202080093 859.8395721925133,292.7131086930834 866.3636363636364,325.6806404050286 872.8877005347593,300.9399086858528 879.4117647058824,299.28336561979364 885.9358288770054,322.4432814890754 892.4598930481283,365.7014744919272 898.9839572192514,358.7392763917227 905.5080213903743,355.63468374031225 912.0320855614974,419.90973883986555 918.5561497326204,420.5750012793443 925.0802139037432,446.1191327109498 931.6042780748663,443.51822268961473 938.1283422459893,459.3539797271635 944.6524064171123,459.52938026009906 951.1764705882354,470.6170851106033 957.7005347593582,473.95618264599295 964.2245989304813,434.9098643032895 970.7486631016043,431.4145646041718 977.2727272727273,341.2453102115369 983.7967914438503,354.2614713048605 990.3208556149732,340.1715183976855 996.8449197860962,346.61811457646843 1003.3689839572193,344.9241017963563 1009.8930481283422,344.7392198184288 1016.4171122994653,371.30675975044414 1022.9411764705882,348.7879420655925 1029.4652406417113,340.06807326090177 1035.9893048128342,284.83497867916697 1042.5133689839572,229.68300326279518 1049.0374331550802,217.9795612397544 1055.5614973262032,255.7916934152762 1062.0855614973261,182.86758900969903 1068.609625668449,169.3348563739836 1075.133689839572,150.69550552365945 1081.6577540106953,192.4104757908915 1088.1818181818182,195.33780384393503 1094.705882352941,155.90494558770126 1101.2299465240642,168.14734895094227 1107.7540106951872,212.35094205877846 1114.2780748663101,150.6095202667251 1120.802139037433,226.78487145454233 1127.326203208556,225.88423674943726 1133.850267379679,210.82625704268946 1140.374331550802,220.25528099361253 1146.8983957219252,270.83691267531555 1153.4224598930482,303.2489774538546 1159.9465240641712,357.64105784258595 1166.4705882352941,326.4457675601857 1172.9946524064171,326.6479396837137 1179.51871657754,318.67337672238557 1186.042780748663,333.4863311802237 1192.566844919786,336.94960156500406 1199.090909090909,316.95275567933584 1205.614973262032,320.6044370903078 1212.1390374331552,292.45012001703975 1218.6631016042782,333.20317677760977 1225.1871657754011,395.29743527937615 1231.711229946524,446.02890046080637 1238.235294117647,444.7444962900846 1244.75935828877,458.44824771275347 1251.283422459893,461.59060670001463 1257.8074866310162,460.4522078314512 1264.331550802139,439.81092749683813 1270.855614973262,446.576017900687 1277.3796791443851,460.70600648676475 1283.903743315508,452.2181825298539 1290.427807486631,419.22810871622465 1296.951871657754,407.17826566509035 1303.475935828877,404.9258532954333 1310.0,402.6235592802675" fill="none" stroke="#0f766e" stroke-width="2.5"><title>static_50_50_rebalance | end=2026-05-02 | return=150.49%</title></polyline>
<polyline points="90.0,688.9395691491342 96.524064171123,688.5799131401167 103.04812834224599,691.7247857868047 109.57219251336899,688.9555074907498 116.09625668449198,663.4490908838787 122.62032085561498,660.9255301277907 129.14438502673798,703.8053433581055 135.66844919786095,706.6747188813147 142.19251336898395,708.4598741244714 148.71657754010695,704.140316269356 155.24064171122996,701.4059871173954 161.76470588235293,708.0423303766598 168.28877005347596,705.6450804674967 174.81283422459893,708.6836543730327 181.3368983957219,702.3690914399547 187.86096256684493,665.454906188651 194.3850267379679,652.1557671227946 200.9090909090909,654.4867888207908 207.4331550802139,647.1373271823928 213.9572192513369,661.7686167291886 220.48128342245988,639.6733015838635 227.00534759358288,652.3884682830233 233.52941176470588,657.7319716961238 240.05347593582889,670.6990502917346 246.5775401069519,624.3508785668367 253.1016042780749,623.4077541888548 259.62566844919786,614.1244057673831 266.14973262032083,614.4453054722323 272.6737967914438,589.6147084431775 279.1978609625669,610.9228797959402 285.72192513368987,604.050619830348 292.24598930481284,605.7272782706881 298.7700534759358,618.6218125233638 305.29411764705884,616.2395036685843 311.8181818181818,616.4383304242607 318.34224598930484,613.3663038979474 324.8663101604278,621.0075237078743 331.3903743315508,620.2029714163348 337.9144385026738,602.6462416360198 344.4385026737968,600.8264399627013 350.96256684491976,603.3314435482456 357.4866310160428,601.257667953084 364.01069518716577,604.1620147241993 370.5347593582888,604.5662872057436 377.05882352941177,606.4986214200107 383.58288770053474,605.3789245058981 390.10695187165777,616.891173965578 396.63101604278074,618.3419968479852 403.1550802139038,619.4604727827405 409.67914438502675,619.4465779463661 416.2032085561498,616.5426410277203 422.7272727272727,619.3923872578077 429.2513368983957,612.1757936712493 435.77540106951875,610.2828071940849 442.2994652406417,621.0274692543721 448.8235294117647,602.1521698678347 455.34759358288767,575.5025545874893 461.8716577540107,565.7918992939976 468.3957219251337,549.4489677659597 474.91978609625664,554.6230055898291 481.4438502673797,547.5867420499037 487.9679144385027,541.5942731856047 494.4919786096257,528.1894635503016 501.0160427807487,534.310915487468 507.5401069518716,529.2584837803909 514.0641711229946,532.4136756436815 520.5882352941177,530.883867003822 527.1122994652407,522.3841964920816 533.6363636363636,527.4543710125622 540.1604278074866,532.5295253652241 546.6844919786097,530.2376154958201 553.2085561497327,516.2789079909901 559.7326203208556,501.6813131697154 566.2566844919786,495.99845206566425 572.7807486631016,468.62175458218064 579.3048128342245,447.0594869442079 585.8288770053476,460.7300156401122 592.3529411764705,466.8934789990326 598.8770053475936,453.0905710815217 605.4010695187166,458.18763407342885 611.9251336898395,476.1149511151018 618.4491978609626,469.6691322451484 624.9732620320856,468.9410794674526 631.4973262032086,472.8126561620651 638.0213903743315,485.4378778358835 644.5454545454545,464.43651495742915 651.0695187165776,435.7335004382799 657.5935828877006,436.21018042107164 664.1176470588235,437.5204546336208 670.6417112299465,444.66618148410186 677.1657754010695,449.0926041909384 683.6898395721926,456.5676501347186 690.2139037433155,472.04117496988704 696.7379679144385,464.4361459502271 703.2620320855615,428.85245495087946 709.7860962566846,437.15358119959967 716.3101604278075,463.2795769923157 722.8342245989304,477.3631823999869 729.3582887700535,481.0332046108965 735.8823529411765,457.70667545604107 742.4064171122996,488.2459517934649 748.9304812834225,518.0198936822796 755.4545454545454,490.9970882750266 761.9786096256685,467.41065311023596 768.5026737967914,455.7004322541802 775.0267379679144,484.3677084246933 781.5508021390375,476.82292145961156 788.0748663101604,449.859676344386 794.5989304812834,465.8231958309584 801.1229946524064,459.61878381389374 807.6470588235294,394.1618717154861 814.1711229946525,367.348810982653 820.6951871657753,341.08565273518803 827.2192513368983,328.31240477348626 833.7433155080214,312.0804508483069 840.2673796791444,314.63322889943214 846.7914438502675,336.3015564344325 853.3155080213903,336.8431963930938 859.8395721925133,321.7381802961569 866.3636363636364,339.85618048014067 872.8877005347593,324.8092578730349 879.4117647058824,323.75801577020525 885.9358288770054,338.7324963946068 892.4598930481283,367.16495943557544 898.9839572192514,361.1394930969672 905.5080213903743,357.13741175076746 912.0320855614974,421.90008719906774 918.5561497326204,422.82807131649633 925.0802139037432,451.43418334446505 931.6042780748663,447.94755755339963 938.1283422459893,465.61640591025224 944.6524064171123,465.99296473936795 951.1764705882354,478.56015735425996 957.7005347593582,482.25660140595505 964.2245989304813,439.3114001476177 970.7486631016043,435.7626743937009 977.2727272727273,335.523883229101 983.7967914438503,349.8449881379103 990.3208556149732,336.45035999231897 996.8449197860962,341.7529371738351 1003.3689839572193,340.4872163083375 1009.8930481283422,340.13960046881147 1016.4171122994653,369.58406503831 1022.9411764705882,346.5926191948366 1029.4652406417113,336.793135774332 1035.9893048128342,277.53818816455066 1042.5133689839572,224.79735012156766 1049.0374331550802,216.05667111108403 1055.5614973262032,239.06576502612756 1062.0855614973261,190.6418997629446 1068.609625668449,182.7600649351832 1075.133689839572,172.60796398757748 1081.6577540106953,193.89319002704212 1088.1818181818182,195.39331425108503 1094.705882352941,175.58504556253877 1101.2299465240642,181.64344175816564 1107.7540106951872,203.41287896760457 1114.2780748663101,166.65485692547293 1120.802139037433,207.9931624409977 1127.326203208556,207.3896928367393 1133.850267379679,194.24531415470085 1140.374331550802,201.3888716968204 1146.8983957219252,238.32313889109935 1153.4224598930482,269.5632265902804 1159.9465240641712,328.23821645507496 1166.4705882352941,292.8394628093361 1172.9946524064171,293.07937440055105 1179.51871657754,283.68043098974533 1186.042780748663,301.26193297156135 1192.566844919786,305.38040766887724 1199.090909090909,281.5873433839037 1205.614973262032,285.9429500882435 1212.1390374331552,252.33232448003588 1218.6631016042782,301.1474631777569 1225.1871657754011,375.3137371945791 1231.711229946524,435.3132404041634 1238.235294117647,433.81329825157 1244.75935828877,449.7119003449431 1251.283422459893,453.33932309106666 1257.8074866310162,452.0293132598226 1264.331550802139,428.3090637439317 1270.855614973262,436.1012222752081 1277.3796791443851,452.3792004826873 1283.903743315508,442.62083489941966 1290.427807486631,404.6826165872215 1296.951871657754,390.76216325158106 1303.475935828877,388.1499321858372 1310.0,385.4742027140065" fill="none" stroke="#dc2626" stroke-width="2.5"><title>target_50_50_with_cash_band | end=2026-05-02 | return=159.51%</title></polyline>
<polyline points="90.0,688.9395691491342 96.524064171123,688.6518443419202 103.04812834224599,691.3350591517168 109.57219251336899,688.8531112192494 116.09625668449198,665.1538245358465 122.62032085561498,662.76440400653 129.14438502673798,704.1694895279026 135.66844919786095,706.9730020983975 142.19251336898395,708.7259153953115 148.71657754010695,704.4603842691315 155.24064171122996,701.7493917885644 161.76470588235293,708.3478407473987 168.28877005347596,705.965282801177 174.81283422459893,708.9927179170044 181.3368983957219,702.6992366167378 187.86096256684493,665.8722572920693 194.3850267379679,652.5793796065743 200.9090909090909,654.9077865373238 207.4331550802139,647.572662034293 213.9572192513369,662.2038401897795 220.48128342245988,640.1294200444851 227.00534759358288,652.8380312219845 233.52941176470588,658.1779227821847 240.05347593582889,671.1209133272841 246.5775401069519,624.9202008336961 253.1016042780749,623.9669156632223 259.62566844919786,614.6946293542073 266.14973262032083,615.0339438043645 272.6737967914438,590.0448594832453 279.1978609625669,613.0130167919765 285.72192513368987,605.8023119643005 292.24598930481284,607.5286984638411 298.7700534759358,621.3969678354651 305.29411764705884,618.7708321739872 311.8181818181818,619.0240451270859 318.34224598930484,614.818974962583 324.8663101604278,626.2461678340859 331.3903743315508,625.2520094124199 337.9144385026738,601.9475169151439 344.4385026737968,599.263440358732 350.96256684491976,603.1817730277991 357.4866310160428,599.8613251719788 364.01069518716577,604.5837581118179 370.5347593582888,605.2435941763757 377.05882352941177,608.3863918878669 383.58288770053474,606.5724409241278 390.10695187165777,625.2181951891175 396.63101604278074,626.841355016194 403.1550802139038,627.9695935680429 409.67914438502675,627.9560471826176 416.2032085561498,625.1559162303768 422.7272727272727,627.892779225163 429.2513368983957,620.9595933028834 435.77540106951875,619.1286492337438 442.2994652406417,629.4914320626465 448.8235294117647,611.2460966873865 455.34759358288767,585.0425917468392 461.8716577540107,575.5662488171065 468.3957219251337,556.0037036340532 474.91978609625664,563.1003447679366 481.4438502673797,552.6673814891703 487.9679144385027,543.3797191719076 494.4919786096257,522.0574386297264 501.0160427807487,532.0460906327443 507.5401069518716,523.7716042056716 514.0641711229946,528.974002864637 520.5882352941177,526.4637857841582 527.1122994652407,512.5001302279288 533.6363636363636,520.9395625954784 540.1604278074866,529.4282809151312 546.6844919786097,525.6531445454978 553.2085561497327,502.6631057510991 559.7326203208556,478.2818321858879 566.2566844919786,468.60383136095857 572.7807486631016,421.26407596715325 579.3048128342245,382.8320780461841 585.8288770053476,407.956373727823 592.3529411764705,419.2785291643028 598.8770053475936,396.1003782834596 605.4010695187166,405.0985199336316 611.9251336898395,435.030219715556 618.4491978609626,424.6520037826112 624.9732620320856,423.5218910861271 631.4973262032086,429.73993240808943 638.0213903743315,449.9778118942068 644.5454545454545,420.64730126266755 651.0695187165776,377.83755075630944 657.5935828877006,378.6245778258272 664.1176470588235,380.9892233562655 670.6417112299465,393.93490279390545 677.1657754010695,401.99140640524365 683.6898395721926,415.5507230145705 690.2139037433155,437.6146810974388 696.7379679144385,428.65570191914475 703.2620320855615,385.7197531766599 709.7860962566846,397.6637566304489 716.3101604278075,436.8332555048853 722.8342245989304,453.6080459135345 729.3582887700535,457.7305128989035 735.8823529411765,432.6507758683888 742.4064171122996,465.445982293934 748.9304812834225,496.92859645240867 755.4545454545454,468.49967287717175 761.9786096256685,443.6902940780306 768.5026737967914,431.34849669603517 775.0267379679144,461.8097705106786 781.5508021390375,453.8456849742033 788.0748663101604,425.44748981058393 794.5989304812834,442.31984641106334 801.1229946524064,435.5693349274086 807.6470588235294,366.3103334735635 814.1711229946525,332.11324479050444 820.6951871657753,295.4708301614247 827.2192513368983,276.5122346714295 833.7433155080214,249.8699896495221 840.2673796791444,254.37944519672965 846.7914438502675,293.13933845179463 853.3155080213903,294.0519655297339 859.8395721925133,270.1813198698434 866.3636363636364,300.83378835530294 872.8877005347593,276.7341976731103 879.4117647058824,275.07663358571807 885.9358288770054,298.62476638301194 892.4598930481283,342.9062025823893 898.9839572192514,335.5514381024696 905.5080213903743,331.3951548845172 912.0320855614974,401.2595917519211 918.5561497326204,402.20391283772994 925.0802139037432,431.8942318011682 931.6042780748663,428.3427293431071 938.1283422459893,446.64584381827274 944.6524064171123,447.0728656025509 951.1764705882354,460.18656874073054 957.7005347593582,464.01050749917135 964.2245989304813,419.4311996475454 970.7486631016043,415.66609921825307 977.2727272727273,311.2425208504725 983.7967914438503,326.3382576322562 990.3208556149732,312.1784183102652 996.8449197860962,317.7794002334445 1003.3689839572193,316.44956440787126 1009.8930481283422,316.0847230321974 1016.4171122994653,346.93249754118887 1022.9411764705882,322.91572403811404 1029.4652406417113,312.6885500187731 1035.9893048128342,250.753595949665 1042.5133689839572,185.34471180355752 1049.0374331550802,172.6373389832046 1055.5614973262032,209.39196830108244 1062.0855614973261,134.31045324921706 1068.609625668449,121.10555546061767 1075.133689839572,103.09604197174463 1081.6577540106953,140.88947548836722 1088.1818181818182,143.67258805238384 1094.705882352941,108.76587054599531 1101.2299465240642,119.58617374056666 1107.7540106951872,158.24093382080366 1114.2780748663101,99.23960999976418 1120.802139037433,169.50935557740843 1127.326203208556,168.68581686646348 1133.850267379679,152.6469338562723 1140.374331550802,162.46990382197816 1146.8983957219252,215.9343684633369 1153.4224598930482,252.50978466322954 1159.9465240641712,315.81256525738894 1166.4705882352941,279.0024899032305 1172.9946524064171,279.29264578846676 1179.51871657754,269.68200289877194 1186.042780748663,287.6547934828662 1192.566844919786,291.86244261959723 1199.090909090909,267.5530360522618 1205.614973262032,272.010034751171 1212.1390374331552,237.6228253119371 1218.6631016042782,287.6174574216313 1225.1871657754011,363.47272492277824 1231.711229946524,424.7111409342589 1238.235294117647,423.1711452016529 1244.75935828877,439.3543474569022 1251.283422459893,443.0690263634097 1257.8074866310162,441.72943624331594 1264.331550802139,417.4864647656391 1270.855614973262,425.4708631814988 1277.3796791443851,442.1338882060691 1283.903743315508,432.14529831017757 1290.427807486631,393.30261397581944 1296.951871657754,379.04202011552263 1303.475935828877,376.38066537876335 1310.0,373.63580566934553" fill="none" stroke="#2563eb" stroke-width="2.5"><title>narrow_cash_band_rebalance | end=2026-05-02 | return=165.73%</title></polyline>
<polyline points="90.0,688.9395691491342 96.524064171123,688.5991840417993 103.04812834224599,691.6975407384278 109.57219251336899,688.886742845009 116.09625668449198,662.6233239869191 122.62032085561498,659.9974116079013 129.14438502673798,704.8789865039519 135.66844919786095,707.8551166669223 142.19251336898395,709.7222819675006 148.71657754010695,705.2003707807893 155.24064171122996,702.3208320750889 161.76470588235293,709.3879528117035 168.28877005347596,706.8083438944219 174.81283422459893,710.0 181.3368983957219,703.2955326292495 187.86096256684493,664.5826550323588 194.3850267379679,650.5963874064565 200.9090909090909,653.131082059747 207.4331550802139,645.2169181945759 213.9572192513369,660.8026519164688 220.48128342245988,637.4139486098013 227.00534759358288,650.9289956711111 233.52941176470588,656.548737222213 240.05347593582889,670.2452193389884 246.5775401069519,621.3917119691879 253.1016042780749,620.5730902861376 259.62566844919786,610.8771125325193 266.14973262032083,610.905896839864 272.6737967914438,585.1599493094618 279.1978609625669,609.2547019081371 285.72192513368987,601.4761055494789 292.24598930481284,603.3735015943653 298.7700534759358,618.2268094209443 305.29411764705884,615.5586350609371 311.8181818181818,615.8109552483571 318.34224598930484,611.7812164069767 324.8663101604278,622.5234157867867 331.3903743315508,621.5720265543388 337.9144385026738,599.452865372808 344.4385026737968,596.7973429037347 350.96256684491976,600.5763815624898 357.4866310160428,597.2481368974762 364.01069518716577,601.7288467844801 370.5347593582888,602.2150746734808 377.05882352941177,605.2063857503007 383.58288770053474,603.5391172157956 390.10695187165777,620.8429881317716 396.63101604278074,622.3545611402285 403.1550802139038,623.3538613204446 409.67914438502675,623.352148083222 416.2032085561498,621.0564340364233 422.7272727272727,623.5540402449559 429.2513368983957,617.3863867303577 435.77540106951875,616.2528817030836 442.2994652406417,625.1036442175827 448.8235294117647,609.436907157704 455.34759358288767,585.9369894323393 461.8716577540107,577.2080557042323 468.3957219251337,559.2244069001611 474.91978609625664,565.740591837363 481.4438502673797,556.2261554900687 487.9679144385027,547.849318379174 494.4919786096257,528.6152821861353 501.0160427807487,537.6324697569796 507.5401069518716,530.1555546063638 514.0641711229946,534.827259127991 520.5882352941177,532.5601810417513 527.1122994652407,519.5842573747225 533.6363636363636,527.181400052367 540.1604278074866,534.4633759531598 546.6844919786097,531.0245413458819 553.2085561497327,510.1544875041068 559.7326203208556,487.96698607902204 566.2566844919786,479.07702668250124 572.7807486631016,436.5546530239669 579.3048128342245,402.23716417689843 585.8288770053476,424.51501364742194 592.3529411764705,434.623074351535 598.8770053475936,413.8091171090396 605.4010695187166,422.1580080303122 611.9251336898395,449.6829821127257 618.4491978609626,439.00532837752786 624.9732620320856,436.90973386378136 631.4973262032086,443.456572877249 638.0213903743315,462.3845470177702 644.5454545454545,434.3518049684463 651.0695187165776,390.3749320661183 657.5935828877006,390.51972941579527 664.1176470588235,393.06208070530556 670.6417112299465,404.62307695748865 677.1657754010695,411.82303789418586 683.6898395721926,423.97116095346405 690.2139037433155,444.38677327368725 696.7379679144385,436.4183042018162 703.2620320855615,397.8766689528789 709.7860962566846,409.0683803496553 716.3101604278075,444.53018559246055 722.8342245989304,461.8203189429971 729.3582887700535,465.02980954386203 735.8823529411765,442.16905971125357 742.4064171122996,474.32430816538 748.9304812834225,504.68992732022696 755.4545454545454,478.9721448777734 761.9786096256685,455.04651455911414 768.5026737967914,444.1614040592975 775.0267379679144,474.6633381686621 781.5508021390375,466.91508923686206 788.0748663101604,440.91318425475845 794.5989304812834,458.6372263480689 801.1229946524064,452.7826154191873 807.6470588235294,379.5737988882518 814.1711229946525,353.06593039555094 820.6951871657753,318.9001969866293 827.2192513368983,297.5530736022682 833.7433155080214,272.4634464990476 840.2673796791444,277.2361352402388 846.7914438502675,312.707617857595 853.3155080213903,312.8997384956717 859.8395721925133,290.5481902593724 866.3636363636364,318.69554357415427 872.8877005347593,298.1458339909571 879.4117647058824,296.6052130497666 885.9358288770054,318.6403414885205 892.4598930481283,362.65154589280587 898.9839572192514,355.29268053749826 905.5080213903743,350.33445143063756 912.0320855614974,422.21509852595284 918.5561497326204,423.2908843869258 925.0802139037432,454.8710088794878 931.6042780748663,450.5575320837795 938.1283422459893,471.9324451982634 944.6524064171123,473.43796583056553 951.1764705882354,492.70411706788775 957.7005347593582,497.493952324537 964.2245989304813,452.78603616280736 970.7486631016043,449.2870891608817 977.2727272727273,321.88213952532755 983.7967914438503,339.2896914603055 990.3208556149732,325.4216917768768 996.8449197860962,330.14462361603483 1003.3689839572193,329.09744203526134 1009.8930481283422,328.60666481732113 1016.4171122994653,362.3707060315063 1022.9411764705882,337.2531832667268 1029.4652406417113,325.8730638168316 1035.9893048128342,258.8706617380911 1042.5133689839572,180.09967352939248 1049.0374331550802,165.93661546073884 1055.5614973262032,202.52286890261274 1062.0855614973261,125.58834727624446 1068.609625668449,112.81402506494783 1075.133689839572,95.37116818275626 1081.6577540106953,130.4826093743212 1088.1818181818182,132.90470402408062 1094.705882352941,100.37831938271086 1101.2299465240642,110.30198749495707 1107.7540106951872,146.29834691439703 1114.2780748663101,90.0 1120.802139037433,156.8632714579917 1127.326203208556,154.71606109773825 1133.850267379679,140.26715393831512 1140.374331550802,149.9063087717941 1146.8983957219252,202.6260670972273 1153.4224598930482,238.10001508578188 1159.9465240641712,299.98148749881705 1166.4705882352941,263.8847081700409 1172.9946524064171,263.20888140210815 1179.51871657754,253.48653919431405 1186.042780748663,271.52207567530746 1192.566844919786,275.7098295434301 1199.090909090909,251.4110966437064 1205.614973262032,256.0026209002846 1212.1390374331552,222.15465158211987 1218.6631016042782,271.64656559858133 1225.1871657754011,346.36860005465576 1231.711229946524,406.55247444321947 1238.235294117647,405.1695389565161 1244.75935828877,423.0872204226112 1251.283422459893,426.7952450524237 1257.8074866310162,425.39324819996267 1264.331550802139,398.8136112050474 1270.855614973262,406.7247389804272 1277.3796791443851,425.19135537925104 1283.903743315508,413.6601922288541 1290.427807486631,370.44279041824944 1296.951871657754,354.94049113683803 1303.475935828877,353.1317103875405 1310.0,350.57946415842287" fill="none" stroke="#7c3aed" stroke-width="2.5"><title>drawdown_tilt_rebalance | end=2026-05-02 | return=177.85%</title></polyline>
<polyline points="90.0,688.9395691491342 96.524064171123,688.6862181545097 103.04812834224599,690.8041472219919 109.57219251336899,688.9863141986735 116.09625668449198,671.0984203445823 122.62032085561498,668.8695746639886 129.14438502673798,702.3609366131684 135.66844919786095,704.3667769390338 142.19251336898395,705.8904788881695 148.71657754010695,702.348298142074 155.24064171122996,700.1510036377963 161.76470588235293,705.1310651983925 168.28877005347596,703.436105478006 174.81283422459893,705.9611258280717 181.3368983957219,701.0558277847433 187.86096256684493,669.882651951321 194.3850267379679,658.1929665473234 200.9090909090909,659.3692709640279 207.4331550802139,654.103470634543 213.9572192513369,665.8141949316771 220.48128342245988,647.3070693725144 227.00534759358288,657.7161288100795 233.52941176470588,662.3608361189346 240.05347593582889,673.310394283227 246.5775401069519,633.6991193798331 253.1016042780749,632.3541453220344 259.62566844919786,624.9711719965144 266.14973262032083,625.8941501532327 272.6737967914438,605.0696204822736 279.1978609625669,625.7778000294127 285.72192513368987,617.7786564469155 292.24598930481284,619.7532662698965 298.7700534759358,634.1504968600967 305.29411764705884,631.5557142342092 311.8181818181818,632.1965145781469 318.34224598930484,628.3697919890564 324.8663101604278,640.489437114156 331.3903743315508,639.402108088028 337.9144385026738,614.760033245154 344.4385026737968,611.9563233403434 350.96256684491976,616.2412065812416 357.4866310160428,612.868995321179 364.01069518716577,618.2774044179072 370.5347593582888,619.5409925484776 377.05882352941177,623.1157467873062 383.58288770053474,620.7744087041749 390.10695187165777,644.174399687535 396.63101604278074,645.6116816840473 403.1550802139038,646.6244401025016 409.67914438502675,646.5740586425908 416.2032085561498,643.8311686188013 422.7272727272727,645.5640529666915 429.2513368983957,640.6818583612782 435.77540106951875,638.1838786275034 442.2994652406417,646.1096558800049 448.8235294117647,630.7307732402661 455.34759358288767,606.9154028919386 461.8716577540107,598.8750372976058 468.3957219251337,580.6912750179008 474.91978609625664,587.3962522273358 481.4438502673797,576.4386671377113 487.9679144385027,565.5445125471762 494.4919786096257,539.577543012097 501.0160427807487,551.1985343087013 507.5401069518716,541.1524825296905 514.0641711229946,548.3733472149024 520.5882352941177,543.4291575318362 527.1122994652407,531.1523476069215 533.6363636363636,541.2559545599187 540.1604278074866,550.7262397907349 546.6844919786097,546.0207601183425 553.2085561497327,517.365094784562 559.7326203208556,487.78979068665944 566.2566844919786,477.76615135737575 572.7807486631016,417.13502599704674 579.3048128342245,368.26319626179986 585.8288770053476,400.6544978284623 592.3529411764705,415.3953350414182 598.8770053475936,386.78879134100794 605.4010695187166,397.1074174682405 611.9251336898395,431.4120017509306 618.4491978609626,420.7584262496934 624.9732620320856,421.4834731366264 631.4973262032086,426.40051171490455 638.0213903743315,447.6712347070051 644.5454545454545,415.0464311002913 651.0695187165776,375.31044689955036 657.5935828877006,377.95467652355796 664.1176470588235,378.27395952760884 670.6417112299465,395.0744910385561 677.1657754010695,405.5447530349533 683.6898395721926,423.17464856853064 690.2139037433155,450.465171408246 696.7379679144385,441.41768964582315 703.2620320855615,396.95588592834207 709.7860962566846,411.68431237770153 716.3101604278075,454.19233922804034 722.8342245989304,468.45165018828595 729.3582887700535,472.7106777326703 735.8823529411765,450.73685934007864 742.4064171122996,480.3713552262601 748.9304812834225,507.30491577535054 755.4545454545454,481.8687612398479 761.9786096256685,462.0026371227118 768.5026737967914,451.4029601808551 775.0267379679144,476.6716410062949 781.5508021390375,470.1051330192083 788.0748663101604,445.95634034434494 794.5989304812834,458.9530943311602 801.1229946524064,450.8405664386656 807.6470588235294,392.1784781125024 814.1711229946525,347.5807402832395 820.6951871657753,310.6817010032488 827.2192513368983,297.2898623658621 833.7433155080214,270.4967903653765 840.2673796791444,273.00225906622643 846.7914438502675,314.30155971370834 853.3155080213903,317.29907344481495 859.8395721925133,293.6283975749777 866.3636363636364,325.3080608039735 872.8877005347593,294.34480154956873 879.4117647058824,292.6391767727598 885.9358288770054,316.4318225112438 892.4598930481283,357.33918973051874 898.9839572192514,350.3316617878458 905.5080213903743,348.67859425206603 912.0320855614974,413.72049734580315 918.5561497326204,414.10537870383996 925.0802139037432,437.60428921728663 931.6042780748663,435.87040955287836 938.1283422459893,449.83194946327603 944.6524064171123,449.2074766714867 951.1764705882354,456.3365583509093 957.7005347593582,459.069136200761 964.2245989304813,421.33437940562175 970.7486631016043,417.52353365832215 977.2727272727273,334.6461981152732 983.7967914438503,347.1721247924966 990.3208556149732,331.1830272841267 996.8449197860962,339.39494874187005 1003.3689839572193,337.1058014059216 1009.8930481283422,337.07659746241126 1016.4171122994653,362.9016409280565 1022.9411764705882,338.9972547108359 1029.4652406417113,330.70145333621474 1035.9893048128342,274.9945834938459 1042.5133689839572,222.17827116355568 1049.0374331550802,210.3160254604736 1055.5614973262032,250.57939711911047 1062.0855614973261,173.20057768842082 1068.609625668449,158.62159120649505 1075.133689839572,138.28784973385189 1081.6577540106953,183.51135395806682 1088.1818181818182,186.77459183882456 1094.705882352941,144.24909582861096 1101.2299465240642,157.52003238831526 1107.7540106951872,205.2426441404918 1114.2780748663101,138.862152264442 1120.802139037433,220.94575911763206 1127.326203208556,220.10664407929903 1133.850267379679,204.460368483391 1140.374331550802,214.83879795209697 1146.8983957219252,268.9295214536079 1153.4224598930482,301.9676833763338 1159.9465240641712,355.2061163991727 1166.4705882352941,325.37154736159926 1172.9946524064171,326.8337402120031 1179.51871657754,319.8397197260596 1186.042780748663,332.8467715186258 1192.566844919786,335.93550366364656 1199.090909090909,318.300745497141 1205.614973262032,321.24572276795516 1212.1390374331552,295.73491443245655 1218.6631016042782,331.8673063068488 1225.1871657754011,388.0352277186205 1231.711229946524,434.86721535110394 1238.235294117647,433.38060617069044 1244.75935828877,445.4980320178869 1251.283422459893,448.8440570743562 1257.8074866310162,447.6918145681652 1264.331550802139,428.0239783849382 1270.855614973262,435.45433233728545 1277.3796791443851,448.81650629390634 1283.903743315508,441.34437206468726 1290.427807486631,410.33595916425503 1296.951871657754,398.51078929155375 1303.475935828877,394.9530794483998 1310.0,392.2035673357127" fill="none" stroke="#b45309" stroke-width="2.5"><title>btc_defensive_eth_aggressive | end=2026-05-02 | return=155.97%</title></polyline>
</svg>