<svg xmlns="http://www.w3.org/2000/svg" width="1400" height="800">
<rect width="1400" height="800" fill="#f8fafc"/>
<text x="700.0" y="42" text-anchor="middle" font-family="monospace" font-size="24" fill="#0f172a">Portfolio Value Over Time | start=2021-01-01 | interval=7d</text>
<line x1="90" y1="710" x2="1310" y2="710" stroke="#334155" stroke-width="2"/>
<line x1="90" y1="90" x2="90" y2="710" stroke="#334155" stroke-width="2"/>
<line x1="90.0" y1="710" x2="90.0" y2="90" stroke="#cbd5e1" stroke-width="1"/>
<text x="90.0" y="734" text-anchor="middle" font-family="monospace" font-size="11" fill="#475569">2021-01-01</text>
<line x1="90" y1="710.0" x2="1310" y2="710.0" stroke="#cbd5e1" stroke-width="1"/>
<text x="78" y="714.0" text-anchor="end" font-family="monospace" font-size="12" fill="#475569">6693</text>
<line x1="334.0" y1="710" x2="334.0" y2="90" stroke="#cbd5e1" stroke-width="1"/>
<text x="334.0" y="734" text-anchor="middle" font-family="monospace" font-size="11" fill="#475569">2022-01-28</text>
<line x1="90" y1="586.0" x2="1310" y2="586.0" stroke="#cbd5e1" stroke-width="1"/>
<text x="78" y="590.0" text-anchor="end" font-family="monospace" font-size="12" fill="#475569">13829</text>
<line x1="578.0" y1="710" x2="578.0" y2="90" stroke="#cbd5e1" stroke-width="1"/>
<text x="578.0" y="734" text-anchor="middle" font-family="monospace" font-size="11" fill="#475569">2023-02-17</text>
<line x1="90" y1="462.0" x2="1310" y2="462.0" stroke="#cbd5e1" stroke-width="1"/>
<text x="78" y="466.0" text-anchor="end" font-family="monospace" font-size="12" fill="#475569">20965</text>
<line x1="822.0000000000001" y1="710" x2="822.0000000000001" y2="90" stroke="#cbd5e1" stroke-width="1"/>
<text x="822.0000000000001" y="734" text-anchor="middle" font-family="monospace" font-size="11" fill="#475569">2024-03-15</text>
<line x1="90" y1="338.0" x2="1310" y2="338.0" stroke="#cbd5e1" stroke-width="1"/>
<text x="78" y="342.0" text-anchor="end" font-family="monospace" font-size="12" fill="#475569">28101</text>
<line x1="1066.0" y1="710" x2="1066.0" y2="90" stroke="#cbd5e1" stroke-width="1"/>
<text x="1066.0" y="734" text-anchor="middle" font-family="monospace" font-size="11" fill="#475569">2025-04-04</text>
<line x1="90" y1="214.0" x2="1310" y2="214.0" stroke="#cbd5e1" stroke-width="1"/>
<text x="78" y="218.0" text-anchor="end" font-family="monospace" font-size="12" fill="#475569">35237</text>
<line x1="1310.0" y1="710" x2="1310.0" y2="90" stroke="#cbd5e1" stroke-width="1"/>
<text x="1310.0" y="734" text-anchor="middle" font-family="monospace" font-size="11" fill="#475569">2026-05-01</text>
<line x1="90" y1="90.0" x2="1310" y2="90.0" stroke="#cbd5e1" stroke-width="1"/>
<text x="78" y="94.0" text-anchor="end" font-family="monospace" font-size="12" fill="#475569">42373</text>
<text x="700.0" y="782" text-anchor="middle" font-family="monospace" font-size="16" fill="#0f172a">time</text>
<text x="24" y="400.0" transform="rotate(-90 24,400.0)" text-anchor="middle" font-family="monospace" font-size="16" fill="#0f172a">portfolio_value_usd</text>
<line x1="970" y1="80" x2="988" y2="80" stroke="#0f766e" stroke-width="3"/>
<text x="998" y="84" font-family="monospace" font-size="12" fill="#0f172a">budgeted_static_50_50_rebalance</text>
<line x1="970" y1="104" x2="988" y2="104" stroke="#9333ea" stroke-width="3"/>
<text x="998" y="108" font-family="monospace" font-size="12" fill="#0f172a">budgeted_drawdown_tilt_rebalance</text>
<line x1="970" y1="128" x2="988" y2="128" stroke="#92400e" stroke-width="3"/>
<text x="998" y="132" font-family="monospace" font-size="12" fill="#0f172a">budgeted_btc_defensive_eth_aggressive</text>
<line x1="970" y1="152" x2="988" y2="152" stroke="#0f766e" stroke-width="3"/>
<text x="998" y="156" font-family="monospace" font-size="12" fill="#0f172a">static_50_50_rebalance</text>
<line x1="970" y1="176" x2="988" y2="176" stroke="#dc2626" stroke-width="3"/>
<text x="998" y="180" font-family="monospace" font-size="12" fill="#0f172a">target_50_50_with_cash_band</text>
<line x1="970" y1="200" x2="988" y2="200" stroke="#2563eb" stroke-width="3"/>
<text x="998" y="204" font-family="monospace" font-size="12" fill="#0f172a">narrow_cash_band_rebalance</text>
<line x1="970" y1="224" x2="988" y2="224" stroke="#7c3aed" stroke-width="3"/>
<text x="998" y="228" font-family="monospace" font-size="12" fill="#0f172a">drawdown_tilt_rebalance</text>
<line x1="970" y1="248" x2="988" y2="248" stroke="#b45309" stroke-width="3"/>
<text x="998" y="252" font-family="monospace" font-size="12" fill="#0f172a">btc_defensive_eth_aggressive</text>
<polyline points="90.0,652.5322291365873 94.38848920863309,651.9859561443449 98.77697841726619,652.161605232913 103.16546762589928,652.2262198909341 107.55395683453237,651.8548763969898 111.94244604316546,650.7333894415895 116.33093525179856,649.5870572566199 120.71942446043165,648.3915035857731 125.10791366906474,651.1108899940626 129.49640287769785,650.5143268775994 133.88489208633092,648.459564259671 138.27338129496403,648.1688723288082 142.66187050359713,649.1074725448528 147.0503597122302,646.3859061818843 151.4388489208633,646.8835643195494 155.8273381294964,644.3722627948396 160.2158273381295,646.5849829568969 164.6043165467626,642.9496830244968 168.9928057553957,638.8211415331381 173.38129496402877,636.7871627999455 177.76978417266187,649.8496165428211 182.15827338129498,650.3806179155129 186.54676258992805,648.2400861440528 190.93525179856115,650.409441312077 195.32374100719426,651.6841687176426 199.71223021582733,656.0467728009527 204.10071942446044,652.7227169726312 208.48920863309354,652.7839640543715 212.87769784172662,655.8014778874702 217.26618705035972,652.9123317611468 221.6546762589928,646.7840459648577 226.0431654676259,642.7579606336329 230.431654676259,636.8946908023992 234.82014388489208,636.6227892420708 239.20863309352518,636.8450997322321 243.59712230215825,630.1364972098489 247.98561151079136,639.4329143241997 252.37410071942446,636.4643094234468 256.76258992805754,643.1878969032971 261.15107913669067,636.8123467638483 265.53956834532374,631.3943497367898 269.9280575539568,624.3713697108176 274.31654676258995,623.8084920739002 278.705035971223,618.196246665689 283.0935251798561,618.2322830814919 287.48201438848923,614.5163265435447 291.8705035971223,621.8147522584904 296.2589928057554,627.0554835496652 300.6474820143885,625.1713803804086 305.03597122302153,632.4395311118898 309.42446043165467,633.3074207467732 313.8129496402878,628.5205149408714 318.2014388489209,635.7095582896362 322.58992805755395,644.2370934445414 326.9784172661871,641.9360731597144 331.3669064748201,655.2329866381231 335.75539568345323,654.6731255140838 340.14388489208636,646.3911364055604 344.53237410071944,646.7550433100323 348.9208633093525,650.3480741917958 353.3093525179856,651.0104761706076 357.6978417266187,653.0211048080073 362.0863309352518,654.2425616398391 366.4748201438849,646.7098496408734 370.863309352518,642.477624989008 375.2517985611511,635.9952123219049 379.64028776978415,642.9006121835572 384.0287769784173,646.4493460453558 388.41726618705036,648.2527038381555 392.8057553956835,651.3264271961197 397.1942446043165,655.3528961332652 401.58273381294964,671.4712332649065 405.9712230215827,672.2914152940231 410.3597122302158,676.4184245538983 414.7482014388489,674.6809448504526 419.136690647482,677.0692590428745 423.52517985611513,694.6573868617195 427.9136690647482,691.5439251504658 432.3021582733813,696.4043853495925 436.6906474820144,691.2490828738933 441.0791366906475,691.6998207632105 445.4676258992806,683.9829972478215 449.8561151079137,679.2176040186198 454.2446043165467,679.4463289271781 458.63309352517985,673.7960404223669 463.0215827338129,684.9530049072055 467.41007194244605,687.7031383130192 471.7985611510791,686.6443154618484 476.1870503597122,681.8928706986333 480.57553956834533,689.9462104926439 484.9640287769784,692.9264884609393 489.35251798561154,692.6968198527604 493.7410071942446,692.5053019012254 498.1294964028777,693.7836163486088 502.5179856115108,693.7187169550964 506.90647482014384,685.6531256067725 511.294964028777,682.7097923221605 515.68345323741,697.4976617042829 520.0719424460431,699.8360840015218 524.4604316546763,700.4036569643514 528.8489208633093,697.0106111786348 533.2374100719425,697.8045808735268 537.6258992805756,701.1471049657368 542.0143884892086,699.4852518861828 546.4028776978417,700.3512256612532 550.7913669064749,697.8207844325525 555.1798561151079,687.4712913775293 559.568345323741,676.751597950938 563.9568345323742,677.7423983770857 568.3453237410072,675.1991697876294 572.7338129496402,682.9496167342327 577.1223021582734,672.0632023417737 581.5107913669065,677.2920282028222 585.8992805755396,680.0261502395311 590.2877697841727,688.3526512018183 594.6762589928057,662.9997529363753 599.0647482014389,664.2417458601726 603.4532374100719,660.0582031220287 607.841726618705,659.769375219823 612.2302158273382,646.9306135465798 616.6187050359712,661.8058959581431 621.0071942446043,656.0501647443615 625.3956834532374,652.2202590073401 629.7841726618706,664.1959051695356 634.1726618705036,663.8724019788579 638.5611510791367,663.7178137488869 642.9496402877699,659.8589365700828 647.3381294964029,663.8391575713205 651.726618705036,668.477645566696 656.115107913669,652.577038245948 660.5035971223022,651.7028786763949 664.8920863309353,654.1930967533998 669.2805755395683,651.7920515230388 673.6690647482014,654.4478644414584 678.0575539568346,656.4490831026014 682.4460431654676,658.6941372246437 686.8345323741007,657.2382005064719 691.2230215827338,671.7265582064194 695.611510791367,672.0441360926336 700.0,673.5420135201308 704.388489208633,673.0002379945207 708.7769784172662,671.1485276191277 713.1654676258993,673.027043449315 717.5539568345324,669.4403290743014 721.9424460431654,667.8263901502971 726.3309352517986,673.9075240429776 730.7194244604316,665.4021404342711 735.1079136690648,648.9437774774658 739.4964028776978,644.9498039110374 743.884892086331,629.4643282435825 748.273381294964,635.6246965763266 752.661870503597,628.3958903154055 757.0503597122303,626.0532044342349 761.4388489208633,603.4316087272422 765.8273381294964,613.7639126306901 770.2158273381294,605.1074114187921 774.6043165467626,610.4016183492596 778.9928057553957,606.9034549381785 783.3812949640288,600.2515173209496 787.7697841726618,603.9508939892827 792.158273381295,612.0783892322681 796.546762589928,607.6024489962632 800.9352517985612,592.2821221223784 805.3237410071943,569.6676487650758 809.7122302158274,568.2077240792424 814.1007194244604,524.117539998859 818.4892086330934,494.6010598478636 822.8776978417267,497.659138277329 827.2661870503597,524.801961979045 831.6546762589928,505.55880396139236 836.0431654676258,516.9902986986808 840.431654676259,521.4443672519797 844.8201438848921,535.07826501849 849.2086330935252,532.574164701173 853.5971223021583,535.2881382939097 857.9856115107914,546.9383504853683 862.3741007194244,527.1728143203883 866.7625899280577,499.86227614564376 871.1510791366907,500.8386830895156 875.5395683453237,500.21914276320973 879.9280575539568,514.4142400439439 884.3165467625898,516.782060883103 888.7050359712231,529.8740038739897 893.0935251798561,552.0486780764909 897.4820143884892,543.7323755836117 901.8705035971223,512.2467431929865 906.2589928057554,518.4795021364534 910.6474820143885,542.2265043105789 915.0359712230216,557.910073182936 919.4244604316547,562.0171427518871 923.8129496402877,545.2741888082091 928.2014388489208,564.2488678200416 932.589928057554,586.0895738263882 936.9784172661871,564.7983304000072 941.3669064748201,554.8256337530581 945.7553956834532,544.4983827224188 950.1438848920862,563.0351904094174 954.5323741007195,561.2193221973861 958.9208633093525,541.6385180886489 963.3093525179856,553.8268431364335 967.6978417266187,545.2698817713479 972.0863309352517,512.5746959880748 976.4748201438849,480.4377289620892 980.863309352518,455.3618994841841 985.2517985611511,446.7129666725461 989.6402877697841,424.38654446823006 994.0287769784172,425.8096108910692 998.4172661870504,451.4969421603514 1002.8057553956835,464.179505344926 1007.1942446043165,444.8767880249633 1011.5827338129496,465.87985949601534 1015.9712230215828,439.81984719106015 1020.3597122302159,445.77833439801447 1024.7482014388488,450.5713032194908 1029.136690647482,491.2546002849187 1033.525179856115,484.87430512526976 1037.9136690647483,490.2017236346494 1042.3021582733813,530.5950955623773 1046.6906474820144,530.6962176494415 1051.0791366906474,546.2664632430353 1055.4676258992804,543.6022732775568 1059.8561151079139,546.3354284032959 1064.2446043165469,551.098963921695 1068.63309352518,564.1743917422534 1073.021582733813,561.200584181399 1077.410071942446,533.8054766110879 1081.7985611510792,527.1305890241423 1086.1870503597124,491.04512401432396 1090.5755395683454,480.18331632834384 1094.9640287769785,474.3191846571733 1099.3525179856115,479.5838601303358 1103.7410071942445,481.8263131901568 1108.1294964028777,473.5052865705491 1112.5179856115108,487.47988611553035 1116.9064748201438,480.28368346619584 1121.294964028777,474.1413568669018 1125.68345323741,433.6026648985681 1130.0719424460433,400.3398881103987 1134.4604316546763,391.2853854944857 1138.8489208633093,411.6012390304299 1143.2374100719423,377.2261517556054 1147.6258992805756,352.36273300366247 1152.0143884892086,331.9595156136082 1156.4028776978416,371.61002102013475 1160.7913669064749,370.7029864824616 1165.179856115108,339.6595015080575 1169.5683453237411,353.5452910976299 1173.9568345323742,387.0713766692128 1178.3453237410072,340.2406406257152 1182.7338129496402,392.2921208921076 1187.1223021582734,403.1748557528475 1191.5107913669065,390.1142224545445 1195.8992805755397,397.4015039838466 1200.2877697841727,429.7618590928592 1204.6762589928057,461.4584337350541 1209.0647482014388,495.2993623627722 1213.453237410072,471.52584671501256 1217.841726618705,474.54499341163574 1222.230215827338,469.72410455949796 1226.6187050359713,478.9242076174288 1231.0071942446043,482.99331848172324 1235.3956834532376,468.1532700156125 1239.7841726618706,469.41716587790364 1244.1726618705036,450.3408641583791 1248.5611510791366,477.95797132600046 1252.9496402877696,499.63142230182257 1257.3381294964029,554.7855902748772 1261.726618705036,558.2613723723268 1266.1151079136691,563.7265148929116 1270.5035971223022,569.0939973284779 1274.8920863309352,562.9800593352637 1279.2805755395684,552.488990311964 1283.6690647482014,550.3683457113282 1288.0575539568345,564.9670048982798 1292.4460431654677,560.7557940744884 1296.8345323741007,541.150624987069 1301.223021582734,525.6483084619093 1305.611510791367,530.4917892490785 1310.0,530.336097452416" fill="none" stroke="#0f766e" stroke-width="2.5"><title>budgeted_static_50_50_rebalance | end=2026-05-01 | return=70.32%</title></polyline>
<polyline points="90.0,652.5322291365873 94.38848920863309,652.5322291365873 98.77697841726619,652.5322291365873 103.16546762589928,652.5322291365873 107.55395683453237,652.4733797535268 111.94244604316546,652.1868990999351 116.33093525179856,651.8849360745505 120.71942446043165,651.6024961672264 125.10791366906474,652.1255860272798 129.49640287769785,651.940587302863 133.88489208633092,651.2246266773386 138.27338129496403,651.1312217539278 142.66187050359713,651.415958750911 147.0503597122302,650.6578066565405 151.4388489208633,650.7904171298597 155.8273381294964,650.1569824566476 160.2158273381295,650.7171178490114 164.6043165467626,649.7526672841619 168.9928057553957,648.7417193955853 173.38129496402877,648.2915240773082 177.76978417266187,651.6439004865665 182.15827338129498,651.8217152497159 186.54676258992805,651.1160383126542 190.93525179856115,651.8445012166324 195.32374100719426,652.3773760517853 199.71223021582733,654.3247458200195 204.10071942446044,652.7039906697188 208.48920863309354,652.7328581243712 212.87769784172662,654.4043104834974 217.26618705035972,652.682408544112 221.6546762589928,648.6554756481592 226.0431654676259,646.2158958039832 230.431654676259,642.32808388137 234.82014388489208,642.0671942332866 239.20863309352518,642.2206533215075 243.59712230215825,638.0191109222742 247.98561151079136,644.1021354052832 252.37410071942446,642.0644126295944 256.76258992805754,646.6852188731161 261.15107913669067,642.1295482404556 265.53956834532374,638.1467601847069 269.9280575539568,632.9550290247263 274.31654676258995,632.671821672589 278.705035971223,628.9837818790983 283.0935251798561,629.1019069236278 287.48201438848923,626.5611801395933 291.8705035971223,631.4847522586615 296.2589928057554,634.9797023990312 300.6474820143885,633.8389683446469 305.03597122302153,638.7461156507584 309.42446043165467,639.3604618093599 313.8129496402878,635.9794044179339 318.2014388489209,640.8672515496853 322.58992805755395,646.6749486170215 326.9784172661871,645.0569269894836 331.3669064748201,654.3339132901641 335.75539568345323,653.8343918699616 340.14388489208636,647.8794605788943 344.53237410071944,648.0459417321397 348.9208633093525,650.7776570372345 353.3093525179856,651.3207444307043 357.6978417266187,652.7515489306737 362.0863309352518,653.6758531444565 366.4748201438849,647.8602550342504 370.863309352518,644.4622730039696 375.2517985611511,639.4262581029203 379.64028776978415,645.0611542842778 384.0287769784173,647.9412863401051 388.41726618705036,649.4156946001542 392.8057553956835,651.9129135165094 397.1942446043165,655.3578977747604 401.58273381294964,668.8175105054053 405.9712230215827,669.4803903873428 410.3597122302158,672.9032854594183 414.7482014388489,671.3220027976845 419.136690647482,673.4218736294964 423.52517985611513,689.6909377369744 427.9136690647482,686.8274553468294 432.3021582733813,691.4795884040425 436.6906474820144,686.4120098793319 441.0791366906475,686.9170631292395 445.4676258992806,679.2267827530105 449.8561151079137,674.4203392383861 454.2446043165467,674.6947650704127 458.63309352517985,668.8927768290527 463.0215827338129,680.6086990558351 467.41007194244605,683.4946774679986 471.7985611510791,682.434617377309 476.1870503597122,677.294743177704 480.57553956834533,685.9739999066062 484.9640287769784,689.2093171617147 489.35251798561154,688.9432278360682 493.7410071942446,688.7205570984494 498.1294964028777,690.1692990287285 502.5179856115108,690.099325972637 506.90647482014384,680.9093781048066 511.294964028777,677.5284824543454 515.68345323741,694.8384463589722 520.0719424460431,697.5475618347723 524.4604316546763,698.2248548701162 528.8489208633093,694.2121680321322 533.2374100719425,695.1303070954413 537.6258992805756,699.1287537027702 542.0143884892086,697.1420083785637 546.4028776978417,698.2005521194174 550.7913669064749,695.1133463010406 555.1798561151079,682.163881027885 559.568345323741,668.741079562219 563.9568345323742,669.8792982155752 568.3453237410072,666.715581497056 572.7338129496402,676.5146561361348 577.1223021582734,662.6262045815382 581.5107913669065,669.317090251366 585.8992805755396,672.8446365500452 590.2877697841727,683.5658737632874 594.6762589928057,650.6746151124601 599.0647482014389,652.2435414095993 603.4532374100719,646.8261301459842 607.841726618705,646.4836147596576 612.2302158273382,629.8381361805662 616.6187050359712,648.9872071454711 621.0071942446043,641.62142136022 625.3956834532374,636.6385092868082 629.7841726618706,651.9401148396859 634.1726618705036,651.5319850596792 638.5611510791367,651.3171840633732 642.9496402877699,646.5068255496882 647.3381294964029,651.3878908379223 651.726618705036,657.089657377195 656.115107913669,638.1797074912389 660.5035971223022,637.098091300952 664.8920863309353,640.0580588344902 669.2805755395683,637.2305615917717 673.6690647482014,640.2966489409663 678.0575539568346,642.5567559312641 682.4460431654676,645.128239659909 686.8345323741007,643.4945466996217 691.2230215827338,659.6717550420047 695.611510791367,660.0306206770448 700.0,661.6787596506591 704.388489208633,661.0893446542352 708.7769784172662,659.1195322967159 713.1654676258993,661.1815748753239 717.5539568345324,657.2638238165711 721.9424460431654,655.576007334925 726.3309352517986,662.2119197850211 730.7194244604316,652.9601360058663 735.1079136690648,634.9455473348294 739.4964028776978,630.5450266329843 743.884892086331,613.4557530845558 748.273381294964,620.269799184147 752.661870503597,612.2757354622506 757.0503597122303,609.7005269717836 761.4388489208633,584.7012361123963 765.8273381294964,596.1354394712682 770.2158273381294,586.5537645050088 774.6043165467626,592.3978390574094 778.9928057553957,588.5584895332745 783.3812949640288,581.1621403188652 787.7697841726618,585.2623439282291 792.158273381295,594.2994951278747 796.546762589928,589.3306916778192 800.9352517985612,572.3044168993541 805.3237410071943,547.1463674293432 809.7122302158274,545.5064429837789 814.1007194244604,496.40983796363935 818.4892086330934,463.50730556923133 822.8776978417267,466.93325104219207 827.2661870503597,497.2169839194013 831.6546762589928,475.73357865183004 836.0431654676258,488.5162775518254 840.431654676259,493.5212504284472 844.8201438848921,508.8501478805435 849.2086330935252,506.03368653499285 853.5971223021583,509.0903447420805 857.9856115107914,522.2319522354223 862.3741007194244,499.85125846925473 866.7625899280577,469.05312101472083 871.1510791366907,470.17601373511445 875.5395683453237,469.43875521452924 879.9280575539568,485.5242268849346 884.3165467625898,488.2365547595829 888.7050359712231,503.1039038430572 893.0935251798561,528.2655459920655 897.4820143884892,518.7344288235734 901.8705035971223,482.60546490868796 906.2589928057554,489.7724914549241 910.6474820143885,517.0889043034634 915.0359712230216,535.1986261689867 919.4244604316547,539.9706530415363 923.8129496402877,520.4750284182417 928.2014388489208,542.6216719999919 932.589928057554,568.1812035976775 936.9784172661871,543.1050011833423 941.3669064748201,531.3384727530516 945.7553956834532,519.125401968504 950.1438848920862,541.048062463149 954.5323741007195,538.8893369054011 958.9208633093525,515.4300355969738 963.3093525179856,529.9094865327394 967.6978417266187,519.5588891788934 972.0863309352517,480.311082389259 976.4748201438849,440.77522284853256 980.863309352518,410.21567372995634 985.2517985611511,400.1438618051302 989.6402877697841,373.43244244509714 994.0287769784172,374.95053384286825 998.4172661870504,405.81108188591395 1002.8057553956835,421.2509724502699 1007.1942446043165,397.92090278463996 1011.5827338129496,423.21350363095974 1015.9712230215828,391.24313179657355 1020.3597122302159,398.06401586073537 1024.7482014388488,404.06141321237936 1029.136690647482,452.3147014235453 1033.525179856115,444.7236281825059 1037.9136690647483,451.17813618898674 1042.3021582733813,500.5441825000145 1046.6906474820144,500.1611039837868 1051.0791366906474,518.9170592655092 1055.4676258992804,515.7747496653682 1059.8561151079139,518.9300860931535 1064.2446043165469,524.6778200024801 1068.63309352518,540.3328826546783 1073.021582733813,536.5565486894579 1077.410071942446,501.57130449266634 1081.7985611510792,493.069320393349 1086.1870503597124,448.11108349328856 1090.5755395683454,434.92785845961845 1094.9640287769785,426.9942360154528 1099.3525179856115,434.1070470174597 1103.7410071942445,436.6374967816978 1108.1294964028777,426.40031171204384 1112.5179856115108,443.50256225644443 1116.9064748201438,433.8979831049797 1121.294964028777,426.55797066693015 1125.68345323741,376.948919896405 1130.0719424460433,339.100100409153 1134.4604316546763,328.9947218889608 1138.8489208633093,353.754451675323 1143.2374100719423,313.41883167511116 1147.6258992805756,284.91864077990056 1152.0143884892086,261.97707412893845 1156.4028776978416,310.27531380858466 1160.7913669064749,308.40880921462457 1165.179856115108,271.07988576297186 1169.5683453237411,287.0743080725592 1173.9568345323742,327.41037596413366 1178.3453237410072,269.56289781117334 1182.7338129496402,332.27334973454316 1187.1223021582734,346.9606181362451 1191.5107913669065,330.42992497432675 1195.8992805755397,339.2949873725966 1200.2877697841727,378.58378222750804 1204.6762589928057,418.08871038856614 1209.0647482014388,460.4291697020868 1213.453237410072,430.8275339748447 1217.841726618705,434.8602385065328 1222.230215827338,428.91719946004554 1226.6187050359713,440.4122102730155 1231.0071942446043,445.4502464279354 1235.3956834532376,427.1209954622692 1239.7841726618706,428.42730367438094 1244.1726618705036,404.26379921916134 1248.5611510791366,438.91328431839287 1252.9496402877696,466.3659590510824 1257.3381294964029,536.6233305501873 1261.726618705036,541.3503171895062 1266.1151079136691,548.287916996785 1270.5035971223022,555.4917196774752 1274.8920863309352,547.3441253727898 1279.2805755395684,533.6664316042892 1283.6690647482014,531.2325060488441 1288.0575539568345,550.3971604951982 1292.4460431654677,545.0492257704689 1296.8345323741007,519.1978046392346 1301.223021582734,498.89147617502954 1305.611510791367,504.7984662491825 1310.0,504.39262712056654" fill="none" stroke="#9333ea" stroke-width="2.5"><title>budgeted_drawdown_tilt_rebalance | end=2026-05-01 | return=85.25%</title></polyline>
<polyline points="90.0,652.5322291365873 94.38848920863309,652.1446362757291 98.77697841726619,652.2858568055436 103.16546762589928,652.3628024479813 107.55395683453237,652.0626250500028 111.94244604316546,651.0805478046078 116.33093525179856,650.1326845094328 120.71942446043165,649.1544349935849 125.10791366906474,651.4230149723601 129.49640287769785,650.9139249960319 133.88489208633092,649.1349831384563 138.27338129496403,648.8788706099128 142.66187050359713,649.6870778423313 147.0503597122302,647.2709341935755 151.4388489208633,647.7047718953427 155.8273381294964,645.509691999552 160.2158273381295,647.2669363120385 164.6043165467626,644.1155493806474 168.9928057553957,640.3396193403169 173.38129496402877,638.278933546911 177.76978417266187,649.86325634712 182.15827338129498,650.3185279631023 186.54676258992805,648.3283954345665 190.93525179856115,650.376475133709 195.32374100719426,651.6017260311818 199.71223021582733,655.8650054176547 204.10071942446044,652.580456245478 208.48920863309354,652.6394682439742 212.87769784172662,655.7263048250478 217.26618705035972,652.7287770674661 221.6546762589928,646.0139796822482 226.0431654676259,641.934724270843 230.431654676259,635.7081828399711 234.82014388489208,635.3258087160325 239.20863309352518,635.5669539621701 243.59712230215825,628.8577884226726 247.98561151079136,638.4778483099441 252.37410071942446,635.342751410876 256.76258992805754,642.3886812977963 261.15107913669067,635.6310538259451 265.53956834532374,629.8203324372371 269.9280575539568,622.2802989528473 274.31654676258995,621.7500251875833 278.705035971223,615.9676033444757 283.0935251798561,616.0587249225215 287.48201438848923,612.1649375572492 291.8705035971223,619.7829160569263 296.2589928057554,625.2364547928651 300.6474820143885,623.3535231725315 305.03597122302153,630.9104768997001 309.42446043165467,631.8201150120415 313.8129496402878,626.8343563974648 318.2014388489209,634.2654871979447 322.58992805755395,643.074573233103 326.9784172661871,640.6753708743437 331.3669064748201,654.5703040301935 335.75539568345323,653.9401147678999 340.14388489208636,645.1784995826235 344.53237410071944,645.511355210096 348.9208633093525,649.4026230674298 353.3093525179856,650.1475045534073 357.6978417266187,652.2519464694012 362.0863309352518,653.5689974535309 366.4748201438849,645.3708818514231 370.863309352518,640.6523720891496 375.2517985611511,633.6079483544685 379.64028776978415,641.3742882521816 384.0287769784173,645.3402933959425 388.41726618705036,647.3623901764008 392.8057553956835,650.7798999955057 397.1942446043165,655.4508946426425 401.58273381294964,673.6805105700977 405.9712230215827,674.5669505267961 410.3597122302158,679.0733323370018 414.7482014388489,677.003784509746 419.136690647482,679.6896431946699 423.52517985611513,700.4659566728142 427.9136690647482,696.9293420024505 432.3021582733813,702.671815104928 436.6906474820144,696.4670211105114 441.0791366906475,697.1676640423549 445.4676258992806,688.2151870750528 449.8561151079137,682.6770869637535 454.2446043165467,683.0765640834439 458.63309352517985,676.5247391427994 463.0215827338129,690.003218902348 467.41007194244605,693.2385843312102 471.7985611510791,692.1842989342695 476.1870503597122,686.3927001969914 480.57553956834533,695.9148662980223 484.9640287769784,699.4257064534662 489.35251798561154,699.1092981067993 493.7410071942446,698.8477864919548 498.1294964028777,700.4351487319057 502.5179856115108,700.3688148426693 506.90647482014384,690.668135343373 511.294964028777,687.1232303529715 515.68345323741,705.8094698385866 520.0719424460431,708.5671266778872 524.4604316546763,709.3003237120896 528.8489208633093,705.1956663485872 533.2374100719425,706.0198192433419 537.6258992805756,710.0 542.0143884892086,708.1007982013502 546.4028776978417,709.1797540607 550.7913669064749,706.1870406227647 555.1798561151079,692.2946030018729 559.568345323741,678.2756816453995 563.9568345323742,678.8031631673184 568.3453237410072,675.8758423746971 572.7338129496402,685.5479629487872 577.1223021582734,671.6265939059815 581.5107913669065,678.2296509984943 585.8992805755396,681.7666383867096 590.2877697841727,692.0033720791934 594.6762589928057,660.1510039039628 599.0647482014389,661.2575720409742 603.4532374100719,656.3101205302158 607.841726618705,656.664676512144 612.2302158273382,642.133598462977 616.6187050359712,659.2606451005212 621.0071942446043,651.6843529183561 625.3956834532374,648.0152139258367 629.7841726618706,661.8956779215207 634.1726618705036,661.512167506213 638.5611510791367,661.5786721441997 642.9496402877699,657.5228910622596 647.3381294964029,661.9425933075375 651.726618705036,666.2146251660723 656.115107913669,647.1201464851364 660.5035971223022,646.6051621687495 664.8920863309353,648.936225366483 669.2805755395683,646.8379888301869 673.6690647482014,649.6235190127513 678.0575539568346,651.9974253885501 682.4460431654676,654.2086077856036 686.8345323741007,652.6063779179312 691.2230215827338,668.6572087530459 695.611510791367,668.9314928830454 700.0,670.4760264072836 704.388489208633,669.9002895907643 708.7769784172662,667.617206094697 713.1654676258993,669.2349840926972 717.5539568345324,665.8755817473453 721.9424460431654,663.41224883369 726.3309352517986,669.679194107202 730.7194244604316,659.4557945997116 735.1079136690648,641.023125859311 739.4964028776978,636.7562498184557 743.884892086331,620.7981228314115 748.273381294964,626.7922991592945 752.661870503597,619.3598518581742 757.0503597122303,616.3028735344071 761.4388489208633,590.77943236506 765.8273381294964,602.1850094125443 770.2158273381294,592.4076552953173 774.6043165467626,599.0910387434933 778.9928057553957,593.8115470680119 783.3812949640288,589.3286969091931 787.7697841726618,593.807392468308 792.158273381295,601.0401111465746 796.546762589928,595.6130295320336 800.9352517985612,577.6771239641739 805.3237410071943,551.9999544737324 809.7122302158274,551.9894259771118 814.1007194244604,499.87697445024537 818.4892086330934,466.6824054547068 822.8776978417267,468.50721917907777 827.2661870503597,499.5316119186532 831.6546762589928,475.69667348567725 836.0431654676258,488.4912692408292 840.431654676259,493.4042671073214 844.8201438848921,509.4418666171046 849.2086330935252,507.16149114729785 853.5971223021583,510.5152733920752 857.9856115107914,523.6084859818299 862.3741007194244,498.93617032132784 866.7625899280577,471.8429831975342 871.1510791366907,473.8144369081622 875.5395683453237,471.41275012675703 879.9280575539568,488.0157548630763 884.3165467625898,492.0810734600316 888.7050359712231,508.20717048520544 893.0935251798561,533.0687477280969 897.4820143884892,523.823977661738 901.8705035971223,484.8885907765267 906.2589928057554,489.9666226269768 910.6474820143885,519.3408407554065 915.0359712230216,535.2538911403171 919.4244604316547,541.1385528862197 923.8129496402877,519.8973635298031 928.2014388489208,543.0756608743745 932.589928057554,569.1207834724312 936.9784172661871,542.1410592157733 941.3669064748201,529.9765573896843 945.7553956834532,517.6083455588586 950.1438848920862,538.7784113141308 954.5323741007195,536.6358244696664 958.9208633093525,512.0593520821502 963.3093525179856,525.2055952133098 967.6978417266187,514.0463253011699 972.0863309352517,476.20238229156485 976.4748201438849,429.7525494203226 980.863309352518,397.50639983645357 985.2517985611511,391.6068505211147 989.6402877697841,368.48398802630646 994.0287769784172,367.9120025065025 998.4172661870504,395.71774771097154 1002.8057553956835,411.6279804500952 1007.1942446043165,389.1228172761074 1011.5827338129496,412.66765913509533 1015.9712230215828,377.38233716669555 1020.3597122302159,382.0244022143998 1024.7482014388488,389.36810519902554 1029.136690647482,434.0202955451241 1033.525179856115,426.95822387592807 1037.9136690647483,433.51146847402634 1042.3021582733813,485.1965110399811 1046.6906474820144,482.25281866859996 1051.0791366906474,499.9759590406999 1055.4676258992804,497.4374359336007 1059.8561151079139,499.55493722057406 1064.2446043165469,504.62273184274795 1068.63309352518,517.4101538009644 1073.021582733813,513.2938167733244 1077.410071942446,475.1223479340438 1081.7985611510792,466.195585360072 1086.1870503597124,426.02401356544004 1090.5755395683454,415.76715250285497 1094.9640287769785,405.36510154092184 1099.3525179856115,414.5263550317472 1103.7410071942445,415.93865616695155 1108.1294964028777,406.3854300715437 1112.5179856115108,422.25649978284315 1116.9064748201438,410.67336940154155 1121.294964028777,404.2063866273937 1125.68345323741,356.4521465594471 1130.0719424460433,328.2447464768511 1134.4604316546763,321.3132295561681 1138.8489208633093,344.7221630652454 1143.2374100719423,310.9283768222769 1147.6258992805756,288.9762698389385 1152.0143884892086,272.59458132283277 1156.4028776978416,318.43100071891365 1160.7913669064749,314.37919006401194 1165.179856115108,280.21708517362714 1169.5683453237411,292.6709114825633 1173.9568345323742,329.8103154742924 1178.3453237410072,271.87603426871624 1182.7338129496402,329.7412131368768 1187.1223021582734,348.22885371347684 1191.5107913669065,330.54229082785514 1195.8992805755397,338.9312932003999 1200.2877697841727,375.7648554667978 1204.6762589928057,415.56976868115277 1209.0647482014388,458.20811676674293 1213.453237410072,429.31891111614266 1217.841726618705,434.1325324230814 1222.230215827338,428.6071234413921 1226.6187050359713,439.7333159580708 1231.0071942446043,444.424182716538 1235.3956834532376,427.6300645792763 1239.7841726618706,427.9668101409024 1244.1726618705036,404.124147933343 1248.5611510791366,437.0192465541033 1252.9496402877696,463.75783177218636 1257.3381294964029,531.8159003035157 1261.726618705036,537.3180205312548 1266.1151079136691,543.341366114597 1270.5035971223022,551.1136032248876 1274.8920863309352,542.510570898701 1279.2805755395684,529.2066368156406 1283.6690647482014,527.9942577975914 1288.0575539568345,546.8412903426513 1292.4460431654677,542.2488650404794 1296.8345323741007,516.2817985841373 1301.223021582734,496.66433189053373 1305.611510791367,500.48247982614134 1310.0,499.2528770497177" fill="none" stroke="#92400e" stroke-width="2.5"><title>budgeted_btc_defensive_eth_aggressive | end=2026-05-01 | return=88.21%</title></polyline>
<polyline points="90.0,652.5322291365873 94.38848920863309,616.1140296537591 98.77697841726619,625.3380738476386 103.16546762589928,628.359223692774 107.55395683453237,616.2669548369219 111.94244604316546,585.6603625681631 116.33093525179856,556.428313381502 120.71942446043165,529.7140514731224 125.10791366906474,581.860211471337 129.49640287769785,571.2301441232725 133.88489208633092,537.623305653422 138.27338129496403,533.2207708314045 142.66187050359713,546.4014991879594 147.0503597122302,509.9883509126526 151.4388489208633,516.1280753781457 155.8273381294964,487.0075930665519 160.2158273381295,512.4583263667 164.6043165467626,474.54119427131616 168.9928057553957,437.83861973878106 173.38129496402877,427.71175276353307 177.76978417266187,536.0965114117806 182.15827338129498,542.0223404507383 186.54676258992805,525.5251452971638 190.93525179856115,539.2865378001607 195.32374100719426,549.6617987053696 199.71223021582733,583.4206251580666 204.10071942446044,558.8876070988509 208.48920863309354,559.261176658752 212.87769784172662,580.4334071056876 217.26618705035972,560.6139860686636 221.6546762589928,516.4611023386432 226.0431654676259,492.89286117159486 230.431654676259,456.7912792170103 234.82014388489208,453.898471568754 239.20863309352518,455.2524689298525 243.59712230215825,422.0433781799358 247.98561151079136,469.89077168737697 252.37410071942446,453.80824918180684 256.76258992805754,488.4342187888021 261.15107913669067,454.5500294775753 265.53956834532374,425.0957323012625 269.9280575539568,387.7809925689972 274.31654676258995,386.15105030736436 278.705035971223,361.3857188451233 283.0935251798561,362.61197647382994 287.48201438848923,345.22833997379985 291.8705035971223,378.6767200535762 296.2589928057554,402.6207787783956 300.6474820143885,395.74541057345425 305.03597122302153,429.2000765438683 309.42446043165467,433.4960156048123 313.8129496402878,410.8059302643871 318.2014388489209,441.413004270114 322.58992805755395,476.563800943013 326.9784172661871,466.71588185426316 331.3669064748201,520.7549087301697 335.75539568345323,517.4597109989713 340.14388489208636,483.4755623036193 344.53237410071944,484.12770597708266 348.9208633093525,498.9067508666709 353.3093525179856,501.83787806043983 357.6978417266187,508.93397844220885 362.0863309352518,513.5262286838432 366.4748201438849,485.1655693908551 370.863309352518,469.0257493258006 375.2517985611511,446.2081682992915 379.64028776978415,471.33582978635445 384.0287769784173,483.83058253120157 388.41726618705036,490.11762807875897 392.8057553956835,500.48555490343495 397.1942446043165,514.9556923036123 401.58273381294964,569.6303434734787 405.9712230215827,572.2713357580749 410.3597122302158,585.8566909553084 414.7482014388489,579.6231557697351 419.136690647482,587.7827544012459 423.52517985611513,648.5854882827456 427.9136690647482,637.5293280625668 432.3021582733813,654.5975159450026 436.6906474820144,636.5767028130674 441.0791366906475,638.1081633016289 445.4676258992806,612.5866251453144 449.8561151079137,597.5998820556056 454.2446043165467,598.5281285871597 458.63309352517985,582.2388972135668 463.0215827338129,614.5218645653779 467.41007194244605,622.1631336249956 471.7985611510791,619.7118086261867 476.1870503597122,606.3765413933226 480.57553956834533,627.6286789827649 484.9640287769784,635.4600452325748 489.35251798561154,634.7802333032162 493.7410071942446,634.2311077751342 498.1294964028777,637.6235634526431 502.5179856115108,637.4689200242275 506.90647482014384,617.0599140976948 511.294964028777,609.8574679218797 515.68345323741,646.0759427395571 520.0719424460431,651.5581832768489 524.4604316546763,652.9578075109816 528.8489208633093,644.9743362943404 533.2374100719425,646.6716479486579 537.6258992805756,654.2089163442436 542.0143884892086,650.5429728417326 546.4028776978417,652.4856190788958 550.7913669064749,646.9943081800051 555.1798561151079,623.9623001285852 559.568345323741,600.9964007463723 563.9568345323742,602.643774784936 568.3453237410072,597.6109554569 572.7338129496402,613.0474163369613 577.1223021582734,591.3039377849702 581.5107913669065,601.5343251453352 585.8992805755396,606.8713104936678 590.2877697841727,622.850993256201 594.6762589928057,573.8587710020383 599.0647482014389,576.0728594232027 603.4532374100719,568.4222304380256 607.841726618705,567.979316413196 612.2302158273382,545.2635219759738 616.6187050359712,571.098785491173 621.0071942446043,560.9101944968586 625.3956834532374,554.4503413754197 629.7841726618706,574.7841050791741 634.1726618705036,574.2333042889563 638.5611510791367,574.0230622895597 642.9496402877699,567.6413481764084 647.3381294964029,574.2084765191004 651.726618705036,581.5643961664797 656.115107913669,555.2386625501822 660.5035971223022,553.858065149268 664.8920863309353,557.8091877265311 669.2805755395683,554.0157220313628 673.6690647482014,558.1869483041648 678.0575539568346,561.3199532247182 682.4460431654676,564.8282371038816 686.8345323741007,562.5549458163952 691.2230215827338,585.1673137794967 695.611510791367,585.663184640528 700.0,588.0037273274701 704.388489208633,587.1577648480365 708.7769784172662,584.2669082789404 713.1654676258993,587.1975562688021 717.5539568345324,581.6019618035843 721.9424460431654,579.0838503861147 726.3309352517986,588.555731273299 730.7194244604316,575.3061191501488 735.1079136690648,549.8963728286801 739.4964028776978,543.7840281498441 743.884892086331,520.0907380137792 748.273381294964,529.4369958003098 752.661870503597,518.476624826538 757.0503597122303,515.0032372623757 761.4388489208633,481.08039427581934 765.8273381294964,496.4462084150033 770.2158273381294,483.5787694971136 774.6043165467626,491.2965627677795 778.9928057553957,486.2849105738778 783.3812949640288,475.7718023980266 787.7697841726618,481.2800397047791 792.158273381295,493.2316279762391 796.546762589928,486.4843638689485 800.9352517985612,463.34010762248147 805.3237410071943,429.2490351814463 809.7122302158274,426.84469426913057 814.1007194244604,361.55557675215925 818.4892086330934,318.5636126283587 822.8776978417267,322.92323722554613 827.2661870503597,361.52072749347997 831.6546762589928,334.1561239578668 836.0431654676258,350.6662341388859 840.431654676259,357.18160692363995 844.8201438848921,376.84220636186893 849.2086330935252,372.963045499408 853.5971223021583,376.8596152376885 857.9856115107914,394.13601649818935 862.3741007194244,365.5420250155432 866.7625899280577,323.88527074788914 871.1510791366907,325.1818741870669 875.5395683453237,324.2875710910752 879.9280575539568,344.72003071712106 884.3165467625898,348.13408044045156 888.7050359712231,367.2130025808263 893.0935251798561,399.6091079179707 897.4820143884892,387.22274948177636 901.8705035971223,339.9148991852119 906.2589928057554,349.16740123877287 910.6474820143885,384.44180734390227 915.0359712230216,408.46488898032874 919.4244604316547,414.3973720257036 923.8129496402877,389.1495999401107 928.2014388489208,417.92323797174515 932.589928057554,451.40306235073854 936.9784172661871,418.9261353366458 941.3669064748201,403.62905227436596 945.7553956834532,387.8475881751076 950.1438848920862,416.1978114383652 954.5323741007195,413.4329666763312 958.9208633093525,384.10106156687357 963.3093525179856,402.79518216040043 967.6978417266187,390.2275795624243 972.0863309352517,340.88096734946896 976.4748201438849,295.542932311071 980.863309352518,259.7602049734127 985.2517985611511,245.57851656525014 989.6402877697841,212.61861400665265 994.0287769784172,215.09208028409455 998.4172661870504,251.56720410217991 1002.8057553956835,269.3069739704373 1007.1942446043165,241.5252149506387 1011.5827338129496,271.98420556105106 1015.9712230215828,235.86999459799057 1020.3597122302159,245.30132284343034 1024.7482014388488,251.49553492853136 1029.136690647482,311.6015150009247 1033.525179856115,301.8351479537666 1037.9136690647483,309.6456967169999 1042.3021582733813,367.81975885448765 1046.6906474820144,370.06109110293573 1051.0791366906474,394.84071438222577 1055.4676258992804,390.0693817272488 1059.8561151079139,395.4202719716438 1064.2446043165469,403.61970695496257 1068.63309352518,427.40872421535505 1073.021582733813,423.09612921333974 1077.410071942446,383.6496086088094 1081.7985611510792,373.7651166059628 1086.1870503597124,312.7836672369538 1090.5755395683454,293.8418041946575 1094.9640287769785,287.1592119647301 1099.3525179856115,293.3382834428942 1103.7410071942445,297.1938062276584 1108.1294964028777,284.9893893979833 1112.5179856115108,305.3393772487639 1116.9064748201438,296.19640812112556 1121.294964028777,287.0415393365505 1125.68345323741,229.09174154502682 1130.0719424460433,178.89447500863582 1134.4604316546763,165.9340381870228 1138.8489208633093,193.32470490993114 1143.2374100719423,147.14217587101928 1147.6258992805756,114.94071773880887 1152.0143884892086,90.0 1156.4028776978416,140.96733111064384 1160.7913669064749,138.6199513539392 1165.179856115108,99.2009994533596 1169.5683453237411,115.51151590009465 1173.9568345323742,157.92420279119983 1178.3453237410072,95.75791908487383 1182.7338129496402,162.36512066390014 1187.1223021582734,178.13062701322656 1191.5107913669065,160.15144809085984 1195.8992805755397,169.823731163577 1200.2877697841727,212.85704326871627 1204.6762589928057,256.4182349972315 1209.0647482014388,303.7652802248798 1213.453237410072,269.89369196280234 1217.841726618705,274.37112142609635 1222.230215827338,267.51741458216054 1226.6187050359713,280.69188410889365 1231.0071942446043,286.50417792965834 1235.3956834532376,265.24894059687216 1239.7841726618706,266.8369579690934 1244.1726618705036,239.19039036916735 1248.5611510791366,278.6817603828868 1252.9496402877696,310.1382650002713 1257.3381294964029,391.3846490197789 1261.726618705036,396.75898370030995 1266.1151079136691,405.2961268996907 1270.5035971223022,413.78298408222724 1274.8920863309352,404.04645302705256 1279.2805755395684,387.28214936249645 1283.6690647482014,383.90957430663053 1288.0575539568345,407.1294186223879 1292.4460431654677,400.4116760418375 1296.8345323741007,369.0752756365471 1301.223021582734,344.45855715317185 1305.611510791367,351.9728518491974 1310.0,351.71016919729465" fill="none" stroke="#0f766e" stroke-width="2.5"><title>static_50_50_rebalance | end=2026-05-01 | return=173.12%</title></polyline>
<polyline points="90.0,652.5322291365873 94.38848920863309,634.3231293951732 98.77697841726619,638.6863793897382 103.16546762589928,640.0994831693329 107.55395683453237,633.3154915170195 111.94244604316546,615.0514345502028 116.33093525179856,599.9117828995744 120.71942446043165,587.362517489863 125.10791366906474,610.141967090204 129.49640287769785,603.6753848673397 133.88489208633092,580.6296235046711 138.27338129496403,578.1743529283181 142.66187050359713,584.6458679857438 147.0503597122302,567.8511543335176 151.4388489208633,570.5255983047484 155.8273381294964,558.1740618527886 160.2158273381295,568.5849070787209 164.6043165467626,550.1253290843081 168.9928057553957,533.9665789980538 173.38129496402877,529.713620174234 177.76978417266187,579.4398223762239 182.15827338129498,583.7074849344416 186.54676258992805,569.8354230339145 190.93525179856115,582.1915109017787 195.32374100719426,591.8310390210943 199.71223021582733,623.6123721217077 204.10071942446044,600.549539404474 208.48920863309354,600.9024800175209 212.87769784172662,620.9572795238348 217.26618705035972,602.2607413067152 221.6546762589928,560.4916151262788 226.0431654676259,537.9725265959537 230.431654676259,505.46674339507695 234.82014388489208,502.7824439808212 239.20863309352518,503.8697535888259 243.59712230215825,478.25913740716317 247.98561151079136,511.0919604943624 252.37410071942446,498.5013892436084 256.76258992805754,525.1520845552238 261.15107913669067,496.9109764605574 265.53956834532374,472.8095143725923 269.9280575539568,446.13379547517343 274.31654676258995,445.3344775693969 278.705035971223,433.007541480776 283.0935251798561,433.59876897478836 287.48201438848923,425.8868537859916 291.8705035971223,440.2689068036227 296.2589928057554,450.5792034540523 300.6474820143885,446.4312580655737 305.03597122302153,466.7032665774433 309.42446043165467,469.71658815812 313.8129496402878,450.62528570706286 318.2014388489209,475.07882743707205 322.58992805755395,504.6663729581627 326.9784172661871,495.3171002792743 331.3669064748201,548.6471824462905 335.75539568345323,545.2572769099062 340.14388489208636,510.78121239914583 344.53237410071944,511.43167161018164 348.9208633093525,526.6617028107834 353.3093525179856,529.6823489029707 357.6978417266187,536.9833414563725 362.0863309352518,541.7010280421091 366.4748201438849,512.617644225707 370.863309352518,495.9942758802415 375.2517985611511,472.3795839377349 379.64028776978415,498.542179492171 384.0287769784173,511.53630576799947 388.41726618705036,518.0557227148141 392.8057553956835,528.7784246731095 397.1942446043165,543.6934446141572 401.58273381294964,599.7844895822177 405.9712230215827,602.4480667607666 410.3597122302158,616.0296240143231 414.7482014388489,609.8471327220378 419.136690647482,617.9195507177973 423.52517985611513,677.878055214388 427.9136690647482,667.2499952409178 432.3021582733813,683.5433463604942 436.6906474820144,666.5176255349896 441.0791366906475,667.9670481097645 445.4676258992806,643.8164362828542 449.8561151079137,629.530858937533 454.2446043165467,630.423589654521 458.63309352517985,614.7236431364279 463.0215827338129,646.0222570840627 467.41007194244605,653.3844979521115 471.7985611510791,651.0361439783352 476.1870503597122,638.2838236016821 480.57553956834533,658.6646742597652 484.9640287769784,666.1360047107496 489.35251798561154,665.4907373075938 493.7410071942446,664.9707755392982 498.1294964028777,668.179612866192 502.5179856115108,668.0335869363493 506.90647482014384,648.7754266609289 511.294964028777,641.9408004826619 515.68345323741,676.4772135534123 520.0719424460431,681.6534920337346 524.4604316546763,682.9658351732712 528.8489208633093,675.5101507671792 533.2374100719425,677.0966028312196 537.6258992805756,684.1407813810686 542.0143884892086,680.7244458592155 546.4028776978417,682.5347407193875 550.7913669064749,677.4213129053695 555.1798561151079,655.9407617756965 559.568345323741,634.357272119176 563.9568345323742,635.9205517303321 568.3453237410072,631.1229450743368 572.7338129496402,645.8904961455753 577.1223021582734,625.1431486952707 581.5107913669065,634.9495081240015 585.8992805755396,640.0631298997797 590.2877697841727,655.3474102629418 594.6762589928057,608.7644522531411 599.0647482014389,610.8903439898036 603.4532374100719,603.5137608387815 607.841726618705,603.0845425046401 612.2302158273382,581.9539281062794 616.6187050359712,603.7326527010623 621.0071942446043,595.5959493665521 625.3956834532374,589.3110468148399 629.7841726618706,605.8724228942915 634.1726618705036,605.4391767184356 638.5611510791367,605.2658290449698 642.9496402877699,601.102162696399 647.3381294964029,604.6687404096979 651.726618705036,608.2972231677086 656.115107913669,593.7817496389239 660.5035971223022,593.1043907416948 664.8920863309353,594.91993183025 669.2805755395683,593.2316548708067 673.6690647482014,595.0529531841859 678.0575539568346,596.4125604161729 682.4460431654676,597.9346502187526 686.8345323741007,596.9451262465883 691.2230215827338,606.782482899653 695.611510791367,607.1455803722754 700.0,609.2044722010575 704.388489208633,608.3985681240628 708.7769784172662,605.5396004089288 713.1654676258993,608.4924997048113 717.5539568345324,602.806005167786 721.9424460431654,600.2331661602266 726.3309352517986,609.9446435152598 730.7194244604316,596.3701427895787 735.1079136690648,572.01034047858 739.4964028776978,566.1435119688487 743.884892086331,548.9889260209452 748.273381294964,554.5886298408708 752.661870503597,548.8306551809567 757.0503597122303,547.1693160987265 761.4388489208633,531.3371256876142 765.8273381294964,538.2129393762625 770.2158273381294,532.525618627956 774.6043165467626,535.8831671847306 778.9928057553957,533.7083187715301 783.3812949640288,529.1611078006066 787.7697841726618,531.5188946041307 792.158273381295,536.6312639511164 796.546762589928,533.7216146201264 800.9352517985612,523.7493216803988 805.3237410071943,509.29865962895724 809.7122302158274,508.30895014605494 814.1007194244604,481.87257066459847 818.4892086330934,465.1876101956551 822.8776978417267,466.81162256693267 827.2661870503597,480.8876918667952 831.6546762589928,468.9034851977447 836.0431654676258,475.52013853862786 840.431654676259,478.4801665702518 844.8201438848921,487.9566071892367 849.2086330935252,486.0154833640927 853.5971223021583,487.9947090053638 857.9856115107914,496.85368002854193 862.3741007194244,479.97631646328085 866.7625899280577,456.91587793862965 871.1510791366907,457.49922113724284 875.5395683453237,457.1546541004542 879.9280575539568,465.15495815586826 884.3165467625898,466.4582231245971 888.7050359712231,473.7017071409665 893.0935251798561,490.7576878990744 897.4820143884892,481.9800132395776 901.8705035971223,446.2141302582303 906.2589928057554,450.82590351745915 910.6474820143885,470.50126309519584 915.0359712230216,488.40824035215337 919.4244604316547,492.9265900092573 923.8129496402877,471.4526097208377 928.2014388489208,495.54962633867956 932.589928057554,524.9767581536621 936.9784172661871,496.22301630640993 941.3669064748201,482.4519728231461 945.7553956834532,468.12156135032586 950.1438848920862,493.2859101163894 954.5323741007195,490.81147559378974 958.9208633093525,464.43263790726405 963.3093525179856,481.33370474628055 967.6978417266187,471.1103635264585 972.0863309352517,428.41803430227975 976.4748201438849,398.9095158404651 980.863309352518,376.6275263921848 985.2517985611511,367.93724253179323 989.6402877697841,351.51482721059625 994.0287769784172,352.66935264783007 998.4172661870504,367.8291533947551 1002.8057553956835,375.03720131129074 1007.1942446043165,361.6288139751021 1011.5827338129496,375.0397956152556 1015.9712230215828,356.99019052257694 1020.3597122302159,361.22342708525844 1024.7482014388488,364.31341318449074 1029.136690647482,395.95971955059593 1033.525179856115,388.735830985899 1037.9136690647483,394.9402698892002 1042.3021582733813,442.4413032651703 1046.6906474820144,446.32664479135696 1051.0791366906474,468.8961456548153 1055.4676258992804,464.2212941699921 1059.8561151079139,469.4799146771685 1064.2446043165469,477.1528352443854 1068.63309352518,499.4210756673604 1073.021582733813,495.45748943220633 1077.410071942446,459.130652519394 1081.7985611510792,450.34793486046993 1086.1870503597124,393.5151831652301 1090.5755395683454,374.97716888336606 1094.9640287769785,370.6794466548488 1099.3525179856115,374.75742008237603 1103.7410071942445,378.9091992176399 1108.1294964028777,367.70613153676186 1112.5179856115108,386.44520886898965 1116.9064748201438,379.7665117487626 1121.294964028777,371.11522504266037 1125.68345323741,318.8748616700917 1130.0719424460433,278.5962324069446 1134.4604316546763,270.38165693188193 1138.8489208633093,284.3078589358529 1143.2374100719423,262.40555325855587 1147.6258992805756,247.99105345551305 1152.0143884892086,237.2904820087296 1156.4028776978416,258.31516484160284 1160.7913669064749,257.358639320223 1165.179856115108,241.0523815630026 1169.5683453237411,247.71281995551055 1173.9568345323742,264.9982233097473 1178.3453237410072,234.3427080475592 1182.7338129496402,264.28744281434325 1187.1223021582734,272.399209871079 1191.5107913669065,259.69775344055404 1195.8992805755397,265.74062158252264 1200.2877697841727,291.77879982927067 1204.6762589928057,323.9262346558698 1209.0647482014388,364.9778957393887 1213.453237410072,333.5137026474838 1217.841726618705,337.8668836193529 1222.230215827338,331.16289190945713 1226.6187050359713,344.1780067946952 1231.0071942446043,349.93687725228966 1235.3956834532376,328.8566357247684 1239.7841726618706,330.4346461534289 1244.1726618705036,302.90135036327274 1248.5611510791366,342.3679295853987 1252.9496402877696,373.7223620349994 1257.3381294964029,454.27964526161816 1261.726618705036,459.52895767875344 1266.1151079136691,467.7949539921458 1270.5035971223022,475.9694176037631 1274.8920863309352,466.6295610407991 1279.2805755395684,450.5569332609438 1283.6690647482014,447.31677548694245 1288.0575539568345,469.6604566895842 1292.4460431654677,463.2134296761867 1296.8345323741007,433.14907082169765 1301.223021582734,409.434770897582 1305.611510791367,416.7102237519487 1310.0,416.4554319852423" fill="none" stroke="#dc2626" stroke-width="2.5"><title>target_50_50_with_cash_band | end=2026-05-01 | return=135.86%</title></polyline>
<polyline points="90.0,652.5322291365873 94.38848920863309,628.860399472749 98.77697841726619,635.0821734345642 103.16546762589928,637.1504593035166 107.55395683453237,627.4156486573223 111.94244604316546,601.0599175483753 116.33093525179856,577.292667007439 120.71942446043165,556.1409615179792 125.10791366906474,596.6047760572727 129.49640287769785,587.6744667102171 133.88489208633092,558.1530700623056 138.27338129496403,554.498165020208 142.66187050359713,565.0658642341925 147.0503597122302,536.5831348145479 151.4388489208633,541.3226472993773 155.8273381294964,519.073515807575 160.2158273381295,538.0843567326381 164.6043165467626,506.9581381182179 168.9928057553957,477.49690087561623 173.38129496402877,468.66017671382906 177.76978417266187,558.5288436947676 182.15827338129498,563.8325318128859 186.54676258992805,547.9831169649462 190.93525179856115,561.7524250382445 195.32374100719426,572.1969146788124 199.71223021582733,606.4636662658145 204.10071942446044,581.7167231624007 208.48920863309354,582.0964770127267 212.87769784172662,603.7541584642213 217.26618705035972,583.5754036980013 221.6546762589928,538.3944645938276 226.0431654676259,514.0433644004668 230.431654676259,478.2381842887854 234.82014388489208,475.1605832391871 239.20863309352518,476.477766535686 243.59712230215825,444.9899898992123 247.98561151079136,490.6683874363906 252.37410071942446,475.47898911003904 256.76258992805754,507.91001528098275 261.15107913669067,476.058533999066 265.53956834532374,447.8492099621603 269.9280575539568,412.15069971656976 274.31654676258995,410.9484369148235 278.705035971223,390.53040204456687 283.0935251798561,391.5647815650859 287.48201438848923,377.82706716349867 291.8705035971223,403.85669236751016 296.2589928057554,422.3554328815002 300.6474820143885,416.53854037892853 305.03597122302153,446.18548900198994 309.42446043165467,450.0975880533472 313.8129496402878,428.36274161866305 318.2014388489209,457.2080310723169 322.58992805755395,490.05486161174144 326.9784172661871,480.1920023821561 331.3669064748201,535.5913640352277 335.75539568345323,532.0107817435517 340.14388489208636,496.40880728585586 344.53237410071944,497.03854226719096 348.9208633093525,512.9098786314651 353.3093525179856,516.0686549232631 357.6978417266187,523.6713097558837 362.0863309352518,528.5892891236854 366.4748201438849,498.2548078207176 370.863309352518,480.87133434670284 375.2517985611511,456.14530797853365 379.64028776978415,483.5468519112664 384.0287769784173,497.15251624708856 388.41726618705036,503.97198422829274 392.8057553956835,515.1855722989553 397.1942446043165,530.7644463876723 401.58273381294964,589.336335227574 405.9712230215827,592.1023484580039 410.3597122302158,606.1945427578557 414.7482014388489,599.7435839640298 419.136690647482,608.1241332187266 423.52517985611513,670.686994999817 427.9136690647482,659.6945955110336 432.3021582733813,676.6478643051071 436.6906474820144,658.9136322791429 441.0791366906475,660.4378110025202 445.4676258992806,635.1720170100194 449.8561151079137,620.1469939132478 454.2446043165467,621.0509697928496 458.63309352517985,604.4737687831682 463.0215827338129,637.4056435263306 467.41007194244605,645.1492980478988 471.7985611510791,642.6696809346756 476.1870503597122,629.3133335577876 480.57553956834533,650.7092138933197 484.9640287769784,658.522460838599 489.35251798561154,657.8454174915455 493.7410071942446,657.2998732668837 498.1294964028777,660.6545845496903 502.5179856115108,660.5027643492995 506.90647482014384,640.3694969311726 511.294964028777,633.1971773893374 515.68345323741,669.4336040800443 520.0719424460431,674.8592199888803 524.4604316546763,676.2303909433856 528.8489208633093,668.4414200427481 533.2374100719425,670.1035177555596 537.6258992805756,677.4743664379045 542.0143884892086,673.9074285800865 546.4028776978417,675.8008902386784 550.7913669064749,670.4525971846679 555.1798561151079,647.9691519975299 559.568345323741,625.3410189537735 563.9568345323742,626.9827757674486 568.3453237410072,621.9535219137784 572.7338129496402,637.446515198312 577.1223021582734,615.706162967642 581.5107913669065,625.9879608198073 585.8992805755396,631.3470469956064 590.2877697841727,647.3490331402537 594.6762589928057,598.64369206088 599.0647482014389,600.8627545357458 603.4532374100719,593.1319600781053 607.841726618705,592.7021259409516 612.2302158273382,570.37013180548 616.6187050359712,595.0026410824428 621.0071942446043,586.0488741305176 625.3956834532374,579.4441572575449 629.7841726618706,598.1169803889755 634.1726618705036,597.6173380115544 638.5611510791367,597.3823694206433 642.9496402877699,591.5432450331567 647.3381294964029,597.0732564103016 651.726618705036,603.0040537976588 656.115107913669,580.8064909915514 660.5035971223022,579.7065689097755 664.8920863309353,582.7687983674265 669.2805755395683,579.8933141260518 673.6690647482014,583.0251169152152 678.0575539568346,585.3612521594569 682.4460431654676,587.9660221222579 686.8345323741007,586.2807357376668 691.2230215827338,603.0265956243684 695.611510791367,603.4532551946439 700.0,605.6357632322895 704.388489208633,604.810464421593 708.7769784172662,601.9137797740544 713.1654676258993,604.8949304327036 717.5539568345324,599.1543404722073 721.9424460431654,596.543825786977 726.3309352517986,606.3847339772586 730.7194244604316,592.5898302662276 735.1079136690648,567.4724101084538 739.4964028776978,561.437021585858 743.884892086331,539.8530680814855 748.273381294964,547.9340968037961 752.661870503597,538.9533720541068 757.0503597122303,536.2472848980424 761.4388489208633,509.85739738413633 765.8273381294964,521.651778309293 770.2158273381294,511.8630987580394 774.6043165467626,517.6900474440306 778.9928057553957,513.9314575888312 783.3812949640288,506.0586411282176 787.7697841726618,510.1702856931391 792.158273381295,519.15795053348 796.546762589928,514.1200518442 800.9352517985612,496.8349350989828 805.3237410071943,471.4678945526999 809.7122302158274,469.7048475614789 814.1007194244604,421.7437077629893 818.4892086330934,390.4814680754017 822.8776978417267,393.63195036736516 827.2661870503597,421.09744627129044 831.6546762589928,399.8708012081099 836.0431654676258,412.1947234340579 840.431654676259,417.37536031944046 844.8201438848921,433.6164621802696 849.2086330935252,430.3560620221435 853.5971223021583,433.69085230356984 857.9856115107914,448.5865704360384 862.3741007194244,423.81563361367677 866.7625899280577,387.67967549211346 871.1510791366907,388.6958656301467 875.5395683453237,388.09357267354824 879.9280575539568,403.3463239654011 884.3165467625898,405.8260326234237 888.7050359712231,419.6461532819838 893.0935251798561,445.2250454600827 897.4820143884892,434.39356056146704 901.8705035971223,392.2947397856426 906.2589928057554,399.1629488281139 910.6474820143885,429.28697792640327 915.0359712230216,451.29652415520314 919.4244604316547,456.6344461912132 923.8129496402877,432.54212894549624 928.2014388489208,459.5599142438954 932.589928057554,492.0586392399175 936.9784172661871,460.44352053286434 941.3669064748201,445.28367865314146 945.7553956834532,429.47400364173325 950.1438848920862,457.45943902961 954.5323741007195,454.7237066682047 958.9208633093525,425.62607778222 963.3093525179856,444.3525230744232 967.6978417266187,432.86592398134326 972.0863309352517,385.4106416049003 976.4748201438849,346.15631867545164 980.863309352518,313.5216171715946 985.2517985611511,299.98348861768164 989.6402877697841,271.6703446674897 994.0287769784172,273.83905813104764 998.4172661870504,302.40961730651003 1002.8057553956835,315.92129541562673 1007.1942446043165,293.0494696247214 1011.5827338129496,317.1557967705729 1015.9712230215828,286.77530899956065 1020.3597122302159,294.30297572919665 1024.7482014388488,299.57692360173945 1029.136690647482,352.06238705386147 1033.525179856115,342.965498735647 1037.9136690647483,350.2475591936044 1042.3021582733813,404.188052654973 1046.6906474820144,408.2152832448103 1051.0791366906474,432.8628886673888 1055.4676258992804,427.8079068600996 1059.8561151079139,433.5566361446443 1064.2446043165469,441.93488830269024 1068.63309352518,466.29473247509037 1073.021582733813,461.9776052598873 1077.410071942446,422.28229809075077 1081.7985611510792,412.57590356675 1086.1870503597124,350.2390413750896 1090.5755395683454,329.7868861625092 1094.9640287769785,324.9883670548969 1099.3525179856115,329.51949712826683 1103.7410071942445,334.1236563712692 1108.1294964028777,321.7459410680947 1112.5179856115108,342.4388217799952 1116.9064748201438,335.0790558242378 1121.294964028777,325.5680600488635 1125.68345323741,268.0718027385696 1130.0719424460433,215.47380241645743 1134.4604316546763,202.89771564450587 1138.8489208633093,226.2915083179335 1143.2374100719423,187.68573030349762 1147.6258992805756,161.2783157006786 1152.0143884892086,141.08750183428663 1156.4028776978416,180.72339614483394 1160.7913669064749,179.05743586484175 1165.179856115108,148.6916746689633 1169.5683453237411,161.25982066791494 1173.9568345323742,193.64625138173813 1178.3453237410072,141.70401232945358 1182.7338129496402,195.4510960380976 1187.1223021582734,209.1120971456691 1191.5107913669065,192.64395874507295 1195.8992805755397,201.41764495331898 1200.2877697841727,241.15756077483383 1204.6762589928057,281.86667365815345 1209.0647482014388,328.68427054425473 1213.453237410072,294.3222866042459 1217.841726618705,299.05390483765024 1222.230215827338,291.851592486619 1226.6187050359713,305.84607832589467 1231.0071942446043,312.03919397881384 1235.3956834532376,289.3567456345988 1239.7841726618706,291.0597125920756 1244.1726618705036,261.36334661541594 1248.5611510791366,303.97402409375246 1252.9496402877696,337.790036683554 1257.3381294964029,424.56746570057845 1261.726618705036,430.23672611903504 1266.1151079136691,439.09412955280163 1270.5035971223022,447.90305312881105 1274.8920863309352,437.8398262862301 1279.2805755395684,420.52352832741985 1283.6690647482014,417.03594782451125 1288.0575539568345,441.1641227251324 1292.4460431654677,434.2036333584883 1296.8345323741007,401.74996085820186 1301.223021582734,376.1199793293319 1305.611510791367,384.01068486471513 1310.0,383.7340694694324" fill="none" stroke="#2563eb" stroke-width="2.5"><title>narrow_cash_band_rebalance | end=2026-05-01 | return=154.69%</title></polyline>
<polyline points="90.0,652.5322291365873 94.38848920863309,627.7572445594146 98.77697841726619,633.9669661261877 103.16546762589928,635.9904151857904 107.55395683453237,626.6791404948093 111.94244604316546,602.019078612495 116.33093525179856,578.6084034284081 120.71942446043165,558.4284773181444 125.10791366906474,595.3978223978746 129.49640287769785,586.3964078652368 133.88489208633092,557.496205022446 138.27338129496403,553.9675556985229 142.66187050359713,563.8806658982182 147.0503597122302,536.7953294976576 151.4388489208633,541.183291756924 155.8273381294964,520.7401049649147 160.2158273381295,538.2676806398437 164.6043165467626,509.4409239994736 168.9928057553957,484.6887843104657 173.38129496402877,479.81082986344256 177.76978417266187,558.3541232911678 182.15827338129498,563.6288374681029 186.54676258992805,548.8669968303732 190.93525179856115,561.093251199175 195.32374100719426,571.0450627333796 199.71223021582733,603.7831858923157 204.10071942446044,578.3474961797756 208.48920863309354,578.7363265076365 212.87769784172662,599.9723248525231 217.26618705035972,579.177145633058 221.6546762589928,534.5562174171235 226.0431654676259,509.7699504447122 230.431654676259,473.07249101958575 234.82014388489208,470.27231731028076 239.20863309352518,471.53963966680317 243.59712230215825,441.2504429085971 247.98561151079136,483.8575403330377 252.37410071942446,468.46076710238754 256.76258992805754,502.20944096235144 261.15107913669067,468.3145325589404 265.53956834532374,439.82428553418487 269.9280575539568,404.6837669451591 274.31654676258995,403.3441103850887 278.705035971223,384.00341836100125 283.0935251798561,385.0722477433457 287.48201438848923,372.21272471166566 291.8705035971223,396.5096513752231 296.2589928057554,413.85840976410674 300.6474820143885,408.53250826745995 305.03597122302153,437.4667991321857 309.42446043165467,441.67889885722684 313.8129496402878,418.4908939738798 318.2014388489209,447.74786171997783 322.58992805755395,482.35683351761566 326.9784172661871,472.3198007523545 331.3669064748201,527.3311507117568 335.75539568345323,523.7499669283627 340.14388489208636,488.6057949978079 344.53237410071944,489.2475592662066 348.9208633093525,504.6753426469807 353.3093525179856,507.7171362927295 357.6978417266187,515.1695514016553 362.0863309352518,519.9889727815889 366.4748201438849,490.2117773857474 370.863309352518,473.36252542103534 375.2517985611511,449.27817338070616 379.64028776978415,475.72319443204447 384.0287769784173,488.83114983766546 388.41726618705036,495.4070368753238 392.8057553956835,506.1837512495855 397.1942446043165,521.3676490613165 401.58273381294964,578.1305680537378 405.9712230215827,580.9933004851314 410.3597122302158,596.2051819633983 414.7482014388489,589.244481219496 419.136690647482,598.6904055613778 423.52517985611513,667.7280653732273 427.9136690647482,655.245806187312 432.3021582733813,673.9605858309842 436.6906474820144,654.6220009257693 441.0791366906475,655.9974727339459 445.4676258992806,627.822606812242 449.8561151079137,611.1728896831697 454.2446043165467,612.1268909649075 458.63309352517985,593.9521528335683 463.0215827338129,630.1028698652932 467.41007194244605,638.5306400899369 471.7985611510791,635.9191277091194 476.1870503597122,621.3275643811064 480.57553956834533,644.4785123063666 484.9640287769784,652.9663684052089 489.35251798561154,652.2232677373663 493.7410071942446,651.6282103148194 498.1294964028777,655.2992272476731 502.5179856115108,655.1302372790209 506.90647482014384,633.0366511802476 511.294964028777,625.2031249915784 515.68345323741,664.8623738284166 520.0719424460431,670.7401025520218 524.4604316546763,672.2343858508515 528.8489208633093,663.7229454815629 533.2374100719425,665.5684100101522 537.6258992805756,673.6659704353908 542.0143884892086,669.7055646820514 546.4028776978417,671.7764548911765 550.7913669064749,665.8829962116987 555.1798561151079,641.5131557821774 559.568345323741,616.8805954533974 563.9568345323742,618.7299303043841 568.3453237410072,613.168824796591 572.7338129496402,630.1966282786967 577.1223021582734,606.3909922772772 581.5107913669065,617.6687745316515 585.8992805755396,623.520230017029 590.2877697841727,641.0813976274595 594.6762589928057,587.8923850243167 599.0647482014389,590.333891458941 603.4532374100719,582.0163430901925 607.841726618705,581.2119095709851 612.2302158273382,557.4632060768483 616.6187050359712,584.1222780690046 621.0071942446043,574.1060580509003 625.3956834532374,567.159094127439 629.7841726618706,587.8022318892487 634.1726618705036,587.2776893073335 638.5611510791367,587.051885591367 642.9496402877699,581.2430630858819 647.3381294964029,586.624695493706 651.726618705036,592.2814018062461 656.115107913669,570.6100543795087 660.5035971223022,569.408584680058 664.8920863309353,572.5038244812924 669.2805755395683,569.5216843375914 673.6690647482014,572.5758975489894 678.0575539568346,574.7675474663811 682.4460431654676,577.3413295313381 686.8345323741007,575.72151350707 691.2230215827338,591.7834310477152 695.611510791367,592.2022414039321 700.0,594.2158332848619 704.388489208633,593.4710641655902 708.7769784172662,590.9886335992826 713.1654676258993,593.7799933535368 717.5539568345324,588.4939377834443 721.9424460431654,586.5334879542542 726.3309352517986,595.2837989443399 730.7194244604316,583.1904365241139 735.1079136690648,559.8032768750344 739.4964028776978,554.0782539971727 743.884892086331,533.5915462278729 748.273381294964,541.2423808055327 752.661870503597,532.77548436755 757.0503597122303,530.3026895689384 761.4388489208633,505.6706577086885 765.8273381294964,516.6632382586283 770.2158273381294,507.5306352373566 774.6043165467626,512.9352080412391 778.9928057553957,509.4127518464318 783.3812949640288,501.87445255877816 787.7697841726618,505.74358451637795 792.158273381295,513.7656046333968 796.546762589928,509.02267590910986 800.9352517985612,492.8198099633811 805.3237410071943,469.0338002488686 809.7122302158274,467.23831400982135 814.1007194244604,422.7592574841043 818.4892086330934,393.92271495459426 822.8776978417267,396.8218009238367 827.2661870503597,421.96879038266724 831.6546762589928,402.3352861060419 836.0431654676258,413.91102093080605 840.431654676259,418.92297170771417 844.8201438848921,434.2711038816192 849.2086330935252,430.7992138450787 853.5971223021583,433.86746443717703 857.9856115107914,448.3076516021419 862.3741007194244,424.25814691081 866.7625899280577,385.52210688063707 871.1510791366907,386.16345427571906 875.5395683453237,385.9387134087143 879.9280575539568,400.10637164643515 884.3165467625898,402.16859277524475 888.7050359712231,414.9236902788545 893.0935251798561,439.2679661900328 897.4820143884892,428.68036479394556 901.8705035971223,388.7398504056133 906.2589928057554,396.29959352167805 910.6474820143885,424.56627737610376 915.0359712230216,447.29143011602935 919.4244604316547,452.08292056069047 923.8129496402877,428.94467386865074 928.2014388489208,456.5120316209293 932.589928057554,489.3310667227281 936.9784172661871,459.07066658479016 941.3669064748201,444.3107718650871 945.7553956834532,428.8064315900178 950.1438848920862,457.8953379951033 954.5323741007195,455.13755342728285 958.9208633093525,427.55790829065904 963.3093525179856,447.71224715526796 967.6978417266187,436.3767396432646 972.0863309352517,385.5626260181531 976.4748201438849,349.93856698389914 980.863309352518,318.20877370871625 985.2517985611511,301.47163528424755 989.6402877697841,272.2911987874229 994.0287769784172,275.0046958699256 998.4172661870504,302.19499870349205 1002.8057553956835,314.6411922622586 1007.1942446043165,292.6840566876412 1011.5827338129496,315.6201094590746 1015.9712230215828,287.49762498036733 1020.3597122302159,295.4028098706732 1024.7482014388488,299.8238505326413 1029.136690647482,353.2509447368667 1033.525179856115,343.5206863213608 1037.9136690647483,351.2026272411357 1042.3021582733813,408.1298088931284 1046.6906474820144,413.2175979363961 1051.0791366906474,440.1872563035347 1055.4676258992804,434.1259199641333 1059.8561151079139,441.66533683995146 1064.2446043165469,452.15020939226184 1068.63309352518,484.30384920869403 1073.021582733813,479.8447308316894 1077.410071942446,439.49748473685213 1081.7985611510792,428.7377357108534 1086.1870503597124,350.0392752847629 1090.5755395683454,323.97771665252174 1094.9640287769785,320.4637850866228 1099.3525179856115,324.1762163323419 1103.7410071942445,329.8332361937406 1108.1294964028777,315.90339299637503 1112.5179856115108,339.14840532130523 1116.9064748201438,332.00970540312437 1121.294964028777,321.0836841045998 1125.68345323741,256.7925311637437 1130.0719424460433,191.47188019468683 1134.4604316546763,176.74056206418925 1138.8489208633093,200.64073158663365 1143.2374100719423,160.89717353765695 1147.6258992805756,134.64821456445782 1152.0143884892086,114.82835772194107 1156.4028776978416,152.73464646088928 1160.7913669064749,150.97611521247336 1165.179856115108,121.87324962032835 1169.5683453237411,133.69166132432395 1173.9568345323742,164.72743406414315 1178.3453237410072,113.69167832671269 1182.7338129496402,166.38939986936975 1187.1223021582734,178.81606008277254 1191.5107913669065,163.08822416918042 1195.8992805755397,172.04031114514794 1200.2877697841727,212.53716871437882 1204.6762589928057,255.57168887701584 1209.0647482014388,304.0517777013253 1213.453237410072,268.3244829912747 1217.841726618705,272.6832370357011 1222.230215827338,265.20369377186415 1226.6187050359713,279.424901210154 1231.0071942446043,285.7844419799799 1235.3956834532376,262.39384700694154 1239.7841726618706,264.48173237467194 1244.1726618705036,234.7309412029477 1248.5611510791366,277.8334201507305 1252.9496402877696,311.8805150287717 1257.3381294964029,399.7170264706035 1261.726618705036,405.2617217631942 1266.1151079136691,415.5292507757252 1270.5035971223022,424.92375403167995 1274.8920863309352,413.96959556204223 1279.2805755395684,394.24204104647566 1283.6690647482014,389.46150509231165 1288.0575539568345,416.92609119704434 1292.4460431654677,408.58204684555386 1296.8345323741007,372.0029354026328 1301.223021582734,342.59302825520405 1305.611510791367,352.31895338520263 1310.0,352.5481543136904" fill="none" stroke="#7c3aed" stroke-width="2.5"><title>drawdown_tilt_rebalance | end=2026-05-01 | return=172.64%</title></polyline>
<polyline points="90.0,652.5322291365873 94.38848920863309,623.2474352050857 98.77697841726619,632.1310041569411 103.16546762589928,635.9513240688669 107.55395683453237,623.5564097440299 111.94244604316546,590.2437012638719 116.33093525179856,561.9563977230985 120.71942446043165,535.2550158727445 125.10791366906474,589.9295099364875 129.49640287769785,578.6405378945665 133.88489208633092,543.0617485805038 138.27338129496403,538.2516862523947 142.66187050359713,552.2607026268131 147.0503597122302,513.1249123479563 151.4388489208633,519.6815852196485 155.8273381294964,488.63115864424367 160.2158273381295,515.1547278266426 164.6043165467626,473.2973569865969 168.9928057553957,429.7746672580224 173.38129496402877,414.9419868505111 177.76978417266187,542.3764917045653 182.15827338129498,548.2369776529541 186.54676258992805,532.6182351552284 190.93525179856115,544.0688688621527 195.32374100719426,553.6480905647466 199.71223021582733,583.8726419221675 204.10071942446044,562.994950458097 208.48920863309354,563.2537870847485 212.87769784172662,581.7907206436762 217.26618705035972,564.4668909003275 221.6546762589928,521.7670458333249 226.0431654676259,503.5808010425487 230.431654676259,469.2599058817923 234.82014388489208,466.7352785514272 239.20863309352518,468.1287542716591 243.59712230215825,437.0663560910794 247.98561151079136,487.9934670893912 252.37410071942446,470.99876993275166 256.76258992805754,509.1996386243983 261.15107913669067,473.35201813911095 265.53956834532374,444.00667700071085 269.9280575539568,407.0892772209166 274.31654676258995,404.6533570710151 278.705035971223,378.0807868294092 283.0935251798561,379.09796938992315 287.48201438848923,361.19968936795374 291.8705035971223,395.6555223140936 296.2589928057554,420.20683999177334 300.6474820143885,413.7371156836142 305.03597122302153,447.9194002445681 309.42446043165467,452.0070308608334 313.8129496402878,430.1076164587206 318.2014388489209,462.65857588075596 322.58992805755395,501.2320100463085 326.9784172661871,491.6347192278698 331.3669064748201,541.9754933465309 335.75539568345323,538.5544929772077 340.14388489208636,509.4184404561407 344.53237410071944,509.1679411653238 348.9208633093525,522.2698251252674 353.3093525179856,525.1496899733413 357.6978417266187,530.2250820816691 362.0863309352518,533.9287856966791 366.4748201438849,510.6583033675588 370.863309352518,496.4919804051955 375.2517985611511,478.35606675874936 379.64028776978415,500.35253807040795 384.0287769784173,510.9470118036336 388.41726618705036,516.2592638328244 392.8057553956835,524.7177763842514 397.1942446043165,537.7336178667992 401.58273381294964,583.5179165786842 405.9712230215827,585.4387035768584 410.3597122302158,595.5767081837105 414.7482014388489,589.872898768097 419.136690647482,596.37200453161 423.52517985611513,650.1012923241583 427.9136690647482,641.2312714449195 432.3021582733813,656.0644634908116 436.6906474820144,639.9329742039538 441.0791366906475,642.0358937421954 445.4676258992806,620.8853735676792 449.8561151079137,608.4398276951091 454.2446043165467,609.7128897871012 458.63309352517985,596.3801219562287 463.0215827338129,624.5472278331881 467.41007194244605,630.8674093011335 471.7985611510791,629.5089195910315 476.1870503597122,617.941149007451 480.57553956834533,635.4057331490467 484.9640287769784,641.7474128043767 489.35251798561154,641.0557219071279 493.7410071942446,640.505309925603 498.1294964028777,643.4614464658353 502.5179856115108,643.3668266871207 506.90647482014384,626.5498305558492 511.294964028777,620.5505800485001 515.68345323741,652.6292065619562 520.0719424460431,657.069503281066 524.4604316546763,658.3307463843813 528.8489208633093,651.6919051782959 533.2374100719425,652.8649913255771 537.6258992805756,659.0696388083628 542.0143884892086,656.1996545279305 546.4028776978417,657.8762317749691 550.7913669064749,653.3654963160317 555.1798561151079,632.1177801131213 559.568345323741,611.3645575690055 563.9568345323742,611.9494098073402 568.3453237410072,607.8115204704986 572.7338129496402,621.5162020363289 577.1223021582734,601.660684446811 581.5107913669065,610.9792698623905 585.8992805755396,615.9787040533257 590.2877697841727,630.4497389914486 594.6762589928057,584.9817707684535 599.0647482014389,586.5215846203901 603.4532374100719,579.6745923849461 607.841726618705,580.0918821331337 612.2302158273382,559.3229956391017 616.6187050359712,584.086585363053 621.0071942446043,572.9976965660908 625.3956834532374,567.5575910873777 629.7841726618706,587.9122272782589 634.1726618705036,587.3487370766808 638.5611510791367,587.4419301143258 642.9496402877699,581.5033826157724 647.3381294964029,587.9502912225994 651.726618705036,594.6019632357467 656.115107913669,567.6643688504296 660.5035971223022,566.6758835349891 664.8920863309353,570.1762818846553 669.2805755395683,567.038723190352 673.6690647482014,571.0488544192735 678.0575539568346,574.4341004971757 682.4460431654676,577.6303130831868 686.8345323741007,575.3222118354727 691.2230215827338,598.4693953461357 695.611510791367,598.849323875343 700.0,600.9332914124221 704.388489208633,600.1676843158905 708.7769784172662,597.1607379847156 713.1654676258993,599.2893956124549 717.5539568345324,594.8705525856154 721.9424460431654,591.7261377139001 726.3309352517986,599.8587230786293 730.7194244604316,586.8001802707311 735.1079136690648,562.1177702219422 739.4964028776978,556.2761103841241 743.884892086331,534.085493593945 748.273381294964,542.5002917390298 752.661870503597,532.1862418437071 757.0503597122303,528.1059616550035 761.4388489208633,493.31421526594323 765.8273381294964,508.81989348103383 770.2158273381294,495.5962043806956 774.6043165467626,504.4423758343952 778.9928057553957,497.5976430594193 783.3812949640288,490.82032414580004 787.7697841726618,496.65388503122585 792.158273381295,507.9093446596074 796.546762589928,500.96572713561295 800.9352517985612,477.21459902710603 805.3237410071943,442.86440528227337 809.7122302158274,442.31414576804 814.1007194244604,374.73413301329623 818.4892086330934,330.85085355420324 822.8776978417267,334.9476474953579 827.2661870503597,374.9402787427961 831.6546762589928,345.8018889961874 836.0431654676258,362.212227340559 840.431654676259,368.5275289720716 844.8201438848921,388.6909494477047 849.2086330935252,385.56443322411303 853.5971223021583,389.74995905649655 857.9856115107914,406.53112896725315 862.3741007194244,375.61433603368613 866.7625899280577,339.41401530925464 871.1510791366907,341.73175941214646 875.5395683453237,338.84691922523797 879.9280575539568,359.71308254657606 884.3165467625898,364.14523414659624 888.7050359712231,383.9934594632253 893.0935251798561,418.8679859816992 897.4820143884892,406.8125993451566 901.8705035971223,359.3229307128369 906.2589928057554,369.91020770899127 910.6474820143885,405.8655423723031 915.0359712230216,427.8821381160216 919.4244604316547,434.3455949008303 923.8129496402877,410.17831107859456 928.2014388489208,437.7067673680299 932.589928057554,468.0958474269404 936.9784172661871,437.59608351311914 941.3669064748201,423.830077538434 945.7553956834532,409.9071849888197 950.1438848920862,435.1306276064016 954.5323741007195,432.66372330420546 958.9208633093525,405.52293875637656 963.3093525179856,421.6147042607719 967.6978417266187,408.83617850105105 972.0863309352517,362.4300698798987 976.4748201438849,311.1526731447304 980.863309352518,274.0319695184898 985.2517985611511,263.9737984690121 989.6402877697841,234.4601856535881 994.0287769784172,235.01962549895558 998.4172661870504,268.78508580027915 1002.8057553956835,286.9235278107929 1007.1942446043165,260.21883869503154 1011.5827338129496,288.64183199794064 1015.9712230215828,249.75247273823499 1020.3597122302159,256.7814398000733 1024.7482014388488,264.2530716117463 1029.136690647482,319.50618734594013 1033.525179856115,310.56027056647474 1037.9136690647483,318.272208753606 1042.3021582733813,377.4108116790051 1046.6906474820144,376.95656023439346 1051.0791366906474,399.92698217231236 1055.4676258992804,395.92812682816884 1059.8561151079139,399.8582462883905 1064.2446043165469,406.571077832855 1068.63309352518,424.89281949067947 1073.021582733813,420.8049352627453 1077.410071942446,383.3919229868504 1081.7985611510792,373.85163276883225 1086.1870503597124,319.4689145614222 1090.5755395683454,303.29889881459445 1094.9640287769785,294.6554224806964 1099.3525179856115,302.5129404737198 1103.7410071942445,305.4662626853596 1108.1294964028777,293.7824929189831 1112.5179856115108,313.2198770392991 1116.9064748201438,302.36540106076114 1121.294964028777,293.93202271011813 1125.68345323741,237.31574321502694 1130.0719424460433,190.67154309212322 1134.4604316546763,178.05565112666307 1138.8489208633093,206.41292177343598 1143.2374100719423,158.73427900315437 1147.6258992805756,125.15879375927113 1152.0143884892086,98.84037086551427 1156.4028776978416,152.47436608918633 1160.7913669064749,150.1174405370424 1165.179856115108,108.81908821487696 1169.5683453237411,125.99832438478438 1173.9568345323742,170.45330566078394 1178.3453237410072,105.56441090842509 1182.7338129496402,175.245131728817 1187.1223021582734,191.79339895042722 1191.5107913669065,173.18410424977753 1195.8992805755397,183.58442742465218 1200.2877697841727,229.29500282960515 1204.6762589928057,274.6436384540005 1209.0647482014388,321.0221138834988 1213.453237410072,289.5627327099568 1217.841726618705,294.16010643361454 1222.230215827338,288.2140497470737 1226.6187050359713,299.8419158803453 1231.0071942446043,304.80407454666243 1235.3956834532376,286.9407702435074 1239.7841726618706,287.61148799496516 1244.1726618705036,263.1269636847898 1248.5611510791366,297.07049732594476 1252.9496402877696,324.5805859508917 1257.3381294964029,395.47317442906797 1261.726618705036,400.943553975818 1266.1151079136691,407.92014941012684 1270.5035971223022,416.1151744902312 1274.8920863309352,406.8465099588299 1279.2805755395684,391.813859284429 1283.6690647482014,389.7294837446194 1288.0575539568345,410.7843092871748 1292.4460431654677,405.2358418419249 1296.8345323741007,376.35096039315647 1301.223021582734,354.27861623881864 1305.611510791367,359.5209601926967 1310.0,358.6176037158246" fill="none" stroke="#b45309" stroke-width="2.5"><title>btc_defensive_eth_aggressive | end=2026-05-01 | return=169.14%</title></polyline>
</svg>