<svg xmlns="http://www.w3.org/2000/svg" width="1400" height="800">
<rect width="1400" height="800" fill="#f8fafc"/>
<text x="700.0" y="42" text-anchor="middle" font-family="monospace" font-size="24" fill="#0f172a">Portfolio Value Over Time | start=2021-07-01 | interval=7d</text>
<line x1="90" y1="710" x2="1310" y2="710" stroke="#334155" stroke-width="2"/>
<line x1="90" y1="90" x2="90" y2="710" stroke="#334155" stroke-width="2"/>
<line x1="90.0" y1="710" x2="90.0" y2="90" stroke="#cbd5e1" stroke-width="1"/>
<text x="90.0" y="734" text-anchor="middle" font-family="monospace" font-size="11" fill="#475569">2021-07-01</text>
<line x1="90" y1="710.0" x2="1310" y2="710.0" stroke="#cbd5e1" stroke-width="1"/>
<text x="78" y="714.0" text-anchor="end" font-family="monospace" font-size="12" fill="#475569">5041</text>
<line x1="334.0" y1="710" x2="334.0" y2="90" stroke="#cbd5e1" stroke-width="1"/>
<text x="334.0" y="734" text-anchor="middle" font-family="monospace" font-size="11" fill="#475569">2022-06-16</text>
<line x1="90" y1="586.0" x2="1310" y2="586.0" stroke="#cbd5e1" stroke-width="1"/>
<text x="78" y="590.0" text-anchor="end" font-family="monospace" font-size="12" fill="#475569">9022</text>
<line x1="578.0" y1="710" x2="578.0" y2="90" stroke="#cbd5e1" stroke-width="1"/>
<text x="578.0" y="734" text-anchor="middle" font-family="monospace" font-size="11" fill="#475569">2023-06-08</text>
<line x1="90" y1="462.0" x2="1310" y2="462.0" stroke="#cbd5e1" stroke-width="1"/>
<text x="78" y="466.0" text-anchor="end" font-family="monospace" font-size="12" fill="#475569">13003</text>
<line x1="822.0" y1="710" x2="822.0" y2="90" stroke="#cbd5e1" stroke-width="1"/>
<text x="822.0" y="734" text-anchor="middle" font-family="monospace" font-size="11" fill="#475569">2024-05-23</text>
<line x1="90" y1="338.0" x2="1310" y2="338.0" stroke="#cbd5e1" stroke-width="1"/>
<text x="78" y="342.0" text-anchor="end" font-family="monospace" font-size="12" fill="#475569">16985</text>
<line x1="1066.0" y1="710" x2="1066.0" y2="90" stroke="#cbd5e1" stroke-width="1"/>
<text x="1066.0" y="734" text-anchor="middle" font-family="monospace" font-size="11" fill="#475569">2025-05-15</text>
<line x1="90" y1="214.0" x2="1310" y2="214.0" stroke="#cbd5e1" stroke-width="1"/>
<text x="78" y="218.0" text-anchor="end" font-family="monospace" font-size="12" fill="#475569">20966</text>
<line x1="1310.0" y1="710" x2="1310.0" y2="90" stroke="#cbd5e1" stroke-width="1"/>
<text x="1310.0" y="734" text-anchor="middle" font-family="monospace" font-size="11" fill="#475569">2026-04-30</text>
<line x1="90" y1="90.0" x2="1310" y2="90.0" stroke="#cbd5e1" stroke-width="1"/>
<text x="78" y="94.0" text-anchor="end" font-family="monospace" font-size="12" fill="#475569">24947</text>
<text x="700.0" y="782" text-anchor="middle" font-family="monospace" font-size="16" fill="#0f172a">time</text>
<text x="24" y="400.0" transform="rotate(-90 24,400.0)" text-anchor="middle" font-family="monospace" font-size="16" fill="#0f172a">portfolio_value_usd</text>
<line x1="970" y1="80" x2="988" y2="80" stroke="#0f766e" stroke-width="3"/>
<text x="998" y="84" font-family="monospace" font-size="12" fill="#0f172a">budgeted_static_50_50_rebalance</text>
<line x1="970" y1="104" x2="988" y2="104" stroke="#9333ea" stroke-width="3"/>
<text x="998" y="108" font-family="monospace" font-size="12" fill="#0f172a">budgeted_drawdown_tilt_rebalance</text>
<line x1="970" y1="128" x2="988" y2="128" stroke="#92400e" stroke-width="3"/>
<text x="998" y="132" font-family="monospace" font-size="12" fill="#0f172a">budgeted_btc_defensive_eth_aggressive</text>
<polyline points="90.0,555.551987000336 94.84126984126983,555.5855856195734 99.68253968253968,556.167334688639 104.52380952380952,555.711700701827 109.36507936507937,551.847857452279 114.2063492063492,549.0732987542649 119.04761904761905,546.261187951807 123.88888888888889,544.2155888460888 128.73015873015873,544.8904816674383 133.57142857142856,537.5382449652968 138.4126984126984,542.6330351113417 143.25396825396825,540.3216563490989 148.0952380952381,546.7115759982457 152.93650793650792,549.2677088869711 157.77777777777777,534.1003152090002 162.61904761904762,528.4798927419668 167.46031746031747,520.6560519506716 172.3015873015873,518.8804128974385 177.14285714285714,514.4457146627226 181.984126984127,508.29259074270203 186.8253968253968,527.7557965445126 191.66666666666666,516.9961336416125 196.5079365079365,519.9484399271344 201.34920634920633,537.3569011974025 206.1904761904762,539.9109388393103 211.03174603174602,533.016417866584 215.87301587301585,545.4795321974124 220.7142857142857,556.8815317892131 225.55555555555554,560.9016847186983 230.3968253968254,568.736415202557 235.23809523809524,586.5056182517225 240.07936507936506,580.1287962592168 244.9206349206349,561.046321621903 249.76190476190476,570.5354182877415 254.6031746031746,581.8123485432873 259.44444444444446,568.1821413236197 264.2857142857143,579.9067164578064 269.1269841269841,571.2557895029121 273.968253968254,556.6623115662935 278.80952380952385,548.5695573594575 283.6507936507936,554.5863015353302 288.4920634920635,568.4255862493579 293.3333333333333,568.4535752704819 298.1746031746032,571.6745644057163 303.015873015873,585.3587976617906 307.8571428571429,630.392968153348 312.69841269841265,624.884172680215 317.53968253968253,635.935712710891 322.3809523809524,631.0355435705033 327.22222222222223,633.73690229252 332.06349206349205,689.6692738515115 336.9047619047619,684.2827141051931 341.7460317460317,690.9270555428188 346.58730158730157,678.0607606287774 351.4285714285714,683.566377938621 356.26984126984127,655.6405354964372 361.1111111111111,645.4777623867262 365.95238095238096,655.9362336781012 370.7936507936508,636.8748249413196 375.63492063492066,641.5209372006358 380.4761904761905,655.4380821789039 385.3174603174603,666.5200014471533 390.1587301587301,667.1919207913041 395.0,673.8862906310677 399.8412698412698,682.6288805135707 404.6825396825397,681.3427598896304 409.5238095238095,678.9982475950284 414.36507936507934,684.891551319863 419.2063492063492,686.4413911296461 424.0476190476191,668.6035591041193 428.8888888888889,668.026983245428 433.73015873015873,691.325067844504 438.57142857142856,700.0337208704564 443.41269841269843,700.217405000315 448.25396825396825,694.5694114959932 453.0952380952381,693.3655153793028 457.9365079365079,693.5947052144927 462.7777777777778,698.4691060703666 467.61904761904765,700.205007344186 472.46031746031747,696.5756671091644 477.3015873015873,679.2894313404414 482.14285714285717,662.8846082822446 486.984126984127,652.4609799806736 491.8253968253968,648.2653649150989 496.66666666666663,660.1829200823257 501.50793650793656,648.5098435525163 506.3492063492064,646.1641079310735 511.1904761904762,648.1422858213506 516.031746031746,671.2782937381135 520.8730158730159,640.3483258173087 525.7142857142858,620.221321288718 530.5555555555555,622.7002584196703 535.3968253968253,618.3094184476911 540.2380952380952,602.0484541748256 545.0793650793651,613.7381071451642 549.9206349206349,611.0685425616682 554.7619047619048,614.9854476102846 559.6031746031747,626.1393643995406 564.4444444444445,626.4470602524459 569.2857142857142,627.3921727754852 574.1269841269841,623.1043226006823 578.968253968254,625.139701453352 583.8095238095239,638.1568898712053 588.6507936507936,611.324086249924 593.4920634920634,610.4011988407494 598.3333333333334,612.6906785401948 603.1746031746031,598.3381384534512 608.015873015873,610.4222896927229 612.8571428571428,614.1856322015742 617.6984126984128,615.775035193677 622.5396825396825,614.0273061476012 627.3809523809524,632.9913421520356 632.2222222222222,635.7761737081022 637.063492063492,637.4080100553489 641.9047619047619,636.0910851584879 646.7460317460317,636.3181710281237 651.5873015873016,638.6445204840868 656.4285714285714,633.0872344310201 661.2698412698413,634.0874232637447 666.1111111111111,640.5446672966793 670.952380952381,632.0276252441204 675.7936507936508,599.4968189913246 680.6349206349206,596.9435048045314 685.4761904761905,572.0317680864699 690.3174603174602,583.2536372273188 695.1587301587301,573.576437929421 700.0,572.7457328023013 704.8412698412699,537.1507139113849 709.6825396825396,540.3017906762261 714.5238095238095,541.9395212068517 719.3650793650794,539.9717266265986 724.2063492063493,539.2383538945281 729.047619047619,512.4842628608233 733.8888888888889,536.6191276350999 738.7301587301587,555.0893026559172 743.5714285714286,540.3608612581496 748.4126984126984,526.834439775058 753.2539682539682,483.31811610617024 758.0952380952382,477.3488428150168 762.936507936508,426.27484215592125 767.7777777777778,379.4220203645944 772.6190476190476,365.8667659380833 777.4603174603175,404.28320068575454 782.3015873015872,384.8723159168649 787.1428571428571,403.9862382631265 791.9841269841269,390.17595870591936 796.8253968253969,432.621942145337 801.6666666666667,424.8898465438692 806.5079365079365,449.57953735888753 811.3492063492064,435.5147853872706 816.1904761904761,434.5178650656983 821.031746031746,378.94488025238746 825.8730158730158,379.7462270009448 830.7142857142857,369.18987554491116 835.5555555555557,399.6338961836853 840.3968253968254,402.60836890414254 845.2380952380953,415.33950313515345 850.0793650793651,449.5505193104102 854.9206349206349,446.4821361534468 859.7619047619047,409.3248813745351 864.6031746031746,417.6799580226249 869.4444444444443,417.68588991309815 874.2857142857143,456.7663002967629 879.1269841269842,475.0209916488941 883.968253968254,463.92470865015747 888.8095238095239,472.52945363326296 893.6507936507936,491.20140136482166 898.4920634920635,486.14829074562044 903.3333333333333,466.39764491613937 908.1746031746031,449.72104725056016 913.0158730158731,479.6399360356903 917.8571428571429,478.64654560530323 922.6984126984128,445.48203013183183 927.5396825396825,448.1056356183384 932.3809523809524,444.06812999552733 937.2222222222222,403.99984121284143 942.063492063492,364.3345260133376 946.9047619047618,316.766142743066 951.7460317460318,309.1918588556851 956.5873015873016,292.1779750692223 961.4285714285714,278.9127250998025 966.2698412698413,315.28106142139063 971.1111111111111,324.6955834683036 975.952380952381,313.9222611807347 980.7936507936507,339.21185333202743 985.6349206349206,316.0645668752744 990.4761904761905,304.9054062167473 995.3174603174604,309.1115138483619 1000.1587301587301,365.5005848920612 1005.0,366.1294843956134 1009.8412698412699,357.8898673471944 1014.6825396825396,419.307281893233 1019.5238095238095,415.51580317233714 1024.3650793650795,460.4842494873833 1029.2063492063494,444.46542883494 1034.047619047619,436.4145719048824 1038.888888888889,460.4873698923328 1043.7301587301586,493.41697988473436 1048.5714285714284,476.89065893403347 1053.4126984126983,441.5998621664436 1058.2539682539682,430.24506550411377 1063.095238095238,382.37952639963447 1067.936507936508,349.2927034555031 1072.7777777777778,323.0945822007025 1077.6190476190477,338.12948233895946 1082.4603174603176,365.14947003969843 1087.3015873015872,336.97188512459957 1092.142857142857,349.5957467312955 1096.9841269841268,353.83283075858265 1101.8253968253969,333.7879311821489 1106.6666666666667,290.6904798445004 1111.5079365079364,240.0202763321734 1116.3492063492063,223.09390246065777 1121.1904761904761,229.35129771397902 1126.031746031746,209.10662284536852 1130.873015873016,158.72904732572533 1135.7142857142856,195.55746103424372 1140.5555555555557,174.762010938014 1145.3968253968255,193.84293501337856 1150.2380952380952,171.62070354868467 1155.079365079365,159.21784538841553 1159.920634920635,225.9351566626961 1164.7619047619048,157.7651728026657 1169.6031746031745,162.88530819029984 1174.4444444444443,226.03642696333964 1179.2857142857144,223.90843869595096 1184.126984126984,231.7736767392032 1188.968253968254,280.9374183902486 1193.8095238095239,290.5666036053018 1198.6507936507937,348.88722006279346 1203.4920634920634,324.62434463846665 1208.3333333333333,314.3018523748927 1213.1746031746031,305.89953728934603 1218.015873015873,351.9870910998129 1222.857142857143,342.424846802382 1227.6984126984128,331.5863137784051 1232.5396825396826,318.59807018991484 1237.3809523809523,292.2776458991589 1242.2222222222222,333.32182585855713 1247.063492063492,354.67743131192583 1251.904761904762,479.0312420226935 1256.7460317460318,461.6032875762228 1261.5873015873017,459.5769895759081 1266.4285714285716,452.0460964491374 1271.2698412698412,440.1005447675315 1276.111111111111,440.8887013048453 1280.952380952381,437.15493777230773 1285.7936507936508,446.42888892181156 1290.6349206349205,451.1793566764198 1295.4761904761906,428.2109978789209 1300.3174603174602,407.04252957776106 1305.1587301587301,400.8058865103876 1310.0,411.6282520084346" fill="none" stroke="#0f766e" stroke-width="2.5"><title>budgeted_static_50_50_rebalance | end=2026-04-30 | return=46.21%</title></polyline>
<polyline points="90.0,555.551987000336 94.84126984126983,555.5950801912827 99.68253968253968,556.3774288292068 104.52380952380952,555.7054121017628 109.36507936507937,549.9153352733803 114.2063492063492,545.7204100333945 119.04761904761905,541.6255800406592 123.88888888888889,538.6758940923235 128.73015873015873,539.659233441959 133.57142857142856,529.0996453957166 138.4126984126984,536.1328327390528 143.25396825396825,532.9559852074148 148.0952380952381,541.4763798529591 152.93650793650792,544.8809370968568 157.77777777777777,524.6619689681413 162.61904761904762,517.3363139568289 167.46031746031747,507.60556358773283 172.3015873015873,505.5120788046336 177.14285714285714,500.4382926209085 181.984126984127,493.6388584880806 186.8253968253968,514.4296332325748 191.66666666666666,503.05823168258297 196.5079365079365,506.06537382037084 201.34920634920633,523.6885899963831 206.1904761904762,526.286591344961 211.03174603174602,519.1238104684378 215.87301587301585,531.886418923882 220.7142857142857,543.7139660890912 225.55555555555554,547.8736787518347 230.3968253968254,556.119349694852 235.23809523809524,574.9473823352006 240.07936507936506,568.1782298876319 244.9206349206349,547.3567287960464 249.76190476190476,557.783049953488 254.6031746031746,570.1779148317854 259.44444444444446,554.9871314947638 264.2857142857143,568.1078503274474 269.1269841269841,558.3975220782017 273.968253968254,541.8991785347889 278.80952380952385,532.7134220747298 283.6507936507936,539.613773652824 288.4920634920635,555.4989622195665 293.3333333333333,555.5021340112567 298.1746031746032,559.2277453754059 303.015873015873,575.1254717116796 307.8571428571429,627.4690319483047 312.69841269841265,620.9455188660507 317.53968253968253,634.1205676746912 322.3809523809524,628.1696797037498 327.22222222222223,631.4829441042726 332.06349206349205,701.0142169523338 336.9047619047619,694.1063981915214 341.7460317460317,702.6562064204567 346.58730158730157,685.352708893285 351.4285714285714,692.2986512735814 356.26984126984127,655.0484523848874 361.1111111111111,641.4748343171385 365.95238095238096,655.1076609982339 370.7936507936508,629.8020463802083 375.63492063492066,635.537280490618 380.4761904761905,653.3075236977542 385.3174603174603,667.2290844309541 390.1587301587301,667.0873343086809 395.0,677.2528024683322 399.8412698412698,689.0994797539371 404.6825396825397,687.5843624937977 409.5238095238095,684.8465717285158 414.36507936507934,692.0469517130352 419.2063492063492,693.7843780557047 424.0476190476191,671.7504154719544 428.8888888888889,670.9235247901893 433.73015873015873,699.1609380543439 438.57142857142856,709.7871075701729 443.41269841269843,709.9365219639778 448.25396825396825,702.952986956789 453.0952380952381,701.6342329838451 457.9365079365079,702.0766381889899 462.7777777777778,707.9108281462666 467.61904761904765,709.9893886799106 472.46031746031747,705.4559316488287 477.3015873015873,684.9660847572483 482.14285714285717,665.7539741071973 486.984126984127,653.9822870039192 491.8253968253968,648.8959029094375 496.66666666666663,663.1157626691307 501.50793650793656,649.1887838777336 506.3492063492064,646.4572214761606 511.1904761904762,648.6660749762112 516.031746031746,676.9944634541913 520.8730158730159,639.843425454022 525.7142857142858,615.7423108206012 530.5555555555555,618.805902713633 535.3968253968253,612.9777220656734 540.2380952380952,592.8550158899424 545.0793650793651,607.1054693630584 549.9206349206349,604.3516192335761 554.7619047619048,609.23577750781 559.6031746031747,623.1313726236052 564.4444444444445,623.4395375675045 569.2857142857142,624.4681384823672 574.1269841269841,619.1563029995783 578.968253968254,621.4544383629541 583.8095238095239,636.2478241691285 588.6507936507936,607.8656406861913 593.4920634920634,607.1556795189232 598.3333333333334,609.3194743692871 603.1746031746031,595.339388534439 608.015873015873,606.6608090378495 612.8571428571428,610.069316423722 617.6984126984128,611.5670930604301 622.5396825396825,610.0387823519973 627.3809523809524,626.3059765852531 632.2222222222222,628.7077953649041 637.063492063492,630.1545917519556 641.9047619047619,629.030743939777 646.7460317460317,629.3559661774004 651.5873015873016,631.6952079216436 656.4285714285714,626.1908625495802 661.2698412698413,627.3910312806416 666.1111111111111,633.8320386648306 670.952380952381,625.7002057495889 675.7936507936508,592.468956206546 680.6349206349206,590.1789185097897 685.4761904761905,563.9911240051516 690.3174603174602,575.6348972522 695.1587301587301,566.2471106100946 700.0,565.6613129074954 704.8412698412699,533.4049440168963 709.6825396825396,536.3531578030681 714.5238095238095,538.455517936565 719.3650793650794,535.9010830946197 724.2063492063493,536.00437374659 729.047619047619,512.7625854845221 733.8888888888889,532.1944128540506 738.7301587301587,547.6828441704597 743.5714285714286,535.883263445744 748.4126984126984,524.908103837249 753.2539682539682,489.70634266346923 758.0952380952382,484.37202366987685 762.936507936508,444.42420255408314 767.7777777777778,407.08743687497923 772.6190476190476,397.23140608142944 777.4603174603175,426.937960580024 782.3015873015872,412.75892651778054 787.1428571428571,427.44264262776016 791.9841269841269,416.73605565704906 796.8253968253969,448.99506053354713 801.6666666666667,443.05456854890434 806.5079365079365,461.9757226474029 811.3492063492064,451.0777337079603 816.1904761904761,450.50902522539616 821.031746031746,404.2532209898282 825.8730158730158,404.99692093276184 830.7142857142857,396.7958225229958 835.5555555555557,420.87772096367513 840.3968253968254,422.8366780329648 845.2380952380953,432.2842163761287 850.0793650793651,459.07210894934497 854.9206349206349,456.60994630203356 859.7619047619047,427.4930567773726 864.6031746031746,435.3098870095565 869.4444444444443,435.1571282906093 874.2857142857143,467.8403554395569 879.1269841269842,482.66360021835044 883.968253968254,473.55850535450463 888.8095238095239,480.9666402589502 893.6507936507936,497.15328275699824 898.4920634920635,493.0171981440645 903.3333333333333,475.72126247741596 908.1746031746031,460.11107898448125 913.0158730158731,488.7707493098479 917.8571428571429,487.4750765332625 922.6984126984128,455.6265198433739 927.5396825396825,459.12518735066567 932.3809523809524,455.9468524017231 937.2222222222222,412.94051767117014 942.063492063492,374.0164273563826 946.9047619047618,325.1561637020536 951.7460317460318,313.9942979730541 956.5873015873016,295.18600537211404 961.4285714285714,282.3634354566116 966.2698412698413,320.6356149196861 971.1111111111111,329.7918453047979 975.952380952381,318.89045492440357 980.7936507936507,343.67471549176446 985.6349206349206,322.9882833055574 990.4761904761905,313.1844799154399 995.3174603174604,318.05080243179583 1000.1587301587301,373.7479790876644 1005.0,374.4471081621555 1009.8412698412699,366.4010161679183 1014.6825396825396,426.5392450591925 1019.5238095238095,424.8267630777242 1024.3650793650795,470.12358613353626 1029.2063492063494,453.71917250470966 1034.047619047619,446.0483603419733 1038.888888888889,471.69952392327633 1043.7301587301586,508.18235702707284 1048.5714285714284,491.32563405659204 1053.4126984126983,453.50369572771024 1058.2539682539682,440.8916283640679 1063.095238095238,384.2594156363903 1067.936507936508,341.59542088165523 1072.7777777777778,312.30716044604975 1077.6190476190477,328.10440635125934 1082.4603174603176,362.078090919429 1087.3015873015872,326.3450838008655 1092.142857142857,343.2421135780504 1096.9841269841268,351.45062310784425 1101.8253968253969,325.1431852648777 1106.6666666666667,269.0621434613617 1111.5079365079364,198.26439088443527 1116.3492063492063,172.93698920580812 1121.1904761904761,178.61123931549128 1126.031746031746,153.5225665343711 1130.873015873016,90.0 1135.7142857142856,129.739600714865 1140.5555555555557,104.95963677614975 1145.3968253968255,125.36252862145648 1150.2380952380952,104.62821142466782 1155.079365079365,92.43556837901986 1159.920634920635,156.6072721717378 1164.7619047619048,93.16309032160507 1169.6031746031745,99.29530031599438 1174.4444444444443,154.55418104499597 1179.2857142857144,153.68316782506042 1184.126984126984,160.55831035360393 1188.968253968254,206.61738002751667 1193.8095238095239,215.46430576465661 1198.6507936507937,267.53754999003786 1203.4920634920634,245.4100261246034 1208.3333333333333,235.22754299620243 1213.1746031746031,226.70823161966302 1218.015873015873,271.401210946684 1222.857142857143,262.22034716996365 1227.6984126984128,251.45664320311903 1232.5396825396826,238.59910466237545 1237.3809523809523,212.07192678853636 1242.2222222222222,254.76750924089686 1247.063492063492,276.1375875778883 1251.904761904762,406.05289010029384 1256.7460317460318,387.9269755912237 1261.5873015873017,386.00652895498774 1266.4285714285716,377.6138604157066 1271.2698412698412,365.37615668685476 1276.111111111111,366.14408497377383 1280.952380952381,361.48234244396514 1285.7936507936508,372.19311266647594 1290.6349206349205,377.2100642631422 1295.4761904761906,350.6349150037519 1300.3174603174602,325.0385676931597 1305.1587301587301,318.43891973688835 1310.0,331.95461513674036" fill="none" stroke="#9333ea" stroke-width="2.5"><title>budgeted_drawdown_tilt_rebalance | end=2026-04-30 | return=71.79%</title></polyline>
<polyline points="90.0,555.551987000336 94.84126984126983,555.6190769070636 99.68253968253968,556.4022443214351 104.52380952380952,555.8016609280365 109.36507936507937,549.8329375224614 114.2063492063492,546.3277857013059 119.04761904761905,542.3941413221052 123.88888888888889,539.598325739172 128.73015873015873,540.3366218377855 133.57142857142856,531.9710600107633 138.4126984126984,538.0384539652741 143.25396825396825,535.2699878538979 148.0952380952381,542.829264246793 152.93650793650792,545.855928221261 157.77777777777777,527.7132651523407 162.61904761904762,521.0276861429711 167.46031746031747,511.87725643456156 172.3015873015873,509.8690714340079 177.14285714285714,504.85022279622615 181.984126984127,497.9419213972796 186.8253968253968,519.525474645764 191.66666666666666,507.55469452029104 196.5079365079365,510.7866006834658 201.34920634920633,529.8147825216923 206.1904761904762,532.6752438648467 211.03174603174602,525.1851403502454 215.87301587301585,538.9109754433113 220.7142857142857,551.37031189002 225.55555555555554,555.9234008005277 230.3968253968254,564.7674217688469 235.23809523809524,585.0483982765328 240.07936507936506,577.6993288609304 244.9206349206349,555.4962497490648 249.76190476190476,566.6444770138017 254.6031746031746,579.902692766863 259.44444444444446,563.5679011458295 264.2857142857143,577.6623443732066 269.1269841269841,567.3447958581048 273.968253968254,549.7771146147763 278.80952380952385,540.1009373784924 283.6507936507936,547.9931414347978 288.4920634920635,565.3670205500897 293.3333333333333,564.881183403877 298.1746031746032,568.8259921013542 303.015873015873,585.460005389427 307.8571428571429,636.3870311885267 312.69841269841265,629.6729755452046 317.53968253968253,641.2752540676837 322.3809523809524,635.3673535165949 327.22222222222223,638.2420432988885 332.06349206349205,698.9535154141438 336.9047619047619,693.1503506075405 341.7460317460317,700.3895436878557 346.58730158730157,686.9658444478255 351.4285714285714,692.7882869704217 356.26984126984127,666.0918661919563 361.1111111111111,656.7815221201024 365.95238095238096,666.7432731095549 370.7936507936508,649.4289773069756 375.63492063492066,654.0034575510417 380.4761904761905,667.2886476163854 385.3174603174603,677.987494513705 390.1587301587301,679.1517135235679 395.0,684.7871339141145 399.8412698412698,692.5751366594536 404.6825396825397,691.3249085225858 409.5238095238095,689.034840312459 414.36507936507934,694.4268297265021 419.2063492063492,696.0456006304736 424.0476190476191,680.4303078449406 428.8888888888889,680.0683165541731 433.73015873015873,701.7871148460656 438.57142857142856,709.7561807808014 443.41269841269843,710.0 448.25396825396825,705.0553861487722 453.0952380952381,703.8350020048739 457.9365079365079,703.8882651524451 462.7777777777778,708.3812724569078 467.61904761904765,709.973221705893 472.46031746031747,706.8528659792239 477.3015873015873,690.864495490517 482.14285714285717,675.305223096295 486.984126984127,664.8444990618187 491.8253968253968,660.9065554358184 496.66666666666663,672.4859521489931 501.50793650793656,661.0496738268771 506.3492063492064,658.6553499458162 511.1904761904762,660.8077467302778 516.031746031746,683.4223236523532 520.8730158730159,652.7342601083586 525.7142857142858,632.389104514737 530.5555555555555,634.8048762078947 535.3968253968253,631.1864271920956 540.2380952380952,614.8715990518505 545.0793650793651,627.246057597263 549.9206349206349,623.4620416134144 554.7619047619048,627.5282222789979 559.6031746031747,639.2458722977344 564.4444444444445,639.7209418642476 569.2857142857142,640.9597515342031 574.1269841269841,636.9388942639625 578.968253968254,639.055706644975 583.8095238095239,651.4023314788333 588.6507936507936,622.7305123022857 593.4920634920634,621.3094971694705 598.3333333333334,623.9499290860441 603.1746031746031,609.5477385877048 608.015873015873,622.0727429032469 612.8571428571428,626.0590633196186 617.6984126984128,627.4884547861082 622.5396825396825,625.6760203494587 627.3809523809524,645.4153064993191 632.2222222222222,648.3631458758593 637.063492063492,650.0325458220643 641.9047619047619,648.4942119715074 646.7460317460317,648.3640150729585 651.5873015873016,650.2654434386109 656.4285714285714,645.0674748653596 661.2698412698413,645.3805226440269 666.1111111111111,651.5768546896622 670.952380952381,641.875036752216 675.7936507936508,607.738924058353 680.6349206349206,604.5141014862324 685.4761904761905,581.5565579462448 690.3174603174602,591.554731214612 695.1587301587301,581.9297164932278 700.0,580.611668653349 704.8412698412699,543.1643901371425 709.6825396825396,546.1317403898821 714.5238095238095,546.2397637356562 719.3650793650794,546.4963831938769 724.2063492063493,543.5219762716044 729.047619047619,518.124731189792 733.8888888888889,545.5564444634958 738.7301587301587,563.5986472925023 743.5714285714286,546.7260468290947 748.4126984126984,531.9205499226363 753.2539682539682,484.9207444671856 758.0952380952382,480.11739697864766 762.936507936508,422.46919986067854 767.7777777777778,372.0118206571207 772.6190476190476,355.2631966610094 777.4603174603175,398.1396600386922 782.3015873015872,374.91992086511937 787.1428571428571,395.6648789862101 791.9841269841269,380.8834937538588 796.8253968253969,427.82260403543165 801.6666666666667,419.5258818603524 806.5079365079365,448.2041332236654 811.3492063492064,431.01543965719736 816.1904761904761,427.9315047931996 821.031746031746,373.6536592234556 825.8730158730158,374.0693255948617 830.7142857142857,361.75022508902754 835.5555555555557,394.56400759109096 840.3968253968254,399.1865029548428 845.2380952380953,414.2055057990029 850.0793650793651,451.76692409570217 854.9206349206349,448.4838735912031 859.7619047619047,406.8285689342541 864.6031746031746,414.3436185221608 869.4444444444443,414.6968365297067 874.2857142857143,456.32501445040623 879.1269841269842,477.52233146775313 883.968253968254,464.4170093223902 888.8095238095239,473.3899261378706 893.6507936507936,493.780724191815 898.4920634920635,487.03559755717845 903.3333333333333,463.9687278021635 908.1746031746031,446.74538286971836 913.0158730158731,478.353343335425 917.8571428571429,478.1051160261866 922.6984126984128,440.3208203782755 927.5396825396825,441.57234697494806 932.3809523809524,435.34524238461586 937.2222222222222,393.00499295674996 942.063492063492,342.91536670138095 946.9047619047618,285.8745040237467 951.7460317460318,283.07310002580624 956.5873015873016,266.1419169793485 961.4285714285714,250.24311591788393 966.2698412698413,285.813792927584 971.1111111111111,296.56414487949957 975.952380952381,285.2399438548775 980.7936507936507,314.0187513291267 985.6349206349206,282.60997647376973 990.4761904761905,266.85388555038435 995.3174603174604,269.40896274872705 1000.1587301587301,332.34495857358837 1005.0,332.8135788975732 1009.8412698412699,322.7651532447602 1014.6825396825396,399.27209400578096 1019.5238095238095,387.35230420084497 1024.3650793650795,441.56032504835457 1029.2063492063494,422.48248398232954 1034.047619047619,410.35481776501393 1038.888888888889,437.69083787016115 1043.7301587301586,471.20043522973015 1048.5714285714284,447.5103686308947 1053.4126984126983,401.44290075360783 1058.2539682539682,387.44605398945356 1063.095238095238,335.93808347314746 1067.936507936508,308.3227809665361 1072.7777777777778,271.5001312781846 1077.6190476190477,295.77293901247316 1082.4603174603176,326.20698530619546 1087.3015873015872,294.3356617664953 1092.142857142857,307.2504678709282 1096.9841269841268,306.7575849300725 1101.8253968253969,284.41557110090156 1106.6666666666667,234.7510655295426 1111.5079365079364,183.49527523457084 1116.3492063492063,169.28681908827764 1121.1904761904761,178.97502104487683 1126.031746031746,156.7228260396438 1130.873015873016,104.5410354069312 1135.7142857142856,148.46529681565562 1140.5555555555557,126.44192898102187 1145.3968253968255,148.29645207556712 1150.2380952380952,121.07688114135726 1155.079365079365,106.62047279467902 1159.920634920635,184.09901970256112 1164.7619047619048,102.8941736394886 1169.6031746031745,108.09773023511877 1174.4444444444443,184.3270583168486 1179.2857142857144,181.18339422089264 1184.126984126984,190.74920414432734 1188.968253968254,249.3808670033905 1193.8095238095239,260.85119890933856 1198.6507936507937,330.9982341989686 1203.4920634920634,302.44277726425173 1208.3333333333333,291.0192233067303 1213.1746031746031,281.8111190842902 1218.015873015873,334.584436796205 1222.857142857143,323.61584801553755 1227.6984126984128,311.39570316478364 1232.5396825396826,296.5368977757468 1237.3809523809523,266.4129231921459 1242.2222222222222,313.0627594052388 1247.063492063492,338.13588516367315 1251.904761904762,479.8420914017599 1256.7460317460318,460.0981723238286 1261.5873015873017,457.61325005488305 1266.4285714285716,449.9799801544989 1271.2698412698412,436.20594006497106 1276.111111111111,437.21401874681527 1280.952380952381,434.2241965442165 1285.7936507936508,443.74283455968225 1290.6349206349205,449.602960768404 1295.4761904761906,424.5356505208116 1300.3174603174602,402.25045062757897 1305.1587301587301,394.08104754070115 1310.0,405.7404760290746" fill="none" stroke="#92400e" stroke-width="2.5"><title>budgeted_btc_defensive_eth_aggressive | end=2026-04-30 | return=48.10%</title></polyline>
</svg>