<svg xmlns="http://www.w3.org/2000/svg" width="1400" height="800">
<rect width="1400" height="800" fill="#f8fafc"/>
<text x="700.0" y="42" text-anchor="middle" font-family="monospace" font-size="24" fill="#0f172a">Portfolio Value Over Time | start=2025-01-01 | interval=7d</text>
<line x1="90" y1="710" x2="1310" y2="710" stroke="#334155" stroke-width="2"/>
<line x1="90" y1="90" x2="90" y2="710" stroke="#334155" stroke-width="2"/>
<line x1="90.0" y1="710" x2="90.0" y2="90" stroke="#cbd5e1" stroke-width="1"/>
<text x="90.0" y="734" text-anchor="middle" font-family="monospace" font-size="11" fill="#475569">2025-01-01</text>
<line x1="90" y1="710.0" x2="1310" y2="710.0" stroke="#cbd5e1" stroke-width="1"/>
<text x="78" y="714.0" text-anchor="end" font-family="monospace" font-size="12" fill="#475569">7422</text>
<line x1="334.0" y1="710" x2="334.0" y2="90" stroke="#cbd5e1" stroke-width="1"/>
<text x="334.0" y="734" text-anchor="middle" font-family="monospace" font-size="11" fill="#475569">2025-04-09</text>
<line x1="90" y1="586.0" x2="1310" y2="586.0" stroke="#cbd5e1" stroke-width="1"/>
<text x="78" y="590.0" text-anchor="end" font-family="monospace" font-size="12" fill="#475569">8823</text>
<line x1="578.0" y1="710" x2="578.0" y2="90" stroke="#cbd5e1" stroke-width="1"/>
<text x="578.0" y="734" text-anchor="middle" font-family="monospace" font-size="11" fill="#475569">2025-07-16</text>
<line x1="90" y1="461.99999999999994" x2="1310" y2="461.99999999999994" stroke="#cbd5e1" stroke-width="1"/>
<text x="78" y="465.99999999999994" text-anchor="end" font-family="monospace" font-size="12" fill="#475569">10223</text>
<line x1="822.0" y1="710" x2="822.0" y2="90" stroke="#cbd5e1" stroke-width="1"/>
<text x="822.0" y="734" text-anchor="middle" font-family="monospace" font-size="11" fill="#475569">2025-10-15</text>
<line x1="90" y1="338.0" x2="1310" y2="338.0" stroke="#cbd5e1" stroke-width="1"/>
<text x="78" y="342.0" text-anchor="end" font-family="monospace" font-size="12" fill="#475569">11623</text>
<line x1="1066.0" y1="710" x2="1066.0" y2="90" stroke="#cbd5e1" stroke-width="1"/>
<text x="1066.0" y="734" text-anchor="middle" font-family="monospace" font-size="11" fill="#475569">2026-01-21</text>
<line x1="90" y1="213.9999999999999" x2="1310" y2="213.9999999999999" stroke="#cbd5e1" stroke-width="1"/>
<text x="78" y="217.9999999999999" text-anchor="end" font-family="monospace" font-size="12" fill="#475569">13023</text>
<line x1="1310.0" y1="710" x2="1310.0" y2="90" stroke="#cbd5e1" stroke-width="1"/>
<text x="1310.0" y="734" text-anchor="middle" font-family="monospace" font-size="11" fill="#475569">2026-04-29</text>
<line x1="90" y1="90.0" x2="1310" y2="90.0" stroke="#cbd5e1" stroke-width="1"/>
<text x="78" y="94.0" text-anchor="end" font-family="monospace" font-size="12" fill="#475569">14423</text>
<text x="700.0" y="782" text-anchor="middle" font-family="monospace" font-size="16" fill="#0f172a">time</text>
<text x="24" y="400.0" transform="rotate(-90 24,400.0)" text-anchor="middle" font-family="monospace" font-size="16" fill="#0f172a">portfolio_value_usd</text>
<line x1="970" y1="80" x2="988" y2="80" stroke="#0f766e" stroke-width="3"/>
<text x="998" y="84" font-family="monospace" font-size="12" fill="#0f172a">budgeted_static_50_50_rebalance</text>
<line x1="970" y1="104" x2="988" y2="104" stroke="#9333ea" stroke-width="3"/>
<text x="998" y="108" font-family="monospace" font-size="12" fill="#0f172a">budgeted_drawdown_tilt_rebalance</text>
<line x1="970" y1="128" x2="988" y2="128" stroke="#92400e" stroke-width="3"/>
<text x="998" y="132" font-family="monospace" font-size="12" fill="#0f172a">budgeted_btc_defensive_eth_aggressive</text>
<polyline points="90.0,481.7242771610794 107.68115942028986,481.73186049928904 125.36231884057972,480.4657178226409 143.04347826086956,481.05509540798187 160.72463768115944,482.04579772204386 178.40579710144928,487.708197870352 196.08695652173913,487.83446023783347 213.768115942029,488.7612349701561 231.44927536231884,502.14881352821453 249.1304347826087,499.9767646302065 266.81159420289856,512.5052574622957 284.4927536231884,506.0508496228738 302.17391304347825,507.42364987375856 319.8550724637681,518.6550170814936 337.536231884058,523.1738856602541 355.2173913043478,525.3753286697097 372.8985507246377,504.2155366453925 390.57971014492756,503.7738961857641 408.2608695652174,499.0977688518302 425.94202898550725,445.3421926433542 443.6231884057971,439.92745669877553 461.304347826087,434.7539358315729 478.98550724637676,444.19758172078156 496.66666666666663,427.0112605737812 514.3478260869565,450.292621436262 532.0289855072464,453.4694964646549 549.7101449275362,439.58898294943305 567.3913043478261,419.878341965036 585.072463768116,357.90419114344513 602.7536231884058,336.80943245219913 620.4347826086956,323.891384798943 638.1159420289855,340.48394862934015 655.7971014492754,230.26556011497723 673.4782608695652,286.7970377997346 691.1594202898551,278.42223749472566 708.840579710145,282.2034255071836 726.5217391304348,286.3343576484995 744.2028985507247,257.4987425546371 761.8840579710145,307.0943445272054 779.5652173913043,274.44155520778224 797.2463768115942,244.78864922911856 814.927536231884,332.1021048582588 832.608695652174,359.2414868917863 850.2898550724638,342.28912840416893 867.9710144927535,409.9456869409817 885.6521739130435,417.6002810934436 903.3333333333333,490.4896705980462 921.0144927536232,493.2072176715634 938.695652173913,465.44155487377805 956.376811594203,454.9082165950462 974.0579710144928,530.1740911957195 991.7391304347825,512.3444515171101 1009.4202898550725,510.2403048291884 1027.1014492753623,472.9996748995431 1044.7826086956522,429.39621150067336 1062.463768115942,501.63598871688373 1080.144927536232,499.3503086156983 1097.8260869565217,661.6359937917119 1115.5072463768115,709.625023738968 1133.1884057971015,710.0 1150.8695652173913,690.3566763342751 1168.5507246376812,662.6172580290319 1186.231884057971,682.3183753251035 1203.9130434782608,658.1668501022099 1221.5942028985507,662.6286567212518 1239.2753623188405,678.9038875940282 1256.9565217391305,660.4466303973124 1274.6376811594203,623.16621161613 1292.3188405797102,607.8252204178705 1310.0,633.5807889522703" fill="none" stroke="#0f766e" stroke-width="2.5"><title>budgeted_static_50_50_rebalance | end=2026-04-29 | return=-17.15%</title></polyline>
<polyline points="90.0,481.7242771610794 107.68115942028986,481.7347841258983 125.36231884057972,480.79949681809126 143.04347826086956,481.3547667926106 160.72463768115944,482.17958061458626 178.40579710144928,486.52040161011394 196.08695652173913,486.7819504134626 213.768115942029,487.6071061984921 231.44927536231884,500.8107530448024 249.1304347826087,499.79389166855094 266.81159420289856,513.9146733542686 284.4927536231884,506.10782960320546 302.17391304347825,508.13212315016267 319.8550724637681,522.3302893052909 337.536231884058,529.4502880277155 355.2173913043478,534.1587719289637 372.8985507246377,507.11854914965375 390.57971014492756,506.7978867190725 408.2608695652174,501.6840842828477 425.94202898550725,411.7732076504412 443.6231884057971,409.8199684015339 461.304347826087,397.89196478197704 478.98550724637676,410.7685696652246 496.66666666666663,385.2784810830099 514.3478260869565,421.78269648651604 532.0289855072464,431.3339490324059 549.7101449275362,408.6514233692291 567.3913043478261,377.03870315078717 585.072463768116,277.9083168532564 602.7536231884058,241.08268711622537 620.4347826086956,218.3011208471824 638.1159420289855,240.0913972780283 655.7971014492754,90.0 673.4782608695652,156.71923374520304 691.1594202898551,142.71951744043872 708.840579710145,147.79632964002644 726.5217391304348,154.52616898299073 744.2028985507247,124.79188864026662 761.8840579710145,174.66011323987266 779.5652173913043,145.24637564008844 797.2463768115942,119.20582350114819 814.927536231884,194.63922367667908 832.608695652174,218.50931458565373 850.2898550724638,204.01354252588055 867.9710144927535,264.5716149918089 885.6521739130435,270.1986527099535 903.3333333333333,333.5873785553824 921.0144927536232,335.4380441681451 938.695652173913,310.09396033070817 956.376811594203,297.84884069455757 974.0579710144928,370.82982155014724 991.7391304347825,353.4390987362635 1009.4202898550725,351.0088351592758 1027.1014492753623,314.9616553960098 1044.7826086956522,273.8207924428933 1062.463768115942,346.6341939793797 1080.144927536232,343.5866662771163 1097.8260869565217,515.6793910292951 1115.5072463768115,565.09866936047 1133.1884057971015,564.7702824456392 1150.8695652173913,542.7951951694356 1168.5507246376812,513.9135600332502 1186.231884057971,536.3012937550354 1203.9130434782608,505.31458802978176 1221.5942028985507,511.59206278792317 1239.2753623188405,530.3284620312947 1256.9565217391305,507.57441439880756 1274.6376811594203,456.5011937538384 1292.3188405797102,437.4940849464616 1310.0,474.74228891963617" fill="none" stroke="#9333ea" stroke-width="2.5"><title>budgeted_drawdown_tilt_rebalance | end=2026-04-29 | return=0.79%</title></polyline>
<polyline points="90.0,481.7242771610794 107.68115942028986,481.7150396865345 125.36231884057972,480.7250225475983 143.04347826086956,480.8832184293931 160.72463768115944,481.4711381912242 178.40579710144928,485.5818560090279 196.08695652173913,485.50953938788416 213.768115942029,486.23949599959997 231.44927536231884,496.29956598831825 249.1304347826087,493.7912323504545 266.81159420289856,502.75013218035616 284.4927536231884,498.1325803259262 302.17391304347825,498.94403751578074 319.8550724637681,506.9129594508495 337.536231884058,509.8636770354921 355.2173913043478,510.93390176905154 372.8985507246377,491.1877250266 390.57971014492756,490.67890518148647 408.2608695652174,486.00030060507436 425.94202898550725,443.9710017758486 443.6231884057971,437.15539692393503 461.304347826087,434.372264947302 478.98550724637676,442.6574313808381 496.66666666666663,428.4268156363451 514.3478260869565,446.91950026092434 532.0289855072464,447.7988557487058 549.7101449275362,437.2227248159173 567.3913043478261,422.06781257089125 585.072463768116,374.3952575327342 602.7536231884058,359.5410697598738 620.4347826086956,351.05136309529075 638.1159420289855,364.35448270348417 655.7971014492754,281.9003640381128 673.4782608695652,327.06869957130135 691.1594202898551,322.943873421951 708.840579710145,325.3160920812089 726.5217391304348,326.9184541149354 744.2028985507247,305.0421956713202 761.8840579710145,342.0172169807618 779.5652173913043,315.7253602133796 797.2463768115942,291.910338590932 814.927536231884,361.411347593484 832.608695652174,382.6595504399068 850.2898550724638,369.0248414551835 867.9710144927535,421.6647800259705 885.6521739130435,428.3929439677632 903.3333333333333,487.958756915162 921.0144927536232,490.5977365032513 938.695652173913,467.65886109798464 956.376811594203,460.93627805396636 974.0579710144928,522.893880310174 991.7391304347825,508.01656419105973 1009.4202898550725,506.55813314629887 1027.1014492753623,473.773372035278 1044.7826086956522,433.3678505504409 1062.463768115942,498.3725606926585 1080.144927536232,496.92509860236356 1097.8260869565217,642.3062234562943 1115.5072463768115,687.5101108971379 1133.1884057971015,688.6888232582618 1150.8695652173913,671.2806522350519 1168.5507246376812,642.8801869804494 1186.231884057971,661.7862435696123 1203.9130434782608,641.6314846013976 1221.5942028985507,644.995601424164 1239.2753623188405,662.3891063106287 1256.9565217391305,643.5978521470653 1274.6376811594203,608.9513422124348 1292.3188405797102,591.9407527035107 1310.0,615.8321156398027" fill="none" stroke="#92400e" stroke-width="2.5"><title>budgeted_btc_defensive_eth_aggressive | end=2026-04-29 | return=-15.14%</title></polyline>
</svg>