<svg xmlns="http://www.w3.org/2000/svg" width="1400" height="800">
<rect width="1400" height="800" fill="#f8fafc"/>
<text x="700.0" y="42" text-anchor="middle" font-family="monospace" font-size="24" fill="#0f172a">budgeted_btc_defensive_eth_aggressive | weekly | start=2024-04-01 | return=7.10%</text>
<line x1="90" y1="420" x2="1310" y2="420" stroke="#334155" stroke-width="2"/>
<line x1="90" y1="90" x2="90" y2="420" stroke="#334155" stroke-width="2"/>
<line x1="90.0" y1="420" x2="90.0" y2="90" stroke="#94a3b8" stroke-width="1.2"/>
<line x1="90.0" y1="605" x2="90.0" y2="480" stroke="#94a3b8" stroke-width="1.2"/>
<line x1="90.0" y1="770" x2="90.0" y2="645" stroke="#94a3b8" stroke-width="1.2"/>
<text x="90.0" y="788" text-anchor="middle" font-family="monospace" font-size="11" fill="#334155">2024-04</text>
<line x1="145.96330275229357" y1="420" x2="145.96330275229357" y2="90" stroke="#94a3b8" stroke-width="1.2"/>
<line x1="145.96330275229357" y1="605" x2="145.96330275229357" y2="480" stroke="#94a3b8" stroke-width="1.2"/>
<line x1="145.96330275229357" y1="770" x2="145.96330275229357" y2="645" stroke="#94a3b8" stroke-width="1.2"/>
<text x="145.96330275229357" y="788" text-anchor="middle" font-family="monospace" font-size="11" fill="#334155">2024-05</text>
<line x1="190.73394495412845" y1="420" x2="190.73394495412845" y2="90" stroke="#94a3b8" stroke-width="1.2"/>
<line x1="190.73394495412845" y1="605" x2="190.73394495412845" y2="480" stroke="#94a3b8" stroke-width="1.2"/>
<line x1="190.73394495412845" y1="770" x2="190.73394495412845" y2="645" stroke="#94a3b8" stroke-width="1.2"/>
<text x="190.73394495412845" y="788" text-anchor="middle" font-family="monospace" font-size="11" fill="#334155">2024-06</text>
<line x1="235.50458715596332" y1="420" x2="235.50458715596332" y2="90" stroke="#94a3b8" stroke-width="1.2"/>
<line x1="235.50458715596332" y1="605" x2="235.50458715596332" y2="480" stroke="#94a3b8" stroke-width="1.2"/>
<line x1="235.50458715596332" y1="770" x2="235.50458715596332" y2="645" stroke="#94a3b8" stroke-width="1.2"/>
<text x="235.50458715596332" y="788" text-anchor="middle" font-family="monospace" font-size="11" fill="#334155">2024-07</text>
<line x1="291.4678899082569" y1="420" x2="291.4678899082569" y2="90" stroke="#94a3b8" stroke-width="1.2"/>
<line x1="291.4678899082569" y1="605" x2="291.4678899082569" y2="480" stroke="#94a3b8" stroke-width="1.2"/>
<line x1="291.4678899082569" y1="770" x2="291.4678899082569" y2="645" stroke="#94a3b8" stroke-width="1.2"/>
<text x="291.4678899082569" y="788" text-anchor="middle" font-family="monospace" font-size="11" fill="#334155">2024-08</text>
<line x1="336.2385321100918" y1="420" x2="336.2385321100918" y2="90" stroke="#94a3b8" stroke-width="1.2"/>
<line x1="336.2385321100918" y1="605" x2="336.2385321100918" y2="480" stroke="#94a3b8" stroke-width="1.2"/>
<line x1="336.2385321100918" y1="770" x2="336.2385321100918" y2="645" stroke="#94a3b8" stroke-width="1.2"/>
<text x="336.2385321100918" y="788" text-anchor="middle" font-family="monospace" font-size="11" fill="#334155">2024-09</text>
<line x1="392.20183486238534" y1="420" x2="392.20183486238534" y2="90" stroke="#94a3b8" stroke-width="1.2"/>
<line x1="392.20183486238534" y1="605" x2="392.20183486238534" y2="480" stroke="#94a3b8" stroke-width="1.2"/>
<line x1="392.20183486238534" y1="770" x2="392.20183486238534" y2="645" stroke="#94a3b8" stroke-width="1.2"/>
<text x="392.20183486238534" y="788" text-anchor="middle" font-family="monospace" font-size="11" fill="#334155">2024-10</text>
<line x1="436.9724770642202" y1="420" x2="436.9724770642202" y2="90" stroke="#94a3b8" stroke-width="1.2"/>
<line x1="436.9724770642202" y1="605" x2="436.9724770642202" y2="480" stroke="#94a3b8" stroke-width="1.2"/>
<line x1="436.9724770642202" y1="770" x2="436.9724770642202" y2="645" stroke="#94a3b8" stroke-width="1.2"/>
<text x="436.9724770642202" y="788" text-anchor="middle" font-family="monospace" font-size="11" fill="#334155">2024-11</text>
<line x1="481.7431192660551" y1="420" x2="481.7431192660551" y2="90" stroke="#94a3b8" stroke-width="1.2"/>
<line x1="481.7431192660551" y1="605" x2="481.7431192660551" y2="480" stroke="#94a3b8" stroke-width="1.2"/>
<line x1="481.7431192660551" y1="770" x2="481.7431192660551" y2="645" stroke="#94a3b8" stroke-width="1.2"/>
<text x="481.7431192660551" y="788" text-anchor="middle" font-family="monospace" font-size="11" fill="#334155">2024-12</text>
<line x1="537.7064220183486" y1="420" x2="537.7064220183486" y2="90" stroke="#94a3b8" stroke-width="1.2"/>
<line x1="537.7064220183486" y1="605" x2="537.7064220183486" y2="480" stroke="#94a3b8" stroke-width="1.2"/>
<line x1="537.7064220183486" y1="770" x2="537.7064220183486" y2="645" stroke="#94a3b8" stroke-width="1.2"/>
<text x="537.7064220183486" y="788" text-anchor="middle" font-family="monospace" font-size="11" fill="#334155">2025-01</text>
<line x1="582.4770642201836" y1="420" x2="582.4770642201836" y2="90" stroke="#94a3b8" stroke-width="1.2"/>
<line x1="582.4770642201836" y1="605" x2="582.4770642201836" y2="480" stroke="#94a3b8" stroke-width="1.2"/>
<line x1="582.4770642201836" y1="770" x2="582.4770642201836" y2="645" stroke="#94a3b8" stroke-width="1.2"/>
<text x="582.4770642201836" y="788" text-anchor="middle" font-family="monospace" font-size="11" fill="#334155">2025-02</text>
<line x1="627.2477064220184" y1="420" x2="627.2477064220184" y2="90" stroke="#94a3b8" stroke-width="1.2"/>
<line x1="627.2477064220184" y1="605" x2="627.2477064220184" y2="480" stroke="#94a3b8" stroke-width="1.2"/>
<line x1="627.2477064220184" y1="770" x2="627.2477064220184" y2="645" stroke="#94a3b8" stroke-width="1.2"/>
<text x="627.2477064220184" y="788" text-anchor="middle" font-family="monospace" font-size="11" fill="#334155">2025-03</text>
<line x1="683.2110091743119" y1="420" x2="683.2110091743119" y2="90" stroke="#94a3b8" stroke-width="1.2"/>
<line x1="683.2110091743119" y1="605" x2="683.2110091743119" y2="480" stroke="#94a3b8" stroke-width="1.2"/>
<line x1="683.2110091743119" y1="770" x2="683.2110091743119" y2="645" stroke="#94a3b8" stroke-width="1.2"/>
<text x="683.2110091743119" y="788" text-anchor="middle" font-family="monospace" font-size="11" fill="#334155">2025-04</text>
<line x1="727.9816513761467" y1="420" x2="727.9816513761467" y2="90" stroke="#94a3b8" stroke-width="1.2"/>
<line x1="727.9816513761467" y1="605" x2="727.9816513761467" y2="480" stroke="#94a3b8" stroke-width="1.2"/>
<line x1="727.9816513761467" y1="770" x2="727.9816513761467" y2="645" stroke="#94a3b8" stroke-width="1.2"/>
<text x="727.9816513761467" y="788" text-anchor="middle" font-family="monospace" font-size="11" fill="#334155">2025-05</text>
<line x1="772.7522935779816" y1="420" x2="772.7522935779816" y2="90" stroke="#94a3b8" stroke-width="1.2"/>
<line x1="772.7522935779816" y1="605" x2="772.7522935779816" y2="480" stroke="#94a3b8" stroke-width="1.2"/>
<line x1="772.7522935779816" y1="770" x2="772.7522935779816" y2="645" stroke="#94a3b8" stroke-width="1.2"/>
<text x="772.7522935779816" y="788" text-anchor="middle" font-family="monospace" font-size="11" fill="#334155">2025-06</text>
<line x1="828.7155963302753" y1="420" x2="828.7155963302753" y2="90" stroke="#94a3b8" stroke-width="1.2"/>
<line x1="828.7155963302753" y1="605" x2="828.7155963302753" y2="480" stroke="#94a3b8" stroke-width="1.2"/>
<line x1="828.7155963302753" y1="770" x2="828.7155963302753" y2="645" stroke="#94a3b8" stroke-width="1.2"/>
<text x="828.7155963302753" y="788" text-anchor="middle" font-family="monospace" font-size="11" fill="#334155">2025-07</text>
<line x1="873.4862385321102" y1="420" x2="873.4862385321102" y2="90" stroke="#94a3b8" stroke-width="1.2"/>
<line x1="873.4862385321102" y1="605" x2="873.4862385321102" y2="480" stroke="#94a3b8" stroke-width="1.2"/>
<line x1="873.4862385321102" y1="770" x2="873.4862385321102" y2="645" stroke="#94a3b8" stroke-width="1.2"/>
<text x="873.4862385321102" y="788" text-anchor="middle" font-family="monospace" font-size="11" fill="#334155">2025-08</text>
<line x1="918.256880733945" y1="420" x2="918.256880733945" y2="90" stroke="#94a3b8" stroke-width="1.2"/>
<line x1="918.256880733945" y1="605" x2="918.256880733945" y2="480" stroke="#94a3b8" stroke-width="1.2"/>
<line x1="918.256880733945" y1="770" x2="918.256880733945" y2="645" stroke="#94a3b8" stroke-width="1.2"/>
<text x="918.256880733945" y="788" text-anchor="middle" font-family="monospace" font-size="11" fill="#334155">2025-09</text>
<line x1="974.2201834862385" y1="420" x2="974.2201834862385" y2="90" stroke="#94a3b8" stroke-width="1.2"/>
<line x1="974.2201834862385" y1="605" x2="974.2201834862385" y2="480" stroke="#94a3b8" stroke-width="1.2"/>
<line x1="974.2201834862385" y1="770" x2="974.2201834862385" y2="645" stroke="#94a3b8" stroke-width="1.2"/>
<text x="974.2201834862385" y="788" text-anchor="middle" font-family="monospace" font-size="11" fill="#334155">2025-10</text>
<line x1="1018.9908256880734" y1="420" x2="1018.9908256880734" y2="90" stroke="#94a3b8" stroke-width="1.2"/>
<line x1="1018.9908256880734" y1="605" x2="1018.9908256880734" y2="480" stroke="#94a3b8" stroke-width="1.2"/>
<line x1="1018.9908256880734" y1="770" x2="1018.9908256880734" y2="645" stroke="#94a3b8" stroke-width="1.2"/>
<text x="1018.9908256880734" y="788" text-anchor="middle" font-family="monospace" font-size="11" fill="#334155">2025-11</text>
<line x1="1063.761467889908" y1="420" x2="1063.761467889908" y2="90" stroke="#94a3b8" stroke-width="1.2"/>
<line x1="1063.761467889908" y1="605" x2="1063.761467889908" y2="480" stroke="#94a3b8" stroke-width="1.2"/>
<line x1="1063.761467889908" y1="770" x2="1063.761467889908" y2="645" stroke="#94a3b8" stroke-width="1.2"/>
<text x="1063.761467889908" y="788" text-anchor="middle" font-family="monospace" font-size="11" fill="#334155">2025-12</text>
<line x1="1119.724770642202" y1="420" x2="1119.724770642202" y2="90" stroke="#94a3b8" stroke-width="1.2"/>
<line x1="1119.724770642202" y1="605" x2="1119.724770642202" y2="480" stroke="#94a3b8" stroke-width="1.2"/>
<line x1="1119.724770642202" y1="770" x2="1119.724770642202" y2="645" stroke="#94a3b8" stroke-width="1.2"/>
<text x="1119.724770642202" y="788" text-anchor="middle" font-family="monospace" font-size="11" fill="#334155">2026-01</text>
<line x1="1164.4954128440368" y1="420" x2="1164.4954128440368" y2="90" stroke="#94a3b8" stroke-width="1.2"/>
<line x1="1164.4954128440368" y1="605" x2="1164.4954128440368" y2="480" stroke="#94a3b8" stroke-width="1.2"/>
<line x1="1164.4954128440368" y1="770" x2="1164.4954128440368" y2="645" stroke="#94a3b8" stroke-width="1.2"/>
<text x="1164.4954128440368" y="788" text-anchor="middle" font-family="monospace" font-size="11" fill="#334155">2026-02</text>
<line x1="1209.2660550458716" y1="420" x2="1209.2660550458716" y2="90" stroke="#94a3b8" stroke-width="1.2"/>
<line x1="1209.2660550458716" y1="605" x2="1209.2660550458716" y2="480" stroke="#94a3b8" stroke-width="1.2"/>
<line x1="1209.2660550458716" y1="770" x2="1209.2660550458716" y2="645" stroke="#94a3b8" stroke-width="1.2"/>
<text x="1209.2660550458716" y="788" text-anchor="middle" font-family="monospace" font-size="11" fill="#334155">2026-03</text>
<line x1="1265.2293577981652" y1="420" x2="1265.2293577981652" y2="90" stroke="#94a3b8" stroke-width="1.2"/>
<line x1="1265.2293577981652" y1="605" x2="1265.2293577981652" y2="480" stroke="#94a3b8" stroke-width="1.2"/>
<line x1="1265.2293577981652" y1="770" x2="1265.2293577981652" y2="645" stroke="#94a3b8" stroke-width="1.2"/>
<text x="1265.2293577981652" y="788" text-anchor="middle" font-family="monospace" font-size="11" fill="#334155">2026-04</text>
<line x1="1310.0" y1="420" x2="1310.0" y2="90" stroke="#94a3b8" stroke-width="1.2"/>
<line x1="1310.0" y1="605" x2="1310.0" y2="480" stroke="#94a3b8" stroke-width="1.2"/>
<line x1="1310.0" y1="770" x2="1310.0" y2="645" stroke="#94a3b8" stroke-width="1.2"/>
<text x="1310.0" y="788" text-anchor="middle" font-family="monospace" font-size="11" fill="#334155">2026-05</text>
<line x1="90" y1="420.0" x2="1310" y2="420.0" stroke="#cbd5e1" stroke-width="1"/>
<text x="78" y="424.0" text-anchor="end" font-family="monospace" font-size="12" fill="#475569">0</text>
<line x1="90" y1="354.0" x2="1310" y2="354.0" stroke="#cbd5e1" stroke-width="1"/>
<text x="78" y="358.0" text-anchor="end" font-family="monospace" font-size="12" fill="#475569">3491</text>
<line x1="90" y1="288.0" x2="1310" y2="288.0" stroke="#cbd5e1" stroke-width="1"/>
<text x="78" y="292.0" text-anchor="end" font-family="monospace" font-size="12" fill="#475569">6982</text>
<line x1="90" y1="222.0" x2="1310" y2="222.0" stroke="#cbd5e1" stroke-width="1"/>
<text x="78" y="226.0" text-anchor="end" font-family="monospace" font-size="12" fill="#475569">10472</text>
<line x1="90" y1="156.0" x2="1310" y2="156.0" stroke="#cbd5e1" stroke-width="1"/>
<text x="78" y="160.0" text-anchor="end" font-family="monospace" font-size="12" fill="#475569">13963</text>
<line x1="90" y1="90.0" x2="1310" y2="90.0" stroke="#cbd5e1" stroke-width="1"/>
<text x="78" y="94.0" text-anchor="end" font-family="monospace" font-size="12" fill="#475569">17454</text>
<polygon points="90.0,233.0598313678788 101.19266055045871,235.186837079243 112.38532110091744,237.31384279060717 123.57798165137615,239.4408485019714 134.77064220183487,241.5678542133356 145.96330275229357,243.6948599246998 157.1559633027523,245.82186563606405 168.348623853211,247.94887134742825 179.54128440366975,250.07587705879246 190.73394495412845,252.20288277015666 201.92660550458714,254.3298884815209 213.1192660550459,256.4568941928851 224.3119266055046,259.52923577596675 235.50458715596332,261.65624148733093 246.69724770642202,265.9102529100594 257.88990825688074,268.0372586214236 269.0825688073395,270.16426433278775 280.27522935779814,272.29127004415204 291.4678899082569,276.5452814668804 302.66055045871565,280.79929288960886 313.8532110091743,285.0533043123372 325.04587155963304,289.3073157350657 336.2385321100918,293.5613271577941 347.4311926605505,297.8153385805225 358.6238532110092,302.069350003251 369.8165137614679,306.3233614259794 381.00917431192664,310.5773728487078 392.20183486238534,314.83138427143626 403.39449541284404,316.95838998280044 414.5871559633028,319.0853956941646 425.7798165137615,321.21240140552885 436.9724770642202,323.3394071168931 448.16513761467894,325.46641282825726 459.35779816513764,327.5934185396215 470.55045871559633,329.72042425098573 481.7431192660551,331.8474299623499 492.9357798165138,333.97443567371414 504.1284403669725,336.1014413850783 515.3211009174313,338.22844709644255 526.5137614678899,340.3554528078067 537.7064220183486,342.48245851917096 548.8990825688074,344.6094642305352 560.0917431192661,346.7364699418994 571.2844036697247,348.8634756532636 582.4770642201836,350.99048136462784 593.6697247706422,353.117487075992 604.862385321101,355.24449278735625 616.0550458715596,357.3714984987204 627.2477064220184,359.49850421008466 638.4403669724771,363.7525156328131 649.6330275229358,368.0065270555415 660.8256880733945,370.1335327669057 672.0183486238533,374.3875441896341 683.2110091743119,378.64155561236254 694.4036697247707,381.7698108892345 705.5963302752293,384.4058922094024 716.7889908256881,386.53289792076663 727.9816513761467,388.65990363213086 739.1743119266056,390.5835644039145 750.3669724770642,391.3570121674634 761.559633027523,391.3570121674634 772.7522935779816,392.3211491393666 783.9449541284404,394.4481548507308 795.137614678899,394.4481548507308 806.3302752293579,394.4481548507308 817.5229357798165,394.4481548507308 828.7155963302753,394.4481548507308 839.9082568807339,396.57516056209505 851.1009174311927,394.97138843736053 862.2935779816513,393.47209537282845 873.4862385321102,392.16626452639053 884.6788990825688,390.7040288182759 895.8715596330276,390.20377083800406 907.0642201834862,390.5612111832144 918.256880733945,390.5904179429809 929.4495412844036,389.4341402537721 940.6422018348625,388.4821695775512 951.8348623853211,387.3986807439704 963.0275229357799,386.37360360214984 974.2201834862385,385.1037153139779 985.4128440366973,384.23766786525874 996.6055045871559,384.23766786525874 1007.7981651376148,383.50580952411804 1018.9908256880734,383.50580952411804 1030.1834862385322,383.50580952411804 1041.3761467889908,384.9157370277748 1052.5688073394494,386.28661759789685 1063.761467889908,386.71217661872726 1074.9541284403672,387.75930231511535 1086.1467889908258,388.5445171755977 1097.3394495412845,388.7109286937627 1108.532110091743,388.7582939271468 1119.724770642202,388.7582939271468 1130.9174311926606,388.7582939271468 1142.1100917431193,388.8453545311598 1153.302752293578,388.8453545311598 1164.4954128440368,388.8453545311598 1175.6880733944954,388.8453545311598 1186.8807339449543,388.8453545311598 1198.073394495413,388.8453545311598 1209.2660550458716,388.8453545311598 1220.4587155963302,388.8453545311598 1231.651376146789,388.8453545311598 1242.8440366972477,388.8453545311598 1254.0366972477066,388.8453545311598 1265.2293577981652,388.8453545311598 1276.4220183486239,388.85208064892254 1287.6146788990825,388.85208064892254 1298.8073394495414,388.85208064892254 1310.0,388.85208064892254 1310.0,420.0 1298.8073394495414,420.0 1287.6146788990825,420.0 1276.4220183486239,420.0 1265.2293577981652,420.0 1254.0366972477066,420.0 1242.8440366972477,420.0 1231.651376146789,420.0 1220.4587155963302,420.0 1209.2660550458716,420.0 1198.073394495413,420.0 1186.8807339449543,420.0 1175.6880733944954,420.0 1164.4954128440368,420.0 1153.302752293578,420.0 1142.1100917431193,420.0 1130.9174311926606,420.0 1119.724770642202,420.0 1108.532110091743,420.0 1097.3394495412845,420.0 1086.1467889908258,420.0 1074.9541284403672,420.0 1063.761467889908,420.0 1052.5688073394494,420.0 1041.3761467889908,420.0 1030.1834862385322,420.0 1018.9908256880734,420.0 1007.7981651376148,420.0 996.6055045871559,420.0 985.4128440366973,420.0 974.2201834862385,420.0 963.0275229357799,420.0 951.8348623853211,420.0 940.6422018348625,420.0 929.4495412844036,420.0 918.256880733945,420.0 907.0642201834862,420.0 895.8715596330276,420.0 884.6788990825688,420.0 873.4862385321102,420.0 862.2935779816513,420.0 851.1009174311927,420.0 839.9082568807339,420.0 828.7155963302753,420.0 817.5229357798165,420.0 806.3302752293579,420.0 795.137614678899,420.0 783.9449541284404,420.0 772.7522935779816,420.0 761.559633027523,420.0 750.3669724770642,420.0 739.1743119266056,420.0 727.9816513761467,420.0 716.7889908256881,420.0 705.5963302752293,420.0 694.4036697247707,420.0 683.2110091743119,420.0 672.0183486238533,420.0 660.8256880733945,420.0 649.6330275229358,420.0 638.4403669724771,420.0 627.2477064220184,420.0 616.0550458715596,420.0 604.862385321101,420.0 593.6697247706422,420.0 582.4770642201836,420.0 571.2844036697247,420.0 560.0917431192661,420.0 548.8990825688074,420.0 537.7064220183486,420.0 526.5137614678899,420.0 515.3211009174313,420.0 504.1284403669725,420.0 492.9357798165138,420.0 481.7431192660551,420.0 470.55045871559633,420.0 459.35779816513764,420.0 448.16513761467894,420.0 436.9724770642202,420.0 425.7798165137615,420.0 414.5871559633028,420.0 403.39449541284404,420.0 392.20183486238534,420.0 381.00917431192664,420.0 369.8165137614679,420.0 358.6238532110092,420.0 347.4311926605505,420.0 336.2385321100918,420.0 325.04587155963304,420.0 313.8532110091743,420.0 302.66055045871565,420.0 291.4678899082569,420.0 280.27522935779814,420.0 269.0825688073395,420.0 257.88990825688074,420.0 246.69724770642202,420.0 235.50458715596332,420.0 224.3119266055046,420.0 213.1192660550459,420.0 201.92660550458714,420.0 190.73394495412845,420.0 179.54128440366975,420.0 168.348623853211,420.0 157.1559633027523,420.0 145.96330275229357,420.0 134.77064220183487,420.0 123.57798165137615,420.0 112.38532110091744,420.0 101.19266055045871,420.0 90.0,420.0" fill="#facc15" fill-opacity="0.70" stroke="#facc15" stroke-width="1.2"/>
<polygon points="90.0,231.99632851219667 101.19266055045871,233.21528658513645 112.38532110091744,234.80709839528868 123.57798165137615,236.0038697079542 134.77064220183487,237.264968060328 145.96330275229357,238.74569550639862 157.1559633027523,240.20366137530908 168.348623853211,240.12528839139156 179.54128440366975,240.69905878254428 190.73394495412845,242.2756263737768 201.92660550458714,243.60333133525273 213.1192660550459,245.124207944306 224.3119266055046,246.71282515935937 235.50458715596332,247.43971740787634 246.69724770642202,251.72902919377333 257.88990825688074,250.59667116823215 269.0825688073395,251.8841683496577 280.27522935779814,253.60400373235606 291.4678899082569,261.2100922455362 302.66055045871565,261.8450698160242 313.8532110091743,264.9950602358997 325.04587155963304,267.2156920268311 336.2385321100918,270.94620014440693 347.4311926605505,275.0822299727935 358.6238532110092,278.2596745017645 369.8165137614679,277.1656441947376 381.00917431192664,280.2187531431032 392.20183486238534,284.8670994851169 403.39449541284404,283.5812778682239 414.5871559633028,284.39264412038284 425.7798165137615,286.96643338185356 436.9724770642202,290.49388014055285 448.16513761467894,278.3580915382089 459.35779816513764,281.9587453371736 470.55045871559633,280.31261532684243 481.7431192660551,278.263827395433 492.9357798165138,278.5248223017205 504.1284403669725,275.7093141000179 515.3211009174313,285.6102814565927 526.5137614678899,287.84798729580905 537.7064220183486,283.9123436902297 548.8990825688074,293.96372771024875 560.0917431192661,292.9092531267462 571.2844036697247,295.8012247646939 582.4770642201836,302.0520819590589 593.6697247706422,307.0916418850642 604.862385321101,306.94602334084357 616.0550458715596,312.2836209678672 627.2477064220184,320.1223991886208 638.4403669724771,325.31887231082777 649.6330275229358,324.0372835349471 660.8256880733945,321.7676980377831 672.0183486238533,327.7991961197255 683.2110091743119,334.68735662561875 694.4036697247707,332.66635351758106 705.5963302752293,334.01123125006825 716.7889908256881,326.9696019123868 727.9816513761467,326.31152254740255 739.1743119266056,305.0900831179229 750.3669724770642,304.73724196568696 761.559633027523,303.51743818554394 772.7522935779816,302.9411489852195 783.9449541284404,300.4748228922599 795.137614678899,305.24202547496867 806.3302752293579,309.8777987848855 817.5229357798165,307.31405177029103 828.7155963302753,305.3433136345336 839.9082568807339,288.79549199487815 851.1009174311927,261.20645062673174 862.2935779816513,259.18765871307284 873.4862385321102,261.31235218087784 884.6788990825688,243.4563921137174 895.8715596330276,241.35217852610145 907.0642201834862,241.35266885963506 918.256880733945,245.06874610647478 929.4495412844036,245.5284934985194 940.6422018348625,238.6838756486696 951.8348623853211,248.8074826486468 963.0275229357799,247.8058669584211 974.2201834862385,231.75851704577173 985.4128440366973,245.77645695837847 996.6055045871559,254.39690844161075 1007.7981651376148,249.4746366548604 1018.9908256880734,266.30034555305156 1030.1834862385322,267.48415040747557 1041.3761467889908,286.41530062596496 1052.5688073394494,290.23576914712106 1063.761467889908,295.6805436389346 1074.9541284403672,286.1020529681749 1086.1467889908258,292.10947704219626 1097.3394495412845,290.86761947138035 1108.532110091743,293.3060167685227 1119.724770642202,283.8394816589491 1130.9174311926606,288.1742438697762 1142.1100917431193,285.15231216993374 1153.302752293578,293.63185526842665 1164.4954128440368,312.55646741496724 1175.6880733944954,320.40555879379167 1186.8807339449543,323.87174201002904 1198.073394495413,328.48334344347626 1209.2660550458716,322.8889790352516 1220.4587155963302,324.0047939983388 1231.651376146789,312.3017493053179 1242.8440366972477,318.8479721922577 1254.0366972477066,322.9829937653776 1265.2293577981652,320.28974826117974 1276.4220183486239,311.7443870423246 1287.6146788990825,313.5495349228409 1298.8073394495414,313.91876232316275 1310.0,312.5033364035148 1310.0,388.85208064892254 1298.8073394495414,388.85208064892254 1287.6146788990825,388.85208064892254 1276.4220183486239,388.85208064892254 1265.2293577981652,388.8453545311598 1254.0366972477066,388.8453545311598 1242.8440366972477,388.8453545311598 1231.651376146789,388.8453545311598 1220.4587155963302,388.8453545311598 1209.2660550458716,388.8453545311598 1198.073394495413,388.8453545311598 1186.8807339449543,388.8453545311598 1175.6880733944954,388.8453545311598 1164.4954128440368,388.8453545311598 1153.302752293578,388.8453545311598 1142.1100917431193,388.8453545311598 1130.9174311926606,388.7582939271468 1119.724770642202,388.7582939271468 1108.532110091743,388.7582939271468 1097.3394495412845,388.7109286937627 1086.1467889908258,388.5445171755977 1074.9541284403672,387.75930231511535 1063.761467889908,386.71217661872726 1052.5688073394494,386.28661759789685 1041.3761467889908,384.9157370277748 1030.1834862385322,383.50580952411804 1018.9908256880734,383.50580952411804 1007.7981651376148,383.50580952411804 996.6055045871559,384.23766786525874 985.4128440366973,384.23766786525874 974.2201834862385,385.1037153139779 963.0275229357799,386.37360360214984 951.8348623853211,387.3986807439704 940.6422018348625,388.4821695775512 929.4495412844036,389.4341402537721 918.256880733945,390.5904179429809 907.0642201834862,390.5612111832144 895.8715596330276,390.20377083800406 884.6788990825688,390.7040288182759 873.4862385321102,392.16626452639053 862.2935779816513,393.47209537282845 851.1009174311927,394.97138843736053 839.9082568807339,396.57516056209505 828.7155963302753,394.4481548507308 817.5229357798165,394.4481548507308 806.3302752293579,394.4481548507308 795.137614678899,394.4481548507308 783.9449541284404,394.4481548507308 772.7522935779816,392.3211491393666 761.559633027523,391.3570121674634 750.3669724770642,391.3570121674634 739.1743119266056,390.5835644039145 727.9816513761467,388.65990363213086 716.7889908256881,386.53289792076663 705.5963302752293,384.4058922094024 694.4036697247707,381.7698108892345 683.2110091743119,378.64155561236254 672.0183486238533,374.3875441896341 660.8256880733945,370.1335327669057 649.6330275229358,368.0065270555415 638.4403669724771,363.7525156328131 627.2477064220184,359.49850421008466 616.0550458715596,357.3714984987204 604.862385321101,355.24449278735625 593.6697247706422,353.117487075992 582.4770642201836,350.99048136462784 571.2844036697247,348.8634756532636 560.0917431192661,346.7364699418994 548.8990825688074,344.6094642305352 537.7064220183486,342.48245851917096 526.5137614678899,340.3554528078067 515.3211009174313,338.22844709644255 504.1284403669725,336.1014413850783 492.9357798165138,333.97443567371414 481.7431192660551,331.8474299623499 470.55045871559633,329.72042425098573 459.35779816513764,327.5934185396215 448.16513761467894,325.46641282825726 436.9724770642202,323.3394071168931 425.7798165137615,321.21240140552885 414.5871559633028,319.0853956941646 403.39449541284404,316.95838998280044 392.20183486238534,314.83138427143626 381.00917431192664,310.5773728487078 369.8165137614679,306.3233614259794 358.6238532110092,302.069350003251 347.4311926605505,297.8153385805225 336.2385321100918,293.5613271577941 325.04587155963304,289.3073157350657 313.8532110091743,285.0533043123372 302.66055045871565,280.79929288960886 291.4678899082569,276.5452814668804 280.27522935779814,272.29127004415204 269.0825688073395,270.16426433278775 257.88990825688074,268.0372586214236 246.69724770642202,265.9102529100594 235.50458715596332,261.65624148733093 224.3119266055046,259.52923577596675 213.1192660550459,256.4568941928851 201.92660550458714,254.3298884815209 190.73394495412845,252.20288277015666 179.54128440366975,250.07587705879246 168.348623853211,247.94887134742825 157.1559633027523,245.82186563606405 145.96330275229357,243.6948599246998 134.77064220183487,241.5678542133356 123.57798165137615,239.4408485019714 112.38532110091744,237.31384279060717 101.19266055045871,235.186837079243 90.0,233.0598313678788" fill="#2563eb" fill-opacity="0.70" stroke="#2563eb" stroke-width="1.2"/>
<polygon points="90.0,230.93282565651455 101.19266055045871,230.8459606597067 112.38532110091744,231.43185022516056 123.57798165137615,231.17118813966306 134.77064220183487,231.37396265757536 145.96330275229357,231.64147154088423 157.1559633027523,231.84908879691173 168.348623853211,229.3661233551911 179.54128440366975,229.18718921995713 190.73394495412845,229.58342710502933 201.92660550458714,229.7172348570676 213.1192660550459,230.77720895566569 224.3119266055046,232.63254680448355 235.50458715596332,231.69613358256052 246.69724770642202,234.96923125161513 257.88990825688074,230.39158405133244 269.0825688073395,229.74161075218834 280.27522935779814,230.6558112342952 291.4678899082569,240.08881132580007 302.66055045871565,236.08788991716978 313.8532110091743,236.64473238966096 325.04587155963304,234.6976906614986 336.2385321100918,237.79052988075185 347.4311926605505,240.54359157849171 358.6238532110092,240.46951934986356 369.8165137614679,233.49251709807726 381.00917431192664,234.01915876263672 392.20183486238534,236.91862689262888 403.39449541284404,231.37689520604007 414.5871559633028,229.90022038202827 425.7798165137615,229.11156163186328 436.9724770642202,233.11440734334153 448.16513761467894,201.96307102478596 459.35779816513764,202.78186253798532 470.55045871559633,197.69056028338832 481.7431192660551,191.82216028528168 492.9357798165138,189.48870648775488 504.1284403669725,177.36932014538064 515.3211009174313,196.50030851111194 526.5137614678899,199.47773771617534 537.7064220183486,185.05043844188893 548.8990825688074,201.33885786799965 560.0917431192661,191.52128845262058 571.2844036697247,193.2194510983084 582.4770642201836,198.79938931567855 593.6697247706422,206.64948259037294 604.862385321101,206.9414186323891 616.0550458715596,215.46209076031863 627.2477064220184,227.68484952574394 638.4403669724771,241.0525324964421 649.6330275229358,233.90602987467798 660.8256880733945,226.5921714776159 672.0183486238533,238.049167895512 683.2110091743119,248.62839192869586 694.4036697247707,240.68053237679524 705.5963302752293,238.8373902013798 716.7889908256881,223.6177679116731 727.9816513761467,223.29524669643098 739.1743119266056,191.37872301142528 750.3669724770642,187.1375787979801 761.559633027523,181.63301516549086 772.7522935779816,184.05582539402928 783.9449541284404,176.65446181910875 795.137614678899,185.2920150400219 806.3302752293579,191.53753729249547 817.5229357798165,187.00501093464555 828.7155963302753,183.80323284541853 839.9082568807339,154.24052269702872 851.1009174311927,130.1867266860914 862.2935779816513,128.20150087139842 873.4862385321102,134.32806528236165 884.6788990825688,112.5887878330513 895.8715596330276,112.08334583403024 907.0642201834862,116.80343385221073 918.256880733945,119.9291890519147 929.4495412844036,116.98583351079509 940.6422018348625,105.88125802313192 951.8348623853211,119.59039438526969 963.0275229357799,117.23477647475994 974.2201834862385,90.0 985.4128440366973,115.18748136659093 996.6055045871559,129.13912324427451 1007.7981651376148,120.59625734000002 1018.9908256880734,145.92718697165503 1030.1834862385322,147.76460697114084 1041.3761467889908,180.9639852390003 1052.5688073394494,187.80380000418938 1063.761467889908,195.12524030941844 1074.9541284403672,179.40498456864924 1086.1467889908258,189.61327151439966 1097.3394495412845,185.66770317932338 1108.532110091743,189.77648112472514 1119.724770642202,172.27666793307714 1130.9174311926606,179.79890141566412 1142.1100917431193,175.05982377446045 1153.302752293578,188.6653590450676 1164.4954128440368,218.98839174643697 1175.6880733944954,237.02471534023337 1186.8807339449543,241.97037290431933 1198.073394495413,251.6160241955619 1209.2660550458716,241.01867763005953 1220.4587155963302,242.61007105313726 1231.651376146789,223.23014046996826 1242.8440366972477,234.54860955616869 1254.0366972477066,243.6043290782276 1265.2293577981652,238.39375534254276 1276.4220183486239,223.18995676176135 1287.6146788990825,223.30735326614078 1298.8073394495414,221.89283565032312 1310.0,217.51796268427208 1310.0,312.5033364035148 1298.8073394495414,313.91876232316275 1287.6146788990825,313.5495349228409 1276.4220183486239,311.7443870423246 1265.2293577981652,320.28974826117974 1254.0366972477066,322.9829937653776 1242.8440366972477,318.8479721922577 1231.651376146789,312.3017493053179 1220.4587155963302,324.0047939983388 1209.2660550458716,322.8889790352516 1198.073394495413,328.48334344347626 1186.8807339449543,323.87174201002904 1175.6880733944954,320.40555879379167 1164.4954128440368,312.55646741496724 1153.302752293578,293.63185526842665 1142.1100917431193,285.15231216993374 1130.9174311926606,288.1742438697762 1119.724770642202,283.8394816589491 1108.532110091743,293.3060167685227 1097.3394495412845,290.86761947138035 1086.1467889908258,292.10947704219626 1074.9541284403672,286.1020529681749 1063.761467889908,295.6805436389346 1052.5688073394494,290.23576914712106 1041.3761467889908,286.41530062596496 1030.1834862385322,267.48415040747557 1018.9908256880734,266.30034555305156 1007.7981651376148,249.4746366548604 996.6055045871559,254.39690844161075 985.4128440366973,245.77645695837847 974.2201834862385,231.75851704577173 963.0275229357799,247.8058669584211 951.8348623853211,248.8074826486468 940.6422018348625,238.6838756486696 929.4495412844036,245.5284934985194 918.256880733945,245.06874610647478 907.0642201834862,241.35266885963506 895.8715596330276,241.35217852610145 884.6788990825688,243.4563921137174 873.4862385321102,261.31235218087784 862.2935779816513,259.18765871307284 851.1009174311927,261.20645062673174 839.9082568807339,288.79549199487815 828.7155963302753,305.3433136345336 817.5229357798165,307.31405177029103 806.3302752293579,309.8777987848855 795.137614678899,305.24202547496867 783.9449541284404,300.4748228922599 772.7522935779816,302.9411489852195 761.559633027523,303.51743818554394 750.3669724770642,304.73724196568696 739.1743119266056,305.0900831179229 727.9816513761467,326.31152254740255 716.7889908256881,326.9696019123868 705.5963302752293,334.01123125006825 694.4036697247707,332.66635351758106 683.2110091743119,334.68735662561875 672.0183486238533,327.7991961197255 660.8256880733945,321.7676980377831 649.6330275229358,324.0372835349471 638.4403669724771,325.31887231082777 627.2477064220184,320.1223991886208 616.0550458715596,312.2836209678672 604.862385321101,306.94602334084357 593.6697247706422,307.0916418850642 582.4770642201836,302.0520819590589 571.2844036697247,295.8012247646939 560.0917431192661,292.9092531267462 548.8990825688074,293.96372771024875 537.7064220183486,283.9123436902297 526.5137614678899,287.84798729580905 515.3211009174313,285.6102814565927 504.1284403669725,275.7093141000179 492.9357798165138,278.5248223017205 481.7431192660551,278.263827395433 470.55045871559633,280.31261532684243 459.35779816513764,281.9587453371736 448.16513761467894,278.3580915382089 436.9724770642202,290.49388014055285 425.7798165137615,286.96643338185356 414.5871559633028,284.39264412038284 403.39449541284404,283.5812778682239 392.20183486238534,284.8670994851169 381.00917431192664,280.2187531431032 369.8165137614679,277.1656441947376 358.6238532110092,278.2596745017645 347.4311926605505,275.0822299727935 336.2385321100918,270.94620014440693 325.04587155963304,267.2156920268311 313.8532110091743,264.9950602358997 302.66055045871565,261.8450698160242 291.4678899082569,261.2100922455362 280.27522935779814,253.60400373235606 269.0825688073395,251.8841683496577 257.88990825688074,250.59667116823215 246.69724770642202,251.72902919377333 235.50458715596332,247.43971740787634 224.3119266055046,246.71282515935937 213.1192660550459,245.124207944306 201.92660550458714,243.60333133525273 190.73394495412845,242.2756263737768 179.54128440366975,240.69905878254428 168.348623853211,240.12528839139156 157.1559633027523,240.20366137530908 145.96330275229357,238.74569550639862 134.77064220183487,237.264968060328 123.57798165137615,236.0038697079542 112.38532110091744,234.80709839528868 101.19266055045871,233.21528658513645 90.0,231.99632851219667" fill="#f97316" fill-opacity="0.70" stroke="#f97316" stroke-width="1.2"/>
<rect x="1100" y="76" width="16" height="12" fill="#f97316" fill-opacity="0.70" stroke="#f97316"/>
<text x="1124" y="86" font-family="monospace" font-size="12" fill="#0f172a">BTC</text>
<rect x="1100" y="98" width="16" height="12" fill="#2563eb" fill-opacity="0.70" stroke="#2563eb"/>
<text x="1124" y="108" font-family="monospace" font-size="12" fill="#0f172a">ETH</text>
<rect x="1100" y="120" width="16" height="12" fill="#facc15" fill-opacity="0.70" stroke="#facc15"/>
<text x="1124" y="130" font-family="monospace" font-size="12" fill="#0f172a">DAI</text>
<text x="700.0" y="782" text-anchor="middle" font-family="monospace" font-size="16" fill="#0f172a">time</text>
<text x="24" y="255.0" transform="rotate(-90 24,255.0)" text-anchor="middle" font-family="monospace" font-size="16" fill="#0f172a">asset value split (usd)</text>
<line x1="90" y1="605" x2="1310" y2="605" stroke="#334155" stroke-width="2"/>
<line x1="90" y1="480" x2="90" y2="605" stroke="#334155" stroke-width="2"/>
<line x1="90" y1="542.5" x2="1310" y2="542.5" stroke="#64748b" stroke-width="1.5" stroke-dasharray="6 4"/>
<line x1="90" y1="605.0" x2="1310" y2="605.0" stroke="#e2e8f0" stroke-width="1"/>
<text x="78" y="609.0" text-anchor="end" font-family="monospace" font-size="11" fill="#475569">-135</text>
<line x1="90" y1="542.5" x2="1310" y2="542.5" stroke="#e2e8f0" stroke-width="1"/>
<text x="78" y="546.5" text-anchor="end" font-family="monospace" font-size="11" fill="#475569">0</text>
<line x1="90" y1="480.0" x2="1310" y2="480.0" stroke="#e2e8f0" stroke-width="1"/>
<text x="78" y="484.0" text-anchor="end" font-family="monospace" font-size="11" fill="#475569">135</text>
<rect x="86.95" y="516.4583333333334" width="6.1000000000000005" height="26.04166666666663" fill="#ea580c" opacity="0.85"><title>2024-04-01 | BTC buy 56.25 usd | reason=balanced_regime</title></rect>
<rect x="98.14266055045871" y="511.25" width="6.1000000000000005" height="31.25" fill="#ea580c" opacity="0.85"><title>2024-04-08 | BTC buy 67.50 usd | reason=btc_defensive_regime</title></rect>
<rect x="109.33532110091744" y="511.25" width="6.1000000000000005" height="31.25" fill="#ea580c" opacity="0.85"><title>2024-04-15 | BTC buy 67.50 usd | reason=btc_defensive_regime</title></rect>
<rect x="120.52798165137615" y="511.25" width="6.1000000000000005" height="31.25" fill="#ea580c" opacity="0.85"><title>2024-04-22 | BTC buy 67.50 usd | reason=btc_defensive_regime</title></rect>
<rect x="131.72064220183486" y="511.25" width="6.1000000000000005" height="31.25" fill="#ea580c" opacity="0.85"><title>2024-04-29 | BTC buy 67.50 usd | reason=btc_defensive_regime</title></rect>
<rect x="142.91330275229356" y="511.25" width="6.1000000000000005" height="31.25" fill="#ea580c" opacity="0.85"><title>2024-05-06 | BTC buy 67.50 usd | reason=btc_defensive_regime</title></rect>
<rect x="154.1059633027523" y="511.25" width="6.1000000000000005" height="31.25" fill="#ea580c" opacity="0.85"><title>2024-05-13 | BTC buy 67.50 usd | reason=btc_defensive_regime</title></rect>
<rect x="165.29862385321098" y="511.25" width="6.1000000000000005" height="31.25" fill="#ea580c" opacity="0.85"><title>2024-05-20 | BTC buy 67.50 usd | reason=btc_defensive_regime</title></rect>
<rect x="176.49128440366974" y="516.4583333333334" width="6.1000000000000005" height="26.04166666666663" fill="#ea580c" opacity="0.85"><title>2024-05-27 | BTC buy 56.25 usd | reason=balanced_regime</title></rect>
<rect x="187.68394495412844" y="511.25" width="6.1000000000000005" height="31.25" fill="#ea580c" opacity="0.85"><title>2024-06-03 | BTC buy 67.50 usd | reason=btc_defensive_regime</title></rect>
<rect x="198.87660550458713" y="516.4583333333334" width="6.1000000000000005" height="26.04166666666663" fill="#ea580c" opacity="0.85"><title>2024-06-10 | BTC buy 56.25 usd | reason=balanced_regime</title></rect>
<rect x="210.0692660550459" y="516.4583333333334" width="6.1000000000000005" height="26.04166666666663" fill="#ea580c" opacity="0.85"><title>2024-06-17 | BTC buy 56.25 usd | reason=balanced_regime</title></rect>
<rect x="221.26192660550458" y="516.1689814814815" width="6.1000000000000005" height="26.331018518518476" fill="#ea580c" opacity="0.85"><title>2024-06-24 | BTC buy 56.88 usd | reason=eth_strong_risk_on</title></rect>
<rect x="232.4545871559633" y="516.4583333333334" width="6.1000000000000005" height="26.04166666666663" fill="#ea580c" opacity="0.85"><title>2024-07-01 | BTC buy 56.25 usd | reason=balanced_regime</title></rect>
<rect x="243.647247706422" y="480.0" width="6.1000000000000005" height="62.5" fill="#ea580c" opacity="0.85"><title>2024-07-08 | BTC buy 135.00 usd | reason=both_weak_btc_defensive</title></rect>
<rect x="254.83990825688073" y="516.4583333333334" width="6.1000000000000005" height="26.04166666666663" fill="#ea580c" opacity="0.85"><title>2024-07-15 | BTC buy 56.25 usd | reason=balanced_regime</title></rect>
<rect x="266.0325688073395" y="516.4583333333334" width="6.1000000000000005" height="26.04166666666663" fill="#ea580c" opacity="0.85"><title>2024-07-22 | BTC buy 56.25 usd | reason=balanced_regime</title></rect>
<rect x="277.2252293577981" y="516.4583333333334" width="6.1000000000000005" height="26.04166666666663" fill="#ea580c" opacity="0.85"><title>2024-07-29 | BTC buy 56.25 usd | reason=balanced_regime</title></rect>
<rect x="288.4178899082569" y="480.0" width="6.1000000000000005" height="62.5" fill="#ea580c" opacity="0.85"><title>2024-08-05 | BTC buy 135.00 usd | reason=both_weak_btc_defensive</title></rect>
<rect x="299.61055045871564" y="480.0" width="6.1000000000000005" height="62.5" fill="#ea580c" opacity="0.85"><title>2024-08-12 | BTC buy 135.00 usd | reason=both_weak_btc_defensive</title></rect>
<rect x="310.8032110091743" y="480.0" width="6.1000000000000005" height="62.5" fill="#ea580c" opacity="0.85"><title>2024-08-19 | BTC buy 135.00 usd | reason=both_weak_btc_defensive</title></rect>
<rect x="321.99587155963303" y="480.0" width="6.1000000000000005" height="62.5" fill="#ea580c" opacity="0.85"><title>2024-08-26 | BTC buy 135.00 usd | reason=both_weak_btc_defensive</title></rect>
<rect x="333.1885321100918" y="480.0" width="6.1000000000000005" height="62.5" fill="#ea580c" opacity="0.85"><title>2024-09-02 | BTC buy 135.00 usd | reason=both_weak_btc_defensive</title></rect>
<rect x="344.3811926605505" y="480.0" width="6.1000000000000005" height="62.5" fill="#ea580c" opacity="0.85"><title>2024-09-09 | BTC buy 135.00 usd | reason=both_weak_btc_defensive</title></rect>
<rect x="355.5738532110092" y="480.0" width="6.1000000000000005" height="62.5" fill="#ea580c" opacity="0.85"><title>2024-09-16 | BTC buy 135.00 usd | reason=both_weak_btc_defensive</title></rect>
<rect x="366.7665137614679" y="480.0" width="6.1000000000000005" height="62.5" fill="#ea580c" opacity="0.85"><title>2024-09-23 | BTC buy 135.00 usd | reason=both_weak_btc_defensive</title></rect>
<rect x="377.95917431192663" y="480.0" width="6.1000000000000005" height="62.5" fill="#ea580c" opacity="0.85"><title>2024-09-30 | BTC buy 135.00 usd | reason=both_weak_btc_defensive</title></rect>
<rect x="389.15183486238533" y="480.0" width="6.1000000000000005" height="62.5" fill="#ea580c" opacity="0.85"><title>2024-10-07 | BTC buy 135.00 usd | reason=both_weak_btc_defensive</title></rect>
<rect x="400.344495412844" y="511.25" width="6.1000000000000005" height="31.25" fill="#ea580c" opacity="0.85"><title>2024-10-14 | BTC buy 67.50 usd | reason=btc_defensive_regime</title></rect>
<rect x="411.5371559633028" y="511.25" width="6.1000000000000005" height="31.25" fill="#ea580c" opacity="0.85"><title>2024-10-21 | BTC buy 67.50 usd | reason=btc_defensive_regime</title></rect>
<rect x="422.7298165137615" y="511.25" width="6.1000000000000005" height="31.25" fill="#ea580c" opacity="0.85"><title>2024-10-28 | BTC buy 67.50 usd | reason=btc_defensive_regime</title></rect>
<rect x="433.9224770642202" y="511.25" width="6.1000000000000005" height="31.25" fill="#ea580c" opacity="0.85"><title>2024-11-04 | BTC buy 67.50 usd | reason=btc_defensive_regime</title></rect>
<rect x="445.11513761467893" y="511.25" width="6.1000000000000005" height="31.25" fill="#ea580c" opacity="0.85"><title>2024-11-11 | BTC buy 67.50 usd | reason=btc_defensive_regime</title></rect>
<rect x="456.3077981651376" y="511.25" width="6.1000000000000005" height="31.25" fill="#ea580c" opacity="0.85"><title>2024-11-18 | BTC buy 67.50 usd | reason=btc_defensive_regime</title></rect>
<rect x="467.5004587155963" y="511.25" width="6.1000000000000005" height="31.25" fill="#ea580c" opacity="0.85"><title>2024-11-25 | BTC buy 67.50 usd | reason=btc_defensive_regime</title></rect>
<rect x="478.6931192660551" y="511.25" width="6.1000000000000005" height="31.25" fill="#ea580c" opacity="0.85"><title>2024-12-02 | BTC buy 67.50 usd | reason=btc_defensive_regime</title></rect>
<rect x="489.8857798165138" y="511.25" width="6.1000000000000005" height="31.25" fill="#ea580c" opacity="0.85"><title>2024-12-09 | BTC buy 67.50 usd | reason=btc_defensive_regime</title></rect>
<rect x="501.0784403669725" y="511.25" width="6.1000000000000005" height="31.25" fill="#ea580c" opacity="0.85"><title>2024-12-16 | BTC buy 67.50 usd | reason=btc_defensive_regime</title></rect>
<rect x="512.2711009174313" y="511.25" width="6.1000000000000005" height="31.25" fill="#ea580c" opacity="0.85"><title>2024-12-23 | BTC buy 67.50 usd | reason=btc_defensive_regime</title></rect>
<rect x="523.46376146789" y="511.25" width="6.1000000000000005" height="31.25" fill="#ea580c" opacity="0.85"><title>2024-12-30 | BTC buy 67.50 usd | reason=btc_defensive_regime</title></rect>
<rect x="534.6564220183486" y="511.25" width="6.1000000000000005" height="31.25" fill="#ea580c" opacity="0.85"><title>2025-01-06 | BTC buy 67.50 usd | reason=btc_defensive_regime</title></rect>
<rect x="545.8490825688075" y="511.25" width="6.1000000000000005" height="31.25" fill="#ea580c" opacity="0.85"><title>2025-01-13 | BTC buy 67.50 usd | reason=btc_defensive_regime</title></rect>
<rect x="557.0417431192661" y="511.25" width="6.1000000000000005" height="31.25" fill="#ea580c" opacity="0.85"><title>2025-01-20 | BTC buy 67.50 usd | reason=btc_defensive_regime</title></rect>
<rect x="568.2344036697248" y="511.25" width="6.1000000000000005" height="31.25" fill="#ea580c" opacity="0.85"><title>2025-01-27 | BTC buy 67.50 usd | reason=btc_defensive_regime</title></rect>
<rect x="579.4270642201836" y="511.25" width="6.1000000000000005" height="31.25" fill="#ea580c" opacity="0.85"><title>2025-02-03 | BTC buy 67.50 usd | reason=btc_defensive_regime</title></rect>
<rect x="590.6197247706423" y="511.25" width="6.1000000000000005" height="31.25" fill="#ea580c" opacity="0.85"><title>2025-02-10 | BTC buy 67.50 usd | reason=btc_defensive_regime</title></rect>
<rect x="601.812385321101" y="511.25" width="6.1000000000000005" height="31.25" fill="#ea580c" opacity="0.85"><title>2025-02-17 | BTC buy 67.50 usd | reason=btc_defensive_regime</title></rect>
<rect x="613.0050458715597" y="511.25" width="6.1000000000000005" height="31.25" fill="#ea580c" opacity="0.85"><title>2025-02-24 | BTC buy 67.50 usd | reason=btc_defensive_regime</title></rect>
<rect x="624.1977064220184" y="511.25" width="6.1000000000000005" height="31.25" fill="#ea580c" opacity="0.85"><title>2025-03-03 | BTC buy 67.50 usd | reason=btc_defensive_regime</title></rect>
<rect x="635.3903669724772" y="542.5" width="6.1000000000000005" height="1.5" fill="#ea580c" opacity="0.85"><title>2025-03-10 | BTC buy 0.00 usd | reason=both_weak_btc_defensive</title></rect>
<rect x="646.5830275229358" y="542.5" width="6.1000000000000005" height="1.5" fill="#ea580c" opacity="0.85"><title>2025-03-17 | BTC buy 0.00 usd | reason=both_weak_btc_defensive</title></rect>
<rect x="657.7756880733946" y="511.25" width="6.1000000000000005" height="31.25" fill="#ea580c" opacity="0.85"><title>2025-03-24 | BTC buy 67.50 usd | reason=btc_defensive_regime</title></rect>
<rect x="668.9683486238533" y="542.5" width="6.1000000000000005" height="1.5" fill="#ea580c" opacity="0.85"><title>2025-03-31 | BTC buy 0.00 usd | reason=both_weak_btc_defensive</title></rect>
<rect x="680.161009174312" y="542.5" width="6.1000000000000005" height="1.5" fill="#ea580c" opacity="0.85"><title>2025-04-07 | BTC buy 0.00 usd | reason=both_weak_btc_defensive</title></rect>
<rect x="691.3536697247707" y="542.5" width="6.1000000000000005" height="1.5" fill="#ea580c" opacity="0.85"><title>2025-04-14 | BTC buy 0.00 usd | reason=both_weak_btc_defensive</title></rect>
<rect x="702.5463302752294" y="542.5" width="6.1000000000000005" height="1.5" fill="#ea580c" opacity="0.85"><title>2025-04-21 | BTC buy 0.00 usd | reason=both_weak_btc_defensive</title></rect>
<rect x="713.7389908256881" y="542.5" width="6.1000000000000005" height="1.5" fill="#ea580c" opacity="0.85"><title>2025-04-28 | BTC buy 0.00 usd | reason=btc_defensive_regime</title></rect>
<rect x="724.9316513761468" y="542.5" width="6.1000000000000005" height="1.5" fill="#ea580c" opacity="0.85"><title>2025-05-05 | BTC buy 0.00 usd | reason=btc_defensive_regime</title></rect>
<rect x="736.1243119266056" y="495.3959115333993" width="6.1000000000000005" height="47.10408846660067" fill="#ea580c" opacity="0.85"><title>2025-05-12 | BTC buy 101.74 usd | reason=btc_defensive_regime</title></rect>
<rect x="747.3169724770643" y="523.5608229824637" width="6.1000000000000005" height="18.93917701753628" fill="#ea580c" opacity="0.85"><title>2025-05-19 | BTC buy 40.91 usd | reason=btc_defensive_regime</title></rect>
<rect x="758.509633027523" y="542.5" width="6.1000000000000005" height="1.5" fill="#ea580c" opacity="0.85"><title>2025-05-26 | BTC buy 0.00 usd | reason=btc_defensive_regime</title></rect>
<rect x="769.7022935779817" y="518.8914751059039" width="6.1000000000000005" height="23.60852489409615" fill="#ea580c" opacity="0.85"><title>2025-06-02 | BTC buy 50.99 usd | reason=btc_defensive_regime</title></rect>
<rect x="780.8949541284404" y="542.5" width="6.1000000000000005" height="1.5" fill="#ea580c" opacity="0.85"><title>2025-06-09 | BTC buy 0.00 usd | reason=balanced_regime</title></rect>
<rect x="792.0876146788991" y="542.5" width="6.1000000000000005" height="1.5" fill="#ea580c" opacity="0.85"><title>2025-06-16 | BTC buy 0.00 usd | reason=btc_defensive_regime</title></rect>
<rect x="803.2802752293579" y="542.5" width="6.1000000000000005" height="1.5" fill="#ea580c" opacity="0.85"><title>2025-06-23 | BTC buy 0.00 usd | reason=btc_defensive_regime</title></rect>
<rect x="814.4729357798166" y="542.5" width="6.1000000000000005" height="1.5" fill="#ea580c" opacity="0.85"><title>2025-06-30 | BTC buy 0.00 usd | reason=btc_defensive_regime</title></rect>
<rect x="825.6655963302753" y="542.5" width="6.1000000000000005" height="1.5" fill="#ea580c" opacity="0.85"><title>2025-07-07 | BTC buy 0.00 usd | reason=btc_defensive_regime</title></rect>
<rect x="836.858256880734" y="542.5" width="6.1000000000000005" height="1.5" fill="#ea580c" opacity="0.85"><title>2025-07-14 | BTC buy 0.00 usd | reason=balanced_regime</title></rect>
<rect x="848.0509174311927" y="542.5" width="6.1000000000000005" height="19.63553687631645" fill="#dc2626" opacity="0.85"><title>2025-07-21 | BTC sell 42.41 usd | reason=balanced_regime</title></rect>
<rect x="859.2435779816514" y="542.5" width="6.1000000000000005" height="18.356363602402894" fill="#dc2626" opacity="0.85"><title>2025-07-28 | BTC sell 39.65 usd | reason=balanced_regime</title></rect>
<rect x="870.4362385321102" y="542.5" width="6.1000000000000005" height="15.987738746680293" fill="#dc2626" opacity="0.85"><title>2025-08-04 | BTC sell 34.53 usd | reason=balanced_regime</title></rect>
<rect x="881.6288990825689" y="542.5" width="6.1000000000000005" height="3.556106095874952" fill="#dc2626" opacity="0.85"><title>2025-08-11 | BTC sell 7.68 usd | reason=balanced_regime</title></rect>
<rect x="892.8215596330276" y="516.4503172892136" width="6.1000000000000005" height="26.049682710786442" fill="#ea580c" opacity="0.85"><title>2025-08-18 | BTC buy 56.27 usd | reason=balanced_regime</title></rect>
<rect x="904.0142201834863" y="490.4166666666667" width="6.1000000000000005" height="52.083333333333314" fill="#ea580c" opacity="0.85"><title>2025-08-25 | BTC buy 112.50 usd | reason=balanced_regime</title></rect>
<rect x="915.206880733945" y="503.47576171144453" width="6.1000000000000005" height="39.024238288555466" fill="#ea580c" opacity="0.85"><title>2025-09-01 | BTC buy 84.29 usd | reason=balanced_regime</title></rect>
<rect x="926.3995412844037" y="538.6088888538004" width="6.1000000000000005" height="3.8911111461995915" fill="#ea580c" opacity="0.85"><title>2025-09-08 | BTC buy 8.40 usd | reason=balanced_regime</title></rect>
<rect x="937.5922018348625" y="531.1080120541129" width="6.1000000000000005" height="11.391987945887081" fill="#ea580c" opacity="0.85"><title>2025-09-15 | BTC buy 24.61 usd | reason=balanced_regime</title></rect>
<rect x="948.7848623853212" y="542.5" width="6.1000000000000005" height="13.26552857400236" fill="#dc2626" opacity="0.85"><title>2025-09-22 | BTC sell 28.65 usd | reason=balanced_regime</title></rect>
<rect x="959.9775229357799" y="542.5" width="6.1000000000000005" height="12.550374026869804" fill="#dc2626" opacity="0.85"><title>2025-09-29 | BTC sell 27.11 usd | reason=balanced_regime</title></rect>
<rect x="971.1701834862386" y="542.5" width="6.1000000000000005" height="15.547681573110822" fill="#dc2626" opacity="0.85"><title>2025-10-06 | BTC sell 33.58 usd | reason=balanced_regime</title></rect>
<rect x="982.3628440366973" y="542.5" width="6.1000000000000005" height="10.603318485024488" fill="#dc2626" opacity="0.85"><title>2025-10-13 | BTC sell 22.90 usd | reason=balanced_regime</title></rect>
<rect x="993.555504587156" y="542.5" width="6.1000000000000005" height="1.5" fill="#ea580c" opacity="0.85"><title>2025-10-20 | BTC buy 0.00 usd | reason=balanced_regime</title></rect>
<rect x="1004.7481651376148" y="542.5" width="6.1000000000000005" height="8.960394824225318" fill="#dc2626" opacity="0.85"><title>2025-10-27 | BTC sell 19.35 usd | reason=balanced_regime</title></rect>
<rect x="1015.9408256880735" y="542.5" width="6.1000000000000005" height="1.5" fill="#ea580c" opacity="0.85"><title>2025-11-03 | BTC buy 0.00 usd | reason=balanced_regime</title></rect>
<rect x="1027.1334862385322" y="542.5" width="6.1000000000000005" height="1.5" fill="#ea580c" opacity="0.85"><title>2025-11-10 | BTC buy 0.00 usd | reason=balanced_regime</title></rect>
<rect x="1038.3261467889909" y="507.97553974281936" width="6.1000000000000005" height="34.524460257180635" fill="#ea580c" opacity="0.85"><title>2025-11-17 | BTC buy 74.57 usd | reason=both_weak_btc_defensive</title></rect>
<rect x="1049.5188073394495" y="508.9316699704281" width="6.1000000000000005" height="33.56833002957188" fill="#ea580c" opacity="0.85"><title>2025-11-24 | BTC buy 72.51 usd | reason=both_weak_btc_defensive</title></rect>
<rect x="1060.7114678899081" y="532.0794674097517" width="6.1000000000000005" height="10.420532590248285" fill="#ea580c" opacity="0.85"><title>2025-12-01 | BTC buy 22.51 usd | reason=both_weak_btc_defensive</title></rect>
<rect x="1071.9041284403672" y="516.8593557856968" width="6.1000000000000005" height="25.640644214303165" fill="#ea580c" opacity="0.85"><title>2025-12-08 | BTC buy 55.38 usd | reason=both_weak_btc_defensive</title></rect>
<rect x="1083.0967889908259" y="523.2726857063492" width="6.1000000000000005" height="19.227314293650807" fill="#ea580c" opacity="0.85"><title>2025-12-15 | BTC buy 41.53 usd | reason=both_weak_btc_defensive</title></rect>
<rect x="1094.2894495412845" y="538.4251324409777" width="6.1000000000000005" height="4.074867559022323" fill="#ea580c" opacity="0.85"><title>2025-12-22 | BTC buy 8.80 usd | reason=both_weak_btc_defensive</title></rect>
<rect x="1105.4821100917432" y="541.340182127592" width="6.1000000000000005" height="1.5" fill="#ea580c" opacity="0.85"><title>2025-12-29 | BTC buy 2.51 usd | reason=both_weak_btc_defensive</title></rect>
<rect x="1116.674770642202" y="542.5" width="6.1000000000000005" height="1.5" fill="#ea580c" opacity="0.85"><title>2026-01-05 | BTC buy 0.00 usd | reason=both_weak_btc_defensive</title></rect>
<rect x="1127.8674311926607" y="542.5" width="6.1000000000000005" height="1.5" fill="#ea580c" opacity="0.85"><title>2026-01-12 | BTC buy 0.00 usd | reason=both_weak_btc_defensive</title></rect>
<rect x="1139.0600917431193" y="540.3681738206983" width="6.1000000000000005" height="2.1318261793016973" fill="#ea580c" opacity="0.85"><title>2026-01-19 | BTC buy 4.60 usd | reason=both_weak_btc_defensive</title></rect>
<rect x="1150.252752293578" y="542.5" width="6.1000000000000005" height="1.5" fill="#ea580c" opacity="0.85"><title>2026-01-26 | BTC buy 0.00 usd | reason=both_weak_btc_defensive</title></rect>
<rect x="1161.4454128440368" y="542.5" width="6.1000000000000005" height="1.5" fill="#ea580c" opacity="0.85"><title>2026-02-02 | BTC buy 0.00 usd | reason=both_weak_btc_defensive</title></rect>
<rect x="1172.6380733944954" y="542.5" width="6.1000000000000005" height="1.5" fill="#ea580c" opacity="0.85"><title>2026-02-09 | BTC buy 0.00 usd | reason=both_weak_btc_defensive</title></rect>
<rect x="1183.8307339449543" y="542.5" width="6.1000000000000005" height="1.5" fill="#ea580c" opacity="0.85"><title>2026-02-16 | BTC buy 0.00 usd | reason=both_weak_btc_defensive</title></rect>
<rect x="1195.023394495413" y="542.5" width="6.1000000000000005" height="1.5" fill="#ea580c" opacity="0.85"><title>2026-02-23 | BTC buy 0.00 usd | reason=both_weak_btc_defensive</title></rect>
<rect x="1206.2160550458716" y="542.5" width="6.1000000000000005" height="1.5" fill="#ea580c" opacity="0.85"><title>2026-03-02 | BTC buy 0.00 usd | reason=both_weak_btc_defensive</title></rect>
<rect x="1217.4087155963302" y="542.5" width="6.1000000000000005" height="1.5" fill="#ea580c" opacity="0.85"><title>2026-03-09 | BTC buy 0.00 usd | reason=both_weak_btc_defensive</title></rect>
<rect x="1228.601376146789" y="542.5" width="6.1000000000000005" height="1.5" fill="#ea580c" opacity="0.85"><title>2026-03-16 | BTC buy 0.00 usd | reason=both_weak_btc_defensive</title></rect>
<rect x="1239.7940366972477" y="542.5" width="6.1000000000000005" height="1.5" fill="#ea580c" opacity="0.85"><title>2026-03-23 | BTC buy 0.00 usd | reason=both_weak_btc_defensive</title></rect>
<rect x="1250.9866972477066" y="542.5" width="6.1000000000000005" height="1.5" fill="#ea580c" opacity="0.85"><title>2026-03-30 | BTC buy 0.00 usd | reason=both_weak_btc_defensive</title></rect>
<rect x="1262.1793577981653" y="542.5" width="6.1000000000000005" height="1.5" fill="#ea580c" opacity="0.85"><title>2026-04-06 | BTC buy 0.00 usd | reason=both_weak_btc_defensive</title></rect>
<rect x="1273.372018348624" y="542.3352996272628" width="6.1000000000000005" height="1.5" fill="#ea580c" opacity="0.85"><title>2026-04-13 | BTC buy 0.36 usd | reason=both_weak_btc_defensive</title></rect>
<rect x="1284.5646788990825" y="542.5" width="6.1000000000000005" height="1.5" fill="#ea580c" opacity="0.85"><title>2026-04-20 | BTC buy 0.00 usd | reason=both_weak_btc_defensive</title></rect>
<rect x="1295.7573394495414" y="542.5" width="6.1000000000000005" height="1.5" fill="#ea580c" opacity="0.85"><title>2026-04-27 | BTC buy 0.00 usd | reason=both_weak_btc_defensive</title></rect>
<rect x="1306.95" y="542.5" width="6.1000000000000005" height="1.5" fill="#ea580c" opacity="0.85"><title>2026-05-04 | BTC buy 0.00 usd | reason=both_weak_btc_defensive</title></rect>
<text x="24" y="542.5" transform="rotate(-90 24,542.5)" text-anchor="middle" font-family="monospace" font-size="14" fill="#0f172a">BTC weekly trade usd</text>
<line x1="90" y1="770" x2="1310" y2="770" stroke="#334155" stroke-width="2"/>
<line x1="90" y1="645" x2="90" y2="770" stroke="#334155" stroke-width="2"/>
<line x1="90" y1="707.5" x2="1310" y2="707.5" stroke="#64748b" stroke-width="1.5" stroke-dasharray="6 4"/>
<line x1="90" y1="770.0" x2="1310" y2="770.0" stroke="#e2e8f0" stroke-width="1"/>
<text x="78" y="774.0" text-anchor="end" font-family="monospace" font-size="11" fill="#475569">-225</text>
<line x1="90" y1="707.5" x2="1310" y2="707.5" stroke="#e2e8f0" stroke-width="1"/>
<text x="78" y="711.5" text-anchor="end" font-family="monospace" font-size="11" fill="#475569">0</text>
<line x1="90" y1="645.0" x2="1310" y2="645.0" stroke="#e2e8f0" stroke-width="1"/>
<text x="78" y="649.0" text-anchor="end" font-family="monospace" font-size="11" fill="#475569">225</text>
<rect x="86.95" y="691.875" width="6.1000000000000005" height="15.625" fill="#2563eb" opacity="0.85"><title>2024-04-01 | ETH buy 56.25 usd | reason=balanced_regime</title></rect>
<rect x="98.14266055045871" y="695.0" width="6.1000000000000005" height="12.5" fill="#2563eb" opacity="0.85"><title>2024-04-08 | ETH buy 45.00 usd | reason=btc_defensive_regime</title></rect>
<rect x="109.33532110091744" y="695.0" width="6.1000000000000005" height="12.5" fill="#2563eb" opacity="0.85"><title>2024-04-15 | ETH buy 45.00 usd | reason=btc_defensive_regime</title></rect>
<rect x="120.52798165137615" y="695.0" width="6.1000000000000005" height="12.5" fill="#2563eb" opacity="0.85"><title>2024-04-22 | ETH buy 45.00 usd | reason=btc_defensive_regime</title></rect>
<rect x="131.72064220183486" y="695.0" width="6.1000000000000005" height="12.5" fill="#2563eb" opacity="0.85"><title>2024-04-29 | ETH buy 45.00 usd | reason=btc_defensive_regime</title></rect>
<rect x="142.91330275229356" y="695.0" width="6.1000000000000005" height="12.5" fill="#2563eb" opacity="0.85"><title>2024-05-06 | ETH buy 45.00 usd | reason=btc_defensive_regime</title></rect>
<rect x="154.1059633027523" y="695.0" width="6.1000000000000005" height="12.5" fill="#2563eb" opacity="0.85"><title>2024-05-13 | ETH buy 45.00 usd | reason=btc_defensive_regime</title></rect>
<rect x="165.29862385321098" y="695.0" width="6.1000000000000005" height="12.5" fill="#2563eb" opacity="0.85"><title>2024-05-20 | ETH buy 45.00 usd | reason=btc_defensive_regime</title></rect>
<rect x="176.49128440366974" y="691.875" width="6.1000000000000005" height="15.625" fill="#2563eb" opacity="0.85"><title>2024-05-27 | ETH buy 56.25 usd | reason=balanced_regime</title></rect>
<rect x="187.68394495412844" y="695.0" width="6.1000000000000005" height="12.5" fill="#2563eb" opacity="0.85"><title>2024-06-03 | ETH buy 45.00 usd | reason=btc_defensive_regime</title></rect>
<rect x="198.87660550458713" y="691.875" width="6.1000000000000005" height="15.625" fill="#2563eb" opacity="0.85"><title>2024-06-10 | ETH buy 56.25 usd | reason=balanced_regime</title></rect>
<rect x="210.0692660550459" y="691.875" width="6.1000000000000005" height="15.625" fill="#2563eb" opacity="0.85"><title>2024-06-17 | ETH buy 56.25 usd | reason=balanced_regime</title></rect>
<rect x="221.26192660550458" y="678.1597222222222" width="6.1000000000000005" height="29.34027777777783" fill="#2563eb" opacity="0.85"><title>2024-06-24 | ETH buy 105.62 usd | reason=eth_strong_risk_on</title></rect>
<rect x="232.4545871559633" y="691.875" width="6.1000000000000005" height="15.625" fill="#2563eb" opacity="0.85"><title>2024-07-01 | ETH buy 56.25 usd | reason=balanced_regime</title></rect>
<rect x="243.647247706422" y="682.5" width="6.1000000000000005" height="25.0" fill="#2563eb" opacity="0.85"><title>2024-07-08 | ETH buy 90.00 usd | reason=both_weak_btc_defensive</title></rect>
<rect x="254.83990825688073" y="691.875" width="6.1000000000000005" height="15.625" fill="#2563eb" opacity="0.85"><title>2024-07-15 | ETH buy 56.25 usd | reason=balanced_regime</title></rect>
<rect x="266.0325688073395" y="691.875" width="6.1000000000000005" height="15.625" fill="#2563eb" opacity="0.85"><title>2024-07-22 | ETH buy 56.25 usd | reason=balanced_regime</title></rect>
<rect x="277.2252293577981" y="691.875" width="6.1000000000000005" height="15.625" fill="#2563eb" opacity="0.85"><title>2024-07-29 | ETH buy 56.25 usd | reason=balanced_regime</title></rect>
<rect x="288.4178899082569" y="682.5" width="6.1000000000000005" height="25.0" fill="#2563eb" opacity="0.85"><title>2024-08-05 | ETH buy 90.00 usd | reason=both_weak_btc_defensive</title></rect>
<rect x="299.61055045871564" y="682.5" width="6.1000000000000005" height="25.0" fill="#2563eb" opacity="0.85"><title>2024-08-12 | ETH buy 90.00 usd | reason=both_weak_btc_defensive</title></rect>
<rect x="310.8032110091743" y="682.5" width="6.1000000000000005" height="25.0" fill="#2563eb" opacity="0.85"><title>2024-08-19 | ETH buy 90.00 usd | reason=both_weak_btc_defensive</title></rect>
<rect x="321.99587155963303" y="682.5" width="6.1000000000000005" height="25.0" fill="#2563eb" opacity="0.85"><title>2024-08-26 | ETH buy 90.00 usd | reason=both_weak_btc_defensive</title></rect>
<rect x="333.1885321100918" y="682.5" width="6.1000000000000005" height="25.0" fill="#2563eb" opacity="0.85"><title>2024-09-02 | ETH buy 90.00 usd | reason=both_weak_btc_defensive</title></rect>
<rect x="344.3811926605505" y="682.5" width="6.1000000000000005" height="25.0" fill="#2563eb" opacity="0.85"><title>2024-09-09 | ETH buy 90.00 usd | reason=both_weak_btc_defensive</title></rect>
<rect x="355.5738532110092" y="682.5" width="6.1000000000000005" height="25.0" fill="#2563eb" opacity="0.85"><title>2024-09-16 | ETH buy 90.00 usd | reason=both_weak_btc_defensive</title></rect>
<rect x="366.7665137614679" y="682.5" width="6.1000000000000005" height="25.0" fill="#2563eb" opacity="0.85"><title>2024-09-23 | ETH buy 90.00 usd | reason=both_weak_btc_defensive</title></rect>
<rect x="377.95917431192663" y="682.5" width="6.1000000000000005" height="25.0" fill="#2563eb" opacity="0.85"><title>2024-09-30 | ETH buy 90.00 usd | reason=both_weak_btc_defensive</title></rect>
<rect x="389.15183486238533" y="682.5" width="6.1000000000000005" height="25.0" fill="#2563eb" opacity="0.85"><title>2024-10-07 | ETH buy 90.00 usd | reason=both_weak_btc_defensive</title></rect>
<rect x="400.344495412844" y="695.0" width="6.1000000000000005" height="12.5" fill="#2563eb" opacity="0.85"><title>2024-10-14 | ETH buy 45.00 usd | reason=btc_defensive_regime</title></rect>
<rect x="411.5371559633028" y="695.0" width="6.1000000000000005" height="12.5" fill="#2563eb" opacity="0.85"><title>2024-10-21 | ETH buy 45.00 usd | reason=btc_defensive_regime</title></rect>
<rect x="422.7298165137615" y="695.0" width="6.1000000000000005" height="12.5" fill="#2563eb" opacity="0.85"><title>2024-10-28 | ETH buy 45.00 usd | reason=btc_defensive_regime</title></rect>
<rect x="433.9224770642202" y="695.0" width="6.1000000000000005" height="12.5" fill="#2563eb" opacity="0.85"><title>2024-11-04 | ETH buy 45.00 usd | reason=btc_defensive_regime</title></rect>
<rect x="445.11513761467893" y="695.0" width="6.1000000000000005" height="12.5" fill="#2563eb" opacity="0.85"><title>2024-11-11 | ETH buy 45.00 usd | reason=btc_defensive_regime</title></rect>
<rect x="456.3077981651376" y="695.0" width="6.1000000000000005" height="12.5" fill="#2563eb" opacity="0.85"><title>2024-11-18 | ETH buy 45.00 usd | reason=btc_defensive_regime</title></rect>
<rect x="467.5004587155963" y="695.0" width="6.1000000000000005" height="12.5" fill="#2563eb" opacity="0.85"><title>2024-11-25 | ETH buy 45.00 usd | reason=btc_defensive_regime</title></rect>
<rect x="478.6931192660551" y="695.0" width="6.1000000000000005" height="12.5" fill="#2563eb" opacity="0.85"><title>2024-12-02 | ETH buy 45.00 usd | reason=btc_defensive_regime</title></rect>
<rect x="489.8857798165138" y="695.0" width="6.1000000000000005" height="12.5" fill="#2563eb" opacity="0.85"><title>2024-12-09 | ETH buy 45.00 usd | reason=btc_defensive_regime</title></rect>
<rect x="501.0784403669725" y="695.0" width="6.1000000000000005" height="12.5" fill="#2563eb" opacity="0.85"><title>2024-12-16 | ETH buy 45.00 usd | reason=btc_defensive_regime</title></rect>
<rect x="512.2711009174313" y="695.0" width="6.1000000000000005" height="12.5" fill="#2563eb" opacity="0.85"><title>2024-12-23 | ETH buy 45.00 usd | reason=btc_defensive_regime</title></rect>
<rect x="523.46376146789" y="695.0" width="6.1000000000000005" height="12.5" fill="#2563eb" opacity="0.85"><title>2024-12-30 | ETH buy 45.00 usd | reason=btc_defensive_regime</title></rect>
<rect x="534.6564220183486" y="695.0" width="6.1000000000000005" height="12.5" fill="#2563eb" opacity="0.85"><title>2025-01-06 | ETH buy 45.00 usd | reason=btc_defensive_regime</title></rect>
<rect x="545.8490825688075" y="695.0" width="6.1000000000000005" height="12.5" fill="#2563eb" opacity="0.85"><title>2025-01-13 | ETH buy 45.00 usd | reason=btc_defensive_regime</title></rect>
<rect x="557.0417431192661" y="695.0" width="6.1000000000000005" height="12.5" fill="#2563eb" opacity="0.85"><title>2025-01-20 | ETH buy 45.00 usd | reason=btc_defensive_regime</title></rect>
<rect x="568.2344036697248" y="695.0" width="6.1000000000000005" height="12.5" fill="#2563eb" opacity="0.85"><title>2025-01-27 | ETH buy 45.00 usd | reason=btc_defensive_regime</title></rect>
<rect x="579.4270642201836" y="695.0" width="6.1000000000000005" height="12.5" fill="#2563eb" opacity="0.85"><title>2025-02-03 | ETH buy 45.00 usd | reason=btc_defensive_regime</title></rect>
<rect x="590.6197247706423" y="695.0" width="6.1000000000000005" height="12.5" fill="#2563eb" opacity="0.85"><title>2025-02-10 | ETH buy 45.00 usd | reason=btc_defensive_regime</title></rect>
<rect x="601.812385321101" y="695.0" width="6.1000000000000005" height="12.5" fill="#2563eb" opacity="0.85"><title>2025-02-17 | ETH buy 45.00 usd | reason=btc_defensive_regime</title></rect>
<rect x="613.0050458715597" y="695.0" width="6.1000000000000005" height="12.5" fill="#2563eb" opacity="0.85"><title>2025-02-24 | ETH buy 45.00 usd | reason=btc_defensive_regime</title></rect>
<rect x="624.1977064220184" y="695.0" width="6.1000000000000005" height="12.5" fill="#2563eb" opacity="0.85"><title>2025-03-03 | ETH buy 45.00 usd | reason=btc_defensive_regime</title></rect>
<rect x="635.3903669724772" y="645.0" width="6.1000000000000005" height="62.5" fill="#2563eb" opacity="0.85"><title>2025-03-10 | ETH buy 225.00 usd | reason=both_weak_btc_defensive</title></rect>
<rect x="646.5830275229358" y="645.0" width="6.1000000000000005" height="62.5" fill="#2563eb" opacity="0.85"><title>2025-03-17 | ETH buy 225.00 usd | reason=both_weak_btc_defensive</title></rect>
<rect x="657.7756880733946" y="695.0" width="6.1000000000000005" height="12.5" fill="#2563eb" opacity="0.85"><title>2025-03-24 | ETH buy 45.00 usd | reason=btc_defensive_regime</title></rect>
<rect x="668.9683486238533" y="645.0" width="6.1000000000000005" height="62.5" fill="#2563eb" opacity="0.85"><title>2025-03-31 | ETH buy 225.00 usd | reason=both_weak_btc_defensive</title></rect>
<rect x="680.161009174312" y="645.0" width="6.1000000000000005" height="62.5" fill="#2563eb" opacity="0.85"><title>2025-04-07 | ETH buy 225.00 usd | reason=both_weak_btc_defensive</title></rect>
<rect x="691.3536697247707" y="661.5396262784132" width="6.1000000000000005" height="45.96037372158685" fill="#2563eb" opacity="0.85"><title>2025-04-14 | ETH buy 165.46 usd | reason=both_weak_btc_defensive</title></rect>
<rect x="702.5463302752294" y="668.770653475391" width="6.1000000000000005" height="38.729346524609014" fill="#2563eb" opacity="0.85"><title>2025-04-21 | ETH buy 139.43 usd | reason=both_weak_btc_defensive</title></rect>
<rect x="713.7389908256881" y="676.25" width="6.1000000000000005" height="31.25" fill="#2563eb" opacity="0.85"><title>2025-04-28 | ETH buy 112.50 usd | reason=btc_defensive_regime</title></rect>
<rect x="724.9316513761468" y="676.25" width="6.1000000000000005" height="31.25" fill="#2563eb" opacity="0.85"><title>2025-05-05 | ETH buy 112.50 usd | reason=btc_defensive_regime</title></rect>
<rect x="736.1243119266056" y="707.5" width="6.1000000000000005" height="1.5" fill="#2563eb" opacity="0.85"><title>2025-05-12 | ETH buy 0.00 usd | reason=btc_defensive_regime</title></rect>
<rect x="747.3169724770643" y="707.5" width="6.1000000000000005" height="1.5" fill="#2563eb" opacity="0.85"><title>2025-05-19 | ETH buy 0.00 usd | reason=btc_defensive_regime</title></rect>
<rect x="758.509633027523" y="707.5" width="6.1000000000000005" height="1.5" fill="#2563eb" opacity="0.85"><title>2025-05-26 | ETH buy 0.00 usd | reason=btc_defensive_regime</title></rect>
<rect x="769.7022935779817" y="707.5" width="6.1000000000000005" height="1.5" fill="#2563eb" opacity="0.85"><title>2025-06-02 | ETH buy 0.00 usd | reason=btc_defensive_regime</title></rect>
<rect x="780.8949541284404" y="676.25" width="6.1000000000000005" height="31.25" fill="#2563eb" opacity="0.85"><title>2025-06-09 | ETH buy 112.50 usd | reason=balanced_regime</title></rect>
<rect x="792.0876146788991" y="707.5" width="6.1000000000000005" height="1.5" fill="#2563eb" opacity="0.85"><title>2025-06-16 | ETH buy 0.00 usd | reason=btc_defensive_regime</title></rect>
<rect x="803.2802752293579" y="707.5" width="6.1000000000000005" height="1.5" fill="#2563eb" opacity="0.85"><title>2025-06-23 | ETH buy 0.00 usd | reason=btc_defensive_regime</title></rect>
<rect x="814.4729357798166" y="707.5" width="6.1000000000000005" height="1.5" fill="#2563eb" opacity="0.85"><title>2025-06-30 | ETH buy 0.00 usd | reason=btc_defensive_regime</title></rect>
<rect x="825.6655963302753" y="707.5" width="6.1000000000000005" height="1.5" fill="#2563eb" opacity="0.85"><title>2025-07-07 | ETH buy 0.00 usd | reason=btc_defensive_regime</title></rect>
<rect x="836.858256880734" y="676.25" width="6.1000000000000005" height="31.25" fill="#2563eb" opacity="0.85"><title>2025-07-14 | ETH buy 112.50 usd | reason=balanced_regime</title></rect>
<rect x="848.0509174311927" y="707.5" width="6.1000000000000005" height="11.78132212578987" fill="#7c3aed" opacity="0.85"><title>2025-07-21 | ETH sell 42.41 usd | reason=balanced_regime</title></rect>
<rect x="859.2435779816514" y="707.5" width="6.1000000000000005" height="11.01381816144169" fill="#7c3aed" opacity="0.85"><title>2025-07-28 | ETH sell 39.65 usd | reason=balanced_regime</title></rect>
<rect x="870.4362385321102" y="707.5" width="6.1000000000000005" height="9.592643248008244" fill="#7c3aed" opacity="0.85"><title>2025-08-04 | ETH sell 34.53 usd | reason=balanced_regime</title></rect>
<rect x="881.6288990825689" y="707.5" width="6.1000000000000005" height="19.349525425815386" fill="#7c3aed" opacity="0.85"><title>2025-08-11 | ETH sell 69.66 usd | reason=balanced_regime</title></rect>
<rect x="892.8215596330276" y="707.5" width="6.1000000000000005" height="22.979607419665854" fill="#7c3aed" opacity="0.85"><title>2025-08-18 | ETH sell 82.73 usd | reason=balanced_regime</title></rect>
<rect x="904.0142201834863" y="707.5" width="6.1000000000000005" height="25.99848105571823" fill="#7c3aed" opacity="0.85"><title>2025-08-25 | ETH sell 93.59 usd | reason=balanced_regime</title></rect>
<rect x="915.206880733945" y="707.5" width="6.1000000000000005" height="22.985436818022663" fill="#7c3aed" opacity="0.85"><title>2025-09-01 | ETH sell 82.75 usd | reason=balanced_regime</title></rect>
<rect x="926.3995412844037" y="707.5" width="6.1000000000000005" height="19.322715941522347" fill="#7c3aed" opacity="0.85"><title>2025-09-08 | ETH sell 69.56 usd | reason=balanced_regime</title></rect>
<rect x="937.5922018348625" y="707.5" width="6.1000000000000005" height="20.821560304280524" fill="#7c3aed" opacity="0.85"><title>2025-09-15 | ETH sell 74.96 usd | reason=balanced_regime</title></rect>
<rect x="948.7848623853212" y="707.5" width="6.1000000000000005" height="7.959317144401439" fill="#7c3aed" opacity="0.85"><title>2025-09-22 | ETH sell 28.65 usd | reason=balanced_regime</title></rect>
<rect x="959.9775229357799" y="707.5" width="6.1000000000000005" height="7.530224416121882" fill="#7c3aed" opacity="0.85"><title>2025-09-29 | ETH sell 27.11 usd | reason=balanced_regime</title></rect>
<rect x="971.1701834862386" y="707.5" width="6.1000000000000005" height="9.32860894386647" fill="#7c3aed" opacity="0.85"><title>2025-10-06 | ETH sell 33.58 usd | reason=balanced_regime</title></rect>
<rect x="982.3628440366973" y="707.5" width="6.1000000000000005" height="6.3619910910147155" fill="#7c3aed" opacity="0.85"><title>2025-10-13 | ETH sell 22.90 usd | reason=balanced_regime</title></rect>
<rect x="993.555504587156" y="707.5" width="6.1000000000000005" height="1.5" fill="#2563eb" opacity="0.85"><title>2025-10-20 | ETH buy 0.00 usd | reason=balanced_regime</title></rect>
<rect x="1004.7481651376148" y="707.5" width="6.1000000000000005" height="5.376236894535168" fill="#7c3aed" opacity="0.85"><title>2025-10-27 | ETH sell 19.35 usd | reason=balanced_regime</title></rect>
<rect x="1015.9408256880735" y="707.5" width="6.1000000000000005" height="1.5" fill="#2563eb" opacity="0.85"><title>2025-11-03 | ETH buy 0.00 usd | reason=balanced_regime</title></rect>
<rect x="1027.1334862385322" y="707.5" width="6.1000000000000005" height="1.5" fill="#2563eb" opacity="0.85"><title>2025-11-10 | ETH buy 0.00 usd | reason=balanced_regime</title></rect>
<rect x="1038.3261467889909" y="707.5" width="6.1000000000000005" height="1.5" fill="#2563eb" opacity="0.85"><title>2025-11-17 | ETH buy 0.00 usd | reason=both_weak_btc_defensive</title></rect>
<rect x="1049.5188073394495" y="707.5" width="6.1000000000000005" height="1.5" fill="#2563eb" opacity="0.85"><title>2025-11-24 | ETH buy 0.00 usd | reason=both_weak_btc_defensive</title></rect>
<rect x="1060.7114678899081" y="707.5" width="6.1000000000000005" height="1.5" fill="#2563eb" opacity="0.85"><title>2025-12-01 | ETH buy 0.00 usd | reason=both_weak_btc_defensive</title></rect>
<rect x="1071.9041284403672" y="707.5" width="6.1000000000000005" height="1.5" fill="#2563eb" opacity="0.85"><title>2025-12-08 | ETH buy 0.00 usd | reason=both_weak_btc_defensive</title></rect>
<rect x="1083.0967889908259" y="707.5" width="6.1000000000000005" height="1.5" fill="#2563eb" opacity="0.85"><title>2025-12-15 | ETH buy 0.00 usd | reason=both_weak_btc_defensive</title></rect>
<rect x="1094.2894495412845" y="707.5" width="6.1000000000000005" height="1.5" fill="#2563eb" opacity="0.85"><title>2025-12-22 | ETH buy 0.00 usd | reason=both_weak_btc_defensive</title></rect>
<rect x="1105.4821100917432" y="707.5" width="6.1000000000000005" height="1.5" fill="#2563eb" opacity="0.85"><title>2025-12-29 | ETH buy 0.00 usd | reason=both_weak_btc_defensive</title></rect>
<rect x="1116.674770642202" y="707.5" width="6.1000000000000005" height="1.5" fill="#2563eb" opacity="0.85"><title>2026-01-05 | ETH buy 0.00 usd | reason=both_weak_btc_defensive</title></rect>
<rect x="1127.8674311926607" y="707.5" width="6.1000000000000005" height="1.5" fill="#2563eb" opacity="0.85"><title>2026-01-12 | ETH buy 0.00 usd | reason=both_weak_btc_defensive</title></rect>
<rect x="1139.0600917431193" y="707.5" width="6.1000000000000005" height="1.5" fill="#2563eb" opacity="0.85"><title>2026-01-19 | ETH buy 0.00 usd | reason=both_weak_btc_defensive</title></rect>
<rect x="1150.252752293578" y="707.5" width="6.1000000000000005" height="1.5" fill="#2563eb" opacity="0.85"><title>2026-01-26 | ETH buy 0.00 usd | reason=both_weak_btc_defensive</title></rect>
<rect x="1161.4454128440368" y="707.5" width="6.1000000000000005" height="1.5" fill="#2563eb" opacity="0.85"><title>2026-02-02 | ETH buy 0.00 usd | reason=both_weak_btc_defensive</title></rect>
<rect x="1172.6380733944954" y="707.5" width="6.1000000000000005" height="1.5" fill="#2563eb" opacity="0.85"><title>2026-02-09 | ETH buy 0.00 usd | reason=both_weak_btc_defensive</title></rect>
<rect x="1183.8307339449543" y="707.5" width="6.1000000000000005" height="1.5" fill="#2563eb" opacity="0.85"><title>2026-02-16 | ETH buy 0.00 usd | reason=both_weak_btc_defensive</title></rect>
<rect x="1195.023394495413" y="707.5" width="6.1000000000000005" height="1.5" fill="#2563eb" opacity="0.85"><title>2026-02-23 | ETH buy 0.00 usd | reason=both_weak_btc_defensive</title></rect>
<rect x="1206.2160550458716" y="707.5" width="6.1000000000000005" height="1.5" fill="#2563eb" opacity="0.85"><title>2026-03-02 | ETH buy 0.00 usd | reason=both_weak_btc_defensive</title></rect>
<rect x="1217.4087155963302" y="707.5" width="6.1000000000000005" height="1.5" fill="#2563eb" opacity="0.85"><title>2026-03-09 | ETH buy 0.00 usd | reason=both_weak_btc_defensive</title></rect>
<rect x="1228.601376146789" y="707.5" width="6.1000000000000005" height="1.5" fill="#2563eb" opacity="0.85"><title>2026-03-16 | ETH buy 0.00 usd | reason=both_weak_btc_defensive</title></rect>
<rect x="1239.7940366972477" y="707.5" width="6.1000000000000005" height="1.5" fill="#2563eb" opacity="0.85"><title>2026-03-23 | ETH buy 0.00 usd | reason=both_weak_btc_defensive</title></rect>
<rect x="1250.9866972477066" y="707.5" width="6.1000000000000005" height="1.5" fill="#2563eb" opacity="0.85"><title>2026-03-30 | ETH buy 0.00 usd | reason=both_weak_btc_defensive</title></rect>
<rect x="1262.1793577981653" y="707.5" width="6.1000000000000005" height="1.5" fill="#2563eb" opacity="0.85"><title>2026-04-06 | ETH buy 0.00 usd | reason=both_weak_btc_defensive</title></rect>
<rect x="1273.372018348624" y="707.5" width="6.1000000000000005" height="1.5" fill="#2563eb" opacity="0.85"><title>2026-04-13 | ETH buy 0.00 usd | reason=both_weak_btc_defensive</title></rect>
<rect x="1284.5646788990825" y="707.5" width="6.1000000000000005" height="1.5" fill="#2563eb" opacity="0.85"><title>2026-04-20 | ETH buy 0.00 usd | reason=both_weak_btc_defensive</title></rect>
<rect x="1295.7573394495414" y="707.5" width="6.1000000000000005" height="1.5" fill="#2563eb" opacity="0.85"><title>2026-04-27 | ETH buy 0.00 usd | reason=both_weak_btc_defensive</title></rect>
<rect x="1306.95" y="707.5" width="6.1000000000000005" height="1.5" fill="#2563eb" opacity="0.85"><title>2026-05-04 | ETH buy 0.00 usd | reason=both_weak_btc_defensive</title></rect>
<text x="24" y="707.5" transform="rotate(-90 24,707.5)" text-anchor="middle" font-family="monospace" font-size="14" fill="#0f172a">ETH weekly trade usd</text>
<rect x="1040" y="478" width="14" height="10" fill="#ea580c" opacity="0.85"/>
<text x="1062" y="488" font-family="monospace" font-size="11" fill="#0f172a">BTC buy</text>
<rect x="1190" y="478" width="14" height="10" fill="#dc2626" opacity="0.85"/>
<text x="1212" y="488" font-family="monospace" font-size="11" fill="#0f172a">BTC sell</text>
<rect x="1040" y="498" width="14" height="10" fill="#2563eb" opacity="0.85"/>
<text x="1062" y="508" font-family="monospace" font-size="11" fill="#0f172a">ETH buy</text>
<rect x="1190" y="498" width="14" height="10" fill="#7c3aed" opacity="0.85"/>
<text x="1212" y="508" font-family="monospace" font-size="11" fill="#0f172a">ETH sell</text>
</svg>