<svg xmlns="http://www.w3.org/2000/svg" width="1400" height="800">
<rect width="1400" height="800" fill="#f8fafc"/>
<text x="700.0" y="42" text-anchor="middle" font-family="monospace" font-size="24" fill="#0f172a">budgeted_drawdown_tilt_rebalance | weekly | start=2024-07-01 | return=24.95%</text>
<line x1="90" y1="420" x2="1310" y2="420" stroke="#334155" stroke-width="2"/>
<line x1="90" y1="90" x2="90" y2="420" stroke="#334155" stroke-width="2"/>
<line x1="90.0" y1="420" x2="90.0" y2="90" stroke="#94a3b8" stroke-width="1.2"/>
<line x1="90.0" y1="605" x2="90.0" y2="480" stroke="#94a3b8" stroke-width="1.2"/>
<line x1="90.0" y1="770" x2="90.0" y2="645" stroke="#94a3b8" stroke-width="1.2"/>
<text x="90.0" y="788" text-anchor="middle" font-family="monospace" font-size="11" fill="#334155">2024-07</text>
<line x1="153.54166666666669" y1="420" x2="153.54166666666669" y2="90" stroke="#94a3b8" stroke-width="1.2"/>
<line x1="153.54166666666669" y1="605" x2="153.54166666666669" y2="480" stroke="#94a3b8" stroke-width="1.2"/>
<line x1="153.54166666666669" y1="770" x2="153.54166666666669" y2="645" stroke="#94a3b8" stroke-width="1.2"/>
<text x="153.54166666666669" y="788" text-anchor="middle" font-family="monospace" font-size="11" fill="#334155">2024-08</text>
<line x1="204.375" y1="420" x2="204.375" y2="90" stroke="#94a3b8" stroke-width="1.2"/>
<line x1="204.375" y1="605" x2="204.375" y2="480" stroke="#94a3b8" stroke-width="1.2"/>
<line x1="204.375" y1="770" x2="204.375" y2="645" stroke="#94a3b8" stroke-width="1.2"/>
<text x="204.375" y="788" text-anchor="middle" font-family="monospace" font-size="11" fill="#334155">2024-09</text>
<line x1="267.9166666666667" y1="420" x2="267.9166666666667" y2="90" stroke="#94a3b8" stroke-width="1.2"/>
<line x1="267.9166666666667" y1="605" x2="267.9166666666667" y2="480" stroke="#94a3b8" stroke-width="1.2"/>
<line x1="267.9166666666667" y1="770" x2="267.9166666666667" y2="645" stroke="#94a3b8" stroke-width="1.2"/>
<text x="267.9166666666667" y="788" text-anchor="middle" font-family="monospace" font-size="11" fill="#334155">2024-10</text>
<line x1="318.75" y1="420" x2="318.75" y2="90" stroke="#94a3b8" stroke-width="1.2"/>
<line x1="318.75" y1="605" x2="318.75" y2="480" stroke="#94a3b8" stroke-width="1.2"/>
<line x1="318.75" y1="770" x2="318.75" y2="645" stroke="#94a3b8" stroke-width="1.2"/>
<text x="318.75" y="788" text-anchor="middle" font-family="monospace" font-size="11" fill="#334155">2024-11</text>
<line x1="369.5833333333333" y1="420" x2="369.5833333333333" y2="90" stroke="#94a3b8" stroke-width="1.2"/>
<line x1="369.5833333333333" y1="605" x2="369.5833333333333" y2="480" stroke="#94a3b8" stroke-width="1.2"/>
<line x1="369.5833333333333" y1="770" x2="369.5833333333333" y2="645" stroke="#94a3b8" stroke-width="1.2"/>
<text x="369.5833333333333" y="788" text-anchor="middle" font-family="monospace" font-size="11" fill="#334155">2024-12</text>
<line x1="433.125" y1="420" x2="433.125" y2="90" stroke="#94a3b8" stroke-width="1.2"/>
<line x1="433.125" y1="605" x2="433.125" y2="480" stroke="#94a3b8" stroke-width="1.2"/>
<line x1="433.125" y1="770" x2="433.125" y2="645" stroke="#94a3b8" stroke-width="1.2"/>
<text x="433.125" y="788" text-anchor="middle" font-family="monospace" font-size="11" fill="#334155">2025-01</text>
<line x1="483.95833333333337" y1="420" x2="483.95833333333337" y2="90" stroke="#94a3b8" stroke-width="1.2"/>
<line x1="483.95833333333337" y1="605" x2="483.95833333333337" y2="480" stroke="#94a3b8" stroke-width="1.2"/>
<line x1="483.95833333333337" y1="770" x2="483.95833333333337" y2="645" stroke="#94a3b8" stroke-width="1.2"/>
<text x="483.95833333333337" y="788" text-anchor="middle" font-family="monospace" font-size="11" fill="#334155">2025-02</text>
<line x1="534.7916666666666" y1="420" x2="534.7916666666666" y2="90" stroke="#94a3b8" stroke-width="1.2"/>
<line x1="534.7916666666666" y1="605" x2="534.7916666666666" y2="480" stroke="#94a3b8" stroke-width="1.2"/>
<line x1="534.7916666666666" y1="770" x2="534.7916666666666" y2="645" stroke="#94a3b8" stroke-width="1.2"/>
<text x="534.7916666666666" y="788" text-anchor="middle" font-family="monospace" font-size="11" fill="#334155">2025-03</text>
<line x1="598.3333333333334" y1="420" x2="598.3333333333334" y2="90" stroke="#94a3b8" stroke-width="1.2"/>
<line x1="598.3333333333334" y1="605" x2="598.3333333333334" y2="480" stroke="#94a3b8" stroke-width="1.2"/>
<line x1="598.3333333333334" y1="770" x2="598.3333333333334" y2="645" stroke="#94a3b8" stroke-width="1.2"/>
<text x="598.3333333333334" y="788" text-anchor="middle" font-family="monospace" font-size="11" fill="#334155">2025-04</text>
<line x1="649.1666666666666" y1="420" x2="649.1666666666666" y2="90" stroke="#94a3b8" stroke-width="1.2"/>
<line x1="649.1666666666666" y1="605" x2="649.1666666666666" y2="480" stroke="#94a3b8" stroke-width="1.2"/>
<line x1="649.1666666666666" y1="770" x2="649.1666666666666" y2="645" stroke="#94a3b8" stroke-width="1.2"/>
<text x="649.1666666666666" y="788" text-anchor="middle" font-family="monospace" font-size="11" fill="#334155">2025-05</text>
<line x1="700.0" y1="420" x2="700.0" y2="90" stroke="#94a3b8" stroke-width="1.2"/>
<line x1="700.0" y1="605" x2="700.0" y2="480" stroke="#94a3b8" stroke-width="1.2"/>
<line x1="700.0" y1="770" x2="700.0" y2="645" stroke="#94a3b8" stroke-width="1.2"/>
<text x="700.0" y="788" text-anchor="middle" font-family="monospace" font-size="11" fill="#334155">2025-06</text>
<line x1="763.5416666666667" y1="420" x2="763.5416666666667" y2="90" stroke="#94a3b8" stroke-width="1.2"/>
<line x1="763.5416666666667" y1="605" x2="763.5416666666667" y2="480" stroke="#94a3b8" stroke-width="1.2"/>
<line x1="763.5416666666667" y1="770" x2="763.5416666666667" y2="645" stroke="#94a3b8" stroke-width="1.2"/>
<text x="763.5416666666667" y="788" text-anchor="middle" font-family="monospace" font-size="11" fill="#334155">2025-07</text>
<line x1="814.375" y1="420" x2="814.375" y2="90" stroke="#94a3b8" stroke-width="1.2"/>
<line x1="814.375" y1="605" x2="814.375" y2="480" stroke="#94a3b8" stroke-width="1.2"/>
<line x1="814.375" y1="770" x2="814.375" y2="645" stroke="#94a3b8" stroke-width="1.2"/>
<text x="814.375" y="788" text-anchor="middle" font-family="monospace" font-size="11" fill="#334155">2025-08</text>
<line x1="865.2083333333333" y1="420" x2="865.2083333333333" y2="90" stroke="#94a3b8" stroke-width="1.2"/>
<line x1="865.2083333333333" y1="605" x2="865.2083333333333" y2="480" stroke="#94a3b8" stroke-width="1.2"/>
<line x1="865.2083333333333" y1="770" x2="865.2083333333333" y2="645" stroke="#94a3b8" stroke-width="1.2"/>
<text x="865.2083333333333" y="788" text-anchor="middle" font-family="monospace" font-size="11" fill="#334155">2025-09</text>
<line x1="928.75" y1="420" x2="928.75" y2="90" stroke="#94a3b8" stroke-width="1.2"/>
<line x1="928.75" y1="605" x2="928.75" y2="480" stroke="#94a3b8" stroke-width="1.2"/>
<line x1="928.75" y1="770" x2="928.75" y2="645" stroke="#94a3b8" stroke-width="1.2"/>
<text x="928.75" y="788" text-anchor="middle" font-family="monospace" font-size="11" fill="#334155">2025-10</text>
<line x1="979.5833333333333" y1="420" x2="979.5833333333333" y2="90" stroke="#94a3b8" stroke-width="1.2"/>
<line x1="979.5833333333333" y1="605" x2="979.5833333333333" y2="480" stroke="#94a3b8" stroke-width="1.2"/>
<line x1="979.5833333333333" y1="770" x2="979.5833333333333" y2="645" stroke="#94a3b8" stroke-width="1.2"/>
<text x="979.5833333333333" y="788" text-anchor="middle" font-family="monospace" font-size="11" fill="#334155">2025-11</text>
<line x1="1030.4166666666667" y1="420" x2="1030.4166666666667" y2="90" stroke="#94a3b8" stroke-width="1.2"/>
<line x1="1030.4166666666667" y1="605" x2="1030.4166666666667" y2="480" stroke="#94a3b8" stroke-width="1.2"/>
<line x1="1030.4166666666667" y1="770" x2="1030.4166666666667" y2="645" stroke="#94a3b8" stroke-width="1.2"/>
<text x="1030.4166666666667" y="788" text-anchor="middle" font-family="monospace" font-size="11" fill="#334155">2025-12</text>
<line x1="1093.9583333333333" y1="420" x2="1093.9583333333333" y2="90" stroke="#94a3b8" stroke-width="1.2"/>
<line x1="1093.9583333333333" y1="605" x2="1093.9583333333333" y2="480" stroke="#94a3b8" stroke-width="1.2"/>
<line x1="1093.9583333333333" y1="770" x2="1093.9583333333333" y2="645" stroke="#94a3b8" stroke-width="1.2"/>
<text x="1093.9583333333333" y="788" text-anchor="middle" font-family="monospace" font-size="11" fill="#334155">2026-01</text>
<line x1="1144.7916666666667" y1="420" x2="1144.7916666666667" y2="90" stroke="#94a3b8" stroke-width="1.2"/>
<line x1="1144.7916666666667" y1="605" x2="1144.7916666666667" y2="480" stroke="#94a3b8" stroke-width="1.2"/>
<line x1="1144.7916666666667" y1="770" x2="1144.7916666666667" y2="645" stroke="#94a3b8" stroke-width="1.2"/>
<text x="1144.7916666666667" y="788" text-anchor="middle" font-family="monospace" font-size="11" fill="#334155">2026-02</text>
<line x1="1195.625" y1="420" x2="1195.625" y2="90" stroke="#94a3b8" stroke-width="1.2"/>
<line x1="1195.625" y1="605" x2="1195.625" y2="480" stroke="#94a3b8" stroke-width="1.2"/>
<line x1="1195.625" y1="770" x2="1195.625" y2="645" stroke="#94a3b8" stroke-width="1.2"/>
<text x="1195.625" y="788" text-anchor="middle" font-family="monospace" font-size="11" fill="#334155">2026-03</text>
<line x1="1259.1666666666667" y1="420" x2="1259.1666666666667" y2="90" stroke="#94a3b8" stroke-width="1.2"/>
<line x1="1259.1666666666667" y1="605" x2="1259.1666666666667" y2="480" stroke="#94a3b8" stroke-width="1.2"/>
<line x1="1259.1666666666667" y1="770" x2="1259.1666666666667" y2="645" stroke="#94a3b8" stroke-width="1.2"/>
<text x="1259.1666666666667" y="788" text-anchor="middle" font-family="monospace" font-size="11" fill="#334155">2026-04</text>
<line x1="1310.0" y1="420" x2="1310.0" y2="90" stroke="#94a3b8" stroke-width="1.2"/>
<line x1="1310.0" y1="605" x2="1310.0" y2="480" stroke="#94a3b8" stroke-width="1.2"/>
<line x1="1310.0" y1="770" x2="1310.0" y2="645" stroke="#94a3b8" stroke-width="1.2"/>
<text x="1310.0" y="788" text-anchor="middle" font-family="monospace" font-size="11" fill="#334155">2026-05</text>
<line x1="90" y1="420.0" x2="1310" y2="420.0" stroke="#cbd5e1" stroke-width="1"/>
<text x="78" y="424.0" text-anchor="end" font-family="monospace" font-size="12" fill="#475569">0</text>
<line x1="90" y1="354.0" x2="1310" y2="354.0" stroke="#cbd5e1" stroke-width="1"/>
<text x="78" y="358.0" text-anchor="end" font-family="monospace" font-size="12" fill="#475569">3488</text>
<line x1="90" y1="288.0" x2="1310" y2="288.0" stroke="#cbd5e1" stroke-width="1"/>
<text x="78" y="292.0" text-anchor="end" font-family="monospace" font-size="12" fill="#475569">6975</text>
<line x1="90" y1="222.0" x2="1310" y2="222.0" stroke="#cbd5e1" stroke-width="1"/>
<text x="78" y="226.0" text-anchor="end" font-family="monospace" font-size="12" fill="#475569">10463</text>
<line x1="90" y1="156.0" x2="1310" y2="156.0" stroke="#cbd5e1" stroke-width="1"/>
<text x="78" y="160.0" text-anchor="end" font-family="monospace" font-size="12" fill="#475569">13951</text>
<line x1="90" y1="90.0" x2="1310" y2="90.0" stroke="#cbd5e1" stroke-width="1"/>
<text x="78" y="94.0" text-anchor="end" font-family="monospace" font-size="12" fill="#475569">17438</text>
<polygon points="90.0,232.8896555098195 102.70833333333333,236.67444123907725 115.41666666666666,236.67444123907725 128.125,238.80338321178476 140.83333333333331,240.93232518449224 153.54166666666669,244.71711091375 166.25,248.50189664300777 178.95833333333334,252.2866823722655 191.66666666666666,256.0714681015233 204.375,259.85625383078104 217.08333333333334,263.6410395600388 229.79166666666666,267.42582528929654 242.5,271.21061101855435 255.20833333333331,274.9953967478121 267.9166666666667,278.78018247706984 280.625,282.5649682063276 293.3333333333333,286.34975393558534 306.0416666666667,290.13453966484315 318.75,293.9193253941009 331.4583333333333,296.0482673668084 344.1666666666667,298.17720933951585 356.875,300.30615131222334 369.5833333333333,300.30615131222334 382.2916666666667,300.30615131222334 395.0,300.30615131222334 407.70833333333337,302.4350932849309 420.41666666666663,304.56403525763835 433.125,304.56403525763835 445.83333333333337,306.69297723034583 458.54166666666663,308.8219192030533 471.25,310.9508611757608 483.95833333333337,314.7356469050186 496.66666666666663,318.5204326342763 509.375,322.3052183635341 522.0833333333334,326.09000409279184 534.7916666666666,329.8747898220496 547.5,334.60577198362176 560.2083333333334,339.336754145194 572.9166666666666,343.12153987445174 585.625,347.85252203602397 598.3333333333334,352.58350419759614 611.0416666666666,357.31448635916837 623.75,362.04546852074054 636.4583333333334,366.77645068231277 649.1666666666666,371.50743284388494 661.875,375.2922185731427 674.5833333333334,379.0770043024005 687.2916666666666,382.86179003165824 700.0,384.24627587453506 712.7083333333333,385.90099665208623 725.4166666666667,387.6797922983236 738.125,390.53532794347024 750.8333333333333,391.579178949633 763.5416666666667,391.60245357738603 776.25,389.1879644345635 788.9583333333333,376.15936992927004 801.6666666666667,364.6942769743048 814.375,354.9500032907348 827.0833333333333,344.29530146315676 839.7916666666667,335.1530755036905 852.5,326.2716863877213 865.2083333333333,318.8403717695843 877.9166666666667,312.82397335649284 890.625,306.83009972471314 903.3333333333333,303.0482339019451 916.0416666666667,299.90800191861365 928.75,295.9332295299379 941.4583333333333,293.5654344123096 954.1666666666667,295.6943763850171 966.875,293.9700255765572 979.5833333333333,297.75481130581494 992.2916666666667,301.5395970350727 1005.0,305.32438276433044 1017.7083333333333,309.1091684935882 1030.4166666666667,312.893954222846 1043.125,316.67873995210374 1055.8333333333333,320.4635256813615 1068.5416666666667,324.24831141061924 1081.25,328.033097139877 1093.9583333333333,331.8178828691348 1106.6666666666667,335.60266859839254 1119.375,339.3874543276503 1132.0833333333333,343.17224005690804 1144.7916666666667,347.9032222184802 1157.5,352.63420438005244 1170.2083333333333,357.3651865416246 1182.9166666666667,362.09616870319684 1195.625,366.827150864769 1208.3333333333333,371.55813302634124 1221.0416666666667,376.2891151879134 1233.75,381.02009734948564 1246.4583333333333,385.7510795110578 1259.1666666666667,390.48206167263004 1271.875,395.21304383420227 1284.5833333333333,399.94402599577444 1297.2916666666667,404.1562045601827 1310.0,407.3043464601493 1310.0,420.0 1297.2916666666667,420.0 1284.5833333333333,420.0 1271.875,420.0 1259.1666666666667,420.0 1246.4583333333333,420.0 1233.75,420.0 1221.0416666666667,420.0 1208.3333333333333,420.0 1195.625,420.0 1182.9166666666667,420.0 1170.2083333333333,420.0 1157.5,420.0 1144.7916666666667,420.0 1132.0833333333333,420.0 1119.375,420.0 1106.6666666666667,420.0 1093.9583333333333,420.0 1081.25,420.0 1068.5416666666667,420.0 1055.8333333333333,420.0 1043.125,420.0 1030.4166666666667,420.0 1017.7083333333333,420.0 1005.0,420.0 992.2916666666667,420.0 979.5833333333333,420.0 966.875,420.0 954.1666666666667,420.0 941.4583333333333,420.0 928.75,420.0 916.0416666666667,420.0 903.3333333333333,420.0 890.625,420.0 877.9166666666667,420.0 865.2083333333333,420.0 852.5,420.0 839.7916666666667,420.0 827.0833333333333,420.0 814.375,420.0 801.6666666666667,420.0 788.9583333333333,420.0 776.25,420.0 763.5416666666667,420.0 750.8333333333333,420.0 738.125,420.0 725.4166666666667,420.0 712.7083333333333,420.0 700.0,420.0 687.2916666666666,420.0 674.5833333333334,420.0 661.875,420.0 649.1666666666666,420.0 636.4583333333334,420.0 623.75,420.0 611.0416666666666,420.0 598.3333333333334,420.0 585.625,420.0 572.9166666666666,420.0 560.2083333333334,420.0 547.5,420.0 534.7916666666666,420.0 522.0833333333334,420.0 509.375,420.0 496.66666666666663,420.0 483.95833333333337,420.0 471.25,420.0 458.54166666666663,420.0 445.83333333333337,420.0 433.125,420.0 420.41666666666663,420.0 407.70833333333337,420.0 395.0,420.0 382.2916666666667,420.0 369.5833333333333,420.0 356.875,420.0 344.1666666666667,420.0 331.4583333333333,420.0 318.75,420.0 306.0416666666667,420.0 293.3333333333333,420.0 280.625,420.0 267.9166666666667,420.0 255.20833333333331,420.0 242.5,420.0 229.79166666666666,420.0 217.08333333333334,420.0 204.375,420.0 191.66666666666666,420.0 178.95833333333334,420.0 166.25,420.0 153.54166666666669,420.0 140.83333333333331,420.0 128.125,420.0 115.41666666666666,420.0 102.70833333333333,420.0 90.0,420.0" fill="#facc15" fill-opacity="0.70" stroke="#facc15" stroke-width="1.2"/>
<polygon points="90.0,231.81086992290284 102.70833333333333,233.7727321746076 115.41666666666666,233.32342331728788 128.125,234.3484581050527 140.83333333333331,235.4695132847703 153.54166666666669,238.56764554011025 166.25,239.42248473301575 178.95833333333334,241.290089525162 191.66666666666666,242.62220329440544 204.375,244.8826392677219 217.08333333333334,247.4456486751174 229.79166666666666,249.34533575185992 242.5,248.06156861581525 255.20833333333331,249.92415851139344 267.9166666666667,253.0650382635184 280.625,252.27265050147503 293.3333333333333,253.24100406967682 306.0416666666667,255.756463234928 318.75,259.26979464298347 331.4583333333333,246.00489105025832 344.1666666666667,249.32057640975285 356.875,247.15059341964303 369.5833333333333,243.57339025109187 382.2916666666667,242.49851697525 395.0,238.23280337961003 407.70833333333337,248.106534611426 420.41666666666663,250.11330906708483 433.125,244.70857560792936 445.83333333333337,254.6139536168673 458.54166666666663,253.11610711968314 471.25,255.66232602265333 483.95833333333337,262.27148379728465 496.66666666666663,267.7001421807547 509.375,267.5922892682433 522.0833333333334,273.62389492458203 534.7916666666666,282.6163129655936 547.5,290.55278455667064 560.2083333333334,290.71455558760243 572.9166666666666,287.68197704930526 585.625,296.1977156079008 598.3333333333334,304.0430419688044 611.0416666666666,301.81116362062744 623.75,303.3313250680209 636.4583333333334,295.1272171882768 649.1666666666666,294.33560750178907 661.875,265.68771642295087 674.5833333333334,264.24378954063184 687.2916666666666,262.6266761596326 700.0,260.6433170151521 712.7083333333333,257.2326524137181 725.4166666666667,263.75990913839274 738.125,270.1996514626114 750.8333333333333,266.55168016771927 763.5416666666667,263.72389573938347 776.25,238.76809230453995 788.9583333333333,201.38330044734948 801.6666666666667,199.72504646097966 814.375,203.13735553280623 827.0833333333333,182.58991164539006 839.7916666666667,179.11080821004722 852.5,176.88156580936018 865.2083333333333,179.00653414562748 877.9166666666667,179.29561577047008 890.625,172.51289222031141 903.3333333333333,182.07601995548745 916.0416666666667,181.64911880500134 928.75,168.49559594007698 941.4583333333333,180.50507931344674 954.1666666666667,188.54189484975186 966.875,184.78172415900926 979.5833333333333,200.1755847144841 992.2916666666667,202.84250593674108 1005.0,219.42838890965874 1017.7083333333333,223.27416585529582 1030.4166666666667,229.43885613166995 1043.125,221.43853013862005 1055.8333333333333,228.07341412175 1068.5416666666667,228.4510344738178 1081.25,232.51203736656385 1093.9583333333333,224.77007625887876 1106.6666666666667,230.91269420346416 1119.375,229.41330944332765 1132.0833333333333,240.10630210865796 1144.7916666666667,262.6133493844761 1157.5,273.45451445474396 1170.2083333333333,279.5020439176011 1182.9166666666667,287.07677928588095 1195.625,282.1766692840684 1208.3333333333333,285.65223407666133 1221.0416666666667,272.2443358390175 1233.75,283.21732691459806 1246.4583333333333,291.0859422881713 1259.1666666666667,289.30630756513574 1271.875,278.7990281038941 1284.5833333333333,283.1870729276453 1297.2916666666667,283.75956175700924 1310.0,281.4853727491054 1310.0,407.3043464601493 1297.2916666666667,404.1562045601827 1284.5833333333333,399.94402599577444 1271.875,395.21304383420227 1259.1666666666667,390.48206167263004 1246.4583333333333,385.7510795110578 1233.75,381.02009734948564 1221.0416666666667,376.2891151879134 1208.3333333333333,371.55813302634124 1195.625,366.827150864769 1182.9166666666667,362.09616870319684 1170.2083333333333,357.3651865416246 1157.5,352.63420438005244 1144.7916666666667,347.9032222184802 1132.0833333333333,343.17224005690804 1119.375,339.3874543276503 1106.6666666666667,335.60266859839254 1093.9583333333333,331.8178828691348 1081.25,328.033097139877 1068.5416666666667,324.24831141061924 1055.8333333333333,320.4635256813615 1043.125,316.67873995210374 1030.4166666666667,312.893954222846 1017.7083333333333,309.1091684935882 1005.0,305.32438276433044 992.2916666666667,301.5395970350727 979.5833333333333,297.75481130581494 966.875,293.9700255765572 954.1666666666667,295.6943763850171 941.4583333333333,293.5654344123096 928.75,295.9332295299379 916.0416666666667,299.90800191861365 903.3333333333333,303.0482339019451 890.625,306.83009972471314 877.9166666666667,312.82397335649284 865.2083333333333,318.8403717695843 852.5,326.2716863877213 839.7916666666667,335.1530755036905 827.0833333333333,344.29530146315676 814.375,354.9500032907348 801.6666666666667,364.6942769743048 788.9583333333333,376.15936992927004 776.25,389.1879644345635 763.5416666666667,391.60245357738603 750.8333333333333,391.579178949633 738.125,390.53532794347024 725.4166666666667,387.6797922983236 712.7083333333333,385.90099665208623 700.0,384.24627587453506 687.2916666666666,382.86179003165824 674.5833333333334,379.0770043024005 661.875,375.2922185731427 649.1666666666666,371.50743284388494 636.4583333333334,366.77645068231277 623.75,362.04546852074054 611.0416666666666,357.31448635916837 598.3333333333334,352.58350419759614 585.625,347.85252203602397 572.9166666666666,343.12153987445174 560.2083333333334,339.336754145194 547.5,334.60577198362176 534.7916666666666,329.8747898220496 522.0833333333334,326.09000409279184 509.375,322.3052183635341 496.66666666666663,318.5204326342763 483.95833333333337,314.7356469050186 471.25,310.9508611757608 458.54166666666663,308.8219192030533 445.83333333333337,306.69297723034583 433.125,304.56403525763835 420.41666666666663,304.56403525763835 407.70833333333337,302.4350932849309 395.0,300.30615131222334 382.2916666666667,300.30615131222334 369.5833333333333,300.30615131222334 356.875,300.30615131222334 344.1666666666667,298.17720933951585 331.4583333333333,296.0482673668084 318.75,293.9193253941009 306.0416666666667,290.13453966484315 293.3333333333333,286.34975393558534 280.625,282.5649682063276 267.9166666666667,278.78018247706984 255.20833333333331,274.9953967478121 242.5,271.21061101855435 229.79166666666666,267.42582528929654 217.08333333333334,263.6410395600388 204.375,259.85625383078104 191.66666666666666,256.0714681015233 178.95833333333334,252.2866823722655 166.25,248.50189664300777 153.54166666666669,244.71711091375 140.83333333333331,240.93232518449224 128.125,238.80338321178476 115.41666666666666,236.67444123907725 102.70833333333333,236.67444123907725 90.0,232.8896555098195" fill="#2563eb" fill-opacity="0.70" stroke="#2563eb" stroke-width="1.2"/>
<polygon points="90.0,230.76071353711203 102.70833333333333,230.99498409602575 115.41666666666666,230.15092093473447 128.125,230.05673293808334 140.83333333333331,230.26666413792483 153.54166666666669,232.73688272637673 166.25,231.3928157633312 178.95833333333334,231.66636815387747 191.66666666666666,230.93616427889083 204.375,232.34148817873904 217.08333333333334,233.83235554199499 229.79166666666666,234.00208938074502 242.5,229.8808250237422 255.20833333333331,230.28914338203433 267.9166666666667,232.3615484042947 280.625,228.87623976324412 293.3333333333333,228.00088923072911 306.0416666666667,228.27291110047855 318.75,231.36492536299494 331.4583333333333,208.5892707905573 344.1666666666667,210.32112534756865 356.875,206.12411582132358 369.5833333333333,201.28396781882375 382.2916666666667,199.5641760302792 395.0,191.42741617426518 407.70833333333337,205.29276721807443 420.41666666666663,207.25409594513525 433.125,197.37990547381725 445.83333333333337,209.94451255152262 458.54166666666663,203.9372336687074 471.25,205.64935889444695 483.95833333333337,211.12783150522515 496.66666666666663,217.18658215143014 509.375,216.4785204036305 522.0833333333334,223.35850337809086 534.7916666666666,233.93349878269714 547.5,244.4736290439649 560.2083333333334,239.79756404472943 572.9166666666666,233.7478896437526 585.625,243.73604488784926 598.3333333333334,253.53083015737076 611.0416666666666,247.8201901354659 623.75,247.4691469104098 636.4583333333334,234.46497533433958 649.1666666666666,233.87032112360643 661.875,200.07405297029456 674.5833333333334,196.83279407987183 687.2916666666666,192.75955183611345 700.0,192.92283492034096 712.7083333333333,186.70103175832588 725.4166666666667,195.43295095249465 738.125,202.78965233564992 750.8333333333333,198.02020799230954 763.5416666666667,194.49118798157667 776.25,163.3289762163575 788.9583333333333,127.47665997289067 801.6666666666667,125.41447368119344 814.375,130.72669956103505 827.0833333333333,107.88204645716206 839.7916666666667,105.9229318531531 852.5,107.57001719811518 865.2083333333333,110.2533599531476 877.9166666666667,108.76004150423921 890.625,99.89502740952042 903.3333333333333,111.12252869115207 916.0416666666667,109.67070438613257 928.75,90.00000000000006 941.4583333333333,107.9545890013863 954.1666666666667,117.95542522032582 966.875,111.94873065437054 979.5833333333333,130.46232253305112 992.2916666666667,131.82643400359763 1005.0,156.0314328623844 1017.7083333333333,160.80695217268328 1030.4166666666667,166.69632136068918 1043.125,153.77621818376576 1055.8333333333333,161.83071755802382 1068.5416666666667,158.84167612049816 1081.25,162.31931772035824 1093.9583333333333,147.39942222188006 1106.6666666666667,154.0327086511258 1119.375,149.64044446153753 1132.0833333333333,162.34791426357168 1144.7916666666667,191.2771391115322 1157.5,207.81904576803268 1170.2083333333333,212.9937666729806 1182.9166666666667,222.60813901262136 1195.625,211.45932315821847 1208.3333333333333,213.3021868652454 1221.0416666666667,190.97324691024087 1233.75,204.22575979872468 1246.4583333333333,214.6142282103395 1259.1666666666667,208.3180383867879 1271.875,189.11870984444192 1284.5833333333333,190.13483808686658 1297.2916666666667,188.86803782668574 1310.0,183.54224748883655 1310.0,281.4853727491054 1297.2916666666667,283.75956175700924 1284.5833333333333,283.1870729276453 1271.875,278.7990281038941 1259.1666666666667,289.30630756513574 1246.4583333333333,291.0859422881713 1233.75,283.21732691459806 1221.0416666666667,272.2443358390175 1208.3333333333333,285.65223407666133 1195.625,282.1766692840684 1182.9166666666667,287.07677928588095 1170.2083333333333,279.5020439176011 1157.5,273.45451445474396 1144.7916666666667,262.6133493844761 1132.0833333333333,240.10630210865796 1119.375,229.41330944332765 1106.6666666666667,230.91269420346416 1093.9583333333333,224.77007625887876 1081.25,232.51203736656385 1068.5416666666667,228.4510344738178 1055.8333333333333,228.07341412175 1043.125,221.43853013862005 1030.4166666666667,229.43885613166995 1017.7083333333333,223.27416585529582 1005.0,219.42838890965874 992.2916666666667,202.84250593674108 979.5833333333333,200.1755847144841 966.875,184.78172415900926 954.1666666666667,188.54189484975186 941.4583333333333,180.50507931344674 928.75,168.49559594007698 916.0416666666667,181.64911880500134 903.3333333333333,182.07601995548745 890.625,172.51289222031141 877.9166666666667,179.29561577047008 865.2083333333333,179.00653414562748 852.5,176.88156580936018 839.7916666666667,179.11080821004722 827.0833333333333,182.58991164539006 814.375,203.13735553280623 801.6666666666667,199.72504646097966 788.9583333333333,201.38330044734948 776.25,238.76809230453995 763.5416666666667,263.72389573938347 750.8333333333333,266.55168016771927 738.125,270.1996514626114 725.4166666666667,263.75990913839274 712.7083333333333,257.2326524137181 700.0,260.6433170151521 687.2916666666666,262.6266761596326 674.5833333333334,264.24378954063184 661.875,265.68771642295087 649.1666666666666,294.33560750178907 636.4583333333334,295.1272171882768 623.75,303.3313250680209 611.0416666666666,301.81116362062744 598.3333333333334,304.0430419688044 585.625,296.1977156079008 572.9166666666666,287.68197704930526 560.2083333333334,290.71455558760243 547.5,290.55278455667064 534.7916666666666,282.6163129655936 522.0833333333334,273.62389492458203 509.375,267.5922892682433 496.66666666666663,267.7001421807547 483.95833333333337,262.27148379728465 471.25,255.66232602265333 458.54166666666663,253.11610711968314 445.83333333333337,254.6139536168673 433.125,244.70857560792936 420.41666666666663,250.11330906708483 407.70833333333337,248.106534611426 395.0,238.23280337961003 382.2916666666667,242.49851697525 369.5833333333333,243.57339025109187 356.875,247.15059341964303 344.1666666666667,249.32057640975285 331.4583333333333,246.00489105025832 318.75,259.26979464298347 306.0416666666667,255.756463234928 293.3333333333333,253.24100406967682 280.625,252.27265050147503 267.9166666666667,253.0650382635184 255.20833333333331,249.92415851139344 242.5,248.06156861581525 229.79166666666666,249.34533575185992 217.08333333333334,247.4456486751174 204.375,244.8826392677219 191.66666666666666,242.62220329440544 178.95833333333334,241.290089525162 166.25,239.42248473301575 153.54166666666669,238.56764554011025 140.83333333333331,235.4695132847703 128.125,234.3484581050527 115.41666666666666,233.32342331728788 102.70833333333333,233.7727321746076 90.0,231.81086992290284" fill="#f97316" fill-opacity="0.70" stroke="#f97316" stroke-width="1.2"/>
<rect x="1100" y="76" width="16" height="12" fill="#f97316" fill-opacity="0.70" stroke="#f97316"/>
<text x="1124" y="86" font-family="monospace" font-size="12" fill="#0f172a">BTC</text>
<rect x="1100" y="98" width="16" height="12" fill="#2563eb" fill-opacity="0.70" stroke="#2563eb"/>
<text x="1124" y="108" font-family="monospace" font-size="12" fill="#0f172a">ETH</text>
<rect x="1100" y="120" width="16" height="12" fill="#facc15" fill-opacity="0.70" stroke="#facc15"/>
<text x="1124" y="130" font-family="monospace" font-size="12" fill="#0f172a">DAI</text>
<text x="700.0" y="782" text-anchor="middle" font-family="monospace" font-size="16" fill="#0f172a">time</text>
<text x="24" y="255.0" transform="rotate(-90 24,255.0)" text-anchor="middle" font-family="monospace" font-size="16" fill="#0f172a">asset value split (usd)</text>
<line x1="90" y1="605" x2="1310" y2="605" stroke="#334155" stroke-width="2"/>
<line x1="90" y1="480" x2="90" y2="605" stroke="#334155" stroke-width="2"/>
<line x1="90" y1="542.5" x2="1310" y2="542.5" stroke="#64748b" stroke-width="1.5" stroke-dasharray="6 4"/>
<line x1="90" y1="605.0" x2="1310" y2="605.0" stroke="#e2e8f0" stroke-width="1"/>
<text x="78" y="609.0" text-anchor="end" font-family="monospace" font-size="11" fill="#475569">-112</text>
<line x1="90" y1="542.5" x2="1310" y2="542.5" stroke="#e2e8f0" stroke-width="1"/>
<text x="78" y="546.5" text-anchor="end" font-family="monospace" font-size="11" fill="#475569">0</text>
<line x1="90" y1="480.0" x2="1310" y2="480.0" stroke="#e2e8f0" stroke-width="1"/>
<text x="78" y="484.0" text-anchor="end" font-family="monospace" font-size="11" fill="#475569">112</text>
<rect x="86.54123711340206" y="511.4532770191628" width="6.917525773195877" height="31.046722980837217" fill="#ea580c" opacity="0.85"><title>2024-07-01 | BTC buy 55.49 usd | reason=neutral_drawdown_eth_tilt</title></rect>
<rect x="99.24957044673539" y="488.39623564070865" width="6.917525773195877" height="54.10376435929135" fill="#ea580c" opacity="0.85"><title>2024-07-08 | BTC buy 96.71 usd | reason=medium_drawdown_eth_tilt</title></rect>
<rect x="111.95790378006872" y="542.5" width="6.917525773195877" height="1.5" fill="#ea580c" opacity="0.85"><title>2024-07-15 | BTC buy 0.00 usd | reason=both_assets_expensive_eth_tilt</title></rect>
<rect x="124.66623711340206" y="513.4683425485185" width="6.917525773195877" height="29.031657451481465" fill="#ea580c" opacity="0.85"><title>2024-07-22 | BTC buy 51.89 usd | reason=neutral_drawdown_eth_tilt</title></rect>
<rect x="137.3745704467354" y="514.085995990084" width="6.917525773195877" height="28.41400400991597" fill="#ea580c" opacity="0.85"><title>2024-07-29 | BTC buy 50.79 usd | reason=neutral_drawdown_eth_tilt</title></rect>
<rect x="150.08290378006876" y="494.58284120466794" width="6.917525773195877" height="47.91715879533206" fill="#ea580c" opacity="0.85"><title>2024-08-05 | BTC buy 85.65 usd | reason=medium_drawdown_eth_tilt</title></rect>
<rect x="162.79123711340208" y="494.49604929584484" width="6.917525773195877" height="48.00395070415516" fill="#ea580c" opacity="0.85"><title>2024-08-12 | BTC buy 85.80 usd | reason=medium_drawdown_eth_tilt</title></rect>
<rect x="175.4995704467354" y="495.74907325829685" width="6.917525773195877" height="46.750926741703154" fill="#ea580c" opacity="0.85"><title>2024-08-19 | BTC buy 83.56 usd | reason=medium_drawdown_eth_tilt</title></rect>
<rect x="188.2079037800687" y="497.7401354581917" width="6.917525773195877" height="44.75986454180833" fill="#ea580c" opacity="0.85"><title>2024-08-26 | BTC buy 80.00 usd | reason=medium_drawdown_eth_tilt</title></rect>
<rect x="200.91623711340208" y="496.876566069928" width="6.917525773195877" height="45.623433930072" fill="#ea580c" opacity="0.85"><title>2024-09-02 | BTC buy 81.55 usd | reason=medium_drawdown_eth_tilt</title></rect>
<rect x="213.6245704467354" y="497.72597221209793" width="6.917525773195877" height="44.77402778790207" fill="#ea580c" opacity="0.85"><title>2024-09-09 | BTC buy 80.03 usd | reason=medium_drawdown_eth_tilt</title></rect>
<rect x="226.3329037800687" y="499.50221843573587" width="6.917525773195877" height="42.99778156426413" fill="#ea580c" opacity="0.85"><title>2024-09-16 | BTC buy 76.86 usd | reason=medium_drawdown_eth_tilt</title></rect>
<rect x="239.04123711340208" y="498.5902489238685" width="6.917525773195877" height="43.9097510761315" fill="#ea580c" opacity="0.85"><title>2024-09-23 | BTC buy 78.49 usd | reason=medium_drawdown_eth_tilt</title></rect>
<rect x="251.7495704467354" y="499.1868119310896" width="6.917525773195877" height="43.31318806891039" fill="#ea580c" opacity="0.85"><title>2024-09-30 | BTC buy 77.42 usd | reason=medium_drawdown_eth_tilt</title></rect>
<rect x="264.45790378006876" y="500.81555515496" width="6.917525773195877" height="41.68444484503999" fill="#ea580c" opacity="0.85"><title>2024-10-07 | BTC buy 74.51 usd | reason=medium_drawdown_eth_tilt</title></rect>
<rect x="277.1662371134021" y="500.9235538916317" width="6.917525773195877" height="41.576446108368316" fill="#ea580c" opacity="0.85"><title>2024-10-14 | BTC buy 74.31 usd | reason=medium_drawdown_eth_tilt</title></rect>
<rect x="289.8745704467354" y="501.3993923247664" width="6.917525773195877" height="41.10060767523362" fill="#ea580c" opacity="0.85"><title>2024-10-21 | BTC buy 73.46 usd | reason=medium_drawdown_eth_tilt</title></rect>
<rect x="302.58290378006876" y="504.7433905756328" width="6.917525773195877" height="37.756609424367184" fill="#ea580c" opacity="0.85"><title>2024-10-28 | BTC buy 67.49 usd | reason=medium_drawdown_eth_tilt</title></rect>
<rect x="315.2912371134021" y="505.4444957036779" width="6.917525773195877" height="37.05550429632211" fill="#ea580c" opacity="0.85"><title>2024-11-04 | BTC buy 66.23 usd | reason=medium_drawdown_eth_tilt</title></rect>
<rect x="327.9995704467354" y="516.3735772747208" width="6.917525773195877" height="26.126422725279213" fill="#ea580c" opacity="0.85"><title>2024-11-11 | BTC buy 46.70 usd | reason=neutral_drawdown_eth_tilt</title></rect>
<rect x="340.70790378006876" y="517.476770322996" width="6.917525773195877" height="25.023229677003997" fill="#ea580c" opacity="0.85"><title>2024-11-18 | BTC buy 44.73 usd | reason=neutral_drawdown_eth_tilt</title></rect>
<rect x="353.4162371134021" y="514.1577675375146" width="6.917525773195877" height="28.342232462485413" fill="#ea580c" opacity="0.85"><title>2024-11-25 | BTC buy 50.66 usd | reason=neutral_drawdown_eth_tilt</title></rect>
<rect x="366.1245704467354" y="542.5" width="6.917525773195877" height="1.5" fill="#ea580c" opacity="0.85"><title>2024-12-02 | BTC buy 0.00 usd | reason=both_assets_expensive_eth_tilt</title></rect>
<rect x="378.83290378006876" y="542.5" width="6.917525773195877" height="1.5" fill="#ea580c" opacity="0.85"><title>2024-12-09 | BTC buy 0.00 usd | reason=both_assets_expensive_eth_tilt</title></rect>
<rect x="391.5412371134021" y="542.5" width="6.917525773195877" height="1.5" fill="#ea580c" opacity="0.85"><title>2024-12-16 | BTC buy 0.00 usd | reason=both_assets_expensive_eth_tilt</title></rect>
<rect x="404.24957044673545" y="512.6739344560311" width="6.917525773195877" height="29.826065543968866" fill="#ea580c" opacity="0.85"><title>2024-12-23 | BTC buy 53.31 usd | reason=neutral_drawdown_eth_tilt</title></rect>
<rect x="416.9579037800687" y="512.5216781297763" width="6.917525773195877" height="29.97832187022368" fill="#ea580c" opacity="0.85"><title>2024-12-30 | BTC buy 53.58 usd | reason=neutral_drawdown_eth_tilt</title></rect>
<rect x="429.6662371134021" y="542.5" width="6.917525773195877" height="1.5" fill="#ea580c" opacity="0.85"><title>2025-01-06 | BTC buy 0.00 usd | reason=both_assets_expensive_eth_tilt</title></rect>
<rect x="442.37457044673545" y="514.7802170488744" width="6.917525773195877" height="27.71978295112558" fill="#ea580c" opacity="0.85"><title>2025-01-13 | BTC buy 49.55 usd | reason=neutral_drawdown_eth_tilt</title></rect>
<rect x="455.0829037800687" y="515.9282498747109" width="6.917525773195877" height="26.5717501252891" fill="#ea580c" opacity="0.85"><title>2025-01-20 | BTC buy 47.49 usd | reason=neutral_drawdown_eth_tilt</title></rect>
<rect x="467.7912371134021" y="516.6593850018437" width="6.917525773195877" height="25.840614998156298" fill="#ea580c" opacity="0.85"><title>2025-01-27 | BTC buy 46.19 usd | reason=neutral_drawdown_eth_tilt</title></rect>
<rect x="480.49957044673545" y="500.3481690154884" width="6.917525773195877" height="42.151830984511605" fill="#ea580c" opacity="0.85"><title>2025-02-03 | BTC buy 75.34 usd | reason=medium_drawdown_eth_tilt</title></rect>
<rect x="493.2079037800687" y="501.2828583754606" width="6.917525773195877" height="41.21714162453941" fill="#ea580c" opacity="0.85"><title>2025-02-10 | BTC buy 73.67 usd | reason=medium_drawdown_eth_tilt</title></rect>
<rect x="505.9162371134021" y="499.27526040508525" width="6.917525773195877" height="43.22473959491475" fill="#ea580c" opacity="0.85"><title>2025-02-17 | BTC buy 77.26 usd | reason=medium_drawdown_eth_tilt</title></rect>
<rect x="518.6245704467354" y="500.1992931908626" width="6.917525773195877" height="42.30070680913741" fill="#ea580c" opacity="0.85"><title>2025-02-24 | BTC buy 75.61 usd | reason=medium_drawdown_eth_tilt</title></rect>
<rect x="531.3329037800687" y="502.41323677829064" width="6.917525773195877" height="40.08676322170936" fill="#ea580c" opacity="0.85"><title>2025-03-03 | BTC buy 71.65 usd | reason=medium_drawdown_eth_tilt</title></rect>
<rect x="544.0412371134021" y="492.24845351121746" width="6.917525773195877" height="50.25154648878254" fill="#ea580c" opacity="0.85"><title>2025-03-10 | BTC buy 89.82 usd | reason=deep_drawdown_eth_tilt</title></rect>
<rect x="556.7495704467354" y="494.28897023515617" width="6.917525773195877" height="48.21102976484383" fill="#ea580c" opacity="0.85"><title>2025-03-17 | BTC buy 86.17 usd | reason=deep_drawdown_eth_tilt</title></rect>
<rect x="569.4579037800687" y="516.2343563028592" width="6.917525773195877" height="26.26564369714083" fill="#ea580c" opacity="0.85"><title>2025-03-24 | BTC buy 46.95 usd | reason=medium_drawdown_eth_tilt</title></rect>
<rect x="582.1662371134021" y="495.13549576062223" width="6.917525773195877" height="47.364504239377766" fill="#ea580c" opacity="0.85"><title>2025-03-31 | BTC buy 84.66 usd | reason=deep_drawdown_eth_tilt</title></rect>
<rect x="594.8745704467354" y="536.3482830109015" width="6.917525773195877" height="6.1517169890985315" fill="#ea580c" opacity="0.85"><title>2025-04-07 | BTC buy 11.00 usd | reason=deep_drawdown_eth_tilt</title></rect>
<rect x="607.5829037800687" y="542.5" width="6.917525773195877" height="1.5" fill="#ea580c" opacity="0.85"><title>2025-04-14 | BTC buy 0.00 usd | reason=deep_drawdown_eth_tilt</title></rect>
<rect x="620.2912371134021" y="542.5" width="6.917525773195877" height="1.5" fill="#ea580c" opacity="0.85"><title>2025-04-21 | BTC buy 0.00 usd | reason=deep_drawdown_eth_tilt</title></rect>
<rect x="632.9995704467354" y="542.5" width="6.917525773195877" height="1.5" fill="#ea580c" opacity="0.85"><title>2025-04-28 | BTC buy 0.00 usd | reason=deep_drawdown_eth_tilt</title></rect>
<rect x="645.7079037800687" y="542.5" width="6.917525773195877" height="1.5" fill="#ea580c" opacity="0.85"><title>2025-05-05 | BTC buy 0.00 usd | reason=deep_drawdown_eth_tilt</title></rect>
<rect x="658.4162371134021" y="542.5" width="6.917525773195877" height="1.5" fill="#ea580c" opacity="0.85"><title>2025-05-12 | BTC buy 0.00 usd | reason=medium_drawdown_eth_tilt</title></rect>
<rect x="671.1245704467354" y="542.5" width="6.917525773195877" height="1.5" fill="#ea580c" opacity="0.85"><title>2025-05-19 | BTC buy 0.00 usd | reason=medium_drawdown_eth_tilt</title></rect>
<rect x="683.8329037800687" y="542.5" width="6.917525773195877" height="1.5" fill="#ea580c" opacity="0.85"><title>2025-05-26 | BTC buy 0.00 usd | reason=medium_drawdown_eth_tilt</title></rect>
<rect x="696.5412371134021" y="538.7991446575973" width="6.917525773195877" height="3.700855342402747" fill="#ea580c" opacity="0.85"><title>2025-06-02 | BTC buy 6.61 usd | reason=medium_drawdown_eth_tilt</title></rect>
<rect x="709.2495704467353" y="542.5" width="6.917525773195877" height="1.5" fill="#ea580c" opacity="0.85"><title>2025-06-09 | BTC buy 0.00 usd | reason=medium_drawdown_eth_tilt</title></rect>
<rect x="721.9579037800688" y="542.5" width="6.917525773195877" height="1.5" fill="#ea580c" opacity="0.85"><title>2025-06-16 | BTC buy 0.00 usd | reason=medium_drawdown_eth_tilt</title></rect>
<rect x="734.6662371134021" y="542.5" width="6.917525773195877" height="1.5" fill="#ea580c" opacity="0.85"><title>2025-06-23 | BTC buy 0.00 usd | reason=medium_drawdown_eth_tilt</title></rect>
<rect x="747.3745704467353" y="542.5" width="6.917525773195877" height="1.5" fill="#ea580c" opacity="0.85"><title>2025-06-30 | BTC buy 0.00 usd | reason=medium_drawdown_eth_tilt</title></rect>
<rect x="760.0829037800688" y="542.5" width="6.917525773195877" height="1.5" fill="#ea580c" opacity="0.85"><title>2025-07-07 | BTC buy 0.00 usd | reason=medium_drawdown_eth_tilt</title></rect>
<rect x="772.7912371134021" y="542.5" width="6.917525773195877" height="35.69086308083547" fill="#dc2626" opacity="0.85"><title>2025-07-14 | BTC sell 63.79 usd | reason=neutral_drawdown_eth_tilt</title></rect>
<rect x="785.4995704467353" y="542.5" width="6.917525773195877" height="1.5" fill="#ea580c" opacity="0.85"><title>2025-07-21 | BTC buy 0.00 usd | reason=both_assets_expensive_eth_tilt</title></rect>
<rect x="798.2079037800688" y="542.5" width="6.917525773195877" height="1.5" fill="#ea580c" opacity="0.85"><title>2025-07-28 | BTC buy 0.00 usd | reason=both_assets_expensive_eth_tilt</title></rect>
<rect x="810.9162371134021" y="542.5" width="6.917525773195877" height="1.5" fill="#ea580c" opacity="0.85"><title>2025-08-04 | BTC buy 0.00 usd | reason=both_assets_expensive_eth_tilt</title></rect>
<rect x="823.6245704467353" y="542.5" width="6.917525773195877" height="1.5" fill="#ea580c" opacity="0.85"><title>2025-08-11 | BTC buy 0.00 usd | reason=both_assets_expensive_btc_tilt</title></rect>
<rect x="836.3329037800688" y="542.5" width="6.917525773195877" height="1.5" fill="#ea580c" opacity="0.85"><title>2025-08-18 | BTC buy 0.00 usd | reason=both_assets_expensive_eth_tilt</title></rect>
<rect x="849.0412371134021" y="542.5" width="6.917525773195877" height="1.5" fill="#ea580c" opacity="0.85"><title>2025-08-25 | BTC buy 0.00 usd | reason=both_assets_expensive_btc_tilt</title></rect>
<rect x="861.7495704467353" y="542.5" width="6.917525773195877" height="1.5" fill="#ea580c" opacity="0.85"><title>2025-09-01 | BTC buy 0.00 usd | reason=both_assets_expensive_btc_tilt</title></rect>
<rect x="874.4579037800688" y="542.5" width="6.917525773195877" height="1.5" fill="#ea580c" opacity="0.85"><title>2025-09-08 | BTC buy 0.00 usd | reason=both_assets_expensive_eth_tilt</title></rect>
<rect x="887.1662371134021" y="542.5" width="6.917525773195877" height="1.5" fill="#ea580c" opacity="0.85"><title>2025-09-15 | BTC buy 0.00 usd | reason=both_assets_expensive_btc_tilt</title></rect>
<rect x="899.8745704467353" y="542.5" width="6.917525773195877" height="1.5" fill="#ea580c" opacity="0.85"><title>2025-09-22 | BTC buy 0.00 usd | reason=both_assets_expensive_eth_tilt</title></rect>
<rect x="912.5829037800688" y="542.5" width="6.917525773195877" height="1.5" fill="#ea580c" opacity="0.85"><title>2025-09-29 | BTC buy 0.00 usd | reason=both_assets_expensive_eth_tilt</title></rect>
<rect x="925.2912371134021" y="542.5" width="6.917525773195877" height="1.5" fill="#ea580c" opacity="0.85"><title>2025-10-06 | BTC buy 0.00 usd | reason=both_assets_expensive_eth_tilt</title></rect>
<rect x="937.9995704467353" y="542.5" width="6.917525773195877" height="1.5" fill="#ea580c" opacity="0.85"><title>2025-10-13 | BTC buy 0.00 usd | reason=both_assets_expensive_eth_tilt</title></rect>
<rect x="950.7079037800688" y="513.0012837556842" width="6.917525773195877" height="29.4987162443158" fill="#ea580c" opacity="0.85"><title>2025-10-20 | BTC buy 52.73 usd | reason=neutral_drawdown_eth_tilt</title></rect>
<rect x="963.4162371134021" y="542.5" width="6.917525773195877" height="1.5" fill="#ea580c" opacity="0.85"><title>2025-10-27 | BTC buy 0.00 usd | reason=both_assets_expensive_eth_tilt</title></rect>
<rect x="976.1245704467353" y="492.63098227229887" width="6.917525773195877" height="49.869017727701134" fill="#ea580c" opacity="0.85"><title>2025-11-03 | BTC buy 89.14 usd | reason=medium_drawdown_eth_tilt</title></rect>
<rect x="988.8329037800688" y="492.79283775882357" width="6.917525773195877" height="49.707162241176434" fill="#ea580c" opacity="0.85"><title>2025-11-10 | BTC buy 88.85 usd | reason=medium_drawdown_eth_tilt</title></rect>
<rect x="1001.5412371134021" y="492.80421395456676" width="6.917525773195877" height="49.69578604543324" fill="#ea580c" opacity="0.85"><title>2025-11-17 | BTC buy 88.83 usd | reason=medium_drawdown_eth_tilt</title></rect>
<rect x="1014.2495704467353" y="491.9561774846414" width="6.917525773195877" height="50.54382251535861" fill="#ea580c" opacity="0.85"><title>2025-11-24 | BTC buy 90.34 usd | reason=medium_drawdown_eth_tilt</title></rect>
<rect x="1026.9579037800688" y="492.8529757101307" width="6.917525773195877" height="49.64702428986931" fill="#ea580c" opacity="0.85"><title>2025-12-01 | BTC buy 88.74 usd | reason=medium_drawdown_eth_tilt</title></rect>
<rect x="1039.666237113402" y="491.0315016381586" width="6.917525773195877" height="51.4684983618414" fill="#ea580c" opacity="0.85"><title>2025-12-08 | BTC buy 92.00 usd | reason=medium_drawdown_eth_tilt</title></rect>
<rect x="1052.3745704467353" y="490.9901321448074" width="6.917525773195877" height="51.509867855192624" fill="#ea580c" opacity="0.85"><title>2025-12-15 | BTC buy 92.07 usd | reason=medium_drawdown_eth_tilt</title></rect>
<rect x="1065.0829037800688" y="491.44845370904125" width="6.917525773195877" height="51.051546290958754" fill="#ea580c" opacity="0.85"><title>2025-12-22 | BTC buy 91.25 usd | reason=medium_drawdown_eth_tilt</title></rect>
<rect x="1077.791237113402" y="491.6509579413795" width="6.917525773195877" height="50.84904205862051" fill="#ea580c" opacity="0.85"><title>2025-12-29 | BTC buy 90.89 usd | reason=medium_drawdown_eth_tilt</title></rect>
<rect x="1090.4995704467353" y="491.3131872759334" width="6.917525773195877" height="51.18681272406661" fill="#ea580c" opacity="0.85"><title>2026-01-05 | BTC buy 91.49 usd | reason=medium_drawdown_eth_tilt</title></rect>
<rect x="1103.2079037800688" y="491.65317415533457" width="6.917525773195877" height="50.84682584466543" fill="#ea580c" opacity="0.85"><title>2026-01-12 | BTC buy 90.88 usd | reason=medium_drawdown_eth_tilt</title></rect>
<rect x="1115.916237113402" y="491.1617127644789" width="6.917525773195877" height="51.33828723552108" fill="#ea580c" opacity="0.85"><title>2026-01-19 | BTC buy 91.76 usd | reason=medium_drawdown_eth_tilt</title></rect>
<rect x="1128.6245704467353" y="492.24698829100873" width="6.917525773195877" height="50.25301170899127" fill="#ea580c" opacity="0.85"><title>2026-01-26 | BTC buy 89.82 usd | reason=medium_drawdown_eth_tilt</title></rect>
<rect x="1141.3329037800688" y="482.7310592228277" width="6.917525773195877" height="59.768940777172304" fill="#ea580c" opacity="0.85"><title>2026-02-02 | BTC buy 106.83 usd | reason=deep_drawdown_eth_tilt</title></rect>
<rect x="1154.041237113402" y="481.4211394328014" width="6.917525773195877" height="61.0788605671986" fill="#ea580c" opacity="0.85"><title>2026-02-09 | BTC buy 109.17 usd | reason=deep_drawdown_eth_tilt</title></rect>
<rect x="1166.7495704467353" y="482.26601349453284" width="6.917525773195877" height="60.23398650546716" fill="#ea580c" opacity="0.85"><title>2026-02-16 | BTC buy 107.66 usd | reason=deep_drawdown_eth_tilt</title></rect>
<rect x="1179.4579037800688" y="481.94485066528875" width="6.917525773195877" height="60.555149334711246" fill="#ea580c" opacity="0.85"><title>2026-02-23 | BTC buy 108.24 usd | reason=deep_drawdown_eth_tilt</title></rect>
<rect x="1192.166237113402" y="481.814071756466" width="6.917525773195877" height="60.68592824353402" fill="#ea580c" opacity="0.85"><title>2026-03-02 | BTC buy 108.47 usd | reason=deep_drawdown_eth_tilt</title></rect>
<rect x="1204.8745704467353" y="482.0863724075161" width="6.917525773195877" height="60.41362759248392" fill="#ea580c" opacity="0.85"><title>2026-03-09 | BTC buy 107.98 usd | reason=deep_drawdown_eth_tilt</title></rect>
<rect x="1217.5829037800688" y="480.4979806240907" width="6.917525773195877" height="62.0020193759093" fill="#ea580c" opacity="0.85"><title>2026-03-16 | BTC buy 110.82 usd | reason=deep_drawdown_eth_tilt</title></rect>
<rect x="1230.291237113402" y="481.1610780389643" width="6.917525773195877" height="61.33892196103568" fill="#ea580c" opacity="0.85"><title>2026-03-23 | BTC buy 109.64 usd | reason=deep_drawdown_eth_tilt</title></rect>
<rect x="1242.9995704467353" y="480.68129026438083" width="6.917525773195877" height="61.818709735619166" fill="#ea580c" opacity="0.85"><title>2026-03-30 | BTC buy 110.50 usd | reason=deep_drawdown_eth_tilt</title></rect>
<rect x="1255.7079037800688" y="480.6696150631268" width="6.917525773195877" height="61.8303849368732" fill="#ea580c" opacity="0.85"><title>2026-04-06 | BTC buy 110.52 usd | reason=deep_drawdown_eth_tilt</title></rect>
<rect x="1268.416237113402" y="480.0" width="6.917525773195877" height="62.5" fill="#ea580c" opacity="0.85"><title>2026-04-13 | BTC buy 111.71 usd | reason=deep_drawdown_eth_tilt</title></rect>
<rect x="1281.1245704467353" y="493.343889178561" width="6.917525773195877" height="49.15611082143897" fill="#ea580c" opacity="0.85"><title>2026-04-20 | BTC buy 87.86 usd | reason=deep_drawdown_eth_tilt</title></rect>
<rect x="1293.8329037800688" y="542.5" width="6.917525773195877" height="1.5" fill="#ea580c" opacity="0.85"><title>2026-04-27 | BTC buy 0.00 usd | reason=deep_drawdown_eth_tilt</title></rect>
<rect x="1306.541237113402" y="542.5" width="6.917525773195877" height="1.5" fill="#ea580c" opacity="0.85"><title>2026-05-04 | BTC buy 0.00 usd | reason=deep_drawdown_eth_tilt</title></rect>
<text x="24" y="542.5" transform="rotate(-90 24,542.5)" text-anchor="middle" font-family="monospace" font-size="14" fill="#0f172a">BTC weekly trade usd</text>
<line x1="90" y1="770" x2="1310" y2="770" stroke="#334155" stroke-width="2"/>
<line x1="90" y1="645" x2="90" y2="770" stroke="#334155" stroke-width="2"/>
<line x1="90" y1="707.5" x2="1310" y2="707.5" stroke="#64748b" stroke-width="1.5" stroke-dasharray="6 4"/>
<line x1="90" y1="770.0" x2="1310" y2="770.0" stroke="#e2e8f0" stroke-width="1"/>
<text x="78" y="774.0" text-anchor="end" font-family="monospace" font-size="11" fill="#475569">-688</text>
<line x1="90" y1="707.5" x2="1310" y2="707.5" stroke="#e2e8f0" stroke-width="1"/>
<text x="78" y="711.5" text-anchor="end" font-family="monospace" font-size="11" fill="#475569">0</text>
<line x1="90" y1="645.0" x2="1310" y2="645.0" stroke="#e2e8f0" stroke-width="1"/>
<text x="78" y="649.0" text-anchor="end" font-family="monospace" font-size="11" fill="#475569">688</text>
<rect x="86.54123711340206" y="702.3249138343435" width="6.917525773195877" height="5.175086165656467" fill="#2563eb" opacity="0.85"><title>2024-07-01 | ETH buy 57.01 usd | reason=neutral_drawdown_eth_tilt</title></rect>
<rect x="99.24957044673539" y="698.1229131741362" width="6.917525773195877" height="9.377086825863785" fill="#2563eb" opacity="0.85"><title>2024-07-08 | ETH buy 103.29 usd | reason=medium_drawdown_eth_tilt</title></rect>
<rect x="111.95790378006872" y="707.5" width="6.917525773195877" height="1.5" fill="#2563eb" opacity="0.85"><title>2024-07-15 | ETH buy 0.00 usd | reason=both_assets_expensive_eth_tilt</title></rect>
<rect x="124.66623711340206" y="701.9979423833386" width="6.917525773195877" height="5.502057616661432" fill="#2563eb" opacity="0.85"><title>2024-07-22 | ETH buy 60.61 usd | reason=neutral_drawdown_eth_tilt</title></rect>
<rect x="137.3745704467354" y="701.8977198153551" width="6.917525773195877" height="5.602280184644883" fill="#2563eb" opacity="0.85"><title>2024-07-29 | ETH buy 61.71 usd | reason=neutral_drawdown_eth_tilt</title></rect>
<rect x="150.08290378006876" y="697.1190533152014" width="6.917525773195877" height="10.380946684798573" fill="#2563eb" opacity="0.85"><title>2024-08-05 | ETH buy 114.35 usd | reason=medium_drawdown_eth_tilt</title></rect>
<rect x="162.79123711340208" y="697.1331364683049" width="6.917525773195877" height="10.366863531695117" fill="#2563eb" opacity="0.85"><title>2024-08-12 | ETH buy 114.20 usd | reason=medium_drawdown_eth_tilt</title></rect>
<rect x="175.4995704467354" y="696.9298164982202" width="6.917525773195877" height="10.570183501779752" fill="#2563eb" opacity="0.85"><title>2024-08-19 | ETH buy 116.44 usd | reason=medium_drawdown_eth_tilt</title></rect>
<rect x="188.2079037800687" y="696.6067399098629" width="6.917525773195877" height="10.893260090137119" fill="#2563eb" opacity="0.85"><title>2024-08-26 | ETH buy 120.00 usd | reason=medium_drawdown_eth_tilt</title></rect>
<rect x="200.91623711340208" y="696.746865643647" width="6.917525773195877" height="10.75313435635303" fill="#2563eb" opacity="0.85"><title>2024-09-02 | ETH buy 118.45 usd | reason=medium_drawdown_eth_tilt</title></rect>
<rect x="213.6245704467354" y="696.6090380868" width="6.917525773195877" height="10.890961913200044" fill="#2563eb" opacity="0.85"><title>2024-09-09 | ETH buy 119.97 usd | reason=medium_drawdown_eth_tilt</title></rect>
<rect x="226.3329037800687" y="696.3208182762656" width="6.917525773195877" height="11.17918172373436" fill="#2563eb" opacity="0.85"><title>2024-09-16 | ETH buy 123.14 usd | reason=medium_drawdown_eth_tilt</title></rect>
<rect x="239.04123711340208" y="696.4687975802751" width="6.917525773195877" height="11.031202419724877" fill="#2563eb" opacity="0.85"><title>2024-09-23 | ETH buy 121.51 usd | reason=medium_drawdown_eth_tilt</title></rect>
<rect x="251.7495704467354" y="696.371997218577" width="6.917525773195877" height="11.128002781422992" fill="#2563eb" opacity="0.85"><title>2024-09-30 | ETH buy 122.58 usd | reason=medium_drawdown_eth_tilt</title></rect>
<rect x="264.45790378006876" y="696.1077117511988" width="6.917525773195877" height="11.392288248801151" fill="#2563eb" opacity="0.85"><title>2024-10-07 | ETH buy 125.49 usd | reason=medium_drawdown_eth_tilt</title></rect>
<rect x="277.1662371134021" y="696.0901875054004" width="6.917525773195877" height="11.409812494599578" fill="#2563eb" opacity="0.85"><title>2024-10-14 | ETH buy 125.69 usd | reason=medium_drawdown_eth_tilt</title></rect>
<rect x="289.8745704467354" y="696.0129763275705" width="6.917525773195877" height="11.487023672429473" fill="#2563eb" opacity="0.85"><title>2024-10-21 | ETH buy 126.54 usd | reason=medium_drawdown_eth_tilt</title></rect>
<rect x="302.58290378006876" y="695.4703676906229" width="6.917525773195877" height="12.02963230937712" fill="#2563eb" opacity="0.85"><title>2024-10-28 | ETH buy 132.51 usd | reason=medium_drawdown_eth_tilt</title></rect>
<rect x="315.2912371134021" y="695.3566039654812" width="6.917525773195877" height="12.143396034518787" fill="#2563eb" opacity="0.85"><title>2024-11-04 | ETH buy 133.77 usd | reason=medium_drawdown_eth_tilt</title></rect>
<rect x="327.9995704467354" y="701.5265290222851" width="6.917525773195877" height="5.973470977714896" fill="#2563eb" opacity="0.85"><title>2024-11-11 | ETH buy 65.80 usd | reason=neutral_drawdown_eth_tilt</title></rect>
<rect x="340.70790378006876" y="701.3475211307409" width="6.917525773195877" height="6.152478869259085" fill="#2563eb" opacity="0.85"><title>2024-11-18 | ETH buy 67.77 usd | reason=neutral_drawdown_eth_tilt</title></rect>
<rect x="353.4162371134021" y="701.8860739176598" width="6.917525773195877" height="5.6139260823401855" fill="#2563eb" opacity="0.85"><title>2024-11-25 | ETH buy 61.84 usd | reason=neutral_drawdown_eth_tilt</title></rect>
<rect x="366.1245704467354" y="707.5" width="6.917525773195877" height="1.5" fill="#2563eb" opacity="0.85"><title>2024-12-02 | ETH buy 0.00 usd | reason=both_assets_expensive_eth_tilt</title></rect>
<rect x="378.83290378006876" y="707.5" width="6.917525773195877" height="1.5" fill="#2563eb" opacity="0.85"><title>2024-12-09 | ETH buy 0.00 usd | reason=both_assets_expensive_eth_tilt</title></rect>
<rect x="391.5412371134021" y="707.5" width="6.917525773195877" height="1.5" fill="#2563eb" opacity="0.85"><title>2024-12-16 | ETH buy 0.00 usd | reason=both_assets_expensive_eth_tilt</title></rect>
<rect x="404.24957044673545" y="702.1268457678224" width="6.917525773195877" height="5.373154232177626" fill="#2563eb" opacity="0.85"><title>2024-12-23 | ETH buy 59.19 usd | reason=neutral_drawdown_eth_tilt</title></rect>
<rect x="416.9579037800687" y="702.1515514020537" width="6.917525773195877" height="5.348448597946344" fill="#2563eb" opacity="0.85"><title>2024-12-30 | ETH buy 58.92 usd | reason=neutral_drawdown_eth_tilt</title></rect>
<rect x="429.6662371134021" y="707.5" width="6.917525773195877" height="1.5" fill="#2563eb" opacity="0.85"><title>2025-01-06 | ETH buy 0.00 usd | reason=both_assets_expensive_eth_tilt</title></rect>
<rect x="442.37457044673545" y="701.7850731229254" width="6.917525773195877" height="5.7149268770746176" fill="#2563eb" opacity="0.85"><title>2025-01-13 | ETH buy 62.95 usd | reason=neutral_drawdown_eth_tilt</title></rect>
<rect x="455.0829037800687" y="701.5987893751283" width="6.917525773195877" height="5.901210624871737" fill="#2563eb" opacity="0.85"><title>2025-01-20 | ETH buy 65.01 usd | reason=neutral_drawdown_eth_tilt</title></rect>
<rect x="467.7912371134021" y="701.4801528792344" width="6.917525773195877" height="6.019847120765576" fill="#2563eb" opacity="0.85"><title>2025-01-27 | ETH buy 66.31 usd | reason=neutral_drawdown_eth_tilt</title></rect>
<rect x="480.49957044673545" y="696.1835514308402" width="6.917525773195877" height="11.316448569159775" fill="#2563eb" opacity="0.85"><title>2025-02-03 | ETH buy 124.66 usd | reason=medium_drawdown_eth_tilt</title></rect>
<rect x="493.2079037800687" y="696.0318855262744" width="6.917525773195877" height="11.468114473725564" fill="#2563eb" opacity="0.85"><title>2025-02-10 | ETH buy 126.33 usd | reason=medium_drawdown_eth_tilt</title></rect>
<rect x="505.9162371134021" y="696.3576452655213" width="6.917525773195877" height="11.142354734478658" fill="#2563eb" opacity="0.85"><title>2025-02-17 | ETH buy 122.74 usd | reason=medium_drawdown_eth_tilt</title></rect>
<rect x="518.6245704467354" y="696.207708533271" width="6.917525773195877" height="11.292291466729012" fill="#2563eb" opacity="0.85"><title>2025-02-24 | ETH buy 124.39 usd | reason=medium_drawdown_eth_tilt</title></rect>
<rect x="531.3329037800687" y="695.8484664457662" width="6.917525773195877" height="11.651533554233765" fill="#2563eb" opacity="0.85"><title>2025-03-03 | ETH buy 128.35 usd | reason=medium_drawdown_eth_tilt</title></rect>
<rect x="544.0412371134021" y="692.9588017313058" width="6.917525773195877" height="14.541198268694188" fill="#2563eb" opacity="0.85"><title>2025-03-10 | ETH buy 160.18 usd | reason=deep_drawdown_eth_tilt</title></rect>
<rect x="556.7495704467354" y="692.6277004820876" width="6.917525773195877" height="14.872299517912438" fill="#2563eb" opacity="0.85"><title>2025-03-17 | ETH buy 163.83 usd | reason=deep_drawdown_eth_tilt</title></rect>
<rect x="569.4579037800687" y="693.6058041404333" width="6.917525773195877" height="13.894195859566707" fill="#2563eb" opacity="0.85"><title>2025-03-24 | ETH buy 153.05 usd | reason=medium_drawdown_eth_tilt</title></rect>
<rect x="582.1662371134021" y="692.4903403439968" width="6.917525773195877" height="15.009659656003237" fill="#2563eb" opacity="0.85"><title>2025-03-31 | ETH buy 165.34 usd | reason=deep_drawdown_eth_tilt</title></rect>
<rect x="594.8745704467354" y="685.8030119912094" width="6.917525773195877" height="21.69698800879064" fill="#2563eb" opacity="0.85"><title>2025-04-07 | ETH buy 239.00 usd | reason=deep_drawdown_eth_tilt</title></rect>
<rect x="607.5829037800687" y="684.8048132722124" width="6.917525773195877" height="22.695186727787586" fill="#2563eb" opacity="0.85"><title>2025-04-14 | ETH buy 250.00 usd | reason=deep_drawdown_eth_tilt</title></rect>
<rect x="620.2912371134021" y="684.8048132722124" width="6.917525773195877" height="22.695186727787586" fill="#2563eb" opacity="0.85"><title>2025-04-21 | ETH buy 250.00 usd | reason=deep_drawdown_eth_tilt</title></rect>
<rect x="632.9995704467354" y="684.8048132722124" width="6.917525773195877" height="22.695186727787586" fill="#2563eb" opacity="0.85"><title>2025-04-28 | ETH buy 250.00 usd | reason=deep_drawdown_eth_tilt</title></rect>
<rect x="645.7079037800687" y="684.8048132722124" width="6.917525773195877" height="22.695186727787586" fill="#2563eb" opacity="0.85"><title>2025-05-05 | ETH buy 250.00 usd | reason=deep_drawdown_eth_tilt</title></rect>
<rect x="658.4162371134021" y="689.3438506177699" width="6.917525773195877" height="18.15614938223007" fill="#2563eb" opacity="0.85"><title>2025-05-12 | ETH buy 200.00 usd | reason=medium_drawdown_eth_tilt</title></rect>
<rect x="671.1245704467354" y="689.3438506177699" width="6.917525773195877" height="18.15614938223007" fill="#2563eb" opacity="0.85"><title>2025-05-19 | ETH buy 200.00 usd | reason=medium_drawdown_eth_tilt</title></rect>
<rect x="683.8329037800687" y="689.3438506177699" width="6.917525773195877" height="18.15614938223007" fill="#2563eb" opacity="0.85"><title>2025-05-26 | ETH buy 200.00 usd | reason=medium_drawdown_eth_tilt</title></rect>
<rect x="696.5412371134021" y="701.4589402109204" width="6.917525773195877" height="6.041059789079554" fill="#2563eb" opacity="0.85"><title>2025-06-02 | ETH buy 66.55 usd | reason=medium_drawdown_eth_tilt</title></rect>
<rect x="709.2495704467353" y="699.5620717334527" width="6.917525773195877" height="7.93792826654726" fill="#2563eb" opacity="0.85"><title>2025-06-09 | ETH buy 87.44 usd | reason=medium_drawdown_eth_tilt</title></rect>
<rect x="721.9579037800688" y="698.9668671402226" width="6.917525773195877" height="8.533132859777425" fill="#2563eb" opacity="0.85"><title>2025-06-16 | ETH buy 94.00 usd | reason=medium_drawdown_eth_tilt</title></rect>
<rect x="734.6662371134021" y="693.8015939479005" width="6.917525773195877" height="13.698406052099472" fill="#2563eb" opacity="0.85"><title>2025-06-23 | ETH buy 150.90 usd | reason=medium_drawdown_eth_tilt</title></rect>
<rect x="747.3745704467353" y="702.4924999309276" width="6.917525773195877" height="5.007500069072421" fill="#2563eb" opacity="0.85"><title>2025-06-30 | ETH buy 55.16 usd | reason=medium_drawdown_eth_tilt</title></rect>
<rect x="760.0829037800688" y="707.3883483376527" width="6.917525773195877" height="1.5" fill="#2563eb" opacity="0.85"><title>2025-07-07 | ETH buy 1.23 usd | reason=medium_drawdown_eth_tilt</title></rect>
<rect x="772.7912371134021" y="707.5" width="6.917525773195877" height="5.791321978940118" fill="#7c3aed" opacity="0.85"><title>2025-07-14 | ETH sell 63.79 usd | reason=neutral_drawdown_eth_tilt</title></rect>
<rect x="785.4995704467353" y="707.5" width="6.917525773195877" height="62.5" fill="#7c3aed" opacity="0.85"><title>2025-07-21 | ETH sell 688.47 usd | reason=both_assets_expensive_eth_tilt</title></rect>
<rect x="798.2079037800688" y="707.5" width="6.917525773195877" height="54.999663194229356" fill="#7c3aed" opacity="0.85"><title>2025-07-28 | ETH sell 605.85 usd | reason=both_assets_expensive_eth_tilt</title></rect>
<rect x="810.9162371134021" y="707.5" width="6.917525773195877" height="46.74465115755061" fill="#7c3aed" opacity="0.85"><title>2025-08-04 | ETH sell 514.92 usd | reason=both_assets_expensive_eth_tilt</title></rect>
<rect x="823.6245704467353" y="707.5" width="6.917525773195877" height="51.1121029941537" fill="#7c3aed" opacity="0.85"><title>2025-08-11 | ETH sell 563.03 usd | reason=both_assets_expensive_btc_tilt</title></rect>
<rect x="836.3329037800688" y="707.5" width="6.917525773195877" height="43.856543561509056" fill="#7c3aed" opacity="0.85"><title>2025-08-18 | ETH sell 483.10 usd | reason=both_assets_expensive_eth_tilt</title></rect>
<rect x="849.0412371134021" y="707.5" width="6.917525773195877" height="42.60527254283261" fill="#7c3aed" opacity="0.85"><title>2025-08-25 | ETH sell 469.32 usd | reason=both_assets_expensive_btc_tilt</title></rect>
<rect x="861.7495704467353" y="707.5" width="6.917525773195877" height="35.64906125866844" fill="#7c3aed" opacity="0.85"><title>2025-09-01 | ETH sell 392.69 usd | reason=both_assets_expensive_btc_tilt</title></rect>
<rect x="874.4579037800688" y="707.5" width="6.917525773195877" height="28.861509249170354" fill="#7c3aed" opacity="0.85"><title>2025-09-08 | ETH sell 317.93 usd | reason=both_assets_expensive_eth_tilt</title></rect>
<rect x="887.1662371134021" y="707.5" width="6.917525773195877" height="28.753454705649574" fill="#7c3aed" opacity="0.85"><title>2025-09-15 | ETH sell 316.74 usd | reason=both_assets_expensive_btc_tilt</title></rect>
<rect x="899.8745704467353" y="707.5" width="6.917525773195877" height="18.142142180184237" fill="#7c3aed" opacity="0.85"><title>2025-09-22 | ETH sell 199.85 usd | reason=both_assets_expensive_eth_tilt</title></rect>
<rect x="912.5829037800688" y="707.5" width="6.917525773195877" height="15.06413442205735" fill="#7c3aed" opacity="0.85"><title>2025-09-29 | ETH sell 165.94 usd | reason=both_assets_expensive_eth_tilt</title></rect>
<rect x="925.2912371134021" y="707.5" width="6.917525773195877" height="19.06754210450697" fill="#7c3aed" opacity="0.85"><title>2025-10-06 | ETH sell 210.04 usd | reason=both_assets_expensive_eth_tilt</title></rect>
<rect x="937.9995704467353" y="707.5" width="6.917525773195877" height="11.358646152633128" fill="#7c3aed" opacity="0.85"><title>2025-10-13 | ETH sell 125.12 usd | reason=both_assets_expensive_eth_tilt</title></rect>
<rect x="950.7079037800688" y="702.0737289465907" width="6.917525773195877" height="5.426271053409323" fill="#2563eb" opacity="0.85"><title>2025-10-20 | ETH buy 59.77 usd | reason=neutral_drawdown_eth_tilt</title></rect>
<rect x="963.4162371134021" y="707.5" width="6.917525773195877" height="8.271953316603685" fill="#7c3aed" opacity="0.85"><title>2025-10-27 | ETH sell 91.12 usd | reason=both_assets_expensive_eth_tilt</title></rect>
<rect x="976.1245704467353" y="697.4357686467756" width="6.917525773195877" height="10.064231353224386" fill="#2563eb" opacity="0.85"><title>2025-11-03 | ETH buy 110.86 usd | reason=medium_drawdown_eth_tilt</title></rect>
<rect x="988.8329037800688" y="697.4095054198428" width="6.917525773195877" height="10.090494580157156" fill="#2563eb" opacity="0.85"><title>2025-11-10 | ETH buy 111.15 usd | reason=medium_drawdown_eth_tilt</title></rect>
<rect x="1001.5412371134021" y="697.4076594792642" width="6.917525773195877" height="10.092340520735775" fill="#2563eb" opacity="0.85"><title>2025-11-17 | ETH buy 111.17 usd | reason=medium_drawdown_eth_tilt</title></rect>
<rect x="1014.2495704467353" y="697.5452647883905" width="6.917525773195877" height="9.954735211609545" fill="#2563eb" opacity="0.85"><title>2025-11-24 | ETH buy 109.66 usd | reason=medium_drawdown_eth_tilt</title></rect>
<rect x="1026.9579037800688" y="697.3997472293954" width="6.917525773195877" height="10.100252770604584" fill="#2563eb" opacity="0.85"><title>2025-12-01 | ETH buy 111.26 usd | reason=medium_drawdown_eth_tilt</title></rect>
<rect x="1039.666237113402" y="697.6953058658787" width="6.917525773195877" height="9.804694134121291" fill="#2563eb" opacity="0.85"><title>2025-12-08 | ETH buy 108.00 usd | reason=medium_drawdown_eth_tilt</title></rect>
<rect x="1052.3745704467353" y="697.7020186219014" width="6.917525773195877" height="9.797981378098598" fill="#2563eb" opacity="0.85"><title>2025-12-15 | ETH buy 107.93 usd | reason=medium_drawdown_eth_tilt</title></rect>
<rect x="1065.0829037800688" y="697.627649791359" width="6.917525773195877" height="9.872350208641024" fill="#2563eb" opacity="0.85"><title>2025-12-22 | ETH buy 108.75 usd | reason=medium_drawdown_eth_tilt</title></rect>
<rect x="1077.791237113402" y="697.5947907593734" width="6.917525773195877" height="9.905209240626618" fill="#2563eb" opacity="0.85"><title>2025-12-29 | ETH buy 109.11 usd | reason=medium_drawdown_eth_tilt</title></rect>
<rect x="1090.4995704467353" y="697.6495985871978" width="6.917525773195877" height="9.85040141280217" fill="#2563eb" opacity="0.85"><title>2026-01-05 | ETH buy 108.51 usd | reason=medium_drawdown_eth_tilt</title></rect>
<rect x="1103.2079037800688" y="697.5944311488882" width="6.917525773195877" height="9.905568851111752" fill="#2563eb" opacity="0.85"><title>2026-01-12 | ETH buy 109.12 usd | reason=medium_drawdown_eth_tilt</title></rect>
<rect x="1115.916237113402" y="697.6741773614754" width="6.917525773195877" height="9.825822638524642" fill="#2563eb" opacity="0.85"><title>2026-01-19 | ETH buy 108.24 usd | reason=medium_drawdown_eth_tilt</title></rect>
<rect x="1128.6245704467353" y="697.4980768285249" width="6.917525773195877" height="10.001923171475141" fill="#2563eb" opacity="0.85"><title>2026-01-26 | ETH buy 110.18 usd | reason=medium_drawdown_eth_tilt</title></rect>
<rect x="1141.3329037800688" y="694.5031268040774" width="6.917525773195877" height="12.996873195922603" fill="#2563eb" opacity="0.85"><title>2026-02-02 | ETH buy 143.17 usd | reason=deep_drawdown_eth_tilt</title></rect>
<rect x="1154.041237113402" y="694.7156788864813" width="6.917525773195877" height="12.784321113518672" fill="#2563eb" opacity="0.85"><title>2026-02-09 | ETH buy 140.83 usd | reason=deep_drawdown_eth_tilt</title></rect>
<rect x="1166.7495704467353" y="694.5785867205659" width="6.917525773195877" height="12.921413279434091" fill="#2563eb" opacity="0.85"><title>2026-02-16 | ETH buy 142.34 usd | reason=deep_drawdown_eth_tilt</title></rect>
<rect x="1179.4579037800688" y="694.6306997038695" width="6.917525773195877" height="12.869300296130518" fill="#2563eb" opacity="0.85"><title>2026-02-23 | ETH buy 141.76 usd | reason=deep_drawdown_eth_tilt</title></rect>
<rect x="1192.166237113402" y="694.651920338611" width="6.917525773195877" height="12.848079661388965" fill="#2563eb" opacity="0.85"><title>2026-03-02 | ETH buy 141.53 usd | reason=deep_drawdown_eth_tilt</title></rect>
<rect x="1204.8745704467353" y="694.607735900097" width="6.917525773195877" height="12.892264099902945" fill="#2563eb" opacity="0.85"><title>2026-03-09 | ETH buy 142.02 usd | reason=deep_drawdown_eth_tilt</title></rect>
<rect x="1217.5829037800688" y="694.8654738042122" width="6.917525773195877" height="12.634526195787771" fill="#2563eb" opacity="0.85"><title>2026-03-16 | ETH buy 139.18 usd | reason=deep_drawdown_eth_tilt</title></rect>
<rect x="1230.291237113402" y="694.7578773410996" width="6.917525773195877" height="12.74212265890037" fill="#2563eb" opacity="0.85"><title>2026-03-23 | ETH buy 140.36 usd | reason=deep_drawdown_eth_tilt</title></rect>
<rect x="1242.9995704467353" y="694.835729352632" width="6.917525773195877" height="12.664270647367971" fill="#2563eb" opacity="0.85"><title>2026-03-30 | ETH buy 139.50 usd | reason=deep_drawdown_eth_tilt</title></rect>
<rect x="1255.7079037800688" y="694.8376238108714" width="6.917525773195877" height="12.662376189128622" fill="#2563eb" opacity="0.85"><title>2026-04-06 | ETH buy 139.48 usd | reason=deep_drawdown_eth_tilt</title></rect>
<rect x="1268.416237113402" y="694.9462778499662" width="6.917525773195877" height="12.553722150033764" fill="#2563eb" opacity="0.85"><title>2026-04-13 | ETH buy 138.29 usd | reason=deep_drawdown_eth_tilt</title></rect>
<rect x="1281.1245704467353" y="692.7810525790246" width="6.917525773195877" height="14.718947420975383" fill="#2563eb" opacity="0.85"><title>2026-04-20 | ETH buy 162.14 usd | reason=deep_drawdown_eth_tilt</title></rect>
<rect x="1293.8329037800688" y="687.2935870850416" width="6.917525773195877" height="20.206412914958378" fill="#2563eb" opacity="0.85"><title>2026-04-27 | ETH buy 222.58 usd | reason=deep_drawdown_eth_tilt</title></rect>
<rect x="1306.541237113402" y="692.3979205955048" width="6.917525773195877" height="15.102079404495157" fill="#2563eb" opacity="0.85"><title>2026-05-04 | ETH buy 166.36 usd | reason=deep_drawdown_eth_tilt</title></rect>
<text x="24" y="707.5" transform="rotate(-90 24,707.5)" text-anchor="middle" font-family="monospace" font-size="14" fill="#0f172a">ETH weekly trade usd</text>
<rect x="1040" y="478" width="14" height="10" fill="#ea580c" opacity="0.85"/>
<text x="1062" y="488" font-family="monospace" font-size="11" fill="#0f172a">BTC buy</text>
<rect x="1190" y="478" width="14" height="10" fill="#dc2626" opacity="0.85"/>
<text x="1212" y="488" font-family="monospace" font-size="11" fill="#0f172a">BTC sell</text>
<rect x="1040" y="498" width="14" height="10" fill="#2563eb" opacity="0.85"/>
<text x="1062" y="508" font-family="monospace" font-size="11" fill="#0f172a">ETH buy</text>
<rect x="1190" y="498" width="14" height="10" fill="#7c3aed" opacity="0.85"/>
<text x="1212" y="508" font-family="monospace" font-size="11" fill="#0f172a">ETH sell</text>
</svg>