<svg xmlns="http://www.w3.org/2000/svg" width="1400" height="800">
<rect width="1400" height="800" fill="#f8fafc"/>
<text x="700.0" y="42" text-anchor="middle" font-family="monospace" font-size="24" fill="#0f172a">budgeted_static_50_50_rebalance | weekly | start=2024-07-01 | return=1.88%</text>
<line x1="90" y1="420" x2="1310" y2="420" stroke="#334155" stroke-width="2"/>
<line x1="90" y1="90" x2="90" y2="420" stroke="#334155" stroke-width="2"/>
<line x1="90.0" y1="420" x2="90.0" y2="90" stroke="#94a3b8" stroke-width="1.2"/>
<line x1="90.0" y1="605" x2="90.0" y2="480" stroke="#94a3b8" stroke-width="1.2"/>
<line x1="90.0" y1="770" x2="90.0" y2="645" stroke="#94a3b8" stroke-width="1.2"/>
<text x="90.0" y="788" text-anchor="middle" font-family="monospace" font-size="11" fill="#334155">2024-07</text>
<line x1="153.54166666666669" y1="420" x2="153.54166666666669" y2="90" stroke="#94a3b8" stroke-width="1.2"/>
<line x1="153.54166666666669" y1="605" x2="153.54166666666669" y2="480" stroke="#94a3b8" stroke-width="1.2"/>
<line x1="153.54166666666669" y1="770" x2="153.54166666666669" y2="645" stroke="#94a3b8" stroke-width="1.2"/>
<text x="153.54166666666669" y="788" text-anchor="middle" font-family="monospace" font-size="11" fill="#334155">2024-08</text>
<line x1="204.375" y1="420" x2="204.375" y2="90" stroke="#94a3b8" stroke-width="1.2"/>
<line x1="204.375" y1="605" x2="204.375" y2="480" stroke="#94a3b8" stroke-width="1.2"/>
<line x1="204.375" y1="770" x2="204.375" y2="645" stroke="#94a3b8" stroke-width="1.2"/>
<text x="204.375" y="788" text-anchor="middle" font-family="monospace" font-size="11" fill="#334155">2024-09</text>
<line x1="267.9166666666667" y1="420" x2="267.9166666666667" y2="90" stroke="#94a3b8" stroke-width="1.2"/>
<line x1="267.9166666666667" y1="605" x2="267.9166666666667" y2="480" stroke="#94a3b8" stroke-width="1.2"/>
<line x1="267.9166666666667" y1="770" x2="267.9166666666667" y2="645" stroke="#94a3b8" stroke-width="1.2"/>
<text x="267.9166666666667" y="788" text-anchor="middle" font-family="monospace" font-size="11" fill="#334155">2024-10</text>
<line x1="318.75" y1="420" x2="318.75" y2="90" stroke="#94a3b8" stroke-width="1.2"/>
<line x1="318.75" y1="605" x2="318.75" y2="480" stroke="#94a3b8" stroke-width="1.2"/>
<line x1="318.75" y1="770" x2="318.75" y2="645" stroke="#94a3b8" stroke-width="1.2"/>
<text x="318.75" y="788" text-anchor="middle" font-family="monospace" font-size="11" fill="#334155">2024-11</text>
<line x1="369.5833333333333" y1="420" x2="369.5833333333333" y2="90" stroke="#94a3b8" stroke-width="1.2"/>
<line x1="369.5833333333333" y1="605" x2="369.5833333333333" y2="480" stroke="#94a3b8" stroke-width="1.2"/>
<line x1="369.5833333333333" y1="770" x2="369.5833333333333" y2="645" stroke="#94a3b8" stroke-width="1.2"/>
<text x="369.5833333333333" y="788" text-anchor="middle" font-family="monospace" font-size="11" fill="#334155">2024-12</text>
<line x1="433.125" y1="420" x2="433.125" y2="90" stroke="#94a3b8" stroke-width="1.2"/>
<line x1="433.125" y1="605" x2="433.125" y2="480" stroke="#94a3b8" stroke-width="1.2"/>
<line x1="433.125" y1="770" x2="433.125" y2="645" stroke="#94a3b8" stroke-width="1.2"/>
<text x="433.125" y="788" text-anchor="middle" font-family="monospace" font-size="11" fill="#334155">2025-01</text>
<line x1="483.95833333333337" y1="420" x2="483.95833333333337" y2="90" stroke="#94a3b8" stroke-width="1.2"/>
<line x1="483.95833333333337" y1="605" x2="483.95833333333337" y2="480" stroke="#94a3b8" stroke-width="1.2"/>
<line x1="483.95833333333337" y1="770" x2="483.95833333333337" y2="645" stroke="#94a3b8" stroke-width="1.2"/>
<text x="483.95833333333337" y="788" text-anchor="middle" font-family="monospace" font-size="11" fill="#334155">2025-02</text>
<line x1="534.7916666666666" y1="420" x2="534.7916666666666" y2="90" stroke="#94a3b8" stroke-width="1.2"/>
<line x1="534.7916666666666" y1="605" x2="534.7916666666666" y2="480" stroke="#94a3b8" stroke-width="1.2"/>
<line x1="534.7916666666666" y1="770" x2="534.7916666666666" y2="645" stroke="#94a3b8" stroke-width="1.2"/>
<text x="534.7916666666666" y="788" text-anchor="middle" font-family="monospace" font-size="11" fill="#334155">2025-03</text>
<line x1="598.3333333333334" y1="420" x2="598.3333333333334" y2="90" stroke="#94a3b8" stroke-width="1.2"/>
<line x1="598.3333333333334" y1="605" x2="598.3333333333334" y2="480" stroke="#94a3b8" stroke-width="1.2"/>
<line x1="598.3333333333334" y1="770" x2="598.3333333333334" y2="645" stroke="#94a3b8" stroke-width="1.2"/>
<text x="598.3333333333334" y="788" text-anchor="middle" font-family="monospace" font-size="11" fill="#334155">2025-04</text>
<line x1="649.1666666666666" y1="420" x2="649.1666666666666" y2="90" stroke="#94a3b8" stroke-width="1.2"/>
<line x1="649.1666666666666" y1="605" x2="649.1666666666666" y2="480" stroke="#94a3b8" stroke-width="1.2"/>
<line x1="649.1666666666666" y1="770" x2="649.1666666666666" y2="645" stroke="#94a3b8" stroke-width="1.2"/>
<text x="649.1666666666666" y="788" text-anchor="middle" font-family="monospace" font-size="11" fill="#334155">2025-05</text>
<line x1="700.0" y1="420" x2="700.0" y2="90" stroke="#94a3b8" stroke-width="1.2"/>
<line x1="700.0" y1="605" x2="700.0" y2="480" stroke="#94a3b8" stroke-width="1.2"/>
<line x1="700.0" y1="770" x2="700.0" y2="645" stroke="#94a3b8" stroke-width="1.2"/>
<text x="700.0" y="788" text-anchor="middle" font-family="monospace" font-size="11" fill="#334155">2025-06</text>
<line x1="763.5416666666667" y1="420" x2="763.5416666666667" y2="90" stroke="#94a3b8" stroke-width="1.2"/>
<line x1="763.5416666666667" y1="605" x2="763.5416666666667" y2="480" stroke="#94a3b8" stroke-width="1.2"/>
<line x1="763.5416666666667" y1="770" x2="763.5416666666667" y2="645" stroke="#94a3b8" stroke-width="1.2"/>
<text x="763.5416666666667" y="788" text-anchor="middle" font-family="monospace" font-size="11" fill="#334155">2025-07</text>
<line x1="814.375" y1="420" x2="814.375" y2="90" stroke="#94a3b8" stroke-width="1.2"/>
<line x1="814.375" y1="605" x2="814.375" y2="480" stroke="#94a3b8" stroke-width="1.2"/>
<line x1="814.375" y1="770" x2="814.375" y2="645" stroke="#94a3b8" stroke-width="1.2"/>
<text x="814.375" y="788" text-anchor="middle" font-family="monospace" font-size="11" fill="#334155">2025-08</text>
<line x1="865.2083333333333" y1="420" x2="865.2083333333333" y2="90" stroke="#94a3b8" stroke-width="1.2"/>
<line x1="865.2083333333333" y1="605" x2="865.2083333333333" y2="480" stroke="#94a3b8" stroke-width="1.2"/>
<line x1="865.2083333333333" y1="770" x2="865.2083333333333" y2="645" stroke="#94a3b8" stroke-width="1.2"/>
<text x="865.2083333333333" y="788" text-anchor="middle" font-family="monospace" font-size="11" fill="#334155">2025-09</text>
<line x1="928.75" y1="420" x2="928.75" y2="90" stroke="#94a3b8" stroke-width="1.2"/>
<line x1="928.75" y1="605" x2="928.75" y2="480" stroke="#94a3b8" stroke-width="1.2"/>
<line x1="928.75" y1="770" x2="928.75" y2="645" stroke="#94a3b8" stroke-width="1.2"/>
<text x="928.75" y="788" text-anchor="middle" font-family="monospace" font-size="11" fill="#334155">2025-10</text>
<line x1="979.5833333333333" y1="420" x2="979.5833333333333" y2="90" stroke="#94a3b8" stroke-width="1.2"/>
<line x1="979.5833333333333" y1="605" x2="979.5833333333333" y2="480" stroke="#94a3b8" stroke-width="1.2"/>
<line x1="979.5833333333333" y1="770" x2="979.5833333333333" y2="645" stroke="#94a3b8" stroke-width="1.2"/>
<text x="979.5833333333333" y="788" text-anchor="middle" font-family="monospace" font-size="11" fill="#334155">2025-11</text>
<line x1="1030.4166666666667" y1="420" x2="1030.4166666666667" y2="90" stroke="#94a3b8" stroke-width="1.2"/>
<line x1="1030.4166666666667" y1="605" x2="1030.4166666666667" y2="480" stroke="#94a3b8" stroke-width="1.2"/>
<line x1="1030.4166666666667" y1="770" x2="1030.4166666666667" y2="645" stroke="#94a3b8" stroke-width="1.2"/>
<text x="1030.4166666666667" y="788" text-anchor="middle" font-family="monospace" font-size="11" fill="#334155">2025-12</text>
<line x1="1093.9583333333333" y1="420" x2="1093.9583333333333" y2="90" stroke="#94a3b8" stroke-width="1.2"/>
<line x1="1093.9583333333333" y1="605" x2="1093.9583333333333" y2="480" stroke="#94a3b8" stroke-width="1.2"/>
<line x1="1093.9583333333333" y1="770" x2="1093.9583333333333" y2="645" stroke="#94a3b8" stroke-width="1.2"/>
<text x="1093.9583333333333" y="788" text-anchor="middle" font-family="monospace" font-size="11" fill="#334155">2026-01</text>
<line x1="1144.7916666666667" y1="420" x2="1144.7916666666667" y2="90" stroke="#94a3b8" stroke-width="1.2"/>
<line x1="1144.7916666666667" y1="605" x2="1144.7916666666667" y2="480" stroke="#94a3b8" stroke-width="1.2"/>
<line x1="1144.7916666666667" y1="770" x2="1144.7916666666667" y2="645" stroke="#94a3b8" stroke-width="1.2"/>
<text x="1144.7916666666667" y="788" text-anchor="middle" font-family="monospace" font-size="11" fill="#334155">2026-02</text>
<line x1="1195.625" y1="420" x2="1195.625" y2="90" stroke="#94a3b8" stroke-width="1.2"/>
<line x1="1195.625" y1="605" x2="1195.625" y2="480" stroke="#94a3b8" stroke-width="1.2"/>
<line x1="1195.625" y1="770" x2="1195.625" y2="645" stroke="#94a3b8" stroke-width="1.2"/>
<text x="1195.625" y="788" text-anchor="middle" font-family="monospace" font-size="11" fill="#334155">2026-03</text>
<line x1="1259.1666666666667" y1="420" x2="1259.1666666666667" y2="90" stroke="#94a3b8" stroke-width="1.2"/>
<line x1="1259.1666666666667" y1="605" x2="1259.1666666666667" y2="480" stroke="#94a3b8" stroke-width="1.2"/>
<line x1="1259.1666666666667" y1="770" x2="1259.1666666666667" y2="645" stroke="#94a3b8" stroke-width="1.2"/>
<text x="1259.1666666666667" y="788" text-anchor="middle" font-family="monospace" font-size="11" fill="#334155">2026-04</text>
<line x1="1310.0" y1="420" x2="1310.0" y2="90" stroke="#94a3b8" stroke-width="1.2"/>
<line x1="1310.0" y1="605" x2="1310.0" y2="480" stroke="#94a3b8" stroke-width="1.2"/>
<line x1="1310.0" y1="770" x2="1310.0" y2="645" stroke="#94a3b8" stroke-width="1.2"/>
<text x="1310.0" y="788" text-anchor="middle" font-family="monospace" font-size="11" fill="#334155">2026-05</text>
<line x1="90" y1="420.0" x2="1310" y2="420.0" stroke="#cbd5e1" stroke-width="1"/>
<text x="78" y="424.0" text-anchor="end" font-family="monospace" font-size="12" fill="#475569">0</text>
<line x1="90" y1="354.0" x2="1310" y2="354.0" stroke="#cbd5e1" stroke-width="1"/>
<text x="78" y="358.0" text-anchor="end" font-family="monospace" font-size="12" fill="#475569">3170</text>
<line x1="90" y1="288.0" x2="1310" y2="288.0" stroke="#cbd5e1" stroke-width="1"/>
<text x="78" y="292.0" text-anchor="end" font-family="monospace" font-size="12" fill="#475569">6340</text>
<line x1="90" y1="222.0" x2="1310" y2="222.0" stroke="#cbd5e1" stroke-width="1"/>
<text x="78" y="226.0" text-anchor="end" font-family="monospace" font-size="12" fill="#475569">9509</text>
<line x1="90" y1="156.0" x2="1310" y2="156.0" stroke="#cbd5e1" stroke-width="1"/>
<text x="78" y="160.0" text-anchor="end" font-family="monospace" font-size="12" fill="#475569">12679</text>
<line x1="90" y1="89.99999999999994" x2="1310" y2="89.99999999999994" stroke="#cbd5e1" stroke-width="1"/>
<text x="78" y="93.99999999999994" text-anchor="end" font-family="monospace" font-size="12" fill="#475569">15849</text>
<polygon points="90.0,214.91008167368543 102.70833333333333,218.03327839946687 115.41666666666666,221.1564751252483 128.125,224.27967185102975 140.83333333333331,227.4028685768112 153.54166666666669,230.52606530259263 166.25,233.64926202837404 178.95833333333334,236.7724587541555 191.66666666666666,239.89565547993692 204.375,243.0188522057184 217.08333333333334,246.1420489314998 229.79166666666666,249.26524565728127 242.5,252.3884423830627 255.20833333333331,255.51163910884415 267.9166666666667,258.6348358346256 280.625,261.75803256040706 293.3333333333333,264.8812292861885 306.0416666666667,268.00442601196994 318.75,271.1276227377514 331.4583333333333,274.2508194635328 344.1666666666667,277.37401618931426 356.875,280.4972129150957 369.5833333333333,283.62040964087714 382.2916666666667,286.7436063666586 395.0,289.86680309244 407.70833333333337,292.98999981822146 420.41666666666663,296.1131965440029 433.125,299.23639326978434 445.83333333333337,302.3595899955658 458.54166666666663,305.48278672134717 471.25,308.6059834471286 483.95833333333337,311.72918017291005 496.66666666666663,314.8523768986915 509.375,317.97557362447293 522.0833333333334,321.09877035025437 534.7916666666666,324.2219670760358 547.5,327.34516380181725 560.2083333333334,330.46836052759875 572.9166666666666,333.5915572533802 585.625,336.7147539791616 598.3333333333334,339.837950704943 611.0416666666666,342.9611474307245 623.75,346.08434415650595 636.4583333333334,349.0030452842932 649.1666666666666,352.0248940609635 661.875,355.14809078674494 674.5833333333334,358.2712875125264 687.2916666666666,361.17819668883266 700.0,364.3013934146141 712.7083333333333,367.31028409927745 725.4166666666667,370.17751558201314 738.125,372.552307303137 750.8333333333333,373.1703113828027 763.5416666666667,373.0352641825453 776.25,372.0451185573857 788.9583333333333,371.1575406432263 801.6666666666667,370.87783270471965 814.375,371.2849221091881 827.0833333333333,370.59597733124576 839.7916666666667,370.08678320888464 852.5,369.56237850917444 865.2083333333333,369.81916114024364 877.9166666666667,368.3575278959787 890.625,366.75017538196926 903.3333333333333,365.47701949499844 916.0416666666667,364.3494190887825 928.75,362.5382707482455 941.4583333333333,361.856603978444 954.1666666666667,361.7437458180159 966.875,361.37464459523255 979.5833333333333,363.5086706193075 992.2916666666667,364.6523138585405 1005.0,367.7639633793746 1017.7083333333333,369.9647959066963 1030.4166666666667,371.7714376300389 1043.125,372.0565186280347 1055.8333333333333,372.59993370752466 1068.5416666666667,372.44627362420584 1081.25,372.49949880591396 1093.9583333333333,371.91426471828265 1106.6666666666667,371.6839850271894 1119.375,371.3557018215641 1132.0833333333333,371.98908714656955 1144.7916666666667,374.81473985633846 1157.5,377.9379365821199 1170.2083333333333,380.359096587594 1182.9166666666667,382.47036631273676 1195.625,382.4763261467136 1208.3333333333333,382.6714514067482 1221.0416666666667,382.27655210241744 1233.75,382.1028942783438 1246.4583333333333,382.5366713499372 1259.1666666666667,382.49339876366287 1271.875,381.9028002402616 1284.5833333333333,381.3403493761362 1297.2916666666667,380.83265190032813 1310.0,380.26269089567757 1310.0,420.0 1297.2916666666667,420.0 1284.5833333333333,420.0 1271.875,420.0 1259.1666666666667,420.0 1246.4583333333333,420.0 1233.75,420.0 1221.0416666666667,420.0 1208.3333333333333,420.0 1195.625,420.0 1182.9166666666667,420.0 1170.2083333333333,420.0 1157.5,420.0 1144.7916666666667,420.0 1132.0833333333333,420.0 1119.375,420.0 1106.6666666666667,420.0 1093.9583333333333,420.0 1081.25,420.0 1068.5416666666667,420.0 1055.8333333333333,420.0 1043.125,420.0 1030.4166666666667,420.0 1017.7083333333333,420.0 1005.0,420.0 992.2916666666667,420.0 979.5833333333333,420.0 966.875,420.0 954.1666666666667,420.0 941.4583333333333,420.0 928.75,420.0 916.0416666666667,420.0 903.3333333333333,420.0 890.625,420.0 877.9166666666667,420.0 865.2083333333333,420.0 852.5,420.0 839.7916666666667,420.0 827.0833333333333,420.0 814.375,420.0 801.6666666666667,420.0 788.9583333333333,420.0 776.25,420.0 763.5416666666667,420.0 750.8333333333333,420.0 738.125,420.0 725.4166666666667,420.0 712.7083333333333,420.0 700.0,420.0 687.2916666666666,420.0 674.5833333333334,420.0 661.875,420.0 649.1666666666666,420.0 636.4583333333334,420.0 623.75,420.0 611.0416666666666,420.0 598.3333333333334,420.0 585.625,420.0 572.9166666666666,420.0 560.2083333333334,420.0 547.5,420.0 534.7916666666666,420.0 522.0833333333334,420.0 509.375,420.0 496.66666666666663,420.0 483.95833333333337,420.0 471.25,420.0 458.54166666666663,420.0 445.83333333333337,420.0 433.125,420.0 420.41666666666663,420.0 407.70833333333337,420.0 395.0,420.0 382.2916666666667,420.0 369.5833333333333,420.0 356.875,420.0 344.1666666666667,420.0 331.4583333333333,420.0 318.75,420.0 306.0416666666667,420.0 293.3333333333333,420.0 280.625,420.0 267.9166666666667,420.0 255.20833333333331,420.0 242.5,420.0 229.79166666666666,420.0 217.08333333333334,420.0 204.375,420.0 191.66666666666666,420.0 178.95833333333334,420.0 166.25,420.0 153.54166666666669,420.0 140.83333333333331,420.0 128.125,420.0 115.41666666666666,420.0 102.70833333333333,420.0 90.0,420.0" fill="#facc15" fill-opacity="0.70" stroke="#facc15" stroke-width="1.2"/>
<polygon points="90.0,213.3484833107947 102.70833333333333,215.10087007481323 115.41666666666666,216.20840601991094 128.125,217.8335538134591 140.83333333333331,219.62659499508277 153.54166666666669,223.29116607339753 166.25,223.94815168958783 178.95833333333334,225.81560400862426 191.66666666666666,227.19596959977275 204.375,229.43481632542054 217.08333333333334,231.94763602335513 229.79166666666666,233.89950405855194 242.5,233.10784854516578 255.20833333333331,235.0005370837957 267.9166666666667,237.97820867733085 280.625,237.77361116826927 293.3333333333333,239.00118270950165 306.0416666666667,241.53075219934752 318.75,244.83266292834946 331.4583333333333,235.65709785267262 344.1666666666667,239.12301350185598 356.875,238.23511072200458 369.5833333333333,236.9526014907229 382.2916666666667,237.63001972762495 395.0,235.56745154816042 407.70833333333337,244.88368796838796 420.41666666666663,247.32434272430777 433.125,244.04320033567296 445.83333333333337,253.87403697693676 458.54166666666663,253.20436731999115 471.25,256.3352425876652 483.95833333333337,262.79728964232055 496.66666666666663,268.12174397276533 509.375,268.2397481911265 522.0833333333334,273.98360730207474 534.7916666666666,282.4028534045501 547.5,289.48332927119435 560.2083333333334,289.78240610412803 572.9166666666666,288.062988124565 585.625,295.30226121202077 598.3333333333334,302.98676173708225 611.0416666666666,302.8539516212428 623.75,304.38954675267314 636.4583333333334,298.35905087928415 649.1666666666666,297.6981676137656 661.875,279.09248167270187 674.5833333333334,278.4546222058767 687.2916666666666,277.11433409818426 700.0,276.3709451970119 712.7083333333333,273.8303115833867 725.4166666666667,278.46900523053716 738.125,282.9499423215599 750.8333333333333,280.02525348036744 763.5416666666667,277.8080034752964 776.25,260.2760114201975 788.9583333333333,235.62053271421212 801.6666666666667,237.45777087389718 814.375,243.34069731371284 827.0833333333333,229.14697862744026 839.7916666666667,229.22688967257255 852.5,230.33774158515985 865.2083333333333,235.44130986393606 877.9166666666667,236.37968404502345 890.625,230.2724134152976 903.3333333333333,239.3527905436741 916.0416666666667,238.3439081461762 928.75,223.4231807320051 941.4583333333333,236.23111093498437 954.1666666666667,243.9959948473787 966.875,239.67946674226064 979.5833333333333,254.59339146965772 992.2916666666667,255.38133558148786 1005.0,272.25496530137997 1017.7083333333333,275.56352253201135 1030.4166666666667,280.61538808567633 1043.125,270.7533271466492 1055.8333333333333,276.68229666069635 1068.5416666666667,275.2236058129796 1081.25,277.5886577118942 1093.9583333333333,267.8832027951529 1106.6666666666667,272.06614740393513 1119.375,269.0202870988344 1132.0833333333333,277.30064501887375 1144.7916666666667,295.8233529198934 1157.5,304.4040212784995 1170.2083333333333,308.08904227172025 1182.9166666666667,313.4817139623607 1195.625,307.1202007565853 1208.3333333333333,308.3573288560503 1221.0416666666667,295.4237716613271 1233.75,302.92782712586916 1246.4583333333333,308.0721732888742 1259.1666666666667,305.16724726441646 1271.875,295.6606512815169 1284.5833333333333,297.39841805532046 1297.2916666666667,297.50670142780774 1310.0,295.3884697727216 1310.0,380.26269089567757 1297.2916666666667,380.83265190032813 1284.5833333333333,381.3403493761362 1271.875,381.9028002402616 1259.1666666666667,382.49339876366287 1246.4583333333333,382.5366713499372 1233.75,382.1028942783438 1221.0416666666667,382.27655210241744 1208.3333333333333,382.6714514067482 1195.625,382.4763261467136 1182.9166666666667,382.47036631273676 1170.2083333333333,380.359096587594 1157.5,377.9379365821199 1144.7916666666667,374.81473985633846 1132.0833333333333,371.98908714656955 1119.375,371.3557018215641 1106.6666666666667,371.6839850271894 1093.9583333333333,371.91426471828265 1081.25,372.49949880591396 1068.5416666666667,372.44627362420584 1055.8333333333333,372.59993370752466 1043.125,372.0565186280347 1030.4166666666667,371.7714376300389 1017.7083333333333,369.9647959066963 1005.0,367.7639633793746 992.2916666666667,364.6523138585405 979.5833333333333,363.5086706193075 966.875,361.37464459523255 954.1666666666667,361.7437458180159 941.4583333333333,361.856603978444 928.75,362.5382707482455 916.0416666666667,364.3494190887825 903.3333333333333,365.47701949499844 890.625,366.75017538196926 877.9166666666667,368.3575278959787 865.2083333333333,369.81916114024364 852.5,369.56237850917444 839.7916666666667,370.08678320888464 827.0833333333333,370.59597733124576 814.375,371.2849221091881 801.6666666666667,370.87783270471965 788.9583333333333,371.1575406432263 776.25,372.0451185573857 763.5416666666667,373.0352641825453 750.8333333333333,373.1703113828027 738.125,372.552307303137 725.4166666666667,370.17751558201314 712.7083333333333,367.31028409927745 700.0,364.3013934146141 687.2916666666666,361.17819668883266 674.5833333333334,358.2712875125264 661.875,355.14809078674494 649.1666666666666,352.0248940609635 636.4583333333334,349.0030452842932 623.75,346.08434415650595 611.0416666666666,342.9611474307245 598.3333333333334,339.837950704943 585.625,336.7147539791616 572.9166666666666,333.5915572533802 560.2083333333334,330.46836052759875 547.5,327.34516380181725 534.7916666666666,324.2219670760358 522.0833333333334,321.09877035025437 509.375,317.97557362447293 496.66666666666663,314.8523768986915 483.95833333333337,311.72918017291005 471.25,308.6059834471286 458.54166666666663,305.48278672134717 445.83333333333337,302.3595899955658 433.125,299.23639326978434 420.41666666666663,296.1131965440029 407.70833333333337,292.98999981822146 395.0,289.86680309244 382.2916666666667,286.7436063666586 369.5833333333333,283.62040964087714 356.875,280.4972129150957 344.1666666666667,277.37401618931426 331.4583333333333,274.2508194635328 318.75,271.1276227377514 306.0416666666667,268.00442601196994 293.3333333333333,264.8812292861885 280.625,261.75803256040706 267.9166666666667,258.6348358346256 255.20833333333331,255.51163910884415 242.5,252.3884423830627 229.79166666666666,249.26524565728127 217.08333333333334,246.1420489314998 204.375,243.0188522057184 191.66666666666666,239.89565547993692 178.95833333333334,236.7724587541555 166.25,233.64926202837404 153.54166666666669,230.52606530259263 140.83333333333331,227.4028685768112 128.125,224.27967185102975 115.41666666666666,221.1564751252483 102.70833333333333,218.03327839946687 90.0,214.91008167368543" fill="#2563eb" fill-opacity="0.70" stroke="#2563eb" stroke-width="1.2"/>
<polygon points="90.0,211.78688494790399 102.70833333333333,212.13004755362715 115.41666666666666,211.25379243030542 128.125,211.10303088838006 140.83333333333331,211.41285607896597 153.54166666666669,215.08329770217924 166.25,213.36902624285597 178.95833333333334,213.65814680104108 191.66666666666666,212.78424001612228 204.375,214.31008560124624 217.08333333333334,215.79477362970937 229.79166666666666,215.85808698289785 242.5,211.9147863427212 255.20833333333331,212.25846409698926 267.9166666666667,214.07007991322692 280.625,210.81813890184915 293.3333333333333,209.9616547633075 306.0416666666667,209.8178464213536 318.75,212.51829229989792 331.4583333333333,191.79087070578638 344.1666666666667,192.830634607992 356.875,189.11300162226098 369.5833333333333,184.75673608639084 382.2916666666667,183.07656306313086 395.0,174.53374749149992 407.70833333333337,188.80896550000026 420.41666666666663,190.95659522639215 433.125,180.23569652554707 445.83333333333337,193.35413343359508 458.54166666666663,186.23102646763897 471.25,187.85473025206014 483.95833333333337,193.15924867035818 496.66666666666663,199.6783750627172 509.375,199.40257114426151 522.0833333333334,206.65433159292627 534.7916666666666,217.44804692371758 547.5,228.70873991650905 560.2083333333334,223.21632384776805 572.9166666666666,217.1524146428881 585.625,226.8723596057286 598.3333333333334,235.80951284940411 611.0416666666666,229.48862632909982 623.75,228.04443278391292 636.4583333333334,215.65833367170976 649.1666666666666,215.3673073751648 661.875,188.18987991695494 674.5833333333334,184.69786228407446 687.2916666666666,180.1578213225261 700.0,181.8362808731937 712.7083333333333,175.48573374447864 725.4166666666667,183.30194253969506 738.125,189.34491472888314 750.8333333333333,185.0713533586773 763.5416666666667,181.99306547808825 776.25,154.0480777174452 788.9583333333333,128.4273241481963 801.6666666666667,126.55550753776794 814.375,132.15070286964402 827.0833333333333,111.30631382008744 839.7916666666667,110.66058686947093 852.5,114.92799591897239 865.2083333333333,117.8381093540541 877.9166666666667,115.06709314010112 890.625,104.78184373583588 903.3333333333333,117.37499442496568 916.0416666666667,115.16794301167897 928.75,90.0 941.4583333333333,113.2151603183271 954.1666666666667,126.0585010228449 966.875,118.17297986769819 979.5833333333333,141.46879877549782 992.2916666666667,143.18312676579546 1005.0,174.37806450104353 1017.7083333333333,180.82814217008954 1030.4166666666667,187.8903967669078 1043.125,172.5523417142932 1055.8333333333333,182.34540863258496 1068.5416666666667,178.60938044280033 1081.25,182.5628009908579 1093.9583333333333,165.7765200972479 1106.6666666666667,172.99190384589178 1119.375,168.4225900902945 1132.0833333333333,181.4750198809714 1144.7916666666667,210.70107569305745 1157.5,228.09591282487617 1170.2083333333333,233.17407016594194 1182.9166666666667,242.9081801893975 1195.625,231.92095160114397 1208.3333333333333,233.63261336149736 1221.0416666666667,213.17189710991255 1233.75,225.00665041332792 1246.4583333333333,234.23222637193356 1259.1666666666667,228.8455426396126 1271.875,213.00039904288408 1284.5833333333333,213.4439765120109 1297.2916666666667,212.1961047147353 1310.0,207.87865936876835 1310.0,295.3884697727216 1297.2916666666667,297.50670142780774 1284.5833333333333,297.39841805532046 1271.875,295.6606512815169 1259.1666666666667,305.16724726441646 1246.4583333333333,308.0721732888742 1233.75,302.92782712586916 1221.0416666666667,295.4237716613271 1208.3333333333333,308.3573288560503 1195.625,307.1202007565853 1182.9166666666667,313.4817139623607 1170.2083333333333,308.08904227172025 1157.5,304.4040212784995 1144.7916666666667,295.8233529198934 1132.0833333333333,277.30064501887375 1119.375,269.0202870988344 1106.6666666666667,272.06614740393513 1093.9583333333333,267.8832027951529 1081.25,277.5886577118942 1068.5416666666667,275.2236058129796 1055.8333333333333,276.68229666069635 1043.125,270.7533271466492 1030.4166666666667,280.61538808567633 1017.7083333333333,275.56352253201135 1005.0,272.25496530137997 992.2916666666667,255.38133558148786 979.5833333333333,254.59339146965772 966.875,239.67946674226064 954.1666666666667,243.9959948473787 941.4583333333333,236.23111093498437 928.75,223.4231807320051 916.0416666666667,238.3439081461762 903.3333333333333,239.3527905436741 890.625,230.2724134152976 877.9166666666667,236.37968404502345 865.2083333333333,235.44130986393606 852.5,230.33774158515985 839.7916666666667,229.22688967257255 827.0833333333333,229.14697862744026 814.375,243.34069731371284 801.6666666666667,237.45777087389718 788.9583333333333,235.62053271421212 776.25,260.2760114201975 763.5416666666667,277.8080034752964 750.8333333333333,280.02525348036744 738.125,282.9499423215599 725.4166666666667,278.46900523053716 712.7083333333333,273.8303115833867 700.0,276.3709451970119 687.2916666666666,277.11433409818426 674.5833333333334,278.4546222058767 661.875,279.09248167270187 649.1666666666666,297.6981676137656 636.4583333333334,298.35905087928415 623.75,304.38954675267314 611.0416666666666,302.8539516212428 598.3333333333334,302.98676173708225 585.625,295.30226121202077 572.9166666666666,288.062988124565 560.2083333333334,289.78240610412803 547.5,289.48332927119435 534.7916666666666,282.4028534045501 522.0833333333334,273.98360730207474 509.375,268.2397481911265 496.66666666666663,268.12174397276533 483.95833333333337,262.79728964232055 471.25,256.3352425876652 458.54166666666663,253.20436731999115 445.83333333333337,253.87403697693676 433.125,244.04320033567296 420.41666666666663,247.32434272430777 407.70833333333337,244.88368796838796 395.0,235.56745154816042 382.2916666666667,237.63001972762495 369.5833333333333,236.9526014907229 356.875,238.23511072200458 344.1666666666667,239.12301350185598 331.4583333333333,235.65709785267262 318.75,244.83266292834946 306.0416666666667,241.53075219934752 293.3333333333333,239.00118270950165 280.625,237.77361116826927 267.9166666666667,237.97820867733085 255.20833333333331,235.0005370837957 242.5,233.10784854516578 229.79166666666666,233.89950405855194 217.08333333333334,231.94763602335513 204.375,229.43481632542054 191.66666666666666,227.19596959977275 178.95833333333334,225.81560400862426 166.25,223.94815168958783 153.54166666666669,223.29116607339753 140.83333333333331,219.62659499508277 128.125,217.8335538134591 115.41666666666666,216.20840601991094 102.70833333333333,215.10087007481323 90.0,213.3484833107947" fill="#f97316" fill-opacity="0.70" stroke="#f97316" stroke-width="1.2"/>
<rect x="1100" y="76" width="16" height="12" fill="#f97316" fill-opacity="0.70" stroke="#f97316"/>
<text x="1124" y="86" font-family="monospace" font-size="12" fill="#0f172a">BTC</text>
<rect x="1100" y="98" width="16" height="12" fill="#2563eb" fill-opacity="0.70" stroke="#2563eb"/>
<text x="1124" y="108" font-family="monospace" font-size="12" fill="#0f172a">ETH</text>
<rect x="1100" y="120" width="16" height="12" fill="#facc15" fill-opacity="0.70" stroke="#facc15"/>
<text x="1124" y="130" font-family="monospace" font-size="12" fill="#0f172a">DAI</text>
<text x="700.0" y="782" text-anchor="middle" font-family="monospace" font-size="16" fill="#0f172a">time</text>
<text x="24" y="255.0" transform="rotate(-90 24,255.0)" text-anchor="middle" font-family="monospace" font-size="16" fill="#0f172a">asset value split (usd)</text>
<line x1="90" y1="605" x2="1310" y2="605" stroke="#334155" stroke-width="2"/>
<line x1="90" y1="480" x2="90" y2="605" stroke="#334155" stroke-width="2"/>
<line x1="90" y1="542.5" x2="1310" y2="542.5" stroke="#64748b" stroke-width="1.5" stroke-dasharray="6 4"/>
<line x1="90" y1="605.0" x2="1310" y2="605.0" stroke="#e2e8f0" stroke-width="1"/>
<text x="78" y="609.0" text-anchor="end" font-family="monospace" font-size="11" fill="#475569">-150</text>
<line x1="90" y1="542.5" x2="1310" y2="542.5" stroke="#e2e8f0" stroke-width="1"/>
<text x="78" y="546.5" text-anchor="end" font-family="monospace" font-size="11" fill="#475569">0</text>
<line x1="90" y1="480.0" x2="1310" y2="480.0" stroke="#e2e8f0" stroke-width="1"/>
<text x="78" y="484.0" text-anchor="end" font-family="monospace" font-size="11" fill="#475569">150</text>
<rect x="86.54123711340206" y="511.25" width="6.917525773195877" height="31.25" fill="#ea580c" opacity="0.85"><title>2024-07-01 | BTC buy 75.00 usd | reason=budgeted_static_target_rebalance</title></rect>
<rect x="99.24957044673539" y="511.25" width="6.917525773195877" height="31.25" fill="#ea580c" opacity="0.85"><title>2024-07-08 | BTC buy 75.00 usd | reason=budgeted_static_target_rebalance</title></rect>
<rect x="111.95790378006872" y="511.25" width="6.917525773195877" height="31.25" fill="#ea580c" opacity="0.85"><title>2024-07-15 | BTC buy 75.00 usd | reason=budgeted_static_target_rebalance</title></rect>
<rect x="124.66623711340206" y="511.25" width="6.917525773195877" height="31.25" fill="#ea580c" opacity="0.85"><title>2024-07-22 | BTC buy 75.00 usd | reason=budgeted_static_target_rebalance</title></rect>
<rect x="137.3745704467354" y="511.25" width="6.917525773195877" height="31.25" fill="#ea580c" opacity="0.85"><title>2024-07-29 | BTC buy 75.00 usd | reason=budgeted_static_target_rebalance</title></rect>
<rect x="150.08290378006876" y="511.25" width="6.917525773195877" height="31.25" fill="#ea580c" opacity="0.85"><title>2024-08-05 | BTC buy 75.00 usd | reason=budgeted_static_target_rebalance</title></rect>
<rect x="162.79123711340208" y="511.25" width="6.917525773195877" height="31.25" fill="#ea580c" opacity="0.85"><title>2024-08-12 | BTC buy 75.00 usd | reason=budgeted_static_target_rebalance</title></rect>
<rect x="175.4995704467354" y="511.25" width="6.917525773195877" height="31.25" fill="#ea580c" opacity="0.85"><title>2024-08-19 | BTC buy 75.00 usd | reason=budgeted_static_target_rebalance</title></rect>
<rect x="188.2079037800687" y="511.25" width="6.917525773195877" height="31.25" fill="#ea580c" opacity="0.85"><title>2024-08-26 | BTC buy 75.00 usd | reason=budgeted_static_target_rebalance</title></rect>
<rect x="200.91623711340208" y="511.25" width="6.917525773195877" height="31.25" fill="#ea580c" opacity="0.85"><title>2024-09-02 | BTC buy 75.00 usd | reason=budgeted_static_target_rebalance</title></rect>
<rect x="213.6245704467354" y="511.25" width="6.917525773195877" height="31.25" fill="#ea580c" opacity="0.85"><title>2024-09-09 | BTC buy 75.00 usd | reason=budgeted_static_target_rebalance</title></rect>
<rect x="226.3329037800687" y="511.25" width="6.917525773195877" height="31.25" fill="#ea580c" opacity="0.85"><title>2024-09-16 | BTC buy 75.00 usd | reason=budgeted_static_target_rebalance</title></rect>
<rect x="239.04123711340208" y="511.25" width="6.917525773195877" height="31.25" fill="#ea580c" opacity="0.85"><title>2024-09-23 | BTC buy 75.00 usd | reason=budgeted_static_target_rebalance</title></rect>
<rect x="251.7495704467354" y="511.25" width="6.917525773195877" height="31.25" fill="#ea580c" opacity="0.85"><title>2024-09-30 | BTC buy 75.00 usd | reason=budgeted_static_target_rebalance</title></rect>
<rect x="264.45790378006876" y="511.25" width="6.917525773195877" height="31.25" fill="#ea580c" opacity="0.85"><title>2024-10-07 | BTC buy 75.00 usd | reason=budgeted_static_target_rebalance</title></rect>
<rect x="277.1662371134021" y="511.25" width="6.917525773195877" height="31.25" fill="#ea580c" opacity="0.85"><title>2024-10-14 | BTC buy 75.00 usd | reason=budgeted_static_target_rebalance</title></rect>
<rect x="289.8745704467354" y="511.25" width="6.917525773195877" height="31.25" fill="#ea580c" opacity="0.85"><title>2024-10-21 | BTC buy 75.00 usd | reason=budgeted_static_target_rebalance</title></rect>
<rect x="302.58290378006876" y="511.25" width="6.917525773195877" height="31.25" fill="#ea580c" opacity="0.85"><title>2024-10-28 | BTC buy 75.00 usd | reason=budgeted_static_target_rebalance</title></rect>
<rect x="315.2912371134021" y="511.25" width="6.917525773195877" height="31.25" fill="#ea580c" opacity="0.85"><title>2024-11-04 | BTC buy 75.00 usd | reason=budgeted_static_target_rebalance</title></rect>
<rect x="327.9995704467354" y="511.25" width="6.917525773195877" height="31.25" fill="#ea580c" opacity="0.85"><title>2024-11-11 | BTC buy 75.00 usd | reason=budgeted_static_target_rebalance</title></rect>
<rect x="340.70790378006876" y="511.25" width="6.917525773195877" height="31.25" fill="#ea580c" opacity="0.85"><title>2024-11-18 | BTC buy 75.00 usd | reason=budgeted_static_target_rebalance</title></rect>
<rect x="353.4162371134021" y="511.25" width="6.917525773195877" height="31.25" fill="#ea580c" opacity="0.85"><title>2024-11-25 | BTC buy 75.00 usd | reason=budgeted_static_target_rebalance</title></rect>
<rect x="366.1245704467354" y="511.25" width="6.917525773195877" height="31.25" fill="#ea580c" opacity="0.85"><title>2024-12-02 | BTC buy 75.00 usd | reason=budgeted_static_target_rebalance</title></rect>
<rect x="378.83290378006876" y="511.25" width="6.917525773195877" height="31.25" fill="#ea580c" opacity="0.85"><title>2024-12-09 | BTC buy 75.00 usd | reason=budgeted_static_target_rebalance</title></rect>
<rect x="391.5412371134021" y="511.25" width="6.917525773195877" height="31.25" fill="#ea580c" opacity="0.85"><title>2024-12-16 | BTC buy 75.00 usd | reason=budgeted_static_target_rebalance</title></rect>
<rect x="404.24957044673545" y="511.25" width="6.917525773195877" height="31.25" fill="#ea580c" opacity="0.85"><title>2024-12-23 | BTC buy 75.00 usd | reason=budgeted_static_target_rebalance</title></rect>
<rect x="416.9579037800687" y="511.25" width="6.917525773195877" height="31.25" fill="#ea580c" opacity="0.85"><title>2024-12-30 | BTC buy 75.00 usd | reason=budgeted_static_target_rebalance</title></rect>
<rect x="429.6662371134021" y="511.25" width="6.917525773195877" height="31.25" fill="#ea580c" opacity="0.85"><title>2025-01-06 | BTC buy 75.00 usd | reason=budgeted_static_target_rebalance</title></rect>
<rect x="442.37457044673545" y="511.25" width="6.917525773195877" height="31.25" fill="#ea580c" opacity="0.85"><title>2025-01-13 | BTC buy 75.00 usd | reason=budgeted_static_target_rebalance</title></rect>
<rect x="455.0829037800687" y="511.25" width="6.917525773195877" height="31.25" fill="#ea580c" opacity="0.85"><title>2025-01-20 | BTC buy 75.00 usd | reason=budgeted_static_target_rebalance</title></rect>
<rect x="467.7912371134021" y="511.25" width="6.917525773195877" height="31.25" fill="#ea580c" opacity="0.85"><title>2025-01-27 | BTC buy 75.00 usd | reason=budgeted_static_target_rebalance</title></rect>
<rect x="480.49957044673545" y="511.25" width="6.917525773195877" height="31.25" fill="#ea580c" opacity="0.85"><title>2025-02-03 | BTC buy 75.00 usd | reason=budgeted_static_target_rebalance</title></rect>
<rect x="493.2079037800687" y="511.25" width="6.917525773195877" height="31.25" fill="#ea580c" opacity="0.85"><title>2025-02-10 | BTC buy 75.00 usd | reason=budgeted_static_target_rebalance</title></rect>
<rect x="505.9162371134021" y="511.25" width="6.917525773195877" height="31.25" fill="#ea580c" opacity="0.85"><title>2025-02-17 | BTC buy 75.00 usd | reason=budgeted_static_target_rebalance</title></rect>
<rect x="518.6245704467354" y="511.25" width="6.917525773195877" height="31.25" fill="#ea580c" opacity="0.85"><title>2025-02-24 | BTC buy 75.00 usd | reason=budgeted_static_target_rebalance</title></rect>
<rect x="531.3329037800687" y="511.25" width="6.917525773195877" height="31.25" fill="#ea580c" opacity="0.85"><title>2025-03-03 | BTC buy 75.00 usd | reason=budgeted_static_target_rebalance</title></rect>
<rect x="544.0412371134021" y="511.25" width="6.917525773195877" height="31.25" fill="#ea580c" opacity="0.85"><title>2025-03-10 | BTC buy 75.00 usd | reason=budgeted_static_target_rebalance</title></rect>
<rect x="556.7495704467354" y="511.25" width="6.917525773195877" height="31.25" fill="#ea580c" opacity="0.85"><title>2025-03-17 | BTC buy 75.00 usd | reason=budgeted_static_target_rebalance</title></rect>
<rect x="569.4579037800687" y="511.25" width="6.917525773195877" height="31.25" fill="#ea580c" opacity="0.85"><title>2025-03-24 | BTC buy 75.00 usd | reason=budgeted_static_target_rebalance</title></rect>
<rect x="582.1662371134021" y="511.25" width="6.917525773195877" height="31.25" fill="#ea580c" opacity="0.85"><title>2025-03-31 | BTC buy 75.00 usd | reason=budgeted_static_target_rebalance</title></rect>
<rect x="594.8745704467354" y="511.25" width="6.917525773195877" height="31.25" fill="#ea580c" opacity="0.85"><title>2025-04-07 | BTC buy 75.00 usd | reason=budgeted_static_target_rebalance</title></rect>
<rect x="607.5829037800687" y="511.25" width="6.917525773195877" height="31.25" fill="#ea580c" opacity="0.85"><title>2025-04-14 | BTC buy 75.00 usd | reason=budgeted_static_target_rebalance</title></rect>
<rect x="620.2912371134021" y="533.7526940332818" width="6.917525773195877" height="8.747305966718159" fill="#ea580c" opacity="0.85"><title>2025-04-21 | BTC buy 20.99 usd | reason=budgeted_static_target_rebalance</title></rect>
<rect x="632.9995704467354" y="542.5" width="6.917525773195877" height="4.092273397039662" fill="#dc2626" opacity="0.85"><title>2025-04-28 | BTC sell 9.82 usd | reason=budgeted_static_target_rebalance</title></rect>
<rect x="645.7079037800687" y="542.5" width="6.917525773195877" height="2.0281293096771833" fill="#dc2626" opacity="0.85"><title>2025-05-05 | BTC sell 4.87 usd | reason=budgeted_static_target_rebalance</title></rect>
<rect x="658.4162371134021" y="511.25" width="6.917525773195877" height="31.25" fill="#ea580c" opacity="0.85"><title>2025-05-12 | BTC buy 75.00 usd | reason=budgeted_static_target_rebalance</title></rect>
<rect x="671.1245704467354" y="535.2138922765737" width="6.917525773195877" height="7.286107723426312" fill="#ea580c" opacity="0.85"><title>2025-05-19 | BTC buy 17.49 usd | reason=budgeted_static_target_rebalance</title></rect>
<rect x="683.8329037800687" y="542.5" width="6.917525773195877" height="4.328248595616401" fill="#dc2626" opacity="0.85"><title>2025-05-26 | BTC sell 10.39 usd | reason=budgeted_static_target_rebalance</title></rect>
<rect x="696.5412371134021" y="527.8750941929253" width="6.917525773195877" height="14.624905807074697" fill="#ea580c" opacity="0.85"><title>2025-06-02 | BTC buy 35.10 usd | reason=budgeted_static_target_rebalance</title></rect>
<rect x="709.2495704467353" y="542.5" width="6.917525773195877" height="2.2874407849193403" fill="#dc2626" opacity="0.85"><title>2025-06-09 | BTC sell 5.49 usd | reason=budgeted_static_target_rebalance</title></rect>
<rect x="721.9579037800688" y="542.5" width="6.917525773195877" height="2.0708179590506006" fill="#dc2626" opacity="0.85"><title>2025-06-16 | BTC sell 4.97 usd | reason=budgeted_static_target_rebalance</title></rect>
<rect x="734.6662371134021" y="542.5" width="6.917525773195877" height="5.7008377705233215" fill="#dc2626" opacity="0.85"><title>2025-06-23 | BTC sell 13.68 usd | reason=budgeted_static_target_rebalance</title></rect>
<rect x="747.3745704467353" y="542.5" width="6.917525773195877" height="4.170339973860337" fill="#dc2626" opacity="0.85"><title>2025-06-30 | BTC sell 10.01 usd | reason=budgeted_static_target_rebalance</title></rect>
<rect x="760.0829037800688" y="542.5" width="6.917525773195877" height="2.2124827436524583" fill="#dc2626" opacity="0.85"><title>2025-07-07 | BTC sell 5.31 usd | reason=budgeted_static_target_rebalance</title></rect>
<rect x="772.7912371134021" y="539.4415309119021" width="6.917525773195877" height="3.0584690880979224" fill="#ea580c" opacity="0.85"><title>2025-07-14 | BTC buy 7.34 usd | reason=budgeted_static_target_rebalance</title></rect>
<rect x="785.4995704467353" y="480.0" width="6.917525773195877" height="62.5" fill="#ea580c" opacity="0.85"><title>2025-07-21 | BTC buy 150.00 usd | reason=budgeted_static_target_rebalance</title></rect>
<rect x="798.2079037800688" y="480.0" width="6.917525773195877" height="62.5" fill="#ea580c" opacity="0.85"><title>2025-07-28 | BTC buy 150.00 usd | reason=budgeted_static_target_rebalance</title></rect>
<rect x="810.9162371134021" y="480.0" width="6.917525773195877" height="62.5" fill="#ea580c" opacity="0.85"><title>2025-08-04 | BTC buy 150.00 usd | reason=budgeted_static_target_rebalance</title></rect>
<rect x="823.6245704467353" y="480.0" width="6.917525773195877" height="62.5" fill="#ea580c" opacity="0.85"><title>2025-08-11 | BTC buy 150.00 usd | reason=budgeted_static_target_rebalance</title></rect>
<rect x="836.3329037800688" y="480.0" width="6.917525773195877" height="62.5" fill="#ea580c" opacity="0.85"><title>2025-08-18 | BTC buy 150.00 usd | reason=budgeted_static_target_rebalance</title></rect>
<rect x="849.0412371134021" y="480.0" width="6.917525773195877" height="62.5" fill="#ea580c" opacity="0.85"><title>2025-08-25 | BTC buy 150.00 usd | reason=budgeted_static_target_rebalance</title></rect>
<rect x="861.7495704467353" y="480.0" width="6.917525773195877" height="62.5" fill="#ea580c" opacity="0.85"><title>2025-09-01 | BTC buy 150.00 usd | reason=budgeted_static_target_rebalance</title></rect>
<rect x="874.4579037800688" y="529.2809351876494" width="6.917525773195877" height="13.219064812350553" fill="#ea580c" opacity="0.85"><title>2025-09-08 | BTC buy 31.73 usd | reason=budgeted_static_target_rebalance</title></rect>
<rect x="887.1662371134021" y="530.5592530947872" width="6.917525773195877" height="11.94074690521279" fill="#ea580c" opacity="0.85"><title>2025-09-15 | BTC buy 28.66 usd | reason=budgeted_static_target_rebalance</title></rect>
<rect x="899.8745704467353" y="542.5" width="6.917525773195877" height="12.73890982896171" fill="#dc2626" opacity="0.85"><title>2025-09-22 | BTC sell 30.57 usd | reason=budgeted_static_target_rebalance</title></rect>
<rect x="912.5829037800688" y="542.5" width="6.917525773195877" height="11.282514611830038" fill="#dc2626" opacity="0.85"><title>2025-09-29 | BTC sell 27.08 usd | reason=budgeted_static_target_rebalance</title></rect>
<rect x="925.2912371134021" y="542.5" width="6.917525773195877" height="18.121940630434665" fill="#dc2626" opacity="0.85"><title>2025-10-06 | BTC sell 43.49 usd | reason=budgeted_static_target_rebalance</title></rect>
<rect x="937.9995704467353" y="542.5" width="6.917525773195877" height="6.043782430815327" fill="#dc2626" opacity="0.85"><title>2025-10-13 | BTC sell 14.51 usd | reason=budgeted_static_target_rebalance</title></rect>
<rect x="950.7079037800688" y="542.5" width="6.917525773195877" height="1.5" fill="#dc2626" opacity="0.85"><title>2025-10-20 | BTC sell 2.71 usd | reason=budgeted_static_target_rebalance</title></rect>
<rect x="963.4162371134021" y="542.5" width="6.917525773195877" height="3.6931433478924873" fill="#dc2626" opacity="0.85"><title>2025-10-27 | BTC sell 8.86 usd | reason=budgeted_static_target_rebalance</title></rect>
<rect x="976.1245704467353" y="542.5" width="6.917525773195877" height="7.2677001315314556" fill="#dc2626" opacity="0.85"><title>2025-11-03 | BTC sell 17.44 usd | reason=budgeted_static_target_rebalance</title></rect>
<rect x="988.8329037800688" y="542.5" width="6.917525773195877" height="6.246159880428422" fill="#dc2626" opacity="0.85"><title>2025-11-10 | BTC sell 14.99 usd | reason=budgeted_static_target_rebalance</title></rect>
<rect x="1001.5412371134021" y="535.0582377629224" width="6.917525773195877" height="7.441762237077569" fill="#ea580c" opacity="0.85"><title>2025-11-17 | BTC buy 17.86 usd | reason=budgeted_static_target_rebalance</title></rect>
<rect x="1014.2495704467353" y="523.821966481938" width="6.917525773195877" height="18.678033518061966" fill="#ea580c" opacity="0.85"><title>2025-11-24 | BTC buy 44.83 usd | reason=budgeted_static_target_rebalance</title></rect>
<rect x="1026.9579037800688" y="540.1216280764661" width="6.917525773195877" height="2.378371923533905" fill="#ea580c" opacity="0.85"><title>2025-12-01 | BTC buy 5.71 usd | reason=budgeted_static_target_rebalance</title></rect>
<rect x="1039.666237113402" y="526.9294574149017" width="6.917525773195877" height="15.570542585098337" fill="#ea580c" opacity="0.85"><title>2025-12-08 | BTC buy 37.37 usd | reason=budgeted_static_target_rebalance</title></rect>
<rect x="1052.3745704467353" y="527.9926581939601" width="6.917525773195877" height="14.507341806039904" fill="#ea580c" opacity="0.85"><title>2025-12-15 | BTC buy 34.82 usd | reason=budgeted_static_target_rebalance</title></rect>
<rect x="1065.0829037800688" y="542.5" width="6.917525773195877" height="1.5" fill="#dc2626" opacity="0.85"><title>2025-12-22 | BTC sell 2.78 usd | reason=budgeted_static_target_rebalance</title></rect>
<rect x="1077.791237113402" y="542.5" width="6.917525773195877" height="1.5" fill="#dc2626" opacity="0.85"><title>2025-12-29 | BTC sell 0.52 usd | reason=budgeted_static_target_rebalance</title></rect>
<rect x="1090.4995704467353" y="542.5" width="6.917525773195877" height="5.855719906308877" fill="#dc2626" opacity="0.85"><title>2026-01-05 | BTC sell 14.05 usd | reason=budgeted_static_target_rebalance</title></rect>
<rect x="1103.2079037800688" y="542.5" width="6.917525773195877" height="2.3041265019461434" fill="#dc2626" opacity="0.85"><title>2026-01-12 | BTC sell 5.53 usd | reason=budgeted_static_target_rebalance</title></rect>
<rect x="1115.916237113402" y="541.8342767390441" width="6.917525773195877" height="1.5" fill="#ea580c" opacity="0.85"><title>2026-01-19 | BTC buy 1.60 usd | reason=budgeted_static_target_rebalance</title></rect>
<rect x="1128.6245704467353" y="542.5" width="6.917525773195877" height="1.764309989313233" fill="#dc2626" opacity="0.85"><title>2026-01-26 | BTC sell 4.23 usd | reason=budgeted_static_target_rebalance</title></rect>
<rect x="1141.3329037800688" y="542.5" width="6.917525773195877" height="5.954316245041696" fill="#dc2626" opacity="0.85"><title>2026-02-02 | BTC sell 14.29 usd | reason=budgeted_static_target_rebalance</title></rect>
<rect x="1154.041237113402" y="533.4242345214278" width="6.917525773195877" height="9.07576547857218" fill="#ea580c" opacity="0.85"><title>2026-02-09 | BTC buy 21.78 usd | reason=budgeted_static_target_rebalance</title></rect>
<rect x="1166.7495704467353" y="542.5" width="6.917525773195877" height="1.5" fill="#dc2626" opacity="0.85"><title>2026-02-16 | BTC sell 1.88 usd | reason=budgeted_static_target_rebalance</title></rect>
<rect x="1179.4579037800688" y="537.2330777087867" width="6.917525773195877" height="5.266922291213291" fill="#ea580c" opacity="0.85"><title>2026-02-23 | BTC buy 12.64 usd | reason=budgeted_static_target_rebalance</title></rect>
<rect x="1192.166237113402" y="541.8522221192089" width="6.917525773195877" height="1.5" fill="#ea580c" opacity="0.85"><title>2026-03-02 | BTC buy 1.55 usd | reason=budgeted_static_target_rebalance</title></rect>
<rect x="1204.8745704467353" y="542.5" width="6.917525773195877" height="1.5" fill="#dc2626" opacity="0.85"><title>2026-03-09 | BTC sell 1.81 usd | reason=budgeted_static_target_rebalance</title></rect>
<rect x="1217.5829037800688" y="532.9071323649076" width="6.917525773195877" height="9.592867635092375" fill="#ea580c" opacity="0.85"><title>2026-03-16 | BTC buy 23.02 usd | reason=budgeted_static_target_rebalance</title></rect>
<rect x="1230.291237113402" y="540.975858054768" width="6.917525773195877" height="1.5241419452320315" fill="#ea580c" opacity="0.85"><title>2026-03-23 | BTC buy 3.66 usd | reason=budgeted_static_target_rebalance</title></rect>
<rect x="1242.9995704467353" y="533.151354699545" width="6.917525773195877" height="9.348645300455019" fill="#ea580c" opacity="0.85"><title>2026-03-30 | BTC buy 22.44 usd | reason=budgeted_static_target_rebalance</title></rect>
<rect x="1255.7079037800688" y="539.6968160419817" width="6.917525773195877" height="2.8031839580182805" fill="#ea580c" opacity="0.85"><title>2026-04-06 | BTC buy 6.73 usd | reason=budgeted_static_target_rebalance</title></rect>
<rect x="1268.416237113402" y="539.7066252050886" width="6.917525773195877" height="2.793374794911415" fill="#ea580c" opacity="0.85"><title>2026-04-13 | BTC buy 6.70 usd | reason=budgeted_static_target_rebalance</title></rect>
<rect x="1281.1245704467353" y="542.5" width="6.917525773195877" height="5.627756125263318" fill="#dc2626" opacity="0.85"><title>2026-04-20 | BTC sell 13.51 usd | reason=budgeted_static_target_rebalance</title></rect>
<rect x="1293.8329037800688" y="542.5" width="6.917525773195877" height="6.069604799664603" fill="#dc2626" opacity="0.85"><title>2026-04-27 | BTC sell 14.57 usd | reason=budgeted_static_target_rebalance</title></rect>
<rect x="1306.541237113402" y="542.5" width="6.917525773195877" height="10.891807776914561" fill="#dc2626" opacity="0.85"><title>2026-05-04 | BTC sell 26.14 usd | reason=budgeted_static_target_rebalance</title></rect>
<text x="24" y="542.5" transform="rotate(-90 24,542.5)" text-anchor="middle" font-family="monospace" font-size="14" fill="#0f172a">BTC weekly trade usd</text>
<line x1="90" y1="770" x2="1310" y2="770" stroke="#334155" stroke-width="2"/>
<line x1="90" y1="645" x2="90" y2="770" stroke="#334155" stroke-width="2"/>
<line x1="90" y1="707.5" x2="1310" y2="707.5" stroke="#64748b" stroke-width="1.5" stroke-dasharray="6 4"/>
<line x1="90" y1="770.0" x2="1310" y2="770.0" stroke="#e2e8f0" stroke-width="1"/>
<text x="78" y="774.0" text-anchor="end" font-family="monospace" font-size="11" fill="#475569">-193</text>
<line x1="90" y1="707.5" x2="1310" y2="707.5" stroke="#e2e8f0" stroke-width="1"/>
<text x="78" y="711.5" text-anchor="end" font-family="monospace" font-size="11" fill="#475569">0</text>
<line x1="90" y1="645.0" x2="1310" y2="645.0" stroke="#e2e8f0" stroke-width="1"/>
<text x="78" y="649.0" text-anchor="end" font-family="monospace" font-size="11" fill="#475569">193</text>
<rect x="86.54123711340206" y="683.1655742487419" width="6.917525773195877" height="24.334425751258095" fill="#2563eb" opacity="0.85"><title>2024-07-01 | ETH buy 75.00 usd | reason=budgeted_static_target_rebalance</title></rect>
<rect x="99.24957044673539" y="683.1655742487419" width="6.917525773195877" height="24.334425751258095" fill="#2563eb" opacity="0.85"><title>2024-07-08 | ETH buy 75.00 usd | reason=budgeted_static_target_rebalance</title></rect>
<rect x="111.95790378006872" y="683.1655742487419" width="6.917525773195877" height="24.334425751258095" fill="#2563eb" opacity="0.85"><title>2024-07-15 | ETH buy 75.00 usd | reason=budgeted_static_target_rebalance</title></rect>
<rect x="124.66623711340206" y="683.1655742487419" width="6.917525773195877" height="24.334425751258095" fill="#2563eb" opacity="0.85"><title>2024-07-22 | ETH buy 75.00 usd | reason=budgeted_static_target_rebalance</title></rect>
<rect x="137.3745704467354" y="683.1655742487419" width="6.917525773195877" height="24.334425751258095" fill="#2563eb" opacity="0.85"><title>2024-07-29 | ETH buy 75.00 usd | reason=budgeted_static_target_rebalance</title></rect>
<rect x="150.08290378006876" y="683.1655742487419" width="6.917525773195877" height="24.334425751258095" fill="#2563eb" opacity="0.85"><title>2024-08-05 | ETH buy 75.00 usd | reason=budgeted_static_target_rebalance</title></rect>
<rect x="162.79123711340208" y="683.1655742487419" width="6.917525773195877" height="24.334425751258095" fill="#2563eb" opacity="0.85"><title>2024-08-12 | ETH buy 75.00 usd | reason=budgeted_static_target_rebalance</title></rect>
<rect x="175.4995704467354" y="683.1655742487419" width="6.917525773195877" height="24.334425751258095" fill="#2563eb" opacity="0.85"><title>2024-08-19 | ETH buy 75.00 usd | reason=budgeted_static_target_rebalance</title></rect>
<rect x="188.2079037800687" y="683.1655742487419" width="6.917525773195877" height="24.334425751258095" fill="#2563eb" opacity="0.85"><title>2024-08-26 | ETH buy 75.00 usd | reason=budgeted_static_target_rebalance</title></rect>
<rect x="200.91623711340208" y="683.1655742487419" width="6.917525773195877" height="24.334425751258095" fill="#2563eb" opacity="0.85"><title>2024-09-02 | ETH buy 75.00 usd | reason=budgeted_static_target_rebalance</title></rect>
<rect x="213.6245704467354" y="683.1655742487419" width="6.917525773195877" height="24.334425751258095" fill="#2563eb" opacity="0.85"><title>2024-09-09 | ETH buy 75.00 usd | reason=budgeted_static_target_rebalance</title></rect>
<rect x="226.3329037800687" y="683.1655742487419" width="6.917525773195877" height="24.334425751258095" fill="#2563eb" opacity="0.85"><title>2024-09-16 | ETH buy 75.00 usd | reason=budgeted_static_target_rebalance</title></rect>
<rect x="239.04123711340208" y="683.1655742487419" width="6.917525773195877" height="24.334425751258095" fill="#2563eb" opacity="0.85"><title>2024-09-23 | ETH buy 75.00 usd | reason=budgeted_static_target_rebalance</title></rect>
<rect x="251.7495704467354" y="683.1655742487419" width="6.917525773195877" height="24.334425751258095" fill="#2563eb" opacity="0.85"><title>2024-09-30 | ETH buy 75.00 usd | reason=budgeted_static_target_rebalance</title></rect>
<rect x="264.45790378006876" y="683.1655742487419" width="6.917525773195877" height="24.334425751258095" fill="#2563eb" opacity="0.85"><title>2024-10-07 | ETH buy 75.00 usd | reason=budgeted_static_target_rebalance</title></rect>
<rect x="277.1662371134021" y="683.1655742487419" width="6.917525773195877" height="24.334425751258095" fill="#2563eb" opacity="0.85"><title>2024-10-14 | ETH buy 75.00 usd | reason=budgeted_static_target_rebalance</title></rect>
<rect x="289.8745704467354" y="683.1655742487419" width="6.917525773195877" height="24.334425751258095" fill="#2563eb" opacity="0.85"><title>2024-10-21 | ETH buy 75.00 usd | reason=budgeted_static_target_rebalance</title></rect>
<rect x="302.58290378006876" y="683.1655742487419" width="6.917525773195877" height="24.334425751258095" fill="#2563eb" opacity="0.85"><title>2024-10-28 | ETH buy 75.00 usd | reason=budgeted_static_target_rebalance</title></rect>
<rect x="315.2912371134021" y="683.1655742487419" width="6.917525773195877" height="24.334425751258095" fill="#2563eb" opacity="0.85"><title>2024-11-04 | ETH buy 75.00 usd | reason=budgeted_static_target_rebalance</title></rect>
<rect x="327.9995704467354" y="683.1655742487419" width="6.917525773195877" height="24.334425751258095" fill="#2563eb" opacity="0.85"><title>2024-11-11 | ETH buy 75.00 usd | reason=budgeted_static_target_rebalance</title></rect>
<rect x="340.70790378006876" y="683.1655742487419" width="6.917525773195877" height="24.334425751258095" fill="#2563eb" opacity="0.85"><title>2024-11-18 | ETH buy 75.00 usd | reason=budgeted_static_target_rebalance</title></rect>
<rect x="353.4162371134021" y="683.1655742487419" width="6.917525773195877" height="24.334425751258095" fill="#2563eb" opacity="0.85"><title>2024-11-25 | ETH buy 75.00 usd | reason=budgeted_static_target_rebalance</title></rect>
<rect x="366.1245704467354" y="683.1655742487419" width="6.917525773195877" height="24.334425751258095" fill="#2563eb" opacity="0.85"><title>2024-12-02 | ETH buy 75.00 usd | reason=budgeted_static_target_rebalance</title></rect>
<rect x="378.83290378006876" y="683.1655742487419" width="6.917525773195877" height="24.334425751258095" fill="#2563eb" opacity="0.85"><title>2024-12-09 | ETH buy 75.00 usd | reason=budgeted_static_target_rebalance</title></rect>
<rect x="391.5412371134021" y="683.1655742487419" width="6.917525773195877" height="24.334425751258095" fill="#2563eb" opacity="0.85"><title>2024-12-16 | ETH buy 75.00 usd | reason=budgeted_static_target_rebalance</title></rect>
<rect x="404.24957044673545" y="683.1655742487419" width="6.917525773195877" height="24.334425751258095" fill="#2563eb" opacity="0.85"><title>2024-12-23 | ETH buy 75.00 usd | reason=budgeted_static_target_rebalance</title></rect>
<rect x="416.9579037800687" y="683.1655742487419" width="6.917525773195877" height="24.334425751258095" fill="#2563eb" opacity="0.85"><title>2024-12-30 | ETH buy 75.00 usd | reason=budgeted_static_target_rebalance</title></rect>
<rect x="429.6662371134021" y="683.1655742487419" width="6.917525773195877" height="24.334425751258095" fill="#2563eb" opacity="0.85"><title>2025-01-06 | ETH buy 75.00 usd | reason=budgeted_static_target_rebalance</title></rect>
<rect x="442.37457044673545" y="683.1655742487419" width="6.917525773195877" height="24.334425751258095" fill="#2563eb" opacity="0.85"><title>2025-01-13 | ETH buy 75.00 usd | reason=budgeted_static_target_rebalance</title></rect>
<rect x="455.0829037800687" y="683.1655742487419" width="6.917525773195877" height="24.334425751258095" fill="#2563eb" opacity="0.85"><title>2025-01-20 | ETH buy 75.00 usd | reason=budgeted_static_target_rebalance</title></rect>
<rect x="467.7912371134021" y="683.1655742487419" width="6.917525773195877" height="24.334425751258095" fill="#2563eb" opacity="0.85"><title>2025-01-27 | ETH buy 75.00 usd | reason=budgeted_static_target_rebalance</title></rect>
<rect x="480.49957044673545" y="683.1655742487419" width="6.917525773195877" height="24.334425751258095" fill="#2563eb" opacity="0.85"><title>2025-02-03 | ETH buy 75.00 usd | reason=budgeted_static_target_rebalance</title></rect>
<rect x="493.2079037800687" y="683.1655742487419" width="6.917525773195877" height="24.334425751258095" fill="#2563eb" opacity="0.85"><title>2025-02-10 | ETH buy 75.00 usd | reason=budgeted_static_target_rebalance</title></rect>
<rect x="505.9162371134021" y="683.1655742487419" width="6.917525773195877" height="24.334425751258095" fill="#2563eb" opacity="0.85"><title>2025-02-17 | ETH buy 75.00 usd | reason=budgeted_static_target_rebalance</title></rect>
<rect x="518.6245704467354" y="683.1655742487419" width="6.917525773195877" height="24.334425751258095" fill="#2563eb" opacity="0.85"><title>2025-02-24 | ETH buy 75.00 usd | reason=budgeted_static_target_rebalance</title></rect>
<rect x="531.3329037800687" y="683.1655742487419" width="6.917525773195877" height="24.334425751258095" fill="#2563eb" opacity="0.85"><title>2025-03-03 | ETH buy 75.00 usd | reason=budgeted_static_target_rebalance</title></rect>
<rect x="544.0412371134021" y="683.1655742487419" width="6.917525773195877" height="24.334425751258095" fill="#2563eb" opacity="0.85"><title>2025-03-10 | ETH buy 75.00 usd | reason=budgeted_static_target_rebalance</title></rect>
<rect x="556.7495704467354" y="683.1655742487419" width="6.917525773195877" height="24.334425751258095" fill="#2563eb" opacity="0.85"><title>2025-03-17 | ETH buy 75.00 usd | reason=budgeted_static_target_rebalance</title></rect>
<rect x="569.4579037800687" y="683.1655742487419" width="6.917525773195877" height="24.334425751258095" fill="#2563eb" opacity="0.85"><title>2025-03-24 | ETH buy 75.00 usd | reason=budgeted_static_target_rebalance</title></rect>
<rect x="582.1662371134021" y="683.1655742487419" width="6.917525773195877" height="24.334425751258095" fill="#2563eb" opacity="0.85"><title>2025-03-31 | ETH buy 75.00 usd | reason=budgeted_static_target_rebalance</title></rect>
<rect x="594.8745704467354" y="683.1655742487419" width="6.917525773195877" height="24.334425751258095" fill="#2563eb" opacity="0.85"><title>2025-04-07 | ETH buy 75.00 usd | reason=budgeted_static_target_rebalance</title></rect>
<rect x="607.5829037800687" y="683.1655742487419" width="6.917525773195877" height="24.334425751258095" fill="#2563eb" opacity="0.85"><title>2025-04-14 | ETH buy 75.00 usd | reason=budgeted_static_target_rebalance</title></rect>
<rect x="620.2912371134021" y="665.6426898597443" width="6.917525773195877" height="41.85731014025566" fill="#2563eb" opacity="0.85"><title>2025-04-21 | ETH buy 129.01 usd | reason=budgeted_static_target_rebalance</title></rect>
<rect x="632.9995704467354" y="658.8311484974839" width="6.917525773195877" height="48.66885150251608" fill="#2563eb" opacity="0.85"><title>2025-04-28 | ETH buy 150.00 usd | reason=budgeted_static_target_rebalance</title></rect>
<rect x="645.7079037800687" y="658.8311484974839" width="6.917525773195877" height="48.66885150251608" fill="#2563eb" opacity="0.85"><title>2025-05-05 | ETH buy 150.00 usd | reason=budgeted_static_target_rebalance</title></rect>
<rect x="658.4162371134021" y="683.1655742487419" width="6.917525773195877" height="24.334425751258095" fill="#2563eb" opacity="0.85"><title>2025-05-12 | ETH buy 75.00 usd | reason=budgeted_static_target_rebalance</title></rect>
<rect x="671.1245704467354" y="664.5048524146482" width="6.917525773195877" height="42.99514758535179" fill="#2563eb" opacity="0.85"><title>2025-05-19 | ETH buy 132.51 usd | reason=budgeted_static_target_rebalance</title></rect>
<rect x="683.8329037800687" y="658.8311484974839" width="6.917525773195877" height="48.66885150251608" fill="#2563eb" opacity="0.85"><title>2025-05-26 | ETH buy 150.00 usd | reason=budgeted_static_target_rebalance</title></rect>
<rect x="696.5412371134021" y="670.2195864008887" width="6.917525773195877" height="37.280413599111284" fill="#2563eb" opacity="0.85"><title>2025-06-02 | ETH buy 114.90 usd | reason=budgeted_static_target_rebalance</title></rect>
<rect x="709.2495704467353" y="658.8311484974839" width="6.917525773195877" height="48.66885150251608" fill="#2563eb" opacity="0.85"><title>2025-06-09 | ETH buy 150.00 usd | reason=budgeted_static_target_rebalance</title></rect>
<rect x="721.9579037800688" y="661.2073118765123" width="6.917525773195877" height="46.292688123487665" fill="#2563eb" opacity="0.85"><title>2025-06-16 | ETH buy 142.68 usd | reason=budgeted_static_target_rebalance</title></rect>
<rect x="734.6662371134021" y="666.0543104880605" width="6.917525773195877" height="41.44568951193946" fill="#2563eb" opacity="0.85"><title>2025-06-23 | ETH buy 127.74 usd | reason=budgeted_static_target_rebalance</title></rect>
<rect x="747.3745704467353" y="694.6221766946189" width="6.917525773195877" height="12.877823305381071" fill="#2563eb" opacity="0.85"><title>2025-06-30 | ETH buy 39.69 usd | reason=budgeted_static_target_rebalance</title></rect>
<rect x="760.0829037800688" y="707.5" width="6.917525773195877" height="1.5" fill="#7c3aed" opacity="0.85"><title>2025-07-07 | ETH sell 1.18 usd | reason=budgeted_static_target_rebalance</title></rect>
<rect x="772.7912371134021" y="707.5" width="6.917525773195877" height="17.81109851023166" fill="#7c3aed" opacity="0.85"><title>2025-07-14 | ETH sell 54.89 usd | reason=budgeted_static_target_rebalance</title></rect>
<rect x="785.4995704467353" y="707.5" width="6.917525773195877" height="62.5" fill="#7c3aed" opacity="0.85"><title>2025-07-21 | ETH sell 192.63 usd | reason=budgeted_static_target_rebalance</title></rect>
<rect x="798.2079037800688" y="707.5" width="6.917525773195877" height="53.02754719750135" fill="#7c3aed" opacity="0.85"><title>2025-07-28 | ETH sell 163.43 usd | reason=budgeted_static_target_rebalance</title></rect>
<rect x="810.9162371134021" y="707.5" width="6.917525773195877" height="42.32516728602991" fill="#7c3aed" opacity="0.85"><title>2025-08-04 | ETH sell 130.45 usd | reason=budgeted_static_target_rebalance</title></rect>
<rect x="823.6245704467353" y="707.5" width="6.917525773195877" height="59.40469494597312" fill="#7c3aed" opacity="0.85"><title>2025-08-11 | ETH sell 183.09 usd | reason=budgeted_static_target_rebalance</title></rect>
<rect x="836.3329037800688" y="707.5" width="6.917525773195877" height="56.60363605277371" fill="#7c3aed" opacity="0.85"><title>2025-08-18 | ETH sell 174.46 usd | reason=budgeted_static_target_rebalance</title></rect>
<rect x="849.0412371134021" y="707.5" width="6.917525773195877" height="56.84066285424353" fill="#7c3aed" opacity="0.85"><title>2025-08-25 | ETH sell 175.19 usd | reason=budgeted_static_target_rebalance</title></rect>
<rect x="861.7495704467353" y="707.5" width="6.917525773195877" height="44.66740143798188" fill="#7c3aed" opacity="0.85"><title>2025-09-01 | ETH sell 137.67 usd | reason=budgeted_static_target_rebalance</title></rect>
<rect x="874.4579037800688" y="707.5" width="6.917525773195877" height="33.0703740832314" fill="#7c3aed" opacity="0.85"><title>2025-09-08 | ETH sell 101.92 usd | reason=budgeted_static_target_rebalance</title></rect>
<rect x="887.1662371134021" y="707.5" width="6.917525773195877" height="34.34569282241398" fill="#7c3aed" opacity="0.85"><title>2025-09-15 | ETH sell 105.86 usd | reason=budgeted_static_target_rebalance</title></rect>
<rect x="899.8745704467353" y="707.5" width="6.917525773195877" height="9.919809772314807" fill="#7c3aed" opacity="0.85"><title>2025-09-22 | ETH sell 30.57 usd | reason=budgeted_static_target_rebalance</title></rect>
<rect x="912.5829037800688" y="707.5" width="6.917525773195877" height="8.785712451489985" fill="#7c3aed" opacity="0.85"><title>2025-09-29 | ETH sell 27.08 usd | reason=budgeted_static_target_rebalance</title></rect>
<rect x="925.2912371134021" y="707.5" width="6.917525773195877" height="14.111584599680555" fill="#7c3aed" opacity="0.85"><title>2025-10-06 | ETH sell 43.49 usd | reason=budgeted_static_target_rebalance</title></rect>
<rect x="937.9995704467353" y="707.5" width="6.917525773195877" height="5.916126869119466" fill="#7c3aed" opacity="0.85"><title>2025-10-13 | ETH sell 18.23 usd | reason=budgeted_static_target_rebalance</title></rect>
<rect x="950.7079037800688" y="707.5" width="6.917525773195877" height="1.5" fill="#7c3aed" opacity="0.85"><title>2025-10-20 | ETH sell 2.71 usd | reason=budgeted_static_target_rebalance</title></rect>
<rect x="963.4162371134021" y="707.5" width="6.917525773195877" height="2.875856722817389" fill="#7c3aed" opacity="0.85"><title>2025-10-27 | ETH sell 8.86 usd | reason=budgeted_static_target_rebalance</title></rect>
<rect x="976.1245704467353" y="668.5860500100935" width="6.917525773195877" height="38.91394998990654" fill="#2563eb" opacity="0.85"><title>2025-11-03 | ETH buy 119.93 usd | reason=budgeted_static_target_rebalance</title></rect>
<rect x="988.8329037800688" y="684.8146843920741" width="6.917525773195877" height="22.685315607925872" fill="#2563eb" opacity="0.85"><title>2025-11-10 | ETH buy 69.92 usd | reason=budgeted_static_target_rebalance</title></rect>
<rect x="1001.5412371134021" y="664.8060012163209" width="6.917525773195877" height="42.69399878367915" fill="#2563eb" opacity="0.85"><title>2025-11-17 | ETH buy 131.59 usd | reason=budgeted_static_target_rebalance</title></rect>
<rect x="1014.2495704467353" y="687.7489875544031" width="6.917525773195877" height="19.75101244559687" fill="#2563eb" opacity="0.85"><title>2025-11-24 | ETH buy 60.87 usd | reason=budgeted_static_target_rebalance</title></rect>
<rect x="1026.9579037800688" y="681.1990996068033" width="6.917525773195877" height="26.300900393196684" fill="#2563eb" opacity="0.85"><title>2025-12-01 | ETH buy 81.06 usd | reason=budgeted_static_target_rebalance</title></rect>
<rect x="1039.666237113402" y="707.5" width="6.917525773195877" height="7.6823825848603065" fill="#7c3aed" opacity="0.85"><title>2025-12-08 | ETH sell 23.68 usd | reason=budgeted_static_target_rebalance</title></rect>
<rect x="1052.3745704467353" y="707.5" width="6.917525773195877" height="2.8288400568083034" fill="#7c3aed" opacity="0.85"><title>2025-12-15 | ETH sell 8.72 usd | reason=budgeted_static_target_rebalance</title></rect>
<rect x="1065.0829037800688" y="707.5" width="6.917525773195877" height="1.5" fill="#7c3aed" opacity="0.85"><title>2025-12-22 | ETH sell 4.60 usd | reason=budgeted_static_target_rebalance</title></rect>
<rect x="1077.791237113402" y="706.5020863270503" width="6.917525773195877" height="1.5" fill="#2563eb" opacity="0.85"><title>2025-12-29 | ETH buy 3.08 usd | reason=budgeted_static_target_rebalance</title></rect>
<rect x="1090.4995704467353" y="707.5" width="6.917525773195877" height="4.559858600967573" fill="#7c3aed" opacity="0.85"><title>2026-01-05 | ETH sell 14.05 usd | reason=budgeted_static_target_rebalance</title></rect>
<rect x="1103.2079037800688" y="707.5" width="6.917525773195877" height="1.7942270490596002" fill="#7c3aed" opacity="0.85"><title>2026-01-12 | ETH sell 5.53 usd | reason=budgeted_static_target_rebalance</title></rect>
<rect x="1115.916237113402" y="707.5" width="6.917525773195877" height="5.634045063377357" fill="#7c3aed" opacity="0.85"><title>2026-01-19 | ETH sell 17.36 usd | reason=budgeted_static_target_rebalance</title></rect>
<rect x="1128.6245704467353" y="696.2560698261043" width="6.917525773195877" height="11.243930173895706" fill="#2563eb" opacity="0.85"><title>2026-01-26 | ETH buy 34.65 usd | reason=budgeted_static_target_rebalance</title></rect>
<rect x="1141.3329037800688" y="658.8311484974839" width="6.917525773195877" height="48.66885150251608" fill="#2563eb" opacity="0.85"><title>2026-02-02 | ETH buy 150.00 usd | reason=budgeted_static_target_rebalance</title></rect>
<rect x="1154.041237113402" y="665.8984618150565" width="6.917525773195877" height="41.60153818494348" fill="#2563eb" opacity="0.85"><title>2026-02-09 | ETH buy 128.22 usd | reason=budgeted_static_target_rebalance</title></rect>
<rect x="1166.7495704467353" y="669.1608099647289" width="6.917525773195877" height="38.339190035271145" fill="#2563eb" opacity="0.85"><title>2026-02-16 | ETH buy 118.16 usd | reason=budgeted_static_target_rebalance</title></rect>
<rect x="1179.4579037800688" y="678.7013928141669" width="6.917525773195877" height="28.798607185833134" fill="#2563eb" opacity="0.85"><title>2026-02-23 | ETH buy 88.76 usd | reason=budgeted_static_target_rebalance</title></rect>
<rect x="1192.166237113402" y="707.5" width="6.917525773195877" height="1.5" fill="#7c3aed" opacity="0.85"><title>2026-03-02 | ETH sell 1.27 usd | reason=budgeted_static_target_rebalance</title></rect>
<rect x="1204.8745704467353" y="703.8717715777316" width="6.917525773195877" height="3.628228422268421" fill="#2563eb" opacity="0.85"><title>2026-03-09 | ETH buy 11.18 usd | reason=budgeted_static_target_rebalance</title></rect>
<rect x="1217.5829037800688" y="707.5" width="6.917525773195877" height="13.623707192446773" fill="#7c3aed" opacity="0.85"><title>2026-03-16 | ETH sell 41.99 usd | reason=budgeted_static_target_rebalance</title></rect>
<rect x="1230.291237113402" y="707.5" width="6.917525773195877" height="3.892965957770002" fill="#7c3aed" opacity="0.85"><title>2026-03-23 | ETH sell 12.00 usd | reason=budgeted_static_target_rebalance</title></rect>
<rect x="1242.9995704467353" y="707.5" width="6.917525773195877" height="1.5" fill="#7c3aed" opacity="0.85"><title>2026-03-30 | ETH sell 1.60 usd | reason=budgeted_static_target_rebalance</title></rect>
<rect x="1255.7079037800688" y="707.5" width="6.917525773195877" height="2.8571616783136733" fill="#7c3aed" opacity="0.85"><title>2026-04-06 | ETH sell 8.81 usd | reason=budgeted_static_target_rebalance</title></rect>
<rect x="1268.416237113402" y="707.5" width="6.917525773195877" height="11.378516826015925" fill="#7c3aed" opacity="0.85"><title>2026-04-13 | ETH sell 35.07 usd | reason=budgeted_static_target_rebalance</title></rect>
<rect x="1281.1245704467353" y="707.5" width="6.917525773195877" height="4.382342834445012" fill="#7c3aed" opacity="0.85"><title>2026-04-20 | ETH sell 13.51 usd | reason=budgeted_static_target_rebalance</title></rect>
<rect x="1293.8329037800688" y="707.5" width="6.917525773195877" height="3.1850511553785736" fill="#7c3aed" opacity="0.85"><title>2026-04-27 | ETH sell 9.82 usd | reason=budgeted_static_target_rebalance</title></rect>
<rect x="1306.541237113402" y="707.5" width="6.917525773195877" height="1.5" fill="#7c3aed" opacity="0.85"><title>2026-05-04 | ETH sell 1.23 usd | reason=budgeted_static_target_rebalance</title></rect>
<text x="24" y="707.5" transform="rotate(-90 24,707.5)" text-anchor="middle" font-family="monospace" font-size="14" fill="#0f172a">ETH weekly trade usd</text>
<rect x="1040" y="478" width="14" height="10" fill="#ea580c" opacity="0.85"/>
<text x="1062" y="488" font-family="monospace" font-size="11" fill="#0f172a">BTC buy</text>
<rect x="1190" y="478" width="14" height="10" fill="#dc2626" opacity="0.85"/>
<text x="1212" y="488" font-family="monospace" font-size="11" fill="#0f172a">BTC sell</text>
<rect x="1040" y="498" width="14" height="10" fill="#2563eb" opacity="0.85"/>
<text x="1062" y="508" font-family="monospace" font-size="11" fill="#0f172a">ETH buy</text>
<rect x="1190" y="498" width="14" height="10" fill="#7c3aed" opacity="0.85"/>
<text x="1212" y="508" font-family="monospace" font-size="11" fill="#0f172a">ETH sell</text>
</svg>